# This file uses centimeters as units for non-parametric coordinates.

mtllib SU01.mtl
g default
v 155.646790 249.071442 -180.987335
v 151.839127 258.263947 -177.923004
v 142.646622 262.071594 -177.923004
v 152.785416 246.210022 -179.108246
v 139.785278 259.210205 -179.108246
v 148.977768 255.402542 -179.108246
v 139.785248 4.046592 -179.108246
v 152.785416 17.046757 -179.108246
v 148.977753 7.854252 -179.108246
v 155.646790 14.185397 -177.923004
v 151.839127 4.992884 -177.923004
v 142.646622 1.185220 -177.923004
v 156.832001 250.256653 -175.061646
v 153.024338 259.449158 -175.061646
v 143.831833 263.256805 -175.061646
v 143.831833 0.000001 -175.061646
v 153.024338 3.807663 -175.061646
v 156.832001 13.000172 -175.061646
v -155.646790 249.071442 -177.923004
v -151.839127 258.263947 -177.923004
v -142.646622 262.071594 -177.923004
v -143.831833 263.256805 -175.061646
v -153.024338 259.449158 -175.061646
v -156.832001 250.256653 -175.061646
v -156.832001 13.000172 -175.061646
v -153.024338 3.807663 -175.061646
v -143.831833 0.000001 -175.061646
v -155.646790 14.185397 -177.923004
v -151.839127 4.992884 -177.923004
v -142.646622 1.185220 -177.923004
v -152.785416 246.210022 -179.108246
v -148.977768 255.402542 -179.108246
v -139.785278 259.210205 -179.108246
v -148.977753 7.854252 -179.108246
v -152.785416 17.046757 -179.108246
v -139.785248 4.046592 -179.108246
v -155.646790 14.185397 184.051666
v -151.839127 4.992884 184.051666
v -142.646622 1.185220 184.051666
v -143.831833 0.000001 181.190308
v -153.024338 3.807663 181.190308
v -156.832001 13.000172 181.190308
v -156.832001 250.256653 181.190308
v -153.024338 259.449158 181.190308
v -143.831833 263.256805 181.190308
v -155.646790 249.071442 184.051666
v -151.839127 258.263947 184.051666
v -142.646622 262.071594 184.051666
v -152.785416 17.046757 185.236908
v -148.977753 7.854252 185.236908
v -139.785248 4.046592 185.236908
v -139.785278 259.210205 185.236908
v -148.977768 255.402542 185.236908
v -152.785416 246.210022 185.236908
v 155.646790 14.185397 184.051666
v 151.839127 4.992884 184.051666
v 142.646622 1.185220 184.051666
v 139.785248 4.046592 185.236908
v 148.977753 7.854252 185.236908
v 152.785416 17.046757 185.236908
v 152.785416 246.210022 185.236908
v 148.977768 255.402542 185.236908
v 139.785278 259.210205 185.236908
v 155.646790 249.071442 184.051666
v 151.839127 258.263947 184.051666
v 142.646622 262.071594 184.051666
v 156.832001 13.000172 181.190308
v 153.024338 3.807663 181.190308
v 143.831833 0.000001 181.190308
v 143.831833 263.256805 181.190308
v 153.024338 259.449158 181.190308
v 156.832001 250.256653 181.190308
v 146.617218 23.214966 184.051666
v 142.809555 14.022453 184.051666
v 133.617050 10.214789 184.051666
v 132.431839 11.400008 181.190308
v 141.624344 15.207670 181.190308
v 145.432007 24.400179 181.190308
v 145.432007 238.856674 181.190308
v 141.624344 248.049179 181.190308
v 132.431839 251.856842 181.190308
v 146.617218 240.041885 184.051666
v 142.809555 249.234390 184.051666
v 133.617050 253.042053 184.051666
v 149.478592 20.353582 185.236908
v 145.670929 11.161077 185.236908
v 136.478409 7.353418 185.236908
v 136.478424 255.903427 185.236908
v 145.670929 252.095764 185.236908
v 149.478592 242.903259 185.236908
v -146.617218 23.214966 184.051666
v -142.809555 14.022453 184.051666
v -133.617050 10.214789 184.051666
v -136.478409 7.353418 185.236908
v -145.670929 11.161077 185.236908
v -149.478592 20.353582 185.236908
v -149.478592 242.903259 185.236908
v -145.670929 252.095764 185.236908
v -136.478424 255.903427 185.236908
v -146.617218 240.041885 184.051666
v -142.809555 249.234390 184.051666
v -133.617050 253.042053 184.051666
v -145.432007 24.400179 181.190308
v -141.624344 15.207670 181.190308
v -132.431839 11.400008 181.190308
v -132.431839 251.856842 181.190308
v -141.624344 248.049179 181.190308
v -145.432007 238.856674 181.190308
v 133.285187 246.210022 -179.108246
v -133.285202 246.210022 -182.172577
v -139.252930 24.079191 -179.108246
v 139.252930 24.079191 -182.172577
vt 0.090040 0.900363
vt 0.059211 0.888657
vt 0.069567 0.879245
vt 0.098749 0.890946
vt 0.049853 0.859932
vt 0.060057 0.851263
vt 0.089060 0.108036
vt 0.060517 0.120087
vt 0.052913 0.112449
vt 0.085366 0.098665
vt 0.048368 0.148629
vt 0.039034 0.144836
vt 0.955143 0.899808
vt 0.983732 0.887519
vt 0.991419 0.895137
vt 0.958835 0.909186
vt 0.995683 0.858812
vt 1.005072 0.862489
vt 0.953701 0.106931
vt 0.981717 0.118760
vt 0.972749 0.127776
vt 0.945020 0.116313
vt 0.993699 0.146726
vt 0.984353 0.155452
vt 2.167079 0.960038
vt 2.288711 0.960038
vt -0.675817 0.987737
vt 2.167079 0.995917
vt -0.582902 0.959153
vt -0.582902 0.987737
vt -1.201255 0.961299
vt -1.314791 0.961299
vt 1.611542 0.926324
vt -1.163043 0.925571
vt 1.519831 0.959153
vt 1.489089 0.926324
vt -1.224340 0.960038
vt -1.346178 0.960038
vt 1.785217 0.917926
vt -1.183473 0.922037
vt 1.681533 0.951689
vt 1.645501 0.917926
vt 1.984787 0.961299
vt 2.235530 0.961299
vt -0.902825 0.983506
vt 1.984787 0.995021
vt -0.794702 0.951689
vt -0.794702 0.983506
vt -1.103455 0.844965
vt -1.346178 0.844965
vt 1.785217 0.818781
vt -1.103455 0.810242
vt 1.574843 0.849561
vt 1.574843 0.818782
vt 1.871018 0.853160
vt 2.235530 0.853160
vt -0.902825 0.882123
vt 1.909576 0.887652
vt -0.687400 0.849561
vt -0.723785 0.882123
vt 2.046224 0.844964
vt 2.288711 0.844964
vt -0.675817 0.888118
vt 2.087177 0.881687
vt -0.491950 0.847771
vt -0.522781 0.888118
vt -1.088055 0.853160
vt -1.314791 0.853160
vt 1.611542 0.806446
vt -1.088055 0.820532
vt 1.428898 0.847771
vt 1.428898 0.806446
vt 0.057712 0.157355
vt 0.031711 0.863747
vt 1.003057 0.143002
vt 0.986282 0.850126
vt 1.519831 0.987737
vt -0.552156 0.926324
vt -0.758428 0.917926
vt 1.681533 0.983506
vt -0.687400 0.818782
vt 1.611021 0.882123
vt 1.459722 0.888118
vt -0.491950 0.806446
vt 1.383058 0.984790
vt 1.383057 0.009456
vt 2.032969 0.009457
vt 2.032969 0.984790
vt 0.485931 0.009457
vt 0.485931 0.984789
vt -0.163829 0.984788
vt -0.163830 0.009456
vt 2.126227 0.922037
vt -1.144417 0.881687
vt -1.126444 0.887652
vt 1.946321 0.925571
vt 1.328546 0.984789
vt 0.540448 0.984790
vt 0.540448 0.009457
vt 1.328546 0.009457
vt -1.005368 0.009456
vt -0.218220 0.009456
vt -0.218220 0.984789
vt -1.005369 0.984789
vt 0.086336 0.909764
vt 0.946427 0.890436
vt 0.097772 0.117400
vt 0.957368 0.097556
vt -1.224340 0.995918
vt -1.201255 0.995021
vt 2.046224 0.810242
vt 1.871018 0.820532
vt 0.926593 0.850060
vt 0.974561 0.878430
vt 0.051545 0.897662
vt 0.069602 0.129204
vt 0.989207 0.111228
vt 2.288711 0.922037
vt 2.060220 0.009457
vt 2.060220 0.984789
vt -1.032596 0.009456
vt -1.032595 0.984789
vt 1.355804 0.009457
vt 1.355804 0.984790
vt 1.611542 0.987737
vt -1.346178 0.995918
vt 2.235530 0.925571
vt -0.190990 0.009456
vt -0.190989 0.984788
vt 0.513192 0.009457
vt 0.513192 0.984789
vt -1.346178 0.881687
vt 2.235530 0.820532
vt 2.288711 0.810242
vt 1.611542 0.888118
vt 0.943464 0.176943
vt 0.118669 0.851431
vt 0.099664 0.178680
vt -0.902825 0.917926
vt 2.235530 0.887652
vt -0.902825 0.818782
vt -0.902825 0.849561
vt -0.902825 0.951689
vt 2.235530 0.995021
vt -1.314791 0.887652
vt 1.611542 0.847771
vt -1.314791 0.925571
vt -0.675817 0.926324
vt 2.288711 0.881686
vt -0.675817 0.847771
vt -0.675817 0.806446
vt -1.346178 0.922037
vt 1.785217 0.882123
vt 1.785217 0.849561
vt 1.785217 0.951689
vt 1.785217 0.983506
vt -1.314791 0.995021
vt 1.611542 0.959153
vt -0.675817 0.959153
vt -1.314791 0.820532
vt -1.346178 0.810242
vt 2.288711 0.995917
vn 0.011001 0.373246 -0.927667
vn 0.198753 0.198755 -0.959684
vn 0.056848 0.056847 -0.996763
vn 0.000873 0.127940 -0.991782
vn 0.198753 0.198755 -0.959684
vn 0.371497 0.013032 -0.928343
vn 0.085096 0.000699 -0.996373
vn 0.056848 0.056847 -0.996763
vn 0.008499 -0.922597 -0.385672
vn 0.336557 -0.812520 -0.475962
vn 0.382681 -0.923873 -0.003794
vn 0.012829 -0.999914 -0.002619
vn 0.812520 -0.336558 -0.475962
vn 0.922333 -0.010186 -0.386262
vn 0.999879 -0.015339 -0.002634
vn 0.923873 -0.382681 -0.003794
vn -0.008499 0.922601 -0.385661
vn -0.336554 0.812519 -0.475967
vn -0.382680 0.923873 -0.003794
vn -0.012829 0.999914 -0.002619
vn -0.812521 0.336557 -0.475961
vn -0.922333 0.010186 -0.386262
vn -0.999879 0.015339 -0.002634
vn -0.923873 0.382681 -0.003794
vn -0.011001 -0.373248 -0.927666
vn -0.198754 -0.198755 -0.959684
vn -0.055149 -0.055149 -0.996954
vn -0.000499 -0.073139 -0.997322
vn -0.198754 -0.198755 -0.959684
vn -0.371498 -0.013032 -0.928342
vn -0.109196 -0.000896 -0.994020
vn -0.055149 -0.055149 -0.996954
vn -0.008499 -0.922597 0.385672
vn -0.336556 -0.812521 0.475962
vn -0.382681 -0.923873 0.003794
vn -0.012829 -0.999914 0.002619
vn -0.812521 -0.336557 0.475962
vn -0.922334 -0.010186 0.386260
vn -0.999879 -0.015339 0.002634
vn -0.923873 -0.382681 0.003794
vn -0.011001 0.373246 0.927667
vn -0.198756 0.198756 0.959683
vn -0.120105 0.120103 0.985469
vn -0.001900 0.278579 0.960411
vn -0.198756 0.198756 0.959683
vn -0.371502 0.013032 0.928341
vn -0.277262 0.002276 0.960792
vn -0.120105 0.120103 0.985469
vn 0.011001 -0.373248 0.927666
vn 0.198757 -0.198755 0.959683
vn 0.120106 -0.120103 0.985469
vn 0.001900 -0.278580 0.960411
vn 0.198757 -0.198755 0.959683
vn 0.371502 -0.013032 0.928341
vn 0.277263 -0.002276 0.960791
vn 0.120106 -0.120103 0.985469
vn 0.008499 0.922601 0.385661
vn 0.336556 0.812518 0.475967
vn 0.382680 0.923873 0.003794
vn 0.012829 0.999914 0.002619
vn 0.812521 0.336558 0.475960
vn 0.922334 0.010186 0.386260
vn 0.999879 0.015339 0.002634
vn 0.923873 0.382681 0.003794
vn -0.018328 0.921018 0.389089
vn -0.336558 0.812520 0.475962
vn -0.378545 0.913887 0.146680
vn -0.012608 0.992562 0.121087
vn -0.812521 0.336557 0.475961
vn -0.920373 0.022168 0.390412
vn -0.992505 0.015328 0.121237
vn -0.913887 0.378544 0.146680
vn -0.002710 -0.380368 0.924831
vn -0.198758 -0.198756 0.959683
vn -0.071072 -0.071071 0.994936
vn -0.002994 -0.097463 0.995235
vn -0.198758 -0.198756 0.959683
vn -0.379867 -0.003288 0.925035
vn -0.097787 -0.003604 0.995201
vn -0.071072 -0.071071 0.994936
vn 0.002710 0.380365 0.924832
vn 0.198756 0.198756 0.959683
vn 0.071071 0.071071 0.994936
vn 0.002994 0.097462 0.995235
vn 0.198756 0.198756 0.959683
vn 0.379867 0.003288 0.925035
vn 0.097786 0.003604 0.995201
vn 0.071071 0.071071 0.994936
vn 0.018328 -0.921019 0.389087
vn 0.336558 -0.812522 0.475959
vn 0.378545 -0.913887 0.146679
vn 0.012608 -0.992562 0.121086
vn 0.812521 -0.336558 0.475961
vn 0.920373 -0.022168 0.390412
vn 0.992505 -0.015328 0.121237
vn 0.913887 -0.378545 0.146680
vn 0.085096 0.000699 -0.996373
vn 0.371497 0.013032 -0.928343
vn 0.371498 -0.013032 -0.928342
vn 0.109196 -0.000896 -0.994020
vn 0.922333 0.010186 -0.386262
vn 0.999879 0.015339 -0.002634
vn 0.999879 -0.015339 -0.002634
vn 0.922333 -0.010186 -0.386262
vn -0.999879 0.015339 -0.002634
vn -0.922333 0.010186 -0.386262
vn -0.922333 -0.010186 -0.386262
vn -0.999879 -0.015339 -0.002634
vn -0.371497 0.013032 -0.928343
vn -0.085096 0.000699 -0.996373
vn -0.109196 -0.000896 -0.994020
vn -0.371498 -0.013032 -0.928342
vn -0.999879 -0.015339 0.002634
vn -0.922334 -0.010186 0.386260
vn -0.922334 0.010186 0.386260
vn -0.999879 0.015339 0.002634
vn -0.371502 -0.013032 0.928341
vn -0.277263 -0.002276 0.960791
vn -0.277262 0.002276 0.960792
vn -0.371502 0.013032 0.928341
vn 0.277263 -0.002276 0.960791
vn 0.371502 -0.013032 0.928341
vn 0.371502 0.013032 0.928341
vn 0.277262 0.002276 0.960792
vn 0.922334 -0.010186 0.386260
vn 0.999879 -0.015339 0.002634
vn 0.999879 0.015339 0.002634
vn 0.922334 0.010186 0.386260
vn -0.992505 0.015328 0.121237
vn -0.920373 0.022168 0.390412
vn -0.920373 -0.022168 0.390412
vn -0.992505 -0.015328 0.121237
vn -0.379867 0.003288 0.925035
vn -0.097786 0.003604 0.995201
vn -0.097787 -0.003604 0.995201
vn -0.379867 -0.003288 0.925035
vn 0.097786 0.003604 0.995201
vn 0.379867 0.003288 0.925035
vn 0.379867 -0.003288 0.925035
vn 0.097787 -0.003604 0.995201
vn 0.920373 0.022168 0.390412
vn 0.992505 0.015328 0.121237
vn 0.992505 -0.015328 0.121237
vn 0.920373 -0.022168 0.390412
vn -0.999879 0.015339 0.002634
vn -0.999879 0.015339 -0.002634
vn -0.999879 -0.015339 -0.002634
vn -0.999879 -0.015339 0.002634
vn 0.999879 0.015339 -0.002634
vn 0.999879 0.015339 0.002634
vn 0.999879 -0.015339 0.002634
vn 0.999879 -0.015339 -0.002634
vn 0.277262 0.002276 0.960792
vn -0.097787 -0.003604 0.995201
vn -0.097786 0.003604 0.995201
vn 0.277263 -0.002276 0.960791
vn 0.097787 -0.003604 0.995201
vn -0.277262 0.002276 0.960792
vn -0.277263 -0.002276 0.960791
vn 0.097786 0.003604 0.995201
vn 0.000000 0.000000 1.000000
vn 0.001900 -0.278580 0.960411
vn -0.002994 0.097462 0.995235
vn 0.002994 0.097462 0.995235
vn 0.000000 0.000000 1.000000
vn -0.002994 -0.097463 0.995235
vn 0.001900 0.278579 0.960411
vn -0.001900 0.278579 0.960411
vn 0.000000 1.000000 0.000000
vn 0.012829 0.999914 0.002619
vn 0.012829 0.999914 -0.002619
vn -0.012829 0.999914 -0.002619
vn 0.000000 -1.000000 0.000000
vn 0.012829 -0.999914 -0.002619
vn 0.012829 -0.999914 0.002619
vn -0.012829 -0.999914 0.002619
vn 0.012829 0.999914 -0.002619
vn 0.008499 0.922601 -0.385661
vn -0.008499 0.922601 -0.385661
vn -0.012829 0.999914 -0.002619
vn 0.011001 0.373246 -0.927667
vn 0.000873 0.127940 -0.991782
vn -0.000873 0.127940 -0.991782
vn -0.011001 0.373246 -0.927667
vn 0.000000 -0.382690 -0.923877
vn 0.000499 -0.073139 -0.997322
vn 0.011001 -0.373248 -0.927666
vn -0.011001 -0.373248 -0.927666
vn 0.008499 -0.922597 -0.385672
vn 0.012829 -0.999914 -0.002619
vn -0.012829 -0.999914 -0.002619
vn -0.008499 -0.922597 -0.385672
vn 0.000000 -0.382690 0.923877
vn 0.011001 -0.373248 0.927666
vn 0.001900 -0.278580 0.960411
vn -0.001900 -0.278580 0.960411
vn 0.012829 -0.999914 0.002619
vn 0.008499 -0.922597 0.385672
vn -0.008499 -0.922597 0.385672
vn -0.012829 -0.999914 0.002619
vn 0.000000 0.923882 0.382677
vn 0.008499 0.922601 0.385661
vn 0.012829 0.999914 0.002619
vn -0.012829 0.999914 0.002619
vn 0.001900 0.278579 0.960411
vn 0.011001 0.373246 0.927667
vn -0.011001 0.373246 0.927667
vn -0.001900 0.278579 0.960411
vn -0.002994 0.097462 0.995235
vn -0.002710 0.380365 0.924832
vn 0.002710 0.380365 0.924832
vn 0.002994 0.097462 0.995235
vn -0.018328 0.921018 0.389089
vn -0.012608 0.992562 0.121087
vn 0.012608 0.992562 0.121087
vn 0.018328 0.921018 0.389089
vn -0.012608 -0.992562 0.121086
vn -0.018328 -0.921018 0.389088
vn 0.018328 -0.921019 0.389087
vn 0.012608 -0.992562 0.121086
vn -0.002710 -0.380368 0.924831
vn -0.002994 -0.097463 0.995235
vn 0.002994 -0.097463 0.995235
vn 0.002710 -0.380368 0.924831
vn -0.000873 0.127940 -0.991782
vn 0.000000 0.000000 -1.000000
vn -0.085096 0.000699 -0.996373
vn -0.056848 0.056847 -0.996763
vn 0.922333 0.010186 -0.386262
vn 0.812521 0.336557 -0.475961
vn 0.923873 0.382681 -0.003794
vn 0.999879 0.015339 -0.002634
vn 0.336556 0.812519 -0.475965
vn 0.008499 0.922601 -0.385661
vn 0.012829 0.999914 -0.002619
vn 0.382680 0.923873 -0.003794
vn 0.000499 -0.073139 -0.997322
vn 0.055149 -0.055149 -0.996954
vn 0.198754 -0.198755 -0.959684
vn 0.011001 -0.373248 -0.927666
vn 0.055149 -0.055149 -0.996954
vn 0.109196 -0.000896 -0.994020
vn 0.371498 -0.013032 -0.928342
vn 0.198754 -0.198755 -0.959684
vn -0.371497 0.013032 -0.928343
vn -0.198754 0.198755 -0.959684
vn -0.056848 0.056847 -0.996763
vn -0.085096 0.000699 -0.996373
vn -0.198754 0.198755 -0.959684
vn -0.011001 0.373246 -0.927667
vn -0.000873 0.127940 -0.991782
vn -0.056848 0.056847 -0.996763
vn -0.012829 -0.999914 -0.002619
vn -0.382681 -0.923873 -0.003794
vn -0.336557 -0.812521 -0.475962
vn -0.008499 -0.922597 -0.385672
vn -0.923873 -0.382681 -0.003794
vn -0.999879 -0.015339 -0.002634
vn -0.922333 -0.010186 -0.386262
vn -0.812520 -0.336557 -0.475962
vn -0.371502 -0.013032 0.928341
vn -0.198756 -0.198755 0.959684
vn -0.120104 -0.120103 0.985470
vn -0.277263 -0.002276 0.960791
vn -0.198756 -0.198755 0.959684
vn -0.011001 -0.373248 0.927666
vn -0.001900 -0.278580 0.960411
vn -0.120104 -0.120103 0.985470
vn -0.999879 -0.015339 -0.002634
vn -0.923873 -0.382681 -0.003794
vn -0.923873 -0.382681 0.003794
vn -0.999879 -0.015339 0.002634
vn -0.382681 -0.923873 -0.003794
vn -0.012829 -0.999914 -0.002619
vn -0.012829 -0.999914 0.002619
vn -0.382681 -0.923873 0.003794
vn -0.012829 0.999914 -0.002619
vn -0.382680 0.923873 -0.003794
vn -0.382680 0.923873 0.003794
vn -0.012829 0.999914 0.002619
vn -0.923873 0.382681 -0.003794
vn -0.999879 0.015339 -0.002634
vn -0.999879 0.015339 0.002634
vn -0.923873 0.382681 0.003794
vn -0.012829 0.999914 0.002619
vn -0.382680 0.923873 0.003794
vn -0.336556 0.812518 0.475967
vn -0.008499 0.922601 0.385661
vn -0.923873 0.382681 0.003794
vn -0.999879 0.015339 0.002634
vn -0.922334 0.010186 0.386260
vn -0.812521 0.336557 0.475960
vn 0.922334 -0.010186 0.386260
vn 0.812521 -0.336558 0.475961
vn 0.923873 -0.382681 0.003794
vn 0.999879 -0.015339 0.002634
vn 0.336557 -0.812520 0.475962
vn 0.008499 -0.922597 0.385672
vn 0.012829 -0.999914 0.002619
vn 0.382681 -0.923873 0.003794
vn 0.001900 0.278579 0.960411
vn 0.120104 0.120103 0.985470
vn 0.198755 0.198756 0.959684
vn 0.011001 0.373246 0.927667
vn 0.120104 0.120103 0.985470
vn 0.277262 0.002276 0.960792
vn 0.371502 0.013032 0.928341
vn 0.198755 0.198756 0.959684
vn 0.012829 -0.999914 -0.002619
vn 0.382681 -0.923873 -0.003794
vn 0.382681 -0.923873 0.003794
vn 0.012829 -0.999914 0.002619
vn 0.923873 -0.382681 -0.003794
vn 0.999879 -0.015339 -0.002634
vn 0.999879 -0.015339 0.002634
vn 0.923873 -0.382681 0.003794
vn 0.999879 0.015339 -0.002634
vn 0.923873 0.382681 -0.003794
vn 0.923873 0.382681 0.003794
vn 0.999879 0.015339 0.002634
vn 0.382680 0.923873 -0.003794
vn 0.012829 0.999914 -0.002619
vn 0.012829 0.999914 0.002619
vn 0.382680 0.923873 0.003794
vn -0.379867 0.003288 0.925035
vn -0.198756 0.198756 0.959683
vn -0.071069 0.071071 0.994936
vn -0.097786 0.003604 0.995201
vn -0.198756 0.198756 0.959683
vn -0.002710 0.380365 0.924832
vn -0.002994 0.097462 0.995235
vn -0.071069 0.071071 0.994936
vn -0.012608 -0.992562 0.121086
vn -0.378545 -0.913887 0.146680
vn -0.336557 -0.812521 0.475962
vn -0.018328 -0.921018 0.389088
vn -0.913887 -0.378545 0.146680
vn -0.992505 -0.015328 0.121237
vn -0.920373 -0.022168 0.390412
vn -0.812521 -0.336558 0.475961
vn 0.001900 -0.278580 0.960411
vn 0.120106 -0.120103 0.985469
vn -0.071069 0.071071 0.994936
vn -0.002994 0.097462 0.995235
vn 0.120106 -0.120103 0.985469
vn 0.277263 -0.002276 0.960791
vn -0.097786 0.003604 0.995201
vn -0.071069 0.071071 0.994936
vn 0.277262 0.002276 0.960792
vn 0.120104 0.120103 0.985470
vn -0.071072 -0.071071 0.994936
vn -0.097787 -0.003604 0.995201
vn 0.120104 0.120103 0.985470
vn 0.001900 0.278579 0.960411
vn -0.002994 -0.097463 0.995235
vn -0.071072 -0.071071 0.994936
vn 0.920373 0.022168 0.390412
vn 0.812521 0.336557 0.475961
vn 0.913887 0.378544 0.146680
vn 0.992505 0.015328 0.121237
vn 0.336557 0.812520 0.475962
vn 0.018328 0.921018 0.389089
vn 0.012608 0.992562 0.121087
vn 0.378545 0.913887 0.146680
vn -0.277263 -0.002276 0.960791
vn -0.120104 -0.120103 0.985470
vn 0.071071 0.071071 0.994936
vn 0.097786 0.003604 0.995201
vn -0.120104 -0.120103 0.985470
vn -0.001900 -0.278580 0.960411
vn 0.002994 0.097462 0.995235
vn 0.071071 0.071071 0.994936
vn -0.001900 0.278579 0.960411
vn -0.120105 0.120103 0.985469
vn 0.071071 -0.071072 0.994936
vn 0.002994 -0.097463 0.995235
vn -0.120105 0.120103 0.985469
vn -0.277262 0.002276 0.960792
vn 0.097787 -0.003604 0.995201
vn 0.071071 -0.071072 0.994936
vn 0.002994 -0.097463 0.995235
vn 0.071071 -0.071072 0.994936
vn 0.198756 -0.198756 0.959683
vn 0.002710 -0.380368 0.924831
vn 0.071071 -0.071072 0.994936
vn 0.097787 -0.003604 0.995201
vn 0.379867 -0.003288 0.925035
vn 0.198756 -0.198756 0.959683
vn -0.055149 -0.055149 -0.996954
vn -0.109196 -0.000896 -0.994020
vn 0.000000 0.000000 -1.000000
vn -0.000499 -0.073139 -0.997322
vn 0.085096 0.000699 -0.996373
vn 0.000000 0.000000 -1.000000
vn 0.000873 0.127940 -0.991782
vn 0.056848 0.056847 -0.996763
vn 0.000499 -0.073139 -0.997322
vn 0.000000 0.000000 -1.000000
vn 0.109196 -0.000896 -0.994020
vn 0.055149 -0.055149 -0.996954
vn 0.000873 0.127940 -0.991782
vn 0.000000 0.000000 -1.000000
vn 0.000000 0.000000 -1.000000
vn -0.000873 0.127940 -0.991782
vn -0.005475 -0.076260 -0.997073
vn 0.000000 0.000000 -1.000000
vn 0.000499 -0.073139 -0.997322
vn -0.000499 -0.073139 -0.997322
vn 0.000000 0.000000 -1.000000
vn -0.109196 -0.000896 -0.994020
vn -0.085096 0.000699 -0.996373
vn 0.000000 0.000000 -1.000000
vn 0.000000 0.000000 -1.000000
vn 0.000000 0.000000 -1.000000
vn 0.000000 0.000000 -1.000000
vn 0.000000 0.000000 -1.000000
vn 0.109196 -0.000896 -0.994020
vn 0.000000 0.000000 -1.000000
vn 0.000000 0.000000 -1.000000
vn 0.085096 0.000699 -0.996373
s off
g polySurface1 S_U_01_01 S_U_01
usemtl aiStandardSurface6SG
f 3/1/1 2/2/2 6/3/3 5/4/4
f 2/2/5 1/5/6 4/6/7 6/3/8
f 12/7/9 11/8/10 17/9/11 16/10/12
f 11/8/13 10/11/14 18/12/15 17/9/16
f 21/13/17 20/14/18 23/15/19 22/16/20
f 20/14/21 19/17/22 24/18/23 23/15/24
f 30/19/25 29/20/26 34/21/27 36/22/28
f 29/20/29 28/23/30 35/24/31 34/21/32
usemtl aiStandardSurface5SG
f 39/25/33 38/26/34 41/162/35 40/28/36
f 38/159/37 37/29/38 42/30/39 41/27/40
f 48/31/41 47/32/42 53/147/43 52/34/44
f 47/158/45 46/35/46 54/36/47 53/33/48
f 57/37/49 56/38/50 59/152/51 58/40/52
f 56/155/53 55/41/54 60/42/55 59/39/56
f 66/43/57 65/44/58 71/144/59 70/46/60
f 65/143/61 64/47/62 72/48/63 71/45/64
f 75/49/65 74/50/66 77/161/67 76/52/68
f 74/154/69 73/53/70 78/54/71 77/51/72
f 84/55/73 83/56/74 89/140/75 88/58/76
f 83/142/77 82/59/78 90/60/79 89/57/80
f 93/61/81 92/62/82 95/149/83 94/64/84
f 92/150/85 91/65/86 96/66/87 95/63/88
f 102/67/89 101/68/90 107/160/91 106/70/92
f 101/146/93 100/71/94 108/72/95 107/69/96
usemtl aiStandardSurface6SG
f 4/6/97 1/5/98 10/11/99 8/73/100
f 1/5/101 13/74/102 18/12/103 10/11/104
f 24/18/105 19/17/106 28/23/107 25/75/108
f 19/17/109 31/76/110 35/24/111 28/23/112
usemtl aiStandardSurface5SG
f 42/30/113 37/29/114 46/35/115 43/77/116
f 37/29/117 49/78/118 54/36/119 46/35/120
f 60/42/121 55/41/122 64/47/123 61/79/124
f 55/41/125 67/80/126 72/48/127 64/47/128
f 78/54/129 73/53/130 82/59/131 79/81/132
f 73/53/133 85/82/134 90/60/135 82/59/136
f 96/66/137 91/65/138 100/71/139 97/83/140
f 91/65/141 103/84/142 108/72/143 100/71/144
usemtl aiStandardSurface6SG
f 43/85/145 24/86/146 25/87/147 42/88/148
f 13/89/149 72/90/150 67/91/151 18/92/152
usemtl aiStandardSurface5SG
f 61/79/153 90/60/154 85/82/155 60/42/156
f 97/83/157 54/36/158 49/78/159 96/66/160
f 51/93/161 58/40/162 87/94/163 94/64/164
f 99/95/165 88/58/166 63/96/167 52/34/168
usemtl aiStandardSurface6SG
f 45/97/169 70/98/170 15/99/171 22/100/172
f 27/101/173 16/102/174 69/103/175 40/104/176
f 15/105/177 3/1/178 21/13/179 22/16/180
f 3/1/181 5/4/182 33/106/183 21/13/184
f 36/22/185 7/107/186 12/7/187 30/19/188
f 12/7/189 16/10/190 27/108/191 30/19/192
usemtl aiStandardSurface5SG
f 39/25/193 57/37/194 58/40/195 51/93/196
f 69/109/197 57/37/198 39/25/199 40/28/200
f 48/31/201 66/43/202 70/46/203 45/110/204
f 63/96/205 66/43/206 48/31/207 52/34/208
f 87/94/209 75/49/210 93/61/211 94/64/212
f 75/49/213 76/52/214 105/111/215 93/61/216
f 81/112/217 84/55/218 102/67/219 106/70/220
f 84/55/221 88/58/222 99/95/223 102/67/224
usemtl aiStandardSurface6SG
f 33/106/225 110/113/226 31/76/227 32/114/228
f 1/5/229 2/2/230 14/115/231 13/74/232
f 2/2/233 3/1/234 15/105/235 14/115/236
f 7/107/237 9/116/238 11/8/239 12/7/240
f 9/116/241 8/73/242 10/11/243 11/8/244
f 19/17/245 20/14/246 32/114/247 31/76/248
f 20/14/249 21/13/250 33/106/251 32/114/252
f 27/108/253 26/117/254 29/20/255 30/19/256
f 26/117/257 25/75/258 28/23/259 29/20/260
usemtl aiStandardSurface5SG
f 37/29/261 38/159/262 50/148/263 49/78/264
f 38/26/265 39/25/266 51/93/267 50/118/268
usemtl aiStandardSurface6SG
f 25/87/269 26/119/270 41/120/271 42/88/272
f 26/121/273 27/101/274 40/104/275 41/122/276
f 22/100/277 23/123/278 44/124/279 45/97/280
f 23/123/281 24/86/282 43/85/283 44/124/284
usemtl aiStandardSurface5SG
f 45/110/285 44/157/286 47/32/287 48/31/288
f 44/125/289 43/77/290 46/35/291 47/158/292
f 55/41/293 56/155/294 68/156/295 67/80/296
f 56/38/297 57/37/298 69/109/299 68/126/300
f 63/96/301 62/127/302 65/44/303 66/43/304
f 62/139/305 61/79/306 64/47/307 65/143/308
usemtl aiStandardSurface6SG
f 16/102/309 17/128/310 68/129/311 69/103/312
f 17/128/313 18/92/314 67/91/315 68/129/316
f 13/89/317 14/130/318 71/131/319 72/90/320
f 14/130/321 15/99/322 70/98/323 71/131/324
usemtl aiStandardSurface5SG
f 73/53/325 74/154/326 86/153/327 85/82/328
f 74/50/329 75/49/330 87/94/331 86/132/332
f 81/112/333 80/133/334 83/56/335 84/55/336
f 80/141/337 79/81/338 82/59/339 83/142/340
f 58/40/341 59/152/342 86/132/343 87/94/344
f 59/39/345 60/42/346 85/82/347 86/153/348
f 61/79/349 62/139/350 89/57/351 90/60/352
f 62/127/353 63/96/354 88/58/355 89/140/356
f 91/65/357 92/150/358 104/151/359 103/84/360
f 92/62/361 93/61/362 105/111/363 104/134/364
f 49/78/365 50/148/366 95/63/367 96/66/368
f 50/118/369 51/93/370 94/64/371 95/149/372
f 52/34/373 53/147/374 98/145/375 99/95/376
f 53/33/377 54/36/378 97/83/379 98/135/380
f 99/95/381 98/145/382 101/68/383 102/67/384
f 98/135/385 97/83/386 100/71/387 101/146/388
usemtl aiStandardSurface6SG
f 34/21/389 35/24/390 111/136/391 36/22/392
f 4/6/393 109/137/394 5/4/395 6/3/396
f 7/107/397 112/138/398 8/73/399 9/116/400
f 5/4/401 109/137/402 110/113/403 33/106/404
f 111/136/405 112/138/406 7/107/407 36/22/408
f 111/136/409 35/24/410 31/76/411 110/113/412
f 109/137/413 112/138/414 111/136/415 110/113/416
f 8/73/417 112/138/418 109/137/419 4/6/420
g default
v 144.246796 25.585403 169.807587
v 140.439133 16.392889 169.807587
v 131.246628 12.585227 169.807587
v 127.184578 15.446599 168.622375
v 137.226089 21.104227 168.622375
v 141.385422 34.762951 168.622375
v 141.704727 230.850845 168.622375
v 137.586365 242.862701 168.622375
v 128.043579 247.810257 168.622375
v 144.246796 237.671463 169.807587
v 140.439133 246.863968 169.807587
v 131.246628 250.671631 169.807587
v 145.432007 24.400179 172.668976
v 141.624344 15.207670 172.668976
v 132.431839 11.400008 172.668976
v 132.431839 251.856842 172.668976
v 141.624344 248.049179 172.668976
v 145.432007 238.856674 172.668976
v -127.394524 211.699127 168.622375
v -140.516403 198.816986 168.622375
v -136.674118 207.926620 168.622375
v -137.578171 195.345749 167.535339
v -133.888641 204.875290 167.533508
v -124.979637 208.822449 167.533081
v -137.563782 58.768345 167.564117
v -133.896866 49.160599 167.565979
v -125.045837 45.180813 167.566284
v -127.328308 42.338524 168.622375
v -136.627289 46.104008 168.622375
v -140.480469 55.192268 168.622375
v 125.834663 211.656525 168.622375
v 135.976059 205.959579 168.622375
v 140.180908 192.206848 168.622375
v 124.671921 208.812897 167.545685
v 133.580536 204.865768 167.546265
v 137.271210 195.336868 167.546722
v -144.246796 25.585403 169.807587
v -140.439133 16.392889 169.807587
v -131.246628 12.585227 169.807587
v -132.431839 11.400008 172.668976
v -141.624344 15.207670 172.668976
v -145.432007 24.400179 172.668976
v -145.432007 238.856674 172.668976
v -141.624344 248.049179 172.668976
v -132.431839 251.856842 172.668976
v -144.246796 237.671463 169.807587
v -140.439133 246.863968 169.807587
v -131.246628 250.671631 169.807587
v -141.385422 28.446766 168.622375
v -137.577759 19.254259 168.622375
v -128.385254 15.446599 168.622375
v -137.577759 244.002594 168.622375
v -141.385422 234.810089 168.622375
v -128.385254 247.810257 168.622375
v 140.670486 59.002354 168.622375
v 136.524582 47.156956 168.622375
v 127.050026 42.288757 168.622375
v 137.283875 58.758514 167.550537
v 133.618103 49.150101 167.551025
v 124.766678 45.170307 167.551666
v 145.432007 24.400179 181.190308
v 145.432007 238.856674 181.190308
v -145.432007 238.856674 181.190308
v -145.432007 24.400179 181.190308
v -132.431839 11.400008 181.190308
v 132.431839 11.400008 181.190308
v 132.431839 251.856842 181.190308
v -132.431839 251.856842 181.190308
v 141.624344 15.207670 181.190308
v 141.624344 248.049179 181.190308
v -141.624344 15.207670 181.190308
v -141.624344 248.049179 181.190308
vt 1.916099 -0.852140
vt 2.004908 -0.805881
vt 1.972772 -0.758143
vt 1.869819 -0.817810
vt 2.049193 -0.717133
vt 2.013215 -0.614225
vt 1.870452 1.795885
vt 1.958119 1.754583
vt 1.979983 1.777195
vt 1.884243 1.829381
vt 2.003209 1.668242
vt 2.036836 1.683458
vt -0.960682 -0.491176
vt -1.051183 -0.459787
vt -1.080412 -0.493239
vt -0.986056 -0.525497
vt -1.082768 -0.352853
vt -1.118055 -0.392291
vt -1.032348 -0.860548
vt -1.121694 -0.815148
vt -1.144491 -0.837890
vt -1.046559 -0.895059
vt -1.166061 -0.724761
vt -1.200144 -0.738740
vt -1.004750 1.787693
vt -1.092482 1.746101
vt -1.064520 1.718556
vt -0.972755 1.754270
vt -1.137080 1.657822
vt -1.103525 1.624424
vt 1.973903 1.590337
vt 2.083412 -0.730827
vt -1.170815 1.672840
vt -1.131736 -0.692410
vt 2.132337 1.690357
vt 2.179297 -0.733362
vt -1.266340 1.679134
vt -1.295928 -0.742017
vt -1.050269 -0.991880
vt 1.934731 -0.983349
vt 1.930492 -0.886560
vt -1.018743 1.821112
vt 1.887640 1.923213
vt -1.022725 1.914939
vt -1.064064 1.180666
vt -1.098771 1.220206
vt -0.932029 1.326875
vt 1.797086 1.334708
vt 1.809703 1.368091
vt -0.958502 1.360550
vt -0.999688 -0.825957
vt 1.834930 1.762287
vt 1.965333 1.155545
vt 1.929729 1.189870
vt 1.960238 -0.345738
vt 1.999948 -0.341906
vt 1.864854 -0.518201
vt 1.839279 -0.483552
vt -1.092955 -0.786677
vt 2.027819 -0.828758
vt 1.930901 1.715204
vt 2.101841 -0.902097
vt 2.050293 1.850438
vt -1.056375 1.322579
vt -1.025332 1.287683
vt 1.917101 1.310142
vt 1.889867 1.295992
vt -1.114586 1.768326
vt -1.218389 -0.911454
vt -1.185622 1.841127
vt 1.960644 -0.474542
vt 1.929442 -0.452344
vn -0.018600 0.351795 0.935892
vn -0.152875 0.146151 0.977379
vn -0.049279 0.036676 0.998111
vn -0.000493 0.060116 0.998191
vn -0.152875 0.146151 0.977379
vn -0.319751 0.032834 0.946933
vn -0.339088 0.001657 0.940753
vn -0.049279 0.036676 0.998111
vn -0.009213 -0.922488 0.385917
vn -0.336558 -0.812523 0.475957
vn -0.379821 -0.916967 0.122096
vn -0.015081 -0.996095 0.086993
vn -0.812521 -0.336558 0.475960
vn -0.922169 -0.011228 0.386623
vn -0.995995 -0.018319 0.087514
vn -0.916967 -0.379820 0.122097
vn 0.003150 0.345671 0.938350
vn 0.182446 0.171058 0.968221
vn 0.023437 0.023500 0.999449
vn 0.000620 0.021706 0.999764
vn 0.182446 0.171058 0.968221
vn 0.340269 0.004048 0.940319
vn 0.138810 0.009009 0.990278
vn 0.023437 0.023500 0.999449
vn 0.009213 0.922485 0.385922
vn 0.336556 0.812521 0.475962
vn 0.379820 0.916967 0.122098
vn 0.015081 0.996095 0.086994
vn 0.812521 0.336557 0.475961
vn 0.922169 0.011228 0.386623
vn 0.995995 0.018319 0.087514
vn 0.916967 0.379820 0.122097
vn 0.011874 -0.372495 0.927958
vn 0.198756 -0.198754 0.959684
vn 0.031580 -0.031580 0.999002
vn 0.000294 -0.039684 0.999212
vn 0.198756 -0.198754 0.959684
vn 0.370433 -0.014264 0.928750
vn 0.298949 -0.002713 0.954265
vn 0.031580 -0.031580 0.999002
vn -0.339088 0.001657 0.940753
vn -0.319751 0.032834 0.946933
vn -0.348740 -0.030864 0.936711
vn -0.306082 -0.001246 0.952004
vn -0.922169 0.011228 0.386623
vn -0.995995 0.018319 0.087514
vn -0.995995 -0.018319 0.087514
vn -0.922169 -0.011228 0.386623
vn 0.995995 0.018319 0.087514
vn 0.922169 0.011228 0.386623
vn 0.922169 -0.011228 0.386623
vn 0.995995 -0.018319 0.087514
vn 0.370433 0.014264 0.928750
vn 0.320771 0.002911 0.947152
vn 0.298949 -0.002713 0.954265
vn 0.370433 -0.014264 0.928750
vn -0.992505 -0.015328 0.121237
vn -0.995995 -0.018319 0.087514
vn -0.995995 0.018319 0.087514
vn -0.992505 0.015328 0.121237
vn 0.995995 -0.018319 0.087514
vn 0.992505 -0.015328 0.121237
vn 0.992505 0.015328 0.121237
vn 0.995995 0.018319 0.087514
vn 0.000000 1.000000 0.000000
vn -0.012608 0.992562 0.121087
vn -0.015081 0.996095 0.086994
vn 0.015081 0.996095 0.086994
vn 0.000000 -1.000000 0.000000
vn -0.015081 -0.996095 0.086993
vn -0.012608 -0.992562 0.121086
vn 0.012608 -0.992562 0.121086
vn 0.138810 0.009009 0.990278
vn 0.340269 0.004048 0.940319
vn 0.340363 -0.003969 0.940286
vn 0.137794 -0.008795 0.990422
vn -0.000060 -0.354124 0.935198
vn -0.005445 -0.354027 0.935219
vn -0.000408 -0.018445 0.999830
vn 0.000433 -0.014715 0.999892
vn -0.015081 0.996095 0.086994
vn -0.009213 0.922485 0.385922
vn 0.009213 0.922485 0.385922
vn 0.015081 0.996095 0.086994
vn -0.018600 0.351795 0.935892
vn -0.000493 0.060116 0.998191
vn 0.000427 0.057566 0.998342
vn 0.011892 0.372481 0.927964
vn 0.000000 -0.382683 0.923880
vn -0.000350 -0.041194 0.999151
vn -0.014590 -0.364076 0.931255
vn 0.011874 -0.372495 0.927958
vn -0.009213 -0.922488 0.385917
vn -0.015081 -0.996095 0.086993
vn 0.015081 -0.996095 0.086993
vn 0.009213 -0.922488 0.385917
vn -0.204820 -0.001666 0.978798
vn -0.341947 -0.027445 0.939318
vn -0.320169 0.010695 0.947300
vn -0.180339 0.003302 0.983599
vn 0.000069 0.348302 0.937382
vn -0.000685 0.022139 0.999755
vn -0.003537 0.346461 0.938058
vn 0.003150 0.345671 0.938350
vn -0.339088 0.001657 0.940753
vn -0.306082 -0.001246 0.952004
vn -0.204820 -0.001666 0.978798
vn -0.180339 0.003302 0.983599
vn 0.138810 0.009009 0.990278
vn 0.320771 0.002911 0.947152
vn 0.044109 0.044108 0.998053
vn 0.023437 0.023500 0.999449
vn -0.922169 0.011228 0.386623
vn -0.812521 0.336557 0.475962
vn -0.916967 0.379820 0.122097
vn -0.995995 0.018319 0.087514
vn -0.336556 0.812521 0.475963
vn -0.009213 0.922485 0.385922
vn -0.015081 0.996095 0.086994
vn -0.379820 0.916967 0.122098
vn -0.000350 -0.041194 0.999151
vn -0.033063 -0.026669 0.999097
vn -0.171507 -0.170536 0.970311
vn -0.014590 -0.364076 0.931255
vn -0.033063 -0.026669 0.999097
vn -0.306082 -0.001246 0.952004
vn -0.348740 -0.030864 0.936711
vn -0.171507 -0.170536 0.970311
vn -0.012608 0.992562 0.121087
vn -0.378545 0.913887 0.146680
vn -0.379820 0.916967 0.122098
vn -0.015081 0.996095 0.086994
vn -0.913887 0.378544 0.146680
vn -0.992505 0.015328 0.121237
vn -0.995995 0.018319 0.087514
vn -0.916967 0.379820 0.122097
vn -0.992505 -0.015328 0.121237
vn -0.913887 -0.378545 0.146680
vn -0.916967 -0.379820 0.122097
vn -0.995995 -0.018319 0.087514
vn -0.378545 -0.913887 0.146680
vn -0.012608 -0.992562 0.121086
vn -0.015081 -0.996095 0.086993
vn -0.379821 -0.916967 0.122096
vn 0.000433 -0.014715 0.999892
vn 0.016992 -0.017017 0.999711
vn 0.185081 -0.175541 0.966918
vn 0.003024 -0.351486 0.936188
vn 0.016992 -0.017017 0.999711
vn 0.137794 -0.008795 0.990422
vn 0.340363 -0.003969 0.940286
vn 0.185081 -0.175541 0.966918
vn -0.306082 -0.001246 0.952004
vn -0.033063 -0.026669 0.999097
vn -0.021718 -0.015226 0.999648
vn -0.204820 -0.001666 0.978798
vn -0.033063 -0.026669 0.999097
vn -0.000350 -0.041194 0.999151
vn -0.000408 -0.018445 0.999830
vn -0.021718 -0.015226 0.999648
vn -0.204820 -0.001666 0.978798
vn -0.021718 -0.015226 0.999648
vn -0.281653 -0.262649 0.922869
vn -0.341947 -0.027445 0.939318
vn -0.021718 -0.015226 0.999648
vn -0.000408 -0.018445 0.999830
vn -0.005445 -0.354027 0.935219
vn -0.281653 -0.262649 0.922869
vn 0.370433 0.014264 0.928750
vn 0.198756 0.198755 0.959684
vn 0.044109 0.044108 0.998053
vn 0.320771 0.002911 0.947152
vn 0.198756 0.198755 0.959684
vn 0.011892 0.372481 0.927964
vn 0.000427 0.057566 0.998342
vn 0.044109 0.044108 0.998053
vn 0.015081 -0.996095 0.086993
vn 0.379821 -0.916967 0.122097
vn 0.336558 -0.812521 0.475960
vn 0.009213 -0.922488 0.385917
vn 0.916967 -0.379820 0.122097
vn 0.995995 -0.018319 0.087514
vn 0.922169 -0.011228 0.386623
vn 0.812521 -0.336558 0.475960
vn 0.015081 0.996095 0.086994
vn 0.379820 0.916967 0.122098
vn 0.378545 0.913887 0.146680
vn 0.012608 0.992562 0.121087
vn 0.916967 0.379820 0.122097
vn 0.995995 0.018319 0.087514
vn 0.992505 0.015328 0.121237
vn 0.913887 0.378544 0.146680
vn 0.995995 -0.018319 0.087514
vn 0.916967 -0.379820 0.122097
vn 0.913887 -0.378545 0.146680
vn 0.992505 -0.015328 0.121237
vn 0.379821 -0.916967 0.122097
vn 0.015081 -0.996095 0.086993
vn 0.012608 -0.992562 0.121086
vn 0.378545 -0.913887 0.146679
vn -0.000493 0.060116 0.998191
vn -0.049279 0.036676 0.998111
vn -0.029330 0.023488 0.999294
vn -0.000685 0.022139 0.999755
vn -0.049279 0.036676 0.998111
vn -0.339088 0.001657 0.940753
vn -0.180339 0.003302 0.983599
vn -0.029330 0.023488 0.999294
vn -0.000685 0.022139 0.999755
vn -0.029330 0.023488 0.999294
vn -0.212790 0.195294 0.957382
vn -0.003537 0.346461 0.938058
vn -0.029330 0.023488 0.999294
vn -0.180339 0.003302 0.983599
vn -0.320169 0.010695 0.947300
vn -0.212790 0.195294 0.957382
vn 0.031580 -0.031580 0.999002
vn 0.298949 -0.002713 0.954265
vn 0.137794 -0.008795 0.990422
vn 0.016992 -0.017017 0.999711
vn -0.000408 -0.018445 0.999830
vn -0.000350 -0.041194 0.999151
vn 0.000294 -0.039684 0.999212
vn 0.000433 -0.014715 0.999892
vn 0.031580 -0.031580 0.999002
vn 0.016992 -0.017017 0.999711
vn 0.000433 -0.014715 0.999892
vn 0.000294 -0.039684 0.999212
vn 0.137794 -0.008795 0.990422
vn 0.298949 -0.002713 0.954265
vn 0.320771 0.002911 0.947152
vn 0.138810 0.009009 0.990278
vn -0.000493 0.060116 0.998191
vn -0.000685 0.022139 0.999755
vn 0.000620 0.021706 0.999764
vn 0.000427 0.057566 0.998342
vn 0.023437 0.023500 0.999449
vn 0.044109 0.044108 0.998053
vn 0.000427 0.057566 0.998342
vn 0.000620 0.021706 0.999764
s off
g textureEditorIsolateSelectSet S_U_01_01 S_U_01 polySurface2
usemtl aiStandardSurface4SG
f 115/163/421 114/164/422 117/165/423 116/166/424
f 114/164/425 113/167/426 118/168/427 117/165/428
f 124/169/429 123/170/430 129/171/431 128/172/432
f 123/170/433 122/173/434 130/174/435 129/171/436
f 139/175/437 138/176/438 141/177/439 140/178/440
f 138/176/441 137/179/442 142/180/443 141/177/444
f 151/181/445 150/182/446 153/183/447 152/184/448
f 150/182/449 149/185/450 154/186/451 153/183/452
f 160/187/453 159/188/454 164/189/455 166/190/456
f 159/188/457 158/191/458 165/192/459 164/189/460
f 118/168/461 113/167/462 122/173/463 119/193/464
f 113/167/465 125/194/466 130/174/467 122/173/468
f 154/186/469 149/185/470 158/191/471 155/195/472
f 149/185/473 161/196/474 165/192/475 158/191/476
f 174/197/477 130/174/478 125/194/479 173/198/480
f 155/195/481 175/199/482 176/200/483 154/186/484
f 177/201/485 178/202/486 127/203/487 152/184/488
f 157/204/489 128/172/490 179/205/491 180/206/492
f 142/180/493 137/179/494 134/207/495 132/208/496
f 136/209/497 146/210/498 143/211/499 131/212/500
f 127/203/501 115/163/502 151/181/503 152/184/504
f 115/163/505 116/166/506 163/213/507 151/181/508
f 166/190/509 121/214/510 124/169/511 160/187/512
f 124/169/513 128/172/514 157/204/515 160/187/516
f 145/215/517 148/216/518 170/217/519 167/218/520
f 140/178/521 169/219/522 172/220/523 139/175/524
f 118/168/525 119/193/526 145/215/527 167/218/528
f 142/180/529 161/196/530 162/221/531 141/177/532
f 113/167/533 114/164/534 126/222/535 125/194/536
f 114/164/537 115/163/538 127/203/539 126/222/540
f 121/214/541 120/223/542 123/170/543 124/169/544
f 120/223/545 119/193/546 122/173/547 123/170/548
f 178/202/549 181/224/550 126/222/551 127/203/552
f 181/224/553 173/198/554 125/194/555 126/222/556
f 174/197/557 182/225/558 129/171/559 130/174/560
f 182/225/561 179/205/562 128/172/563 129/171/564
f 131/212/565 133/226/566 135/227/567 136/209/568
f 133/226/569 132/208/570 134/207/571 135/227/572
f 119/193/573 120/223/574 144/228/575 145/215/576
f 120/223/577 121/214/578 143/211/579 144/228/580
f 145/215/581 144/228/582 147/229/583 148/216/584
f 144/228/585 143/211/586 146/210/587 147/229/588
f 149/185/589 150/182/590 162/221/591 161/196/592
f 150/182/593 151/181/594 163/213/595 162/221/596
f 157/204/597 156/230/598 159/188/599 160/187/600
f 156/230/601 155/195/602 158/191/603 159/188/604
f 152/184/605 153/183/606 183/231/607 177/201/608
f 153/183/609 154/186/610 176/200/611 183/231/612
f 155/195/613 156/230/614 184/232/615 175/199/616
f 156/230/617 157/204/618 180/206/619 184/232/620
f 116/166/621 117/165/622 168/233/623 169/219/624
f 117/165/625 118/168/626 167/218/627 168/233/628
f 169/219/629 168/233/630 171/234/631 172/220/632
f 168/233/633 167/218/634 170/217/635 171/234/636
f 164/189/637 165/192/638 132/208/639 133/226/640
f 143/211/641 121/214/642 166/190/643 131/212/644
f 164/189/645 133/226/646 131/212/647 166/190/648
f 132/208/649 165/192/650 161/196/651 142/180/652
f 116/166/653 169/219/654 140/178/655 163/213/656
f 141/177/657 162/221/658 163/213/659 140/178/660
g default
v -142.154968 192.852875 157.427277
v -135.754547 207.577621 157.427277
v -120.302658 213.676819 157.427277
v 118.742798 213.676819 157.427277
v 134.194702 207.577621 157.427277
v 140.595093 192.852875 157.427277
v -120.302658 34.840752 157.427277
v -135.754547 40.939934 157.427277
v -142.154968 55.664700 157.427277
v 140.595093 55.664700 157.427277
v 134.194702 40.939934 157.427277
v 118.742798 34.840752 157.427277
v -118.162575 202.439178 157.427277
v 116.602715 202.439178 157.427277
v 116.602722 46.078415 157.427277
v -118.162582 46.078415 157.427277
v 129.350739 190.517395 157.427277
v 129.350739 58.000183 157.427277
v -130.910583 190.517395 157.427277
v -130.910583 58.000183 157.427277
v -127.295547 198.834152 157.427277
v 125.735687 198.834152 157.427277
v -127.295547 49.683376 157.427277
v 125.735687 49.683376 157.427277
v -120.302658 213.676819 181.205597
v -120.145973 212.854080 183.149948
v -119.767693 210.867706 183.955307
v 118.742798 213.676819 181.205597
v 118.586113 212.854080 183.149948
v 118.207832 210.867706 183.955307
v -142.154968 192.852875 181.205597
v -141.331696 192.681885 183.149948
v -139.344147 192.269058 183.955307
v -142.154968 55.664700 181.205597
v -141.331696 55.835690 183.149948
v -139.344147 56.248524 183.955307
v -120.302658 34.840752 181.205597
v -120.145973 35.663506 183.149948
v -119.767700 37.649876 183.955307
v 118.742798 34.840752 181.205597
v 118.586113 35.663506 183.149948
v 118.207840 37.649876 183.955307
v 140.595093 192.852875 181.205597
v 139.771820 192.681885 183.149948
v 137.784271 192.269058 183.955307
v 140.595093 55.664700 181.205597
v 139.771820 55.835690 183.149948
v 137.784271 56.248524 183.955307
v -135.754547 207.577621 181.205597
v -135.135223 206.937454 183.149948
v -133.640015 205.391998 183.955307
v 134.194702 207.577621 181.205597
v 133.575348 206.937454 183.149948
v 132.080139 205.391998 183.955307
v -135.754547 40.939934 181.205597
v -135.135223 41.580101 183.149948
v -133.640015 43.125561 183.955307
v 134.194702 40.939934 181.205597
v 133.575348 41.580101 183.149948
v 132.080139 43.125561 183.955307
v 117.137680 205.248306 183.955307
v 116.759399 203.261963 183.149948
v 116.602715 202.439178 181.205597
v -118.162575 202.439178 181.205597
v -118.319260 203.261963 183.149948
v -118.697540 205.248306 183.955307
v -118.697540 43.269283 183.955307
v -118.319267 45.255615 183.149948
v -118.162582 46.078415 181.205597
v 116.602722 46.078415 181.205597
v 116.759407 45.255615 183.149948
v 117.137680 43.269283 183.955307
v 132.161530 57.416363 183.955307
v 130.173981 57.829185 183.149948
v 129.350739 58.000183 181.205597
v 129.350739 190.517395 181.205597
v 130.173981 190.688385 183.149948
v 132.161530 191.101212 183.955307
v -133.721405 191.101212 183.955307
v -131.733856 190.688385 183.149948
v -130.910583 190.517395 181.205597
v -130.910583 58.000183 181.205597
v -131.733856 57.829185 183.149948
v -133.721405 57.416363 183.955307
v -129.410095 201.019791 183.955307
v -127.914886 199.474289 183.149948
v -127.295547 198.834152 181.205597
v 127.850243 201.019791 183.955307
v 126.355026 199.474289 183.149948
v 125.735687 198.834152 181.205597
v -129.410095 47.497734 183.955307
v -127.914886 49.043240 183.149948
v -127.295547 49.683376 181.205597
v 127.850243 47.497734 183.955307
v 126.355026 49.043240 183.149948
v 125.735687 49.683376 181.205597
vt 0.911054 0.200305
vt 0.911053 0.248257
vt 0.599377 0.361668
vt 0.095464 0.361668
vt 0.429004 0.248257
vt 0.429004 0.200305
vt 0.599376 0.307386
vt 0.095462 0.307386
vt 0.429021 0.302649
vt 0.429021 0.254701
vt 0.924360 0.361668
vt 0.639917 0.361668
vt 0.911055 0.254701
vt 0.911055 0.302649
vt 0.924359 0.307386
vt 0.639917 0.307386
vt 0.086481 0.248300
vt 0.943825 0.307386
vt 0.086477 0.200350
vt 0.620454 0.361668
vt 0.363126 0.200329
vt 0.620453 0.307386
vt 0.363129 0.248257
vt 0.943825 0.361668
vt 0.599377 0.412707
vt 0.907010 0.602342
vt 0.095181 0.602373
vt 0.096378 0.595150
vt 0.908414 0.609709
vt 0.093647 0.609735
vt 0.599376 0.358425
vt 0.094426 0.049938
vt 0.905546 0.050197
vt 0.904404 0.057428
vt 0.092987 0.042570
vt 0.907025 0.042833
vt 0.924360 0.412707
vt 0.954468 0.096066
vt 0.955780 0.555357
vt 0.948562 0.554156
vt 0.961820 0.094414
vt 0.963144 0.556907
vt 0.924359 0.358425
vt 0.046343 0.556505
vt 0.044779 0.096230
vt 0.051994 0.097395
vt 0.038998 0.558209
vt 0.037419 0.094714
vt 0.065986 0.582818
vt 0.936369 0.582251
vt 0.064600 0.069674
vt 0.934825 0.069780
vt 0.086778 0.643668
vt 0.914736 0.643671
vt 0.086493 0.008611
vt 0.913654 0.008885
vt 0.995728 0.087039
vt 0.997113 0.563865
vt 0.003447 0.087912
vt 0.005113 0.565793
vt 0.030736 0.619203
vt 0.971763 0.618482
vt 0.029220 0.033434
vt 0.970026 0.033319
vt 0.912260 0.629037
vt 0.089501 0.629061
vt 0.089050 0.023241
vt 0.911037 0.023499
vt 0.981118 0.089978
vt 0.982497 0.561105
vt 0.019714 0.562766
vt 0.018069 0.090598
vt 0.041300 0.608272
vt 0.055705 0.593417
vt 0.961146 0.607598
vt 0.946706 0.592819
vt 0.039841 0.044314
vt 0.054293 0.059081
vt 0.959485 0.044274
vt 0.945104 0.059146
vt 0.087980 0.636435
vt 0.913659 0.636418
vt 0.966633 0.613211
vt 0.012343 0.564440
vt 0.035843 0.613907
vt 0.010683 0.089094
vt 0.087612 0.015861
vt 0.034354 0.038702
vt 0.912506 0.016123
vt 0.989881 0.562644
vt 0.988492 0.088350
vt 0.964933 0.038628
vt 0.941283 0.587288
vt 0.059705 0.064622
vt 0.939709 0.064714
vt 0.061104 0.587862
vt 0.363146 0.254701
vt 0.363146 0.302649
vt 0.086507 0.302649
vt 0.086507 0.254701
vt 0.054131 0.302649
vt 0.944553 0.200305
vt 0.395505 0.248257
vt 0.395505 0.200305
vt 0.395523 0.302649
vt 0.395522 0.254701
vt 0.054102 0.248336
vt 0.944553 0.254701
vt 0.943822 0.358425
vt 0.074388 0.361668
vt 0.095462 0.358425
vt 0.074387 0.358425
vt 0.947250 0.097372
vt 0.639917 0.358425
vt 0.620450 0.358425
vt 0.095522 0.057182
vt 0.639917 0.412707
vt 0.620451 0.412707
vt 0.905950 0.595097
vt 0.095464 0.412707
vt 0.074388 0.412707
vt 0.053551 0.555146
vt 0.944553 0.248257
vt 0.054131 0.254701
vt 0.944553 0.302649
vt 0.054102 0.200386
vt 0.074387 0.307386
vt 0.943825 0.412707
vn -0.014815 -0.999370 0.032266
vn -0.013725 -0.920456 0.390606
vn 0.013725 -0.920456 0.390606
vn 0.014815 -0.999370 0.032266
vn -0.001434 -0.095655 0.995414
vn 0.001434 -0.095655 0.995414
vn 0.014814 0.999370 0.032267
vn 0.013725 0.920454 0.390610
vn -0.013725 0.920454 0.390610
vn -0.014814 0.999370 0.032267
vn 0.001434 0.095655 0.995414
vn -0.001434 0.095655 0.995414
vn -0.999076 0.028114 0.032502
vn -0.919678 0.026778 0.391759
vn -0.919678 -0.026778 0.391759
vn -0.999076 -0.028114 0.032502
vn -0.086506 0.002864 0.996247
vn -0.086505 -0.002864 0.996247
vn 0.999076 -0.028114 0.032502
vn 0.919678 -0.026778 0.391759
vn 0.919678 0.026778 0.391759
vn 0.999076 0.028114 0.032502
vn 0.086506 -0.002864 0.996247
vn 0.086506 0.002864 0.996247
vn 0.014779 -0.999891 0.000000
vn -0.014779 -0.999891 0.000000
vn -0.014815 -0.999370 0.032266
vn 0.014815 -0.999370 0.032266
vn 0.014814 0.999370 0.032267
vn -0.014814 0.999370 0.032267
vn -0.014779 0.999891 0.000000
vn 0.014779 0.999891 0.000000
vn -0.999076 0.028114 0.032502
vn -0.999076 -0.028114 0.032502
vn -0.999605 -0.028098 0.000000
vn -0.999605 0.028098 0.000000
vn 0.999605 0.028098 0.000000
vn 0.999605 -0.028098 0.000000
vn 0.999076 -0.028114 0.032502
vn 0.999076 0.028114 0.032502
vn 0.917108 -0.398640 0.000000
vn 0.916588 -0.398414 0.033649
vn 0.916588 -0.398414 0.033649
vn 0.917108 -0.398640 0.000000
vn -0.367159 -0.930158 0.000000
vn -0.366964 -0.929663 0.032636
vn 0.367153 0.930161 0.000000
vn 0.366958 0.929665 0.032636
vn -0.917109 0.398637 0.000000
vn -0.916589 0.398412 0.033649
vn -0.916589 0.398412 0.033649
vn -0.917109 0.398637 0.000000
vn -0.023959 0.999713 0.000000
vn -0.023897 0.999206 0.031889
vn 0.023897 0.999206 0.031889
vn 0.023959 0.999713 0.000000
vn -0.023897 -0.999206 0.031889
vn -0.023959 -0.999713 0.000000
vn 0.023959 -0.999713 0.000000
vn 0.023897 -0.999206 0.031889
vn 0.998443 -0.045738 0.031942
vn 0.998952 -0.045772 0.000000
vn 0.998952 0.045772 0.000000
vn 0.998443 0.045738 0.031942
vn -0.998952 -0.045772 0.000000
vn -0.998443 -0.045738 0.031942
vn -0.998443 0.045738 0.031942
vn -0.998952 0.045772 0.000000
vn -0.916675 0.398451 0.030710
vn -0.917108 0.398639 0.000000
vn -0.916675 0.398451 0.030710
vn -0.917108 0.398639 0.000000
vn 0.366972 0.929695 0.031610
vn 0.367155 0.930160 0.000000
vn -0.366970 -0.929696 0.031611
vn -0.367154 -0.930160 0.000000
vn 0.916675 -0.398451 0.030710
vn 0.917108 -0.398639 0.000000
vn 0.916675 -0.398451 0.030710
vn 0.917108 -0.398639 0.000000
vn 0.002793 0.115282 0.993329
vn -0.002793 0.115282 0.993329
vn -0.002793 -0.115282 0.993329
vn 0.002793 -0.115282 0.993329
vn 0.127241 -0.005188 0.991858
vn 0.127241 0.005188 0.991858
vn -0.127241 0.005188 0.991858
vn -0.127241 -0.005188 0.991858
vn -0.096563 0.095104 0.990773
vn 0.044446 -0.050982 0.997710
vn 0.096563 0.095104 0.990773
vn -0.044446 -0.050982 0.997710
vn -0.096564 -0.095104 0.990773
vn 0.044446 0.050982 0.997710
vn 0.096564 -0.095104 0.990773
vn -0.044446 0.050982 0.997710
vn -0.023897 0.999206 0.031889
vn -0.022059 0.920075 0.391120
vn 0.022059 0.920075 0.391120
vn 0.023897 0.999206 0.031889
vn 0.338124 0.856610 0.389732
vn 0.366972 0.929695 0.031610
vn -0.998443 0.045738 0.031942
vn -0.918773 0.041132 0.392638
vn -0.844535 0.367094 0.389874
vn -0.916675 0.398451 0.030710
vn -0.372447 -0.017039 0.927897
vn -0.998443 -0.045738 0.031942
vn -0.023897 -0.999206 0.031889
vn -0.022059 -0.920075 0.391120
vn -0.338122 -0.856610 0.389735
vn -0.366970 -0.929696 0.031611
vn 0.007763 -0.374456 0.927212
vn 0.023897 -0.999206 0.031889
vn 0.998443 0.045738 0.031942
vn 0.918773 0.041132 0.392638
vn 0.918773 -0.041132 0.392638
vn 0.998443 -0.045738 0.031942
vn 0.844536 -0.367094 0.389873
vn 0.916675 -0.398451 0.030710
vn -0.248416 -0.247657 0.936459
vn -0.366964 -0.929663 0.032636
vn 0.248417 0.247657 0.936459
vn 0.366958 0.929665 0.032636
vn -0.248417 0.247657 0.936459
vn -0.916589 0.398412 0.033649
vn 0.248416 -0.247657 0.936459
vn 0.916588 -0.398414 0.033649
s 1
g S_U_01 S_U_01_02 UV01
usemtl aiStandardSurface2SG
f 247/353/661 246/260/662 249/261/663 248/262/664
f 246/260/662 245/263/665 250/264/666 249/261/663
f 253/350/667 252/266/668 255/267/669 254/268/670
f 252/266/668 251/269/671 256/270/672 255/267/669
f 259/347/673 258/272/674 261/273/675 260/274/676
f 258/272/674 257/275/677 262/276/678 261/273/675
f 265/356/679 264/278/680 267/279/681 266/280/682
f 264/278/680 263/281/683 268/282/684 267/279/681
s 5
f 197/238/685 198/237/686 247/259/687 248/354/688
s 6
f 253/265/689 254/345/690 199/242/691 200/241/692
s 5
f 259/271/693 260/351/694 201/246/695 202/245/696
s 6
f 204/250/697 203/249/698 265/277/699 266/348/700
f 265/277/699 203/249/698 205/252/701 271/343/702
s 5
f 271/355/703 205/344/704 197/238/685 248/354/688
f 247/259/687 198/237/686 206/254/705 274/352/706
f 274/352/706 206/254/705 201/246/695 260/351/694
s 6
f 253/265/689 200/241/692 207/256/707 277/349/708
f 277/349/708 207/256/707 204/250/697 266/348/700
s 5
f 259/271/693 202/245/696 208/258/709 280/362/710
s 6
f 280/346/711 208/361/712 199/242/691 254/345/690
s 9
f 187/235/713 209/236/714 212/239/715 188/240/716
s 10
f 221/243/717 191/244/718 196/247/719 224/248/720
s 9
f 230/251/721 194/253/722 190/255/723 227/257/724
s 10
f 193/331/725 218/332/726 215/333/727 185/334/728
f 215/333/727 233/335/729 186/358/730 185/334/728
s 9
f 233/357/731 209/236/714 187/235/713 186/336/732
f 212/239/715 236/337/733 189/338/734 188/240/716
f 236/337/733 227/257/724 190/255/723 189/338/734
s 10
f 221/243/717 239/339/735 192/340/736 191/244/718
f 239/339/735 218/332/726 193/331/725 192/340/736
s 9
f 230/251/721 242/341/737 195/360/738 194/253/722
s 10
f 242/359/739 224/248/720 196/247/719 195/342/740
s 1
f 214/299/741 211/300/742 250/264/666 245/263/665
f 223/301/743 226/302/744 256/270/672 251/269/671
f 232/303/745 229/304/746 262/276/678 257/275/677
f 217/305/747 220/306/748 268/282/684 263/281/683
f 235/307/749 217/305/747 263/281/683 269/308/750
f 211/300/742 235/307/749 269/308/750 250/264/666
f 238/309/751 214/299/741 245/263/665 272/310/752
f 229/304/746 238/309/751 272/310/752 262/276/678
f 241/311/753 223/301/743 251/269/671 275/312/754
f 220/306/748 241/311/753 275/312/754 268/282/684
f 244/313/755 232/303/745 257/275/677 278/314/756
f 226/302/744 244/313/755 278/314/756 256/270/672
f 209/287/757 210/315/758 213/316/759 212/288/760
f 210/315/758 211/300/742 214/299/741 213/316/759
f 212/288/760 213/316/759 237/317/761 236/296/762
f 213/316/759 214/299/741 238/309/751 237/317/761
f 215/294/763 216/318/764 234/319/765 233/295/766
f 216/318/764 217/305/747 235/307/749 234/319/765
f 217/305/747 216/318/764 219/320/767 220/306/748
f 216/318/764 215/294/763 218/293/768 219/320/767
f 221/289/769 222/321/770 240/322/771 239/297/772
f 222/321/770 223/301/743 241/311/753 240/322/771
f 223/301/743 222/321/770 225/323/773 226/302/744
f 222/321/770 221/289/769 224/290/774 225/323/773
f 227/292/775 228/324/776 231/325/777 230/291/778
f 228/324/776 229/304/746 232/303/745 231/325/777
f 230/291/778 231/325/777 243/326/779 242/298/780
f 231/325/777 232/303/745 244/313/755 243/326/779
f 211/300/742 210/315/758 234/319/765 235/307/749
f 210/315/758 209/287/757 233/295/766 234/319/765
f 229/304/746 228/324/776 237/317/761 238/309/751
f 228/324/776 227/292/775 236/296/762 237/317/761
f 220/306/748 219/320/767 240/322/771 241/311/753
f 219/320/767 218/293/768 239/297/772 240/322/771
f 226/302/744 225/323/773 243/326/779 244/313/755
f 225/323/773 224/290/774 242/298/780 243/326/779
f 245/263/665 246/260/662 273/327/781 272/310/752
f 246/260/662 247/353/661 274/284/782 273/327/781
f 251/269/671 252/266/668 276/328/783 275/312/754
f 252/266/668 253/350/667 277/285/784 276/328/783
f 257/275/677 258/272/674 279/329/785 278/314/756
f 258/272/674 259/347/673 280/286/786 279/329/785
f 263/281/683 264/278/680 270/330/787 269/308/750
f 264/278/680 265/356/679 271/283/788 270/330/787
f 248/262/664 249/261/663 270/330/787 271/283/788
f 249/261/663 250/264/666 269/308/750 270/330/787
f 260/274/676 261/273/675 273/327/781 274/284/782
f 261/273/675 262/276/678 272/310/752 273/327/781
f 266/280/682 267/279/681 276/328/783 277/285/784
f 267/279/681 268/282/684 275/312/754 276/328/783
f 254/268/670 255/267/669 279/329/785 280/286/786
f 255/267/669 256/270/672 278/314/756 279/329/785
g default
v -3.570984 55.301025 165.558044
v -14.010986 44.629211 165.558044
v -6.628784 47.755127 165.558044
v -12.037399 42.611969 164.740570
v -4.655212 45.737305 164.740570
v -1.597412 53.283752 164.740570
v -0.779922 52.448029 162.766998
v -3.837738 44.901794 162.766998
v -11.219910 41.776184 162.766998
v -55.551117 42.611969 164.740570
v -62.933319 45.737305 164.740570
v -65.991119 53.283752 164.740570
v -56.368622 41.776184 162.766998
v -63.750793 44.901794 162.766998
v -66.808624 52.448029 162.766998
v -64.017548 55.301056 165.558044
v -60.959747 47.755127 165.558044
v -53.577545 44.629211 165.558044
v -14.011002 203.822662 165.558044
v -3.570984 193.150818 165.558044
v -6.628784 200.696747 165.558044
v -1.597412 195.168091 164.740570
v -4.655212 202.714539 164.740570
v -12.037399 205.839935 164.740570
v -11.219910 206.675720 162.766998
v -3.837738 203.550018 162.766998
v -0.779922 196.003845 162.766998
v -53.577545 203.822662 165.558044
v -60.959747 200.696716 165.558044
v -64.017548 193.150818 165.558044
v -55.551117 205.839935 164.740570
v -62.933319 202.714539 164.740570
v -65.991119 195.168091 164.740570
v -66.808624 196.003845 162.766998
v -63.750793 203.550018 162.766998
v -56.368622 206.675720 162.766998
v -3.837738 203.550018 153.927460
v -0.779922 196.003845 153.927460
v -11.219910 206.675720 153.927460
v -63.750793 203.550018 153.927460
v -56.368622 206.675720 153.927460
v -66.808624 196.003845 153.927460
v -3.837738 44.901794 153.927460
v -11.219910 41.776184 153.927460
v -0.779922 52.448029 153.927460
v -63.750793 44.901794 153.927460
v -66.808624 52.448029 153.927460
v -56.368622 41.776184 153.927460
v -53.577545 193.150818 165.558075
v -14.011017 193.150818 165.558044
v -53.577545 55.301056 165.558044
v -14.010986 55.301056 165.558044
vt 0.236972 0.277926
vt 0.232426 0.267310
vt 0.514852 0.239381
vt 0.514852 0.036505
vt 0.234694 0.265033
vt 0.239985 0.276493
vt 0.222047 0.262679
vt 0.223499 0.259694
vt 0.145186 0.277923
vt 0.149738 0.267304
vt 0.152609 0.270242
vt 0.148212 0.280828
vt 0.160117 0.262685
vt 0.162968 0.265760
vt 0.554572 0.036505
vt 0.554572 0.239381
vt 0.222034 0.494607
vt 0.232415 0.489987
vt 0.234681 0.492266
vt 0.223483 0.497611
vt 0.427910 0.036505
vt 0.467630 0.036505
vt 0.236968 0.479367
vt 0.467630 0.239376
vt 0.427910 0.239376
vt 0.427910 0.311985
vt 0.239974 0.480802
vt 0.467630 0.311985
vt 0.467630 0.957046
vt 0.427910 0.957046
vt 0.554572 0.957059
vt 0.514852 0.957059
vt 0.514852 0.311990
vt 0.554572 0.311990
vt 0.145177 0.479360
vt 0.149725 0.489976
vt 0.147457 0.492254
vt 0.142165 0.480794
vt 0.160104 0.494606
vt 0.158652 0.497591
vt 0.219192 0.265752
vt 0.158669 0.259681
vt 0.233946 0.280826
vt 0.427910 0.275398
vt 0.467630 0.275398
vt 0.514852 0.993647
vt 0.554572 0.993647
vt 0.233943 0.476463
vt 0.427910 0.993632
vt 0.219184 0.491531
vt 0.162960 0.491533
vt 0.142180 0.276489
vt 0.148203 0.476460
vt 0.467630 0.993634
vt 0.514852 0.275404
vt 0.219139 0.476426
vt 0.229544 0.487049
vt 0.554572 0.275404
vt 0.229552 0.270242
vt 0.163013 0.280864
vt 0.147472 0.265025
vt 0.163007 0.476428
vt 0.152599 0.487044
vt 0.219144 0.280859
vt 0.514852 0.000483
vt 0.554572 0.000483
vt 0.427910 0.000483
vt 0.467630 0.000483
vn 0.921756 -0.013527 0.387534
vn 0.814506 -0.330045 0.477128
vn 0.923168 -0.374077 0.088472
vn 0.997770 -0.021508 0.063185
vn 0.036764 -0.914675 0.402516
vn 0.056734 -0.996020 0.068745
vn -0.367892 -0.016837 0.929716
vn -0.198926 -0.194601 0.960499
vn -0.063212 -0.061838 0.996082
vn -0.089845 -0.000985 0.995955
vn -0.039045 -0.342216 0.938810
vn -0.002771 -0.087738 0.996140
vn 0.036763 0.914676 0.402513
vn 0.341437 0.806385 0.482870
vn 0.388330 0.917130 0.089846
vn 0.056734 0.996020 0.068744
vn 0.921757 0.013527 0.387533
vn 0.997770 0.021508 0.063185
vn -0.921757 0.013527 0.387533
vn -0.814505 0.330046 0.477127
vn -0.923168 0.374078 0.088472
vn -0.997770 0.021508 0.063185
vn -0.036764 0.914676 0.402512
vn -0.056734 0.996020 0.068744
vn -0.056734 0.996020 0.068744
vn 0.056734 0.996020 0.068744
vn 0.053608 0.998562 0.000000
vn -0.053608 0.998562 0.000000
vn -0.056734 -0.996020 0.068745
vn -0.053608 -0.998562 0.000000
vn 0.053608 -0.998562 0.000000
vn 0.056734 -0.996020 0.068745
vn 0.997770 -0.021508 0.063185
vn 0.999795 -0.020233 0.000000
vn 0.999795 0.020233 0.000000
vn 0.997770 0.021508 0.063185
vn -0.999795 -0.020233 0.000000
vn -0.997770 -0.021508 0.063185
vn -0.997770 0.021508 0.063185
vn -0.999795 0.020233 0.000000
vn 0.002771 -0.087738 0.996140
vn -0.056734 -0.996020 0.068745
vn 0.089843 -0.000985 0.995955
vn 0.089843 0.000985 0.995955
vn 0.002771 0.087739 0.996140
vn -0.002771 0.087739 0.996140
vn -0.997770 -0.021508 0.063185
vn -0.089845 0.000985 0.995955
vn 0.000000 0.000000 1.000000
vn 0.063213 0.061839 0.996082
vn 0.063213 -0.061838 0.996082
vn 0.923168 -0.374077 0.088472
vn 0.926803 -0.375549 0.000000
vn 0.923168 -0.374077 0.088472
vn 0.926803 -0.375549 0.000000
vn -0.388331 -0.917130 0.089846
vn -0.388331 -0.917130 0.089846
vn -0.389907 -0.920854 0.000000
vn 0.388330 0.917130 0.089846
vn 0.389907 0.920854 0.000000
vn -0.063214 0.061839 0.996082
vn -0.923168 0.374078 0.088472
vn -0.926802 0.375550 0.000000
vn -0.923168 0.374078 0.088472
vn -0.926802 0.375550 0.000000
vn 0.000000 0.000000 1.000000
vn 0.000000 0.000000 1.000000
vn 0.000000 0.000000 1.000000
s 1
g S_U_01 S_U_01_03 UV02
usemtl aiStandardSurface3SG
f 286/363/789 285/364/790 288/367/791 287/368/792
f 285/364/790 284/369/793 289/370/794 288/367/791
f 292/371/795 291/372/796 297/373/797 296/374/798
f 291/372/796 290/375/799 298/376/800 297/373/797
f 304/379/801 303/380/802 306/381/803 305/382/804
f 303/380/802 302/385/805 307/389/806 306/381/803
f 313/397/807 312/398/808 315/399/809 314/400/810
f 312/398/808 311/401/811 316/402/812 315/399/809
s 5
f 316/365/813 305/366/814 319/377/815 321/378/816
s 6
f 293/383/817 328/384/818 324/386/819 289/387/820
s 5
f 287/388/821 325/390/822 318/391/823 307/392/824
s 6
f 327/393/825 295/394/826 314/395/827 322/396/828
s 1
f 298/376/800 290/375/799 284/369/793 282/403/829
f 290/375/799 293/404/830 289/370/794 284/369/793
f 281/405/831 286/363/789 302/385/805 300/410/832
f 286/363/789 287/368/792 307/389/806 302/385/805
f 299/412/833 304/379/801 311/401/811 308/413/834
f 304/379/801 305/382/804 316/402/812 311/401/811
f 295/414/835 292/371/795 313/397/807 314/400/810
f 292/371/795 296/374/798 310/415/836 313/397/807
f 299/412/833 330/418/837 300/410/832 301/419/838
f 281/405/831 283/421/839 285/364/790 286/363/789
f 283/421/839 282/403/829 284/369/793 285/364/790
s 5
f 287/388/821 288/406/840 323/407/841 325/390/822
s 6
f 288/406/842 289/387/820 324/386/819 323/407/843
s 1
f 290/375/799 291/372/796 294/423/844 293/404/830
f 291/372/796 292/371/795 295/414/835 294/423/844
s 6
f 293/383/817 294/429/845 326/430/846 328/384/818
f 294/408/845 295/394/826 327/393/825 326/409/846
s 1
f 299/412/833 301/419/838 303/380/802 304/379/801
f 301/419/838 300/410/832 302/385/805 303/380/802
s 5
f 305/366/814 306/427/847 317/428/848 319/377/815
f 306/411/847 307/392/824 318/391/823 317/416/848
s 1
f 310/415/836 309/425/849 312/398/808 313/397/807
f 309/425/849 308/413/834 311/401/811 312/398/808
s 6
f 314/395/827 315/417/850 320/420/851 322/396/828
s 5
f 315/417/852 316/365/813 321/378/816 320/420/853
s 1
f 330/418/837 332/426/854 281/405/831 300/410/832
f 310/415/836 329/424/855 308/413/834 309/425/849
f 296/374/798 331/422/856 329/424/855 310/415/836
f 308/413/834 329/424/855 330/418/837 299/412/833
g textureEditorIsolateSelectSet S_U_01 S_U_01_03 UV02
f 329/424/855 331/422/856 332/426/854 330/418/837
g S_U_01 S_U_01_03 UV02
f 296/374/798 297/373/797 298/376/800 331/422/856
f 332/426/854 331/422/856 298/376/800 282/403/829
f 281/405/831 332/426/854 282/403/829 283/421/839
g default
v -67.964691 55.301025 165.558044
v -78.404694 44.629211 165.558044
v -71.022491 47.755127 165.558044
v -76.431107 42.611969 164.740570
v -69.048920 45.737305 164.740570
v -65.991119 53.283752 164.740570
v -65.173630 52.448029 162.766998
v -68.231445 44.901794 162.766998
v -75.613617 41.776184 162.766998
v -119.944824 42.611969 164.740570
v -127.327026 45.737305 164.740570
v -130.384827 53.283752 164.740570
v -120.762329 41.776184 162.766998
v -128.144501 44.901794 162.766998
v -131.202332 52.448029 162.766998
v -128.411255 55.301056 165.558044
v -125.353455 47.755127 165.558044
v -117.971252 44.629211 165.558044
v -78.404709 203.822662 165.558044
v -67.964691 193.150818 165.558044
v -71.022491 200.696747 165.558044
v -65.991119 195.168091 164.740570
v -69.048920 202.714539 164.740570
v -76.431107 205.839935 164.740570
v -75.613617 206.675720 162.766998
v -68.231445 203.550018 162.766998
v -65.173630 196.003845 162.766998
v -117.971252 203.822662 165.558044
v -125.353455 200.696716 165.558044
v -128.411255 193.150818 165.558044
v -119.944824 205.839935 164.740570
v -127.327026 202.714539 164.740570
v -130.384827 195.168091 164.740570
v -131.202332 196.003845 162.766998
v -128.144501 203.550018 162.766998
v -120.762329 206.675720 162.766998
v -68.231445 203.550018 153.927460
v -65.173630 196.003845 153.927460
v -75.613617 206.675720 153.927460
v -128.144501 203.550018 153.927460
v -120.762329 206.675720 153.927460
v -131.202332 196.003845 153.927460
v -68.231445 44.901794 153.927460
v -75.613617 41.776184 153.927460
v -65.173630 52.448029 153.927460
v -128.144501 44.901794 153.927460
v -131.202332 52.448029 153.927460
v -120.762329 41.776184 153.927460
v -117.971252 193.150818 165.558075
v -78.404724 193.150818 165.558044
v -117.971252 55.301056 165.558044
v -78.404694 55.301056 165.558044
vt 0.105222 0.277926
vt 0.100676 0.267310
vt 0.514852 0.239381
vt 0.514852 0.036505
vt 0.102944 0.265033
vt 0.108235 0.276493
vt 0.090297 0.262679
vt 0.091748 0.259694
vt 0.013436 0.277923
vt 0.017988 0.267304
vt 0.020859 0.270242
vt 0.016461 0.280828
vt 0.028367 0.262685
vt 0.031218 0.265760
vt 0.554572 0.036505
vt 0.554572 0.239381
vt 0.090284 0.494607
vt 0.100665 0.489987
vt 0.102931 0.492266
vt 0.091733 0.497611
vt 0.427910 0.036505
vt 0.467630 0.036505
vt 0.105218 0.479367
vt 0.467630 0.239376
vt 0.427910 0.239376
vt 0.427910 0.311985
vt 0.108224 0.480802
vt 0.467630 0.311985
vt 0.467630 0.957046
vt 0.427910 0.957046
vt 0.554572 0.957059
vt 0.514852 0.957059
vt 0.514852 0.311990
vt 0.554572 0.311990
vt 0.013427 0.479360
vt 0.017974 0.489976
vt 0.015706 0.492254
vt 0.010414 0.480794
vt 0.028354 0.494606
vt 0.026902 0.497591
vt 0.087442 0.265752
vt 0.026918 0.259681
vt 0.102196 0.280826
vt 0.427910 0.275398
vt 0.467630 0.275398
vt 0.514852 0.993647
vt 0.554572 0.993647
vt 0.102192 0.476463
vt 0.427910 0.993632
vt 0.087434 0.491531
vt 0.031210 0.491533
vt 0.010430 0.276489
vt 0.016453 0.476460
vt 0.467630 0.993634
vt 0.514852 0.275404
vt 0.087389 0.476426
vt 0.097794 0.487049
vt 0.554572 0.275404
vt 0.097801 0.270242
vt 0.031263 0.280864
vt 0.015721 0.265025
vt 0.031257 0.476428
vt 0.020849 0.487044
vt 0.087394 0.280859
vt 0.514852 0.000483
vt 0.554572 0.000483
vt 0.427910 0.000483
vt 0.467630 0.000483
vn 0.921756 -0.013527 0.387534
vn 0.814506 -0.330045 0.477128
vn 0.923168 -0.374077 0.088472
vn 0.997770 -0.021508 0.063185
vn 0.036764 -0.914675 0.402516
vn 0.056734 -0.996020 0.068745
vn -0.367892 -0.016837 0.929716
vn -0.198926 -0.194601 0.960499
vn -0.063212 -0.061838 0.996082
vn -0.089845 -0.000985 0.995955
vn -0.039045 -0.342216 0.938810
vn -0.002771 -0.087738 0.996140
vn 0.036763 0.914676 0.402513
vn 0.341437 0.806385 0.482870
vn 0.388330 0.917130 0.089846
vn 0.056734 0.996020 0.068744
vn 0.921757 0.013527 0.387533
vn 0.997770 0.021508 0.063185
vn -0.921757 0.013527 0.387533
vn -0.814505 0.330046 0.477127
vn -0.923168 0.374078 0.088472
vn -0.997770 0.021508 0.063185
vn -0.036764 0.914676 0.402512
vn -0.056734 0.996020 0.068744
vn -0.056734 0.996020 0.068744
vn 0.056734 0.996020 0.068744
vn 0.053608 0.998562 0.000000
vn -0.053608 0.998562 0.000000
vn -0.056734 -0.996020 0.068745
vn -0.053608 -0.998562 0.000000
vn 0.053608 -0.998562 0.000000
vn 0.056734 -0.996020 0.068745
vn 0.997770 -0.021508 0.063185
vn 0.999795 -0.020233 0.000000
vn 0.999795 0.020233 0.000000
vn 0.997770 0.021508 0.063185
vn -0.999795 -0.020233 0.000000
vn -0.997770 -0.021508 0.063185
vn -0.997770 0.021508 0.063185
vn -0.999795 0.020233 0.000000
vn 0.002771 -0.087738 0.996140
vn -0.056734 -0.996020 0.068745
vn 0.089843 -0.000985 0.995955
vn 0.089843 0.000985 0.995955
vn 0.002771 0.087739 0.996140
vn -0.002771 0.087739 0.996140
vn -0.997770 -0.021508 0.063185
vn -0.089845 0.000985 0.995955
vn 0.000000 0.000000 1.000000
vn 0.063213 0.061839 0.996082
vn 0.063213 -0.061838 0.996082
vn 0.923168 -0.374077 0.088472
vn 0.926803 -0.375549 0.000000
vn -0.388331 -0.917130 0.089846
vn -0.388331 -0.917130 0.089846
vn -0.389907 -0.920854 0.000000
vn -0.388331 -0.917130 0.089846
vn -0.389907 -0.920854 0.000000
vn 0.388330 0.917130 0.089846
vn 0.389907 0.920854 0.000000
vn 0.388330 0.917130 0.089846
vn 0.389907 0.920854 0.000000
vn -0.063214 0.061839 0.996082
vn -0.923168 0.374078 0.088472
vn -0.926802 0.375550 0.000000
vn 0.000000 0.000000 1.000000
vn 0.000000 0.000000 1.000000
vn 0.000000 0.000000 1.000000
s 1
g S_U_01 UV02 S_U_01_04
usemtl aiStandardSurface3SG
f 338/431/857 337/432/858 340/435/859 339/436/860
f 337/432/858 336/437/861 341/438/862 340/435/859
f 344/439/863 343/440/864 349/441/865 348/442/866
f 343/440/864 342/443/867 350/444/868 349/441/865
f 356/447/869 355/448/870 358/449/871 357/450/872
f 355/448/870 354/453/873 359/457/874 358/449/871
f 365/465/875 364/466/876 367/467/877 366/468/878
f 364/466/876 363/469/879 368/470/880 367/467/877
s 5
f 368/433/881 357/434/882 371/445/883 373/446/884
s 6
f 345/451/885 380/452/886 376/454/887 341/455/888
f 339/456/889 377/458/890 370/459/891 359/460/892
s 5
f 379/461/893 347/462/894 366/463/895 374/464/896
s 1
f 350/444/868 342/443/867 336/437/861 334/471/897
f 342/443/867 345/472/898 341/438/862 336/437/861
f 333/473/899 338/431/857 354/453/873 352/478/900
f 338/431/857 339/436/860 359/457/874 354/453/873
f 351/480/901 356/447/869 363/469/879 360/481/902
f 356/447/869 357/450/872 368/470/880 363/469/879
f 347/482/903 344/439/863 365/465/875 366/468/878
f 344/439/863 348/442/866 362/483/904 365/465/875
f 351/480/901 382/486/905 352/478/900 353/487/906
f 333/473/899 335/489/907 337/432/858 338/431/857
f 335/489/907 334/471/897 336/437/861 337/432/858
s 6
f 339/456/889 340/474/908 375/475/909 377/458/890
f 340/474/908 341/455/888 376/454/887 375/475/909
s 1
f 342/443/867 343/440/864 346/491/910 345/472/898
f 343/440/864 344/439/863 347/482/903 346/491/910
s 6
f 345/451/885 346/497/911 378/498/912 380/452/886
s 5
f 346/476/913 347/462/894 379/461/893 378/477/914
s 1
f 351/480/901 353/487/906 355/448/870 356/447/869
f 353/487/906 352/478/900 354/453/873 355/448/870
s 5
f 357/434/882 358/495/915 369/496/916 371/445/883
s 6
f 358/479/917 359/460/892 370/459/891 369/484/918
s 1
f 362/483/904 361/493/919 364/466/876 365/465/875
f 361/493/919 360/481/902 363/469/879 364/466/876
s 5
f 366/463/895 367/485/920 372/488/921 374/464/896
f 367/485/920 368/433/881 373/446/884 372/488/921
s 1
f 382/486/905 384/494/922 333/473/899 352/478/900
f 362/483/904 381/492/923 360/481/902 361/493/919
f 348/442/866 383/490/924 381/492/923 362/483/904
f 360/481/902 381/492/923 382/486/905 351/480/901
f 381/492/923 383/490/924 384/494/922 382/486/905
f 348/442/866 349/441/865 350/444/868 383/490/924
f 384/494/922 383/490/924 350/444/868 334/471/897
f 333/473/899 384/494/922 334/471/897 335/489/907
g default
v 60.822723 55.301025 165.558044
v 50.382721 44.629211 165.558044
v 57.764923 47.755127 165.558044
v 52.356308 42.611969 164.740570
v 59.738495 45.737305 164.740570
v 62.796295 53.283752 164.740570
v 63.613785 52.448029 162.766998
v 60.555969 44.901794 162.766998
v 53.173798 41.776184 162.766998
v 8.842590 42.611969 164.740570
v 1.460388 45.737305 164.740570
v -1.597412 53.283752 164.740570
v 8.025085 41.776184 162.766998
v 0.642914 44.901794 162.766998
v -2.414917 52.448029 162.766998
v 0.376160 55.301056 165.558044
v 3.433960 47.755127 165.558044
v 10.816162 44.629211 165.558044
v 50.382706 203.822662 165.558044
v 60.822723 193.150818 165.558044
v 57.764923 200.696747 165.558044
v 62.796295 195.168091 164.740570
v 59.738495 202.714539 164.740570
v 52.356308 205.839935 164.740570
v 53.173798 206.675720 162.766998
v 60.555969 203.550018 162.766998
v 63.613785 196.003845 162.766998
v 10.816162 203.822662 165.558044
v 3.433960 200.696716 165.558044
v 0.376160 193.150818 165.558044
v 8.842590 205.839935 164.740570
v 1.460388 202.714539 164.740570
v -1.597412 195.168091 164.740570
v -2.414917 196.003845 162.766998
v 0.642914 203.550018 162.766998
v 8.025085 206.675720 162.766998
v 60.555969 203.550018 153.927460
v 63.613785 196.003845 153.927460
v 53.173798 206.675720 153.927460
v 0.642914 203.550018 153.927460
v 8.025085 206.675720 153.927460
v -2.414917 196.003845 153.927460
v 60.555969 44.901794 153.927460
v 53.173798 41.776184 153.927460
v 63.613785 52.448029 153.927460
v 0.642914 44.901794 153.927460
v -2.414917 52.448029 153.927460
v 8.025085 41.776184 153.927460
v 10.816162 193.150818 165.558075
v 50.382690 193.150818 165.558044
v 10.816162 55.301056 165.558044
v 50.382721 55.301056 165.558044
vt 0.412639 0.277926
vt 0.408093 0.267310
vt 0.514852 0.239381
vt 0.514852 0.036505
vt 0.410361 0.265033
vt 0.415652 0.276493
vt 0.397714 0.262679
vt 0.399166 0.259694
vt 0.320853 0.277923
vt 0.325405 0.267304
vt 0.328276 0.270242
vt 0.323879 0.280828
vt 0.335784 0.262685
vt 0.338635 0.265760
vt 0.554572 0.036505
vt 0.554572 0.239381
vt 0.397701 0.494607
vt 0.408082 0.489987
vt 0.410348 0.492266
vt 0.399150 0.497611
vt 0.427910 0.036505
vt 0.467630 0.036505
vt 0.412635 0.479367
vt 0.467630 0.239376
vt 0.427910 0.239376
vt 0.427910 0.311985
vt 0.415641 0.480802
vt 0.467630 0.311985
vt 0.467630 0.957046
vt 0.427910 0.957046
vt 0.554572 0.957059
vt 0.514852 0.957059
vt 0.514852 0.311990
vt 0.554572 0.311990
vt 0.320844 0.479360
vt 0.325392 0.489976
vt 0.323124 0.492254
vt 0.317832 0.480794
vt 0.335771 0.494606
vt 0.334319 0.497591
vt 0.394859 0.265752
vt 0.334336 0.259681
vt 0.409613 0.280826
vt 0.427910 0.275398
vt 0.467630 0.275398
vt 0.514852 0.993647
vt 0.554572 0.993647
vt 0.409610 0.476463
vt 0.427910 0.993632
vt 0.394851 0.491531
vt 0.338627 0.491533
vt 0.317847 0.276489
vt 0.323870 0.476460
vt 0.467630 0.993634
vt 0.514852 0.275404
vt 0.394806 0.476426
vt 0.405211 0.487049
vt 0.554572 0.275404
vt 0.405219 0.270242
vt 0.338680 0.280864
vt 0.323139 0.265025
vt 0.338674 0.476428
vt 0.328266 0.487044
vt 0.394811 0.280859
vt 0.514852 0.000483
vt 0.554572 0.000483
vt 0.427910 0.000483
vt 0.467630 0.000483
vn 0.921756 -0.013527 0.387534
vn 0.814506 -0.330045 0.477128
vn 0.923168 -0.374077 0.088472
vn 0.997770 -0.021508 0.063185
vn 0.036764 -0.914675 0.402516
vn 0.056734 -0.996020 0.068745
vn -0.367892 -0.016837 0.929716
vn -0.198926 -0.194601 0.960499
vn -0.063212 -0.061838 0.996082
vn -0.089845 -0.000985 0.995955
vn -0.039045 -0.342216 0.938810
vn -0.002771 -0.087738 0.996140
vn 0.036763 0.914676 0.402513
vn 0.341437 0.806385 0.482870
vn 0.388330 0.917130 0.089846
vn 0.056734 0.996020 0.068744
vn 0.921757 0.013527 0.387533
vn 0.997770 0.021508 0.063185
vn -0.921757 0.013527 0.387533
vn -0.814505 0.330046 0.477127
vn -0.923168 0.374078 0.088472
vn -0.997770 0.021508 0.063185
vn -0.036764 0.914676 0.402512
vn -0.056734 0.996020 0.068744
vn -0.056734 0.996020 0.068744
vn 0.056734 0.996020 0.068744
vn 0.053608 0.998562 0.000000
vn -0.053608 0.998562 0.000000
vn -0.056734 -0.996020 0.068745
vn -0.053608 -0.998562 0.000000
vn 0.053608 -0.998562 0.000000
vn 0.056734 -0.996020 0.068745
vn 0.997770 -0.021508 0.063185
vn 0.999795 -0.020233 0.000000
vn 0.999795 0.020233 0.000000
vn 0.997770 0.021508 0.063185
vn -0.999795 -0.020233 0.000000
vn -0.997770 -0.021508 0.063185
vn -0.997770 0.021508 0.063185
vn -0.999795 0.020233 0.000000
vn 0.002771 -0.087738 0.996140
vn -0.056734 -0.996020 0.068745
vn 0.089843 -0.000985 0.995955
vn 0.089843 0.000985 0.995955
vn 0.002771 0.087739 0.996140
vn -0.002771 0.087739 0.996140
vn -0.997770 -0.021508 0.063185
vn -0.089845 0.000985 0.995955
vn 0.000000 0.000000 1.000000
vn 0.063213 0.061839 0.996082
vn 0.063213 -0.061838 0.996082
vn 0.923168 -0.374077 0.088472
vn 0.926803 -0.375549 0.000000
vn -0.388331 -0.917130 0.089846
vn -0.388331 -0.917130 0.089846
vn -0.389907 -0.920854 0.000000
vn -0.388331 -0.917130 0.089846
vn -0.389907 -0.920854 0.000000
vn 0.388330 0.917130 0.089846
vn 0.389907 0.920854 0.000000
vn 0.388330 0.917130 0.089846
vn 0.389907 0.920854 0.000000
vn -0.063214 0.061839 0.996082
vn -0.923168 0.374078 0.088472
vn -0.926802 0.375550 0.000000
vn 0.000000 0.000000 1.000000
vn 0.000000 0.000000 1.000000
vn 0.000000 0.000000 1.000000
s 1
g S_U_01 UV02 S_U_01_05
usemtl aiStandardSurface3SG
f 390/499/925 389/500/926 392/503/927 391/504/928
f 389/500/926 388/505/929 393/506/930 392/503/927
f 396/507/931 395/508/932 401/509/933 400/510/934
f 395/508/932 394/511/935 402/512/936 401/509/933
f 408/515/937 407/516/938 410/517/939 409/518/940
f 407/516/938 406/521/941 411/525/942 410/517/939
f 417/533/943 416/534/944 419/535/945 418/536/946
f 416/534/944 415/537/947 420/538/948 419/535/945
s 5
f 420/501/949 409/502/950 423/513/951 425/514/952
s 6
f 397/519/953 432/520/954 428/522/955 393/523/956
f 391/524/957 429/526/958 422/527/959 411/528/960
s 5
f 431/529/961 399/530/962 418/531/963 426/532/964
s 1
f 402/512/936 394/511/935 388/505/929 386/539/965
f 394/511/935 397/540/966 393/506/930 388/505/929
f 385/541/967 390/499/925 406/521/941 404/546/968
f 390/499/925 391/504/928 411/525/942 406/521/941
f 403/548/969 408/515/937 415/537/947 412/549/970
f 408/515/937 409/518/940 420/538/948 415/537/947
f 399/550/971 396/507/931 417/533/943 418/536/946
f 396/507/931 400/510/934 414/551/972 417/533/943
f 403/548/969 434/554/973 404/546/968 405/555/974
f 385/541/967 387/557/975 389/500/926 390/499/925
f 387/557/975 386/539/965 388/505/929 389/500/926
s 6
f 391/524/957 392/542/976 427/543/977 429/526/958
f 392/542/976 393/523/956 428/522/955 427/543/977
s 1
f 394/511/935 395/508/932 398/559/978 397/540/966
f 395/508/932 396/507/931 399/550/971 398/559/978
s 6
f 397/519/953 398/565/979 430/566/980 432/520/954
s 5
f 398/544/981 399/530/962 431/529/961 430/545/982
s 1
f 403/548/969 405/555/974 407/516/938 408/515/937
f 405/555/974 404/546/968 406/521/941 407/516/938
s 5
f 409/502/950 410/563/983 421/564/984 423/513/951
s 6
f 410/547/985 411/528/960 422/527/959 421/552/986
s 1
f 414/551/972 413/561/987 416/534/944 417/533/943
f 413/561/987 412/549/970 415/537/947 416/534/944
s 5
f 418/531/963 419/553/988 424/556/989 426/532/964
f 419/553/988 420/501/949 425/514/952 424/556/989
s 1
f 434/554/973 436/562/990 385/541/967 404/546/968
f 414/551/972 433/560/991 412/549/970 413/561/987
f 400/510/934 435/558/992 433/560/991 414/551/972
f 412/549/970 433/560/991 434/554/973 403/548/969
f 433/560/991 435/558/992 436/562/990 434/554/973
f 400/510/934 401/509/933 402/512/936 435/558/992
f 436/562/990 435/558/992 402/512/936 386/539/965
f 385/541/967 436/562/990 386/539/965 387/557/975
g default
v 125.216431 55.301025 165.558044
v 114.776428 44.629211 165.558044
v 122.158630 47.755127 165.558044
v 116.750015 42.611969 164.740570
v 124.132202 45.737305 164.740570
v 127.190002 53.283752 164.740570
v 128.007492 52.448029 162.766998
v 124.949677 44.901794 162.766998
v 117.567505 41.776184 162.766998
v 73.236298 42.611969 164.740570
v 65.854095 45.737305 164.740570
v 62.796295 53.283752 164.740570
v 72.418793 41.776184 162.766998
v 65.036621 44.901794 162.766998
v 61.978790 52.448029 162.766998
v 64.769867 55.301056 165.558044
v 67.827667 47.755127 165.558044
v 75.209869 44.629211 165.558044
v 114.776413 203.822662 165.558044
v 125.216431 193.150818 165.558044
v 122.158630 200.696747 165.558044
v 127.190002 195.168091 164.740570
v 124.132202 202.714539 164.740570
v 116.750015 205.839935 164.740570
v 117.567505 206.675720 162.766998
v 124.949677 203.550018 162.766998
v 128.007492 196.003845 162.766998
v 75.209869 203.822662 165.558044
v 67.827667 200.696716 165.558044
v 64.769867 193.150818 165.558044
v 73.236298 205.839935 164.740570
v 65.854095 202.714539 164.740570
v 62.796295 195.168091 164.740570
v 61.978790 196.003845 162.766998
v 65.036621 203.550018 162.766998
v 72.418793 206.675720 162.766998
v 124.949677 203.550018 153.927460
v 128.007492 196.003845 153.927460
v 117.567505 206.675720 153.927460
v 65.036621 203.550018 153.927460
v 72.418793 206.675720 153.927460
v 61.978790 196.003845 153.927460
v 124.949677 44.901794 153.927460
v 117.567505 41.776184 153.927460
v 128.007492 52.448029 153.927460
v 65.036621 44.901794 153.927460
v 61.978790 52.448029 153.927460
v 72.418793 41.776184 153.927460
v 75.209869 193.150818 165.558075
v 114.776398 193.150818 165.558044
v 75.209869 55.301056 165.558044
v 114.776428 55.301056 165.558044
vt 0.707509 0.277926
vt 0.702963 0.267310
vt 0.514852 0.239381
vt 0.514852 0.036505
vt 0.705231 0.265033
vt 0.710521 0.276493
vt 0.692584 0.262679
vt 0.694035 0.259694
vt 0.615723 0.277923
vt 0.620275 0.267304
vt 0.623145 0.270242
vt 0.618748 0.280828
vt 0.630654 0.262685
vt 0.633505 0.265760
vt 0.554572 0.036505
vt 0.554572 0.239381
vt 0.692571 0.494607
vt 0.702951 0.489987
vt 0.705218 0.492266
vt 0.694019 0.497611
vt 0.427910 0.036505
vt 0.467630 0.036505
vt 0.707505 0.479367
vt 0.467630 0.239376
vt 0.427910 0.239376
vt 0.427910 0.311985
vt 0.710511 0.480802
vt 0.467630 0.311985
vt 0.467630 0.957046
vt 0.427910 0.957046
vt 0.554572 0.957059
vt 0.514852 0.957059
vt 0.514852 0.311990
vt 0.554572 0.311990
vt 0.615713 0.479360
vt 0.620261 0.489976
vt 0.617993 0.492254
vt 0.612701 0.480794
vt 0.630641 0.494606
vt 0.629189 0.497591
vt 0.689728 0.265752
vt 0.629205 0.259681
vt 0.704483 0.280826
vt 0.427910 0.275398
vt 0.467630 0.275398
vt 0.514852 0.993647
vt 0.554572 0.993647
vt 0.704479 0.476463
vt 0.427910 0.993632
vt 0.689721 0.491531
vt 0.633497 0.491533
vt 0.612717 0.276489
vt 0.618740 0.476460
vt 0.467630 0.993634
vt 0.514852 0.275404
vt 0.689676 0.476426
vt 0.700081 0.487049
vt 0.554572 0.275404
vt 0.700088 0.270242
vt 0.633550 0.280864
vt 0.618008 0.265025
vt 0.633544 0.476428
vt 0.623136 0.487044
vt 0.689681 0.280859
vt 0.514852 0.000483
vt 0.554572 0.000483
vt 0.427910 0.000483
vt 0.467630 0.000483
vn 0.921756 -0.013527 0.387534
vn 0.814506 -0.330045 0.477128
vn 0.923168 -0.374077 0.088472
vn 0.997770 -0.021508 0.063185
vn 0.036764 -0.914675 0.402516
vn 0.056734 -0.996020 0.068745
vn -0.367892 -0.016837 0.929716
vn -0.198926 -0.194601 0.960499
vn -0.063212 -0.061838 0.996082
vn -0.089845 -0.000985 0.995955
vn -0.039045 -0.342216 0.938810
vn -0.002771 -0.087738 0.996140
vn 0.036763 0.914676 0.402513
vn 0.341437 0.806385 0.482870
vn 0.388330 0.917130 0.089846
vn 0.056734 0.996020 0.068744
vn 0.921757 0.013527 0.387533
vn 0.997770 0.021508 0.063185
vn -0.921757 0.013527 0.387533
vn -0.814505 0.330046 0.477127
vn -0.923168 0.374078 0.088472
vn -0.997770 0.021508 0.063185
vn -0.036764 0.914676 0.402512
vn -0.056734 0.996020 0.068744
vn -0.056734 0.996020 0.068744
vn 0.056734 0.996020 0.068744
vn 0.053608 0.998562 0.000000
vn -0.053608 0.998562 0.000000
vn -0.056734 -0.996020 0.068745
vn -0.053608 -0.998562 0.000000
vn 0.053608 -0.998562 0.000000
vn 0.056734 -0.996020 0.068745
vn 0.997770 -0.021508 0.063185
vn 0.999795 -0.020233 0.000000
vn 0.999795 0.020233 0.000000
vn 0.997770 0.021508 0.063185
vn -0.999795 -0.020233 0.000000
vn -0.997770 -0.021508 0.063185
vn -0.997770 0.021508 0.063185
vn -0.999795 0.020233 0.000000
vn 0.002771 -0.087738 0.996140
vn -0.056734 -0.996020 0.068745
vn 0.089843 -0.000985 0.995955
vn 0.089843 0.000985 0.995955
vn 0.002771 0.087739 0.996140
vn -0.002771 0.087739 0.996140
vn -0.997770 -0.021508 0.063185
vn -0.089845 0.000985 0.995955
vn 0.000000 0.000000 1.000000
vn 0.063213 0.061839 0.996082
vn 0.063213 -0.061838 0.996082
vn 0.923168 -0.374077 0.088472
vn 0.926803 -0.375549 0.000000
vn -0.388331 -0.917130 0.089846
vn -0.388331 -0.917130 0.089846
vn -0.389907 -0.920854 0.000000
vn -0.388331 -0.917130 0.089846
vn -0.389907 -0.920854 0.000000
vn 0.388330 0.917130 0.089846
vn 0.389907 0.920854 0.000000
vn 0.388330 0.917130 0.089846
vn 0.389907 0.920854 0.000000
vn -0.063214 0.061839 0.996082
vn -0.923168 0.374078 0.088472
vn -0.926802 0.375550 0.000000
vn 0.000000 0.000000 1.000000
vn 0.000000 0.000000 1.000000
vn 0.000000 0.000000 1.000000
s 1
g S_U_01 UV02 S_U_01_06
usemtl aiStandardSurface3SG
f 442/567/993 441/568/994 444/571/995 443/572/996
f 441/568/994 440/573/997 445/574/998 444/571/995
f 448/575/999 447/576/1000 453/577/1001 452/578/1002
f 447/576/1000 446/579/1003 454/580/1004 453/577/1001
f 460/583/1005 459/584/1006 462/585/1007 461/586/1008
f 459/584/1006 458/589/1009 463/593/1010 462/585/1007
f 469/601/1011 468/602/1012 471/603/1013 470/604/1014
f 468/602/1012 467/605/1015 472/606/1016 471/603/1013
s 5
f 472/569/1017 461/570/1018 475/581/1019 477/582/1020
s 6
f 449/587/1021 484/588/1022 480/590/1023 445/591/1024
f 443/592/1025 481/594/1026 474/595/1027 463/596/1028
s 5
f 483/597/1029 451/598/1030 470/599/1031 478/600/1032
s 1
f 454/580/1004 446/579/1003 440/573/997 438/607/1033
f 446/579/1003 449/608/1034 445/574/998 440/573/997
f 437/609/1035 442/567/993 458/589/1009 456/614/1036
f 442/567/993 443/572/996 463/593/1010 458/589/1009
f 455/616/1037 460/583/1005 467/605/1015 464/617/1038
f 460/583/1005 461/586/1008 472/606/1016 467/605/1015
f 451/618/1039 448/575/999 469/601/1011 470/604/1014
f 448/575/999 452/578/1002 466/619/1040 469/601/1011
f 455/616/1037 486/622/1041 456/614/1036 457/623/1042
f 437/609/1035 439/625/1043 441/568/994 442/567/993
f 439/625/1043 438/607/1033 440/573/997 441/568/994
s 6
f 443/592/1025 444/610/1044 479/611/1045 481/594/1026
f 444/610/1044 445/591/1024 480/590/1023 479/611/1045
s 1
f 446/579/1003 447/576/1000 450/627/1046 449/608/1034
f 447/576/1000 448/575/999 451/618/1039 450/627/1046
s 6
f 449/587/1021 450/633/1047 482/634/1048 484/588/1022
s 5
f 450/612/1049 451/598/1030 483/597/1029 482/613/1050
s 1
f 455/616/1037 457/623/1042 459/584/1006 460/583/1005
f 457/623/1042 456/614/1036 458/589/1009 459/584/1006
s 5
f 461/570/1018 462/631/1051 473/632/1052 475/581/1019
s 6
f 462/615/1053 463/596/1028 474/595/1027 473/620/1054
s 1
f 466/619/1040 465/629/1055 468/602/1012 469/601/1011
f 465/629/1055 464/617/1038 467/605/1015 468/602/1012
s 5
f 470/599/1031 471/621/1056 476/624/1057 478/600/1032
f 471/621/1056 472/569/1017 477/582/1020 476/624/1057
s 1
f 486/622/1041 488/630/1058 437/609/1035 456/614/1036
f 466/619/1040 485/628/1059 464/617/1038 465/629/1055
f 452/578/1002 487/626/1060 485/628/1059 466/619/1040
f 464/617/1038 485/628/1059 486/622/1041 455/616/1037
f 485/628/1059 487/626/1060 488/630/1058 486/622/1041
f 452/578/1002 453/577/1001 454/580/1004 487/626/1060
f 488/630/1058 487/626/1060 454/580/1004 438/607/1033
f 437/609/1035 488/630/1058 438/607/1033 439/625/1043
