# This file uses centimeters as units for non-parametric coordinates.

mtllib SU02.mtl
g default
v -418.292267 258.369476 174.425751
v 418.292114 258.369507 174.425751
v -418.292267 4.475551 174.425751
v 418.292114 4.475541 174.425751
v 465.887238 52.070671 174.425751
v 465.887207 210.774353 174.425751
v -465.887238 52.070671 174.425751
v -465.887238 210.774399 174.425751
v -451.946991 244.429214 174.425751
v 451.947052 244.429260 174.425751
v -451.946991 18.415829 174.425751
v 451.946991 18.415810 174.425751
v -410.859100 221.000626 169.279846
v -411.158936 222.507858 172.918579
v -411.882690 226.146545 174.425751
v 410.859070 221.000626 169.279846
v 411.158905 222.507858 172.918579
v 411.882690 226.146545 174.425751
v -428.518402 203.341293 169.279846
v -430.025543 203.641098 172.918579
v -433.664276 204.364883 174.425751
v -428.518402 59.503777 169.279846
v -430.025543 59.203972 172.918579
v -433.664276 58.480194 174.425751
v -410.859100 41.844429 169.279846
v -411.158936 40.337219 172.918579
v -411.882690 36.698509 174.425751
v 410.859070 41.844429 169.279846
v 411.158905 40.337219 172.918579
v 411.882690 36.698509 174.425751
v 428.518372 203.341293 169.279846
v 430.025604 203.641098 172.918579
v 433.664276 204.364883 174.425751
v 428.518372 59.503777 169.279846
v 430.025604 59.203972 172.918579
v 433.664276 58.480194 174.425751
v -423.346100 215.828308 169.279846
v -424.499664 216.981873 172.918579
v -427.284637 219.766815 174.425751
v 423.346100 215.828308 169.279846
v 424.499664 216.981873 172.918579
v 427.284607 219.766815 174.425751
v -423.346100 47.016724 169.279846
v -424.499664 45.863159 172.918579
v -427.284637 43.078209 174.425751
v 423.346100 47.016724 169.279846
v 424.499664 45.863159 172.918579
v 427.284607 43.078209 174.425751
v -414.139557 189.646149 142.274048
v -413.284180 190.295258 151.811523
v -414.227722 73.181526 142.274231
v -413.284180 72.549797 151.811523
v -395.446960 205.493759 142.298523
v -396.323486 204.705383 151.852417
v 395.430817 205.413666 142.298340
v 396.323456 204.705383 151.852417
v 414.227692 184.480667 142.274231
v 413.284149 185.112396 151.811523
v 414.139496 73.198914 142.274048
v 413.284149 72.549797 151.811523
v -395.430817 57.431404 142.298340
v -396.323486 58.139671 151.852417
v 395.446960 57.351295 142.298523
v 396.323456 58.139671 151.852417
v -408.750397 200.929276 142.373047
v -408.362946 200.523560 151.983948
v 408.747406 200.926270 142.372986
v 408.362946 200.523560 151.983948
v -408.747406 61.918762 142.372986
v -408.362946 62.321503 151.983948
v 408.750488 61.915794 142.373047
v 408.362946 62.321503 151.983948
vt 1.949295 0.409694
vt -0.937679 0.409164
vt -0.960401 0.296069
vt 1.972256 0.296579
vt 2.024351 0.963875
vt 2.035763 0.497194
vt 2.142685 0.476905
vt 2.129861 0.988648
vt 1.937600 1.047341
vt 1.960633 1.160188
vt -0.968496 1.169142
vt -0.946007 1.056116
vt -1.032108 0.969372
vt -1.140244 0.990932
vt -1.132262 0.470177
vt -1.024817 0.494558
vt -1.004814 1.027803
vt -1.094508 1.116253
vt 1.996133 1.020550
vt 2.083122 1.108778
vt -0.996649 0.436725
vt -1.084807 0.347583
vt 2.010287 0.439193
vt 2.099583 0.351138
vt -0.942235 1.028673
vt -0.943406 1.042367
vt -0.993911 1.016620
vt -0.984294 1.006602
vt 1.934938 1.033598
vt 1.933703 1.019894
vt -1.006746 0.964532
vt -1.019288 0.966430
vt -1.012040 0.497843
vt -0.999498 0.500080
vt -0.985864 0.448066
vt -0.976335 0.458236
vt -0.933849 0.436648
vt -0.935049 0.422930
vt 1.946668 0.423462
vt 1.945472 0.437183
vt 1.998615 0.450045
vt 1.988528 0.459840
vt 1.999504 0.958264
vt 2.011818 0.960554
vt 1.985483 1.009252
vt 1.976101 0.999077
vt 2.023037 0.500002
vt 2.010594 0.501787
vt -0.891180 0.946046
vt 1.882226 0.937428
vt 1.894141 0.519766
vt -0.882525 0.519314
vt 1.932330 0.894808
vt 1.940739 0.547132
vt -0.930155 0.548300
vt -0.936451 0.918426
vt -0.925044 0.941507
vt 1.918044 0.931087
vt -0.917322 0.524616
vt 1.928737 0.524422
vt -0.908831 0.916013
vt -0.902496 0.551720
vt -0.909050 0.539479
vt -0.888238 0.912823
vt -0.917276 0.927463
vt 1.878995 0.904236
vt 1.905124 0.891324
vt 1.907758 0.916513
vt 1.913673 0.549441
vt -0.879411 0.552562
vt 1.891087 0.553030
vt 1.921087 0.538855
vn -0.000235 0.033046 0.999454
vn 0.000235 0.033046 0.999454
vn 0.000000 0.000000 1.000000
vn 0.000000 0.000000 1.000000
vn -0.030359 -0.001133 0.999538
vn -0.030359 0.001133 0.999538
vn 0.000000 0.000000 1.000000
vn 0.000000 0.000000 1.000000
vn -0.000235 -0.033046 0.999454
vn -0.000000 0.000000 1.000000
vn -0.000000 0.000000 1.000000
vn 0.000235 -0.033046 0.999454
vn 0.030359 -0.001133 0.999538
vn 0.000000 0.000000 1.000000
vn -0.000000 0.000000 1.000000
vn 0.030359 0.001133 0.999538
vn 0.010560 -0.010560 0.999889
vn 0.000000 0.000000 1.000000
vn -0.010560 -0.010560 0.999889
vn -0.000000 0.000000 1.000000
vn 0.010560 0.010560 0.999888
vn -0.000000 0.000000 1.000000
vn -0.010560 0.010560 0.999888
vn 0.000000 0.000000 1.000000
vn 0.007173 -0.777240 0.629164
vn 0.004530 -0.682536 0.730838
vn 0.434022 -0.434020 0.789463
vn 0.472674 -0.503504 0.723231
vn -0.004530 -0.682536 0.730838
vn -0.007173 -0.777240 0.629164
vn 0.783339 -0.040699 0.620261
vn 0.678304 -0.023832 0.734395
vn 0.678304 0.023832 0.734395
vn 0.783339 0.040699 0.620261
vn 0.434024 0.434020 0.789462
vn 0.472673 0.503504 0.723232
vn 0.007173 0.777241 0.629163
vn 0.004530 0.682537 0.730837
vn -0.004530 0.682537 0.730837
vn -0.007173 0.777241 0.629163
vn -0.434022 0.434021 0.789462
vn -0.472673 0.503504 0.723232
vn -0.781566 -0.046833 0.622062
vn -0.678302 -0.023832 0.734396
vn -0.434022 -0.434022 0.789462
vn -0.492346 -0.467872 0.733956
vn -0.678303 0.023832 0.734396
vn -0.783719 0.041251 0.619744
vn 0.003503 -0.835173 0.549976
vn -0.003513 -0.835075 0.550125
vn -0.003503 0.835173 0.549977
vn 0.003513 0.835074 0.550126
vn -0.844172 -0.021520 0.535640
vn -0.845174 0.025849 0.533866
vn 0.847053 0.025212 0.530911
vn 0.846920 -0.025268 0.531120
vn 0.512135 -0.574894 0.638134
vn -0.568176 -0.516874 0.640326
vn 0.511577 0.575358 0.638163
vn -0.512134 0.574894 0.638134
vn 0.995164 -0.036571 -0.091166
vn 0.995145 0.036177 -0.091528
vn 0.644376 0.762680 -0.055670
vn 0.004704 -0.996962 -0.077746
vn 0.646590 -0.760780 -0.055997
vn -0.004761 -0.996967 -0.077683
vn -0.995217 -0.036576 -0.090588
vn -0.748156 -0.660674 -0.061428
vn -0.995117 0.038128 -0.091046
vn 0.004761 0.996967 -0.077683
vn -0.004704 0.996962 -0.077746
vn -0.646592 0.760778 -0.056000
s 1
g textureEditorIsolateSelectSet Window_Frame_11 S_U_02
usemtl aiStandardSurface2SG
f 30/1/1 27/2/2 3/3/3 4/4/4
g Window_Frame_11 S_U_02
f 33/5/5 36/6/6 5/7/7 6/8/8
f 18/9/9 2/10/10 1/11/11 15/12/12
f 21/13/13 8/14/14 7/15/15 24/16/16
f 39/17/17 9/18/18 8/14/14 21/13/13
f 15/12/12 1/11/11 9/18/18 39/17/17
f 42/19/19 10/20/20 2/10/10 18/9/9
f 33/5/5 6/8/8 10/20/20 42/19/19
g textureEditorIsolateSelectSet Window_Frame_11 S_U_02
f 45/21/21 11/22/22 3/3/3 27/2/2
g Window_Frame_11 S_U_02
f 24/16/16 7/15/15 11/22/22 45/21/21
f 48/23/23 12/24/24 5/7/7 36/6/6
g textureEditorIsolateSelectSet Window_Frame_11 S_U_02
f 30/1/1 4/4/4 12/24/24 48/23/23
g Window_Frame_11 S_U_02
f 13/25/25 14/26/26 38/27/27 37/28/28
f 14/26/26 15/12/12 39/17/17 38/27/27
f 15/12/12 14/26/26 17/29/29 18/9/9
f 14/26/26 13/25/25 16/30/30 17/29/29
f 19/31/31 20/32/32 23/33/33 22/34/34
f 20/32/32 21/13/13 24/16/16 23/33/33
f 22/34/34 23/33/33 44/35/35 43/36/36
f 23/33/33 24/16/16 45/21/21 44/35/35
g textureEditorIsolateSelectSet Window_Frame_11 S_U_02
f 25/37/37 26/38/38 29/39/39 28/40/40
f 26/38/38 27/2/2 30/1/1 29/39/39
f 28/40/40 29/39/39 47/41/41 46/42/42
f 29/39/39 30/1/1 48/23/23 47/41/41
g Window_Frame_11 S_U_02
f 31/43/43 32/44/44 41/45/45 40/46/46
f 32/44/44 33/5/5 42/19/19 41/45/45
f 33/5/5 32/44/44 35/47/47 36/6/6
f 32/44/44 31/43/43 34/48/48 35/47/47
f 21/13/13 20/32/32 38/27/27 39/17/17
f 20/32/32 19/31/31 37/28/28 38/27/27
f 18/9/9 17/29/29 41/45/45 42/19/19
f 17/29/29 16/30/30 40/46/46 41/45/45
g textureEditorIsolateSelectSet Window_Frame_11 S_U_02
f 27/2/2 26/38/38 44/35/35 45/21/21
f 26/38/38 25/37/37 43/36/36 44/35/35
g Window_Frame_11 S_U_02
f 36/6/6 35/47/47 47/41/41 48/23/23
f 35/47/47 34/48/48 46/42/42 47/41/41
f 54/49/49 56/50/50 16/30/30 13/25/25
g textureEditorIsolateSelectSet Window_Frame_11 S_U_02
f 25/37/37 28/40/40 64/51/51 62/52/52
g Window_Frame_11 S_U_02
f 34/48/48 31/43/43 58/53/53 60/54/54
f 52/55/55 50/56/56 19/31/31 22/34/34
f 19/31/31 50/56/56 66/57/57 37/28/28
f 37/28/28 66/57/57 54/49/49 13/25/25
f 16/30/30 56/50/50 68/58/58 40/46/46
f 40/46/46 68/58/58 58/53/53 31/43/43
g textureEditorIsolateSelectSet Window_Frame_11 S_U_02
f 25/37/37 62/52/52 70/59/59 43/36/36
g Window_Frame_11 S_U_02
f 43/36/36 70/59/59 52/55/55 22/34/34
f 34/48/48 60/54/54 72/60/60 46/42/42
g textureEditorIsolateSelectSet Window_Frame_11 S_U_02
f 46/42/42 72/60/60 64/51/51 28/40/40
g Window_Frame_11 S_U_02
f 49/61/61 50/56/56 52/55/55 51/62/62
f 51/62/62 52/55/55 70/59/59 69/63/63
f 53/64/64 54/49/49 66/57/57 65/65/65
f 54/49/49 53/64/64 55/66/66 56/50/50
f 57/67/67 58/53/53 68/58/58 67/68/68
f 58/53/53 57/67/67 59/69/69 60/54/54
g textureEditorIsolateSelectSet Window_Frame_11 S_U_02
f 61/70/70 62/52/52 64/51/51 63/71/71
f 63/71/71 64/51/51 72/60/60 71/72/72
g Window_Frame_11 S_U_02
f 50/56/56 49/61/61 65/65/65 66/57/57
f 56/50/50 55/66/66 67/68/68 68/58/58
g textureEditorIsolateSelectSet Window_Frame_11 S_U_02
f 62/52/52 61/70/70 69/63/63 70/59/59
g Window_Frame_11 S_U_02
f 60/54/54 59/69/69 71/72/72 72/60/60
g default
v -469.860016 241.589951 174.286316
v -463.717834 256.418610 174.286316
v -448.889160 262.560822 174.286316
v -468.417816 240.147766 177.768127
v -462.275604 254.976379 177.768127
v -447.446960 261.118622 177.768127
v -443.965149 257.636810 181.053223
v -458.793823 251.494583 181.053223
v -464.936005 236.665939 181.053223
v -468.417816 22.413080 177.768127
v -462.275604 7.584442 177.768127
v -447.446960 1.442219 177.768127
v -464.936005 25.894844 181.053223
v -458.793762 11.066232 181.053223
v -443.965118 4.924018 181.053223
v -448.889160 0.000010 174.286316
v -463.717834 6.142229 174.286316
v -469.860016 20.970861 174.286316
v 447.446960 1.442219 177.768127
v 462.275604 7.584442 177.768127
v 468.417816 22.413080 177.768127
v 443.965118 4.924018 181.053223
v 458.793762 11.066232 181.053223
v 464.936005 25.894844 181.053223
v 469.860016 20.970861 174.286316
v 463.717834 6.142229 174.286316
v 448.889160 0.000010 174.286316
v 448.889160 262.560822 174.286316
v 463.717834 256.418610 174.286316
v 469.860016 241.589951 174.286316
v 447.446960 261.118622 177.768127
v 462.275604 254.976379 177.768127
v 468.417816 240.147766 177.768127
v 464.936005 236.665939 181.053223
v 458.793823 251.494583 181.053223
v 443.965149 257.636810 181.053223
v -447.446960 261.118622 -179.611023
v -462.275604 254.976379 -179.611023
v -468.417816 240.147766 -179.611023
v -443.965149 257.636810 -181.053223
v -464.936005 236.665939 -181.053223
v -458.793823 251.494583 -181.053223
v 464.936005 236.665939 -181.053223
v 443.965149 257.636810 -181.053223
v 458.793823 251.494583 -181.053223
v 447.446960 261.118622 -179.611023
v 462.275604 254.976379 -179.611023
v 468.417816 240.147766 -179.611023
v -448.889160 262.560822 -176.129211
v -463.717834 256.418610 -176.129211
v -469.860016 241.589951 -176.129211
v 469.860016 241.589951 -176.129211
v 463.717834 256.418610 -176.129211
v 448.889160 262.560822 -176.129211
v 443.965118 4.924018 -181.053223
v 464.936005 25.894844 -181.053223
v 458.793762 11.066232 -181.053223
v 468.417816 22.413080 -179.611023
v 462.275604 7.584442 -179.611023
v 447.446960 1.442219 -179.611023
v 448.889160 0.000010 -176.129211
v 463.717834 6.142229 -176.129211
v 469.860016 20.970861 -176.129211
v -468.417816 22.413080 -179.611023
v -462.275604 7.584442 -179.611023
v -447.446960 1.442219 -179.611023
v -469.860016 20.970861 -176.129211
v -463.717834 6.142229 -176.129211
v -448.889160 0.000010 -176.129211
v -443.965118 4.924018 -181.053223
v -458.793762 11.066232 -181.053223
v -464.936005 25.894844 -181.053223
v -460.084015 231.814163 181.053223
v -453.941742 246.642654 181.053223
v -439.112976 252.784821 181.053223
v -456.602142 228.332092 177.768127
v -450.459961 243.160782 177.768127
v -435.631378 249.303024 177.768127
v -434.189148 247.860809 174.286316
v -449.017822 241.718582 174.286316
v -455.160004 226.889938 174.286316
v -456.602142 34.228729 177.768127
v -450.459961 19.400042 177.768127
v -435.631378 13.257797 177.768127
v -455.160004 35.670860 174.286316
v -449.017822 20.842228 174.286316
v -434.189148 14.700008 174.286316
v -439.112976 9.775998 181.053223
v -453.941742 15.918163 181.053223
v -460.084015 30.746666 181.053223
v 435.631378 13.257797 177.768127
v 450.459961 19.400042 177.768127
v 456.602142 34.228729 177.768127
v 434.189148 14.700008 174.286316
v 449.017822 20.842228 174.286316
v 455.160004 35.670860 174.286316
v 460.084015 30.746666 181.053223
v 453.941742 15.918163 181.053223
v 439.112976 9.775998 181.053223
v 456.602142 228.332092 177.768127
v 450.459961 243.160782 177.768127
v 435.631378 249.303024 177.768127
v 455.160004 226.889938 174.286316
v 449.017822 241.718582 174.286316
v 434.189148 247.860809 174.286316
v 439.112976 252.784821 181.053223
v 453.941742 246.642654 181.053223
v 460.084015 231.814163 181.053223
v -443.965118 236.665939 -181.053223
v -443.965118 25.894835 -181.053223
v 443.964691 25.894844 -181.053223
v 443.965149 236.665939 -181.053223
vt 0.020858 0.033155
vt 0.029171 0.016418
vt 0.033474 0.020704
vt 0.025798 0.037049
vt 0.045722 0.008000
vt 0.049669 0.012908
vt 0.299927 0.033139
vt 0.291534 0.016587
vt 0.909015 0.231798
vt 0.909015 0.982244
vt 0.275055 0.008275
vt 0.276978 0.004426
vt 0.274347 0.988086
vt 0.291129 0.979785
vt 0.616108 0.982244
vt 0.616108 0.231798
vt 0.299714 0.963126
vt 0.303595 0.964982
vt 0.045699 0.987827
vt 0.029167 0.979479
vt 0.033489 0.975203
vt 0.049664 0.982938
vt 0.020785 0.962879
vt 0.025727 0.958974
vt 0.064306 0.922890
vt 0.051297 0.917215
vt 0.054458 0.914056
vt 0.067426 0.919568
vt 0.045615 0.904204
vt 0.048941 0.901092
vt 0.064147 0.095201
vt 0.051139 0.100880
vt 0.318085 0.982267
vt 0.318085 0.231822
vt 0.045463 0.113895
vt 0.610934 0.231822
vt 0.275265 0.113851
vt 0.269583 0.100840
vt 0.611054 0.982267
vt 0.610914 0.204989
vt 0.256574 0.095165
vt 0.258121 0.091868
vt 0.275417 0.904160
vt 0.269741 0.917175
vt 0.266581 0.914015
vt 0.272090 0.901046
vt 0.256733 0.922854
vt 0.253616 0.919533
vt 0.035743 0.046114
vt 0.042842 0.029985
vt 0.058880 0.022729
vt 0.285044 0.046179
vt 0.277788 0.030162
vt 0.282169 0.025870
vt 0.289977 0.042301
vt 0.261751 0.022962
vt 0.265731 0.018115
vt 0.261175 0.973348
vt 0.277468 0.966206
vt 0.281806 0.970505
vt 0.265112 0.978217
vt 0.284839 0.950177
vt 0.289769 0.954020
vt 0.035668 0.949867
vt 0.042924 0.965932
vt 0.038544 0.970221
vt 0.030734 0.953735
vt 0.058907 0.973134
vt 0.054960 0.977984
vt 0.048790 0.117009
vt 0.042300 0.905734
vt 0.318020 0.204989
vt 0.016902 0.964745
vt 0.317991 0.020576
vt 0.610914 0.020576
vt 0.258282 0.926159
vt 0.043826 0.004135
vt 0.616028 0.020575
vt 0.294985 0.037056
vt 0.294776 0.959233
vt 0.270402 0.983177
vt 0.030809 0.042265
vt 0.271065 0.013162
vt 0.054957 0.017864
vt 0.280964 0.948418
vt 0.060766 0.969326
vt 0.259872 0.026767
vt 0.067264 0.098522
vt 0.253454 0.098487
vt 0.271939 0.116962
vt 0.067456 0.901067
vt 0.908923 0.020528
vt 0.287222 0.020878
vt 0.286829 0.975496
vt 0.908952 0.204965
vt 0.616028 0.204965
vt 0.054299 0.104040
vt 0.266422 0.103999
vt 0.909015 0.218358
vt 0.038499 0.025693
vt 0.253576 0.901030
vt 0.067304 0.117025
vt 0.253424 0.116988
vt 0.039545 0.948084
vt 0.045872 0.963068
vt 0.259325 0.969526
vt 0.274564 0.963322
vt 0.281167 0.047976
vt 0.274845 0.033027
vt 0.278730 0.905688
vt 0.272237 0.919671
vt 0.616028 0.218405
vt 0.294064 0.982717
vt 0.610914 0.007136
vt 0.272077 0.098343
vt 0.616108 0.995683
vt 0.062759 0.926187
vt 0.048803 0.919712
vt 0.610932 0.218382
vt 0.026220 0.982400
vt 0.318022 0.218429
vt 0.043786 0.991676
vt 0.026235 0.013489
vt 0.908921 0.007112
vt 0.016978 0.031294
vt 0.060713 0.026547
vt 0.039622 0.047878
vt 0.318085 0.995683
vt 0.276244 0.991951
vt 0.062598 0.091897
vt 0.303809 0.031259
vt 0.278580 0.112321
vt 0.042150 0.112367
vt 0.045758 0.032854
vt 0.048644 0.098384
vt 0.294467 0.013651
vt 0.611054 0.995683
vt 0.616028 0.007158
vt 0.909093 0.995637
vt 0.317928 0.007183
vn -0.006399 0.847827 0.530235
vn -0.512416 0.512417 0.689100
vn -0.238006 0.238007 0.941650
vn -0.002039 0.527094 0.849805
vn -0.838667 0.024630 0.544088
vn -0.509595 0.007968 0.860378
vn -0.006399 -0.847826 0.530237
vn -0.512416 -0.512416 0.689100
vn -0.707098 -0.707098 0.005055
vn -0.006754 -0.999972 0.003184
vn -0.838667 -0.024630 0.544088
vn -0.999652 -0.026165 0.003325
vn 0.838667 -0.024630 0.544088
vn 0.512416 -0.512416 0.689100
vn 0.707098 -0.707098 0.005055
vn 0.999652 -0.026165 0.003325
vn 0.006399 -0.847826 0.530237
vn 0.006754 -0.999972 0.003184
vn 0.838667 0.024630 0.544087
vn 0.512416 0.512417 0.689100
vn 0.238007 0.238007 0.941651
vn 0.509595 0.007968 0.860378
vn 0.006399 0.847827 0.530235
vn 0.002039 0.527094 0.849804
vn -0.794163 0.020089 -0.607373
vn -0.451557 0.451557 -0.769541
vn -0.057703 0.057703 -0.996665
vn -0.080984 0.001156 -0.996715
vn -0.005231 0.808774 -0.588097
vn -0.000286 0.081151 -0.996702
vn 0.794163 0.020089 -0.607373
vn 0.451558 0.451557 -0.769540
vn 0.707098 0.707098 -0.005055
vn 0.999652 0.026165 -0.003325
vn 0.005231 0.808774 -0.588097
vn 0.006754 0.999972 -0.003184
vn 0.005231 -0.808773 -0.588098
vn 0.451557 -0.451557 -0.769540
vn 0.707098 -0.707098 -0.005055
vn 0.006754 -0.999972 -0.003184
vn 0.794162 -0.020089 -0.607374
vn 0.999652 -0.026165 -0.003325
vn -0.005231 -0.808773 -0.588098
vn -0.451557 -0.451557 -0.769540
vn -0.057703 -0.057703 -0.996665
vn -0.000286 -0.081151 -0.996702
vn -0.794162 -0.020089 -0.607374
vn -0.080984 -0.001156 -0.996715
vn 0.004793 -0.771206 0.636568
vn 0.475241 -0.475241 0.740467
vn 0.610139 -0.610133 0.505439
vn 0.004578 -0.923200 0.384294
vn 0.767676 -0.020223 0.640519
vn 0.920782 -0.019781 0.389577
vn 0.004793 0.771205 0.636568
vn 0.475242 0.475242 0.740466
vn 0.144555 0.144556 0.978881
vn 0.002829 0.207103 0.978315
vn 0.767677 0.020223 0.640518
vn 0.210961 0.011462 0.977427
vn -0.767675 0.020223 0.640520
vn -0.475242 0.475242 0.740467
vn -0.144555 0.144556 0.978881
vn -0.210960 0.011462 0.977427
vn -0.004793 0.771205 0.636568
vn -0.002829 0.207103 0.978315
vn -0.004793 -0.771206 0.636568
vn -0.475241 -0.475241 0.740467
vn -0.144555 -0.144556 0.978881
vn -0.002829 -0.207102 0.978315
vn -0.767675 -0.020223 0.640520
vn -0.210961 -0.011462 0.977427
vn 0.000286 0.081151 -0.996702
vn -0.006754 0.999972 -0.003184
vn -0.006754 0.999972 0.003184
vn 0.006754 0.999972 0.003184
vn -0.006754 -0.999972 -0.003184
vn 0.999652 0.026165 0.003325
vn -0.999652 -0.026165 -0.003325
vn -0.999652 0.026165 0.003325
vn -0.999652 0.026165 -0.003325
vn -0.002039 -0.527094 0.849804
vn 0.002039 -0.527094 0.849804
vn 0.509595 -0.007968 0.860378
vn 0.002829 -0.207102 0.978315
vn -0.509595 -0.007968 0.860378
vn 0.210962 -0.011462 0.977427
vn 0.080983 0.001156 -0.996715
vn 0.080983 -0.001156 -0.996715
vn 0.000286 -0.081152 -0.996702
vn 0.920782 0.019781 0.389577
vn 0.004578 0.923198 0.384297
vn -0.004578 0.923198 0.384297
vn -0.920782 0.019782 0.389577
vn -0.920782 -0.019781 0.389577
vn -0.004578 -0.923200 0.384294
vn -0.000000 0.000000 -1.000000
vn -0.707098 0.707098 0.005055
vn -0.238005 -0.238007 0.941651
vn 0.238006 -0.238007 0.941651
vn 0.707098 0.707098 0.005055
vn -0.707098 0.707098 -0.005055
vn 0.057703 0.057703 -0.996665
vn 0.057702 -0.057703 -0.996665
vn -0.707098 -0.707098 -0.005055
vn 0.144555 -0.144556 0.978881
vn 0.610139 0.610133 0.505438
vn -0.610139 0.610134 0.505438
vn -0.610139 -0.610132 0.505440
vn 0.000000 0.000000 -1.000000
vn 0.000000 0.000000 -1.000000
vn 0.000000 0.000000 -1.000000
s 1
g S_U_02 Unit_Base_18 UV01
usemtl aiStandardSurface4SG
f 78/73/73 77/74/74 80/75/75 79/76/76
f 77/74/74 76/77/77 81/78/78 80/75/75
f 84/79/79 83/80/80 89/208/81 88/203/82
f 83/80/80 82/83/83 90/84/84 89/208/81
f 93/85/85 92/86/86 98/185/87 97/201/88
f 92/86/86 91/89/89 99/90/90 98/185/87
f 105/91/91 104/92/92 107/93/93 106/94/94
f 104/92/92 103/95/95 108/96/96 107/93/93
f 111/97/97 110/98/98 114/99/99 113/100/100
f 110/98/98 109/101/101 112/102/102 114/99/99
f 120/103/103 119/104/104 125/207/105 124/202/106
f 119/104/104 118/107/107 126/205/108 125/207/105
f 132/109/109 131/110/110 134/187/111 133/204/112
f 131/110/110 130/113/113 135/114/114 134/187/111
f 138/115/115 137/116/116 143/117/117 142/118/118
f 137/116/116 136/119/119 144/120/120 143/117/117
f 150/121/121 149/122/122 152/206/123 151/199/124
f 149/122/122 148/123/125 153/198/126 152/206/123
f 156/124/127 155/125/128 161/126/129 160/127/130
f 155/125/128 154/128/131 162/129/132 161/126/129
f 165/130/133 164/131/134 170/132/135 169/133/136
f 164/131/134 163/134/137 171/135/138 170/132/135
f 174/136/139 173/137/140 179/138/141 178/139/142
f 173/137/140 172/140/143 180/141/144 179/138/141
f 112/102/102 109/101/101 118/107/107 116/142/145
f 109/101/101 121/143/146 126/205/108 118/107/107
f 75/81/147 100/82/148 126/87/108 121/88/146
f 141/105/149 133/106/112 99/108/90 88/111/82
f 97/112/88 135/144/114 124/146/106 102/147/150
f 139/150/151 90/164/84 73/167/152 123/168/153
f 87/151/154 94/152/155 171/135/138 160/127/130
f 96/153/156 106/94/94 180/141/144 169/133/136
f 108/96/96 79/76/76 147/154/157 178/139/142
f 81/78/78 85/155/158 162/129/132 145/156/159
f 90/84/84 82/83/83 76/77/77 73/149/152
f 82/83/83 85/155/158 81/78/78 76/77/77
f 87/151/154 84/79/79 91/89/89 94/152/155
f 84/79/79 88/203/82 99/90/90 91/89/89
f 75/197/147 78/73/73 103/95/95 100/145/148
f 78/73/73 79/76/76 108/96/96 103/95/95
f 96/153/156 93/85/85 105/91/91 106/94/94
f 93/85/85 97/201/88 102/194/150 105/91/91
f 115/160/160 120/103/103 130/113/113 128/161/161
f 120/103/103 124/202/106 135/114/114 130/113/113
f 123/189/153 111/97/97 136/119/119 139/148/151
f 111/97/97 113/100/100 144/120/120 136/119/119
f 141/182/149 138/115/115 132/109/109 133/204/112
f 138/115/115 142/118/118 127/162/162 132/109/109
f 162/129/132 154/128/131 148/123/125 145/156/159
f 154/128/131 157/159/163 153/198/126 148/123/125
f 159/180/164 156/124/127 163/134/137 166/157/165
f 156/124/127 160/127/130 171/135/138 163/134/137
f 168/178/166 165/130/133 172/140/143 175/158/167
f 165/130/133 169/133/136 180/141/144 172/140/143
f 177/176/168 174/136/139 150/121/121 151/199/124
f 174/136/139 178/139/142 147/154/157 150/121/121
f 113/100/100 114/99/99 112/102/102 181/163/169
f 75/197/147 74/195/170 77/74/74 78/73/73
f 74/195/170 73/149/152 76/77/77 77/74/74
f 82/83/83 83/80/80 86/165/171 85/155/158
f 83/80/80 84/79/79 87/151/154 86/165/171
f 91/89/89 92/86/86 95/166/172 94/152/155
f 92/86/86 93/85/85 96/153/156 95/166/172
f 102/194/150 101/192/173 104/92/92 105/91/91
f 101/192/173 100/145/148 103/95/95 104/92/92
f 109/101/101 110/98/98 122/190/174 121/143/146
f 110/98/98 111/97/97 123/189/153 122/190/174
f 115/160/160 117/169/175 119/104/104 120/103/103
f 117/169/175 116/142/145 118/107/107 119/104/104
f 73/167/152 74/171/170 122/184/174 123/168/153
f 74/171/170 75/81/147 121/88/146 122/184/174
f 100/82/148 101/211/173 125/188/105 126/87/108
f 101/186/173 102/147/150 124/146/106 125/212/105
f 127/162/162 129/170/176 131/110/110 132/109/109
f 129/170/176 128/161/161 130/113/113 131/110/110
f 97/112/88 98/191/87 134/193/111 135/144/114
f 98/191/87 99/108/90 133/106/112 134/193/111
f 136/119/119 137/116/116 140/183/177 139/148/151
f 137/116/116 138/115/115 141/182/149 140/183/177
f 88/111/82 89/209/81 140/200/177 141/105/149
f 89/196/81 90/164/84 139/150/151 140/210/177
f 79/76/76 80/75/75 146/172/178 147/154/157
f 80/75/75 81/78/78 145/156/159 146/172/178
f 147/154/157 146/172/178 149/122/122 150/121/121
f 146/172/178 145/156/159 148/123/125 149/122/122
f 154/128/131 155/125/128 158/181/179 157/159/163
f 155/125/128 156/124/127 159/180/164 158/181/179
f 85/155/158 86/165/171 161/126/129 162/129/132
f 86/165/171 87/151/154 160/127/130 161/126/129
f 163/134/137 164/131/134 167/179/180 166/157/165
f 164/131/134 165/130/133 168/178/166 167/179/180
f 94/152/155 95/166/172 170/132/135 171/135/138
f 95/166/172 96/153/156 169/133/136 170/132/135
f 172/140/143 173/137/140 176/177/181 175/158/167
f 173/137/140 174/136/139 177/176/168 176/177/181
f 106/94/94 107/93/93 179/138/141 180/141/144
f 107/93/93 108/96/96 178/139/142 179/138/141
f 144/120/120 182/173/182 142/118/118 143/117/117
f 184/174/183 116/142/145 117/169/175 115/160/160
f 127/162/162 183/175/184 128/161/161 129/170/176
f 113/100/100 181/163/169 182/173/182 144/120/120
f 128/161/161 183/175/184 184/174/183 115/160/160
f 142/118/118 182/173/182 183/175/184 127/162/162
f 184/174/183 183/175/184 182/173/182 181/163/169
f 181/163/169 112/102/102 116/142/145 184/174/183
g default
v -431.033264 36.430222 146.610474
v 431.033264 36.430222 146.610474
v -431.033264 226.154709 146.610474
v 431.033264 226.154709 146.610474
vt 0.003418 0.264272
vt 0.996582 0.264272
vt 0.996582 0.482849
vt 0.003418 0.482849
vn 0.000000 0.000000 1.000000
vn 0.000000 0.000000 1.000000
vn 0.000000 0.000000 1.000000
vn 0.000000 0.000000 1.000000
s off
g S_U_02 Window_15 UV02
usemtl aiStandardSurface3SG
f 185/213/185 186/214/186 188/215/187 187/216/188
