# This file uses centimeters as units for non-parametric coordinates.

mtllib SU09_02.mtl
g default
v -425.538696 -0.000018 180.022232
v 425.538696 -0.000018 180.022232
v -425.538696 99.999985 0.000019
v 425.538696 99.999985 0.000019
v -425.538696 99.999985 0.000019
v 425.538696 99.999985 0.000019
v -425.538696 -0.000001 -180.777939
v 425.538696 -0.000018 -180.777939
vt 0.973286 0.480936
vt 0.679008 0.909804
vt 0.679049 0.476386
vt 0.973293 0.991723
vt 0.799154 0.693560
vt 0.799157 0.693561
vt 0.831706 0.736881
vt 0.831715 0.736849
vn 1.000000 0.000000 0.000000
vn 1.000000 0.000000 0.000000
vn 0.000000 0.000000 0.000000
vn 0.000000 0.000000 0.000000
vn -1.000000 0.000000 0.000000
vn -1.000000 0.000000 0.000000
vn -0.000000 0.000000 0.000000
vn -0.000000 0.000000 0.000000
s off
g Unit_Base_26_B S_U_09_2
usemtl aiStandardSurface4SG
f 2/2/1 8/3/2 6/5/3 4/6/4
f 7/1/5 1/4/6 3/7/7 5/8/8
g default
v -480.921265 114.003220 0.000022
v -472.820801 127.275497 -9.642811
v -478.548767 125.331985 -8.230850
v -480.921265 120.640366 -4.822078
v -472.820801 108.933609 -15.602408
v -478.548767 109.676102 -13.317839
v -480.921265 111.468185 -7.802396
v -472.820801 97.597855 0.000022
v -478.548767 99.999985 0.000022
v -480.921265 105.799301 0.000022
v -472.820801 108.933609 15.602447
v -478.548767 109.676102 13.317874
v -480.921265 111.468185 7.802435
v -472.820801 127.275497 9.642848
v -478.548767 125.331985 8.230888
v -480.921265 120.640366 4.822114
v 480.921265 114.003220 0.000022
v 472.820801 127.275497 -9.642811
v 478.548767 125.331985 -8.230850
v 480.921265 120.640366 -4.822078
v 472.820801 108.933609 -15.602408
v 478.548767 109.676102 -13.317839
v 480.921265 111.468185 -7.802396
v 472.820801 97.597855 0.000022
v 478.548767 99.999985 0.000022
v 480.921265 105.799301 0.000022
v 472.820801 108.933609 15.602447
v 478.548767 109.676102 13.317874
v 480.921265 111.468185 7.802435
v 472.820801 127.275497 9.642848
v 478.548767 125.331985 8.230888
v 480.921265 120.640366 4.822114
vt 0.804263 0.523776
vt 0.817141 0.548603
vt 0.836772 0.528684
vt 0.842151 0.561118
vt 0.812966 0.576257
vt 0.789549 0.553178
vt 0.794526 0.504761
vt 0.785052 0.485608
vt 0.851849 0.513547
vt 0.867137 0.498620
vt 0.861205 0.570780
vt 0.880127 0.580706
vt 0.809666 0.597364
vt 0.806075 0.618428
vt 0.768457 0.556563
vt 0.747313 0.559656
vt 0.004016 0.997052
vt 0.783492 0.912354
vt 0.004015 0.980129
vt 0.783499 0.980048
vt 0.004013 0.963205
vt 0.783497 0.963124
vt 0.805463 0.842529
vt 0.793043 0.866461
vt 0.824386 0.861737
vt 0.829578 0.830468
vt 0.801443 0.815868
vt 0.778865 0.838113
vt 0.783653 0.884792
vt 0.774516 0.903256
vt 0.838918 0.876332
vt 0.853655 0.890727
vt 0.847950 0.821158
vt 0.866194 0.811592
vt 0.798266 0.795518
vt 0.794809 0.775210
vt 0.758528 0.834846
vt 0.738145 0.831861
vt 0.004008 0.912435
vt 0.783500 0.996971
vt 0.004011 0.946282
vt 0.783495 0.946201
vt 0.004009 0.929358
vt 0.783493 0.929277
vn -1.000000 0.000002 0.000000
vn -0.948853 0.255424 -0.185572
vn -0.948854 -0.097562 -0.300264
vn -0.948854 -0.315715 0.000000
vn -0.948854 -0.097558 0.300264
vn -0.948853 0.255425 0.185572
vn -0.578702 0.659783 -0.479364
vn -0.578702 -0.252007 -0.775627
vn -0.002001 0.809013 -0.587787
vn -0.002001 -0.309016 -0.951055
vn -0.578707 -0.815536 0.000000
vn -0.002001 -0.999998 0.000000
vn -0.578701 -0.252008 0.775627
vn -0.002001 -0.309016 0.951055
vn -0.578702 0.659783 0.479364
vn -0.002001 0.809013 0.587787
vn 0.948853 0.255424 -0.185572
vn 1.000000 0.000001 0.000000
vn 0.948854 -0.097562 -0.300264
vn 0.948854 -0.315715 -0.000000
vn 0.948854 -0.097559 0.300264
vn 0.948853 0.255424 0.185572
vn 0.578703 0.659782 -0.479365
vn 0.002001 0.809013 -0.587787
vn 0.002001 0.809013 0.587787
vn 0.578703 0.659781 0.479366
vn 0.578702 -0.252007 -0.775627
vn 0.002001 -0.309016 -0.951055
vn 0.578707 -0.815535 0.000000
vn 0.002001 -0.999998 0.000000
vn 0.578701 -0.252009 0.775626
vn 0.002001 -0.309016 0.951055
s 1
g S_U_09_2 Roof_Sculpture_04_B
usemtl aiStandardSurface4SG
f 9/10/9 12/9/10 15/11/11
f 9/10/9 15/11/11 18/12/12
f 9/10/9 18/12/12 21/13/13
f 9/10/9 21/13/13 24/14/14
f 9/10/9 24/14/14 12/9/10
f 15/11/11 12/9/10 11/15/15 14/17/16
f 11/15/15 10/16/17 13/18/18 14/17/16
f 18/12/12 15/11/11 14/17/16 17/19/19
f 14/17/16 13/18/18 16/20/20 17/19/19
f 21/13/13 18/12/12 17/19/19 20/21/21
f 17/19/19 16/20/20 19/22/22 20/21/21
f 24/14/14 21/13/13 20/21/21 23/23/23
f 20/21/21 19/22/22 22/24/24 23/23/23
f 12/9/10 24/14/14 23/23/23 11/15/15
f 23/23/23 22/24/24 10/16/17 11/15/15
f 28/32/25 25/31/26 31/33/27
f 31/33/27 25/31/26 34/34/28
f 34/34/28 25/31/26 37/35/29
f 37/35/29 25/31/26 40/36/30
f 40/36/30 25/31/26 28/32/25
f 27/37/31 26/38/32 38/46/33 39/45/34
f 40/36/30 28/32/25 27/37/31 39/45/34
f 27/37/31 28/32/25 31/33/27 30/39/35
f 26/38/32 27/37/31 30/39/35 29/40/36
f 30/39/35 31/33/27 34/34/28 33/41/37
f 29/40/36 30/39/35 33/41/37 32/42/38
f 33/41/37 34/34/28 37/35/29 36/43/39
f 32/42/38 33/41/37 36/43/39 35/44/40
f 36/43/39 37/35/29 40/36/30 39/45/34
f 35/44/40 36/43/39 39/45/34 38/46/33
f 10/29/17 26/30/32 29/28/36 13/27/18
f 13/27/18 29/28/36 32/48/38 16/25/20
f 16/47/20 32/26/38 35/52/40 19/51/22
f 19/51/22 35/52/40 38/50/33 22/49/24
f 10/29/17 22/49/24 38/50/33 26/30/32
g default
v -427.153992 -64.386681 288.991638
v -308.055176 -41.204994 292.344818
v -299.081818 -30.469864 273.529694
v -466.281677 107.741226 3.149784
v -458.060242 99.335205 2.026898
v -303.375916 -55.521313 297.620789
v -303.375946 -58.051186 297.300659
v -309.762451 -47.639778 301.649353
v -307.079590 -57.203972 297.784058
v -301.393555 -49.544670 289.112183
v -303.748535 -48.464676 289.189209
v -308.054993 -59.484211 296.451538
v -474.080811 -39.696381 261.768951
v -465.308594 -45.899597 255.928802
v -470.971741 -28.520868 268.145020
v -305.700195 -42.285217 292.268250
v -463.714783 118.917603 9.682030
v -295.785889 -38.938354 272.492157
v -293.983429 -40.678894 273.574371
v -276.094238 -37.007042 267.137939
v -276.562744 -34.991398 265.576172
v -276.950439 -28.037304 267.298065
v -277.418945 -26.022772 265.735657
v -297.278809 -32.209969 274.611664
v -304.724640 -54.674660 298.104156
v -307.880371 -47.797604 301.071411
v -163.027252 100.275421 44.164749
v -163.027252 -5.012535 228.913727
v -8.507181 100.275421 44.164749
v -180.042175 100.275421 44.164749
v -180.042175 -5.012535 228.913727
v -8.507181 -5.012535 228.913727
v -176.369049 -6.976402 223.544525
v -176.356094 94.667358 45.193745
v -4.833876 -6.976402 223.544525
v -4.820908 94.667358 45.193745
v -166.755997 -6.959171 223.625610
v -166.700562 94.659958 45.205170
v -470.807434 -47.384701 275.245178
v -462.263123 -53.539024 286.030853
v -449.680176 -57.652653 293.241028
v -434.899414 -59.123901 295.820068
v -462.283630 -52.953396 268.606079
v -453.988525 -58.932518 279.320984
v -441.664124 -62.944008 286.472748
v -433.247375 -47.760876 301.206360
v -447.740540 -46.328163 298.684326
v -460.050903 -42.217056 291.599609
v -468.336121 -36.042549 281.012054
v 427.153992 -64.386681 288.991638
v 308.055176 -41.204994 292.344818
v 299.081818 -30.469864 273.529694
v 466.281677 107.741226 3.149784
v 458.060242 99.335205 2.026898
v 303.375916 -55.521313 297.620789
v 303.375946 -58.051186 297.300659
v 309.762451 -47.639778 301.649353
v 307.079590 -57.203972 297.784058
v 301.393555 -49.544670 289.112183
v 303.748535 -48.464676 289.189209
v 308.054993 -59.484211 296.451538
v 474.080811 -39.696381 261.768951
v 465.308594 -45.899597 255.928802
v 470.971741 -28.520868 268.145020
v 305.700195 -42.285217 292.268250
v 463.714783 118.917603 9.682030
v 295.785889 -38.938354 272.492157
v 293.983429 -40.678894 273.574371
v 276.094238 -37.007042 267.137939
v 276.562744 -34.991398 265.576172
v 276.950439 -28.037304 267.298065
v 277.418945 -26.022772 265.735657
v 297.278809 -32.209969 274.611664
v 304.724640 -54.674660 298.104156
v 307.880371 -47.797604 301.071411
v 163.027252 100.275421 44.164749
v 163.027252 -5.012535 228.913727
v 8.507181 100.275421 44.164749
v 180.042175 100.275421 44.164749
v 180.042175 -5.012535 228.913727
v 8.507181 -5.012535 228.913727
v 176.356094 94.667358 45.193745
v 166.700562 94.659958 45.205170
v 4.820908 94.667358 45.193745
v 176.369049 -6.976402 223.544525
v 166.755997 -6.959171 223.625610
v 4.833876 -6.976402 223.544525
v 470.807434 -47.384701 275.245178
v 462.263123 -53.539024 286.030853
v 449.680176 -57.652653 293.241028
v 434.899414 -59.123901 295.820068
v 462.283630 -52.953396 268.606079
v 453.988525 -58.932518 279.320984
v 441.664124 -62.944008 286.472748
v 433.247375 -47.760876 301.206360
v 447.740540 -46.328163 298.684326
v 460.050903 -42.217056 291.599609
v 468.336121 -36.042549 281.012054
vt 0.996392 0.020447
vt 0.431527 0.603058
vt 0.431633 0.463012
vt 0.621991 0.463140
vt 0.621909 0.603617
vt 0.834092 0.035613
vt 0.657711 0.889047
vt 0.655231 0.899452
vt 0.355535 0.739284
vt 0.359701 0.731988
vt 0.349916 0.734080
vt 0.348845 0.732458
vt 0.358400 0.730448
vt 0.363700 0.736181
vt 0.355480 0.738229
vt 0.364845 0.737876
vt 0.657408 0.877096
vt 0.374566 0.723607
vt 0.381247 0.707413
vt 0.383533 0.707887
vt 0.376515 0.724595
vt 0.392273 0.708919
vt 0.388672 0.894405
vt 0.621907 0.619322
vt 0.346473 0.732497
vt 0.344915 0.736796
vt 0.381879 0.727480
vt 0.384060 0.728847
vt 0.389053 0.882594
vt 0.389970 0.708441
vt 0.852703 0.016872
vt 0.336551 0.845582
vt 0.390392 0.905436
vt 0.347280 0.736059
vt 0.845576 0.018357
vt 0.434844 0.615378
vt 0.618468 0.615091
vt 0.435096 0.458769
vt 0.431340 0.619938
vt 0.434877 0.607613
vt 0.618459 0.607842
vt 0.618558 0.458937
vt 0.344888 0.852556
vt 0.350490 0.868832
vt 0.360193 0.881465
vt 0.373172 0.889923
vt 0.356330 0.849925
vt 0.359092 0.862621
vt 0.336497 0.866075
vt 0.347722 0.888044
vt 0.367724 0.902103
vt 0.839548 0.022431
vt 0.376547 0.880230
vt 0.366241 0.873152
vt 0.431791 0.306677
vt 0.622134 0.307087
vt 0.835519 0.028485
vt 0.622002 0.447570
vt 0.431657 0.447234
vt 0.658303 0.021833
vt 0.655814 0.011462
vt 0.356662 0.171571
vt 0.360812 0.178872
vt 0.359500 0.180409
vt 0.349943 0.178376
vt 0.351021 0.176753
vt 0.364815 0.174694
vt 0.356606 0.172621
vt 0.365971 0.173008
vt 0.658020 0.033749
vt 0.375656 0.187292
vt 0.377597 0.186314
vt 0.384573 0.203035
vt 0.382281 0.203504
vt 0.393332 0.202025
vt 0.390030 0.016946
vt 0.622157 0.291382
vt 0.347569 0.178331
vt 0.346027 0.174029
vt 0.382984 0.183458
vt 0.385168 0.182104
vt 0.390419 0.028723
vt 0.391023 0.202497
vt 0.338084 0.065225
vt 0.996345 0.470479
vt 0.391734 0.005946
vt 0.348389 0.174769
vt 0.852655 0.474024
vt 0.834048 0.455279
vt 0.618714 0.295598
vt 0.618693 0.302846
vt 0.618564 0.451763
vt 0.431773 0.290088
vt 0.435234 0.294582
vt 0.435186 0.302216
vt 0.435107 0.451485
vt 0.346403 0.058366
vt 0.352011 0.042279
vt 0.361677 0.029768
vt 0.374605 0.021381
vt 0.357776 0.061104
vt 0.360555 0.048461
vt 0.338130 0.044969
vt 0.349289 0.023226
vt 0.369189 0.009260
vt 0.377959 0.031018
vt 0.367692 0.038016
vt 0.835474 0.462407
vt 0.839501 0.468462
vt 0.845529 0.472537
vn -0.014741 0.869141 0.494345
vn 0.010193 0.868987 0.494730
vn 0.008343 0.874231 0.485439
vn -0.014673 0.869902 0.493006
vn -0.976975 -0.171683 -0.126669
vn -0.009989 -0.867859 -0.496710
vn -0.009903 -0.868158 -0.496189
vn -0.973170 -0.192703 -0.125721
vn 0.767623 0.263066 0.584424
vn 0.761883 0.191498 0.618759
vn 0.844903 0.256747 0.469275
vn 0.810864 0.313576 0.494135
vn -0.001023 0.075020 0.997182
vn 0.021389 -0.366622 0.930124
vn 0.001870 0.676108 0.736800
vn 0.002026 0.845634 0.533759
vn -0.000538 0.858160 0.513383
vn 0.002179 0.867474 0.497477
vn 0.000938 0.831893 0.554935
vn 0.012630 -0.043993 0.998952
vn 0.630781 0.079929 0.771834
vn 0.012432 0.010959 0.999863
vn 0.582013 0.204805 0.786966
vn -0.003459 0.851062 0.525054
vn -0.012432 0.010959 0.999863
vn 0.003459 0.851062 0.525054
vn -0.000938 0.831893 0.554935
vn -0.012630 -0.043993 0.998952
vn -0.060273 0.867749 0.493334
vn -0.058173 0.868111 0.492950
vn 0.003961 0.868575 0.495542
vn -0.002353 0.865352 0.501158
vn -0.043940 0.815891 0.576534
vn -0.017316 0.250374 0.967994
vn 0.000243 -0.339814 0.940493
vn 0.371580 0.794562 0.480207
vn -0.371792 0.794608 0.479967
vn 0.372448 0.794258 0.480038
vn 0.372753 0.817694 0.438669
vn 0.003767 0.868962 0.494865
vn 0.371002 0.818202 0.439208
vn -0.372071 0.818076 0.438537
vn -0.404468 -0.632176 0.660878
vn -0.038345 -0.520859 0.852781
vn -0.691634 -0.563798 0.451415
vn -0.084892 0.821769 0.563462
vn -0.889922 -0.417452 0.183775
vn -0.057132 0.858576 0.509492
vn -0.003365 -0.949608 -0.313422
vn -0.000493 -0.800312 0.599584
vn -0.006524 -0.881197 -0.472703
vn -0.009365 -0.877916 -0.478723
vn -0.010769 -0.875791 -0.482570
vn 0.014741 0.869141 0.494345
vn 0.014673 0.869902 0.493006
vn -0.008343 0.874231 0.485439
vn -0.010193 0.868987 0.494730
vn 0.009989 -0.867859 -0.496710
vn 0.976975 -0.171684 -0.126669
vn 0.973170 -0.192703 -0.125721
vn 0.009903 -0.868158 -0.496189
vn -0.761885 0.191497 0.618757
vn -0.767625 0.263066 0.584422
vn -0.810865 0.313575 0.494135
vn -0.844904 0.256746 0.469275
vn -0.021398 -0.366624 0.930123
vn 0.001023 0.075020 0.997182
vn -0.002026 0.845634 0.533759
vn -0.001870 0.676108 0.736800
vn 0.000538 0.858159 0.513383
vn -0.002179 0.867474 0.497477
vn -0.630781 0.079928 0.771834
vn -0.582013 0.204805 0.786966
vn -0.000243 -0.339814 0.940493
vn 0.000493 -0.800312 0.599584
vn 0.003365 -0.949608 -0.313422
vn 0.060273 0.867749 0.493334
vn 0.058173 0.868111 0.492950
vn -0.003961 0.868575 0.495542
vn 0.002353 0.865352 0.501159
vn -0.003767 0.868962 0.494865
vn 0.371792 0.794608 0.479967
vn -0.371580 0.794563 0.480207
vn -0.371001 0.818202 0.439208
vn 0.372071 0.818077 0.438536
vn -0.372753 0.817694 0.438669
vn -0.372448 0.794258 0.480038
vn 0.017316 0.250374 0.967994
vn 0.038345 -0.520859 0.852781
vn 0.404469 -0.632175 0.660878
vn 0.043939 0.815891 0.576534
vn 0.691634 -0.563797 0.451415
vn 0.084892 0.821769 0.563462
vn 0.889922 -0.417452 0.183775
vn 0.057132 0.858576 0.509493
vn 0.006524 -0.881197 -0.472703
vn 0.009365 -0.877916 -0.478723
vn 0.010769 -0.875791 -0.482570
s 1
g S_U_09_2 Roof_11_B
usemtl aiStandardSurface4SG
f 68/54/41 72/55/42 69/56/43 67/57/44
f 44/59/45 45/60/46 54/85/47 53/75/48
f 66/67/49 65/63/50 51/62/51 56/66/52
f 66/67/49 48/61/53 49/86/54 65/63/50
f 51/62/51 65/63/50 46/64/55 50/65/56
f 42/68/57 48/61/53 66/67/49 56/66/52
f 59/70/58 60/71/59 61/72/60 58/73/61
f 58/73/61 61/72/60 62/82/62 64/79/63
f 63/74/64 62/82/62 111/135/65 112/127/66
f 61/72/60 60/71/59 109/126/67 110/125/68
f 62/82/62 61/72/60 110/125/68 111/135/65
f 44/59/45 53/75/48 55/81/69 57/69/70
f 58/73/61 64/79/63 56/66/52 51/62/51
f 70/76/71 67/57/44 57/69/70
f 56/66/52 64/79/63 43/80/72 42/68/57
f 42/68/57 87/100/73 86/99/74 48/61/53
f 50/65/56 59/70/58 58/73/61 51/62/51
f 63/74/64 43/80/72 64/79/63 62/82/62
f 46/64/55 65/63/50 49/86/54 47/77/75
f 67/57/44 70/76/71 74/89/76 78/93/77
f 76/94/78 69/56/43 72/55/42 75/90/79
f 74/89/76 70/76/71 71/91/80 73/88/81
f 74/89/76 73/88/81 77/92/82 78/93/77
f 68/54/41 67/57/44 78/93/77 77/92/82
f 71/91/80 68/54/41 77/92/82 73/88/81
f 57/69/70 67/57/44 69/56/43
f 63/74/64 72/55/42 68/54/41
f 81/96/83 82/95/84 86/99/74 87/100/73
f 80/97/85 81/96/83 87/100/73 88/106/86
f 79/98/87 80/97/85 88/106/86 89/105/88
f 55/81/69 53/75/48 79/98/87 89/105/88
f 82/95/84 41/84/89 52/78/90
f 48/61/53 86/99/74 82/95/84 52/78/90
f 81/96/83 85/101/91 41/84/89 82/95/84
f 80/97/85 84/102/92 85/101/91 81/96/83
f 53/75/48 54/85/47 83/103/93 79/98/87
f 79/98/87 83/103/93 84/102/92 80/97/85
f 52/78/90 49/86/54 48/61/53
f 52/78/90 47/77/75 49/86/54
f 117/107/94 116/108/95 118/110/96 121/111/97
f 94/113/98 93/112/99 102/128/100 103/138/101
f 114/118/102 115/120/103 105/119/104 100/115/105
f 114/118/102 98/139/106 97/114/107 115/120/103
f 100/115/105 99/116/108 95/117/109 114/118/102
f 91/121/110 105/119/104 115/120/103 97/114/107
f 108/123/111 107/124/112 110/125/68 109/126/67
f 110/125/68 107/124/112 113/132/113 111/135/65
f 96/130/114 95/117/109 46/64/55 47/77/75
f 101/131/115 52/78/90 41/84/89 90/136/116
f 104/134/117 102/128/100 93/112/99 106/122/118
f 107/124/112 100/115/105 105/119/104 113/132/113
f 116/108/95 119/129/119 106/122/118
f 52/78/90 101/131/115 96/130/114 47/77/75
f 118/110/96 106/122/118 57/69/70 69/56/43
f 105/119/104 91/121/110 92/133/120 113/132/113
f 120/145/121 104/134/117 106/122/118 119/129/119
f 99/116/108 100/115/105 107/124/112 108/123/111
f 112/127/66 111/135/65 113/132/113 92/133/120
f 59/70/58 108/123/111 109/126/67 60/71/59
f 95/117/109 96/130/114 98/139/106 114/118/102
f 119/129/119 116/108/95 123/143/122 122/142/123
f 119/129/119 122/142/123 125/146/124 120/145/121
f 123/143/122 126/147/125 125/146/124 122/142/123
f 76/94/78 75/90/79 127/148/126 124/144/127
f 118/110/96 124/144/127 127/148/126 121/111/97
f 117/107/94 126/147/125 123/143/122 116/108/95
f 124/144/127 118/110/96 69/56/43 76/94/78
f 117/107/94 120/145/121 125/146/124 126/147/125
f 75/90/79 72/55/42 121/111/97 127/148/126
f 106/122/118 118/110/96 116/108/95
f 112/127/66 121/111/97 72/55/42 63/74/64
f 112/127/66 117/107/94 121/111/97
f 135/153/128 131/149/129 130/150/130 136/154/131
f 130/150/130 129/151/132 137/159/133 136/154/131
f 129/151/132 128/152/134 138/158/135 137/159/133
f 128/152/134 102/128/100 104/134/117 138/158/135
f 131/149/129 101/131/115 90/136/116
f 135/153/128 97/114/107 101/131/115 131/149/129
f 103/140/101 54/83/47 45/53/46 94/137/98
f 130/150/130 131/149/129 90/136/116 134/155/136
f 129/151/132 130/150/130 134/155/136 133/156/137
f 102/128/100 128/152/134 132/157/138 103/138/101
f 128/152/134 129/151/132 133/156/137 132/157/138
f 101/131/115 97/114/107 98/139/106
f 101/131/115 98/139/106 96/130/114
f 103/140/101 132/162/138 83/87/93 54/83/47
f 83/87/93 132/162/138 133/161/137 84/104/92
f 84/104/92 133/161/137 134/160/136 85/109/91
f 85/109/91 134/160/136 90/141/116 41/58/89
f 95/117/109 99/116/108 50/65/56 46/64/55
f 50/65/56 99/116/108 108/123/111 59/70/58
f 43/80/72 88/106/86 87/100/73 42/68/57
f 63/74/64 89/105/88 88/106/86 43/80/72
f 71/91/80 63/74/64 68/54/41
f 71/91/80 55/81/69 89/105/88 63/74/64
f 70/76/71 57/69/70 55/81/69 71/91/80
f 136/154/131 91/121/110 97/114/107 135/153/128
f 137/159/133 92/133/120 91/121/110 136/154/131
f 138/158/135 112/127/66 92/133/120 137/159/133
f 112/127/66 120/145/121 117/107/94
f 120/145/121 112/127/66 138/158/135 104/134/117
g default
v 427.153992 -64.386681 -288.991638
v 308.055176 -41.204994 -292.344788
v 299.081818 -30.469856 -273.529663
v 466.281677 107.741226 -3.149745
v 458.060242 99.335220 -2.026860
v 303.375916 -55.521313 -297.620728
v 303.375946 -58.051186 -297.300629
v 308.055176 -55.158298 -298.951233
v 307.079590 -57.203964 -297.783997
v 301.393555 -49.544670 -289.112183
v 303.748535 -48.464668 -289.189178
v 308.054993 -59.484203 -296.451508
v 474.080811 -39.696381 -261.768890
v 465.308594 -45.899597 -255.928741
v 309.762451 -47.639771 -301.649353
v 470.971741 -28.520861 -268.144958
v 305.700195 -42.285217 -292.268158
v 463.714783 118.917618 -9.681991
v 295.785889 -38.938339 -272.492126
v 293.983429 -40.678886 -273.574310
v 276.094238 -37.007034 -267.137878
v 276.562744 -34.991398 -265.576172
v 276.950439 -28.037304 -267.298004
v 277.418945 -26.022772 -265.735657
v 297.278809 -32.209953 -274.611664
v -277.418945 -26.022772 -265.735657
v 304.724640 -54.674644 -298.104126
v 307.880371 -47.797604 -301.071411
v 163.027252 100.275421 -44.164711
v 163.027252 -5.012527 -228.913666
v 8.507181 100.275421 -44.164711
v 180.042175 100.275421 -44.164711
v 180.042175 -5.012527 -228.913666
v 8.507181 -5.012527 -228.913666
v 176.369049 -6.976387 -223.544510
v 176.356094 94.667358 -45.193707
v 4.833876 -6.976387 -223.544510
v 4.820908 94.667358 -45.193707
v 166.755997 -6.959171 -223.625534
v 166.700562 94.659958 -45.205128
v 470.807434 -47.384693 -275.245178
v 462.263123 -53.539024 -286.030823
v 449.680176 -57.652653 -293.240967
v 434.899414 -59.123894 -295.820007
v 462.283630 -52.953396 -268.606018
v 453.988525 -58.932518 -279.320984
v 441.664124 -62.944008 -286.472717
v 433.247375 -47.760868 -301.206329
v 447.740540 -46.328163 -298.684296
v 460.050903 -42.217049 -291.599609
v 468.336121 -36.042549 -281.012024
v -427.153992 -64.386681 -288.991638
v -308.055176 -41.204994 -292.344788
v -299.081818 -30.469856 -273.529663
v -466.281677 107.741226 -3.149745
v -458.060242 99.335220 -2.026860
v -303.375916 -55.521313 -297.620728
v -303.375946 -58.051186 -297.300629
v -308.055176 -55.158298 -298.951233
v -307.079590 -57.203964 -297.783997
v -301.393555 -49.544670 -289.112183
v -303.748535 -48.464668 -289.189178
v -308.054993 -59.484203 -296.451508
v -474.080811 -39.696381 -261.768890
v -465.308594 -45.899597 -255.928741
v -309.762451 -47.639771 -301.649353
v -470.971741 -28.520861 -268.144958
v -305.700195 -42.285217 -292.268158
v -463.714783 118.917618 -9.681991
v -295.785889 -38.938339 -272.492126
v -293.983429 -40.678886 -273.574310
v -276.094238 -37.007034 -267.137878
v -276.562744 -34.991398 -265.576172
v -276.950439 -28.037304 -267.298004
v -297.278809 -32.209953 -274.611664
v -304.724640 -54.674644 -298.104126
v -307.880371 -47.797604 -301.071411
v -163.027252 100.275421 -44.164711
v -163.027252 -5.012527 -228.913666
v -8.507181 100.275421 -44.164711
v -180.042175 100.275421 -44.164711
v -180.042175 -5.012527 -228.913666
v -8.507181 -5.012527 -228.913666
v -176.356094 94.667358 -45.193707
v -166.700562 94.659958 -45.205128
v -4.820908 94.667358 -45.193707
v -4.833876 -6.976387 -223.544510
v -176.369049 -6.976387 -223.544510
v -166.755997 -6.959171 -223.625534
v -470.807434 -47.384693 -275.245178
v -462.263123 -53.539024 -286.030823
v -449.680176 -57.652653 -293.240967
v -434.899414 -59.123894 -295.820007
v -462.283630 -52.953396 -268.606018
v -453.988525 -58.932518 -279.320984
v -441.664124 -62.944008 -286.472717
v -433.247375 -47.760868 -301.206329
v -447.740540 -46.328163 -298.684296
v -460.050903 -42.217049 -291.599609
v -468.336121 -36.042549 -281.012024
vt 0.829911 0.017938
vt 0.100140 0.599586
vt 0.100625 0.459457
vt 0.292646 0.459636
vt 0.293218 0.601043
vt 0.667616 0.033152
vt 0.330142 0.887828
vt 0.327601 0.898268
vt 0.019801 0.734389
vt 0.030434 0.729138
vt 0.020646 0.731249
vt 0.019554 0.729658
vt 0.029128 0.727611
vt 0.034485 0.733321
vt 0.026276 0.735432
vt 0.035648 0.735017
vt 0.026342 0.736447
vt 0.329892 0.875822
vt 0.045313 0.720712
vt 0.051926 0.704471
vt 0.054221 0.704942
vt 0.047267 0.721690
vt 0.062992 0.705957
vt 0.059678 0.891660
vt 0.293285 0.616847
vt 0.017175 0.729707
vt 0.015636 0.734022
vt 0.052653 0.724569
vt 0.054837 0.725928
vt 0.060116 0.879802
vt 0.060680 0.705483
vt 0.061237 0.198092
vt 0.686221 0.014406
vt 0.007832 0.843035
vt 0.061348 0.902747
vt 0.018012 0.733170
vt 0.679095 0.015893
vt 0.106502 0.615436
vt 0.289845 0.612651
vt 0.104102 0.455209
vt 0.102053 0.618629
vt 0.108158 0.610084
vt 0.289818 0.605378
vt 0.289166 0.455406
vt 0.016142 0.849930
vt 0.021762 0.866105
vt 0.031409 0.878702
vt 0.044267 0.887143
vt 0.027511 0.847222
vt 0.030291 0.859915
vt 0.007866 0.863380
vt 0.019019 0.885229
vt 0.038800 0.899264
vt 0.673068 0.019968
vt 0.047663 0.877473
vt 0.037413 0.870427
vt 0.100326 0.302836
vt 0.292119 0.302627
vt 0.669041 0.026023
vt 0.292590 0.443970
vt 0.100601 0.443653
vt 0.327283 0.015516
vt 0.324722 0.005082
vt 0.017866 0.169868
vt 0.028556 0.175061
vt 0.027242 0.176598
vt 0.017657 0.174603
vt 0.018728 0.172998
vt 0.032574 0.170844
vt 0.024319 0.168774
vt 0.033717 0.169146
vt 0.024389 0.167760
vt 0.327059 0.027527
vt 0.043461 0.183417
vt 0.045407 0.182424
vt 0.052475 0.199147
vt 0.050183 0.199628
vt 0.057058 0.012205
vt 0.292074 0.286825
vt 0.015280 0.174566
vt 0.013710 0.170262
vt 0.050790 0.179516
vt 0.052967 0.178143
vt 0.057528 0.024057
vt 0.058928 0.198576
vt 0.005167 0.061299
vt 0.829996 0.467971
vt 0.058697 0.001120
vt 0.016087 0.171092
vt 0.686307 0.471557
vt 0.667695 0.452818
vt 0.288630 0.291077
vt 0.288640 0.298369
vt 0.289140 0.448187
vt 0.100262 0.286221
vt 0.104089 0.447913
vt 0.103764 0.290711
vt 0.103735 0.298354
vt 0.013452 0.054318
vt 0.018945 0.038061
vt 0.028579 0.025364
vt 0.041522 0.016794
vt 0.024886 0.056912
vt 0.027608 0.044184
vt 0.005009 0.040913
vt 0.016040 0.018910
vt 0.035951 0.004626
vt 0.045001 0.026476
vt 0.034710 0.033611
vt 0.669123 0.459946
vt 0.673152 0.465999
vt 0.679180 0.470073
vn 0.014241 0.869124 -0.494389
vn -0.010187 0.868987 -0.494730
vn -0.008343 0.874231 -0.485439
vn 0.014673 0.869902 -0.493006
vn 0.976975 -0.171684 0.126669
vn 0.009989 -0.867859 0.496710
vn 0.009903 -0.868158 0.496190
vn 0.973170 -0.192703 0.125721
vn -0.801506 0.321487 -0.504217
vn -0.791682 0.240716 -0.561512
vn -0.844903 0.256748 -0.469275
vn -0.810865 0.313573 -0.494136
vn -0.123337 -0.357686 -0.925661
vn -0.001870 0.676107 -0.736801
vn -0.002026 0.845634 -0.533760
vn 0.000538 0.858159 -0.513383
vn 0.002549 0.157975 -0.987440
vn -0.002179 0.867475 -0.497476
vn -0.000938 0.831892 -0.554937
vn -0.012630 -0.043992 -0.998952
vn -0.630780 0.079928 -0.771834
vn -0.012432 0.010958 -0.999863
vn -0.582013 0.204803 -0.786967
vn 0.060273 0.867749 -0.493334
vn 0.058173 0.868111 -0.492950
vn -0.003961 0.868575 -0.495542
vn 0.002353 0.865352 -0.501159
vn -0.003524 0.868936 -0.494912
vn 0.003416 0.851285 -0.524693
vn -0.000243 -0.339809 -0.940494
vn -0.371580 0.794562 -0.480207
vn 0.371792 0.794608 -0.479967
vn -0.372447 0.794259 -0.480038
vn -0.372752 0.817695 -0.438669
vn -0.371002 0.818202 -0.439208
vn 0.372070 0.818077 -0.438537
vn 0.404468 -0.632175 -0.660878
vn 0.045823 -0.526137 -0.849164
vn 0.019587 0.338050 -0.940924
vn 0.043939 0.815890 -0.576535
vn 0.691634 -0.563796 -0.451415
vn 0.084892 0.821769 -0.563463
vn 0.889922 -0.417451 -0.183776
vn 0.057132 0.858577 -0.509492
vn 0.003365 -0.949609 0.313420
vn 0.000147 -0.825542 -0.564341
vn 0.001298 -0.415051 -0.909797
vn 0.006524 -0.881197 0.472705
vn 0.009365 -0.877917 0.478722
vn 0.010769 -0.875791 0.482570
vn -0.009903 -0.868158 0.496190
vn -0.009989 -0.867859 0.496710
vn -0.014241 0.869124 -0.494389
vn -0.014673 0.869902 -0.493006
vn 0.008343 0.874231 -0.485439
vn 0.010187 0.868987 -0.494730
vn -0.976975 -0.171684 0.126669
vn -0.973170 -0.192703 0.125721
vn 0.791681 0.240717 -0.561512
vn 0.801505 0.321490 -0.504216
vn 0.810864 0.313574 -0.494136
vn 0.844903 0.256749 -0.469275
vn 0.123333 -0.357687 -0.925662
vn -0.001298 -0.415051 -0.909797
vn -0.002549 0.157975 -0.987440
vn 0.002026 0.845634 -0.533760
vn 0.001870 0.676107 -0.736801
vn -0.000538 0.858159 -0.513383
vn 0.002179 0.867475 -0.497476
vn 0.630780 0.079928 -0.771834
vn 0.012630 -0.043992 -0.998952
vn 0.000938 0.831892 -0.554937
vn 0.582012 0.204803 -0.786967
vn 0.012432 0.010958 -0.999863
vn -0.003416 0.851285 -0.524693
vn 0.000243 -0.339809 -0.940494
vn -0.000147 -0.825542 -0.564341
vn -0.003365 -0.949609 0.313420
vn -0.060273 0.867749 -0.493334
vn -0.058173 0.868111 -0.492950
vn 0.003961 0.868575 -0.495542
vn -0.002353 0.865352 -0.501159
vn 0.003524 0.868936 -0.494912
vn -0.371792 0.794608 -0.479967
vn 0.371580 0.794563 -0.480207
vn 0.371002 0.818202 -0.439208
vn -0.372070 0.818077 -0.438537
vn 0.372752 0.817695 -0.438669
vn 0.372447 0.794259 -0.480038
vn -0.019587 0.338051 -0.940924
vn -0.045823 -0.526137 -0.849164
vn -0.404468 -0.632175 -0.660878
vn -0.043939 0.815890 -0.576535
vn -0.691635 -0.563797 -0.451414
vn -0.084892 0.821768 -0.563463
vn -0.889922 -0.417451 -0.183776
vn -0.057132 0.858577 -0.509492
vn -0.006524 -0.881197 0.472705
vn -0.009365 -0.877917 0.478722
vn -0.010769 -0.875791 0.482570
s 1
g S_U_09_2 Roof_11_B1
usemtl aiStandardSurface4SG
f 168/164/139 172/165/140 169/166/141 167/167/142
f 142/169/143 143/170/144 152/197/145 151/186/146
f 166/177/147 165/173/148 149/172/149 155/176/150
f 166/177/147 147/198/151 165/173/148
f 149/172/149 165/173/148 144/174/152 148/175/153
f 140/178/154 153/179/155 166/177/147 155/176/150
f 158/181/156 159/182/157 160/183/158 157/184/159
f 157/184/159 160/183/158 161/193/160 163/190/161
f 142/169/143 151/186/146 154/192/162 156/180/163
f 157/184/159 163/190/161 155/176/150 149/172/149
f 170/187/164 167/167/142 156/180/163
f 155/176/150 163/190/161 141/191/165 140/178/154
f 168/164/139 171/203/166 162/185/167 172/165/140
f 148/175/153 158/181/156 157/184/159 149/172/149
f 162/185/167 141/191/165 163/190/161 161/193/160
f 144/174/152 165/173/148 147/198/151 145/188/168
f 167/167/142 170/187/164 174/201/169 178/205/170
f 176/206/171 169/166/141 172/165/140 175/202/172
f 174/201/169 170/187/164 171/203/166 173/200/173
f 174/201/169 173/200/173 177/204/174 178/205/170
f 168/164/139 167/167/142 178/205/170 177/204/174
f 171/203/166 168/164/139 177/204/174 173/200/173
f 156/180/163 167/167/142 169/166/141
f 181/208/175 182/207/176 186/211/177 187/212/178
f 180/209/179 181/208/175 187/212/178 188/218/180
f 179/210/181 180/209/179 188/218/180 189/217/182
f 154/192/162 151/186/146 179/210/181 189/217/182
f 182/207/176 139/196/183 150/189/184
f 146/171/185 182/207/176 150/189/184
f 181/208/175 185/213/186 139/196/183 182/207/176
f 180/209/179 184/214/187 185/213/186 181/208/175
f 151/186/146 152/197/145 183/215/188 179/210/181
f 179/210/181 183/215/188 184/214/187 180/209/179
f 150/189/184 147/198/151 146/171/185
f 150/189/184 145/188/168 147/198/151
f 203/252/189 152/195/145 143/163/144 194/249/190
f 217/219/191 216/220/192 218/222/193 221/223/194
f 194/225/190 193/224/195 202/240/196 203/250/189
f 214/230/197 215/232/198 206/231/199 200/227/200
f 215/232/198 198/251/201 197/226/202 204/234/203
f 200/227/200 199/228/204 195/229/205 214/230/197
f 191/233/206 206/231/199 215/232/198 204/234/203
f 209/236/207 208/237/208 211/238/209 210/239/210
f 211/238/209 208/237/208 213/244/211 212/247/212
f 212/247/212 164/194/213 162/185/167 161/193/160
f 210/239/210 211/238/209 160/183/158 159/182/157
f 211/238/209 212/247/212 161/193/160 160/183/158
f 196/242/214 195/229/205 144/174/152 145/188/168
f 201/243/215 150/189/184 139/196/183 190/248/216
f 205/246/217 202/240/196 193/224/195 207/235/218
f 208/237/208 200/227/200 206/231/199 213/244/211
f 216/220/192 219/241/219 207/235/218
f 150/189/184 201/243/215 196/242/214 145/188/168
f 218/222/193 207/235/218 156/180/163 169/166/141
f 206/231/199 191/233/206 192/245/220 213/244/211
f 220/257/221 205/246/217 207/235/218 219/241/219
f 199/228/204 200/227/200 208/237/208 209/236/207
f 164/194/213 212/247/212 213/244/211 192/245/220
f 158/181/156 209/236/207 210/239/210 159/182/157
f 195/229/205 196/242/214 198/251/201 214/230/197
f 219/241/219 216/220/192 223/255/222 222/254/223
f 219/241/219 222/254/223 226/259/224 220/257/221
f 223/255/222 227/260/225 226/259/224 222/254/223
f 176/206/171 175/202/172 225/258/226 224/256/227
f 218/222/193 224/256/227 225/258/226 221/223/194
f 217/219/191 227/260/225 223/255/222 216/220/192
f 224/256/227 218/222/193 169/166/141 176/206/171
f 217/219/191 220/257/221 226/259/224 227/260/225
f 175/202/172 172/165/140 221/223/194 225/258/226
f 207/235/218 218/222/193 216/220/192
f 164/194/213 221/223/194 172/165/140 162/185/167
f 235/265/228 231/261/229 230/262/230 236/266/231
f 230/262/230 229/263/232 237/271/233 236/266/231
f 229/263/232 228/264/234 238/270/235 237/271/233
f 228/264/234 202/240/196 205/246/217 238/270/235
f 231/261/229 201/243/215 190/248/216
f 235/265/228 204/234/203 197/226/202 231/261/229
f 230/262/230 231/261/229 190/248/216 234/267/236
f 229/263/232 230/262/230 234/267/236 233/268/237
f 202/240/196 228/264/234 232/269/238 203/250/189
f 228/264/234 229/263/232 233/268/237 232/269/238
f 201/243/215 197/226/202 198/251/201
f 201/243/215 198/251/201 196/242/214
f 232/274/238 183/199/188 152/195/145 203/252/189
f 233/273/237 184/216/187 183/199/188 232/274/238
f 234/272/236 185/221/186 184/216/187 233/273/237
f 190/253/216 139/168/183 185/221/186 234/272/236
f 148/175/153 199/228/204 209/236/207 158/181/156
f 195/229/205 199/228/204 148/175/153 144/174/152
f 140/178/154 187/212/178 186/211/177 153/179/155
f 164/194/213 220/257/221 217/219/191 221/223/194
f 236/266/231 191/233/206 204/234/203 235/265/228
f 237/271/233 192/245/220 191/233/206 236/266/231
f 238/270/235 164/194/213 192/245/220 237/271/233
f 220/257/221 164/194/213 238/270/235 205/246/217
f 141/191/165 188/218/180 187/212/178 140/178/154
f 162/185/167 189/217/182 188/218/180 141/191/165
f 171/203/166 154/192/162 189/217/182 162/185/167
f 170/187/164 156/180/163 154/192/162 171/203/166
f 146/171/185 153/179/155 186/211/177 182/207/176
f 214/230/197 198/251/201 215/232/198
f 231/261/229 197/226/202 201/243/215
f 166/177/147 153/179/155 146/171/185 147/198/151
