# This file uses centimeters as units for non-parametric coordinates.

mtllib SU15.mtl
g default
v -134.710114 395.485901 42.870155
v -136.197739 395.485901 41.382515
v -136.197739 463.723145 41.382515
v -134.710114 463.723145 42.870155
v -46.496193 391.194366 42.870155
v -48.315773 391.600098 41.844894
v -48.594803 390.492676 39.528725
v -46.583454 389.756866 41.439289
v -48.303444 463.723175 41.864025
v -46.455769 463.723175 42.870155
v -52.706249 393.705505 33.181423
v -52.966591 395.253876 34.644550
v -54.809750 395.888580 33.604336
v -54.735565 394.433807 32.137402
v -57.659130 394.433807 32.140026
v -57.647308 395.849518 33.604332
v -59.487743 395.511871 34.572281
v -59.636257 393.655518 33.121567
v -54.836208 463.723145 33.604336
v -52.988564 463.723145 34.610554
v -59.470325 463.723145 34.548809
v -57.590378 463.723145 33.604332
v -66.837898 395.485901 42.870163
v -64.957993 395.485901 41.925621
v -65.674088 388.276062 40.311222
v -64.956749 390.225647 41.923927
v -67.351501 388.574554 42.870155
v -67.968262 387.550079 41.910271
v -135.296249 387.470123 40.280094
v -133.866776 387.515228 41.910271
v -134.736984 389.408081 42.870155
v -136.197739 389.383240 41.420902
v -71.397705 383.559967 35.260464
v -72.923210 383.548553 36.780323
v -73.778305 381.656189 35.822807
v -72.316582 381.663025 34.359982
v -129.960068 381.682190 34.373573
v -128.523331 381.675903 35.822807
v -129.338425 383.538055 36.767418
v -130.853806 383.588470 35.274296
v -72.316582 376.839539 34.353168
v -73.745255 376.819916 35.822807
v -72.986336 374.859558 36.634323
v -71.583420 374.853851 35.077393
v -130.688660 374.846954 35.073414
v -129.268585 374.837524 36.654484
v -128.503082 376.841095 35.822807
v -129.960068 376.838867 34.352879
v -66.723442 369.016541 40.487534
v -68.166359 369.030609 42.039425
v -67.446213 367.027588 42.870155
v -65.989021 367.029968 41.401398
v -136.197739 367.039032 41.411621
v -134.750626 367.035492 42.870155
v -134.040939 368.972900 42.092693
v -135.478378 369.010803 40.505032
v -65.989021 236.081940 41.408340
v -67.423828 236.071884 42.870155
v -68.286179 234.183945 41.955376
v -66.866158 234.147644 40.384483
v -135.319138 234.134933 40.351700
v -133.879883 234.170532 41.939461
v -134.737747 236.091507 42.870155
v -136.197739 236.080246 41.408306
v -71.439529 229.949966 35.390198
v -72.948700 229.926987 36.890533
v -73.776764 228.006149 35.960365
v -72.316582 228.015869 34.498547
v -129.960068 228.028458 34.512611
v -128.525360 228.025879 35.960365
v -129.332886 229.914413 36.875736
v -130.830948 229.955826 35.393234
v -72.316582 224.031845 34.500965
v -73.746780 224.019241 35.960365
v -72.973328 222.069839 36.805511
v -71.512779 222.036682 35.352242
v -130.764938 222.022614 35.348896
v -129.286011 222.054047 36.821121
v -128.502213 224.040436 35.960365
v -129.960068 224.030380 34.500942
v -66.792839 216.813156 40.506489
v -68.233040 216.795593 42.009945
v -67.447060 214.809265 42.870155
v -65.989029 214.817947 41.410755
v -136.197739 214.830948 41.425873
v -134.767715 214.830551 42.870155
v -134.008560 216.780670 42.024464
v -135.400131 216.818924 40.497337
v -65.989029 68.687408 41.409317
v -67.422142 68.675766 42.870155
v -68.259117 66.764343 41.981617
v -66.841293 66.731987 40.436604
v -135.344040 66.718399 40.403954
v -133.905640 66.749954 41.965729
v -134.738510 68.696014 42.870155
v -136.197739 68.685760 41.409283
v -71.464424 62.201935 35.421844
v -72.959122 62.183468 36.910656
v -73.776031 60.237797 36.006729
v -72.316711 60.246510 34.545891
v -129.960052 60.259258 34.560307
v -128.527115 60.258301 36.006729
v -129.322891 62.170155 36.895866
v -130.806183 62.208038 35.424438
v -72.316711 55.730972 34.545891
v -73.749718 55.719307 36.006729
v -72.948456 53.807869 36.895325
v -71.464554 53.775532 35.421844
v -130.813843 53.761959 35.419258
v -129.311935 53.793514 36.911160
v -128.500824 55.739616 36.006729
v -129.960052 55.729355 34.545856
v -66.841309 49.245552 40.436600
v -68.298294 49.227085 41.966270
v -67.448578 47.281357 42.870155
v -65.989143 47.290123 41.409317
v -136.197739 47.302841 41.423733
v -134.764740 47.301865 42.870155
v -133.944382 49.213779 41.981022
v -135.351501 49.251663 40.425774
v -65.989021 0.000168 41.382515
v -67.476662 0.000168 42.870155
v -134.710114 0.000168 42.870155
v -136.197739 0.000168 41.382515
v -66.837898 463.723145 42.870163
v -64.957993 463.723145 41.925621
v 136.197739 395.485901 41.382515
v 134.710114 395.485901 42.870155
v 134.710114 463.723145 42.870155
v 136.197739 463.723145 41.382515
v 54.735565 394.433807 32.137402
v 54.795834 395.871307 33.604336
v 52.976257 395.242004 34.629616
v 52.706249 393.705505 33.181423
v 59.636257 393.655518 33.121567
v 59.502884 395.534851 34.592598
v 57.622520 395.880829 33.604332
v 57.659130 394.433807 32.140026
v 52.988564 463.723145 34.610554
v 54.836208 463.723145 33.604336
v 57.590378 463.723145 33.604332
v 59.470325 463.723145 34.548809
v 66.837898 395.485901 42.870163
v 64.957993 395.485901 41.925621
v 64.957993 463.723145 41.925621
v 66.837898 463.723145 42.870163
v 46.583454 389.756866 41.439289
v 48.585781 390.485596 39.560787
v 48.325420 391.626923 41.829960
v 46.496193 391.194366 42.870155
v 46.455769 463.723175 42.870155
v 48.303444 463.723175 41.864025
v 129.960068 381.692749 34.387325
v 130.853806 383.588470 35.274296
v 129.328354 383.550140 36.782692
v 128.523331 381.675903 35.822807
v 134.760941 389.389221 42.870155
v 133.903946 387.527069 41.925583
v 135.288589 387.463226 40.258068
v 136.197739 389.372833 41.434704
v 65.676277 388.275726 40.268944
v 67.983490 387.545410 41.949295
v 66.307137 388.905426 42.870155
v 64.962448 390.209717 41.931595
v 72.316582 381.663025 34.359982
v 73.753838 381.675507 35.822807
v 72.913498 383.536194 36.765049
v 71.397705 383.559967 35.260464
v 130.691147 374.843781 35.070847
v 129.960068 376.838867 34.352879
v 128.531464 376.819916 35.822807
v 129.268585 374.837524 36.654484
v 71.583420 374.853851 35.077393
v 73.002571 374.838013 36.654045
v 73.773720 376.841248 35.822807
v 72.316582 376.839539 34.353168
v 136.197739 367.046875 41.422077
v 135.478378 369.010803 40.505032
v 134.011200 368.984833 42.081947
v 134.750626 367.035492 42.870155
v 65.989021 367.029968 41.401398
v 67.417801 367.049713 42.870155
v 68.113358 369.008514 42.059650
v 66.723442 369.016541 40.487534
v 135.311523 234.127838 40.329830
v 136.197739 236.080246 41.408306
v 134.762985 236.071793 42.870155
v 133.879883 234.170532 41.939461
v 66.866158 234.147644 40.384483
v 68.324684 234.170853 41.939999
v 67.449211 236.091675 42.870155
v 65.989021 236.081940 41.408340
v 129.960068 228.039322 34.526703
v 130.830948 229.955826 35.393234
v 129.322388 229.927216 36.891060
v 128.525360 228.025879 35.960365
v 72.316582 228.015869 34.498547
v 73.751472 228.025879 35.960365
v 72.938263 229.913864 36.875183
v 71.439529 229.949966 35.390198
v 130.772278 222.014511 35.343319
v 129.960068 224.030380 34.500942
v 128.529938 224.019180 35.960365
v 129.286011 222.054047 36.821121
v 71.512779 222.036682 35.352242
v 72.985023 222.054367 36.820576
v 73.774612 224.040497 35.960365
v 72.316582 224.031845 34.500965
v 136.197739 214.842392 41.441013
v 135.400131 216.818924 40.497337
v 133.969574 216.795914 42.009434
v 134.767715 214.830551 42.870155
v 65.989029 214.817947 41.410755
v 67.419235 214.830551 42.870155
v 68.193634 216.780090 42.025021
v 66.792839 216.813156 40.506489
v 135.336395 66.710892 40.382122
v 136.197739 68.685760 41.409283
v 134.764740 68.675766 42.870155
v 133.905640 66.749954 41.965729
v 66.841293 66.731987 40.436604
v 68.298172 66.750534 41.966274
v 67.448448 68.696175 42.870155
v 65.989029 68.687408 41.409317
v 129.960052 60.270348 34.574757
v 130.806183 62.208038 35.424438
v 129.311935 62.183968 36.911156
v 128.527115 60.258301 36.006729
v 72.316711 60.246510 34.545891
v 73.749634 60.258160 36.006729
v 72.948250 62.169659 36.895321
v 71.464424 62.201935 35.421844
v 130.821304 53.754448 35.414043
v 129.960052 55.729355 34.545856
v 128.527115 55.719288 36.006729
v 129.311935 53.793514 36.911160
v 71.464554 53.775532 35.421844
v 72.959244 53.794060 36.910656
v 73.776115 55.739796 36.006729
v 72.316711 55.730972 34.545891
v 136.197739 47.313904 41.438183
v 135.351501 49.251663 40.425774
v 133.905624 49.227589 41.965725
v 134.764740 47.301865 42.870155
v 65.989143 47.290123 41.409317
v 67.422165 47.301785 42.870155
v 68.259247 49.213276 41.981617
v 66.841309 49.245552 40.436600
v 136.197739 0.000168 41.382515
v 134.710114 0.000168 42.870155
v 67.476662 0.000168 42.870155
v 65.989021 0.000168 41.382515
v -134.710114 395.485901 -42.870155
v -136.197739 395.485901 -41.382515
v -136.197739 463.723145 -41.382515
v -134.710114 463.723145 -42.870155
v -46.496193 391.194366 -42.870155
v -48.315773 391.600098 -41.844894
v -48.594803 390.492676 -39.528725
v -46.583454 389.756866 -41.439289
v -48.303444 463.723175 -41.864029
v -46.455769 463.723175 -42.870155
v -52.706249 393.705505 -33.181427
v -52.966591 395.253876 -34.644550
v -54.809750 395.888580 -33.604336
v -54.735565 394.433807 -32.137402
v -57.659130 394.433807 -32.140026
v -57.647308 395.849518 -33.604332
v -59.487743 395.511871 -34.572281
v -59.636257 393.655518 -33.121567
v -54.836208 463.723145 -33.604336
v -52.988564 463.723145 -34.610554
v -59.470325 463.723145 -34.548809
v -57.590378 463.723145 -33.604332
v -66.837898 395.485901 -42.870163
v -64.957993 395.485901 -41.925621
v -65.674088 388.276062 -40.311222
v -64.956749 390.225647 -41.923927
v -66.578568 389.107483 -42.870155
v -67.968262 387.550079 -41.955376
v -135.296249 387.470123 -40.280094
v -133.866776 387.515228 -41.910271
v -134.736984 389.408081 -42.870155
v -136.197739 389.383240 -41.420902
v -71.397705 383.559967 -35.260464
v -72.923210 383.548553 -36.780323
v -73.778305 381.656189 -35.822807
v -72.316582 381.663025 -34.359982
v -129.960068 381.682190 -34.373573
v -128.523331 381.675903 -35.822807
v -129.338425 383.538055 -36.767418
v -130.853806 383.588470 -35.274296
v -72.316582 376.839539 -34.353168
v -73.745255 376.819916 -35.822807
v -72.986336 374.859558 -36.634323
v -71.583420 374.853851 -35.077393
v -130.688660 374.846954 -35.073414
v -129.268585 374.837524 -36.654484
v -128.503082 376.841095 -35.822807
v -129.960068 376.838867 -34.352879
v -66.723442 369.016541 -40.487534
v -68.166359 369.030609 -42.039425
v -67.446213 367.027588 -42.870155
v -65.989021 367.029968 -41.401398
v -136.197739 367.039032 -41.411621
v -134.750626 367.035492 -42.870155
v -134.040939 368.972900 -42.092693
v -135.478378 369.010803 -40.505032
v -65.989021 236.081940 -41.408340
v -67.423828 236.071884 -42.870155
v -68.286179 234.183945 -41.955376
v -66.866158 234.147644 -40.384483
v -135.319138 234.134933 -40.351700
v -133.879883 234.170532 -41.939461
v -134.737747 236.091507 -42.870155
v -136.197739 236.080246 -41.408306
v -71.439529 229.949966 -35.390198
v -72.948700 229.926987 -36.890533
v -73.776764 228.006149 -35.960365
v -72.316582 228.015869 -34.498547
v -129.960068 228.028458 -34.512611
v -128.525360 228.025879 -35.960365
v -129.332886 229.914413 -36.875736
v -130.830948 229.955826 -35.393234
v -72.316582 224.031845 -34.500965
v -73.746780 224.019241 -35.960365
v -72.973328 222.069839 -36.805511
v -71.512779 222.036682 -35.352242
v -130.764938 222.022614 -35.348896
v -129.286011 222.054047 -36.821121
v -128.502213 224.040436 -35.960365
v -129.960068 224.030380 -34.500942
v -66.792839 216.813156 -40.506489
v -68.233040 216.795593 -42.009945
v -67.447060 214.809265 -42.870155
v -65.989029 214.817947 -41.410755
v -136.197739 214.830948 -41.425873
v -134.767715 214.830551 -42.870155
v -134.008560 216.780670 -42.024467
v -135.400131 216.818924 -40.497337
v -65.989029 68.687408 -41.409321
v -67.422142 68.675766 -42.870155
v -68.259117 66.764343 -41.981617
v -66.841293 66.731987 -40.436604
v -135.344040 66.718399 -40.403954
v -133.905640 66.749954 -41.965729
v -134.738510 68.696014 -42.870155
v -136.197739 68.685760 -41.409283
v -71.464424 62.201935 -35.421844
v -72.959122 62.183468 -36.910656
v -73.776031 60.237797 -36.006729
v -72.316711 60.246510 -34.545891
v -129.960052 60.259258 -34.560307
v -128.527115 60.258301 -36.006725
v -129.322891 62.170155 -36.895866
v -130.806183 62.208038 -35.424438
v -72.316711 55.730972 -34.545891
v -73.749718 55.719307 -36.006729
v -72.948456 53.807869 -36.895325
v -71.464554 53.775532 -35.421844
v -130.813843 53.761959 -35.419258
v -129.311935 53.793514 -36.911160
v -128.500824 55.739616 -36.006729
v -129.960052 55.729355 -34.545856
v -66.841309 49.245552 -40.436600
v -68.298294 49.227085 -41.966267
v -67.448578 47.281357 -42.870155
v -65.989143 47.290123 -41.409317
v -136.197739 47.302841 -41.423733
v -134.764740 47.301865 -42.870155
v -133.944382 49.213779 -41.981022
v -135.351501 49.251663 -40.425774
v -65.989021 0.000168 -41.382515
v -67.476662 0.000168 -42.870155
v -134.710114 0.000168 -42.870155
v -136.197739 0.000168 -41.382515
v -66.837898 463.723145 -42.870163
v -64.957993 463.723145 -41.925621
v 136.197739 395.485901 -41.382515
v 134.710114 395.485901 -42.870155
v 134.710114 463.723145 -42.870155
v 136.197739 463.723145 -41.382515
v 54.735565 394.433807 -32.137402
v 54.795834 395.871307 -33.604336
v 52.976257 395.242004 -34.629616
v 52.706249 393.705505 -33.181423
v 59.636257 393.655518 -33.121567
v 59.502884 395.534851 -34.592598
v 57.622520 395.880829 -33.604332
v 57.659130 394.433807 -32.140026
v 52.988564 463.723145 -34.610554
v 54.836208 463.723145 -33.604336
v 57.590378 463.723145 -33.604332
v 59.470325 463.723145 -34.548809
v 66.837898 395.485901 -42.870163
v 64.957993 395.485901 -41.925621
v 64.957993 463.723145 -41.925621
v 66.837898 463.723145 -42.870163
v 46.583454 389.756866 -41.439289
v 48.585781 390.485596 -39.560787
v 48.325420 391.626923 -41.829960
v 46.496193 391.194366 -42.870155
v 46.455769 463.723175 -42.870155
v 48.303444 463.723175 -41.864025
v 129.960068 381.692749 -34.387325
v 130.853806 383.588470 -35.274296
v 129.328354 383.550140 -36.782692
v 128.523331 381.675903 -35.822807
v 134.760941 389.389221 -42.870155
v 133.903946 387.527069 -41.925583
v 135.288589 387.463226 -40.258068
v 136.197739 389.372833 -41.434704
v 65.676277 388.275726 -40.268944
v 67.983490 387.545410 -41.949295
v 66.307137 388.905426 -42.870155
v 64.962448 390.209717 -41.931595
v 72.316582 381.663025 -34.359982
v 73.753838 381.675507 -35.822807
v 72.913498 383.536194 -36.765049
v 71.397705 383.559967 -35.260464
v 130.691147 374.843781 -35.070847
v 129.960068 376.838867 -34.352879
v 128.531464 376.819916 -35.822807
v 129.268585 374.837524 -36.654484
v 71.583420 374.853851 -35.077393
v 73.002571 374.838013 -36.654045
v 73.773720 376.841248 -35.822807
v 72.316582 376.839539 -34.353168
v 136.197739 367.046875 -41.422077
v 135.478378 369.010803 -40.505032
v 134.011200 368.984833 -42.081947
v 134.750626 367.035492 -42.870155
v 65.989021 367.029968 -41.401398
v 67.417801 367.049713 -42.870155
v 68.113358 369.008514 -42.059650
v 66.723442 369.016541 -40.487534
v 135.311523 234.127838 -40.329830
v 136.197739 236.080246 -41.408306
v 134.762985 236.071793 -42.870155
v 133.879883 234.170532 -41.939461
v 66.866158 234.147644 -40.384483
v 68.324684 234.170853 -41.939999
v 67.449211 236.091675 -42.870155
v 65.989021 236.081940 -41.408340
v 129.960068 228.039322 -34.526703
v 130.830948 229.955826 -35.393234
v 129.322388 229.927216 -36.891060
v 128.525360 228.025879 -35.960365
v 72.316582 228.015869 -34.498547
v 73.751472 228.025879 -35.960365
v 72.938263 229.913864 -36.875183
v 71.439529 229.949966 -35.390198
v 130.772278 222.014511 -35.343319
v 129.960068 224.030380 -34.500942
v 128.529938 224.019180 -35.960365
v 129.286011 222.054047 -36.821121
v 71.512779 222.036682 -35.352242
v 72.985023 222.054367 -36.820576
v 73.774612 224.040497 -35.960365
v 72.316582 224.031845 -34.500965
v 136.197739 214.842392 -41.441013
v 135.400131 216.818924 -40.497337
v 133.969574 216.795914 -42.009434
v 134.767715 214.830551 -42.870155
v 65.989029 214.817947 -41.410755
v 67.419235 214.830551 -42.870155
v 68.193634 216.780090 -42.025021
v 66.792839 216.813156 -40.506489
v 135.336395 66.710892 -40.382122
v 136.197739 68.685760 -41.409283
v 134.764740 68.675766 -42.870155
v 133.905640 66.749954 -41.965729
v 66.841293 66.731987 -40.436604
v 68.298172 66.750534 -41.966274
v 67.448448 68.696175 -42.870155
v 65.989029 68.687408 -41.409317
v 129.960052 60.270348 -34.574757
v 130.806183 62.208038 -35.424438
v 129.311935 62.183968 -36.911156
v 128.527115 60.258301 -36.006729
v 72.316711 60.246510 -34.545891
v 73.749634 60.258160 -36.006729
v 72.948250 62.169659 -36.895321
v 71.464424 62.201935 -35.421844
v 130.821304 53.754448 -35.414043
v 129.960052 55.729355 -34.545856
v 128.527115 55.719288 -36.006729
v 129.311935 53.793514 -36.911160
v 71.464554 53.775532 -35.421844
v 72.959244 53.794060 -36.910656
v 73.776115 55.739796 -36.006729
v 72.316711 55.730972 -34.545891
v 136.197739 47.313904 -41.438183
v 135.351501 49.251663 -40.425774
v 133.905624 49.227589 -41.965725
v 134.764740 47.301865 -42.870155
v 65.989143 47.290123 -41.409317
v 67.422165 47.301785 -42.870155
v 68.259247 49.213276 -41.981617
v 66.841309 49.245552 -40.436600
v 136.197739 0.000168 -41.382515
v 134.710114 0.000168 -42.870155
v 67.476662 0.000168 -42.870155
v 65.989021 0.000168 -41.382515
vt 0.105179 0.675175
vt 0.104737 0.677314
vt 0.098332 0.677245
vt 0.098186 0.748876
vt 0.098352 0.675003
vt 0.025917 0.676899
vt 0.025930 0.674666
vt 0.103084 0.779949
vt 0.105265 0.779803
vt 0.105382 0.880126
vt 0.103201 0.879985
vt 0.102655 0.777746
vt 0.025366 0.780051
vt 0.025377 0.777788
vt 0.104358 0.775474
vt 0.098734 0.768519
vt 0.100663 0.767403
vt 0.098034 0.766241
vt 0.025431 0.768512
vt 0.025445 0.766254
vt 0.099827 0.765809
vt 0.098045 0.763205
vt 0.099799 0.763627
vt 0.098387 0.760968
vt 0.025463 0.763300
vt 0.025477 0.761045
vt 0.098238 0.751126
vt 0.100620 0.762083
vt 0.104036 0.750984
vt 0.105906 0.752635
vt 0.025538 0.751206
vt 0.025554 0.748958
vt 0.105327 0.748235
vt 0.107341 0.747629
vt 0.106958 0.678225
vt 0.107772 0.750407
vt 0.114191 0.742373
vt 0.115427 0.744219
vt 0.108242 0.676339
vt 0.115002 0.681098
vt 0.113872 0.682948
vt 0.116416 0.741441
vt 0.116096 0.683809
vt 0.116844 0.743316
vt 0.121445 0.741401
vt 0.121100 0.743257
vt 0.116494 0.681917
vt 0.120843 0.681935
vt 0.121184 0.683850
vt 0.123673 0.742170
vt 0.123481 0.683055
vt 0.122570 0.743977
vt 0.131994 0.747094
vt 0.130955 0.749078
vt 0.122343 0.681214
vt 0.130794 0.676148
vt 0.131899 0.678134
vt 0.134228 0.747813
vt 0.134062 0.677416
vt 0.134201 0.749972
vt 0.270923 0.747666
vt 0.270944 0.749802
vt 0.134039 0.675262
vt 0.270907 0.675221
vt 0.270866 0.677377
vt 0.273087 0.746790
vt 0.273072 0.678248
vt 0.274263 0.748707
vt 0.280020 0.741972
vt 0.281157 0.743806
vt 0.274231 0.676299
vt 0.281129 0.681116
vt 0.280017 0.682945
vt 0.282263 0.741111
vt 0.282227 0.683786
vt 0.282655 0.742967
vt 0.286422 0.741146
vt 0.286026 0.742984
vt 0.282634 0.681949
vt 0.286016 0.681942
vt 0.286390 0.683807
vt 0.288657 0.741957
vt 0.288670 0.682986
vt 0.287604 0.743780
vt 0.296436 0.746878
vt 0.295380 0.748832
vt 0.287605 0.681151
vt 0.295359 0.676177
vt 0.296453 0.678087
vt 0.298676 0.747681
vt 0.298654 0.677312
vt 0.298643 0.749838
vt 0.451558 0.747702
vt 0.451571 0.749841
vt 0.840205 0.886232
vt 0.841533 0.883995
vt 0.298642 0.675175
vt 0.451582 0.675239
vt 0.474458 0.457998
vt 0.451544 0.677397
vt 0.453737 0.746844
vt 0.453763 0.678251
vt 0.454876 0.748767
vt 0.460910 0.741962
vt 0.462030 0.743796
vt 0.475803 0.460614
vt 0.454888 0.676299
vt 0.462028 0.681187
vt 0.460933 0.683012
vt 0.463168 0.741103
vt 0.463151 0.683850
vt 0.463554 0.742981
vt 0.467878 0.741112
vt 0.467503 0.742967
vt 0.463554 0.681995
vt 0.467506 0.682018
vt 0.467861 0.683896
vt 0.470092 0.741940
vt 0.470115 0.683059
vt 0.926736 0.883995
vt 0.928063 0.886232
vt 0.469016 0.743758
vt 0.477239 0.746723
vt 0.476144 0.748666
vt 0.469027 0.681230
vt 0.846898 0.877780
vt 0.475727 0.451681
vt 0.474462 0.454230
vt 0.476123 0.676398
vt 0.477260 0.678296
vt 0.479448 0.747582
vt 0.479430 0.677467
vt 0.479363 0.749723
vt 0.921370 0.877780
vt 0.528663 0.747574
vt 0.528661 0.749767
vt 0.129001 0.868230
vt 0.126675 0.867441
vt 0.479366 0.675344
vt 0.528666 0.675315
vt 0.528666 0.677508
vt 0.847815 0.875572
vt 0.126675 0.791944
vt 0.129001 0.791155
vt 0.104779 0.982863
vt 0.105214 0.984962
vt 0.098360 0.982888
vt 0.847807 0.870454
vt 0.098376 0.985132
vt 0.025924 0.985357
vt 0.139695 0.875374
vt 0.137360 0.874299
vt 0.025915 0.983124
vt 0.098378 0.911113
vt 0.920462 0.870454
vt 0.098204 0.893715
vt 0.099988 0.894150
vt 0.137360 0.785085
vt 0.139695 0.784011
vt 0.099969 0.896345
vt 0.098172 0.896748
vt 0.098893 0.891461
vt 0.920455 0.875572
vt 0.025540 0.893751
vt 0.025525 0.891495
vt 0.285955 0.873796
vt 0.283633 0.875021
vt 0.100817 0.892554
vt 0.102750 0.882211
vt 0.104491 0.884384
vt 0.847032 0.868212
vt 0.100794 0.897923
vt 0.283633 0.784363
vt 0.285955 0.785588
vt 0.107101 0.908806
vt 0.104112 0.909052
vt 0.098527 0.899039
vt 0.921237 0.868212
vt 0.098418 0.908863
vt 0.295038 0.867273
vt 0.292725 0.868218
vt 0.025573 0.898955
vt 0.025559 0.896702
vt 0.105237 0.910636
vt 0.839987 0.858003
vt 0.025650 0.911031
vt 0.025634 0.908785
vt 0.292725 0.791166
vt 0.295038 0.792112
vt 0.025464 0.882227
vt 0.025450 0.879966
vt 0.116453 0.978142
vt 0.839994 0.718713
vt 0.116067 0.976273
vt 0.121160 0.976236
vt 0.301729 0.868283
vt 0.299382 0.867329
vt 0.120810 0.978121
vt 0.113834 0.977137
vt 0.114997 0.978985
vt 0.108332 0.983790
vt 0.928275 0.718713
vt 0.106960 0.981960
vt 0.113890 0.917603
vt 0.299381 0.792055
vt 0.301730 0.791101
vt 0.116099 0.918513
vt 0.106952 0.912380
vt 0.115108 0.915770
vt 0.116536 0.916648
vt 0.120833 0.916699
vt 0.121164 0.918595
vt 0.122300 0.978840
vt 0.123432 0.976993
vt 0.131824 0.981864
vt 0.130741 0.983874
vt 0.123455 0.917807
vt 0.122321 0.915977
vt 0.130729 0.910853
vt 0.131811 0.912793
vt 0.133962 0.984748
vt 0.134000 0.982609
vt 0.270890 0.982586
vt 0.270911 0.984724
vt 0.134004 0.912096
vt 0.133999 0.909955
vt 0.270922 0.910091
vt 0.270881 0.912248
vt 0.274290 0.983633
vt 0.273077 0.981688
vt 0.279999 0.976974
vt 0.281133 0.978814
vt 0.273085 0.913139
vt 0.274234 0.911182
vt 0.928282 0.858003
vt 0.281149 0.916088
vt 0.280028 0.917915
vt 0.841238 0.716435
vt 0.282611 0.977968
vt 0.282227 0.976143
vt 0.927031 0.716435
vt 0.286412 0.976149
vt 0.286019 0.977992
vt 0.846632 0.709952
vt 0.282235 0.918764
vt 0.282646 0.916928
vt 0.921637 0.709952
vt 0.286022 0.916924
vt 0.286397 0.918787
vt 0.847571 0.703491
vt 0.287608 0.978800
vt 0.288671 0.976941
vt 0.846675 0.701193
vt 0.296430 0.981799
vt 0.295359 0.983743
vt 0.921595 0.701193
vt 0.288675 0.917961
vt 0.287605 0.916128
vt 0.920697 0.703491
vt 0.295375 0.911076
vt 0.296459 0.912992
vt 0.839904 0.691542
vt 0.298616 0.984728
vt 0.298653 0.982614
vt 0.839991 0.535681
vt 0.451564 0.982582
vt 0.451579 0.984720
vt 0.298659 0.912202
vt 0.928278 0.535681
vt 0.298648 0.910066
vt 0.451580 0.910119
vt 0.484026 0.465927
vt 0.486447 0.468508
vt 0.311798 0.875214
vt 0.309436 0.874127
vt 0.451544 0.912277
vt 0.454940 0.983650
vt 0.453763 0.981701
vt 0.460912 0.976929
vt 0.462028 0.978765
vt 0.453763 0.913148
vt 0.454874 0.911188
vt 0.462035 0.916156
vt 0.460934 0.917980
vt 0.463527 0.977946
vt 0.463151 0.976103
vt 0.467881 0.976085
vt 0.467508 0.977942
vt 0.463152 0.918823
vt 0.463556 0.916968
vt 0.467504 0.916991
vt 0.467861 0.918868
vt 0.469029 0.978747
vt 0.470116 0.976895
vt 0.477239 0.981618
vt 0.476125 0.983550
vt 0.470114 0.918025
vt 0.469020 0.916198
vt 0.476137 0.911285
vt 0.477260 0.913191
vt 0.479344 0.984589
vt 0.479430 0.982488
vt 0.528666 0.982448
vt 0.528665 0.984641
vt 0.479431 0.912345
vt 0.479367 0.910222
vt 0.528664 0.910190
vt 0.528665 0.912383
vt 0.477326 0.435335
vt 0.478487 0.436520
vt 0.484942 0.443896
vt 0.474437 0.599113
vt 0.475783 0.596497
vt 0.475705 0.605430
vt 0.474440 0.602881
vt 0.483966 0.591198
vt 0.486430 0.588606
vt 0.477299 0.621775
vt 0.478460 0.620591
vt 0.484972 0.613214
vt 0.391604 0.457986
vt 0.129001 0.791155
vt 0.129001 0.868230
vt 0.126675 0.867440
vt 0.126675 0.791944
vt 0.139695 0.784011
vt 0.139695 0.875374
vt 0.137360 0.874300
vt 0.137360 0.785085
vt 0.285955 0.785588
vt 0.285955 0.873797
vt 0.283633 0.875021
vt 0.283633 0.784363
vt 0.295038 0.792111
vt 0.295038 0.867273
vt 0.292725 0.868218
vt 0.292725 0.791166
vt 0.301729 0.791101
vt 0.301729 0.868283
vt 0.299382 0.867329
vt 0.299382 0.792055
vt 0.311798 0.784170
vt 0.311798 0.875214
vt 0.928229 0.892721
vt 0.928886 0.965900
vt 0.839382 0.965900
vt 0.840040 0.892721
vt 0.928050 0.886242
vt 0.840220 0.886242
vt 0.926759 0.884005
vt 0.841509 0.884005
vt 0.921370 0.877780
vt 0.846899 0.877780
vt 0.920440 0.875562
vt 0.847828 0.875562
vt 0.920462 0.870454
vt 0.847807 0.870454
vt 0.921239 0.868217
vt 0.847030 0.868217
vt 0.927211 0.860225
vt 0.841058 0.860225
vt 0.928271 0.857995
vt 0.839998 0.857995
vt 0.928275 0.718714
vt 0.839994 0.718713
vt 0.927053 0.716446
vt 0.841215 0.716446
vt 0.921638 0.709951
vt 0.846631 0.709951
vt 0.920705 0.707716
vt 0.390258 0.460602
vt 0.390336 0.451669
vt 0.098352 0.675003
vt 0.105179 0.675175
vt 0.104737 0.677314
vt 0.098332 0.677245
vt 0.098186 0.748876
vt 0.105327 0.748235
vt 0.025917 0.676899
vt 0.025930 0.674666
vt 0.103084 0.779949
vt 0.105265 0.779803
vt 0.105382 0.880126
vt 0.103201 0.879985
vt 0.102655 0.777746
vt 0.025366 0.780051
vt 0.025377 0.777788
vt 0.104358 0.775474
vt 0.098734 0.768519
vt 0.100663 0.767403
vt 0.098034 0.766241
vt 0.025431 0.768512
vt 0.025445 0.766254
vt 0.099827 0.765809
vt 0.098045 0.763205
vt 0.099799 0.763627
vt 0.098387 0.760968
vt 0.025463 0.763300
vt 0.025477 0.761045
vt 0.098238 0.751126
vt 0.104036 0.750984
vt 0.105906 0.752635
vt 0.100620 0.762083
vt 0.025538 0.751206
vt 0.025554 0.748958
vt 0.107341 0.747629
vt 0.106958 0.678225
vt 0.107772 0.750407
vt 0.114191 0.742373
vt 0.115427 0.744219
vt 0.108242 0.676339
vt 0.115002 0.681098
vt 0.113872 0.682948
vt 0.116416 0.741441
vt 0.116096 0.683809
vt 0.116844 0.743316
vt 0.121445 0.741401
vt 0.121100 0.743257
vt 0.116494 0.681917
vt 0.120843 0.681935
vt 0.121184 0.683850
vt 0.123673 0.742170
vt 0.123481 0.683055
vt 0.122570 0.743977
vt 0.131994 0.747094
vt 0.130955 0.749078
vt 0.122343 0.681214
vt 0.130794 0.676148
vt 0.131899 0.678134
vt 0.134228 0.747813
vt 0.134062 0.677416
vt 0.134201 0.749972
vt 0.270923 0.747666
vt 0.270944 0.749802
vt 0.134039 0.675262
vt 0.270907 0.675221
vt 0.270866 0.677377
vt 0.273087 0.746790
vt 0.273072 0.678248
vt 0.274263 0.748707
vt 0.280020 0.741972
vt 0.281157 0.743806
vt 0.274231 0.676299
vt 0.281129 0.681116
vt 0.280017 0.682945
vt 0.282263 0.741111
vt 0.282227 0.683786
vt 0.282655 0.742967
vt 0.286422 0.741146
vt 0.286026 0.742984
vt 0.282634 0.681949
vt 0.286016 0.681942
vt 0.286390 0.683807
vt 0.288657 0.741957
vt 0.288670 0.682986
vt 0.287604 0.743780
vt 0.296436 0.746878
vt 0.295380 0.748832
vt 0.287605 0.681151
vt 0.295359 0.676177
vt 0.296453 0.678087
vt 0.298676 0.747681
vt 0.298654 0.677312
vt 0.298643 0.749838
vt 0.451558 0.747702
vt 0.451571 0.749841
vt 0.298642 0.675175
vt 0.451582 0.675239
vt 0.451544 0.677397
vt 0.453737 0.746844
vt 0.453763 0.678251
vt 0.454876 0.748767
vt 0.460910 0.741962
vt 0.462030 0.743796
vt 0.454888 0.676299
vt 0.462028 0.681187
vt 0.460933 0.683012
vt 0.463168 0.741103
vt 0.463151 0.683850
vt 0.463554 0.742981
vt 0.467878 0.741112
vt 0.467503 0.742967
vt 0.463554 0.681995
vt 0.467506 0.682018
vt 0.467861 0.683896
vt 0.470092 0.741940
vt 0.470115 0.683059
vt 0.469016 0.743758
vt 0.477239 0.746723
vt 0.476144 0.748666
vt 0.469027 0.681230
vt 0.476123 0.676398
vt 0.477260 0.678296
vt 0.479448 0.747582
vt 0.479430 0.677467
vt 0.479363 0.749723
vt 0.528663 0.747574
vt 0.528661 0.749767
vt 0.479366 0.675344
vt 0.528666 0.675315
vt 0.528666 0.677508
vt 0.104779 0.982863
vt 0.105214 0.984962
vt 0.098376 0.985132
vt 0.098360 0.982888
vt 0.025924 0.985357
vt 0.025915 0.983124
vt 0.098378 0.911113
vt 0.105237 0.910636
vt 0.391601 0.454217
vt 0.382033 0.465912
vt 0.379612 0.468493
vt 0.388742 0.435322
vt 0.098204 0.893715
vt 0.099988 0.894150
vt 0.099969 0.896345
vt 0.098172 0.896748
vt 0.098893 0.891461
vt 0.025540 0.893751
vt 0.025525 0.891495
vt 0.100817 0.892554
vt 0.102750 0.882211
vt 0.104491 0.884384
vt 0.387581 0.436506
vt 0.381124 0.443881
vt 0.391583 0.599101
vt 0.100794 0.897923
vt 0.107101 0.908806
vt 0.104112 0.909052
vt 0.098527 0.899039
vt 0.098418 0.908863
vt 0.025573 0.898955
vt 0.025559 0.896702
vt 0.025650 0.911031
vt 0.025634 0.908785
vt 0.390238 0.596485
vt 0.390314 0.605418
vt 0.391579 0.602869
vt 0.382057 0.591183
vt 0.025464 0.882227
vt 0.025450 0.879966
vt 0.116453 0.978142
vt 0.116067 0.976273
vt 0.121160 0.976236
vt 0.120810 0.978121
vt 0.113834 0.977137
vt 0.114997 0.978985
vt 0.108332 0.983790
vt 0.106960 0.981960
vt 0.113890 0.917603
vt 0.116099 0.918513
vt 0.106952 0.912380
vt 0.379594 0.588590
vt 0.388715 0.621762
vt 0.115108 0.915770
vt 0.387554 0.620578
vt 0.381045 0.613199
vt 0.847564 0.707716
vt 0.116536 0.916648
vt 0.120833 0.916699
vt 0.121164 0.918595
vt 0.122300 0.978840
vt 0.123432 0.976993
vt 0.131824 0.981864
vt 0.130741 0.983874
vt 0.123455 0.917807
vt 0.309436 0.785258
vt 0.311798 0.784171
vt 0.122321 0.915977
vt 0.130729 0.910853
vt 0.131811 0.912793
vt 0.133962 0.984748
vt 0.134000 0.982609
vt 0.270890 0.982586
vt 0.270911 0.984724
vt 0.134004 0.912096
vt 0.474254 0.873774
vt 0.471926 0.874959
vt 0.133999 0.909955
vt 0.270922 0.910091
vt 0.270881 0.912248
vt 0.274290 0.983633
vt 0.273077 0.981688
vt 0.279999 0.976974
vt 0.281133 0.978814
vt 0.273085 0.913139
vt 0.471926 0.784426
vt 0.474254 0.785610
vt 0.274234 0.911182
vt 0.281149 0.916088
vt 0.280028 0.917915
vt 0.282611 0.977968
vt 0.282227 0.976143
vt 0.286412 0.976149
vt 0.286019 0.977992
vt 0.282235 0.918764
vt 0.483603 0.867156
vt 0.481291 0.868112
vt 0.282646 0.916928
vt 0.286022 0.916924
vt 0.286397 0.918787
vt 0.287608 0.978800
vt 0.288671 0.976941
vt 0.296430 0.981799
vt 0.295359 0.983743
vt 0.288675 0.917961
vt 0.481291 0.791273
vt 0.483603 0.792229
vt 0.287605 0.916128
vt 0.295375 0.911076
vt 0.296459 0.912992
vt 0.298616 0.984728
vt 0.298653 0.982614
vt 0.451564 0.982582
vt 0.451579 0.984720
vt 0.298659 0.912202
vt 0.490806 0.868082
vt 0.488496 0.867142
vt 0.298648 0.910066
vt 0.451580 0.910119
vt 0.451544 0.912277
vt 0.454940 0.983650
vt 0.453763 0.981701
vt 0.460912 0.976929
vt 0.462028 0.978765
vt 0.453763 0.913148
vt 0.488496 0.792242
vt 0.490806 0.791303
vt 0.454874 0.911188
vt 0.462035 0.916156
vt 0.460934 0.917980
vt 0.463527 0.977946
vt 0.463151 0.976103
vt 0.467881 0.976085
vt 0.467508 0.977942
vt 0.463152 0.918823
vt 0.500145 0.874758
vt 0.497826 0.873628
vt 0.463556 0.916968
vt 0.467504 0.916991
vt 0.467861 0.918868
vt 0.469029 0.978747
vt 0.470116 0.976895
vt 0.477239 0.981618
vt 0.476125 0.983550
vt 0.470114 0.918025
vt 0.497826 0.785757
vt 0.500145 0.784627
vt 0.469020 0.916198
vt 0.476137 0.911285
vt 0.477260 0.913191
vt 0.479344 0.984589
vt 0.479430 0.982488
vt 0.528666 0.982448
vt 0.528665 0.984641
vt 0.479431 0.912345
vt 0.121372 0.867457
vt 0.121372 0.791928
vt 0.479367 0.910222
vt 0.528664 0.910190
vt 0.528665 0.912383
vt 0.551957 0.784050
vt 0.551957 0.875335
vt 0.928365 0.691542
vt 0.841197 0.533387
vt 0.927072 0.533387
vt 0.846690 0.526606
vt 0.921579 0.526607
vt 0.847728 0.519571
vt 0.846850 0.517299
vt 0.921419 0.517299
vt 0.920540 0.519571
vt 0.840040 0.892722
vt 0.928229 0.892722
vt 0.928886 0.965901
vt 0.839383 0.965901
vt 0.841058 0.860225
vt 0.927211 0.860225
vt 0.847548 0.707728
vt 0.920720 0.707728
vt 0.841011 0.693813
vt 0.927258 0.693812
vt 0.847622 0.524369
vt 0.920646 0.524369
vt 0.841508 0.510563
vt 0.926761 0.510563
vt 0.840369 0.508330
vt 0.927900 0.508330
vt 0.839803 0.457980
vt 0.928465 0.457980
vt 0.920698 0.703491
vt 0.847571 0.703491
vt 0.921600 0.701204
vt 0.846669 0.701204
vt 0.927258 0.693812
vt 0.841011 0.693812
vt 0.928348 0.691530
vt 0.839920 0.691530
vt 0.928278 0.535681
vt 0.309436 0.874127
vt 0.309436 0.785257
vt 0.474254 0.785610
vt 0.474254 0.873774
vt 0.471926 0.874958
vt 0.471926 0.784426
vt 0.483603 0.792229
vt 0.483603 0.867156
vt 0.481291 0.868112
vt 0.481291 0.791273
vt 0.490806 0.791303
vt 0.490806 0.868082
vt 0.488496 0.867142
vt 0.488496 0.792242
vt 0.500145 0.784627
vt 0.500145 0.874758
vt 0.497826 0.873628
vt 0.497826 0.785757
vt 0.121372 0.867457
vt 0.121373 0.791928
vt 0.551957 0.784050
vt 0.551957 0.875335
vt 0.839991 0.535681
vt 0.927095 0.533397
vt 0.841174 0.533397
vt 0.921579 0.526606
vt 0.846690 0.526606
vt 0.920631 0.524358
vt 0.847638 0.524358
vt 0.920540 0.519571
vt 0.847729 0.519571
vt 0.921425 0.517310
vt 0.846844 0.517310
vt 0.926761 0.510562
vt 0.841508 0.510562
vt 0.927884 0.508319
vt 0.840384 0.508319
vt 0.839803 0.457981
vt 0.928466 0.457981
vn -0.999845 0.000007 0.017628
vn -0.996155 -0.085535 0.018973
vn -0.022987 -0.095480 0.995166
vn -0.021305 0.000009 0.999773
vn 0.013569 -0.000049 0.999908
vn 0.009788 -0.092747 0.995642
vn -0.021443 0.000000 0.999770
vn -0.999844 0.000000 0.017654
vn -0.009574 -0.019955 0.999755
vn -0.004468 -0.999849 0.016769
vn 0.004461 -0.999849 0.016772
vn 0.009572 -0.019956 0.999755
vn -0.764033 -0.014954 0.645004
vn -0.010679 0.000001 0.999943
vn -0.783750 0.000012 0.621076
vn -0.485944 -0.873708 0.022195
vn -0.806492 -0.013715 0.591085
vn -0.587427 -0.809200 0.011197
vn -0.238464 -0.020923 0.970926
vn -0.786316 0.000009 0.617824
vn -0.215765 0.000020 0.976445
vn -0.171487 -0.985020 0.018094
vn 0.216976 -0.021925 0.975931
vn 0.183587 -0.982813 0.019340
vn 0.761337 -0.018835 0.648082
vn 0.201373 -0.000042 0.979515
vn 0.750080 -0.000018 0.661347
vn 0.745436 -0.000308 0.666577
vn 0.750369 -0.240088 0.615876
vn 0.654622 -0.755675 0.020649
vn 0.645168 -0.763950 0.011814
vn 0.748628 0.000000 0.662991
vn 0.013540 0.000000 0.999908
vn 0.027051 -0.723445 0.689852
vn -0.022758 -0.718932 0.694707
vn 0.017486 -0.759014 0.650839
vn 0.450906 -0.817343 0.358657
vn -0.781755 -0.623320 0.018193
vn -0.695892 -0.718063 0.010949
vn -0.013714 -0.756372 0.653998
vn 0.024161 -0.166457 0.985753
vn -0.024418 -0.166632 0.985717
vn 0.698159 -0.190386 0.690165
vn 0.024593 0.140592 0.989762
vn 0.708311 0.155917 0.688466
vn -0.987411 -0.157036 0.018933
vn -0.992219 0.123026 0.019150
vn -0.024474 0.139610 0.989904
vn 0.016380 0.653763 0.756522
vn -0.016542 0.653591 0.756667
vn 0.507797 0.725881 0.463938
vn 0.023700 0.595031 0.803353
vn 0.501331 0.733033 0.459707
vn -0.795021 0.606468 0.011744
vn -0.840077 0.542086 0.020326
vn -0.023058 0.594656 0.803649
vn 0.021392 0.004930 0.999759
vn -0.021325 0.004898 0.999761
vn 0.711916 0.009031 0.702206
vn 0.021333 -0.005358 0.999758
vn 0.711775 0.000079 0.702407
vn -0.999842 0.004122 0.017299
vn -0.999839 -0.004814 0.017268
vn -0.021383 -0.005393 0.999757
vn 0.021111 -0.654256 0.755978
vn -0.021199 -0.655231 0.755131
vn 0.430067 -0.802978 0.412637
vn 0.014154 -0.732913 0.680175
vn 0.435176 -0.794690 0.423190
vn -0.792731 -0.609292 0.018472
vn -0.716122 -0.697885 0.011212
vn -0.014266 -0.732586 0.680525
vn 0.023893 -0.180839 0.983222
vn -0.024042 -0.181666 0.983066
vn 0.710833 0.002889 0.703355
vn 0.024087 0.165559 0.985906
vn 0.710833 0.002889 0.703355
vn -0.985033 -0.171360 0.018603
vn -0.987744 0.154969 0.018618
vn -0.023926 0.164471 0.986092
vn 0.014958 0.673462 0.739070
vn -0.015076 0.673401 0.739124
vn 0.474616 0.748600 0.462966
vn 0.022248 0.608912 0.792926
vn 0.472010 0.751943 0.460205
vn -0.771917 0.635614 0.011830
vn -0.824804 0.565086 0.019413
vn -0.022011 0.608959 0.792897
vn 0.021342 0.004587 0.999762
vn -0.021192 0.004600 0.999765
vn 0.710638 0.000057 0.703558
vn 0.021233 -0.004712 0.999763
vn 0.710638 0.000057 0.703558
vn -0.999844 0.004080 0.017196
vn -0.999844 -0.004271 0.017154
vn -0.021252 -0.004745 0.999763
vn 0.021544 -0.636314 0.771129
vn -0.021630 -0.637233 0.770368
vn 0.445199 -0.785525 0.429825
vn 0.014444 -0.710603 0.703445
vn 0.449177 -0.778309 0.438721
vn -0.803927 -0.594431 0.018786
vn -0.736174 -0.676696 0.011436
vn -0.014561 -0.710274 0.703775
vn 0.024069 -0.161733 0.986541
vn -0.024193 -0.162400 0.986428
vn 0.710659 0.002070 0.703534
vn 0.024234 0.162578 0.986398
vn 0.710659 0.002070 0.703534
vn -0.988010 -0.153247 0.018756
vn -0.987941 0.153692 0.018750
vn -0.024084 0.161574 0.986567
vn 0.014465 0.710479 0.703569
vn -0.014576 0.710408 0.703639
vn 0.449165 0.778760 0.437933
vn 0.021670 0.636764 0.770755
vn 0.445478 0.783242 0.433684
vn -0.736411 0.676437 0.011491
vn -0.803407 0.595134 0.018771
vn -0.021447 0.636856 0.770684
vn 0.021716 0.014274 0.999662
vn -0.021577 0.014334 0.999664
vn 0.707276 -0.000410 0.706938
vn 0.021423 -0.000012 0.999771
vn 0.707276 -0.000410 0.706938
vn -0.999765 0.012796 0.017530
vn -0.999850 -0.000017 0.017309
vn -0.021317 -0.000022 0.999773
vn 0.022779 -0.094156 0.995297
vn 0.996172 -0.085352 0.018856
vn 0.999845 0.000012 0.017614
vn 0.021324 0.000014 0.999773
vn 0.999844 0.000000 0.017654
vn 0.021443 0.000000 0.999770
vn -0.013358 0.000046 0.999911
vn -0.007066 -0.066129 0.997786
vn 0.171471 -0.985024 0.018019
vn 0.587499 -0.809148 0.011116
vn 0.587499 -0.809148 -0.011116
vn 0.171471 -0.985024 -0.018019
vn 0.239264 -0.021125 0.970725
vn -0.183678 -0.982791 0.019585
vn -0.217021 -0.021708 0.975926
vn 0.806624 -0.013700 0.590907
vn 0.215042 -0.000029 0.976605
vn 0.786586 -0.000013 0.617480
vn 0.763994 -0.014880 0.645051
vn 0.485502 -0.873952 0.022275
vn -0.645089 -0.764014 0.011965
vn -0.183678 -0.982791 -0.019585
vn -0.645089 -0.764014 -0.011966
vn -0.654654 -0.755666 0.019942
vn -0.786379 -0.231145 0.572870
vn -0.761002 -0.018977 0.648472
vn -0.747127 0.000320 0.664682
vn -0.749515 0.000013 0.661987
vn -0.202826 0.000031 0.979215
vn -0.013540 0.000000 0.999908
vn -0.748556 0.000000 0.663072
vn 0.004461 -0.999849 -0.016772
vn 0.485502 -0.873952 -0.022275
vn 0.783793 0.000001 0.621022
vn 0.010755 0.000000 0.999942
vn 0.987402 -0.157098 0.018914
vn 0.024309 -0.165864 0.985849
vn 0.024552 0.140785 0.989736
vn 0.992238 0.122897 0.018973
vn 0.013798 -0.757864 0.652267
vn 0.695713 -0.718236 0.010971
vn 0.780881 -0.624419 0.018050
vn 0.021888 -0.700557 0.713261
vn -0.017580 -0.760605 0.648977
vn -0.024287 -0.167333 0.985601
vn -0.024785 -0.693086 0.720428
vn -0.670628 -0.741720 0.010415
vn -0.986658 -0.161691 0.019034
vn -0.670628 -0.741720 -0.010415
vn -0.986658 -0.161691 -0.019034
vn -0.992034 0.124498 0.019224
vn -0.024418 0.140890 0.989724
vn 0.795040 0.606443 0.011754
vn 0.016537 0.653349 0.756876
vn 0.023158 0.595245 0.803211
vn 0.839823 0.542478 0.020379
vn -0.016354 0.653848 0.756450
vn -0.790957 0.611763 0.011525
vn -0.992034 0.124498 -0.019224
vn -0.790957 0.611763 -0.011525
vn -0.837021 0.546819 0.019606
vn -0.023656 0.595376 0.803099
vn 0.999845 0.004111 0.017117
vn 0.021297 0.004838 0.999762
vn 0.021198 -0.005387 0.999761
vn 0.999840 -0.004827 0.017216
vn -0.021257 0.004911 0.999762
vn -0.999842 0.004202 0.017307
vn -0.837021 0.546819 -0.019606
vn -0.999842 0.004202 -0.017307
vn -0.999841 -0.004849 0.017172
vn -0.021438 -0.005402 0.999756
vn 0.792596 -0.609469 0.018424
vn 0.021087 -0.654692 0.755601
vn 0.014237 -0.732725 0.680376
vn 0.715945 -0.698066 0.011283
vn -0.021194 -0.654801 0.755504
vn -0.788541 -0.614706 0.018417
vn -0.999841 -0.004849 -0.017172
vn -0.788541 -0.614706 -0.018418
vn -0.711360 -0.702739 0.011191
vn -0.014194 -0.733053 0.680023
vn 0.985014 -0.171467 0.018625
vn 0.023929 -0.180809 0.983227
vn 0.024068 0.165474 0.985920
vn 0.987687 0.155351 0.018447
vn -0.024054 -0.181895 0.983024
vn -0.984826 -0.172547 0.018583
vn -0.711360 -0.702739 -0.011191
vn -0.984826 -0.172547 -0.018583
vn -0.987604 0.155847 0.018690
vn -0.023849 0.165474 0.985926
vn 0.771987 0.635527 0.011849
vn 0.015109 0.673128 0.739372
vn 0.022095 0.609644 0.792368
vn 0.824431 0.565627 0.019494
vn -0.014962 0.673555 0.738986
vn -0.767427 0.641027 0.011822
vn -0.987604 0.155847 -0.018690
vn -0.767427 0.641027 -0.011822
vn -0.821436 0.569974 0.019294
vn -0.022186 0.609282 0.792643
vn 0.999847 0.004061 0.016990
vn 0.021153 0.004559 0.999766
vn 0.021031 -0.004740 0.999768
vn 0.999845 -0.004284 0.017097
vn -0.021213 0.004579 0.999765
vn -0.999842 0.004147 0.017263
vn -0.821436 0.569974 -0.019294
vn -0.999842 0.004147 -0.017263
vn -0.999843 -0.004301 0.017166
vn -0.021343 -0.004753 0.999761
vn 0.803808 -0.594593 0.018748
vn 0.021514 -0.636702 0.770810
vn 0.014533 -0.710416 0.703632
vn 0.736010 -0.676873 0.011511
vn -0.021632 -0.636845 0.770688
vn -0.799861 -0.599893 0.018725
vn -0.999843 -0.004301 -0.017166
vn -0.799861 -0.599893 -0.018725
vn -0.731579 -0.681661 0.011417
vn -0.014484 -0.710739 0.703307
vn 0.987999 -0.153315 0.018766
vn 0.024088 -0.161641 0.986556
vn 0.024185 0.162526 0.986408
vn 0.987884 0.154074 0.018593
vn -0.024207 -0.162601 0.986395
vn -0.987834 -0.154376 0.018739
vn -0.731579 -0.681661 -0.011417
vn -0.987834 -0.154376 -0.018739
vn -0.987829 0.154400 0.018819
vn -0.024026 0.162564 0.986406
vn 0.736491 0.676349 0.011502
vn 0.014611 0.710130 0.703919
vn 0.021514 0.637572 0.770090
vn 0.802970 0.595722 0.018855
vn -0.014465 0.710571 0.703477
vn -0.731561 0.681679 0.011476
vn -0.987829 0.154400 -0.018819
vn -0.731561 0.681679 -0.011476
vn -0.799765 0.600023 0.018654
vn -0.021620 0.637127 0.770456
vn 0.999766 0.012736 0.017493
vn 0.021546 0.014203 0.999667
vn 0.021206 -0.000025 0.999775
vn 0.999850 -0.000020 0.017300
vn -0.021602 0.014261 0.999665
vn -0.999761 0.013000 0.017583
vn -0.799765 0.600023 -0.018654
vn -0.999761 0.013000 -0.017583
vn -0.999850 -0.000012 0.017319
vn -0.021410 -0.000018 0.999771
vn -0.654654 -0.755666 -0.019942
vn -0.999850 -0.000012 -0.017319
vn 0.599891 -0.561895 0.569566
vn 0.595989 -0.543130 0.591445
vn 0.613973 0.506026 0.605785
vn 0.611940 0.511626 0.603132
vn 0.606921 -0.544016 0.579390
vn 0.601590 -0.530063 0.597597
vn 0.603301 0.529930 0.595989
vn 0.598232 0.544007 0.588366
vn -0.621116 -0.713865 0.323439
vn 0.780881 -0.624419 -0.018050
vn 0.996172 -0.085352 -0.018856
vn 0.695713 -0.718236 -0.010971
vn 0.992238 0.122897 -0.018973
vn 0.987402 -0.157098 -0.018914
vn 0.795040 0.606443 -0.011754
vn 0.999840 -0.004827 -0.017216
vn 0.999845 0.004111 -0.017117
vn 0.792596 -0.609469 -0.018424
vn 0.715945 -0.698066 -0.011283
vn 0.771987 0.635527 -0.011849
vn 0.987687 0.155351 -0.018447
vn 0.999845 -0.004284 -0.017097
vn 0.999847 0.004061 -0.016990
vn 0.803808 -0.594593 -0.018748
vn 0.736010 -0.676873 -0.011511
vn 0.736491 0.676349 -0.011502
vn 0.987884 0.154074 -0.018593
vn -0.004468 -0.999849 -0.016769
vn -0.999844 0.000000 -0.017654
vn -0.999845 0.000007 -0.017628
vn -0.996155 -0.085535 -0.018973
vn -0.781755 -0.623320 -0.018193
vn -0.695892 -0.718063 -0.010949
vn -0.987411 -0.157036 -0.018933
vn -0.992219 0.123026 -0.019150
vn -0.795021 0.606468 -0.011745
vn -0.840077 0.542086 -0.020326
vn -0.999842 0.004122 -0.017299
vn -0.999839 -0.004814 -0.017268
vn -0.792731 -0.609292 -0.018472
vn -0.716122 -0.697885 -0.011212
vn -0.985033 -0.171360 -0.018603
vn -0.987744 0.154969 -0.018618
vn -0.771917 0.635614 -0.011830
vn -0.824804 0.565086 -0.019413
vn -0.999844 0.004080 -0.017196
vn -0.999844 -0.004271 -0.017154
vn -0.803927 -0.594431 -0.018786
vn -0.736174 -0.676696 -0.011436
vn -0.988010 -0.153248 -0.018756
vn -0.987941 0.153692 -0.018750
vn -0.736411 0.676437 -0.011491
vn -0.803407 0.595134 -0.018771
vn -0.999765 0.012796 -0.017530
vn -0.999850 -0.000017 -0.017309
vn -0.021370 0.000009 -0.999772
vn -0.022838 -0.095064 -0.995209
vn 0.013416 0.000023 -0.999910
vn 0.012505 -0.080605 -0.996668
vn -0.021443 0.000000 -0.999770
vn -0.009574 -0.019955 -0.999755
vn 0.009572 -0.019956 -0.999755
vn -0.764033 -0.014954 -0.645004
vn -0.783750 0.000012 -0.621076
vn -0.010679 0.000001 -0.999943
vn -0.485944 -0.873708 -0.022195
vn -0.587427 -0.809200 -0.011197
vn -0.806492 -0.013715 -0.591086
vn -0.238463 -0.020923 -0.970926
vn -0.215765 0.000020 -0.976445
vn -0.786316 0.000009 -0.617824
vn -0.171487 -0.985020 -0.018094
vn 0.183587 -0.982813 -0.019340
vn 0.216976 -0.021925 -0.975931
vn 0.761337 -0.018835 -0.648082
vn 0.750080 -0.000018 -0.661347
vn 0.201373 -0.000042 -0.979515
vn 0.779284 -0.238579 -0.579480
vn 0.746885 0.000154 -0.664954
vn 0.645168 -0.763950 -0.011814
vn 0.659164 -0.751879 -0.013460
vn 0.013540 0.000000 -0.999908
vn 0.748628 0.000000 -0.662991
vn 0.022968 -0.684237 -0.728898
vn -0.021357 -0.690095 -0.723404
vn 0.414316 -0.859303 -0.299901
vn 0.451874 -0.817928 -0.356095
vn 0.017463 -0.760337 -0.649293
vn -0.013874 -0.757617 -0.652552
vn 0.024161 -0.166455 -0.985753
vn -0.024418 -0.166630 -0.985717
vn 0.698158 -0.190385 -0.690166
vn 0.708310 0.155916 -0.688467
vn 0.024593 0.140593 -0.989762
vn -0.024474 0.139611 -0.989904
vn 0.016380 0.653764 -0.756521
vn -0.016542 0.653592 -0.756666
vn 0.507797 0.725881 -0.463939
vn 0.501331 0.733032 -0.459707
vn 0.023700 0.595032 -0.803353
vn -0.023058 0.594657 -0.803649
vn 0.021392 0.004931 -0.999759
vn -0.021325 0.004898 -0.999761
vn 0.711917 0.009031 -0.702206
vn 0.711776 0.000079 -0.702407
vn 0.021333 -0.005358 -0.999758
vn -0.021383 -0.005393 -0.999757
vn 0.021111 -0.654257 -0.755978
vn -0.021199 -0.655232 -0.755131
vn 0.430067 -0.802978 -0.412636
vn 0.435176 -0.794690 -0.423190
vn 0.014154 -0.732914 -0.680174
vn -0.014266 -0.732586 -0.680525
vn 0.023893 -0.180839 -0.983222
vn -0.024042 -0.181666 -0.983066
vn 0.710833 0.002889 -0.703355
vn 0.710833 0.002889 -0.703355
vn 0.024087 0.165559 -0.985906
vn -0.023926 0.164471 -0.986092
vn 0.014958 0.673463 -0.739070
vn -0.015076 0.673401 -0.739123
vn 0.474615 0.748599 -0.462969
vn 0.472009 0.751942 -0.460207
vn 0.022248 0.608912 -0.792926
vn -0.022011 0.608958 -0.792897
vn 0.021342 0.004587 -0.999762
vn -0.021192 0.004600 -0.999765
vn 0.710637 0.000057 -0.703559
vn 0.710637 0.000057 -0.703559
vn 0.021233 -0.004712 -0.999763
vn -0.021252 -0.004745 -0.999763
vn 0.021544 -0.636313 -0.771130
vn -0.021630 -0.637232 -0.770368
vn 0.445199 -0.785525 -0.429824
vn 0.449177 -0.778308 -0.438721
vn 0.014444 -0.710602 -0.703446
vn -0.014561 -0.710274 -0.703775
vn 0.024069 -0.161733 -0.986541
vn -0.024193 -0.162400 -0.986428
vn 0.710659 0.002070 -0.703534
vn 0.710659 0.002070 -0.703534
vn 0.024234 0.162579 -0.986398
vn -0.024084 0.161575 -0.986567
vn 0.014465 0.710479 -0.703570
vn -0.014576 0.710408 -0.703640
vn 0.449164 0.778760 -0.437932
vn 0.445477 0.783243 -0.433683
vn 0.021670 0.636764 -0.770754
vn -0.021447 0.636857 -0.770684
vn 0.021716 0.014274 -0.999662
vn -0.021577 0.014334 -0.999664
vn 0.707276 -0.000409 -0.706937
vn 0.707276 -0.000409 -0.706937
vn 0.021423 -0.000012 -0.999771
vn -0.021317 -0.000022 -0.999773
vn 0.022779 -0.094156 -0.995297
vn 0.021324 0.000014 -0.999773
vn 0.999845 0.000012 -0.017614
vn 0.021443 0.000000 -0.999770
vn 0.999844 0.000000 -0.017654
vn -0.012533 -0.072219 -0.997310
vn -0.013358 0.000046 -0.999911
vn 0.239264 -0.021125 -0.970725
vn -0.217021 -0.021708 -0.975925
vn 0.806624 -0.013700 -0.590907
vn 0.786587 -0.000013 -0.617480
vn 0.215042 -0.000029 -0.976605
vn 0.763994 -0.014880 -0.645051
vn -0.761002 -0.018977 -0.648472
vn -0.786380 -0.231145 -0.572869
vn -0.747127 0.000320 -0.664682
vn -0.202827 0.000031 -0.979215
vn -0.749515 0.000013 -0.661987
vn -0.748556 0.000000 -0.663072
vn -0.013540 0.000000 -0.999908
vn 0.010755 0.000000 -0.999942
vn 0.783793 0.000001 -0.621022
vn 0.024552 0.140785 -0.989736
vn 0.024309 -0.165864 -0.985849
vn 0.013798 -0.757865 -0.652265
vn 0.021888 -0.700557 -0.713261
vn -0.024288 -0.167333 -0.985601
vn -0.017580 -0.760606 -0.648976
vn -0.024785 -0.693087 -0.720428
vn -0.024418 0.140890 -0.989724
vn 0.839823 0.542478 -0.020379
vn 0.023158 0.595244 -0.803211
vn 0.016537 0.653349 -0.756876
vn -0.016354 0.653847 -0.756450
vn -0.023656 0.595376 -0.803099
vn 0.021198 -0.005387 -0.999761
vn 0.021296 0.004837 -0.999762
vn -0.021257 0.004911 -0.999762
vn -0.021438 -0.005402 -0.999756
vn 0.014237 -0.732725 -0.680376
vn 0.021086 -0.654692 -0.755601
vn -0.021194 -0.654801 -0.755504
vn -0.014194 -0.733053 -0.680024
vn 0.985014 -0.171467 -0.018625
vn 0.024068 0.165475 -0.985920
vn 0.023929 -0.180809 -0.983227
vn -0.024054 -0.181895 -0.983024
vn -0.023849 0.165474 -0.985926
vn 0.824431 0.565627 -0.019494
vn 0.022095 0.609644 -0.792368
vn 0.015109 0.673127 -0.739372
vn -0.014962 0.673554 -0.738986
vn -0.022186 0.609282 -0.792643
vn 0.021031 -0.004740 -0.999768
vn 0.021153 0.004559 -0.999766
vn -0.021213 0.004579 -0.999765
vn -0.021343 -0.004753 -0.999761
vn 0.014533 -0.710416 -0.703632
vn 0.021514 -0.636702 -0.770810
vn -0.021632 -0.636845 -0.770688
vn -0.014484 -0.710739 -0.703307
vn 0.987999 -0.153315 -0.018766
vn 0.024185 0.162526 -0.986408
vn 0.024088 -0.161640 -0.986556
vn -0.024207 -0.162601 -0.986395
vn -0.024026 0.162564 -0.986405
vn 0.802970 0.595722 -0.018855
vn 0.021514 0.637572 -0.770090
vn 0.014611 0.710130 -0.703919
vn -0.014466 0.710570 -0.703477
vn -0.021620 0.637127 -0.770455
vn 0.999766 0.012736 -0.017493
vn 0.999850 -0.000020 -0.017300
vn 0.021206 -0.000025 -0.999775
vn 0.021546 0.014203 -0.999667
vn -0.021602 0.014261 -0.999665
vn -0.021410 -0.000018 -0.999771
vn 0.599890 -0.561894 -0.569568
vn 0.595987 -0.543128 -0.591449
vn 0.613973 0.506026 -0.605785
vn 0.611941 0.511628 -0.603129
vn 0.606921 -0.544016 -0.579390
vn 0.601590 -0.530061 -0.597599
vn 0.603301 0.529930 -0.595988
vn 0.598231 0.544009 -0.588365
vn 0.987169 -0.159678 0.000000
vn 0.987169 -0.159678 0.000000
vn 0.675225 -0.737612 0.000000
vn 0.675225 -0.737612 0.000000
vn 0.795073 0.606513 0.000000
vn 0.795073 0.606513 0.000000
vn 0.992456 0.122603 0.000000
vn 0.992456 0.122603 0.000000
vn 0.999992 0.004063 0.000000
vn 0.999992 0.004063 0.000000
vn 0.845429 0.534088 0.000000
vn 0.845429 0.534088 0.000000
vn 0.798921 -0.601436 0.000000
vn 0.798921 -0.601436 0.000000
vn 0.999989 -0.004676 0.000000
vn 0.999989 -0.004676 0.000000
vn 0.985389 -0.170319 0.000000
vn 0.985389 -0.170319 0.000000
vn 0.716340 -0.697752 0.000000
vn 0.716340 -0.697752 0.000000
vn 0.771972 0.635657 0.000000
vn 0.771972 0.635657 0.000000
vn 0.988119 0.153692 0.000000
vn 0.988119 0.153692 0.000000
vn 0.999992 0.004022 0.000000
vn 0.999992 0.004022 0.000000
vn 0.830248 0.557395 0.000000
vn 0.830248 0.557395 0.000000
vn 0.809551 -0.587049 0.000000
vn 0.809551 -0.587049 0.000000
vn 0.999991 -0.004154 0.000000
vn 0.999991 -0.004154 0.000000
vn 0.988323 -0.152371 0.000000
vn 0.988323 -0.152371 0.000000
vn 0.736400 -0.676546 0.000000
vn 0.736400 -0.676546 0.000000
vn 0.736393 0.676554 0.000000
vn 0.736393 0.676554 0.000000
vn 0.988327 0.152348 0.000000
vn 0.988327 0.152348 0.000000
vn 0.999921 0.012593 0.000000
vn 0.999921 0.012593 0.000000
vn 0.809556 0.587043 0.000000
vn 0.809556 0.587043 0.000000
vn 1.000000 0.000003 0.000000
vn 1.000000 0.000003 0.000000
vn 0.536052 -0.728680 -0.426232
s 1
g Arch_low S_U_15_Low
usemtl BusStop_HighLow_aiStandardSurface1SG
f 2/5/1 32/1/2 31/2/3 1/3/4
f 23/4/5 1/3/4 31/2/3 27/33/6
f 2/5/1 1/3/4 4/6/7 3/7/8
f 5/8/9 8/9/10 147/10/11 150/11/12
f 6/12/13 5/8/9 10/13/14 9/14/15
f 7/15/16 6/12/13 12/16/17 11/17/18
f 13/18/19 12/16/17 20/19/20 19/20/21
f 14/21/22 13/18/19 16/22/23 15/23/24
f 17/24/25 16/22/23 22/25/26 21/26/27
f 17/24/25 24/27/28 26/29/29
f 17/24/25 26/29/29 25/30/30 18/28/31
f 23/4/5 24/27/28 126/31/32 125/32/33
f 23/4/5 27/33/6 26/29/29 24/27/28
f 28/34/34 27/33/6 31/2/3 30/35/35
f 25/36/30 28/34/34 34/37/36 33/38/37
f 30/35/35 29/39/38 40/40/39 39/41/40
f 35/42/41 34/37/36 39/41/40 38/43/42
f 36/44/43 35/42/41 42/45/44 41/46/45
f 38/43/42 37/47/46 48/48/47 47/49/48
f 43/50/49 42/45/44 47/49/48 46/51/50
f 44/52/51 43/50/49 50/53/52 49/54/53
f 46/51/50 45/55/54 56/56/55 55/57/56
f 51/58/57 50/53/52 55/57/56 54/59/58
f 52/60/59 51/58/57 58/61/60 57/62/61
f 54/59/58 53/63/62 64/64/63 63/65/64
f 59/66/65 58/61/60 63/65/64 62/67/66
f 60/68/67 59/66/65 66/69/68 65/70/69
f 62/67/66 61/71/70 72/72/71 71/73/72
f 67/74/73 66/69/68 71/73/72 70/75/74
f 68/76/75 67/74/73 74/77/76 73/78/77
f 70/75/74 69/79/78 80/80/79 79/81/80
f 75/82/81 74/77/76 79/81/80 78/83/82
f 76/84/83 75/82/81 82/85/84 81/86/85
f 78/83/82 77/87/86 88/88/87 87/89/88
f 83/90/89 82/85/84 87/89/88 86/91/90
f 84/92/91 83/90/89 90/93/92 89/94/93
f 86/91/90 85/97/94 96/98/95 95/100/96
f 91/101/97 90/93/92 95/100/96 94/102/98
f 92/103/99 91/101/97 98/104/100 97/105/101
f 94/102/98 93/107/102 104/108/103 103/109/104
f 99/110/105 98/104/100 103/109/104 102/111/106
f 100/112/107 99/110/105 106/113/108 105/114/109
f 102/111/106 101/115/110 112/116/111 111/117/112
f 107/118/113 106/113/108 111/117/112 110/119/114
f 108/122/115 107/118/113 114/123/116 113/124/117
f 110/119/114 109/125/118 120/129/119 119/130/120
f 115/131/121 114/123/116 119/130/120 118/132/122
f 116/133/123 115/131/121 122/135/124 121/136/125
f 118/132/122 117/139/126 124/140/127 123/141/128
f 157/145/129 160/146/130 127/149/131 128/147/132
f 128/147/132 127/149/131 130/150/133 129/153/134
f 157/145/129 128/147/132 143/154/135 163/184/136
f 131/99/137 134/106/138 386/371/139 383/321/140
f 132/156/141 131/157/137 138/160/142 137/161/143
f 133/162/144 132/156/141 140/164/145 139/165/146
f 134/168/138 133/162/144 149/169/147 148/170/148
f 135/127/149 138/128/142 390/510/150 387/372/151
f 135/172/149 161/175/152 164/176/153 136/177/154
f 144/179/155 136/177/154 164/176/153
f 137/161/143 136/177/154 142/182/156 141/183/157
f 144/179/155 164/176/153 163/184/136 143/154/135
f 144/179/155 143/154/135 146/186/158 145/187/159
f 148/272/148 147/273/11 399/512/160 400/511/161
f 150/11/12 149/169/147 152/190/162 151/191/163
f 153/192/164 156/194/165 171/195/166 170/198/167
f 155/199/168 154/200/169 159/201/170 158/203/171
f 156/194/165 155/199/168 167/204/172 166/207/173
f 158/203/171 157/145/129 163/184/136 162/208/174
f 162/208/174 161/175/152 168/209/175 167/204/172
f 165/309/176 168/310/175 420/524/177 417/513/178
f 166/207/173 165/210/176 176/211/179 175/212/180
f 169/213/181 172/214/182 179/215/183 178/216/184
f 172/214/182 171/195/166 175/212/180 174/217/185
f 173/137/186 176/138/179 428/143/187 425/144/188
f 174/217/185 173/218/186 184/219/189 183/220/190
f 177/221/191 180/222/192 187/223/193 186/224/194
f 180/222/192 179/215/183 183/220/190 182/225/195
f 181/151/196 184/152/189 436/158/197 433/159/198
f 182/225/195 181/226/196 192/227/199 191/228/200
f 185/229/201 188/230/202 195/231/203 194/232/204
f 188/230/202 187/223/193 191/228/200 190/233/205
f 189/166/206 192/167/199 444/173/207 441/174/208
f 190/233/205 189/234/206 200/236/209 199/237/210
f 193/239/211 196/240/212 203/242/213 202/243/214
f 196/240/212 195/231/203 199/237/210 198/245/215
f 197/180/216 200/181/209 452/188/217 449/189/218
f 198/245/215 197/246/216 208/248/219 207/249/220
f 201/251/221 204/252/222 211/254/223 210/255/224
f 204/252/222 203/242/213 207/249/220 206/257/225
f 205/196/226 208/197/219 460/205/227 457/206/228
f 206/257/225 205/258/226 216/260/229 215/261/230
f 209/263/231 212/264/232 219/266/233 218/267/234
f 212/264/232 211/254/223 215/261/230 214/268/235
f 213/274/236 216/275/229 468/567/237 465/568/238
f 214/268/235 213/270/236 224/271/239 223/276/240
f 217/277/241 220/278/242 227/279/243 226/280/244
f 220/278/242 219/266/233 223/276/240 222/281/245
f 221/577/246 224/578/239 476/587/247 473/588/248
f 222/281/245 221/282/246 232/283/249 231/284/250
f 225/285/251 228/286/252 235/287/253 234/288/254
f 228/286/252 227/279/243 231/284/250 230/289/255
f 229/597/256 232/598/249 484/607/257 481/608/258
f 230/289/255 229/290/256 240/291/259 239/292/260
f 233/293/261 236/294/262 243/295/263 242/296/264
f 236/294/262 235/287/253 239/292/260 238/297/265
f 237/617/266 240/618/259 492/627/267 489/628/268
f 238/297/265 237/298/266 248/299/269 247/300/270
f 241/301/271 244/302/272 250/303/273 249/304/274
f 244/302/272 243/295/263 247/300/270 246/305/275
f 245/637/276 248/638/269 500/647/277 497/648/278
f 246/305/275 245/306/276 252/307/279 251/308/280
f 16/22/23 13/18/19 19/20/21 22/25/26
f 1/3/4 23/4/5 125/32/33 4/6/7
f 20/19/20 12/16/17 6/12/13 9/14/15
f 28/34/34 30/35/35 39/41/40 34/37/36
f 35/42/41 38/43/42 47/49/48 42/45/44
f 43/50/49 46/51/50 55/57/56 50/53/52
f 51/58/57 54/59/58 63/65/64 58/61/60
f 59/66/65 62/67/66 71/73/72 66/69/68
f 67/74/73 70/75/74 79/81/80 74/77/76
f 75/82/81 78/83/82 87/89/88 82/85/84
f 83/90/89 86/91/90 95/100/96 90/93/92
f 91/101/97 94/102/98 103/109/104 98/104/100
f 99/110/105 102/111/106 111/117/112 106/113/108
f 107/118/113 110/119/114 119/130/120 114/123/116
f 115/131/121 118/132/122 123/141/128 122/135/124
f 126/31/32 24/27/28 17/24/25 21/26/27
f 137/161/143 141/183/157 140/164/145 132/156/141
f 128/147/132 129/153/134 146/186/158 143/154/135
f 133/162/144 139/165/146 152/190/162 149/169/147
f 162/208/174 167/204/172 155/199/168 158/203/171
f 166/207/173 175/212/180 171/195/166 156/194/165
f 174/217/185 183/220/190 179/215/183 172/214/182
f 182/225/195 191/228/200 187/223/193 180/222/192
f 190/233/205 199/237/210 195/231/203 188/230/202
f 198/245/215 207/249/220 203/242/213 196/240/212
f 206/257/225 215/261/230 211/254/223 204/252/222
f 214/268/235 223/276/240 219/266/233 212/264/232
f 222/281/245 231/284/250 227/279/243 220/278/242
f 230/289/255 239/292/260 235/287/253 228/286/252
f 238/297/265 247/300/270 243/295/263 236/294/262
f 246/305/275 251/308/280 250/303/273 244/302/272
f 144/179/155 145/187/159 142/182/156 136/177/154
f 134/106/138 148/272/148 400/511/161 386/371/139
f 138/128/142 131/99/137 383/321/140 390/510/150
f 161/311/152 135/127/149 387/372/151 413/525/281
f 168/310/175 161/311/152 413/525/281 420/524/177
f 176/138/179 165/657/176 417/658/178 428/143/187
f 184/152/189 173/137/186 425/144/188 436/158/197
f 192/167/199 181/151/196 433/159/198 444/173/207
f 200/181/209 189/166/206 441/174/208 452/188/217
f 208/197/219 197/180/216 449/189/218 460/205/227
f 216/275/229 205/196/226 457/206/228 468/567/237
f 224/578/239 213/274/236 465/568/238 476/587/247
f 232/598/249 221/577/246 473/588/248 484/607/257
f 240/618/259 229/597/256 481/608/258 492/627/267
f 248/638/269 237/617/266 489/628/268 500/647/277
f 504/662/282 252/663/279 245/637/276 497/648/278
f 5/8/9 150/11/12 151/191/163 10/13/14
f 5/8/9 6/12/13 7/15/16 8/9/10
f 11/17/18 12/16/17 13/18/19 14/21/22
f 15/23/24 16/22/23 17/24/25 18/28/31
f 25/36/30 27/33/6 28/34/34
f 29/39/38 30/35/35 31/2/3 32/1/2
f 33/38/37 34/37/36 35/42/41 36/44/43
f 37/47/46 38/43/42 39/41/40 40/40/39
f 41/46/45 42/45/44 43/50/49 44/52/51
f 45/55/54 46/51/50 47/49/48 48/48/47
f 49/54/53 50/53/52 51/58/57 52/60/59
f 53/63/62 54/59/58 55/57/56 56/56/55
f 57/62/283 58/61/60 59/66/65 60/68/67
f 61/71/70 62/67/66 63/65/64 64/64/63
f 65/70/69 66/69/68 67/74/73 68/76/284
f 69/79/78 70/75/74 71/73/72 72/72/71
f 73/78/285 74/77/76 75/82/81 76/84/83
f 77/87/86 78/83/82 79/81/80 80/80/79
f 81/86/85 82/85/84 83/90/89 84/92/286
f 85/97/94 86/91/90 87/89/88 88/88/87
f 89/94/287 90/93/92 91/101/97 92/103/99
f 93/107/102 94/102/98 95/100/96 96/98/95
f 97/105/101 98/104/100 99/110/105 100/112/288
f 101/115/110 102/111/106 103/109/104 104/108/103
f 105/114/289 106/113/108 107/118/113 108/122/115
f 109/125/118 110/119/114 111/117/112 112/116/111
f 113/124/117 114/123/116 115/131/121 116/133/290
f 117/139/126 118/132/122 119/130/120 120/129/119
f 131/157/137 132/156/141 133/162/144 134/168/138
f 147/10/11 148/170/148 149/169/147 150/11/12
f 153/192/164 154/200/169 155/199/168 156/194/165
f 157/145/129 158/203/171 159/201/170 160/146/130
f 161/175/152 162/208/174 163/184/291
f 165/210/176 166/207/173 167/204/172 168/209/175
f 169/213/181 170/198/167 171/195/166 172/214/182
f 173/218/186 174/217/185 175/212/180 176/211/179
f 177/221/191 178/216/184 179/215/183 180/222/192
f 181/226/196 182/225/195 183/220/190 184/219/189
f 185/229/201 186/224/194 187/223/193 188/230/202
f 189/234/206 190/233/205 191/228/200 192/227/199
f 193/239/211 194/232/204 195/231/203 196/240/212
f 197/246/216 198/245/215 199/237/210 200/236/209
f 201/251/221 202/243/214 203/242/213 204/252/222
f 205/258/226 206/257/225 207/249/220 208/248/219
f 209/263/231 210/255/224 211/254/223 212/264/232
f 213/270/236 214/268/235 215/261/230 216/260/229
f 217/277/241 218/267/234 219/266/233 220/278/242
f 221/282/246 222/281/245 223/276/240 224/271/239
f 225/285/251 226/280/244 227/279/243 228/286/252
f 229/290/256 230/289/255 231/284/250 232/283/249
f 233/293/261 234/288/254 235/287/253 236/294/262
f 237/298/266 238/297/265 239/292/260 240/291/259
f 241/301/271 242/296/264 243/295/263 244/302/272
f 245/306/276 246/305/275 247/300/270 248/299/269
f 135/172/149 136/177/154 137/161/143 138/160/142
f 25/30/30 26/29/29 27/33/6
f 161/175/152 163/184/291 164/176/153
f 160/95/130 159/96/170 411/120/292 412/121/293
f 159/96/170 154/126/169 406/134/294 411/120/292
f 153/142/164 170/148/167 422/155/295 405/163/296
f 170/148/167 169/171/181 421/178/297 422/155/295
f 177/185/191 186/193/194 438/202/298 429/235/299
f 186/193/194 185/238/201 437/241/300 438/202/298
f 185/238/201 194/244/204 446/247/301 437/241/300
f 202/250/214 201/253/221 453/256/302 454/259/303
f 209/262/231 218/265/234 470/269/304 461/664/305
f 218/265/234 217/665/241 469/666/306 470/269/304
f 217/665/241 226/667/244 478/668/307 469/666/306
f 234/669/254 233/670/261 485/671/308 486/672/309
f 260/553/310 399/512/160 147/273/11 8/317/10
f 2/344/1 3/345/8 255/346/311 254/347/312
f 32/348/2 2/344/1 254/347/312 284/349/313
f 29/350/38 32/348/2 284/349/313 281/351/314
f 40/352/39 29/350/38 281/351/314 292/353/315
f 37/354/46 40/352/39 292/353/315 289/355/316
f 48/356/47 37/354/46 289/355/316 300/357/317
f 45/358/54 48/356/47 300/357/317 297/359/318
f 56/360/55 45/358/54 297/359/318 308/361/319
f 53/362/62 56/360/55 308/361/319 305/363/320
f 64/364/63 53/362/62 305/363/320 316/365/321
f 61/366/70 64/364/63 316/365/321 313/367/322
f 72/368/71 61/366/70 313/367/322 324/369/323
f 69/370/78 72/368/71 324/369/323 321/558/324
f 80/691/79 69/370/78 321/558/324 332/692/325
f 77/693/86 80/691/79 332/692/325 329/694/326
f 88/695/87 77/693/86 329/694/326 340/696/327
f 85/697/94 88/695/87 340/696/327 337/698/328
f 96/699/95 85/697/94 337/698/328 348/722/329
f 93/723/102 96/699/95 348/722/329 345/724/330
f 104/725/103 93/723/102 345/724/330 356/726/331
f 101/727/110 104/725/103 356/726/331 353/728/332
f 112/729/111 101/727/110 353/728/332 364/730/333
f 109/731/118 112/729/111 364/730/333 361/732/334
f 120/733/119 109/731/118 361/732/334 372/734/335
f 117/735/126 120/733/119 372/734/335 369/736/336
f 376/737/337 124/738/127 117/735/126 369/736/336
f 254/373/312 253/376/338 283/375/339 284/374/313
f 275/377/340 279/378/341 283/375/339 253/376/338
f 254/373/312 255/380/311 256/379/342 253/376/338
f 257/381/343 402/384/344 399/383/160 260/382/310
f 258/385/345 261/387/346 262/386/347 257/381/343
f 259/388/348 263/390/349 264/389/350 258/385/345
f 265/391/351 271/393/352 272/392/353 264/389/350
f 266/394/354 267/396/355 268/395/356 265/391/351
f 269/397/357 273/399/358 274/398/359 268/395/356
f 269/397/357 278/401/360 276/400/361
f 269/397/357 270/403/362 277/402/363 278/401/360
f 275/377/340 377/405/364 378/404/365 276/400/361
f 275/377/340 276/400/361 278/401/360 279/378/341
f 280/406/366 282/407/367 283/375/339 279/378/341
f 277/408/368 285/410/369 286/409/370 280/406/366
f 282/407/367 291/413/371 292/412/315 281/411/314
f 287/414/372 290/415/373 291/413/371 286/409/370
f 288/416/374 293/418/375 294/417/376 287/414/372
f 290/415/373 299/421/377 300/420/317 289/419/316
f 295/422/378 298/423/379 299/421/377 294/417/376
f 296/424/380 301/426/381 302/425/382 295/422/378
f 298/423/379 307/429/383 308/428/319 297/427/318
f 303/430/384 306/431/385 307/429/383 302/425/382
f 304/432/386 309/434/387 310/433/388 303/430/384
f 306/431/385 315/437/389 316/436/321 305/435/320
f 311/438/390 314/439/391 315/437/389 310/433/388
f 312/440/392 317/442/393 318/441/394 311/438/390
f 314/439/391 323/445/395 324/444/323 313/443/322
f 319/446/396 322/447/397 323/445/395 318/441/394
f 320/448/398 325/450/399 326/449/400 319/446/396
f 322/447/397 331/453/401 332/452/325 321/451/324
f 327/454/402 330/455/403 331/453/401 326/449/400
f 328/456/404 333/458/405 334/457/406 327/454/402
f 330/455/403 339/461/407 340/460/327 329/459/326
f 335/462/408 338/463/409 339/461/407 334/457/406
f 336/464/410 341/466/411 342/465/412 335/462/408
f 338/463/409 347/469/413 348/468/329 337/467/328
f 343/470/414 346/471/415 347/469/413 342/465/412
f 344/472/416 349/474/417 350/473/418 343/470/414
f 346/471/415 355/477/419 356/476/331 345/475/330
f 351/478/420 354/479/421 355/477/419 350/473/418
f 352/480/422 357/482/423 358/481/424 351/478/420
f 354/479/421 363/485/425 364/484/333 353/483/332
f 359/486/426 362/487/427 363/485/425 358/481/424
f 360/488/428 365/490/429 366/489/430 359/486/426
f 362/487/427 371/493/431 372/492/335 361/491/334
f 367/494/432 370/495/433 371/493/431 366/489/430
f 368/496/434 373/498/435 374/497/436 367/494/432
f 370/495/433 375/501/437 376/500/337 369/499/336
f 409/502/438 380/505/439 379/504/440 412/503/293
f 380/505/439 381/507/441 382/506/442 379/504/440
f 409/502/438 415/509/443 395/508/444 380/505/439
f 384/514/445 389/517/446 390/516/150 383/515/140
f 385/518/447 391/520/448 392/519/449 384/514/445
f 386/521/139 400/523/161 401/522/450 385/518/447
f 387/527/151 388/530/451 416/529/452 413/528/281
f 396/531/453 416/529/452 388/530/451
f 389/517/446 393/533/454 394/532/455 388/530/451
f 396/531/453 395/508/444 415/509/443 416/529/452
f 396/531/453 397/535/456 398/534/457 395/508/444
f 402/384/344 403/541/458 404/540/459 401/522/450
f 405/542/296 422/545/295 423/544/460 408/543/461
f 407/546/462 410/549/463 411/548/292 406/547/294
f 408/543/461 418/551/464 419/550/465 407/546/462
f 410/549/463 414/552/466 415/509/443 409/502/438
f 414/552/466 419/550/465 420/555/177 413/528/281
f 418/551/464 427/561/467 428/560/187 417/559/178
f 421/562/297 430/565/468 431/564/469 424/563/470
f 424/563/470 426/566/471 427/561/467 423/544/460
f 426/566/471 435/571/472 436/570/197 425/569/188
f 429/572/299 438/575/298 439/574/473 432/573/474
f 432/573/474 434/576/475 435/571/472 431/564/469
f 434/576/475 443/581/476 444/580/207 433/579/198
f 437/582/300 446/585/301 447/584/477 440/583/478
f 440/583/478 442/586/479 443/581/476 439/574/473
f 442/586/479 451/591/480 452/590/217 441/589/208
f 445/592/481 454/595/303 455/594/482 448/593/483
f 448/593/483 450/596/484 451/591/480 447/584/477
f 450/596/484 459/601/485 460/600/227 449/599/218
f 453/602/302 462/605/486 463/604/487 456/603/488
f 456/603/488 458/606/489 459/601/485 455/594/482
f 458/606/489 467/611/490 468/610/237 457/609/228
f 461/612/305 470/615/304 471/614/491 464/613/492
f 464/613/492 466/616/493 467/611/490 463/604/487
f 466/616/493 475/621/494 476/620/247 465/619/238
f 469/622/306 478/625/307 479/624/495 472/623/496
f 472/623/496 474/626/497 475/621/494 471/614/491
f 474/626/497 483/631/498 484/630/257 473/629/248
f 477/632/499 486/635/309 487/634/500 480/633/501
f 480/633/501 482/636/502 483/631/498 479/624/495
f 482/636/502 491/641/503 492/640/267 481/639/258
f 485/642/308 494/645/504 495/644/505 488/643/506
f 488/643/506 490/646/507 491/641/503 487/634/500
f 490/646/507 499/651/508 500/650/277 489/649/268
f 493/652/509 501/655/510 502/654/511 496/653/512
f 496/653/512 498/656/513 499/651/508 495/644/505
f 498/656/513 503/661/514 504/660/282 497/659/278
f 268/395/356 274/398/359 271/393/352 265/391/351
f 253/376/338 256/379/342 377/405/364 275/377/340
f 272/392/353 261/387/346 258/385/345 264/389/350
f 280/406/366 286/409/370 291/413/371 282/407/367
f 287/414/372 294/417/376 299/421/377 290/415/373
f 295/422/378 302/425/382 307/429/383 298/423/379
f 303/430/384 310/433/388 315/437/389 306/431/385
f 311/438/390 318/441/394 323/445/395 314/439/391
f 319/446/396 326/449/400 331/453/401 322/447/397
f 327/454/402 334/457/406 339/461/407 330/455/403
f 335/462/408 342/465/412 347/469/413 338/463/409
f 343/470/414 350/473/418 355/477/419 346/471/415
f 351/478/420 358/481/424 363/485/425 354/479/421
f 359/486/426 366/489/430 371/493/431 362/487/427
f 367/494/432 374/497/436 375/501/437 370/495/433
f 378/404/365 273/399/358 269/397/357 276/400/361
f 389/517/446 384/514/445 392/519/449 393/533/454
f 380/505/439 395/508/444 398/534/457 381/507/441
f 385/518/447 401/522/450 404/540/459 391/520/448
f 414/552/466 410/549/463 407/546/462 419/550/465
f 418/551/464 408/543/461 423/544/460 427/561/467
f 426/566/471 424/563/470 431/564/469 435/571/472
f 434/576/475 432/573/474 439/574/473 443/581/476
f 442/586/479 440/583/478 447/584/477 451/591/480
f 450/596/484 448/593/483 455/594/482 459/601/485
f 458/606/489 456/603/488 463/604/487 467/611/490
f 466/616/493 464/613/492 471/614/491 475/621/494
f 474/626/497 472/623/496 479/624/495 483/631/498
f 482/636/502 480/633/501 487/634/500 491/641/503
f 490/646/507 488/643/506 495/644/505 499/651/508
f 498/656/513 496/653/512 502/654/511 503/661/514
f 396/531/453 388/530/451 394/532/455 397/535/456
f 257/381/343 262/386/347 403/541/458 402/384/344
f 257/381/343 260/382/310 259/388/348 258/385/345
f 263/390/349 266/394/354 265/391/351 264/389/350
f 267/396/355 270/403/362 269/397/357 268/395/356
f 281/411/314 284/374/313 283/375/339 282/407/367
f 285/410/369 288/416/374 287/414/372 286/409/370
f 289/419/316 292/412/315 291/413/371 290/415/373
f 293/418/375 296/424/380 295/422/378 294/417/376
f 297/427/318 300/420/317 299/421/377 298/423/379
f 301/426/381 304/432/386 303/430/384 302/425/382
f 305/435/320 308/428/319 307/429/383 306/431/385
f 309/434/515 312/440/392 311/438/390 310/433/388
f 313/443/322 316/436/321 315/437/389 314/439/391
f 317/442/393 320/448/516 319/446/396 318/441/394
f 321/451/324 324/444/323 323/445/395 322/447/397
f 325/450/517 328/456/404 327/454/402 326/449/400
f 329/459/326 332/452/325 331/453/401 330/455/403
f 333/458/405 336/464/518 335/462/408 334/457/406
f 337/467/328 340/460/327 339/461/407 338/463/409
f 341/466/519 344/472/416 343/470/414 342/465/412
f 345/475/330 348/468/329 347/469/413 346/471/415
f 349/474/417 352/480/520 351/478/420 350/473/418
f 353/483/332 356/476/331 355/477/419 354/479/421
f 357/482/521 360/488/428 359/486/426 358/481/424
f 361/491/334 364/484/333 363/485/425 362/487/427
f 365/490/429 368/496/522 367/494/432 366/489/430
f 369/499/336 372/492/335 371/493/431 370/495/433
f 383/515/140 386/521/139 385/518/447 384/514/445
f 399/383/160 402/384/344 401/522/450 400/523/161
f 405/542/296 408/543/461 407/546/462 406/547/294
f 409/502/438 412/503/293 411/548/292 410/549/463
f 413/528/281 415/509/443 414/552/466
f 417/559/178 420/555/177 419/550/465 418/551/464
f 421/562/297 424/563/470 423/544/460 422/545/295
f 425/569/188 428/560/187 427/561/467 426/566/471
f 429/572/299 432/573/474 431/564/469 430/565/468
f 433/579/198 436/570/197 435/571/472 434/576/475
f 437/582/300 440/583/478 439/574/473 438/575/298
f 441/589/208 444/580/207 443/581/476 442/586/479
f 445/592/481 448/593/483 447/584/477 446/585/301
f 449/599/218 452/590/217 451/591/480 450/596/484
f 453/602/302 456/603/488 455/594/482 454/595/303
f 457/609/228 460/600/227 459/601/485 458/606/489
f 461/612/305 464/613/492 463/604/487 462/605/486
f 465/619/238 468/610/237 467/611/490 466/616/493
f 469/622/306 472/623/496 471/614/491 470/615/304
f 473/629/248 476/620/247 475/621/494 474/626/497
f 477/632/499 480/633/501 479/624/495 478/625/307
f 481/639/258 484/630/257 483/631/498 482/636/502
f 485/642/308 488/643/506 487/634/500 486/635/309
f 489/649/268 492/640/267 491/641/503 490/646/507
f 493/652/509 496/653/512 495/644/505 494/645/504
f 497/659/278 500/650/277 499/651/508 498/656/513
f 387/527/151 390/516/150 389/517/446 388/530/451
f 277/402/363 279/378/341 278/401/360
f 413/528/281 416/529/452 415/509/443
f 127/673/131 379/674/440 382/675/442 130/676/133
f 160/95/130 412/121/293 379/674/440 127/673/131
f 153/142/164 405/163/296 406/134/294 154/126/169
f 178/677/184 430/678/468 421/178/297 169/171/181
f 177/185/191 429/235/299 430/678/468 178/677/184
f 193/679/211 445/680/481 446/247/301 194/244/204
f 202/250/214 454/259/303 445/680/481 193/679/211
f 210/681/224 462/682/486 453/256/302 201/253/221
f 209/262/231 461/664/305 462/682/486 210/681/224
f 225/683/251 477/684/499 478/668/307 226/667/244
f 234/669/254 486/672/309 477/684/499 225/683/251
f 242/685/264 494/686/504 485/671/308 233/670/261
f 241/687/271 493/688/509 494/686/504 242/685/264
f 249/689/274 501/690/510 493/688/509 241/687/271
f 14/312/22 266/526/354 263/536/349 11/313/18
f 18/314/31 270/537/362 267/538/355 15/315/24
f 7/316/16 259/539/348 260/553/310 8/317/10
f 36/318/523 288/554/524 285/556/525 33/319/526
f 44/322/527 296/323/528 293/324/529 41/325/530
f 52/326/531 304/327/532 301/328/533 49/329/534
f 60/330/535 312/331/536 309/332/537 57/333/538
f 68/334/539 320/335/540 317/336/541 65/337/542
f 76/338/543 328/339/544 325/340/545 73/341/546
f 84/342/547 336/343/548 333/700/549 81/701/550
f 92/702/551 344/703/552 341/704/553 89/705/554
f 100/706/555 352/707/556 349/708/557 97/709/558
f 108/710/559 360/711/560 357/712/561 105/713/562
f 116/714/563 368/715/564 365/716/565 113/717/566
f 11/313/18 263/536/349 259/539/348 7/316/16
f 15/315/24 267/538/355 266/526/354 14/312/22
f 25/320/30 277/557/363 270/537/362 18/314/31
f 33/319/526 285/556/525 277/557/363 25/320/30
f 41/325/530 293/324/529 288/718/524 36/719/523
f 49/329/534 301/328/533 296/323/528 44/322/527
f 57/333/538 309/332/537 304/327/532 52/326/531
f 65/337/542 317/336/541 312/331/536 60/330/535
f 73/341/546 325/340/545 320/335/540 68/334/539
f 81/701/550 333/700/549 328/339/544 76/338/543
f 89/705/554 341/704/553 336/343/548 84/342/547
f 97/709/558 349/708/557 344/703/552 92/702/551
f 105/713/562 357/712/561 352/707/556 100/706/555
f 113/717/566 365/716/565 360/711/560 108/710/559
f 121/720/567 373/721/568 368/715/564 116/714/563
f 279/378/341 277/408/363 280/406/569
g default
v -141.480988 462.088043 45.129681
v -138.755234 460.783661 45.095470
v -138.665268 461.911041 47.793488
v -153.413925 531.795959 97.621803
v -154.503342 536.718079 95.600677
v -157.203796 531.887146 93.058006
v -157.203796 531.887146 -93.157158
v -154.503342 536.718079 -95.631584
v -153.413925 531.795959 -97.721001
v -138.626877 461.913666 -47.877327
v -138.680023 460.783661 -45.133308
v -141.457825 462.087311 -45.197506
v -136.394165 486.085480 62.492947
v -139.911926 486.085480 57.888592
v -142.452942 489.366302 62.340744
v -138.699280 489.366302 66.645035
v -139.911926 486.085480 -57.987839
v -136.394165 486.085480 -62.592197
v -138.699280 489.366302 -66.744232
v -142.452942 489.366302 -62.440010
v -129.787537 478.853790 -42.023415
v -125.804733 478.853790 -47.092686
v -127.382431 480.830353 -49.771606
v -130.792389 480.830353 -44.886524
v -130.792389 480.830353 44.787300
v -127.382431 480.830353 49.672379
v -125.804733 478.853790 46.993420
v -129.787537 478.853790 41.924164
v -132.152756 472.786591 -40.637123
v -126.962784 472.786591 -43.645889
v -125.630592 475.138580 -44.030502
v -130.091965 475.138580 -39.367802
v -130.091965 475.138580 39.268505
v -125.630592 475.138580 43.931271
v -126.962784 472.786591 43.546635
v -132.152756 472.786591 40.537876
v -136.604645 468.803558 -49.382858
v -140.927795 468.803558 -45.581985
v -134.244278 470.186798 -48.316990
v -138.994888 470.186798 -44.856056
v -142.006332 466.698700 -45.609264
v -137.887497 466.698700 -49.570717
v -140.927795 468.803558 45.482719
v -136.604645 468.803558 49.283623
v -138.994888 470.186798 44.756821
v -134.244278 470.186798 48.217773
v -137.887497 466.698700 49.471489
v -142.006332 466.698700 45.510006
v 141.480988 462.088043 45.129681
v 138.755234 460.783661 45.095470
v 138.665268 461.911041 47.793488
v 153.413925 531.795959 97.621803
v 154.503342 536.718079 95.600677
v 157.203796 531.887146 93.058006
v 157.203796 531.887146 -93.157158
v 154.503342 536.718079 -95.631584
v 153.413925 531.795959 -97.721001
v 138.626877 461.913666 -47.877327
v 138.680023 460.783661 -45.133308
v 141.457825 462.087311 -45.197506
v 136.394165 486.085480 62.492947
v 139.911926 486.085480 57.888592
v 142.452942 489.366302 62.340744
v 138.699280 489.366302 66.645035
v 139.911926 486.085480 -57.987839
v 136.394165 486.085480 -62.592197
v 138.699280 489.366302 -66.744232
v 142.452942 489.366302 -62.440010
v 129.787537 478.853790 -42.023415
v 125.804733 478.853790 -47.092686
v 127.382431 480.830353 -49.771606
v 130.792389 480.830353 -44.886524
v 130.792389 480.830353 44.787300
v 127.382431 480.830353 49.672379
v 125.804733 478.853790 46.993420
v 129.787537 478.853790 41.924164
v 132.152756 472.786591 -40.637123
v 126.962784 472.786591 -43.645889
v 125.630592 475.138580 -44.030502
v 130.091965 475.138580 -39.367802
v 130.091965 475.138580 39.268505
v 125.630592 475.138580 43.931271
v 126.962784 472.786591 43.546635
v 132.152756 472.786591 40.537876
v 136.604645 468.803558 -49.382858
v 140.927795 468.803558 -45.581985
v 134.244278 470.186798 -48.316990
v 138.994888 470.186798 -44.856056
v 142.006332 466.698700 -45.609264
v 137.887497 466.698700 -49.570717
v 140.927795 468.803558 45.482719
v 136.604645 468.803558 49.283623
v 138.994888 470.186798 44.756821
v 134.244278 470.186798 48.217773
v 137.887497 466.698700 49.471489
v 142.006332 466.698700 45.510006
vt 0.513958 0.590097
vt 0.854378 0.441058
vt 0.935959 0.440960
vt 0.573175 0.972816
vt 0.510838 0.590240
vt 0.521754 0.410866
vt 0.935676 0.436784
vt 0.854598 0.436925
vt 0.791797 0.410866
vt 0.955747 0.406098
vt 0.951118 0.403974
vt 0.790999 0.384401
vt 0.947326 0.407723
vt 0.522552 0.384401
vt 0.952010 0.410081
vt 0.838840 0.404153
vt 0.834198 0.406259
vt 0.806121 0.460010
vt 0.837984 0.410310
vt 0.842645 0.407917
vt 0.507429 0.460010
vt 0.853521 0.417394
vt 0.848413 0.419435
vt 0.521832 0.379460
vt 0.850288 0.421077
vt 0.856028 0.419466
vt 0.791719 0.379460
vt 0.934094 0.419499
vt 0.510714 0.496808
vt 0.939846 0.421084
vt 0.573175 0.831470
vt 0.575224 0.829547
vt 0.523998 0.406479
vt 0.575224 0.974702
vt 0.576051 0.828005
vt 0.789553 0.406479
vt 0.941724 0.419403
vt 0.936584 0.417449
vt 0.513877 0.496966
vt 0.532771 0.397391
vt 0.780780 0.397391
vt 0.858454 0.422964
vt 0.852544 0.422978
vt 0.513957 0.593114
vt 0.513834 0.493906
vt 0.576051 0.976280
vt 0.853079 0.424295
vt 0.857649 0.425871
vt 0.932477 0.425902
vt 0.937024 0.424281
vt 0.937572 0.422985
vt 0.931669 0.422979
vt 0.854628 0.434787
vt 0.850432 0.432894
vt 0.850079 0.435206
vt 0.940186 0.435008
vt 0.939805 0.432701
vt 0.935631 0.434647
vt 0.979419 0.363316
vt 0.810669 0.363294
vt 0.855044 0.432640
vt 0.935204 0.432493
vt 0.984397 0.365319
vt 0.805665 0.365245
vt 0.851045 0.430413
vt 0.939154 0.430240
vt 0.939821 0.440053
vt 0.850493 0.440224
vt 0.789750 0.386263
vt 0.523801 0.386263
vt 0.534307 0.394688
vt 0.779244 0.394688
vt 0.787453 0.387171
vt 0.526098 0.387171
vt 0.780365 0.387985
vt 0.533186 0.387985
vt 0.534476 0.390268
vt 0.779068 0.390264
vt 0.800383 0.589754
vt 0.803503 0.589888
vt 0.803389 0.496430
vt 0.800227 0.496599
vt 0.854388 0.441057
vt 0.935969 0.440950
vt 0.935686 0.436773
vt 0.854609 0.436925
vt 0.811826 0.972816
vt 0.809776 0.974702
vt 0.809776 0.829547
vt 0.811826 0.831470
vt 0.955757 0.406082
vt 0.951127 0.403958
vt 0.947335 0.407708
vt 0.952020 0.410065
vt 0.838849 0.404156
vt 0.834207 0.406264
vt 0.837994 0.410314
vt 0.842654 0.407920
vt 0.853532 0.417395
vt 0.848424 0.419437
vt 0.850301 0.421079
vt 0.856039 0.419465
vt 0.934105 0.419487
vt 0.939857 0.421072
vt 0.941736 0.419390
vt 0.936595 0.417437
vt 0.858465 0.422964
vt 0.852557 0.422978
vt 0.853092 0.424294
vt 0.857661 0.425870
vt 0.932488 0.425891
vt 0.937035 0.424270
vt 0.937583 0.422974
vt 0.931679 0.422969
vt 0.854640 0.434786
vt 0.850443 0.432891
vt 0.850089 0.435204
vt 0.940196 0.434997
vt 0.939815 0.432690
vt 0.935642 0.434636
vt 0.979419 0.363295
vt 0.810669 0.363304
vt 0.855055 0.432639
vt 0.935215 0.432482
vt 0.984397 0.365297
vt 0.805665 0.365255
vt 0.851057 0.430411
vt 0.939165 0.430230
vt 0.939831 0.440042
vt 0.800389 0.592769
vt 0.808949 0.828005
vt 0.808949 0.976280
vt 0.800265 0.493536
vt 0.850503 0.440222
vt 0.534483 0.390264
vt 0.779238 0.394684
vt 0.534313 0.394684
vt 0.780773 0.397387
vt 0.532778 0.397387
vt 0.789545 0.406479
vt 0.524005 0.406479
vt 0.791789 0.410866
vt 0.521762 0.410866
vt 0.806113 0.460014
vt 0.507438 0.460014
vt 0.779075 0.390268
vt 0.533179 0.387989
vt 0.780372 0.387989
vt 0.526091 0.387173
vt 0.787460 0.387173
vt 0.523793 0.386264
vt 0.789758 0.386264
vt 0.522544 0.384402
vt 0.791007 0.384402
vt 0.521787 0.379464
vt 0.791764 0.379464
vn -0.004705 -0.999980 0.004344
vn -0.431794 -0.901969 0.002596
vn -0.431720 -0.902003 -0.002812
vn -0.004728 -0.999979 -0.004378
vn -0.933555 0.358404 0.004614
vn -0.933555 0.358404 -0.004614
vn -0.962310 -0.271892 -0.005892
vn -0.962422 -0.271495 0.005869
vn 0.000174 0.817043 0.576576
vn -0.539849 0.841753 -0.003773
vn -0.003089 -0.588047 0.808821
vn -0.944633 -0.328124 0.001778
vn -0.577039 -0.816708 0.003885
vn -0.002927 -0.909761 0.415123
vn -0.944633 -0.328124 -0.001778
vn -0.003089 -0.588047 -0.808821
vn -0.002927 -0.909761 -0.415123
vn -0.577039 -0.816708 -0.003885
vn -0.517663 -0.855584 -0.001002
vn -0.001539 -0.923115 -0.384521
vn -0.003628 -0.665332 -0.746539
vn -0.998879 -0.046788 -0.007151
vn -0.998879 -0.046788 0.007151
vn -0.003628 -0.665332 0.746539
vn -0.001539 -0.923115 0.384521
vn -0.517663 -0.855584 0.001002
vn -0.989011 0.147813 -0.003033
vn -0.004240 -0.571813 -0.820373
vn -0.001244 0.836351 -0.548193
vn -0.387490 0.921872 -0.002094
vn -0.387490 0.921872 0.002094
vn -0.001244 0.836351 0.548193
vn -0.004240 -0.571813 0.820373
vn -0.989011 0.147813 0.003033
vn -0.776596 0.629983 -0.004340
vn -0.002042 0.089980 -0.995942
vn -0.004871 -0.049639 -0.998755
vn -0.004871 -0.049639 0.998755
vn -0.002042 0.089980 0.995942
vn -0.776596 0.629983 0.004340
vn -0.451109 0.892464 -0.003069
vn -0.451109 0.892464 0.003069
vn -0.004368 -0.551057 0.834456
vn -0.004384 -0.551335 -0.834273
vn -0.003573 0.727671 -0.685918
vn -0.003573 0.727670 0.685918
vn -0.003196 -0.446740 0.894658
vn -0.002937 -0.923787 -0.382896
vn 0.004705 -0.999980 0.004344
vn 0.004728 -0.999979 -0.004378
vn 0.431720 -0.902003 -0.002812
vn 0.431794 -0.901969 0.002596
vn 0.933555 0.358404 -0.004614
vn 0.933555 0.358404 0.004614
vn 0.962310 -0.271892 -0.005892
vn 0.539849 0.841753 -0.003773
vn -0.000174 0.817043 0.576576
vn 0.962422 -0.271495 0.005869
vn 0.003089 -0.588047 0.808821
vn 0.002927 -0.909761 0.415123
vn 0.577039 -0.816708 0.003885
vn 0.944633 -0.328124 0.001778
vn 0.944633 -0.328124 -0.001778
vn 0.577039 -0.816708 -0.003885
vn 0.002927 -0.909761 -0.415123
vn 0.003089 -0.588047 -0.808821
vn 0.517663 -0.855584 -0.001002
vn 0.998879 -0.046788 -0.007151
vn 0.003628 -0.665332 -0.746539
vn 0.001539 -0.923115 -0.384521
vn 0.998879 -0.046788 0.007151
vn 0.517663 -0.855584 0.001002
vn 0.001539 -0.923115 0.384521
vn 0.003628 -0.665332 0.746539
vn 0.989011 0.147813 -0.003033
vn 0.387490 0.921872 -0.002094
vn 0.001244 0.836351 -0.548193
vn 0.004240 -0.571813 -0.820373
vn 0.387490 0.921872 0.002094
vn 0.989011 0.147813 0.003033
vn 0.004240 -0.571813 0.820373
vn 0.001244 0.836351 0.548193
vn 0.004871 -0.049639 -0.998755
vn 0.002042 0.089980 -0.995942
vn 0.776596 0.629983 -0.004340
vn 0.004871 -0.049639 0.998755
vn 0.776596 0.629983 0.004340
vn 0.002042 0.089980 0.995942
vn 0.451109 0.892464 -0.003069
vn 0.451109 0.892464 0.003069
vn 0.004368 -0.551057 0.834456
vn 0.004384 -0.551335 -0.834273
vn 0.003573 0.727671 -0.685918
vn 0.003573 0.727670 0.685918
vn 0.003196 -0.446740 0.894658
vn 0.002937 -0.923787 -0.382896
s 1
g S_U_15_Low Arch_Sculpture_low
usemtl BusStop_HighLow_aiStandardSurface1SG
f 506/739/570 505/743/571 516/767/572 515/777/573
f 516/740/572 505/741/571 552/745/574 545/746/575
f 511/742/576 510/769/577 509/770/578 512/772/579
f 520/748/580 519/749/581 518/751/582 517/753/583
f 524/754/584 523/755/585 522/757/586 521/758/587
f 528/760/588 527/761/589 526/763/590 525/764/591
f 532/766/592 531/768/593 530/775/594 529/776/595
f 536/780/596 535/781/597 534/785/598 533/786/599
f 540/787/600 539/788/601 538/789/602 537/790/603
f 545/746/575 542/791/604 541/792/605 546/793/606
f 551/794/607 548/795/608 547/796/609 552/745/574
f 524/754/584 519/749/581 510/797/577 511/798/576
f 524/754/584 521/758/587 518/751/582 519/749/581
f 528/760/588 529/776/595 518/751/582 521/758/587
f 528/760/588 525/764/591 532/766/592 529/776/595
f 537/790/603 532/766/592 525/764/591 536/780/596
f 536/780/596 533/786/599 540/787/600 537/790/603
f 544/799/610 549/800/611 540/787/600 533/786/599
f 544/799/610 542/791/604 547/796/609 549/800/611
f 542/791/604 545/746/575 552/745/574 547/796/609
f 519/749/581 520/748/580 508/801/612 510/797/577
f 523/755/585 524/754/584 511/798/576 513/802/613
f 527/761/589 528/760/588 521/758/587 522/757/586
f 529/776/595 530/775/594 517/753/583 518/751/582
f 535/781/597 536/780/596 525/764/591 526/763/590
f 537/790/603 538/789/602 531/768/593 532/766/592
f 543/803/614 541/792/605 542/791/604 544/799/610
f 543/803/614 544/799/610 533/786/599 534/785/598
f 549/800/611 547/796/609 548/795/608 550/804/615
f 549/800/611 550/804/615 539/788/601 540/787/600
f 507/805/616 551/794/607 552/745/574 505/741/571
f 505/743/571 506/739/570 507/782/616
f 510/769/577 508/773/612 509/770/578
f 512/772/579 513/784/613 511/742/576
f 515/777/573 516/767/572 514/783/617
f 516/740/572 545/746/575 546/793/606 514/806/617
f 554/817/618 563/820/619 564/819/620 553/818/621
f 564/821/620 593/824/622 600/823/623 553/822/621
f 559/825/624 560/826/625 557/827/626 558/828/627
f 568/829/628 565/832/629 566/831/630 567/830/631
f 572/833/632 569/836/633 570/835/634 571/834/635
f 576/837/636 573/840/637 574/839/638 575/838/639
f 580/841/640 577/844/641 578/843/642 579/842/643
f 584/845/644 581/848/645 582/847/646 583/846/647
f 588/849/648 585/852/649 586/851/650 587/850/651
f 593/824/622 594/855/652 589/854/653 590/853/654
f 599/856/655 600/823/623 595/858/656 596/857/657
f 572/833/632 559/860/624 558/859/627 567/830/631
f 572/833/632 567/830/631 566/831/630 569/836/633
f 576/837/636 569/836/633 566/831/630 577/844/641
f 576/837/636 577/844/641 580/841/640 573/840/637
f 585/852/649 584/845/644 573/840/637 580/841/640
f 584/845/644 585/852/649 588/849/648 581/848/645
f 592/861/658 581/848/645 588/849/648 597/862/659
f 592/861/658 597/862/659 595/858/656 590/853/654
f 590/853/654 595/858/656 600/823/623 593/824/622
f 567/830/631 558/859/627 556/863/660 568/829/628
f 571/834/635 561/864/661 559/860/624 572/833/632
f 575/838/639 570/835/634 569/836/633 576/837/636
f 577/844/641 566/831/630 565/832/629 578/843/642
f 583/846/647 574/839/638 573/840/637 584/845/644
f 585/852/649 580/841/640 579/842/643 586/851/650
f 591/865/662 592/861/658 590/853/654 589/854/653
f 591/865/662 582/847/646 581/848/645 592/861/658
f 597/862/659 598/866/663 596/857/657 595/858/656
f 597/862/659 588/849/648 587/850/651 598/866/663
f 555/867/664 553/822/621 600/823/623 599/856/655
f 553/818/621 555/868/664 554/817/618
f 558/828/627 557/827/626 556/869/660
f 560/826/625 559/825/624 561/870/661
f 563/820/619 562/871/665 564/819/620
f 564/821/620 562/872/665 594/855/652 593/824/622
f 506/739/570 554/817/618 555/868/664 507/782/616
f 515/777/573 563/820/619 554/817/618 506/739/570
f 514/783/617 562/871/665 563/820/619 515/777/573
f 546/750/606 594/752/652 562/762/665 514/765/617
f 541/807/605 589/808/653 594/752/652 546/750/606
f 543/811/614 591/812/662 589/808/653 541/807/605
f 534/813/598 582/814/646 591/812/662 543/811/614
f 535/816/597 583/873/647 582/814/646 534/813/598
f 526/874/590 574/875/638 583/873/647 535/816/597
f 527/876/589 575/877/639 574/875/638 526/874/590
f 522/878/586 570/879/634 575/877/639 527/876/589
f 523/880/585 571/881/635 570/879/634 522/878/586
f 513/882/613 561/883/661 571/881/635 523/880/585
f 512/772/579 560/826/625 561/870/661 513/784/613
f 509/770/578 557/827/626 560/826/625 512/772/579
f 508/773/612 556/869/660 557/827/626 509/770/578
f 520/744/580 568/747/628 556/756/660 508/759/612
f 517/771/583 565/774/629 568/747/628 520/744/580
f 530/778/594 578/779/642 565/774/629 517/771/583
f 531/809/593 579/810/643 578/779/642 530/778/594
f 538/815/602 586/884/650 579/810/643 531/809/593
f 539/885/601 587/886/651 586/884/650 538/815/602
f 550/887/615 598/888/663 587/886/651 539/885/601
f 548/889/608 596/890/657 598/888/663 550/887/615
f 551/891/607 599/892/655 596/890/657 548/889/608
f 507/893/616 555/894/664 599/892/655 551/891/607
