# This file uses centimeters as units for non-parametric coordinates.

mtllib SU16.mtl
g default
v -372.447571 271.500000 176.893677
v -372.634857 270.445740 178.903839
v -372.712433 267.900452 179.736481
v -416.144104 267.900452 172.954208
v -415.798492 270.445679 172.163437
v -414.964233 271.500000 170.254303
v -472.217896 271.500000 90.718384
v -474.421600 270.445679 91.123634
v -475.334473 267.900452 91.291473
v -472.217773 271.500000 -90.718384
v -474.421600 270.445679 -91.123627
v -475.334473 267.900391 -91.291496
v -416.144104 267.900452 -172.954254
v -415.798492 270.445740 -172.163437
v -414.964233 271.500000 -170.254318
v -372.712524 267.900391 -179.736481
v -372.634949 270.445679 -178.903839
v -372.447662 271.500000 -176.893677
v -372.712433 256.628906 179.736511
v -416.144104 256.628784 172.954239
v -475.334595 256.628784 91.291519
v -475.334473 256.628906 -91.291527
v -372.712433 256.628784 -179.736481
v -416.144104 256.628906 -172.954269
v 423.991516 256.628784 179.736481
v -176.536774 229.570572 179.742737
v 304.143372 229.589554 179.736511
v -214.704803 256.532166 179.736481
v 374.117310 256.562134 179.736481
v 475.334473 267.900391 166.806870
v 471.182617 267.900391 175.949493
v 461.159271 267.900391 179.736481
v 474.421692 270.445679 165.974136
v 470.269836 270.445679 175.116821
v 460.246735 270.445679 178.903839
v 458.042389 271.499939 176.893677
v 468.065918 271.500000 173.106750
v 472.217773 271.500000 163.964294
v 461.159271 267.900391 -179.736481
v 471.182617 267.900391 -175.949493
v 475.334473 267.900391 -166.806870
v 460.246735 270.445679 -178.903839
v 470.269836 270.445679 -175.116821
v 474.421692 270.445679 -165.974152
v 468.065918 271.500000 -173.106781
v 458.042389 271.500000 -176.893677
v 472.217773 271.500000 -163.964355
v 475.334473 256.628906 -166.806870
v 471.182617 256.628906 -175.949493
v 461.159271 256.628906 -179.736481
v 461.159271 256.628784 179.736481
v 471.182617 256.628784 175.949493
v 475.334473 256.628784 166.806870
v -448.603210 270.376099 148.097504
v -449.266113 267.655579 148.586517
v -447.865265 271.500000 145.164886
v -449.266113 267.657715 -148.586517
v -448.601929 270.376709 -148.096756
v -447.840088 271.500000 -145.201019
v -449.264648 256.628845 148.589981
v -449.264648 256.628906 -148.590027
v -416.930908 256.148804 174.754700
v -372.889038 256.148865 181.632248
v -477.412842 256.148804 91.673676
v -450.949402 256.148804 149.843216
v -477.412842 256.148865 -91.673737
v -450.949402 256.148865 -149.843231
v -372.889038 256.148804 -181.632263
v -416.930908 256.148865 -174.754730
v 463.237427 256.148865 -181.632263
v -176.705139 229.206345 181.632248
v 304.270630 229.176224 181.632248
v 374.265076 256.082153 181.632248
v 423.991516 256.148804 181.632248
v -214.926651 256.052124 181.632248
v 473.260986 256.148865 -177.845352
v 477.412811 256.148865 -168.702942
v 463.237427 256.148804 181.632248
v 473.260986 256.148804 177.845322
v 477.412811 256.148804 168.702896
vt 0.594079 0.134798
vt 0.591838 0.134865
vt 0.590374 0.098221
vt 0.592609 0.098082
vt 0.567743 0.088933
vt 0.565851 0.089105
vt 0.560131 0.053645
vt 0.561913 0.052852
vt 0.342818 0.005978
vt 0.342447 0.003943
vt 0.494267 0.003908
vt 0.493897 0.005942
vt 0.028294 0.837452
vt 0.030528 0.837775
vt 0.006109 0.988005
vt 0.003906 0.987479
vt 0.033577 0.785478
vt 0.035932 0.785691
vt 0.297609 0.026326
vt 0.295074 0.025493
vt 0.269010 0.088955
vt 0.270902 0.089126
vt 0.270983 0.781343
vt 0.269092 0.783200
vt 0.037894 0.714545
vt 0.035657 0.714567
vt 0.003994 0.015888
vt 0.006194 0.015067
vt 0.567761 0.783180
vt 0.565870 0.781323
vt 0.581400 0.831790
vt 0.579174 0.831063
vt 0.276613 0.053713
vt 0.539087 0.026217
vt 0.591250 0.802172
vt 0.590434 0.832284
vt 0.579046 0.013115
vt 0.581236 0.012487
vt 0.589581 0.063682
vt 0.587241 0.064060
vt 0.541652 0.025401
vt 0.037743 0.751353
vt 0.035507 0.751316
vt 0.274831 0.052920
vt 0.601073 0.266906
vt 0.622940 0.299837
vt 0.615452 0.702028
vt 0.591822 0.761892
vt 0.602001 0.097597
vt 0.603397 0.134617
vt 0.590590 0.010650
vt 0.598621 0.062318
vt 0.039845 0.839173
vt 0.015382 0.989623
vt 0.045039 0.786445
vt 0.047308 0.714321
vt 0.047159 0.751473
vt 0.015597 0.014834
vt 0.603626 0.097485
vt 0.605023 0.134535
vt 0.592285 0.009891
vt 0.600322 0.062012
vt 0.041602 0.839404
vt 0.017089 0.990245
vt 0.046754 0.786626
vt 0.048946 0.714360
vt 0.048788 0.751525
vt 0.017149 0.013051
vt 0.624526 0.299483
vt 0.617072 0.702209
vt 0.593470 0.762042
vt 0.592894 0.802260
vt 0.602694 0.266458
vt 0.564500 0.791618
vt 0.562712 0.789678
vt 0.556778 0.795173
vt 0.555080 0.793138
vt 0.280075 0.795192
vt 0.272353 0.791637
vt 0.274141 0.789696
vt 0.281772 0.793156
vt 0.970214 0.218538
vt 0.970214 0.220717
vt 0.960986 0.220717
vt 0.960986 0.218538
vt 0.949832 0.220717
vt 0.951609 0.218538
vt 0.660099 0.220717
vt 0.650939 0.220717
vt 0.650939 0.218538
vt 0.660099 0.218538
vt 0.669444 0.218538
vt 0.671224 0.220717
vt 0.949832 0.230393
vt 0.949832 0.232801
vt 0.671224 0.232801
vt 0.671224 0.230393
vt 0.591943 0.834231
vt 0.650939 0.230393
vt 0.660099 0.230393
vt 0.660099 0.232801
vt 0.650939 0.232801
vt 0.960986 0.230393
vt 0.960986 0.232801
vt 0.970214 0.230393
vt 0.970214 0.232801
vn -0.072892 0.062828 0.995359
vn -0.069702 0.332559 0.940503
vn -0.305756 0.337558 0.890263
vn -0.324559 0.062861 0.943774
vn -0.032238 0.899213 0.436322
vn -0.000484 0.999979 0.006547
vn -0.002425 0.999971 0.007187
vn -0.138022 0.902008 0.409063
vn -0.067891 0.997667 -0.007122
vn -0.463801 0.884534 -0.049884
vn -0.472771 0.878926 0.063054
vn -0.071390 0.997405 0.009303
vn -0.944430 0.309758 -0.110007
vn -0.992841 0.060196 -0.103164
vn -0.989938 0.059265 0.128496
vn -0.943529 0.302061 0.136061
vn -0.992841 0.060196 -0.103164
vn -0.944430 0.309758 -0.110007
vn -0.861609 0.236521 -0.449097
vn -0.878441 0.052084 -0.475004
vn -0.463801 0.884534 -0.049884
vn -0.067891 0.997667 -0.007122
vn -0.015450 0.999851 -0.007721
vn -0.373557 0.893384 -0.249639
vn -0.032319 0.898618 -0.437540
vn -0.000415 0.999984 -0.005605
vn 0.000378 0.999973 -0.007286
vn 0.062874 0.920147 -0.386493
vn -0.073931 0.063421 -0.995245
vn -0.069814 0.331549 -0.940851
vn 0.061449 0.349391 -0.934960
vn 0.090050 0.061787 -0.994019
vn -0.000484 0.999979 0.006547
vn -0.032238 0.899213 0.436322
vn 0.062871 0.920150 0.386487
vn 0.000439 0.999964 0.008502
vn -0.069702 0.332559 0.940503
vn -0.072892 0.062828 0.995359
vn 0.090051 0.061788 0.994019
vn 0.061448 0.349393 0.934959
vn -0.000415 0.999984 -0.005605
vn -0.002068 0.999979 -0.006129
vn -0.002425 0.999971 0.007187
vn -0.000484 0.999979 0.006547
vn -0.015450 0.999851 -0.007721
vn -0.067891 0.997667 -0.007122
vn -0.071390 0.997405 0.009303
vn -0.018616 0.999783 0.009303
vn 0.090051 0.061788 0.994019
vn -0.000006 0.014175 0.999900
vn 0.084872 0.012539 0.996313
vn 0.000378 0.999973 -0.007286
vn -0.000415 0.999984 -0.005605
vn -0.000484 0.999979 0.006547
vn 0.000439 0.999964 0.008502
vn -0.943529 0.302061 0.136061
vn -0.989938 0.059265 0.128496
vn -0.878434 0.051864 0.475041
vn -0.861890 0.235167 0.449268
vn -0.071390 0.997405 0.009303
vn -0.472771 0.878926 0.063054
vn -0.372010 0.894055 0.249546
vn -0.018616 0.999783 0.009303
vn -0.324559 0.062864 -0.943774
vn -0.305756 0.337563 -0.890261
vn -0.069814 0.331549 -0.940851
vn -0.073931 0.063421 -0.995245
vn -0.138057 0.902005 -0.409057
vn -0.002068 0.999979 -0.006129
vn -0.000415 0.999984 -0.005605
vn -0.032319 0.898618 -0.437540
vn 0.001208 0.001815 0.999998
vn 0.000447 0.001278 0.999999
vn -0.000622 0.001516 0.999999
vn -0.000878 0.001603 0.999998
vn -0.325266 0.011013 0.945559
vn -0.072974 0.010533 0.997278
vn -0.072892 0.062828 0.995359
vn -0.324559 0.062861 0.943774
vn -0.989938 0.059265 0.128496
vn -0.991892 0.011371 0.126576
vn -0.879326 0.011743 0.476076
vn -0.878434 0.051864 0.475041
vn -0.992841 0.060196 -0.103164
vn -0.994773 0.011309 -0.101481
vn -0.991892 0.011371 0.126576
vn -0.989938 0.059265 0.128496
vn -0.994773 0.011309 -0.101481
vn -0.992841 0.060196 -0.103164
vn -0.878441 0.052084 -0.475004
vn -0.879342 0.011740 -0.476046
vn -0.324559 0.062864 -0.943774
vn -0.073931 0.063421 -0.995245
vn -0.074093 0.010481 -0.997196
vn -0.325264 0.011016 -0.945559
vn -0.074093 0.010481 -0.997196
vn -0.073931 0.063421 -0.995245
vn 0.090050 0.061787 -0.994019
vn 0.084871 0.012539 -0.996313
vn -0.095715 0.956576 0.275319
vn -0.020598 0.960120 0.278830
vn -0.072974 0.010533 0.997278
vn -0.325266 0.011013 0.945559
vn -0.991892 0.011371 0.126576
vn -0.281774 0.958747 0.037531
vn -0.252930 0.958476 0.131722
vn -0.879326 0.011743 0.476076
vn -0.994773 0.011309 -0.101481
vn -0.283036 0.958631 -0.030282
vn -0.281774 0.958747 0.037531
vn -0.991892 0.011371 0.126576
vn -0.283036 0.958631 -0.030282
vn -0.994773 0.011309 -0.101481
vn -0.879342 0.011740 -0.476046
vn -0.252925 0.958478 -0.131718
vn -0.325264 0.011016 -0.945559
vn -0.074093 0.010481 -0.997196
vn -0.020923 0.960043 -0.279070
vn -0.095712 0.956578 -0.275314
vn -0.020923 0.960043 -0.279070
vn -0.074093 0.010481 -0.997196
vn 0.084871 0.012539 -0.996313
vn 0.014590 0.948058 -0.317762
vn 0.500706 0.812188 0.299408
vn -0.364159 0.886916 0.284196
vn -0.000622 0.001516 0.999999
vn 0.000447 0.001278 0.999999
vn -0.365098 0.889600 0.274438
vn 0.000000 0.962540 0.271140
vn -0.000006 0.014175 0.999900
vn -0.000878 0.001603 0.999998
vn 0.001208 0.001815 0.999998
vn -0.072974 0.010533 0.997278
vn -0.020598 0.960120 0.278830
vn 0.503156 0.816101 0.284277
vn 0.000447 0.001278 0.999999
vn 0.001208 0.001815 0.999998
vn 0.503156 0.816101 0.284277
vn 0.500706 0.812188 0.299408
vn -0.365098 0.889600 0.274438
vn -0.000878 0.001603 0.999998
vn -0.000622 0.001516 0.999999
vn -0.364159 0.886916 0.284196
vn 0.062871 0.920150 0.386487
vn 0.226296 0.946077 0.231794
vn 0.007506 0.999942 0.007690
vn 0.000439 0.999964 0.008502
vn 0.226296 0.946077 0.231794
vn 0.413914 0.910052 0.021938
vn 0.146435 0.989219 0.001880
vn 0.007506 0.999942 0.007690
vn 0.416283 0.909036 -0.019016
vn 0.226302 0.946074 -0.231800
vn 0.006434 0.999958 -0.006591
vn 0.146411 0.989223 -0.001596
vn 0.226302 0.946074 -0.231800
vn 0.062874 0.920147 -0.386493
vn 0.000378 0.999973 -0.007286
vn 0.006434 0.999958 -0.006591
vn 0.014590 0.948058 -0.317762
vn 0.084871 0.012539 -0.996313
vn 0.374846 0.015019 -0.926966
vn 0.159860 0.973463 -0.163753
vn 0.920458 0.015300 -0.390542
vn 0.999713 0.012857 -0.020232
vn 0.345045 0.938579 -0.003667
vn 0.159860 0.973463 -0.163753
vn 0.374848 0.015019 0.926965
vn 0.084872 0.012539 0.996313
vn 0.014590 0.948066 0.317740
vn 0.159855 0.973464 0.163748
vn 0.343257 0.939232 0.004277
vn 0.999637 0.012854 0.023686
vn 0.920458 0.015293 0.390542
vn 0.159855 0.973464 0.163748
vn 0.998233 0.055312 -0.021739
vn 0.939663 0.341819 -0.013873
vn 0.939358 0.342551 0.016281
vn 0.998122 0.055722 0.025434
vn 0.416283 0.909036 -0.019016
vn 0.146411 0.989223 -0.001596
vn 0.146435 0.989219 0.001880
vn 0.413914 0.910052 0.021938
vn 0.999713 0.012857 -0.020232
vn 0.998233 0.055312 -0.021739
vn 0.998122 0.055722 0.025434
vn 0.999637 0.012854 0.023686
vn 0.345045 0.938579 -0.003667
vn 0.999713 0.012857 -0.020232
vn 0.999637 0.012854 0.023686
vn 0.343257 0.939232 0.004277
vn -0.000006 0.014175 0.999900
vn 0.000000 0.962540 0.271140
vn 0.014590 0.948066 0.317740
vn 0.084872 0.012539 0.996313
vn 0.090051 0.061788 0.994019
vn 0.373818 0.075599 0.924416
vn 0.340713 0.417191 0.842536
vn 0.061448 0.349393 0.934959
vn 0.917841 0.076881 0.389431
vn 0.998122 0.055722 0.025434
vn 0.939358 0.342551 0.016281
vn 0.834131 0.423053 0.353909
vn 0.998233 0.055312 -0.021739
vn 0.917841 0.076883 -0.389432
vn 0.834128 0.423058 -0.353910
vn 0.939663 0.341819 -0.013873
vn 0.373816 0.075597 -0.924417
vn 0.090050 0.061787 -0.994019
vn 0.061449 0.349391 -0.934960
vn 0.340712 0.417180 -0.842542
vn 0.090050 0.061787 -0.994019
vn 0.373816 0.075597 -0.924417
vn 0.374846 0.015019 -0.926966
vn 0.084871 0.012539 -0.996313
vn 0.917841 0.076883 -0.389432
vn 0.998233 0.055312 -0.021739
vn 0.999713 0.012857 -0.020232
vn 0.920458 0.015300 -0.390542
vn 0.998122 0.055722 0.025434
vn 0.917841 0.076881 0.389431
vn 0.920458 0.015293 0.390542
vn 0.999637 0.012854 0.023686
vn 0.373818 0.075599 0.924416
vn 0.090051 0.061788 0.994019
vn 0.084872 0.012539 0.996313
vn 0.374848 0.015019 0.926965
vn 0.006434 0.999958 -0.006591
vn 0.000378 0.999973 -0.007286
vn 0.000439 0.999964 0.008502
vn 0.007506 0.999942 0.007690
vn 0.146411 0.989223 -0.001596
vn 0.006434 0.999958 -0.006591
vn 0.007506 0.999942 0.007690
vn 0.146435 0.989219 0.001880
vn -0.861890 0.235167 0.449268
vn -0.878434 0.051864 0.475041
vn -0.324559 0.062861 0.943774
vn -0.305756 0.337558 0.890263
vn -0.018616 0.999783 0.009303
vn -0.372010 0.894055 0.249546
vn -0.138022 0.902008 0.409063
vn -0.002425 0.999971 0.007187
vn -0.878434 0.051864 0.475041
vn -0.879326 0.011743 0.476076
vn -0.325266 0.011013 0.945559
vn -0.324559 0.062861 0.943774
vn -0.002068 0.999979 -0.006129
vn -0.015450 0.999851 -0.007721
vn -0.018616 0.999783 0.009303
vn -0.002425 0.999971 0.007187
vn -0.879342 0.011740 -0.476046
vn -0.878441 0.052084 -0.475004
vn -0.324559 0.062864 -0.943774
vn -0.325264 0.011016 -0.945559
vn -0.878441 0.052084 -0.475004
vn -0.861609 0.236521 -0.449097
vn -0.305756 0.337563 -0.890261
vn -0.324559 0.062864 -0.943774
vn -0.373557 0.893384 -0.249639
vn -0.015450 0.999851 -0.007721
vn -0.002068 0.999979 -0.006129
vn -0.138057 0.902005 -0.409057
vn -0.879326 0.011743 0.476076
vn -0.252930 0.958476 0.131722
vn -0.095715 0.956576 0.275319
vn -0.325266 0.011013 0.945559
vn -0.252925 0.958478 -0.131718
vn -0.879342 0.011740 -0.476046
vn -0.325264 0.011016 -0.945559
vn -0.095712 0.956578 -0.275314
vn -0.072892 0.062828 0.995359
vn -0.072974 0.010533 0.997278
vn 0.001208 0.001815 0.999998
vn -0.000878 0.001603 0.999998
s off
g textureEditorIsolateSelectSet polySurface1 Unit_Base_09 UV1 S_U_16
usemtl set4
f 3/1/1 2/2/2 5/3/3 4/4/4
f 2/5/5 1/6/6 6/7/7 5/8/8
f 10/9/9 11/10/10 8/11/11 7/12/12
f 11/13/13 12/14/14 9/15/15 8/16/16
f 12/14/17 11/13/18 58/17/19 57/18/20
f 11/10/21 10/9/22 59/19/23 58/20/24
f 17/21/25 18/22/26 46/23/27 42/24/28
f 16/25/29 17/26/30 42/27/31 39/28/32
f 1/6/33 2/5/34 35/29/35 36/30/36
f 2/2/37 3/1/38 32/31/39 35/32/40
f 18/22/41 15/33/42 6/7/43 1/6/44
f 59/19/45 10/9/46 7/12/47 56/34/48
s 1
g textureEditorIsolateSelectSet textureEditorIsolateSelectSet1 textureEditorIsolateSelectSet2 textureEditorIsolateSelectSet3 polySurface1 Unit_Base_09 UV1 S_U_16
f 32/31/49 25/35/50 51/36/51
s off
g textureEditorIsolateSelectSet polySurface1 Unit_Base_09 UV1 S_U_16
f 46/23/52 18/22/53 1/6/54 36/30/55
f 8/37/56 9/38/57 55/39/58 54/40/59
f 7/12/60 8/11/61 54/41/62 56/34/63
f 13/42/64 14/43/65 17/26/66 16/25/67
f 14/44/68 15/33/69 18/22/70 17/21/71
g textureEditorIsolateSelectSet textureEditorIsolateSelectSet1 textureEditorIsolateSelectSet2 textureEditorIsolateSelectSet3 polySurface1 Unit_Base_09 UV1 S_U_16
f 28/45/72 26/46/73 27/47/74 29/48/75
f 20/49/76 19/50/77 3/1/78 4/4/79
f 9/38/80 21/51/81 60/52/82 55/39/83
f 12/14/84 22/53/85 21/54/86 9/15/87
f 22/53/88 12/14/89 57/18/90 61/55/91
f 13/42/92 16/25/93 23/56/94 24/57/95
f 23/56/96 16/25/97 39/28/98 50/58/99
f 62/59/100 63/60/101 19/50/102 20/49/103
f 21/51/104 64/61/105 65/62/106 60/52/107
f 22/53/108 66/63/109 64/64/110 21/54/111
f 66/63/112 22/53/113 61/55/114 67/65/115
f 24/57/116 23/56/117 68/66/118 69/67/119
f 68/66/120 23/56/121 50/58/122 70/68/123
f 71/69/124 72/70/125 27/47/126 26/46/127
f 73/71/128 74/72/129 25/35/130 29/48/131
f 28/45/132 19/50/133 63/60/134 75/73/135
f 26/46/136 28/45/137 75/73/138 71/69/139
f 73/71/140 29/48/141 27/47/142 72/70/143
g textureEditorIsolateSelectSet polySurface1 Unit_Base_09 UV1 S_U_16
f 35/29/144 34/74/145 37/75/146 36/30/147
f 34/74/148 33/76/149 38/77/150 37/75/151
f 44/78/152 43/79/153 45/80/154 47/81/155
f 43/79/156 42/24/157 46/23/158 45/80/159
g textureEditorIsolateSelectSet textureEditorIsolateSelectSet1 textureEditorIsolateSelectSet2 textureEditorIsolateSelectSet3 polySurface1 Unit_Base_09 UV1 S_U_16
f 70/82/160 50/83/161 49/84/162 76/85/163
g textureEditorIsolateSelectSet textureEditorIsolateSelectSet4 polySurface1 Unit_Base_09 UV1 S_U_16
f 49/84/164 48/86/165 77/87/166 76/85/167
g textureEditorIsolateSelectSet textureEditorIsolateSelectSet1 textureEditorIsolateSelectSet2 textureEditorIsolateSelectSet3 polySurface1 Unit_Base_09 UV1 S_U_16
f 52/88/168 51/89/169 78/90/170 79/91/171
g textureEditorIsolateSelectSet textureEditorIsolateSelectSet4 polySurface1 Unit_Base_09 UV1 S_U_16
f 80/92/172 53/93/173 52/88/174 79/91/175
g textureEditorIsolateSelectSet polySurface1 Unit_Base_09 UV1 S_U_16
f 41/94/176 44/95/177 33/96/178 30/97/179
f 44/78/180 47/81/181 38/77/182 33/76/183
g textureEditorIsolateSelectSet textureEditorIsolateSelectSet4 polySurface1 Unit_Base_09 UV1 S_U_16
f 48/86/184 41/94/185 30/97/186 53/93/187
f 77/87/188 48/86/189 53/93/190 80/92/191
g textureEditorIsolateSelectSet textureEditorIsolateSelectSet1 textureEditorIsolateSelectSet2 textureEditorIsolateSelectSet3 polySurface1 Unit_Base_09 UV1 S_U_16
f 25/35/192 74/72/193 78/98/194 51/36/195
g textureEditorIsolateSelectSet polySurface1 Unit_Base_09 UV1 S_U_16
f 32/99/196 31/100/197 34/101/198 35/102/199
f 31/100/200 30/97/201 33/96/202 34/101/203
f 41/94/204 40/103/205 43/104/206 44/95/207
f 40/103/208 39/105/209 42/106/210 43/104/211
g textureEditorIsolateSelectSet textureEditorIsolateSelectSet1 textureEditorIsolateSelectSet2 textureEditorIsolateSelectSet3 polySurface1 Unit_Base_09 UV1 S_U_16
f 39/105/212 40/103/213 49/84/214 50/83/215
g textureEditorIsolateSelectSet textureEditorIsolateSelectSet4 polySurface1 Unit_Base_09 UV1 S_U_16
f 40/103/216 41/94/217 48/86/218 49/84/219
f 30/97/220 31/100/221 52/88/222 53/93/223
g textureEditorIsolateSelectSet textureEditorIsolateSelectSet1 textureEditorIsolateSelectSet2 textureEditorIsolateSelectSet3 polySurface1 Unit_Base_09 UV1 S_U_16
f 31/100/224 32/99/225 51/89/226 52/88/227
g textureEditorIsolateSelectSet polySurface1 Unit_Base_09 UV1 S_U_16
f 45/80/228 46/23/229 36/30/230 37/75/231
f 47/81/232 45/80/233 37/75/234 38/77/235
f 54/40/236 55/39/237 4/4/238 5/3/239
f 56/34/240 54/41/241 5/8/242 6/7/243
g textureEditorIsolateSelectSet textureEditorIsolateSelectSet1 textureEditorIsolateSelectSet2 textureEditorIsolateSelectSet3 polySurface1 Unit_Base_09 UV1 S_U_16
f 55/39/244 60/52/245 20/49/246 4/4/247
g textureEditorIsolateSelectSet polySurface1 Unit_Base_09 UV1 S_U_16
f 15/33/248 59/19/249 56/34/250 6/7/251
g textureEditorIsolateSelectSet textureEditorIsolateSelectSet1 textureEditorIsolateSelectSet2 textureEditorIsolateSelectSet3 polySurface1 Unit_Base_09 UV1 S_U_16
f 61/55/252 57/18/253 13/42/254 24/57/255
g textureEditorIsolateSelectSet polySurface1 Unit_Base_09 UV1 S_U_16
f 57/18/256 58/17/257 14/43/258 13/42/259
f 58/20/260 59/19/261 15/33/262 14/44/263
g textureEditorIsolateSelectSet textureEditorIsolateSelectSet1 textureEditorIsolateSelectSet2 textureEditorIsolateSelectSet3 polySurface1 Unit_Base_09 UV1 S_U_16
f 60/52/264 65/62/265 62/59/266 20/49/267
f 67/65/268 61/55/269 24/57/270 69/67/271
s 1
f 3/1/272 19/50/273 28/45/274 29/48/275 32/31/49
f 32/31/49 29/48/275 25/35/50
g default
v -373.153931 252.549301 184.475067
v -373.076355 255.094589 183.642426
v -372.889038 256.148865 181.632248
v -418.110748 252.549210 177.454620
v -417.765137 255.094498 176.663834
v -416.930908 256.148804 174.754700
v -480.529510 252.549210 92.246765
v -479.616638 255.094498 92.078911
v -477.412842 256.148804 91.673676
v -480.529510 252.549301 -92.246819
v -479.616638 255.094589 -92.078972
v -477.412842 256.148865 -91.673737
v -418.110748 252.549301 -177.454651
v -417.765228 255.094589 -176.663849
v -416.930908 256.148865 -174.754730
v -373.153931 252.549210 -184.475067
v -373.076355 255.094498 -183.642426
v -372.889038 256.148804 -181.632263
v -372.889038 215.811996 181.632248
v -373.076355 216.866318 183.642426
v -373.153931 219.411545 184.475067
v -416.930908 215.811996 174.754700
v -417.765137 216.866318 176.663834
v -418.110748 219.411545 177.454620
v -477.414429 215.811996 91.673965
v -479.617188 216.866837 92.078995
v -480.529510 219.413406 92.246765
v -480.529510 219.413467 -92.246819
v -479.616638 216.866837 -92.083435
v -477.412842 215.811996 -91.688972
v -418.110748 219.411606 -177.454666
v -417.765228 216.866318 -176.663895
v -416.930908 215.811996 -174.754761
v -372.889038 215.811996 -181.632263
v -373.076355 216.866318 -183.642426
v -373.153931 219.411545 -184.475067
v 424.904297 -0.000092 183.642395
v 427.108215 -0.000092 184.475037
v 423.991516 252.549210 184.475067
v 423.991516 255.094498 183.642426
v 423.991516 256.148804 181.632248
v 93.108994 -0.000008 183.642426
v 90.905075 -0.000008 184.475067
v -175.836975 -0.000008 183.642426
v -176.749847 -0.000008 181.632248
v -173.633163 -0.000008 184.475067
v -176.749847 -0.000008 -181.632263
v -175.836975 -0.000008 -183.642426
v -173.633163 -0.000008 -184.475067
v -181.550659 219.411545 184.475067
v -175.952179 216.733292 184.475067
v -173.633163 210.267380 184.475067
v -183.754471 216.866318 183.642426
v -178.156006 214.188004 183.642426
v -175.836975 207.722092 183.642426
v -176.749847 206.667770 181.632248
v -179.068771 213.133713 181.632248
v -184.667252 215.811996 181.632248
v 93.108994 207.722031 183.642426
v 95.427902 214.188004 183.642426
v 101.026276 216.866318 183.642426
v 90.905075 210.267593 184.475067
v 93.224197 216.733353 184.475067
v 98.822784 219.411545 184.475067
v -175.836975 207.722092 -183.642426
v -178.156006 214.188004 -183.642426
v -183.754471 216.866318 -183.642426
v -184.667252 215.811996 -181.632263
v -179.068771 213.133713 -181.632263
v -176.749847 206.667770 -181.632263
v -173.633163 210.267380 -184.475067
v -175.952179 216.733292 -184.475067
v -181.550659 219.411545 -184.475067
v 424.904297 207.721970 183.642426
v 422.585388 214.187943 183.642426
v 416.986786 216.866257 183.642426
v 419.190521 219.411484 184.475037
v 424.789093 216.733292 184.475037
v 427.108215 210.267502 184.475037
v -216.590271 252.452560 184.475067
v -215.413910 254.997849 183.642426
v -214.926651 256.052124 181.632248
v -177.192398 228.152054 183.642426
v -176.705139 229.206345 181.632248
v -178.413467 225.510025 184.475067
v 375.372925 252.482559 184.475067
v 374.589539 255.027847 183.642426
v 374.265076 256.082153 181.632248
v 304.595093 228.121933 183.642426
v 304.270630 229.176224 181.632248
v 305.378479 225.576645 184.475067
v 466.354340 -0.000031 184.475037
v 476.377655 -0.000016 180.688034
v 480.529510 -0.000008 171.545425
v 465.441772 255.094498 183.642426
v 475.464905 255.094498 179.855408
v 479.616760 255.094498 170.712708
v 463.237427 256.148804 181.632248
v 473.260986 256.148804 177.845322
v 477.412811 256.148804 168.702896
v 480.529510 252.549210 171.545441
v 476.377655 252.549210 180.688065
v 466.354340 252.549210 184.475067
v 479.616760 255.094589 -170.712723
v 475.464905 255.094589 -179.855408
v 465.441772 255.094589 -183.642426
v 477.412811 256.148865 -168.702942
v 473.260986 256.148865 -177.845352
v 463.237427 256.148865 -181.632263
v 466.354340 252.549301 -184.475067
v 476.377655 252.549301 -180.688065
v 480.529510 252.549301 -171.545441
v 480.529510 -0.000008 -171.545441
v 476.377655 -0.000008 -180.688065
v 466.354340 -0.000008 -184.475067
v -453.475677 252.549240 151.722534
v -452.735718 255.094528 151.172073
v -450.949402 256.148804 149.843216
v -453.475677 252.549301 -151.722580
v -452.735718 255.094589 -151.172150
v -450.949402 256.148865 -149.843231
v -451.713257 215.811996 148.142044
v -452.739838 216.867081 151.166183
v -453.475677 219.414291 151.722534
v -451.696869 215.811996 -148.173676
v -452.736267 216.867081 -151.172592
v -453.475677 219.414291 -151.722610
v 101.026276 216.866318 161.284500
v 95.427902 214.188004 161.284500
v 93.108994 207.722031 161.284500
v 416.986786 216.866257 161.284500
v 422.585388 214.187943 161.284500
v 424.904297 207.721970 161.284500
v 93.108994 -0.000008 161.284500
v 424.904297 -0.000092 161.284470
vt 0.077440 0.844248
vt 0.075449 0.843976
vt 0.080508 0.789282
vt 0.082585 0.791051
vt 0.073215 0.843688
vt 0.078283 0.789138
vt 0.084572 0.752635
vt 0.082673 0.752560
vt 0.082898 0.714308
vt 0.084786 0.714242
vt 0.080443 0.752445
vt 0.080666 0.714335
vt 0.609146 0.134386
vt 0.607721 0.097241
vt 0.634990 0.095120
vt 0.637032 0.133516
vt 0.631326 0.059084
vt 0.604466 0.061313
vt 0.596498 0.008440
vt 0.625006 0.003906
vt 0.045849 0.839988
vt 0.048638 0.995879
vt 0.021262 0.991460
vt 0.050946 0.787028
vt 0.052893 0.751625
vt 0.053089 0.714377
vt 0.229470 0.003907
vt 0.256987 0.531680
vt 0.080904 0.545700
vt 0.818208 0.308062
vt 0.810813 0.525268
vt 0.637334 0.524408
vt 0.641310 0.301932
vt 0.606914 0.134446
vt 0.605507 0.097361
vt 0.605023 0.134535
vt 0.603626 0.097485
vt 0.594248 0.009056
vt 0.602270 0.061666
vt 0.592285 0.009891
vt 0.600322 0.062012
vt 0.043615 0.839671
vt 0.019051 0.990932
vt 0.041602 0.839404
vt 0.017089 0.990245
vt 0.048724 0.786829
vt 0.046754 0.786626
vt 0.050674 0.751581
vt 0.050847 0.714396
vt 0.048788 0.751525
vt 0.048946 0.714360
vt 0.018958 0.011153
vt 0.021157 0.010332
vt 0.017149 0.013051
vt 0.641157 0.133443
vt 0.639267 0.133455
vt 0.637218 0.094926
vt 0.639117 0.094784
vt 0.627319 0.003980
vt 0.629395 0.004332
vt 0.635577 0.057144
vt 0.633545 0.058919
vt 0.052966 0.996077
vt 0.050895 0.996094
vt 0.077816 0.555507
vt 0.075892 0.554662
vt 0.073573 0.552816
vt 0.643628 0.300044
vt 0.638285 0.297964
vt 0.639794 0.296555
vt 0.644742 0.298245
vt 0.636129 0.293233
vt 0.638023 0.292310
vt 0.077972 0.549820
vt 0.079539 0.551160
vt 0.083305 0.547478
vt 0.084503 0.549221
vt 0.626968 0.796871
vt 0.629100 0.801714
vt 0.626822 0.803513
vt 0.624694 0.798680
vt 0.634423 0.803791
vt 0.632218 0.805683
vt 0.633857 0.295159
vt 0.810820 0.527239
vt 0.639483 0.526388
vt 0.257232 0.533627
vt 0.257463 0.535455
vt 0.818362 0.306101
vt 0.818507 0.304260
vt 0.629489 0.531080
vt 0.631697 0.532899
vt 0.807263 0.810057
vt 0.807188 0.812026
vt 0.635990 0.299924
vt 0.634038 0.528255
vt 0.631837 0.526370
vt 0.075595 0.547964
vt 0.604586 0.265846
vt 0.602694 0.266458
vt 0.626414 0.298905
vt 0.624526 0.299483
vt 0.618968 0.702519
vt 0.628747 0.297863
vt 0.621207 0.703104
vt 0.606859 0.264852
vt 0.595380 0.762287
vt 0.593470 0.762042
vt 0.617072 0.702209
vt 0.594793 0.802357
vt 0.592894 0.802260
vt 0.597660 0.762730
vt 0.597020 0.802464
vt 0.667530 0.215927
vt 0.660099 0.215927
vt 0.660099 0.213496
vt 0.667530 0.213496
vt 0.650939 0.215927
vt 0.650939 0.213496
vt 0.970214 0.215927
vt 0.960986 0.215927
vt 0.960986 0.213496
vt 0.970214 0.213496
vt 0.953521 0.215927
vt 0.953521 0.213496
vt 0.667530 0.003908
vt 0.953521 0.003908
vt 0.595887 0.837281
vt 0.593722 0.836285
vt 0.591943 0.834231
vt 0.951609 0.218538
vt 0.669444 0.218538
vt 0.660099 0.003908
vt 0.650939 0.003908
vt 0.660099 0.218538
vt 0.650939 0.218538
vt 0.960986 0.218538
vt 0.970214 0.218538
vt 0.960986 0.003908
vt 0.970214 0.003908
vt 0.805947 0.844822
vt 0.273314 0.869765
vt 0.268141 0.869765
vt 0.268142 0.851130
vt 0.273315 0.851130
vt 0.262415 0.869765
vt 0.262416 0.851130
vt 0.541841 0.869777
vt 0.536668 0.869777
vt 0.536669 0.851141
vt 0.541841 0.851141
vt 0.547566 0.869777
vt 0.547567 0.851142
vt 0.089279 0.869758
vt 0.089279 0.851122
vt 0.720703 0.869784
vt 0.720704 0.851149
vn -0.043591 -0.999038 -0.004684
vn -0.424051 -0.904513 -0.045134
vn -0.311111 -0.928158 -0.204285
vn -0.012617 -0.999902 -0.006117
vn -0.934297 -0.342041 -0.100491
vn -0.989024 -0.102724 -0.106201
vn -0.877405 -0.102754 -0.468618
vn -0.831230 -0.342632 -0.437791
vn -0.002159 -0.999978 -0.006272
vn -0.140457 -0.902024 -0.408197
vn -0.032801 -0.898624 -0.437493
vn -0.000446 -0.999982 -0.005948
vn -0.310485 -0.337536 -0.888633
vn -0.328412 -0.100688 -0.939152
vn -0.074767 -0.101173 -0.992055
vn -0.070840 -0.331551 -0.940774
vn -0.063467 0.010916 0.997924
vn -0.330174 0.012644 0.943836
vn -0.328419 -0.100746 0.939144
vn -0.065102 -0.054889 0.996368
vn -0.877377 -0.102683 0.468685
vn -0.882629 0.012915 0.469892
vn -0.991108 0.012938 0.132433
vn -0.985937 -0.102848 0.131718
vn -0.994192 0.012920 -0.106842
vn -0.989024 -0.102724 -0.106201
vn -0.985937 -0.102848 0.131718
vn -0.991108 0.012938 0.132433
vn -0.989024 -0.102724 -0.106201
vn -0.994192 0.012920 -0.106842
vn -0.882629 0.012916 -0.469892
vn -0.877405 -0.102754 -0.468618
vn -0.330172 0.012644 -0.943836
vn -0.075170 0.012816 -0.997088
vn -0.074767 -0.101173 -0.992055
vn -0.328412 -0.100688 -0.939152
vn 0.077368 -0.003221 -0.996997
vn -0.005808 -0.003560 -0.999977
vn -0.003139 -0.000067 -0.999995
vn -0.006039 -0.003624 0.999975
vn 0.006039 -0.003624 0.999975
vn 0.003283 -0.000070 0.999995
vn -0.003283 -0.000070 0.999995
vn -0.063467 0.010916 0.997924
vn -0.069455 0.328470 0.941957
vn -0.310435 0.337636 0.888613
vn -0.330174 0.012644 0.943836
vn -0.032321 0.898625 0.437525
vn -0.020598 0.960120 0.278830
vn -0.095715 0.956576 0.275319
vn -0.141698 0.902101 0.407598
vn -0.931167 0.342736 0.124336
vn -0.991108 0.012938 0.132433
vn -0.882629 0.012915 0.469892
vn -0.831162 0.342889 0.437717
vn -0.281774 0.958747 0.037531
vn -0.421846 0.904925 0.056186
vn -0.371521 0.905585 0.204668
vn -0.252930 0.958476 0.131722
vn -0.934246 0.342234 -0.100303
vn -0.994192 0.012920 -0.106842
vn -0.991108 0.012938 0.132433
vn -0.931167 0.342736 0.124336
vn -0.283036 0.958631 -0.030282
vn -0.423837 0.904603 -0.045347
vn -0.421846 0.904925 0.056186
vn -0.281774 0.958747 0.037531
vn -0.994192 0.012920 -0.106842
vn -0.934246 0.342234 -0.100303
vn -0.831152 0.342914 -0.437717
vn -0.882629 0.012916 -0.469892
vn -0.423837 0.904603 -0.045347
vn -0.283036 0.958631 -0.030282
vn -0.252925 0.958478 -0.131718
vn -0.371503 0.905595 -0.204655
vn -0.330172 0.012644 -0.943836
vn -0.310437 0.337621 -0.888617
vn -0.070839 0.331550 -0.940774
vn -0.075170 0.012816 -0.997088
vn -0.141698 0.902106 -0.407587
vn -0.095712 0.956578 -0.275314
vn -0.020923 0.960043 -0.279070
vn -0.032801 0.898626 -0.437488
vn -0.075170 0.012816 -0.997088
vn -0.070839 0.331550 -0.940774
vn 0.055004 0.347479 -0.936073
vn 0.077985 0.012020 -0.996882
vn -0.032801 0.898626 -0.437488
vn -0.020923 0.960043 -0.279070
vn 0.014590 0.948058 -0.317762
vn 0.058361 0.918770 -0.390456
vn -0.000599 -0.999981 0.006155
vn -0.042490 -0.898630 0.436645
vn -0.140449 -0.902099 0.408034
vn -0.002524 -0.999970 0.007330
vn -0.115247 -0.331382 0.936432
vn -0.065102 -0.054889 0.996368
vn -0.328419 -0.100746 0.939144
vn -0.310487 -0.337684 0.888576
vn -0.422018 -0.904844 0.056207
vn -0.045066 -0.998966 0.006002
vn -0.015060 -0.999860 0.007292
vn -0.310657 -0.928321 0.204239
vn -0.985937 -0.102848 0.131718
vn -0.931217 -0.342599 0.124340
vn -0.831369 -0.342567 0.437577
vn -0.877377 -0.102683 0.468685
vn -0.424051 -0.904513 -0.045134
vn -0.043591 -0.999038 -0.004684
vn -0.045066 -0.998966 0.006002
vn -0.422018 -0.904844 0.056207
vn -0.989024 -0.102724 -0.106201
vn -0.934297 -0.342041 -0.100491
vn -0.931217 -0.342599 0.124340
vn -0.985937 -0.102848 0.131718
vn -0.060564 -0.998150 -0.005347
vn -0.000446 -0.999982 -0.005948
vn -0.032801 -0.898624 -0.437493
vn -0.084261 -0.880194 -0.467076
vn -0.070840 -0.331551 -0.940774
vn -0.074767 -0.101173 -0.992055
vn -0.006887 -0.051813 -0.998633
vn -0.011919 -0.321227 -0.946927
vn -0.918266 -0.012549 0.395766
vn -0.819601 -0.293940 0.491786
vn -0.941269 -0.337575 0.007504
vn -0.999936 -0.009425 0.006189
vn -0.365939 -0.764922 0.530079
vn -0.054661 -0.887283 0.457975
vn -0.047943 -0.998819 0.007833
vn -0.431539 -0.902056 0.008305
vn -0.084261 -0.880194 -0.467076
vn -0.365935 -0.764921 -0.530082
vn -0.431542 -0.902065 -0.007142
vn -0.060564 -0.998150 -0.005347
vn -0.819600 -0.293942 -0.491786
vn -0.918265 -0.012549 -0.395768
vn -0.999941 -0.009430 -0.005323
vn -0.941275 -0.337579 -0.006454
vn -0.003876 -0.327467 0.944855
vn -0.195316 -0.169116 0.966049
vn -0.070603 -0.061135 0.995629
vn -0.002350 -0.047232 0.998881
vn -0.195316 -0.169116 0.966049
vn -0.373054 -0.001827 0.927808
vn -0.010572 -0.000226 0.999944
vn -0.070603 -0.061135 0.995629
vn -0.009348 -0.323224 0.946276
vn -0.003407 -0.031420 0.999501
vn -0.065102 -0.054889 0.996368
vn -0.115247 -0.331382 0.936432
vn -0.054661 -0.887283 0.457975
vn -0.042490 -0.898630 0.436645
vn -0.000599 -0.999981 0.006155
vn -0.047943 -0.998819 0.007833
vn 0.003283 -0.000070 0.999995
vn 0.006039 -0.003624 0.999975
vn 0.374582 -0.002275 0.927191
vn 0.373064 -0.001827 0.927804
vn -0.920690 -0.002331 -0.390287
vn -0.999984 -0.003773 -0.004312
vn -0.999941 -0.009430 -0.005323
vn -0.918265 -0.012549 -0.395768
vn -0.005808 -0.003560 -0.999977
vn -0.374591 -0.002275 -0.927188
vn -0.373072 -0.001827 -0.927801
vn -0.003139 -0.000067 -0.999995
vn -0.374588 -0.002275 0.927189
vn -0.006039 -0.003624 0.999975
vn -0.003283 -0.000070 0.999995
vn -0.373069 -0.001827 0.927802
vn -0.999936 -0.009425 0.006189
vn -0.999980 -0.003771 0.005015
vn -0.920691 -0.002331 0.390285
vn -0.918266 -0.012549 0.395766
vn -0.002350 -0.047232 0.998881
vn 0.005146 -0.079324 0.996836
vn 0.005179 -0.326463 0.945196
vn -0.003876 -0.327467 0.944855
vn -0.373054 -0.001827 0.927808
vn -0.374573 -0.002275 0.927195
vn -0.020956 -0.003476 0.999774
vn -0.010572 -0.000226 0.999944
vn -0.003283 -0.000070 0.999995
vn -0.070658 -0.061177 0.995623
vn -0.195322 -0.169123 0.966047
vn -0.373069 -0.001827 0.927802
vn -0.070658 -0.061177 0.995623
vn -0.003407 -0.031420 0.999501
vn -0.009348 -0.323224 0.946276
vn -0.195322 -0.169123 0.966047
vn 0.373064 -0.001827 0.927804
vn 0.195327 -0.169123 0.966046
vn 0.070657 -0.061179 0.995623
vn 0.003283 -0.000070 0.999995
vn 0.195327 -0.169123 0.966046
vn 0.005179 -0.326463 0.945196
vn 0.005146 -0.079324 0.996836
vn 0.070657 -0.061179 0.995623
vn -0.373072 -0.001827 -0.927801
vn -0.195324 -0.169122 -0.966047
vn -0.056444 -0.048871 -0.997209
vn -0.003139 -0.000067 -0.999995
vn -0.195324 -0.169122 -0.966047
vn -0.011919 -0.321227 -0.946927
vn -0.006887 -0.051813 -0.998633
vn -0.056444 -0.048871 -0.997209
vn 0.462537 0.750277 0.472381
vn 0.503156 0.816101 0.284277
vn -0.020598 0.960120 0.278830
vn -0.032321 0.898625 0.437525
vn 0.503156 0.816101 0.284277
vn 0.462537 0.750277 0.472381
vn 0.462533 0.750276 0.472387
vn 0.500706 0.812188 0.299408
vn -0.120905 0.294582 0.947947
vn 0.159978 0.259500 0.952401
vn 0.000000 0.000000 1.000000
vn -0.013664 0.033486 0.999346
vn 0.159978 0.259500 0.952401
vn 0.160008 0.259549 0.952382
vn 0.009927 0.014208 0.999850
vn 0.000000 0.000000 1.000000
vn -0.338294 0.823788 0.454895
vn -0.338108 0.823999 0.454652
vn -0.365098 0.889600 0.274438
vn -0.364159 0.886916 0.284196
vn -0.365098 0.889600 0.274438
vn -0.338108 0.823999 0.454652
vn 0.000000 0.897980 0.440036
vn 0.000000 0.962540 0.271140
vn -0.120905 0.294582 0.947947
vn -0.013664 0.033486 0.999346
vn -0.005065 0.012346 0.999911
vn -0.120981 0.294656 0.947914
vn 0.160008 0.259549 0.952382
vn -0.069455 0.328470 0.941957
vn -0.063467 0.010916 0.997924
vn 0.009927 0.014208 0.999850
vn 0.000000 0.017537 0.999846
vn 0.000000 0.330458 0.943821
vn -0.120981 0.294656 0.947914
vn -0.005065 0.012346 0.999911
vn 0.500706 0.812188 0.299408
vn 0.462533 0.750276 0.472387
vn -0.338294 0.823788 0.454895
vn -0.364159 0.886916 0.284196
vn 0.939410 0.342431 0.015812
vn 0.834147 0.423014 0.353919
vn 0.920458 0.015314 0.390542
vn 0.999663 0.010917 0.023537
vn 0.340711 0.417196 0.842534
vn 0.055004 0.347474 0.936075
vn 0.077985 0.012020 0.996882
vn 0.374846 0.015059 0.926965
vn 0.055004 0.347479 -0.936073
vn 0.340709 0.417200 -0.842533
vn 0.374846 0.015060 -0.926965
vn 0.077985 0.012020 -0.996882
vn 0.834145 0.423018 -0.353918
vn 0.939712 0.341698 -0.013530
vn 0.999737 0.010836 -0.020193
vn 0.920458 0.015314 -0.390542
vn 0.999724 -0.002921 0.023320
vn 0.999796 -0.002900 -0.020006
vn 0.999737 0.010836 -0.020193
vn 0.999663 0.010917 0.023537
vn 0.077985 0.012020 0.996882
vn 0.055004 0.347474 0.936075
vn 0.000000 0.330458 0.943821
vn 0.000000 0.017537 0.999846
vn 0.058362 0.918778 0.390437
vn 0.014590 0.948066 0.317740
vn 0.000000 0.962540 0.271140
vn 0.000000 0.897980 0.440036
vn 0.416605 0.908898 -0.018590
vn 0.345045 0.938579 -0.003667
vn 0.343257 0.939232 0.004277
vn 0.414397 0.909845 0.021375
vn 0.999737 0.010836 -0.020193
vn 0.939712 0.341698 -0.013530
vn 0.939410 0.342431 0.015812
vn 0.999663 0.010917 0.023537
vn 0.920558 -0.004108 0.390584
vn 0.999724 -0.002921 0.023320
vn 0.999663 0.010917 0.023537
vn 0.920458 0.015314 0.390542
vn 0.083395 -0.003300 0.996511
vn 0.374886 -0.004041 0.927062
vn 0.374846 0.015059 0.926965
vn 0.077985 0.012020 0.996882
vn 0.058362 0.918778 0.390437
vn 0.226293 0.946078 0.231791
vn 0.159855 0.973464 0.163748
vn 0.014590 0.948066 0.317740
vn 0.226293 0.946078 0.231791
vn 0.414397 0.909845 0.021375
vn 0.343257 0.939232 0.004277
vn 0.159855 0.973464 0.163748
vn 0.416605 0.908898 -0.018590
vn 0.226298 0.946076 -0.231797
vn 0.159860 0.973463 -0.163753
vn 0.345045 0.938579 -0.003667
vn 0.226298 0.946076 -0.231797
vn 0.058361 0.918770 -0.390456
vn 0.014590 0.948058 -0.317762
vn 0.159860 0.973463 -0.163753
vn 0.374885 -0.004040 -0.927062
vn 0.077368 -0.003221 -0.996997
vn 0.077985 0.012020 -0.996882
vn 0.374846 0.015060 -0.926965
vn 0.999796 -0.002900 -0.020006
vn 0.920558 -0.004108 -0.390585
vn 0.920458 0.015314 -0.390542
vn 0.999737 0.010836 -0.020193
vn -0.002350 -0.047232 0.998881
vn -0.070603 -0.061135 0.995629
vn 0.000000 0.017537 0.999846
vn -0.328419 -0.100746 0.939144
vn -0.330174 0.012644 0.943836
vn -0.882629 0.012915 0.469892
vn -0.877377 -0.102683 0.468685
vn -0.831162 0.342889 0.437717
vn -0.882629 0.012915 0.469892
vn -0.330174 0.012644 0.943836
vn -0.310435 0.337636 0.888613
vn -0.252930 0.958476 0.131722
vn -0.371521 0.905585 0.204668
vn -0.141698 0.902101 0.407598
vn -0.095715 0.956576 0.275319
vn -0.877405 -0.102754 -0.468618
vn -0.882629 0.012916 -0.469892
vn -0.330172 0.012644 -0.943836
vn -0.328412 -0.100688 -0.939152
vn -0.882629 0.012916 -0.469892
vn -0.831152 0.342914 -0.437717
vn -0.310437 0.337621 -0.888617
vn -0.330172 0.012644 -0.943836
vn -0.371503 0.905595 -0.204655
vn -0.252925 0.958478 -0.131718
vn -0.095712 0.956578 -0.275314
vn -0.141698 0.902106 -0.407587
vn -0.310657 -0.928321 0.204239
vn -0.015060 -0.999860 0.007292
vn -0.002524 -0.999970 0.007330
vn -0.140449 -0.902099 0.408034
vn -0.877377 -0.102683 0.468685
vn -0.831369 -0.342567 0.437577
vn -0.310487 -0.337684 0.888576
vn -0.328419 -0.100746 0.939144
vn -0.012617 -0.999902 -0.006117
vn -0.311111 -0.928158 -0.204285
vn -0.140457 -0.902024 -0.408197
vn -0.002159 -0.999978 -0.006272
vn -0.831230 -0.342632 -0.437791
vn -0.877405 -0.102754 -0.468618
vn -0.328412 -0.100688 -0.939152
vn -0.310485 -0.337536 -0.888633
vn 0.005146 -0.079324 0.996836
vn -0.003407 -0.031420 0.999501
vn -0.070658 -0.061177 0.995623
vn 0.070657 -0.061179 0.995623
vn -0.005065 0.012346 0.999911
vn -0.013664 0.033486 0.999346
vn 0.077985 0.012020 0.996882
vn -0.010572 -0.000226 0.999944
vn -0.020956 -0.003476 0.999774
vn 0.083395 -0.003300 0.996511
vn 0.000000 0.000000 1.000000
vn 0.009927 0.014208 0.999850
vn -0.065102 -0.054889 0.996368
vn -0.003283 -0.000070 0.999995
vn 0.003283 -0.000070 0.999995
vn -0.063467 0.010916 0.997924
vn 0.077985 0.012020 -0.996882
vn -0.006887 -0.051813 -0.998633
vn -0.074767 -0.101173 -0.992055
vn -0.075170 0.012816 -0.997088
vn -0.056444 -0.048871 -0.997209
vn 0.431564 -0.902083 0.000000
vn 0.431564 -0.902083 0.000000
vn 0.431564 -0.902083 0.000000
vn 0.431564 -0.902083 0.000000
vn 0.941297 -0.337579 0.000000
vn 0.941297 -0.337579 0.000000
vn 0.941297 -0.337579 0.000000
vn 0.941297 -0.337579 0.000000
vn -0.431548 -0.902090 0.000000
vn -0.431548 -0.902090 0.000000
vn -0.431548 -0.902090 0.000000
vn -0.431548 -0.902090 0.000000
vn -0.941298 -0.337578 0.000000
vn -0.941298 -0.337578 0.000000
vn -0.941298 -0.337578 0.000000
vn -0.941298 -0.337578 0.000000
vn 1.000000 0.000000 0.000000
vn 1.000000 0.000000 0.000000
vn 1.000000 0.000000 0.000000
vn 1.000000 0.000000 0.000000
vn -1.000000 0.000000 0.000000
vn -1.000000 0.000000 0.000000
vn -1.000000 0.000000 0.000000
vn -1.000000 0.000000 0.000000
vn -0.000000 -1.000000 0.000000
vn -0.000000 -1.000000 0.000000
vn -0.000000 -1.000000 0.000000
vn -0.000000 -1.000000 0.000000
s off
g textureEditorIsolateSelectSet textureEditorIsolateSelectSet1 textureEditorIsolateSelectSet2 textureEditorIsolateSelectSet3 Unit_Base_09 UV1 S_U_16 polySurface2
usemtl set4
f 110/107/276 109/108/277 206/109/278 205/110/279
f 109/108/280 108/111/281 207/112/282 206/109/283
f 113/113/284 112/114/285 115/115/286 114/116/287
f 112/114/288 111/117/289 116/118/290 115/115/291
f 81/119/292 84/120/293 104/121/294 101/122/295
f 204/123/296 196/124/297 87/125/298 107/126/299
f 90/127/300 108/111/301 107/128/302 87/129/303
f 108/111/304 90/127/305 199/130/306 207/112/307
f 93/131/308 96/132/309 116/118/310 111/117/311
s 1
f 195/133/312 129/134/313 151/135/314
s off
f 126/136/315 123/137/316 142/138/317 132/139/318
f 81/119/319 82/140/320 85/141/321 84/120/322
f 82/140/323 83/142/324 86/143/325 85/141/326
f 88/144/327 87/125/328 196/124/329 197/145/330
f 89/146/331 88/144/332 197/145/333 198/147/334
f 91/148/335 90/127/336 87/129/337 88/149/338
f 92/150/339 91/148/340 88/149/341 89/151/342
f 90/127/343 91/148/344 200/152/345 199/130/346
f 91/148/347 92/150/348 201/153/349 200/152/350
f 93/131/351 94/154/352 97/155/353 96/132/354
f 94/154/355 95/156/356 98/157/357 97/155/358
f 96/132/359 97/155/360 186/158/361 190/159/362
f 97/155/363 98/157/364 189/160/365 186/158/366
f 99/161/367 100/162/368 103/163/369 102/164/370
f 100/162/371 101/122/372 104/121/373 103/163/374
f 106/165/375 105/166/376 202/167/377 203/168/378
f 107/126/379 106/165/380 203/168/381 204/123/382
f 109/108/383 110/107/384 105/169/385 106/170/386
f 108/111/387 109/108/388 106/170/389 107/128/390
f 148/171/391 114/116/392 115/115/393 147/172/394
f 115/115/395 116/118/396 153/173/397 147/172/398
f 135/174/399 134/175/400 137/176/401 136/177/402
f 134/175/403 133/178/404 138/179/405 137/176/406
f 147/172/407 146/180/408 149/181/409 148/171/410
f 146/180/411 145/182/412 150/183/413 149/181/414
f 156/184/415 155/185/416 158/186/417 157/187/418
f 155/185/419 154/188/420 159/189/421 158/186/422
f 133/178/423 130/190/424 101/122/425 100/162/426
f 133/178/427 100/162/428 99/161/429 138/179/430
f 142/138/431 123/137/432 122/191/433 139/192/434
f 128/193/435 127/194/436 150/183/437 145/182/438
f 129/134/439 128/193/440 145/182/441 151/135/442
f 124/195/443 126/136/444 132/139/445 135/174/446
f 136/177/447 125/196/448 124/195/449 135/174/450
f 157/187/451 144/197/452 141/198/453 156/184/454
f 154/188/455 117/199/456 118/200/457 159/189/458
f 132/139/459 131/201/460 134/175/461 135/174/462
f 131/201/463 130/190/464 133/178/465 134/175/466
f 139/192/467 140/202/468 143/203/469 142/138/470
f 140/202/471 141/198/472 144/197/473 143/203/474
f 145/182/475 146/180/476 152/204/477 151/135/478
f 146/180/479 147/172/480 153/173/481 152/204/482
f 161/205/483 162/206/484 83/142/485 82/140/486
f 162/206/487 161/205/488 163/207/489 164/208/490
f 169/209/491 163/207/492 165/210/493 171/211/494
f 163/207/495 161/205/496 160/212/497 165/210/498
f 169/209/499 167/213/500 168/214/501 170/215/502
f 168/214/503 167/213/504 120/216/505 121/217/506
f 169/209/507 171/211/508 166/218/509 167/213/510
f 161/205/511 82/140/512 81/119/513 160/212/514
f 119/219/515 120/216/516 167/213/517 166/218/518
f 164/208/519 163/207/520 169/209/521 170/215/522
g textureEditorIsolateSelectSet textureEditorIsolateSelectSet4 Unit_Base_09 UV1 S_U_16 polySurface2
f 177/220/523 176/221/524 182/222/525 181/223/526
g textureEditorIsolateSelectSet textureEditorIsolateSelectSet1 textureEditorIsolateSelectSet2 textureEditorIsolateSelectSet3 Unit_Base_09 UV1 S_U_16 polySurface2
f 176/221/527 175/224/528 183/225/529 182/222/530
f 186/226/531 185/227/532 191/228/533 190/229/534
g textureEditorIsolateSelectSet textureEditorIsolateSelectSet4 Unit_Base_09 UV1 S_U_16 polySurface2
f 185/227/535 184/230/536 192/231/537 191/228/538
f 174/232/539 193/233/540 192/231/541 181/223/542
g textureEditorIsolateSelectSet textureEditorIsolateSelectSet1 textureEditorIsolateSelectSet2 textureEditorIsolateSelectSet3 Unit_Base_09 UV1 S_U_16 polySurface2
f 183/234/543 175/235/544 120/216/545 119/219/546
f 175/235/547 178/236/548 121/217/549 120/216/550
g textureEditorIsolateSelectSet textureEditorIsolateSelectSet4 Unit_Base_09 UV1 S_U_16 polySurface2
f 184/230/551 187/237/552 180/238/553 177/220/554
f 192/231/555 184/230/556 177/220/557 181/223/558
f 173/239/559 174/232/560 181/223/561 182/222/562
g textureEditorIsolateSelectSet textureEditorIsolateSelectSet1 textureEditorIsolateSelectSet2 textureEditorIsolateSelectSet3 Unit_Base_09 UV1 S_U_16 polySurface2
f 172/240/563 173/239/564 182/222/565 183/225/566
f 175/224/567 176/221/568 179/241/569 178/242/570
g textureEditorIsolateSelectSet textureEditorIsolateSelectSet4 Unit_Base_09 UV1 S_U_16 polySurface2
f 176/221/571 177/220/572 180/238/573 179/241/574
f 184/230/575 185/227/576 188/243/577 187/237/578
g textureEditorIsolateSelectSet textureEditorIsolateSelectSet1 textureEditorIsolateSelectSet2 textureEditorIsolateSelectSet3 Unit_Base_09 UV1 S_U_16 polySurface2
f 185/227/579 186/226/580 189/244/581 188/243/582
f 194/245/583 195/246/584 190/229/585 191/228/586
g textureEditorIsolateSelectSet textureEditorIsolateSelectSet4 Unit_Base_09 UV1 S_U_16 polySurface2
f 193/233/587 194/245/588 191/228/589 192/231/590
s 2
g textureEditorIsolateSelectSet textureEditorIsolateSelectSet1 textureEditorIsolateSelectSet2 textureEditorIsolateSelectSet3 Unit_Base_09 UV1 S_U_16 polySurface2
f 157/187/591 158/186/592 119/219/593
s off
f 104/121/594 84/120/595 196/124/596 204/123/597
f 197/145/598 196/124/599 84/120/600 85/141/601
f 198/147/602 197/145/603 85/141/604 86/143/605
f 207/112/606 199/130/607 93/131/608 111/117/609
f 199/130/610 200/152/611 94/154/612 93/131/613
f 200/152/614 201/153/615 95/156/616 94/154/617
f 203/168/618 202/167/619 102/164/620 103/163/621
f 204/123/622 203/168/623 103/163/624 104/121/625
f 205/110/626 206/109/627 112/114/628 113/113/629
f 206/109/630 207/112/631 111/117/632 112/114/633
s 2
f 144/197/634 130/190/635 131/201/636 143/203/637
f 157/187/591 119/219/593 166/218/638 171/211/639
f 183/234/640 159/189/641 118/200/642 172/247/643
f 119/219/593 158/186/592 159/189/641 183/234/640
f 157/187/591 171/211/639 144/197/634
f 130/190/635 165/210/644 160/212/645 101/122/646
f 143/203/637 131/201/636 132/139/647 142/138/648
f 144/197/634 171/211/639 165/210/644 130/190/635
f 101/122/646 160/212/645 81/119/649
s 1
f 190/159/650 153/173/651 116/118/652 96/132/653
f 190/159/650 152/204/654 153/173/651
f 195/133/312 151/135/314 152/204/654 190/159/650
s off
f 141/248/655 140/249/656 209/250/657 208/251/658
f 140/249/659 139/252/660 210/253/661 209/250/662
f 155/254/663 156/255/664 211/256/665 212/257/666
f 154/258/667 155/254/668 212/257/669 213/259/670
f 139/252/671 122/260/672 214/261/673 210/253/674
f 117/262/675 154/258/676 213/259/677 215/263/678
f 156/255/679 141/248/680 208/251/681 211/256/682
g default
v -184.867737 7.699989 172.734497
v -183.416458 8.394279 172.734497
v -182.815277 10.070442 172.734497
v -182.815277 208.576889 172.734497
v -183.416458 210.253036 172.734497
v -184.867737 210.947372 172.734497
v -437.426483 10.070442 150.105942
v -437.007843 8.394279 150.515030
v -435.997162 7.699989 151.502762
v -435.997284 210.947372 151.502701
v -437.007935 210.253036 150.515015
v -437.426575 208.576889 150.105896
v -468.646576 10.070465 12.999189
v -468.646576 8.394310 13.547514
v -468.646576 7.700020 14.871286
v -447.948090 7.700005 136.548904
v -447.476685 8.394295 137.823120
v -447.281494 10.070450 138.350922
v -447.281494 208.576889 138.350922
v -447.381805 210.253036 137.796494
v -447.623749 210.947372 136.458054
v -468.646576 210.947372 14.871286
v -468.646576 210.253036 13.547514
v -468.646576 208.576889 12.999189
v -178.159485 -0.000008 182.132660
v -176.737259 0.666252 182.132660
v -176.148346 2.274994 182.132660
v -184.235901 6.993477 181.592361
v -182.815277 5.306572 182.132660
v -181.334305 6.007721 182.132660
v -180.723068 7.699982 182.132660
v -182.194748 9.344337 181.592377
v -182.815277 10.046547 180.279449
v -183.410324 8.387283 180.280045
v -184.847015 7.699989 180.279449
v -176.148346 216.324661 182.132660
v -176.737366 217.967056 182.132660
v -178.159485 218.647354 182.132660
v -184.235901 211.653854 181.592361
v -184.847015 210.947372 180.279449
v -183.410324 210.267105 180.289093
v -182.815277 208.624710 180.298325
v -182.202042 209.344131 181.599731
v -180.742950 210.947372 182.132660
v -181.349838 212.639938 182.132660
v -182.815277 213.340744 182.132660
v -443.344421 6.985909 157.042313
v -441.898834 7.699989 156.569565
v -442.907837 8.380264 155.599075
v -443.328430 10.022652 155.199539
v -444.768524 9.298775 155.661057
v -446.202850 7.699997 155.024475
v -445.780701 6.007057 155.437073
v -444.759766 5.306580 156.434799
v -443.344513 211.661453 157.042282
v -444.759857 213.340744 156.434784
v -445.790192 212.640396 155.427933
v -446.216858 210.947372 155.010910
v -444.765900 209.310745 155.652985
v -443.313782 208.600784 155.186798
v -442.899689 210.260086 155.592072
v -441.898926 210.947372 156.569534
v -478.357910 6.985916 14.300920
v -476.918365 7.699989 14.852413
v -476.929993 8.380264 13.541960
v -476.939087 10.022652 12.999189
v -478.365936 9.298767 12.443129
v -478.950104 7.699989 11.108957
v -478.950104 6.007538 11.661873
v -478.950104 5.306572 12.999189
v -456.227539 9.352135 141.443771
v -455.069885 10.043991 140.534027
v -455.269073 8.386520 140.017624
v -455.737213 7.699989 138.767349
v -456.876190 6.986275 139.705597
v -456.950592 5.319977 141.149643
v -456.492645 6.046989 142.387695
v -456.303528 7.802010 142.898895
v -456.617371 211.666275 139.521072
v -455.339874 210.947372 138.569122
v -455.139038 210.269363 139.960236
v -455.091339 208.629684 140.540039
v -456.229187 209.333633 141.465820
v -456.292542 210.833084 142.928802
v -456.413544 212.670700 142.429932
v -456.674438 213.428665 141.221237
v -478.357819 209.314346 12.447033
v -476.918365 208.600784 12.999189
v -476.929047 210.260086 13.536438
v -476.939087 210.947372 14.833544
v -478.365936 211.659561 14.268587
v -478.950104 213.340744 12.999189
v -478.950104 212.639938 11.662548
v -478.950104 210.947372 11.108957
v -182.792664 7.684158 181.592133
v -182.798477 210.975784 181.595551
v -444.346436 7.659119 156.068497
v -444.345947 210.976608 156.063370
v -478.361938 7.659386 12.992321
v -456.422943 7.666885 140.926346
v -456.346924 211.002365 140.890244
v -478.361725 210.978683 12.986307
v -372.134430 7.699989 173.286621
v -413.543488 7.699989 166.969315
v -372.134430 210.947372 173.286575
v -413.543488 210.947372 166.969315
v -469.168060 7.699982 90.663345
v -468.881012 210.947372 90.630074
v -479.471466 0.000000 91.850510
v -373.115906 -0.000008 182.681442
v -373.115906 5.328987 182.681442
v -373.065277 7.005402 182.133331
v -372.942902 7.699989 180.809830
v -417.544312 -0.000008 175.840836
v -417.544312 5.327469 175.840836
v -417.317474 7.003784 175.320618
v -416.769379 7.699989 174.063965
v -373.115906 218.647354 182.681442
v -372.942902 210.947372 180.809830
v -373.065277 211.641953 182.133331
v -373.115906 213.318344 182.681442
v -417.544312 218.647354 175.840836
v -416.769379 210.947372 174.064011
v -417.317474 211.643539 175.320648
v -417.544312 213.319901 175.840836
v -477.419556 7.699997 91.614098
v -478.870636 7.005157 91.781265
v -479.471466 5.328926 91.850510
v -479.218048 218.647354 91.777344
v -477.150452 210.947372 91.438278
v -478.616852 211.642105 91.677048
v -479.218048 213.318466 91.777344
v -478.950104 -0.000008 -0.028161
v -478.950104 218.647324 -0.028161
v -452.353424 212.655548 150.547028
v -452.506256 210.890228 150.587952
v -452.504730 7.751003 150.579788
v -452.388214 6.027023 150.530487
v -452.353424 218.647354 150.547028
v -452.353455 213.419159 150.547028
v -452.388214 -0.000008 150.530487
v -452.388184 5.007834 150.530487
v -184.867737 7.699989 -172.790817
v -183.416458 8.394279 -172.790817
v -182.815277 10.070442 -172.790817
v -182.815277 208.576889 -172.790817
v -183.416458 210.253036 -172.790817
v -184.867737 210.947372 -172.790817
v -437.426483 10.070442 -150.162262
v -437.007843 8.394279 -150.571350
v -435.997162 7.699989 -151.559082
v -435.997284 210.947372 -151.559021
v -437.007935 210.253036 -150.571335
v -437.426575 208.576889 -150.162216
v -468.646576 10.070465 -13.055511
v -468.646576 8.394310 -13.603835
v -468.646576 7.700020 -14.927608
v -447.948090 7.700005 -136.605225
v -447.476685 8.394295 -137.879440
v -447.281494 10.070450 -138.407242
v -447.281494 208.576889 -138.407242
v -447.381805 210.253036 -137.852814
v -447.623749 210.947372 -136.514374
v -468.646576 210.947372 -14.927608
v -468.646576 210.253036 -13.603835
v -468.646576 208.576889 -13.055511
v -178.159485 -0.000008 -182.188980
v -176.737259 0.666252 -182.188980
v -176.148346 2.274994 -182.188980
v -184.235901 6.993477 -181.648682
v -182.815277 5.306572 -182.188980
v -181.334305 6.007721 -182.188980
v -180.723068 7.699982 -182.188980
v -182.194748 9.344337 -181.648697
v -182.815277 10.046547 -180.335770
v -183.410324 8.387283 -180.336365
v -184.847015 7.699989 -180.335770
v -176.148346 216.324661 -182.188980
v -176.737366 217.967056 -182.188980
v -178.159485 218.647354 -182.188980
v -184.235901 211.653854 -181.648682
v -184.847015 210.947372 -180.335770
v -183.410324 210.267105 -180.345413
v -182.815277 208.624710 -180.354645
v -182.202042 209.344131 -181.656052
v -180.742950 210.947372 -182.188980
v -181.349838 212.639938 -182.188980
v -182.815277 213.340744 -182.188980
v -443.344421 6.985909 -157.098633
v -441.898834 7.699989 -156.625885
v -442.907837 8.380264 -155.655396
v -443.328430 10.022652 -155.255859
v -444.768524 9.298775 -155.717377
v -446.202850 7.699997 -155.080795
v -445.780701 6.007057 -155.493393
v -444.759766 5.306580 -156.491119
v -443.344513 211.661453 -157.098602
v -444.759857 213.340744 -156.491104
v -445.790192 212.640396 -155.484253
v -446.216858 210.947372 -155.067230
v -444.765900 209.310745 -155.709305
v -443.313782 208.600784 -155.243118
v -442.899689 210.260086 -155.648392
v -441.898926 210.947372 -156.625854
v -478.357910 6.985916 -14.357242
v -476.918365 7.699989 -14.908734
v -476.929993 8.380264 -13.598281
v -476.939087 10.022652 -13.055511
v -478.365936 9.298767 -12.499450
v -478.950104 7.699989 -11.165278
v -478.950104 6.007538 -11.718194
v -478.950104 5.306572 -13.055511
v -456.227539 9.352135 -141.500092
v -455.069885 10.043991 -140.590347
v -455.269073 8.386520 -140.073944
v -455.737213 7.699989 -138.823669
v -456.876190 6.986275 -139.761917
v -456.950592 5.319977 -141.205963
v -456.492645 6.046989 -142.444016
v -456.303528 7.802010 -142.955215
v -456.617371 211.666275 -139.577393
v -455.339874 210.947372 -138.625443
v -455.139038 210.269363 -140.016556
v -455.091339 208.629684 -140.596359
v -456.229187 209.333633 -141.522141
v -456.292542 210.833084 -142.985123
v -456.413544 212.670700 -142.486252
v -456.674438 213.428665 -141.277557
v -478.357819 209.314346 -12.503354
v -476.918365 208.600784 -13.055511
v -476.929047 210.260086 -13.592759
v -476.939087 210.947372 -14.889865
v -478.365936 211.659561 -14.324908
v -478.950104 213.340744 -13.055511
v -478.950104 212.639938 -11.718869
v -478.950104 210.947372 -11.165278
v -182.792664 7.684158 -181.648453
v -182.798477 210.975784 -181.651871
v -444.346436 7.659119 -156.124817
v -444.345947 210.976608 -156.119690
v -478.361938 7.659386 -13.048642
v -456.422943 7.666885 -140.982666
v -456.346924 211.002365 -140.946564
v -478.361725 210.978683 -13.042628
v -372.134430 7.699989 -173.342941
v -413.543488 7.699989 -167.025635
v -372.134430 210.947372 -173.342896
v -413.543488 210.947372 -167.025635
v -469.168060 7.699982 -90.719666
v -468.881012 210.947372 -90.686394
v -479.471466 0.000000 -91.906830
v -373.115906 -0.000008 -182.737762
v -373.115906 5.328987 -182.737762
v -373.065277 7.005402 -182.189651
v -372.942902 7.699989 -180.866150
v -417.544312 -0.000008 -175.897156
v -417.544312 5.327469 -175.897156
v -417.317474 7.003784 -175.376938
v -416.769379 7.699989 -174.120285
v -373.115906 218.647354 -182.737762
v -372.942902 210.947372 -180.866150
v -373.065277 211.641953 -182.189651
v -373.115906 213.318344 -182.737762
v -417.544312 218.647354 -175.897156
v -416.769379 210.947372 -174.120331
v -417.317474 211.643539 -175.376968
v -417.544312 213.319901 -175.897156
v -477.419556 7.699997 -91.670418
v -478.870636 7.005157 -91.837585
v -479.471466 5.328926 -91.906830
v -479.218048 218.647354 -91.833664
v -477.150452 210.947372 -91.494598
v -478.616852 211.642105 -91.733368
v -479.218048 213.318466 -91.833664
v -452.353424 212.655548 -150.603348
v -452.506256 210.890228 -150.644272
v -452.504730 7.751003 -150.636108
v -452.388214 6.027023 -150.586807
v -452.353424 218.647354 -150.603348
v -452.353455 213.419159 -150.603348
v -452.388214 -0.000008 -150.586807
v -452.388184 5.007834 -150.586807
vt 0.616805 0.295246
vt 0.616889 0.293748
vt 0.616660 0.296911
vt 0.438154 0.011534
vt 0.575780 0.514315
vt 0.439126 0.013018
vt 0.575223 0.014593
vt 0.439392 0.458039
vt 0.576573 0.015686
vt 0.557669 0.269093
vt 0.558209 0.267644
vt 0.556945 0.270670
vt 0.810701 0.010719
vt 0.688089 0.366455
vt 0.811412 0.012210
vt 0.840609 0.147382
vt 0.840762 0.145944
vt 0.840490 0.149068
vt 0.687717 0.010352
vt 0.811184 0.368356
vt 0.688265 0.011942
vt 0.721838 0.146082
vt 0.721907 0.144677
vt 0.721727 0.147756
vt 0.036334 0.313148
vt 0.037151 0.314684
vt 0.037184 0.323654
vt 0.036059 0.323629
vt 0.039052 0.315336
vt 0.039090 0.323733
vt 0.269814 0.326164
vt 0.270974 0.317333
vt 0.273322 0.317038
vt 0.271632 0.326344
vt 0.271661 0.338316
vt 0.272415 0.326458
vt 0.277726 0.327244
vt 0.274787 0.399971
vt 0.268832 0.399660
vt 0.031785 0.482258
vt 0.025517 0.496720
vt 0.027869 0.394307
vt 0.625007 0.298001
vt 0.626722 0.297638
vt 0.033821 0.394502
vt 0.446573 0.462945
vt 0.035374 0.022282
vt 0.034626 0.023970
vt 0.028822 0.018919
vt 0.029520 0.017342
vt 0.039024 0.023171
vt 0.037188 0.021505
vt 0.256290 0.011302
vt 0.697178 0.368194
vt 0.849484 0.149795
vt 0.851199 0.149353
vt 0.584028 0.516228
vt 0.564538 0.274911
vt 0.820128 0.369907
vt 0.730933 0.148709
vt 0.625260 0.295769
vt 0.625332 0.293726
vt 0.583473 0.518117
vt 0.446332 0.008631
vt 0.445345 0.464474
vt 0.581691 0.008630
vt 0.565538 0.272961
vt 0.566210 0.271137
vt 0.696726 0.370086
vt 0.819889 0.008475
vt 0.849700 0.147599
vt 0.849800 0.145689
vt 0.819589 0.371793
vt 0.696570 0.008635
vt 0.731158 0.146514
vt 0.731207 0.144640
vt 0.254622 0.013126
vt 0.263499 0.006138
vt 0.258197 0.011805
vt 0.261723 0.005891
vt 0.566342 0.275236
vt 0.732737 0.148288
vt 0.627020 0.294162
vt 0.040883 0.313650
vt 0.584922 0.519133
vt 0.446372 0.466009
vt 0.567700 0.272166
vt 0.269199 0.315476
vt 0.034472 0.484500
vt 0.036329 0.482923
vt 0.698298 0.371099
vt 0.851589 0.147555
vt 0.851559 0.146032
vt 0.259937 0.487994
vt 0.821169 0.372787
vt 0.733111 0.146490
vt 0.733015 0.144979
vt 0.261714 0.489679
vt 0.040692 0.334695
vt 0.605634 0.085311
vt 0.595297 0.039598
vt 0.543895 0.193875
vt 0.560745 0.237593
vt 0.844175 0.090134
vt 0.716373 0.060690
vt 0.038956 0.333083
vt 0.268931 0.335973
vt 0.267110 0.337627
vt 0.031259 0.016665
vt 0.036571 0.025566
vt 0.037268 0.023915
vt 0.264330 0.007415
vt 0.613949 0.083759
vt 0.602988 0.035502
vt 0.553190 0.189847
vt 0.259148 0.013293
vt 0.257408 0.015188
vt 0.571134 0.236517
vt 0.256439 0.013710
vt 0.038214 0.311501
vt 0.039027 0.313000
vt 0.273026 0.313581
vt 0.274593 0.315578
vt 0.271610 0.315032
vt 0.854857 0.087177
vt 0.032560 0.483795
vt 0.033804 0.480809
vt 0.727265 0.058546
vt 0.034520 0.482271
vt 0.036931 0.333685
vt 0.038777 0.335273
vt 0.037965 0.336665
vt 0.036038 0.335133
vt 0.270880 0.336802
vt 0.551662 0.190538
vt 0.569426 0.236727
vt 0.269542 0.339986
vt 0.853105 0.087648
vt 0.725484 0.059002
vt 0.268917 0.338374
vt 0.263670 0.489088
vt 0.261817 0.487472
vt 0.582334 0.006892
vt 0.698101 0.007444
vt 0.821348 0.007295
vt 0.447471 0.007269
vt 0.604524 0.034726
vt 0.615604 0.083483
vt 0.821651 0.370891
vt 0.698749 0.369241
vt 0.262641 0.486077
vt 0.264551 0.487602
vt 0.023362 0.228535
vt 0.567324 0.273708
vt 0.447584 0.464515
vt 0.585464 0.517296
vt 0.627125 0.295829
vt 0.029300 0.228402
vt 0.819112 0.006996
vt 0.820575 0.005880
vt 0.580280 0.007583
vt 0.580958 0.005890
vt 0.687690 0.368378
vt 0.438204 0.459617
vt 0.035694 0.277245
vt 0.029745 0.277676
vt 0.294406 0.225388
vt 0.695966 0.006980
vt 0.697446 0.005887
vt 0.445285 0.007163
vt 0.446449 0.005859
vt 0.810758 0.370278
vt 0.575293 0.516234
vt 0.288512 0.226174
vt 0.286560 0.226409
vt 0.293617 0.278392
vt 0.287886 0.277802
vt 0.286002 0.277565
vt 0.035809 0.394516
vt 0.266843 0.399537
vt 0.031263 0.228330
vt 0.037667 0.277067
vt 0.030539 0.323494
vt 0.641777 0.295250
vt 0.641693 0.293752
vt 0.633250 0.293731
vt 0.633321 0.295773
vt 0.641921 0.296916
vt 0.633575 0.298006
vt 0.683296 0.516237
vt 0.682809 0.514318
vt 0.674561 0.516231
vt 0.675116 0.518120
vt 0.433028 0.013035
vt 0.434000 0.011551
vt 0.426868 0.007182
vt 0.425821 0.008650
vt 0.434079 0.459635
vt 0.432891 0.458056
vt 0.425711 0.462964
vt 0.426940 0.464494
vt 0.681999 0.015688
vt 0.683349 0.014595
vt 0.678292 0.007586
vt 0.676880 0.008633
vt 0.314559 0.269145
vt 0.314020 0.267696
vt 0.306019 0.271191
vt 0.306692 0.273015
vt 0.315284 0.270721
vt 0.307692 0.274965
vt 0.782274 0.368362
vt 0.781876 0.366439
vt 0.772787 0.368176
vt 0.773238 0.370068
vt 0.804944 0.012216
vt 0.805656 0.010725
vt 0.797245 0.007001
vt 0.796468 0.008481
vt 0.775743 0.147388
vt 0.775589 0.145949
vt 0.766552 0.145694
vt 0.766651 0.147604
vt 0.775862 0.149073
vt 0.766867 0.149799
vt 0.805585 0.370285
vt 0.805159 0.368363
vt 0.796215 0.369914
vt 0.796753 0.371800
vt 0.781765 0.011927
vt 0.782313 0.010337
vt 0.774065 0.006963
vt 0.773461 0.008618
vt 0.748167 0.146060
vt 0.748099 0.144655
vt 0.738798 0.144616
vt 0.738847 0.146491
vt 0.748278 0.147734
vt 0.739072 0.148685
vt 0.025006 0.681019
vt 0.024800 0.670204
vt 0.025808 0.670158
vt 0.025763 0.679426
vt 0.027514 0.670044
vt 0.027502 0.678746
vt 0.255609 0.675726
vt 0.257428 0.675711
vt 0.258204 0.684890
vt 0.256144 0.684340
vt 0.258317 0.664137
vt 0.261230 0.604114
vt 0.267191 0.604288
vt 0.263554 0.675394
vt 0.258213 0.675672
vt 0.263456 0.516856
vt 0.269763 0.502385
vt 0.021088 0.980605
vt 0.015165 0.985667
vt 0.014426 0.984171
vt 0.020283 0.978973
vt 0.024837 0.979605
vt 0.244947 0.987004
vt 0.246692 0.988800
vt 0.022976 0.981304
vt 0.254385 0.993595
vt 0.252493 0.994141
vt 0.248620 0.988170
vt 0.254344 0.686077
vt 0.631859 0.297643
vt 0.673125 0.517299
vt 0.029286 0.680556
vt 0.032293 0.509499
vt 0.260778 0.514624
vt 0.258875 0.516204
vt 0.033930 0.511196
vt 0.028813 0.658759
vt 0.253688 0.664496
vt 0.255387 0.666169
vt 0.027093 0.660364
vt 0.424701 0.464535
vt 0.305889 0.275290
vt 0.016948 0.986238
vt 0.022241 0.977351
vt 0.771215 0.369223
vt 0.737268 0.148264
vt 0.765152 0.149358
vt 0.794692 0.370897
vt 0.023003 0.978943
vt 0.249493 0.986556
vt 0.255241 0.992074
vt 0.246766 0.986398
vt 0.247575 0.984831
vt 0.631561 0.294167
vt 0.631457 0.295834
vt 0.027517 0.681164
vt 0.026755 0.682714
vt 0.257481 0.688262
vt 0.256261 0.686781
vt 0.259224 0.686428
vt 0.030268 0.509961
vt 0.424682 0.007289
vt 0.425703 0.005879
vt 0.673667 0.519136
vt 0.032031 0.511689
vt 0.031127 0.513089
vt 0.676238 0.006895
vt 0.677614 0.005893
vt 0.425913 0.466028
vt 0.304529 0.272220
vt 0.304906 0.273763
vt 0.029227 0.511351
vt 0.025074 0.659798
vt 0.026883 0.658106
vt 0.026050 0.656594
vt 0.024112 0.658326
vt 0.795009 0.007300
vt 0.795782 0.005886
vt 0.771666 0.371081
vt 0.257417 0.665535
vt 0.255546 0.663875
vt 0.764763 0.147560
vt 0.764792 0.146037
vt 0.256275 0.662355
vt 0.262686 0.515324
vt 0.260712 0.516843
vt 0.261435 0.518274
vt 0.010835 0.768016
vt 0.771930 0.007426
vt 0.772586 0.005870
vt 0.795174 0.372794
vt 0.016786 0.768142
vt 0.736895 0.146466
vt 0.736991 0.144955
vt 0.017667 0.717690
vt 0.023657 0.718151
vt 0.256797 0.771604
vt 0.644626 0.083763
vt 0.642970 0.083487
vt 0.262723 0.772355
vt 0.254832 0.771381
vt 0.654049 0.034729
vt 0.655585 0.035505
vt 0.266999 0.723302
vt 0.272801 0.723552
vt 0.265087 0.723248
vt 0.011641 0.597637
vt 0.013563 0.597759
vt 0.259239 0.604072
vt 0.018754 0.768210
vt 0.025645 0.718335
vt 0.652941 0.085314
vt 0.663276 0.039601
vt 0.311474 0.237645
vt 0.328312 0.193923
vt 0.320543 0.190588
vt 0.302793 0.236782
vt 0.744537 0.058979
vt 0.753648 0.060669
vt 0.005859 0.597413
vt 0.319016 0.189897
vt 0.761497 0.087181
vt 0.763249 0.087653
vt 0.772179 0.090139
vt 0.019876 0.670482
vt 0.301085 0.236573
vt 0.742756 0.058523
vn -0.756018 0.654549 0.001218
vn -0.003653 0.999993 0.000010
vn -0.003188 0.995465 0.095077
vn -0.752269 0.648384 0.117002
vn -0.999996 0.002972 0.000009
vn -0.996292 0.002777 0.085995
vn -0.940747 -0.339104 0.001770
vn -0.999996 -0.002966 0.000015
vn -0.996239 -0.002791 0.086603
vn -0.935418 -0.337295 0.105954
vn -0.003637 -0.999993 0.000012
vn -0.429778 -0.902933 0.001606
vn -0.427131 -0.897361 0.110914
vn -0.003178 -0.995466 0.095068
vn 0.615482 0.330051 0.715715
vn 0.653347 0.002930 0.757053
vn 0.590845 0.002660 0.806781
vn 0.540884 0.326226 0.775255
vn 0.012414 0.999818 0.014487
vn 0.286656 0.897735 0.334514
vn 0.205092 0.888195 0.411154
vn -0.054692 0.991320 0.119557
vn 0.493793 -0.653280 0.573929
vn 0.012482 -0.999816 0.014538
vn -0.054680 -0.991312 0.119630
vn 0.419856 -0.624710 0.658375
vn 0.653352 -0.002935 0.757049
vn 0.591233 -0.002648 0.806496
vn -0.001484 0.312335 0.949971
vn -0.000013 0.002708 0.999996
vn -0.070404 0.002546 0.997515
vn -0.089741 0.311327 0.946056
vn -0.000029 0.999960 0.008892
vn -0.001436 0.886556 0.462620
vn -0.097032 0.882416 0.460355
vn -0.085441 0.996312 0.007919
vn -0.213806 0.617397 -0.757039
vn -0.004218 0.999881 -0.014840
vn -0.075806 0.996876 0.022187
vn -0.306312 0.631695 -0.712134
vn -0.269909 0.002718 -0.962882
vn -0.341165 0.002647 -0.940000
vn -0.256178 -0.323071 -0.911042
vn -0.269906 -0.002852 -0.962883
vn -0.341600 -0.002561 -0.939842
vn -0.341850 -0.319177 -0.883892
vn -0.003789 -0.999900 -0.013606
vn -0.119841 -0.894658 -0.430378
vn -0.229696 -0.885378 -0.404161
vn -0.074007 -0.997052 0.020251
vn -0.001575 -0.618082 0.786112
vn -0.000033 -0.999960 0.008892
vn -0.085887 -0.996271 0.008218
vn -0.099744 -0.612409 0.784223
vn -0.000011 -0.002700 0.999996
vn -0.070048 -0.002534 0.997540
vn -0.587238 -0.007379 0.809381
vn -0.588720 0.073409 0.804997
vn -0.773504 -0.017834 0.633540
vn -0.804177 -0.022976 0.593946
vn -0.561122 0.000173 0.827733
vn -0.767546 -0.000298 0.640994
vn -0.767498 0.000397 0.641052
vn -0.561224 -0.000156 0.827664
vn -0.587093 -0.077465 0.805804
vn -0.774369 0.045079 0.631126
vn -0.909824 -0.023380 0.414335
vn -0.804684 0.015549 0.593499
vn -0.805614 0.014789 0.592256
vn -0.983570 -0.000053 0.180528
vn -0.980783 -0.079917 0.177984
vn -0.999212 0.039296 -0.005549
vn -1.000000 0.000537 -0.000438
vn -0.983487 -0.004410 0.180928
vn -0.981414 0.074327 0.176925
vn -0.028875 0.027218 0.999212
vn 0.002573 0.036577 0.999328
vn 0.002785 0.001219 0.999995
vn -0.000004 0.000000 1.000000
vn -0.903428 0.004387 0.428718
vn -0.903412 -0.004490 0.428749
vn -0.343405 0.000433 0.939187
vn -0.032653 0.000256 0.999467
vn -0.033036 -0.000257 0.999454
vn -0.343409 -0.000510 0.939186
vn -0.000001 0.000000 1.000000
vn -0.028533 -0.026819 0.999233
vn 0.000001 0.000000 1.000000
vn -0.405591 0.000505 0.914054
vn -0.405596 -0.000436 0.914052
vn 0.303575 0.004169 0.952798
vn 0.303614 -0.004095 0.952786
vn -0.999859 0.000127 0.016787
vn -0.915443 0.000484 0.402448
vn -0.915438 -0.000452 0.402458
vn -0.999862 -0.000128 0.016616
vn -0.362444 0.004168 0.931997
vn -0.362376 -0.004111 0.932023
vn -0.626057 0.004398 -0.779765
vn -0.626008 -0.004146 -0.779805
vn -0.998886 0.000502 -0.047195
vn -0.912267 -0.000306 0.409596
vn -0.912653 0.000559 0.408736
vn -0.998880 -0.000308 -0.047317
vn 0.000001 0.000000 1.000000
vn -0.003277 0.882224 0.470819
vn -0.606032 0.546215 0.578252
vn 0.002087 0.308381 0.951261
vn -0.184283 0.152831 0.970918
vn 0.002785 -0.001219 0.999995
vn 0.002575 -0.036569 0.999328
vn 0.002093 -0.308389 0.951258
vn -0.184526 -0.152695 0.970894
vn -0.003237 -0.882225 0.470817
vn -0.354010 -0.743698 0.567090
vn -0.796548 -0.287694 0.531736
vn -0.560373 0.252097 0.788942
vn -0.541094 0.153973 0.826746
vn -0.266281 0.866894 0.421414
vn -0.148098 0.733259 0.663625
vn 0.167660 0.275768 0.946489
vn -0.266078 -0.866909 0.421512
vn 0.017154 -0.524664 0.851137
vn -0.560405 -0.252109 0.788916
vn -0.587453 0.007878 0.809220
vn -0.541216 -0.154186 0.826627
vn -0.999248 0.025899 0.028872
vn -0.941952 0.335718 -0.004395
vn -0.961187 0.163268 0.222405
vn -0.441193 0.897382 0.007384
vn -0.527164 0.753598 0.392669
vn -0.465410 0.277774 0.840378
vn -0.915505 -0.029289 0.401239
vn -0.979168 0.157967 0.127578
vn -0.698037 0.567862 -0.436208
vn -0.415548 0.892660 0.174580
vn -0.854538 0.346581 0.386842
vn -0.908402 0.009799 0.417983
vn -0.920960 0.087993 0.379591
vn -0.849959 -0.361432 0.383322
vn -0.992404 -0.102592 0.067899
vn -0.398635 -0.902325 0.164015
vn -0.623659 -0.739599 -0.253067
vn -0.693402 -0.268212 -0.668772
vn -0.999252 -0.025843 0.028784
vn -0.961077 -0.162407 0.223505
vn -0.524928 -0.546476 0.652544
vn -0.440665 -0.897627 0.008976
vn -0.943068 -0.332597 -0.001326
vn -0.999347 -0.036031 -0.002617
vn -0.026579 0.001013 0.999646
vn -0.026580 0.076969 0.996679
vn -0.002281 0.996197 0.087103
vn -0.012677 0.883997 0.467321
vn -0.367247 0.053449 0.928586
vn -0.374718 -0.013936 0.927034
vn -0.157095 0.886611 0.435020
vn -0.033645 0.994863 0.095473
vn -0.026579 -0.001013 0.999646
vn -0.026580 -0.076968 0.996679
vn -0.025281 -0.309876 0.950441
vn -0.375279 0.014162 0.926804
vn -0.367708 -0.053174 0.928420
vn -0.324058 -0.294288 0.899100
vn -0.923034 0.349013 0.161859
vn -0.920633 -0.354132 0.164393
vn 0.000000 1.000000 0.000000
vn 0.000000 1.000000 -0.000000
vn 0.000000 -1.000000 -0.000000
vn 0.000000 -1.000000 -0.000001
vn -0.002281 -0.996197 0.087100
vn -0.033644 -0.994864 0.095469
vn -0.087271 -0.996060 0.015775
vn 0.000000 -1.000000 0.000000
vn -0.025281 0.309876 0.950441
vn -0.012676 -0.884002 0.467312
vn -0.428133 0.901203 0.067350
vn -0.087412 0.996045 0.015920
vn -0.000001 1.000000 0.000000
vn -0.324061 0.294295 0.899097
vn -0.157094 -0.886616 0.435009
vn -0.419546 -0.905020 0.070143
vn -0.804877 -0.023814 0.592964
vn -0.756017 0.654551 -0.001218
vn -0.752269 0.648384 -0.117002
vn -0.003188 0.995465 -0.095077
vn -0.003653 0.999993 -0.000010
vn -0.999996 0.002972 -0.000009
vn -0.996292 0.002777 -0.085995
vn -0.940747 -0.339104 -0.001770
vn -0.935418 -0.337295 -0.105955
vn -0.996239 -0.002791 -0.086603
vn -0.999996 -0.002966 -0.000015
vn -0.003637 -0.999993 -0.000011
vn -0.003178 -0.995466 -0.095067
vn -0.427132 -0.897361 -0.110912
vn -0.429778 -0.902933 -0.001605
vn 0.615482 0.330051 -0.715715
vn 0.540883 0.326227 -0.775256
vn 0.590847 0.002660 -0.806779
vn 0.653347 0.002930 -0.757053
vn 0.012414 0.999818 -0.014486
vn -0.054693 0.991320 -0.119557
vn 0.205089 0.888196 -0.411152
vn 0.286654 0.897737 -0.334511
vn 0.493792 -0.653279 -0.573931
vn 0.419854 -0.624709 -0.658377
vn -0.054680 -0.991312 -0.119628
vn 0.012482 -0.999816 -0.014537
vn 0.653351 -0.002935 -0.757049
vn 0.591235 -0.002647 -0.806495
vn -0.001484 0.312334 -0.949971
vn -0.089742 0.311325 -0.946057
vn -0.070404 0.002546 -0.997515
vn -0.000013 0.002708 -0.999996
vn -0.000029 0.999960 -0.008892
vn -0.085441 0.996312 -0.007919
vn -0.097034 0.882415 -0.460357
vn -0.001436 0.886556 -0.462620
vn -0.213806 0.617397 0.757039
vn -0.306312 0.631696 0.712133
vn -0.075807 0.996876 -0.022187
vn -0.004218 0.999881 0.014840
vn -0.269909 0.002718 0.962882
vn -0.341165 0.002647 0.940000
vn -0.256177 -0.323075 0.911041
vn -0.341846 -0.319183 0.883891
vn -0.341600 -0.002561 0.939842
vn -0.269905 -0.002852 0.962883
vn -0.003789 -0.999900 0.013606
vn -0.074007 -0.997052 -0.020251
vn -0.229696 -0.885378 0.404161
vn -0.119843 -0.894657 0.430379
vn -0.001575 -0.618082 -0.786112
vn -0.099744 -0.612409 -0.784224
vn -0.085887 -0.996271 -0.008218
vn -0.000033 -0.999961 -0.008892
vn -0.000011 -0.002700 -0.999996
vn -0.070048 -0.002534 -0.997540
vn -0.587238 -0.007381 -0.809381
vn -0.804177 -0.022980 -0.593946
vn -0.773504 -0.017837 -0.633540
vn -0.588721 0.073401 -0.804997
vn -0.767546 -0.000298 -0.640994
vn -0.561121 0.000173 -0.827734
vn -0.767497 0.000397 -0.641052
vn -0.774368 0.045078 -0.631127
vn -0.587092 -0.077463 -0.805805
vn -0.561222 -0.000156 -0.827665
vn -0.909824 -0.023379 -0.414335
vn -0.980783 -0.079915 -0.177984
vn -0.983570 -0.000052 -0.180528
vn -0.805614 0.014790 -0.592256
vn -0.804684 0.015550 -0.593499
vn -0.999347 -0.036030 0.002617
vn -1.000000 -0.000276 0.000225
vn -0.028871 0.027218 -0.999213
vn -0.000001 0.000000 -1.000000
vn 0.002785 0.001219 -0.999995
vn 0.002573 0.036577 -0.999328
vn -0.903412 -0.004490 -0.428750
vn -0.903427 0.004387 -0.428719
vn -0.343398 0.000433 -0.939190
vn -0.343402 -0.000510 -0.939188
vn -0.033036 -0.000257 -0.999454
vn -0.032653 0.000256 -0.999467
vn -0.000001 0.000000 -1.000000
vn -0.000000 0.000000 -1.000000
vn -0.028532 -0.026819 -0.999233
vn -0.405610 -0.000436 -0.914046
vn -0.405605 0.000505 -0.914048
vn 0.303591 0.004169 -0.952793
vn 0.303630 -0.004095 -0.952781
vn -0.999859 0.000127 -0.016787
vn -0.999862 -0.000128 -0.016616
vn -0.915438 -0.000452 -0.402458
vn -0.915443 0.000484 -0.402448
vn -0.362443 0.004168 -0.931997
vn -0.362376 -0.004110 -0.932023
vn -0.626010 -0.004146 0.779804
vn -0.626059 0.004398 0.779764
vn -0.998886 0.000502 0.047194
vn -0.998880 -0.000308 0.047317
vn -0.912653 0.000559 -0.408735
vn -0.912268 -0.000307 -0.409595
vn -0.000000 0.000000 -1.000000
vn -0.606034 0.546213 -0.578251
vn -0.003277 0.882224 -0.470818
vn 0.002087 0.308381 -0.951261
vn -0.184274 0.152831 -0.970920
vn 0.002575 -0.036569 -0.999328
vn 0.002785 -0.001219 -0.999995
vn -0.184519 -0.152695 -0.970895
vn 0.002094 -0.308388 -0.951258
vn -0.003237 -0.882225 -0.470817
vn -0.354016 -0.743699 -0.567085
vn -0.796543 -0.287695 -0.531743
vn -0.541102 0.153970 -0.826742
vn -0.560374 0.252093 -0.788943
vn -0.266282 0.866893 -0.421415
vn -0.148101 0.733259 -0.663624
vn 0.167653 0.275768 -0.946491
vn 0.017144 -0.524660 -0.851139
vn -0.266077 -0.866910 -0.421510
vn -0.560405 -0.252106 -0.788916
vn -0.541214 -0.154191 -0.826628
vn -0.587453 0.007878 -0.809220
vn -0.999247 0.025907 -0.028872
vn -0.961187 0.163268 -0.222404
vn -0.941953 0.335717 0.004395
vn -0.999212 0.039296 0.005549
vn -0.441180 0.897388 -0.007384
vn -0.527169 0.753592 -0.392673
vn -0.465412 0.277764 -0.840380
vn -0.915505 -0.029282 -0.401239
vn -0.979168 0.157968 -0.127578
vn -0.698036 0.567865 0.436206
vn -0.415551 0.892658 -0.174582
vn -0.854536 0.346587 -0.386841
vn -0.908402 0.009795 -0.417984
vn -0.920960 0.087989 -0.379592
vn -0.992404 -0.102583 -0.067899
vn -0.849959 -0.361435 -0.383321
vn -0.398632 -0.902326 -0.164016
vn -0.623657 -0.739601 0.253067
vn -0.693393 -0.268224 0.668777
vn -0.999252 -0.025828 -0.028784
vn -0.961080 -0.162394 -0.223505
vn -0.524932 -0.546473 -0.652544
vn -0.440669 -0.897625 -0.008976
vn -0.943073 -0.332582 0.001326
vn -0.026579 0.001013 -0.999646
vn -0.026580 0.076969 -0.996679
vn -0.002281 0.996197 -0.087103
vn -0.012677 0.883997 -0.467321
vn -0.374718 -0.013936 -0.927034
vn -0.367247 0.053448 -0.928586
vn -0.157096 0.886611 -0.435020
vn -0.033645 0.994863 -0.095473
vn -0.026580 -0.076968 -0.996679
vn -0.026579 -0.001013 -0.999646
vn -0.025281 -0.309875 -0.950441
vn -0.367708 -0.053174 -0.928420
vn -0.375279 0.014162 -0.926804
vn -0.324058 -0.294286 -0.899101
vn -0.981414 0.074326 -0.176924
vn -0.923033 0.349015 -0.161858
vn -0.920636 -0.354124 -0.164392
vn 0.000000 1.000000 0.000000
vn 0.000000 1.000000 0.000000
vn 0.000000 -1.000000 0.000000
vn -0.033644 -0.994864 -0.095468
vn -0.002281 -0.996197 -0.087099
vn 0.000000 -1.000000 0.000002
vn 0.000000 -1.000000 0.000000
vn -0.087271 -0.996060 -0.015775
vn -0.025281 0.309876 -0.950441
vn -0.012676 -0.884002 -0.467312
vn -0.087413 0.996045 -0.015920
vn -0.428126 0.901206 -0.067349
vn -0.000001 1.000000 -0.000000
vn -0.324061 0.294293 -0.899097
vn -0.157094 -0.886618 -0.435007
vn -0.419548 -0.905019 -0.070144
vn -0.983487 -0.004413 -0.180928
vn -0.804877 -0.023818 -0.592964
vn -1.000000 0.000537 0.000438
vn -1.000000 -0.000276 -0.000225
s 1
g S_U_16 Window_Frame_22 UV2
usemtl aiStandardSurface1SG6
f 217/264/683 216/265/684 250/325/685 249/324/686
f 218/266/687 217/264/683 249/324/686 248/306/688
f 220/436/689 219/268/690 257/320/691 256/326/692
s 2
f 221/269/693 220/267/694 256/433/695 255/327/696
f 223/427/697 222/271/698 265/309/699 264/328/700
s 1
f 224/272/701 223/270/702 264/424/703 263/329/704
s 2
f 226/273/705 225/274/706 277/331/707 276/330/708
f 227/275/709 226/273/705 276/330/708 275/321/710
s 6
f 229/426/711 228/277/712 281/317/713 280/332/714
s 7
f 230/278/715 229/276/716 280/422/717 279/333/718
f 232/279/719 231/280/720 289/335/721 288/334/722
f 233/281/723 232/279/719 288/334/722 287/318/724
f 235/435/725 234/283/726 297/322/727 296/336/728
s 6
f 236/284/729 235/282/730 296/431/731 295/337/732
f 238/285/733 237/286/734 305/339/735 304/338/736
f 239/287/737 238/285/733 304/338/736 303/323/738
s 11
f 269/288/739 268/289/740 353/290/741 357/291/742
f 353/290/741 268/289/740 267/292/743 352/293/744
f 351/294/745 273/295/746 272/296/747 350/297/748
f 301/298/749 355/299/750 354/300/751 344/301/752 347/302/753
f 285/303/754 348/304/755 324/305/756 343/308/757
f 245/310/758 244/311/759 240/312/760 241/313/761
s 1
f 248/306/688 247/307/762 258/419/763 257/320/691
s 11
f 247/314/764 246/315/765 259/316/766 258/340/767
f 252/341/768 260/342/769 259/316/766 251/343/770
f 267/292/743 266/347/771 274/351/772 273/295/746
s 2
f 266/418/773 265/309/699 275/321/710 274/344/774
s 11
f 283/352/775 282/353/776 302/357/777 309/361/778
s 6
f 282/413/779 281/317/713 303/323/738 302/345/780
s 7
f 287/318/724 286/319/781 298/412/782 297/322/727
s 11
f 286/362/783 293/369/784 299/370/785 298/371/786
f 352/293/744 267/292/743 273/295/746 351/294/745
f 259/316/766 246/315/765 242/372/787 251/343/770
s 1
f 219/268/690 218/266/687 248/306/688 257/320/691
s 2
f 265/309/699 222/271/698 227/275/709 275/321/710
s 6
f 281/317/713 228/277/712 239/287/737 303/323/738
s 7
f 234/283/726 233/281/723 287/318/724 297/322/727
s 11
f 245/310/758 241/313/761 242/372/787 246/315/765
s 1
f 249/324/686 250/325/685 243/346/788 310/420/789
s 11
f 243/373/790 244/311/759 245/310/758 310/374/791
f 245/310/758 246/315/765 247/314/764 310/374/791
s 1
f 247/307/762 248/306/688 249/324/686 310/420/789
s 11
f 252/341/768 253/375/792 261/379/793 260/342/769
f 260/342/769 261/379/793 254/380/794 311/382/795
s 2
f 254/409/796 255/327/696 256/433/695 311/434/797
s 1
f 256/326/692 257/320/691 258/419/763 311/348/798
s 11
f 258/340/767 259/316/766 260/342/769 311/382/795
f 268/289/740 269/288/739 262/383/799 312/384/800
s 1
f 262/406/801 263/329/704 264/424/703 312/425/802
s 2
f 264/328/700 265/309/699 266/418/773 312/349/803
s 11
f 266/347/771 267/292/743 268/289/740 312/384/800
s 2
f 276/330/708 277/331/707 270/350/804 313/417/805
s 11
f 270/385/806 271/386/807 272/296/747 313/387/808
f 272/296/747 273/295/746 274/351/772 313/387/808
s 2
f 274/344/774 275/321/710 276/330/708 313/417/805
s 11
f 284/389/809 285/303/754 278/390/810 314/392/811
s 7
f 278/408/812 279/333/718 280/422/717 314/423/813
s 6
f 280/332/714 281/317/713 282/413/779 314/354/814
s 11
f 282/353/776 283/352/775 284/389/809 314/392/811
f 292/393/815 293/369/784 286/362/783 315/394/816
s 7
f 286/319/781 287/318/724 288/334/722 315/355/817
f 288/334/722 289/335/721 290/356/818 315/355/817
s 11
f 290/395/819 291/396/820 292/393/815 315/394/816
f 300/397/821 301/298/749 294/400/822 316/403/823
s 6
f 294/407/824 295/337/732 296/431/731 316/432/825
s 7
f 296/336/728 297/322/727 298/412/782 316/358/826
s 11
f 298/371/786 299/370/785 300/397/821 316/403/823
f 308/404/827 309/361/778 302/357/777 317/405/828
s 6
f 302/345/780 303/323/738 304/338/736 317/359/829
f 304/338/736 305/339/735 306/360/830 317/359/829
s 11
f 306/414/831 307/415/832 308/404/827 317/405/828
f 325/416/833 240/312/760 244/311/759 326/421/834
s 1
f 328/376/835 327/411/836 243/346/788 250/325/685
s 11
f 325/416/833 326/421/834 330/428/837 329/429/838
s 1
f 331/410/839 332/377/840 263/329/704 262/406/801
f 332/377/840 331/410/839 327/411/836 328/376/835
s 11
f 261/379/793 253/375/792 333/430/841 336/437/842
f 336/437/842 335/438/843 254/380/794 261/379/793
f 336/437/842 333/430/841 337/439/844 340/440/845
f 339/441/846 340/440/845 271/386/807 270/385/806
f 340/440/845 339/441/846 335/438/843 336/437/842
f 343/308/757 342/442/847 278/390/810 285/303/754
f 291/396/820 290/395/819 342/442/847 343/308/757
f 346/443/848 347/302/753 307/415/832 306/414/831
f 347/302/753 346/443/848 294/400/822 301/298/749
s 1
f 318/363/849 319/364/850 332/377/840 328/376/835
s 2
f 321/366/851 320/365/852 334/398/853 338/399/854
s 6
f 295/337/732 345/402/855 323/368/856 236/284/729
s 11
f 244/311/759 243/373/790 327/444/857 326/421/834
s 2
f 255/327/696 254/409/796 335/378/858 334/398/853
s 7
f 279/333/718 278/408/812 342/388/859 341/401/860
s 1
f 328/376/835 250/325/685 216/265/684 318/363/849
s 2
f 320/365/852 221/269/693 255/327/696 334/398/853
s 1
f 319/364/850 224/272/701 263/329/704 332/377/840
s 2
f 277/331/707 225/274/706 321/366/851 338/399/854
s 7
f 322/367/861 230/278/715 279/333/718 341/401/860
f 289/335/721 231/280/720 322/367/861 341/401/860
s 6
f 305/339/735 237/286/734 323/368/856 345/402/855
s 11
f 326/421/834 327/444/857 331/445/862 330/428/837
f 331/445/862 262/383/799 269/288/739 330/428/837
s 2
f 334/398/853 335/378/858 339/381/863 338/399/854
f 339/381/863 270/350/804 277/331/707 338/399/854
s 7
f 342/388/859 290/356/818 289/335/721 341/401/860
s 6
f 294/407/824 346/391/864 345/402/855 295/337/732
f 346/391/864 306/360/830 305/339/735 345/402/855
s 11
f 299/370/785 351/294/745 350/297/748 300/397/821
f 293/369/784 352/293/744 351/294/745 299/370/785
f 292/393/815 353/290/741 352/293/744 293/369/784
f 337/439/844 354/300/751 355/299/750 271/386/807 340/440/845
f 301/298/749 300/397/821 350/297/748 355/299/750
f 271/386/807 355/299/750 350/297/748 272/296/747
f 291/396/820 357/291/742 353/290/741 292/393/815
f 324/305/756 356/446/865 357/291/742 291/396/820 343/308/757
f 269/288/739 357/291/742 356/446/865 329/429/838 330/428/837
s 20
f 359/447/866 391/450/867 392/449/868 358/448/869
f 360/451/870 390/452/871 391/450/867 359/447/866
f 362/453/872 398/456/873 399/455/874 361/454/875
s 22
f 363/457/876 397/460/877 398/459/878 362/458/879
f 365/461/880 406/464/881 407/463/882 364/462/883
s 20
f 366/465/884 405/468/885 406/467/886 365/466/887
s 22
f 368/469/888 418/472/889 419/471/890 367/470/891
f 369/473/892 417/474/893 418/472/889 368/469/888
s 26
f 371/475/894 422/478/895 423/477/896 370/476/897
s 27
f 372/479/898 421/482/899 422/481/900 371/480/901
f 374/483/902 430/486/903 431/485/904 373/484/905
f 375/487/906 429/488/907 430/486/903 374/483/902
f 377/489/908 438/492/909 439/491/910 376/490/911
s 26
f 378/493/912 437/496/913 438/495/914 377/494/915
f 380/497/916 446/500/917 447/499/918 379/498/919
f 381/501/920 445/502/921 446/500/917 380/497/916
s 32
f 411/503/922 497/504/923 493/505/924 410/506/925
f 493/505/924 492/507/926 409/508/927 410/506/925
f 491/509/928 490/510/929 414/511/930 415/512/931
f 443/513/932 489/514/933 486/515/934 494/516/935 495/517/936
f 486/515/934 489/514/933 449/518/937 349/519/938
f 387/520/939 383/521/940 382/522/941 386/523/942
s 20
f 390/452/871 399/455/874 400/533/943 389/532/944
s 32
f 389/524/945 400/525/946 401/526/947 388/527/948
f 394/528/949 393/529/950 401/526/947 402/530/951
f 409/508/927 415/512/931 416/531/952 408/534/953
s 22
f 408/543/954 416/544/955 417/474/893 407/463/882
s 32
f 425/535/956 451/536/957 444/537/958 424/538/959
s 26
f 424/547/960 444/548/961 445/502/921 423/477/896
s 27
f 429/488/907 439/491/910 440/550/962 428/549/963
s 32
f 428/539/964 440/540/965 441/541/966 435/542/967
f 492/507/926 491/509/928 415/512/931 409/508/927
f 401/526/947 393/529/950 384/545/968 388/527/948
s 20
f 361/454/875 399/455/874 390/452/871 360/451/870
s 22
f 407/463/882 417/474/893 369/473/892 364/462/883
s 26
f 423/477/896 445/502/921 381/501/920 370/476/897
s 27
f 376/490/911 439/491/910 429/488/907 375/487/906
s 32
f 387/520/939 388/527/948 384/545/968 383/521/940
s 20
f 391/450/867 452/557/969 385/556/970 392/449/868
s 32
f 385/546/971 452/551/972 387/520/939 386/523/942
f 387/520/939 452/551/972 389/524/945 388/527/948
s 20
f 389/532/944 452/557/969 391/450/867 390/452/871
s 32
f 394/528/949 402/530/951 403/552/973 395/553/974
f 402/530/951 453/554/975 396/555/976 403/552/973
s 22
f 396/564/977 453/565/978 398/459/878 397/460/877
s 20
f 398/456/873 453/566/979 400/533/943 399/455/874
s 32
f 400/525/946 453/554/975 402/530/951 401/526/947
f 410/506/925 454/558/980 404/559/981 411/503/922
s 20
f 404/569/982 454/570/983 406/467/886 405/468/885
s 22
f 406/464/881 454/571/984 408/543/954 407/463/882
s 32
f 408/534/953 454/558/980 410/506/925 409/508/927
s 22
f 418/472/889 455/573/985 412/572/986 419/471/890
s 32
f 412/560/987 455/561/988 414/511/930 413/562/989
f 414/511/930 455/561/988 416/531/952 415/512/931
s 22
f 416/544/955 455/573/985 418/472/889 417/474/893
s 32
f 426/563/990 456/567/991 420/568/992 427/574/993
s 27
f 420/579/994 456/580/995 422/481/900 421/482/899
s 26
f 422/478/895 456/581/996 424/547/960 423/477/896
s 32
f 424/538/959 456/567/991 426/563/990 425/535/956
f 434/575/997 457/576/998 428/539/964 435/542/967
s 27
f 428/549/963 457/584/999 430/486/903 429/488/907
f 430/486/903 457/584/999 432/585/1000 431/485/904
s 32
f 432/577/1001 457/576/998 434/575/997 433/578/1002
f 442/582/1003 458/583/1004 436/586/1005 443/513/932
s 26
f 436/591/1006 458/592/1007 438/495/914 437/496/913
s 27
f 438/492/909 458/593/1008 440/550/962 439/491/910
s 32
f 440/540/965 458/583/1004 442/582/1003 441/541/966
f 450/587/1009 459/588/1010 444/537/958 451/536/957
s 26
f 444/548/961 459/595/1011 446/500/917 445/502/921
f 446/500/917 459/595/1011 448/596/1012 447/499/918
s 32
f 448/589/1013 459/588/1010 450/587/1009 449/518/937
f 467/590/1014 468/594/1015 386/523/942 382/522/941
s 20
f 470/600/1016 392/449/868 385/556/970 469/601/1017
s 32
f 467/590/1014 471/597/1018 472/598/1019 468/594/1015
s 20
f 473/604/1020 404/569/982 405/468/885 474/605/1021
f 474/605/1021 470/600/1016 469/601/1017 473/604/1020
s 32
f 403/552/973 478/599/1022 475/602/1023 395/553/974
f 478/599/1022 403/552/973 396/555/976 477/603/1024
f 478/599/1022 482/606/1025 479/607/1026 475/602/1023
f 481/608/1027 412/560/987 413/562/989 482/606/1025
f 482/606/1025 478/599/1022 477/603/1024 481/608/1027
f 485/609/1028 427/574/993 420/568/992 484/610/1029
f 433/578/1002 485/609/1028 484/610/1029 432/577/1001
f 488/611/1030 448/589/1013 449/518/937 489/514/933
f 489/514/933 443/513/932 436/586/1005 488/611/1030
s 20
f 460/614/1031 470/600/1016 474/605/1021 461/615/1032
s 22
f 463/616/1033 480/619/1034 476/618/1035 462/617/1036
s 26
f 437/496/913 378/493/912 465/621/1037 487/620/1038
s 32
f 386/523/942 468/594/1015 469/612/1039 385/546/971
s 22
f 397/460/877 476/618/1035 477/623/1040 396/564/977
s 27
f 421/482/899 483/625/1041 484/624/1042 420/579/994
s 20
f 470/600/1016 460/614/1031 358/448/869 392/449/868
s 22
f 462/617/1036 476/618/1035 397/460/877 363/457/876
s 20
f 461/615/1032 474/605/1021 405/468/885 366/465/884
s 22
f 419/471/890 480/619/1034 463/616/1033 367/470/891
s 27
f 464/626/1043 483/625/1041 421/482/899 372/479/898
f 431/485/904 483/625/1041 464/626/1043 373/484/905
s 26
f 447/499/918 487/620/1038 465/621/1037 379/498/919
s 32
f 468/594/1015 472/598/1019 473/613/1044 469/612/1039
f 473/613/1044 472/598/1019 411/503/922 404/559/981
s 22
f 476/618/1035 480/619/1034 481/628/1045 477/623/1040
f 481/628/1045 480/619/1034 419/471/890 412/572/986
s 27
f 484/624/1042 483/625/1041 431/485/904 432/585/1000
s 26
f 436/591/1006 437/496/913 487/620/1038 488/629/1046
f 488/629/1046 487/620/1038 447/499/918 448/596/1012
s 32
f 441/541/966 442/582/1003 490/510/929 491/509/928
f 435/542/967 441/541/966 491/509/928 492/507/926
f 434/575/997 435/542/967 492/507/926 493/505/924
f 479/607/1026 482/606/1025 413/562/989 495/517/936 494/516/935
f 443/513/932 495/517/936 490/510/929 442/582/1003
f 413/562/989 414/511/930 490/510/929 495/517/936
f 433/578/1002 434/575/997 493/505/924 497/504/923
f 466/622/1047 485/609/1028 433/578/1002 497/504/923 496/627/1048
f 411/503/922 472/598/1019 471/597/1018 496/627/1048 497/504/923
f 349/519/938 449/518/937 450/587/1009 451/536/957
f 349/519/938 451/536/957 425/535/956 348/304/1049
s 11
f 344/301/752 349/519/1050 307/415/832 347/302/753
f 307/415/832 349/519/1050 309/361/778 308/404/827
f 283/352/775 348/304/755 285/303/754 284/389/809
f 309/361/778 349/519/1050 348/304/755 283/352/775
s 32
f 348/304/1049 425/535/956 426/563/990 427/574/993
f 348/304/1049 427/574/993 485/609/1028 466/622/1047
g default
v 89.559753 -0.000031 172.375183
v 429.893311 -0.000031 172.375183
v 89.559753 219.411545 172.375183
v 429.893311 219.411545 172.375183
vt -0.033357 0.235056
vt 1.057699 0.234890
vt -0.033250 0.938455
vt 1.057806 0.938290
vn 0.000000 0.000000 1.000000
vn 0.000000 0.000000 1.000000
vn 0.000000 0.000000 1.000000
vn 0.000000 0.000000 1.000000
s off
g S_U_16 pCube1
usemtl TsL02_Network_Garage
f 498/630/1051 499/631/1052 501/633/1053 500/632/1054
g default
v -450.908997 212.701981 -140.767349
v -473.721222 212.701935 -1.999807
v -473.721222 6.698550 -90.912071
v -450.908997 6.648435 -140.767349
v -473.721222 212.701935 -90.912079
v -473.721222 6.648534 -1.999813
vt 0.344061 0.992413
vt 0.500465 0.992409
vt 0.344056 0.768204
vt 0.500459 0.768201
vt 0.403719 0.992411
vt 0.403713 0.768257
vn -0.979965 0.000011 -0.199170
vn -0.843313 0.000000 -0.537423
vn -0.843313 0.000000 -0.537423
vn -0.979965 0.000011 -0.199170
vn -0.997752 0.000019 -0.067013
vn -1.000000 0.000001 0.000001
vn -1.000000 0.000001 0.000001
vn -0.997752 0.000019 -0.067013
s off
g S_U_16 Window_08
usemtl aiStandardSurface1SG3
f 506/638/1055 502/634/1056 505/636/1057 504/639/1058
f 504/639/1059 507/637/1060 503/635/1061 506/638/1062
g default
v -180.402908 212.629578 -177.769693
v -442.529663 213.080521 -152.695886
v -372.873901 5.450047 -177.769693
v -415.447449 5.942894 -171.031503
v -180.402908 5.472504 -177.769693
v -372.873901 212.589859 -177.769693
v -415.447449 212.949814 -171.031503
v -442.529663 5.923401 -152.695886
vt 0.036927 0.993156
vt 0.316246 0.993568
vt 0.036882 0.777474
vt 0.316202 0.777887
vt 0.237274 0.777410
vt 0.237318 0.993073
vt 0.282195 0.993439
vt 0.282151 0.777914
vn -0.279681 0.002491 -0.960090
vn -0.148559 0.001298 -0.988903
vn -0.148559 0.001298 -0.988903
vn -0.279681 0.002491 -0.960090
vn -0.072897 0.000635 -0.997339
vn -0.011127 0.000097 -0.999938
vn -0.011127 0.000097 -0.999938
vn -0.072897 0.000635 -0.997339
vn -0.462352 0.004114 -0.886687
vn -0.549884 0.004799 -0.835227
vn -0.549884 0.004799 -0.835227
vn -0.462352 0.004114 -0.886687
s off
g S_U_16 Window_07
usemtl aiStandardSurface1SG3
f 514/646/1063 513/645/1064 510/644/1065 511/647/1066
f 513/645/1067 508/640/1068 512/642/1069 510/644/1070
f 511/647/1071 515/643/1072 509/641/1073 514/646/1074
g default
v -179.819989 213.073262 177.861521
v -443.503760 213.088481 153.863848
v -372.537296 5.530426 178.298792
v -415.612305 5.960693 171.462814
v -179.431059 5.917528 177.225919
v -372.926193 212.668905 178.934341
v -416.000952 212.966281 172.097956
v -443.114831 5.932703 153.228245
vt 0.986182 0.992808
vt 0.692083 0.993237
vt 0.986218 0.766928
vt 0.692119 0.767358
vt 0.775655 0.766872
vt 0.775619 0.992732
vt 0.728064 0.993114
vt 0.728100 0.767399
vn -0.274323 -0.000975 0.961637
vn -0.274323 -0.000975 0.961637
vn -0.143041 -0.002008 0.989715
vn -0.143041 -0.002008 0.989715
vn -0.067332 -0.002553 0.997727
vn -0.067332 -0.002553 0.997727
vn -0.005547 -0.002981 0.999980
vn -0.005547 -0.002981 0.999980
vn -0.457404 0.000527 0.889259
vn -0.457404 0.000527 0.889259
vn -0.545222 0.001203 0.838291
vn -0.545222 0.001203 0.838291
s off
g S_U_16 Window_11
usemtl aiStandardSurface1SG3
f 522/654/1075 519/655/1076 518/652/1077 521/653/1078
f 521/653/1079 518/652/1080 520/650/1081 516/648/1082
f 519/655/1083 522/654/1084 517/649/1085 523/651/1086
g default
v -450.872384 212.917505 140.895080
v -473.496090 213.323743 10.629005
v -473.496159 7.049687 91.119890
v -450.872390 6.865286 140.895071
v -473.496119 213.051738 91.119906
v -473.496096 7.271666 10.628998
vt 0.682926 0.986998
vt 0.539143 0.986791
vt 0.682957 0.767208
vt 0.539174 0.768183
vt 0.623640 0.986873
vt 0.623672 0.767636
vn -0.840299 -0.003241 0.542113
vn -0.978837 -0.002454 0.204629
vn -0.978837 -0.002454 0.204629
vn -0.840299 -0.003241 0.542113
vn -0.997361 -0.002076 0.072574
vn -0.997361 -0.002076 0.072574
vn -0.999983 -0.001894 0.005574
vn -0.999983 -0.001894 0.005574
s off
g S_U_16 Window_12
usemtl aiStandardSurface1SG3
f 524/656/1087 528/660/1088 526/661/1089 527/658/1090
f 526/661/1091 528/660/1092 525/657/1093 529/659/1094
