# This file uses centimeters as units for non-parametric coordinates.

mtllib poster2.mtl
g default
v 195.759718 81.134161 201.290466
v 270.037428 148.088049 201.290466
v 128.805830 155.411871 201.290466
v 203.083540 222.365759 201.290466
vt 0.385544 0.684362
vt 0.655314 0.684362
vt 0.385544 0.954132
vt 0.655314 0.954132
vn 0.000000 0.000000 1.000000
vn 0.000000 0.000000 1.000000
vn 0.000000 0.000000 1.000000
vn 0.000000 0.000000 1.000000
s off
g D_S_22:poster Decals
usemtl D_S_22:aiStandardSurface1SG
f 1/1/1 2/2/2 4/4/3 3/3/4
