# This file uses centimeters as units for non-parametric coordinates.

mtllib poster1.mtl
g default
v 68.742964 62.484169 201.290466
v 167.981611 50.167893 201.290466
v 81.059248 161.722820 201.290466
v 180.297895 149.406536 201.290466
vt 0.056453 0.011620
vt 0.326223 0.011620
vt 0.056453 0.281390
vt 0.326223 0.281390
vn -0.000000 0.000000 1.000000
vn -0.000000 0.000000 1.000000
vn -0.000000 0.000000 1.000000
vn -0.000000 0.000000 1.000000
s off
g D_S_32:poster Decals
usemtl D_S_32:aiStandardSurface1SG
f 1/1/1 2/2/2 4/4/3 3/3/4
