# This file uses centimeters as units for non-parametric coordinates.

mtllib poster4.mtl
g default
v 346.016757 110.743973 201.290466
v 444.765567 126.513397 201.290466
v 330.247318 209.492767 201.290466
v 428.996127 225.262192 201.290466
vt 0.067891 0.680746
vt 0.337661 0.680746
vt 0.067891 0.950516
vt 0.337661 0.950516
vn 0.000000 0.000000 1.000000
vn 0.000000 0.000000 1.000000
vn 0.000000 0.000000 1.000000
vn 0.000000 0.000000 1.000000
s off
g D_S_19:poster Decals
usemtl D_S_19:aiStandardSurface1SG
f 1/1/1 2/2/2 4/4/3 3/3/4
