# This file uses centimeters as units for non-parametric coordinates.

mtllib poster3.mtl
g default
v 268.165951 55.802624 201.290466
v 364.307553 83.312436 201.290466
v 240.656140 151.944241 201.290466
v 336.797756 179.454045 201.290466
vt 0.047770 0.312647
vt 0.317540 0.312647
vt 0.047770 0.582417
vt 0.317540 0.582417
vn 0.000000 0.000000 1.000000
vn 0.000000 0.000000 1.000000
vn 0.000000 0.000000 1.000000
vn 0.000000 0.000000 1.000000
s off
g D_S_33:poster Decals
usemtl D_S_33:aiStandardSurface1SG
f 1/1/1 2/2/2 4/4/3 3/3/4
