# This file uses centimeters as units for non-parametric coordinates.

mtllib Door.mtl
g default
v 69.994751 8.499840 15.790161
v 69.994751 73.168648 -5.209808
v 69.994751 8.499840 -5.209808
v 0.000000 8.499840 -5.209808
v 69.994751 73.168648 11.590576
v 69.994751 71.410828 14.560120
v 69.994751 67.167068 15.790161
v 1.246216 54.871105 11.591553
v 0.015381 51.902004 11.591522
v 1.245361 51.901634 14.560516
v 4.214966 51.901260 15.790314
v 4.215698 54.870796 14.560516
v 4.215698 56.100819 11.591522
v 0.000000 8.499840 11.590607
v 4.199585 8.499840 15.790161
v 1.230103 8.499840 14.560150
v 1.246216 54.871105 -5.209808
v 4.215698 56.100819 -5.209808
v 0.015381 51.902004 -5.209808
v 1.791870 54.325245 14.014862
v 59.884277 62.846558 -5.209808
v 52.539307 57.855801 -5.209808
v 43.834229 56.100822 -5.209808
v 45.807129 8.499842 15.790161
v 54.441406 8.499842 15.790161
v 61.968262 8.499841 15.790161
v 61.968262 58.972561 15.790253
v 54.441406 53.740665 15.790283
v 45.807129 51.901249 15.790314
v 60.132690 61.342358 14.560242
v 53.086304 56.554443 14.560303
v 44.734985 54.870792 14.560333
v 44.218140 56.100822 11.590912
v 52.569214 57.784470 11.590790
v 59.615723 62.572380 11.590698
vt -0.003940 0.015650
vt -0.004636 0.018415
vt -0.035264 0.140067
vt -0.032153 0.127712
vt 0.000000 0.131471
vt 0.078836 0.199942
vt 0.078836 0.999999
vt 0.000000 1.000000
vt 0.039412 0.113972
vt 0.000000 0.118080
vt 0.000000 0.000000
vt 0.039413 0.000000
vt 0.000000 0.000000
vt 0.000000 0.000000
vt 0.000000 0.000000
vt 1.000000 0.113399
vt 1.000000 0.125000
vt 1.000000 0.125000
vt 1.000000 0.125000
vt 0.048803 0.000000
vt 0.000000 0.000000
vt 0.000000 0.000000
vt 0.024401 0.125000
vt 0.000000 0.125000
vt 0.826193 0.000000
vt 1.000000 0.000000
vt 1.000000 0.199979
vt 0.829913 0.199971
vt 0.500000 0.125000
vt 0.695633 0.125000
vt 0.751660 0.233634
vt 0.599989 0.299981
vt 1.000000 0.000000
vt 1.000000 0.000000
vt 0.749975 0.000000
vt 0.759943 0.113399
vt 0.421560 0.000000
vt 0.459514 0.113503
vt 0.822707 0.999999
vt 1.000000 0.654172
vt 0.006934 0.138879
vt 0.413099 0.125000
vt 0.500000 0.000000
vt 0.552789 0.113399
vt 1.000000 0.999999
vt 1.000000 0.999999
vn -0.923774 0.382939 0.000000
vn -0.923774 0.382939 0.000000
vn -0.923774 0.382939 0.000000
vn -0.923774 0.382939 0.000000
vn -0.377837 0.925011 0.039930
vn -0.027222 0.997748 0.061310
vn -0.028734 0.999587 0.000000
vn -0.382602 0.923913 0.000000
vn -0.027008 0.025617 0.999307
vn -0.380734 0.016772 0.924532
vn -0.382649 0.000130 0.923894
vn -0.027596 0.000006 0.999619
vn -0.924502 0.016966 0.380800
vn -0.997820 0.025503 0.060860
vn -0.998071 0.000352 0.062089
vn -0.923868 0.000320 0.382710
vn -0.998071 0.000352 0.062089
vn -0.997820 0.025503 0.060860
vn -0.999639 0.026864 0.000000
vn -1.000000 0.000354 0.000000
vn 1.000000 0.000000 0.000000
vn 1.000000 0.000000 0.000000
vn 1.000000 0.000002 0.000000
vn 1.000000 0.000002 0.000000
vn -0.017873 0.924541 0.380663
vn -0.027222 0.997748 0.061310
vn -0.377837 0.925011 0.039930
vn -0.325180 0.887930 0.325329
vn -0.924873 0.378175 0.039929
vn -0.997820 0.025503 0.060860
vn -0.924502 0.016966 0.380800
vn -0.887811 0.325506 0.325326
vn -0.380734 0.016772 0.924532
vn -0.027008 0.025617 0.999307
vn -0.017542 0.380632 0.924560
vn -0.325181 0.325300 0.887940
vn -0.036272 0.921010 0.387846
vn -0.353422 0.840903 0.409848
vn -0.386430 0.919431 0.072925
vn -0.035364 0.997035 0.068348
vn -0.353422 0.840903 0.409848
vn -0.602699 0.694670 0.392667
vn -0.659150 0.749029 0.066906
vn -0.386430 0.919431 0.072925
vn -0.060867 0.059625 0.996363
vn -0.273379 0.267784 0.923881
vn -0.248971 0.284652 0.925736
vn -0.017300 0.019961 0.999651
vn -0.660011 0.646482 0.382683
vn -0.713548 0.698917 0.048632
vn -0.659150 0.749029 0.066906
vn -0.602699 0.694670 0.392667
vn 0.000004 -0.000001 1.000000
vn 0.000007 -0.000001 1.000000
vn -0.060867 0.059625 0.996363
vn -0.017300 0.019961 0.999651
vn -0.027008 0.025617 0.999307
vn -0.027596 0.000006 0.999619
vn 0.000000 -0.000003 1.000000
vn -0.000990 0.021740 0.999763
vn -0.027222 0.997748 0.061310
vn -0.035364 0.997035 0.068348
vn -0.034711 0.999397 0.000793
vn -0.028734 0.999587 0.000000
vn -0.659150 0.749029 0.066906
vn -0.713548 0.698917 0.048632
vn -0.714393 0.699744 0.000000
vn -0.661652 0.749809 0.001660
vn -0.000990 0.021740 0.999763
vn -0.010675 0.380055 0.924902
vn -0.017542 0.380632 0.924560
vn -0.027008 0.025617 0.999307
vn -0.036272 0.921010 0.387846
vn -0.035364 0.997035 0.068348
vn -0.027222 0.997748 0.061310
vn -0.017873 0.924541 0.380663
vn 0.000000 -0.000003 1.000000
vn 0.000001 -0.000003 1.000000
vn -0.008473 0.019451 0.999775
vn -0.000990 0.021740 0.999763
vn 0.000001 -0.000003 1.000000
vn 0.000004 -0.000001 1.000000
vn -0.017300 0.019961 0.999651
vn -0.008473 0.019451 0.999775
vn -0.000990 0.021740 0.999763
vn -0.008473 0.019451 0.999775
vn -0.142775 0.337763 0.930339
vn -0.010675 0.380055 0.924902
vn -0.008473 0.019451 0.999775
vn -0.017300 0.019961 0.999651
vn -0.248971 0.284652 0.925736
vn -0.142775 0.337763 0.930339
vn -0.661652 0.749809 0.001660
vn -0.387459 0.921876 0.004606
vn -0.386430 0.919431 0.072925
vn -0.659150 0.749029 0.066906
vn -0.387459 0.921876 0.004606
vn -0.034711 0.999397 0.000793
vn -0.035364 0.997035 0.068348
vn -0.386430 0.919431 0.072925
vn 1.000000 0.000000 0.000000
vn 1.000000 0.000000 0.000000
vn 1.000000 0.000000 0.000000
vn 1.000000 0.000000 0.000000
vn 0.000008 0.000000 -1.000000
vn 0.000000 0.000000 -1.000000
vn 0.000000 0.000000 -1.000000
s off
g Panel02 Door_01
usemtl aiStandardSurface5SG
f 9/1/1 8/2/2 17/3/3 19/4/4
f 8/5/5 13/6/6 18/7/7 17/8/8
usemtl aiStandardSurface4SG
f 11/9/9 10/10/10 16/11/11 15/12/12
f 10/13/13 9/1/14 14/14/15 16/11/16
f 14/14/17 9/1/18 19/4/19 4/15/20
usemtl aiStandardSurface5SG
f 7/16/21 2/17/22 5/18/23 6/19/24
f 12/20/25 13/6/26 8/5/27 20/21/28
f 8/2/29 9/1/30 10/13/31 20/22/32
f 10/10/33 11/9/34 12/23/35 20/24/36
f 32/25/37 31/26/38 34/27/39 33/28/40
f 31/29/41 30/30/42 35/31/43 34/32/44
f 7/16/45 6/19/46 30/30/47 27/36/48
f 6/19/49 5/18/50 35/31/51 30/30/52
usemtl aiStandardSurface4SG
f 26/35/53 1/34/54 7/16/55 27/36/56
f 11/9/57 15/12/58 24/37/59 29/38/60
usemtl aiStandardSurface5SG
f 13/6/61 33/28/62 23/39/63 18/7/64
f 35/31/65 5/18/66 2/17/67 21/40/68
f 29/38/69 32/42/70 12/23/71 11/9/72
f 32/25/73 33/28/74 13/6/75 12/20/76
usemtl aiStandardSurface4SG
f 24/37/77 25/43/78 28/44/79 29/38/80
f 25/43/81 26/35/82 27/36/83 28/44/84
usemtl aiStandardSurface5SG
f 29/38/85 28/44/86 31/29/87 32/42/88
f 28/44/89 27/36/90 30/30/91 31/29/92
f 21/40/93 22/45/94 34/32/95 35/31/96
f 22/46/97 23/39/98 33/28/99 34/27/100
usemtl aiStandardSurface4SG
f 1/34/101 3/33/102 2/17/103 7/16/104
usemtl aiStandardSurface5SG
f 17/3/105 18/41/106 19/4/107
g default
v 64.994751 10.000000 8.386902
v 64.994751 232.791580 8.386902
v 64.994751 95.454079 8.386902
v 64.994751 171.460159 8.386902
v 0.016846 10.000000 5.011169
v 3.392578 10.000000 8.386902
v 1.005615 10.000000 7.398163
v 1.005615 232.791580 7.398163
v 3.392578 232.791580 8.386902
v 0.016846 232.791580 5.011169
v 1.005615 92.007538 7.398163
v 0.495483 94.375427 7.398163
v -0.944580 96.323143 7.398163
v 0.016846 91.560745 5.011169
v -0.493286 93.928635 5.011169
v -1.933228 95.876350 5.011169
v 2.882446 95.454079 8.386902
v 1.442505 97.401794 8.386902
v 3.392578 93.086189 8.386902
v -10.046509 104.337791 7.398163
v -11.486572 106.285507 7.398163
v -11.996704 108.653397 7.398163
v -11.035278 103.890999 5.011169
v -12.475220 105.838715 5.011169
v -12.985474 108.206604 5.011169
v -9.609741 109.732048 8.386902
v -9.099487 107.364159 8.386902
v -7.659546 105.416443 8.386902
v 2.882446 171.460159 8.386902
v 3.392578 173.828049 8.386902
v 1.442505 169.512436 8.386902
v 1.005615 174.906693 7.398163
v 0.495483 172.538803 7.398163
v -0.944580 170.591095 7.398163
v -1.933228 171.037888 5.011169
v -0.493286 172.985596 5.011169
v 0.016846 175.353485 5.011169
v -7.659546 161.497787 8.386902
v -9.099487 159.550064 8.386902
v -9.609741 157.182175 8.386902
v -10.046509 162.576447 7.398163
v -11.486572 160.628738 7.398163
v -11.996704 158.260849 7.398163
v -12.985474 158.707642 5.011169
v -12.475220 161.075531 5.011169
v -11.035278 163.023239 5.011169
v 2.882446 157.182190 8.386902
v 64.994751 157.182190 8.386902
v 2.882446 109.732048 8.386902
v 64.994751 109.732048 8.386902
vt 0.625000 0.000000
vt 0.625000 0.125000
vt 0.625000 0.187500
vt 0.625000 0.250000
vt 0.625000 0.175759
vt 0.508076 0.126788
vt 0.506494 0.122386
vt 0.506494 0.250000
vt 0.506494 0.188976
vt 0.508094 0.185687
vt 0.508091 0.174622
vt 0.496250 0.125000
vt 0.500000 0.125000
vt 0.502744 0.126568
vt 0.500000 0.121161
vt 0.475000 0.127964
vt 0.475000 0.125000
vt 0.481491 0.128577
vt 0.481491 0.131236
vt 0.478750 0.125000
vt 0.485241 0.128222
vt 0.149986 1.000000
vt 0.000000 1.000000
vt 0.000000 0.750026
vt 0.149987 0.750026
vt 1.000000 1.000000
vt 0.957039 1.000000
vt 0.956719 0.750026
vt 1.000000 0.750026
vt 0.047413 1.000000
vt 0.000000 1.000000
vt 0.000000 0.750026
vt 0.046652 0.750026
vt 1.000000 1.000000
vt 0.850013 1.000000
vt 0.850015 0.750026
vt 1.000000 0.750026
vt 0.500000 0.250000
vt 0.500000 0.190185
vt 0.000000 1.000000
vt 0.000000 0.750026
vt 1.000000 0.750026
vt 0.030875 0.750026
vt 0.850014 0.750026
vt 0.149986 0.750026
vt 0.953348 0.750026
vt 1.000000 1.000000
vt 0.030712 1.000000
vt 0.500000 0.000000
vt 0.506494 0.000000
vt 0.850014 1.000000
vt 0.149986 1.000000
vt 0.502744 0.185712
vt 0.496250 0.187500
vt 0.478750 0.187500
vt 0.485241 0.183028
vt 0.952587 1.000000
vt 0.481491 0.179794
vt 0.475000 0.184537
vt 0.000000 1.000000
vt 0.000000 0.750026
vt 1.000000 1.000000
vt 1.000000 0.750026
vt 0.000000 1.000000
vt 0.000000 0.750026
vt 1.000000 1.000000
vt 1.000000 0.750026
vt 0.500000 0.187500
vt 0.481491 0.182453
vt 0.475000 0.187500
vt 0.508080 0.137852
vt 0.625000 0.136741
vn 0.000000 0.000000 1.000000
vn -0.003862 -0.001745 0.999991
vn -0.011469 -0.000102 0.999934
vn -0.015023 0.000000 0.999887
vn -0.011496 0.000142 0.999934
vn 0.000000 0.000000 1.000000
vn 0.000000 0.000000 1.000000
vn 0.000000 0.000000 1.000000
vn -0.003862 0.001745 0.999991
vn 0.000000 0.000000 1.000000
vn 0.000000 0.000000 1.000000
vn -0.257740 -0.277891 0.925390
vn -0.321815 -0.145421 0.935568
vn -0.003862 -0.001745 0.999991
vn -0.097435 -0.100306 0.990174
vn -0.321815 -0.145421 0.935568
vn -0.382064 -0.001616 0.924135
vn -0.011469 -0.000102 0.999934
vn -0.003862 -0.001745 0.999991
vn -0.380518 -0.005610 0.924756
vn -0.321814 -0.145428 0.935567
vn -0.123556 -0.055835 0.990766
vn -0.081882 -0.000581 0.996642
vn -0.321814 -0.145428 0.935567
vn -0.261960 -0.269691 0.926630
vn -0.113385 -0.122249 0.986002
vn -0.123556 -0.055835 0.990766
vn -0.636451 0.666407 0.388370
vn -0.829596 0.374879 0.413807
vn -0.904405 0.408687 0.122583
vn -0.681364 0.722797 0.115355
vn -0.829596 0.374879 0.413807
vn -0.923227 0.009227 0.384145
vn -0.993209 0.008123 0.116061
vn -0.904405 0.408687 0.122583
vn -0.923341 0.007704 0.383904
vn -0.829595 0.374888 0.413801
vn -0.905436 0.409156 0.113038
vn -0.995016 0.010027 0.099212
vn -0.829595 0.374888 0.413801
vn -0.630306 0.672981 0.387054
vn -0.684144 0.722078 0.102713
vn -0.905436 0.409156 0.113038
vn -0.015023 0.000000 0.999887
vn -0.382684 0.000000 0.923879
vn -0.923227 0.009227 0.384145
vn -0.011496 0.000142 0.999934
vn -0.382684 0.000000 0.923879
vn -0.994166 0.000000 0.107857
vn -0.993209 0.008123 0.116061
vn -0.923227 0.009227 0.384145
vn -0.994176 0.000000 0.107767
vn -0.923877 0.000000 0.382689
vn -0.382064 -0.001616 0.924135
vn -0.993232 -0.005787 0.116005
vn -0.923877 0.000000 0.382689
vn -0.015146 0.000000 0.999885
vn -0.011469 -0.000102 0.999934
vn -0.382064 -0.001616 0.924135
vn -0.681365 -0.722797 0.115354
vn -0.257740 -0.277891 0.925390
vn -0.261960 -0.269691 0.926630
vn -0.684144 -0.722078 0.102711
vn -0.257740 -0.277891 0.925390
vn -0.097435 -0.100306 0.990174
vn -0.113385 -0.122249 0.986002
vn -0.261960 -0.269691 0.926630
vn -0.097431 0.100306 0.990175
vn -0.636451 0.666407 0.388370
vn -0.630306 0.672981 0.387054
vn -0.113384 0.122249 0.986002
vn -0.636451 0.666407 0.388370
vn -0.681364 0.722797 0.115355
vn -0.684144 0.722078 0.102713
vn -0.630306 0.672981 0.387054
vn -0.995016 -0.010027 0.099212
vn -0.380518 -0.005610 0.924756
vn -0.923341 0.007704 0.383904
vn -0.995016 0.010027 0.099212
vn -0.380518 -0.005610 0.924756
vn -0.081882 -0.000581 0.996642
vn -0.081882 0.000581 0.996642
vn -0.923341 0.007704 0.383904
vn -0.097431 0.100306 0.990175
vn 0.000000 0.000000 1.000000
vn -0.003862 0.001745 0.999991
vn -0.382064 -0.001616 0.924135
vn -0.321815 -0.145421 0.935568
vn -0.904405 -0.408687 0.122583
vn -0.993232 -0.005787 0.116005
vn -0.321815 -0.145421 0.935568
vn -0.257740 -0.277891 0.925390
vn -0.681365 -0.722797 0.115354
vn -0.904405 -0.408687 0.122583
vn -0.261960 -0.269691 0.926630
vn -0.321814 -0.145428 0.935567
vn -0.905436 -0.409156 0.113037
vn -0.684144 -0.722078 0.102711
vn -0.321814 -0.145428 0.935567
vn -0.380518 -0.005610 0.924756
vn -0.995016 -0.010027 0.099212
vn -0.905436 -0.409156 0.113037
vn -0.097431 0.100306 0.990175
vn -0.003862 0.001745 0.999991
vn -0.829596 0.374879 0.413807
vn -0.636451 0.666407 0.388370
vn -0.003862 0.001745 0.999991
vn -0.011496 0.000142 0.999934
vn -0.923227 0.009227 0.384145
vn -0.829596 0.374879 0.413807
vn -0.081882 0.000581 0.996642
vn -0.123555 0.055834 0.990766
vn -0.829595 0.374888 0.413801
vn -0.923341 0.007704 0.383904
vn -0.123555 0.055834 0.990766
vn -0.113384 0.122249 0.986002
vn -0.630306 0.672981 0.387054
vn -0.829595 0.374888 0.413801
vn -0.081882 -0.000581 0.996642
vn 0.000000 0.000000 1.000000
vn 0.000000 0.000000 1.000000
vn -0.081882 0.000581 0.996642
vn 0.000000 0.000000 1.000000
vn 0.000000 0.000000 1.000000
vn 0.000000 0.000000 1.000000
vn 0.000000 0.000000 1.000000
vn -0.081882 -0.000581 0.996642
vn -0.123556 -0.055835 0.990766
vn 0.000000 0.000000 1.000000
vn 0.000000 0.000000 1.000000
vn 0.000000 0.000000 1.000000
vn -0.003862 -0.001745 0.999991
vn 0.000000 0.000000 1.000000
vn -0.123555 0.055834 0.990766
vn 0.000000 0.000000 1.000000
vn -0.113384 0.122249 0.986002
vn -0.113384 0.122249 0.986002
vn 0.000000 0.000000 1.000000
vn -0.097431 0.100306 0.990175
vn -0.081882 0.000581 0.996642
vn 0.000000 0.000000 1.000000
vn -0.123555 0.055834 0.990766
vn 0.000000 0.000000 1.000000
vn -0.011496 0.000142 0.999934
vn -0.003862 0.001745 0.999991
vn 0.000000 0.000000 1.000000
vn -0.011469 -0.000102 0.999934
vn -0.015146 0.000000 0.999885
vn 0.000000 0.000000 1.000000
vn 0.000000 0.000000 1.000000
vn -0.097435 -0.100306 0.990174
vn -0.003862 -0.001745 0.999991
vn 0.000000 0.000000 1.000000
vn -0.113385 -0.122249 0.986002
vn -0.097435 -0.100306 0.990174
vn 0.000000 0.000000 1.000000
vn -0.123556 -0.055835 0.990766
vn -0.113385 -0.122249 0.986002
s off
g Door_01 DoorPanel02
usemtl aiStandardSurface2SG
f 38/48/108 52/52/109 54/53/110
f 44/54/111 65/55/112 39/49/113 37/50/114
f 39/49/115 64/56/116 82/57/117 83/51/118
f 48/58/119 47/59/120 52/52/121 53/60/122
f 47/59/123 46/61/124 54/53/125 52/52/126
f 57/62/127 56/63/128 62/64/129 61/65/130
f 56/63/131 55/66/132 63/67/133 62/64/134
f 69/68/135 68/69/136 71/70/137 70/71/138
f 68/72/139 67/73/140 72/74/141 71/75/142
f 78/76/143 77/77/144 80/78/145 79/79/146
f 77/80/147 76/81/148 81/82/149 80/83/150
f 44/54/151 43/84/152 67/85/153 65/55/154
f 43/86/155 45/87/156 72/74/157 67/73/158
f 40/88/159 42/93/160 46/94/161 49/89/162
f 42/95/163 41/96/164 54/53/165 46/61/166
f 51/90/167 48/97/168 55/98/169 58/91/170
f 48/58/171 53/60/172 63/67/173 55/66/174
f 66/99/175 69/100/176 76/101/177 73/102/178
f 69/68/179 70/71/180 81/82/181 76/81/182
f 60/92/183 57/103/184 78/76/185 79/79/186
f 57/62/187 61/65/188 75/104/189 78/105/190
f 66/99/191 82/57/192 64/56/193
f 46/94/194 47/106/195 50/107/196 49/89/197
f 47/108/198 48/97/199 51/90/200 50/109/201
f 55/98/202 56/110/203 59/111/204 58/91/205
f 56/112/206 57/103/207 60/92/208 59/113/209
f 66/99/210 64/56/211 68/114/212 69/100/213
f 64/56/214 65/55/215 67/85/216 68/114/217
f 75/104/218 74/115/219 77/116/220 78/105/221
f 74/115/222 73/102/223 76/101/224 77/116/225
f 61/65/226 84/117/227 82/57/228 75/104/229
f 83/51/230 82/57/231 84/117/232 85/118/233
f 61/65/234 62/64/235 84/117/236
f 85/118/237 84/117/238 52/52/239 38/48/240
f 74/115/241 82/57/242 73/102/243
f 73/102/244 82/57/245 66/99/246
f 75/104/247 82/57/248 74/115/249
f 39/49/250 65/55/251 64/56/252
f 38/48/253 54/53/254 41/96/255 36/47/256
f 84/117/257 53/60/258 52/52/259
f 84/117/260 63/67/261 53/60/262
f 84/117/263 62/64/264 63/67/265
g default
v -64.994751 10.000000 8.386902
v -64.994751 232.791580 8.386902
v -64.994751 104.313271 8.386902
v -64.994751 162.600967 8.386902
v -15.850952 10.000000 8.386902
v -15.850952 232.791580 8.386902
v -3.358887 10.000000 8.386902
v 0.016846 10.000000 5.011169
v -0.971802 10.000000 7.398163
v -3.358887 232.791580 8.386902
v -0.971802 232.791580 7.398163
v 0.016846 232.791580 5.011169
v -5.308960 94.350906 8.386902
v -3.358887 90.035301 8.386902
v -3.869019 92.403191 8.386902
v -0.971802 91.113953 7.398163
v -1.482056 93.481842 7.398163
v -2.921997 95.429558 7.398163
v -1.933228 95.876350 5.011169
v -0.493286 93.928635 5.011169
v 0.016846 91.560745 5.011169
v -15.850952 104.313271 8.386902
v -14.411011 102.365555 8.386902
v -16.361206 106.681160 8.386902
v -12.024048 103.444206 7.398163
v -13.463989 105.391922 7.398163
v -13.974243 107.759811 7.398163
v -12.985474 108.206604 5.011169
v -12.475220 105.838715 5.011169
v -11.035278 103.890999 5.011169
v -15.850952 162.600967 8.386902
v -16.361206 160.233078 8.386902
v -14.411011 164.548691 8.386902
v -13.974243 159.154434 7.398163
v -13.463989 161.522324 7.398163
v -12.024048 163.470032 7.398163
v -11.035278 163.023239 5.011169
v -12.475220 161.075531 5.011169
v -12.985474 158.707642 5.011169
v -0.971802 175.800278 7.398163
v -1.482056 173.432388 7.398163
v -2.921997 171.484680 7.398163
v 0.016846 175.353485 5.011169
v -0.493286 172.985596 5.011169
v -1.933228 171.037888 5.011169
v -5.308960 172.563339 8.386902
v -3.869019 174.511063 8.386902
v -3.358887 176.878952 8.386902
v -15.850952 176.878937 8.386902
v -64.994751 176.878937 8.386902
v -15.850952 90.035278 8.386902
v -64.994751 90.035278 8.386902
vt 0.375000 0.250000
vt 0.475000 0.250000
vt 0.375000 0.106076
vt 0.375000 0.125000
vt 0.375000 0.187500
vt 0.375000 0.200214
vt 0.375000 0.000000
vt 0.475000 0.000000
vt 0.468205 0.103554
vt 0.466994 0.189481
vt 0.468623 0.201792
vt 0.466992 0.122027
vt 0.468509 0.125920
vt 0.493509 0.250000
vt 0.149986 1.000000
vt 0.000000 1.000000
vt 0.000000 0.750026
vt 0.149986 0.750026
vt 1.000000 1.000000
vt 0.968961 1.000000
vt 0.969125 0.750026
vt 1.000000 0.750026
vt 0.045933 1.000000
vt 0.000000 1.000000
vt 0.000000 0.750026
vt 0.046652 0.750026
vt 1.000000 1.000000
vt 0.850014 1.000000
vt 0.850014 0.750026
vt 1.000000 0.750026
vt 0.149985 1.000000
vt 0.000000 1.000000
vt 0.000000 0.750026
vt 0.149987 0.750026
vt 1.000000 1.000000
vt 0.954083 1.000000
vt 0.953348 0.750026
vt 1.000000 0.750026
vt 0.496250 0.187500
vt 0.500000 0.187500
vt 0.493509 0.191433
vt 0.489760 0.191043
vt 0.500000 0.190225
vt 0.493509 0.194034
vt 0.493509 0.000000
vt 0.500000 0.000000
vt 0.500000 0.121120
vt 0.493509 0.115374
vt 0.000000 1.000000
vt 0.000000 0.750026
vt 1.000000 0.750026
vt 0.043281 0.750026
vt 0.850015 0.750026
vt 0.489760 0.119702
vt 0.496250 0.125000
vt 0.478750 0.125000
vt 0.472259 0.122423
vt 0.475000 0.127870
vt 0.475000 0.184630
vt 0.468509 0.185922
vt 1.000000 1.000000
vt 0.043605 1.000000
vt 0.500000 0.250000
vt 0.850013 1.000000
vt 0.472259 0.189223
vt 0.478750 0.187500
vt 0.493509 0.119119
vt 0.500000 0.125000
vt 0.475000 0.125000
vt 0.475000 0.187500
vt 0.000000 1.000000
vt 0.000000 0.750026
vt 1.000000 1.000000
vt 1.000000 0.750026
vn 0.000000 0.000000 1.000000
vn 0.000000 0.000000 1.000000
vn 0.000000 0.000000 1.000000
vn 0.000000 0.000000 1.000000
vn 0.000000 0.000000 1.000000
vn 0.004861 -0.002196 0.999986
vn 0.000000 0.000000 1.000000
vn 0.000000 0.000000 1.000000
vn 0.000000 0.000000 1.000000
vn 0.004861 0.002196 0.999986
vn 0.013963 0.000191 0.999903
vn 0.630306 0.672981 0.387054
vn 0.829593 0.374888 0.413805
vn 0.905436 0.409156 0.113038
vn 0.684144 0.722078 0.102712
vn 0.829593 0.374888 0.413805
vn 0.923548 0.004814 0.383452
vn 0.995044 0.006312 0.099231
vn 0.905436 0.409156 0.113038
vn 0.923139 0.010379 0.384327
vn 0.829596 0.374880 0.413806
vn 0.904405 0.408687 0.122583
vn 0.993156 0.009178 0.116433
vn 0.829596 0.374880 0.413806
vn 0.636452 0.666407 0.388369
vn 0.681365 0.722797 0.115354
vn 0.904405 0.408687 0.122583
vn 0.636453 -0.666407 0.388368
vn 0.829596 -0.374878 0.413807
vn 0.904405 -0.408687 0.122582
vn 0.681365 -0.722797 0.115353
vn 0.829596 -0.374878 0.413807
vn 0.923139 -0.010379 0.384327
vn 0.993156 -0.009178 0.116433
vn 0.904405 -0.408687 0.122582
vn 0.261956 -0.269690 0.926632
vn 0.321811 -0.145428 0.935569
vn 0.123555 -0.055834 0.990766
vn 0.113383 -0.122249 0.986002
vn 0.321811 -0.145428 0.935569
vn 0.380804 -0.004873 0.924643
vn 0.080961 -0.000496 0.996717
vn 0.123555 -0.055834 0.990766
vn 0.066679 0.000000 0.997775
vn 0.382691 0.000000 0.923876
vn 0.923548 0.004814 0.383452
vn 0.080587 0.000349 0.996748
vn 0.382691 0.000000 0.923876
vn 0.994223 0.000000 0.107336
vn 0.995044 0.006312 0.099231
vn 0.923548 0.004814 0.383452
vn 0.113381 0.122249 0.986002
vn 0.630306 0.672981 0.387054
vn 0.636452 0.666407 0.388369
vn 0.097428 0.100306 0.990175
vn 0.630306 0.672981 0.387054
vn 0.684144 0.722078 0.102712
vn 0.681365 0.722797 0.115354
vn 0.636452 0.666407 0.388369
vn 0.013963 0.000191 0.999903
vn 0.923139 0.010379 0.384327
vn 0.923139 -0.010379 0.384327
vn 0.013963 -0.000191 0.999903
vn 0.923139 0.010379 0.384327
vn 0.993156 0.009178 0.116433
vn 0.993156 -0.009178 0.116433
vn 0.923139 -0.010379 0.384327
vn 0.994233 0.000000 0.107245
vn 0.923878 0.000000 0.382688
vn 0.380804 -0.004873 0.924643
vn 0.995005 -0.008856 0.099433
vn 0.923878 0.000000 0.382688
vn 0.066839 0.000000 0.997764
vn 0.080961 -0.000496 0.996717
vn 0.380804 -0.004873 0.924643
vn 0.684144 -0.722078 0.102710
vn 0.261956 -0.269690 0.926632
vn 0.636453 -0.666407 0.388368
vn 0.681365 -0.722797 0.115353
vn 0.261956 -0.269690 0.926632
vn 0.113383 -0.122249 0.986002
vn 0.097431 -0.100306 0.990175
vn 0.636453 -0.666407 0.388368
vn 0.080587 0.000349 0.996748
vn 0.000000 0.000000 1.000000
vn 0.000000 0.000000 1.000000
vn 0.066679 0.000000 0.997775
vn 0.097431 -0.100306 0.990175
vn 0.000000 0.000000 1.000000
vn 0.004861 -0.002196 0.999986
vn 0.113381 0.122249 0.986002
vn 0.123556 0.055835 0.990766
vn 0.829593 0.374888 0.413805
vn 0.630306 0.672981 0.387054
vn 0.123556 0.055835 0.990766
vn 0.080587 0.000349 0.996748
vn 0.923548 0.004814 0.383452
vn 0.829593 0.374888 0.413805
vn 0.013963 0.000191 0.999903
vn 0.004861 0.002196 0.999986
vn 0.829596 0.374880 0.413806
vn 0.923139 0.010379 0.384327
vn 0.004861 0.002196 0.999986
vn 0.097428 0.100306 0.990175
vn 0.636452 0.666407 0.388369
vn 0.829596 0.374880 0.413806
vn 0.097431 -0.100306 0.990175
vn 0.004861 -0.002196 0.999986
vn 0.829596 -0.374878 0.413807
vn 0.636453 -0.666407 0.388368
vn 0.004861 -0.002196 0.999986
vn 0.013963 -0.000191 0.999903
vn 0.923139 -0.010379 0.384327
vn 0.829596 -0.374878 0.413807
vn 0.380804 -0.004873 0.924643
vn 0.321811 -0.145428 0.935569
vn 0.905436 -0.409156 0.113036
vn 0.995005 -0.008856 0.099433
vn 0.321811 -0.145428 0.935569
vn 0.261956 -0.269690 0.926632
vn 0.684144 -0.722078 0.102710
vn 0.905436 -0.409156 0.113036
vn 0.066839 0.000000 0.997764
vn 0.000000 0.000000 1.000000
vn 0.000000 0.000000 1.000000
vn 0.080961 -0.000496 0.996717
vn 0.000000 0.000000 1.000000
vn 0.000000 0.000000 1.000000
vn 0.000000 0.000000 1.000000
vn 0.000000 0.000000 1.000000
vn 0.000000 0.000000 1.000000
vn 0.097428 0.100306 0.990175
vn 0.004861 0.002196 0.999986
vn 0.000000 0.000000 1.000000
vn 0.000000 0.000000 1.000000
vn 0.004861 0.002196 0.999986
vn 0.000000 0.000000 1.000000
vn 0.113383 -0.122249 0.986002
vn 0.000000 0.000000 1.000000
vn 0.097431 -0.100306 0.990175
vn 0.123555 -0.055834 0.990766
vn 0.000000 0.000000 1.000000
vn 0.113383 -0.122249 0.986002
vn 0.080961 -0.000496 0.996717
vn 0.000000 0.000000 1.000000
vn 0.123555 -0.055834 0.990766
vn 0.000000 0.000000 1.000000
vn 0.013963 -0.000191 0.999903
vn 0.004861 -0.002196 0.999986
vn 0.000000 0.000000 1.000000
vn 0.013963 0.000191 0.999903
vn 0.013963 -0.000191 0.999903
vn 0.000000 0.000000 1.000000
vn 0.113381 0.122249 0.986002
vn 0.097428 0.100306 0.990175
vn 0.000000 0.000000 1.000000
vn 0.113381 0.122249 0.986002
vn 0.000000 0.000000 1.000000
vn 0.123556 0.055835 0.990766
vn 0.123556 0.055835 0.990766
vn 0.000000 0.000000 1.000000
vn 0.080587 0.000349 0.996748
s off
g Door_01 DoorPanel01
usemtl aiStandardSurface2SG
f 86/125/266 90/126/267 136/127/268 137/121/269
f 89/123/270 116/128/271 134/129/272 135/124/273
f 88/122/274 107/130/275 109/131/276
f 103/133/277 102/134/278 105/135/279 104/136/280
f 102/137/281 101/138/282 106/139/283 105/140/284
f 112/141/285 111/142/286 114/143/287 113/144/288
f 111/145/289 110/146/290 115/147/291 114/148/292
f 121/149/293 120/150/294 123/151/295 122/152/296
f 120/153/297 119/154/298 124/155/299 123/156/300
f 127/157/301 126/158/302 132/159/303 131/160/304
f 126/158/305 125/161/306 133/162/307 132/159/308
f 92/163/309 94/164/310 101/165/311 99/166/312
f 94/167/313 93/168/314 106/139/315 101/138/316
f 98/172/317 103/173/318 110/174/319 108/175/320
f 103/133/321 104/136/322 115/147/323 110/146/324
f 109/131/325 112/176/326 119/177/327 117/178/328
f 112/141/329 113/144/330 124/155/331 119/154/332
f 97/169/333 96/179/334 125/180/335 128/170/336
f 96/181/337 95/132/338 133/162/339 125/161/340
f 130/171/341 127/182/342 121/149/343 122/152/344
f 127/157/345 131/160/346 118/183/347 121/184/348
f 99/166/349 136/127/350 90/126/351 92/163/352
f 118/183/353 134/129/354 116/128/355
f 98/172/356 100/185/357 102/186/358 103/173/359
f 100/185/360 99/166/361 101/165/362 102/186/363
f 109/131/364 107/130/365 111/187/366 112/176/367
f 107/130/368 108/175/369 110/174/370 111/187/371
f 118/183/372 116/128/373 120/188/374 121/184/375
f 116/128/376 117/178/377 119/177/378 120/188/379
f 125/180/380 126/189/381 129/190/382 128/170/383
f 126/191/384 127/182/385 130/171/386 129/192/387
f 95/132/388 91/120/389 134/129/390 133/162/391
f 135/124/392 134/129/393 91/120/394 87/119/395
f 136/127/396 108/175/397 107/130/398
f 137/121/399 136/127/400 107/130/401 88/122/402
f 131/160/403 134/129/404 118/183/405
f 132/159/406 134/129/407 131/160/408
f 133/162/409 134/129/410 132/159/411
f 89/123/412 117/178/413 116/128/414
f 88/122/415 109/131/416 117/178/417 89/123/418
f 98/172/419 108/175/420 136/127/421
f 98/172/422 136/127/423 100/185/424
f 100/185/425 136/127/426 99/166/427
g default
v 26.991699 232.791580 -4.976562
v -27.370972 232.791580 -4.976562
v -19.472900 220.490921 11.993195
v -16.626953 219.724335 11.998840
v -16.766357 220.912445 14.861572
v -17.710083 223.525467 16.023438
v -20.447144 223.061676 14.863525
v -21.548584 222.583130 11.998840
v -22.837891 232.791580 16.023438
v -27.370972 232.791580 12.085815
v -26.043335 232.791580 14.870148
v 22.458618 232.791580 16.023438
v 25.663940 232.791580 14.870148
v 26.991699 232.791580 12.085815
v 19.093506 220.490921 11.993195
v 21.169312 222.583130 11.998840
v 20.067871 223.061676 14.863525
v 17.330811 223.525467 16.023438
v 16.387085 220.912445 14.861572
v 16.247681 219.724335 11.998840
v -19.482422 220.474319 -4.976562
v -21.513306 222.521347 -4.976562
v -16.698120 219.724335 -4.976562
v 19.103149 220.474319 -4.976562
v 16.318726 219.724335 -4.976562
v 21.134033 222.521347 -4.976562
v -19.095947 221.135315 14.339691
v 18.716553 221.135315 14.339691
vt 0.916590 0.191647
vt 1.000000 0.126717
vt 1.000000 1.000000
vt 0.918392 1.000000
vt 1.000000 0.126717
vt 0.972871 0.000000
vt 1.000000 0.785953
vt 1.000000 1.000000
vt 0.789605 0.000000
vt 0.936818 0.000000
vt 0.063182 0.000000
vt 0.401795 0.000000
vt 0.936818 0.000000
vt 0.083411 0.191647
vt 0.063182 0.000000
vt 0.833814 0.000000
vt 0.000000 0.000000
vt 0.187505 0.000000
vt 0.083386 0.000000
vt 0.812495 0.000000
vt 1.000000 0.000000
vt 0.176797 0.000000
vt 0.410423 0.000000
vt 0.916614 0.000000
vt 0.176797 0.000000
vt 0.126717 0.000000
vt 1.000000 0.000000
vt 0.785953 0.000000
vt 0.000000 0.126717
vt 0.081608 1.000000
vt 0.000000 1.000000
vt 0.000000 0.000000
vt 1.000000 0.000000
vt 1.000000 0.000000
vt 1.000000 0.000000
vt 0.000000 0.000000
vt 0.000000 0.000000
vt 0.000000 0.000000
vn -0.260092 -0.965583 0.001091
vn -0.260092 -0.965583 0.001091
vn -0.260092 -0.965583 0.001091
vn -0.260092 -0.965583 0.001091
vn -0.712518 -0.700375 0.042334
vn -0.841753 -0.537011 0.055412
vn -0.841729 -0.539900 0.000217
vn -0.709896 -0.704306 0.001089
vn -0.017885 -0.066783 0.997607
vn -0.011864 -0.408904 0.912500
vn 0.011864 -0.408904 0.912500
vn 0.017885 -0.066783 0.997607
vn -0.013318 -0.924618 0.380663
vn -0.019932 -0.998014 0.059756
vn 0.019932 -0.998014 0.059756
vn 0.013318 -0.924618 0.380663
vn -0.841753 -0.537011 0.055412
vn -0.785714 -0.490885 0.376411
vn -0.800711 -0.460362 0.383314
vn -0.867293 -0.495154 0.051240
vn -0.333997 -0.226799 0.914882
vn -0.017885 -0.066783 0.997607
vn -0.049075 -0.027751 0.998410
vn -0.342705 -0.193790 0.919238
vn 0.867293 -0.495154 0.051240
vn 0.800711 -0.460361 0.383314
vn 0.785714 -0.490885 0.376411
vn 0.841754 -0.537010 0.055412
vn 0.342705 -0.193790 0.919238
vn 0.049075 -0.027751 0.998410
vn 0.017885 -0.066783 0.997607
vn 0.333996 -0.226799 0.914882
vn 0.841754 -0.537010 0.055412
vn 0.712522 -0.700371 0.042334
vn 0.709900 -0.704301 0.001089
vn 0.841730 -0.539899 0.000217
vn 0.255500 -0.965896 0.042007
vn 0.019932 -0.998014 0.059756
vn 0.021299 -0.999773 0.000089
vn 0.260092 -0.965583 0.001090
vn -0.049075 -0.027751 0.998410
vn -0.017885 -0.066783 0.997607
vn 0.017885 -0.066783 0.997607
vn 0.049075 -0.027751 0.998410
vn 0.021299 -0.999773 0.000089
vn 0.019932 -0.998014 0.059756
vn -0.019932 -0.998014 0.059756
vn -0.021299 -0.999773 0.000089
vn 0.868646 -0.495434 -0.000001
vn 0.867293 -0.495154 0.051240
vn 0.841754 -0.537010 0.055412
vn 0.841730 -0.539899 0.000217
vn -0.841729 -0.539900 0.000217
vn -0.841753 -0.537011 0.055412
vn -0.867293 -0.495154 0.051240
vn -0.868646 -0.495434 -0.000001
vn -0.785714 -0.490885 0.376411
vn -0.841753 -0.537011 0.055412
vn -0.712518 -0.700375 0.042334
vn -0.694910 -0.636647 0.334337
vn -0.255499 -0.965896 0.042006
vn -0.019932 -0.998014 0.059756
vn -0.013318 -0.924618 0.380663
vn -0.209694 -0.919331 0.332955
vn -0.011864 -0.408904 0.912500
vn -0.017885 -0.066783 0.997607
vn -0.333997 -0.226799 0.914882
vn -0.262068 -0.449602 0.853919
vn 0.013318 -0.924618 0.380663
vn 0.019932 -0.998014 0.059756
vn 0.255500 -0.965896 0.042007
vn 0.209698 -0.919328 0.332960
vn 0.712522 -0.700371 0.042334
vn 0.841754 -0.537010 0.055412
vn 0.785714 -0.490885 0.376411
vn 0.694907 -0.636651 0.334336
vn 0.333996 -0.226799 0.914882
vn 0.017885 -0.066783 0.997607
vn 0.011864 -0.408904 0.912500
vn 0.262067 -0.449601 0.853920
s off
g Door_01 Button01
usemtl aiStandardSurface3SG
f 141/193/428 140/194/429 158/195/430 160/196/431
f 140/197/432 145/198/433 159/199/434 158/200/435
f 143/201/436 142/202/437 156/203/438 155/204/439
f 142/205/440 141/193/441 157/206/442 156/207/443
f 145/198/444 144/208/445 148/209/446 147/210/447
f 144/208/448 143/201/449 146/211/450 148/209/451
f 151/212/452 150/213/453 154/214/454 153/215/455
f 150/213/456 149/216/457 155/204/458 154/217/459
f 153/215/460 152/218/461 161/219/462 163/220/463
f 152/221/464 157/206/465 162/222/466 161/223/467
f 146/211/468 143/201/469 155/204/470 149/216/471
f 162/222/472 157/206/473 141/193/474 160/196/475
f 138/224/476 151/212/477 153/215/478 163/220/479
f 159/199/480 145/198/481 147/210/482 139/225/483
f 144/208/484 145/198/485 140/197/486 164/226/487
f 140/194/488 141/193/489 142/205/490 164/227/491
f 142/202/492 143/201/493 144/208/494 164/226/495
f 156/207/496 157/206/497 152/221/498 165/228/499
f 152/218/500 153/215/501 154/214/502 165/229/503
f 154/217/504 155/204/505 156/203/506 165/230/507
g default
v -51.997070 10.000000 8.454773
v -61.187744 13.806922 8.454773
v -64.994751 22.997644 8.454773
v -64.994751 219.793945 8.454773
v -61.187744 228.984665 8.454773
v -51.997070 232.791595 8.454773
v 51.997070 232.791595 8.454773
v 61.187866 228.984665 8.454773
v 64.994751 219.793945 8.454773
v 64.994751 22.997644 8.454773
v 61.187866 13.806922 8.454773
v 51.997070 10.000000 8.454773
v -74.994751 229.793945 14.455078
v -71.187744 238.984665 14.455078
v -61.997070 242.791595 14.455078
v -74.116089 228.915375 16.576172
v -70.309204 238.106094 16.576172
v -61.118408 241.913010 16.576172
v -58.997437 239.791901 17.454773
v -68.188110 235.984970 17.454773
v -71.994995 226.794220 17.454773
v -74.116089 13.876226 16.576172
v -70.309204 4.685511 16.576172
v -61.118408 0.878592 16.576172
v -71.994995 15.997382 17.454773
v -68.188110 6.806633 17.454773
v -58.997437 2.999700 17.454773
v -61.997070 0.000000 14.455078
v -71.187744 3.806922 14.455078
v -74.994751 12.997644 14.455078
v 61.118530 0.878592 16.576172
v 70.309204 4.685511 16.576172
v 74.116089 13.876226 16.576172
v 58.997437 2.999700 17.454773
v 68.188110 6.806633 17.454773
v 71.994995 15.997382 17.454773
v 74.994751 12.997644 14.455078
v 71.187866 3.806922 14.455078
v 61.997070 0.000000 14.455078
v 61.997070 242.791595 14.455078
v 71.187866 238.984665 14.455078
v 74.994751 229.793945 14.455078
v 61.118530 241.913010 16.576172
v 70.309204 238.106094 16.576172
v 74.116089 228.915375 16.576172
v 71.994995 226.794220 17.454773
v 68.188110 235.984970 17.454773
v 58.997437 239.791901 17.454773
v -67.994385 222.793610 17.454773
v -64.187500 231.984360 17.454773
v -54.996826 235.791290 17.454773
v -65.873291 220.672546 16.576172
v -62.066406 229.863266 16.576172
v -52.875610 233.670181 16.576172
v -51.997070 232.791595 14.455078
v -61.187744 228.984665 14.455078
v -64.994751 219.793945 14.455078
v -65.873291 22.119041 16.576172
v -62.066406 12.928326 16.576172
v -52.875610 9.121408 16.576172
v -64.994751 22.997644 14.455078
v -61.187744 13.806922 14.455078
v -51.997070 10.000000 14.455078
v -54.996704 7.000300 17.454773
v -64.187500 10.807233 17.454773
v -67.994385 19.997982 17.454773
v 52.875732 9.121408 16.576172
v 62.066406 12.928326 16.576172
v 65.873413 22.119041 16.576172
v 51.997070 10.000000 14.455078
v 61.187866 13.806922 14.455078
v 64.994751 22.997644 14.455078
v 67.994507 19.997982 17.454773
v 64.187500 10.807233 17.454773
v 54.996826 7.000300 17.454773
v 65.873413 220.672546 16.576172
v 62.066406 229.863266 16.576172
v 52.875732 233.670181 16.576172
v 64.994751 219.793945 14.455078
v 61.187866 228.984665 14.455078
v 51.997070 232.791595 14.455078
v 54.996826 235.791290 17.454773
v 64.187500 231.984360 17.454773
v 67.994507 222.793610 17.454773
v 71.187866 238.984665 -17.454773
v 74.994751 229.793945 -17.454773
v 61.997070 242.791595 -17.454773
v -71.187744 238.984665 -17.454773
v -61.997070 242.791595 -17.454773
v -74.994751 229.793945 -17.454773
v 71.187866 3.806922 -17.454773
v 61.997070 0.000000 -17.454773
v 74.994751 12.997644 -17.454773
v -71.187744 3.806922 -17.454773
v -74.994751 12.997644 -17.454773
v -61.997070 0.000000 -17.454773
vt 0.375000 0.000000
vt 0.399997 0.000000
vt 0.375000 0.014585
vt 0.375000 0.250000
vt 0.375000 0.235415
vt 0.399998 0.250000
vt 0.625000 0.250000
vt 0.600003 0.250000
vt 0.625000 0.235415
vt 0.625000 0.000000
vt 0.625000 0.014585
vt 0.600002 0.000000
vt 0.396921 0.250000
vt 0.375000 0.250000
vt 0.375000 0.250000
vt 0.397567 0.250000
vt 0.375000 0.236519
vt 0.375000 0.236277
vt 0.396955 0.999994
vt 0.375000 1.000000
vt 0.375000 0.978518
vt 0.396664 0.978518
vt 0.375000 0.000000
vt 0.375000 0.013481
vt 0.353517 0.013384
vt 0.353517 0.000000
vt 0.625018 0.013378
vt 0.625000 0.000000
vt 0.646482 0.000000
vt 0.646482 0.013384
vt 0.625000 1.000000
vt 0.603079 0.999999
vt 0.603336 0.978518
vt 0.625000 0.978518
vt 0.625000 0.236518
vt 0.625000 0.250000
vt 0.625000 0.250000
vt 0.625000 0.236284
vt 0.603079 0.250000
vt 0.602433 0.250000
vt 0.399664 0.250000
vt 0.375000 0.250000
vt 0.375000 0.250000
vt 0.399994 0.250000
vt 0.375000 0.235529
vt 0.375000 0.235415
vt 0.399659 0.000000
vt 0.375000 0.000000
vt 0.375000 0.000000
vt 0.398895 0.000000
vt 0.375000 0.014473
vt 0.375000 0.014203
vt 0.625000 0.014451
vt 0.625000 0.000000
vt 0.625000 0.000000
vt 0.625000 0.014203
vt 0.600336 0.000000
vt 0.601105 0.000000
vt 0.600341 0.250000
vt 0.625000 0.250000
vt 0.625000 0.250000
vt 0.601105 0.250000
vt 0.625000 0.235534
vt 0.625000 0.235797
vt 0.396664 0.271482
vt 0.603336 0.271482
vt 0.603336 0.500000
vt 0.396664 0.500000
vt 0.396664 0.750000
vt 0.603336 0.750000
vt 0.875000 0.013384
vt 0.875000 0.236616
vt 0.646482 0.236616
vt 0.125000 0.013384
vt 0.353518 0.236616
vt 0.125000 0.236616
vt 0.397614 0.000000
vt 0.602422 0.000000
vt 0.625000 0.013853
vt 0.398895 0.250000
vt 0.375000 0.013723
vt 0.375000 0.235797
vt 0.400085 0.000000
vt 0.600006 0.000000
vt 0.625000 0.014663
vt 0.625000 0.235415
vt 0.599915 0.250000
vt 0.375000 0.014585
vt 0.396921 0.000000
vt 0.603079 0.000000
vt 0.353518 0.250000
vt 0.125000 0.250000
vt 0.375000 0.271482
vt 0.375000 0.500000
vt 0.375000 0.000000
vt 0.375000 0.750000
vt 0.125000 0.000000
vt 0.625000 0.000000
vt 0.875000 0.000000
vt 0.625000 0.750000
vt 0.625000 0.271482
vt 0.625000 0.500000
vt 0.646482 0.250000
vt 0.875000 0.250000
vt 0.375000 0.250000
vt 0.375000 0.000000
vt 0.625000 0.000000
vt 0.625000 0.250000
vn -0.022990 0.362876 0.931554
vn -0.198757 0.198758 0.959683
vn -0.095827 0.095827 0.990775
vn -0.003591 0.228359 0.973570
vn -0.198757 0.198758 0.959683
vn -0.370513 0.014189 0.928719
vn -0.235171 0.002121 0.971952
vn -0.095827 0.095827 0.990775
vn -0.019218 -0.920869 0.389399
vn -0.336555 -0.812519 0.475966
vn -0.382513 -0.923470 0.029769
vn -0.029173 -0.999345 0.021415
vn -0.812518 -0.336556 0.475968
vn -0.922168 -0.011216 0.386628
vn -0.999634 -0.017207 0.020877
vn -0.923471 -0.382512 0.029769
vn 0.922168 -0.011216 0.386628
vn 0.812518 -0.336556 0.475968
vn 0.923470 -0.382514 0.029769
vn 0.999634 -0.017207 0.020877
vn 0.336556 -0.812518 0.475967
vn 0.019218 -0.920869 0.389399
vn 0.029173 -0.999345 0.021415
vn 0.382514 -0.923470 0.029769
vn 0.370513 0.014189 0.928719
vn 0.198760 0.198759 0.959682
vn 0.095829 0.095827 0.990775
vn 0.235170 0.002121 0.971952
vn 0.198760 0.198759 0.959682
vn 0.022990 0.362876 0.931554
vn 0.003591 0.228359 0.973570
vn 0.095829 0.095827 0.990775
vn 0.043190 -0.916562 0.397554
vn 0.336553 -0.812517 0.475970
vn 0.378231 -0.913131 0.152094
vn 0.030567 -0.991524 0.126274
vn 0.812517 -0.336555 0.475970
vn 0.920007 -0.024297 0.391149
vn 0.991940 -0.016767 0.125592
vn 0.913131 -0.378232 0.152094
vn 0.006574 0.377061 0.926165
vn 0.198758 0.198759 0.959682
vn 0.050389 0.050390 0.997458
vn 0.004714 0.067977 0.997676
vn 0.198758 0.198759 0.959682
vn 0.379587 0.003628 0.925149
vn 0.066576 0.002690 0.997778
vn 0.050389 0.050390 0.997458
vn -0.379587 0.003628 0.925149
vn -0.198758 0.198760 0.959682
vn -0.050391 0.050390 0.997458
vn -0.066579 0.002690 0.997778
vn -0.198758 0.198760 0.959682
vn -0.006574 0.377061 0.926165
vn -0.004714 0.067978 0.997676
vn -0.050391 0.050390 0.997458
vn -0.006574 -0.377061 0.926165
vn -0.198762 -0.198759 0.959682
vn -0.050390 -0.050390 0.997458
vn -0.004714 -0.067977 0.997676
vn -0.198762 -0.198759 0.959682
vn -0.379587 -0.003628 0.925149
vn -0.066579 -0.002690 0.997778
vn -0.050390 -0.050390 0.997458
vn -0.029173 0.999345 0.021414
vn 0.029173 0.999345 0.021414
vn 0.028572 0.999592 0.000000
vn -0.028572 0.999592 0.000000
vn -0.029173 -0.999345 0.021415
vn -0.028572 -0.999592 0.000000
vn 0.028572 -0.999592 0.000000
vn 0.029173 -0.999345 0.021415
vn 0.999634 -0.017207 0.020877
vn 0.999858 -0.016843 0.000000
vn 0.999858 0.016843 0.000000
vn 0.999634 0.017207 0.020877
vn -0.999858 -0.016843 0.000000
vn -0.999634 -0.017207 0.020877
vn -0.999634 0.017207 0.020877
vn -0.999858 0.016843 0.000000
vn -0.003591 -0.228360 0.973570
vn 0.003591 -0.228360 0.973570
vn -0.004714 0.067978 0.997676
vn 0.004714 0.067977 0.997676
vn 0.235170 -0.002121 0.971952
vn 0.235170 0.002121 0.971952
vn -0.066579 -0.002690 0.997778
vn -0.066579 0.002690 0.997778
vn 0.003591 0.228359 0.973570
vn -0.003591 0.228359 0.973570
vn 0.004714 -0.067977 0.997676
vn -0.004714 -0.067977 0.997676
vn -0.235171 0.002121 0.971952
vn -0.235170 -0.002121 0.971952
vn 0.066576 0.002690 0.997778
vn 0.066577 -0.002690 0.997778
vn 0.030567 0.991525 0.126271
vn -0.030567 0.991525 0.126271
vn -0.033616 0.999435 0.000000
vn 0.033616 0.999435 0.000000
vn -0.991940 0.016767 0.125592
vn -0.991940 -0.016767 0.125592
vn -0.999829 -0.018478 0.000000
vn -0.999829 0.018478 0.000000
vn -0.030567 -0.991524 0.126274
vn 0.030567 -0.991524 0.126274
vn 0.033616 -0.999435 0.000000
vn -0.033616 -0.999435 0.000000
vn 0.991940 -0.016767 0.125592
vn 0.991940 0.016767 0.125592
vn 0.999829 0.018478 0.000000
vn 0.999829 -0.018478 0.000000
vn -0.999634 -0.017207 0.020877
vn -0.922168 -0.011216 0.386628
vn -0.922168 0.011216 0.386628
vn -0.999634 0.017207 0.020877
vn -0.370513 -0.014189 0.928719
vn -0.235170 -0.002121 0.971952
vn -0.235171 0.002121 0.971952
vn -0.370513 0.014189 0.928719
vn -0.003591 -0.228360 0.973570
vn -0.022990 -0.362876 0.931554
vn 0.022990 -0.362876 0.931554
vn 0.003591 -0.228360 0.973570
vn -0.019218 -0.920869 0.389399
vn -0.029173 -0.999345 0.021415
vn 0.029173 -0.999345 0.021415
vn 0.019218 -0.920869 0.389399
vn -0.029173 0.999345 0.021414
vn -0.019218 0.920872 0.389392
vn 0.019218 0.920872 0.389392
vn 0.029173 0.999345 0.021414
vn -0.022990 0.362876 0.931554
vn -0.003591 0.228359 0.973570
vn 0.003591 0.228359 0.973570
vn 0.022990 0.362876 0.931554
vn 0.235170 -0.002121 0.971952
vn 0.370514 -0.014189 0.928719
vn 0.370513 0.014189 0.928719
vn 0.235170 0.002121 0.971952
vn 0.922168 -0.011216 0.386628
vn 0.999634 -0.017207 0.020877
vn 0.999634 0.017207 0.020877
vn 0.922168 0.011216 0.386628
vn 0.066576 0.002690 0.997778
vn 0.379587 0.003628 0.925149
vn 0.379587 -0.003628 0.925149
vn 0.066577 -0.002690 0.997778
vn 0.920007 0.024298 0.391149
vn 0.991940 0.016767 0.125592
vn 0.991940 -0.016767 0.125592
vn 0.920007 -0.024297 0.391149
vn 0.030567 0.991525 0.126271
vn 0.043190 0.916565 0.397546
vn -0.043190 0.916565 0.397546
vn -0.030567 0.991525 0.126271
vn 0.006574 0.377061 0.926165
vn 0.004714 0.067977 0.997676
vn -0.004714 0.067978 0.997676
vn -0.006574 0.377061 0.926165
vn -0.991940 0.016767 0.125592
vn -0.920007 0.024297 0.391149
vn -0.920007 -0.024297 0.391149
vn -0.991940 -0.016767 0.125592
vn -0.379587 0.003628 0.925149
vn -0.066579 0.002690 0.997778
vn -0.066579 -0.002690 0.997778
vn -0.379587 -0.003628 0.925149
vn -0.030567 -0.991524 0.126274
vn -0.043190 -0.916562 0.397554
vn 0.043190 -0.916562 0.397554
vn 0.030567 -0.991524 0.126274
vn -0.006574 -0.377061 0.926165
vn -0.004714 -0.067977 0.997676
vn 0.004714 -0.067977 0.997676
vn 0.006574 -0.377061 0.926165
vn -0.999634 0.017207 0.020877
vn -0.923471 0.382512 0.029769
vn -0.923880 0.382682 0.000000
vn -0.999858 0.016843 0.000000
vn -0.382514 0.923470 0.029768
vn -0.029173 0.999345 0.021414
vn -0.028572 0.999592 0.000000
vn -0.382683 0.923880 0.000000
vn -0.029173 0.999345 0.021414
vn -0.382514 0.923470 0.029768
vn -0.336556 0.812523 0.475958
vn -0.019218 0.920872 0.389392
vn -0.923471 0.382512 0.029769
vn -0.999634 0.017207 0.020877
vn -0.922168 0.011216 0.386628
vn -0.812520 0.336556 0.475964
vn -0.370513 -0.014189 0.928719
vn -0.198759 -0.198759 0.959682
vn -0.095828 -0.095827 0.990775
vn -0.235170 -0.002121 0.971952
vn -0.198759 -0.198759 0.959682
vn -0.022990 -0.362876 0.931554
vn -0.003591 -0.228360 0.973570
vn -0.095828 -0.095827 0.990775
vn -0.029173 -0.999345 0.021415
vn -0.382513 -0.923470 0.029769
vn -0.382683 -0.923880 0.000000
vn -0.028572 -0.999592 0.000000
vn -0.923471 -0.382512 0.029769
vn -0.999634 -0.017207 0.020877
vn -0.999858 -0.016843 0.000000
vn -0.923881 -0.382681 0.000000
vn 0.022990 -0.362876 0.931554
vn 0.198761 -0.198759 0.959682
vn 0.095828 -0.095827 0.990775
vn 0.003591 -0.228360 0.973570
vn 0.198761 -0.198759 0.959682
vn 0.370514 -0.014189 0.928719
vn 0.235170 -0.002121 0.971952
vn 0.095828 -0.095827 0.990775
vn 0.999634 -0.017207 0.020877
vn 0.923470 -0.382514 0.029769
vn 0.923879 -0.382684 0.000000
vn 0.999858 -0.016843 0.000000
vn 0.382514 -0.923470 0.029769
vn 0.029173 -0.999345 0.021415
vn 0.028572 -0.999592 0.000000
vn 0.382684 -0.923879 0.000000
vn 0.029173 0.999345 0.021414
vn 0.382515 0.923470 0.029768
vn 0.382684 0.923879 0.000000
vn 0.028572 0.999592 0.000000
vn 0.923470 0.382515 0.029769
vn 0.999634 0.017207 0.020877
vn 0.999858 0.016843 0.000000
vn 0.923879 0.382684 0.000000
vn 0.999634 0.017207 0.020877
vn 0.923470 0.382515 0.029769
vn 0.812520 0.336556 0.475964
vn 0.922168 0.011216 0.386628
vn 0.382515 0.923470 0.029768
vn 0.029173 0.999345 0.021414
vn 0.019218 0.920872 0.389392
vn 0.336558 0.812523 0.475957
vn -0.003591 0.228359 0.973570
vn -0.095827 0.095827 0.990775
vn 0.050390 -0.050390 0.997458
vn 0.004714 -0.067977 0.997676
vn -0.095827 0.095827 0.990775
vn -0.235171 0.002121 0.971952
vn 0.066577 -0.002690 0.997778
vn 0.050390 -0.050390 0.997458
vn 0.004714 -0.067977 0.997676
vn 0.050390 -0.050390 0.997458
vn 0.198761 -0.198760 0.959682
vn 0.006574 -0.377061 0.926165
vn 0.050390 -0.050390 0.997458
vn 0.066577 -0.002690 0.997778
vn 0.379587 -0.003628 0.925149
vn 0.198761 -0.198760 0.959682
vn 0.999829 -0.018478 0.000000
vn 0.923881 -0.382681 0.000000
vn 0.913131 -0.378232 0.152094
vn 0.991940 -0.016767 0.125592
vn 0.382683 -0.923880 0.000000
vn 0.033616 -0.999435 0.000000
vn 0.030567 -0.991524 0.126274
vn 0.378231 -0.913131 0.152094
vn 0.920007 0.024298 0.391149
vn 0.812517 0.336556 0.475970
vn 0.913131 0.378232 0.152094
vn 0.991940 0.016767 0.125592
vn 0.336556 0.812518 0.475968
vn 0.043190 0.916565 0.397546
vn 0.030567 0.991525 0.126271
vn 0.378231 0.913131 0.152093
vn 0.033616 0.999435 0.000000
vn 0.382682 0.923880 0.000000
vn 0.378231 0.913131 0.152093
vn 0.030567 0.991525 0.126271
vn 0.923881 0.382681 0.000000
vn 0.999829 0.018478 0.000000
vn 0.991940 0.016767 0.125592
vn 0.913131 0.378232 0.152094
vn -0.235170 -0.002121 0.971952
vn -0.095828 -0.095827 0.990775
vn 0.050389 0.050390 0.997458
vn 0.066576 0.002690 0.997778
vn -0.095828 -0.095827 0.990775
vn -0.003591 -0.228360 0.973570
vn 0.004714 0.067977 0.997676
vn 0.050389 0.050390 0.997458
vn -0.043190 0.916565 0.397546
vn -0.336556 0.812518 0.475968
vn -0.378231 0.913131 0.152093
vn -0.030567 0.991525 0.126271
vn -0.812518 0.336555 0.475968
vn -0.920007 0.024297 0.391149
vn -0.991940 0.016767 0.125592
vn -0.913132 0.378231 0.152093
vn -0.999829 0.018478 0.000000
vn -0.923880 0.382682 0.000000
vn -0.913132 0.378231 0.152093
vn -0.991940 0.016767 0.125592
vn -0.382683 0.923880 0.000000
vn -0.033616 0.999435 0.000000
vn -0.030567 0.991525 0.126271
vn -0.378231 0.913131 0.152093
vn 0.003591 -0.228360 0.973570
vn 0.095828 -0.095827 0.990775
vn -0.050391 0.050390 0.997458
vn -0.004714 0.067978 0.997676
vn 0.095828 -0.095827 0.990775
vn 0.235170 -0.002121 0.971952
vn -0.066579 0.002690 0.997778
vn -0.050391 0.050390 0.997458
vn -0.920007 -0.024297 0.391149
vn -0.812515 -0.336555 0.475972
vn -0.913131 -0.378231 0.152095
vn -0.991940 -0.016767 0.125592
vn -0.336554 -0.812517 0.475971
vn -0.043190 -0.916562 0.397554
vn -0.030567 -0.991524 0.126274
vn -0.378231 -0.913131 0.152094
vn -0.033616 -0.999435 0.000000
vn -0.382683 -0.923880 0.000000
vn -0.378231 -0.913131 0.152094
vn -0.030567 -0.991524 0.126274
vn -0.923880 -0.382682 0.000000
vn -0.999829 -0.018478 0.000000
vn -0.991940 -0.016767 0.125592
vn -0.913131 -0.378231 0.152095
vn 0.235170 0.002121 0.971952
vn 0.095829 0.095827 0.990775
vn -0.050390 -0.050390 0.997458
vn -0.066579 -0.002690 0.997778
vn 0.095829 0.095827 0.990775
vn 0.003591 0.228359 0.973570
vn -0.004714 -0.067977 0.997676
vn -0.050390 -0.050390 0.997458
s off
g Door_01 DoorFrame01
usemtl aiStandardSurface1SG
f 183/243/508 182/244/509 185/245/510 184/246/511
f 182/244/512 181/247/513 186/248/514 185/245/515
f 189/249/516 188/250/517 194/251/518 193/252/519
f 188/253/520 187/254/521 195/255/522 194/256/523
f 198/257/524 197/258/525 203/259/526 202/260/527
f 197/261/528 196/262/529 204/263/530 203/264/531
f 210/265/532 209/266/533 212/267/534 211/268/535
f 209/266/536 208/269/537 213/270/538 212/267/539
f 219/271/540 218/272/541 221/273/542 220/274/543
f 218/272/544 217/275/545 222/276/546 221/273/547
f 225/277/548 224/278/549 230/279/550 229/280/551
f 224/278/552 223/281/553 231/282/554 230/279/555
f 234/283/556 233/284/557 239/285/558 238/286/559
f 233/284/560 232/287/561 240/288/562 239/285/563
f 243/289/564 242/290/565 248/291/566 247/292/567
f 242/290/568 241/293/569 249/294/570 248/291/571
f 180/295/572 205/296/573 252/297/574 254/298/575
f 193/252/576 261/299/577 257/300/578 204/263/579
f 202/260/580 258/301/581 251/302/582 207/303/583
f 260/304/584 195/255/585 178/305/586 255/306/587
f 192/307/588 199/308/589 240/288/590 229/280/591
f 201/309/592 211/268/593 249/294/594 238/286/595
f 213/270/596 184/246/597 216/310/598 247/292/599
f 186/248/600 190/311/601 231/282/602 214/312/603
f 228/313/604 235/314/605 177/242/606 166/232/607
f 237/315/608 244/316/609 174/239/610 175/241/611
f 246/317/612 220/274/613 171/236/614 172/238/615
f 222/276/616 226/318/617 168/233/618 169/235/619
f 195/255/620 187/254/621 181/247/622 178/305/623
f 187/254/624 190/311/625 186/248/626 181/247/627
f 192/307/628 189/319/629 196/320/630 199/308/631
f 189/249/632 193/252/633 204/263/634 196/262/635
f 180/295/636 183/243/637 208/269/638 205/296/639
f 183/243/640 184/246/641 213/270/642 208/269/643
f 201/309/644 198/257/645 210/265/646 211/268/647
f 198/257/648 202/260/649 207/303/650 210/265/651
f 231/282/652 223/281/653 217/275/654 214/312/655
f 223/281/656 226/318/657 222/276/658 217/275/659
f 228/313/660 225/277/661 232/287/662 235/314/663
f 225/277/664 229/280/665 240/288/666 232/287/667
f 237/315/668 234/283/669 241/293/670 244/316/671
f 234/283/672 238/286/673 249/294/674 241/293/675
f 246/317/676 243/289/677 219/271/678 220/274/679
f 243/289/680 247/292/681 216/310/682 219/271/683
f 178/305/684 179/321/685 253/322/686 255/306/687
f 179/323/688 180/295/689 254/298/690 253/324/691
f 180/295/692 179/323/693 182/244/694 183/243/695
f 179/321/696 178/305/697 181/247/698 182/244/699
f 187/254/700 188/253/701 191/325/702 190/311/703
f 188/253/704 189/319/705 192/307/706 191/325/707
f 193/252/708 194/251/709 259/326/710 261/299/711
f 194/256/712 195/255/713 260/304/714 259/327/715
f 196/320/716 197/258/717 200/328/718 199/308/719
f 197/258/720 198/257/721 201/309/722 200/328/723
f 202/260/724 203/259/725 256/329/726 258/301/727
f 203/264/728 204/263/729 257/300/730 256/330/731
f 205/296/732 206/331/733 250/332/734 252/297/735
f 206/333/736 207/303/737 251/302/738 250/334/739
f 207/303/740 206/333/741 209/266/742 210/265/743
f 206/331/744 205/296/745 208/269/746 209/266/747
f 184/246/748 185/245/749 215/335/750 216/310/751
f 185/245/752 186/248/753 214/312/754 215/335/755
f 216/310/756 215/335/757 218/272/758 219/271/759
f 215/335/760 214/312/761 217/275/762 218/272/763
f 169/235/764 170/234/765 221/273/766 222/276/767
f 170/234/768 171/236/769 220/274/770 221/273/771
f 223/281/772 224/278/773 227/336/774 226/318/775
f 224/278/776 225/277/777 228/313/778 227/336/779
f 166/232/780 167/231/781 227/336/782 228/313/783
f 167/231/784 168/233/785 226/318/786 227/336/787
f 190/311/788 191/325/789 230/279/790 231/282/791
f 191/325/792 192/307/793 229/280/794 230/279/795
f 232/287/796 233/284/797 236/337/798 235/314/799
f 233/284/800 234/283/801 237/315/802 236/337/803
f 175/241/804 176/240/805 236/337/806 237/315/807
f 176/240/808 177/242/809 235/314/810 236/337/811
f 199/308/812 200/328/813 239/285/814 240/288/815
f 200/328/816 201/309/817 238/286/818 239/285/819
f 241/293/820 242/290/821 245/338/822 244/316/823
f 242/290/824 243/289/825 246/317/826 245/338/827
f 172/238/828 173/237/829 245/338/830 246/317/831
f 173/237/832 174/239/833 244/316/834 245/338/835
f 211/268/836 212/267/837 248/291/838 249/294/839
f 212/267/840 213/270/841 247/292/842 248/291/843
g default
v -69.994751 8.499840 15.790161
v 0.000000 8.499840 -5.209808
v -69.994751 8.499840 -5.209808
v -69.994751 73.168648 -5.209808
v 0.000000 8.499840 11.591309
v -1.229858 8.499840 14.560333
v -4.198853 8.499840 15.790161
v -1.213745 54.870697 11.590729
v -4.182739 56.100819 11.590759
v -4.182739 54.870998 14.560303
v -4.183472 51.901958 15.790314
v -1.214478 51.901592 14.560272
v 0.015381 51.901226 11.590729
v -69.994751 73.168648 11.591278
v -69.994751 67.096588 15.790161
v -69.994751 71.390182 14.560333
v -1.213745 54.870697 -5.209808
v 0.015381 51.901226 -5.209808
v -4.182739 56.100819 -5.209808
v -1.759399 54.325111 14.014526
v -44.393799 56.100822 -5.209808
v -52.911865 57.843540 -5.209808
v -60.061035 62.791634 -5.209808
v -62.173828 8.499841 15.790161
v -54.842651 8.499842 15.790161
v -46.395630 8.499842 15.790161
v -46.395630 51.901947 15.790314
v -54.842651 53.731365 15.790283
v -62.173828 58.926693 15.790253
v -45.306763 54.870998 14.560486
v -53.468140 56.540771 14.560486
v -60.318115 61.281754 14.560455
v -59.792969 62.511574 11.591400
v -52.942993 57.770596 11.591400
v -44.781494 56.100822 11.591339
vt 0.960873 0.000000
vt 1.000000 0.000000
vt 0.982001 0.159242
vt 0.960885 0.113974
vt 1.000000 0.000000
vt 1.000000 0.211758
vt 0.921756 0.199979
vt 1.000000 0.131496
vt 1.000000 1.000000
vt 0.921756 0.999999
vt 1.000000 0.240059
vt 1.000000 0.911774
vt 1.000000 0.000000
vt 0.000000 0.113263
vt 0.000000 0.125000
vt 0.000000 0.000000
vt 0.000000 0.000000
vt 1.000000 0.125000
vt 0.951595 0.000000
vt 1.000000 0.000000
vt 0.975798 0.125000
vt 0.500000 0.125000
vt 0.303993 0.125000
vt 0.000000 0.048510
vt 0.000000 0.000000
vt 0.099973 0.024993
vt 0.062422 0.062556
vt 0.000000 0.000000
vt 0.168905 0.000000
vt 0.165346 0.199951
vt 0.000000 0.199945
vt 0.250025 0.000000
vt 0.584453 0.125000
vt 0.536210 0.113389
vt 0.576119 0.000000
vt 0.239336 0.113263
vt 0.172569 0.999999
vt 0.000000 0.125000
vt 0.993513 0.138878
vt 0.305960 0.125000
vt 0.000000 0.125000
vt 0.500000 0.000000
vt 0.445125 0.113263
vt 0.500000 0.125000
vt 0.000000 0.999999
vt 1.035405 0.140056
vt 1.032281 0.127700
vn 0.382718 -0.000136 0.923865
vn 0.382718 -0.000136 0.923865
vn 0.382718 -0.000136 0.923865
vn 0.382718 -0.000136 0.923865
vn 0.923889 -0.000323 0.382660
vn 0.998070 -0.000352 0.062092
vn 0.997839 0.024807 0.060849
vn 0.924535 0.016330 0.380747
vn 0.026858 0.997757 0.061317
vn 0.378004 0.924943 0.039921
vn 0.382769 0.923844 0.000000
vn 0.028349 0.999598 0.000000
vn 0.925079 0.377670 0.039921
vn 0.997839 0.024807 0.060849
vn 0.999658 0.026165 0.000000
vn 0.923982 0.382436 0.000000
vn 0.997839 0.024807 0.060849
vn 0.998070 -0.000352 0.062092
vn 1.000000 -0.000354 0.000000
vn 0.999658 0.026165 0.000000
vn -1.000000 0.000000 0.000000
vn -1.000000 0.000000 0.000000
vn -1.000000 0.000000 0.000000
vn -1.000000 0.000000 0.000000
vn 0.924535 0.016330 0.380747
vn 0.997839 0.024807 0.060849
vn 0.925079 0.377670 0.039921
vn 0.888026 0.325029 0.325217
vn 0.378004 0.924943 0.039921
vn 0.026858 0.997757 0.061317
vn 0.017639 0.924562 0.380623
vn 0.325359 0.887906 0.325215
vn 0.017317 0.380718 0.924529
vn 0.026664 0.025631 0.999316
vn 0.380807 0.016521 0.924507
vn 0.325356 0.325226 0.887903
vn 0.610213 0.687947 0.392898
vn 0.358096 0.838523 0.410666
vn 0.391689 0.917182 0.073188
vn 0.667472 0.741616 0.066991
vn 0.358096 0.838523 0.410666
vn 0.035782 0.921046 0.387807
vn 0.034798 0.997047 0.068456
vn 0.391689 0.917182 0.073188
vn 0.026664 0.025631 0.999316
vn 0.017317 0.380718 0.924529
vn 0.010467 0.380118 0.924879
vn 0.000976 0.021660 0.999765
vn 0.017639 0.924562 0.380623
vn 0.026858 0.997757 0.061317
vn 0.034798 0.997047 0.068456
vn 0.035782 0.921046 0.387807
vn -0.000001 -0.000003 1.000000
vn 0.027206 -0.000013 0.999630
vn 0.026664 0.025631 0.999316
vn 0.000976 0.021660 0.999765
vn -0.000005 -0.000001 1.000000
vn -0.000004 -0.000001 1.000000
vn 0.017672 0.019952 0.999645
vn 0.063331 0.060631 0.996149
vn 0.034798 0.997047 0.068456
vn 0.026858 0.997757 0.061317
vn 0.028349 0.999598 0.000000
vn 0.034149 0.999416 0.000788
vn 0.721527 0.690699 0.048316
vn 0.667472 0.741616 0.066991
vn 0.670002 0.742357 0.001683
vn 0.722371 0.691506 0.000000
vn 0.017672 0.019952 0.999645
vn 0.252012 0.281800 0.925786
vn 0.276427 0.264630 0.923883
vn 0.063331 0.060631 0.996149
vn 0.610213 0.687947 0.392898
vn 0.667472 0.741616 0.066991
vn 0.721527 0.690699 0.048316
vn 0.667381 0.638871 0.382684
vn -0.000004 -0.000001 1.000000
vn -0.000004 -0.000003 1.000000
vn 0.008583 0.019385 0.999775
vn 0.017672 0.019952 0.999645
vn -0.000004 -0.000003 1.000000
vn -0.000001 -0.000003 1.000000
vn 0.000976 0.021660 0.999765
vn 0.008583 0.019385 0.999775
vn 0.017672 0.019952 0.999645
vn 0.008583 0.019385 0.999775
vn 0.144592 0.336442 0.930537
vn 0.252012 0.281800 0.925786
vn 0.008583 0.019385 0.999775
vn 0.000976 0.021660 0.999765
vn 0.010467 0.380118 0.924879
vn 0.144592 0.336442 0.930537
vn 0.034149 0.999416 0.000788
vn 0.392738 0.919638 0.004721
vn 0.391689 0.917182 0.073188
vn 0.034798 0.997047 0.068456
vn 0.392738 0.919638 0.004721
vn 0.670002 0.742357 0.001683
vn 0.667472 0.741616 0.066991
vn 0.391689 0.917182 0.073188
vn -0.000004 0.000000 -1.000000
vn 0.000000 0.000000 -1.000000
vn 0.000000 0.000000 -1.000000
vn -1.000000 0.000000 0.000000
vn -1.000000 0.000000 0.000000
vn -1.000000 0.000000 0.000000
vn -1.000000 0.000000 0.000000
s off
g Door_01 Panel01
usemtl aiStandardSurface4SG
f 268/339/844 267/340/845 273/341/846 272/342/847
f 267/340/848 266/343/849 274/344/850 273/341/851
usemtl aiStandardSurface5SG
f 270/345/852 269/346/853 278/347/854 280/348/855
f 269/349/856 274/344/857 279/350/858 278/347/859
usemtl aiStandardSurface4SG
f 274/344/860 266/343/861 263/351/862 279/350/863
f 276/352/864 265/353/865 264/354/866 262/355/867
usemtl aiStandardSurface5SG
f 273/341/868 274/344/869 269/349/870 281/356/871
f 269/346/872 270/345/873 271/357/874 281/358/875
f 271/359/876 272/342/877 273/341/878 281/356/879
f 293/362/880 292/363/881 295/364/882 294/365/883
f 292/366/884 291/367/885 296/368/886 295/369/887
f 272/342/888 271/359/889 291/371/890 288/372/891
f 271/357/892 270/345/893 296/368/894 291/367/895
usemtl aiStandardSurface4SG
f 287/373/896 268/339/897 272/342/898 288/372/899
f 262/355/900 285/370/901 290/374/902 276/352/903
usemtl aiStandardSurface5SG
f 296/368/904 270/345/905 280/348/906 282/375/907
f 275/376/908 294/365/909 284/361/910 265/353/911
f 290/374/912 293/378/913 277/379/914 276/352/915
f 293/362/916 294/365/917 275/376/918 277/379/919
usemtl aiStandardSurface4SG
f 285/370/920 286/380/921 289/381/922 290/374/923
f 286/380/924 287/373/925 288/372/926 289/381/927
usemtl aiStandardSurface5SG
f 290/374/928 289/381/929 292/382/930 293/378/931
f 289/381/932 288/372/933 291/371/934 292/382/935
f 282/375/936 283/383/937 295/369/938 296/368/939
f 283/360/940 284/361/941 294/365/942 295/364/943
usemtl aiStandardSurface4SG
f 278/384/944 279/385/945 280/377/946
usemtl aiStandardSurface5SG
f 275/376/947 265/353/948 276/352/949 277/379/950
