# This file uses centimeters as units for non-parametric coordinates.

mtllib S_U_09_3.mtl
g default
v -129.177368 -1.044387 180.400085
v 129.177368 -1.044387 180.400085
v -129.177368 100.000000 0.000880
v 129.177368 100.000000 0.000880
v -129.177368 100.000000 -0.000878
v 129.177368 100.000000 -0.000878
v -129.177368 -1.044370 -180.400085
v 129.177368 -1.044387 -180.400085
vt 0.862937 0.635529
vt 0.990367 0.426228
vt 0.990377 0.822743
vt 0.862994 0.268472
vt 0.879334 0.624489
vt 0.879332 0.624474
vt 0.965781 0.452002
vt 0.965775 0.452014
vn 1.000000 0.000000 0.000000
vn 1.000000 0.000000 0.000000
vn 1.000000 0.000000 0.000000
vn 1.000000 0.000000 0.000000
vn -1.000000 0.000000 0.000000
vn -1.000000 0.000000 0.000000
vn -1.000000 0.000000 0.000000
vn -1.000000 0.000000 0.000000
s off
g Unit_Base_26_C S_U_09_3
usemtl aiStandardSurface4SG
f 2/2/1 8/3/2 6/5/3 4/6/4
f 7/1/5 1/4/6 3/7/7 5/8/8
g default
v 167.984573 114.003235 0.000003
v 159.433823 127.275513 -9.642830
v 165.480057 125.332001 -8.230869
v 167.984573 120.640381 -4.822097
v 159.433823 108.933624 -15.602427
v 165.480057 109.676117 -13.317858
v 167.984573 111.468201 -7.802415
v 159.433823 97.597870 0.000003
v 165.480057 100.000000 0.000003
v 167.984573 105.799316 0.000003
v 159.433823 108.933624 15.602427
v 165.480057 109.676117 13.317855
v 167.984573 111.468201 7.802416
v 159.433823 127.275513 9.642829
v 165.480057 125.332001 8.230869
v 167.984573 120.640381 4.822095
v -167.984573 114.003235 0.000003
v -159.433823 127.275513 -9.642830
v -165.480057 125.332001 -8.230869
v -167.984573 120.640381 -4.822097
v -159.433823 108.933624 -15.602427
v -165.480057 109.676117 -13.317858
v -167.984573 111.468201 -7.802415
v -159.433823 97.597870 0.000003
v -165.480057 100.000000 0.000003
v -167.984573 105.799316 0.000003
v -159.433823 108.933624 15.602427
v -165.480057 109.676117 13.317855
v -167.984573 111.468201 7.802416
v -159.433823 127.275513 9.642829
v -165.480057 125.332001 8.230869
v -167.984573 120.640381 4.822095
vt 0.924800 0.077102
vt 0.913149 0.099617
vt 0.942612 0.095140
vt 0.947460 0.065735
vt 0.920991 0.052039
vt 0.899786 0.072979
vt 0.904279 0.117006
vt 0.895322 0.135216
vt 0.956410 0.108949
vt 0.970961 0.123095
vt 0.964857 0.056881
vt 0.982807 0.047415
vt 0.917947 0.032757
vt 0.914492 0.012760
vt 0.880507 0.069916
vt 0.860421 0.067024
vt 0.989315 0.982709
vt 0.513232 0.829525
vt 0.989310 0.952057
vt 0.513252 0.952133
vt 0.989290 0.829449
vt 0.513257 0.982785
vt 0.909703 0.192751
vt 0.921393 0.215246
vt 0.939175 0.197177
vt 0.944073 0.226574
vt 0.917629 0.240316
vt 0.896387 0.219413
vt 0.900803 0.175378
vt 0.891813 0.157185
vt 0.952947 0.183344
vt 0.967474 0.169173
vt 0.961486 0.235397
vt 0.979452 0.244833
vt 0.914618 0.259603
vt 0.911198 0.279606
vt 0.877114 0.222510
vt 0.857033 0.225439
vt 0.989295 0.860101
vt 0.513237 0.860177
vt 0.989300 0.890754
vt 0.513242 0.890829
vt 0.513247 0.921481
vt 0.989305 0.921405
vn 0.943537 0.268003 -0.194712
vn 1.000000 0.000000 0.000000
vn 0.943538 -0.102365 -0.315052
vn 0.943538 -0.331265 -0.000000
vn 0.943538 -0.102366 0.315052
vn 0.943537 0.268004 0.194712
vn 0.559398 0.670592 -0.487218
vn 0.559397 -0.256138 -0.788333
vn 0.005920 0.809001 -0.587778
vn 0.005920 -0.309011 -0.951040
vn 0.559401 -0.828897 -0.000000
vn 0.005920 -0.999982 0.000000
vn 0.559397 -0.256138 0.788333
vn 0.005920 -0.309011 0.951040
vn 0.559397 0.670592 0.487218
vn 0.005920 0.809001 0.587778
vn -1.000000 0.000000 0.000000
vn -0.943537 0.268003 -0.194712
vn -0.943538 -0.102365 -0.315052
vn -0.943538 -0.331264 0.000000
vn -0.943538 -0.102366 0.315052
vn -0.943537 0.268004 0.194712
vn -0.559397 0.670592 -0.487218
vn -0.559397 -0.256138 -0.788333
vn -0.005920 0.809001 -0.587778
vn -0.005920 -0.309011 -0.951040
vn -0.559402 -0.828897 -0.000000
vn -0.005920 -0.999982 0.000000
vn -0.559397 -0.256138 0.788333
vn -0.005920 -0.309011 0.951040
vn -0.559397 0.670592 0.487218
vn -0.005920 0.809001 0.587778
s 1
g S_U_09_3 Roof_Sculpture_04_C
usemtl aiStandardSurface4SG
f 12/10/9 9/9/10 15/11/11
f 15/11/11 9/9/10 18/12/12
f 18/12/12 9/9/10 21/13/13
f 21/13/13 9/9/10 24/14/14
f 24/14/14 9/9/10 12/10/9
f 11/15/15 12/10/9 15/11/11 14/17/16
f 10/16/17 11/15/15 14/17/16 13/18/18
f 14/17/16 15/11/11 18/12/12 17/19/19
f 13/18/18 14/17/16 17/19/19 16/20/20
f 17/19/19 18/12/12 21/13/13 20/21/21
f 16/20/20 17/19/19 20/21/21 19/22/22
f 20/21/21 21/13/13 24/14/14 23/23/23
f 19/22/22 20/21/21 23/23/23 22/24/24
f 23/23/23 24/14/14 12/10/9 11/15/15
f 22/24/24 23/23/23 11/15/15 10/16/17
f 25/32/25 28/31/26 31/33/27
f 25/32/25 31/33/27 34/34/28
f 25/32/25 34/34/28 37/35/29
f 25/32/25 37/35/29 40/36/30
f 25/32/25 40/36/30 28/31/26
f 31/33/27 28/31/26 27/37/31 30/39/32
f 27/37/31 26/38/33 29/40/34 30/39/32
f 34/34/28 31/33/27 30/39/32 33/41/35
f 30/39/32 29/40/34 32/42/36 33/41/35
f 37/35/29 34/34/28 33/41/35 36/43/37
f 33/41/35 32/42/36 35/44/38 36/43/37
f 40/36/30 37/35/29 36/43/37 39/45/39
f 36/43/37 35/44/38 38/46/40 39/45/39
f 28/31/26 40/36/30 39/45/39 27/37/31
f 39/45/39 38/46/40 26/38/33 27/37/31
f 22/49/24 10/52/17 26/51/33 38/50/40
f 19/47/22 22/49/24 38/50/40 35/48/38
f 16/29/20 19/47/22 35/48/38 32/26/36
f 13/27/18 16/25/20 32/30/36 29/28/34
f 10/52/17 13/27/18 29/28/34 26/51/33
g default
v 108.365524 -64.386665 288.992493
v 89.366577 -41.204971 292.345673
v 80.393234 -30.469841 273.530579
v 154.316818 107.741241 3.150646
v 146.095383 99.335220 2.027762
v 84.687347 -55.521297 297.621643
v 84.687363 -58.051170 297.301514
v 89.366577 -55.158283 298.952118
v 88.391022 -57.203949 297.784912
v 82.704971 -49.544655 289.113068
v 85.059937 -48.464661 289.190094
v 89.366409 -59.484196 296.452423
v 155.292343 -39.696373 261.769806
v 146.520126 -45.899574 255.929657
v 91.073883 -47.639763 301.650238
v 152.183273 -28.520845 268.145874
v 87.011597 -42.285202 292.269104
v 151.749924 118.917618 9.682892
v 77.097290 -38.938332 272.493011
v 75.294846 -40.678871 273.575256
v 57.405655 -37.007019 267.138794
v 57.874176 -34.991379 265.577026
v 58.261871 -28.037285 267.298920
v 58.730377 -26.022757 265.736511
v 78.590210 -32.209942 274.612549
v 86.036057 -54.674633 298.105011
v 89.191772 -47.797581 301.072296
v 53.098587 100.275444 44.165611
v 53.098587 -5.012516 228.914581
v 8.507181 100.275444 44.165611
v 70.113510 100.275444 44.165611
v 70.113510 -5.012516 228.914581
v 8.507181 -5.012516 228.914581
v 66.427429 94.667381 45.194607
v 56.771896 94.659973 45.206024
v 4.820908 94.667381 45.194607
v 66.440392 -6.976379 223.545380
v 56.827332 -6.959156 223.626465
v 4.833876 -6.976379 223.545380
v 152.018967 -47.384686 275.246033
v 143.474655 -53.539001 286.031708
v 130.891708 -57.652637 293.241882
v 116.110947 -59.123878 295.820923
v 143.495163 -52.953384 268.606934
v 135.200058 -58.932510 279.321838
v 122.875656 -62.943985 286.473602
v 114.458908 -47.760860 301.207245
v 128.952072 -46.328144 298.685181
v 141.262436 -42.217033 291.600494
v 149.547653 -36.042530 281.012909
v -108.365524 -64.386665 288.992493
v -89.366577 -41.204971 292.345673
v -80.393234 -30.469841 273.530579
v -154.316818 107.741241 3.150646
v -146.095383 99.335220 2.027762
v -84.687347 -55.521297 297.621643
v -84.687363 -58.051170 297.301514
v -89.366577 -55.158283 298.952118
v -88.391022 -57.203949 297.784912
v -82.704971 -49.544655 289.113068
v -85.059937 -48.464661 289.190094
v -89.366409 -59.484196 296.452423
v -155.292343 -39.696373 261.769806
v -146.520126 -45.899574 255.929657
v -91.073883 -47.639763 301.650238
v -152.183273 -28.520845 268.145874
v -87.011597 -42.285202 292.269104
v -151.749924 118.917618 9.682892
v -77.097290 -38.938332 272.493011
v -75.294846 -40.678871 273.575256
v -57.405655 -37.007019 267.138794
v -57.874176 -34.991379 265.577026
v -58.261871 -28.037285 267.298920
v -58.730377 -26.022757 265.736511
v -78.590210 -32.209942 274.612549
v -86.036057 -54.674633 298.105011
v -89.191772 -47.797581 301.072296
v -53.098587 100.275444 44.165611
v -53.098587 -5.012516 228.914581
v -8.507181 100.275444 44.165611
v -70.113510 100.275444 44.165611
v -70.113510 -5.012516 228.914581
v -8.507181 -5.012516 228.914581
v -66.440392 -6.976379 223.545380
v -66.427429 94.667381 45.194607
v -4.833876 -6.976379 223.545380
v -56.827332 -6.959156 223.626465
v -56.771896 94.659973 45.206024
v -4.820908 94.667381 45.194607
v -152.018967 -47.384686 275.246033
v -143.474655 -53.539001 286.031708
v -130.891708 -57.652637 293.241882
v -116.110947 -59.123878 295.820923
v -143.495163 -52.953384 268.606934
v -135.200058 -58.932510 279.321838
v -122.875656 -62.943985 286.473602
v -114.458908 -47.760860 301.207245
v -128.952072 -46.328144 298.685181
v -141.262436 -42.217033 291.600494
v -149.547653 -36.042530 281.012909
vt 0.556785 0.801566
vt 0.330513 0.153995
vt 0.326899 0.440100
vt 0.264960 0.439789
vt 0.262840 0.154201
vt 0.482764 0.495308
vt 0.498278 0.495308
vt 0.384452 0.029524
vt 0.374879 0.045841
vt 0.372222 0.044013
vt 0.376387 0.029131
vt 0.379075 0.030760
vt 0.381969 0.051567
vt 0.386333 0.039303
vt 0.384783 0.053163
vt 0.388165 0.039414
vt 0.464781 0.495308
vt 0.360467 0.068283
vt 0.362097 0.071178
vt 0.336169 0.081489
vt 0.335313 0.078115
vt 0.338569 0.094514
vt 0.483224 0.090435
vt 0.352517 0.440339
vt 0.376629 0.025329
vt 0.383607 0.022836
vt 0.356259 0.153783
vt 0.366799 0.079194
vt 0.368908 0.082473
vt 0.465470 0.091145
vt 0.337681 0.091035
vt 0.411851 0.009658
vt 0.499876 0.092504
vt 0.382321 0.026702
vt 0.345678 0.435106
vt 0.333861 0.434981
vt 0.258245 0.434616
vt 0.349244 0.159036
vt 0.337393 0.159051
vt 0.255964 0.159384
vt 0.423985 0.024988
vt 0.446834 0.034152
vt 0.464527 0.048952
vt 0.476522 0.067834
vt 0.418433 0.041714
vt 0.436655 0.047013
vt 0.444372 0.012916
vt 0.474894 0.031051
vt 0.494462 0.059948
vt 0.857877 0.410769
vt 0.461933 0.072712
vt 0.451625 0.057899
vt 0.040354 0.495308
vt 0.858324 0.756799
vt 0.813182 0.801608
vt 0.854744 0.773961
vt 0.844930 0.788476
vt 0.830349 0.798175
vt 0.167382 0.094643
vt 0.177649 0.153963
vt 0.237125 0.154199
vt 0.240225 0.439717
vt 0.178409 0.439675
vt 0.022429 0.495308
vt 0.006988 0.495308
vt 0.121829 0.029875
vt 0.131376 0.046130
vt 0.127186 0.031099
vt 0.129849 0.029468
vt 0.133996 0.044305
vt 0.124375 0.051840
vt 0.120016 0.039624
vt 0.121596 0.053433
vt 0.118201 0.039737
vt 0.145665 0.068497
vt 0.170753 0.078267
vt 0.169874 0.081637
vt 0.144065 0.071377
vt 0.024508 0.090224
vt 0.152843 0.439768
vt 0.129609 0.025674
vt 0.122631 0.023207
vt 0.512217 0.410714
vt 0.151407 0.153719
vt 0.139468 0.079354
vt 0.137401 0.082616
vt 0.042206 0.091012
vt 0.168298 0.091169
vt 0.094382 0.010139
vt 0.007903 0.092198
vt 0.123932 0.027058
vt 0.511659 0.756743
vt 0.158510 0.158974
vt 0.159712 0.434583
vt 0.244095 0.159381
vt 0.170587 0.159003
vt 0.171508 0.434524
vt 0.246845 0.434582
vt 0.082625 0.025495
vt 0.060219 0.034700
vt 0.042900 0.049348
vt 0.031133 0.067947
vt 0.088287 0.042079
vt 0.070346 0.047352
vt 0.062450 0.013789
vt 0.032639 0.031781
vt 0.013436 0.060145
vt 0.045582 0.072767
vt 0.055655 0.058131
vt 0.539621 0.798128
vt 0.525043 0.788424
vt 0.515233 0.773906
vn 0.050894 0.869239 0.491766
vn 0.049452 0.867724 0.494580
vn -0.026799 0.873570 0.485960
vn -0.038915 0.869305 0.492743
vn 0.031532 -0.867568 -0.496317
vn 0.977944 -0.180175 -0.105651
vn 0.972835 -0.204682 -0.108153
vn 0.029876 -0.867990 -0.495683
vn -0.844903 0.256746 0.469276
vn -0.791680 0.240718 0.561514
vn -0.801504 0.321490 0.504217
vn -0.810864 0.313576 0.494136
vn -0.123335 -0.357684 0.925662
vn 0.007558 -0.406692 0.913534
vn 0.010850 0.265527 0.964042
vn -0.007386 0.844300 0.535820
vn -0.006673 0.673464 0.739190
vn 0.002550 0.856706 0.515798
vn -0.008103 0.864485 0.502594
vn -0.630780 0.079927 0.771834
vn -0.053224 -0.042233 0.997689
vn -0.004021 0.831738 0.555154
vn -0.582012 0.204805 0.786967
vn -0.052092 0.017240 0.998493
vn 0.231742 0.846046 0.480106
vn 0.225851 0.844990 0.484750
vn -0.009775 0.868236 0.496056
vn -0.231742 0.846046 0.480106
vn 0.026799 0.873570 0.485960
vn -0.007760 0.869065 0.494638
vn 0.004291 0.854496 0.519440
vn 0.005656 0.863827 0.503758
vn -0.000856 -0.341205 0.939988
vn 0.371792 0.794608 0.479967
vn -0.371581 0.794562 0.480207
vn -0.371003 0.818201 0.439208
vn 0.372071 0.818077 0.438536
vn -0.372448 0.794258 0.480038
vn -0.372754 0.817694 0.438669
vn 0.372448 0.794258 0.480038
vn -0.004291 0.854496 0.519440
vn 0.038915 0.869305 0.492743
vn 0.071485 0.289551 0.954490
vn 0.126288 -0.599224 0.790558
vn 0.404468 -0.632176 0.660878
vn 0.125544 0.695826 0.707152
vn 0.691634 -0.563796 0.451415
vn 0.211206 0.733324 0.646242
vn 0.889922 -0.417451 0.183775
vn 0.120821 0.836827 0.533970
vn 0.000821 -0.825042 0.565071
vn 0.010123 -0.990500 -0.137141
vn 0.021849 -0.901292 -0.432661
vn 0.030048 -0.888015 -0.458832
vn 0.033743 -0.879960 -0.473848
vn -0.050894 0.869239 0.491766
vn -0.049452 0.867724 0.494580
vn -0.972835 -0.204682 -0.108153
vn -0.977944 -0.180175 -0.105651
vn -0.031532 -0.867568 -0.496317
vn -0.029876 -0.867990 -0.495683
vn 0.791680 0.240718 0.561514
vn 0.844903 0.256747 0.469276
vn 0.810864 0.313576 0.494136
vn 0.801504 0.321490 0.504218
vn 0.123330 -0.357684 0.925663
vn 0.006673 0.673464 0.739190
vn 0.007386 0.844300 0.535820
vn -0.002550 0.856706 0.515798
vn -0.010851 0.265526 0.964043
vn 0.008103 0.864485 0.502594
vn 0.004021 0.831738 0.555154
vn 0.053224 -0.042233 0.997689
vn 0.630780 0.079928 0.771834
vn 0.052093 0.017240 0.998494
vn 0.582013 0.204806 0.786966
vn 0.000856 -0.341205 0.939988
vn -0.000821 -0.825042 0.565071
vn -0.010123 -0.990500 -0.137141
vn -0.225851 0.844990 0.484750
vn 0.009775 0.868236 0.496056
vn -0.125544 0.695826 0.707152
vn -0.071485 0.289550 0.954490
vn 0.007760 0.869065 0.494638
vn -0.005656 0.863827 0.503758
vn 0.371581 0.794562 0.480207
vn -0.371792 0.794608 0.479967
vn 0.372754 0.817694 0.438669
vn 0.371003 0.818201 0.439208
vn -0.372071 0.818077 0.438536
vn -0.404468 -0.632176 0.660878
vn -0.126288 -0.599224 0.790558
vn -0.691635 -0.563796 0.451415
vn -0.211206 0.733324 0.646241
vn -0.889922 -0.417451 0.183775
vn -0.120821 0.836827 0.533970
vn -0.007559 -0.406692 0.913534
vn -0.033743 -0.879960 -0.473848
vn -0.021850 -0.901292 -0.432661
vn -0.030048 -0.888015 -0.458832
s 1
g S_U_09_3 Roof_11_C
usemtl aiStandardSurface4SG
f 69/54/41 68/55/42 70/56/43 73/57/44
f 45/59/45 44/58/46 53/75/47 54/85/48
f 51/61/49 66/64/50 67/66/51 57/65/52
f 67/66/51 49/86/53 48/60/54 55/68/55
f 51/61/49 50/62/56 46/63/57 66/64/50
f 42/67/58 57/65/52 67/66/51 55/68/55
f 60/70/59 59/71/60 62/72/61 61/73/62
f 62/72/61 59/71/60 65/80/63 63/83/64
f 53/75/47 44/58/46 58/69/65 56/82/66
f 59/71/60 51/61/49 57/65/52 65/80/63
f 68/55/42 71/76/67 58/69/65
f 70/56/43 58/69/65 108/105/68 120/114/69
f 72/79/70 56/82/66 58/69/65 71/76/67
f 64/74/71 72/79/70 69/54/41
f 57/65/52 42/67/58 43/81/72 65/80/63
f 50/62/56 51/61/49 59/71/60 60/70/59
f 64/74/71 63/83/64 65/80/63 43/81/72
f 46/63/57 47/77/73 49/86/53 66/64/50
f 71/76/67 68/55/42 75/88/74 74/87/75
f 71/76/67 74/87/75 77/90/76 72/79/70
f 75/88/74 78/91/77 77/90/76 74/87/75
f 70/56/43 76/89/78 79/92/79 73/57/44
f 69/54/41 78/91/77 75/88/74 68/55/42
f 129/150/80 76/89/78 70/56/43 120/114/69
f 69/54/41 72/79/70 77/90/76 78/91/77
f 58/69/65 70/56/43 68/55/42
f 114/111/81 64/74/71 73/57/44 123/113/82
f 64/74/71 69/54/41 73/57/44
f 87/97/83 83/93/84 82/94/85 88/98/86
f 82/94/85 81/95/87 89/104/88 88/98/86
f 81/95/87 80/96/89 90/103/90 89/104/88
f 80/96/89 53/75/47 56/82/66 90/103/90
f 83/93/84 52/78/91 41/84/92
f 87/97/83 55/68/55 48/60/54 83/93/84
f 82/94/85 83/93/84 41/84/92 86/99/93
f 81/95/87 82/94/85 86/99/93 85/100/94
f 53/75/47 80/96/89 84/101/95 54/85/48
f 80/96/89 81/95/87 85/100/94 84/101/95
f 52/78/91 48/60/54 49/86/53
f 52/78/91 49/86/53 47/77/73
f 119/112/96 123/113/82 120/114/69 118/115/97
f 103/131/98 94/116/99 95/117/100 104/142/101
f 116/120/102 101/119/103 107/123/104 117/124/105
f 117/124/105 99/143/106 116/120/102
f 101/119/103 116/120/102 96/121/107 100/122/108
f 92/125/109 105/126/110 117/124/105 107/123/104
f 110/127/111 111/128/112 112/129/113 109/130/114
f 109/130/114 112/129/113 113/140/115 115/137/116
f 114/111/81 113/140/115 63/83/64 64/74/71
f 112/129/113 111/128/112 61/73/62 62/72/61
f 46/63/57 96/121/107 97/133/117 47/77/73
f 52/78/91 102/134/118 91/141/119 41/84/92
f 108/105/68 94/116/99 103/131/98 106/139/120
f 107/123/104 101/119/103 109/130/114 115/137/116
f 121/132/121 118/115/97 108/105/68
f 112/129/113 62/72/61 63/83/64 113/140/115
f 47/77/73 97/133/117 102/134/118 52/78/91
f 92/125/109 138/156/122 137/155/123 105/126/110
f 114/111/81 119/112/96 122/136/124
f 107/123/104 115/137/116 93/138/125 92/125/109
f 100/122/108 110/127/111 109/130/114 101/119/103
f 114/111/81 93/138/125 115/137/116 113/140/115
f 111/128/112 110/127/111 60/70/59 61/73/62
f 96/121/107 116/120/102 99/143/106 97/133/117
f 118/115/97 121/132/121 125/146/126 128/149/127
f 129/150/80 120/114/69 123/113/82 126/147/128
f 125/146/126 121/132/121 122/136/124 124/145/129
f 125/146/126 124/145/129 127/148/130 128/149/127
f 126/147/128 79/92/79 76/89/78 129/150/80
f 119/112/96 118/115/97 128/149/127 127/148/130
f 122/136/124 119/112/96 127/148/130 124/145/129
f 123/113/82 73/57/44 79/92/79 126/147/128
f 108/105/68 118/115/97 120/114/69
f 114/111/81 123/113/82 119/112/96
f 132/152/131 133/151/132 137/155/123 138/156/122
f 131/153/133 132/152/131 138/156/122 139/161/134
f 130/154/135 131/153/133 139/161/134 140/160/136
f 106/139/120 103/131/98 130/154/135 140/160/136
f 133/151/132 91/141/119 102/134/118
f 98/118/137 133/151/132 102/134/118
f 84/108/95 134/164/138 104/144/101 54/106/48
f 132/152/131 136/157/139 91/141/119 133/151/132
f 131/153/133 135/158/140 136/157/139 132/152/131
f 103/131/98 104/142/101 134/159/138 130/154/135
f 130/154/135 134/159/138 135/158/140 131/153/133
f 102/134/118 99/143/106 98/118/137
f 102/134/118 97/133/117 99/143/106
f 50/62/56 100/122/108 96/121/107 46/63/57
f 60/70/59 110/127/111 100/122/108 50/62/56
f 54/106/48 104/144/101 95/135/100 45/102/45
f 85/109/94 135/163/140 134/164/138 84/108/95
f 136/162/139 135/163/140 85/109/94 86/110/93
f 136/162/139 86/110/93 41/107/92 91/53/119
f 93/138/125 139/161/134 138/156/122 92/125/109
f 114/111/81 140/160/136 139/161/134 93/138/125
f 122/136/124 106/139/120 140/160/136 114/111/81
f 122/136/124 121/132/121 108/105/68 106/139/120
f 88/98/86 42/67/58 55/68/55 87/97/83
f 89/104/88 43/81/72 42/67/58 88/98/86
f 64/74/71 43/81/72 89/104/88 90/103/90
f 64/74/71 90/103/90 56/82/66 72/79/70
f 83/93/84 48/60/54 52/78/91
f 98/118/137 105/126/110 137/155/123 133/151/132
f 98/118/137 99/143/106 117/124/105 105/126/110
f 66/64/50 49/86/53 67/66/51
g default
v 89.366577 -41.204994 -292.343872
v 80.393234 -30.469856 -273.528809
v 154.316818 107.741241 -3.148885
v 146.095383 99.335220 -2.026000
v 84.687347 -55.521313 -297.619873
v 84.687363 -58.051178 -297.299744
v 89.366577 -55.158283 -298.950378
v 88.391022 -57.203949 -297.783142
v 82.704971 -49.544659 -289.111298
v 85.059937 -48.464668 -289.188293
v 89.366409 -59.484211 -296.450623
v 155.292343 -39.696381 -261.768036
v 146.520126 -45.899586 -255.927887
v 91.073883 -47.639755 -301.648499
v 152.183273 -28.520849 -268.144104
v 87.011597 -42.285217 -292.267303
v 151.749924 118.917618 -9.681130
v 77.097290 -38.938339 -272.491241
v 75.294846 -40.678879 -273.573456
v 57.405655 -37.007019 -267.137054
v 57.874176 -34.991379 -265.575317
v 58.261871 -28.037289 -267.297150
v 58.730377 -26.022764 -265.734741
v 78.590210 -32.209946 -274.610779
v 151.749908 118.917618 -9.681130
v 86.036057 -54.674629 -298.103271
v 89.191772 -47.797588 -301.070557
v 53.098587 100.275436 -44.163849
v 53.098587 -5.012520 -228.912811
v 8.507181 100.275436 -44.163849
v 70.113510 100.275436 -44.163849
v 70.113510 -5.012520 -228.912811
v 8.507181 -5.012520 -228.912811
v 66.427429 94.667366 -45.192844
v 56.771896 94.659981 -45.204266
v 4.820908 94.667366 -45.192844
v 66.440392 -6.976387 -223.543625
v 56.827332 -6.959156 -223.624710
v 4.833876 -6.976387 -223.543625
v 152.018967 -47.384686 -275.244263
v 143.474655 -53.539024 -286.029907
v 130.891708 -57.652649 -293.240112
v 116.110947 -59.123882 -295.819183
v 143.495163 -52.953392 -268.605164
v 135.200058 -58.932503 -279.320068
v 122.875656 -62.944000 -286.471832
v 108.365524 -64.386665 -288.990723
v 114.458908 -47.760857 -301.205475
v 128.952072 -46.328140 -298.683441
v 141.262436 -42.217049 -291.598724
v 149.547653 -36.042545 -281.011108
v -89.366577 -41.204994 -292.343872
v -80.393234 -30.469856 -273.528809
v -154.316818 107.741241 -3.148885
v -146.095383 99.335220 -2.026000
v -84.687347 -55.521313 -297.619873
v -84.687363 -58.051178 -297.299744
v -89.366577 -55.158283 -298.950378
v -88.391022 -57.203949 -297.783142
v -82.704971 -49.544659 -289.111298
v -85.059937 -48.464668 -289.188293
v -89.366409 -59.484211 -296.450623
v -155.292343 -39.696381 -261.768036
v -146.520126 -45.899586 -255.927887
v -91.073883 -47.639755 -301.648499
v -152.183273 -28.520849 -268.144104
v -87.011597 -42.285217 -292.267303
v -151.749924 118.917618 -9.681130
v -77.097290 -38.938339 -272.491241
v -75.294846 -40.678879 -273.573456
v -57.405655 -37.007019 -267.137054
v -57.874176 -34.991379 -265.575317
v -58.261871 -28.037289 -267.297150
v -58.730377 -26.022764 -265.734741
v -78.590210 -32.209946 -274.610779
v -86.036057 -54.674629 -298.103271
v -89.191772 -47.797588 -301.070557
v -53.098587 100.275436 -44.163849
v -53.098587 -5.012520 -228.912811
v -8.507181 100.275436 -44.163849
v -70.113510 100.275436 -44.163849
v -70.113510 -5.012520 -228.912811
v -8.507181 -5.012520 -228.912811
v -66.440392 -6.976387 -223.543625
v -66.427429 94.667366 -45.192844
v -4.833876 -6.976387 -223.543625
v -56.827332 -6.959156 -223.624710
v -56.771896 94.659981 -45.204266
v -4.820908 94.667366 -45.192844
v -152.018967 -47.384686 -275.244263
v -143.474655 -53.539024 -286.029907
v -130.891708 -57.652649 -293.240112
v -116.110947 -59.123882 -295.819183
v -143.495163 -52.953392 -268.605164
v -135.200058 -58.932503 -279.320068
v -122.875656 -62.944000 -286.471832
v -108.365524 -64.386665 -288.990723
v -114.458908 -47.760857 -301.205475
v -128.952072 -46.328140 -298.683441
v -141.262436 -42.217049 -291.598724
v -149.547653 -36.042545 -281.011108
vt 0.182501 0.653298
vt 0.243059 0.653604
vt 0.243375 0.941116
vt 0.179871 0.940955
vt 0.018521 0.995064
vt 0.002590 0.990461
vt 0.128188 0.529963
vt 0.139675 0.546351
vt 0.133924 0.531337
vt 0.136201 0.529897
vt 0.142182 0.544409
vt 0.132238 0.552029
vt 0.126711 0.539637
vt 0.129355 0.553462
vt 0.124613 0.539702
vt 0.037578 0.995343
vt 0.155019 0.567829
vt 0.179035 0.577275
vt 0.178188 0.580637
vt 0.153209 0.570644
vt 0.175032 0.593725
vt 0.033215 0.584488
vt 0.037578 0.995343
vt 0.153198 0.940957
vt 0.135586 0.526083
vt 0.127946 0.523697
vt 0.156213 0.652642
vt 0.147572 0.578480
vt 0.145389 0.581535
vt 0.051072 0.586262
vt 0.176131 0.590136
vt 0.016848 0.585639
vt 0.130003 0.527193
vt 0.852228 0.394204
vt 0.160358 0.935764
vt 0.172912 0.935761
vt 0.250091 0.936027
vt 0.849839 0.048181
vt 0.163087 0.658089
vt 0.175280 0.658308
vt 0.250057 0.658827
vt 0.088469 0.525935
vt 0.068101 0.534177
vt 0.051763 0.547020
vt 0.040548 0.563751
vt 0.098072 0.510938
vt 0.095154 0.541556
vt 0.078097 0.546216
vt 0.071131 0.517064
vt 0.045843 0.531465
vt 0.026875 0.554578
vt 0.055310 0.569682
vt 0.064592 0.556264
vt 0.475486 0.996168
vt 0.337073 0.593628
vt 0.329660 0.653167
vt 0.332756 0.940936
vt 0.269202 0.941135
vt 0.269088 0.653598
vt 0.494195 0.995399
vt 0.510006 0.990526
vt 0.383783 0.529966
vt 0.372381 0.546254
vt 0.369873 0.544313
vt 0.375841 0.529799
vt 0.378111 0.531264
vt 0.379821 0.551921
vt 0.385337 0.539515
vt 0.382705 0.553348
vt 0.387455 0.539579
vt 0.357054 0.567741
vt 0.358867 0.570555
vt 0.333896 0.580560
vt 0.333044 0.577202
vt 0.478867 0.584249
vt 0.359408 0.940976
vt 0.376454 0.525980
vt 0.384089 0.523589
vt 0.356003 0.652498
vt 0.364511 0.578375
vt 0.366699 0.581426
vt 0.461016 0.586038
vt 0.335969 0.590060
vt 0.495234 0.585384
vt 0.382098 0.526964
vt 0.846118 0.031049
vt 0.836185 0.016616
vt 0.804332 0.003745
vt 0.821525 0.007036
vt 0.349159 0.657934
vt 0.352274 0.935723
vt 0.262159 0.658798
vt 0.506580 0.397092
vt 0.336918 0.658184
vt 0.503185 0.051080
vt 0.339757 0.935707
vt 0.262415 0.936023
vt 0.423564 0.525784
vt 0.443937 0.533999
vt 0.460286 0.546822
vt 0.471516 0.563537
vt 0.413952 0.510804
vt 0.416893 0.541408
vt 0.433953 0.546048
vt 0.440894 0.516892
vt 0.466192 0.531262
vt 0.485179 0.554349
vt 0.456761 0.569479
vt 0.447466 0.556078
vt 0.530807 0.009467
vt 0.547943 0.005888
vt 0.516309 0.019290
vt 0.506619 0.033888
vn 0.050894 0.869239 -0.491766
vn -0.038915 0.869305 -0.492743
vn -0.026799 0.873570 -0.485960
vn 0.049452 0.867724 -0.494581
vn -0.844903 0.256747 -0.469275
vn -0.791684 0.240716 -0.561510
vn -0.006673 0.673464 -0.739190
vn -0.007386 0.844300 -0.535820
vn -0.810864 0.313576 -0.494135
vn -0.801506 0.321490 -0.504215
vn 0.002550 0.856707 -0.515798
vn 0.010851 0.265529 -0.964042
vn -0.008103 0.864485 -0.502593
vn -0.004021 0.831735 -0.555159
vn -0.053224 -0.042230 -0.997689
vn -0.630779 0.079928 -0.771835
vn 0.246143 0.842314 -0.479500
vn 0.977944 -0.180175 0.105651
vn 0.972835 -0.204683 0.108153
vn 0.225851 0.844990 -0.484751
vn -0.582011 0.204807 -0.786967
vn 0.005655 0.863827 -0.503757
vn 0.004291 0.854496 -0.519440
vn -0.052092 0.017246 -0.998493
vn 0.031532 -0.867568 0.496317
vn 0.029876 -0.867990 0.495683
vn -0.123330 -0.357690 -0.925661
vn -0.000856 -0.341214 -0.939985
vn -0.007760 0.869065 -0.494638
vn 0.372070 0.818077 -0.438537
vn 0.371792 0.794608 -0.479967
vn -0.371001 0.818202 -0.439208
vn -0.371579 0.794563 -0.480208
vn -0.009775 0.868236 -0.496056
vn -0.372753 0.817695 -0.438669
vn -0.372447 0.794258 -0.480038
vn 0.000000 0.879676 -0.475574
vn 0.007559 -0.406693 -0.913534
vn 0.126287 -0.599224 -0.790558
vn 0.000821 -0.825042 -0.565071
vn 0.404469 -0.632176 -0.660878
vn 0.021850 -0.901291 0.432663
vn 0.010123 -0.990500 0.137139
vn 0.691634 -0.563797 -0.451415
vn 0.030048 -0.888015 0.458832
vn 0.033743 -0.879960 0.473848
vn 0.889922 -0.417451 -0.183776
vn 0.120820 0.836826 -0.533970
vn 0.211205 0.733324 -0.646242
vn 0.071485 0.289553 -0.954489
vn 0.125544 0.695826 -0.707152
vn -0.050894 0.869239 -0.491766
vn -0.049452 0.867724 -0.494581
vn 0.026799 0.873570 -0.485960
vn 0.038915 0.869305 -0.492743
vn 0.844903 0.256747 -0.469275
vn 0.007386 0.844300 -0.535820
vn 0.006673 0.673464 -0.739190
vn 0.784111 0.219824 -0.580386
vn 0.810069 0.352847 -0.468281
vn 0.810864 0.313576 -0.494136
vn -0.002550 0.856707 -0.515798
vn -0.013071 0.266395 -0.963775
vn 0.008103 0.864485 -0.502593
vn 0.630780 0.079928 -0.771835
vn 0.053224 -0.042230 -0.997689
vn 0.004021 0.831735 -0.555159
vn -0.231742 0.846046 -0.480106
vn -0.000821 -0.825042 -0.565071
vn 0.000856 -0.341214 -0.939985
vn -0.004292 0.854496 -0.519440
vn 0.007760 0.869065 -0.494638
vn -0.972835 -0.204682 0.108153
vn -0.977944 -0.180175 0.105651
vn -0.225851 0.844990 -0.484751
vn -0.005655 0.863827 -0.503757
vn 0.582011 0.204807 -0.786967
vn 0.052092 0.017246 -0.998493
vn -0.029876 -0.867990 0.495683
vn -0.031532 -0.867568 0.496317
vn 0.156972 -0.347878 -0.924306
vn -0.002480 -0.404492 -0.914538
vn 0.371001 0.818202 -0.439208
vn -0.372070 0.818077 -0.438537
vn -0.371792 0.794608 -0.479967
vn 0.372447 0.794258 -0.480038
vn 0.372753 0.817695 -0.438669
vn 0.371579 0.794563 -0.480208
vn 0.009775 0.868236 -0.496056
vn -0.126287 -0.599224 -0.790558
vn -0.071485 0.289553 -0.954489
vn -0.404469 -0.632176 -0.660877
vn -0.010123 -0.990500 0.137139
vn -0.021850 -0.901291 0.432663
vn -0.691635 -0.563797 -0.451414
vn -0.030048 -0.888015 0.458832
vn -0.889922 -0.417451 -0.183775
vn -0.033743 -0.879960 0.473848
vn -0.120820 0.836826 -0.533970
vn -0.211205 0.733324 -0.646241
vn -0.125544 0.695826 -0.707152
s 1
g S_U_09_3 Roof_11_C1
usemtl aiStandardSurface4SG
f 169/165/141 173/166/142 170/167/143 168/168/144
f 150/172/145 166/173/146 145/174/147 149/175/148
f 166/173/146 150/172/145 156/176/149 167/177/150
f 141/178/151 154/179/152 167/177/150 156/176/149
f 159/181/153 160/182/154 161/183/155 158/184/156
f 157/180/157 143/169/158 152/186/159 155/194/160
f 156/176/149 164/192/161 142/193/162 141/178/151
f 149/175/148 159/181/153 158/184/156 150/172/145
f 156/176/149 150/172/145 158/184/156 164/192/161
f 163/185/163 142/193/162 164/192/161 162/195/164
f 161/183/155 162/195/164 164/192/161 158/184/156
f 144/170/165 153/196/166 152/186/159 143/169/158
f 145/174/147 166/173/146 148/197/167 146/189/168
f 167/177/150 148/197/167 166/173/146
f 163/185/163 169/165/141 172/191/169
f 178/204/170 169/165/141 168/168/144 175/200/171
f 172/191/169 177/203/172 174/199/173 171/188/174
f 172/191/169 169/165/141 178/204/170 177/203/172
f 174/199/173 175/200/171 168/168/144 171/188/174
f 175/200/171 174/199/173 177/203/172 178/204/170
f 173/166/142 179/205/175 176/201/176 170/167/143
f 168/168/144 165/187/177 157/180/157 171/188/174
f 165/187/177 168/168/144 170/167/143
f 163/185/163 173/166/142 169/165/141
f 147/171/178 183/206/179 151/190/180
f 182/207/181 186/213/182 187/210/183 183/206/179
f 181/208/184 185/214/185 186/213/182 182/207/181
f 152/186/159 153/196/166 184/215/186 180/209/187
f 180/209/187 184/215/186 185/214/185 181/208/184
f 180/209/187 191/216/188 155/194/160 152/186/159
f 181/208/184 190/217/189 191/216/188 180/209/187
f 183/206/179 188/211/190 189/212/191 182/207/181
f 182/207/181 189/212/191 190/217/189 181/208/184
f 151/190/180 148/197/167 147/171/178
f 151/190/180 146/189/168 148/197/167
f 141/178/151 189/212/191 188/211/190 154/179/152
f 219/220/192 218/221/193 220/222/194 223/223/195
f 201/227/196 200/228/197 196/229/198 216/230/199
f 201/227/196 216/230/199 217/232/200 207/231/201
f 192/233/202 207/231/201 217/232/200 205/234/203
f 210/235/204 209/236/205 212/237/206 211/238/207
f 170/167/143 220/222/194 208/218/208 165/187/177
f 146/189/168 151/190/180 202/242/209 197/241/210
f 214/219/211 222/243/212 219/220/192
f 203/239/213 194/224/214 208/218/208 206/246/215
f 207/231/201 192/233/202 193/245/216 215/244/217
f 200/228/197 201/227/196 209/236/205 210/235/204
f 209/236/205 201/227/196 207/231/201 215/244/217
f 214/219/211 213/247/218 215/244/217 193/245/216
f 209/236/205 215/244/217 213/247/218 212/237/206
f 214/219/211 163/185/163 162/195/164 213/247/218
f 162/195/164 161/183/155 212/237/206 213/247/218
f 212/237/206 161/183/155 160/182/154 211/238/207
f 211/238/207 160/182/154 159/181/153 210/235/204
f 145/174/147 146/189/168 197/241/210 196/229/198
f 203/239/213 204/248/219 195/225/220 194/224/214
f 196/229/198 197/241/210 199/249/221 216/230/199
f 216/230/199 199/249/221 198/226/222 205/234/203
f 222/243/212 224/254/223 227/258/224 219/220/192
f 219/220/192 227/258/224 228/260/225 218/221/193
f 229/261/226 220/222/194 170/167/143 176/201/176
f 223/223/195 220/222/194 229/261/226 226/256/227
f 218/221/193 228/260/225 225/255/228 221/240/229
f 222/243/212 221/240/229 225/255/228 224/254/223
f 223/223/195 226/256/227 179/205/175 173/166/142
f 225/255/228 228/260/225 227/258/224 224/254/223
f 226/256/227 229/261/226 176/201/176 179/205/175
f 208/218/208 220/222/194 218/221/193
f 214/219/211 223/223/195 173/166/142 163/185/163
f 214/219/211 219/220/192 223/223/195
f 233/262/230 238/267/231 205/234/203 198/226/222
f 232/263/232 233/262/230 237/266/233 236/269/234
f 231/264/235 232/263/232 236/269/234 235/270/236
f 203/239/213 230/265/237 234/271/238 204/248/219
f 230/265/237 231/264/235 235/270/236 234/271/238
f 203/239/213 206/246/215 241/272/239 230/265/237
f 230/265/237 241/272/239 240/273/240 231/264/235
f 232/263/232 239/268/241 238/267/231 233/262/230
f 231/264/235 240/273/240 239/268/241 232/263/232
f 202/242/209 198/226/222 199/249/221
f 202/242/209 237/266/233 233/262/230
f 202/242/209 199/249/221 197/241/210
f 214/219/211 241/272/239 206/246/215 222/243/212
f 204/259/219 153/202/166 144/198/165 195/257/220
f 221/240/229 208/218/208 218/221/193
f 210/235/204 159/181/153 149/175/148 200/228/197
f 200/228/197 149/175/148 145/174/147 196/229/198
f 234/277/238 184/250/186 153/202/166 204/259/219
f 235/276/236 185/251/185 184/250/186 234/277/238
f 236/274/234 186/253/182 185/251/185 235/276/236
f 236/274/234 237/275/233 187/252/183 186/253/182
f 190/217/189 189/212/191 141/178/151 142/193/162
f 190/217/189 142/193/162 163/185/163 191/216/188
f 191/216/188 163/185/163 172/191/169 155/194/160
f 155/194/160 172/191/169 171/188/174 157/180/157
f 192/233/202 205/234/203 238/267/231 239/268/241
f 192/233/202 239/268/241 240/273/240 193/245/216
f 193/245/216 240/273/240 241/272/239 214/219/211
f 222/243/212 206/246/215 208/218/208 221/240/229
f 187/210/183 151/190/180 183/206/179
f 202/242/209 151/190/180 187/210/183 237/266/233
f 147/171/178 148/197/167 167/177/150 154/179/152
f 147/171/178 154/179/152 188/211/190 183/206/179
f 233/262/230 198/226/222 202/242/209
f 216/230/199 205/234/203 217/232/200
