# This file uses centimeters as units for non-parametric coordinates.

mtllib S_U_02.mtl
g default
v -418.292267 258.369476 174.425751
v 418.292114 258.369507 174.425751
v -418.292267 4.475551 174.425751
v 418.292114 4.475541 174.425751
v 465.887238 52.070671 174.425751
v 465.887207 210.774353 174.425751
v -465.887238 52.070671 174.425751
v -465.887238 210.774399 174.425751
v -451.946991 244.429214 174.425751
v 451.947052 244.429260 174.425751
v -451.946991 18.415829 174.425751
v 451.946991 18.415810 174.425751
v -410.859100 221.000626 169.279846
v -411.158936 222.507858 172.918579
v -411.882690 226.146545 174.425751
v 410.859070 221.000626 169.279846
v 411.158905 222.507858 172.918579
v 411.882690 226.146545 174.425751
v -428.518402 203.341293 169.279846
v -430.025543 203.641098 172.918579
v -433.664276 204.364883 174.425751
v -428.518402 59.503777 169.279846
v -430.025543 59.203972 172.918579
v -433.664276 58.480194 174.425751
v -410.859100 41.844429 169.279846
v -411.158936 40.337219 172.918579
v -411.882690 36.698509 174.425751
v 410.859070 41.844429 169.279846
v 411.158905 40.337219 172.918579
v 411.882690 36.698509 174.425751
v 428.518372 203.341293 169.279846
v 430.025604 203.641098 172.918579
v 433.664276 204.364883 174.425751
v 428.518372 59.503777 169.279846
v 430.025604 59.203972 172.918579
v 433.664276 58.480194 174.425751
v -423.346100 215.828308 169.279846
v -424.499664 216.981873 172.918579
v -427.284637 219.766815 174.425751
v 423.346100 215.828308 169.279846
v 424.499664 216.981873 172.918579
v 427.284607 219.766815 174.425751
v -423.346100 47.016724 169.279846
v -424.499664 45.863159 172.918579
v -427.284637 43.078209 174.425751
v 423.346100 47.016724 169.279846
v 424.499664 45.863159 172.918579
v 427.284607 43.078209 174.425751
v -414.139557 189.646149 142.274048
v -413.284180 190.295258 151.811523
v -414.227722 73.181526 142.274231
v -413.284180 72.549797 151.811523
v -395.446960 205.493759 142.298523
v -396.323486 204.705383 151.852417
v 395.430817 205.413666 142.298340
v 396.323456 204.705383 151.852417
v 414.227692 184.480667 142.274231
v 413.284149 185.112396 151.811523
v 414.139496 73.198914 142.274048
v 413.284149 72.549797 151.811523
v -395.430817 57.431404 142.298340
v -396.323486 58.139671 151.852417
v 395.446960 57.351295 142.298523
v 396.323456 58.139671 151.852417
v -408.750397 200.929276 142.373047
v -408.362946 200.523560 151.983948
v 408.747406 200.926270 142.372986
v 408.362946 200.523560 151.983948
v -408.747406 61.918762 142.372986
v -408.362946 62.321503 151.983948
v 408.750488 61.915794 142.373047
v 408.362946 62.321503 151.983948
vt 0.884718 0.590156
vt 0.106912 0.591394
vt 0.100734 0.560934
vt 0.890867 0.559652
vt 0.904602 0.742748
vt 0.908285 0.614226
vt 0.937695 0.608754
vt 0.933536 0.749706
vt 0.880868 0.765347
vt 0.886986 0.795772
vt 0.098100 0.796214
vt 0.104238 0.765785
vt 0.081110 0.742355
vt 0.051957 0.748084
vt 0.054493 0.607759
vt 0.083428 0.614387
vt 0.088420 0.758116
vt 0.064195 0.781875
vt 0.896821 0.758139
vt 0.920293 0.782358
vt 0.091028 0.598815
vt 0.067296 0.574824
vt 0.901320 0.598421
vt 0.925692 0.574319
vt 0.105272 0.758397
vt 0.104947 0.762085
vt 0.091364 0.755112
vt 0.093962 0.752421
vt 0.880159 0.761642
vt 0.879835 0.757948
vt 0.087949 0.741070
vt 0.084567 0.741571
vt 0.086869 0.615279
vt 0.090249 0.615889
vt 0.093930 0.601873
vt 0.096503 0.604615
vt 0.107957 0.598798
vt 0.107627 0.595102
vt 0.884015 0.593873
vt 0.883694 0.597576
vt 0.898147 0.601326
vt 0.895389 0.603936
vt 0.897779 0.741191
vt 0.901161 0.741826
vt 0.893937 0.755056
vt 0.891391 0.752293
vt 0.904786 0.614974
vt 0.901366 0.615438
vt 0.119076 0.736180
vt 0.866009 0.735696
vt 0.869879 0.619862
vt 0.121822 0.621046
vt 0.879337 0.723715
vt 0.882097 0.627744
vt 0.108921 0.628925
vt 0.106928 0.728706
vt 0.109972 0.734934
vt 0.875580 0.733835
vt 0.112414 0.622519
vt 0.879016 0.621327
vt 0.114377 0.728074
vt 0.116381 0.629876
vt 0.114674 0.626549
vt 0.119890 0.727236
vt 0.112077 0.731166
vt 0.865157 0.726756
vt 0.871810 0.722746
vt 0.872664 0.729953
vt 0.874605 0.628325
vt 0.122677 0.630002
vt 0.869068 0.628822
vt 0.876797 0.625111
vn -0.000236 0.038628 0.999254
vn 0.000236 0.038628 0.999254
vn 0.000000 0.000000 1.000000
vn 0.000000 0.000000 1.000000
vn -0.028105 -0.001178 0.999604
vn -0.028105 0.001178 0.999604
vn 0.000000 0.000000 1.000000
vn 0.000000 0.000000 1.000000
vn -0.000236 -0.038628 0.999254
vn 0.000000 0.000000 1.000000
vn 0.000000 0.000000 1.000000
vn 0.000236 -0.038628 0.999254
vn 0.028105 -0.001178 0.999604
vn 0.000000 0.000000 1.000000
vn 0.000000 0.000000 1.000000
vn 0.028105 0.001178 0.999604
vn 0.013350 -0.015638 0.999789
vn 0.000000 0.000000 1.000000
vn 0.000000 0.000000 1.000000
vn 0.028105 -0.001178 0.999604
vn 0.000236 -0.038628 0.999254
vn 0.000000 0.000000 1.000000
vn 0.000000 0.000000 1.000000
vn 0.013350 -0.015638 0.999789
vn -0.013350 -0.015638 0.999789
vn 0.000000 0.000000 1.000000
vn 0.000000 0.000000 1.000000
vn -0.000236 -0.038628 0.999254
vn -0.028105 -0.001178 0.999604
vn 0.000000 0.000000 1.000000
vn 0.000000 0.000000 1.000000
vn -0.013350 -0.015638 0.999789
vn 0.013350 0.015638 0.999789
vn 0.000000 0.000000 1.000000
vn 0.000000 0.000000 1.000000
vn 0.000236 0.038628 0.999254
vn 0.028105 0.001178 0.999604
vn 0.000000 0.000000 1.000000
vn 0.000000 0.000000 1.000000
vn 0.013350 0.015638 0.999789
vn -0.013350 0.015638 0.999789
vn 0.000000 0.000000 1.000000
vn 0.000000 0.000000 1.000000
vn -0.028105 0.001178 0.999604
vn -0.000236 0.038628 0.999254
vn 0.000000 0.000000 1.000000
vn 0.000000 0.000000 1.000000
vn -0.013350 0.015638 0.999789
vn 0.004728 -0.763728 0.645520
vn 0.005308 -0.703021 0.711149
vn 0.471784 -0.458106 0.753365
vn 0.449401 -0.506631 0.735774
vn 0.005308 -0.703021 0.711149
vn 0.000236 -0.038628 0.999254
vn 0.013350 -0.015638 0.999789
vn 0.471784 -0.458106 0.753365
vn 0.000236 -0.038628 0.999254
vn 0.005308 -0.703021 0.711149
vn -0.005308 -0.703021 0.711149
vn -0.000236 -0.038628 0.999254
vn 0.005308 -0.703021 0.711149
vn 0.004728 -0.763728 0.645520
vn -0.004728 -0.763728 0.645520
vn -0.005308 -0.703021 0.711149
vn 0.777311 -0.032079 0.628298
vn 0.693800 -0.024245 0.719759
vn 0.693800 0.024245 0.719759
vn 0.777311 0.032079 0.628298
vn 0.693800 -0.024245 0.719759
vn 0.028105 -0.001178 0.999604
vn 0.028105 0.001178 0.999604
vn 0.693800 0.024245 0.719759
vn 0.777311 0.032079 0.628298
vn 0.693800 0.024245 0.719759
vn 0.471783 0.458105 0.753366
vn 0.449401 0.506631 0.735774
vn 0.693800 0.024245 0.719759
vn 0.028105 0.001178 0.999604
vn 0.013350 0.015638 0.999789
vn 0.471783 0.458105 0.753366
vn 0.004728 0.763729 0.645520
vn 0.005308 0.703021 0.711149
vn -0.005308 0.703021 0.711149
vn -0.004728 0.763729 0.645520
vn 0.005308 0.703021 0.711149
vn 0.000236 0.038628 0.999254
vn -0.000236 0.038628 0.999254
vn -0.005308 0.703021 0.711149
vn -0.004728 0.763729 0.645520
vn -0.005308 0.703021 0.711149
vn -0.471783 0.458105 0.753366
vn -0.449400 0.506631 0.735775
vn -0.005308 0.703021 0.711149
vn -0.000236 0.038628 0.999254
vn -0.013350 0.015638 0.999789
vn -0.471783 0.458105 0.753366
vn -0.777310 -0.032079 0.628300
vn -0.693797 -0.024245 0.719762
vn -0.471783 -0.458106 0.753366
vn -0.449401 -0.506631 0.735775
vn -0.693797 -0.024245 0.719762
vn -0.028105 -0.001178 0.999604
vn -0.013350 -0.015638 0.999789
vn -0.471783 -0.458106 0.753366
vn -0.028105 -0.001178 0.999604
vn -0.693797 -0.024245 0.719762
vn -0.693798 0.024245 0.719762
vn -0.028105 0.001178 0.999604
vn -0.693797 -0.024245 0.719762
vn -0.777310 -0.032079 0.628300
vn -0.777310 0.032079 0.628300
vn -0.693798 0.024245 0.719762
vn 0.028105 -0.001178 0.999604
vn 0.693800 -0.024245 0.719759
vn 0.471784 -0.458106 0.753365
vn 0.013350 -0.015638 0.999789
vn 0.693800 -0.024245 0.719759
vn 0.777311 -0.032079 0.628298
vn 0.449401 -0.506631 0.735774
vn 0.471784 -0.458106 0.753365
vn -0.000236 -0.038628 0.999254
vn -0.005308 -0.703021 0.711149
vn -0.471783 -0.458106 0.753366
vn -0.013350 -0.015638 0.999789
vn -0.005308 -0.703021 0.711149
vn -0.004728 -0.763728 0.645520
vn -0.449401 -0.506631 0.735775
vn -0.471783 -0.458106 0.753366
vn 0.000236 0.038628 0.999254
vn 0.005308 0.703021 0.711149
vn 0.471783 0.458105 0.753366
vn 0.013350 0.015638 0.999789
vn 0.005308 0.703021 0.711149
vn 0.004728 0.763729 0.645520
vn 0.449401 0.506631 0.735774
vn 0.471783 0.458105 0.753366
vn -0.028105 0.001178 0.999604
vn -0.693798 0.024245 0.719762
vn -0.471783 0.458105 0.753366
vn -0.013350 0.015638 0.999789
vn -0.693798 0.024245 0.719762
vn -0.777310 0.032079 0.628300
vn -0.449400 0.506631 0.735775
vn -0.471783 0.458105 0.753366
vn 0.005406 -0.861259 0.508138
vn -0.005420 -0.861243 0.508165
vn -0.004728 -0.763728 0.645520
vn 0.004728 -0.763728 0.645520
vn 0.004728 0.763729 0.645520
vn -0.004728 0.763729 0.645520
vn -0.005406 0.861259 0.508138
vn 0.005420 0.861242 0.508166
vn -0.777310 0.032079 0.628300
vn -0.777310 -0.032079 0.628300
vn -0.862278 -0.029166 0.505595
vn -0.862216 0.029252 0.505696
vn 0.862278 0.029166 0.505595
vn 0.862216 -0.029253 0.505696
vn 0.777311 -0.032079 0.628298
vn 0.777311 0.032079 0.628298
vn 0.777311 -0.032079 0.628298
vn 0.862216 -0.029253 0.505696
vn 0.529306 -0.562896 0.634810
vn 0.449401 -0.506631 0.735774
vn 0.449401 -0.506631 0.735774
vn 0.529306 -0.562896 0.634810
vn 0.005406 -0.861259 0.508138
vn 0.004728 -0.763728 0.645520
vn -0.004728 -0.763728 0.645520
vn -0.005420 -0.861243 0.508165
vn -0.528756 -0.563406 0.634815
vn -0.449401 -0.506631 0.735775
vn -0.449401 -0.506631 0.735775
vn -0.528756 -0.563406 0.634815
vn -0.862278 -0.029166 0.505595
vn -0.777310 -0.032079 0.628300
vn 0.004728 0.763729 0.645520
vn 0.005420 0.861242 0.508166
vn 0.528756 0.563406 0.634816
vn 0.449401 0.506631 0.735774
vn 0.449401 0.506631 0.735774
vn 0.528756 0.563406 0.634816
vn 0.862278 0.029166 0.505595
vn 0.777311 0.032079 0.628298
vn -0.777310 0.032079 0.628300
vn -0.862216 0.029252 0.505696
vn -0.529306 0.562896 0.634810
vn -0.449400 0.506631 0.735775
vn -0.449400 0.506631 0.735775
vn -0.529306 0.562896 0.634810
vn -0.005406 0.861259 0.508138
vn -0.004728 0.763729 0.645520
vn 0.995068 -0.039659 -0.090927
vn 0.862216 -0.029253 0.505696
vn 0.862278 0.029166 0.505595
vn 0.995045 0.039317 -0.091317
vn 0.995045 0.039317 -0.091317
vn 0.862278 0.029166 0.505595
vn 0.528756 0.563406 0.634816
vn 0.639995 0.766366 -0.055581
vn 0.005594 -0.996963 -0.077682
vn 0.005406 -0.861259 0.508138
vn 0.529306 -0.562896 0.634810
vn 0.642346 -0.764368 -0.055971
vn 0.005406 -0.861259 0.508138
vn 0.005594 -0.996963 -0.077682
vn -0.005656 -0.996968 -0.077606
vn -0.005420 -0.861243 0.508165
vn -0.995046 -0.039317 -0.091316
vn -0.862278 -0.029166 0.505595
vn -0.528756 -0.563406 0.634815
vn -0.639995 -0.766366 -0.055580
vn -0.862278 -0.029166 0.505595
vn -0.995046 -0.039317 -0.091316
vn -0.995068 0.039658 -0.090926
vn -0.862216 0.029252 0.505696
vn 0.005656 0.996968 -0.077606
vn 0.005420 0.861242 0.508166
vn -0.005406 0.861259 0.508138
vn -0.005594 0.996963 -0.077682
vn -0.005594 0.996963 -0.077682
vn -0.005406 0.861259 0.508138
vn -0.529306 0.562896 0.634810
vn -0.642346 0.764368 -0.055973
vn 0.862216 -0.029253 0.505696
vn 0.995068 -0.039659 -0.090927
vn 0.642346 -0.764368 -0.055971
vn 0.529306 -0.562896 0.634810
vn -0.005420 -0.861243 0.508165
vn -0.005656 -0.996968 -0.077606
vn -0.639995 -0.766366 -0.055580
vn -0.528756 -0.563406 0.634815
vn 0.005420 0.861242 0.508166
vn 0.005656 0.996968 -0.077606
vn 0.639995 0.766366 -0.055581
vn 0.528756 0.563406 0.634816
vn -0.862216 0.029252 0.505696
vn -0.995068 0.039658 -0.090926
vn -0.642346 0.764368 -0.055973
vn -0.529306 0.562896 0.634810
s off
g Window_Frame_11 S_U_02
usemtl aiStandardSurface2SG
f 30/1/1 27/2/2 3/3/3 4/4/4
f 33/5/5 36/6/6 5/7/7 6/8/8
f 18/9/9 2/10/10 1/11/11 15/12/12
f 21/13/13 8/14/14 7/15/15 24/16/16
f 39/17/17 9/18/18 8/14/19 21/13/20
f 15/12/21 1/11/22 9/18/23 39/17/24
f 42/19/25 10/20/26 2/10/27 18/9/28
f 33/5/29 6/8/30 10/20/31 42/19/32
f 45/21/33 11/22/34 3/3/35 27/2/36
f 24/16/37 7/15/38 11/22/39 45/21/40
f 48/23/41 12/24/42 5/7/43 36/6/44
f 30/1/45 4/4/46 12/24/47 48/23/48
f 13/25/49 14/26/50 38/27/51 37/28/52
f 14/26/53 15/12/54 39/17/55 38/27/56
f 15/12/57 14/26/58 17/29/59 18/9/60
f 14/26/61 13/25/62 16/30/63 17/29/64
f 19/31/65 20/32/66 23/33/67 22/34/68
f 20/32/69 21/13/70 24/16/71 23/33/72
f 22/34/73 23/33/74 44/35/75 43/36/76
f 23/33/77 24/16/78 45/21/79 44/35/80
f 25/37/81 26/38/82 29/39/83 28/40/84
f 26/38/85 27/2/86 30/1/87 29/39/88
f 28/40/89 29/39/90 47/41/91 46/42/92
f 29/39/93 30/1/94 48/23/95 47/41/96
f 31/43/97 32/44/98 41/45/99 40/46/100
f 32/44/101 33/5/102 42/19/103 41/45/104
f 33/5/105 32/44/106 35/47/107 36/6/108
f 32/44/109 31/43/110 34/48/111 35/47/112
f 21/13/113 20/32/114 38/27/115 39/17/116
f 20/32/117 19/31/118 37/28/119 38/27/120
f 18/9/121 17/29/122 41/45/123 42/19/124
f 17/29/125 16/30/126 40/46/127 41/45/128
f 27/2/129 26/38/130 44/35/131 45/21/132
f 26/38/133 25/37/134 43/36/135 44/35/136
f 36/6/137 35/47/138 47/41/139 48/23/140
f 35/47/141 34/48/142 46/42/143 47/41/144
f 54/49/145 56/50/146 16/30/147 13/25/148
f 25/37/149 28/40/150 64/51/151 62/52/152
f 34/48/153 31/43/154 58/53/155 60/54/156
f 52/55/157 50/56/158 19/31/159 22/34/160
f 19/31/161 50/56/162 66/57/163 37/28/164
f 37/28/165 66/57/166 54/49/167 13/25/168
f 16/30/169 56/50/170 68/58/171 40/46/172
f 40/46/173 68/58/174 58/53/175 31/43/176
f 25/37/177 62/52/178 70/59/179 43/36/180
f 43/36/181 70/59/182 52/55/183 22/34/184
f 34/48/185 60/54/186 72/60/187 46/42/188
f 46/42/189 72/60/190 64/51/191 28/40/192
f 49/61/193 50/56/194 52/55/195 51/62/196
f 51/62/197 52/55/198 70/59/199 69/63/200
f 53/64/201 54/49/202 66/57/203 65/65/204
f 54/49/205 53/64/206 55/66/207 56/50/208
f 57/67/209 58/53/210 68/58/211 67/68/212
f 58/53/213 57/67/214 59/69/215 60/54/216
f 61/70/217 62/52/218 64/51/219 63/71/220
f 63/71/221 64/51/222 72/60/223 71/72/224
f 50/56/225 49/61/226 65/65/227 66/57/228
f 56/50/229 55/66/230 67/68/231 68/58/232
f 62/52/233 61/70/234 69/63/235 70/59/236
f 60/54/237 59/69/238 71/72/239 72/60/240
g default
v -469.860016 241.589951 174.286316
v -463.717834 256.418610 174.286316
v -448.889160 262.560822 174.286316
v -468.417816 240.147766 177.768127
v -462.275604 254.976379 177.768127
v -447.446960 261.118622 177.768127
v -443.965149 257.636810 181.053223
v -458.793823 251.494583 181.053223
v -464.936005 236.665939 181.053223
v -468.417816 22.413080 177.768127
v -462.275604 7.584442 177.768127
v -447.446960 1.442219 177.768127
v -464.936005 25.894844 181.053223
v -458.793762 11.066232 181.053223
v -443.965118 4.924018 181.053223
v -448.889160 0.000010 174.286316
v -463.717834 6.142229 174.286316
v -469.860016 20.970861 174.286316
v 447.446960 1.442219 177.768127
v 462.275604 7.584442 177.768127
v 468.417816 22.413080 177.768127
v 443.965118 4.924018 181.053223
v 458.793762 11.066232 181.053223
v 464.936005 25.894844 181.053223
v 469.860016 20.970861 174.286316
v 463.717834 6.142229 174.286316
v 448.889160 0.000010 174.286316
v 448.889160 262.560822 174.286316
v 463.717834 256.418610 174.286316
v 469.860016 241.589951 174.286316
v 447.446960 261.118622 177.768127
v 462.275604 254.976379 177.768127
v 468.417816 240.147766 177.768127
v 464.936005 236.665939 181.053223
v 458.793823 251.494583 181.053223
v 443.965149 257.636810 181.053223
v -447.446960 261.118622 -179.611023
v -462.275604 254.976379 -179.611023
v -468.417816 240.147766 -179.611023
v -443.965149 257.636810 -181.053223
v -464.936005 236.665939 -181.053223
v -458.793823 251.494583 -181.053223
v 464.936005 236.665939 -181.053223
v 443.965149 257.636810 -181.053223
v 458.793823 251.494583 -181.053223
v 447.446960 261.118622 -179.611023
v 462.275604 254.976379 -179.611023
v 468.417816 240.147766 -179.611023
v -448.889160 262.560822 -176.129211
v -463.717834 256.418610 -176.129211
v -469.860016 241.589951 -176.129211
v 469.860016 241.589951 -176.129211
v 463.717834 256.418610 -176.129211
v 448.889160 262.560822 -176.129211
v 443.965118 4.924018 -181.053223
v 464.936005 25.894844 -181.053223
v 458.793762 11.066232 -181.053223
v 468.417816 22.413080 -179.611023
v 462.275604 7.584442 -179.611023
v 447.446960 1.442219 -179.611023
v 448.889160 0.000010 -176.129211
v 463.717834 6.142229 -176.129211
v 469.860016 20.970861 -176.129211
v -468.417816 22.413080 -179.611023
v -462.275604 7.584442 -179.611023
v -447.446960 1.442219 -179.611023
v -469.860016 20.970861 -176.129211
v -463.717834 6.142229 -176.129211
v -448.889160 0.000010 -176.129211
v -443.965118 4.924018 -181.053223
v -458.793762 11.066232 -181.053223
v -464.936005 25.894844 -181.053223
v -460.084015 231.814163 181.053223
v -453.941742 246.642654 181.053223
v -439.112976 252.784821 181.053223
v -456.602142 228.332092 177.768127
v -450.459961 243.160782 177.768127
v -435.631378 249.303024 177.768127
v -434.189148 247.860809 174.286316
v -449.017822 241.718582 174.286316
v -455.160004 226.889938 174.286316
v -456.602142 34.228729 177.768127
v -450.459961 19.400042 177.768127
v -435.631378 13.257797 177.768127
v -455.160004 35.670860 174.286316
v -449.017822 20.842228 174.286316
v -434.189148 14.700008 174.286316
v -439.112976 9.775998 181.053223
v -453.941742 15.918163 181.053223
v -460.084015 30.746666 181.053223
v 435.631378 13.257797 177.768127
v 450.459961 19.400042 177.768127
v 456.602142 34.228729 177.768127
v 434.189148 14.700008 174.286316
v 449.017822 20.842228 174.286316
v 455.160004 35.670860 174.286316
v 460.084015 30.746666 181.053223
v 453.941742 15.918163 181.053223
v 439.112976 9.775998 181.053223
v 456.602142 228.332092 177.768127
v 450.459961 243.160782 177.768127
v 435.631378 249.303024 177.768127
v 455.160004 226.889938 174.286316
v 449.017822 241.718582 174.286316
v 434.189148 247.860809 174.286316
v 439.112976 252.784821 181.053223
v 453.941742 246.642654 181.053223
v 460.084015 231.814163 181.053223
v -443.965118 236.665939 -181.053223
v -443.965118 25.894835 -181.053223
v 443.964691 25.894844 -181.053223
v 443.965149 236.665939 -181.053223
vt 0.020858 0.033155
vt 0.029171 0.016418
vt 0.033474 0.020704
vt 0.025798 0.037049
vt 0.045722 0.008000
vt 0.049669 0.012908
vt 0.299927 0.033139
vt 0.291534 0.016587
vt 0.909015 0.231798
vt 0.909015 0.982244
vt 0.275055 0.008275
vt 0.276978 0.004426
vt 0.274347 0.988086
vt 0.291129 0.979785
vt 0.616108 0.982244
vt 0.616108 0.231798
vt 0.299714 0.963126
vt 0.303595 0.964982
vt 0.045699 0.987827
vt 0.029167 0.979479
vt 0.033489 0.975203
vt 0.049664 0.982938
vt 0.020785 0.962879
vt 0.025727 0.958974
vt 0.064306 0.922890
vt 0.051297 0.917215
vt 0.054458 0.914056
vt 0.067426 0.919568
vt 0.045615 0.904204
vt 0.048941 0.901092
vt 0.064147 0.095201
vt 0.051139 0.100880
vt 0.318085 0.982267
vt 0.318085 0.231822
vt 0.045463 0.113895
vt 0.610934 0.231822
vt 0.275265 0.113851
vt 0.269583 0.100840
vt 0.611054 0.982267
vt 0.610914 0.204989
vt 0.256574 0.095165
vt 0.258121 0.091868
vt 0.275417 0.904160
vt 0.269741 0.917175
vt 0.266581 0.914015
vt 0.272090 0.901046
vt 0.256733 0.922854
vt 0.253616 0.919533
vt 0.035743 0.046114
vt 0.042842 0.029985
vt 0.058880 0.022729
vt 0.285044 0.046179
vt 0.277788 0.030162
vt 0.282169 0.025870
vt 0.289977 0.042301
vt 0.261751 0.022962
vt 0.265731 0.018115
vt 0.261175 0.973348
vt 0.277468 0.966206
vt 0.281806 0.970505
vt 0.265112 0.978217
vt 0.284839 0.950177
vt 0.289769 0.954020
vt 0.035668 0.949867
vt 0.042924 0.965932
vt 0.038544 0.970221
vt 0.030734 0.953735
vt 0.058907 0.973134
vt 0.054960 0.977984
vt 0.048790 0.117009
vt 0.042300 0.905734
vt 0.318020 0.204989
vt 0.016902 0.964745
vt 0.317991 0.020576
vt 0.610914 0.020576
vt 0.258282 0.926159
vt 0.043826 0.004135
vt 0.616028 0.020575
vt 0.294985 0.037056
vt 0.294776 0.959233
vt 0.270402 0.983177
vt 0.030809 0.042265
vt 0.271065 0.013162
vt 0.054957 0.017864
vt 0.280964 0.948418
vt 0.060766 0.969326
vt 0.259872 0.026767
vt 0.067264 0.098522
vt 0.253454 0.098487
vt 0.271939 0.116962
vt 0.067456 0.901067
vt 0.908923 0.020528
vt 0.287222 0.020878
vt 0.286829 0.975496
vt 0.908952 0.204965
vt 0.616028 0.204965
vt 0.054299 0.104040
vt 0.266422 0.103999
vt 0.909015 0.218358
vt 0.038499 0.025693
vt 0.253576 0.901030
vt 0.067304 0.117025
vt 0.253424 0.116988
vt 0.039545 0.948084
vt 0.045872 0.963068
vt 0.259325 0.969526
vt 0.274564 0.963322
vt 0.281167 0.047976
vt 0.274845 0.033027
vt 0.278730 0.905688
vt 0.272237 0.919671
vt 0.616028 0.218405
vt 0.294064 0.982717
vt 0.610914 0.007136
vt 0.272077 0.098343
vt 0.616108 0.995683
vt 0.062759 0.926187
vt 0.048803 0.919712
vt 0.610932 0.218382
vt 0.026220 0.982400
vt 0.318022 0.218429
vt 0.043786 0.991676
vt 0.026235 0.013489
vt 0.908921 0.007112
vt 0.016978 0.031294
vt 0.060713 0.026547
vt 0.039622 0.047878
vt 0.318085 0.995683
vt 0.276244 0.991951
vt 0.062598 0.091897
vt 0.303809 0.031259
vt 0.278580 0.112321
vt 0.042150 0.112367
vt 0.045758 0.032854
vt 0.048644 0.098384
vt 0.294467 0.013651
vt 0.611054 0.995683
vt 0.616028 0.007158
vt 0.909093 0.995637
vt 0.317928 0.007183
vn -0.009931 0.680959 0.732254
vn -0.392435 0.392434 0.831860
vn -0.238010 0.238008 0.941649
vn -0.002220 0.526568 0.850130
vn -0.392435 0.392434 0.831860
vn -0.667585 0.034149 0.743750
vn -0.509337 0.008056 0.860530
vn -0.238010 0.238008 0.941649
vn -0.004839 -0.923158 0.384390
vn -0.336556 -0.812519 0.475965
vn -0.382677 -0.923864 0.005766
vn -0.007356 -0.999965 0.003937
vn -0.812520 -0.336555 0.475964
vn -0.921123 -0.017700 0.388870
vn -0.999641 -0.026472 0.004108
vn -0.923865 -0.382676 0.005766
vn 0.921123 -0.017700 0.388870
vn 0.812519 -0.336556 0.475965
vn 0.923865 -0.382676 0.005766
vn 0.999641 -0.026472 0.004108
vn 0.336557 -0.812519 0.475965
vn 0.004839 -0.923158 0.384390
vn 0.007356 -0.999965 0.003937
vn 0.382677 -0.923864 0.005766
vn 0.667585 0.034149 0.743750
vn 0.392435 0.392435 0.831859
vn 0.238010 0.238008 0.941649
vn 0.509337 0.008056 0.860530
vn 0.392435 0.392435 0.831859
vn 0.009931 0.680959 0.732254
vn 0.002220 0.526568 0.850130
vn 0.238010 0.238008 0.941649
vn -0.364250 0.021402 -0.931055
vn -0.198757 0.198757 -0.959683
vn -0.057704 0.057703 -0.996665
vn -0.080981 0.001169 -0.996715
vn -0.198757 0.198757 -0.959683
vn -0.006415 0.377193 -0.926112
vn -0.000312 0.081147 -0.996702
vn -0.057704 0.057703 -0.996665
vn 0.921123 0.017700 -0.388869
vn 0.812521 0.336555 -0.475962
vn 0.923865 0.382675 -0.005766
vn 0.999641 0.026472 -0.004108
vn 0.336556 0.812517 -0.475968
vn 0.004839 0.923157 -0.384392
vn 0.007356 0.999965 -0.003937
vn 0.382677 0.923864 -0.005766
vn 0.004839 -0.923159 -0.384389
vn 0.336557 -0.812520 -0.475963
vn 0.382677 -0.923864 -0.005766
vn 0.007356 -0.999965 -0.003937
vn 0.812519 -0.336555 -0.475965
vn 0.921123 -0.017700 -0.388869
vn 0.999641 -0.026472 -0.004108
vn 0.923865 -0.382676 -0.005766
vn -0.006415 -0.377194 -0.926112
vn -0.198758 -0.198756 -0.959683
vn -0.057704 -0.057704 -0.996665
vn -0.000312 -0.081147 -0.996702
vn -0.198758 -0.198756 -0.959683
vn -0.364251 -0.021402 -0.931055
vn -0.080981 -0.001169 -0.996715
vn -0.057704 -0.057704 -0.996665
vn 0.010151 -0.922339 0.386249
vn 0.336559 -0.812521 0.475959
vn 0.382605 -0.923691 0.020211
vn 0.007501 -0.999828 0.016939
vn 0.812526 -0.336558 0.475953
vn 0.917375 -0.038960 0.396112
vn 0.999410 -0.029825 0.017033
vn 0.923691 -0.382604 0.020210
vn 0.002946 0.684702 0.728817
vn 0.392433 0.392433 0.831861
vn 0.144556 0.144558 0.978880
vn 0.003083 0.207219 0.978290
vn 0.392433 0.392433 0.831861
vn 0.680033 0.011637 0.733089
vn 0.211022 0.011595 0.977413
vn 0.144556 0.144558 0.978880
vn -0.680033 0.011637 0.733089
vn -0.392433 0.392433 0.831861
vn -0.144556 0.144558 0.978880
vn -0.211021 0.011595 0.977413
vn -0.392433 0.392433 0.831861
vn -0.002946 0.684702 0.728817
vn -0.003083 0.207219 0.978290
vn -0.144556 0.144558 0.978880
vn -0.002946 -0.684702 0.728817
vn -0.392433 -0.392432 0.831861
vn -0.144556 -0.144558 0.978880
vn -0.003083 -0.207219 0.978290
vn -0.392433 -0.392432 0.831861
vn -0.680033 -0.011637 0.733089
vn -0.211022 -0.011595 0.977413
vn -0.144556 -0.144558 0.978880
vn -0.000312 0.081147 -0.996702
vn -0.006415 0.377193 -0.926112
vn 0.006415 0.377193 -0.926112
vn 0.000312 0.081147 -0.996702
vn -0.004839 0.923157 -0.384392
vn -0.007356 0.999965 -0.003937
vn 0.007356 0.999965 -0.003937
vn 0.004839 0.923157 -0.384392
vn -0.007356 0.999965 0.003937
vn 0.007356 0.999965 0.003937
vn 0.007356 0.999965 -0.003937
vn -0.007356 0.999965 -0.003937
vn -0.007356 -0.999965 -0.003937
vn 0.007356 -0.999965 -0.003937
vn 0.007356 -0.999965 0.003937
vn -0.007356 -0.999965 0.003937
vn 0.999641 -0.026472 0.004108
vn 0.999641 -0.026472 -0.004108
vn 0.999641 0.026472 -0.004108
vn 0.999641 0.026472 0.004108
vn -0.999641 -0.026472 -0.004108
vn -0.999641 -0.026472 0.004108
vn -0.999641 0.026472 0.004108
vn -0.999641 0.026472 -0.004108
vn -0.002220 -0.526568 0.850130
vn 0.002220 -0.526568 0.850130
vn -0.003083 0.207219 0.978290
vn 0.003083 0.207219 0.978290
vn 0.509337 -0.008056 0.860530
vn 0.509337 0.008056 0.860530
vn -0.211022 -0.011595 0.977413
vn -0.211021 0.011595 0.977413
vn 0.002220 0.526568 0.850130
vn -0.002220 0.526568 0.850130
vn 0.003083 -0.207219 0.978290
vn -0.003083 -0.207219 0.978290
vn -0.509337 0.008056 0.860530
vn -0.509337 -0.008056 0.860530
vn 0.211022 0.011595 0.977413
vn 0.211022 -0.011595 0.977413
vn -0.999641 -0.026472 0.004108
vn -0.921123 -0.017700 0.388870
vn -0.921123 0.017700 0.388870
vn -0.999641 0.026472 0.004108
vn -0.667585 -0.034149 0.743750
vn -0.509337 -0.008056 0.860530
vn -0.509337 0.008056 0.860530
vn -0.667585 0.034149 0.743750
vn -0.002220 -0.526568 0.850130
vn -0.009931 -0.680960 0.732254
vn 0.009931 -0.680960 0.732254
vn 0.002220 -0.526568 0.850130
vn -0.004839 -0.923158 0.384390
vn -0.007356 -0.999965 0.003937
vn 0.007356 -0.999965 0.003937
vn 0.004839 -0.923158 0.384390
vn -0.007356 0.999965 0.003937
vn -0.004839 0.923157 0.384393
vn 0.004839 0.923157 0.384393
vn 0.007356 0.999965 0.003937
vn -0.009931 0.680959 0.732254
vn -0.002220 0.526568 0.850130
vn 0.002220 0.526568 0.850130
vn 0.009931 0.680959 0.732254
vn 0.509337 -0.008056 0.860530
vn 0.667585 -0.034149 0.743750
vn 0.667585 0.034149 0.743750
vn 0.509337 0.008056 0.860530
vn 0.921123 -0.017700 0.388870
vn 0.999641 -0.026472 0.004108
vn 0.999641 0.026472 0.004108
vn 0.921123 0.017700 0.388870
vn 0.080980 0.001169 -0.996715
vn 0.364250 0.021402 -0.931055
vn 0.364251 -0.021402 -0.931055
vn 0.080979 -0.001169 -0.996715
vn 0.921123 0.017700 -0.388869
vn 0.999641 0.026472 -0.004108
vn 0.999641 -0.026472 -0.004108
vn 0.921123 -0.017700 -0.388869
vn -0.999641 0.026472 -0.004108
vn -0.921123 0.017700 -0.388869
vn -0.921123 -0.017700 -0.388869
vn -0.999641 -0.026472 -0.004108
vn -0.364250 0.021402 -0.931055
vn -0.080981 0.001169 -0.996715
vn -0.080981 -0.001169 -0.996715
vn -0.364251 -0.021402 -0.931055
vn -0.007356 -0.999965 -0.003937
vn -0.004839 -0.923159 -0.384389
vn 0.004839 -0.923159 -0.384389
vn 0.007356 -0.999965 -0.003937
vn -0.006415 -0.377194 -0.926112
vn -0.000312 -0.081147 -0.996702
vn 0.000312 -0.081148 -0.996702
vn 0.006415 -0.377194 -0.926112
vn 0.211022 0.011595 0.977413
vn 0.680033 0.011637 0.733089
vn 0.680033 -0.011637 0.733089
vn 0.211022 -0.011595 0.977413
vn 0.917375 0.038960 0.396112
vn 0.999410 0.029825 0.017033
vn 0.999410 -0.029825 0.017033
vn 0.917375 -0.038960 0.396112
vn 0.007501 0.999828 0.016939
vn 0.010151 0.922338 0.386250
vn -0.010151 0.922338 0.386250
vn -0.007501 0.999828 0.016939
vn 0.002946 0.684702 0.728817
vn 0.003083 0.207219 0.978290
vn -0.003083 0.207219 0.978290
vn -0.002946 0.684702 0.728817
vn -0.999410 0.029825 0.017033
vn -0.917375 0.038960 0.396112
vn -0.917375 -0.038961 0.396112
vn -0.999410 -0.029825 0.017033
vn -0.680033 0.011637 0.733089
vn -0.211021 0.011595 0.977413
vn -0.211022 -0.011595 0.977413
vn -0.680033 -0.011637 0.733089
vn -0.007501 -0.999828 0.016939
vn -0.010151 -0.922339 0.386249
vn 0.010151 -0.922339 0.386249
vn 0.007501 -0.999828 0.016939
vn -0.002946 -0.684702 0.728817
vn -0.003083 -0.207219 0.978290
vn 0.003083 -0.207219 0.978290
vn 0.002946 -0.684702 0.728817
vn -0.080981 0.001169 -0.996715
vn -0.057704 0.057703 -0.996665
vn -0.000312 0.081147 -0.996702
vn 0.000000 0.000000 -1.000000
vn -0.007356 0.999965 0.003937
vn -0.382677 0.923864 0.005766
vn -0.336558 0.812516 0.475968
vn -0.004839 0.923157 0.384393
vn -0.923865 0.382675 0.005766
vn -0.999641 0.026472 0.004108
vn -0.921123 0.017700 0.388870
vn -0.812519 0.336557 0.475964
vn -0.667585 -0.034149 0.743750
vn -0.392435 -0.392434 0.831860
vn -0.238009 -0.238009 0.941649
vn -0.509337 -0.008056 0.860530
vn -0.392435 -0.392434 0.831860
vn -0.009931 -0.680960 0.732254
vn -0.002220 -0.526568 0.850130
vn -0.238009 -0.238009 0.941649
vn 0.009931 -0.680960 0.732254
vn 0.392435 -0.392434 0.831860
vn 0.238009 -0.238009 0.941649
vn 0.002220 -0.526568 0.850130
vn 0.392435 -0.392434 0.831860
vn 0.667585 -0.034149 0.743750
vn 0.509337 -0.008056 0.860530
vn 0.238009 -0.238009 0.941649
vn 0.999641 0.026472 0.004108
vn 0.923865 0.382675 0.005766
vn 0.812519 0.336557 0.475964
vn 0.921123 0.017700 0.388870
vn 0.382677 0.923864 0.005766
vn 0.007356 0.999965 0.003937
vn 0.004839 0.923157 0.384393
vn 0.336558 0.812516 0.475969
vn -0.004839 0.923157 -0.384392
vn -0.336557 0.812518 -0.475967
vn -0.382677 0.923864 -0.005766
vn -0.007356 0.999965 -0.003937
vn -0.812522 0.336554 -0.475961
vn -0.921123 0.017700 -0.388869
vn -0.999641 0.026472 -0.004108
vn -0.923865 0.382675 -0.005766
vn 0.080980 0.001169 -0.996715
vn 0.057704 0.057704 -0.996665
vn 0.198757 0.198757 -0.959683
vn 0.364250 0.021402 -0.931055
vn 0.057704 0.057704 -0.996665
vn 0.000312 0.081147 -0.996702
vn 0.006415 0.377193 -0.926112
vn 0.198757 0.198757 -0.959683
vn -0.999641 0.026472 0.004108
vn -0.923865 0.382675 0.005766
vn -0.923865 0.382675 -0.005766
vn -0.999641 0.026472 -0.004108
vn -0.382677 0.923864 0.005766
vn -0.007356 0.999965 0.003937
vn -0.007356 0.999965 -0.003937
vn -0.382677 0.923864 -0.005766
vn 0.007356 0.999965 0.003937
vn 0.382677 0.923864 0.005766
vn 0.382677 0.923864 -0.005766
vn 0.007356 0.999965 -0.003937
vn 0.923865 0.382675 0.005766
vn 0.999641 0.026472 0.004108
vn 0.999641 0.026472 -0.004108
vn 0.923865 0.382675 -0.005766
vn 0.000312 -0.081148 -0.996702
vn 0.057703 -0.057703 -0.996665
vn 0.198758 -0.198756 -0.959683
vn 0.006415 -0.377194 -0.926112
vn 0.057703 -0.057703 -0.996665
vn 0.080979 -0.001169 -0.996715
vn 0.364251 -0.021402 -0.931055
vn 0.198758 -0.198756 -0.959683
vn 0.999641 -0.026472 0.004108
vn 0.923865 -0.382676 0.005766
vn 0.923865 -0.382676 -0.005766
vn 0.999641 -0.026472 -0.004108
vn 0.382677 -0.923864 0.005766
vn 0.007356 -0.999965 0.003937
vn 0.007356 -0.999965 -0.003937
vn 0.382677 -0.923864 -0.005766
vn -0.921123 -0.017700 -0.388869
vn -0.812520 -0.336555 -0.475965
vn -0.923865 -0.382676 -0.005766
vn -0.999641 -0.026472 -0.004108
vn -0.336557 -0.812520 -0.475963
vn -0.004839 -0.923159 -0.384389
vn -0.007356 -0.999965 -0.003937
vn -0.382677 -0.923864 -0.005766
vn -0.007356 -0.999965 0.003937
vn -0.382677 -0.923864 0.005766
vn -0.382677 -0.923864 -0.005766
vn -0.007356 -0.999965 -0.003937
vn -0.923865 -0.382676 0.005766
vn -0.999641 -0.026472 0.004108
vn -0.999641 -0.026472 -0.004108
vn -0.923865 -0.382676 -0.005766
vn -0.002220 0.526568 0.850130
vn -0.238010 0.238008 0.941649
vn 0.144556 -0.144558 0.978880
vn 0.003083 -0.207219 0.978290
vn -0.238010 0.238008 0.941649
vn -0.509337 0.008056 0.860530
vn 0.211022 -0.011595 0.977413
vn 0.144556 -0.144558 0.978880
vn 0.003083 -0.207219 0.978290
vn 0.144556 -0.144558 0.978880
vn 0.392433 -0.392432 0.831861
vn 0.002946 -0.684702 0.728817
vn 0.144556 -0.144558 0.978880
vn 0.211022 -0.011595 0.977413
vn 0.680033 -0.011637 0.733089
vn 0.392433 -0.392432 0.831861
vn 0.917375 0.038960 0.396112
vn 0.812529 0.336557 0.475948
vn 0.923691 0.382604 0.020210
vn 0.999410 0.029825 0.017033
vn 0.336559 0.812521 0.475960
vn 0.010151 0.922338 0.386250
vn 0.007501 0.999828 0.016939
vn 0.382605 0.923691 0.020211
vn -0.509337 -0.008056 0.860530
vn -0.238009 -0.238009 0.941649
vn 0.144556 0.144558 0.978880
vn 0.211022 0.011595 0.977413
vn -0.238009 -0.238009 0.941649
vn -0.002220 -0.526568 0.850130
vn 0.003083 0.207219 0.978290
vn 0.144556 0.144558 0.978880
vn -0.010151 0.922338 0.386250
vn -0.336559 0.812521 0.475960
vn -0.382605 0.923691 0.020211
vn -0.007501 0.999828 0.016939
vn -0.812528 0.336557 0.475949
vn -0.917375 0.038960 0.396112
vn -0.999410 0.029825 0.017033
vn -0.923691 0.382604 0.020210
vn 0.002220 -0.526568 0.850130
vn 0.238009 -0.238009 0.941649
vn -0.144556 0.144558 0.978880
vn -0.003083 0.207219 0.978290
vn 0.238009 -0.238009 0.941649
vn 0.509337 -0.008056 0.860530
vn -0.211021 0.011595 0.977413
vn -0.144556 0.144558 0.978880
vn -0.917375 -0.038961 0.396112
vn -0.812525 -0.336558 0.475953
vn -0.923691 -0.382604 0.020210
vn -0.999410 -0.029825 0.017033
vn -0.336559 -0.812521 0.475960
vn -0.010151 -0.922339 0.386249
vn -0.007501 -0.999828 0.016939
vn -0.382605 -0.923691 0.020211
vn 0.509337 0.008056 0.860530
vn 0.238010 0.238008 0.941649
vn -0.144556 -0.144558 0.978880
vn -0.211022 -0.011595 0.977413
vn 0.238010 0.238008 0.941649
vn 0.002220 0.526568 0.850130
vn -0.003083 -0.207219 0.978290
vn -0.144556 -0.144558 0.978880
vn -0.080981 -0.001169 -0.996715
vn 0.000000 0.000000 -1.000000
vn -0.000312 -0.081147 -0.996702
vn -0.057704 -0.057704 -0.996665
vn 0.000000 0.000000 -1.000000
vn 0.000312 0.081147 -0.996702
vn 0.057704 0.057704 -0.996665
vn 0.080980 0.001169 -0.996715
vn 0.000312 -0.081148 -0.996702
vn 0.000000 0.000000 -1.000000
vn 0.080979 -0.001169 -0.996715
vn 0.057703 -0.057703 -0.996665
vn -0.080981 0.001169 -0.996715
vn 0.000000 0.000000 -1.000000
vn 0.000000 0.000000 -1.000000
vn -0.080981 -0.001169 -0.996715
vn 0.080979 -0.001169 -0.996715
vn 0.000000 0.000000 -1.000000
vn 0.000000 0.000000 -1.000000
vn 0.080980 0.001169 -0.996715
vn -0.000312 -0.081147 -0.996702
vn 0.000000 0.000000 -1.000000
vn 0.000000 0.000000 -1.000000
vn 0.000312 -0.081148 -0.996702
vn 0.000000 0.000000 -1.000000
vn 0.000000 0.000000 -1.000000
vn 0.000000 0.000000 -1.000000
vn 0.000000 0.000000 -1.000000
vn 0.000000 0.000000 -1.000000
vn -0.000312 0.081147 -0.996702
vn 0.000312 0.081147 -0.996702
vn 0.000000 0.000000 -1.000000
s off
g S_U_02 Unit_Base_18 UV01
usemtl aiStandardSurface4SG
f 78/73/241 77/74/242 80/75/243 79/76/244
f 77/74/245 76/77/246 81/78/247 80/75/248
f 84/79/249 83/80/250 89/208/251 88/203/252
f 83/80/253 82/83/254 90/84/255 89/208/256
f 93/85/257 92/86/258 98/185/259 97/201/260
f 92/86/261 91/89/262 99/90/263 98/185/264
f 105/91/265 104/92/266 107/93/267 106/94/268
f 104/92/269 103/95/270 108/96/271 107/93/272
f 111/97/273 110/98/274 114/99/275 113/100/276
f 110/98/277 109/101/278 112/102/279 114/99/280
f 120/103/281 119/104/282 125/207/283 124/202/284
f 119/104/285 118/107/286 126/205/287 125/207/288
f 132/109/289 131/110/290 134/187/291 133/204/292
f 131/110/293 130/113/294 135/114/295 134/187/296
f 138/115/297 137/116/298 143/117/299 142/118/300
f 137/116/301 136/119/302 144/120/303 143/117/304
f 150/121/305 149/122/306 152/206/307 151/199/308
f 149/122/309 148/123/310 153/198/311 152/206/312
f 156/124/313 155/125/314 161/126/315 160/127/316
f 155/125/317 154/128/318 162/129/319 161/126/320
f 165/130/321 164/131/322 170/132/323 169/133/324
f 164/131/325 163/134/326 171/135/327 170/132/328
f 174/136/329 173/137/330 179/138/331 178/139/332
f 173/137/333 172/140/334 180/141/335 179/138/336
f 112/102/337 109/101/338 118/107/339 116/142/340
f 109/101/341 121/143/342 126/205/343 118/107/344
f 75/81/345 100/82/346 126/87/347 121/88/348
f 141/105/349 133/106/350 99/108/351 88/111/352
f 97/112/353 135/144/354 124/146/355 102/147/356
f 139/150/357 90/164/358 73/167/359 123/168/360
f 87/151/361 94/152/362 171/135/363 160/127/364
f 96/153/365 106/94/366 180/141/367 169/133/368
f 108/96/369 79/76/370 147/154/371 178/139/372
f 81/78/373 85/155/374 162/129/375 145/156/376
f 90/84/377 82/83/378 76/77/379 73/149/380
f 82/83/381 85/155/382 81/78/383 76/77/384
f 87/151/385 84/79/386 91/89/387 94/152/388
f 84/79/389 88/203/390 99/90/391 91/89/392
f 75/197/393 78/73/394 103/95/395 100/145/396
f 78/73/397 79/76/398 108/96/399 103/95/400
f 96/153/401 93/85/402 105/91/403 106/94/404
f 93/85/405 97/201/406 102/194/407 105/91/408
f 115/160/409 120/103/410 130/113/411 128/161/412
f 120/103/413 124/202/414 135/114/415 130/113/416
f 123/189/417 111/97/418 136/119/419 139/148/420
f 111/97/421 113/100/422 144/120/423 136/119/424
f 141/182/425 138/115/426 132/109/427 133/204/428
f 138/115/429 142/118/430 127/162/431 132/109/432
f 162/129/433 154/128/434 148/123/435 145/156/436
f 154/128/437 157/159/438 153/198/439 148/123/440
f 159/180/441 156/124/442 163/134/443 166/157/444
f 156/124/445 160/127/446 171/135/447 163/134/448
f 168/178/449 165/130/450 172/140/451 175/158/452
f 165/130/453 169/133/454 180/141/455 172/140/456
f 177/176/457 174/136/458 150/121/459 151/199/460
f 174/136/461 178/139/462 147/154/463 150/121/464
f 113/100/465 114/99/466 112/102/467 181/163/468
f 75/197/469 74/195/470 77/74/471 78/73/472
f 74/195/473 73/149/474 76/77/475 77/74/476
f 82/83/477 83/80/478 86/165/479 85/155/480
f 83/80/481 84/79/482 87/151/483 86/165/484
f 91/89/485 92/86/486 95/166/487 94/152/488
f 92/86/489 93/85/490 96/153/491 95/166/492
f 102/194/493 101/192/494 104/92/495 105/91/496
f 101/192/497 100/145/498 103/95/499 104/92/500
f 109/101/501 110/98/502 122/190/503 121/143/504
f 110/98/505 111/97/506 123/189/507 122/190/508
f 115/160/509 117/169/510 119/104/511 120/103/512
f 117/169/513 116/142/514 118/107/515 119/104/516
f 73/167/517 74/171/518 122/184/519 123/168/520
f 74/171/521 75/81/522 121/88/523 122/184/524
f 100/82/525 101/211/526 125/188/527 126/87/528
f 101/186/529 102/147/530 124/146/531 125/212/532
f 127/162/533 129/170/534 131/110/535 132/109/536
f 129/170/537 128/161/538 130/113/539 131/110/540
f 97/112/541 98/191/542 134/193/543 135/144/544
f 98/191/545 99/108/546 133/106/547 134/193/548
f 136/119/549 137/116/550 140/183/551 139/148/552
f 137/116/553 138/115/554 141/182/555 140/183/556
f 88/111/557 89/209/558 140/200/559 141/105/560
f 89/196/561 90/164/562 139/150/563 140/210/564
f 79/76/565 80/75/566 146/172/567 147/154/568
f 80/75/569 81/78/570 145/156/571 146/172/572
f 147/154/573 146/172/574 149/122/575 150/121/576
f 146/172/577 145/156/578 148/123/579 149/122/580
f 154/128/581 155/125/582 158/181/583 157/159/584
f 155/125/585 156/124/586 159/180/587 158/181/588
f 85/155/589 86/165/590 161/126/591 162/129/592
f 86/165/593 87/151/594 160/127/595 161/126/596
f 163/134/597 164/131/598 167/179/599 166/157/600
f 164/131/601 165/130/602 168/178/603 167/179/604
f 94/152/605 95/166/606 170/132/607 171/135/608
f 95/166/609 96/153/610 169/133/611 170/132/612
f 172/140/613 173/137/614 176/177/615 175/158/616
f 173/137/617 174/136/618 177/176/619 176/177/620
f 106/94/621 107/93/622 179/138/623 180/141/624
f 107/93/625 108/96/626 178/139/627 179/138/628
f 144/120/629 182/173/630 142/118/631 143/117/632
f 184/174/633 116/142/634 117/169/635 115/160/636
f 127/162/637 183/175/638 128/161/639 129/170/640
f 113/100/641 181/163/642 182/173/643 144/120/644
f 128/161/645 183/175/646 184/174/647 115/160/648
f 142/118/649 182/173/650 183/175/651 127/162/652
f 184/174/653 183/175/654 182/173/655 181/163/656
f 181/163/657 112/102/658 116/142/659 184/174/660
g default
v -431.033264 36.430222 146.610474
v 431.033264 36.430222 146.610474
v -431.033264 226.154709 146.610474
v 431.033264 226.154709 146.610474
vt 0.003418 0.003418
vt 0.996582 0.003418
vt 0.996582 0.221995
vt 0.003418 0.221995
vn -0.001919 -0.008768 0.999960
vn 0.001919 -0.008768 0.999960
vn 0.001919 0.008768 0.999960
vn -0.001919 0.008768 0.999960
s off
g S_U_02 Window_15 UV02
usemtl aiStandardSurface3SG
f 185/213/661 186/214/662 188/215/663 187/216/664
