# This file uses centimeters as units for non-parametric coordinates.

mtllib S_U_09.mtl
g default
v -145.727066 -41.204987 -292.343872
v -136.753723 -30.469849 -273.528809
v -310.777191 107.741241 -3.148893
v -302.555786 99.335205 -2.025998
v -141.047836 -55.521309 -297.619873
v -141.047852 -58.051178 -297.299713
v -145.727066 -55.158291 -298.950378
v -139.065460 -49.544662 -289.111298
v -311.752716 -39.696373 -261.768036
v -302.980530 -45.899586 -255.927917
v -147.434372 -47.639763 -301.648499
v -308.643646 -28.520857 -268.144104
v -143.372086 -42.285210 -292.267334
v -308.210327 118.917603 -9.681132
v -131.655334 -40.678879 -273.573456
v -113.766144 -37.007027 -267.137054
v -114.622360 -28.037292 -267.297150
v -115.090866 -26.022772 -265.734741
v -134.950699 -32.209953 -274.610779
v -84.679504 -26.022772 -265.734741
v -84.679504 -28.037292 -267.297150
v -84.679504 -37.007027 -267.137054
v -145.552261 -47.797592 -301.070557
v -83.464905 100.275436 -44.163849
v -83.464905 -5.012531 -228.912781
v -8.507181 100.275436 -44.163849
v -100.479828 100.275436 -44.163849
v -100.479828 -5.012531 -228.912781
v -8.507181 -5.012531 -228.912781
v -96.806717 -6.976387 -223.543594
v -87.193649 -6.959164 -223.624710
v -96.793747 94.667358 -45.192844
v -87.138214 94.659973 -45.204273
v -4.833876 -6.976387 -223.543594
v -4.820908 94.667358 -45.192844
v -308.479340 -47.384693 -275.244263
v -299.935028 -53.539017 -286.029968
v -287.352081 -57.652653 -293.240112
v -272.571320 -59.123886 -295.819153
v -299.955536 -52.953396 -268.605164
v -291.660431 -58.932510 -279.320068
v -279.336060 -62.943993 -286.471832
v -264.825928 -64.386673 -288.990723
v -270.919281 -47.760864 -301.205536
v -285.412445 -46.328148 -298.683441
v -297.722809 -42.217049 -291.598694
v -306.008026 -36.042549 -281.011169
v -145.726898 -59.484203 -296.450653
v 145.727066 -41.204987 -292.343872
v 136.753723 -30.469849 -273.528809
v 310.777191 107.741241 -3.148893
v 302.555756 99.335205 -2.025998
v 141.047836 -55.521309 -297.619873
v 141.047852 -58.051178 -297.299713
v 145.727066 -55.158291 -298.950378
v 139.065460 -49.544662 -289.111298
v 145.726898 -59.484203 -296.450653
v 311.752716 -39.696373 -261.768036
v 302.980499 -45.899586 -255.927917
v 147.434372 -47.639763 -301.648499
v 308.643646 -28.520857 -268.144104
v 143.372086 -42.285210 -292.267334
v 308.210297 118.917603 -9.681133
v 131.655334 -40.678879 -273.573456
v 113.766144 -37.007027 -267.137054
v 114.622360 -28.037292 -267.297150
v 115.090866 -26.022772 -265.734741
v 134.950699 -32.209953 -274.610779
v 84.679504 -26.022772 -265.734741
v 84.679504 -28.037292 -267.297150
v 84.679504 -37.007027 -267.137054
v 145.552261 -47.797592 -301.070557
v 83.464905 100.275436 -44.163849
v 83.464905 -5.012531 -228.912781
v 8.507181 100.275436 -44.163849
v 100.479828 100.275436 -44.163849
v 100.479828 -5.012531 -228.912781
v 8.507181 -5.012531 -228.912781
v 96.806717 -6.976387 -223.543594
v 87.193649 -6.959164 -223.624710
v 96.793747 94.667358 -45.192844
v 87.138214 94.659973 -45.204273
v 4.833876 -6.976387 -223.543594
v 4.820908 94.667358 -45.192844
v 308.479340 -47.384693 -275.244263
v 299.935028 -53.539017 -286.029968
v 287.352081 -57.652653 -293.240112
v 272.571320 -59.123886 -295.819153
v 299.955536 -52.953396 -268.605164
v 291.660431 -58.932510 -279.320068
v 279.336029 -62.943993 -286.471832
v 264.825897 -64.386673 -288.990723
v 270.919281 -47.760864 -301.205536
v 285.412445 -46.328148 -298.683441
v 297.722809 -42.217049 -291.598694
v 306.008026 -36.042549 -281.011169
vt 0.789255 0.763322
vt 0.771270 0.763608
vt 0.702827 0.957916
vt 0.703049 0.764112
vt 0.008975 0.994446
vt 0.015847 0.994446
vt 0.830818 0.678055
vt 0.822837 0.689967
vt 0.824867 0.680204
vt 0.829528 0.693960
vt 0.831653 0.685194
vt 0.831567 0.694868
vt 0.833014 0.684966
vt 0.982764 0.994747
vt 0.815946 0.706414
vt 0.799750 0.713082
vt 0.772893 0.724126
vt 0.772856 0.721756
vt 0.802491 0.723396
vt 0.772710 0.713428
vt 0.995702 0.718921
vt 0.789039 0.957999
vt 0.824856 0.677798
vt 0.821103 0.712795
vt 0.822840 0.714827
vt 0.983365 0.719103
vt 0.801832 0.721026
vt 0.016508 0.816577
vt 0.772756 0.957967
vt 0.784409 0.766930
vt 0.776136 0.767004
vt 0.784642 0.954478
vt 0.777125 0.954454
vt 0.698467 0.767644
vt 0.698484 0.954417
vt 0.034641 0.788981
vt 0.024832 0.791549
vt 0.016928 0.797272
vt 0.011527 0.805247
vt 0.830621 0.673380
vt 0.039405 0.794079
vt 0.948002 0.683991
vt 0.018439 0.807919
vt 0.023462 0.800606
vt 0.961456 0.686622
vt 0.030843 0.795752
vt 0.980734 0.705385
vt 0.972939 0.694131
vt 0.406954 0.994678
vt 0.616114 0.724726
vt 0.617765 0.764017
vt 0.686016 0.764165
vt 0.686728 0.957913
vt 0.619111 0.957955
vt 0.394786 0.994747
vt 0.380489 0.994446
vt 0.558031 0.679311
vt 0.564023 0.681368
vt 0.566100 0.691080
vt 0.559540 0.695100
vt 0.557173 0.686300
vt 0.557553 0.696026
vt 0.556028 0.686222
vt 0.573046 0.707414
vt 0.589245 0.713923
vt 0.586498 0.724204
vt 0.616149 0.722363
vt 0.616288 0.714058
vt 0.387123 0.815151
vt 0.600557 0.958087
vt 0.564032 0.678976
vt 0.558199 0.674708
vt 0.568050 0.713762
vt 0.566363 0.715785
vt 0.408230 0.720528
vt 0.587163 0.721841
vt 0.379882 0.816634
vt 0.599723 0.763807
vt 0.604611 0.767387
vt 0.612918 0.767426
vt 0.605539 0.954547
vt 0.614096 0.954477
vt 0.690607 0.767668
vt 0.691063 0.954416
vt 0.361758 0.789031
vt 0.371566 0.791603
vt 0.379469 0.797328
vt 0.384867 0.805305
vt 0.282632 0.787495
vt 0.356993 0.794129
vt 0.442874 0.685828
vt 0.377954 0.807974
vt 0.372934 0.800660
vt 0.429645 0.688473
vt 0.365555 0.795804
vt 0.410750 0.707002
vt 0.418375 0.695901
vt 0.440916 0.674140
vt 0.395967 0.720276
vt 0.398909 0.702577
vt 0.408588 0.687608
vt 0.423509 0.677472
vt 0.387360 0.994446
vt 0.110703 0.788572
vt 0.949925 0.672092
vt 0.992758 0.700902
vt 0.009268 0.815093
vt 0.982880 0.685672
vt 0.967653 0.675408
vt 0.994997 0.994900
vt 0.559698 0.677456
vt 0.829176 0.676239
vn 0.014359 0.874773 -0.484320
vn 0.024505 0.869253 -0.493761
vn -0.030350 0.869323 -0.493312
vn -0.028664 0.869537 -0.493036
vn -0.015509 -0.867908 0.496482
vn -0.977944 -0.180175 0.105651
vn -0.972835 -0.204683 0.108153
vn -0.014679 -0.868228 0.495948
vn 0.029400 0.669878 -0.741889
vn 0.734334 0.363173 -0.573462
vn 0.739163 0.407858 -0.535994
vn 0.035201 0.839009 -0.542978
vn -0.004429 -0.418945 -0.908001
vn 0.002756 0.522689 -0.852519
vn 0.001768 -0.340989 -0.940066
vn -0.000538 0.858160 -0.513382
vn 0.112701 0.276002 -0.954527
vn 0.037157 0.848942 -0.527178
vn 0.520996 0.329021 -0.787597
vn 0.125376 0.168506 -0.977695
vn -0.003620 0.865149 -0.501502
vn 0.000000 0.842193 -0.539176
vn 0.000000 0.127024 -0.991900
vn 0.000000 0.622470 -0.782644
vn -0.135073 0.861228 -0.489941
vn -0.140440 0.859407 -0.491626
vn 0.000000 0.127024 -0.991900
vn 0.000000 0.622470 -0.782644
vn 0.135073 0.861228 -0.489941
vn -0.014359 0.874773 -0.484320
vn -0.002353 0.865353 -0.501158
vn 0.012767 0.869177 -0.494336
vn 0.000000 0.842193 -0.539176
vn -0.372069 0.818077 -0.438537
vn -0.371791 0.794609 -0.479967
vn 0.014402 0.869182 -0.494282
vn 0.371000 0.818202 -0.439208
vn 0.372447 0.794258 -0.480039
vn -0.372447 0.794258 -0.480039
vn 0.371579 0.794563 -0.480208
vn 0.372753 0.817695 -0.438669
vn -0.372753 0.817695 -0.438669
vn -0.024505 0.869253 -0.493761
vn -0.049595 -0.566830 -0.822340
vn -0.404469 -0.632176 -0.660877
vn -0.043939 0.815891 -0.576534
vn -0.021277 0.376346 -0.926235
vn -0.691634 -0.563796 -0.451415
vn -0.084893 0.821769 -0.563462
vn -0.889922 -0.417452 -0.183775
vn -0.055959 0.855741 -0.514369
vn -0.005098 -0.969161 0.246378
vn -0.010150 -0.886129 0.463327
vn -0.014420 -0.880459 0.473903
vn -0.016485 -0.876879 0.480429
vn -0.001100 -0.793095 -0.609097
vn 0.030350 0.869323 -0.493312
vn 0.028664 0.869537 -0.493036
vn 0.140439 0.859407 -0.491626
vn 0.977944 -0.180175 0.105651
vn 0.972835 -0.204683 0.108153
vn 0.015509 -0.867908 0.496482
vn 0.014678 -0.868228 0.495948
vn -0.739164 0.407857 -0.535994
vn -0.702249 0.313721 -0.639082
vn -0.028041 0.673076 -0.739041
vn -0.035201 0.839009 -0.542978
vn -0.001725 -0.341024 -0.940053
vn 0.000538 0.858160 -0.513382
vn -0.002783 0.518789 -0.854898
vn -0.037157 0.848942 -0.527178
vn -0.112701 0.276002 -0.954527
vn -0.125375 0.168506 -0.977695
vn -0.520996 0.329020 -0.787597
vn 0.003620 0.865149 -0.501502
vn -0.012767 0.869177 -0.494336
vn 0.001100 -0.793095 -0.609097
vn 0.002353 0.865353 -0.501158
vn -0.014402 0.869182 -0.494282
vn 0.371791 0.794609 -0.479967
vn 0.372070 0.818077 -0.438537
vn -0.371578 0.794563 -0.480208
vn -0.371000 0.818202 -0.439208
vn 0.404469 -0.632176 -0.660877
vn 0.049594 -0.566831 -0.822340
vn 0.021277 0.376346 -0.926235
vn 0.043939 0.815891 -0.576534
vn 0.691634 -0.563796 -0.451416
vn 0.084893 0.821769 -0.563462
vn 0.889922 -0.417451 -0.183775
vn 0.055959 0.855741 -0.514369
vn 0.001863 -0.417352 -0.908743
vn 0.016485 -0.876879 0.480429
vn 0.010150 -0.886129 0.463327
vn 0.005098 -0.969161 0.246378
vn 0.014420 -0.880459 0.473903
s 1
g Roof_11_3 S_U_09_1
usemtl aiStandardSurface5SG
f 26/3/1 29/4/2 25/2/3 24/29/4
f 4/6/5 3/5/6 9/107/7 10/28/8
f 5/9/9 23/11/10 13/10/11 8/8/12
f 7/7/13 11/13/14 6/23/15
f 1/12/16 13/10/11 23/11/10 11/13/14
f 16/16/17 15/15/18 19/24/19 17/27/20
f 18/19/21 20/17/22 21/18/23 17/27/20
f 16/16/17 17/27/20 21/18/23 22/20/24
f 9/21/7 3/110/6 14/14/25 12/26/26
f 8/8/12 13/10/11 19/24/19 15/15/18
f 22/20/24 21/18/23 70/67/27 71/68/28
f 26/3/1 14/14/25 63/49/29 75/53/30
f 13/10/11 1/12/16 2/25/31 19/24/19
f 27/22/32 12/26/26 14/14/25
f 18/19/21 17/27/20 19/24/19 2/25/31
f 21/18/23 20/17/22 69/50/33 70/67/27
f 25/2/3 31/31/34 33/33/35 24/29/4
f 28/1/36 30/30/37 31/31/34 25/2/3
f 35/35/38 26/3/1 75/53/30 84/84/39
f 24/29/4 33/33/35 32/32/40 27/22/32
f 27/22/32 32/32/40 30/30/37 28/1/36
f 29/4/2 34/34/41 83/83/42 78/52/43
f 34/34/41 29/4/2 26/3/1 35/35/38
f 31/31/34 30/30/37 32/32/40 33/33/35
f 34/34/41 35/35/38 84/84/39 83/83/42
f 20/17/22 29/4/2 78/52/43 69/50/33
f 20/17/22 25/2/3 29/4/2
f 39/105/44 38/109/45 45/45/46 44/42/47
f 38/109/45 37/108/48 46/48/49 45/45/46
f 37/108/48 36/106/50 47/47/51 46/48/49
f 36/106/50 9/21/7 12/26/26 47/47/51
f 7/7/13 44/42/47 11/13/14
f 38/37/45 39/36/44 43/41/52 42/46/53
f 37/38/48 38/37/45 42/46/53 41/44/54
f 9/107/7 36/39/50 40/43/55 10/28/8
f 36/39/50 37/38/48 41/44/54 40/43/55
f 48/40/56 7/7/13 6/23/15
f 74/51/57 78/52/43 75/53/30 73/54/58
f 61/75/59 63/49/29 51/55/60 58/99/61
f 51/103/60 52/56/62 59/77/63 58/69/61
f 62/60/64 72/61/65 53/58/66 56/59/67
f 53/58/66 72/61/65 54/71/68
f 49/62/69 60/63/70 72/61/65 62/60/64
f 64/64/71 65/65/72 66/76/73 68/73/74
f 70/67/27 69/50/33 67/66/75 66/76/73
f 70/67/27 66/76/73 65/65/72 71/68/28
f 53/58/66 54/71/68 6/23/15 5/9/9
f 64/64/71 68/73/74 62/60/64 56/59/67
f 63/49/29 76/70/76 73/54/58 75/53/30
f 48/112/56 6/23/15 54/71/68 57/111/77
f 62/60/64 68/73/74 50/74/78 49/62/69
f 77/78/79 67/66/75 69/50/33 74/51/57
f 67/66/75 50/74/78 68/73/74 66/76/73
f 22/20/24 15/15/18 16/16/17
f 74/51/57 73/54/58 82/82/80 80/80/81
f 82/82/80 73/54/58 76/70/76 81/81/82
f 74/51/57 80/80/81 79/79/83 77/78/79
f 83/83/42 84/84/39 75/53/30 78/52/43
f 79/79/83 81/81/82 76/70/76 77/78/79
f 80/80/81 82/82/80 81/81/82 79/79/83
f 69/50/33 78/52/43 74/51/57
f 87/102/84 88/98/85 93/91/86 94/94/87
f 86/101/88 87/102/84 94/94/87 95/97/89
f 85/100/90 86/101/88 95/97/89 96/96/91
f 61/75/59 58/99/61 85/100/90 96/96/91
f 88/98/85 57/72/77 55/57/92 93/91/86
f 48/104/56 43/41/52 39/36/44
f 40/43/55 89/92/93 59/77/63 10/28/8
f 87/86/84 91/95/94 92/90/95 88/85/85
f 86/87/88 90/93/96 91/95/94 87/86/84
f 58/69/61 59/77/63 89/92/93 85/88/90
f 85/88/90 89/92/93 90/93/96 86/87/88
f 54/71/68 55/57/92 57/72/77
f 15/15/18 64/64/71 56/59/67 8/8/12
f 8/8/12 56/59/67 53/58/66 5/9/9
f 10/28/8 59/77/63 52/56/62 4/6/5
f 91/95/94 90/93/96 41/44/54 42/46/53
f 41/44/54 90/93/96 89/92/93 40/43/55
f 91/95/94 42/46/53 43/41/52 92/90/95
f 26/3/1 24/29/4 27/22/32 14/14/25
f 45/45/46 1/12/16 11/13/14 44/42/47
f 46/48/49 2/25/31 1/12/16 45/45/46
f 46/48/49 47/47/51 18/19/21 2/25/31
f 18/19/21 28/1/36 25/2/3 20/17/22
f 49/62/69 94/94/87 93/91/86 60/63/70
f 28/1/36 12/26/26 27/22/32
f 76/70/76 63/49/29 61/75/59
f 50/74/78 95/97/89 94/94/87 49/62/69
f 67/66/75 96/96/91 95/97/89 50/74/78
f 77/78/79 61/75/59 96/96/91 67/66/75
f 76/70/76 61/75/59 77/78/79
f 18/19/21 47/47/51 12/26/26 28/1/36
f 65/65/72 64/64/71 71/68/28
f 71/68/28 64/64/71 15/15/18 22/20/24
f 57/89/77 88/85/85 92/90/95
f 57/89/77 92/90/95 43/41/52 48/104/56
f 93/91/86 55/57/92 60/63/70
f 7/7/13 48/40/56 39/105/44 44/42/47
f 54/71/68 72/61/65 60/63/70 55/57/92
f 6/23/15 11/13/14 23/11/10 5/9/9
g default
v 145.727066 -41.204979 292.345673
v 136.753723 -30.469837 273.530579
v 310.777191 107.741241 3.150649
v 302.555756 99.335220 2.027763
v 141.047836 -55.521297 297.621643
v 139.065460 -49.544659 289.113068
v 311.752716 -39.696365 261.769806
v 302.980499 -45.899582 255.929688
v 143.372086 -49.885963 300.837311
v 145.727066 -50.369370 301.684570
v 147.434372 -47.639755 301.650238
v 308.643646 -28.520845 268.145874
v 311.752716 -30.565861 266.979065
v 142.396545 -44.427074 291.270477
v 310.777191 116.870804 8.359535
v 308.210297 118.917618 9.682890
v 131.655334 -40.678871 273.575256
v 113.766144 -37.007019 267.138824
v 114.428787 -30.565861 266.979065
v 115.090866 -26.022757 265.736511
v 134.204620 -34.626419 274.093658
v 83.464905 100.275436 44.165611
v 83.464905 -5.012520 228.914581
v 8.507181 100.275436 44.165611
v 100.479828 100.275436 44.165611
v 100.479828 -5.012520 228.914581
v 8.507181 -5.012520 228.914581
v 96.975662 -6.586803 222.477448
v 86.978104 -6.614029 222.500565
v 96.806717 -6.976387 223.545380
v 87.193649 -6.959148 223.626465
v 96.793747 94.667366 45.194611
v 87.138214 94.659981 45.206039
v 4.833876 -6.976387 223.545380
v 4.820908 94.667366 45.194611
v 308.479340 -47.384678 275.246033
v 299.935028 -53.539001 286.031738
v 287.352081 -57.652645 293.241882
v 272.571320 -59.123878 295.820923
v 272.573761 -49.997169 301.033752
v 287.353790 -48.524818 298.453827
v 299.936371 -44.410244 291.243042
v 308.479523 -38.256287 280.456970
v 299.955536 -52.953381 268.606964
v 291.660431 -58.932503 279.321838
v 279.336029 -62.943989 286.473633
v 264.825897 -64.386665 288.992493
v 270.919281 -47.760857 301.207245
v 285.412445 -46.328140 298.685181
v 297.722809 -42.217041 291.600494
v 306.008026 -36.042534 281.012939
v 145.726898 -59.484196 296.452423
v -145.727066 -41.204979 292.345673
v -136.753723 -30.469837 273.530579
v -310.777191 107.741241 3.150649
v -302.555756 99.335220 2.027763
v -141.047836 -55.521297 297.621643
v -139.065460 -49.544659 289.113068
v -311.752716 -39.696365 261.769806
v -302.980499 -45.899582 255.929688
v -143.372086 -49.885963 300.837311
v -145.727066 -50.369370 301.684570
v -147.434372 -47.639755 301.650238
v -308.643646 -28.520845 268.145874
v -311.752716 -30.565861 266.979065
v -142.396545 -44.427074 291.270477
v -310.777191 116.870804 8.359535
v -308.210297 118.917618 9.682890
v -131.655334 -40.678871 273.575256
v -113.766144 -37.007019 267.138824
v -114.428787 -30.565861 266.979065
v -115.090866 -26.022757 265.736511
v -134.204620 -34.626419 274.093658
v -83.464905 100.275436 44.165611
v -83.464905 -5.012520 228.914581
v -8.507181 100.275436 44.165611
v -100.479828 100.275436 44.165611
v -100.479828 -5.012520 228.914581
v -8.507181 -5.012520 228.914581
v -96.806717 -6.976387 223.545380
v -87.193649 -6.959148 223.626465
v -96.793747 94.667366 45.194611
v -87.138214 94.659981 45.206039
v -4.833876 -6.976387 223.545380
v -4.820908 94.667366 45.194611
v -308.479340 -47.384678 275.246033
v -299.935028 -53.539001 286.031738
v -287.352081 -57.652645 293.241882
v -272.571320 -59.123878 295.820923
v -272.573761 -49.997169 301.033752
v -287.353790 -48.524818 298.453827
v -299.936371 -44.410244 291.243042
v -308.479523 -38.256287 280.456970
v -299.955536 -52.953381 268.606964
v -291.660431 -58.932503 279.321838
v -279.336029 -62.943989 286.473633
v -264.825897 -64.386665 288.992493
v -270.919281 -47.760857 301.207245
v -285.412445 -46.328140 298.685181
v -297.722809 -42.217041 291.600494
v -306.008026 -36.042534 281.012939
v -145.726898 -59.484196 296.452423
vt 0.981523 0.670073
vt 0.773903 0.630822
vt 0.979370 0.376685
vt 0.755591 0.423281
vt 0.756437 0.630788
vt 0.681435 0.630743
vt 0.481622 0.301762
vt 0.473217 0.304129
vt 0.681821 0.423496
vt 0.818822 0.339129
vt 0.816684 0.348541
vt 0.812130 0.344714
vt 0.814489 0.334018
vt 0.820097 0.338755
vt 0.819289 0.329654
vt 0.821853 0.341073
vt 0.820202 0.351023
vt 0.786912 0.369800
vt 0.804567 0.362507
vt 0.807765 0.367740
vt 0.787926 0.376146
vt 0.556833 0.380914
vt 0.557730 0.376237
vt 0.788826 0.380825
vt 0.993627 0.376352
vt 0.995383 0.670118
vt 0.472415 0.084051
vt 0.985013 0.670177
vt 0.983209 0.376614
vt 0.558740 0.369893
vt 0.364594 0.670059
vt 0.664197 0.630746
vt 0.774998 0.423094
vt 0.810535 0.371810
vt 0.541081 0.362619
vt 0.760763 0.427216
vt 0.760775 0.428039
vt 0.769202 0.627057
vt 0.761137 0.627030
vt 0.481341 0.085562
vt 0.491336 0.054415
vt 0.769823 0.427988
vt 0.769853 0.427199
vt 0.503667 0.051265
vt 0.509535 0.057580
vt 0.676957 0.427259
vt 0.498815 0.059721
vt 0.676788 0.627003
vt 0.668842 0.627004
vt 0.668617 0.427262
vt 0.663752 0.423501
vt 0.944042 0.327142
vt 0.962736 0.330394
vt 0.958491 0.340826
vt 0.943790 0.337585
vt 0.979070 0.340949
vt 0.971104 0.349099
vt 0.989954 0.356992
vt 0.979687 0.361374
vt 0.942154 0.339779
vt 0.976645 0.362259
vt 0.481396 0.061663
vt 0.968399 0.350439
vt 0.956284 0.342544
vt 0.525452 0.351159
vt 0.389551 0.342824
vt 0.403659 0.340052
vt 0.523787 0.341215
vt 0.589927 0.423313
vt 0.589317 0.630801
vt 0.528961 0.348673
vt 0.489704 0.065778
vt 0.526810 0.339270
vt 0.531136 0.334155
vt 0.533505 0.344843
vt 0.525536 0.338895
vt 0.526332 0.329798
vt 0.537897 0.367854
vt 0.474834 0.071761
vt 0.361105 0.670167
vt 0.350741 0.670115
vt 0.352286 0.376609
vt 0.362695 0.376862
vt 0.571880 0.630836
vt 0.570790 0.423141
vt 0.535138 0.371925
vt 0.366530 0.376930
vt 0.584622 0.627052
vt 0.584766 0.426974
vt 0.483574 0.074847
vt 0.938132 0.084051
vt 0.576573 0.627079
vt 0.575963 0.426955
vt 0.937330 0.304129
vt 0.928925 0.301762
vt 0.383108 0.330695
vt 0.929206 0.085562
vt 0.401762 0.327438
vt 0.402024 0.337864
vt 0.387347 0.341108
vt 0.366816 0.341232
vt 0.374761 0.349372
vt 0.919211 0.054415
vt 0.911732 0.059721
vt 0.901012 0.057580
vt 0.906880 0.051265
vt 0.929151 0.061663
vt 0.355933 0.357264
vt 0.920843 0.065778
vt 0.926973 0.074847
vt 0.935713 0.071761
vt 0.597564 0.050977
vt 0.812983 0.050978
vt 0.377460 0.350713
vt 0.369234 0.362521
vt 0.366192 0.361637
vn 0.028973 0.868694 0.494500
vn -0.014224 0.868231 0.495956
vn 0.029975 0.868021 0.495621
vn 0.027621 0.869393 0.493349
vn 0.030669 0.869061 0.493754
vn -0.014369 0.874770 0.484326
vn -0.022191 0.869209 0.493946
vn 0.015509 -0.867908 -0.496482
vn 0.926223 -0.326008 -0.189287
vn 0.918897 -0.346283 -0.188990
vn 0.014678 -0.868228 -0.495948
vn -0.747594 0.263965 0.609447
vn -0.750313 0.411901 0.517077
vn -0.025431 0.841448 0.539739
vn -0.020052 0.434612 0.900395
vn -0.000613 -0.440713 0.897648
vn 0.000378 -0.770789 0.637091
vn -0.018787 0.654341 0.755966
vn -0.016865 0.855321 0.517825
vn -0.010617 0.651332 0.758719
vn -0.024988 0.855631 0.516983
vn -0.536760 0.299404 0.788825
vn -0.025861 0.139576 0.989874
vn -0.001131 0.827915 0.560853
vn 0.025861 0.139576 0.989874
vn 0.001131 0.827915 0.560853
vn 0.977511 0.184678 0.101813
vn 0.976889 0.182139 0.111865
vn 0.010617 0.651332 0.758719
vn -0.019293 0.868800 0.494787
vn 0.014369 0.874770 0.484326
vn -0.012746 0.869216 0.494268
vn -0.009645 0.859277 0.511420
vn 0.024988 0.855631 0.516983
vn 0.023194 0.963737 -0.265846
vn 0.397894 0.797002 0.454387
vn -0.379227 0.791430 0.479401
vn 0.379004 0.791554 0.479372
vn -0.397544 0.797114 0.454497
vn -0.025178 0.963942 -0.264919
vn -0.372754 0.817694 0.438669
vn -0.372448 0.794258 0.480038
vn 0.372448 0.794258 0.480038
vn 0.372754 0.817694 0.438669
vn 0.022191 0.869209 0.493946
vn 0.037916 -0.589388 0.806960
vn 0.387205 -0.705908 0.593099
vn 0.387653 -0.345599 0.854568
vn 0.028174 -0.437707 0.898676
vn 0.657308 -0.656424 0.370207
vn 0.696853 -0.210753 0.685551
vn 0.840086 -0.532441 0.103735
vn 0.906691 -0.027003 0.420930
vn 0.006313 0.712261 0.701887
vn 0.005098 -0.969160 -0.246380
vn 0.010150 -0.886130 -0.463326
vn 0.014420 -0.880458 -0.473904
vn 0.016485 -0.876879 -0.480429
vn 0.014630 0.865677 0.500389
vn 0.020448 0.860117 0.509687
vn 0.013466 0.857547 0.514230
vn 0.016865 0.855321 0.517825
vn -0.013466 0.857547 0.514230
vn -0.006313 0.712261 0.701887
vn 0.018787 0.654341 0.755966
vn -0.030597 0.869326 0.493291
vn -0.029841 0.869097 0.493740
vn -0.918897 -0.346283 -0.188991
vn -0.926223 -0.326008 -0.189287
vn -0.015509 -0.867908 -0.496482
vn -0.014678 -0.868228 -0.495948
vn 0.750312 0.411901 0.517077
vn 0.747594 0.263965 0.609448
vn 0.020052 0.434612 0.900395
vn 0.025431 0.841448 0.539739
vn 0.000614 -0.440713 0.897648
vn -0.000378 -0.770789 0.637091
vn 0.536761 0.299404 0.788825
vn -0.977511 0.184678 0.101813
vn -0.976889 0.182138 0.111865
vn 0.005169 0.868502 0.495660
vn 0.004442 0.868916 0.494939
vn 0.009645 0.859277 0.511420
vn -0.018845 0.868383 0.495536
vn -0.371792 0.794608 0.479967
vn -0.372071 0.818077 0.438536
vn 0.371580 0.794562 0.480208
vn 0.371002 0.818202 0.439208
vn -0.387205 -0.705908 0.593099
vn -0.037916 -0.589388 0.806960
vn -0.028173 -0.437707 0.898676
vn -0.387654 -0.345599 0.854567
vn -0.657308 -0.656424 0.370207
vn -0.696853 -0.210753 0.685551
vn -0.840086 -0.532442 0.103735
vn -0.906691 -0.027004 0.420930
vn -0.010150 -0.886130 -0.463326
vn -0.005098 -0.969160 -0.246380
vn -0.014420 -0.880458 -0.473904
vn -0.016485 -0.876879 -0.480429
vn -0.014630 0.865677 0.500389
vn -0.020448 0.860117 0.509687
s 1
g S_U_09_1 Roof_11_4
usemtl aiStandardSurface5SG
f 112/113/97 121/114/98 108/115/99
f 119/116/100 118/117/101 120/118/102 123/121/103
f 100/119/104 99/120/105 103/139/106 104/152/107
f 105/122/108 110/123/109 102/124/110 101/125/111
f 106/126/112 105/122/108 101/125/111 148/127/113
f 110/123/109 105/122/108 107/128/114 97/129/115
f 114/130/116 113/131/117 117/132/118 115/133/119
f 168/134/120 167/135/121 115/133/119 116/136/122
f 103/137/106 99/138/105 111/140/123 109/141/124
f 102/124/110 110/123/109 117/132/118 113/131/117
f 112/113/97 118/117/101 121/114/98
f 114/130/116 115/133/119 167/135/121 166/142/125
f 120/118/102 112/113/97 164/143/126 172/144/127
f 119/116/100 116/136/122 122/145/128
f 117/132/118 110/123/109 97/129/115 98/146/129
f 108/115/99 109/141/124 111/140/123 112/113/97
f 117/132/118 98/146/129 116/136/122 115/133/119
f 165/147/130 113/131/117 114/130/116 166/142/125
f 105/122/108 106/126/112 107/128/114
f 119/116/100 127/148/131 125/149/132
f 128/150/133 121/114/98 118/117/101 129/151/134
f 122/145/128 124/154/135 126/155/136
f 130/158/137 123/121/103 120/118/102 131/160/138
f 124/154/135 122/145/128 121/114/98 128/150/133
f 126/155/136 127/148/131 119/116/100 122/145/128
f 125/149/132 127/148/131 126/155/136 124/154/135
f 119/116/100 125/149/132 129/151/134 118/117/101
f 128/150/133 129/151/134 125/149/132 124/154/135
f 130/158/137 131/160/138 181/161/139 180/162/140
f 112/113/97 120/118/102 118/117/101
f 168/134/120 116/136/122 123/121/103 175/163/141
f 116/136/122 119/116/100 123/121/103
f 135/164/142 134/165/143 137/166/144 136/167/145
f 134/165/143 133/168/146 138/169/147 137/166/144
f 133/168/146 132/170/148 139/171/149 138/169/147
f 132/170/148 103/137/106 109/141/124 139/171/149
f 106/126/112 148/127/113 135/164/142 136/167/145
f 107/128/114 106/126/112 136/167/145 144/172/150
f 134/153/143 135/156/142 143/157/151 142/159/152
f 133/174/146 134/153/143 142/159/152 141/184/153
f 103/139/106 132/191/148 140/202/154 104/152/107
f 132/191/148 133/174/146 141/184/153 140/202/154
f 139/171/149 109/141/124 108/115/99 147/173/155
f 138/169/147 139/171/149 147/173/155 146/175/156
f 136/167/145 137/166/144 145/176/157 144/172/150
f 137/166/144 138/169/147 146/175/156 145/176/157
f 123/121/103 130/158/137 180/162/140 175/163/141
f 149/177/158 195/178/159 194/179/160 159/180/161
f 171/181/162 175/163/141 172/144/127 170/182/163
f 155/203/164 151/206/165 152/207/166 156/209/167
f 162/183/168 157/185/169 153/186/170 154/187/171
f 157/185/169 158/188/172 198/189/173 153/186/170
f 157/185/169 162/183/168 149/177/158 159/180/161
f 165/147/130 166/142/125 167/135/121 169/190/174
f 101/125/111 153/186/170 198/189/173 148/127/113
f 163/192/175 151/193/165 155/194/164 161/195/176
f 165/147/130 169/190/174 162/183/168 154/187/171
f 164/143/126 173/196/177 170/182/163
f 171/181/162 174/197/178 168/134/120
f 149/177/158 162/183/168 169/190/174 150/198/179
f 163/192/175 161/195/176 160/199/180 164/143/126
f 168/134/120 150/198/179 169/190/174 167/135/121
f 157/185/169 159/180/161 158/188/172
f 171/181/162 170/182/163 179/200/181 177/201/182
f 170/182/163 173/196/177 178/204/183 179/200/181
f 176/205/184 174/197/178 171/181/162 177/201/182
f 172/144/127 181/161/139 131/160/138 120/118/102
f 180/162/140 181/161/139 172/144/127 175/163/141
f 176/205/184 178/204/183 173/196/177 174/197/178
f 177/201/182 179/200/181 178/204/183 176/205/184
f 164/143/126 170/182/163 172/144/127
f 168/134/120 175/163/141 171/181/162
f 184/208/185 185/210/186 186/211/187 187/212/188
f 183/213/189 184/208/185 187/212/188 188/214/190
f 182/220/191 183/213/189 188/214/190 189/228/192
f 161/195/176 155/194/164 182/220/191 189/228/192
f 185/210/186 198/189/173 158/188/172 186/211/187
f 159/180/161 194/179/160 186/211/187 158/188/172
f 104/152/107 156/209/167 152/207/166 100/119/104
f 184/215/185 192/216/193 193/217/194 185/218/186
f 183/219/189 191/221/195 192/216/193 184/215/185
f 155/203/164 156/209/167 190/222/196 182/223/191
f 182/223/191 190/222/196 191/221/195 183/219/189
f 189/228/192 197/227/197 160/199/180 161/195/176
f 188/214/190 196/226/198 197/227/197 189/228/192
f 186/211/187 194/179/160 195/178/159 187/212/188
f 187/212/188 195/178/159 196/226/198 188/214/190
f 140/202/154 190/222/196 156/209/167 104/152/107
f 141/184/153 191/221/195 190/222/196 140/202/154
f 192/216/193 191/221/195 141/184/153 142/159/152
f 192/216/193 142/159/152 143/157/151 193/217/194
f 160/199/180 174/197/178 173/196/177 164/143/126
f 108/115/99 122/145/128 116/136/122 147/173/155
f 108/115/99 121/114/98 122/145/128
f 145/176/157 97/129/115 107/128/114 144/172/150
f 146/175/156 98/146/129 97/129/115 145/176/157
f 174/197/178 160/199/180 197/227/197 168/134/120
f 150/198/179 196/226/198 195/178/159 149/177/158
f 154/187/171 102/124/110 113/131/117 165/147/130
f 101/125/111 102/124/110 154/187/171 153/186/170
f 148/224/113 143/157/151 135/156/142
f 193/217/194 198/225/173 185/218/186
f 148/224/113 198/225/173 193/217/194 143/157/151
f 168/134/120 197/227/197 196/226/198 150/198/179
f 147/173/155 116/136/122 98/146/129 146/175/156
g default
v 328.832428 113.338455 0.000003
v 320.281677 126.610733 -9.642830
v 326.327911 124.667221 -8.230869
v 328.832428 119.975601 -4.822097
v 320.281677 108.268845 -15.602427
v 326.327911 109.011337 -13.317858
v 328.832428 110.803421 -7.802415
v 320.281677 96.933090 0.000003
v 326.327911 99.335220 0.000003
v 328.832428 105.134537 0.000003
v 320.281677 108.268845 15.602427
v 326.327911 109.011337 13.317855
v 328.832428 110.803421 7.802416
v 320.281677 126.610733 9.642829
v 326.327911 124.667221 8.230869
v 328.832428 119.975601 4.822095
v -328.832428 113.338455 0.000003
v -320.281677 126.610733 -9.642830
v -326.327911 124.667221 -8.230869
v -328.832428 119.975601 -4.822097
v -320.281677 108.268845 -15.602427
v -326.327911 109.011337 -13.317858
v -328.832428 110.803421 -7.802415
v -320.281677 96.933090 0.000003
v -326.327911 99.335220 0.000003
v -328.832428 105.134537 0.000003
v -320.281677 108.268845 15.602427
v -326.327911 109.011337 13.317855
v -328.832428 110.803421 7.802416
v -320.281677 126.610733 9.642829
v -326.327911 124.667221 8.230869
v -328.832428 119.975601 4.822095
vt 0.235544 0.724990
vt 0.224986 0.745299
vt 0.251597 0.741307
vt 0.256024 0.714766
vt 0.232149 0.702353
vt 0.212967 0.721224
vt 0.216948 0.760984
vt 0.208829 0.777410
vt 0.264030 0.753800
vt 0.277143 0.766597
vt 0.271747 0.706802
vt 0.287971 0.698286
vt 0.229434 0.684939
vt 0.226349 0.666878
vt 0.195565 0.718425
vt 0.177435 0.715779
vt 0.029908 0.004314
vt 0.029908 0.771365
vt 0.054493 0.004314
vt 0.054493 0.771365
vt 0.079078 0.771365
vt 0.079078 0.004314
vt 0.226248 0.467901
vt 0.236804 0.488212
vt 0.252858 0.471897
vt 0.257281 0.498440
vt 0.233405 0.510848
vt 0.214226 0.491974
vt 0.218212 0.452215
vt 0.210095 0.435788
vt 0.265294 0.459407
vt 0.278410 0.446612
vt 0.273003 0.506407
vt 0.289225 0.514926
vt 0.230687 0.528262
vt 0.227599 0.546323
vt 0.196824 0.494771
vt 0.178693 0.497415
vt 0.128248 0.004314
vt 0.005323 0.771365
vt 0.103663 0.004314
vt 0.103663 0.771365
vt 0.005323 0.004314
vt 0.128248 0.771365
vt 0.054493 0.771365
vt 0.054493 0.004314
vn 0.943537 0.268003 -0.194712
vn 1.000000 0.000001 0.000000
vn 0.943538 -0.102364 -0.315052
vn 0.943538 -0.331264 -0.000000
vn 0.943538 -0.102366 0.315052
vn 0.943537 0.268004 0.194711
vn 0.559397 0.670592 -0.487217
vn 0.002969 0.809011 -0.587785
vn 0.002969 0.809011 0.587785
vn 0.559397 0.670592 0.487218
vn 0.559397 -0.256138 -0.788333
vn 0.002969 -0.309015 -0.951052
vn 0.559402 -0.828897 -0.000000
vn 0.002969 -0.999996 0.000000
vn 0.559397 -0.256137 0.788333
vn 0.002969 -0.309015 0.951053
vn -1.000000 0.000001 0.000000
vn -0.943537 0.268003 -0.194712
vn -0.943538 -0.102364 -0.315052
vn -0.943538 -0.331263 0.000000
vn -0.943538 -0.102365 0.315052
vn -0.943536 0.268005 0.194711
vn -0.002969 0.809011 -0.587785
vn -0.559397 0.670592 -0.487218
vn -0.559397 0.670592 0.487217
vn -0.002969 0.809011 0.587785
vn -0.559397 -0.256138 -0.788333
vn -0.002969 -0.309015 -0.951052
vn -0.559402 -0.828897 0.000000
vn -0.002969 -0.999996 0.000000
vn -0.559397 -0.256137 0.788333
vn -0.002969 -0.309015 0.951053
s 1
g S_U_09_1 Roof_Sculpture_04_A
usemtl aiStandardSurface5SG
f 202/230/199 199/229/200 205/231/201
f 205/231/201 199/229/200 208/232/202
f 208/232/202 199/229/200 211/233/203
f 211/233/203 199/229/200 214/234/204
f 214/234/204 199/229/200 202/230/199
f 201/235/205 200/236/206 212/244/207 213/243/208
f 214/234/204 202/230/199 201/235/205 213/243/208
f 201/235/205 202/230/199 205/231/201 204/237/209
f 200/236/206 201/235/205 204/237/209 203/238/210
f 204/237/209 205/231/201 208/232/202 207/239/211
f 203/238/210 204/237/209 207/239/211 206/240/212
f 207/239/211 208/232/202 211/233/203 210/241/213
f 206/240/212 207/239/211 210/241/213 209/242/214
f 210/241/213 211/233/203 214/234/204 213/243/208
f 209/242/214 210/241/213 213/243/208 212/244/207
f 215/252/215 218/251/216 221/253/217
f 215/252/215 221/253/217 224/254/218
f 215/252/215 224/254/218 227/255/219
f 215/252/215 227/255/219 230/256/220
f 215/252/215 230/256/220 218/251/216
f 216/258/221 217/257/222 229/265/223 228/266/224
f 217/257/222 218/251/216 230/256/220 229/265/223
f 221/253/217 218/251/216 217/257/222 220/259/225
f 217/257/222 216/258/221 219/260/226 220/259/225
f 224/254/218 221/253/217 220/259/225 223/261/227
f 220/259/225 219/260/226 222/262/228 223/261/227
f 227/255/219 224/254/218 223/261/227 226/263/229
f 223/261/227 222/262/228 225/264/230 226/263/229
f 230/256/220 227/255/219 226/263/229 229/265/223
f 226/263/229 225/264/230 228/266/224 229/265/223
f 200/250/206 216/249/221 228/273/224 212/247/207
f 209/245/214 212/274/207 228/248/224 225/246/230
f 206/271/212 209/245/214 225/246/230 222/268/228
f 203/269/210 206/267/212 222/272/228 219/270/226
f 200/250/206 203/269/210 219/270/226 216/249/221
g default
v -256.142639 0.000001 178.160049
v 256.142639 0.000001 178.160049
v -256.142639 100.000000 0.000880
v 256.142639 100.000000 0.000880
v -256.142639 100.000000 -0.000878
v 256.142639 100.000000 -0.000878
v -256.142639 0.000018 -178.160019
v 256.142639 0.000001 -178.160019
vt 0.241397 0.609374
vt 0.135344 0.436250
vt 0.241399 0.609388
vt 0.338147 0.781783
vt 0.338161 0.436997
vt 0.135314 0.781029
vt 0.232108 0.608634
vt 0.232102 0.608646
vn 1.000000 0.000000 0.000000
vn 1.000000 0.000000 0.000000
vn 1.000000 0.000000 0.000000
vn 1.000000 0.000000 0.000000
vn -1.000000 0.000000 0.000000
vn -1.000000 0.000000 0.000000
vn -1.000000 0.000000 0.000000
vn -1.000000 0.000000 0.000000
s off
g S_U_09_1 Unit_Base_26_A
usemtl aiStandardSurface5SG
f 232/279/231 238/278/232 236/277/233 234/275/234
f 237/280/235 231/276/236 233/281/237 235/282/238
