# This file uses centimeters as units for non-parametric coordinates.

mtllib S_P19_01.mtl
g default
v 130.310486 0.000000 5.830592
v 141.971664 0.000000 5.830592
v 130.310486 5.658418 5.830592
v 141.971664 5.658418 5.830592
v 130.310486 5.658418 -5.830592
v 141.971664 5.658418 -5.830592
v 130.310486 0.000000 -5.830592
v 141.971664 0.000000 -5.830592
vt 0.702373 0.295817
vt 0.388312 0.893056
vt 0.471971 0.893056
vt 0.471971 0.933650
vt 0.639287 0.933650
vt 0.555629 0.933650
vt 0.639287 0.893056
vt 0.555629 0.893056
vt 0.702373 0.577681
vt 0.304653 0.933650
vt 0.304653 0.893056
vt 0.388312 0.933650
vt 0.984236 0.295817
vt 0.984236 0.577681
vn -0.707107 0.000000 0.707107
vn -0.707107 0.000000 0.707107
vn 0.707107 0.000000 0.707107
vn 0.707107 0.000000 0.707107
vn 0.000000 1.000000 0.000000
vn 0.000000 1.000000 0.000000
vn 0.000000 1.000000 0.000000
vn 0.000000 1.000000 0.000000
vn 0.000000 0.000000 -1.000000
vn 0.000000 0.000000 -1.000000
vn 0.707107 0.000000 -0.707107
vn 0.707107 0.000000 -0.707107
vn -1.000000 0.000000 0.000000
vn -1.000000 0.000000 0.000000
s 1
g Cube2_low SP19_low
usemtl aiStandardSurface1SG
f 3/12/1 1/2/2 2/3/3 4/4/4
s off
f 5/9/5 3/1/6 4/13/7 6/14/8
s 1
f 7/7/9 5/5/10 6/6/11 8/8/12
f 6/6/11 4/4/4 2/3/3 8/8/12
f 3/12/1 5/10/13 7/11/14 1/2/2
g default
v -141.971664 0.000000 5.830592
v -130.310471 0.000000 5.830592
v -141.971664 5.658418 5.830592
v -130.310471 5.658418 5.830592
v -141.971664 5.658418 -5.830592
v -130.310471 5.658418 -5.830592
v -141.971664 0.000000 -5.830592
v -130.310471 0.000000 -5.830592
vt 0.701695 0.289946
vt 0.389258 0.849705
vt 0.472923 0.849705
vt 0.472923 0.890319
vt 0.639681 0.890319
vt 0.556330 0.890319
vt 0.556330 0.849705
vt 0.639681 0.849705
vt 0.701695 0.008083
vt 0.983558 0.008083
vt 0.389258 0.890319
vt 0.983558 0.289947
vt 0.305208 0.890319
vt 0.305208 0.849705
vn -0.707107 0.000000 0.707107
vn -0.707107 0.000000 0.707107
vn 0.707107 0.000000 0.707107
vn 0.707107 0.000000 0.707107
vn 0.000000 1.000000 0.000000
vn 0.000000 1.000000 0.000000
vn 0.000000 1.000000 0.000000
vn 0.000000 1.000000 0.000000
vn 0.707107 0.000000 -0.707107
vn 0.000000 0.000000 -1.000000
vn 0.000000 0.000000 -1.000000
vn 0.707107 0.000000 -0.707107
vn -1.000000 0.000000 0.000000
vn -1.000000 0.000000 0.000000
s 1
g SP19_low Cube1_low
usemtl aiStandardSurface1SG
f 11/25/15 9/16/16 10/17/17 12/18/18
s off
f 13/26/19 11/15/20 12/23/21 14/24/22
s 1
f 16/21/23 15/22/24 13/19/25 14/20/26
f 12/18/18 10/17/17 16/21/23 14/20/26
f 11/25/15 13/27/27 15/28/28 9/16/16
g default
v -136.628632 75.820496 -0.954437
v -136.628632 75.121803 -1.653133
v -136.628632 74.167366 -1.908874
v -136.628632 73.212929 -1.653133
v -136.628632 72.514259 -0.954437
v -136.628632 72.258492 0.000000
v -136.628632 72.514259 0.954437
v -136.628632 73.212929 1.653133
v -136.628632 74.167366 1.908874
v -136.628632 75.121803 1.653133
v -136.628632 75.820496 0.954437
v -136.628632 76.076263 0.000000
v -136.614990 75.121803 1.653133
v -111.801636 75.121796 1.653133
v -86.988327 75.121803 1.653133
v -37.361618 75.121796 1.653133
v -12.548279 75.121803 1.653133
v 37.078392 75.121803 1.653133
v 61.891724 75.121796 1.653133
v 111.518402 75.121803 1.653133
v 111.518402 74.167366 1.908874
v 61.891724 74.167366 1.908874
v 37.078392 74.167366 1.908874
v -12.548279 74.167366 1.908874
v -37.361618 74.167358 1.908874
v -86.988327 74.167366 1.908874
v -111.801636 74.167366 1.908874
v -136.614990 74.167366 1.908874
v 111.518402 73.212929 1.653133
v 61.891724 73.212929 1.653133
v 37.078392 73.212929 1.653133
v -12.548279 73.212929 1.653133
v -37.361618 73.212921 1.653133
v -86.988327 73.212929 1.653133
v -111.801636 73.212929 1.653133
v -136.614990 73.212929 1.653133
v 111.518402 72.514259 0.954437
v 61.891724 72.514252 0.954437
v 37.078392 72.514259 0.954437
v -12.548279 72.514252 0.954437
v -37.361618 72.514252 0.954437
v -86.988327 72.514259 0.954437
v -111.801636 72.514252 0.954437
v -136.614990 72.514259 0.954437
v 111.518402 72.258492 0.000000
v 61.891724 72.258492 0.000000
v 37.078392 72.258492 0.000000
v -12.548279 72.258492 0.000000
v -37.361618 72.258492 0.000000
v -86.988327 72.258492 0.000000
v -111.801636 72.258492 0.000000
v -136.614990 72.258492 0.000000
v 111.518402 72.514259 -0.954437
v 61.891724 72.514252 -0.954437
v 37.078392 72.514259 -0.954437
v -12.548279 72.514252 -0.954437
v -37.361618 72.514252 -0.954437
v -86.988327 72.514259 -0.954437
v -111.801636 72.514252 -0.954437
v -136.614990 72.514259 -0.954437
v 111.518402 73.212929 -1.653133
v 61.891724 73.212929 -1.653133
v 37.078392 73.212929 -1.653133
v -12.548279 73.212929 -1.653133
v -37.361618 73.212921 -1.653133
v -86.988327 73.212929 -1.653133
v -111.801636 73.212929 -1.653133
v -136.614990 73.212929 -1.653133
v 111.518402 74.167366 -1.908874
v 61.891724 74.167366 -1.908874
v 37.078392 74.167366 -1.908874
v -12.548279 74.167366 -1.908874
v -37.361618 74.167358 -1.908874
v -86.988327 74.167366 -1.908874
v -111.801636 74.167366 -1.908874
v -136.614990 74.167366 -1.908874
v 111.518402 75.121803 -1.653133
v 61.891724 75.121796 -1.653133
v 37.078392 75.121803 -1.653133
v -12.548279 75.121803 -1.653133
v -37.361618 75.121796 -1.653133
v -86.988327 75.121803 -1.653133
v -111.801636 75.121796 -1.653133
v -136.614990 75.121803 -1.653133
v 111.518402 75.820496 -0.954437
v 61.891724 75.820496 -0.954437
v 37.078392 75.820496 -0.954437
v -12.548275 75.820496 -0.954437
v -37.361614 75.820488 -0.954437
v -86.988312 75.820496 -0.954437
v -111.801636 75.820496 -0.954437
v -136.614990 75.820496 -0.954437
v 111.518402 76.076263 0.000000
v 61.891724 76.076256 0.000000
v 37.078392 76.076263 0.000000
v -12.548275 76.076256 0.000000
v -37.361614 76.076256 0.000000
v -86.988312 76.076263 0.000000
v -111.801636 76.076256 0.000000
v -136.614990 76.076263 0.000000
v 111.518402 75.820496 0.954437
v 61.891724 75.820496 0.954437
v 37.078392 75.820496 0.954437
v -12.548275 75.820496 0.954437
v -37.361614 75.820488 0.954437
v -86.988312 75.820496 0.954437
v -111.801636 75.820496 0.954437
v -136.614990 75.820496 0.954437
v 136.331726 74.811226 1.115188
v 111.518402 74.811218 1.115188
v 111.518402 74.167366 1.287709
v 136.331726 74.167366 1.287709
v 111.518402 73.523521 1.115189
v 136.331726 73.523521 1.115189
v 111.518402 73.052200 0.643852
v 136.331726 73.052200 0.643852
v 111.518402 72.879662 0.000000
v 136.331726 72.879669 0.000000
v 111.518402 73.052200 -0.643852
v 136.331726 73.052200 -0.643852
v 111.518402 73.523521 -1.115189
v 136.331726 73.523521 -1.115189
v 111.518402 74.167366 -1.287709
v 136.331726 74.167366 -1.287709
v 111.518402 74.811218 -1.115188
v 136.331726 74.811226 -1.115188
v 111.518402 75.282555 -0.643852
v 136.331726 75.282555 -0.643852
v 111.518394 75.455093 0.000000
v 136.331726 75.455093 0.000000
v 111.518402 75.282555 0.643852
v 136.331726 75.282555 0.643852
v 61.891724 74.811218 1.115188
v 37.078392 74.811226 1.115188
v 37.078392 74.167366 1.287710
v 61.891724 74.167366 1.287710
v 37.078392 73.523521 1.115190
v 61.891724 73.523514 1.115190
v 37.078392 73.052200 0.643852
v 61.891724 73.052193 0.643852
v 37.078392 72.879669 0.000000
v 61.891724 72.879662 0.000000
v 37.078392 73.052200 -0.643852
v 61.891724 73.052193 -0.643852
v 37.078392 73.523521 -1.115190
v 61.891724 73.523514 -1.115190
v 37.078392 74.167366 -1.287710
v 61.891724 74.167366 -1.287710
v 37.078392 74.811226 -1.115188
v 61.891724 74.811218 -1.115188
v 37.078392 75.282555 -0.643852
v 61.891724 75.282555 -0.643852
v 37.078392 75.455093 0.000000
v 61.891724 75.455086 0.000000
v 37.078392 75.282555 0.643852
v 61.891724 75.282555 0.643852
v -12.548279 74.811218 1.115188
v -37.361618 74.811218 1.115188
v -37.361618 74.167358 1.287708
v -12.548279 74.167366 1.287708
v -37.361614 73.523514 1.115190
v -12.548275 73.523514 1.115190
v -37.361614 73.052193 0.643854
v -12.548275 73.052193 0.643854
v -37.361618 72.879669 0.000000
v -12.548279 72.879669 0.000000
v -37.361614 73.052193 -0.643854
v -12.548275 73.052193 -0.643854
v -37.361614 73.523514 -1.115190
v -12.548275 73.523514 -1.115190
v -37.361618 74.167358 -1.287708
v -12.548279 74.167366 -1.287708
v -37.361618 74.811218 -1.115188
v -12.548279 74.811218 -1.115188
v -37.361618 75.282547 -0.643851
v -12.548279 75.282555 -0.643851
v -37.361618 75.455086 0.000000
v -12.548279 75.455086 0.000000
v -37.361618 75.282547 0.643851
v -12.548279 75.282555 0.643851
v -86.988327 74.811218 1.115189
v -111.801636 74.811218 1.115189
v -111.801636 74.167366 1.287709
v -86.988327 74.167366 1.287709
v -111.801651 73.523514 1.115187
v -86.988327 73.523514 1.115187
v -111.801636 73.052193 0.643853
v -86.988312 73.052200 0.643853
v -111.801643 72.879669 0.000000
v -86.988319 72.879669 0.000000
v -111.801636 73.052193 -0.643853
v -86.988312 73.052200 -0.643853
v -111.801651 73.523514 -1.115187
v -86.988327 73.523514 -1.115187
v -111.801636 74.167366 -1.287709
v -86.988327 74.167366 -1.287709
v -111.801636 74.811218 -1.115189
v -86.988327 74.811218 -1.115189
v -111.801636 75.282555 -0.643851
v -86.988327 75.282555 -0.643851
v -111.801643 75.455086 0.000000
v -86.988319 75.455086 0.000000
v -111.801636 75.282555 0.643851
v -86.988327 75.282555 0.643851
vt 0.182103 0.001791
vt 0.182102 0.223873
vt 0.176672 0.223873
vt 0.176670 0.001791
vt 0.176672 0.227991
vt 0.182103 0.227991
vt 0.182102 0.509199
vt 0.176672 0.509199
vt 0.182102 0.513131
vt 0.182102 0.708002
vt 0.176670 0.708002
vt 0.176672 0.513131
vt 0.176670 0.711735
vt 0.182102 0.711735
vt 0.182102 0.971435
vt 0.176671 0.971435
vt 0.182102 0.975035
vt 0.106796 0.248652
vt 0.100303 0.248652
vt 0.100298 0.001279
vt 0.100303 0.253493
vt 0.106796 0.253493
vt 0.106796 0.586481
vt 0.100303 0.586481
vt 0.106796 0.591201
vt 0.106795 0.829240
vt 0.100302 0.829240
vt 0.100303 0.591201
vt 0.106795 0.833876
vt 0.106796 0.995979
vt 0.100303 0.995979
vt 0.100302 0.833876
vt 0.106796 0.996068
vt 0.100303 0.996068
vt 0.093840 0.995979
vt 0.093840 0.996068
vt 0.087382 0.995979
vt 0.087382 0.996068
vt 0.080883 0.995979
vt 0.080883 0.996068
vt 0.152633 0.995979
vt 0.152633 0.996068
vt 0.146124 0.995979
vt 0.146124 0.996068
vt 0.139683 0.995979
vt 0.139683 0.996068
vt 0.133213 0.995979
vt 0.133213 0.996068
vt 0.126665 0.995979
vt 0.126665 0.996068
vt 0.120116 0.995979
vt 0.120116 0.996068
vt 0.113567 0.995979
vt 0.113567 0.996068
vt 0.093840 0.833876
vt 0.093840 0.829240
vt 0.093841 0.591201
vt 0.093841 0.253493
vt 0.093841 0.586481
vt 0.093841 0.248652
vt 0.093838 0.001279
vt 0.171280 0.711735
vt 0.171281 0.971435
vt 0.171280 0.708002
vt 0.171282 0.513131
vt 0.171282 0.223873
vt 0.171282 0.001791
vt 0.171282 0.227991
vt 0.171282 0.509199
vt 0.087381 0.833876
vt 0.087381 0.829240
vt 0.087383 0.591201
vt 0.087383 0.253493
vt 0.087383 0.586481
vt 0.087383 0.248652
vt 0.087379 0.001279
vt 0.165865 0.711735
vt 0.165866 0.971435
vt 0.165865 0.708002
vt 0.165866 0.513131
vt 0.165866 0.223873
vt 0.165865 0.001791
vt 0.165866 0.227991
vt 0.165866 0.509199
vt 0.159132 0.833876
vt 0.159132 0.829240
vt 0.159132 0.591201
vt 0.159133 0.253493
vt 0.080883 0.586481
vt 0.159133 0.248652
vt 0.159131 0.001279
vt 0.227048 0.711734
vt 0.160452 0.971435
vt 0.227048 0.708003
vt 0.227048 0.513132
vt 0.227049 0.223873
vt 0.227047 0.001791
vt 0.227049 0.227990
vt 0.160452 0.509199
vt 0.152633 0.833876
vt 0.152633 0.829240
vt 0.152634 0.591201
vt 0.152634 0.253493
vt 0.152634 0.586481
vt 0.152634 0.248652
vt 0.152633 0.001279
vt 0.221953 0.711734
vt 0.221954 0.971435
vt 0.221953 0.708002
vt 0.221954 0.513132
vt 0.221955 0.223873
vt 0.221953 0.001791
vt 0.221955 0.227990
vt 0.221954 0.509198
vt 0.146122 0.833876
vt 0.146122 0.829240
vt 0.146124 0.591201
vt 0.146124 0.253493
vt 0.146124 0.586481
vt 0.146124 0.248652
vt 0.146118 0.001279
vt 0.216537 0.711734
vt 0.216538 0.971435
vt 0.216537 0.708003
vt 0.216538 0.513132
vt 0.216538 0.223873
vt 0.216536 0.001791
vt 0.216538 0.227990
vt 0.216538 0.509198
vt 0.139682 0.833876
vt 0.139682 0.829240
vt 0.139683 0.591201
vt 0.139683 0.253493
vt 0.139683 0.586481
vt 0.139683 0.248652
vt 0.139681 0.001279
vt 0.211007 0.711735
vt 0.211008 0.971435
vt 0.211007 0.708002
vt 0.211008 0.513131
vt 0.211008 0.223873
vt 0.211007 0.001791
vt 0.211008 0.227991
vt 0.211008 0.509199
vt 0.133213 0.833876
vt 0.133213 0.829240
vt 0.133214 0.591201
vt 0.133214 0.253493
vt 0.133214 0.586481
vt 0.133214 0.248652
vt 0.133210 0.001279
vt 0.205448 0.711735
vt 0.205448 0.971435
vt 0.205448 0.708002
vt 0.205448 0.513131
vt 0.205448 0.223873
vt 0.205450 0.001791
vt 0.205448 0.227991
vt 0.205448 0.509199
vt 0.126664 0.833876
vt 0.126664 0.829240
vt 0.126665 0.591201
vt 0.126665 0.253493
vt 0.126665 0.586481
vt 0.126665 0.248652
vt 0.126662 0.001279
vt 0.199877 0.711735
vt 0.199878 0.971435
vt 0.199877 0.708002
vt 0.199878 0.513131
vt 0.199878 0.223873
vt 0.199879 0.001791
vt 0.199878 0.227991
vt 0.199878 0.509199
vt 0.120115 0.833876
vt 0.120115 0.829240
vt 0.120117 0.591201
vt 0.120117 0.253493
vt 0.120117 0.586481
vt 0.120117 0.248652
vt 0.120115 0.001279
vt 0.194310 0.711734
vt 0.194311 0.971435
vt 0.194310 0.708003
vt 0.194311 0.513132
vt 0.194311 0.223873
vt 0.194311 0.001791
vt 0.194311 0.227990
vt 0.194311 0.509198
vt 0.113567 0.833876
vt 0.113567 0.829240
vt 0.113568 0.591201
vt 0.113568 0.253493
vt 0.113568 0.586481
vt 0.113568 0.248652
vt 0.113562 0.001279
vt 0.188743 0.711735
vt 0.188744 0.971435
vt 0.188743 0.708002
vt 0.188745 0.513131
vt 0.188745 0.223873
vt 0.188743 0.001791
vt 0.188745 0.227991
vt 0.188745 0.509199
vt 0.080882 0.829240
vt 0.080883 0.591201
vt 0.159132 0.586481
vt 0.080882 0.833876
vt 0.080883 0.248652
vt 0.080881 0.001279
vt 0.227049 0.971435
vt 0.080883 0.253493
vt 0.160452 0.708002
vt 0.160452 0.513131
vt 0.227048 0.509198
vt 0.160452 0.711735
vt 0.160452 0.223873
vt 0.160453 0.001791
vt 0.160452 0.227991
vt 0.159132 0.996068
vt 0.159132 0.995979
vt 0.106796 0.001279
vt 0.188744 0.975035
vt 0.194311 0.975036
vt 0.199878 0.975035
vt 0.205448 0.975035
vt 0.211008 0.975035
vt 0.216538 0.975037
vt 0.221954 0.975036
vt 0.160452 0.975035
vt 0.227049 0.975037
vt 0.165866 0.975035
vt 0.171281 0.975035
vt 0.176671 0.975035
vn -0.000000 0.500002 0.866024
vn 0.036226 0.499674 0.865456
vn 0.036226 0.000000 0.999344
vn -0.000000 0.000000 1.000000
vn 0.008733 0.000000 0.999962
vn 0.008733 0.499982 0.865992
vn -0.008733 0.499982 0.865992
vn -0.008733 -0.000000 0.999962
vn -0.036226 0.499674 0.865455
vn 0.036226 0.499675 0.865455
vn 0.036226 0.000001 0.999344
vn -0.036226 0.000001 0.999344
vn 0.008733 0.000000 0.999962
vn 0.008733 0.499982 0.865992
vn -0.008733 0.499981 0.865992
vn -0.008733 -0.000000 0.999962
vn -0.000000 0.500002 0.866024
vn 0.036226 0.499674 0.865456
vn 0.036226 0.000002 0.999344
vn -0.000000 0.000002 1.000000
vn 0.008733 -0.000000 0.999962
vn 0.008733 0.499980 0.865993
vn -0.008733 0.499979 0.865993
vn -0.008733 0.000000 0.999962
vn -0.036226 0.499674 0.865456
vn 0.036226 0.499674 0.865456
vn 0.036226 -0.000004 0.999344
vn -0.036226 -0.000002 0.999344
vn 0.017464 0.499925 0.865893
vn 0.000000 0.500001 0.866025
vn 0.000000 0.000000 1.000000
vn 0.017464 0.000000 0.999848
vn 0.000000 0.499993 0.866029
vn 0.000000 0.000000 1.000000
vn -0.000000 -0.500003 0.866023
vn 0.000000 -0.499998 0.866026
vn -0.000000 -0.866026 0.500000
vn 0.000000 -0.866112 0.499849
vn -0.000000 -0.965922 0.258835
vn 0.000000 -0.965975 0.258637
vn -0.000000 -0.866026 -0.499999
vn -0.000000 -0.965922 -0.258835
vn 0.000000 -0.965975 -0.258637
vn 0.000000 -0.866112 -0.499849
vn -0.000000 -0.500003 -0.866023
vn 0.000000 -0.499998 -0.866026
vn 0.000000 0.000000 -1.000000
vn 0.000000 0.000000 -1.000000
vn 0.000000 0.500001 -0.866025
vn 0.000000 0.499993 -0.866029
vn 0.000000 0.866019 -0.500011
vn 0.000000 0.866108 -0.499858
vn 0.000000 1.000000 0.000000
vn 0.000000 1.000000 0.000000
vn 0.000000 0.866019 0.500011
vn 0.000000 0.866108 0.499858
vn 0.017464 -0.499927 0.865891
vn 0.036227 -0.499681 0.865452
vn -0.036226 -0.499683 0.865451
vn 0.008733 -0.499987 0.865989
vn -0.008733 -0.499987 0.865989
vn 0.036226 -0.499678 0.865453
vn 0.000000 -0.500007 0.866021
vn 0.008733 -0.499985 0.865990
vn -0.008733 -0.499985 0.865990
vn 0.036226 -0.499681 0.865452
vn -0.036227 -0.499681 0.865452
vn 0.036227 -0.499682 0.865451
vn 0.000000 -0.500010 0.866020
vn 0.008733 -0.499985 0.865990
vn -0.008733 -0.499985 0.865990
vn 0.017464 -0.865894 0.499923
vn 0.036226 -0.865458 0.499670
vn -0.036226 -0.865459 0.499668
vn 0.008733 -0.865994 0.499978
vn -0.008733 -0.865994 0.499979
vn 0.036226 -0.865461 0.499665
vn 0.000000 -0.866029 0.499994
vn 0.008733 -0.865993 0.499981
vn -0.008733 -0.865993 0.499981
vn 0.036226 -0.865462 0.499664
vn -0.036226 -0.865462 0.499663
vn 0.036226 -0.865458 0.499670
vn 0.000000 -0.866027 0.499998
vn 0.008733 -0.865993 0.499981
vn -0.008733 -0.865993 0.499981
vn 0.016869 -0.965784 0.258798
vn 0.034994 -0.965328 0.258682
vn -0.034994 -0.965328 0.258683
vn 0.008435 -0.965887 0.258825
vn -0.008436 -0.965887 0.258826
vn 0.034994 -0.965334 0.258663
vn 0.000000 -0.965925 0.258822
vn 0.008436 -0.965887 0.258826
vn -0.008435 -0.965887 0.258826
vn 0.034994 -0.965331 0.258673
vn -0.034994 -0.965331 0.258673
vn 0.034994 -0.965329 0.258680
vn 0.000000 -0.965921 0.258839
vn 0.008436 -0.965887 0.258826
vn -0.008435 -0.965887 0.258826
vn 0.016869 -0.965784 -0.258798
vn 0.017464 -0.865894 -0.499923
vn -0.034994 -0.965328 -0.258683
vn 0.034994 -0.965328 -0.258682
vn 0.036226 -0.865458 -0.499670
vn -0.036226 -0.865459 -0.499668
vn 0.008733 -0.865994 -0.499978
vn 0.008435 -0.965887 -0.258825
vn -0.008436 -0.965887 -0.258826
vn -0.008733 -0.865994 -0.499979
vn 0.000000 -0.965925 -0.258822
vn 0.034994 -0.965334 -0.258663
vn 0.036226 -0.865461 -0.499665
vn 0.000000 -0.866029 -0.499994
vn 0.008733 -0.865993 -0.499981
vn 0.008436 -0.965887 -0.258826
vn -0.008435 -0.965887 -0.258826
vn -0.008733 -0.865993 -0.499981
vn -0.034994 -0.965331 -0.258673
vn 0.034994 -0.965331 -0.258673
vn 0.036226 -0.865462 -0.499664
vn -0.036226 -0.865462 -0.499663
vn 0.000000 -0.965921 -0.258839
vn 0.034994 -0.965329 -0.258680
vn 0.036226 -0.865458 -0.499670
vn 0.000000 -0.866027 -0.499998
vn 0.008733 -0.865993 -0.499981
vn 0.008436 -0.965887 -0.258826
vn -0.008435 -0.965887 -0.258826
vn -0.008733 -0.865993 -0.499981
vn 0.017464 -0.499927 -0.865891
vn 0.036227 -0.499681 -0.865452
vn -0.036226 -0.499683 -0.865451
vn 0.008733 -0.499987 -0.865989
vn -0.008733 -0.499987 -0.865989
vn 0.036226 -0.499678 -0.865453
vn 0.000000 -0.500007 -0.866021
vn 0.008733 -0.499985 -0.865990
vn -0.008733 -0.499985 -0.865990
vn 0.036226 -0.499681 -0.865452
vn -0.036227 -0.499681 -0.865451
vn 0.036227 -0.499682 -0.865451
vn 0.000000 -0.500010 -0.866020
vn 0.008733 -0.499985 -0.865990
vn -0.008733 -0.499985 -0.865990
vn 0.017464 -0.000000 -0.999848
vn 0.036226 -0.000004 -0.999344
vn -0.036226 -0.000002 -0.999344
vn 0.008733 -0.000000 -0.999962
vn -0.008733 0.000000 -0.999962
vn 0.036226 0.000002 -0.999344
vn -0.000000 0.000002 -1.000000
vn 0.008733 0.000000 -0.999962
vn -0.008733 -0.000000 -0.999962
vn 0.036226 0.000001 -0.999344
vn -0.036226 0.000001 -0.999344
vn 0.036226 0.000000 -0.999344
vn -0.000000 0.000000 -1.000000
vn 0.008733 0.000000 -0.999962
vn -0.008733 -0.000000 -0.999962
vn 0.017464 0.499925 -0.865893
vn 0.036226 0.499674 -0.865456
vn -0.036226 0.499674 -0.865455
vn 0.008733 0.499980 -0.865993
vn -0.008733 0.499979 -0.865994
vn 0.036226 0.499674 -0.865456
vn -0.000000 0.500002 -0.866024
vn 0.008733 0.499982 -0.865992
vn -0.008733 0.499982 -0.865992
vn 0.036226 0.499675 -0.865455
vn -0.036226 0.499675 -0.865455
vn 0.036226 0.499674 -0.865456
vn -0.000000 0.500002 -0.866024
vn 0.008733 0.499982 -0.865992
vn -0.008733 0.499982 -0.865992
vn 0.017465 0.865887 -0.499935
vn 0.036226 0.865453 -0.499678
vn -0.036226 0.865453 -0.499678
vn 0.008733 0.865985 -0.499994
vn -0.008733 0.865984 -0.499995
vn 0.036226 0.865453 -0.499678
vn -0.000000 0.866022 -0.500006
vn 0.008733 0.865987 -0.499990
vn -0.008733 0.865987 -0.499991
vn 0.036226 0.865450 -0.499684
vn -0.036226 0.865450 -0.499684
vn 0.036226 0.865451 -0.499683
vn -0.000000 0.866018 -0.500012
vn 0.008733 0.865985 -0.499994
vn -0.008733 0.865985 -0.499994
vn 0.017464 0.999848 0.000000
vn 0.036227 0.999344 0.000000
vn -0.036227 0.999344 0.000000
vn 0.008733 0.999962 0.000000
vn -0.008733 0.999962 0.000000
vn 0.036227 0.999344 0.000000
vn -0.000000 1.000000 0.000000
vn 0.008733 0.999962 0.000000
vn -0.008733 0.999962 0.000000
vn 0.036227 0.999344 0.000000
vn -0.036227 0.999344 0.000000
vn 0.036227 0.999344 0.000000
vn 0.000000 1.000000 0.000000
vn 0.008733 0.999962 0.000000
vn -0.008733 0.999962 0.000000
vn 0.017465 0.865887 0.499935
vn 0.036226 0.865453 0.499678
vn -0.036226 0.865453 0.499678
vn 0.008733 0.865985 0.499993
vn -0.008733 0.865984 0.499995
vn 0.036226 0.865453 0.499678
vn -0.000000 0.866022 0.500006
vn 0.008733 0.865987 0.499990
vn -0.008733 0.865987 0.499991
vn 0.036226 0.865450 0.499684
vn -0.036226 0.865450 0.499684
vn 0.036226 0.865451 0.499683
vn -0.000000 0.866018 0.500012
vn 0.008733 0.865985 0.499994
vn -0.008733 0.865985 0.499994
vn -1.000000 0.000002 0.000000
vn -1.000000 -0.000001 -0.000002
vn -1.000000 0.000002 -0.000004
vn -1.000000 0.000005 -0.000002
vn -1.000000 0.000004 0.000001
vn -1.000000 0.000004 -0.000001
vn -1.000000 0.000005 0.000002
vn -1.000000 0.000002 0.000004
vn -1.000000 -0.000001 0.000002
vn -1.000000 0.000002 -0.000000
vn -1.000000 0.000005 -0.000001
vn -1.000000 0.000006 0.000000
vn -1.000000 0.000006 0.000001
s 1
g SP19_low Rod2_low
usemtl aiStandardSurface1SG
f 125/29/29 126/30/30 127/31/31 128/32/32
f 37/33/33 36/34/34 35/35/35 38/36/36
f 149/37/37 150/38/38 151/39/39 152/40/40
f 39/41/41 34/42/42 33/43/43 40/44/44
s 3
f 173/250/45 174/46/46 175/47/47 176/48/48
f 41/49/49 32/50/50 31/51/51 42/52/52
f 197/53/53 198/54/54 199/55/55 200/56/56
f 30/57/57 29/58/58 44/59/59 43/60/60
f 44/59/59 29/58/58 26/61/61 25/62/62
f 52/63/63 44/59/59 25/62/62 24/64/64
f 60/65/65 52/63/63 24/64/64 23/66/66
f 68/67/67 60/65/65 23/66/66 22/68/68
f 76/69/69 68/249/70 22/248/71 21/70/72
f 84/71/73 76/69/69 21/70/72 20/72/74
f 92/73/75 84/71/73 20/72/74 19/74/76
f 100/75/77 92/73/75 19/74/76 18/76/78
f 108/77/79 100/75/77 18/76/78 17/78/80
f 116/79/81 108/77/79 17/78/80 28/80/82
f 124/81/83 116/79/81 28/80/82 27/82/84
f 29/58/58 124/81/83 27/82/84 26/61/61
f 43/60/60 44/59/59 52/63/63 51/83/85
f 200/56/56 199/55/55 201/84/86 202/85/87
f 49/86/88 41/49/49 42/52/52 50/87/89
f 176/48/48 175/47/47 177/88/90 178/89/91
s 1
f 47/90/92 39/41/41 40/44/44 48/91/93
f 152/40/40 151/39/39 153/92/94 154/93/95
f 128/32/32 127/31/31 129/94/96 130/95/97
f 45/96/98 37/33/33 38/36/36 46/97/99
s 3
f 51/83/85 52/63/63 60/65/65 59/98/100
f 202/85/87 201/84/86 203/99/101 204/100/102
f 57/101/103 49/86/88 50/87/89 58/102/104
f 178/89/91 177/88/90 179/103/105 180/104/106
s 1
f 55/105/107 47/90/92 48/91/93 56/106/108
f 154/93/95 153/92/94 155/107/109 156/108/110
f 130/95/97 129/94/96 131/109/111 132/110/112
f 53/111/113 45/96/98 46/97/99 54/112/114
s 3
f 59/98/100 60/65/65 68/67/67 67/236/115
f 204/100/102 203/99/101 205/233/116 206/234/117
f 65/240/118 57/101/103 58/102/104 66/117/119
f 180/104/106 179/103/105 181/237/120 182/238/121
s 1
f 63/244/122 55/105/107 56/106/108 64/121/123
f 156/108/110 155/107/109 157/241/124 158/242/125
f 132/110/112 131/109/111 133/245/126 134/246/127
f 61/247/128 53/111/113 54/112/114 62/127/129
s 3
f 67/113/130 68/249/70 76/69/69 75/128/131
f 206/115/132 205/114/133 207/129/134 208/130/135
f 73/131/136 65/116/137 66/235/138 74/132/139
f 182/119/140 181/118/141 183/133/142 184/134/143
s 1
f 71/135/144 63/120/145 64/239/146 72/136/147
f 158/123/148 157/122/149 159/137/150 160/138/151
f 134/125/152 133/124/153 135/139/154 136/140/155
f 69/141/156 61/126/157 62/243/158 70/142/159
s 3
f 75/128/131 76/69/69 84/71/73 83/143/160
f 208/130/135 207/129/134 209/144/161 210/145/162
f 81/146/163 73/131/136 74/132/139 82/147/164
f 184/134/143 183/133/142 185/148/165 186/149/166
s 1
f 79/150/167 71/135/144 72/136/147 80/151/168
f 160/138/151 159/137/150 161/152/169 162/153/170
f 136/140/155 135/139/154 137/154/171 138/155/172
f 77/156/173 69/141/156 70/142/159 78/157/174
s 3
f 83/143/160 84/71/73 92/73/75 91/158/175
f 210/145/162 209/144/161 211/159/176 212/160/177
f 89/161/178 81/146/163 82/147/164 90/162/179
f 186/149/166 185/148/165 187/163/180 188/164/181
s 1
f 87/165/182 79/150/167 80/151/168 88/166/183
f 162/153/170 161/152/169 163/167/184 164/168/185
f 138/155/172 137/154/171 139/169/186 140/170/187
f 85/171/188 77/156/173 78/157/174 86/172/189
s 3
f 91/158/175 92/73/75 100/75/77 99/173/190
f 212/160/177 211/159/176 213/174/191 214/175/192
f 97/176/193 89/161/178 90/162/179 98/177/194
f 188/164/181 187/163/180 189/178/195 190/179/196
s 1
f 95/180/197 87/165/182 88/166/183 96/181/198
f 164/168/185 163/167/184 165/182/199 166/183/200
f 140/170/187 139/169/186 141/184/201 142/185/202
f 93/186/203 85/171/188 86/172/189 94/187/204
s 3
f 99/173/190 100/75/77 108/77/79 107/188/205
f 214/175/192 213/174/191 215/189/206 216/190/207
f 105/191/208 97/176/193 98/177/194 106/192/209
f 190/179/196 189/178/195 191/193/210 192/194/211
s 1
f 103/195/212 95/180/197 96/181/198 104/196/213
f 166/183/200 165/182/199 167/197/214 168/198/215
f 142/185/202 141/184/201 143/199/216 144/200/217
f 101/201/218 93/186/203 94/187/204 102/202/219
s 3
f 107/188/205 108/77/79 116/79/81 115/203/220
f 216/190/207 215/189/206 217/204/221 218/205/222
f 113/206/223 105/191/208 106/192/209 114/207/224
f 192/194/211 191/193/210 193/208/225 194/209/226
s 1
f 111/210/227 103/195/212 104/196/213 112/211/228
f 168/198/215 167/197/214 169/212/229 170/213/230
f 144/200/217 143/199/216 145/214/231 146/215/232
f 109/216/233 101/201/218 102/202/219 110/217/234
s 3
f 115/203/220 116/79/81 124/81/83 123/218/235
f 218/205/222 217/204/221 219/219/236 220/220/237
f 121/221/238 113/206/223 114/207/224 122/222/239
f 194/209/226 193/208/225 195/223/240 196/224/241
s 1
f 119/225/242 111/210/227 112/211/228 120/226/243
f 170/213/230 169/212/229 171/227/244 172/228/245
f 146/215/232 145/214/231 147/229/246 148/230/247
f 117/231/248 109/216/233 110/217/234 118/232/249
s 3
f 29/58/58 30/57/57 123/218/235 124/81/83
f 198/54/54 197/53/53 220/220/237 219/219/236
f 121/221/238 122/222/239 31/51/51 32/50/50
f 174/46/46 173/250/45 196/224/241 195/223/240
s 1
f 119/225/242 120/226/243 33/43/43 34/42/42
f 150/38/38 149/37/37 172/228/245 171/227/244
f 117/231/248 118/232/249 35/35/35 36/34/34
f 126/30/30 125/29/29 148/230/247 147/229/246
f 36/34/34 37/33/33 127/31/31 126/30/30
f 37/33/33 45/96/98 129/94/96 127/31/31
f 45/96/98 53/111/113 131/109/111 129/94/96
f 53/111/113 61/247/128 133/245/126 131/109/111
f 61/126/157 69/141/156 135/139/154 133/124/153
f 69/141/156 77/156/173 137/154/171 135/139/154
f 77/156/173 85/171/188 139/169/186 137/154/171
f 85/171/188 93/186/203 141/184/201 139/169/186
f 93/186/203 101/201/218 143/199/216 141/184/201
f 101/201/218 109/216/233 145/214/231 143/199/216
f 109/216/233 117/231/248 147/229/246 145/214/231
f 117/231/248 36/34/34 126/30/30 147/229/246
f 34/42/42 39/41/41 151/39/39 150/38/38
f 38/36/36 35/35/35 149/37/37 152/40/40
f 39/41/41 47/90/92 153/92/94 151/39/39
f 46/97/99 38/36/36 152/40/40 154/93/95
f 47/90/92 55/105/107 155/107/109 153/92/94
f 54/112/114 46/97/99 154/93/95 156/108/110
f 55/105/107 63/244/122 157/241/124 155/107/109
f 62/127/129 54/112/114 156/108/110 158/242/125
f 63/120/145 71/135/144 159/137/150 157/122/149
f 70/142/159 62/243/158 158/123/148 160/138/151
f 71/135/144 79/150/167 161/152/169 159/137/150
f 78/157/174 70/142/159 160/138/151 162/153/170
f 79/150/167 87/165/182 163/167/184 161/152/169
f 86/172/189 78/157/174 162/153/170 164/168/185
f 87/165/182 95/180/197 165/182/199 163/167/184
f 94/187/204 86/172/189 164/168/185 166/183/200
f 95/180/197 103/195/212 167/197/214 165/182/199
f 102/202/219 94/187/204 166/183/200 168/198/215
f 103/195/212 111/210/227 169/212/229 167/197/214
f 110/217/234 102/202/219 168/198/215 170/213/230
f 111/210/227 119/225/242 171/227/244 169/212/229
f 118/232/249 110/217/234 170/213/230 172/228/245
f 35/35/35 118/232/249 172/228/245 149/37/37
f 119/225/242 34/42/42 150/38/38 171/227/244
s 3
f 32/50/50 41/49/49 175/47/47 174/46/46
s 1
f 40/44/44 33/43/43 173/45/250 176/262/251
s 3
f 41/49/49 49/86/88 177/88/90 175/47/47
s 1
f 48/91/93 40/44/44 176/262/251 178/261/252
s 3
f 49/86/88 57/101/103 179/103/105 177/88/90
s 1
f 56/106/108 48/91/93 178/261/252 180/260/253
s 3
f 57/101/103 65/240/118 181/237/120 179/103/105
s 1
f 64/121/123 56/106/108 180/260/253 182/258/254
s 3
f 65/116/137 73/131/136 183/133/142 181/118/141
s 1
f 72/136/147 64/239/146 182/259/255 184/257/256
s 3
f 73/131/136 81/146/163 185/148/165 183/133/142
s 1
f 80/151/168 72/136/147 184/257/256 186/256/257
s 3
f 81/146/163 89/161/178 187/163/180 185/148/165
s 1
f 88/166/183 80/151/168 186/256/257 188/255/258
s 3
f 89/161/178 97/176/193 189/178/195 187/163/180
s 1
f 96/181/198 88/166/183 188/255/258 190/254/259
s 3
f 97/176/193 105/191/208 191/193/210 189/178/195
s 1
f 104/196/213 96/181/198 190/254/259 192/253/260
s 3
f 105/191/208 113/206/223 193/208/225 191/193/210
s 1
f 112/211/228 104/196/213 192/253/260 194/252/261
s 3
f 113/206/223 121/221/238 195/223/240 193/208/225
s 1
f 120/226/243 112/211/228 194/252/261 196/251/262
f 33/43/43 120/226/243 196/251/262 173/45/250
s 3
f 121/221/238 32/50/50 174/46/46 195/223/240
f 30/57/57 43/60/60 199/55/55 198/54/54
f 42/52/52 31/51/51 197/53/53 200/56/56
f 43/60/60 51/83/85 201/84/86 199/55/55
f 50/87/89 42/52/52 200/56/56 202/85/87
f 51/83/85 59/98/100 203/99/101 201/84/86
f 58/102/104 50/87/89 202/85/87 204/100/102
f 59/98/100 67/236/115 205/233/116 203/99/101
f 66/117/119 58/102/104 204/100/102 206/234/117
f 67/113/130 75/128/131 207/129/134 205/114/133
f 74/132/139 66/235/138 206/115/132 208/130/135
f 75/128/131 83/143/160 209/144/161 207/129/134
f 82/147/164 74/132/139 208/130/135 210/145/162
f 83/143/160 91/158/175 211/159/176 209/144/161
f 90/162/179 82/147/164 210/145/162 212/160/177
f 91/158/175 99/173/190 213/174/191 211/159/176
f 98/177/194 90/162/179 212/160/177 214/175/192
f 99/173/190 107/188/205 215/189/206 213/174/191
f 106/192/209 98/177/194 214/175/192 216/190/207
f 107/188/205 115/203/220 217/204/221 215/189/206
f 114/207/224 106/192/209 216/190/207 218/205/222
f 115/203/220 123/218/235 219/219/236 217/204/221
f 122/222/239 114/207/224 218/205/222 220/220/237
f 31/51/51 122/222/239 220/220/237 197/53/53
f 123/218/235 30/57/57 198/54/54 219/219/236
g default
v -136.628632 55.159470 -0.954437
v -136.628632 54.460777 -1.653133
v -136.628632 53.506340 -1.908874
v -136.628632 52.551903 -1.653133
v -136.628632 51.853233 -0.954437
v -136.628632 51.597466 0.000000
v -136.628632 51.853233 0.954437
v -136.628632 52.551903 1.653133
v -136.628632 53.506340 1.908874
v -136.628632 54.460777 1.653133
v -136.628632 55.159470 0.954437
v -136.628632 55.415237 0.000000
v -136.614990 54.460773 1.653133
v -111.801636 54.460777 1.653133
v -86.988327 54.460777 1.653133
v -37.361618 54.460777 1.653133
v -12.548279 54.460773 1.653133
v 37.078392 54.460773 1.653133
v 61.891724 54.460777 1.653133
v 111.518402 54.460777 1.653133
v 111.518402 53.506340 1.908874
v 61.891724 53.506340 1.908874
v 37.078392 53.506340 1.908874
v -12.548279 53.506336 1.908874
v -37.361618 53.506340 1.908874
v -86.988327 53.506340 1.908874
v -111.801636 53.506340 1.908874
v -136.614990 53.506340 1.908874
v 111.518402 52.551903 1.653133
v 61.891724 52.551903 1.653133
v 37.078392 52.551903 1.653133
v -12.548279 52.551903 1.653133
v -37.361618 52.551903 1.653133
v -86.988327 52.551903 1.653133
v -111.801636 52.551903 1.653133
v -136.614990 52.551903 1.653133
v 111.518402 51.853233 0.954437
v 61.891724 51.853233 0.954437
v 37.078392 51.853230 0.954437
v -12.548279 51.853230 0.954437
v -37.361618 51.853230 0.954437
v -86.988327 51.853230 0.954437
v -111.801636 51.853233 0.954437
v -136.614990 51.853230 0.954437
v 111.518402 51.597466 0.000000
v 61.891724 51.597466 0.000000
v 37.078392 51.597466 0.000000
v -12.548279 51.597466 0.000000
v -37.361618 51.597466 0.000000
v -86.988327 51.597466 0.000000
v -111.801636 51.597466 0.000000
v -136.614990 51.597466 0.000000
v 111.518402 51.853233 -0.954437
v 61.891724 51.853233 -0.954437
v 37.078392 51.853230 -0.954437
v -12.548279 51.853230 -0.954437
v -37.361618 51.853230 -0.954437
v -86.988327 51.853230 -0.954437
v -111.801636 51.853233 -0.954437
v -136.614990 51.853230 -0.954437
v 111.518402 52.551903 -1.653133
v 61.891724 52.551903 -1.653133
v 37.078392 52.551903 -1.653133
v -12.548279 52.551903 -1.653133
v -37.361618 52.551903 -1.653133
v -86.988327 52.551903 -1.653133
v -111.801636 52.551903 -1.653133
v -136.614990 52.551903 -1.653133
v 111.518402 53.506340 -1.908874
v 61.891724 53.506340 -1.908874
v 37.078392 53.506340 -1.908874
v -12.548279 53.506336 -1.908874
v -37.361618 53.506340 -1.908874
v -86.988327 53.506340 -1.908874
v -111.801636 53.506340 -1.908874
v -136.614990 53.506340 -1.908874
v 111.518402 54.460777 -1.653133
v 61.891724 54.460777 -1.653133
v 37.078392 54.460773 -1.653133
v -12.548279 54.460773 -1.653133
v -37.361618 54.460777 -1.653133
v -86.988327 54.460777 -1.653133
v -111.801636 54.460777 -1.653133
v -136.614990 54.460773 -1.653133
v 111.518402 55.159470 -0.954437
v 61.891724 55.159470 -0.954437
v 37.078392 55.159470 -0.954437
v -12.548275 55.159470 -0.954437
v -37.361614 55.159470 -0.954437
v -86.988312 55.159470 -0.954437
v -111.801636 55.159470 -0.954437
v -136.614990 55.159470 -0.954437
v 111.518402 55.415237 0.000000
v 61.891724 55.415237 0.000000
v 37.078392 55.415234 0.000000
v -12.548275 55.415234 0.000000
v -37.361614 55.415234 0.000000
v -86.988312 55.415234 0.000000
v -111.801636 55.415237 0.000000
v -136.614990 55.415234 0.000000
v 111.518402 55.159470 0.954437
v 61.891724 55.159470 0.954437
v 37.078392 55.159470 0.954437
v -12.548275 55.159470 0.954437
v -37.361614 55.159470 0.954437
v -86.988312 55.159470 0.954437
v -111.801636 55.159470 0.954437
v -136.614990 55.159470 0.954437
v 136.331726 54.150192 1.115188
v 111.518402 54.150196 1.115188
v 111.518402 53.506340 1.287709
v 136.331726 53.506340 1.287709
v 111.518402 52.862495 1.115189
v 136.331726 52.862492 1.115189
v 111.518402 52.391174 0.643852
v 136.331726 52.391171 0.643852
v 111.518402 52.218639 0.000000
v 136.331726 52.218636 0.000000
v 111.518402 52.391174 -0.643852
v 136.331726 52.391171 -0.643852
v 111.518402 52.862495 -1.115189
v 136.331726 52.862492 -1.115189
v 111.518402 53.506340 -1.287709
v 136.331726 53.506340 -1.287709
v 111.518402 54.150196 -1.115188
v 136.331726 54.150192 -1.115188
v 111.518402 54.621529 -0.643852
v 136.331726 54.621529 -0.643852
v 111.518394 54.794064 0.000000
v 136.331726 54.794064 0.000000
v 111.518402 54.621529 0.643852
v 136.331726 54.621529 0.643852
v 61.891724 54.150196 1.115188
v 37.078392 54.150192 1.115188
v 37.078392 53.506340 1.287710
v 61.891724 53.506340 1.287710
v 37.078392 52.862492 1.115190
v 61.891724 52.862492 1.115190
v 37.078392 52.391171 0.643852
v 61.891724 52.391174 0.643852
v 37.078392 52.218636 0.000000
v 61.891724 52.218639 0.000000
v 37.078392 52.391171 -0.643852
v 61.891724 52.391174 -0.643852
v 37.078392 52.862492 -1.115190
v 61.891724 52.862492 -1.115190
v 37.078392 53.506340 -1.287710
v 61.891724 53.506340 -1.287710
v 37.078392 54.150192 -1.115188
v 61.891724 54.150196 -1.115188
v 37.078392 54.621529 -0.643852
v 61.891724 54.621529 -0.643852
v 37.078392 54.794064 0.000000
v 61.891724 54.794064 0.000000
v 37.078392 54.621529 0.643852
v 61.891724 54.621529 0.643852
v -12.548279 54.150192 1.115188
v -37.361618 54.150192 1.115188
v -37.361618 53.506340 1.287708
v -12.548279 53.506336 1.287708
v -37.361614 52.862492 1.115190
v -12.548275 52.862492 1.115190
v -37.361614 52.391171 0.643854
v -12.548275 52.391171 0.643854
v -37.361618 52.218643 0.000000
v -12.548279 52.218643 0.000000
v -37.361614 52.391171 -0.643854
v -12.548275 52.391171 -0.643854
v -37.361614 52.862492 -1.115190
v -12.548275 52.862492 -1.115190
v -37.361618 53.506340 -1.287708
v -12.548279 53.506336 -1.287708
v -37.361618 54.150192 -1.115188
v -12.548279 54.150192 -1.115188
v -37.361618 54.621529 -0.643851
v -12.548279 54.621529 -0.643851
v -37.361618 54.794064 0.000000
v -12.548279 54.794060 0.000000
v -37.361618 54.621529 0.643851
v -12.548279 54.621529 0.643851
v -86.988327 54.150192 1.115189
v -111.801636 54.150196 1.115189
v -111.801636 53.506340 1.287709
v -86.988327 53.506340 1.287709
v -111.801651 52.862492 1.115187
v -86.988327 52.862492 1.115187
v -111.801636 52.391174 0.643853
v -86.988312 52.391171 0.643853
v -111.801643 52.218647 0.000000
v -86.988319 52.218643 0.000000
v -111.801636 52.391174 -0.643853
v -86.988312 52.391171 -0.643853
v -111.801651 52.862492 -1.115187
v -86.988327 52.862492 -1.115187
v -111.801636 53.506340 -1.287709
v -86.988327 53.506340 -1.287709
v -111.801636 54.150196 -1.115189
v -86.988327 54.150192 -1.115189
v -111.801636 54.621529 -0.643851
v -86.988327 54.621529 -0.643851
v -111.801643 54.794064 0.000000
v -86.988319 54.794064 0.000000
v -111.801636 54.621529 0.643851
v -86.988327 54.621529 0.643851
vt 0.273233 0.965393
vt 0.273233 0.753259
vt 0.278711 0.753259
vt 0.278711 0.965393
vt 0.278711 0.749211
vt 0.273233 0.749211
vt 0.273233 0.471538
vt 0.278711 0.471538
vt 0.273233 0.467631
vt 0.273233 0.272341
vt 0.278711 0.272341
vt 0.278711 0.467631
vt 0.278711 0.268561
vt 0.273233 0.268561
vt 0.273233 0.005102
vt 0.278711 0.005102
vt 0.273233 0.001462
vt 0.026513 0.249460
vt 0.019982 0.249460
vt 0.019982 0.002252
vt 0.019982 0.254301
vt 0.026513 0.254301
vt 0.026514 0.587591
vt 0.019982 0.587591
vt 0.026514 0.592317
vt 0.026514 0.830795
vt 0.019982 0.830795
vt 0.019982 0.592317
vt 0.026514 0.835447
vt 0.026514 0.997918
vt 0.019982 0.997918
vt 0.019982 0.835447
vt 0.026514 0.998008
vt 0.019982 0.998008
vt 0.013466 0.997918
vt 0.013466 0.998008
vt 0.006952 0.997918
vt 0.006952 0.998008
vt 0.000445 0.997918
vt 0.000445 0.998008
vt 0.072141 0.997919
vt 0.072141 0.998008
vt 0.065639 0.997919
vt 0.065639 0.998008
vt 0.059143 0.997919
vt 0.059143 0.998008
vt 0.052691 0.997919
vt 0.052691 0.998008
vt 0.046158 0.997919
vt 0.046158 0.998008
vt 0.039620 0.997919
vt 0.039620 0.998008
vt 0.033068 0.997918
vt 0.033068 0.998008
vt 0.013466 0.835447
vt 0.013466 0.830795
vt 0.013465 0.592317
vt 0.013465 0.254301
vt 0.013465 0.587591
vt 0.013465 0.249460
vt 0.013465 0.002252
vt 0.284152 0.268561
vt 0.284152 0.005102
vt 0.284152 0.272341
vt 0.284152 0.467631
vt 0.284152 0.753259
vt 0.284152 0.965393
vt 0.284152 0.749211
vt 0.284152 0.471538
vt 0.006952 0.835447
vt 0.006952 0.830795
vt 0.006952 0.592317
vt 0.006952 0.254301
vt 0.006952 0.587591
vt 0.006952 0.249460
vt 0.006952 0.002252
vt 0.289458 0.268561
vt 0.289458 0.005102
vt 0.289458 0.272341
vt 0.289458 0.467631
vt 0.289458 0.753259
vt 0.289458 0.965393
vt 0.289458 0.749211
vt 0.289458 0.471538
vt 0.078633 0.835447
vt 0.078633 0.830796
vt 0.078634 0.592317
vt 0.078634 0.254301
vt 0.000445 0.587591
vt 0.078633 0.249460
vt 0.078634 0.002252
vt 0.229353 0.268561
vt 0.294407 0.005102
vt 0.229353 0.272341
vt 0.229353 0.467631
vt 0.229353 0.753259
vt 0.229353 0.965393
vt 0.229353 0.749211
vt 0.294407 0.471538
vt 0.072141 0.835447
vt 0.072141 0.830796
vt 0.072141 0.592317
vt 0.072141 0.254301
vt 0.072141 0.587591
vt 0.072141 0.249460
vt 0.072141 0.002252
vt 0.234870 0.268561
vt 0.234870 0.005102
vt 0.234870 0.272341
vt 0.234870 0.467631
vt 0.234870 0.753259
vt 0.234870 0.965393
vt 0.234870 0.749211
vt 0.234870 0.471538
vt 0.065639 0.835447
vt 0.065639 0.830796
vt 0.065638 0.592317
vt 0.065638 0.254301
vt 0.065638 0.587591
vt 0.065638 0.249460
vt 0.065638 0.002252
vt 0.240361 0.268561
vt 0.240361 0.005102
vt 0.240361 0.272341
vt 0.240361 0.467631
vt 0.240361 0.753259
vt 0.240361 0.965393
vt 0.240361 0.749211
vt 0.240361 0.471538
vt 0.059143 0.835447
vt 0.059143 0.830796
vt 0.059143 0.592317
vt 0.059143 0.254301
vt 0.059143 0.587591
vt 0.059143 0.249460
vt 0.059143 0.002252
vt 0.245827 0.268561
vt 0.245827 0.005102
vt 0.245827 0.272341
vt 0.245827 0.467631
vt 0.245827 0.753259
vt 0.245827 0.965393
vt 0.245827 0.749211
vt 0.245827 0.471538
vt 0.052691 0.835447
vt 0.052691 0.830796
vt 0.052691 0.592317
vt 0.052690 0.254301
vt 0.052691 0.587591
vt 0.052690 0.249460
vt 0.052691 0.002252
vt 0.251318 0.268561
vt 0.251318 0.005102
vt 0.251318 0.272341
vt 0.251318 0.467631
vt 0.251318 0.753259
vt 0.251318 0.965393
vt 0.251318 0.749211
vt 0.251318 0.471538
vt 0.046158 0.835447
vt 0.046158 0.830796
vt 0.046158 0.592317
vt 0.046158 0.254301
vt 0.046158 0.587591
vt 0.046158 0.249460
vt 0.046158 0.002252
vt 0.256803 0.268561
vt 0.256803 0.005102
vt 0.256803 0.272341
vt 0.256803 0.467631
vt 0.256803 0.753259
vt 0.256803 0.965393
vt 0.256803 0.749211
vt 0.256803 0.471538
vt 0.039620 0.835447
vt 0.039620 0.830796
vt 0.039620 0.592317
vt 0.039620 0.254301
vt 0.039620 0.587591
vt 0.039620 0.249460
vt 0.039620 0.002252
vt 0.262288 0.268561
vt 0.262288 0.005102
vt 0.262288 0.272341
vt 0.262288 0.467631
vt 0.262288 0.753259
vt 0.262288 0.965393
vt 0.262288 0.749211
vt 0.262288 0.471538
vt 0.033068 0.835447
vt 0.033068 0.830796
vt 0.033068 0.592317
vt 0.033068 0.254301
vt 0.033068 0.587591
vt 0.033068 0.249460
vt 0.033068 0.002252
vt 0.267754 0.268561
vt 0.267754 0.005102
vt 0.267754 0.272341
vt 0.267754 0.467631
vt 0.267754 0.753259
vt 0.267754 0.965393
vt 0.267754 0.749211
vt 0.267754 0.471538
vt 0.000445 0.830795
vt 0.000445 0.592317
vt 0.078634 0.587591
vt 0.000445 0.835447
vt 0.026514 0.002252
vt 0.267754 0.001462
vt 0.262288 0.001462
vt 0.256803 0.001462
vt 0.251318 0.001462
vt 0.245827 0.001462
vt 0.240361 0.001462
vt 0.234870 0.001462
vt 0.000445 0.002252
vt 0.294407 0.001462
vt 0.229353 0.001462
vt 0.289458 0.001462
vt 0.000445 0.249461
vt 0.229353 0.005102
vt 0.000445 0.254301
vt 0.284152 0.001462
vt 0.278711 0.001462
vt 0.294407 0.272341
vt 0.294407 0.467631
vt 0.229353 0.471538
vt 0.294407 0.268561
vt 0.294407 0.753259
vt 0.294407 0.965393
vt 0.294407 0.749211
vt 0.078633 0.998008
vt 0.078633 0.997919
vn 0.000000 0.500002 0.866024
vn 0.036226 0.499674 0.865456
vn 0.036226 0.000000 0.999344
vn 0.000000 0.000000 1.000000
vn 0.008733 0.000000 0.999962
vn 0.008733 0.499982 0.865992
vn -0.008733 0.499982 0.865992
vn -0.008733 0.000000 0.999962
vn -0.036226 0.499673 0.865456
vn 0.036226 0.499673 0.865456
vn 0.036226 0.000001 0.999344
vn -0.036226 0.000001 0.999344
vn 0.008733 0.000000 0.999962
vn 0.008733 0.499982 0.865992
vn -0.008733 0.499981 0.865992
vn -0.008733 -0.000000 0.999962
vn 0.000000 0.500002 0.866024
vn 0.036226 0.499674 0.865456
vn 0.036226 0.000002 0.999344
vn 0.000000 0.000001 1.000000
vn 0.008733 -0.000000 0.999962
vn 0.008733 0.499982 0.865992
vn -0.008733 0.499981 0.865993
vn -0.008733 0.000000 0.999962
vn -0.036226 0.499674 0.865456
vn 0.036226 0.499674 0.865456
vn 0.036226 -0.000004 0.999344
vn -0.036226 -0.000002 0.999344
vn 0.017464 0.499924 0.865893
vn -0.000000 0.500000 0.866025
vn -0.000000 0.000000 1.000000
vn 0.017464 0.000000 0.999848
vn 0.000071 0.500028 0.866009
vn 0.000018 0.000000 1.000000
vn 0.000000 -0.500007 0.866022
vn -0.000050 -0.499998 0.866026
vn 0.000000 -0.866025 0.500001
vn -0.000120 -0.866101 0.499869
vn -0.000000 -0.965918 0.258849
vn -0.000135 -0.965975 0.258637
vn 0.000000 -0.866025 -0.500001
vn 0.000000 -0.965918 -0.258849
vn -0.000135 -0.965975 -0.258637
vn -0.000120 -0.866101 -0.499869
vn -0.000000 -0.500007 -0.866022
vn -0.000050 -0.499998 -0.866026
vn 0.000000 0.000000 -1.000000
vn 0.000019 0.000000 -1.000000
vn 0.000000 0.500000 -0.866025
vn 0.000071 0.500028 -0.866009
vn 0.000000 0.866020 -0.500009
vn 0.000123 0.866108 -0.499858
vn 0.000000 1.000000 0.000000
vn 0.000140 1.000000 0.000000
vn -0.000000 0.866020 0.500009
vn 0.000122 0.866108 0.499858
vn 0.017464 -0.499930 0.865890
vn 0.036227 -0.499681 0.865452
vn -0.036226 -0.499682 0.865451
vn 0.008733 -0.499987 0.865989
vn -0.008733 -0.499987 0.865989
vn 0.036226 -0.499677 0.865454
vn -0.000000 -0.500006 0.866022
vn 0.008733 -0.499986 0.865989
vn -0.008733 -0.499986 0.865989
vn 0.036227 -0.499683 0.865451
vn -0.036227 -0.499683 0.865451
vn 0.036226 -0.499680 0.865452
vn -0.000000 -0.500009 0.866020
vn 0.008733 -0.499986 0.865989
vn -0.008733 -0.499986 0.865989
vn 0.017465 -0.865892 0.499925
vn 0.036226 -0.865460 0.499666
vn -0.036227 -0.865461 0.499665
vn 0.008733 -0.865992 0.499982
vn -0.008733 -0.865992 0.499982
vn 0.036226 -0.865458 0.499670
vn 0.000000 -0.866026 0.499999
vn 0.008733 -0.865991 0.499983
vn -0.008733 -0.865991 0.499983
vn 0.036226 -0.865455 0.499675
vn -0.036225 -0.865455 0.499675
vn 0.036225 -0.865455 0.499675
vn -0.000000 -0.866023 0.500004
vn 0.008733 -0.865993 0.499981
vn -0.008733 -0.865993 0.499981
vn 0.016869 -0.965781 0.258812
vn 0.034994 -0.965332 0.258670
vn -0.034994 -0.965332 0.258671
vn 0.008436 -0.965885 0.258835
vn -0.008436 -0.965885 0.258835
vn 0.034994 -0.965330 0.258674
vn 0.000000 -0.965922 0.258833
vn 0.008435 -0.965885 0.258835
vn -0.008436 -0.965885 0.258835
vn 0.034994 -0.965325 0.258694
vn -0.034994 -0.965325 0.258694
vn 0.034994 -0.965327 0.258687
vn -0.000000 -0.965919 0.258845
vn 0.008435 -0.965885 0.258835
vn -0.008435 -0.965885 0.258835
vn 0.016869 -0.965781 -0.258812
vn 0.017465 -0.865892 -0.499925
vn -0.034994 -0.965331 -0.258671
vn 0.034994 -0.965332 -0.258670
vn 0.036226 -0.865460 -0.499666
vn -0.036227 -0.865461 -0.499665
vn 0.008733 -0.865992 -0.499982
vn 0.008436 -0.965885 -0.258835
vn -0.008436 -0.965885 -0.258835
vn -0.008733 -0.865992 -0.499982
vn 0.000000 -0.965922 -0.258833
vn 0.034994 -0.965330 -0.258674
vn 0.036226 -0.865458 -0.499670
vn 0.000000 -0.866026 -0.499999
vn 0.008733 -0.865991 -0.499983
vn 0.008435 -0.965885 -0.258835
vn -0.008436 -0.965885 -0.258835
vn -0.008733 -0.865991 -0.499983
vn -0.034994 -0.965325 -0.258694
vn 0.034994 -0.965325 -0.258694
vn 0.036226 -0.865455 -0.499675
vn -0.036225 -0.865455 -0.499675
vn -0.000000 -0.965919 -0.258845
vn 0.034994 -0.965327 -0.258687
vn 0.036225 -0.865455 -0.499675
vn -0.000000 -0.866023 -0.500004
vn 0.008733 -0.865993 -0.499981
vn 0.008435 -0.965885 -0.258835
vn -0.008435 -0.965885 -0.258835
vn -0.008733 -0.865993 -0.499981
vn 0.017464 -0.499930 -0.865889
vn 0.036227 -0.499681 -0.865452
vn -0.036226 -0.499683 -0.865451
vn 0.008733 -0.499987 -0.865989
vn -0.008733 -0.499987 -0.865989
vn 0.036226 -0.499677 -0.865454
vn -0.000000 -0.500006 -0.866022
vn 0.008733 -0.499986 -0.865989
vn -0.008733 -0.499986 -0.865989
vn 0.036227 -0.499683 -0.865451
vn -0.036226 -0.499683 -0.865450
vn 0.036226 -0.499680 -0.865452
vn -0.000000 -0.500009 -0.866020
vn 0.008733 -0.499986 -0.865989
vn -0.008733 -0.499986 -0.865989
vn 0.017464 -0.000000 -0.999848
vn 0.036226 -0.000004 -0.999344
vn -0.036226 -0.000002 -0.999344
vn 0.008733 0.000000 -0.999962
vn -0.008733 0.000000 -0.999962
vn 0.036226 0.000002 -0.999344
vn 0.000000 0.000001 -1.000000
vn 0.008733 0.000000 -0.999962
vn -0.008733 -0.000000 -0.999962
vn 0.036226 0.000001 -0.999344
vn -0.036226 0.000001 -0.999344
vn 0.036226 0.000000 -0.999344
vn 0.000000 0.000000 -1.000000
vn 0.008733 0.000000 -0.999962
vn -0.008733 0.000000 -0.999962
vn 0.017464 0.499924 -0.865893
vn 0.036226 0.499674 -0.865456
vn -0.036226 0.499674 -0.865456
vn 0.008733 0.499983 -0.865992
vn -0.008733 0.499981 -0.865992
vn 0.036226 0.499674 -0.865456
vn 0.000000 0.500002 -0.866024
vn 0.008733 0.499982 -0.865992
vn -0.008733 0.499981 -0.865992
vn 0.036226 0.499673 -0.865456
vn -0.036226 0.499673 -0.865456
vn 0.036226 0.499674 -0.865456
vn 0.000000 0.500002 -0.866024
vn 0.008733 0.499982 -0.865992
vn -0.008733 0.499982 -0.865992
vn 0.017464 0.865888 -0.499933
vn 0.036226 0.865451 -0.499682
vn -0.036226 0.865451 -0.499682
vn 0.008733 0.865989 -0.499986
vn -0.008733 0.865989 -0.499987
vn 0.036226 0.865453 -0.499678
vn 0.000000 0.866022 -0.500007
vn 0.008733 0.865987 -0.499990
vn -0.008733 0.865987 -0.499991
vn 0.036226 0.865452 -0.499681
vn -0.036226 0.865452 -0.499681
vn 0.036226 0.865451 -0.499683
vn 0.000000 0.866018 -0.500012
vn 0.008733 0.865987 -0.499990
vn -0.008733 0.865987 -0.499990
vn 0.017464 0.999848 -0.000000
vn 0.036227 0.999344 -0.000000
vn -0.036227 0.999344 -0.000000
vn 0.008733 0.999962 0.000000
vn -0.008733 0.999962 -0.000000
vn 0.036227 0.999344 0.000000
vn 0.000000 1.000000 0.000000
vn 0.008733 0.999962 0.000000
vn -0.008733 0.999962 0.000000
vn 0.036227 0.999344 0.000000
vn -0.036227 0.999344 0.000000
vn 0.036227 0.999344 0.000000
vn 0.000000 1.000000 0.000000
vn 0.008733 0.999962 0.000000
vn -0.008733 0.999962 0.000000
vn 0.017464 0.865888 0.499933
vn 0.036226 0.865451 0.499682
vn -0.036226 0.865451 0.499682
vn 0.008733 0.865989 0.499986
vn -0.008733 0.865989 0.499988
vn 0.036226 0.865453 0.499678
vn 0.000000 0.866022 0.500007
vn 0.008733 0.865987 0.499990
vn -0.008733 0.865987 0.499991
vn 0.036226 0.865452 0.499681
vn -0.036226 0.865452 0.499681
vn 0.036226 0.865451 0.499683
vn 0.000000 0.866018 0.500012
vn 0.008733 0.865987 0.499990
vn -0.008733 0.865987 0.499990
vn -1.000000 0.000002 0.000000
vn -1.000000 -0.000001 -0.000002
vn -1.000000 0.000002 -0.000004
vn -1.000000 0.000005 -0.000002
vn -1.000000 0.000004 0.000001
vn -1.000000 0.000004 -0.000001
vn -1.000000 0.000005 0.000002
vn -1.000000 0.000002 0.000004
vn -1.000000 -0.000001 0.000002
vn -1.000000 0.000002 -0.000000
vn -1.000000 0.000005 -0.000001
vn -1.000000 0.000006 0.000000
vn -1.000000 0.000006 0.000001
s 1
g SP19_low Rod_low
usemtl aiStandardSurface1SG
f 329/263/263 330/264/264 331/265/265 332/266/266
f 241/267/267 240/268/268 239/269/269 242/270/270
f 353/271/271 354/272/272 355/273/273 356/274/274
f 243/275/275 238/276/276 237/277/277 244/278/278
s 3
f 377/471/279 378/280/280 379/281/281 380/282/282
f 245/283/283 236/284/284 235/285/285 246/286/286
f 401/287/287 402/288/288 403/289/289 404/290/290
f 234/291/291 233/292/292 248/293/293 247/294/294
f 248/293/293 233/292/292 230/295/295 229/296/296
f 256/297/297 248/293/293 229/296/296 228/298/298
f 264/299/299 256/297/297 228/298/298 227/300/300
f 272/301/301 264/299/299 227/300/300 226/302/302
f 280/303/303 272/496/304 226/495/305 225/304/306
f 288/305/307 280/303/303 225/304/306 224/306/308
f 296/307/309 288/305/307 224/306/308 223/308/310
f 304/309/311 296/307/309 223/308/310 222/310/312
f 312/311/313 304/309/311 222/310/312 221/312/314
f 320/313/315 312/311/313 221/312/314 232/314/316
f 328/315/317 320/313/315 232/314/316 231/316/318
f 233/292/292 328/315/317 231/316/318 230/295/295
f 247/294/294 248/293/293 256/297/297 255/317/319
f 404/290/290 403/289/289 405/318/320 406/319/321
f 253/320/322 245/283/283 246/286/286 254/321/323
f 380/282/282 379/281/281 381/322/324 382/323/325
s 1
f 251/324/326 243/275/275 244/278/278 252/325/327
f 356/274/274 355/273/273 357/326/328 358/327/329
f 332/266/266 331/265/265 333/328/330 334/329/331
f 249/330/332 241/267/267 242/270/270 250/331/333
s 3
f 255/317/319 256/297/297 264/299/299 263/332/334
f 406/319/321 405/318/320 407/333/335 408/334/336
f 261/335/337 253/320/322 254/321/323 262/336/338
f 382/323/325 381/322/324 383/337/339 384/338/340
s 1
f 259/339/341 251/324/326 252/325/327 260/340/342
f 358/327/329 357/326/328 359/341/343 360/342/344
f 334/329/331 333/328/330 335/343/345 336/344/346
f 257/345/347 249/330/332 250/331/333 258/346/348
s 3
f 263/332/334 264/299/299 272/301/301 271/470/349
f 408/334/336 407/333/335 409/467/350 410/468/351
f 269/485/352 261/335/337 262/336/338 270/351/353
f 384/338/340 383/337/339 385/483/354 386/479/355
s 1
f 267/491/356 259/339/341 260/340/342 268/355/357
f 360/342/344 359/341/343 361/488/358 362/489/359
f 336/344/346 335/343/345 337/492/360 338/493/361
f 265/494/362 257/345/347 258/346/348 266/361/363
s 3
f 271/347/364 272/496/304 280/303/303 279/362/365
f 410/349/366 409/348/367 411/363/368 412/364/369
f 277/365/370 269/350/371 270/469/372 278/366/373
f 386/353/374 385/352/375 387/367/376 388/368/377
s 1
f 275/369/378 267/354/379 268/484/380 276/370/381
f 362/357/382 361/356/383 363/371/384 364/372/385
f 338/359/386 337/358/387 339/373/388 340/374/389
f 273/375/390 265/360/391 266/490/392 274/376/393
s 3
f 279/362/365 280/303/303 288/305/307 287/377/394
f 412/364/369 411/363/368 413/378/395 414/379/396
f 285/380/397 277/365/370 278/366/373 286/381/398
f 388/368/377 387/367/376 389/382/399 390/383/400
s 1
f 283/384/401 275/369/378 276/370/381 284/385/402
f 364/372/385 363/371/384 365/386/403 366/387/404
f 340/374/389 339/373/388 341/388/405 342/389/406
f 281/390/407 273/375/390 274/376/393 282/391/408
s 3
f 287/377/394 288/305/307 296/307/309 295/392/409
f 414/379/396 413/378/395 415/393/410 416/394/411
f 293/395/412 285/380/397 286/381/398 294/396/413
f 390/383/400 389/382/399 391/397/414 392/398/415
s 1
f 291/399/416 283/384/401 284/385/402 292/400/417
f 366/387/404 365/386/403 367/401/418 368/402/419
f 342/389/406 341/388/405 343/403/420 344/404/421
f 289/405/422 281/390/407 282/391/408 290/406/423
s 3
f 295/392/409 296/307/309 304/309/311 303/407/424
f 416/394/411 415/393/410 417/408/425 418/409/426
f 301/410/427 293/395/412 294/396/413 302/411/428
f 392/398/415 391/397/414 393/412/429 394/413/430
s 1
f 299/414/431 291/399/416 292/400/417 300/415/432
f 368/402/419 367/401/418 369/416/433 370/417/434
f 344/404/421 343/403/420 345/418/435 346/419/436
f 297/420/437 289/405/422 290/406/423 298/421/438
s 3
f 303/407/424 304/309/311 312/311/313 311/422/439
f 418/409/426 417/408/425 419/423/440 420/424/441
f 309/425/442 301/410/427 302/411/428 310/426/443
f 394/413/430 393/412/429 395/427/444 396/428/445
s 1
f 307/429/446 299/414/431 300/415/432 308/430/447
f 370/417/434 369/416/433 371/431/448 372/432/449
f 346/419/436 345/418/435 347/433/450 348/434/451
f 305/435/452 297/420/437 298/421/438 306/436/453
s 3
f 311/422/439 312/311/313 320/313/315 319/437/454
f 420/424/441 419/423/440 421/438/455 422/439/456
f 317/440/457 309/425/442 310/426/443 318/441/458
f 396/428/445 395/427/444 397/442/459 398/443/460
s 1
f 315/444/461 307/429/446 308/430/447 316/445/462
f 372/432/449 371/431/448 373/446/463 374/447/464
f 348/434/451 347/433/450 349/448/465 350/449/466
f 313/450/467 305/435/452 306/436/453 314/451/468
s 3
f 319/437/454 320/313/315 328/315/317 327/452/469
f 422/439/456 421/438/455 423/453/470 424/454/471
f 325/455/472 317/440/457 318/441/458 326/456/473
f 398/443/460 397/442/459 399/457/474 400/458/475
s 1
f 323/459/476 315/444/461 316/445/462 324/460/477
f 374/447/464 373/446/463 375/461/478 376/462/479
f 350/449/466 349/448/465 351/463/480 352/464/481
f 321/465/482 313/450/467 314/451/468 322/466/483
s 3
f 233/292/292 234/291/291 327/452/469 328/315/317
f 402/288/288 401/287/287 424/454/471 423/453/470
f 325/455/472 326/456/473 235/285/285 236/284/284
f 378/280/280 377/471/279 400/458/475 399/457/474
s 1
f 323/459/476 324/460/477 237/277/277 238/276/276
f 354/272/272 353/271/271 376/462/479 375/461/478
f 321/465/482 322/466/483 239/269/269 240/268/268
f 330/264/264 329/263/263 352/464/481 351/463/480
f 240/268/268 241/267/267 331/265/265 330/264/264
f 241/267/267 249/330/332 333/328/330 331/265/265
f 249/330/332 257/345/347 335/343/345 333/328/330
f 257/345/347 265/494/362 337/492/360 335/343/345
f 265/360/391 273/375/390 339/373/388 337/358/387
f 273/375/390 281/390/407 341/388/405 339/373/388
f 281/390/407 289/405/422 343/403/420 341/388/405
f 289/405/422 297/420/437 345/418/435 343/403/420
f 297/420/437 305/435/452 347/433/450 345/418/435
f 305/435/452 313/450/467 349/448/465 347/433/450
f 313/450/467 321/465/482 351/463/480 349/448/465
f 321/465/482 240/268/268 330/264/264 351/463/480
f 238/276/276 243/275/275 355/273/273 354/272/272
f 242/270/270 239/269/269 353/271/271 356/274/274
f 243/275/275 251/324/326 357/326/328 355/273/273
f 250/331/333 242/270/270 356/274/274 358/327/329
f 251/324/326 259/339/341 359/341/343 357/326/328
f 258/346/348 250/331/333 358/327/329 360/342/344
f 259/339/341 267/491/356 361/488/358 359/341/343
f 266/361/363 258/346/348 360/342/344 362/489/359
f 267/354/379 275/369/378 363/371/384 361/356/383
f 274/376/393 266/490/392 362/357/382 364/372/385
f 275/369/378 283/384/401 365/386/403 363/371/384
f 282/391/408 274/376/393 364/372/385 366/387/404
f 283/384/401 291/399/416 367/401/418 365/386/403
f 290/406/423 282/391/408 366/387/404 368/402/419
f 291/399/416 299/414/431 369/416/433 367/401/418
f 298/421/438 290/406/423 368/402/419 370/417/434
f 299/414/431 307/429/446 371/431/448 369/416/433
f 306/436/453 298/421/438 370/417/434 372/432/449
f 307/429/446 315/444/461 373/446/463 371/431/448
f 314/451/468 306/436/453 372/432/449 374/447/464
f 315/444/461 323/459/476 375/461/478 373/446/463
f 322/466/483 314/451/468 374/447/464 376/462/479
f 239/269/269 322/466/483 376/462/479 353/271/271
f 323/459/476 238/276/276 354/272/272 375/461/478
s 3
f 236/284/284 245/283/283 379/281/281 378/280/280
s 1
f 244/278/278 237/277/277 377/279/484 380/487/485
s 3
f 245/283/283 253/320/322 381/322/324 379/281/281
s 1
f 252/325/327 244/278/278 380/487/485 382/486/486
s 3
f 253/320/322 261/335/337 383/337/339 381/322/324
s 1
f 260/340/342 252/325/327 382/486/486 384/482/487
s 3
f 261/335/337 269/485/352 385/483/354 383/337/339
s 1
f 268/355/357 260/340/342 384/482/487 386/480/488
s 3
f 269/350/371 277/365/370 387/367/376 385/352/375
s 1
f 276/370/381 268/484/380 386/481/489 388/478/490
s 3
f 277/365/370 285/380/397 389/382/399 387/367/376
s 1
f 284/385/402 276/370/381 388/478/490 390/477/491
s 3
f 285/380/397 293/395/412 391/397/414 389/382/399
s 1
f 292/400/417 284/385/402 390/477/491 392/476/492
s 3
f 293/395/412 301/410/427 393/412/429 391/397/414
s 1
f 300/415/432 292/400/417 392/476/492 394/475/493
s 3
f 301/410/427 309/425/442 395/427/444 393/412/429
s 1
f 308/430/447 300/415/432 394/475/493 396/474/494
s 3
f 309/425/442 317/440/457 397/442/459 395/427/444
s 1
f 316/445/462 308/430/447 396/474/494 398/473/495
s 3
f 317/440/457 325/455/472 399/457/474 397/442/459
s 1
f 324/460/477 316/445/462 398/473/495 400/472/496
f 237/277/277 324/460/477 400/472/496 377/279/484
s 3
f 325/455/472 236/284/284 378/280/280 399/457/474
f 234/291/291 247/294/294 403/289/289 402/288/288
f 246/286/286 235/285/285 401/287/287 404/290/290
f 247/294/294 255/317/319 405/318/320 403/289/289
f 254/321/323 246/286/286 404/290/290 406/319/321
f 255/317/319 263/332/334 407/333/335 405/318/320
f 262/336/338 254/321/323 406/319/321 408/334/336
f 263/332/334 271/470/349 409/467/350 407/333/335
f 270/351/353 262/336/338 408/334/336 410/468/351
f 271/347/364 279/362/365 411/363/368 409/348/367
f 278/366/373 270/469/372 410/349/366 412/364/369
f 279/362/365 287/377/394 413/378/395 411/363/368
f 286/381/398 278/366/373 412/364/369 414/379/396
f 287/377/394 295/392/409 415/393/410 413/378/395
f 294/396/413 286/381/398 414/379/396 416/394/411
f 295/392/409 303/407/424 417/408/425 415/393/410
f 302/411/428 294/396/413 416/394/411 418/409/426
f 303/407/424 311/422/439 419/423/440 417/408/425
f 310/426/443 302/411/428 418/409/426 420/424/441
f 311/422/439 319/437/454 421/438/455 419/423/440
f 318/441/458 310/426/443 420/424/441 422/439/456
f 319/437/454 327/452/469 423/453/470 421/438/455
f 326/456/473 318/441/458 422/439/456 424/454/471
f 235/285/285 326/456/473 424/454/471 401/287/287
f 327/452/469 234/291/291 402/288/288 423/453/470
g default
v -133.610306 5.837512 -1.395135
v -134.500076 5.837512 -2.510865
v -135.785828 5.837512 -3.130049
v -137.212891 5.837512 -3.130049
v -138.498642 5.837512 -2.510866
v -139.388412 5.837512 -1.395136
v -139.705963 5.837512 -0.003844
v -139.388412 5.837512 1.387449
v -138.498642 5.837512 2.503180
v -137.212891 5.837512 3.122363
v -135.785828 5.837512 3.122364
v -134.500076 5.837512 2.503180
v -133.610306 5.837512 1.387450
v -133.292755 5.837512 -0.003843
v -133.610306 94.773628 -1.395135
v -134.500076 94.773628 -2.510865
v -135.785828 94.773628 -3.130049
v -137.212891 94.773628 -3.130049
v -138.498642 94.773628 -2.510866
v -139.388412 94.773628 -1.395136
v -139.705963 94.773628 -0.003844
v -139.388412 94.773628 1.387449
v -138.498642 94.773628 2.503180
v -137.212891 94.773628 3.122363
v -135.785828 94.773628 3.122364
v -134.500076 94.773628 2.503180
v -133.610306 94.773628 1.387450
v -133.292755 94.773628 -0.003843
v 120.582893 112.075119 -1.395135
v 120.582893 111.185356 -2.510865
v 120.582893 109.899612 -3.130049
v 120.582893 108.472534 -3.130049
v 120.582893 107.186790 -2.510866
v 120.582893 106.297028 -1.395136
v 120.582893 105.979469 -0.003844
v 120.582893 106.297028 1.387449
v 120.582893 107.186790 2.503180
v 120.582893 108.472534 3.122363
v 120.582893 109.899612 3.122364
v 120.582893 111.185356 2.503180
v 120.582893 112.075119 1.387450
v 120.582893 112.392677 -0.003843
v -121.405930 112.075119 -1.395135
v -121.405930 111.185356 -2.510865
v -121.405930 109.899612 -3.130049
v -121.405930 108.472534 -3.130049
v -121.405930 107.186790 -2.510866
v -121.405930 106.297028 -1.395136
v -121.405930 105.979469 -0.003844
v -121.405930 106.297028 1.387449
v -121.405930 107.186790 2.503180
v -121.405930 108.472534 3.122363
v -121.405930 109.899612 3.122364
v -121.405930 111.185356 2.503180
v -121.405930 112.075119 1.387450
v -121.405930 112.392677 -0.003843
v 139.081299 5.837512 -1.395135
v 138.191528 5.837512 -2.510865
v 136.905777 5.837512 -3.130049
v 135.478714 5.837512 -3.130049
v 134.192963 5.837512 -2.510866
v 133.303192 5.837512 -1.395136
v 132.985641 5.837512 -0.003844
v 133.303192 5.837512 1.387449
v 134.192963 5.837512 2.503180
v 135.478714 5.837512 3.122363
v 136.905777 5.837512 3.122364
v 138.191528 5.837512 2.503180
v 139.081299 5.837512 1.387450
v 139.398849 5.837512 -0.003843
v 139.081299 94.773628 -1.395135
v 138.191528 94.773628 -2.510865
v 136.905777 94.773628 -3.130049
v 135.478714 94.773628 -3.130049
v 134.192963 94.773628 -2.510866
v 133.303192 94.773628 -1.395136
v 132.985641 94.773628 -0.003844
v 133.303192 94.773628 1.387449
v 134.192963 94.773628 2.503180
v 135.478714 94.773628 3.122363
v 136.905777 94.773628 3.122364
v 138.191528 94.773628 2.503180
v 139.081299 94.773628 1.387450
v 139.398849 94.773628 -0.003843
v -125.668282 107.712082 -1.660398
v -125.698975 108.557533 -2.069560
v -121.414696 108.714722 -2.070051
v -121.430199 107.864960 -1.661349
v -125.732231 109.496048 -2.069560
v -121.396805 109.657440 -2.070049
v -125.761780 110.341644 -1.660412
v -121.380127 110.507233 -1.661350
v -125.782166 110.926834 -0.923176
v -121.368301 111.095993 -0.924064
v -125.789444 111.135704 -0.003843
v -121.364037 111.306328 -0.003843
v -125.782166 110.926834 0.915490
v -121.368309 111.096001 0.916380
v -125.761780 110.341660 1.652728
v -121.380127 110.507240 1.653667
v -125.732224 109.496048 2.061872
v -121.396805 109.657440 2.062363
v -125.698975 108.557541 2.061871
v -121.414696 108.714722 2.062364
v -125.668289 107.712067 1.652718
v -121.430199 107.864960 1.653662
v -125.646454 107.127090 0.915468
v -121.440559 107.276260 0.916375
v -125.638519 106.918327 -0.003844
v -121.444176 107.065964 -0.003844
v -125.646454 107.127083 -0.923154
v -121.440559 107.276268 -0.924059
v -135.178345 94.801598 -1.661525
v -136.028091 94.783752 -2.070047
v -135.847336 99.040009 -2.069386
v -135.003204 99.004829 -1.660099
v -136.970642 94.763023 -2.070052
v -136.784470 99.078247 -2.069397
v -137.820465 94.743607 -1.661530
v -137.628784 99.112366 -1.660174
v -138.409454 94.729820 -0.924287
v -138.212936 99.136002 -0.922984
v -138.619934 94.724838 -0.003844
v -138.421387 99.144463 -0.003843
v -138.409454 94.729820 0.916600
v -138.212921 99.136009 0.915297
v -137.820465 94.743607 1.653846
v -137.628784 99.112366 1.652489
v -136.970642 94.763023 2.062363
v -136.784470 99.078247 2.061712
v -136.028091 94.783752 2.062361
v -135.847336 99.040016 2.061702
v -135.178345 94.801598 1.653841
v -135.003204 99.004822 1.652413
v -134.589417 94.813438 0.916599
v -134.419342 98.979874 0.915178
v -134.378983 94.817558 -0.003843
v -134.211060 98.970810 -0.003843
v -134.589417 94.813438 -0.924286
v -134.419342 98.979874 -0.922862
v -134.832901 102.794113 -2.068239
v -134.056564 102.510910 -1.658699
v -135.694809 103.108925 -2.068281
v -136.470703 103.393082 -1.659073
v -137.007080 103.590240 -0.922313
v -137.197159 103.663460 -0.003832
v -137.007080 103.590233 0.914625
v -136.470703 103.393089 1.651384
v -135.694824 103.108925 2.060595
v -134.832901 102.794113 2.060555
v -134.056549 102.510910 1.651014
v -133.520065 102.315308 0.914026
v -133.330124 102.242935 -0.003844
v -133.520050 102.315300 -0.921713
v -132.719421 105.724274 -2.067896
v -132.161530 105.127357 -1.659140
v -133.337479 106.388000 -2.067889
v -133.893600 106.986580 -1.659055
v -134.278290 107.401062 -0.922494
v -134.416031 107.548706 -0.003858
v -134.278290 107.401062 0.914805
v -133.893585 106.986572 1.651364
v -133.337479 106.388000 2.060205
v -132.719437 105.724274 2.060211
v -132.161530 105.127365 1.651451
v -131.774384 104.714981 0.914952
v -131.635406 104.568314 -0.003840
v -131.774384 104.714981 -0.922636
v -129.587265 107.654312 -2.068615
v -129.335373 106.863014 -1.659807
v -129.865524 108.533051 -2.068605
v -130.115936 109.324959 -1.659718
v -130.289429 109.873016 -0.922864
v -130.354553 110.067368 -0.003835
v -130.289429 109.873016 0.915180
v -130.115936 109.324959 1.652031
v -129.865524 108.533043 2.060918
v -129.587265 107.654312 2.060929
v -129.335388 106.863022 1.652118
v -129.159882 106.315628 0.915317
v -129.093750 106.121536 -0.003844
v -129.159882 106.315620 -0.923004
v 137.308884 99.182869 -1.660077
v 137.892609 99.207642 -0.922902
v 138.102417 94.727631 -0.924382
v 137.513321 94.742119 -1.661603
v 138.100906 99.216537 -0.003844
v 138.312943 94.722389 -0.003843
v 137.892609 99.207642 0.915216
v 138.102417 94.727631 0.916693
v 137.308899 99.182869 1.652392
v 137.513321 94.742119 1.653918
v 136.465149 99.147148 2.061644
v 136.663498 94.762497 2.062364
v 135.528519 99.107178 2.061632
v 135.721024 94.784241 2.062363
v 134.684906 99.070450 1.652282
v 134.871262 94.802917 1.653921
v 134.101532 99.044426 0.915050
v 134.282272 94.815292 0.916688
v 133.893463 99.034988 -0.003844
v 134.071777 94.819588 -0.003844
v 134.101547 99.044434 -0.922733
v 134.282257 94.815292 -0.924374
v 134.684921 99.070450 -1.659970
v 134.871262 94.802917 -1.661602
v 135.528503 99.107178 -2.069319
v 135.721024 94.784241 -2.070050
v 136.465134 99.147141 -2.069330
v 136.663498 94.762497 -2.070049
v 120.547562 111.095947 -0.923990
v 120.558647 110.507263 -1.661291
v 125.041611 110.934189 -0.923232
v 125.022430 110.348656 -1.660490
v 120.543564 111.306221 -0.003843
v 125.048462 111.143166 -0.003843
v 120.547562 111.095947 0.916304
v 125.041611 110.934189 0.915546
v 120.558647 110.507263 1.653608
v 125.022438 110.348663 1.652802
v 120.574310 109.657463 2.062364
v 124.994583 109.502617 2.061927
v 120.591156 108.714691 2.062363
v 124.963211 108.563667 2.061924
v 120.605789 107.864937 1.653606
v 124.934235 107.717773 1.652805
v 120.615593 107.276291 0.916304
v 124.913628 107.132408 0.915549
v 120.619026 107.066040 -0.003844
v 124.906128 106.923477 -0.003844
v 120.615593 107.276291 -0.923989
v 124.913620 107.132401 -0.923237
v 120.605789 107.864937 -1.661293
v 124.934235 107.717773 -1.660491
v 120.591156 108.714691 -2.070050
v 124.963211 108.563667 -2.069612
v 120.574310 109.657463 -2.070050
v 124.994591 109.502625 -2.069612
v 129.639740 109.919785 -0.923047
v 129.474884 109.367889 -1.659929
v 129.701920 110.115555 -0.003843
v 129.639725 109.919785 0.915360
v 129.474884 109.367889 1.652247
v 129.236832 108.570724 2.061027
v 128.971970 107.686401 2.061049
v 128.731689 106.890076 1.652455
v 128.563843 106.338989 0.915698
v 128.500153 106.143501 -0.003848
v 128.563843 106.338989 -0.923385
v 128.731689 106.890083 -1.660141
v 128.971970 107.686401 -2.068733
v 129.236832 108.570717 -2.068717
v 133.750443 107.507584 -0.922525
v 133.377014 107.082787 -1.659089
v 133.884476 107.658669 -0.003843
v 133.750443 107.507591 0.914843
v 133.376999 107.082787 1.651407
v 132.836975 106.469543 2.060206
v 132.236298 105.790001 2.060220
v 131.693237 105.179474 1.651575
v 131.315536 104.758102 0.915131
v 131.179398 104.608566 -0.003844
v 131.315536 104.758102 -0.922817
v 131.693222 105.179474 -1.659264
v 132.236298 105.789993 -2.067907
v 132.836975 106.469543 -2.067895
v 136.612091 103.710464 -0.922090
v 136.080353 103.504814 -1.658814
v 136.800507 103.786575 -0.003849
v 136.612091 103.710464 0.914400
v 136.080353 103.504814 1.651130
v 135.310837 103.208496 2.060468
v 134.455551 102.880547 2.060405
v 133.685059 102.586189 1.650555
v 133.152832 102.383537 0.913488
v 132.964478 102.309013 -0.003844
v 133.152817 102.383530 -0.921179
v 133.685059 102.586197 -1.658242
v 134.455551 102.880547 -2.068093
v 135.310822 103.208496 -2.068152
vt 0.453617 0.009714
vt 0.467054 0.009714
vt 0.467054 0.847130
vt 0.453617 0.847130
vt 0.480491 0.847130
vt 0.305807 0.009714
vt 0.305807 0.847130
vt 0.319244 0.009714
vt 0.319244 0.847130
vt 0.332682 0.009714
vt 0.332682 0.847130
vt 0.346119 0.009714
vt 0.346119 0.847130
vt 0.359556 0.009714
vt 0.936137 0.855911
vt 0.936137 0.846572
vt 0.763981 0.621512
vt 0.763981 0.632071
vt 0.983198 0.846572
vt 0.713447 0.632071
vt 0.983198 0.855911
vt 0.713447 0.621512
vt 0.936137 0.837179
vt 0.763981 0.642646
vt 0.983198 0.837179
vt 0.713447 0.642646
vt 0.936137 0.827867
vt 0.763981 0.653508
vt 0.359556 0.847130
vt 0.983198 0.827867
vt 0.713447 0.653507
vt 0.936137 0.818560
vt 0.763981 0.664714
vt 0.983198 0.818560
vt 0.713447 0.664714
vt 0.936137 0.809164
vt 0.763981 0.676237
vt 0.983198 0.809164
vt 0.713447 0.676237
vt 0.936137 0.799306
vt 0.763981 0.687763
vt 0.983198 0.799306
vt 0.713447 0.687763
vt 0.763981 0.698982
vt 0.713447 0.698982
vt 0.763981 0.709866
vt 0.713447 0.709866
vt 0.763981 0.720471
vt 0.713447 0.720471
vt 0.763981 0.731065
vt 0.713447 0.731065
vt 0.763981 0.742145
vt 0.713447 0.742145
vt 0.763981 0.753879
vt 0.713447 0.598754
vt 0.763981 0.610467
vt 0.713447 0.610467
vt 0.982870 0.621512
vt 0.982870 0.632071
vt 0.644659 0.008540
vt 0.658096 0.008540
vt 0.933007 0.632071
vt 0.933007 0.621512
vt 0.658096 0.845955
vt 0.982870 0.642646
vt 0.644659 0.845955
vt 0.933007 0.642646
vt 0.982870 0.653508
vt 0.671533 0.845955
vt 0.933006 0.653508
vt 0.496849 0.008540
vt 0.982870 0.664714
vt 0.496849 0.845955
vt 0.933006 0.664714
vt 0.510286 0.008540
vt 0.982870 0.676237
vt 0.510286 0.845955
vt 0.933006 0.676237
vt 0.523723 0.008540
vt 0.982870 0.687763
vt 0.523723 0.845955
vt 0.933007 0.687763
vt 0.537161 0.008540
vt 0.982870 0.698982
vt 0.537161 0.845955
vt 0.933006 0.698982
vt 0.550598 0.008540
vt 0.550598 0.845955
vt 0.982870 0.709866
vt 0.933006 0.709866
vt 0.982870 0.720471
vt 0.933007 0.720471
vt 0.982870 0.731065
vt 0.933006 0.731065
vt 0.982870 0.742145
vt 0.933007 0.742145
vt 0.982870 0.598754
vt 0.933007 0.598754
vt 0.982870 0.610467
vt 0.933006 0.610467
vt 0.889380 0.632071
vt 0.889380 0.621512
vt 0.889380 0.642646
vt 0.889380 0.653507
vt 0.889380 0.664714
vt 0.889380 0.676237
vt 0.889380 0.687763
vt 0.889380 0.698982
vt 0.889380 0.709866
vt 0.889380 0.720471
vt 0.889380 0.731065
vt 0.889380 0.742145
vt 0.889380 0.598754
vt 0.889380 0.610467
vt 0.849662 0.632071
vt 0.849662 0.621512
vt 0.849662 0.642646
vt 0.849662 0.653508
vt 0.849662 0.664714
vt 0.849662 0.676237
vt 0.849662 0.687763
vt 0.849662 0.698982
vt 0.849662 0.709866
vt 0.849662 0.720471
vt 0.849662 0.731065
vt 0.849662 0.742145
vt 0.849662 0.598754
vt 0.849662 0.610467
vt 0.809039 0.632071
vt 0.809039 0.621512
vt 0.809039 0.642646
vt 0.809039 0.653508
vt 0.809039 0.664714
vt 0.809039 0.676237
vt 0.809039 0.687763
vt 0.809039 0.698982
vt 0.809039 0.709866
vt 0.809039 0.720471
vt 0.809039 0.731065
vt 0.809039 0.742145
vt 0.809039 0.598754
vt 0.809039 0.610467
vt 0.703200 0.632071
vt 0.703200 0.621512
vt 0.703200 0.642646
vt 0.703200 0.653507
vt 0.703200 0.664714
vt 0.703200 0.676237
vt 0.703201 0.687763
vt 0.703201 0.698982
vt 0.703201 0.709866
vt 0.703201 0.720471
vt 0.703201 0.731065
vt 0.703201 0.742145
vt 0.703201 0.753879
vt 0.703200 0.610467
vt 0.936137 0.788640
vt 0.983198 0.788640
vt 0.936137 0.776417
vt 0.983198 0.776417
vt 0.936137 0.762471
vt 0.983198 0.910479
vt 0.936137 0.897313
vt 0.983198 0.897313
vt 0.936137 0.885990
vt 0.983198 0.885990
vt 0.936137 0.875391
vt 0.983198 0.875391
vt 0.936137 0.865432
vt 0.983198 0.865432
vt 0.711909 0.855911
vt 0.711909 0.846572
vt 0.760184 0.846572
vt 0.760184 0.855911
vt 0.711909 0.837179
vt 0.760184 0.837179
vt 0.711909 0.827867
vt 0.760184 0.827867
vt 0.711909 0.818560
vt 0.760184 0.818560
vt 0.711909 0.809164
vt 0.760184 0.809164
vt 0.711909 0.799306
vt 0.760184 0.799306
vt 0.711909 0.788640
vt 0.760184 0.788640
vt 0.711909 0.776417
vt 0.760184 0.776417
vt 0.711909 0.910479
vt 0.760184 0.910479
vt 0.711909 0.897313
vt 0.760184 0.897313
vt 0.711909 0.885990
vt 0.760184 0.885990
vt 0.711909 0.875391
vt 0.760184 0.875391
vt 0.711909 0.865432
vt 0.760184 0.865432
vt 0.806412 0.846572
vt 0.806412 0.855911
vt 0.806412 0.837179
vt 0.806412 0.827867
vt 0.806412 0.818560
vt 0.806412 0.809164
vt 0.806412 0.799306
vt 0.806412 0.788640
vt 0.806412 0.776417
vt 0.806412 0.910479
vt 0.806412 0.897313
vt 0.806412 0.885990
vt 0.806412 0.875391
vt 0.806412 0.865432
vt 0.849534 0.846572
vt 0.849534 0.855911
vt 0.849534 0.837179
vt 0.849534 0.827867
vt 0.849534 0.818560
vt 0.849534 0.809164
vt 0.849534 0.799306
vt 0.849534 0.788640
vt 0.849534 0.776417
vt 0.849534 0.910479
vt 0.849534 0.897313
vt 0.849534 0.885990
vt 0.849534 0.875391
vt 0.849534 0.865432
vt 0.891536 0.846572
vt 0.891536 0.855911
vt 0.891536 0.837179
vt 0.891536 0.827867
vt 0.891535 0.818560
vt 0.891535 0.809164
vt 0.891536 0.799306
vt 0.891536 0.788640
vt 0.891536 0.776417
vt 0.891535 0.910479
vt 0.891536 0.897313
vt 0.891536 0.885990
vt 0.891536 0.875391
vt 0.891536 0.865432
vt 0.994054 0.846572
vt 0.994054 0.855911
vt 0.994054 0.837179
vt 0.994054 0.827867
vt 0.994054 0.818560
vt 0.994054 0.809164
vt 0.994054 0.799306
vt 0.994054 0.788640
vt 0.994054 0.776417
vt 0.994054 0.762471
vt 0.994054 0.897313
vt 0.994054 0.885990
vt 0.994054 0.875391
vt 0.994054 0.865432
vt 0.993059 0.621512
vt 0.993059 0.632071
vt 0.993059 0.642646
vt 0.993059 0.653508
vt 0.993059 0.664714
vt 0.993059 0.676237
vt 0.993059 0.687763
vt 0.993059 0.698982
vt 0.993059 0.709866
vt 0.993059 0.720471
vt 0.993059 0.731065
vt 0.993059 0.742145
vt 0.993059 0.598754
vt 0.993059 0.610467
vt 0.701628 0.855911
vt 0.701628 0.846572
vt 0.701628 0.837179
vt 0.701628 0.827867
vt 0.701628 0.818560
vt 0.701628 0.809164
vt 0.701628 0.799306
vt 0.701628 0.788640
vt 0.701628 0.776417
vt 0.701628 0.910479
vt 0.701628 0.897313
vt 0.701628 0.885990
vt 0.701628 0.875391
vt 0.701628 0.865432
vt 0.493928 0.847130
vt 0.493928 0.009714
vt 0.480491 0.009714
vt 0.671533 0.008540
vt 0.684970 0.008540
vt 0.684970 0.845955
vt 0.440180 0.847130
vt 0.440180 0.009714
vt 0.426742 0.847130
vt 0.426742 0.009714
vt 0.413305 0.847130
vt 0.413305 0.009714
vt 0.399867 0.847130
vt 0.399867 0.009714
vt 0.386430 0.847130
vt 0.386430 0.009714
vt 0.631221 0.845955
vt 0.631221 0.008540
vt 0.617784 0.845955
vt 0.617784 0.008540
vt 0.604347 0.845955
vt 0.604347 0.008540
vt 0.590909 0.845955
vt 0.590909 0.008540
vt 0.577472 0.845955
vt 0.577472 0.008540
vt 0.372993 0.847130
vt 0.372993 0.009714
vt 0.564035 0.845955
vt 0.564035 0.008540
vt 0.304975 0.995066
vt 0.993744 0.995111
vt 0.993746 0.966678
vt 0.993745 0.970740
vt 0.993745 0.974802
vt 0.993745 0.978864
vt 0.994054 0.910479
vt 0.983198 0.762471
vt 0.701628 0.762471
vt 0.711909 0.762471
vt 0.760184 0.762471
vt 0.806412 0.762471
vt 0.304976 0.986943
vt 0.993744 0.991050
vt 0.304976 0.982881
vt 0.849534 0.762471
vt 0.304976 0.978819
vt 0.304977 0.974757
vt 0.304977 0.970695
vt 0.304977 0.966633
vt 0.304978 0.962571
vt 0.993746 0.962616
vt 0.304978 0.958510
vt 0.993746 0.958555
vt 0.993745 0.982926
vt 0.304978 0.954448
vt 0.993746 0.954493
vt 0.304978 0.950386
vt 0.993747 0.950431
vt 0.304979 0.946324
vt 0.993747 0.946369
vt 0.304979 0.942262
vt 0.993747 0.942307
vt 0.304979 0.938200
vt 0.993748 0.938246
vt 0.993744 0.986988
vt 0.304976 0.991004
vt 0.891536 0.762471
vt 0.936137 0.910479
vt 0.809039 0.753879
vt 0.763981 0.598754
vt 0.849662 0.753880
vt 0.889380 0.753879
vt 0.933006 0.753879
vt 0.982870 0.753879
vt 0.993059 0.753879
vt 0.713447 0.753879
vt 0.703200 0.598753
vn 0.900968 0.000000 -0.433885
vn 0.623488 0.000000 -0.781833
vn 0.623434 0.008698 -0.781828
vn 0.900925 0.008697 -0.433887
vn 0.222522 0.000000 -0.974928
vn 0.222463 0.008699 -0.974902
vn 0.000000 0.000000 -1.000000
vn -0.222565 0.008700 -0.974879
vn -0.433883 0.000000 -0.900969
vn -0.623488 0.000000 -0.781833
vn -0.623499 0.008701 -0.781776
vn -0.900968 0.000000 -0.433885
vn -0.900945 0.008702 -0.433846
vn -1.000000 0.000000 0.000000
vn -0.999962 0.008702 -0.000000
vn -0.900969 0.000000 0.433884
vn -0.900945 0.008702 0.433845
vn -0.623488 0.000000 0.781833
vn -0.623499 0.008701 0.781776
vn -0.222522 0.000000 0.974928
vn -0.222565 0.008700 0.974879
vn 0.222521 0.000000 0.974928
vn 0.222463 0.008699 0.974902
vn 0.623488 0.000000 0.781833
vn 0.623434 0.008698 0.781828
vn 0.900969 0.000000 0.433885
vn 0.900925 0.008697 0.433887
vn 1.000000 0.000000 0.000000
vn 0.999962 0.008697 0.000000
vn 0.003198 0.900967 -0.433876
vn 0.003198 0.623497 -0.781819
vn -0.003198 0.623498 -0.781818
vn -0.003198 0.900967 -0.433875
vn 0.003198 0.222535 -0.974919
vn -0.003198 0.222536 -0.974919
vn 0.003198 -0.222504 -0.974926
vn -0.003197 -0.222504 -0.974927
vn 0.003197 -0.623478 -0.781835
vn -0.003197 -0.623477 -0.781835
vn 0.003197 -0.900961 -0.433888
vn -0.003197 -0.900961 -0.433889
vn 0.003197 -0.999995 0.000000
vn -0.003197 -0.999995 -0.000000
vn 0.003197 -0.900961 0.433888
vn -0.003197 -0.900961 0.433888
vn 0.003197 -0.623478 0.781835
vn -0.003197 -0.623477 0.781835
vn 0.003198 -0.222505 0.974926
vn -0.003197 -0.222504 0.974927
vn 0.003198 0.222535 0.974919
vn -0.003198 0.222536 0.974919
vn 0.003198 0.623497 0.781819
vn -0.003198 0.623498 0.781818
vn 0.003198 0.900967 0.433876
vn -0.003198 0.900967 0.433875
vn 0.003198 0.999995 -0.000000
vn -0.003198 0.999995 -0.000000
vn 0.900968 0.000000 -0.433885
vn 0.623488 0.000000 -0.781833
vn 0.623501 0.008701 -0.781774
vn 0.900946 0.008702 -0.433844
vn 0.222522 0.000000 -0.974928
vn 0.222568 0.008700 -0.974878
vn 0.000000 0.000000 -1.000000
vn -0.222460 0.008699 -0.974903
vn -0.433883 0.000000 -0.900969
vn -0.623488 0.000000 -0.781833
vn -0.623432 0.008697 -0.781829
vn -0.900968 0.000000 -0.433885
vn -0.900925 0.008697 -0.433888
vn -1.000000 0.000000 0.000000
vn -0.999962 0.008697 -0.000000
vn -0.900969 0.000000 0.433884
vn -0.900925 0.008697 0.433888
vn -0.623488 0.000000 0.781833
vn -0.623432 0.008697 0.781829
vn -0.222522 0.000000 0.974928
vn -0.222461 0.008699 0.974903
vn 0.222521 0.000000 0.974928
vn 0.222568 0.008700 0.974878
vn 0.623488 0.000000 0.781833
vn 0.623501 0.008701 0.781774
vn 0.900969 0.000000 0.433885
vn 0.900946 0.008702 0.433844
vn 1.000000 0.000000 0.000000
vn 0.999962 0.008702 0.000000
vn 0.077047 -0.611384 -0.787574
vn 0.025127 -0.206342 -0.978157
vn -0.335049 -0.200075 -0.920713
vn -0.323512 -0.584300 -0.744267
vn -0.033395 0.238538 -0.970559
vn -0.348071 0.218999 -0.911529
vn -0.086034 0.631499 -0.770589
vn -0.359921 0.588833 -0.723694
vn -0.122070 0.897422 -0.423950
vn -0.368147 0.839973 -0.398639
vn -0.134810 0.990872 -0.000002
vn -0.371086 0.928599 -0.000005
vn -0.122071 0.897424 0.423944
vn -0.368146 0.839977 0.398632
vn -0.086035 0.631497 0.770590
vn -0.359921 0.588831 0.723696
vn -0.033395 0.238535 0.970560
vn -0.348070 0.218996 0.911531
vn 0.025127 -0.206340 0.978158
vn -0.335048 -0.200076 0.920713
vn 0.077047 -0.611383 0.787575
vn -0.323510 -0.584299 0.744269
vn 0.112000 -0.892198 0.437537
vn -0.315674 -0.853271 0.415065
vn 0.121126 -0.967772 0.220784
vn -0.312916 -0.949781 -0.000000
vn 0.121127 -0.967773 -0.220781
vn 0.112002 -0.892196 -0.437540
vn -0.315672 -0.853269 -0.415070
vn 0.583736 0.322708 -0.745058
vn 0.198572 0.336015 -0.920686
vn 0.204008 -0.028271 -0.978561
vn 0.609256 -0.088013 -0.788074
vn -0.220477 0.351075 -0.910020
vn -0.240654 0.039075 -0.969824
vn -0.588911 0.364793 -0.721187
vn -0.631992 0.099412 -0.768573
vn -0.838177 0.374306 -0.396680
vn -0.895588 0.140494 -0.422119
vn -0.925927 0.377702 0.000003
vn -0.987920 0.154963 0.000003
vn -0.838176 0.374309 0.396678
vn -0.895587 0.140494 0.422119
vn -0.588912 0.364797 0.721184
vn -0.631995 0.099411 0.768570
vn -0.220477 0.351074 0.910020
vn -0.240655 0.039075 0.969824
vn 0.198571 0.336013 0.920687
vn 0.204006 -0.028272 0.978561
vn 0.583736 0.322709 0.745058
vn 0.609257 -0.088013 0.788073
vn 0.853667 0.313723 0.415728
vn 0.889954 -0.128088 0.437694
vn 0.950552 0.310566 0.000000
vn 0.965541 -0.138523 0.220324
vn 0.853667 0.313722 -0.415729
vn 0.889953 -0.128089 -0.437696
vn 0.965542 -0.138524 -0.220319
vn 0.177243 -0.080065 -0.980905
vn 0.556064 -0.257581 -0.790218
vn -0.236394 0.114497 -0.964888
vn -0.591858 0.281592 -0.755255
vn -0.824121 0.390404 -0.410377
vn -0.903631 0.428312 0.000002
vn -0.824121 0.390402 0.410379
vn -0.591860 0.281594 0.755253
vn -0.236397 0.114499 0.964887
vn 0.177242 -0.080064 0.980905
vn 0.556066 -0.257581 0.790217
vn 0.815704 -0.378457 0.437490
vn 0.885895 -0.410242 0.216546
vn 0.815703 -0.378456 -0.437493
vn 0.885897 -0.410242 -0.216535
vn 0.129988 -0.140616 -0.981494
vn 0.415612 -0.450943 -0.789884
vn -0.183558 0.196785 -0.963111
vn -0.451236 0.483161 -0.750294
vn -0.624072 0.667541 -0.406108
vn -0.683145 0.730283 -0.000001
vn -0.624071 0.667540 0.406111
vn -0.451235 0.483161 0.750295
vn -0.183561 0.196789 0.963109
vn 0.129989 -0.140616 0.981494
vn 0.415612 -0.450943 0.789884
vn 0.608412 -0.662989 0.436212
vn 0.659575 -0.720298 0.214784
vn 0.608412 -0.662991 -0.436210
vn 0.659575 -0.720300 -0.214778
vn 0.071658 -0.183719 -0.980363
vn 0.226579 -0.570314 -0.789559
vn -0.100085 0.238313 -0.966018
vn -0.249394 0.602496 -0.758157
vn -0.347630 0.841838 -0.412871
vn -0.382131 0.924108 0.000000
vn -0.347632 0.841838 0.412870
vn -0.249395 0.602495 0.758157
vn -0.100086 0.238313 0.966017
vn 0.071659 -0.183720 0.980363
vn 0.226579 -0.570313 0.789560
vn 0.331020 -0.836174 0.437309
vn 0.357973 -0.908102 0.217267
vn 0.331022 -0.836174 -0.437307
vn 0.357973 -0.908104 -0.217263
vn 0.632091 0.104236 -0.767851
vn 0.894835 0.147081 -0.421471
vn 0.839355 0.371457 -0.396866
vn 0.590175 0.361398 -0.721862
vn 0.986766 0.162151 0.000000
vn 0.927010 0.375037 0.000000
vn 0.894837 0.147082 0.421467
vn 0.839358 0.371454 0.396863
vn 0.632096 0.104238 0.767847
vn 0.590178 0.361396 0.721861
vn 0.241338 0.041156 0.969568
vn 0.221408 0.346882 0.911401
vn -0.203235 -0.029398 0.978689
vn -0.198502 0.330941 0.922537
vn -0.608518 -0.092027 0.788186
vn -0.584743 0.316881 0.746768
vn -0.889091 -0.134014 0.437674
vn -0.855489 0.307385 0.416717
vn -0.964640 -0.144947 0.220137
vn -0.952653 0.304060 -0.000001
vn -0.964640 -0.144943 -0.220138
vn -0.889088 -0.134012 -0.437679
vn -0.855487 0.307387 -0.416721
vn -0.608520 -0.092027 -0.788184
vn -0.584746 0.316882 -0.746765
vn -0.203237 -0.029398 -0.978688
vn -0.198503 0.330944 -0.922536
vn 0.241338 0.041156 -0.969568
vn 0.221409 0.346884 -0.911400
vn 0.352968 0.590007 -0.726158
vn 0.360778 0.842416 -0.400217
vn 0.115306 0.898004 -0.424609
vn 0.081159 0.631243 -0.771327
vn 0.363567 0.931568 -0.000000
vn 0.127393 0.991852 -0.000002
vn 0.360779 0.842416 0.400218
vn 0.115306 0.898005 0.424607
vn 0.352968 0.590004 0.726160
vn 0.081159 0.631242 0.771328
vn 0.341716 0.218854 0.913966
vn 0.031356 0.237693 0.970834
vn 0.329336 -0.201089 0.922551
vn -0.023959 -0.207256 0.977993
vn 0.318346 -0.585694 0.745398
vn -0.073064 -0.612174 0.787340
vn 0.310864 -0.854776 0.415597
vn -0.106185 -0.892959 0.437434
vn 0.308222 -0.951314 0.000000
vn -0.114844 -0.968503 0.220938
vn 0.310865 -0.854775 -0.415599
vn -0.106184 -0.892959 -0.437435
vn -0.114845 -0.968503 -0.220934
vn 0.318346 -0.585692 -0.745400
vn -0.073063 -0.612173 -0.787341
vn 0.329336 -0.201089 -0.922552
vn -0.023959 -0.207256 -0.977993
vn 0.341717 0.218853 -0.913966
vn 0.031356 0.237694 -0.970834
vn 0.331898 0.847711 -0.413800
vn 0.237628 0.605875 -0.759242
vn 0.365106 0.930966 -0.000000
vn 0.331896 0.847712 0.413798
vn 0.237629 0.605876 0.759241
vn 0.094878 0.238694 0.966449
vn -0.068617 -0.186080 0.980136
vn -0.215538 -0.575039 0.789223
vn -0.314294 -0.842688 0.437145
vn -0.339625 -0.915065 0.217509
vn -0.314294 -0.842689 -0.437144
vn -0.339624 -0.915067 -0.217505
vn -0.215538 -0.575038 -0.789224
vn -0.068618 -0.186080 -0.980136
vn 0.094879 0.238694 -0.966449
vn 0.607494 0.682627 -0.406168
vn 0.439011 0.494169 -0.750377
vn 0.665193 0.746671 0.000002
vn 0.607493 0.682626 0.406170
vn 0.439011 0.494170 0.750377
vn 0.178378 0.201210 0.963170
vn -0.126141 -0.144486 0.981434
vn -0.402336 -0.463196 0.789667
vn -0.587698 -0.681564 0.435983
vn -0.636463 -0.740814 0.214729
vn -0.587699 -0.681565 -0.435982
vn -0.636464 -0.740814 -0.214727
vn -0.402337 -0.463198 -0.789666
vn -0.126143 -0.144487 -0.981433
vn 0.178378 0.201211 -0.963169
vn 0.817095 0.405780 -0.409509
vn 0.587487 0.293234 -0.754237
vn 0.895591 0.444878 -0.000000
vn 0.817096 0.405781 0.409508
vn 0.587489 0.293236 0.754234
vn 0.235356 0.119749 0.964504
vn -0.174921 -0.083145 0.981066
vn -0.550458 -0.269037 0.790326
vn -0.807330 -0.396079 0.437424
vn -0.876685 -0.429714 0.216263
vn -0.807328 -0.396080 -0.437426
vn -0.876686 -0.429713 -0.216261
vn -0.550459 -0.269041 -0.790324
vn -0.174922 -0.083145 -0.981065
vn 0.235356 0.119749 -0.964504
s 1
g SP19_low Base_low
usemtl aiStandardSurface1SG
f 425/497/497 426/498/498 440/499/499 439/500/500
f 426/498/498 427/781/501 441/501/502 440/499/499
f 427/781/501 428/780/503 442/779/504 441/501/502
f 428/502/505 429/504/506 443/505/507 442/503/504
f 429/504/506 430/506/508 444/507/509 443/505/507
f 430/506/508 431/508/510 445/509/511 444/507/509
f 431/508/510 432/510/512 446/525/513 445/509/511
f 432/510/512 433/806/514 447/805/515 446/525/513
f 433/806/514 434/794/516 448/793/517 447/805/515
f 434/794/516 435/792/518 449/791/519 448/793/517
f 435/792/518 436/790/520 450/789/521 449/791/519
f 436/790/520 437/788/522 451/787/523 450/789/521
f 437/788/522 438/786/524 452/785/525 451/787/523
f 438/786/524 425/497/497 439/500/500 452/785/525
f 453/845/526 454/821/527 468/844/528 467/822/529
f 454/821/527 455/823/530 469/833/531 468/844/528
f 455/823/530 456/825/532 470/814/533 469/833/531
f 456/825/532 457/826/534 471/813/535 470/814/533
f 457/826/534 458/827/536 472/812/537 471/813/535
f 458/827/536 459/828/538 473/811/539 472/812/537
f 459/828/538 460/829/540 474/830/541 473/811/539
f 460/829/540 461/831/542 475/832/543 474/830/541
f 461/831/542 462/834/544 476/835/545 475/832/543
f 462/834/544 463/836/546 477/837/547 476/835/545
f 463/836/546 464/838/548 478/839/549 477/837/547
f 464/838/548 465/840/550 479/841/551 478/839/549
f 465/840/550 466/842/552 480/843/553 479/841/551
f 466/809/552 453/845/526 467/822/529 480/810/553
f 481/556/554 482/557/555 496/560/556 495/562/557
f 482/557/555 483/782/558 497/565/559 496/560/556
f 483/782/558 484/783/560 498/784/561 497/565/559
f 484/567/562 485/571/563 499/573/564 498/569/561
f 485/571/563 486/575/565 500/577/566 499/573/564
f 486/575/565 487/579/567 501/581/568 500/577/566
f 487/579/567 488/583/569 502/584/570 501/581/568
f 488/583/569 489/808/571 503/807/572 502/584/570
f 489/808/571 490/804/573 504/803/574 503/807/572
f 490/804/573 491/802/575 505/801/576 504/803/574
f 491/802/575 492/800/577 506/799/578 505/801/576
f 492/800/577 493/798/579 507/797/580 506/799/578
f 493/798/579 494/796/581 508/795/582 507/797/580
f 494/796/581 481/556/554 495/562/557 508/795/582
f 509/513/583 510/514/584 511/516/585 512/518/586
f 510/514/584 513/520/587 514/522/588 511/516/585
f 513/520/587 515/524/589 516/527/590 514/522/588
f 515/524/589 517/529/591 518/531/592 516/527/590
f 517/529/591 519/533/593 520/535/594 518/531/592
f 519/533/593 521/537/595 522/539/596 520/535/594
f 521/537/595 523/540/597 524/541/598 522/539/596
f 523/540/597 525/542/599 526/543/600 524/541/598
f 525/542/599 527/544/601 528/545/602 526/543/600
f 527/544/601 529/546/603 530/547/604 528/545/602
f 529/546/603 531/548/605 532/549/606 530/547/604
f 531/548/605 533/550/607 534/855/608 532/549/606
f 533/849/609 535/552/610 536/553/611 534/551/608
f 535/552/610 509/513/583 512/518/586 536/553/611
f 537/554/612 538/555/613 539/558/614 540/559/615
f 538/555/613 541/561/616 542/563/617 539/558/614
f 541/561/616 543/564/618 544/566/619 542/563/617
f 543/564/618 545/568/620 546/570/621 544/566/619
f 545/568/620 547/572/622 548/574/623 546/570/621
f 547/572/622 549/576/624 550/578/625 548/574/623
f 549/576/624 551/580/626 552/582/627 550/578/625
f 551/580/626 553/585/628 554/586/629 552/582/627
f 553/585/628 555/587/630 556/588/631 554/586/629
f 555/587/630 557/589/632 558/590/633 556/588/631
f 557/589/632 559/591/634 560/592/635 558/590/633
f 559/591/634 561/853/636 562/852/637 560/592/635
f 561/593/636 563/595/638 564/596/639 562/594/640
f 563/595/638 537/554/612 540/559/615 564/596/639
f 540/559/615 539/558/614 565/597/641 566/598/642
f 539/558/614 542/563/617 567/599/643 565/597/641
f 542/563/617 544/566/619 568/600/644 567/599/643
f 544/566/619 546/570/621 569/601/645 568/600/644
f 546/570/621 548/574/623 570/602/646 569/601/645
f 548/574/623 550/578/625 571/603/647 570/602/646
f 550/578/625 552/582/627 572/604/648 571/603/647
f 552/582/627 554/586/629 573/605/649 572/604/648
f 554/586/629 556/588/631 574/606/650 573/605/649
f 556/588/631 558/590/633 575/607/651 574/606/650
f 558/590/633 560/592/635 576/608/652 575/607/651
f 560/592/635 562/852/637 577/851/653 576/608/652
f 562/594/640 564/596/639 578/610/654 577/609/655
f 564/596/639 540/559/615 566/598/642 578/610/654
f 566/598/642 565/597/641 579/611/656 580/612/657
f 565/597/641 567/599/643 581/613/658 579/611/656
f 567/599/643 568/600/644 582/614/659 581/613/658
f 568/600/644 569/601/645 583/615/660 582/614/659
f 569/601/645 570/602/646 584/616/661 583/615/660
f 570/602/646 571/603/647 585/617/662 584/616/661
f 571/603/647 572/604/648 586/618/663 585/617/662
f 572/604/648 573/605/649 587/619/664 586/618/663
f 573/605/649 574/606/650 588/620/665 587/619/664
f 574/606/650 575/607/651 589/621/666 588/620/665
f 575/607/651 576/608/652 590/622/667 589/621/666
f 576/608/652 577/851/653 591/850/668 590/622/667
f 577/609/655 578/610/654 592/624/669 591/623/670
f 578/610/654 566/598/642 580/612/657 592/624/669
f 580/612/657 579/611/656 593/625/671 594/626/672
f 579/611/656 581/613/658 595/627/673 593/625/671
f 581/613/658 582/614/659 596/628/674 595/627/673
f 582/614/659 583/615/660 597/629/675 596/628/674
f 583/615/660 584/616/661 598/630/676 597/629/675
f 584/616/661 585/617/662 599/631/677 598/630/676
f 585/617/662 586/618/663 600/632/678 599/631/677
f 586/618/663 587/619/664 601/633/679 600/632/678
f 587/619/664 588/620/665 602/634/680 601/633/679
f 588/620/665 589/621/666 603/635/681 602/634/680
f 589/621/666 590/622/667 604/636/682 603/635/681
f 590/622/667 591/850/668 605/848/683 604/636/682
f 591/623/670 592/624/669 606/638/684 605/637/685
f 592/624/669 580/612/657 594/626/672 606/638/684
f 594/626/672 593/625/671 510/514/584 509/513/583
f 593/625/671 595/627/673 513/520/587 510/514/584
f 595/627/673 596/628/674 515/524/589 513/520/587
f 596/628/674 597/629/675 517/529/591 515/524/589
f 597/629/675 598/630/676 519/533/593 517/529/591
f 598/630/676 599/631/677 521/537/595 519/533/593
f 599/631/677 600/632/678 523/540/597 521/537/595
f 600/632/678 601/633/679 525/542/599 523/540/597
f 601/633/679 602/634/680 527/544/601 525/542/599
f 602/634/680 603/635/681 529/546/603 527/544/601
f 603/635/681 604/636/682 531/548/605 529/546/603
f 604/636/682 605/848/683 533/550/607 531/548/605
f 605/637/685 606/638/684 535/552/610 533/849/609
f 606/638/684 594/626/672 509/513/583 535/552/610
f 607/511/686 608/512/687 609/515/688 610/517/689
f 608/512/687 611/519/690 612/521/691 609/515/688
f 611/519/690 613/523/692 614/526/693 612/521/691
f 613/523/692 615/528/694 616/530/695 614/526/693
f 615/528/694 617/532/696 618/534/697 616/530/695
f 617/532/696 619/536/698 620/538/699 618/534/697
f 619/536/698 621/653/700 622/654/701 620/538/699
f 621/653/700 623/655/702 624/656/703 622/654/701
f 623/655/702 625/657/704 626/816/705 624/656/703
f 625/847/706 627/659/707 628/660/708 626/658/705
f 627/659/707 629/661/709 630/662/710 628/660/708
f 629/661/709 631/663/711 632/664/712 630/662/710
f 631/663/711 633/665/713 634/666/714 632/664/712
f 633/665/713 607/511/686 610/517/689 634/666/714
f 636/667/715 635/668/716 637/669/717 638/670/718
f 635/668/716 639/671/719 640/672/720 637/669/717
f 639/671/719 641/673/721 642/674/722 640/672/720
f 641/673/721 643/675/723 644/676/724 642/674/722
f 643/675/723 645/677/725 646/678/726 644/676/724
f 645/677/725 647/679/727 648/680/728 646/678/726
f 647/679/727 649/681/729 650/682/730 648/680/728
f 649/681/729 651/683/731 652/684/732 650/682/730
f 651/683/731 653/818/733 654/819/734 652/684/732
f 653/685/733 655/687/735 656/688/736 654/686/737
f 655/687/735 657/689/738 658/690/739 656/688/736
f 657/689/738 659/691/740 660/692/741 658/690/739
f 659/691/740 661/693/742 662/694/743 660/692/741
f 661/693/742 636/667/715 638/670/718 662/694/743
f 638/670/718 637/669/717 663/695/744 664/696/745
f 637/669/717 640/672/720 665/697/746 663/695/744
f 640/672/720 642/674/722 666/698/747 665/697/746
f 642/674/722 644/676/724 667/699/748 666/698/747
f 644/676/724 646/678/726 668/700/749 667/699/748
f 646/678/726 648/680/728 669/701/750 668/700/749
f 648/680/728 650/682/730 670/702/751 669/701/750
f 650/682/730 652/684/732 671/703/752 670/702/751
f 652/684/732 654/819/734 672/820/753 671/703/752
f 654/686/737 656/688/736 673/705/754 672/704/755
f 656/688/736 658/690/739 674/706/756 673/705/754
f 658/690/739 660/692/741 675/707/757 674/706/756
f 660/692/741 662/694/743 676/708/758 675/707/757
f 662/694/743 638/670/718 664/696/745 676/708/758
f 664/696/745 663/695/744 677/709/759 678/710/760
f 663/695/744 665/697/746 679/711/761 677/709/759
f 665/697/746 666/698/747 680/712/762 679/711/761
f 666/698/747 667/699/748 681/713/763 680/712/762
f 667/699/748 668/700/749 682/714/764 681/713/763
f 668/700/749 669/701/750 683/715/765 682/714/764
f 669/701/750 670/702/751 684/716/766 683/715/765
f 670/702/751 671/703/752 685/717/767 684/716/766
f 671/703/752 672/820/753 686/824/768 685/717/767
f 672/704/755 673/705/754 687/719/769 686/718/770
f 673/705/754 674/706/756 688/720/771 687/719/769
f 674/706/756 675/707/757 689/721/772 688/720/771
f 675/707/757 676/708/758 690/722/773 689/721/772
f 676/708/758 664/696/745 678/710/760 690/722/773
f 678/710/760 677/709/759 691/723/774 692/724/775
f 677/709/759 679/711/761 693/725/776 691/723/774
f 679/711/761 680/712/762 694/726/777 693/725/776
f 680/712/762 681/713/763 695/727/778 694/726/777
f 681/713/763 682/714/764 696/728/779 695/727/778
f 682/714/764 683/715/765 697/729/780 696/728/779
f 683/715/765 684/716/766 698/730/781 697/729/780
f 684/716/766 685/717/767 699/731/782 698/730/781
f 685/717/767 686/824/768 700/846/783 699/731/782
f 686/718/770 687/719/769 701/733/784 700/732/785
f 687/719/769 688/720/771 702/734/786 701/733/784
f 688/720/771 689/721/772 703/735/787 702/734/786
f 689/721/772 690/722/773 704/736/788 703/735/787
f 690/722/773 678/710/760 692/724/775 704/736/788
f 692/724/775 691/723/774 608/512/687 607/511/686
f 691/723/774 693/725/776 611/519/690 608/512/687
f 693/725/776 694/726/777 613/523/692 611/519/690
f 694/726/777 695/727/778 615/528/694 613/523/692
f 695/727/778 696/728/779 617/532/696 615/528/694
f 696/728/779 697/729/780 619/536/698 617/532/696
f 697/729/780 698/730/781 621/653/700 619/536/698
f 698/730/781 699/731/782 623/655/702 621/653/700
f 699/731/782 700/846/783 625/657/704 623/655/702
f 700/732/785 701/733/784 627/659/707 625/847/706
f 701/733/784 702/734/786 629/661/709 627/659/707
f 702/734/786 703/735/787 631/663/711 629/661/709
f 703/735/787 704/736/788 633/665/713 631/663/711
f 704/736/788 692/724/775 607/511/686 633/665/713
f 470/639/533 471/640/535 512/518/586 511/516/585
f 469/641/531 470/639/533 511/516/585 514/522/588
f 468/642/528 469/641/531 514/522/588 516/527/590
f 467/643/529 468/642/528 516/527/590 518/531/592
f 480/644/553 467/643/529 518/531/592 520/535/594
f 479/645/551 480/644/553 520/535/594 522/539/596
f 478/646/549 479/645/551 522/539/596 524/541/598
f 477/647/547 478/646/549 524/541/598 526/543/600
f 476/648/545 477/647/547 526/543/600 528/545/602
f 475/649/543 476/648/545 528/545/602 530/547/604
f 474/650/541 475/649/543 530/547/604 532/549/606
f 473/651/539 474/650/541 532/549/606 534/855/608
f 472/652/537 473/856/539 534/551/608 536/553/611
f 471/640/535 472/652/537 536/553/611 512/518/586
f 440/751/499 441/752/502 538/555/613 537/554/612
f 441/752/502 442/753/504 541/561/616 538/555/613
f 442/753/504 443/754/507 543/564/618 541/561/616
f 443/754/507 444/755/509 545/568/620 543/564/618
f 444/755/509 445/756/511 547/572/622 545/568/620
f 445/756/511 446/757/513 549/576/624 547/572/622
f 446/757/513 447/758/515 551/580/626 549/576/624
f 447/758/515 448/759/517 553/585/628 551/580/626
f 448/759/517 449/760/519 555/587/630 553/585/628
f 449/760/519 450/761/521 557/589/632 555/587/630
f 450/761/521 451/762/523 559/591/634 557/589/632
f 451/762/523 452/854/525 561/853/636 559/591/634
f 452/763/525 439/764/500 563/595/638 561/593/636
f 439/764/500 440/751/499 537/554/612 563/595/638
f 495/737/557 496/738/556 610/517/689 609/515/688
f 508/739/582 495/737/557 609/515/688 612/521/691
f 507/740/580 508/739/582 612/521/691 614/526/693
f 506/741/578 507/740/580 614/526/693 616/530/695
f 505/742/576 506/741/578 616/530/695 618/534/697
f 504/743/574 505/742/576 618/534/697 620/538/699
f 503/744/572 504/743/574 620/538/699 622/654/701
f 502/745/570 503/744/572 622/654/701 624/656/703
f 501/746/568 502/745/570 624/656/703 626/816/705
f 500/747/566 501/815/568 626/658/705 628/660/708
f 499/748/564 500/747/566 628/660/708 630/662/710
f 498/749/561 499/748/564 630/662/710 632/664/712
f 497/750/559 498/749/561 632/664/712 634/666/714
f 496/738/556 497/750/559 634/666/714 610/517/689
f 454/765/527 453/766/526 635/668/716 636/667/715
f 453/766/526 466/767/552 639/671/719 635/668/716
f 466/767/552 465/768/550 641/673/721 639/671/719
f 465/768/550 464/769/548 643/675/723 641/673/721
f 464/769/548 463/770/546 645/677/725 643/675/723
f 463/770/546 462/771/544 647/679/727 645/677/725
f 462/771/544 461/772/542 649/681/729 647/679/727
f 461/772/542 460/773/540 651/683/731 649/681/729
f 460/773/540 459/817/538 653/818/733 651/683/731
f 459/774/538 458/775/536 655/687/735 653/685/733
f 458/775/536 457/776/534 657/689/738 655/687/735
f 457/776/534 456/777/532 659/691/740 657/689/738
f 456/777/532 455/778/530 661/693/742 659/691/740
f 455/778/530 454/765/527 636/667/715 661/693/742
