# This file uses centimeters as units for non-parametric coordinates.

mtllib Standee_Props.mtl
g default
v -42.924927 5.184547 42.924927
v -44.443443 5.184547 39.258900
v -42.924927 1.518522 39.258900
v -39.258900 0.000004 39.258900
v -39.258900 1.518522 42.924927
v -39.258900 5.184547 44.443443
v -42.924927 26.679518 42.924927
v -39.258900 26.679518 44.443443
v -39.258900 30.345543 42.924927
v -39.258900 31.864061 39.258900
v -42.924927 30.345543 39.258900
v -44.443443 26.679518 39.258900
v -42.924927 26.679518 -42.924927
v -44.443443 26.679518 -39.258900
v -42.924927 30.345543 -39.258900
v -39.258900 31.864061 -39.258900
v -39.258900 30.345543 -42.924927
v -39.258900 26.679518 -44.443443
v -42.924927 5.184547 -42.924927
v -39.258900 5.184547 -44.443443
v -39.258900 1.518522 -42.924927
v -39.258900 0.000004 -39.258900
v -42.924927 1.518522 -39.258900
v -44.443443 5.184547 -39.258900
v 42.924927 17.790026 42.924927
v 44.443443 17.790026 39.258900
v 42.924927 21.456051 39.258900
v 39.258900 22.974569 39.258900
v 39.258900 21.456051 42.924927
v 39.258900 17.790026 44.443443
v 42.924927 17.790026 -42.924927
v 39.258900 17.790026 -44.443443
v 39.258900 21.456051 -42.924927
v 39.258900 22.974569 -39.258900
v 42.924927 21.456051 -39.258900
v 44.443443 17.790026 -39.258900
v 42.924927 5.184547 42.924927
v 39.258900 5.184547 44.443443
v 39.258900 1.518522 42.924927
v 39.258900 0.000004 39.258900
v 42.924927 1.518522 39.258900
v 44.443443 5.184547 39.258900
v 42.924927 5.184547 -42.924927
v 44.443443 5.184547 -39.258900
v 42.924927 1.518522 -39.258900
v 39.258900 0.000004 -39.258900
v 39.258900 1.518522 -42.924927
v 39.258900 5.184547 -44.443443
v -42.251152 2.192295 42.251152
v -42.251152 29.671770 42.251152
v -42.251152 29.671770 -42.251152
v -42.251152 2.192295 -42.251152
v 42.251152 20.782278 42.251152
v 42.251152 20.782278 -42.251152
v 42.251152 2.192295 42.251152
v 42.251152 2.192295 -42.251152
v -29.479109 1.518522 42.924927
v -27.623156 1.518522 42.924927
v -26.066278 1.518522 42.924927
v -29.479109 5.184547 44.443443
v -27.623156 5.184547 44.443443
v -26.066278 5.184547 44.443443
v -26.066278 0.000004 39.258900
v -27.623156 0.000004 39.258900
v -29.479109 0.000004 39.258900
v -26.983496 31.864063 39.258900
v -25.181248 31.456615 39.258900
v -23.729542 30.313519 39.258900
v -27.707087 30.345545 42.924927
v -25.904839 29.938097 42.924927
v -24.453133 28.795000 42.924927
v -26.066278 24.964052 44.443443
v -27.623156 26.228834 44.443443
v -29.479109 26.679520 44.443443
v -19.034929 24.525116 39.258900
v -17.583223 23.382019 39.258900
v -15.780975 22.974571 39.258900
v -19.758520 23.006598 42.924927
v -18.306814 21.863501 42.924927
v -16.504566 21.456053 42.924927
v -18.226349 17.790028 44.443443
v -20.082302 18.240713 44.443443
v -21.639179 19.505495 44.443443
v -27.707087 30.345545 -42.924927
v -25.904839 29.938097 -42.924927
v -24.453133 28.795000 -42.924927
v -29.479109 26.679520 -44.443443
v -27.623156 26.228834 -44.443443
v -26.066278 24.964052 -44.443443
v -23.729542 30.313519 -39.258900
v -25.181248 31.456615 -39.258900
v -26.983496 31.864063 -39.258900
v -29.479109 0.000004 -39.258900
v -27.623156 0.000004 -39.258900
v -26.066278 0.000004 -39.258900
v -29.479109 1.518522 -42.924927
v -27.623156 1.518522 -42.924927
v -26.066278 1.518522 -42.924927
v -26.066278 5.184547 -44.443443
v -27.623156 5.184547 -44.443443
v -29.479109 5.184547 -44.443443
v -21.639179 0.000004 -39.258900
v -20.082302 0.000004 -39.258900
v -18.226349 0.000004 -39.258900
v -21.639179 1.518522 -42.924927
v -20.082302 1.518522 -42.924927
v -18.226349 1.518522 -42.924927
v -18.226349 5.184547 -44.443443
v -20.082302 5.184547 -44.443443
v -21.639179 5.184547 -44.443443
v -15.780975 22.974571 -39.258900
v -17.583223 23.382019 -39.258900
v -19.034929 24.525116 -39.258900
v -16.504566 21.456053 -42.924927
v -18.306814 21.863501 -42.924927
v -19.758520 23.006598 -42.924927
v -21.639179 19.505495 -44.443443
v -20.082302 18.240713 -44.443443
v -18.226349 17.790028 -44.443443
v -18.226349 0.000004 39.258900
v -20.082302 0.000004 39.258900
v -21.639179 0.000004 39.258900
v -18.226349 1.518522 42.924927
v -20.082302 1.518522 42.924927
v -21.639179 1.518522 42.924927
v -21.639179 5.184547 44.443443
v -20.082302 5.184547 44.443443
v -18.226349 5.184547 44.443443
vt 0.360418 0.040677
vt 0.139582 0.040677
vt 0.639582 0.193584
vt 0.860418 0.193584
vt 0.860418 0.056416
vt 0.639582 0.056416
vt 0.139582 0.209323
vt 0.360418 0.209323
vt 0.376431 0.038596
vt 0.375000 0.990742
vt 0.365742 0.000000
vt 0.387174 1.000000
vt 0.376431 0.211404
vt 0.365742 0.250000
vt 0.375000 0.259258
vt 0.125000 0.221735
vt 0.375000 0.528265
vt 0.375000 0.490742
vt 0.134258 0.250000
vt 0.375000 0.721735
vt 0.125000 0.028265
vt 0.134258 0.000000
vt 0.375000 0.759258
vt 0.625000 0.197483
vt 0.625000 0.259258
vt 0.634258 0.250000
vt 0.625000 0.541569
vt 0.875000 0.208431
vt 0.865742 0.250000
vt 0.625000 0.490742
vt 0.625000 0.052517
vt 0.615868 -0.000000
vt 0.634258 0.000000
vt 0.625000 0.990742
vt 0.875000 0.041569
vt 0.625000 0.708431
vt 0.625000 0.759258
vt 0.865742 0.000000
vt 0.375000 0.000000
vt 0.375000 1.000000
vt 0.375000 0.250000
vt 0.125000 0.250000
vt 0.375000 0.500000
vt 0.375000 0.750000
vt 0.125000 0.000000
vt 0.625000 0.250000
vt 0.625000 0.500000
vt 0.875000 0.250000
vt 0.625000 0.000000
vt 0.625000 1.000000
vt 0.875000 0.000000
vt 0.625000 0.750000
vt 0.444375 1.000000
vt 0.448125 0.000000
vt 0.391916 0.240526
vt 0.435574 0.264582
vt 0.392987 0.209323
vt 0.435046 0.248604
vt 0.391758 0.740228
vt 0.434939 0.764582
vt 0.392987 0.709323
vt 0.434751 0.748508
vt 0.610763 0.519468
vt 0.455615 0.485418
vt 0.610418 0.556416
vt 0.455557 0.500673
vt 0.615868 1.000000
vt 0.454858 0.985418
vt 0.610418 0.056416
vt 0.455024 0.000000
vt 0.392987 0.040677
vt 0.426916 0.209323
vt 0.392987 0.264582
vt 0.435574 0.485418
vt 0.434939 0.709323
vt 0.392987 0.540677
vt 0.392987 0.764582
vt 0.434939 0.985418
vt 0.454858 0.056416
vt 0.610418 0.193584
vt 0.455615 0.264582
vt 0.610418 0.485418
vt 0.610418 0.693584
vt 0.452967 0.564299
vt 0.454858 0.764582
vt 0.610418 0.985418
vt 0.444375 0.044611
vt 0.444825 0.190036
vt 0.443808 0.264582
vt 0.448692 0.485418
vt 0.448125 0.697518
vt 0.436534 0.545289
vt 0.444375 0.764582
vt 0.448125 0.985418
vt 0.387174 0.000000
vt 0.434939 0.040677
vt 0.392987 0.985418
vt 0.434051 1.000000
vt 0.443808 0.250000
vt 0.448692 0.264582
vt 0.436534 0.204711
vt 0.448692 0.250000
vt 0.391723 0.509984
vt 0.426916 0.540677
vt 0.392987 0.485418
vt 0.435018 0.501471
vt 0.444375 0.750000
vt 0.448125 0.764582
vt 0.444375 0.705389
vt 0.448125 0.750000
vt 0.444375 0.000000
vt 0.448125 0.052482
vt 0.444375 0.985418
vt 0.448125 1.000000
vt 0.610737 0.231009
vt 0.452967 0.185701
vt 0.610418 0.264582
vt 0.455556 0.249344
vt 0.443808 0.500000
vt 0.444825 0.559964
vt 0.443808 0.485418
vt 0.448692 0.500000
vt 0.610767 0.730657
vt 0.454858 0.693584
vt 0.610418 0.764582
vt 0.454869 0.749414
vt 0.434051 0.000000
vt 0.455024 1.000000
vt 0.442500 0.000000
vt 0.442500 1.000000
vt 0.442500 0.040677
vt 0.442500 0.985418
vt 0.442500 0.264582
vt 0.442500 0.250000
vt 0.433929 0.209323
vt 0.450000 0.264582
vt 0.450000 0.250000
vt 0.447430 0.185424
vt 0.442500 0.500000
vt 0.433929 0.540677
vt 0.442500 0.485418
vt 0.442500 0.764582
vt 0.442500 0.750000
vt 0.442500 0.709323
vt 0.450000 0.764582
vt 0.450000 0.750000
vt 0.450000 0.693584
vt 0.450000 0.485418
vt 0.450000 0.500000
vt 0.447430 0.564576
vt 0.450000 0.985418
vt 0.450000 1.000000
vt 0.450000 0.000000
vt 0.450000 0.056416
vn -0.998080 -0.059408 0.017542
vn -0.924966 -0.038688 0.378076
vn -0.924966 0.038688 0.378076
vn -0.998080 0.059408 0.017542
vn -0.378076 -0.038688 0.924966
vn -0.107575 -0.054830 0.992684
vn -0.106533 0.058249 0.992602
vn -0.378076 0.038688 0.924966
vn -0.110845 -0.993698 0.016683
vn -0.381370 -0.924351 0.011541
vn -0.381370 -0.924351 -0.011541
vn -0.110845 -0.993698 -0.016683
vn -0.924351 -0.381369 0.011541
vn -0.998080 -0.059408 -0.017542
vn -0.924351 -0.381369 -0.011541
vn -0.924351 0.381369 0.011541
vn -0.924351 0.381369 -0.011541
vn -0.998080 0.059408 -0.017542
vn -0.381370 0.924351 0.011541
vn -0.093707 0.995462 0.016575
vn -0.093707 0.995462 -0.016575
vn -0.381370 0.924351 -0.011541
vn -0.924966 0.038688 -0.378076
vn -0.924966 -0.038688 -0.378076
vn -0.378076 0.038688 -0.924966
vn -0.106532 0.058249 -0.992602
vn -0.107575 -0.054830 -0.992684
vn -0.378076 -0.038688 -0.924966
vn 0.995639 0.091724 0.017008
vn 0.924953 0.061054 0.375147
vn 0.924953 -0.061054 0.375147
vn 0.995639 -0.091724 0.017008
vn 0.375146 0.061054 0.924953
vn 0.022952 0.090288 0.995651
vn 0.022877 -0.091305 0.995560
vn 0.375146 -0.061054 0.924953
vn 0.025467 0.999510 0.018191
vn 0.381370 0.924351 0.011541
vn 0.381370 0.924351 -0.011541
vn 0.025467 0.999510 -0.018191
vn 0.924351 0.381369 0.011541
vn 0.995639 0.091724 -0.017008
vn 0.924351 0.381369 -0.011541
vn 0.022952 0.090288 -0.995651
vn 0.375147 0.061054 -0.924953
vn 0.375146 -0.061054 -0.924953
vn 0.022877 -0.091305 -0.995560
vn 0.924953 0.061054 -0.375147
vn 0.995639 -0.091724 -0.017008
vn 0.924953 -0.061054 -0.375147
vn 0.924351 -0.381369 0.011541
vn 0.924351 -0.381369 -0.011541
vn 0.381370 -0.924351 0.011541
vn 0.024455 -0.999537 0.018098
vn 0.024455 -0.999537 -0.018098
vn 0.381370 -0.924351 -0.011541
vn -0.074780 -0.373252 0.924711
vn -0.325270 -0.325269 0.887919
vn -0.887919 -0.325269 0.325270
vn -0.074780 -0.924711 0.373253
vn -0.325269 -0.887919 0.325270
vn -0.887919 0.325269 0.325269
vn -0.069858 0.373941 0.924818
vn -0.325270 0.325269 0.887919
vn -0.063928 0.924916 0.374757
vn -0.325269 0.887919 0.325269
vn -0.069858 0.373941 -0.924818
vn -0.325269 0.325269 -0.887919
vn -0.887919 0.325270 -0.325269
vn -0.063928 0.924916 -0.374757
vn -0.325269 0.887919 -0.325269
vn -0.887919 -0.325269 -0.325270
vn -0.074780 -0.373252 -0.924711
vn -0.325270 -0.325269 -0.887919
vn -0.074780 -0.924711 -0.373253
vn -0.325269 -0.887919 -0.325270
vn 0.015798 0.380872 0.924493
vn 0.325270 0.325269 0.887919
vn 0.887919 0.325270 0.325270
vn 0.016130 0.924503 0.380834
vn 0.325269 0.887919 0.325270
vn 0.887919 0.325269 -0.325269
vn 0.015798 0.380872 -0.924493
vn 0.325270 0.325269 -0.887918
vn 0.016130 0.924503 -0.380834
vn 0.325269 0.887919 -0.325269
vn 0.887919 -0.325269 0.325270
vn 0.015572 -0.380899 0.924486
vn 0.325270 -0.325269 0.887919
vn 0.015572 -0.924486 0.380899
vn 0.325269 -0.887919 0.325270
vn 0.015572 -0.380899 -0.924486
vn 0.325270 -0.325269 -0.887919
vn 0.887919 -0.325269 -0.325270
vn 0.015572 -0.924486 -0.380899
vn 0.325269 -0.887919 -0.325270
vn 0.000000 -0.923880 0.382683
vn 0.000000 -0.923880 0.382683
vn 0.000000 -0.999829 0.018474
vn 0.000000 -0.999829 0.018474
vn 0.000000 -0.923880 0.382683
vn 0.000000 -0.999829 0.018474
vn 0.273597 0.253053 0.927959
vn 0.152694 0.313023 0.937391
vn 0.034950 0.070778 0.996880
vn 0.104465 0.090266 0.990424
vn 0.018461 0.374707 0.926960
vn 0.001893 0.076336 0.997080
vn 0.001956 0.381928 0.924190
vn 0.154559 0.316539 0.935903
vn 0.033601 0.068711 0.997071
vn 0.000796 0.072778 0.997348
vn 0.285173 0.248105 0.925808
vn 0.053740 0.049179 0.997343
vn 0.692937 0.607450 -0.388384
vn 0.390977 0.820500 -0.417033
vn 0.430089 0.902580 -0.019315
vn 0.747918 0.663563 -0.017433
vn 0.023610 0.921966 -0.386551
vn 0.029152 0.999436 -0.016692
vn 0.000000 -0.382683 -0.923880
vn 0.000000 -0.382683 -0.923880
vn 0.000001 -0.061750 -0.998092
vn 0.000000 -0.070158 -0.997536
vn 0.000000 -0.382683 -0.923880
vn -0.000000 -0.060328 -0.998179
vn 0.000000 -0.382683 -0.923880
vn 0.000000 -0.382683 -0.923880
vn 0.000000 -0.089555 -0.995982
vn 0.000000 -0.092880 -0.995677
vn 0.000000 -0.382683 -0.923880
vn -0.000000 -0.076309 -0.997084
vn 0.285173 0.248105 -0.925808
vn 0.154559 0.316539 -0.935903
vn 0.033601 0.068711 -0.997071
vn 0.053740 0.049179 -0.997343
vn 0.001956 0.381928 -0.924190
vn 0.000796 0.072778 -0.997348
vn 0.000000 -0.382683 0.923880
vn 0.000000 -0.382683 0.923880
vn 0.000000 -0.089555 0.995982
vn -0.000001 -0.076309 0.997084
vn 0.000000 -0.382683 0.923880
vn 0.000000 -0.092880 0.995677
vn 0.023609 0.921966 0.386551
vn 0.029152 0.999436 0.016692
vn 0.000000 -0.923880 -0.382683
vn 0.000000 -0.999829 -0.018474
vn 0.007817 0.923305 -0.383989
vn 0.007111 0.999763 -0.020576
vn 0.000000 -0.923880 0.382683
vn 0.000000 -0.999829 0.018474
vn -0.000000 -0.060328 0.998179
vn 0.001893 0.076336 -0.997080
vn 0.007111 0.999763 0.020576
vn 0.000000 -0.999829 -0.018474
vn 0.000000 -0.070158 0.997536
vn 0.747918 0.663563 0.017433
vn 0.748241 0.663118 0.020243
vn 0.748241 0.663118 -0.020243
vn 0.104465 0.090266 -0.990424
vn 0.000000 -0.999829 -0.018474
vn 0.000000 -0.999829 -0.018474
vn 0.000000 -0.999829 0.018474
vn 0.000000 -0.382683 0.923880
vn 0.692937 0.607450 0.388384
vn 0.684837 0.615477 0.390110
vn 0.018461 0.374707 -0.926960
vn 0.000000 -0.923880 -0.382683
vn 0.000000 -0.923880 -0.382683
vn 0.000000 -0.382683 0.923880
vn 0.000000 -0.923880 0.382683
vn 0.007817 0.923305 0.383989
vn 0.273598 0.253053 -0.927959
vn 0.684837 0.615477 -0.390110
vn 0.000000 -0.923880 -0.382683
vn 0.000000 -0.382683 0.923880
vn 0.000001 -0.061750 0.998092
vn 0.430089 0.902580 0.019315
vn 0.390977 0.820500 0.417033
vn 0.430069 0.902538 0.021606
vn 0.390977 0.820500 0.417033
vn 0.152695 0.313023 -0.937390
vn 0.034950 0.070778 -0.996880
vn 0.000000 -0.999829 -0.018474
vn 0.000000 -0.923880 -0.382683
vn 0.000000 -0.999829 -0.018474
vn 0.000000 -0.923880 -0.382683
vn 0.430069 0.902538 -0.021606
vn 0.390978 0.820500 -0.417032
vn 0.000000 -0.999829 0.018474
vn 0.000000 -0.923880 0.382683
s 1
g pCube7 Bevel Standee
usemtl initialShadingGroup
f 2/1/1 1/9/2 7/13/3 12/8/4
s 2
f 1/9/5 6/71/6 8/57/7 7/13/8
s 3
f 4/97/9 3/10/10 23/23/11 22/77/12
s 1
f 3/11/13 2/1/1 24/2/14 23/22/15
f 12/8/4 11/14/16 15/19/17 14/7/18
s 4
f 11/15/19 10/73/20 16/105/21 15/18/22
s 1
f 14/7/18 13/16/23 19/21/24 24/2/14
s 5
f 13/17/25 18/76/26 20/61/27 19/20/28
s 6
f 26/3/29 25/24/30 37/31/31 42/6/32
s 2
f 25/24/33 30/80/34 38/69/35 37/31/36
s 4
f 28/117/37 27/25/38 35/30/39 34/82/40
s 6
f 27/26/41 26/3/29 36/4/42 35/29/43
s 5
f 32/65/44 31/27/45 43/36/46 48/83/47
s 6
f 31/28/48 36/4/42 44/5/49 43/35/50
f 42/6/32 41/33/51 45/38/52 44/5/49
s 3
f 41/34/53 40/86/54 46/125/55 45/37/56
s 6
f 42/6/32 44/5/49 36/4/42 26/3/29
s 1
f 14/7/18 24/2/14 2/1/1 12/8/4
s 2
f 5/95/57 6/71/6 1/9/5 49/39/58
s 1
f 1/9/2 2/1/1 3/11/13 49/39/59
s 3
f 3/10/10 4/97/9 5/12/60 49/40/61
s 1
f 11/14/16 12/8/4 7/13/3 50/41/62
s 2
f 7/13/8 8/57/7 9/55/63 50/41/64
s 4
f 9/55/65 10/73/20 11/15/19 50/41/66
s 5
f 17/103/67 18/76/26 13/17/25 51/43/68
s 1
f 13/16/23 14/7/18 15/19/17 51/42/69
s 4
f 15/18/22 16/105/21 17/103/70 51/43/71
s 1
f 23/22/15 24/2/14 19/21/24 52/45/72
s 5
f 19/20/28 20/61/27 21/59/73 52/44/74
s 3
f 21/59/75 22/77/12 23/23/11 52/44/76
s 2
f 29/115/77 30/80/34 25/24/33 53/46/78
s 6
f 25/24/30 26/3/29 27/26/41 53/46/79
s 4
f 27/25/38 28/117/37 29/115/80 53/46/81
s 6
f 35/29/43 36/4/42 31/28/48 54/48/82
s 5
f 31/27/45 32/65/44 33/63/83 54/47/84
s 4
f 33/63/85 34/82/40 35/30/39 54/47/86
s 6
f 41/33/51 42/6/32 37/31/31 55/49/87
s 2
f 37/31/36 38/69/35 39/32/88 55/49/89
s 3
f 39/67/90 40/86/54 41/34/53 55/50/91
s 5
f 47/123/92 48/83/47 43/36/46 56/52/93
s 6
f 43/35/50 44/5/49 45/38/52 56/51/94
s 3
f 45/37/56 46/125/55 47/123/95 56/52/96
f 59/53/97 58/130/98 64/132/99 63/113/100
f 58/130/98 57/98/101 65/78/102 64/132/99
s 2
f 71/99/103 70/134/104 73/135/105 72/101/106
f 70/134/104 69/58/107 74/72/108 73/135/105
f 80/118/109 79/137/110 82/138/111 81/116/112
f 79/137/110 78/102/113 83/88/114 82/138/111
s 4
f 86/119/115 85/139/116 91/141/117 90/121/118
f 85/139/116 84/106/119 92/74/120 91/141/117
s 5
f 98/107/121 97/143/122 100/144/123 99/109/124
f 97/143/122 96/62/125 101/75/126 100/144/123
f 107/126/127 106/146/128 109/147/129 108/124/130
f 106/146/128 105/110/131 110/91/132 109/147/129
f 116/122/133 115/149/134 118/150/135 117/120/136
f 115/149/134 114/66/137 119/84/138 118/150/135
s 2
f 125/54/139 124/153/140 127/154/141 126/112/142
f 124/153/140 123/70/143 128/79/144 127/154/141
s 4
f 10/73/20 9/55/65 69/58/145 66/56/146
s 2
f 9/55/63 8/57/7 74/72/108 69/58/107
s 3
f 22/77/12 21/59/75 96/62/147 93/60/148
s 5
f 21/59/73 20/61/27 101/75/126 96/62/125
s 4
f 34/82/40 33/63/85 114/66/149 111/64/150
s 5
f 33/63/83 32/65/44 119/84/138 114/66/137
s 3
f 40/86/54 39/67/90 123/128/151 120/68/152
s 2
f 39/32/88 38/69/35 128/79/144 123/70/143
f 6/71/6 60/96/153 74/72/108 8/57/7
s 4
f 10/73/20 66/56/146 92/74/120 16/105/21
s 5
f 87/104/154 101/75/126 20/61/27 18/76/26
s 3
f 22/77/12 93/60/148 65/78/102 4/97/9
s 2
f 128/79/144 38/69/35 30/80/34 81/116/112
s 4
f 111/64/150 77/81/155 28/117/37 34/82/40
s 5
f 32/65/44 48/83/47 108/124/130 119/84/138
s 3
f 120/68/152 104/85/156 46/125/55 40/86/54
s 2
f 62/87/157 126/112/142 83/88/114 72/101/106
s 4
f 90/121/118 68/89/158 75/100/159 113/90/160
s 5
f 117/120/136 110/91/132 99/109/124 89/92/161
s 3
f 63/113/100 95/93/162 102/108/163 122/94/164
s 2
f 6/71/6 5/95/57 57/127/165 60/96/153
s 3
f 5/12/60 4/97/9 65/78/102 57/98/101
s 4
f 68/89/158 71/99/166 78/102/167 75/100/159
s 2
f 71/99/103 72/101/106 83/88/114 78/102/113
s 5
f 18/76/26 17/103/67 84/106/168 87/104/154
s 4
f 17/103/70 16/105/21 92/74/120 84/106/119
s 3
f 95/93/162 98/107/169 105/110/170 102/108/163
s 5
f 98/107/121 99/109/124 110/91/132 105/110/131
s 2
f 62/87/157 59/111/171 125/54/139 126/112/142
s 3
f 59/53/97 63/113/100 122/94/164 125/114/172
s 2
f 30/80/34 29/115/77 80/118/109 81/116/112
s 4
f 29/115/80 28/117/37 77/81/155 80/118/173
s 5
f 89/92/161 86/119/174 116/122/133 117/120/136
s 4
f 86/119/115 90/121/118 113/90/160 116/122/175
s 5
f 48/83/47 47/123/92 107/126/127 108/124/130
s 3
f 47/123/95 46/125/55 104/85/156 107/126/176
s 2
f 57/127/165 58/129/177 61/131/178 60/96/153
f 58/129/177 59/111/171 62/87/157 61/131/178
s 4
f 68/89/158 67/133/179 70/134/180 71/99/166
f 67/133/179 66/56/146 69/58/145 70/134/180
s 2
f 60/96/153 61/131/178 73/135/105 74/72/108
f 61/131/178 62/87/157 72/101/106 73/135/105
s 4
f 77/81/155 76/136/181 79/137/182 80/118/173
f 76/136/181 75/100/159 78/102/167 79/137/182
s 5
f 84/106/168 85/139/183 88/140/184 87/104/154
f 85/139/183 86/119/174 89/92/161 88/140/184
s 4
f 66/56/146 67/133/179 91/141/117 92/74/120
f 67/133/179 68/89/158 90/121/118 91/141/117
s 3
f 63/113/100 64/132/99 94/142/185 95/93/162
f 64/132/99 65/78/102 93/60/148 94/142/185
f 95/93/162 94/142/185 97/143/186 98/107/169
f 94/142/185 93/60/148 96/62/147 97/143/186
s 5
f 87/104/154 88/140/184 100/144/123 101/75/126
f 88/140/184 89/92/161 99/109/124 100/144/123
s 3
f 104/85/156 103/145/187 106/146/188 107/126/176
f 103/145/187 102/108/163 105/110/170 106/146/188
s 4
f 75/100/159 76/136/181 112/148/189 113/90/160
f 76/136/181 77/81/155 111/64/150 112/148/189
f 113/90/160 112/148/189 115/149/190 116/122/175
f 112/148/189 111/64/150 114/66/149 115/149/190
s 5
f 108/124/130 109/147/129 118/150/135 119/84/138
f 109/147/129 110/91/132 117/120/136 118/150/135
s 3
f 102/108/163 103/145/187 121/151/191 122/94/164
f 103/145/187 104/85/156 120/68/152 121/151/191
f 122/94/164 121/151/191 124/152/192 125/114/172
f 121/151/191 120/68/152 123/128/151 124/152/192
s 2
f 81/116/112 82/138/111 127/154/141 128/79/144
f 82/138/111 83/88/114 126/112/142 127/154/141
g default
v -10.432705 71.573380 -39.664776
v -10.432705 36.156440 -39.664776
v 10.432705 36.156440 -39.664776
v 10.432705 71.573380 -39.664776
v -37.860469 9.268926 33.504490
v -33.504490 7.464619 33.504490
v -33.504490 9.268926 37.860469
v -33.504490 13.624905 39.664776
v -37.860469 13.624905 37.860469
v -39.664776 13.624905 33.504490
v -10.432705 13.624905 39.664776
v -10.432705 9.268926 37.860469
v -10.432705 7.464619 33.504490
v -37.860469 83.449682 37.860469
v -33.504490 83.449682 39.664776
v -33.504490 87.805663 37.860469
v -33.504490 89.609968 33.504490
v -37.860469 87.805663 33.504490
v -39.664776 83.449682 33.504490
v -10.432705 83.449682 39.664776
v -10.432705 87.805663 37.860469
v -10.432705 89.609968 33.504490
v -37.860469 83.449682 -37.860469
v -39.664776 83.449682 -33.504490
v -37.860469 87.805663 -33.504490
v -33.504490 89.609968 -33.504490
v -33.504490 87.805663 -37.860469
v -33.504490 83.449682 -39.664776
v -10.432705 89.609968 -33.504490
v -10.432705 87.805663 -37.860469
v -10.432705 83.449682 -39.664776
v -37.860469 13.624905 -37.860469
v -33.504490 13.624905 -39.664776
v -33.504490 9.268926 -37.860469
v -33.504490 7.464619 -33.504490
v -37.860469 9.268926 -33.504490
v -39.664776 13.624905 -33.504490
v -10.432705 13.624905 -39.664776
v -10.432705 9.268926 -37.860469
v -10.432705 7.464619 -33.504490
v -39.664776 36.156440 33.504490
v -37.860469 36.156440 37.860469
v -33.504490 36.156440 39.664776
v 33.504490 9.268926 37.860469
v 33.504490 7.464619 33.504490
v 37.860469 9.268926 33.504490
v 39.664776 13.624905 33.504490
v 37.860469 13.624905 37.860469
v 33.504490 13.624905 39.664776
v 39.664776 36.156440 33.504490
v 37.860469 36.156440 37.860469
v 33.504490 36.156440 39.664776
v 33.504490 87.805663 37.860469
v 33.504490 83.449682 39.664776
v 37.860469 83.449682 37.860469
v 39.664776 83.449682 33.504490
v 37.860469 87.805663 33.504490
v 33.504490 89.609968 33.504490
v 33.504490 87.805663 -37.860469
v 33.504490 89.609968 -33.504490
v 37.860469 87.805663 -33.504490
v 39.664776 83.449682 -33.504490
v 37.860469 83.449682 -37.860469
v 33.504490 83.449682 -39.664776
v -39.664776 71.573380 -33.504490
v -37.860469 71.573380 -37.860469
v -33.504490 71.573380 -39.664776
v 39.664776 71.573380 -33.504490
v 37.860469 71.573380 -37.860469
v 33.504490 71.573380 -39.664776
v 33.504490 9.268926 -37.860469
v 33.504490 13.624905 -39.664776
v 37.860469 13.624905 -37.860469
v 39.664776 13.624905 -33.504490
v 37.860469 9.268926 -33.504490
v 33.504490 7.464619 -33.504490
v 10.432705 13.624905 39.664776
v 10.432705 9.268926 37.860469
v 10.432705 7.464619 33.504490
v 10.432705 89.609968 33.504490
v 10.432705 87.805663 37.860469
v 10.432705 83.449682 39.664776
v 10.432705 83.449682 -39.664776
v 10.432705 87.805663 -37.860469
v 10.432705 89.609968 -33.504490
v 10.432705 7.464619 -33.504490
v 10.432705 9.268926 -37.860469
v 10.432705 13.624905 -39.664776
v -33.504490 71.573380 39.664776
v -37.860469 71.573380 37.860469
v -39.664776 71.573380 33.504490
v 39.664776 71.573380 33.504490
v 37.860469 71.573380 37.860469
v 33.504490 71.573380 39.664776
v -33.504490 36.156440 -39.664776
v -37.860469 36.156440 -37.860469
v -39.664776 36.156440 -33.504490
v 39.664776 36.156440 -33.504490
v 37.860469 36.156440 -37.860469
v 33.504490 36.156440 -39.664776
v -37.059890 10.069504 37.059890
v -37.059890 87.005087 37.059890
v -37.059890 87.005087 -37.059890
v -37.059890 10.069504 -37.059890
v 37.059890 10.069504 37.059890
v 37.059890 87.005087 37.059890
v 37.059890 87.005087 -37.059890
v 37.059890 10.069504 -37.059890
v 7.932955 69.073633 38.009436
v 8.665115 69.805794 38.932617
v 10.432705 71.573382 39.664776
v -7.932955 38.656191 38.009436
v -8.665115 37.924035 38.932617
v -10.432705 36.156442 39.664776
v -7.932955 69.073633 38.009436
v -8.665115 69.805794 38.932617
v -10.432705 71.573382 39.664776
v 7.932955 38.656191 38.009436
v 8.665115 37.924035 38.932617
v 10.432705 36.156442 39.664776
v -7.566838 68.707512 35.030892
v 7.566838 68.707512 35.030892
v -7.566838 39.022309 35.030892
v 7.566838 39.022309 35.030892
vt 0.394414 0.980586
vt 0.394414 0.012344
vt 0.394414 0.269414
vt 0.144414 0.012344
vt 0.605586 0.980586
vt 0.605586 0.231252
vt 0.644414 0.231252
vt 0.605586 0.737656
vt 0.475000 0.269414
vt 0.394414 0.687500
vt 0.475000 0.687500
vt 0.394414 0.769414
vt 0.475000 0.769414
vt 0.855586 0.012344
vt 0.855586 0.062500
vt 0.355586 0.012344
vt 0.355586 0.062500
vt 0.144414 0.187500
vt 0.355586 0.231252
vt 0.144414 0.231252
vt 0.394414 0.518748
vt 0.475000 0.518748
vt 0.475000 0.562500
vt 0.644414 0.187500
vt 0.525000 0.480586
vt 0.605586 0.269414
vt 0.605586 0.480586
vt 0.605586 0.562500
vt 0.525000 0.562500
vt 0.605586 0.518748
vt 0.525000 0.737656
vt 0.525000 0.687500
vt 0.525000 0.980586
vt 0.355586 0.187500
vt 0.394414 0.562500
vt 0.855586 0.187500
vt 0.475000 0.480586
vt 0.475000 0.737656
vt 0.475000 0.980586
vt 0.525000 0.769414
vt 0.525000 0.518748
vt 0.525000 0.269414
vt 0.144414 0.062500
vt 0.644414 0.062500
vt 0.605586 0.687500
vt 0.394414 0.231252
vt 0.394414 0.480586
vt 0.394414 0.737656
vt 0.644414 0.012344
vt 0.855586 0.231252
vt 0.605586 0.769414
vt 0.375000 0.987474
vt 0.362474 0.000000
vt 0.387734 -0.000000
vt 0.387734 1.000000
vt 0.375000 0.011687
vt 0.475000 1.000000
vt 0.475000 0.000000
vt 0.375000 0.232654
vt 0.393397 0.250273
vt 0.362474 0.250000
vt 0.375000 0.262526
vt 0.475000 0.250000
vt 0.125000 0.237121
vt 0.375000 0.512879
vt 0.375000 0.487474
vt 0.137526 0.250000
vt 0.393397 0.499727
vt 0.475000 0.500000
vt 0.375000 0.741892
vt 0.125000 0.008108
vt 0.393397 0.752899
vt 0.137526 0.000000
vt 0.375000 0.762526
vt 0.475000 0.750000
vt 0.375000 0.062500
vt 0.612266 1.000000
vt 0.612266 -0.000000
vt 0.637526 0.000000
vt 0.625000 0.987474
vt 0.625000 0.011687
vt 0.625000 0.062500
vt 0.606603 0.250273
vt 0.625000 0.232654
vt 0.625000 0.262526
vt 0.637526 0.250000
vt 0.606603 0.499727
vt 0.862474 0.250000
vt 0.625000 0.487474
vt 0.625000 0.512879
vt 0.875000 0.237121
vt 0.375000 0.562500
vt 0.125000 0.187500
vt 0.875000 0.187500
vt 0.625000 0.562500
vt 0.606603 0.752899
vt 0.875000 0.008108
vt 0.625000 0.741892
vt 0.625000 0.762526
vt 0.862474 0.000000
vt 0.525000 1.000000
vt 0.525000 0.000000
vt 0.525000 0.250000
vt 0.525000 0.500000
vt 0.525000 0.750000
vt 0.375000 0.187500
vt 0.625000 0.187500
vt 0.125000 0.062500
vt 0.375000 0.687500
vt 0.625000 0.687500
vt 0.875000 0.062500
vt 0.375000 1.000000
vt 0.375000 0.000000
vt 0.375000 0.250000
vt 0.125000 0.250000
vt 0.375000 0.500000
vt 0.375000 0.750000
vt 0.125000 0.000000
vt 0.625000 1.000000
vt 0.625000 0.000000
vt 0.625000 0.250000
vt 0.625000 0.500000
vt 0.875000 0.250000
vt 0.625000 0.750000
vt 0.875000 0.000000
vt 0.475000 0.012344
vt 0.467122 0.057491
vt 0.394414 0.187500
vt 0.467122 0.195108
vt 0.605586 0.062500
vt 0.532878 0.057491
vt 0.605586 0.012344
vt 0.525000 0.231252
vt 0.532878 0.195108
vt 0.605586 0.187500
vt 0.475000 0.231252
vt 0.525000 0.012344
vt 0.394414 0.062500
vt 0.525000 0.187500
vt 0.475000 0.062500
vt 0.475000 0.187500
vt 0.525000 0.062500
vt 0.475000 0.187500
vt 0.525000 0.187500
vt 0.475000 0.062500
vt 0.525000 0.062500
vt 0.475000 0.187500
vt 0.525000 0.187500
vt 0.475000 0.062500
vt 0.525000 0.062500
vn 0.000000 0.000000 -1.000000
vn 0.000000 0.000000 -1.000000
vn 0.000000 0.000000 -1.000000
vn 0.000000 0.000000 -1.000000
vn -0.064406 -0.997638 0.023899
vn -0.380865 -0.924494 0.015859
vn -0.380865 -0.924494 -0.015859
vn -0.064406 -0.997638 -0.023899
vn -0.924494 -0.380865 0.015859
vn -0.997554 -0.065698 0.023870
vn -0.997554 -0.065698 -0.023870
vn -0.924494 -0.380865 -0.015859
vn -0.062270 -0.063596 0.996031
vn -0.042312 -0.377615 0.924995
vn 0.000000 -0.382684 0.923879
vn 0.000000 -0.066955 0.997756
vn -0.042312 -0.924995 0.377615
vn 0.000000 -0.999681 0.025275
vn 0.000000 -0.923879 0.382684
vn -0.925001 -0.043197 0.377502
vn -0.923879 0.000000 0.382684
vn -0.999681 0.000000 0.025275
vn -0.377502 -0.043197 0.925001
vn -0.065642 0.000000 0.997843
vn -0.382684 0.000000 0.923879
vn -0.059905 0.105447 0.992619
vn -0.373430 0.073521 0.924740
vn -0.382684 0.000000 0.923879
vn -0.065642 0.000000 0.997843
vn -0.924740 0.073521 0.373430
vn -0.993822 0.108601 0.022893
vn -0.999681 0.000000 0.025275
vn -0.923879 0.000000 0.382684
vn -0.924495 0.380865 0.015859
vn -0.924495 0.380865 -0.015859
vn -0.993822 0.108601 -0.022893
vn -0.380865 0.924495 0.015859
vn -0.064406 0.997638 0.023899
vn -0.064406 0.997638 -0.023899
vn -0.380865 0.924495 -0.015859
vn -0.924740 0.073521 -0.373430
vn -0.923879 0.000000 -0.382684
vn -0.999681 0.000000 -0.025275
vn -0.373430 0.073521 -0.924740
vn -0.059905 0.105447 -0.992619
vn -0.065642 0.000000 -0.997843
vn -0.382684 0.000000 -0.923879
vn -0.062270 -0.063596 -0.996031
vn -0.377502 -0.043197 -0.925001
vn -0.382684 0.000000 -0.923879
vn -0.065642 0.000000 -0.997843
vn -0.925001 -0.043197 -0.377502
vn -0.999681 0.000000 -0.025275
vn -0.923879 0.000000 -0.382684
vn 0.997554 -0.065698 0.023870
vn 0.924494 -0.380865 0.015859
vn 0.924494 -0.380865 -0.015859
vn 0.997554 -0.065698 -0.023870
vn 0.380865 -0.924494 0.015859
vn 0.064406 -0.997638 0.023899
vn 0.064406 -0.997638 -0.023899
vn 0.380865 -0.924494 -0.015859
vn 0.065642 0.000000 0.997843
vn 0.382684 0.000000 0.923879
vn 0.382684 0.000000 0.923879
vn 0.065642 0.000000 0.997843
vn 0.923879 0.000000 0.382684
vn 0.999681 0.000000 0.025275
vn 0.999681 0.000000 0.025275
vn 0.923879 0.000000 0.382684
vn 0.993822 0.108601 0.022893
vn 0.924740 0.073521 0.373430
vn 0.373430 0.073521 0.924740
vn 0.059905 0.105447 0.992619
vn 0.064406 0.997638 0.023899
vn 0.380865 0.924495 0.015859
vn 0.380865 0.924495 -0.015859
vn 0.064406 0.997638 -0.023899
vn 0.924495 0.380865 0.015859
vn 0.993822 0.108601 -0.022893
vn 0.924495 0.380865 -0.015859
vn 0.925001 -0.043197 -0.377502
vn 0.923879 0.000000 -0.382684
vn 0.999681 0.000000 -0.025275
vn 0.377502 -0.043197 -0.925001
vn 0.062270 -0.063596 -0.996031
vn 0.065642 0.000000 -0.997843
vn 0.382684 0.000000 -0.923879
vn 0.000000 -0.382684 0.923879
vn 0.000000 -0.066955 0.997756
vn 0.000000 -0.999681 0.025275
vn 0.000000 -0.923879 0.382684
vn 0.000000 0.923879 0.382684
vn 0.000000 0.999681 0.025275
vn 0.000000 0.999681 0.025275
vn 0.000000 0.923879 0.382684
vn 0.000000 0.110475 0.993879
vn 0.000000 0.110475 0.993879
vn 0.000000 0.382684 0.923879
vn 0.000000 0.382684 0.923879
vn 0.000000 0.382684 -0.923879
vn 0.000000 0.110475 -0.993879
vn 0.000000 0.110475 -0.993879
vn 0.000000 0.382684 -0.923879
vn 0.000000 0.999681 -0.025275
vn 0.000000 0.999681 -0.025275
vn 0.000000 0.923879 -0.382684
vn 0.000000 0.923879 -0.382684
vn 0.000000 -0.923879 -0.382684
vn 0.000000 -0.999681 -0.025275
vn 0.000000 -0.999681 -0.025275
vn 0.000000 -0.923879 -0.382684
vn 0.000000 -0.066955 -0.997756
vn 0.000000 -0.066955 -0.997756
vn 0.000000 -0.382684 -0.923879
vn 0.000000 -0.382684 -0.923879
vn 0.999681 0.000000 -0.025275
vn 0.065642 0.000000 -0.997843
vn 0.059905 0.105447 -0.992619
vn -0.042312 0.924996 0.377614
vn -0.042312 0.377615 0.924995
vn -0.042312 0.377615 -0.924996
vn -0.042312 0.924996 -0.377615
vn -0.042312 -0.924995 -0.377615
vn -0.042312 -0.377615 -0.924995
vn 0.062270 -0.063596 0.996031
vn 0.377502 -0.043197 0.925001
vn 0.925001 -0.043197 0.377502
vn 0.373430 0.073521 -0.924740
vn 0.382684 0.000000 -0.923879
vn 0.924740 0.073521 -0.373430
vn 0.923879 0.000000 -0.382684
vn 0.042312 -0.924995 0.377615
vn 0.042312 -0.377615 0.924995
vn 0.042312 0.377615 0.924996
vn 0.042312 0.924996 0.377615
vn 0.042312 0.924996 -0.377614
vn 0.042312 0.377615 -0.924995
vn 0.042312 -0.377615 -0.924995
vn 0.042312 -0.924995 -0.377615
vn -0.887918 -0.325270 0.325269
vn -0.325269 -0.887918 0.325270
vn -0.325270 -0.325269 0.887918
vn -0.887918 0.325270 0.325269
vn -0.325270 0.325269 0.887919
vn -0.325269 0.887919 0.325268
vn -0.325270 0.325269 -0.887919
vn -0.887919 0.325270 -0.325269
vn -0.325269 0.887919 -0.325269
vn -0.887918 -0.325270 -0.325269
vn -0.325270 -0.325269 -0.887918
vn -0.325269 -0.887918 -0.325270
vn 0.325270 -0.325269 0.887918
vn 0.325269 -0.887918 0.325270
vn 0.887918 -0.325270 0.325269
vn 0.325269 0.887919 0.325269
vn 0.325270 0.325269 0.887919
vn 0.887919 0.325270 0.325269
vn 0.325270 0.325269 -0.887919
vn 0.325269 0.887919 -0.325268
vn 0.887918 0.325270 -0.325269
vn 0.325269 -0.887918 -0.325270
vn 0.325270 -0.325269 -0.887918
vn 0.887918 -0.325270 -0.325269
vn 0.006971 0.003956 0.999968
vn 0.009322 -0.005291 0.999943
vn -0.006971 0.003956 0.999968
vn -0.009322 -0.005291 0.999943
vn 0.000000 -0.382683 0.923880
vn 0.000000 -0.382683 0.923880
vn 0.000000 -0.946076 0.323946
vn 0.000000 -0.946076 0.323946
vn 0.000000 -0.783505 0.621386
vn 0.000000 -0.783505 0.621386
vn 0.000000 0.382682 0.923880
vn 0.000000 0.382682 0.923880
vn 0.000000 0.946076 0.323944
vn 0.000000 0.946076 0.323944
vn 0.000000 0.783507 0.621383
vn 0.000000 0.783507 0.621383
vn 0.947455 -0.000000 0.319889
vn 0.947455 -0.000000 0.319889
vn 0.783505 -0.000000 0.621386
vn 0.783505 -0.000000 0.621386
vn 0.382683 0.000000 0.923880
vn 0.382683 0.000000 0.923880
vn -0.947455 0.000000 0.319889
vn -0.947455 0.000000 0.319889
vn -0.783505 0.000000 0.621386
vn -0.783505 0.000000 0.621385
vn -0.382683 0.000000 0.923880
vn -0.382683 0.000000 0.923880
vn 0.992530 0.000000 0.122000
vn 0.992530 0.000000 0.122000
vn 0.000000 -0.992530 0.122001
vn 0.000000 -0.992530 0.122001
vn 0.000000 0.000000 1.000000
vn 0.000000 0.000000 1.000000
vn 0.000000 0.000000 1.000000
vn 0.000000 0.000000 1.000000
vn 0.000000 0.992530 0.122000
vn 0.000000 0.992530 0.122000
vn -0.992530 0.000000 0.122000
vn -0.992530 0.000000 0.122000
s 1
g Bevel Standee pCube8
usemtl initialShadingGroup
f 131/186/193 130/165/194 129/177/195 132/183/196
s 2
f 134/155/197 133/206/198 164/228/199 163/166/200
s 3
f 133/207/201 138/170/202 165/158/203 164/227/204
s 4
f 136/156/205 135/208/206 140/212/207 139/280/208
s 2
f 135/209/209 134/155/197 141/193/210 140/211/211
s 3
f 138/170/202 137/210/212 170/230/213 169/171/214
s 4
f 137/210/215 136/156/205 171/292/216 170/230/217
f 143/200/218 142/213/219 218/260/220 217/282/221
s 3
f 142/213/222 147/173/223 219/188/224 218/260/225
f 147/173/223 146/215/226 153/221/227 152/174/228
s 7
f 146/216/229 145/157/230 154/201/231 153/220/232
s 3
f 152/174/228 151/218/233 194/247/234 193/172/235
s 1
f 151/219/236 156/175/237 195/189/238 194/246/239
f 161/202/240 160/224/241 224/263/242 223/164/243
s 3
f 160/225/244 165/158/203 225/197/245 224/262/246
s 10
f 175/203/247 174/233/248 203/254/249 202/168/250
s 2
f 174/234/251 173/159/252 204/205/253 203/253/254
s 4
f 180/284/255 179/236/256 221/261/257 222/289/258
s 10
f 179/236/259 178/198/260 220/178/261 221/261/262
f 184/161/263 183/238/264 221/261/262 220/178/261
s 4
f 183/238/265 182/160/266 222/289/258 221/261/257
s 7
f 186/180/267 185/239/268 189/243/269 188/181/270
s 10
f 185/240/271 184/161/263 190/204/272 189/242/273
f 202/168/250 201/251/274 227/265/275 226/169/276
s 1
f 201/252/277 200/162/278 228/199/279 227/264/280
s 4
f 206/256/281 205/291/282 139/280/208 140/212/207
s 2
f 141/193/210 207/187/283 206/255/284 140/211/211
s 7
f 209/257/285 208/196/286 150/163/287 149/217/288
s 4
f 148/290/289 210/287/290 209/257/291 149/217/292
s 1
f 212/258/293 211/195/294 159/176/295 158/223/296
s 7
f 157/191/297 213/179/298 212/258/299 158/223/300
s 2
f 215/259/301 214/194/302 168/167/303 167/229/304
s 1
f 166/192/305 216/185/306 215/259/307 167/229/308
s 7
f 145/157/230 150/163/287 157/191/297 154/201/231
s 1
f 223/164/243 130/165/194 166/192/305 161/202/240
s 2
f 163/166/200 168/167/303 141/193/210 134/155/197
s 10
f 175/203/247 202/168/250 226/169/276 178/198/260
s 3
f 165/158/203 138/170/202 169/171/214 225/197/245
f 193/172/235 219/188/224 147/173/223 152/174/228
s 1
f 156/175/237 159/176/295 129/177/195 195/189/238
s 10
f 220/178/261 196/190/309 190/204/272 184/161/263
s 7
f 213/179/298 208/196/286 186/180/267 188/181/270
s 1
f 198/182/310 132/183/196 211/195/294 192/184/311
f 216/185/306 131/186/193 228/199/279 200/162/278
s 2
f 207/187/283 214/194/302 204/205/253 173/159/252
s 3
f 169/171/214 219/188/224 193/172/235 225/197/245
s 1
f 195/189/238 129/177/195 130/165/194 223/164/243
f 131/186/193 132/183/196 198/182/310 228/199/279
s 10
f 196/190/309 220/178/261 178/198/260 226/169/276
s 7
f 157/191/297 150/163/287 208/196/286 213/179/298
s 1
f 129/177/195 159/176/295 211/195/294 132/183/196
f 166/192/305 130/165/194 131/186/193 216/185/306
s 2
f 141/193/210 168/167/303 214/194/302 207/187/283
s 7
f 145/157/230 144/214/312 149/217/288 150/163/287
s 4
f 144/214/313 143/200/218 148/290/289 149/217/292
s 1
f 156/175/237 155/222/314 158/223/296 159/176/295
s 7
f 155/222/315 154/201/231 157/191/297 158/223/300
s 2
f 163/166/200 162/226/316 167/229/304 168/167/303
s 1
f 162/226/317 161/202/240 166/192/305 167/229/308
s 3
f 169/171/214 170/230/213 218/260/225 219/188/224
s 4
f 170/230/217 171/292/216 217/282/221 218/260/220
f 177/286/318 176/235/319 179/236/256 180/284/255
s 10
f 176/235/320 175/203/247 178/198/260 179/236/259
s 3
f 193/172/235 194/247/234 224/262/246 225/197/245
s 1
f 194/246/239 195/189/238 223/164/243 224/263/242
f 192/184/311 191/244/321 197/249/322 198/182/310
s 10
f 191/245/323 190/204/272 196/190/309 197/248/324
s 2
f 173/159/252 172/231/325 206/255/284 207/187/283
s 4
f 172/232/326 177/286/318 205/291/282 206/256/281
f 182/160/266 181/237/327 209/257/291 210/287/290
s 7
f 181/237/328 186/180/267 208/196/286 209/257/285
f 188/181/270 187/241/329 212/258/299 213/179/298
s 1
f 187/241/330 192/184/311 211/195/294 212/258/293
f 200/162/278 199/250/331 215/259/307 216/185/306
s 2
f 199/250/332 204/205/253 214/194/302 215/259/301
s 1
f 197/249/322 227/264/280 228/199/279 198/182/310
s 10
f 196/190/309 226/169/276 227/265/275 197/248/324
s 3
f 137/210/212 138/170/202 133/207/201 229/267/333
s 2
f 133/206/198 134/155/197 135/209/209 229/266/334
s 4
f 135/208/206 136/156/205 137/210/215 229/267/335
s 3
f 146/215/226 147/173/223 142/213/222 230/268/336
s 4
f 142/213/219 143/200/218 144/214/313 230/268/337
s 7
f 144/214/312 145/157/230 146/216/229 230/268/338
s 1
f 155/222/314 156/175/237 151/219/236 231/270/339
s 3
f 151/218/233 152/174/228 153/221/227 231/269/340
s 7
f 153/220/232 154/201/231 155/222/315 231/270/341
s 3
f 164/227/204 165/158/203 160/225/244 232/272/342
s 1
f 160/224/241 161/202/240 162/226/317 232/271/343
s 2
f 162/226/316 163/166/200 164/228/199 232/271/344
s 4
f 176/235/319 177/286/318 172/232/326 233/274/345
s 2
f 172/231/325 173/159/252 174/234/251 233/273/346
s 10
f 174/233/248 175/203/247 176/235/320 233/274/347
s 7
f 185/239/268 186/180/267 181/237/328 234/275/348
s 4
f 181/237/327 182/160/266 183/238/265 234/275/349
s 10
f 183/238/264 184/161/263 185/240/271 234/275/350
s 1
f 191/244/321 192/184/311 187/241/330 235/276/351
s 7
f 187/241/329 188/181/270 189/243/269 235/276/352
s 10
f 189/242/273 190/204/272 191/245/323 235/277/353
s 2
f 203/253/254 204/205/253 199/250/332 236/278/354
s 1
f 199/250/331 200/162/278 201/252/277 236/278/355
s 10
f 201/251/274 202/168/250 203/254/249 236/279/356
s 4
f 136/156/205 139/280/208 242/281/357 171/292/216
f 217/282/221 245/283/358 148/290/289 143/200/218
f 180/284/255 248/285/359 205/291/282 177/286/318
f 210/287/290 239/288/360 222/289/258 182/160/266
f 180/284/255 222/289/258 239/288/360 248/285/359
f 242/281/357 245/283/358 217/282/221 171/292/216
f 248/285/359 242/281/357 139/280/208 205/291/282
f 148/290/289 245/283/358 239/288/360 210/287/290
f 244/295/361 238/293/362 239/288/360 245/283/358
s 20
f 243/297/363 237/298/364 238/293/365 244/295/366
s 4
f 247/296/367 241/294/368 242/281/357 248/285/359
s 21
f 246/300/369 240/299/370 241/294/371 247/296/372
s 22
f 240/299/373 243/297/374 244/295/375 241/294/376
s 4
f 244/295/377 245/283/358 242/281/357 241/294/378
s 23
f 237/298/379 246/300/380 247/296/381 238/293/382
s 4
f 247/296/383 248/285/359 239/288/360 238/293/384
s 22
f 251/303/385 249/301/386 243/297/374 240/299/373
s 20
f 249/301/387 250/302/388 237/298/364 243/297/363
s off
f 250/302/389 249/301/390 251/303/391 252/304/392
s 21
f 252/304/393 251/303/394 240/299/370 246/300/369
s 23
f 250/302/395 252/304/396 246/300/380 237/298/379
g default
v 42.924927 91.890043 42.924927
v 44.443443 91.890043 39.258900
v 42.924927 95.556066 39.258900
v 39.258900 97.074582 39.258900
v 39.258900 95.556066 42.924927
v 39.258900 91.890043 44.443443
v 42.924927 70.395070 42.924927
v 39.258900 70.395070 44.443443
v 39.258900 66.729047 42.924927
v 39.258900 65.210531 39.258900
v 42.924927 66.729047 39.258900
v 44.443443 70.395070 39.258900
v 42.924927 70.395070 -42.924927
v 44.443443 70.395070 -39.258900
v 42.924927 66.729047 -39.258904
v 39.258904 65.210531 -39.258904
v 39.258904 66.729047 -42.924927
v 39.258900 70.395070 -44.443443
v 42.924927 91.890043 -42.924927
v 39.258900 91.890043 -44.443443
v 39.258900 95.556066 -42.924927
v 39.258900 97.074582 -39.258900
v 42.924927 95.556066 -39.258900
v 44.443443 91.890043 -39.258900
v -42.924927 79.284559 42.924927
v -44.443443 79.284559 39.258900
v -42.924927 75.618535 39.258900
v -39.258900 74.100019 39.258900
v -39.258900 75.618535 42.924927
v -39.258900 79.284559 44.443443
v -42.924927 79.284559 -42.924927
v -39.258900 79.284559 -44.443443
v -39.258900 75.618535 -42.924927
v -39.258900 74.100019 -39.258900
v -42.924927 75.618535 -39.258900
v -44.443443 79.284559 -39.258900
v -42.924927 91.890043 42.924927
v -39.258900 91.890043 44.443443
v -39.258900 95.556066 42.924927
v -39.258900 97.074582 39.258900
v -42.924927 95.556066 39.258900
v -44.443443 91.890043 39.258900
v -42.924927 91.890043 -42.924927
v -44.443443 91.890043 -39.258900
v -42.924927 95.556066 -39.258900
v -39.258900 97.074582 -39.258900
v -39.258900 95.556066 -42.924927
v -39.258900 91.890043 -44.443443
v 42.251152 94.882291 42.251152
v 42.251152 67.402822 42.251152
v 42.251152 67.402822 -42.251152
v 42.251152 94.882291 -42.251152
v -42.251152 76.292310 42.251152
v -42.251152 76.292310 -42.251152
v -42.251152 94.882291 42.251152
v -42.251152 94.882291 -42.251152
v 29.479107 95.556066 42.924927
v 27.623154 95.556066 42.924927
v 26.066277 95.556066 42.924927
v 29.479107 91.890043 44.443443
v 27.623154 91.890043 44.443443
v 26.066277 91.890043 44.443443
v 26.066277 97.074582 39.258900
v 27.623154 97.074582 39.258900
v 29.479107 97.074582 39.258900
v 26.983496 65.210523 39.258900
v 25.181248 65.617971 39.258900
v 23.729544 66.761068 39.258900
v 27.707087 66.729040 42.924927
v 25.904839 67.136487 42.924927
v 24.453135 68.279584 42.924927
v 26.066277 72.110532 44.443443
v 27.623154 70.845746 44.443443
v 29.479107 70.395063 44.443443
v 19.034927 72.549474 39.258900
v 17.583223 73.692571 39.258900
v 15.780976 74.100019 39.258900
v 19.758518 74.067991 42.924927
v 18.306814 75.211088 42.924927
v 16.504566 75.618535 42.924927
v 18.226349 79.284559 44.443443
v 20.082302 78.833875 44.443443
v 21.639179 77.569089 44.443443
v 27.707087 66.729040 -42.924927
v 25.904839 67.136487 -42.924927
v 24.453135 68.279584 -42.924927
v 29.479107 70.395063 -44.443443
v 27.623154 70.845746 -44.443443
v 26.066277 72.110532 -44.443443
v 23.729544 66.761068 -39.258900
v 25.181248 65.617971 -39.258900
v 26.983496 65.210523 -39.258900
v 29.479107 97.074582 -39.258900
v 27.623154 97.074582 -39.258900
v 26.066277 97.074582 -39.258900
v 29.479107 95.556066 -42.924927
v 27.623154 95.556066 -42.924927
v 26.066277 95.556066 -42.924927
v 26.066277 91.890043 -44.443443
v 27.623154 91.890043 -44.443443
v 29.479107 91.890043 -44.443443
v 21.639179 97.074582 -39.258900
v 20.082302 97.074582 -39.258900
v 18.226349 97.074582 -39.258900
v 21.639179 95.556066 -42.924927
v 20.082302 95.556066 -42.924927
v 18.226349 95.556066 -42.924927
v 18.226349 91.890043 -44.443443
v 20.082302 91.890043 -44.443443
v 21.639179 91.890043 -44.443443
v 15.780976 74.100019 -39.258900
v 17.583223 73.692571 -39.258900
v 19.034927 72.549474 -39.258900
v 16.504566 75.618535 -42.924927
v 18.306814 75.211088 -42.924927
v 19.758518 74.067991 -42.924927
v 21.639179 77.569089 -44.443443
v 20.082302 78.833875 -44.443443
v 18.226349 79.284559 -44.443443
v 18.226349 97.074582 39.258900
v 20.082302 97.074582 39.258900
v 21.639179 97.074582 39.258900
v 18.226349 95.556066 42.924927
v 20.082302 95.556066 42.924927
v 21.639179 95.556066 42.924927
v 21.639179 91.890043 44.443443
v 20.082302 91.890043 44.443443
v 18.226349 91.890043 44.443443
vt 0.360418 0.040677
vt 0.139582 0.040677
vt 0.639582 0.193584
vt 0.860418 0.193584
vt 0.860418 0.056416
vt 0.639582 0.056416
vt 0.139582 0.209323
vt 0.360418 0.209323
vt 0.376431 0.038596
vt 0.375000 0.990742
vt 0.365742 0.000000
vt 0.387174 1.000000
vt 0.376431 0.211404
vt 0.365742 0.250000
vt 0.375000 0.259258
vt 0.125000 0.221735
vt 0.375000 0.528265
vt 0.375000 0.490742
vt 0.134258 0.250000
vt 0.375000 0.721735
vt 0.125000 0.028265
vt 0.134258 0.000000
vt 0.375000 0.759258
vt 0.625000 0.197483
vt 0.625000 0.259258
vt 0.634258 0.250000
vt 0.625000 0.541569
vt 0.875000 0.208431
vt 0.865742 0.250000
vt 0.625000 0.490742
vt 0.625000 0.052517
vt 0.615868 -0.000000
vt 0.634258 0.000000
vt 0.625000 0.990742
vt 0.875000 0.041569
vt 0.625000 0.708431
vt 0.625000 0.759258
vt 0.865742 0.000000
vt 0.375000 0.000000
vt 0.375000 1.000000
vt 0.375000 0.250000
vt 0.125000 0.250000
vt 0.375000 0.500000
vt 0.375000 0.750000
vt 0.125000 0.000000
vt 0.625000 0.250000
vt 0.625000 0.500000
vt 0.875000 0.250000
vt 0.625000 0.000000
vt 0.625000 1.000000
vt 0.875000 0.000000
vt 0.625000 0.750000
vt 0.444375 1.000000
vt 0.448125 0.000000
vt 0.391916 0.240526
vt 0.435574 0.264582
vt 0.392987 0.209323
vt 0.435046 0.248604
vt 0.391758 0.740228
vt 0.434939 0.764582
vt 0.392987 0.709323
vt 0.434751 0.748508
vt 0.610763 0.519468
vt 0.455615 0.485418
vt 0.610418 0.556416
vt 0.455557 0.500673
vt 0.615868 1.000000
vt 0.454858 0.985418
vt 0.610418 0.056416
vt 0.455024 0.000000
vt 0.392987 0.040677
vt 0.426916 0.209323
vt 0.392987 0.264582
vt 0.435574 0.485418
vt 0.434939 0.709323
vt 0.392987 0.540677
vt 0.392987 0.764582
vt 0.434939 0.985418
vt 0.454858 0.056416
vt 0.610418 0.193584
vt 0.455615 0.264582
vt 0.610418 0.485418
vt 0.610418 0.693584
vt 0.452967 0.564299
vt 0.454858 0.764582
vt 0.610418 0.985418
vt 0.444375 0.044611
vt 0.444825 0.190036
vt 0.443808 0.264582
vt 0.448692 0.485418
vt 0.448125 0.697518
vt 0.436534 0.545289
vt 0.444375 0.764582
vt 0.448125 0.985418
vt 0.387174 0.000000
vt 0.434939 0.040677
vt 0.392987 0.985418
vt 0.434051 1.000000
vt 0.443808 0.250000
vt 0.448692 0.264582
vt 0.436534 0.204711
vt 0.448692 0.250000
vt 0.391723 0.509984
vt 0.426916 0.540677
vt 0.392987 0.485418
vt 0.435018 0.501471
vt 0.444375 0.750000
vt 0.448125 0.764582
vt 0.444375 0.705389
vt 0.448125 0.750000
vt 0.444375 0.000000
vt 0.448125 0.052482
vt 0.444375 0.985418
vt 0.448125 1.000000
vt 0.610737 0.231009
vt 0.452967 0.185701
vt 0.610418 0.264582
vt 0.455556 0.249344
vt 0.443808 0.500000
vt 0.444825 0.559964
vt 0.443808 0.485418
vt 0.448692 0.500000
vt 0.610767 0.730657
vt 0.454858 0.693584
vt 0.610418 0.764582
vt 0.454869 0.749414
vt 0.434051 0.000000
vt 0.455024 1.000000
vt 0.442500 0.000000
vt 0.442500 1.000000
vt 0.442500 0.040677
vt 0.442500 0.985418
vt 0.442500 0.264582
vt 0.442500 0.250000
vt 0.433929 0.209323
vt 0.450000 0.264582
vt 0.450000 0.250000
vt 0.447430 0.185424
vt 0.442500 0.500000
vt 0.433929 0.540677
vt 0.442500 0.485418
vt 0.442500 0.764582
vt 0.442500 0.750000
vt 0.442500 0.709323
vt 0.450000 0.764582
vt 0.450000 0.750000
vt 0.450000 0.693584
vt 0.450000 0.485418
vt 0.450000 0.500000
vt 0.447430 0.564576
vt 0.450000 0.985418
vt 0.450000 1.000000
vt 0.450000 0.000000
vt 0.450000 0.056416
vn 0.998080 0.059408 0.017542
vn 0.924966 0.038688 0.378076
vn 0.924966 -0.038688 0.378076
vn 0.998080 -0.059408 0.017542
vn 0.378076 0.038688 0.924966
vn 0.107575 0.054830 0.992684
vn 0.106532 -0.058249 0.992602
vn 0.378076 -0.038688 0.924966
vn 0.110844 0.993698 0.016683
vn 0.381370 0.924351 0.011541
vn 0.381370 0.924351 -0.011541
vn 0.110844 0.993698 -0.016683
vn 0.924351 0.381370 0.011541
vn 0.998080 0.059408 -0.017542
vn 0.924351 0.381370 -0.011541
vn 0.924351 -0.381370 0.011541
vn 0.924351 -0.381370 -0.011541
vn 0.998080 -0.059408 -0.017542
vn 0.381370 -0.924351 0.011541
vn 0.093707 -0.995462 0.016575
vn 0.093707 -0.995462 -0.016575
vn 0.381370 -0.924351 -0.011541
vn 0.924966 -0.038688 -0.378076
vn 0.924966 0.038688 -0.378076
vn 0.378076 -0.038688 -0.924966
vn 0.106532 -0.058249 -0.992602
vn 0.107575 0.054830 -0.992684
vn 0.378076 0.038688 -0.924966
vn -0.995639 -0.091724 0.017008
vn -0.924953 -0.061054 0.375147
vn -0.924953 0.061054 0.375147
vn -0.995639 0.091724 0.017008
vn -0.375147 -0.061054 0.924953
vn -0.022952 -0.090288 0.995651
vn -0.022877 0.091305 0.995560
vn -0.375147 0.061054 0.924953
vn -0.025467 -0.999510 0.018191
vn -0.381370 -0.924351 0.011541
vn -0.381370 -0.924351 -0.011541
vn -0.025467 -0.999510 -0.018191
vn -0.924351 -0.381370 0.011541
vn -0.995639 -0.091724 -0.017008
vn -0.924351 -0.381370 -0.011541
vn -0.022952 -0.090288 -0.995651
vn -0.375147 -0.061054 -0.924953
vn -0.375147 0.061054 -0.924953
vn -0.022877 0.091305 -0.995560
vn -0.924953 -0.061054 -0.375147
vn -0.995639 0.091724 -0.017008
vn -0.924953 0.061054 -0.375147
vn -0.924351 0.381370 0.011541
vn -0.924351 0.381370 -0.011541
vn -0.381370 0.924351 0.011541
vn -0.024455 0.999537 0.018098
vn -0.024455 0.999537 -0.018098
vn -0.381370 0.924351 -0.011541
vn 0.074780 0.373253 0.924711
vn 0.325269 0.325270 0.887919
vn 0.887919 0.325270 0.325269
vn 0.074780 0.924711 0.373252
vn 0.325269 0.887919 0.325270
vn 0.887919 -0.325269 0.325270
vn 0.069857 -0.373941 0.924818
vn 0.325269 -0.325269 0.887919
vn 0.063928 -0.924917 0.374756
vn 0.325269 -0.887919 0.325269
vn 0.069858 -0.373941 -0.924818
vn 0.325269 -0.325269 -0.887919
vn 0.887919 -0.325269 -0.325270
vn 0.063928 -0.924917 -0.374757
vn 0.325270 -0.887919 -0.325269
vn 0.887919 0.325269 -0.325270
vn 0.074780 0.373253 -0.924711
vn 0.325269 0.325270 -0.887919
vn 0.074780 0.924711 -0.373252
vn 0.325269 0.887919 -0.325270
vn -0.015798 -0.380872 0.924493
vn -0.325269 -0.325270 0.887919
vn -0.887919 -0.325270 0.325269
vn -0.016130 -0.924503 0.380833
vn -0.325269 -0.887919 0.325270
vn -0.887919 -0.325269 -0.325270
vn -0.015798 -0.380872 -0.924493
vn -0.325269 -0.325270 -0.887919
vn -0.016130 -0.924503 -0.380833
vn -0.325269 -0.887919 -0.325270
vn -0.887919 0.325269 0.325270
vn -0.015572 0.380899 0.924486
vn -0.325269 0.325270 0.887919
vn -0.015572 0.924486 0.380899
vn -0.325269 0.887919 0.325270
vn -0.015572 0.380899 -0.924486
vn -0.325269 0.325270 -0.887919
vn -0.887919 0.325270 -0.325269
vn -0.015572 0.924486 -0.380899
vn -0.325269 0.887919 -0.325270
vn -0.000000 0.923880 0.382683
vn -0.000000 0.923880 0.382683
vn -0.000000 0.999829 0.018474
vn -0.000000 0.999829 0.018474
vn -0.000000 0.923880 0.382683
vn -0.000000 0.999829 0.018474
vn -0.273599 -0.253054 0.927959
vn -0.152695 -0.313023 0.937390
vn -0.034950 -0.070778 0.996880
vn -0.104465 -0.090266 0.990424
vn -0.018461 -0.374707 0.926960
vn -0.001893 -0.076336 0.997080
vn -0.001956 -0.381928 0.924190
vn -0.154559 -0.316539 0.935903
vn -0.033601 -0.068711 0.997071
vn -0.000796 -0.072778 0.997348
vn -0.285174 -0.248105 0.925808
vn -0.053741 -0.049179 0.997343
vn -0.692938 -0.607450 -0.388384
vn -0.390978 -0.820500 -0.417032
vn -0.430089 -0.902580 -0.019315
vn -0.747918 -0.663563 -0.017433
vn -0.023609 -0.921966 -0.386551
vn -0.029152 -0.999436 -0.016692
vn -0.000000 0.382683 -0.923880
vn -0.000000 0.382683 -0.923880
vn -0.000000 0.061750 -0.998092
vn -0.000000 0.070158 -0.997536
vn -0.000000 0.382683 -0.923880
vn -0.000000 0.060328 -0.998179
vn -0.000000 0.382683 -0.923880
vn -0.000000 0.382683 -0.923880
vn -0.000000 0.089555 -0.995982
vn -0.000000 0.092880 -0.995677
vn -0.000000 0.382683 -0.923880
vn -0.000000 0.076309 -0.997084
vn -0.285173 -0.248105 -0.925808
vn -0.154559 -0.316539 -0.935903
vn -0.033601 -0.068711 -0.997071
vn -0.053741 -0.049179 -0.997343
vn -0.001956 -0.381928 -0.924190
vn -0.000796 -0.072778 -0.997348
vn -0.000000 0.382683 0.923880
vn -0.000000 0.382683 0.923880
vn -0.000000 0.089555 0.995982
vn -0.000000 0.076309 0.997084
vn -0.000000 0.382683 0.923880
vn -0.000000 0.092880 0.995677
vn -0.023609 -0.921966 0.386551
vn -0.029152 -0.999436 0.016692
vn -0.000000 0.923880 -0.382683
vn -0.000000 0.999829 -0.018474
vn -0.007817 -0.923305 -0.383988
vn -0.007111 -0.999763 -0.020576
vn -0.000000 0.923880 0.382683
vn -0.000000 0.999829 0.018474
vn -0.000000 0.060328 0.998179
vn -0.001893 -0.076336 -0.997080
vn -0.007111 -0.999763 0.020576
vn -0.000000 0.999829 -0.018474
vn -0.000000 0.070158 0.997536
vn -0.747918 -0.663563 0.017433
vn -0.748241 -0.663118 0.020243
vn -0.748241 -0.663118 -0.020243
vn -0.104464 -0.090266 -0.990424
vn -0.000000 0.999829 -0.018474
vn -0.000000 0.999829 -0.018474
vn -0.000000 0.999829 0.018474
vn -0.000000 0.382683 0.923880
vn -0.692938 -0.607450 0.388384
vn -0.684837 -0.615477 0.390110
vn -0.018460 -0.374707 -0.926959
vn -0.000000 0.923880 -0.382683
vn -0.000000 0.923880 -0.382683
vn -0.000000 0.382683 0.923880
vn -0.000000 0.923880 0.382683
vn -0.007817 -0.923305 0.383988
vn -0.273598 -0.253054 -0.927959
vn -0.684837 -0.615477 -0.390110
vn -0.000000 0.923880 -0.382683
vn -0.000000 0.382683 0.923880
vn -0.000000 0.061750 0.998092
vn -0.430089 -0.902580 0.019315
vn -0.390978 -0.820500 0.417032
vn -0.430069 -0.902537 0.021606
vn -0.390978 -0.820500 0.417032
vn -0.152694 -0.313023 -0.937390
vn -0.034949 -0.070778 -0.996880
vn -0.000000 0.999829 -0.018474
vn -0.000000 0.923880 -0.382683
vn -0.000000 0.999829 -0.018474
vn -0.000000 0.923880 -0.382683
vn -0.430069 -0.902537 -0.021606
vn -0.390978 -0.820500 -0.417032
vn -0.000000 0.999829 0.018474
vn -0.000000 0.923880 0.382683
s 1
g Bevel Standee pCube9
usemtl initialShadingGroup
f 254/305/397 253/313/398 259/317/399 264/312/400
s 2
f 253/313/401 258/375/402 260/361/403 259/317/404
s 3
f 256/401/405 255/314/406 275/327/407 274/381/408
s 1
f 255/315/409 254/305/397 276/306/410 275/326/411
f 264/312/400 263/318/412 267/323/413 266/311/414
s 4
f 263/319/415 262/377/416 268/409/417 267/322/418
s 1
f 266/311/414 265/320/419 271/325/420 276/306/410
s 5
f 265/321/421 270/380/422 272/365/423 271/324/424
s 6
f 278/307/425 277/328/426 289/335/427 294/310/428
s 2
f 277/328/429 282/384/430 290/373/431 289/335/432
s 4
f 280/421/433 279/329/434 287/334/435 286/386/436
s 6
f 279/330/437 278/307/425 288/308/438 287/333/439
s 5
f 284/369/440 283/331/441 295/340/442 300/387/443
s 6
f 283/332/444 288/308/438 296/309/445 295/339/446
f 294/310/428 293/337/447 297/342/448 296/309/445
s 3
f 293/338/449 292/390/450 298/429/451 297/341/452
s 6
f 294/310/428 296/309/445 288/308/438 278/307/425
s 1
f 266/311/414 276/306/410 254/305/397 264/312/400
s 2
f 257/399/453 258/375/402 253/313/401 301/343/454
s 1
f 253/313/398 254/305/397 255/315/409 301/343/455
s 3
f 255/314/406 256/401/405 257/316/456 301/344/457
s 1
f 263/318/412 264/312/400 259/317/399 302/345/458
s 2
f 259/317/404 260/361/403 261/359/459 302/345/460
s 4
f 261/359/461 262/377/416 263/319/415 302/345/462
s 5
f 269/407/463 270/380/422 265/321/421 303/347/464
s 1
f 265/320/419 266/311/414 267/323/413 303/346/465
s 4
f 267/322/418 268/409/417 269/407/466 303/347/467
s 1
f 275/326/411 276/306/410 271/325/420 304/349/468
s 5
f 271/324/424 272/365/423 273/363/469 304/348/470
s 3
f 273/363/471 274/381/408 275/327/407 304/348/472
s 2
f 281/419/473 282/384/430 277/328/429 305/350/474
s 6
f 277/328/426 278/307/425 279/330/437 305/350/475
s 4
f 279/329/434 280/421/433 281/419/476 305/350/477
s 6
f 287/333/439 288/308/438 283/332/444 306/352/478
s 5
f 283/331/441 284/369/440 285/367/479 306/351/480
s 4
f 285/367/481 286/386/436 287/334/435 306/351/482
s 6
f 293/337/447 294/310/428 289/335/427 307/353/483
s 2
f 289/335/432 290/373/431 291/336/484 307/353/485
s 3
f 291/371/486 292/390/450 293/338/449 307/354/487
s 5
f 299/427/488 300/387/443 295/340/442 308/356/489
s 6
f 295/339/446 296/309/445 297/342/448 308/355/490
s 3
f 297/341/452 298/429/451 299/427/491 308/356/492
f 311/357/493 310/434/494 316/436/495 315/417/496
f 310/434/494 309/402/497 317/382/498 316/436/495
s 2
f 323/403/499 322/438/500 325/439/501 324/405/502
f 322/438/500 321/362/503 326/376/504 325/439/501
f 332/422/505 331/441/506 334/442/507 333/420/508
f 331/441/506 330/406/509 335/392/510 334/442/507
s 4
f 338/423/511 337/443/512 343/445/513 342/425/514
f 337/443/512 336/410/515 344/378/516 343/445/513
s 5
f 350/411/517 349/447/518 352/448/519 351/413/520
f 349/447/518 348/366/521 353/379/522 352/448/519
f 359/430/523 358/450/524 361/451/525 360/428/526
f 358/450/524 357/414/527 362/395/528 361/451/525
f 368/426/529 367/453/530 370/454/531 369/424/532
f 367/453/530 366/370/533 371/388/534 370/454/531
s 2
f 377/358/535 376/457/536 379/458/537 378/416/538
f 376/457/536 375/374/539 380/383/540 379/458/537
s 4
f 262/377/416 261/359/461 321/362/541 318/360/542
s 2
f 261/359/459 260/361/403 326/376/504 321/362/503
s 3
f 274/381/408 273/363/471 348/366/543 345/364/544
s 5
f 273/363/469 272/365/423 353/379/522 348/366/521
s 4
f 286/386/436 285/367/481 366/370/545 363/368/546
s 5
f 285/367/479 284/369/440 371/388/534 366/370/533
s 3
f 292/390/450 291/371/486 375/432/547 372/372/548
s 2
f 291/336/484 290/373/431 380/383/540 375/374/539
f 258/375/402 312/400/549 326/376/504 260/361/403
s 4
f 262/377/416 318/360/542 344/378/516 268/409/417
s 5
f 339/408/550 353/379/522 272/365/423 270/380/422
s 3
f 274/381/408 345/364/544 317/382/498 256/401/405
s 2
f 380/383/540 290/373/431 282/384/430 333/420/508
s 4
f 363/368/546 329/385/551 280/421/433 286/386/436
s 5
f 284/369/440 300/387/443 360/428/526 371/388/534
s 3
f 372/372/548 356/389/552 298/429/451 292/390/450
s 2
f 314/391/553 378/416/538 335/392/510 324/405/502
s 4
f 342/425/514 320/393/554 327/404/555 365/394/556
s 5
f 369/424/532 362/395/528 351/413/520 341/396/557
s 3
f 315/417/496 347/397/558 354/412/559 374/398/560
s 2
f 258/375/402 257/399/453 309/431/561 312/400/549
s 3
f 257/316/456 256/401/405 317/382/498 309/402/497
s 4
f 320/393/554 323/403/562 330/406/563 327/404/555
s 2
f 323/403/499 324/405/502 335/392/510 330/406/509
s 5
f 270/380/422 269/407/463 336/410/564 339/408/550
s 4
f 269/407/466 268/409/417 344/378/516 336/410/515
s 3
f 347/397/558 350/411/565 357/414/566 354/412/559
s 5
f 350/411/517 351/413/520 362/395/528 357/414/527
s 2
f 314/391/553 311/415/567 377/358/535 378/416/538
s 3
f 311/357/493 315/417/496 374/398/560 377/418/568
s 2
f 282/384/430 281/419/473 332/422/505 333/420/508
s 4
f 281/419/476 280/421/433 329/385/551 332/422/569
s 5
f 341/396/557 338/423/570 368/426/529 369/424/532
s 4
f 338/423/511 342/425/514 365/394/556 368/426/571
s 5
f 300/387/443 299/427/488 359/430/523 360/428/526
s 3
f 299/427/491 298/429/451 356/389/552 359/430/572
s 2
f 309/431/561 310/433/573 313/435/574 312/400/549
f 310/433/573 311/415/567 314/391/553 313/435/574
s 4
f 320/393/554 319/437/575 322/438/576 323/403/562
f 319/437/575 318/360/542 321/362/541 322/438/576
s 2
f 312/400/549 313/435/574 325/439/501 326/376/504
f 313/435/574 314/391/553 324/405/502 325/439/501
s 4
f 329/385/551 328/440/577 331/441/578 332/422/569
f 328/440/577 327/404/555 330/406/563 331/441/578
s 5
f 336/410/564 337/443/579 340/444/580 339/408/550
f 337/443/579 338/423/570 341/396/557 340/444/580
s 4
f 318/360/542 319/437/575 343/445/513 344/378/516
f 319/437/575 320/393/554 342/425/514 343/445/513
s 3
f 315/417/496 316/436/495 346/446/581 347/397/558
f 316/436/495 317/382/498 345/364/544 346/446/581
f 347/397/558 346/446/581 349/447/582 350/411/565
f 346/446/581 345/364/544 348/366/543 349/447/582
s 5
f 339/408/550 340/444/580 352/448/519 353/379/522
f 340/444/580 341/396/557 351/413/520 352/448/519
s 3
f 356/389/552 355/449/583 358/450/584 359/430/572
f 355/449/583 354/412/559 357/414/566 358/450/584
s 4
f 327/404/555 328/440/577 364/452/585 365/394/556
f 328/440/577 329/385/551 363/368/546 364/452/585
f 365/394/556 364/452/585 367/453/586 368/426/571
f 364/452/585 363/368/546 366/370/545 367/453/586
s 5
f 360/428/526 361/451/525 370/454/531 371/388/534
f 361/451/525 362/395/528 369/424/532 370/454/531
s 3
f 354/412/559 355/449/583 373/455/587 374/398/560
f 355/449/583 356/389/552 372/372/548 373/455/587
f 374/398/560 373/455/587 376/456/588 377/418/568
f 373/455/587 372/372/548 375/432/547 376/456/588
s 2
f 333/420/508 334/442/507 379/458/537 380/383/540
f 334/442/507 335/392/510 378/416/538 379/458/537
