# This file uses centimeters as units for non-parametric coordinates.

mtllib S_P12_01.mtl
g default
v -30.642966 4.576397 -1.238450
v -30.280253 4.648551 -2.113989
v -29.404719 4.822683 -2.476649
v -29.404719 59.089664 -2.476649
v -30.280253 59.263796 -2.113989
v -30.642966 59.335921 -1.238450
v -27.601079 1.534542 1.238443
v -27.528955 1.897223 2.113981
v -27.354819 2.772730 2.476646
v 26.912191 2.772730 2.476646
v 27.086265 1.897225 2.113985
v 27.158448 1.534542 1.238446
v -27.354819 2.772730 -2.476646
v -27.528951 1.897225 -2.113985
v -27.601076 1.534542 -1.238446
v 27.158448 1.534542 -1.238446
v 27.086265 1.897225 -2.113985
v 26.912191 2.772730 -2.476646
v 28.962088 4.822685 -2.476646
v 29.837680 4.648553 -2.113985
v 30.200334 4.576399 -1.238446
v 30.200334 59.335923 -1.238446
v 29.837680 59.263798 -2.113985
v 28.962088 59.089666 -2.476646
v -29.404715 4.822685 2.476646
v -30.280250 4.648553 2.113985
v -30.642962 4.576399 1.238446
v -30.642962 59.335923 1.238446
v -30.280250 59.263798 2.113985
v -29.404715 59.089666 2.476646
v -27.354761 61.139852 2.476646
v -27.528951 62.015213 2.113985
v -27.601076 62.378041 1.238446
v 27.158448 62.378041 1.238446
v 27.086265 62.015213 2.113985
v 26.912075 61.139852 2.476646
v 30.200334 4.576399 1.238446
v 29.837680 4.648553 2.113985
v 28.962088 4.822685 2.476646
v 28.962088 59.089666 2.476646
v 29.837680 59.263798 2.113985
v 30.200334 59.335923 1.238446
v -27.601076 62.378041 -1.238446
v -27.528951 62.015213 -2.113985
v -27.354761 61.139852 -2.476646
v 26.912075 61.139852 -2.476646
v 27.086265 62.015213 -2.113985
v 27.158448 62.378041 -1.238446
v -29.751993 2.425482 1.238446
v -29.474403 2.703072 2.113985
v -28.804334 3.373170 2.476646
v -28.804334 3.373170 -2.476646
v -29.474403 2.703072 -2.113985
v -29.751993 2.425482 -1.238446
v 29.309423 2.425482 1.238446
v 29.031833 2.703072 2.113985
v 28.361764 3.373170 2.476646
v 28.361764 3.373170 -2.476646
v 29.031833 2.703072 -2.113985
v 29.309423 2.425482 -1.238446
v -29.751993 61.486956 1.238446
v -29.474403 61.209308 2.113985
v -28.804334 60.539297 2.476646
v -28.804334 60.539297 -2.476646
v -29.474403 61.209308 -2.113985
v -29.751993 61.486956 -1.238446
v 29.309423 61.486956 1.238446
v 29.031833 61.209308 2.113985
v 28.361764 60.539297 2.476646
v 28.361764 60.539297 -2.476646
v 29.031833 61.209308 -2.113985
v 29.309423 61.486956 -1.238446
vt 0.378890 0.737688
vt 0.375000 0.737501
vt 0.375000 0.512499
vt 0.380088 0.513512
vt 0.125000 0.012499
vt 0.187494 0.012499
vt 0.187499 0.237501
vt 0.125000 0.237501
vt 0.388511 0.005087
vt 0.387499 0.000000
vt 0.612501 0.000000
vt 0.612683 0.003894
vt 0.387499 1.000000
vt 0.387499 0.937510
vt 0.612501 0.937506
vt 0.612501 1.000000
vt 0.387499 0.812494
vt 0.387499 0.750000
vt 0.612501 0.750000
vt 0.612501 0.812493
vt 0.387423 0.746001
vt 0.611489 0.744913
vt 0.812505 0.012499
vt 0.875000 0.012499
vt 0.875000 0.237501
vt 0.812508 0.237501
vt 0.625000 0.737501
vt 0.619912 0.736489
vt 0.621106 0.512317
vt 0.625000 0.512499
vt 0.312506 0.012499
vt 0.375000 0.012499
vt 0.375000 0.237501
vt 0.312513 0.237501
vt 0.380088 0.013511
vt 0.378998 0.237577
vt 0.387499 0.312494
vt 0.387499 0.250000
vt 0.612501 0.250000
vt 0.612501 0.312494
vt 0.387289 0.246135
vt 0.611489 0.244912
vt 0.620988 0.012434
vt 0.625000 0.012499
vt 0.625000 0.237501
vt 0.619912 0.236489
vt 0.687495 0.012499
vt 0.687498 0.237501
vt 0.388511 0.505088
vt 0.387499 0.500000
vt 0.612501 0.500000
vt 0.612565 0.504011
vt 0.387499 0.437506
vt 0.612501 0.437506
vt 0.375000 0.937506
vt 0.375000 0.812494
vt 0.312505 0.000000
vt 0.187497 0.000000
vt 0.687496 0.000000
vt 0.812507 0.000000
vt 0.625000 0.937505
vt 0.625000 0.812495
vt 0.625000 0.312495
vt 0.625000 0.437507
vt 0.687490 0.249999
vt 0.812505 0.250000
vt 0.617446 0.242445
vt 0.620989 0.004011
vt 0.379000 0.746001
vt 0.382555 0.507554
vt 0.375000 0.500000
vt 0.187494 0.250000
vt 0.125000 0.250000
vt 0.375000 1.000000
vt 0.382554 0.007561
vt 0.375000 0.000000
vt 0.375000 0.750000
vt 0.625000 0.750000
vt 0.617446 0.742439
vt 0.875000 0.000000
vt 0.375000 0.250000
vt 0.312506 0.250000
vt 0.378998 0.245999
vt 0.625000 0.250000
vt 0.625000 0.000000
vt 0.625000 0.500000
vt 0.620989 0.504012
vt 0.125000 0.000000
vt 0.625000 1.000000
vt 0.375000 0.312495
vt 0.375000 0.437503
vt 0.875000 0.250000
vn -0.187901 -0.002353 -0.982185
vn -0.381869 -0.004783 -0.924204
vn -0.381869 0.004783 -0.924204
vn -0.187900 0.002353 -0.982185
vn -0.923369 -0.013808 -0.383665
vn -0.994109 -0.015382 -0.107290
vn -0.994109 0.015382 -0.107290
vn -0.923369 0.013808 -0.383665
vn -0.000080 -0.006357 0.999980
vn -0.004783 -0.381881 0.924199
vn 0.004783 -0.381881 0.924199
vn 0.000080 -0.006357 0.999980
vn -0.013808 -0.923381 0.383637
vn -0.015382 -0.994110 0.107282
vn 0.015382 -0.994110 0.107282
vn 0.013808 -0.923381 0.383637
vn -0.015382 -0.994110 -0.107282
vn -0.013808 -0.923381 -0.383637
vn 0.013808 -0.923380 -0.383637
vn 0.015382 -0.994110 -0.107282
vn -0.004783 -0.381879 -0.924200
vn -0.000080 -0.006357 -0.999980
vn 0.000080 -0.006357 -0.999980
vn 0.004783 -0.381880 -0.924200
vn 0.994110 -0.015381 -0.107274
vn 0.923391 -0.013808 -0.383613
vn 0.923391 0.013808 -0.383613
vn 0.994110 0.015381 -0.107275
vn 0.381848 -0.004782 -0.924213
vn 0.187907 -0.002353 -0.982184
vn 0.187906 0.002353 -0.982184
vn 0.381848 0.004782 -0.924213
vn -0.994109 -0.015382 0.107292
vn -0.923369 -0.013808 0.383665
vn -0.923369 0.013808 0.383665
vn -0.994109 0.015382 0.107292
vn -0.381869 -0.004783 0.924204
vn -0.187904 -0.002353 0.982185
vn -0.187903 0.002353 0.982185
vn -0.381869 0.004783 0.924204
vn -0.015384 0.994105 0.107325
vn -0.013809 0.923325 0.383770
vn 0.013809 0.923325 0.383770
vn 0.015384 0.994105 0.107325
vn -0.004784 0.381933 0.924178
vn -0.000080 0.006357 0.999980
vn 0.000080 0.006357 0.999980
vn 0.004784 0.381933 0.924178
vn 0.187907 -0.002353 0.982184
vn 0.381848 -0.004782 0.924213
vn 0.381848 0.004782 0.924213
vn 0.187906 0.002353 0.982184
vn 0.923391 -0.013808 0.383613
vn 0.994110 -0.015381 0.107274
vn 0.994110 0.015381 0.107275
vn 0.923391 0.013808 0.383613
vn -0.000080 0.006357 -0.999980
vn -0.004784 0.381933 -0.924178
vn 0.004784 0.381933 -0.924178
vn 0.000080 0.006357 -0.999980
vn -0.013809 0.923325 -0.383770
vn -0.015384 0.994105 -0.107325
vn 0.015384 0.994105 -0.107325
vn 0.013809 0.923325 -0.383770
vn -0.380646 -0.918958 0.103073
vn -0.380646 -0.918958 -0.103073
vn -0.918954 -0.380655 0.103078
vn -0.918954 -0.380655 -0.103075
vn 0.918963 -0.380636 0.103071
vn 0.918963 -0.380636 -0.103071
vn 0.380636 -0.918962 0.103076
vn 0.380636 -0.918962 -0.103076
vn 0.380684 0.918939 0.103103
vn 0.380684 0.918939 -0.103103
vn 0.918969 0.380620 0.103070
vn 0.918969 0.380620 -0.103070
vn 0.007858 0.007858 0.999938
vn 0.007857 -0.007857 0.999938
vn -0.007857 -0.007858 -0.999938
vn -0.007858 0.007858 -0.999938
vn -0.252756 0.252739 -0.933936
vn -0.702725 0.702673 -0.111477
vn -0.853539 0.353543 -0.382726
vn -0.353553 -0.853545 0.382703
vn -0.007858 -0.007858 0.999938
vn -0.252734 -0.252732 0.933944
vn -0.252733 -0.252732 -0.933944
vn -0.353553 -0.853545 -0.382703
vn 0.252729 -0.252731 -0.933946
vn 0.007857 -0.007857 -0.999938
vn 0.853550 -0.353547 -0.382697
vn -0.853540 0.353541 0.382725
vn -0.702725 0.702674 0.111479
vn -0.007858 0.007857 0.999938
vn -0.252757 0.252738 0.933937
vn 0.353561 0.853498 0.382801
vn 0.252748 0.252738 0.933939
vn 0.853550 -0.353546 0.382697
vn 0.252729 -0.252731 0.933946
vn 0.252748 0.252738 -0.933939
vn 0.007858 0.007858 -0.999938
vn 0.353561 0.853497 -0.382802
vn -0.853536 -0.353553 0.382722
vn -0.853536 -0.353555 -0.382721
vn 0.353539 -0.853546 0.382714
vn 0.353539 -0.853546 -0.382714
vn -0.353575 0.853497 0.382788
vn -0.353576 0.853498 -0.382787
vn 0.853553 0.353535 0.382701
vn 0.853553 0.353535 -0.382700
s 1
g polySurface5 S_P12_01
usemtl initialShadingGroup
f 3/1/1 2/2/2 5/3/3 4/4/4
s 2
f 2/5/5 1/6/6 6/7/7 5/8/8
s 3
f 9/9/9 8/10/10 11/11/11 10/12/12
s 4
f 8/13/13 7/14/14 12/15/15 11/16/16
f 15/17/17 14/18/18 17/19/19 16/20/20
s 1
f 14/18/21 13/21/22 18/22/23 17/19/24
s 7
f 21/23/25 20/24/26 23/25/27 22/26/28
s 1
f 20/27/29 19/28/30 24/29/31 23/30/32
s 2
f 27/31/33 26/32/34 29/33/35 28/34/36
s 3
f 26/32/37 25/35/38 30/36/39 29/33/40
s 2
f 33/37/41 32/38/42 35/39/43 34/40/44
s 3
f 32/38/45 31/41/46 36/42/47 35/39/48
f 39/43/49 38/44/50 41/45/51 40/46/52
s 7
f 38/44/53 37/47/54 42/48/55 41/45/56
s 1
f 45/49/57 44/50/58 47/51/59 46/52/60
s 2
f 44/50/61 43/53/62 48/54/63 47/51/64
s 4
f 7/14/14 15/17/17 16/20/20 12/15/15
s 7
f 37/47/54 21/23/25 22/26/28 42/48/55
s 4
f 7/14/14 49/55/65 54/56/66 15/17/17
s 2
f 49/57/67 27/31/33 1/6/6 54/58/68
s 7
f 37/47/54 55/59/69 60/60/70 21/23/25
s 4
f 55/61/71 12/15/15 16/20/20 60/62/72
s 2
f 34/40/44 67/63/73 72/64/74 48/54/63
s 7
f 67/65/75 42/48/55 22/26/28 72/66/76
s 3
f 69/67/77 36/42/47 10/12/12 57/68/78
s 1
f 45/49/57 13/21/22 52/69/79 64/70/80
f 4/4/4 5/3/3 65/71/81 64/70/80
s 2
f 5/8/8 6/7/7 66/72/82 65/73/83
s 4
f 7/14/14 8/13/13 50/74/84 49/55/65
s 3
f 8/10/10 9/9/9 51/75/85 50/76/86
s 1
f 13/21/22 14/18/21 53/77/87 52/69/79
s 4
f 14/18/18 15/17/17 54/56/66 53/77/88
s 1
f 19/28/30 20/27/29 59/78/89 58/79/90
s 7
f 20/24/26 21/23/25 60/60/70 59/80/91
s 2
f 28/34/36 29/33/35 62/81/92 61/82/93
s 3
f 29/33/40 30/36/39 63/83/94 62/81/95
s 2
f 34/40/44 35/39/43 68/84/96 67/63/73
s 3
f 35/39/48 36/42/47 69/67/77 68/84/97
s 7
f 37/47/54 38/44/53 56/85/98 55/59/69
s 3
f 38/44/50 39/43/49 57/68/78 56/85/99
s 1
f 46/52/60 47/51/59 71/86/100 70/87/101
s 2
f 47/51/64 48/54/63 72/64/74 71/86/102
s 3
f 25/35/38 26/32/37 50/76/86 51/75/85
s 2
f 26/32/34 27/31/33 49/57/67 50/76/103
f 1/6/6 2/5/5 53/88/104 54/58/68
s 1
f 2/2/2 3/1/1 52/69/79 53/77/87
s 3
f 10/12/12 11/11/11 56/85/99 57/68/78
s 4
f 11/16/16 12/15/15 55/61/71 56/89/105
f 16/20/20 17/19/19 59/78/106 60/62/72
s 1
f 17/19/24 18/22/23 58/79/90 59/78/89
s 3
f 31/41/46 32/38/45 62/81/95 63/83/94
s 2
f 32/38/42 33/37/41 61/90/93 62/81/107
f 43/53/62 44/50/61 65/71/108 66/91/82
s 1
f 44/50/58 45/49/57 64/70/80 65/71/81
s 3
f 40/46/52 41/45/51 68/84/97 69/67/77
s 7
f 41/45/56 42/48/55 67/65/75 68/84/109
f 22/26/28 23/25/27 71/92/110 72/66/76
s 1
f 23/30/32 24/29/31 70/87/101 71/86/100
f 24/29/31 19/28/30 58/79/90 70/87/101
f 70/87/101 58/79/90 18/22/23 46/52/60
f 46/52/60 18/22/23 13/21/22 45/49/57
f 64/70/80 52/69/79 3/1/1 4/4/4
s 3
f 51/75/85 63/83/94 30/36/39 25/35/38
f 9/9/9 31/41/46 63/83/94 51/75/85
f 10/12/12 36/42/47 31/41/46 9/9/9
f 69/67/77 57/68/78 39/43/49 40/46/52
s 2
f 43/53/62 33/37/41 34/40/44 48/54/63
f 6/7/7 1/6/6 27/31/33 28/34/36
f 66/72/82 61/90/93 33/37/41 43/53/62
f 6/7/7 28/34/36 61/90/93 66/72/82
g default
v -24.445229 61.387618 -4.652017
v -24.123192 60.602834 -4.326938
v -23.989735 60.277721 -3.542128
v 11.183439 61.387618 -4.326938
v 11.508493 61.387618 -3.542128
v 11.183439 60.602834 -3.542128
v 10.398597 60.277721 -3.542128
v 10.398597 60.602834 -4.326938
v 10.398597 61.387618 -4.652017
v 11.183439 61.387618 4.326938
v 10.398597 61.387618 4.652017
v 10.398597 60.602834 4.326938
v 10.398597 60.277721 3.542128
v 11.183439 60.602834 3.542128
v 11.508493 61.387618 3.542128
v -23.989735 60.277721 3.542128
v -24.123192 60.602834 4.326938
v -24.445229 61.387618 4.652017
v -29.652829 16.355498 -4.326948
v -29.652829 17.140311 -4.652027
v -28.868045 17.140311 -4.326948
v -28.542990 17.140311 -3.542137
v -28.868045 16.355498 -3.542137
v -29.652829 16.030414 -3.542137
v -28.542990 55.783825 -3.542135
v -28.868045 55.919719 -4.326945
v -29.652829 56.247849 -4.652024
v -29.652829 56.247849 4.652017
v -28.868045 55.919719 4.326938
v -28.542990 55.783825 3.542128
v -29.652829 16.355498 4.326938
v -29.652829 16.030414 3.542128
v -28.868045 16.355498 3.542128
v -28.542990 17.140311 3.542128
v -28.868045 17.140311 4.326938
v -29.652829 17.140311 4.652017
v -26.266334 58.030773 -3.542131
v -26.494661 58.262118 -4.326942
v -27.046011 58.820721 -4.652020
v -26.266334 58.030773 3.542128
v -26.494661 58.262118 4.326938
v -27.046011 58.820721 4.652017
v 11.183439 63.652785 3.542128
v 10.398597 63.977956 3.542128
v 10.398597 63.652785 4.326938
v 10.398597 62.868059 4.652017
v 11.183439 62.868059 4.326938
v 11.508493 62.868059 3.542128
v -25.312176 62.868059 4.652017
v -25.450739 63.652785 4.326938
v -25.508125 63.977956 3.542128
v 10.398597 63.652785 -4.326938
v 10.398597 63.977956 -3.542128
v 11.183439 63.652785 -3.542128
v 11.508493 62.868059 -3.542128
v 11.183439 62.868059 -4.326938
v 10.398597 62.868059 -4.652017
v -25.508125 63.977956 -3.542128
v -25.450739 63.652785 -4.326938
v -25.312176 62.868059 -4.652018
v -31.917880 17.140311 -4.326948
v -31.133096 17.140311 -4.652027
v -31.133096 16.355498 -4.326948
v -31.133096 16.030414 -3.542137
v -31.917880 16.355498 -3.542137
v -32.242993 17.140311 -3.542137
v -31.917880 17.140311 4.326938
v -32.242993 17.140311 3.542128
v -31.917880 16.355498 3.542128
v -31.133096 16.030414 3.542128
v -31.133096 16.355498 4.326938
v -31.133096 17.140311 4.652017
v -32.242993 57.330705 3.542128
v -31.917880 57.273725 4.326938
v -31.133096 57.136323 4.652017
v -31.133096 57.136323 -4.652024
v -31.917880 57.273725 -4.326945
v -32.242993 57.330705 -3.542135
v -27.592720 62.036972 4.652017
v -27.942319 62.744873 4.326938
v -28.087148 63.038072 3.542128
v -30.368331 59.253644 -4.652023
v -31.077219 59.601269 -4.326944
v -31.370824 59.745287 -3.542133
v -31.370824 59.745287 3.542128
v -31.077219 59.601269 4.326938
v -30.368331 59.253644 4.652017
v -28.087148 63.038072 -3.542130
v -27.942319 62.744873 -4.326941
v -27.592720 62.036972 -4.652020
v -30.094919 61.756538 3.542128
v -29.859106 61.521422 4.326938
v -29.289826 60.953709 4.652017
v -30.094919 61.756538 -3.542131
v -29.859106 61.521422 -4.326942
v -29.289826 60.953709 -4.652020
v 11.039189 60.747083 -4.182699
v 11.039189 60.747083 4.182699
v -29.012294 16.499747 -4.182709
v -29.012294 16.499747 4.182699
v 11.039189 63.508594 4.182699
v 11.039189 63.508594 -4.182699
v -31.773689 16.499747 -4.182709
v -31.773689 16.499747 4.182699
vt 0.605466 0.437506
vt 0.612501 0.422593
vt 0.612501 0.327407
vt 0.605467 0.312494
vt 0.188927 0.020249
vt 0.203840 0.020248
vt 0.299027 0.020248
vt 0.312067 0.018391
vt 0.612501 0.327407
vt 0.612501 0.422593
vt 0.605755 0.327407
vt 0.605466 0.437506
vt 0.202407 0.012499
vt 0.297593 0.012499
vt 0.312067 0.018391
vt 0.387499 0.422593
vt 0.605755 0.422593
vt 0.203786 0.019958
vt 0.298973 0.019958
vt 0.289873 0.231494
vt 0.350871 0.386304
vt 0.387499 0.327406
vt 0.605466 0.422593
vt 0.605466 0.327407
vt 0.387499 0.327406
vt 0.245745 0.282146
vt 0.387498 0.422592
vt 0.338676 0.279444
vt 0.605467 0.312494
vt 0.385447 0.310482
vt 0.387498 0.437505
vt 0.202407 0.012499
vt 0.297593 0.012499
vt 0.296786 0.223559
vt 0.188927 0.020249
vt 0.242437 0.293658
vt 0.387498 0.312493
vt 0.361173 0.286685
vt 0.384136 0.434172
vt 0.298987 0.225716
vt 0.316608 0.352354
vt 0.289873 0.231494
vt 0.245745 0.282147
vt 0.314281 0.255475
vt 0.280326 0.331229
vt 0.238831 0.290082
vt 0.338686 0.279452
vt 0.281186 0.317261
vt 0.362274 0.302625
vt 0.316621 0.352369
vt 0.342006 0.267892
vt 0.342347 0.268229
vt 0.322105 0.248382
vt 0.312940 0.363571
vt 0.313500 0.364124
vt 0.344354 0.394722
vt 0.387498 0.437506
vt 0.610539 0.436971
vt 0.612501 0.427895
vt 0.612501 0.427895
vt 0.607352 0.437506
vt 0.607352 0.437506
vt 0.610540 0.313029
vt 0.607352 0.312494
vt 0.607352 0.312494
vt 0.612501 0.322105
vt 0.612501 0.322105
vt 0.387499 0.312493
vt 0.188428 0.014660
vt 0.188542 0.018167
vt 0.188542 0.018167
vt 0.197105 0.012499
vt 0.197105 0.012499
vt 0.238831 0.290082
vt 0.296786 0.223559
vt 0.311849 0.014142
vt 0.302895 0.012499
vt 0.302895 0.012499
vt 0.312185 0.016809
vt 0.312185 0.016809
vt 0.313151 0.363777
vt 0.342134 0.268021
vt 0.609169 0.327341
vt 0.605835 0.316787
vt 0.610540 0.313029
vt 0.387499 0.312493
vt 0.605839 0.433220
vt 0.609169 0.422659
vt 0.610539 0.436971
vt 0.387499 0.437506
vt 0.193234 0.019884
vt 0.188428 0.014660
vt 0.203022 0.016183
vt 0.308255 0.018628
vt 0.298340 0.016183
vt 0.311849 0.014142
vt 0.296786 0.223559
vt 0.238832 0.290083
vt 0.364060 0.289514
vt 0.276002 0.326942
vt 0.319467 0.245794
vt 0.349085 0.399414
vt 0.342143 0.268026
vt 0.313165 0.363794
vt 0.612501 0.437506
vt 0.612501 0.437506
vt 0.612501 0.312494
vt 0.612501 0.312494
vt 0.187494 0.012499
vt 0.187494 0.012499
vt 0.312506 0.012499
vt 0.312506 0.012499
vt 0.612501 0.312494
vt 0.612501 0.437506
vt 0.187494 0.012499
vt 0.312506 0.012499
vn 0.000000 -0.999094 -0.042567
vn 0.000000 -0.923866 -0.382717
vn 0.003885 -0.924038 -0.382281
vn 0.008961 -0.999115 -0.041092
vn 0.024685 -0.373913 -0.927135
vn 0.006516 -0.098708 -0.995095
vn 0.007136 -0.139275 -0.990228
vn 0.007561 -0.381840 -0.924198
vn 0.989639 -0.138760 -0.036894
vn 0.924782 -0.072055 -0.373614
vn 0.924782 0.072055 -0.373612
vn 0.989638 0.138763 -0.036894
vn 0.366819 -0.117842 -0.922799
vn 0.007058 0.142076 -0.989831
vn 0.366815 0.117844 -0.922800
vn 0.379490 -0.924788 -0.027485
vn 0.379490 -0.924787 0.027485
vn 0.008961 -0.999115 0.041092
vn 0.924801 -0.379458 -0.027482
vn 0.989639 -0.138760 0.036894
vn 0.924801 -0.379458 0.027482
vn 0.007136 -0.139275 0.990228
vn 0.366819 -0.117842 0.922799
vn 0.366815 0.117844 0.922800
vn 0.007058 0.142076 0.989831
vn 0.924782 -0.072055 0.373614
vn 0.989638 0.138763 0.036894
vn 0.924782 0.072055 0.373612
vn 0.003885 -0.924038 0.382281
vn 0.000000 -0.923866 0.382717
vn 0.000000 -0.999094 0.042567
vn 0.007561 -0.381840 0.924198
vn 0.006516 -0.098707 0.995095
vn 0.024685 -0.373913 0.927135
vn 0.139552 -0.006373 -0.990194
vn 0.117851 -0.366830 -0.922793
vn -0.117848 -0.366825 -0.922795
vn -0.142104 -0.006310 -0.989832
vn 0.072065 -0.924770 -0.373639
vn 0.138782 -0.989635 -0.036897
vn -0.138782 -0.989635 -0.036896
vn -0.072066 -0.924772 -0.373636
vn 0.999123 -0.007992 -0.041106
vn 0.924044 -0.003462 -0.382270
vn 0.923890 -0.000000 -0.382658
vn 0.999093 -0.000000 -0.042575
vn 0.381933 -0.006750 -0.924165
vn 0.098698 -0.005936 -0.995100
vn 0.374543 -0.022526 -0.926936
vn 0.379486 -0.924789 -0.027484
vn 0.379486 -0.924789 0.027484
vn 0.138782 -0.989635 0.036897
vn 0.924805 -0.379447 -0.027482
vn 0.999123 -0.007992 0.041106
vn 0.924805 -0.379447 0.027482
vn 0.999093 0.000000 0.042575
vn 0.923890 0.000000 0.382658
vn 0.924044 -0.003461 0.382270
vn 0.374542 -0.022527 0.926936
vn 0.098698 -0.005936 0.995100
vn 0.139551 -0.006374 0.990194
vn 0.381932 -0.006750 0.924166
vn 0.072065 -0.924770 0.373639
vn -0.072066 -0.924772 0.373636
vn -0.138782 -0.989635 0.036896
vn 0.117851 -0.366830 0.922793
vn -0.142104 -0.006310 0.989832
vn -0.117848 -0.366825 0.922795
vn 0.008594 0.999122 0.041010
vn 0.379544 0.924765 0.027485
vn 0.379544 0.924765 -0.027485
vn 0.008594 0.999122 -0.041010
vn 0.924791 0.379481 0.027483
vn 0.924791 0.379481 -0.027483
vn 0.007334 0.381890 0.924179
vn -0.008689 0.381393 0.924372
vn -0.003989 0.175078 0.984546
vn 0.003732 0.924008 0.382355
vn -0.024358 0.998868 0.040853
vn -0.022201 0.923040 0.384062
vn 0.003732 0.924008 -0.382355
vn -0.022201 0.923040 -0.384062
vn -0.024358 0.998868 -0.040853
vn 0.007334 0.381890 -0.924179
vn -0.003988 0.175079 -0.984546
vn -0.008689 0.381394 -0.924372
vn -0.381953 -0.006565 -0.924158
vn -0.381601 0.007244 -0.924299
vn -0.177022 0.003360 -0.984201
vn -0.924015 -0.003338 -0.382342
vn -0.999128 -0.007694 -0.041032
vn -0.998957 0.020417 -0.040832
vn -0.923229 0.018589 -0.383800
vn -0.924784 -0.379500 -0.027482
vn -0.924784 -0.379500 0.027482
vn -0.999128 -0.007694 0.041032
vn -0.379485 -0.924790 -0.027484
vn -0.379485 -0.924790 0.027484
vn -0.924015 -0.003338 0.382342
vn -0.923229 0.018589 0.383800
vn -0.998957 0.020417 0.040832
vn -0.381953 -0.006565 0.924158
vn -0.177022 0.003360 0.984201
vn -0.381601 0.007244 0.924299
vn -0.435493 0.899282 -0.040468
vn -0.435493 0.899282 0.040467
vn 0.701831 -0.711101 -0.042054
vn 0.701799 -0.711059 -0.043282
vn 0.701799 -0.711059 0.043282
vn 0.701831 -0.711101 0.042054
vn 0.098249 -0.099545 0.990171
vn -0.049254 0.102093 0.993555
vn 0.098250 -0.099545 -0.990170
vn -0.049253 0.102094 -0.993555
vn -0.099986 0.048375 0.993812
vn 0.701788 -0.711067 -0.043314
vn 0.701788 -0.711067 0.043314
vn -0.898912 0.436258 0.040444
vn -0.898913 0.436257 -0.040444
vn -0.099985 0.048376 -0.993812
vn -0.707497 0.705540 0.040753
vn -0.707497 0.705540 -0.040753
vn -0.115934 0.115613 0.986506
vn -0.115934 0.115613 -0.986505
vn 0.648992 -0.657536 0.382696
vn 0.648988 -0.657552 0.382675
vn 0.268813 -0.272359 0.923883
vn 0.648985 -0.657568 -0.382652
vn 0.648989 -0.657552 -0.382674
vn 0.268813 -0.272358 -0.923883
vn 0.648992 -0.657536 -0.382696
vn 0.648985 -0.657568 0.382653
vn -0.165441 0.342930 0.924678
vn -0.402072 0.830896 0.384642
vn -0.402072 0.830895 -0.384645
vn -0.165441 0.342931 -0.924677
vn -0.830529 0.402824 0.384649
vn -0.342727 0.165817 0.924685
vn -0.342727 0.165818 -0.924685
vn -0.830529 0.402823 -0.384649
vn -0.651836 0.650033 0.390598
vn -0.265433 0.264698 0.927082
vn -0.651835 0.650033 -0.390599
vn -0.265433 0.264699 -0.927081
vn 0.325261 -0.325285 -0.887916
vn 0.887919 -0.325275 -0.325262
vn 0.325283 -0.887905 -0.325294
vn 0.887919 -0.325276 0.325262
vn 0.325260 -0.325285 0.887916
vn 0.325283 -0.887905 0.325294
vn 0.325290 -0.887908 -0.325278
vn 0.325284 -0.325273 -0.887912
vn 0.887924 -0.325262 -0.325264
vn 0.325284 -0.325273 0.887912
vn 0.325290 -0.887908 0.325278
vn 0.887923 -0.325263 0.325264
vn 0.887919 0.325287 0.325252
vn 0.325283 0.887904 0.325296
vn 0.325249 0.325297 0.887916
vn 0.325249 0.325297 -0.887916
vn 0.325282 0.887904 -0.325297
vn 0.887919 0.325287 -0.325252
vn -0.887923 -0.325263 -0.325264
vn -0.325273 -0.325259 -0.887921
vn -0.325279 -0.887917 -0.325266
vn -0.325273 -0.325259 0.887921
vn -0.887923 -0.325262 0.325264
vn -0.325278 -0.887917 0.325267
s 1
g S_P12_01 polySurface6
usemtl initialShadingGroup
f 75/119/111 74/149/112 80/154/113 79/115/114
s 2
f 74/149/115 73/123/116 81/93/117 80/153/118
s 3
f 77/94/119 76/150/120 128/181/121 127/102/122
s 2
f 76/150/123 81/93/117 129/104/124 128/181/125
s 1
f 79/115/114 78/151/126 86/159/127 85/116/128
s 3
f 78/152/129 77/94/119 87/95/130 86/158/131
s 4
f 83/96/132 82/155/133 119/177/134 118/121/135
s 3
f 82/155/136 87/95/130 120/101/137 119/177/138
s 1
f 85/116/128 84/156/139 89/160/140 88/117/141
s 4
f 84/157/142 83/96/132 90/129/143 89/160/144
s 2
f 92/97/145 91/161/146 135/184/147 134/127/148
s 6
f 91/161/149 96/124/150 136/105/151 135/184/152
s 7
f 94/98/153 93/162/154 98/166/155 97/118/156
s 2
f 93/163/157 92/97/145 99/138/158 98/166/159
s 6
f 96/124/150 95/164/160 105/170/161 104/125/162
s 7
f 95/165/163 94/98/153 106/99/164 105/169/165
f 102/134/166 101/167/167 107/172/168 106/99/164
s 4
f 101/167/169 100/126/170 108/100/171 107/171/172
s 6
f 104/125/162 103/168/173 143/188/174 142/106/175
s 4
f 103/168/176 108/100/171 144/107/177 143/188/178
s 9
f 116/103/179 115/175/180 126/180/181 125/109/182
s 3
f 115/175/183 120/101/137 127/102/122 126/180/184
s 4
f 118/121/135 117/176/185 122/178/186 121/122/187
s 9
f 117/176/188 116/103/179 123/114/189 122/178/190
f 125/109/182 124/179/191 131/182/192 130/108/193
s 2
f 124/179/194 129/104/124 132/131/195 131/182/196
f 134/127/148 133/183/197 149/190/198 148/128/199
s 9
f 133/183/200 138/110/201 150/135/202 149/190/203
f 138/110/201 137/185/204 141/187/205 140/111/206
s 6
f 137/185/207 136/105/151 142/106/175 141/187/208
s 9
f 140/111/206 139/186/209 146/189/210 145/112/211
s 4
f 139/186/212 144/107/177 147/132/213 146/189/214
s 9
f 130/108/193 123/114/189 116/103/179 125/109/182
f 138/110/201 140/111/206 145/112/211 150/135/202
f 160/113/215 153/141/216 123/114/189 130/108/193
s 1
f 75/119/111 79/115/114 85/116/128 88/117/141
s 7
f 94/98/153 97/118/156 102/134/166 106/99/164
s 11
f 109/133/217 75/119/218 88/117/219 112/120/220
s 4
f 90/129/143 83/96/132 118/121/135 121/122/187
s 3
f 87/95/130 77/94/119 127/102/122 120/101/137
s 2
f 81/93/117 73/123/116 132/131/195 129/104/124
s 6
f 96/124/150 104/125/162 142/106/175 136/105/151
s 4
f 108/100/171 100/126/170 147/132/213 144/107/177
s 2
f 99/138/158 92/97/145 134/127/148 148/128/199
s 4
f 114/144/221 90/129/143 121/122/187 151/130/222
s 2
f 73/123/116 111/147/223 162/148/224 132/131/195
s 4
f 100/126/170 114/144/221 159/145/225 147/132/213
s 11
f 97/118/226 109/133/217 112/120/220 102/134/227
s 9
f 150/135/202 145/112/211 157/136/228 156/140/229
s 2
f 154/137/230 111/147/223 99/138/158 148/128/199
s 9
f 157/136/228 163/139/231 166/142/232 156/140/229
f 163/139/231 153/141/216 160/113/215 166/142/232
s 4
f 114/144/221 151/130/222 165/143/233
f 114/144/221 165/143/233 159/145/225
s 2
f 111/147/223 154/137/230 168/146/234
f 111/147/223 168/146/234 162/148/224
s 11
f 88/117/219 89/160/235 113/174/236 112/120/220
s 4
f 89/160/144 90/129/143 114/144/221 113/174/237
s 11
f 97/118/226 98/166/238 110/173/239 109/133/217
s 2
f 98/166/159 99/138/158 111/147/223 110/173/240
f 73/123/116 74/149/115 110/173/240 111/147/223
s 11
f 74/149/241 75/119/218 109/133/217 110/173/239
s 4
f 100/126/170 101/167/169 113/174/237 114/144/221
s 11
f 101/167/242 102/134/227 112/120/220 113/174/236
s 4
f 121/122/187 122/178/186 152/191/243 151/130/222
s 9
f 122/178/190 123/114/189 153/141/216 152/191/244
f 130/108/193 131/182/192 161/194/245 160/113/215
s 2
f 131/182/196 132/131/195 162/148/224 161/194/246
s 9
f 145/112/211 146/189/210 158/193/247 157/136/228
s 4
f 146/189/214 147/132/213 159/145/225 158/193/248
s 2
f 148/128/199 149/190/198 155/192/249 154/137/230
s 9
f 149/190/203 150/135/202 156/140/229 155/192/250
f 157/136/228 158/193/247 164/195/251 163/139/231
s 4
f 158/193/248 159/145/225 165/143/233 164/195/252
s 9
f 160/113/215 161/194/245 167/196/253 166/142/232
s 2
f 161/194/246 162/148/224 168/146/234 167/196/254
s 4
f 151/130/222 152/191/243 164/195/252 165/143/233
s 9
f 152/191/244 153/141/216 163/139/231 164/195/251
s 2
f 154/137/230 155/192/249 167/196/254 168/146/234
s 9
f 155/192/250 156/140/229 166/142/232 167/196/253
s 2
f 80/153/118 81/93/117 76/150/123 169/197/255
s 3
f 76/150/120 77/94/119 78/152/129 169/197/256
s 1
f 78/151/126 79/115/114 80/154/113 169/198/257
s 3
f 86/158/131 87/95/130 82/155/136 170/199/258
s 4
f 82/155/133 83/96/132 84/157/142 170/199/259
s 1
f 84/156/139 85/116/128 86/159/127 170/200/260
s 6
f 95/164/160 96/124/150 91/161/149 171/201/261
s 2
f 91/161/146 92/97/145 93/163/157 171/201/262
s 7
f 93/162/154 94/98/153 95/165/163 171/202/263
s 4
f 107/171/172 108/100/171 103/168/176 172/203/264
s 6
f 103/168/173 104/125/162 105/170/161 172/203/265
s 7
f 105/169/165 106/99/164 107/172/168 172/204/266
s 3
f 119/177/138 120/101/137 115/175/183 173/205/267
s 9
f 115/175/180 116/103/179 117/176/188 173/205/268
s 4
f 117/176/185 118/121/135 119/177/134 173/205/269
s 2
f 128/181/125 129/104/124 124/179/194 174/206/270
s 9
f 124/179/191 125/109/182 126/180/181 174/206/271
s 3
f 126/180/184 127/102/122 128/181/121 174/206/272
s 9
f 137/185/204 138/110/201 133/183/200 175/207/273
s 2
f 133/183/197 134/127/148 135/184/147 175/207/274
s 6
f 135/184/152 136/105/151 137/185/207 175/207/275
s 4
f 143/188/178 144/107/177 139/186/212 176/208/276
s 9
f 139/186/209 140/111/206 141/187/205 176/208/277
s 6
f 141/187/208 142/106/175 143/188/174 176/208/278
g default
v 24.697505 4.927615 -3.825266
v 24.753789 4.644773 -4.508088
v 24.889567 3.961939 -4.790923
v -0.930375 4.927615 -3.825266
v -0.874091 4.644773 -4.508088
v -0.738314 3.961939 -4.790923
v 27.236897 7.466949 3.825266
v 27.519710 7.410694 4.508088
v 28.202544 7.274888 4.790923
v 27.236897 42.670818 3.825266
v 27.519710 42.614534 4.508088
v 28.202544 42.478698 4.790923
v 26.493137 5.671375 3.825266
v 26.709685 5.454914 4.508088
v 27.232255 4.932315 4.790923
v 28.202544 7.274888 -4.790923
v 27.519710 7.410694 -4.508088
v 27.236897 7.466949 -3.825266
v 26.493137 5.671375 -3.825266
v 26.709685 5.454914 -4.508088
v 27.232255 4.932315 -4.790923
v 24.889567 3.961939 4.790923
v 24.753789 4.644773 4.508088
v 24.697505 4.927615 3.825266
v 25.711893 -0.172378 -3.825266
v 25.655609 0.110405 -4.508088
v 25.519831 0.793269 -4.790923
v -0.930375 -0.172378 -3.825266
v -0.874091 0.110405 -4.508088
v -0.738314 0.793269 -4.790923
v 32.336803 6.452591 3.825266
v 32.053991 6.508817 4.508088
v 31.371157 6.644652 4.790923
v 32.336803 42.670818 3.825266
v 32.053991 42.614563 4.508088
v 31.371157 42.478727 4.790923
v 30.396458 1.767996 3.825266
v 30.180026 1.984457 4.508088
v 29.657455 2.507115 4.790923
v 32.336803 6.452591 -3.825266
v 32.053991 6.508817 -4.508088
v 31.371157 6.644652 -4.790923
v 29.657455 2.507115 -4.790923
v 30.180026 1.984457 -4.508088
v 30.396458 1.767996 -3.825266
v 25.711893 -0.172378 3.825266
v 25.655609 0.110405 4.508088
v 25.519831 0.793269 4.790923
v -2.715215 3.142833 -3.825266
v -2.432403 3.086549 -4.508088
v -1.749568 2.950714 -4.790923
v -2.715215 1.612403 -3.825266
v -2.432403 1.668687 -4.508088
v -1.749568 1.804465 -4.790923
v -2.715215 3.142833 3.825256
v -2.432403 3.086549 4.508079
v -1.749568 2.950714 4.790913
v -2.715215 1.612403 3.825256
v -2.432403 1.668687 4.508079
v -1.749568 1.804465 4.790913
v -0.930375 4.927615 3.825257
v -0.874091 4.644773 4.508079
v -0.738314 3.961939 4.790913
v 29.021621 44.455600 -3.825266
v 29.077905 44.172758 -4.508088
v 29.213799 43.489924 -4.790923
v 30.551964 44.455600 -3.825266
v 30.495680 44.172758 -4.508088
v 30.359902 43.489924 -4.790923
v 27.236897 42.670818 -3.825266
v 27.519710 42.614534 -4.508088
v 28.202544 42.478698 -4.790923
v 29.021621 44.455600 3.825266
v 29.077905 44.172758 4.508088
v 29.213799 43.489924 4.790923
v 30.551964 44.455600 3.825266
v 30.495680 44.172758 4.508088
v 30.359902 43.489924 4.790923
v -0.930375 -0.172378 3.825257
v -0.874091 0.110405 4.508079
v -0.738314 0.793269 4.790913
v 32.336803 42.670818 -3.825266
v 32.053991 42.614563 -4.508088
v 31.371157 42.478727 -4.790923
v -2.192412 4.404812 -3.825266
v -1.975864 4.188351 -4.508088
v -1.453294 3.665752 -4.790923
v -1.453294 3.665752 4.790913
v -1.975864 4.188351 4.508079
v -2.192412 4.404812 3.825257
v 27.759700 43.932797 -3.825266
v 27.976248 43.716336 -4.508088
v 28.498818 43.193737 -4.790923
v 28.498818 43.193737 4.790923
v 27.976248 43.716336 4.508088
v 27.759700 43.932797 3.825266
v -2.192412 0.350308 3.825257
v -1.975864 0.566798 4.508079
v -1.453294 1.089427 4.790913
v -1.453294 1.089427 -4.790923
v -1.975864 0.566798 -4.508088
v -2.192412 0.350308 -3.825266
v 31.814001 43.932797 -3.825266
v 31.597569 43.716336 -4.508088
v 31.074999 43.193737 -4.790923
v 31.074999 43.193737 4.790923
v 31.597569 43.716336 4.508088
v 31.814001 43.932797 3.825266
vt 0.625000 0.937505
vt 0.812507 0.000000
vt 0.799909 0.000000
vt 0.394824 0.937510
vt 0.687498 0.232073
vt 0.401626 0.924911
vt 0.612501 0.825092
vt 0.700093 0.012499
vt 0.799910 0.226934
vt 0.700096 0.000000
vt 0.799907 0.012499
vt 0.612501 0.924907
vt 0.625000 0.825093
vt 0.402149 0.825094
vt 0.612501 0.924907
vt 0.700096 0.226644
vt 0.799907 0.012499
vt 0.700093 0.012499
vt 0.799909 0.000000
vt 0.625000 0.924907
vt 0.612501 0.825092
vt 0.387499 0.924911
vt 0.387499 0.825093
vt 0.799909 0.237501
vt 0.700097 0.237501
vt 0.687496 0.000000
vt 0.687495 0.012499
vt 0.812505 0.012498
vt 0.812507 0.000000
vt 0.612501 0.937506
vt 0.625000 0.937505
vt 0.625000 0.812495
vt 0.612501 0.812493
vt 0.387499 0.825095
vt 0.402148 0.924911
vt 0.387499 0.825095
vt 0.387499 0.924911
vt 0.799908 0.237501
vt 0.700097 0.237501
vt 0.799907 0.226646
vt 0.700097 0.237501
vt 0.387499 0.924911
vt 0.401626 0.825094
vt 0.387499 0.924911
vt 0.387499 0.825097
vt 0.799909 0.237501
vt 0.700096 0.226934
vt 0.799909 0.237501
vt 0.700097 0.237501
vt 0.612501 0.937506
vt 0.394563 0.812494
vt 0.395261 0.812494
vt 0.812505 0.012499
vt 0.687498 0.232217
vt 0.687498 0.231718
vt 0.687498 0.225710
vt 0.687495 0.012499
vt 0.812508 0.231693
vt 0.403301 0.812494
vt 0.612501 0.812493
vt 0.395306 0.937510
vt 0.812508 0.225710
vt 0.812508 0.231758
vt 0.812508 0.225532
vt 0.403626 0.812494
vt 0.395378 0.812494
vt 0.395189 0.937510
vt 0.403626 0.937510
vt 0.403301 0.937510
vt 0.687498 0.225530
vt 0.687498 0.231652
vt 0.700096 0.000000
vt 0.625000 0.825093
vt 0.687496 0.000000
vt 0.625000 0.924907
vt 0.625000 0.812495
vt 0.394563 0.937510
vt 0.812508 0.232217
vt 0.394824 0.812494
vt 0.812508 0.232074
vt 0.612501 0.812493
vt 0.402149 0.812494
vt 0.687495 0.012499
vt 0.687498 0.226644
vt 0.687496 0.000000
vt 0.687496 0.000000
vt 0.625000 0.937505
vt 0.625000 0.937505
vt 0.812505 0.012499
vt 0.625000 0.812495
vt 0.625000 0.812495
vt 0.812507 0.000000
vt 0.812507 0.000000
vt 0.612501 0.937506
vt 0.612501 0.812493
vt 0.401626 0.812494
vt 0.687495 0.012499
vt 0.687498 0.226934
vt 0.625000 0.937505
vt 0.687496 0.000000
vt 0.812505 0.012499
vt 0.625000 0.812495
vt 0.812507 0.000000
vt 0.612501 0.937506
vt 0.387499 0.812494
vt 0.387499 0.812494
vt 0.387499 0.937510
vt 0.387499 0.937510
vt 0.402148 0.937510
vt 0.812508 0.237501
vt 0.812508 0.237501
vt 0.812508 0.226646
vt 0.687498 0.237501
vt 0.687498 0.237501
vt 0.401626 0.937510
vt 0.812508 0.226934
vt 0.387499 0.812494
vt 0.387499 0.812494
vt 0.387499 0.937510
vt 0.387499 0.937510
vt 0.812508 0.237501
vt 0.812508 0.237501
vt 0.687498 0.237501
vt 0.687498 0.237501
vt 0.387499 0.937510
vt 0.387499 0.812494
vt 0.812508 0.237501
vt 0.687498 0.237501
vn -0.023362 0.023363 0.999454
vn -0.252730 0.252728 0.933946
vn -0.012198 0.380579 0.924668
vn -0.001879 0.058620 0.998279
vn -0.353544 0.853548 0.382703
vn -0.382420 0.923263 0.036613
vn -0.027189 0.999024 0.034803
vn -0.026069 0.922800 0.384396
vn -0.999193 0.020157 -0.034730
vn -0.923152 0.019342 -0.383949
vn -0.853550 0.353535 -0.382708
vn -0.923259 0.382430 -0.036612
vn -0.381121 0.009082 -0.924481
vn -0.059373 0.001415 -0.998235
vn -0.023362 0.023363 -0.999454
vn -0.252730 0.252728 -0.933946
vn -0.001110 -0.080569 -0.996749
vn -0.005261 -0.381767 -0.924244
vn -0.252724 -0.252735 -0.933946
vn -0.214573 -0.214581 -0.952845
vn -0.016277 -0.923307 -0.383719
vn -0.018630 -0.999273 -0.033266
vn -0.382463 -0.923460 -0.030734
vn -0.353540 -0.853558 -0.382686
vn 0.079954 0.000816 0.996798
vn 0.382013 0.003898 0.924149
vn 0.252721 0.252739 0.933946
vn 0.214567 0.214580 0.952847
vn 0.923469 0.012108 0.383481
vn 0.999350 0.013873 0.033281
vn 0.923424 0.382548 0.030732
vn 0.853550 0.353598 0.382649
vn 0.089038 -0.003963 -0.996020
vn 0.379752 -0.016904 -0.924934
vn 0.252716 -0.252724 -0.933951
vn 0.083465 -0.083462 -0.993009
vn 0.921771 -0.043123 -0.385330
vn 0.998319 -0.047306 -0.033478
vn 0.923408 -0.382473 -0.032133
vn 0.853575 -0.353547 -0.382640
vn -0.001117 0.078751 0.996894
vn -0.005413 0.381753 0.924248
vn -0.252730 0.252740 0.933943
vn -0.214576 0.214587 0.952843
vn -0.016861 0.923252 0.383825
vn -0.019333 0.999257 0.033335
vn -0.382534 0.923430 0.030736
vn -0.353581 0.853531 0.382707
vn -0.022864 0.133086 0.990841
vn -0.063751 0.371047 0.926423
vn -0.252731 0.252732 0.933945
vn -0.214578 0.214579 0.952844
vn -0.167014 0.905955 0.389039
vn -0.183728 0.982442 0.032416
vn -0.382564 0.923418 0.030736
vn -0.353611 0.853519 0.382707
vn -0.018630 -0.999273 0.033266
vn 0.061724 -0.997531 -0.033511
vn 0.061724 -0.997531 0.033511
vn 0.998319 -0.047306 0.033478
vn 0.999350 0.013873 -0.033281
vn 0.923408 -0.382473 0.032133
vn 0.382480 -0.923405 0.032134
vn 0.382480 -0.923405 -0.032134
vn -0.019333 0.999257 -0.033335
vn -0.027189 0.999024 -0.034803
vn -0.999193 0.020157 0.034730
vn -0.999343 0.014257 0.033327
vn -0.999343 0.014257 -0.033327
vn -0.923259 0.382430 0.036612
vn -0.382420 0.923263 -0.036613
vn -0.982444 0.183720 0.032416
vn -0.982444 0.183720 -0.032416
vn -0.982445 -0.183713 -0.032416
vn -0.982445 -0.183713 0.032416
vn -0.183728 0.982442 -0.032416
vn 0.183720 0.982444 0.032415
vn 0.183720 0.982444 -0.032415
vn -0.059373 0.001415 0.998235
vn 0.083465 -0.083463 0.993009
vn 0.089038 -0.003963 0.996020
vn 0.005237 -0.089690 0.995956
vn -0.001879 0.058620 -0.998279
vn 0.005237 -0.089690 -0.995956
vn -0.382534 0.923430 -0.030736
vn -0.923423 0.382551 -0.030739
vn -0.923423 0.382551 0.030739
vn -0.382564 0.923418 -0.030736
vn -0.923423 0.382551 -0.030739
vn -0.923423 0.382551 0.030739
vn -0.382463 -0.923460 0.030734
vn -0.923435 -0.382521 0.030739
vn -0.923435 -0.382521 -0.030739
vn 0.923424 0.382548 -0.030732
vn 0.382533 0.923431 -0.030735
vn 0.382533 0.923431 0.030735
vn -0.001111 -0.080569 0.996749
vn -0.133090 -0.022871 -0.990840
vn -0.078618 0.000819 -0.996904
vn 0.079954 0.000816 -0.996798
vn 0.022865 0.133092 0.990840
vn -0.078618 0.000819 0.996904
vn -0.022864 0.133086 -0.990841
vn -0.214578 0.214579 -0.952844
vn -0.001117 0.078751 -0.996894
vn -0.133089 0.022870 0.990840
vn 0.214567 0.214580 -0.952847
vn 0.022865 0.133092 -0.990840
vn -0.133089 0.022870 -0.990840
vn -0.214576 0.214586 -0.952843
vn -0.133091 -0.022871 0.990840
vn -0.214573 -0.214581 0.952845
vn -0.026069 0.922800 -0.384396
vn -0.016861 0.923252 -0.383825
vn -0.012198 0.380579 -0.924668
vn -0.005413 0.381753 -0.924248
vn -0.353581 0.853531 -0.382707
vn -0.252730 0.252740 -0.933944
vn -0.923152 0.019342 0.383949
vn -0.923455 0.012428 0.383505
vn -0.381121 0.009082 0.924481
vn -0.381999 0.003982 0.924154
vn -0.853550 0.353535 0.382707
vn -0.353544 0.853548 -0.382703
vn 0.022117 -0.378815 -0.925208
vn 0.056303 -0.920790 -0.385975
vn 0.921771 -0.043123 0.385330
vn 0.853575 -0.353547 0.382640
vn 0.379752 -0.016904 0.924934
vn 0.252716 -0.252724 0.933951
vn 0.353555 -0.853569 0.382647
vn 0.056303 -0.920790 0.385975
vn 0.022116 -0.378815 0.925208
vn 0.923469 0.012108 -0.383481
vn 0.382013 0.003898 -0.924149
vn 0.353555 -0.853569 -0.382647
vn -0.016277 -0.923307 0.383719
vn -0.005261 -0.381767 0.924244
vn -0.905958 0.167023 -0.389028
vn -0.905959 -0.167016 -0.389029
vn -0.371048 0.063758 -0.926422
vn -0.371050 -0.063755 -0.926422
vn -0.371048 0.063758 0.926422
vn -0.371050 -0.063755 0.926422
vn -0.905958 0.167023 0.389028
vn -0.905959 -0.167017 0.389029
vn -0.167014 0.905955 -0.389040
vn -0.353611 0.853519 -0.382708
vn -0.063751 0.371048 -0.926423
vn -0.252732 0.252732 -0.933945
vn 0.063743 0.371057 -0.926420
vn 0.167004 0.905963 -0.389025
vn -0.381999 0.003982 -0.924154
vn -0.923455 0.012428 -0.383505
vn 0.167004 0.905963 0.389025
vn 0.063743 0.371057 0.926420
vn -0.353540 -0.853558 0.382686
vn -0.252724 -0.252735 0.933946
vn 0.853550 0.353598 -0.382650
vn 0.252721 0.252739 -0.933946
vn -0.853511 0.353619 -0.382718
vn -0.853510 0.353619 0.382719
vn -0.853511 0.353618 -0.382719
vn -0.853511 0.353618 0.382718
vn -0.853520 -0.353592 0.382723
vn -0.853520 -0.353592 -0.382723
vn 0.353571 0.853548 -0.382679
vn 0.353571 0.853548 0.382679
s 1
g S_P12_01 polySurface8 polySurface7
usemtl initialShadingGroup
f 191/209/279 190/296/280 199/302/281 198/238/282
s 2
f 190/295/283 189/228/284 200/223/285 199/302/286
s 3
f 194/225/287 193/297/288 196/300/289 195/227/290
s 4
f 193/297/291 192/236/292 197/210/293 196/301/294
f 206/267/295 205/304/296 277/334/297 276/259/298
s 6
f 205/304/299 204/251/300 278/253/301 277/334/302
s 1
f 212/264/303 211/306/304 283/336/305 282/262/306
s 8
f 211/306/307 210/255/308 284/257/309 283/336/310
s 4
f 218/261/311 217/309/312 220/311/313 219/237/314
s 8
f 217/309/315 216/219/316 221/211/317 220/311/318
s 1
f 239/276/319 238/317/320 265/327/321 264/212/322
s 2
f 238/317/323 237/243/324 266/245/325 265/328/326
s 1
f 251/279/327 250/321/328 271/332/329 270/213/330
s 12
f 250/321/331 249/247/332 272/249/333 271/332/334
s 6
f 255/214/335 204/251/300 201/215/336 222/220/337
s 8
f 207/216/338 216/219/316 258/217/339 210/255/308
f 207/216/338 213/218/340 221/211/317 216/219/316
s 6
f 213/283/341 222/220/337 201/215/336 221/221/342
s 2
f 180/222/343 237/243/324 200/223/285 177/229/344
s 3
f 183/226/345 186/224/346 246/248/347 194/225/287
f 183/226/345 194/225/287 195/227/290 189/280/348
s 2
f 189/228/284 195/281/349 177/229/344 200/223/285
s 14
f 231/230/350 225/244/351 228/231/352 234/252/353
s 12
f 240/232/354 249/247/332 252/233/355 243/256/356
s 1
f 185/265/357 191/234/279 215/282/358 209/235/359
s 4
f 197/210/293 192/236/292 218/261/311 219/237/314
s 1
f 191/209/279 198/238/282 224/258/360 215/239/358
s 4
f 179/268/361 197/240/293 219/284/314 203/241/362
s 2
f 180/222/343 261/242/363 266/245/325 237/243/324
s 14
f 261/242/364 225/244/351 231/230/350 266/245/365
s 12
f 240/232/354 267/246/366 272/249/333 249/247/332
s 3
f 267/246/367 246/248/347 186/224/346 272/249/368
s 6
f 255/214/335 273/250/369 278/253/301 204/251/300
s 14
f 273/250/370 234/252/353 228/231/352 278/253/371
s 8
f 258/217/339 279/254/372 284/257/309 210/255/308
s 12
f 279/254/373 243/256/356 252/233/355 284/257/374
s 1
f 257/277/375 224/258/360 198/238/282 239/276/319
s 4
f 276/259/298 230/260/376 206/267/295
f 248/272/377 260/270/378 218/261/311 192/236/292
s 1
f 282/262/306 254/263/379 212/264/303
f 212/264/303 188/278/380 185/265/357 209/235/359
s 4
f 242/266/381 248/272/377 269/288/382
f 206/267/295 182/273/383 179/268/361 203/241/362
s 1
f 233/269/384 239/276/319 264/212/322
s 4
f 281/286/385 260/270/378 245/271/386
f 245/271/386 260/270/378 248/272/377 242/266/381
f 182/273/383 227/274/387 263/287/388
f 206/267/295 230/260/376 227/274/387 182/273/383
s 1
f 236/275/389 257/277/375 239/276/319 233/269/384
f 275/285/390 257/277/375 236/275/389
f 188/278/380 251/279/327 270/213/330
f 212/264/303 254/263/379 251/279/327 188/278/380
s 2
f 177/229/344 178/289/391 181/290/392 180/222/343
s 4
f 178/289/393 179/268/361 182/273/383 181/290/394
s 2
f 180/222/343 181/290/392 262/326/395 261/242/363
s 4
f 181/290/394 182/273/383 263/287/388 262/325/396
s 3
f 183/226/345 184/291/397 187/292/398 186/224/346
s 1
f 184/291/399 185/265/357 188/278/380 187/292/400
f 185/265/357 184/291/399 190/293/280 191/234/279
s 3
f 184/291/397 183/226/345 189/280/348 190/294/401
s 4
f 179/268/361 178/289/393 196/298/294 197/240/293
s 2
f 178/289/391 177/229/344 195/281/349 196/299/402
s 4
f 203/241/362 202/303/403 205/304/296 206/267/295
s 6
f 202/303/404 201/215/336 204/251/300 205/304/299
s 8
f 207/216/338 208/305/405 214/308/406 213/218/340
s 1
f 208/305/407 209/235/359 215/282/358 214/308/408
f 209/235/359 208/305/407 211/306/304 212/264/303
s 8
f 208/305/405 207/216/338 210/255/308 211/306/307
s 6
f 213/283/341 214/307/409 223/312/410 222/220/337
s 1
f 214/307/408 215/239/358 224/258/360 223/312/411
s 8
f 216/219/316 217/309/315 259/324/412 258/217/339
s 4
f 217/309/312 218/261/311 260/270/378 259/324/413
s 6
f 201/215/336 202/303/404 220/310/414 221/221/342
s 4
f 202/303/403 203/241/362 219/284/314 220/310/313
s 6
f 222/220/337 223/312/410 256/323/415 255/214/335
s 1
f 223/312/411 224/258/360 257/277/375 256/323/416
s 14
f 225/244/351 226/313/417 229/314/418 228/231/352
s 4
f 226/313/419 227/274/387 230/260/376 229/314/420
s 1
f 233/269/384 232/315/421 235/316/422 236/275/389
s 14
f 232/315/423 231/230/350 234/252/353 235/316/424
s 1
f 198/238/282 199/302/281 238/317/320 239/276/319
s 2
f 199/302/286 200/223/285 237/243/324 238/317/323
s 12
f 240/232/354 241/318/425 268/329/426 267/246/366
s 4
f 241/318/427 242/266/381 269/288/382 268/329/428
f 242/266/381 241/318/427 244/319/429 245/271/386
s 12
f 241/318/425 240/232/354 243/256/356 244/319/430
s 4
f 192/236/292 193/297/291 247/320/431 248/272/377
s 3
f 193/297/288 194/225/287 246/248/347 247/320/432
s 12
f 249/247/332 250/321/331 253/322/433 252/233/355
s 1
f 250/321/328 251/279/327 254/263/379 253/322/434
s 6
f 255/214/335 256/323/415 274/333/435 273/250/369
s 1
f 256/323/416 257/277/375 275/285/390 274/333/436
s 8
f 258/217/339 259/324/412 280/335/437 279/254/372
s 4
f 259/324/413 260/270/378 281/286/385 280/335/438
f 227/274/387 226/313/419 262/325/396 263/287/388
s 14
f 226/313/417 225/244/351 261/242/364 262/325/439
f 231/230/350 232/315/423 265/327/440 266/245/365
s 1
f 232/315/421 233/269/384 264/212/322 265/327/321
s 4
f 248/272/377 247/320/431 268/329/428 269/288/382
s 3
f 247/320/432 246/248/347 267/246/367 268/330/441
f 186/224/346 187/292/398 271/331/442 272/249/368
s 1
f 187/292/400 188/278/380 270/213/330 271/332/329
f 236/275/389 235/316/422 274/333/436 275/285/390
s 14
f 235/316/424 234/252/353 273/250/370 274/333/443
f 228/231/352 229/314/418 277/334/444 278/253/371
s 4
f 229/314/420 230/260/376 276/259/298 277/334/297
f 245/271/386 244/319/429 280/335/438 281/286/385
s 12
f 244/319/430 243/256/356 279/254/373 280/335/445
f 252/233/355 253/322/433 283/336/446 284/257/374
s 1
f 253/322/434 254/263/379 282/262/306 283/336/305
g default
v -6.131485 75.195970 -0.440046
v -6.121109 74.422502 -2.358526
v -6.101883 72.519029 -3.168121
v -6.085038 70.600633 -2.394583
v -6.080460 69.791032 -0.491039
v -6.090836 70.564531 1.427441
v -6.110062 72.467973 2.237036
v -6.126908 74.386369 1.463497
v -27.000626 75.033189 -0.470611
v -26.957535 74.260912 -2.389120
v -26.851517 72.360338 -3.198784
v -26.744706 70.444810 -2.425310
v -26.699662 69.636400 -0.521791
v -26.742691 70.408678 1.396717
v -26.848709 72.309251 2.206381
v -26.955521 74.224779 1.432907
v -28.964554 74.812089 -0.470611
v -28.835892 74.049394 -2.389120
v -28.519303 72.172411 -3.198784
v -28.200150 70.280626 -2.425310
v -28.065506 69.482225 -0.521791
v -28.194168 70.244920 1.396717
v -28.510758 72.121934 2.206381
v -28.829850 74.013719 1.432907
v -30.881058 74.382188 -0.470611
v -30.671646 73.637590 -2.389120
v -30.156388 71.805131 -3.198784
v -29.637040 69.958269 -2.425310
v -29.417862 69.178819 -0.521791
v -29.627213 69.923418 1.396717
v -30.142533 71.755876 2.206381
v -30.661881 73.602739 1.432907
v -32.741532 73.749681 -0.470611
v -32.453629 73.031786 -2.389120
v -31.745011 71.265062 -3.198784
v -31.030899 69.484422 -2.425310
v -30.729447 68.732957 -0.521791
v -31.017411 69.450853 1.396717
v -31.725968 71.217546 2.206381
v -32.440140 72.998186 1.432907
v -34.525284 72.919878 -0.470611
v -34.161698 72.237230 -2.389120
v -33.266861 70.557146 -3.198784
v -32.364945 68.863847 -2.425310
v -31.984330 68.149248 -0.521791
v -32.347916 68.831926 1.396717
v -33.242813 70.511980 2.206381
v -34.144669 72.205278 1.432907
v -36.207352 71.904375 -0.470611
v -35.772721 71.264543 -2.389120
v -34.703080 69.689989 -3.198784
v -33.625077 68.103014 -2.425310
v -33.170060 67.433275 -0.521791
v -33.604691 68.073076 1.396717
v -34.674332 69.647630 2.206381
v -35.752396 71.234605 1.432907
v -37.767227 70.720232 -0.470611
v -37.268082 70.129350 -2.389120
v -36.039810 68.675157 -3.198784
v -34.801773 67.209550 -2.425310
v -34.279312 66.591020 -0.521791
v -34.778458 67.181901 1.396717
v -36.006790 68.636064 2.206381
v -37.244767 70.101701 1.432907
v -39.188065 69.391832 -0.470611
v -38.632462 68.853715 -2.389120
v -37.265152 67.529375 -3.198784
v -35.887040 66.194627 -2.425310
v -35.305435 65.631334 -0.521791
v -35.861039 66.169450 1.396717
v -37.228348 67.493761 2.206381
v -38.606461 68.828538 1.432907
v -40.462906 67.944414 -0.470611
v -39.859391 67.460588 -2.389120
v -38.374222 66.269945 -3.198784
v -36.877396 65.069932 -2.425310
v -36.245682 64.563463 -0.521791
v -36.849137 65.047288 1.396717
v -38.334305 66.237932 2.206381
v -39.831192 67.437944 1.432907
v -41.590409 66.404771 -0.470611
v -40.947525 65.974748 -2.389120
v -39.365311 64.916429 -3.198784
v -37.770645 63.849779 -2.425310
v -37.097672 63.399614 -0.521791
v -37.740555 63.829668 1.396717
v -39.322769 64.887956 2.206381
v -40.917435 65.954607 1.432907
v -42.576737 64.795030 -0.470611
v -41.902115 64.416704 -2.389120
v -40.241837 63.485643 -3.198784
v -38.568497 62.547258 -2.425310
v -37.862259 62.151262 -0.521791
v -38.536942 62.529558 1.396717
v -40.197220 63.460619 2.206381
v -41.870560 64.399004 1.432907
v -43.430558 63.135393 -0.470611
v -42.730851 62.805711 -2.389120
v -41.008927 61.994340 -3.198784
v -39.273453 61.176591 -2.425310
v -38.541031 60.831468 -0.521791
v -39.240677 61.161180 1.396717
v -40.962662 61.972520 2.206381
v -42.698136 62.790300 1.432907
v -44.163834 61.439134 -0.470611
v -43.444657 61.154558 -2.389120
v -41.674637 60.454179 -3.198784
v -39.890763 59.748277 -2.425310
v -39.137894 59.450365 -0.521791
v -39.857071 59.734972 1.396717
v -41.627091 60.435350 2.206381
v -43.411026 61.141252 1.432907
v -44.787369 59.719560 -0.470611
v -44.053177 59.476335 -2.389120
v -42.246231 58.877733 -3.198784
v -40.425003 58.274461 -2.425310
v -39.656449 58.019853 -0.521791
v -40.390702 58.263078 1.396717
v -42.197647 58.861650 2.206381
v -44.018814 59.464952 1.432907
v -45.313065 57.983079 -0.470611
v -44.567398 57.777605 -2.389120
v -42.732254 57.271959 -3.198784
v -40.882706 56.762315 -2.425310
v -40.102127 56.547227 -0.521791
v -40.847794 56.752702 1.396717
v -42.682938 57.258348 2.206381
v -44.532486 57.767992 1.432907
v -45.750565 56.237779 -0.470611
v -44.996231 56.066637 -2.389120
v -43.139908 55.645464 -3.198784
v -41.268936 55.220995 -2.425310
v -40.479386 55.041856 -0.521791
v -41.233658 55.212968 1.396717
v -43.089981 55.634141 2.206381
v -44.960953 56.058641 1.432907
v -46.109513 54.486467 -0.470611
v -45.348831 54.346544 -2.389120
v -43.476700 54.002183 -3.198784
v -41.589859 53.655138 -2.425310
v -40.793534 53.508653 -0.521791
v -41.554276 53.648576 1.396717
v -43.426346 53.992937 2.206381
v -45.313248 54.339983 1.432907
v -46.397843 52.733537 -0.470611
v -45.632462 52.621995 -2.389120
v -43.748856 52.347490 -3.198784
v -41.850357 52.070787 -2.425310
v -41.049210 51.954027 -0.521791
v -41.814591 52.065568 1.396717
v -43.698197 52.340105 2.206381
v -45.596634 52.616777 1.432907
v -17.408219 74.297380 1.446808
v -17.346390 72.380449 2.220316
v -17.283768 70.478410 1.410685
v -17.257035 69.705522 -0.507809
v -17.281876 70.514543 -2.411341
v -17.343705 72.431505 -3.184847
v -17.406327 74.333513 -2.375217
v -17.433060 75.106401 -0.456724
vt 0.000000 0.032089
vt 0.037735 0.032089
vt 0.075472 0.032089
vt 0.113208 0.032089
vt 0.150943 0.032089
vt 0.188679 0.032089
vt 0.226415 0.032089
vt 0.264151 0.032089
vt 0.301887 0.032089
vt 0.000000 0.412814
vt 0.037735 0.412814
vt 0.075472 0.412814
vt 0.113208 0.412814
vt 0.150943 0.412814
vt 0.188679 0.412814
vt 0.226415 0.412814
vt 0.264151 0.412814
vt 0.301887 0.412814
vt 0.000000 0.448868
vt 0.037735 0.448868
vt 0.075472 0.448868
vt 0.113208 0.448868
vt 0.150943 0.448868
vt 0.188679 0.448868
vt 0.226415 0.448868
vt 0.264151 0.448868
vt 0.301887 0.448868
vt 0.000000 0.484699
vt 0.037735 0.484699
vt 0.075472 0.484699
vt 0.113208 0.484699
vt 0.150943 0.484699
vt 0.188679 0.484699
vt 0.226415 0.484699
vt 0.264151 0.484699
vt 0.301887 0.484699
vt 0.000000 0.520547
vt 0.037735 0.520547
vt 0.075472 0.520547
vt 0.113208 0.520547
vt 0.150943 0.520547
vt 0.188679 0.520547
vt 0.226415 0.520547
vt 0.264151 0.520547
vt 0.301887 0.520547
vt 0.000000 0.556436
vt 0.037735 0.556436
vt 0.075472 0.556436
vt 0.113208 0.556436
vt 0.150943 0.556436
vt 0.188679 0.556436
vt 0.226415 0.556436
vt 0.264151 0.556436
vt 0.301887 0.556436
vt 0.000000 0.592280
vt 0.037735 0.592280
vt 0.075472 0.592280
vt 0.113208 0.592280
vt 0.150943 0.592280
vt 0.188679 0.592280
vt 0.226415 0.592280
vt 0.264151 0.592280
vt 0.301887 0.592280
vt 0.000000 0.628006
vt 0.037735 0.628006
vt 0.075472 0.628006
vt 0.113208 0.628006
vt 0.150943 0.628006
vt 0.188679 0.628006
vt 0.226415 0.628006
vt 0.264151 0.628006
vt 0.301887 0.628006
vt 0.000000 0.663490
vt 0.037735 0.663490
vt 0.075472 0.663490
vt 0.113208 0.663490
vt 0.150943 0.663490
vt 0.188679 0.663490
vt 0.226415 0.663490
vt 0.264151 0.663490
vt 0.301887 0.663490
vt 0.000000 0.698676
vt 0.037735 0.698676
vt 0.075472 0.698676
vt 0.113208 0.698676
vt 0.150943 0.698676
vt 0.188679 0.698676
vt 0.226415 0.698676
vt 0.264151 0.698676
vt 0.301887 0.698676
vt 0.000000 0.733490
vt 0.037735 0.733490
vt 0.075472 0.733490
vt 0.113208 0.733490
vt 0.150943 0.733490
vt 0.188679 0.733490
vt 0.226415 0.733490
vt 0.264151 0.733490
vt 0.301887 0.733490
vt 0.000000 0.767930
vt 0.037735 0.767930
vt 0.075472 0.767930
vt 0.113208 0.767930
vt 0.150943 0.767930
vt 0.188679 0.767930
vt 0.226415 0.767930
vt 0.264151 0.767930
vt 0.301887 0.767930
vt 0.000000 0.801978
vt 0.037735 0.801978
vt 0.075472 0.801978
vt 0.113208 0.801978
vt 0.150943 0.801978
vt 0.188679 0.801978
vt 0.226415 0.801978
vt 0.264151 0.801978
vt 0.301887 0.801978
vt 0.000000 0.835689
vt 0.037735 0.835689
vt 0.075472 0.835689
vt 0.113208 0.835689
vt 0.150943 0.835689
vt 0.188679 0.835689
vt 0.226415 0.835689
vt 0.264151 0.835689
vt 0.301887 0.835689
vt 0.000000 0.869058
vt 0.037735 0.869058
vt 0.075472 0.869058
vt 0.113208 0.869058
vt 0.150943 0.869058
vt 0.188679 0.869058
vt 0.226415 0.869058
vt 0.264151 0.869058
vt 0.301887 0.869058
vt 0.000000 0.902155
vt 0.037735 0.902155
vt 0.075472 0.902155
vt 0.113208 0.902155
vt 0.150943 0.902155
vt 0.188679 0.902155
vt 0.226415 0.902155
vt 0.264151 0.902155
vt 0.301887 0.902155
vt 0.000000 0.934979
vt 0.037735 0.934979
vt 0.075472 0.934979
vt 0.113208 0.934979
vt 0.150943 0.934979
vt 0.188679 0.934979
vt 0.226415 0.934979
vt 0.264151 0.934979
vt 0.301887 0.934979
vt 0.000000 0.967592
vt 0.037735 0.967592
vt 0.075472 0.967592
vt 0.113208 0.967592
vt 0.150943 0.967592
vt 0.188679 0.967592
vt 0.226415 0.967592
vt 0.264151 0.967592
vt 0.301887 0.967592
vt 0.000000 1.000000
vt 0.037735 1.000000
vt 0.075472 1.000000
vt 0.113208 1.000000
vt 0.150943 1.000000
vt 0.188679 1.000000
vt 0.226415 1.000000
vt 0.264151 1.000000
vt 0.301887 1.000000
vt 0.264151 0.238269
vt 0.226415 0.238269
vt 0.188679 0.238269
vt 0.150943 0.238269
vt 0.113208 0.238269
vt 0.075472 0.238269
vt 0.037735 0.238269
vt 0.000000 0.238269
vt 0.301887 0.238269
vn -0.007919 0.999925 0.009382
vn -0.004593 0.714026 -0.700104
vn -0.004513 0.714587 -0.699532
vn -0.007791 0.999926 0.009383
vn 0.001391 0.009891 -0.999950
vn 0.001372 0.010857 -0.999940
vn 0.006451 -0.700239 -0.713879
vn 0.006339 -0.699835 -0.714276
vn 0.007685 -0.999925 -0.009502
vn 0.007537 -0.999926 -0.009511
vn 0.004444 -0.713674 0.700464
vn 0.004342 -0.713307 0.700838
vn -0.001437 -0.009063 0.999958
vn -0.001439 -0.008150 0.999966
vn -0.006584 0.700707 0.713419
vn -0.006489 0.701258 0.712878
vn -0.025158 0.999643 0.008964
vn -0.017099 0.721687 -0.692008
vn -0.121069 0.721401 -0.681853
vn -0.165487 0.986170 0.009134
vn 0.000254 0.026299 -0.999654
vn -0.007958 0.047664 -0.998832
vn 0.015738 -0.691532 -0.722174
vn 0.112600 -0.669351 -0.734364
vn 0.021069 -0.999728 -0.009961
vn 0.165933 -0.986088 -0.009886
vn 0.014212 -0.705633 0.708435
vn 0.114951 -0.683313 0.721020
vn -0.001797 0.007254 0.999972
vn -0.004835 0.029071 0.999566
vn -0.018480 0.708897 0.705070
vn -0.118972 0.708893 0.695210
vn -0.197993 0.703897 -0.682149
vn -0.270764 0.962602 0.009137
vn -0.012909 0.045882 -0.998864
vn 0.183889 -0.653783 -0.733998
vn 0.270748 -0.962600 -0.009875
vn 0.187717 -0.667393 0.720659
vn -0.007806 0.027744 0.999585
vn -0.194558 0.691672 0.695512
vn -0.272326 0.678688 -0.682071
vn -0.372378 0.928036 0.009143
vn -0.017826 0.044413 -0.998854
vn 0.252833 -0.630217 -0.734100
vn 0.372313 -0.928055 -0.009866
vn 0.258095 -0.643334 0.720769
vn -0.010804 0.026903 0.999580
vn -0.267598 0.666914 0.695426
vn -0.343693 0.645499 -0.682060
vn -0.469953 0.882644 0.009145
vn -0.022492 0.042253 -0.998854
vn 0.319158 -0.599353 -0.734108
vn 0.470001 -0.882611 -0.009873
vn 0.325807 -0.611835 0.720769
vn -0.013632 0.025620 0.999579
vn -0.337724 0.634300 0.695418
vn -0.410477 0.604930 -0.682325
vn -0.561458 0.827455 0.009140
vn -0.026533 0.039139 -0.998882
vn 0.381588 -0.562088 -0.733790
vn 0.561663 -0.827307 -0.009862
vn 0.389527 -0.573792 0.720439
vn -0.015940 0.023539 0.999596
vn -0.403345 0.594419 0.695686
vn -0.470835 0.558503 -0.682927
vn -0.644509 0.764542 0.009142
vn -0.029612 0.035190 -0.998942
vn 0.438596 -0.519874 -0.733051
vn 0.644841 -0.764254 -0.009849
vn 0.447695 -0.530645 0.719712
vn -0.017453 0.020770 0.999632
vn -0.462635 0.548782 0.696281
vn -0.523476 0.508291 -0.683823
vn -0.717388 0.696613 0.009158
vn -0.031553 0.030707 -0.999030
vn 0.489047 -0.474417 -0.731957
vn 0.717765 -0.696216 -0.009837
vn 0.499149 -0.484210 0.718603
vn -0.018008 0.017558 0.999684
vn -0.514322 0.499399 0.697189
vn -0.567780 0.456576 -0.684956
vn -0.779252 0.626644 0.009179
vn -0.032363 0.026107 -0.999135
vn 0.532325 -0.427599 -0.730609
vn 0.779612 -0.626186 -0.009805
vn 0.543248 -0.436395 0.717246
vn -0.017656 0.014271 0.999742
vn -0.557815 0.448539 0.698323
vn -0.604006 0.405341 -0.686204
vn -0.830305 0.557234 0.009199
vn -0.032245 0.021710 -0.999244
vn 0.568472 -0.381088 -0.729117
vn 0.830621 -0.556753 -0.009771
vn 0.580074 -0.388853 0.715757
vn -0.016563 0.011191 0.999800
vn -0.593340 0.398181 0.699571
vn -0.632864 0.356133 -0.687497
vn -0.871436 0.490423 0.009225
vn -0.031443 0.017743 -0.999348
vn 0.597965 -0.336165 -0.727621
vn 0.871679 -0.489980 -0.009741
vn 0.610095 -0.342967 0.714253
vn -0.014979 0.008496 0.999852
vn -0.621623 0.349818 0.700865
vn -0.655421 0.309923 -0.688746
vn -0.903977 0.427480 0.009250
vn -0.030223 0.014334 -0.999440
vn 0.621626 -0.293659 -0.726186
vn 0.904155 -0.427095 -0.009716
vn 0.634155 -0.299585 0.712809
vn -0.013134 0.006263 0.999894
vn -0.643716 0.304387 0.702125
vn -0.672778 0.267194 -0.689911
vn -0.929342 0.369104 0.009274
vn -0.028781 0.011471 -0.999520
vn 0.640324 -0.254083 -0.724863
vn 0.929462 -0.368790 -0.009680
vn 0.653149 -0.259189 0.711490
vn -0.011213 0.004487 0.999927
vn -0.660705 0.262401 0.703288
vn -0.685964 0.228061 -0.690972
vn -0.948885 0.315486 0.009293
vn -0.027279 0.009103 -0.999586
vn 0.654951 -0.217564 -0.723675
vn 0.948975 -0.315202 -0.009654
vn 0.668001 -0.221896 0.710308
vn -0.009327 0.003137 0.999952
vn -0.673601 0.223953 0.704348
vn -0.695847 0.192463 -0.691921
vn -0.963765 0.266589 0.009310
vn -0.025788 0.007152 -0.999642
vn 0.666251 -0.184139 -0.722636
vn 0.963827 -0.266354 -0.009637
vn 0.679482 -0.187785 0.709254
vn -0.007554 0.002116 0.999969
vn -0.683251 0.188987 0.705302
vn -0.703154 0.160151 -0.692767
vn -0.974986 0.222069 0.009330
vn -0.024382 0.005572 -0.999687
vn 0.674935 -0.153613 -0.721710
vn 0.975021 -0.221905 -0.009619
vn 0.688282 -0.156656 0.708327
vn -0.005929 0.001367 0.999982
vn -0.690381 0.157232 0.706153
vn -0.708475 0.130862 -0.693497
vn -0.983323 0.181629 0.009340
vn -0.023084 0.004277 -0.999724
vn 0.681509 -0.125787 -0.720918
vn 0.983347 -0.181485 -0.009602
vn 0.694946 -0.128273 0.707528
vn -0.004480 0.000840 0.999990
vn -0.695563 0.128466 0.706886
vn -0.710607 0.116862 -0.693817
vn -0.986700 0.162282 0.009341
vn -0.022394 0.003675 -0.999743
vn 0.684323 -0.112531 -0.720443
vn 0.986706 -0.162234 -0.009584
vn 0.697778 -0.114750 0.707063
vn -0.003725 0.000600 0.999993
vn -0.697634 0.114745 0.707206
s 1
g S_P12_01 sweep2
usemtl initialShadingGroup
f 285/337/447 286/338/448 443/514/449 444/515/450
f 286/338/448 287/339/451 442/513/452 443/514/449
f 287/339/451 288/340/453 441/512/454 442/513/452
f 288/340/453 289/341/455 440/511/456 441/512/454
f 289/341/455 290/342/457 439/510/458 440/511/456
f 290/342/457 291/343/459 438/509/460 439/510/458
f 291/343/459 292/344/461 437/508/462 438/509/460
f 292/344/461 285/345/447 444/516/450 437/508/462
f 293/346/463 294/347/464 302/356/465 301/355/466
f 294/347/464 295/348/467 303/357/468 302/356/465
f 295/348/467 296/349/469 304/358/470 303/357/468
f 296/349/469 297/350/471 305/359/472 304/358/470
f 297/350/471 298/351/473 306/360/474 305/359/472
f 298/351/473 299/352/475 307/361/476 306/360/474
f 299/352/475 300/353/477 308/362/478 307/361/476
f 300/353/477 293/354/463 301/363/466 308/362/478
f 301/355/466 302/356/465 310/365/479 309/364/480
f 302/356/465 303/357/468 311/366/481 310/365/479
f 303/357/468 304/358/470 312/367/482 311/366/481
f 304/358/470 305/359/472 313/368/483 312/367/482
f 305/359/472 306/360/474 314/369/484 313/368/483
f 306/360/474 307/361/476 315/370/485 314/369/484
f 307/361/476 308/362/478 316/371/486 315/370/485
f 308/362/478 301/363/466 309/372/480 316/371/486
f 309/364/480 310/365/479 318/374/487 317/373/488
f 310/365/479 311/366/481 319/375/489 318/374/487
f 311/366/481 312/367/482 320/376/490 319/375/489
f 312/367/482 313/368/483 321/377/491 320/376/490
f 313/368/483 314/369/484 322/378/492 321/377/491
f 314/369/484 315/370/485 323/379/493 322/378/492
f 315/370/485 316/371/486 324/380/494 323/379/493
f 316/371/486 309/372/480 317/381/488 324/380/494
f 317/373/488 318/374/487 326/383/495 325/382/496
f 318/374/487 319/375/489 327/384/497 326/383/495
f 319/375/489 320/376/490 328/385/498 327/384/497
f 320/376/490 321/377/491 329/386/499 328/385/498
f 321/377/491 322/378/492 330/387/500 329/386/499
f 322/378/492 323/379/493 331/388/501 330/387/500
f 323/379/493 324/380/494 332/389/502 331/388/501
f 324/380/494 317/381/488 325/390/496 332/389/502
f 325/382/496 326/383/495 334/392/503 333/391/504
f 326/383/495 327/384/497 335/393/505 334/392/503
f 327/384/497 328/385/498 336/394/506 335/393/505
f 328/385/498 329/386/499 337/395/507 336/394/506
f 329/386/499 330/387/500 338/396/508 337/395/507
f 330/387/500 331/388/501 339/397/509 338/396/508
f 331/388/501 332/389/502 340/398/510 339/397/509
f 332/389/502 325/390/496 333/399/504 340/398/510
f 333/391/504 334/392/503 342/401/511 341/400/512
f 334/392/503 335/393/505 343/402/513 342/401/511
f 335/393/505 336/394/506 344/403/514 343/402/513
f 336/394/506 337/395/507 345/404/515 344/403/514
f 337/395/507 338/396/508 346/405/516 345/404/515
f 338/396/508 339/397/509 347/406/517 346/405/516
f 339/397/509 340/398/510 348/407/518 347/406/517
f 340/398/510 333/399/504 341/408/512 348/407/518
f 341/400/512 342/401/511 350/410/519 349/409/520
f 342/401/511 343/402/513 351/411/521 350/410/519
f 343/402/513 344/403/514 352/412/522 351/411/521
f 344/403/514 345/404/515 353/413/523 352/412/522
f 345/404/515 346/405/516 354/414/524 353/413/523
f 346/405/516 347/406/517 355/415/525 354/414/524
f 347/406/517 348/407/518 356/416/526 355/415/525
f 348/407/518 341/408/512 349/417/520 356/416/526
f 349/409/520 350/410/519 358/419/527 357/418/528
f 350/410/519 351/411/521 359/420/529 358/419/527
f 351/411/521 352/412/522 360/421/530 359/420/529
f 352/412/522 353/413/523 361/422/531 360/421/530
f 353/413/523 354/414/524 362/423/532 361/422/531
f 354/414/524 355/415/525 363/424/533 362/423/532
f 355/415/525 356/416/526 364/425/534 363/424/533
f 356/416/526 349/417/520 357/426/528 364/425/534
f 357/418/528 358/419/527 366/428/535 365/427/536
f 358/419/527 359/420/529 367/429/537 366/428/535
f 359/420/529 360/421/530 368/430/538 367/429/537
f 360/421/530 361/422/531 369/431/539 368/430/538
f 361/422/531 362/423/532 370/432/540 369/431/539
f 362/423/532 363/424/533 371/433/541 370/432/540
f 363/424/533 364/425/534 372/434/542 371/433/541
f 364/425/534 357/426/528 365/435/536 372/434/542
f 365/427/536 366/428/535 374/437/543 373/436/544
f 366/428/535 367/429/537 375/438/545 374/437/543
f 367/429/537 368/430/538 376/439/546 375/438/545
f 368/430/538 369/431/539 377/440/547 376/439/546
f 369/431/539 370/432/540 378/441/548 377/440/547
f 370/432/540 371/433/541 379/442/549 378/441/548
f 371/433/541 372/434/542 380/443/550 379/442/549
f 372/434/542 365/435/536 373/444/544 380/443/550
f 373/436/544 374/437/543 382/446/551 381/445/552
f 374/437/543 375/438/545 383/447/553 382/446/551
f 375/438/545 376/439/546 384/448/554 383/447/553
f 376/439/546 377/440/547 385/449/555 384/448/554
f 377/440/547 378/441/548 386/450/556 385/449/555
f 378/441/548 379/442/549 387/451/557 386/450/556
f 379/442/549 380/443/550 388/452/558 387/451/557
f 380/443/550 373/444/544 381/453/552 388/452/558
f 381/445/552 382/446/551 390/455/559 389/454/560
f 382/446/551 383/447/553 391/456/561 390/455/559
f 383/447/553 384/448/554 392/457/562 391/456/561
f 384/448/554 385/449/555 393/458/563 392/457/562
f 385/449/555 386/450/556 394/459/564 393/458/563
f 386/450/556 387/451/557 395/460/565 394/459/564
f 387/451/557 388/452/558 396/461/566 395/460/565
f 388/452/558 381/453/552 389/462/560 396/461/566
f 389/454/560 390/455/559 398/464/567 397/463/568
f 390/455/559 391/456/561 399/465/569 398/464/567
f 391/456/561 392/457/562 400/466/570 399/465/569
f 392/457/562 393/458/563 401/467/571 400/466/570
f 393/458/563 394/459/564 402/468/572 401/467/571
f 394/459/564 395/460/565 403/469/573 402/468/572
f 395/460/565 396/461/566 404/470/574 403/469/573
f 396/461/566 389/462/560 397/471/568 404/470/574
f 397/463/568 398/464/567 406/473/575 405/472/576
f 398/464/567 399/465/569 407/474/577 406/473/575
f 399/465/569 400/466/570 408/475/578 407/474/577
f 400/466/570 401/467/571 409/476/579 408/475/578
f 401/467/571 402/468/572 410/477/580 409/476/579
f 402/468/572 403/469/573 411/478/581 410/477/580
f 403/469/573 404/470/574 412/479/582 411/478/581
f 404/470/574 397/471/568 405/480/576 412/479/582
f 405/472/576 406/473/575 414/482/583 413/481/584
f 406/473/575 407/474/577 415/483/585 414/482/583
f 407/474/577 408/475/578 416/484/586 415/483/585
f 408/475/578 409/476/579 417/485/587 416/484/586
f 409/476/579 410/477/580 418/486/588 417/485/587
f 410/477/580 411/478/581 419/487/589 418/486/588
f 411/478/581 412/479/582 420/488/590 419/487/589
f 412/479/582 405/480/576 413/489/584 420/488/590
f 413/481/584 414/482/583 422/491/591 421/490/592
f 414/482/583 415/483/585 423/492/593 422/491/591
f 415/483/585 416/484/586 424/493/594 423/492/593
f 416/484/586 417/485/587 425/494/595 424/493/594
f 417/485/587 418/486/588 426/495/596 425/494/595
f 418/486/588 419/487/589 427/496/597 426/495/596
f 419/487/589 420/488/590 428/497/598 427/496/597
f 420/488/590 413/489/584 421/498/592 428/497/598
f 421/490/592 422/491/591 430/500/599 429/499/600
f 422/491/591 423/492/593 431/501/601 430/500/599
f 423/492/593 424/493/594 432/502/602 431/501/601
f 424/493/594 425/494/595 433/503/603 432/502/602
f 425/494/595 426/495/596 434/504/604 433/503/603
f 426/495/596 427/496/597 435/505/605 434/504/604
f 427/496/597 428/497/598 436/506/606 435/505/605
f 428/497/598 421/498/592 429/507/600 436/506/606
f 438/509/460 437/508/462 300/353/477 299/352/475
f 439/510/458 438/509/460 299/352/475 298/351/473
f 440/511/456 439/510/458 298/351/473 297/350/471
f 441/512/454 440/511/456 297/350/471 296/349/469
f 442/513/452 441/512/454 296/349/469 295/348/467
f 443/514/449 442/513/452 295/348/467 294/347/464
f 444/515/450 443/514/449 294/347/464 293/346/463
f 437/508/462 444/516/450 293/354/463 300/353/477
g default
v 4.094468 72.296803 0.033446
v -7.165832 72.296803 0.033446
v 3.343970 75.716248 -1.077608
v 3.874627 75.515946 -1.012534
v 4.094468 75.032447 -0.855434
v 3.343970 75.205592 -2.079904
v 3.874627 75.035190 -1.956123
v 4.094468 74.623889 -1.657290
v 3.343970 74.410146 -2.875330
v 3.874627 74.286377 -2.704960
v 4.094468 73.987543 -2.293651
v 3.343970 73.407870 -3.386025
v 3.874627 73.342804 -3.185744
v 4.094468 73.185679 -2.702223
v 3.343970 72.296803 -3.561998
v 3.874627 72.296803 -3.351410
v 4.094468 72.296803 -2.843006
v 3.343970 71.185736 -3.386025
v 3.874627 71.250803 -3.185744
v 4.094468 71.407928 -2.702222
v 3.343970 70.183461 -2.875329
v 3.874627 70.307229 -2.704960
v 4.094468 70.606063 -2.293651
v 3.343970 69.388015 -2.079903
v 3.874627 69.558362 -1.956122
v 4.094468 69.969663 -1.657290
v 3.343970 68.877304 -1.077607
v 3.874627 69.077605 -1.012534
v 4.094468 69.561160 -0.855433
v 3.343970 68.701361 0.033446
v 3.874627 68.911977 0.033446
v 4.094468 69.420384 0.033446
v 3.343970 68.877304 1.144499
v 3.874627 69.077605 1.079425
v 4.094468 69.561160 0.922324
v 3.343970 69.388015 2.146794
v 3.874627 69.558362 2.023013
v 4.094468 69.969663 1.724181
v 3.343970 70.183461 2.942220
v 3.874627 70.307229 2.771850
v 4.094468 70.606063 2.360542
v 3.343970 71.185736 3.452915
v 3.874627 71.250803 3.252634
v 4.094468 71.407928 2.769113
v 3.343970 72.296803 3.628888
v 3.874627 72.296803 3.418301
v 4.094468 72.296803 2.909896
v 3.343970 73.407870 3.452915
v 3.874627 73.342804 3.252634
v 4.094468 73.185679 2.769113
v 3.343970 74.410146 2.942220
v 3.874627 74.286377 2.771850
v 4.094468 73.987543 2.360542
v 3.343970 75.205592 2.146794
v 3.874627 75.035190 2.023013
v 4.094468 74.623889 1.724181
v 3.343970 75.716248 1.144499
v 3.874627 75.515946 1.079425
v 4.094468 75.032447 0.922324
v 3.343970 75.892246 0.033446
v 3.874627 75.681630 0.033446
v 4.094468 75.173223 0.033446
v -6.415506 75.716248 -1.077608
v -6.945992 75.515946 -1.012534
v -7.165832 75.032447 -0.855434
v -6.415506 75.205592 -2.079904
v -6.945992 75.035190 -1.956123
v -7.165832 74.623889 -1.657290
v -6.415506 74.410146 -2.875330
v -6.945992 74.286377 -2.704960
v -7.165832 73.987543 -2.293651
v -6.415506 73.407870 -3.386025
v -6.945992 73.342804 -3.185744
v -7.165832 73.185679 -2.702223
v -6.415506 72.296803 -3.561998
v -6.945992 72.296803 -3.351410
v -7.165832 72.296803 -2.843006
v -6.415506 71.185736 -3.386025
v -6.945992 71.250803 -3.185744
v -7.165832 71.407928 -2.702222
v -6.415506 70.183461 -2.875329
v -6.945992 70.307229 -2.704960
v -7.165832 70.606063 -2.293651
v -6.415506 69.388015 -2.079903
v -6.945992 69.558362 -1.956122
v -7.165832 69.969663 -1.657290
v -6.415506 68.877304 -1.077607
v -6.945992 69.077605 -1.012534
v -7.165832 69.561160 -0.855433
v -6.415506 68.701361 0.033446
v -6.945992 68.911977 0.033446
v -7.165832 69.420384 0.033446
v -6.415506 68.877304 1.144499
v -6.945992 69.077605 1.079425
v -7.165832 69.561160 0.922324
v -6.415506 69.388015 2.146794
v -6.945992 69.558362 2.023013
v -7.165832 69.969663 1.724181
v -6.415506 70.183461 2.942220
v -6.945992 70.307229 2.771850
v -7.165832 70.606063 2.360542
v -6.415506 71.185736 3.452915
v -6.945992 71.250803 3.252634
v -7.165832 71.407928 2.769113
v -6.415506 72.296803 3.628888
v -6.945992 72.296803 3.418301
v -7.165832 72.296803 2.909896
v -6.415506 73.407870 3.452915
v -6.945992 73.342804 3.252634
v -7.165832 73.185679 2.769113
v -6.415506 74.410146 2.942220
v -6.945992 74.286377 2.771850
v -7.165832 73.987543 2.360542
v -6.415506 75.205592 2.146794
v -6.945992 75.035190 2.023013
v -7.165832 74.623889 1.724181
v -6.415506 75.716248 1.144499
v -6.945992 75.515946 1.079425
v -7.165832 75.032447 0.922324
v -6.415506 75.892246 0.033446
v -6.945992 75.681630 0.033446
v -7.165832 75.173223 0.033446
vt 0.387500 0.337491
vt 0.375000 0.662512
vt 0.400000 0.337491
vt 0.387500 0.662512
vt 0.412500 0.337490
vt 0.400000 0.662512
vt 0.425000 0.337491
vt 0.412500 0.662512
vt 0.437500 0.337491
vt 0.425000 0.662512
vt 0.450000 0.337491
vt 0.437500 0.662512
vt 0.462500 0.337494
vt 0.450000 0.662512
vt 0.475000 0.337491
vt 0.462500 0.662512
vt 0.487500 0.337491
vt 0.475000 0.662512
vt 0.500000 0.337490
vt 0.487500 0.662512
vt 0.512500 0.337490
vt 0.500000 0.662508
vt 0.525000 0.337492
vt 0.512500 0.662509
vt 0.537500 0.337490
vt 0.525000 0.662512
vt 0.550000 0.337491
vt 0.537500 0.662512
vt 0.562500 0.337491
vt 0.550000 0.662512
vt 0.575000 0.337491
vt 0.562500 0.662512
vt 0.587500 0.337494
vt 0.575000 0.662511
vt 0.600000 0.337491
vt 0.587500 0.662512
vt 0.612500 0.337491
vt 0.600000 0.662512
vt 0.625000 0.337492
vt 0.612500 0.662512
vt 0.618885 0.117621
vt 0.601130 0.082775
vt 0.573476 0.055119
vt 0.538629 0.037364
vt 0.500000 0.031246
vt 0.461372 0.037364
vt 0.426524 0.055120
vt 0.398868 0.082774
vt 0.381115 0.117621
vt 0.374997 0.156250
vt 0.381115 0.194879
vt 0.398867 0.229726
vt 0.426524 0.257381
vt 0.461372 0.275136
vt 0.500000 0.281254
vt 0.538628 0.275136
vt 0.573476 0.257381
vt 0.601130 0.229725
vt 0.618885 0.194879
vt 0.500000 0.156250
vt 0.625003 0.156250
vt 0.601130 0.917225
vt 0.573476 0.944880
vt 0.538628 0.962636
vt 0.500000 0.968754
vt 0.461372 0.962636
vt 0.426524 0.944880
vt 0.398868 0.917226
vt 0.381115 0.882379
vt 0.374997 0.843750
vt 0.381115 0.805121
vt 0.398867 0.770274
vt 0.426524 0.742619
vt 0.461372 0.724864
vt 0.500000 0.718746
vt 0.538628 0.724864
vt 0.573476 0.742619
vt 0.601130 0.770274
vt 0.618885 0.805121
vt 0.625003 0.843750
vt 0.618885 0.882379
vt 0.500000 0.843750
vt 0.375000 0.337491
vt 0.625000 0.662512
vt 0.625000 0.312500
vt 0.648603 0.107966
vt 0.375000 0.312500
vt 0.626409 0.064408
vt 0.387500 0.312500
vt 0.591842 0.029841
vt 0.400000 0.312500
vt 0.548284 0.007647
vt 0.412500 0.312500
vt 0.500000 -0.000000
vt 0.425000 0.312500
vt 0.451716 0.007647
vt 0.437500 0.312500
vt 0.408159 0.029841
vt 0.450000 0.312500
vt 0.373591 0.064409
vt 0.462500 0.312500
vt 0.351397 0.107966
vt 0.475000 0.312500
vt 0.343750 0.156250
vt 0.487500 0.312500
vt 0.351397 0.204534
vt 0.500000 0.312500
vt 0.373591 0.248091
vt 0.512500 0.312500
vt 0.408159 0.282659
vt 0.525000 0.312500
vt 0.451716 0.304853
vt 0.537500 0.312500
vt 0.500000 0.312500
vt 0.550000 0.312500
vt 0.548284 0.304853
vt 0.562500 0.312500
vt 0.591841 0.282659
vt 0.575000 0.312500
vt 0.626409 0.248091
vt 0.587500 0.312500
vt 0.648603 0.204534
vt 0.600000 0.312500
vt 0.656250 0.156250
vt 0.612500 0.312500
vt 0.375000 0.687500
vt 0.648603 0.892034
vt 0.625000 0.687500
vt 0.387500 0.687500
vt 0.626409 0.935591
vt 0.400000 0.687500
vt 0.591841 0.970159
vt 0.412500 0.687500
vt 0.548284 0.992353
vt 0.425000 0.687500
vt 0.500000 1.000000
vt 0.437500 0.687500
vt 0.451716 0.992353
vt 0.450000 0.687500
vt 0.408159 0.970159
vt 0.462500 0.687500
vt 0.373591 0.935591
vt 0.475000 0.687500
vt 0.351397 0.892034
vt 0.487500 0.687500
vt 0.343750 0.843750
vt 0.500000 0.687500
vt 0.351397 0.795466
vt 0.512500 0.687500
vt 0.373591 0.751909
vt 0.525000 0.687500
vt 0.408159 0.717341
vt 0.537500 0.687500
vt 0.451716 0.695147
vt 0.550000 0.687500
vt 0.500000 0.687500
vt 0.562500 0.687500
vt 0.548284 0.695147
vt 0.575000 0.687500
vt 0.591842 0.717341
vt 0.587500 0.687500
vt 0.626409 0.751908
vt 0.600000 0.687500
vt 0.648603 0.795466
vt 0.656250 0.843750
vt 0.612500 0.687500
vn 0.018897 0.950889 -0.308956
vn 0.018896 0.808877 -0.587674
vn -0.018896 0.808877 -0.587674
vn -0.018897 0.950889 -0.308956
vn 0.018895 0.587681 -0.808872
vn -0.018895 0.587681 -0.808872
vn 0.018895 0.308962 -0.950887
vn -0.018895 0.308962 -0.950887
vn 0.018895 -0.000000 -0.999821
vn -0.018895 -0.000000 -0.999821
vn 0.018895 -0.308963 -0.950886
vn -0.018895 -0.308963 -0.950886
vn 0.018895 -0.587681 -0.808872
vn -0.018895 -0.587681 -0.808872
vn 0.018895 -0.808865 -0.587691
vn -0.018895 -0.808865 -0.587691
vn 0.018896 -0.950889 -0.308955
vn -0.018896 -0.950889 -0.308955
vn 0.018897 -0.999821 0.000000
vn -0.018897 -0.999821 0.000000
vn 0.018896 -0.950889 0.308955
vn -0.018896 -0.950889 0.308955
vn 0.018895 -0.808865 0.587691
vn -0.018895 -0.808865 0.587691
vn 0.018895 -0.587680 0.808873
vn -0.018895 -0.587680 0.808873
vn 0.018895 -0.308962 0.950887
vn -0.018895 -0.308962 0.950887
vn 0.018895 0.000000 0.999821
vn -0.018895 0.000000 0.999821
vn 0.018895 0.308962 0.950887
vn -0.018895 0.308962 0.950887
vn 0.018895 0.587681 0.808872
vn -0.018895 0.587681 0.808872
vn 0.018896 0.808877 0.587674
vn -0.018896 0.808877 0.587674
vn 0.018897 0.950889 0.308956
vn -0.018897 0.950889 0.308956
vn 0.018897 0.999821 0.000000
vn -0.018897 0.999821 0.000000
vn 0.990613 0.110589 -0.080345
vn 0.990613 0.130006 -0.042240
vn 1.000000 0.000000 0.000000
vn 0.990613 0.080348 -0.110587
vn 0.990613 0.042240 -0.130003
vn 0.990613 -0.000000 -0.136694
vn 0.990613 -0.042240 -0.130003
vn 0.990614 -0.080344 -0.110586
vn 0.990613 -0.110592 -0.080348
vn 0.990614 -0.130002 -0.042235
vn 0.990614 -0.136692 0.000000
vn 0.990614 -0.130002 0.042235
vn 0.990613 -0.110591 0.080348
vn 0.990614 -0.080344 0.110586
vn 0.990613 -0.042240 0.130003
vn 0.990613 0.000000 0.136694
vn 0.990613 0.042240 0.130003
vn 0.990613 0.080348 0.110587
vn 0.990613 0.110589 0.080345
vn 0.990613 0.130006 0.042240
vn 0.990613 0.136694 -0.000000
vn -0.990613 0.130006 -0.042240
vn -0.990613 0.110589 -0.080345
vn -1.000000 -0.000000 -0.000000
vn -0.990613 0.080348 -0.110587
vn -0.990613 0.042240 -0.130003
vn -0.990613 -0.000000 -0.136694
vn -0.990613 -0.042240 -0.130003
vn -0.990614 -0.080344 -0.110587
vn -0.990613 -0.110591 -0.080349
vn -0.990614 -0.130002 -0.042235
vn -0.990614 -0.136692 0.000000
vn -0.990614 -0.130002 0.042235
vn -0.990613 -0.110591 0.080348
vn -0.990614 -0.080344 0.110586
vn -0.990613 -0.042240 0.130003
vn -0.990613 0.000000 0.136694
vn -0.990613 0.042240 0.130003
vn -0.990613 0.080348 0.110587
vn -0.990613 0.110589 0.080345
vn -0.990613 0.130006 0.042240
vn -0.990613 0.136694 -0.000000
vn 0.368895 0.883981 -0.287219
vn 0.368884 0.751967 -0.546325
vn 0.917860 0.377479 -0.122647
vn 0.917862 0.321102 -0.233288
vn 0.368862 0.546344 -0.751964
vn 0.917865 0.233291 -0.321092
vn 0.368856 0.287229 -0.883993
vn 0.917865 0.122648 -0.377467
vn 0.368859 -0.000000 -0.929485
vn 0.917864 -0.000000 -0.396894
vn 0.368857 -0.287229 -0.883993
vn 0.917865 -0.122648 -0.377467
vn 0.368847 -0.546341 -0.751973
vn 0.917864 -0.233287 -0.321097
vn 0.368850 -0.751970 -0.546343
vn 0.917866 -0.321092 -0.233285
vn 0.368878 -0.883991 -0.287210
vn 0.917868 -0.377466 -0.122632
vn 0.368895 -0.929471 0.000000
vn 0.917868 -0.396885 0.000000
vn 0.368878 -0.883991 0.287210
vn 0.917868 -0.377466 0.122632
vn 0.368851 -0.751970 0.546343
vn 0.917866 -0.321092 0.233286
vn 0.368847 -0.546341 0.751973
vn 0.917864 -0.233287 0.321097
vn 0.368856 -0.287229 0.883994
vn 0.917865 -0.122648 0.377467
vn 0.368859 0.000000 0.929486
vn 0.917864 0.000000 0.396894
vn 0.368856 0.287229 0.883993
vn 0.917865 0.122648 0.377467
vn 0.368862 0.546344 0.751964
vn 0.917864 0.233291 0.321092
vn 0.368884 0.751966 0.546325
vn 0.917862 0.321102 0.233288
vn 0.368895 0.883981 0.287219
vn 0.917860 0.377479 0.122647
vn 0.368897 0.929470 0.000000
vn 0.917861 0.396901 -0.000000
vn -0.368998 0.883942 -0.287206
vn -0.369000 0.929429 0.000000
vn -0.917860 0.377479 -0.122647
vn -0.917861 0.396901 -0.000000
vn -0.917862 0.321102 -0.233288
vn -0.368987 0.751934 -0.546301
vn -0.917865 0.233291 -0.321092
vn -0.368965 0.546319 -0.751931
vn -0.917865 0.122648 -0.377467
vn -0.368960 0.287216 -0.883955
vn -0.917864 -0.000000 -0.396894
vn -0.368962 -0.000000 -0.929444
vn -0.917865 -0.122648 -0.377467
vn -0.368960 -0.287217 -0.883954
vn -0.917864 -0.233287 -0.321097
vn -0.368950 -0.546317 -0.751940
vn -0.917866 -0.321092 -0.233286
vn -0.368953 -0.751937 -0.546319
vn -0.917868 -0.377466 -0.122632
vn -0.368981 -0.883952 -0.287197
vn -0.917868 -0.396885 0.000000
vn -0.368998 -0.929430 0.000000
vn -0.917868 -0.377466 0.122632
vn -0.368981 -0.883952 0.287197
vn -0.917866 -0.321092 0.233286
vn -0.368954 -0.751937 0.546319
vn -0.917864 -0.233287 0.321096
vn -0.368950 -0.546317 0.751940
vn -0.917865 -0.122648 0.377467
vn -0.368960 -0.287216 0.883955
vn -0.917864 0.000000 0.396894
vn -0.368962 -0.000000 0.929444
vn -0.917865 0.122648 0.377467
vn -0.368959 0.287216 0.883955
vn -0.917864 0.233291 0.321092
vn -0.368965 0.546319 0.751931
vn -0.917862 0.321102 0.233288
vn -0.368987 0.751933 0.546301
vn -0.917860 0.377479 0.122647
vn -0.368998 0.883942 0.287207
s 1
g S_P12_01 pCylinder6
usemtl initialShadingGroup
f 447/599/607 450/517/608 510/520/609 507/518/610
f 450/517/608 453/519/611 513/522/612 510/520/609
f 453/519/611 456/521/613 516/524/614 513/522/612
f 456/521/613 459/523/615 519/526/616 516/524/614
f 459/523/615 462/525/617 522/528/618 519/526/616
f 462/525/617 465/527/619 525/530/620 522/528/618
f 465/527/619 468/529/621 528/532/622 525/530/620
f 468/529/621 471/531/623 531/534/624 528/532/622
f 471/531/623 474/533/625 534/536/626 531/534/624
f 474/533/625 477/535/627 537/538/628 534/536/626
f 477/535/627 480/537/629 540/540/630 537/538/628
f 480/537/629 483/539/631 543/542/632 540/540/630
f 483/539/631 486/541/633 546/544/634 543/542/632
f 486/541/633 489/543/635 549/546/636 546/544/634
f 489/543/635 492/545/637 552/548/638 549/546/636
f 492/545/637 495/547/639 555/550/640 552/548/638
f 495/547/639 498/549/641 558/552/642 555/550/640
f 498/549/641 501/551/643 561/554/644 558/552/642
f 501/551/643 504/553/645 564/556/646 561/554/644
f 504/553/645 447/555/607 507/600/610 564/556/646
s 2
f 452/558/647 449/557/648 445/576/649
f 455/559/650 452/558/647 445/576/649
f 458/560/651 455/559/650 445/576/649
f 461/561/652 458/560/651 445/576/649
f 464/562/653 461/561/652 445/576/649
f 467/563/654 464/562/653 445/576/649
f 470/564/655 467/563/654 445/576/649
f 473/565/656 470/564/655 445/576/649
f 476/566/657 473/565/656 445/576/649
f 479/567/658 476/566/657 445/576/649
f 482/568/659 479/567/658 445/576/649
f 485/569/660 482/568/659 445/576/649
f 488/570/661 485/569/660 445/576/649
f 491/571/662 488/570/661 445/576/649
f 494/572/663 491/571/662 445/576/649
f 497/573/664 494/572/663 445/576/649
f 500/574/665 497/573/664 445/576/649
f 503/575/666 500/574/665 445/576/649
f 506/577/667 503/575/666 445/576/649
f 449/557/648 506/577/667 445/576/649
s 3
f 509/597/668 512/578/669 446/598/670
f 512/578/669 515/579/671 446/598/670
f 515/579/671 518/580/672 446/598/670
f 518/580/672 521/581/673 446/598/670
f 521/581/673 524/582/674 446/598/670
f 524/582/674 527/583/675 446/598/670
f 527/583/675 530/584/676 446/598/670
f 530/584/676 533/585/677 446/598/670
f 533/585/677 536/586/678 446/598/670
f 536/586/678 539/587/679 446/598/670
f 539/587/679 542/588/680 446/598/670
f 542/588/680 545/589/681 446/598/670
f 545/589/681 548/590/682 446/598/670
f 548/590/682 551/591/683 446/598/670
f 551/591/683 554/592/684 446/598/670
f 554/592/684 557/593/685 446/598/670
f 557/593/685 560/594/686 446/598/670
f 560/594/686 563/595/687 446/598/670
f 563/595/687 566/596/688 446/598/670
f 566/596/688 509/597/668 446/598/670
s 1
f 447/599/607 448/603/689 451/605/690 450/517/608
s 2
f 448/602/691 449/557/648 452/558/647 451/604/692
s 1
f 450/517/608 451/605/690 454/607/693 453/519/611
s 2
f 451/604/692 452/558/647 455/559/650 454/606/694
s 1
f 453/519/611 454/607/693 457/609/695 456/521/613
s 2
f 454/606/694 455/559/650 458/560/651 457/608/696
s 1
f 456/521/613 457/609/695 460/611/697 459/523/615
s 2
f 457/608/696 458/560/651 461/561/652 460/610/698
s 1
f 459/523/615 460/611/697 463/613/699 462/525/617
s 2
f 460/610/698 461/561/652 464/562/653 463/612/700
s 1
f 462/525/617 463/613/699 466/615/701 465/527/619
s 2
f 463/612/700 464/562/653 467/563/654 466/614/702
s 1
f 465/527/619 466/615/701 469/617/703 468/529/621
s 2
f 466/614/702 467/563/654 470/564/655 469/616/704
s 1
f 468/529/621 469/617/703 472/619/705 471/531/623
s 2
f 469/616/704 470/564/655 473/565/656 472/618/706
s 1
f 471/531/623 472/619/705 475/621/707 474/533/625
s 2
f 472/618/706 473/565/656 476/566/657 475/620/708
s 1
f 474/533/625 475/621/707 478/623/709 477/535/627
s 2
f 475/620/708 476/566/657 479/567/658 478/622/710
s 1
f 477/535/627 478/623/709 481/625/711 480/537/629
s 2
f 478/622/710 479/567/658 482/568/659 481/624/712
s 1
f 480/537/629 481/625/711 484/627/713 483/539/631
s 2
f 481/624/712 482/568/659 485/569/660 484/626/714
s 1
f 483/539/631 484/627/713 487/629/715 486/541/633
s 2
f 484/626/714 485/569/660 488/570/661 487/628/716
s 1
f 486/541/633 487/629/715 490/631/717 489/543/635
s 2
f 487/628/716 488/570/661 491/571/662 490/630/718
s 1
f 489/543/635 490/631/717 493/633/719 492/545/637
s 2
f 490/630/718 491/571/662 494/572/663 493/632/720
s 1
f 492/545/637 493/633/719 496/635/721 495/547/639
s 2
f 493/632/720 494/572/663 497/573/664 496/634/722
s 1
f 495/547/639 496/635/721 499/637/723 498/549/641
s 2
f 496/634/722 497/573/664 500/574/665 499/636/724
s 1
f 498/549/641 499/637/723 502/639/725 501/551/643
s 2
f 499/636/724 500/574/665 503/575/666 502/638/726
s 1
f 501/551/643 502/639/725 505/641/727 504/553/645
s 2
f 502/638/726 503/575/666 506/577/667 505/640/728
f 449/557/648 448/602/691 505/640/728 506/577/667
s 1
f 448/601/689 447/555/607 504/553/645 505/641/727
f 507/600/610 508/644/729 565/682/730 564/556/646
s 3
f 508/643/731 509/597/668 566/596/688 565/681/732
f 509/597/668 508/643/731 511/646/733 512/578/669
s 1
f 508/642/729 507/518/610 510/520/609 511/645/734
s 3
f 512/578/669 511/646/733 514/648/735 515/579/671
s 1
f 511/645/734 510/520/609 513/522/612 514/647/736
s 3
f 515/579/671 514/648/735 517/650/737 518/580/672
s 1
f 514/647/736 513/522/612 516/524/614 517/649/738
s 3
f 518/580/672 517/650/737 520/652/739 521/581/673
s 1
f 517/649/738 516/524/614 519/526/616 520/651/740
s 3
f 521/581/673 520/652/739 523/654/741 524/582/674
s 1
f 520/651/740 519/526/616 522/528/618 523/653/742
s 3
f 524/582/674 523/654/741 526/656/743 527/583/675
s 1
f 523/653/742 522/528/618 525/530/620 526/655/744
s 3
f 527/583/675 526/656/743 529/658/745 530/584/676
s 1
f 526/655/744 525/530/620 528/532/622 529/657/746
s 3
f 530/584/676 529/658/745 532/660/747 533/585/677
s 1
f 529/657/746 528/532/622 531/534/624 532/659/748
s 3
f 533/585/677 532/660/747 535/662/749 536/586/678
s 1
f 532/659/748 531/534/624 534/536/626 535/661/750
s 3
f 536/586/678 535/662/749 538/664/751 539/587/679
s 1
f 535/661/750 534/536/626 537/538/628 538/663/752
s 3
f 539/587/679 538/664/751 541/666/753 542/588/680
s 1
f 538/663/752 537/538/628 540/540/630 541/665/754
s 3
f 542/588/680 541/666/753 544/668/755 545/589/681
s 1
f 541/665/754 540/540/630 543/542/632 544/667/756
s 3
f 545/589/681 544/668/755 547/670/757 548/590/682
s 1
f 544/667/756 543/542/632 546/544/634 547/669/758
s 3
f 548/590/682 547/670/757 550/672/759 551/591/683
s 1
f 547/669/758 546/544/634 549/546/636 550/671/760
s 3
f 551/591/683 550/672/759 553/674/761 554/592/684
s 1
f 550/671/760 549/546/636 552/548/638 553/673/762
s 3
f 554/592/684 553/674/761 556/676/763 557/593/685
s 1
f 553/673/762 552/548/638 555/550/640 556/675/764
s 3
f 557/593/685 556/676/763 559/678/765 560/594/686
s 1
f 556/675/764 555/550/640 558/552/642 559/677/766
s 3
f 560/594/686 559/678/765 562/680/767 563/595/687
s 1
f 559/677/766 558/552/642 561/554/644 562/679/768
s 3
f 563/595/687 562/680/767 565/681/732 566/596/688
s 1
f 562/679/768 561/554/644 564/556/646 565/682/730
g default
v 1.883832 63.395926 -1.077608
v 1.373136 63.395926 -2.079904
v 0.577710 63.395926 -2.875330
v -0.424586 63.395926 -3.386025
v -1.535639 63.395926 -3.561998
v -2.646693 63.395926 -3.386025
v -3.648988 63.395926 -2.875329
v -4.444414 63.395926 -2.079903
v -4.955109 63.395926 -1.077607
v -5.131082 63.395926 0.033446
v -4.955109 63.395926 1.144499
v -4.444414 63.395926 2.146794
v -3.648988 63.395926 2.942220
v -2.646692 63.395926 3.452915
v -1.535640 63.395926 3.628888
v -0.424587 63.395926 3.452915
v 0.577708 63.395926 2.942220
v 1.373134 63.395926 2.146794
v 1.883829 63.395926 1.144498
v 2.059803 63.395926 0.033446
v 1.883832 72.294257 -1.077608
v 1.373136 72.294257 -2.079904
v 0.577710 72.294257 -2.875330
v -0.424586 72.294257 -3.386025
v -1.535639 72.294257 -3.561998
v -2.646693 72.294257 -3.386025
v -3.648988 72.294257 -2.875329
v -4.444414 72.294257 -2.079903
v -4.955109 72.294257 -1.077607
v -5.131082 72.294257 0.033446
v -4.955109 72.294257 1.144499
v -4.444414 72.294257 2.146794
v -3.648988 72.294257 2.942220
v -2.646692 72.294257 3.452915
v -1.535640 72.294257 3.628888
v -0.424587 72.294257 3.452915
v 0.577708 72.294257 2.942220
v 1.373134 72.294257 2.146794
v 1.883829 72.294257 1.144498
v 2.059803 72.294257 0.033446
v -1.535639 63.395926 0.033446
v -1.535639 72.294257 0.033446
vt 0.648603 0.107966
vt 0.626409 0.064408
vt 0.591842 0.029841
vt 0.548284 0.007647
vt 0.500000 -0.000000
vt 0.451716 0.007647
vt 0.408159 0.029841
vt 0.373591 0.064409
vt 0.351397 0.107966
vt 0.343750 0.156250
vt 0.351397 0.204534
vt 0.373591 0.248091
vt 0.408159 0.282659
vt 0.451716 0.304853
vt 0.500000 0.312500
vt 0.548284 0.304853
vt 0.591841 0.282659
vt 0.626409 0.248091
vt 0.648603 0.204534
vt 0.656250 0.156250
vt 0.375000 0.312500
vt 0.387500 0.312500
vt 0.400000 0.312500
vt 0.412500 0.312500
vt 0.425000 0.312500
vt 0.437500 0.312500
vt 0.450000 0.312500
vt 0.462500 0.312500
vt 0.475000 0.312500
vt 0.487500 0.312500
vt 0.500000 0.312500
vt 0.512500 0.312500
vt 0.525000 0.312500
vt 0.537500 0.312500
vt 0.550000 0.312500
vt 0.562500 0.312500
vt 0.575000 0.312500
vt 0.587500 0.312500
vt 0.600000 0.312500
vt 0.612500 0.312500
vt 0.625000 0.312500
vt 0.375000 0.687500
vt 0.387500 0.687500
vt 0.400000 0.687500
vt 0.412500 0.687500
vt 0.425000 0.687500
vt 0.437500 0.687500
vt 0.450000 0.687500
vt 0.462500 0.687500
vt 0.475000 0.687500
vt 0.487500 0.687500
vt 0.500000 0.687500
vt 0.512500 0.687500
vt 0.525000 0.687500
vt 0.537500 0.687500
vt 0.550000 0.687500
vt 0.562500 0.687500
vt 0.575000 0.687500
vt 0.587500 0.687500
vt 0.600000 0.687500
vt 0.612500 0.687500
vt 0.625000 0.687500
vt 0.648603 0.795466
vt 0.626409 0.751908
vt 0.591842 0.717341
vt 0.548284 0.695147
vt 0.500000 0.687500
vt 0.451716 0.695147
vt 0.408159 0.717341
vt 0.373591 0.751909
vt 0.351397 0.795466
vt 0.343750 0.843750
vt 0.351397 0.892034
vt 0.373591 0.935591
vt 0.408159 0.970159
vt 0.451716 0.992353
vt 0.500000 1.000000
vt 0.548284 0.992353
vt 0.591841 0.970159
vt 0.626409 0.935591
vt 0.648603 0.892034
vt 0.656250 0.843750
vt 0.500000 0.156250
vt 0.500000 0.843750
vn 0.951057 0.000000 -0.309016
vn 0.809017 0.000000 -0.587785
vn 0.809017 0.000000 -0.587785
vn 0.951057 0.000000 -0.309016
vn 0.587785 0.000000 -0.809017
vn 0.587785 0.000000 -0.809017
vn 0.309017 0.000000 -0.951057
vn 0.309017 0.000000 -0.951057
vn -0.000000 0.000000 -1.000000
vn -0.000000 0.000000 -1.000000
vn -0.309017 0.000000 -0.951056
vn -0.309017 0.000000 -0.951056
vn -0.587785 0.000000 -0.809017
vn -0.587785 0.000000 -0.809017
vn -0.809017 0.000000 -0.587785
vn -0.809017 0.000000 -0.587785
vn -0.951057 0.000000 -0.309017
vn -0.951057 0.000000 -0.309017
vn -1.000000 0.000000 0.000000
vn -1.000000 0.000000 0.000000
vn -0.951057 0.000000 0.309017
vn -0.951057 0.000000 0.309017
vn -0.809017 0.000000 0.587785
vn -0.809017 0.000000 0.587785
vn -0.587785 0.000000 0.809017
vn -0.587785 0.000000 0.809017
vn -0.309017 0.000000 0.951056
vn -0.309017 0.000000 0.951056
vn 0.000000 0.000000 1.000000
vn 0.000000 0.000000 1.000000
vn 0.309017 0.000000 0.951057
vn 0.309017 0.000000 0.951057
vn 0.587785 0.000000 0.809017
vn 0.587785 0.000000 0.809017
vn 0.809017 0.000000 0.587785
vn 0.809017 0.000000 0.587785
vn 0.951057 0.000000 0.309017
vn 0.951057 0.000000 0.309017
vn 1.000000 0.000000 0.000001
vn 1.000000 0.000000 0.000001
vn 0.000000 -1.000000 0.000000
vn 0.000000 -1.000000 0.000000
vn 0.000000 -1.000000 0.000000
vn 0.000000 -1.000000 0.000000
vn 0.000000 -1.000000 0.000000
vn 0.000000 -1.000000 0.000000
vn 0.000000 -1.000000 0.000000
vn 0.000000 -1.000000 0.000000
vn 0.000000 -1.000000 0.000000
vn 0.000000 -1.000000 0.000000
vn 0.000000 -1.000000 0.000000
vn 0.000000 -1.000000 0.000000
vn 0.000000 -1.000000 0.000000
vn 0.000000 -1.000000 0.000000
vn 0.000000 -1.000000 0.000000
vn 0.000000 -1.000000 0.000000
vn 0.000000 -1.000000 0.000000
vn 0.000000 -1.000000 0.000000
vn 0.000000 -1.000000 0.000000
vn 0.000000 -1.000000 0.000000
vn 0.000000 -1.000000 0.000000
vn 0.000000 1.000000 0.000000
vn 0.000000 1.000000 0.000000
vn 0.000000 1.000000 0.000000
vn 0.000000 1.000000 0.000000
vn 0.000000 1.000000 0.000000
vn 0.000000 1.000000 0.000000
vn 0.000000 1.000000 0.000000
vn 0.000000 1.000000 0.000000
vn 0.000000 1.000000 0.000000
vn 0.000000 1.000000 0.000000
vn 0.000000 1.000000 0.000000
vn 0.000000 1.000000 0.000000
vn 0.000000 1.000000 0.000000
vn 0.000000 1.000000 0.000000
vn 0.000000 1.000000 0.000000
vn 0.000000 1.000000 0.000000
vn 0.000000 1.000000 0.000000
vn 0.000000 1.000000 0.000000
vn 0.000000 1.000000 0.000000
vn 0.000000 1.000000 0.000000
vn 0.000000 1.000000 0.000000
s 1
g S_P12_01 pCylinder5
usemtl initialShadingGroup
f 567/703/769 568/704/770 588/725/771 587/724/772
f 568/704/770 569/705/773 589/726/774 588/725/771
f 569/705/773 570/706/775 590/727/776 589/726/774
f 570/706/775 571/707/777 591/728/778 590/727/776
f 571/707/777 572/708/779 592/729/780 591/728/778
f 572/708/779 573/709/781 593/730/782 592/729/780
f 573/709/781 574/710/783 594/731/784 593/730/782
f 574/710/783 575/711/785 595/732/786 594/731/784
f 575/711/785 576/712/787 596/733/788 595/732/786
f 576/712/787 577/713/789 597/734/790 596/733/788
f 577/713/789 578/714/791 598/735/792 597/734/790
f 578/714/791 579/715/793 599/736/794 598/735/792
f 579/715/793 580/716/795 600/737/796 599/736/794
f 580/716/795 581/717/797 601/738/798 600/737/796
f 581/717/797 582/718/799 602/739/800 601/738/798
f 582/718/799 583/719/801 603/740/802 602/739/800
f 583/719/801 584/720/803 604/741/804 603/740/802
f 584/720/803 585/721/805 605/742/806 604/741/804
f 585/721/805 586/722/807 606/743/808 605/742/806
f 586/722/807 567/723/769 587/744/772 606/743/808
s 2
f 568/684/809 567/683/810 607/765/811
f 569/685/812 568/684/809 607/765/811
f 570/686/813 569/685/812 607/765/811
f 571/687/814 570/686/813 607/765/811
f 572/688/815 571/687/814 607/765/811
f 573/689/816 572/688/815 607/765/811
f 574/690/817 573/689/816 607/765/811
f 575/691/818 574/690/817 607/765/811
f 576/692/819 575/691/818 607/765/811
f 577/693/820 576/692/819 607/765/811
f 578/694/821 577/693/820 607/765/811
f 579/695/822 578/694/821 607/765/811
f 580/696/823 579/695/822 607/765/811
f 581/697/824 580/696/823 607/765/811
f 582/698/825 581/697/824 607/765/811
f 583/699/826 582/698/825 607/765/811
f 584/700/827 583/699/826 607/765/811
f 585/701/828 584/700/827 607/765/811
f 586/702/829 585/701/828 607/765/811
f 567/683/810 586/702/829 607/765/811
s 3
f 587/763/830 588/762/831 608/766/832
f 588/762/831 589/761/833 608/766/832
f 589/761/833 590/760/834 608/766/832
f 590/760/834 591/759/835 608/766/832
f 591/759/835 592/758/836 608/766/832
f 592/758/836 593/757/837 608/766/832
f 593/757/837 594/756/838 608/766/832
f 594/756/838 595/755/839 608/766/832
f 595/755/839 596/754/840 608/766/832
f 596/754/840 597/753/841 608/766/832
f 597/753/841 598/752/842 608/766/832
f 598/752/842 599/751/843 608/766/832
f 599/751/843 600/750/844 608/766/832
f 600/750/844 601/749/845 608/766/832
f 601/749/845 602/748/846 608/766/832
f 602/748/846 603/747/847 608/766/832
f 603/747/847 604/746/848 608/766/832
f 604/746/848 605/745/849 608/766/832
f 605/745/849 606/764/850 608/766/832
f 606/764/850 587/763/830 608/766/832
