# This file uses centimeters as units for non-parametric coordinates.

mtllib s_p28_01.mtl
g default
v 3.857412 5.165701 -1.253349
v 3.281310 5.165701 -2.384011
v 2.384011 5.165701 -3.281310
v 1.253349 5.165701 -3.857411
v 0.000000 5.165701 -4.055923
v -1.253349 5.165701 -3.857411
v -2.384011 5.165701 -3.281310
v -3.281309 5.165701 -2.384011
v -3.857410 5.165701 -1.253349
v -4.055921 5.165701 0.000000
v -3.857410 5.165701 1.253349
v -3.281309 5.165701 2.384011
v -2.384011 5.165701 3.281308
v -1.253349 5.165701 3.857410
v -0.000000 5.165701 4.055921
v 1.253348 5.165701 3.857410
v 2.384010 5.165701 3.281308
v 3.281308 5.165701 2.384010
v 3.857409 5.165701 1.253348
v 4.055920 5.165701 0.000000
v 0.000000 290.703278 0.000000
v 3.857412 289.911194 -1.253349
v 3.798692 290.214355 -1.234270
v 3.631473 290.471313 -1.179937
v 3.381213 290.643036 -1.098623
v 3.086009 290.703278 -1.002706
v 3.281310 289.911194 -2.384011
v 3.231360 290.214355 -2.347721
v 3.089115 290.471313 -2.244374
v 2.876231 290.643036 -2.089704
v 2.625116 290.703278 -1.907259
v 2.384011 289.911194 -3.281310
v 2.347721 290.214355 -3.231360
v 2.244374 290.471313 -3.089115
v 2.089704 290.643036 -2.876230
v 1.907259 290.703278 -2.625116
v 1.253349 289.911194 -3.857411
v 1.234269 290.214355 -3.798692
v 1.179937 290.471313 -3.631473
v 1.098622 290.643036 -3.381212
v 1.002705 290.703278 -3.086009
v 0.000000 289.911194 -4.055923
v 0.000000 290.214355 -3.994181
v 0.000000 290.471313 -3.818356
v 0.000000 290.643036 -3.555216
v 0.000000 290.703278 -3.244822
v -1.253349 289.911194 -3.857411
v -1.234269 290.214355 -3.798691
v -1.179937 290.471313 -3.631472
v -1.098622 290.643036 -3.381212
v -1.002705 290.703278 -3.086008
v -2.384011 289.911194 -3.281310
v -2.347720 290.214355 -3.231360
v -2.244373 290.471313 -3.089115
v -2.089704 290.643036 -2.876230
v -1.907258 290.703278 -2.625116
v -3.281309 289.911194 -2.384011
v -3.231360 290.214355 -2.347720
v -3.089115 290.471313 -2.244373
v -2.876230 290.643036 -2.089704
v -2.625116 290.703278 -1.907258
v -3.857410 289.911194 -1.253349
v -3.798691 290.214355 -1.234269
v -3.631472 290.471313 -1.179936
v -3.381211 290.643036 -1.098622
v -3.086008 290.703278 -1.002705
v -4.055921 289.911194 0.000000
v -3.994180 290.214355 0.000000
v -3.818355 290.471313 0.000000
v -3.555215 290.643036 0.000000
v -3.244821 290.703278 0.000000
v -3.857410 289.911194 1.253349
v -3.798691 290.214355 1.234269
v -3.631472 290.471313 1.179936
v -3.381211 290.643036 1.098622
v -3.086008 290.703278 1.002705
v -3.281309 289.911194 2.384011
v -3.231359 290.214355 2.347719
v -3.089114 290.471313 2.244373
v -2.876230 290.643036 2.089703
v -2.625115 290.703278 1.907257
v -2.384011 289.911194 3.281308
v -2.347719 290.214355 3.231359
v -2.244373 290.471313 3.089114
v -2.089703 290.643036 2.876229
v -1.907258 290.703278 2.625115
v -1.253349 289.911194 3.857410
v -1.234269 290.214355 3.798690
v -1.179936 290.471313 3.631471
v -1.098622 290.643036 3.381210
v -1.002705 290.703278 3.086007
v -0.000000 289.911194 4.055921
v -0.000000 290.214355 3.994180
v -0.000000 290.471313 3.818354
v -0.000000 290.643036 3.555214
v -0.000000 290.703278 3.244820
v 1.253348 289.911194 3.857410
v 1.234269 290.214355 3.798690
v 1.179936 290.471313 3.631471
v 1.098621 290.643036 3.381210
v 1.002704 290.703278 3.086007
v 2.384010 289.911194 3.281308
v 2.347719 290.214355 3.231359
v 2.244372 290.471313 3.089114
v 2.089702 290.643036 2.876229
v 1.907257 290.703278 2.625115
v 3.281308 289.911194 2.384010
v 3.231359 290.214355 2.347719
v 3.089114 290.471313 2.244373
v 2.876229 290.643036 2.089702
v 2.625115 290.703278 1.907257
v 3.857409 289.911194 1.253348
v 3.798690 290.214355 1.234269
v 3.631471 290.471313 1.179936
v 3.381209 290.643036 1.098621
v 3.086007 290.703278 1.002705
v 4.055920 289.911194 0.000000
v 3.994179 290.214355 -0.000000
v 3.818354 290.471313 -0.000000
v 3.555214 290.643036 -0.000001
v 3.244819 290.703278 -0.000001
vt 0.994107 0.054303
vt 0.994111 0.058707
vt 0.005904 0.059541
vt 0.005900 0.055137
vt 0.994115 0.063111
vt 0.005908 0.063945
vt 0.994118 0.067515
vt 0.005911 0.068349
vt 0.994122 0.071919
vt 0.005915 0.072753
vt 0.994126 0.076323
vt 0.005919 0.077157
vt 0.994129 0.080727
vt 0.005923 0.081561
vt 0.994133 0.085131
vt 0.005926 0.085965
vt 0.994137 0.089535
vt 0.005930 0.090369
vt 0.994141 0.093938
vt 0.005934 0.094773
vt 0.994070 0.010263
vt 0.005863 0.011097
vt 0.994074 0.014667
vt 0.005867 0.015501
vt 0.994077 0.019071
vt 0.005870 0.019905
vt 0.994081 0.023475
vt 0.005874 0.024309
vt 0.994085 0.027879
vt 0.005878 0.028713
vt 0.994089 0.032283
vt 0.005882 0.033117
vt 0.994092 0.036687
vt 0.005885 0.037521
vt 0.994096 0.041091
vt 0.005889 0.041925
vt 0.994100 0.045495
vt 0.005893 0.046329
vt 0.994103 0.049899
vt 0.005897 0.050733
vt 0.887931 0.121133
vt 0.884649 0.122347
vt 0.882457 0.111377
vt 0.881151 0.122488
vt 0.877782 0.121540
vt 0.874870 0.119598
vt 0.872701 0.116851
vt 0.871486 0.113568
vt 0.871346 0.110070
vt 0.872294 0.106701
vt 0.874236 0.103789
vt 0.876983 0.101620
vt 0.880266 0.100406
vt 0.883764 0.100266
vt 0.887133 0.101213
vt 0.890045 0.103155
vt 0.892214 0.105902
vt 0.893428 0.109185
vt 0.893568 0.112683
vt 0.892621 0.116052
vt 0.890678 0.118964
vt 0.888465 0.122084
vt 0.891480 0.119704
vt 0.888994 0.123032
vt 0.892276 0.120441
vt 0.889519 0.123973
vt 0.893066 0.121174
vt 0.884862 0.123417
vt 0.885073 0.124481
vt 0.885281 0.125539
vt 0.881024 0.123571
vt 0.880895 0.124648
vt 0.880766 0.125718
vt 0.877326 0.122531
vt 0.876871 0.123516
vt 0.876417 0.124494
vt 0.874130 0.120399
vt 0.873393 0.121195
vt 0.872660 0.121985
vt 0.871749 0.117384
vt 0.870802 0.117914
vt 0.869861 0.118438
vt 0.870417 0.113781
vt 0.869353 0.113992
vt 0.868295 0.114200
vt 0.870263 0.109943
vt 0.869186 0.109815
vt 0.868116 0.109686
vt 0.871303 0.106245
vt 0.870318 0.105790
vt 0.869340 0.105337
vt 0.873435 0.103049
vt 0.872639 0.102312
vt 0.871849 0.101579
vt 0.876450 0.100669
vt 0.875920 0.099721
vt 0.875396 0.098780
vt 0.880053 0.099336
vt 0.879842 0.098272
vt 0.879634 0.097215
vt 0.883891 0.099183
vt 0.884019 0.098105
vt 0.884148 0.097035
vt 0.887589 0.100223
vt 0.888044 0.099237
vt 0.888497 0.098260
vt 0.890785 0.102354
vt 0.891522 0.101558
vt 0.892255 0.100768
vt 0.893165 0.105369
vt 0.894112 0.104840
vt 0.895054 0.104315
vt 0.894497 0.108972
vt 0.895562 0.108761
vt 0.896619 0.108553
vt 0.894651 0.112810
vt 0.895729 0.112939
vt 0.896799 0.113068
vt 0.893611 0.116508
vt 0.894597 0.116963
vt 0.895574 0.117417
vt 0.896546 0.117867
vt 0.893851 0.121903
vt 0.897863 0.113196
vt 0.897671 0.108346
vt 0.895990 0.103793
vt 0.892984 0.099983
vt 0.888948 0.097287
vt 0.884277 0.095971
vt 0.879427 0.096163
vt 0.874874 0.097844
vt 0.871063 0.100850
vt 0.868368 0.104886
vt 0.867052 0.109557
vt 0.867244 0.114407
vt 0.868925 0.118960
vt 0.871930 0.122771
vt 0.875967 0.125466
vt 0.880638 0.126782
vt 0.885488 0.126590
vt 0.890041 0.124909
vt 0.994066 0.005859
vt 0.005859 0.006693
vn 0.951057 0.000000 -0.309016
vn 0.809017 0.000000 -0.587786
vn 0.809017 0.000211 -0.587786
vn 0.951057 0.000211 -0.309016
vn 0.587785 0.000000 -0.809017
vn 0.587785 0.000211 -0.809017
vn 0.309017 0.000000 -0.951057
vn 0.309017 0.000211 -0.951056
vn 0.000000 0.000000 -1.000000
vn 0.000000 0.000211 -1.000000
vn -0.309017 0.000000 -0.951057
vn -0.309017 0.000211 -0.951056
vn -0.587785 0.000000 -0.809017
vn -0.587785 0.000211 -0.809017
vn -0.809017 0.000000 -0.587785
vn -0.809017 0.000211 -0.587785
vn -0.951057 0.000000 -0.309017
vn -0.951057 0.000211 -0.309017
vn -1.000000 0.000000 0.000000
vn -1.000000 0.000211 0.000000
vn -0.951057 0.000000 0.309017
vn -0.951057 0.000211 0.309017
vn -0.809017 0.000000 0.587785
vn -0.809017 0.000211 0.587785
vn -0.587785 0.000000 0.809017
vn -0.587785 0.000211 0.809017
vn -0.309017 0.000000 0.951057
vn -0.309017 0.000211 0.951057
vn -0.000000 0.000000 1.000000
vn -0.000000 0.000211 1.000000
vn 0.309017 0.000000 0.951057
vn 0.309017 0.000211 0.951057
vn 0.587785 0.000000 0.809017
vn 0.587785 0.000211 0.809017
vn 0.809017 0.000000 0.587785
vn 0.809017 0.000211 0.587785
vn 0.951057 0.000000 0.309017
vn 0.951057 0.000211 0.309017
vn 1.000000 0.000000 0.000001
vn 1.000000 0.000211 0.000001
vn 0.036250 0.999273 -0.011796
vn 0.030836 0.999273 -0.022417
vn 0.000000 1.000000 -0.000002
vn 0.022404 0.999273 -0.030848
vn 0.011778 0.999273 -0.036250
vn 0.000000 0.999273 -0.038117
vn -0.011778 0.999273 -0.036261
vn -0.022404 0.999274 -0.030823
vn -0.030836 0.999274 -0.022393
vn -0.036250 0.999273 -0.011793
vn -0.038115 0.999273 -0.000002
vn -0.036250 0.999273 0.011780
vn -0.030836 0.999273 0.022407
vn -0.022404 0.999273 0.030838
vn -0.011778 0.999273 0.036248
vn 0.000000 0.999273 0.038115
vn 0.011778 0.999273 0.036253
vn 0.022404 0.999273 0.030854
vn 0.030836 0.999273 0.022412
vn 0.036250 0.999273 0.011782
vn 0.038115 0.999273 -0.000003
vn 0.379170 0.917089 -0.123202
vn 0.398682 0.917089 -0.000011
vn 0.677834 0.701451 -0.220245
vn 0.712717 0.701452 -0.000003
vn 0.879541 0.380431 -0.285798
vn 0.924809 0.380432 -0.000000
vn 0.322541 0.917091 -0.234331
vn 0.576597 0.701449 -0.418934
vn 0.748175 0.380428 -0.543608
vn 0.234341 0.917093 -0.322528
vn 0.418923 0.701448 -0.576606
vn 0.543585 0.380430 -0.748190
vn 0.123201 0.917106 -0.379129
vn 0.220245 0.701466 -0.677818
vn 0.285785 0.380432 -0.879545
vn -0.000000 0.917102 -0.398653
vn 0.000000 0.701462 -0.712707
vn 0.000001 0.380430 -0.924810
vn -0.123198 0.917081 -0.379190
vn -0.220240 0.701448 -0.677838
vn -0.285778 0.380427 -0.879549
vn -0.234341 0.917090 -0.322539
vn -0.418925 0.701453 -0.576598
vn -0.543584 0.380427 -0.748193
vn -0.322543 0.917095 -0.234312
vn -0.576600 0.701452 -0.418924
vn -0.748183 0.380430 -0.543595
vn -0.379170 0.917090 -0.123192
vn -0.677834 0.701452 -0.220240
vn -0.879543 0.380432 -0.285788
vn -0.398682 0.917089 -0.000005
vn -0.712717 0.701452 -0.000000
vn -0.924809 0.380433 0.000000
vn -0.379170 0.917089 0.123197
vn -0.677836 0.701454 0.220229
vn -0.879546 0.380432 0.285780
vn -0.322541 0.917089 0.234341
vn -0.576606 0.701458 0.418907
vn -0.748190 0.380434 0.543582
vn -0.234340 0.917090 0.322538
vn -0.418930 0.701457 0.576590
vn -0.543598 0.380436 0.748178
vn -0.123200 0.917096 0.379154
vn -0.220243 0.701459 0.677826
vn -0.285782 0.380433 0.879545
vn 0.000001 0.917101 0.398656
vn 0.000001 0.701474 0.712695
vn 0.000002 0.380436 0.924807
vn 0.123198 0.917081 0.379189
vn 0.220243 0.701458 0.677828
vn 0.285780 0.380435 0.879545
vn 0.234337 0.917077 0.322578
vn 0.418918 0.701440 0.576619
vn 0.543588 0.380433 0.748187
vn 0.322540 0.917086 0.234351
vn 0.576596 0.701449 0.418934
vn 0.748187 0.380433 0.543587
vn 0.379170 0.917089 0.123202
vn 0.677833 0.701452 0.220242
vn 0.879544 0.380431 0.285788
s 1
g street_sign_pole_01 street_sign_pole_geo
usemtl aiStandardSurface2SG
f 1/1/1 2/2/2 27/3/3 22/4/4
f 2/2/2 3/5/5 32/6/6 27/3/3
f 3/5/5 4/7/7 37/8/8 32/6/6
f 4/7/7 5/9/9 42/10/10 37/8/8
f 5/9/9 6/11/11 47/12/12 42/10/10
f 6/11/11 7/13/13 52/14/14 47/12/12
f 7/13/13 8/15/15 57/16/16 52/14/14
f 8/15/15 9/17/17 62/18/18 57/16/16
f 9/17/17 10/19/19 67/20/20 62/18/18
f 10/142/19 11/21/21 72/22/22 67/143/20
f 11/21/21 12/23/23 77/24/24 72/22/22
f 12/23/23 13/25/25 82/26/26 77/24/24
f 13/25/25 14/27/27 87/28/28 82/26/26
f 14/27/27 15/29/29 92/30/30 87/28/28
f 15/29/29 16/31/31 97/32/32 92/30/30
f 16/31/31 17/33/33 102/34/34 97/32/32
f 17/33/33 18/35/35 107/36/36 102/34/34
f 18/35/35 19/37/37 112/38/38 107/36/36
f 19/37/37 20/39/39 117/40/40 112/38/38
f 20/39/39 1/1/1 22/4/4 117/40/40
f 26/41/41 31/42/42 21/43/43
f 31/42/42 36/44/44 21/43/43
f 36/44/44 41/45/45 21/43/43
f 41/45/45 46/46/46 21/43/43
f 46/46/46 51/47/47 21/43/43
f 51/47/47 56/48/48 21/43/43
f 56/48/48 61/49/49 21/43/43
f 61/49/49 66/50/50 21/43/43
f 66/50/50 71/51/51 21/43/43
f 71/51/51 76/52/52 21/43/43
f 76/52/52 81/53/53 21/43/43
f 81/53/53 86/54/54 21/43/43
f 86/54/54 91/55/55 21/43/43
f 91/55/55 96/56/56 21/43/43
f 96/56/56 101/57/57 21/43/43
f 101/57/57 106/58/58 21/43/43
f 106/58/58 111/59/59 21/43/43
f 111/59/59 116/60/60 21/43/43
f 116/60/60 121/61/61 21/43/43
f 121/61/61 26/41/41 21/43/43
f 25/62/62 26/41/41 121/61/61 120/63/63
f 24/64/64 25/62/62 120/63/63 119/65/65
f 22/141/4 23/66/66 118/67/67 117/123/40
f 23/66/66 24/64/64 119/65/65 118/67/67
f 26/41/41 25/62/62 30/68/68 31/42/42
f 25/62/62 24/64/64 29/69/69 30/68/68
f 24/64/64 23/66/66 28/70/70 29/69/69
f 23/66/66 22/141/4 27/140/3 28/70/70
f 31/42/42 30/68/68 35/71/71 36/44/44
f 30/68/68 29/69/69 34/72/72 35/71/71
f 29/69/69 28/70/70 33/73/73 34/72/72
f 28/70/70 27/140/3 32/139/6 33/73/73
f 36/44/44 35/71/71 40/74/74 41/45/45
f 35/71/71 34/72/72 39/75/75 40/74/74
f 34/72/72 33/73/73 38/76/76 39/75/75
f 33/73/73 32/139/6 37/138/8 38/76/76
f 41/45/45 40/74/74 45/77/77 46/46/46
f 40/74/74 39/75/75 44/78/78 45/77/77
f 39/75/75 38/76/76 43/79/79 44/78/78
f 38/76/76 37/138/8 42/137/10 43/79/79
f 46/46/46 45/77/77 50/80/80 51/47/47
f 45/77/77 44/78/78 49/81/81 50/80/80
f 44/78/78 43/79/79 48/82/82 49/81/81
f 43/79/79 42/137/10 47/136/12 48/82/82
f 51/47/47 50/80/80 55/83/83 56/48/48
f 50/80/80 49/81/81 54/84/84 55/83/83
f 49/81/81 48/82/82 53/85/85 54/84/84
f 48/82/82 47/136/12 52/135/14 53/85/85
f 56/48/48 55/83/83 60/86/86 61/49/49
f 55/83/83 54/84/84 59/87/87 60/86/86
f 54/84/84 53/85/85 58/88/88 59/87/87
f 53/85/85 52/135/14 57/134/16 58/88/88
f 61/49/49 60/86/86 65/89/89 66/50/50
f 60/86/86 59/87/87 64/90/90 65/89/89
f 59/87/87 58/88/88 63/91/91 64/90/90
f 58/88/88 57/134/16 62/133/18 63/91/91
f 66/50/50 65/89/89 70/92/92 71/51/51
f 65/89/89 64/90/90 69/93/93 70/92/92
f 64/90/90 63/91/91 68/94/94 69/93/93
f 63/91/91 62/133/18 67/132/20 68/94/94
f 71/51/51 70/92/92 75/95/95 76/52/52
f 70/92/92 69/93/93 74/96/96 75/95/95
f 69/93/93 68/94/94 73/97/97 74/96/96
f 68/94/94 67/132/20 72/131/22 73/97/97
f 76/52/52 75/95/95 80/98/98 81/53/53
f 75/95/95 74/96/96 79/99/99 80/98/98
f 74/96/96 73/97/97 78/100/100 79/99/99
f 73/97/97 72/131/22 77/130/24 78/100/100
f 81/53/53 80/98/98 85/101/101 86/54/54
f 80/98/98 79/99/99 84/102/102 85/101/101
f 79/99/99 78/100/100 83/103/103 84/102/102
f 78/100/100 77/130/24 82/129/26 83/103/103
f 86/54/54 85/101/101 90/104/104 91/55/55
f 85/101/101 84/102/102 89/105/105 90/104/104
f 84/102/102 83/103/103 88/106/106 89/105/105
f 83/103/103 82/129/26 87/128/28 88/106/106
f 91/55/55 90/104/104 95/107/107 96/56/56
f 90/104/104 89/105/105 94/108/108 95/107/107
f 89/105/105 88/106/106 93/109/109 94/108/108
f 88/106/106 87/128/28 92/127/30 93/109/109
f 96/56/56 95/107/107 100/110/110 101/57/57
f 95/107/107 94/108/108 99/111/111 100/110/110
f 94/108/108 93/109/109 98/112/112 99/111/111
f 93/109/109 92/127/30 97/126/32 98/112/112
f 101/57/57 100/110/110 105/113/113 106/58/58
f 100/110/110 99/111/111 104/114/114 105/113/113
f 99/111/111 98/112/112 103/115/115 104/114/114
f 98/112/112 97/126/32 102/125/34 103/115/115
f 106/58/58 105/113/113 110/116/116 111/59/59
f 105/113/113 104/114/114 109/117/117 110/116/116
f 104/114/114 103/115/115 108/118/118 109/117/117
f 103/115/115 102/125/34 107/124/36 108/118/118
f 111/59/59 110/116/116 115/119/119 116/60/60
f 110/116/116 109/117/117 114/120/120 115/119/119
f 109/117/117 108/118/118 113/121/121 114/120/120
f 108/118/118 107/124/36 112/122/38 113/121/121
f 116/60/60 115/119/119 120/63/63 121/61/61
f 115/119/119 114/120/120 119/65/65 120/63/63
f 114/120/120 113/121/121 118/67/67 119/65/65
f 113/121/121 112/122/38 117/123/40 118/67/67
g default
v 7.395402 -0.181953 -2.402912
v 6.290905 -0.181953 -4.570609
v 4.570609 -0.181953 -6.290904
v 2.402911 -0.181953 -7.395401
v 0.000000 -0.181953 -7.775983
v -2.402911 -0.181953 -7.395400
v -4.570608 -0.181953 -6.290902
v -6.290902 -0.181953 -4.570608
v -7.395398 -0.181953 -2.402910
v -7.775981 -0.181953 0.000000
v -7.395398 -0.181953 2.402910
v -6.290901 -0.181953 4.570608
v -4.570608 -0.181953 6.290901
v -2.402910 -0.181953 7.395397
v -0.000000 -0.181953 7.775980
v 2.402910 -0.181953 7.395397
v 4.570606 -0.181953 6.290901
v 6.290901 -0.181953 4.570607
v 7.395397 -0.181953 2.402910
v 7.775980 -0.181953 0.000000
v 0.000000 14.678570 0.000000
v 5.501175 13.992245 -1.787441
v 5.425475 14.263252 -1.762844
v 5.282239 14.484187 -1.716304
v 5.088769 14.628448 -1.653442
v 4.868566 14.678570 -1.581894
v 4.679579 13.992245 -3.399914
v 4.615184 14.263252 -3.353128
v 4.493341 14.484187 -3.264603
v 4.328766 14.628448 -3.145032
v 4.141449 14.678570 -3.008939
v 3.399913 13.992245 -4.679580
v 3.353127 14.263252 -4.615185
v 3.264603 14.484187 -4.493342
v 3.145032 14.628448 -4.328766
v 3.008939 14.678570 -4.141450
v 1.787440 13.992245 -5.501175
v 1.762843 14.263252 -5.425475
v 1.716303 14.484187 -5.282239
v 1.653441 14.628448 -5.088770
v 1.581892 14.678570 -4.868567
v -0.000000 13.992245 -5.784278
v -0.000000 14.263252 -5.704682
v -0.000000 14.484187 -5.554075
v -0.000000 14.628448 -5.350649
v -0.000000 14.678570 -5.119112
v -1.787440 13.992245 -5.501175
v -1.762844 14.263252 -5.425475
v -1.716304 14.484187 -5.282239
v -1.653441 14.628448 -5.088770
v -1.581893 14.678570 -4.868567
v -3.399913 13.992245 -4.679578
v -3.353127 14.263252 -4.615183
v -3.264603 14.484187 -4.493340
v -3.145032 14.628448 -4.328765
v -3.008939 14.678570 -4.141449
v -4.679578 13.992245 -3.399913
v -4.615183 14.263252 -3.353127
v -4.493340 14.484187 -3.264603
v -4.328765 14.628448 -3.145032
v -4.141448 14.678570 -3.008939
v -5.501174 13.992245 -1.787440
v -5.425475 14.263252 -1.762843
v -5.282239 14.484187 -1.716304
v -5.088768 14.628448 -1.653441
v -4.868565 14.678570 -1.581893
v -5.784276 13.992245 -0.000000
v -5.704680 14.263252 -0.000000
v -5.554073 14.484187 -0.000000
v -5.350647 14.628448 -0.000000
v -5.119111 14.678570 -0.000000
v -5.501174 13.992245 1.787439
v -5.425475 14.263252 1.762843
v -5.282239 14.484187 1.716303
v -5.088768 14.628448 1.653441
v -4.868565 14.678570 1.581892
v -4.679578 13.992245 3.399911
v -4.615183 14.263252 3.353126
v -4.493340 14.484187 3.264601
v -4.328765 14.628448 3.145030
v -4.141448 14.678570 3.008937
v -3.399912 13.992245 4.679577
v -3.353127 14.263252 4.615182
v -3.264603 14.484187 4.493340
v -3.145031 14.628448 4.328764
v -3.008938 14.678570 4.141447
v -1.787440 13.992245 5.501173
v -1.762843 14.263252 5.425473
v -1.716303 14.484187 5.282238
v -1.653441 14.628448 5.088767
v -1.581893 14.678570 4.868564
v -0.000000 13.992245 5.784275
v -0.000000 14.263252 5.704679
v -0.000000 14.484187 5.554072
v -0.000000 14.628448 5.350646
v -0.000001 14.678570 5.119110
v 1.787439 13.992245 5.501172
v 1.762842 14.263252 5.425472
v 1.716302 14.484187 5.282237
v 1.653440 14.628448 5.088767
v 1.581891 14.678570 4.868564
v 3.399911 13.992245 4.679576
v 3.353125 14.263252 4.615182
v 3.264601 14.484187 4.493340
v 3.145030 14.628448 4.328764
v 3.008937 14.678570 4.141447
v 4.679576 13.992245 3.399911
v 4.615182 14.263252 3.353126
v 4.493340 14.484187 3.264601
v 4.328764 14.628448 3.145030
v 4.141447 14.678570 3.008937
v 5.501172 13.992245 1.787439
v 5.425471 14.263252 1.762843
v 5.282237 14.484187 1.716303
v 5.088767 14.628448 1.653440
v 4.868563 14.678570 1.581892
v 5.784273 13.992245 -0.000000
v 5.704679 14.263252 -0.000000
v 5.554071 14.484187 -0.000001
v 5.350646 14.628448 -0.000001
v 5.119110 14.678570 -0.000001
vt 0.993368 0.215538
vt 0.993368 0.223058
vt 0.944559 0.223058
vt 0.944559 0.215538
vt 0.993368 0.230600
vt 0.944559 0.230600
vt 0.993368 0.238161
vt 0.944559 0.238161
vt 0.993368 0.245734
vt 0.944559 0.245734
vt 0.993368 0.103488
vt 0.944559 0.103488
vt 0.993368 0.111045
vt 0.944559 0.111045
vt 0.993368 0.118582
vt 0.944559 0.118582
vt 0.993368 0.126098
vt 0.944559 0.126098
vt 0.993368 0.133590
vt 0.944559 0.133590
vt 0.993368 0.141062
vt 0.944559 0.141062
vt 0.993368 0.148515
vt 0.944559 0.148515
vt 0.993368 0.155953
vt 0.944559 0.155953
vt 0.993368 0.163382
vt 0.944559 0.163382
vt 0.993368 0.170806
vt 0.944559 0.170806
vt 0.993368 0.178233
vt 0.944559 0.178233
vt 0.993368 0.185666
vt 0.944559 0.185666
vt 0.993368 0.193108
vt 0.944559 0.193108
vt 0.993368 0.200566
vt 0.944559 0.200566
vt 0.993368 0.208041
vt 0.944559 0.208041
vt 0.929336 0.132661
vt 0.924105 0.134502
vt 0.920908 0.117069
vt 0.918561 0.134637
vt 0.913247 0.133052
vt 0.908683 0.129902
vt 0.905316 0.125496
vt 0.903474 0.120265
vt 0.903340 0.114722
vt 0.904925 0.109408
vt 0.908075 0.104844
vt 0.912481 0.101476
vt 0.917712 0.099635
vt 0.923255 0.099501
vt 0.928569 0.101086
vt 0.933133 0.104235
vt 0.936501 0.108641
vt 0.938342 0.113872
vt 0.938476 0.119416
vt 0.936891 0.124730
vt 0.933742 0.129294
vt 0.929726 0.133383
vt 0.934335 0.129860
vt 0.930136 0.134145
vt 0.934961 0.130457
vt 0.930577 0.134962
vt 0.935633 0.131099
vt 0.924253 0.135309
vt 0.924408 0.136161
vt 0.924574 0.137074
vt 0.918452 0.135450
vt 0.918337 0.136308
vt 0.918213 0.137228
vt 0.912892 0.133792
vt 0.912518 0.134571
vt 0.912115 0.135408
vt 0.908117 0.130496
vt 0.907520 0.131122
vt 0.906878 0.131793
vt 0.904594 0.125886
vt 0.903832 0.126297
vt 0.903015 0.126737
vt 0.902667 0.120413
vt 0.901816 0.120569
vt 0.900903 0.120735
vt 0.902527 0.114613
vt 0.901669 0.114498
vt 0.900749 0.114373
vt 0.904185 0.109053
vt 0.903405 0.108678
vt 0.902569 0.108276
vt 0.907481 0.104278
vt 0.906855 0.103680
vt 0.906184 0.103039
vt 0.912091 0.100754
vt 0.911680 0.099993
vt 0.911240 0.099175
vt 0.917564 0.098828
vt 0.917408 0.097977
vt 0.917242 0.097063
vt 0.923364 0.098687
vt 0.923479 0.097830
vt 0.923604 0.096910
vt 0.928924 0.100346
vt 0.929299 0.099566
vt 0.929701 0.098729
vt 0.933699 0.103641
vt 0.934297 0.103016
vt 0.934938 0.102344
vt 0.937223 0.108251
vt 0.937984 0.107841
vt 0.938802 0.107400
vt 0.939149 0.113724
vt 0.940000 0.113569
vt 0.940914 0.113403
vt 0.939290 0.119525
vt 0.940147 0.119640
vt 0.941067 0.119764
vt 0.937631 0.125085
vt 0.938411 0.125459
vt 0.939247 0.125862
vt 0.940131 0.126288
vt 0.936342 0.131777
vt 0.942039 0.119896
vt 0.941878 0.113228
vt 0.939665 0.106936
vt 0.935616 0.101635
vt 0.930127 0.097846
vt 0.923735 0.095938
vt 0.917067 0.096098
vt 0.910775 0.098312
vt 0.905475 0.102361
vt 0.901685 0.107850
vt 0.899777 0.114242
vt 0.899938 0.120910
vt 0.902151 0.127202
vt 0.906200 0.132502
vt 0.911690 0.136292
vt 0.918081 0.138200
vt 0.924749 0.138039
vt 0.931041 0.135826
vt 0.993368 0.095919
vt 0.944559 0.095919
vn 0.941804 0.139149 -0.306010
vn 0.801146 0.139149 -0.582067
vn 0.800886 0.141423 -0.581878
vn 0.941498 0.141423 -0.305910
vn 0.582067 0.139149 -0.801147
vn 0.581878 0.141423 -0.800886
vn 0.306010 0.139149 -0.941804
vn 0.305911 0.141423 -0.941498
vn -0.000000 0.139149 -0.990272
vn -0.000000 0.141423 -0.989949
vn -0.306011 0.139149 -0.941804
vn -0.305911 0.141423 -0.941498
vn -0.582067 0.139149 -0.801146
vn -0.581878 0.141423 -0.800886
vn -0.801146 0.139149 -0.582067
vn -0.800886 0.141423 -0.581877
vn -0.941804 0.139149 -0.306011
vn -0.941498 0.141423 -0.305911
vn -0.990272 0.139149 0.000000
vn -0.989949 0.141423 0.000000
vn -0.941804 0.139149 0.306011
vn -0.941498 0.141423 0.305911
vn -0.801147 0.139149 0.582067
vn -0.800886 0.141423 0.581878
vn -0.582067 0.139149 0.801147
vn -0.581877 0.141423 0.800886
vn -0.306010 0.139149 0.941804
vn -0.305911 0.141423 0.941498
vn 0.000000 0.139149 0.990271
vn 0.000000 0.141423 0.989949
vn 0.306011 0.139149 0.941804
vn 0.305911 0.141423 0.941498
vn 0.582067 0.139149 0.801146
vn 0.581878 0.141423 0.800886
vn 0.801146 0.139149 0.582067
vn 0.800886 0.141423 0.581878
vn 0.941804 0.139149 0.306010
vn 0.941498 0.141423 0.305911
vn 0.990272 0.139149 0.000001
vn 0.989949 0.141423 0.000001
vn 0.020869 0.999759 -0.006781
vn 0.017752 0.999759 -0.012898
vn 0.000000 1.000000 -0.000000
vn 0.012897 0.999759 -0.017752
vn 0.006781 0.999759 -0.020868
vn 0.000000 0.999759 -0.021943
vn -0.006781 0.999759 -0.020869
vn -0.012897 0.999759 -0.017752
vn -0.017752 0.999759 -0.012897
vn -0.020869 0.999759 -0.006780
vn -0.021942 0.999759 -0.000000
vn -0.020869 0.999759 0.006780
vn -0.017752 0.999759 0.012897
vn -0.012897 0.999759 0.017752
vn -0.006781 0.999759 0.020869
vn 0.000000 0.999759 0.021942
vn 0.006781 0.999759 0.020869
vn 0.012897 0.999759 0.017752
vn 0.017752 0.999759 0.012898
vn 0.020869 0.999759 0.006780
vn 0.021942 0.999759 -0.000001
vn 0.407489 0.903561 -0.132401
vn 0.428460 0.903561 0.000000
vn 0.692909 0.684974 -0.225139
vn 0.728568 0.684974 0.000001
vn 0.864727 0.416299 -0.280966
vn 0.909228 0.416298 0.000001
vn 0.346631 0.903561 -0.251842
vn 0.589424 0.684973 -0.428241
vn 0.735580 0.416300 -0.534431
vn 0.251842 0.903561 -0.346632
vn 0.428241 0.684973 -0.589425
vn 0.534430 0.416300 -0.735580
vn 0.132401 0.903561 -0.407490
vn 0.225140 0.684974 -0.692909
vn 0.280967 0.416301 -0.864726
vn -0.000000 0.903561 -0.428459
vn -0.000000 0.684975 -0.728567
vn -0.000000 0.416301 -0.909227
vn -0.132401 0.903561 -0.407489
vn -0.225140 0.684973 -0.692909
vn -0.280967 0.416300 -0.864726
vn -0.251842 0.903561 -0.346631
vn -0.428242 0.684973 -0.589424
vn -0.534431 0.416299 -0.735580
vn -0.346631 0.903561 -0.251842
vn -0.589424 0.684973 -0.428242
vn -0.735581 0.416299 -0.534430
vn -0.407489 0.903561 -0.132401
vn -0.692909 0.684974 -0.225140
vn -0.864727 0.416299 -0.280966
vn -0.428459 0.903561 -0.000000
vn -0.728567 0.684974 -0.000000
vn -0.909228 0.416299 -0.000000
vn -0.407489 0.903561 0.132401
vn -0.692909 0.684974 0.225140
vn -0.864727 0.416299 0.280967
vn -0.346631 0.903561 0.251843
vn -0.589425 0.684973 0.428241
vn -0.735581 0.416299 0.534430
vn -0.251842 0.903561 0.346631
vn -0.428242 0.684973 0.589424
vn -0.534431 0.416299 0.735581
vn -0.132401 0.903562 0.407487
vn -0.225139 0.684973 0.692910
vn -0.280967 0.416299 0.864727
vn -0.000000 0.903562 0.428457
vn 0.000000 0.684974 0.728568
vn 0.000000 0.416299 0.909228
vn 0.132401 0.903561 0.407488
vn 0.225140 0.684973 0.692910
vn 0.280967 0.416299 0.864727
vn 0.251842 0.903561 0.346632
vn 0.428242 0.684973 0.589424
vn 0.534431 0.416298 0.735581
vn 0.346631 0.903561 0.251843
vn 0.589425 0.684973 0.428241
vn 0.735581 0.416298 0.534431
vn 0.407489 0.903561 0.132401
vn 0.692910 0.684973 0.225140
vn 0.864727 0.416298 0.280967
s 1
g street_sign_pole_geo street_sign_pole_02
usemtl aiStandardSurface2SG
f 122/144/122 123/145/123 148/146/124 143/147/125
f 123/145/123 124/148/126 153/149/127 148/146/124
f 124/148/126 125/150/128 158/151/129 153/149/127
f 125/150/128 126/152/130 163/153/131 158/151/129
f 126/285/130 127/154/132 168/155/133 163/286/131
f 127/154/132 128/156/134 173/157/135 168/155/133
f 128/156/134 129/158/136 178/159/137 173/157/135
f 129/158/136 130/160/138 183/161/139 178/159/137
f 130/160/138 131/162/140 188/163/141 183/161/139
f 131/162/140 132/164/142 193/165/143 188/163/141
f 132/164/142 133/166/144 198/167/145 193/165/143
f 133/166/144 134/168/146 203/169/147 198/167/145
f 134/168/146 135/170/148 208/171/149 203/169/147
f 135/170/148 136/172/150 213/173/151 208/171/149
f 136/172/150 137/174/152 218/175/153 213/173/151
f 137/174/152 138/176/154 223/177/155 218/175/153
f 138/176/154 139/178/156 228/179/157 223/177/155
f 139/178/156 140/180/158 233/181/159 228/179/157
f 140/180/158 141/182/160 238/183/161 233/181/159
f 141/182/160 122/144/122 143/147/125 238/183/161
f 147/184/162 152/185/163 142/186/164
f 152/185/163 157/187/165 142/186/164
f 157/187/165 162/188/166 142/186/164
f 162/188/166 167/189/167 142/186/164
f 167/189/167 172/190/168 142/186/164
f 172/190/168 177/191/169 142/186/164
f 177/191/169 182/192/170 142/186/164
f 182/192/170 187/193/171 142/186/164
f 187/193/171 192/194/172 142/186/164
f 192/194/172 197/195/173 142/186/164
f 197/195/173 202/196/174 142/186/164
f 202/196/174 207/197/175 142/186/164
f 207/197/175 212/198/176 142/186/164
f 212/198/176 217/199/177 142/186/164
f 217/199/177 222/200/178 142/186/164
f 222/200/178 227/201/179 142/186/164
f 227/201/179 232/202/180 142/186/164
f 232/202/180 237/203/181 142/186/164
f 237/203/181 242/204/182 142/186/164
f 242/204/182 147/184/162 142/186/164
f 146/205/183 147/184/162 242/204/182 241/206/184
f 145/207/185 146/205/183 241/206/184 240/208/186
f 143/284/125 144/209/187 239/210/188 238/266/161
f 144/209/187 145/207/185 240/208/186 239/210/188
f 147/184/162 146/205/183 151/211/189 152/185/163
f 146/205/183 145/207/185 150/212/190 151/211/189
f 145/207/185 144/209/187 149/213/191 150/212/190
f 144/209/187 143/284/125 148/283/124 149/213/191
f 152/185/163 151/211/189 156/214/192 157/187/165
f 151/211/189 150/212/190 155/215/193 156/214/192
f 150/212/190 149/213/191 154/216/194 155/215/193
f 149/213/191 148/283/124 153/282/127 154/216/194
f 157/187/165 156/214/192 161/217/195 162/188/166
f 156/214/192 155/215/193 160/218/196 161/217/195
f 155/215/193 154/216/194 159/219/197 160/218/196
f 154/216/194 153/282/127 158/281/129 159/219/197
f 162/188/166 161/217/195 166/220/198 167/189/167
f 161/217/195 160/218/196 165/221/199 166/220/198
f 160/218/196 159/219/197 164/222/200 165/221/199
f 159/219/197 158/281/129 163/280/131 164/222/200
f 167/189/167 166/220/198 171/223/201 172/190/168
f 166/220/198 165/221/199 170/224/202 171/223/201
f 165/221/199 164/222/200 169/225/203 170/224/202
f 164/222/200 163/280/131 168/279/133 169/225/203
f 172/190/168 171/223/201 176/226/204 177/191/169
f 171/223/201 170/224/202 175/227/205 176/226/204
f 170/224/202 169/225/203 174/228/206 175/227/205
f 169/225/203 168/279/133 173/278/135 174/228/206
f 177/191/169 176/226/204 181/229/207 182/192/170
f 176/226/204 175/227/205 180/230/208 181/229/207
f 175/227/205 174/228/206 179/231/209 180/230/208
f 174/228/206 173/278/135 178/277/137 179/231/209
f 182/192/170 181/229/207 186/232/210 187/193/171
f 181/229/207 180/230/208 185/233/211 186/232/210
f 180/230/208 179/231/209 184/234/212 185/233/211
f 179/231/209 178/277/137 183/276/139 184/234/212
f 187/193/171 186/232/210 191/235/213 192/194/172
f 186/232/210 185/233/211 190/236/214 191/235/213
f 185/233/211 184/234/212 189/237/215 190/236/214
f 184/234/212 183/276/139 188/275/141 189/237/215
f 192/194/172 191/235/213 196/238/216 197/195/173
f 191/235/213 190/236/214 195/239/217 196/238/216
f 190/236/214 189/237/215 194/240/218 195/239/217
f 189/237/215 188/275/141 193/274/143 194/240/218
f 197/195/173 196/238/216 201/241/219 202/196/174
f 196/238/216 195/239/217 200/242/220 201/241/219
f 195/239/217 194/240/218 199/243/221 200/242/220
f 194/240/218 193/274/143 198/273/145 199/243/221
f 202/196/174 201/241/219 206/244/222 207/197/175
f 201/241/219 200/242/220 205/245/223 206/244/222
f 200/242/220 199/243/221 204/246/224 205/245/223
f 199/243/221 198/273/145 203/272/147 204/246/224
f 207/197/175 206/244/222 211/247/225 212/198/176
f 206/244/222 205/245/223 210/248/226 211/247/225
f 205/245/223 204/246/224 209/249/227 210/248/226
f 204/246/224 203/272/147 208/271/149 209/249/227
f 212/198/176 211/247/225 216/250/228 217/199/177
f 211/247/225 210/248/226 215/251/229 216/250/228
f 210/248/226 209/249/227 214/252/230 215/251/229
f 209/249/227 208/271/149 213/270/151 214/252/230
f 217/199/177 216/250/228 221/253/231 222/200/178
f 216/250/228 215/251/229 220/254/232 221/253/231
f 215/251/229 214/252/230 219/255/233 220/254/232
f 214/252/230 213/270/151 218/269/153 219/255/233
f 222/200/178 221/253/231 226/256/234 227/201/179
f 221/253/231 220/254/232 225/257/235 226/256/234
f 220/254/232 219/255/233 224/258/236 225/257/235
f 219/255/233 218/269/153 223/268/155 224/258/236
f 227/201/179 226/256/234 231/259/237 232/202/180
f 226/256/234 225/257/235 230/260/238 231/259/237
f 225/257/235 224/258/236 229/261/239 230/260/238
f 224/258/236 223/268/155 228/267/157 229/261/239
f 232/202/180 231/259/237 236/262/240 237/203/181
f 231/259/237 230/260/238 235/263/241 236/262/240
f 230/260/238 229/261/239 234/264/242 235/263/241
f 229/261/239 228/267/157 233/265/159 234/264/242
f 237/203/181 236/262/240 241/206/184 242/204/182
f 236/262/240 235/263/241 240/208/186 241/206/184
f 235/263/241 234/264/242 239/210/188 240/208/186
f 234/264/242 233/265/159 238/266/161 239/210/188
