# This file uses centimeters as units for non-parametric coordinates.

mtllib S_P25_01.mtl
g default
v 161.520157 -0.056458 44.873791
v 181.145020 -0.056458 44.873791
v 161.520157 -0.056458 53.373791
v 181.145020 -0.056458 53.373791
v 161.520172 228.818695 44.873791
v 181.145020 228.818695 44.873791
v 181.145020 228.818695 53.373791
v 161.520172 228.818695 53.373791
v 161.520157 237.318695 53.373791
v 181.145020 237.318695 53.373791
v 161.520157 -0.056458 -34.678837
v 181.145020 -0.056458 -34.678837
v 161.520157 235.881134 -25.812191
v 181.145020 235.881134 -25.812191
v 181.145020 237.318695 -21.688549
v 161.520157 237.318695 -21.688549
v 181.145020 237.318695 -10.274232
v 161.520157 237.318695 -10.274232
v 181.145020 217.762695 -34.678837
v 161.520157 217.762695 -34.678837
v 161.520157 226.487686 -33.680702
v 181.145020 226.487686 -33.680702
v 181.145020 232.575806 -30.375309
v 161.520157 232.575806 -30.375309
v 181.145020 228.818695 -10.274232
v 161.520157 228.818695 -10.274232
v 161.520157 -0.056458 -26.178837
v 181.145020 -0.056458 -26.178837
v 161.520157 228.265533 -21.836155
v 181.145020 228.265533 -21.836155
v 181.145020 228.818695 -20.249413
v 161.520157 228.818695 -20.249413
v 181.145020 217.278076 -26.178837
v 161.520157 217.278076 -26.178837
v 161.520157 223.882172 -25.423328
v 181.145020 223.882172 -25.423328
v 181.145020 226.824127 -23.826077
v 161.520157 226.824127 -23.826077
v 181.145020 237.318695 44.873791
v 161.520157 237.318695 44.873791
v 53.775192 237.318695 53.373791
v 73.400055 237.318695 53.373791
v 53.775192 -0.056458 -34.678837
v 73.400055 -0.056458 -34.678837
v 53.775192 235.881134 -25.812191
v 73.400055 235.881134 -25.812191
v 73.400055 237.318695 -21.688549
v 53.775192 237.318695 -21.688549
v 73.400055 237.318695 -10.274232
v 53.775192 237.318695 -10.274232
v 73.400055 217.762695 -34.678837
v 53.775192 217.762695 -34.678837
v 53.775192 226.487686 -33.680702
v 73.400055 226.487686 -33.680702
v 73.400055 232.575806 -30.375309
v 53.775192 232.575806 -30.375309
v 73.400055 228.818695 -10.274232
v 73.400055 228.818695 53.373791
v 53.775192 228.818695 53.373791
v 53.775192 228.818695 -10.274232
v 53.775192 -0.056458 -26.178837
v 73.400055 -0.056458 -26.178837
v 53.775192 228.265533 -21.836155
v 73.400055 228.265533 -21.836155
v 73.400055 228.818695 -20.249413
v 53.775192 228.818695 -20.249413
v 73.400055 217.278076 -26.178837
v 53.775192 217.278076 -26.178837
v 53.775192 223.882172 -25.423328
v 73.400055 223.882172 -25.423328
v 73.400055 226.824127 -23.826077
v 53.775192 226.824127 -23.826077
v 73.400055 237.318695 44.873791
v 73.400055 228.818695 44.873791
v 53.775192 228.818695 44.873791
v 53.775192 237.318695 44.873791
v -182.308319 237.318695 44.873791
v -182.308319 237.318695 53.373791
v -182.308319 228.818695 44.873791
v -182.308319 228.818695 53.373791
vt 0.571195 0.042566
vt 0.571195 0.294152
vt 0.561852 0.294152
vt 0.561852 0.042566
vt 0.805406 0.658555
vt 0.561546 0.658555
vt 0.561546 0.649499
vt 0.805406 0.649499
vt 0.631816 0.303496
vt 0.571195 0.303496
vt 0.961772 0.688951
vt 0.649298 0.042562
vt 0.658642 0.042562
vt 0.658642 0.281999
vt 0.649299 0.281466
vt 0.648896 0.301916
vt 0.644363 0.303496
vt 0.642781 0.294152
vt 0.644525 0.293544
vt 0.657545 0.291590
vt 0.653912 0.298282
vt 0.646713 0.291960
vt 0.648468 0.288726
vt 0.561852 0.303496
vt 0.961769 0.698704
vt 0.942582 0.698699
vt 0.479522 0.339295
vt 0.858353 0.312862
vt 0.797731 0.312862
vt 0.470179 0.339295
vt 0.797731 0.303519
vt 0.942584 0.688947
vt 0.785184 0.312862
vt 0.780650 0.311282
vt 0.785021 0.302911
vt 0.786766 0.303519
vt 0.780248 0.290832
vt 0.770904 0.291365
vt 0.770904 0.051927
vt 0.780248 0.051927
vt 0.775635 0.307648
vt 0.772002 0.300956
vt 0.797731 0.312861
vt 0.479522 0.242431
vt 0.470179 0.242431
vt 0.858352 0.312861
vt 0.858352 0.303517
vt 0.797732 0.303517
vt 0.780249 0.051929
vt 0.770905 0.051928
vt 0.770905 0.291364
vt 0.780249 0.290831
vt 0.780652 0.311281
vt 0.785184 0.312861
vt 0.786766 0.303517
vt 0.785022 0.302909
vt 0.772002 0.300955
vt 0.775635 0.307647
vt 0.536802 0.030746
vt 0.536806 0.021403
vt 0.597428 0.021433
vt 0.597423 0.030776
vt 0.609975 0.021439
vt 0.614507 0.023022
vt 0.610133 0.031391
vt 0.608389 0.030782
vt 0.614900 0.043471
vt 0.624244 0.042943
vt 0.624125 0.282380
vt 0.614781 0.282376
vt 0.619521 0.026657
vt 0.623151 0.033351
vt 0.614073 0.036211
vt 0.612319 0.032976
vt 0.942598 0.462641
vt 0.961785 0.462642
vt 0.961772 0.687307
vt 0.942584 0.687305
vt 0.961773 0.675132
vt 0.942585 0.675131
vt 0.382655 0.358762
vt 0.382663 0.298142
vt 0.404235 0.298145
vt 0.404227 0.358765
vt 0.382668 0.257332
vt 0.382701 0.017898
vt 0.404274 0.017900
vt 0.404241 0.257335
vt 0.382665 0.285595
vt 0.382665 0.280794
vt 0.404238 0.280797
vt 0.404237 0.285598
vt 0.382666 0.274600
vt 0.382667 0.266986
vt 0.404240 0.266989
vt 0.404239 0.274603
vt 0.404226 0.368109
vt 0.382653 0.368106
vt 0.522664 0.358782
vt 0.501092 0.358778
vt 0.501100 0.298158
vt 0.522673 0.298161
vt 0.501106 0.257348
vt 0.501139 0.017914
vt 0.522711 0.017917
vt 0.522678 0.257351
vt 0.747521 0.087762
vt 0.727726 0.087763
vt 0.727724 0.032136
vt 0.747520 0.032135
vt 0.727726 0.099520
vt 0.727726 0.097825
vt 0.747521 0.097824
vt 0.747522 0.099519
vt 0.747528 0.331302
vt 0.727733 0.331302
vt 0.727727 0.112080
vt 0.747522 0.112079
vt 0.727726 0.105375
vt 0.727726 0.101999
vt 0.747522 0.101998
vt 0.747522 0.105375
vt 0.961772 0.681631
vt 0.961772 0.684904
vt 0.942585 0.684903
vt 0.942585 0.681630
vt 0.942567 0.752618
vt 0.961754 0.752623
vt 0.501102 0.285611
vt 0.501102 0.280810
vt 0.522675 0.280813
vt 0.522674 0.285614
vt 0.501103 0.274617
vt 0.501105 0.267002
vt 0.522677 0.267005
vt 0.522676 0.274620
vt 0.859044 0.340308
vt 0.859044 0.349652
vt 0.837472 0.349652
vt 0.837472 0.340308
vt 0.955909 0.340308
vt 0.955909 0.349652
vt 0.577960 0.349652
vt 0.577960 0.340308
vt 0.727724 0.023562
vt 0.747519 0.023562
vt 0.638839 0.032138
vt 0.638839 0.023564
vt 0.985654 0.023555
vt 0.985654 0.032129
vt 0.977481 0.349652
vt 0.955909 0.088720
vt 0.522663 0.368125
vt 0.501091 0.368122
vt 0.782176 0.358817
vt 0.782175 0.368161
vt 0.631816 0.294152
vt 0.961693 0.976396
vt 0.942505 0.976391
vt 0.858353 0.303518
vt 0.559647 0.639564
vt 0.559647 0.630508
vt 0.782834 0.301326
vt 0.781078 0.298092
vt 0.782835 0.301325
vt 0.781079 0.298091
vt 0.811192 0.630508
vt 0.811192 0.639564
vt 0.977481 0.088720
vt 0.977481 0.340308
vn 1.000000 0.000000 0.000000
vn 1.000000 0.000000 0.000000
vn 1.000000 0.000000 0.000000
vn 1.000000 0.000000 0.000000
vn -1.000000 0.000000 0.000000
vn -1.000000 0.000000 0.000000
vn -1.000000 0.000000 0.000000
vn -1.000000 0.000000 0.000000
vn 0.000000 -0.873376 0.487047
vn 0.000000 -0.998857 0.047790
vn 0.000000 -0.998857 0.047790
vn 0.000000 -0.873376 0.487047
vn 0.000000 -1.000000 -0.000000
vn 0.000000 -1.000000 -0.000000
vn 0.000000 0.000000 1.000000
vn 0.000000 0.000000 1.000000
vn 0.000000 -0.003374 0.999994
vn 0.000000 -0.003374 0.999994
vn 0.000000 -0.239303 0.970945
vn 0.000000 -0.633321 0.773890
vn 0.000000 -0.633321 0.773890
vn 0.000000 -0.239303 0.970945
vn 0.000000 1.000000 0.000000
vn 0.000000 1.000000 0.000000
vn 0.000000 1.000000 0.000000
vn 0.000000 1.000000 0.000000
vn 0.000000 0.004406 -0.999990
vn 0.000000 0.000000 -1.000000
vn 0.000000 0.000000 -1.000000
vn 0.000000 0.004406 -0.999990
vn 0.000000 0.995747 -0.092126
vn 0.000000 0.877698 -0.479215
vn 0.000000 0.877698 -0.479215
vn 0.000000 0.995747 -0.092126
vn 0.000000 1.000000 0.000000
vn 0.000000 1.000000 0.000000
vn 0.000000 0.642139 -0.766588
vn 0.000000 0.278987 -0.960295
vn 0.000000 0.278987 -0.960295
vn 0.000000 0.642139 -0.766588
vn 1.000000 0.000000 0.000000
vn 1.000000 0.000000 0.000000
vn 1.000000 0.000000 0.000000
vn 1.000000 0.000000 0.000000
vn -1.000000 0.000000 0.000000
vn -1.000000 0.000000 0.000000
vn -1.000000 0.000000 0.000000
vn -1.000000 0.000000 0.000000
vn 1.000000 0.000000 0.000000
vn 1.000000 0.000000 0.000000
vn 1.000000 0.000000 0.000000
vn 1.000000 0.000000 0.000000
vn 1.000000 -0.000002 0.000000
vn 1.000000 -0.000002 0.000000
vn 1.000000 -0.000002 0.000000
vn 1.000000 -0.000002 0.000000
vn -1.000000 -0.000001 0.000000
vn -1.000000 -0.000001 0.000000
vn -1.000000 -0.000001 0.000000
vn -1.000000 -0.000001 0.000000
vn 1.000000 0.000000 0.000000
vn 1.000000 0.000000 0.000000
vn 1.000000 0.000000 0.000000
vn 1.000000 0.000000 0.000000
vn -1.000000 0.000000 0.000000
vn -1.000000 0.000000 0.000000
vn -1.000000 0.000000 0.000000
vn -1.000000 0.000000 0.000000
vn -1.000000 0.000000 0.000000
vn -1.000000 0.000000 0.000000
vn -1.000000 0.000000 0.000000
vn -1.000000 0.000000 0.000000
vn 1.000000 0.000000 0.000000
vn 1.000000 0.000000 0.000000
vn 1.000000 0.000000 0.000000
vn 1.000000 0.000000 0.000000
vn -1.000000 0.000000 0.000000
vn -1.000000 0.000000 0.000000
vn -1.000000 0.000000 0.000000
vn -1.000000 0.000000 0.000000
vn 1.000000 0.000000 0.000000
vn 1.000000 0.000000 0.000000
vn 1.000000 0.000000 0.000000
vn 1.000000 0.000000 0.000000
vn -1.000000 0.000000 0.000000
vn -1.000000 0.000000 0.000000
vn -1.000000 0.000000 0.000000
vn -1.000000 0.000000 0.000000
vn 1.000000 0.000000 0.000000
vn 1.000000 0.000000 0.000000
vn 1.000000 0.000000 0.000000
vn 1.000000 0.000000 0.000000
vn -1.000000 0.000000 0.000000
vn -1.000000 0.000000 0.000000
vn -1.000000 0.000000 0.000000
vn -1.000000 0.000000 0.000000
vn 0.000000 1.000000 0.000000
vn 0.000000 1.000000 0.000000
vn 0.000000 1.000000 0.000000
vn 0.000000 1.000000 0.000000
vn 1.000000 0.000000 0.000000
vn 1.000000 0.000000 0.000000
vn 1.000000 0.000000 0.000000
vn 1.000000 0.000000 0.000000
vn 0.000000 -1.000000 0.000000
vn 0.000000 -1.000000 0.000000
vn 0.000000 -1.000000 0.000000
vn 0.000000 -1.000000 0.000000
vn 0.000000 -0.873376 0.487047
vn 0.000000 -0.998857 0.047790
vn 0.000000 -0.998857 0.047790
vn 0.000000 -0.873376 0.487047
vn 0.000000 0.000000 1.000000
vn 0.000000 0.000000 1.000000
vn 0.000000 -0.003374 0.999994
vn 0.000000 -0.003374 0.999994
vn 0.000000 -0.239303 0.970945
vn 0.000000 -0.633321 0.773890
vn 0.000000 -0.633321 0.773890
vn 0.000000 -0.239303 0.970945
vn 0.000000 1.000000 0.000000
vn 0.000000 1.000000 0.000000
vn 0.000000 1.000000 0.000000
vn 0.000000 1.000000 0.000000
vn 0.000000 0.004406 -0.999990
vn 0.000000 0.000000 -1.000000
vn 0.000000 0.000000 -1.000000
vn 0.000000 0.004406 -0.999990
vn 0.000000 0.995747 -0.092126
vn 0.000000 0.877698 -0.479215
vn 0.000000 0.877698 -0.479215
vn 0.000000 0.995747 -0.092126
vn 0.000000 1.000000 0.000000
vn 0.000000 1.000000 0.000000
vn 0.000000 0.642139 -0.766588
vn 0.000000 0.278987 -0.960295
vn 0.000000 0.278987 -0.960295
vn 0.000000 0.642139 -0.766588
vn 1.000000 0.000000 0.000000
vn 1.000000 0.000000 0.000000
vn 1.000000 0.000000 0.000000
vn 1.000000 0.000000 0.000000
vn 0.000000 0.000000 1.000000
vn 0.000000 0.000000 1.000000
vn 0.000000 0.000000 1.000000
vn 0.000000 0.000000 1.000000
vn -1.000000 0.000000 0.000000
vn -1.000000 0.000000 0.000000
vn -1.000000 0.000000 0.000000
vn -1.000000 0.000000 0.000000
vn 1.000000 0.000000 0.000000
vn 1.000000 0.000000 0.000000
vn 1.000000 0.000000 0.000000
vn 1.000000 0.000000 0.000000
vn 1.000000 0.000001 0.000000
vn 1.000000 0.000001 0.000000
vn 1.000000 0.000001 0.000000
vn 1.000000 0.000001 0.000000
vn -1.000000 -0.000000 0.000000
vn -1.000000 -0.000000 0.000000
vn -1.000000 -0.000000 0.000000
vn -1.000000 -0.000000 0.000000
vn 1.000000 0.000000 0.000000
vn 1.000000 0.000000 0.000000
vn 1.000000 0.000000 0.000000
vn 1.000000 0.000000 0.000000
vn -1.000000 0.000000 0.000000
vn -1.000000 0.000000 0.000000
vn -1.000000 0.000000 0.000000
vn -1.000000 0.000000 0.000000
vn -1.000000 0.000000 0.000000
vn -1.000000 0.000000 0.000000
vn -1.000000 0.000000 0.000000
vn -1.000000 0.000000 0.000000
vn 1.000000 0.000000 0.000000
vn 1.000000 0.000000 0.000000
vn 1.000000 0.000000 0.000000
vn 1.000000 0.000000 0.000000
vn -1.000000 0.000001 0.000000
vn -1.000000 0.000001 0.000000
vn -1.000000 0.000001 0.000000
vn -1.000000 0.000001 0.000000
vn 1.000000 0.000000 0.000000
vn 1.000000 0.000000 0.000000
vn 1.000000 0.000000 0.000000
vn 1.000000 0.000000 0.000000
vn -1.000000 0.000000 0.000000
vn -1.000000 0.000000 0.000000
vn -1.000000 0.000000 0.000000
vn -1.000000 0.000000 0.000000
vn 1.000000 -0.000001 0.000000
vn 1.000000 -0.000001 0.000000
vn 1.000000 -0.000001 0.000000
vn 1.000000 -0.000001 0.000000
vn -1.000000 0.000000 0.000000
vn -1.000000 0.000000 0.000000
vn -1.000000 0.000000 0.000000
vn -1.000000 0.000000 0.000000
vn 0.000000 -1.000000 0.000000
vn 0.000000 -1.000000 0.000000
vn 0.000000 -1.000000 0.000000
vn 0.000000 -1.000000 0.000000
vn 0.000000 1.000000 0.000000
vn 0.000000 1.000000 0.000000
vn 0.000000 1.000000 0.000000
vn 0.000000 1.000000 0.000000
vn 0.000000 0.000000 -1.000000
vn 0.000000 0.000000 -1.000000
vn 0.000000 0.000000 -1.000000
vn 0.000000 0.000000 -1.000000
vn 0.000000 1.000000 0.000000
vn 0.000000 1.000000 0.000000
vn 0.000000 1.000000 0.000000
vn 0.000000 1.000000 0.000000
vn 0.000000 0.000000 1.000000
vn 0.000000 0.000000 1.000000
vn 0.000000 0.000000 1.000000
vn 0.000000 0.000000 1.000000
vn 0.000000 -1.000000 0.000000
vn 0.000000 -1.000000 0.000000
vn 0.000000 -1.000000 0.000000
vn 0.000000 -1.000000 0.000000
vn 0.000000 1.000000 0.000000
vn 0.000000 1.000000 0.000000
vn 0.000000 1.000000 0.000000
vn 0.000000 1.000000 0.000000
vn 0.000000 0.000000 -1.000000
vn 0.000000 0.000000 -1.000000
vn 0.000000 0.000000 -1.000000
vn 0.000000 0.000000 -1.000000
vn 0.000000 -1.000000 0.000000
vn 0.000000 -1.000000 0.000000
vn 0.000000 -1.000000 0.000000
vn 0.000000 -1.000000 0.000000
vn 0.000000 0.000000 1.000000
vn 0.000000 0.000000 1.000000
vn 0.000000 0.000000 1.000000
vn 0.000000 0.000000 1.000000
vn 0.000000 0.000000 -1.000000
vn 0.000000 0.000000 -1.000000
vn 0.000000 0.000000 -1.000000
vn 0.000000 0.000000 -1.000000
vn 0.000000 0.000000 1.000000
vn 0.000000 0.000000 1.000000
vn 0.000000 0.000000 1.000000
vn 0.000000 0.000000 1.000000
vn 0.000000 0.000000 1.000000
vn 0.000000 0.000000 1.000000
vn 0.000000 0.000000 1.000000
vn 0.000000 0.000000 1.000000
vn 0.000000 -1.000000 -0.000000
vn 0.000000 -1.000000 -0.000000
s off
g BusStop_Column_Right_low BusStop_Lowpoly
usemtl BusStop_HighLow_aiStandardSurface1SG
f 2/1/1 6/2/2 7/3/3 4/4/4
f 3/5/5 8/6/6 5/7/7 1/8/8
s 1
f 30/77/9 31/11/10 32/32/11 29/78/12
f 31/11/10 25/25/13 26/26/14 32/32/11
f 27/75/15 28/76/16 33/79/17 34/80/18
f 36/123/19 37/124/20 38/125/21 35/126/22
f 33/79/17 36/123/19 35/126/22 34/80/18
f 37/124/20 30/77/9 29/78/12 38/125/21
s off
f 39/81/23 17/82/24 18/83/25 40/84/26
s 3
f 19/85/27 12/86/28 11/87/29 20/88/30
f 15/89/31 14/90/32 13/91/33 16/92/34
f 17/82/35 15/89/31 16/92/34 18/83/36
f 23/93/37 22/94/38 21/95/39 24/96/40
f 22/94/38 19/85/27 20/88/30 21/95/39
f 14/90/32 23/93/37 24/96/40 13/91/33
s off
f 17/9/41 39/10/42 6/2/43 25/157/44
f 40/28/45 18/29/46 26/31/47 5/160/48
f 28/12/49 12/13/50 19/14/51 33/15/52
f 14/16/53 15/17/54 31/18/55 30/19/56
f 16/33/57 13/34/58 29/35/59 32/36/60
f 15/17/61 17/9/62 25/157/63 31/18/64
f 18/29/65 16/33/66 32/36/67 26/31/68
f 34/37/69 20/38/70 11/39/71 27/40/72
f 22/20/73 23/21/74 37/22/75 36/23/76
f 24/41/77 21/42/78 35/164/79 38/163/80
f 19/14/81 22/20/82 36/23/83 33/15/84
f 21/42/85 20/38/86 34/37/87 35/164/88
f 23/21/89 14/16/90 30/19/91 37/22/92
f 13/34/93 24/41/94 38/163/95 29/35/96
f 9/97/97 10/98/98 39/81/99 40/84/100
f 39/10/101 10/24/102 7/3/103 6/2/104
s 5
f 60/107/105 57/108/106 74/109/107 75/110/108
f 64/111/109 65/112/110 66/113/111 63/114/112
f 65/112/110 57/108/106 60/107/105 66/113/111
f 61/115/113 62/116/114 67/117/115 68/118/116
f 70/119/117 71/120/118 72/121/119 69/122/120
f 67/117/115 70/119/117 69/122/120 68/118/116
f 71/120/118 64/111/109 63/114/112 72/121/119
s off
f 76/99/121 73/100/122 49/101/123 50/102/124
s 7
f 51/103/125 44/104/126 43/105/127 52/106/128
f 47/129/129 46/130/130 45/131/131 48/132/132
f 49/101/133 47/129/129 48/132/132 50/102/134
f 55/133/135 54/134/136 53/135/137 56/136/138
f 54/134/136 51/103/125 52/106/128 53/135/137
f 46/130/130 55/133/135 56/136/138 45/131/131
s off
f 49/43/139 73/46/140 74/47/141 57/48/142
f 58/137/143 42/138/144 41/139/145 59/140/146
f 75/59/147 76/60/148 50/61/149 60/62/150
f 62/49/151 44/50/152 51/51/153 67/52/154
f 46/53/155 47/54/156 65/55/157 64/56/158
f 48/63/159 45/64/160 63/65/161 66/66/162
f 47/54/163 49/43/164 57/48/165 65/55/166
f 50/61/167 48/63/168 66/66/169 60/62/170
f 68/67/171 52/68/172 43/69/173 61/70/174
f 54/57/175 55/58/176 71/165/177 70/166/178
f 56/71/179 53/72/180 69/73/181 72/74/182
f 51/51/183 54/57/184 70/166/185 67/52/186
f 53/72/187 52/68/188 68/67/189 69/73/190
f 55/58/191 46/53/192 64/56/193 71/165/194
f 45/64/195 56/71/196 72/74/197 63/65/198
f 74/109/199 58/145/200 59/146/201 75/110/202
f 41/153/203 42/154/204 73/100/205 76/99/206
f 74/45/207 73/44/208 40/27/209 5/30/210
f 73/100/211 42/154/212 9/97/213 40/84/214
f 42/138/215 58/137/216 8/141/217 9/142/218
f 58/145/219 74/109/220 5/147/221 8/148/222
f 41/153/223 76/99/224 77/155/225 78/156/226
f 76/161/227 75/162/228 79/167/229 77/168/230
f 75/110/231 59/146/232 80/149/233 79/150/234
f 59/140/235 41/139/236 78/143/237 80/144/238
f 5/127/239 6/128/240 2/158/241 1/159/242
f 4/169/243 7/170/244 8/141/245 3/152/246
f 9/142/247 8/141/248 7/170/249 10/151/250
s 1
f 6/128/251 5/127/252 26/26/14 25/25/13
g default
v 173.100967 5.941500 25.250706
v 172.425507 5.941500 24.321009
v 171.332581 5.941500 23.965897
v 170.239655 5.941500 24.321009
v 169.564194 5.941500 25.250706
v 169.564194 5.941500 26.399874
v 170.239655 5.941500 27.329571
v 171.332581 5.941500 27.684683
v 172.425507 5.941500 27.329571
v 173.100967 5.941500 26.399874
v 173.100967 231.352371 25.250706
v 172.425507 231.352371 24.321009
v 171.332581 231.352371 23.965897
v 170.239655 231.352371 24.321009
v 169.564194 231.352371 25.250706
v 169.564194 231.352371 26.399874
v 170.239655 231.352371 27.329571
v 171.332581 231.352371 27.684683
v 172.425507 231.352371 27.329571
v 173.100967 231.352371 26.399874
vt 0.471484 0.012621
vt 0.472556 0.012621
vt 0.473629 0.012621
vt 0.474702 0.012621
vt 0.475774 0.012621
vt 0.476847 0.012622
vt 0.477919 0.012622
vt 0.478992 0.012622
vt 0.480064 0.012622
vt 0.481137 0.012622
vt 0.482210 0.012623
vt 0.471444 0.223006
vt 0.472516 0.223007
vt 0.473589 0.223007
vt 0.474662 0.223007
vt 0.475734 0.223007
vt 0.476807 0.223007
vt 0.477879 0.223008
vt 0.478952 0.223008
vt 0.480024 0.223008
vt 0.481097 0.223008
vt 0.482170 0.223008
vn 0.951057 0.000000 -0.309016
vn 0.951057 0.000000 -0.309016
vn 0.587785 0.000000 -0.809017
vn 0.587785 0.000000 -0.809017
vn 0.000000 0.000000 -1.000000
vn 0.000000 0.000000 -1.000000
vn -0.587785 0.000000 -0.809017
vn -0.587785 0.000000 -0.809017
vn -0.951057 0.000000 -0.309016
vn -0.951057 0.000000 -0.309016
vn -0.951057 0.000000 0.309016
vn -0.951057 0.000000 0.309016
vn -0.587786 0.000000 0.809017
vn -0.587786 0.000000 0.809017
vn 0.000000 0.000000 1.000000
vn 0.000000 0.000000 1.000000
vn 0.587786 0.000000 0.809017
vn 0.587786 0.000000 0.809017
vn 0.951057 0.000000 0.309016
vn 0.951057 0.000000 0.309016
s 1
g BusStop_Lowpoly BusStop_Cylinder_low
usemtl BusStop_HighLow_aiStandardSurface1SG
f 91/182/253 81/171/254 82/172/255 92/183/256
f 92/183/256 82/172/255 83/173/257 93/184/258
f 93/184/258 83/173/257 84/174/259 94/185/260
f 94/185/260 84/174/259 85/175/261 95/186/262
f 95/186/262 85/175/261 86/176/263 96/187/264
f 96/187/264 86/176/263 87/177/265 97/188/266
f 97/188/266 87/177/265 88/178/267 98/189/268
f 98/189/268 88/178/267 89/179/269 99/190/270
f 99/190/270 89/179/269 90/180/271 100/191/272
f 100/191/272 90/180/271 81/181/254 91/192/253
g default
v -190.762909 237.318695 86.859772
v 190.762878 237.318695 86.859764
v -190.762909 31.995338 -34.678833
v 190.762878 31.995338 -34.678833
v -190.762909 235.881134 -25.812195
v 190.762878 235.881134 -25.812195
v 190.762878 237.318695 -21.688553
v -190.762909 237.318695 -21.688553
v 190.762878 237.318695 -10.274231
v -190.762909 237.318695 -10.274231
v -190.762909 177.698090 -34.678833
v -190.762909 169.232330 -34.678833
v 190.762878 169.232330 -34.678833
v 190.762878 177.698090 -34.678833
v 190.762878 217.762695 -34.678833
v -190.762909 217.762695 -34.678833
v -190.762909 226.487686 -33.680710
v 190.762878 226.487686 -33.680710
v 190.762878 232.575806 -30.375305
v -190.762909 232.575806 -30.375305
v 190.762878 242.918701 -10.274231
v 190.762878 242.918701 86.859764
v 190.762878 169.232330 -40.278839
v 190.762878 31.995338 -40.278839
v 190.762878 242.918701 -22.636688
v 190.762878 240.898468 -28.431702
v 190.762878 177.698090 -40.278839
v 190.762878 218.081970 -40.278839
v 190.762878 236.365143 -34.690094
v 190.762878 228.204254 -39.120865
v -190.762909 169.232330 -40.278839
v -190.762909 31.995338 -40.278839
v -190.762909 177.698090 -40.278839
v -190.762909 218.081970 -40.278839
v -190.762909 228.204254 -39.120865
v -190.762909 236.365143 -34.690094
v -190.762909 240.898468 -28.431702
v -190.762909 242.918701 -22.636688
v -190.762909 242.918701 -10.274231
v -190.762909 242.918701 86.859772
vt 0.675540 0.321104
vt 0.675540 0.327260
vt 0.568760 0.327260
vt 0.568761 0.321104
vt 0.541938 0.246260
vt 0.535784 0.246260
vt 0.535786 0.095402
vt 0.541942 0.095402
vt 0.017442 0.323370
vt 0.556212 0.321104
vt 0.555168 0.327260
vt 0.548817 0.325039
vt 0.551692 0.319524
vt 0.541938 0.255566
vt 0.535783 0.255566
vt 0.541933 0.299607
vt 0.535777 0.299958
vt 0.546669 0.315890
vt 0.541924 0.320055
vt 0.537052 0.311085
vt 0.543032 0.309198
vt 0.017442 0.412951
vt 0.017441 0.500150
vt 0.017441 0.626715
vt 0.017442 0.424352
vt 0.017442 0.430012
vt 0.017441 0.492342
vt 0.017441 0.455099
vt 0.017442 0.437139
vt 0.017442 0.445703
vt 0.017443 0.149630
vt 0.017443 0.023065
vt 0.017443 0.157438
vt 0.017443 0.194387
vt 0.017443 0.202486
vt 0.017443 0.208875
vt 0.017442 0.214071
vt 0.017442 0.218098
vt 0.017442 0.228625
vt 0.017442 0.318206
vt 0.369299 0.318207
vt 0.369300 0.228627
vt 0.369300 0.218100
vt 0.541933 0.095404
vt 0.369300 0.214073
vt 0.369300 0.208876
vt 0.369300 0.202487
vt 0.369300 0.194388
vt 0.369300 0.157439
vt 0.535778 0.095404
vt 0.369300 0.149632
vt 0.369301 0.023067
vt 0.369298 0.626716
vt 0.369299 0.500151
vt 0.369299 0.492344
vt 0.369299 0.455100
vt 0.535782 0.246260
vt 0.369299 0.445704
vt 0.369299 0.437140
vt 0.369299 0.430013
vt 0.369299 0.424354
vt 0.369299 0.412952
vt 0.541939 0.246259
vt 0.369299 0.323372
vt 0.535783 0.255566
vt 0.541939 0.255566
vt 0.535784 0.299957
vt 0.541940 0.299606
vt 0.537057 0.311083
vt 0.543038 0.309197
vt 0.541929 0.320054
vt 0.546671 0.315888
vt 0.548808 0.325037
vt 0.551687 0.319522
vt 0.555178 0.327257
vt 0.556220 0.321102
vt 0.568767 0.327257
vt 0.568767 0.321101
vt 0.675540 0.327253
vt 0.675540 0.321098
vt 0.017443 0.017901
vt 0.369301 0.017902
vn 1.000000 0.000000 0.000000
vn 1.000000 0.000000 0.000000
vn 1.000000 0.000000 0.000000
vn 1.000000 0.000000 0.000000
vn 1.000000 0.000000 0.000000
vn 1.000000 0.000000 0.000000
vn 1.000000 0.000000 0.000000
vn 1.000000 0.000000 0.000000
vn 1.000000 0.000004 0.000000
vn 1.000000 0.000003 0.000000
vn 1.000000 0.000003 0.000000
vn 1.000000 0.000004 0.000000
vn 1.000000 0.000000 0.000000
vn 1.000000 0.000000 0.000000
vn 1.000000 0.000000 0.000000
vn 1.000000 0.000000 0.000000
vn 1.000000 0.000000 0.000000
vn 1.000000 0.000001 0.000000
vn 1.000000 0.000001 0.000000
vn 1.000000 -0.000000 0.000000
vn -1.000000 0.000000 0.000000
vn -1.000000 0.000000 0.000000
vn -1.000000 0.000000 0.000000
vn -1.000000 0.000000 0.000000
vn -1.000000 0.000000 0.000000
vn -1.000000 0.000000 0.000000
vn -1.000000 0.000000 0.000000
vn -1.000000 0.000000 0.000000
vn -1.000000 0.000000 0.000000
vn -1.000000 0.000000 0.000000
vn -1.000000 0.000000 0.000000
vn -1.000000 0.000000 0.000000
vn -1.000000 -0.000000 0.000000
vn -1.000000 -0.000000 0.000000
vn -1.000000 -0.000001 0.000000
vn -1.000000 -0.000001 0.000000
vn -1.000000 -0.000000 0.000000
vn -1.000000 -0.000000 0.000000
vn -1.000000 0.000000 0.000000
vn -1.000000 0.000000 0.000000
vn 0.000000 -1.000000 0.000000
vn 0.000000 -1.000000 0.000000
vn 0.000000 -1.000000 0.000000
vn 0.000000 -1.000000 0.000000
vn 0.000000 -0.995747 0.092126
vn 0.000000 -0.995747 0.092126
vn 0.000000 -0.877697 0.479216
vn 0.000000 -0.877697 0.479216
vn 0.000000 -0.642140 0.766588
vn 0.000000 -0.642140 0.766588
vn 0.000000 -0.278987 0.960295
vn 0.000000 -0.278987 0.960295
vn 0.000000 -0.020453 0.999791
vn 0.000000 -0.020453 0.999791
vn 0.000000 0.000000 1.000000
vn 0.000000 0.000000 1.000000
vn 0.000000 0.000000 1.000000
vn 0.000000 0.000000 1.000000
vn 0.000000 0.000000 1.000000
vn 0.000000 0.000000 1.000000
vn 0.000000 -0.040771 -0.999169
vn 0.000000 -0.040771 -0.999169
vn 0.000000 -1.000000 0.000000
vn 0.000000 -1.000000 0.000000
vn 0.000000 0.000000 -1.000000
vn 0.000000 0.000000 -1.000000
vn 0.000000 0.000000 -1.000000
vn 0.000000 0.000000 -1.000000
vn 0.000000 0.022921 -0.999737
vn 0.000000 0.022921 -0.999737
vn 0.000000 0.292325 -0.956319
vn 0.000000 0.292325 -0.956319
vn 0.000000 0.644111 -0.764932
vn 0.000000 0.644111 -0.764932
vn 0.000000 0.878539 -0.477671
vn 0.000000 0.878539 -0.477671
vn 0.000000 0.993867 -0.110580
vn 0.000000 0.993867 -0.110580
vn 0.000000 1.000000 0.000000
vn 0.000000 1.000000 0.000000
vn 0.000000 1.000000 0.000000
vn 0.000000 1.000000 0.000000
vn 0.000000 0.000000 1.000000
vn 0.000000 0.000000 1.000000
vn 0.000000 0.000000 1.000000
vn 0.000000 0.000000 1.000000
s 1
g BusStop_Lowpoly BusStop_Bus_Glass_low
usemtl Glass_BusSG
f 102/193/273 109/196/274 121/195/275 122/194/276
f 113/197/277 104/200/278 124/199/279 123/198/280
f 107/202/281 106/205/282 126/204/283 125/203/284
f 109/196/274 107/202/281 125/203/284 121/195/275
f 114/206/285 113/197/277 123/198/280 127/207/286
f 115/208/287 114/206/285 127/207/286 128/209/288
f 119/210/289 118/213/290 130/212/291 129/211/292
f 118/213/290 115/208/287 128/209/288 130/212/291
f 106/205/282 119/210/289 129/211/292 126/204/283
s 4
f 103/236/293 112/255/294 131/249/295 132/242/296
f 112/255/294 111/258/297 133/257/298 131/249/295
f 111/258/297 116/260/299 134/259/300 133/257/298
f 116/260/299 117/262/301 135/261/302 134/259/300
f 117/262/301 120/264/303 136/263/304 135/261/302
f 120/264/303 105/266/305 137/265/306 136/263/304
f 105/266/305 108/268/307 138/267/308 137/265/306
f 108/268/307 110/270/309 139/269/310 138/267/308
f 110/270/309 101/272/311 140/271/312 139/269/310
s 5
f 110/234/313 109/231/314 102/232/315 101/233/316
f 108/235/317 107/230/318 109/231/314 110/234/313
f 105/237/319 106/229/320 107/230/318 108/235/317
f 120/238/321 119/228/322 106/229/320 105/237/319
f 117/239/323 118/227/324 119/228/322 120/238/321
f 116/240/325 115/226/326 118/227/324 117/239/323
f 111/241/327 114/225/328 115/226/326 116/240/325
f 112/243/329 113/223/330 114/225/328 111/241/327
f 103/244/331 104/224/332 113/223/330 112/243/329
s 6
f 132/274/333 124/273/334 104/224/335 103/244/336
f 131/246/337 123/215/338 124/216/334 132/245/333
f 133/247/339 127/219/340 123/215/338 131/246/337
f 134/248/341 128/220/342 127/219/340 133/247/339
f 135/250/343 130/222/344 128/220/342 134/248/341
f 136/251/345 129/221/346 130/222/344 135/250/343
f 137/252/347 126/218/348 129/221/346 136/251/345
f 138/253/349 125/217/350 126/218/348 137/252/347
f 139/254/351 121/214/352 125/217/350 138/253/349
f 140/256/353 122/201/354 121/214/352 139/254/351
s off
f 102/232/355 122/201/356 140/256/357 101/233/358
g default
v 173.448975 225.618698 -10.274232
v 173.448975 225.618698 30.908722
v 173.448975 16.121727 -22.978836
v 173.448959 225.398468 -20.339298
v 173.448959 225.618698 -19.707630
v 173.448975 217.095627 -22.978836
v 173.448975 222.901276 -22.314674
v 173.448975 224.658783 -21.360481
v 169.216217 225.618698 30.908722
v 169.216217 225.618698 -10.274232
v 169.216217 225.618698 -19.707623
v 169.216217 225.398483 -20.339302
v 169.216202 224.658783 -21.360477
v 169.216202 222.901276 -22.314671
v 169.216217 217.095627 -22.978832
v 169.216217 16.121727 -22.978836
v 173.448975 16.121719 30.908722
v 169.216217 16.121719 30.908722
vt 0.068298 0.642519
vt 0.028033 0.642527
vt 0.541084 0.638295
vt 0.068297 0.638381
vt 0.283570 0.638342
vt 0.283571 0.642480
vt 0.078175 0.642518
vt 0.077521 0.642518
vt 0.077520 0.638379
vt 0.078174 0.638379
vt 0.087076 0.642516
vt 0.087076 0.638378
vt 0.081363 0.642517
vt 0.079408 0.642517
vt 0.079407 0.638379
vt 0.081362 0.638378
vt 0.336257 0.642471
vt 0.336257 0.638333
vt 0.569952 0.733445
vt 0.569952 0.689991
vt 0.569952 0.680037
vt 0.570185 0.679371
vt 0.570965 0.678293
vt 0.572820 0.677286
vt 0.578945 0.676586
vt 0.791004 0.676587
vt 0.791003 0.733446
vt 0.569947 0.733424
vt 0.790998 0.733466
vt 0.791009 0.676607
vt 0.578951 0.676566
vt 0.572825 0.677265
vt 0.570970 0.678272
vt 0.570189 0.679349
vt 0.569957 0.680016
vt 0.569955 0.689970
vt 0.541085 0.642434
vt 0.028032 0.638388
vn 0.000000 1.000000 0.000000
vn 0.000000 1.000000 0.000000
vn 0.000000 1.000000 0.000000
vn 0.000000 1.000000 0.000000
vn 0.000002 0.944255 -0.329214
vn 0.000002 0.944255 -0.329214
vn 0.000002 0.944255 -0.329214
vn 0.000002 0.944255 -0.329214
vn 0.000000 1.000000 0.000001
vn 0.000000 1.000000 0.000001
vn -0.000001 0.000000 -1.000000
vn -0.000001 0.000000 -1.000000
vn -0.000001 0.000000 -1.000000
vn -0.000001 0.000000 -1.000000
vn -0.000001 0.477139 -0.878828
vn -0.000001 0.477139 -0.878828
vn -0.000001 0.477139 -0.878828
vn -0.000001 0.477139 -0.878828
vn -0.000001 0.113658 -0.993520
vn -0.000001 0.113658 -0.993520
vn -0.000001 0.113658 -0.993520
vn -0.000001 0.113658 -0.993520
vn 0.000002 0.809860 -0.586623
vn 0.000002 0.809860 -0.586623
vn 0.000002 0.809860 -0.586623
vn 0.000002 0.809860 -0.586623
vn 0.000000 0.000000 1.000000
vn 0.000000 0.000000 1.000000
vn 0.000000 0.000000 1.000000
vn 0.000000 0.000000 1.000000
vn 0.000000 -1.000000 -0.000000
vn 0.000000 -1.000000 -0.000000
vn 0.000000 -1.000000 -0.000000
vn 0.000000 -1.000000 -0.000000
vn 1.000000 -0.000000 -0.000000
vn 1.000000 0.000000 -0.000001
vn 1.000000 0.000000 -0.000002
vn 1.000000 -0.000000 -0.000000
vn -1.000000 0.000000 0.000001
vn -1.000000 0.000000 0.000014
vn -1.000000 0.000000 0.000014
vn -1.000000 0.000000 0.000000
vn -1.000000 0.000000 0.000000
vn -1.000000 0.000000 0.000000
vn -1.000000 0.000000 0.000000
vn -1.000000 0.000000 0.000000
vn -1.000000 0.000000 0.000000
vn 1.000000 0.000000 0.000000
vn 1.000000 -0.000000 0.000000
vn 1.000000 -0.000000 0.000000
vn 1.000000 0.000000 0.000011
vn 1.000000 0.000000 0.000011
s 1
g BusStop_Lowpoly BusStop_Bus_Glass_Side_low
usemtl BusStop_HighLow_aiStandardSurface1SG
f 141/275/359 150/278/360 149/312/361 142/276/362
s off
f 144/281/363 152/284/364 151/283/365 145/282/366
s 1
f 145/282/367 151/283/368 150/278/360 141/275/359
s off
f 155/286/369 146/285/370 143/280/371 156/279/372
f 147/287/373 154/290/374 153/289/375 148/288/376
f 146/285/377 155/286/378 154/290/379 147/287/380
f 148/288/381 153/289/382 152/284/383 144/281/384
f 149/277/385 158/292/386 157/291/387 142/311/388
f 156/279/389 143/280/390 157/291/391 158/292/392
s 2
f 146/299/393 144/296/394 145/295/395 141/294/396
s 3
f 152/308/397 153/307/398 154/306/399 155/305/400
f 150/310/401 155/305/400 156/304/402 158/303/403
f 149/302/404 150/310/401 158/303/403
f 150/310/401 151/309/405 152/308/397 155/305/400
s 2
f 142/293/406 157/301/407 141/294/396
f 157/301/407 143/300/408 146/299/393 141/294/396
f 146/299/393 147/298/409 148/297/410 144/296/394
g default
v -160.356842 231.395508 33.406891
v 53.142433 231.395508 33.406891
v -160.356842 235.611038 33.406891
v 53.142433 235.611038 33.406891
v -160.356842 235.611038 2.640542
v 53.142433 235.611038 2.640542
v -160.356842 231.395508 2.640542
v 53.142433 231.395508 2.640542
v -157.956848 231.395508 5.040542
v 50.742439 231.395508 5.040542
v 50.742439 231.395508 31.006897
v -157.956848 231.395508 31.006897
v -157.956848 234.395508 5.040542
v 50.742439 234.395508 5.040542
v 50.742439 234.395508 31.006897
v -157.956848 234.395508 31.006897
v -159.208466 234.395508 4.884817
v 51.994053 234.395508 4.884817
v 51.994053 234.395508 31.162621
v -159.208466 234.395508 31.162621
vt 0.287479 0.652606
vt 0.514958 0.652628
vt 0.514957 0.657120
vt 0.287479 0.657098
vt 0.254698 0.657094
vt 0.547738 0.657123
vt 0.454082 0.111711
vt 0.454082 0.346398
vt 0.451444 0.343760
vt 0.451444 0.114349
vt 0.547739 0.652631
vt 0.254698 0.652603
vt 0.568641 0.807987
vt 0.793915 0.807987
vt 0.977603 0.949563
vt 0.977376 0.727192
vt 0.980572 0.727188
vt 0.980799 0.949560
vt 0.791613 0.768262
vt 0.977347 0.699524
vt 0.980544 0.699521
vt 0.977631 0.977230
vt 0.980828 0.977227
vt 0.791575 0.740535
vt 0.568724 0.740844
vt 0.568763 0.768571
vt 0.568641 0.775524
vt 0.793915 0.775524
vt 0.027219 0.657072
vt 0.027219 0.652581
vt 0.420263 0.346398
vt 0.422901 0.343760
vt 0.420263 0.111711
vt 0.422901 0.114349
vt 0.977120 0.477153
vt 0.980316 0.477149
vn 0.000000 0.000000 1.000000
vn 0.000000 0.000000 1.000000
vn 0.000000 0.000000 1.000000
vn 0.000000 0.000000 1.000000
vn 0.000000 1.000000 0.000000
vn 0.000000 1.000000 0.000000
vn 0.000000 1.000000 0.000000
vn 0.000000 1.000000 0.000000
vn 0.000000 0.000000 -1.000000
vn 0.000000 0.000000 -1.000000
vn 0.000000 0.000000 -1.000000
vn 0.000000 0.000000 -1.000000
vn 0.000000 -1.000000 0.000000
vn 0.000000 -1.000000 0.000000
vn 0.000000 -1.000000 0.000000
vn 0.000000 -1.000000 0.000000
vn 1.000000 0.000000 0.000000
vn 1.000000 0.000000 0.000000
vn 1.000000 0.000000 0.000000
vn 1.000000 0.000000 0.000000
vn -1.000000 0.000000 0.000000
vn -1.000000 0.000000 0.000000
vn -1.000000 0.000000 0.000000
vn -1.000000 0.000000 0.000000
vn 0.000000 -1.000000 0.000000
vn 0.000000 -1.000000 0.000000
vn 0.000000 -1.000000 0.000000
vn 0.000000 -1.000000 0.000000
vn 0.000000 -1.000000 -0.000000
vn 0.000000 -1.000000 -0.000000
vn 0.000000 -1.000000 -0.000000
vn 0.000000 -1.000000 -0.000000
vn 0.000000 0.000000 1.000000
vn 0.000000 0.000000 1.000000
vn 0.000000 0.000000 1.000000
vn 0.000000 0.000000 1.000000
vn -1.000000 0.000000 0.000000
vn -1.000000 0.000000 0.000000
vn -1.000000 0.000000 0.000000
vn -1.000000 0.000000 0.000000
vn 0.000000 0.000000 -1.000000
vn 0.000000 0.000000 -1.000000
vn 0.000000 0.000000 -1.000000
vn 0.000000 0.000000 -1.000000
vn 1.000000 0.000000 0.000000
vn 1.000000 0.000000 0.000000
vn 1.000000 0.000000 0.000000
vn 1.000000 0.000000 0.000000
s off
g BusStop_Lowpoly BusStop_Light_low
usemtl BusStop_HighLow_aiStandardSurface1SG
f 159/313/411 160/314/412 162/315/413 161/316/414
f 161/339/415 162/340/416 164/326/417 163/325/418
f 163/317/419 164/341/420 166/342/421 165/324/422
f 175/331/423 176/338/424 177/337/425 178/336/426
f 160/314/427 166/323/428 164/318/429 162/315/430
f 165/324/431 159/313/432 161/316/433 163/317/434
s 1
f 165/319/435 166/320/436 168/321/437 167/322/438
f 166/320/436 160/343/439 169/344/440 168/321/437
f 160/343/439 159/345/441 170/346/442 169/344/440
f 159/345/441 165/319/435 167/322/438 170/346/442
s off
f 167/327/443 168/328/444 172/329/445 171/330/446
f 168/328/447 169/332/448 173/333/449 172/329/450
f 169/332/451 170/347/452 174/348/453 173/333/454
f 170/334/455 167/327/456 171/330/457 174/335/458
g default
v 168.464828 139.339554 26.692654
v 174.200348 139.339554 26.692654
v 168.464828 206.900070 26.692654
v 174.200348 206.900070 26.692654
v 168.464828 206.900070 -18.762770
v 174.200348 206.900070 -18.762770
v 168.464828 139.339554 -18.762770
v 174.200348 139.339554 -18.762770
vt 0.874672 0.205431
vt 0.924638 0.205431
vt 0.924638 0.279696
vt 0.874672 0.279696
vt 0.818401 0.205431
vt 0.868368 0.205431
vt 0.868367 0.279696
vt 0.818401 0.279696
vt 0.874672 0.286001
vt 0.924638 0.286001
vt 0.924638 0.199126
vt 0.874672 0.199126
vt 0.930943 0.279696
vt 0.930943 0.205431
vn -0.988633 -0.083930 0.124745
vn 0.988633 -0.083930 0.124745
vn 0.988633 0.083930 0.124745
vn -0.988633 0.083930 0.124745
vn 0.988633 0.083930 -0.124745
vn -0.988633 0.083930 -0.124745
vn 0.988633 -0.083930 -0.124745
vn -0.988633 -0.083930 -0.124745
s 1
g BusStop_Lowpoly BusStop_Poster_low
usemtl BusStop_HighLow_aiStandardSurface1SG
f 179/354/459 180/349/460 182/352/461 181/355/462
f 181/357/462 182/352/461 184/351/463 183/358/464
f 183/361/464 184/351/463 186/350/465 185/362/466
f 185/359/466 186/350/465 180/349/460 179/360/459
f 180/349/460 186/350/465 184/351/463 182/352/461
f 185/353/466 179/354/459 181/355/462 183/356/464
g default
v 160.082581 0.000000 -41.666210
v 182.582581 0.000000 -41.666210
v 160.082581 9.744325 -35.042210
v 182.582581 9.744325 -35.042210
v 160.082581 9.744325 55.389790
v 182.582581 9.744325 55.389786
v 160.082581 0.000000 62.013790
v 182.582581 0.000000 62.013786
vt 0.942139 0.170718
vt 0.931440 0.051077
vt 0.895995 0.056744
vt 0.906695 0.176385
vt 0.906696 0.163433
vt 0.931429 0.163436
vt 0.906706 0.064026
vt 0.931439 0.064029
vt 0.942151 0.056749
vt 0.906707 0.051075
vt 0.931427 0.176388
vt 0.895984 0.170713
vt 0.931439 0.064029
vt 0.931439 0.064029
vt 0.931429 0.163436
vt 0.931429 0.163436
vt 0.906706 0.064026
vt 0.906706 0.064026
vt 0.906696 0.163433
vt 0.906696 0.163433
vn 0.000000 0.562186 -0.827011
vn 0.000000 0.562186 -0.827011
vn 0.000000 0.562186 -0.827011
vn 0.000000 0.562186 -0.827011
vn -1.000000 0.000000 0.000000
vn -1.000000 0.000000 0.000000
vn -1.000000 0.000000 0.000000
vn -1.000000 0.000000 0.000000
vn 0.000000 1.000000 0.000000
vn 0.000000 1.000000 0.000000
vn 0.000000 1.000000 0.000000
vn 0.000000 1.000000 0.000000
vn 1.000000 -0.000001 0.000000
vn 1.000000 -0.000001 0.000000
vn 1.000000 -0.000001 0.000000
vn 1.000000 -0.000001 0.000000
vn 0.000000 0.562186 0.827011
vn 0.000000 0.562186 0.827011
vn 0.000000 0.562186 0.827011
vn 0.000000 0.562186 0.827011
s off
g BusStop_Lowpoly BusStop_Base_low
usemtl BusStop_HighLow_aiStandardSurface1SG
f 188/373/467 187/366/468 189/381/469 190/377/470
f 187/374/471 193/365/472 191/380/473 189/367/474
f 189/382/475 191/369/476 192/376/477 190/368/478
f 190/378/479 192/370/480 194/371/481 188/363/482
f 191/379/483 193/372/484 194/364/485 192/375/486
g default
v 168.464828 105.929985 26.692654
v 174.200333 105.929985 26.692654
v 168.464828 136.221985 26.692654
v 174.200333 136.221985 26.692654
v 168.464828 136.221985 -18.762770
v 174.200333 136.221985 -18.762770
v 168.464828 105.929985 -18.762770
v 174.200333 105.929985 -18.762770
vt 0.854409 0.112198
vt 0.854413 0.162164
vt 0.821115 0.162166
vt 0.821111 0.112200
vt 0.854405 0.055927
vt 0.854409 0.105893
vt 0.821111 0.105895
vt 0.821107 0.055929
vt 0.814806 0.112200
vt 0.814810 0.162167
vt 0.860717 0.162163
vt 0.860714 0.112197
vt 0.821115 0.168471
vt 0.854413 0.168469
vn -0.975078 -0.184622 0.123034
vn 0.975078 -0.184622 0.123034
vn 0.975078 0.184622 0.123034
vn -0.975078 0.184622 0.123034
vn 0.975078 0.184622 -0.123034
vn -0.975078 0.184622 -0.123034
vn 0.975078 -0.184622 -0.123034
vn -0.975078 -0.184622 -0.123034
s 1
g BusStop_Lowpoly BusStop_Bus_card_low
usemtl BusStop_HighLow_aiStandardSurface1SG
f 195/388/487 196/383/488 198/386/489 197/389/490
f 197/391/490 198/386/489 200/385/491 199/392/492
f 199/395/492 200/385/491 202/384/493 201/396/494
f 201/393/494 202/384/493 196/383/488 195/394/487
f 196/383/488 202/384/493 200/385/491 198/386/489
f 201/387/494 195/388/487 197/389/490 199/390/492
g default
v -162.825795 -0.056458 45.649942
v -182.450658 -0.056458 45.649942
v -162.825795 -0.056458 54.149942
v -182.450658 -0.056458 54.149942
v -162.825810 228.818695 45.649942
v -182.450658 228.818695 45.649942
v -182.450658 228.818695 54.149942
v -162.825810 228.818695 54.149942
v -162.825795 237.318695 54.149942
v -182.450658 237.318695 54.149942
v -162.825795 -0.056458 -33.902685
v -182.450658 -0.056458 -33.902685
v -162.825795 235.881134 -25.036039
v -182.450658 235.881134 -25.036039
v -182.450658 237.318695 -20.912397
v -162.825795 237.318695 -20.912397
v -182.450658 237.318695 -9.498080
v -162.825795 237.318695 -9.498080
v -182.450658 217.762695 -33.902685
v -162.825795 217.762695 -33.902685
v -162.825795 226.487686 -32.904551
v -182.450658 226.487686 -32.904551
v -182.450658 232.575806 -29.599157
v -162.825795 232.575806 -29.599157
v -182.450658 228.818695 -9.498080
v -162.825795 228.818695 -9.498080
v -162.825795 -0.056458 -25.402685
v -182.450658 -0.056458 -25.402685
v -162.825795 228.265533 -21.060003
v -182.450658 228.265533 -21.060003
v -182.450658 228.818695 -19.473261
v -162.825795 228.818695 -19.473261
v -182.450658 217.278076 -25.402685
v -162.825795 217.278076 -25.402685
v -162.825795 223.882172 -24.647177
v -182.450658 223.882172 -24.647177
v -182.450658 226.824127 -23.049925
v -162.825795 226.824127 -23.049925
v -182.450658 237.318695 45.649942
v -162.825795 237.318695 45.649942
vt 0.571195 0.042566
vt 0.571195 0.294152
vt 0.561852 0.294152
vt 0.561852 0.042566
vt 0.805406 0.658555
vt 0.561546 0.658555
vt 0.561546 0.649499
vt 0.805406 0.649499
vt 0.631816 0.303496
vt 0.571195 0.303496
vt 0.961772 0.688951
vt 0.649298 0.042562
vt 0.658642 0.042562
vt 0.658642 0.281999
vt 0.649299 0.281466
vt 0.648896 0.301916
vt 0.644363 0.303496
vt 0.642781 0.294152
vt 0.644525 0.293544
vt 0.657545 0.291590
vt 0.653912 0.298282
vt 0.646713 0.291960
vt 0.648468 0.288726
vt 0.561852 0.303496
vt 0.961769 0.698704
vt 0.942582 0.698699
vt 0.858353 0.312862
vt 0.797731 0.312862
vt 0.797731 0.303519
vt 0.942584 0.688947
vt 0.785184 0.312862
vt 0.780650 0.311282
vt 0.785021 0.302911
vt 0.786766 0.303519
vt 0.780248 0.290832
vt 0.770904 0.291365
vt 0.770904 0.051927
vt 0.780248 0.051927
vt 0.775635 0.307648
vt 0.772002 0.300956
vt 0.942598 0.462641
vt 0.961785 0.462642
vt 0.961772 0.687307
vt 0.942584 0.687305
vt 0.961773 0.675132
vt 0.942585 0.675131
vt 0.382655 0.358762
vt 0.382663 0.298142
vt 0.404235 0.298145
vt 0.404227 0.358765
vt 0.382668 0.257332
vt 0.382701 0.017898
vt 0.404274 0.017900
vt 0.404241 0.257335
vt 0.382665 0.285595
vt 0.382665 0.280794
vt 0.404238 0.280797
vt 0.404237 0.285598
vt 0.382666 0.274600
vt 0.382667 0.266986
vt 0.404240 0.266989
vt 0.404239 0.274603
vt 0.404226 0.368109
vt 0.382653 0.368106
vt 0.961772 0.681631
vt 0.961772 0.684904
vt 0.942585 0.684903
vt 0.942585 0.681630
vt 0.942567 0.752618
vt 0.961754 0.752623
vt 0.955909 0.340308
vt 0.955909 0.349652
vt 0.977481 0.349652
vt 0.955909 0.088720
vt 0.631816 0.294152
vt 0.961693 0.976396
vt 0.942505 0.976391
vt 0.858353 0.303518
vt 0.782834 0.301326
vt 0.781078 0.298092
vt 0.977481 0.088720
vt 0.977481 0.340308
vn -1.000000 0.000000 0.000000
vn -1.000000 0.000000 0.000000
vn -1.000000 0.000000 0.000000
vn -1.000000 0.000000 0.000000
vn 1.000000 0.000000 0.000000
vn 1.000000 0.000000 0.000000
vn 1.000000 0.000000 0.000000
vn 1.000000 0.000000 0.000000
vn 0.000000 -0.873376 0.487047
vn 0.000000 -0.998857 0.047790
vn 0.000000 -0.998857 0.047790
vn 0.000000 -0.873376 0.487047
vn -0.000000 -1.000000 -0.000000
vn -0.000000 -1.000000 -0.000000
vn 0.000000 0.000000 1.000000
vn 0.000000 0.000000 1.000000
vn 0.000000 -0.003374 0.999994
vn 0.000000 -0.003374 0.999994
vn 0.000000 -0.239303 0.970945
vn 0.000000 -0.633321 0.773890
vn 0.000000 -0.633321 0.773890
vn 0.000000 -0.239303 0.970945
vn 0.000000 1.000000 0.000000
vn 0.000000 1.000000 0.000000
vn 0.000000 1.000000 0.000000
vn 0.000000 1.000000 0.000000
vn 0.000000 0.004406 -0.999990
vn 0.000000 0.000000 -1.000000
vn 0.000000 0.000000 -1.000000
vn 0.000000 0.004406 -0.999990
vn 0.000000 0.995747 -0.092126
vn 0.000000 0.877698 -0.479215
vn 0.000000 0.877698 -0.479215
vn 0.000000 0.995747 -0.092126
vn 0.000000 1.000000 0.000000
vn 0.000000 1.000000 0.000000
vn 0.000000 0.642139 -0.766588
vn 0.000000 0.278987 -0.960295
vn 0.000000 0.278987 -0.960295
vn 0.000000 0.642139 -0.766588
vn -1.000000 0.000000 0.000000
vn -1.000000 0.000000 0.000000
vn -1.000000 0.000000 0.000000
vn -1.000000 0.000000 0.000000
vn 1.000000 0.000000 0.000000
vn 1.000000 0.000000 0.000000
vn 1.000000 0.000000 0.000000
vn 1.000000 0.000000 0.000000
vn -1.000000 0.000000 0.000000
vn -1.000000 0.000000 0.000000
vn -1.000000 0.000000 0.000000
vn -1.000000 0.000000 0.000000
vn -1.000000 -0.000002 0.000000
vn -1.000000 -0.000002 0.000000
vn -1.000000 -0.000002 0.000000
vn -1.000000 -0.000002 0.000000
vn 1.000000 -0.000001 0.000000
vn 1.000000 -0.000001 0.000000
vn 1.000000 -0.000001 0.000000
vn 1.000000 -0.000001 0.000000
vn -1.000000 0.000000 0.000000
vn -1.000000 0.000000 0.000000
vn -1.000000 0.000000 0.000000
vn -1.000000 0.000000 0.000000
vn 1.000000 0.000000 0.000000
vn 1.000000 0.000000 0.000000
vn 1.000000 0.000000 0.000000
vn 1.000000 0.000000 0.000000
vn 1.000000 0.000000 0.000000
vn 1.000000 0.000000 0.000000
vn 1.000000 0.000000 0.000000
vn 1.000000 0.000000 0.000000
vn -1.000000 0.000000 0.000000
vn -1.000000 0.000000 0.000000
vn -1.000000 0.000000 0.000000
vn -1.000000 0.000000 0.000000
vn 1.000000 0.000000 0.000000
vn 1.000000 0.000000 0.000000
vn 1.000000 0.000000 0.000000
vn 1.000000 0.000000 0.000000
vn -1.000000 0.000000 0.000000
vn -1.000000 0.000000 0.000000
vn -1.000000 0.000000 0.000000
vn -1.000000 0.000000 0.000000
vn 1.000000 0.000000 0.000000
vn 1.000000 0.000000 0.000000
vn 1.000000 0.000000 0.000000
vn 1.000000 0.000000 0.000000
vn -1.000000 0.000000 0.000000
vn -1.000000 0.000000 0.000000
vn -1.000000 0.000000 0.000000
vn -1.000000 0.000000 0.000000
vn 1.000000 0.000000 0.000000
vn 1.000000 0.000000 0.000000
vn 1.000000 0.000000 0.000000
vn 1.000000 0.000000 0.000000
vn 0.000000 1.000000 0.000000
vn 0.000000 1.000000 0.000000
vn 0.000000 1.000000 0.000000
vn 0.000000 1.000000 0.000000
vn -1.000000 0.000000 0.000000
vn -1.000000 0.000000 0.000000
vn -1.000000 0.000000 0.000000
vn -1.000000 0.000000 0.000000
vn 0.000000 0.000000 -1.000000
vn 0.000000 0.000000 -1.000000
vn 0.000000 0.000000 -1.000000
vn 0.000000 0.000000 -1.000000
vn 0.000000 0.000000 1.000000
vn 0.000000 0.000000 1.000000
vn 0.000000 0.000000 1.000000
vn 0.000000 0.000000 1.000000
vn 0.000000 0.000000 1.000000
vn 0.000000 0.000000 1.000000
vn 0.000000 0.000000 1.000000
vn 0.000000 0.000000 1.000000
vn -0.000000 -1.000000 -0.000000
vn -0.000000 -1.000000 -0.000000
s off
g BusStop_Lowpoly BusStop_Column_Right_low1 group1
usemtl BusStop_HighLow_aiStandardSurface1SG
f 204/397/495 208/398/496 209/399/497 206/400/498
f 205/401/499 210/402/500 207/403/501 203/404/502
s 1
f 232/439/503 233/407/504 234/426/505 231/440/506
f 233/407/504 227/421/507 228/422/508 234/426/505
f 229/437/509 230/438/510 235/441/511 236/442/512
f 238/461/513 239/462/514 240/463/515 237/464/516
f 235/441/511 238/461/513 237/464/516 236/442/512
f 239/462/514 232/439/503 231/440/506 240/463/515
s off
f 241/443/517 219/444/518 220/445/519 242/446/520
s 3
f 221/447/521 214/448/522 213/449/523 222/450/524
f 217/451/525 216/452/526 215/453/527 218/454/528
f 219/444/529 217/451/525 218/454/528 220/445/530
f 225/455/531 224/456/532 223/457/533 226/458/534
f 224/456/532 221/447/521 222/450/524 223/457/533
f 216/452/526 225/455/531 226/458/534 215/453/527
s off
f 219/405/535 241/406/536 208/398/537 227/471/538
f 242/423/539 220/424/540 228/425/541 207/474/542
f 230/408/543 214/409/544 221/410/545 235/411/546
f 216/412/547 217/413/548 233/414/549 232/415/550
f 218/427/551 215/428/552 231/429/553 234/430/554
f 217/413/555 219/405/556 227/471/557 233/414/558
f 220/424/559 218/427/560 234/430/561 228/425/562
f 236/431/563 222/432/564 213/433/565 229/434/566
f 224/416/567 225/417/568 239/418/569 238/419/570
f 226/435/571 223/436/572 237/476/573 240/475/574
f 221/410/575 224/416/576 238/419/577 235/411/578
f 223/436/579 222/432/580 236/431/581 237/476/582
f 225/417/583 216/412/584 232/415/585 239/418/586
f 215/428/587 226/435/588 240/475/589 231/429/590
f 211/459/591 212/460/592 241/443/593 242/446/594
f 241/406/595 212/420/596 209/399/597 208/398/598
f 207/465/599 208/466/600 204/472/601 203/473/602
f 206/477/603 209/478/604 210/467/605 205/470/606
f 211/468/607 210/467/608 209/478/609 212/469/610
s 1
f 208/466/611 207/465/612 228/422/508 227/421/507
g default
v -173.100967 5.941500 26.026857
v -172.425507 5.941500 25.097160
v -171.332581 5.941500 24.742048
v -170.239655 5.941500 25.097160
v -169.564194 5.941500 26.026857
v -169.564194 5.941500 27.176025
v -170.239655 5.941500 28.105722
v -171.332581 5.941500 28.460834
v -172.425507 5.941500 28.105722
v -173.100967 5.941500 27.176025
v -173.100967 231.352371 26.026857
v -172.425507 231.352371 25.097160
v -171.332581 231.352371 24.742048
v -170.239655 231.352371 25.097160
v -169.564194 231.352371 26.026857
v -169.564194 231.352371 27.176025
v -170.239655 231.352371 28.105722
v -171.332581 231.352371 28.460834
v -172.425507 231.352371 28.105722
v -173.100967 231.352371 27.176025
vt 0.471484 0.012621
vt 0.472556 0.012621
vt 0.473629 0.012621
vt 0.474702 0.012621
vt 0.475774 0.012621
vt 0.476847 0.012622
vt 0.477919 0.012622
vt 0.478992 0.012622
vt 0.480064 0.012622
vt 0.481137 0.012622
vt 0.482210 0.012623
vt 0.471444 0.223006
vt 0.472516 0.223007
vt 0.473589 0.223007
vt 0.474662 0.223007
vt 0.475734 0.223007
vt 0.476807 0.223007
vt 0.477879 0.223008
vt 0.478952 0.223008
vt 0.480024 0.223008
vt 0.481097 0.223008
vt 0.482170 0.223008
vn -0.951057 0.000000 -0.309016
vn -0.951057 0.000000 -0.309016
vn -0.587785 0.000000 -0.809017
vn -0.587785 0.000000 -0.809017
vn 0.000000 0.000000 -1.000000
vn 0.000000 0.000000 -1.000000
vn 0.587785 0.000000 -0.809017
vn 0.587785 0.000000 -0.809017
vn 0.951057 0.000000 -0.309016
vn 0.951057 0.000000 -0.309016
vn 0.951057 0.000000 0.309016
vn 0.951057 0.000000 0.309016
vn 0.587786 0.000000 0.809017
vn 0.587786 0.000000 0.809017
vn 0.000000 0.000000 1.000000
vn 0.000000 0.000000 1.000000
vn -0.587786 0.000000 0.809017
vn -0.587786 0.000000 0.809017
vn -0.951057 0.000000 0.309016
vn -0.951057 0.000000 0.309016
s 1
g BusStop_Lowpoly group1 BusStop_Cylinder_low1
usemtl BusStop_HighLow_aiStandardSurface1SG
f 253/490/613 243/479/614 244/480/615 254/491/616
f 254/491/616 244/480/615 245/481/617 255/492/618
f 255/492/618 245/481/617 246/482/619 256/493/620
f 256/493/620 246/482/619 247/483/621 257/494/622
f 257/494/622 247/483/621 248/484/623 258/495/624
f 258/495/624 248/484/623 249/485/625 259/496/626
f 259/496/626 249/485/625 250/486/627 260/497/628
f 260/497/628 250/486/627 251/487/629 261/498/630
f 261/498/630 251/487/629 252/488/631 262/499/632
f 262/499/632 252/488/631 243/489/614 253/500/613
g default
v -168.464828 105.929985 27.468805
v -174.200333 105.929985 27.468805
v -168.464828 136.221985 27.468805
v -174.200333 136.221985 27.468805
v -168.464828 136.221985 -17.986618
v -174.200333 136.221985 -17.986618
v -168.464828 105.929985 -17.986618
v -174.200333 105.929985 -17.986618
vt 0.854409 0.112198
vt 0.854413 0.055929
vt 0.821115 0.055927
vt 0.821111 0.105893
vt 0.854405 0.162166
vt 0.854409 0.112200
vt 0.821111 0.105895
vt 0.821107 0.162164
vt 0.814806 0.112200
vt 0.814810 0.162167
vt 0.860717 0.162163
vt 0.860714 0.112197
vt 0.821115 0.168471
vt 0.854413 0.168469
vt 0.854413 0.162164
vt 0.854413 0.162164
vt 0.854409 0.112198
vt 0.854409 0.105895
vt 0.854409 0.105893
vt 0.821115 0.162166
vt 0.821115 0.162166
vt 0.821111 0.112200
vt 0.821111 0.112200
vt 0.821111 0.112198
vn 0.975078 -0.184622 0.123034
vn -0.975078 -0.184622 0.123034
vn -0.975078 0.184622 0.123034
vn 0.975078 0.184622 0.123034
vn -0.975078 0.184622 -0.123034
vn 0.975078 0.184622 -0.123034
vn -0.975078 -0.184622 -0.123034
vn 0.975078 -0.184622 -0.123034
s 1
g BusStop_Lowpoly group1 BusStop_Bus_card_low1
usemtl BusStop_HighLow_aiStandardSurface1SG
f 263/519/633 264/517/634 266/522/635 265/507/636
f 265/509/636 266/523/635 268/520/637 267/510/638
f 267/513/638 268/521/637 270/515/639 269/514/640
f 269/511/640 270/516/639 264/501/634 263/512/633
f 264/518/634 270/502/639 268/503/637 266/504/635
f 269/505/640 263/506/633 265/524/636 267/508/638
g default
v -168.464828 139.339554 27.468805
v -174.200348 139.339554 27.468805
v -168.464828 206.900070 27.468805
v -174.200348 206.900070 27.468805
v -168.464828 206.900070 -17.986618
v -174.200348 206.900070 -17.986618
v -168.464828 139.339554 -17.986618
v -174.200348 139.339554 -17.986618
vt 0.874672 0.205431
vt 0.818401 0.205431
vt 0.818401 0.279696
vt 0.868367 0.279696
vt 0.924638 0.205431
vt 0.874672 0.205431
vt 0.868367 0.279696
vt 0.924638 0.279696
vt 0.874672 0.286001
vt 0.924638 0.286001
vt 0.924638 0.199126
vt 0.874672 0.199126
vt 0.930943 0.279696
vt 0.930943 0.205431
vt 0.924638 0.205431
vt 0.924638 0.205431
vt 0.874672 0.205431
vt 0.868367 0.205431
vt 0.868368 0.205431
vt 0.924638 0.279696
vt 0.924638 0.279696
vt 0.874672 0.279696
vt 0.874672 0.279696
vt 0.874672 0.279696
vn 0.988633 -0.083930 0.124745
vn -0.988633 -0.083930 0.124745
vn -0.988633 0.083930 0.124745
vn 0.988633 0.083930 0.124745
vn -0.988633 0.083930 -0.124745
vn 0.988633 0.083930 -0.124745
vn -0.988633 -0.083930 -0.124745
vn 0.988633 -0.083930 -0.124745
s 1
g BusStop_Lowpoly group1 BusStop_Poster_low1
usemtl BusStop_HighLow_aiStandardSurface1SG
f 271/543/641 272/541/642 274/546/643 273/531/644
f 273/533/644 274/547/643 276/544/645 275/534/646
f 275/537/646 276/545/645 278/539/647 277/538/648
f 277/535/648 278/540/647 272/525/642 271/536/641
f 272/542/642 278/526/647 276/527/645 274/528/643
f 277/529/648 271/530/641 273/548/644 275/532/646
g default
v -173.448975 225.618698 -9.498080
v -173.448975 225.618698 31.684874
v -173.448975 16.121727 -22.202684
v -173.448959 225.398468 -19.563147
v -173.448959 225.618698 -18.931479
v -173.448975 217.095627 -22.202684
v -173.448975 222.901276 -21.538523
v -173.448975 224.658783 -20.584330
v -169.216217 225.618698 31.684874
v -169.216217 225.618698 -9.498080
v -169.216217 225.618698 -18.931471
v -169.216217 225.398483 -19.563150
v -169.216202 224.658783 -20.584326
v -169.216202 222.901276 -21.538519
v -169.216217 217.095627 -22.202681
v -169.216217 16.121727 -22.202684
v -173.448975 16.121719 31.684874
v -169.216217 16.121719 31.684874
vt 0.068298 0.642519
vt 0.028033 0.642527
vt 0.541084 0.638295
vt 0.068297 0.638381
vt 0.283570 0.638342
vt 0.283571 0.642480
vt 0.078175 0.642518
vt 0.077521 0.642518
vt 0.077520 0.638379
vt 0.078174 0.638379
vt 0.087076 0.642516
vt 0.087076 0.638378
vt 0.081363 0.642517
vt 0.079408 0.642517
vt 0.079407 0.638379
vt 0.081362 0.638378
vt 0.336257 0.642471
vt 0.336257 0.638333
vt 0.569952 0.733445
vt 0.569952 0.689991
vt 0.569952 0.680037
vt 0.570185 0.679371
vt 0.570965 0.678293
vt 0.572820 0.677286
vt 0.578945 0.676586
vt 0.791004 0.676587
vt 0.791003 0.733446
vt 0.569947 0.733424
vt 0.790998 0.733466
vt 0.791009 0.676607
vt 0.578951 0.676566
vt 0.572825 0.677265
vt 0.570970 0.678272
vt 0.570189 0.679349
vt 0.569957 0.680016
vt 0.569955 0.689970
vt 0.541085 0.642434
vt 0.028032 0.638388
vn 0.000000 1.000000 0.000000
vn 0.000000 1.000000 0.000000
vn 0.000000 1.000000 0.000000
vn 0.000000 1.000000 0.000000
vn -0.000002 0.944255 -0.329214
vn -0.000002 0.944255 -0.329214
vn -0.000002 0.944255 -0.329214
vn -0.000002 0.944255 -0.329214
vn 0.000000 1.000000 0.000001
vn 0.000000 1.000000 0.000001
vn 0.000001 0.000000 -1.000000
vn 0.000001 0.000000 -1.000000
vn 0.000001 0.000000 -1.000000
vn 0.000001 0.000000 -1.000000
vn 0.000001 0.477139 -0.878828
vn 0.000001 0.477139 -0.878828
vn 0.000001 0.477139 -0.878828
vn 0.000001 0.477139 -0.878828
vn 0.000001 0.113658 -0.993520
vn 0.000001 0.113658 -0.993520
vn 0.000001 0.113658 -0.993520
vn 0.000001 0.113658 -0.993520
vn -0.000002 0.809860 -0.586623
vn -0.000002 0.809860 -0.586623
vn -0.000002 0.809860 -0.586623
vn -0.000002 0.809860 -0.586623
vn 0.000000 0.000000 1.000000
vn 0.000000 0.000000 1.000000
vn 0.000000 0.000000 1.000000
vn 0.000000 0.000000 1.000000
vn -0.000000 -1.000000 -0.000000
vn -0.000000 -1.000000 -0.000000
vn -0.000000 -1.000000 -0.000000
vn -0.000000 -1.000000 -0.000000
vn -1.000000 -0.000000 -0.000000
vn -1.000000 0.000000 -0.000001
vn -1.000000 0.000000 -0.000002
vn -1.000000 -0.000000 -0.000000
vn 1.000000 0.000000 0.000001
vn 1.000000 0.000000 0.000014
vn 1.000000 0.000000 0.000014
vn 1.000000 0.000000 0.000000
vn 1.000000 0.000000 0.000000
vn 1.000000 0.000000 0.000000
vn 1.000000 0.000000 0.000000
vn 1.000000 0.000000 0.000000
vn 1.000000 0.000000 0.000000
vn -1.000000 0.000000 0.000000
vn -1.000000 -0.000000 0.000000
vn -1.000000 -0.000000 0.000000
vn -1.000000 0.000000 0.000011
vn -1.000000 0.000000 0.000011
s 1
g BusStop_Lowpoly group1 BusStop_Bus_Glass_Side_low1
usemtl BusStop_HighLow_aiStandardSurface1SG
f 279/549/649 288/552/650 287/586/651 280/550/652
s off
f 282/555/653 290/558/654 289/557/655 283/556/656
s 1
f 283/556/657 289/557/658 288/552/650 279/549/649
s off
f 293/560/659 284/559/660 281/554/661 294/553/662
f 285/561/663 292/564/664 291/563/665 286/562/666
f 284/559/667 293/560/668 292/564/669 285/561/670
f 286/562/671 291/563/672 290/558/673 282/555/674
f 287/551/675 296/566/676 295/565/677 280/585/678
f 294/553/679 281/554/680 295/565/681 296/566/682
s 2
f 284/573/683 282/570/684 283/569/685 279/568/686
s 3
f 290/582/687 291/581/688 292/580/689 293/579/690
f 288/584/691 293/579/690 294/578/692 296/577/693
f 287/576/694 288/584/691 296/577/693
f 288/584/691 289/583/695 290/582/687 293/579/690
s 2
f 280/567/696 295/575/697 279/568/686
f 295/575/697 281/574/698 284/573/683 279/568/686
f 284/573/683 285/572/699 286/571/700 282/570/684
g default
v -160.082581 0.000000 -40.890059
v -182.582581 0.000000 -40.890059
v -160.082581 9.744325 -34.266058
v -182.582581 9.744325 -34.266058
v -160.082581 9.744325 56.165941
v -182.582581 9.744325 56.165937
v -160.082581 0.000000 62.789942
v -182.582581 0.000000 62.789938
vt 0.942139 0.170718
vt 0.931440 0.051077
vt 0.895995 0.056744
vt 0.906695 0.176385
vt 0.906696 0.163433
vt 0.931429 0.163436
vt 0.906706 0.064026
vt 0.931439 0.064029
vt 0.942151 0.056749
vt 0.906707 0.051075
vt 0.931427 0.176388
vt 0.895984 0.170713
vt 0.931439 0.064029
vt 0.931439 0.064029
vt 0.931429 0.163436
vt 0.931429 0.163436
vt 0.906706 0.064026
vt 0.906706 0.064026
vt 0.906696 0.163433
vt 0.906696 0.163433
vn 0.000000 0.562186 -0.827011
vn 0.000000 0.562186 -0.827011
vn 0.000000 0.562186 -0.827011
vn 0.000000 0.562186 -0.827011
vn 1.000000 0.000000 0.000000
vn 1.000000 0.000000 0.000000
vn 1.000000 0.000000 0.000000
vn 1.000000 0.000000 0.000000
vn 0.000000 1.000000 0.000000
vn 0.000000 1.000000 0.000000
vn 0.000000 1.000000 0.000000
vn 0.000000 1.000000 0.000000
vn -1.000000 -0.000001 0.000000
vn -1.000000 -0.000001 0.000000
vn -1.000000 -0.000001 0.000000
vn -1.000000 -0.000001 0.000000
vn 0.000000 0.562186 0.827011
vn 0.000000 0.562186 0.827011
vn 0.000000 0.562186 0.827011
vn 0.000000 0.562186 0.827011
s off
g BusStop_Lowpoly group1 BusStop_Base_low1
usemtl BusStop_HighLow_aiStandardSurface1SG
f 298/597/701 297/590/702 299/605/703 300/601/704
f 297/598/705 303/589/706 301/604/707 299/591/708
f 299/606/709 301/593/710 302/600/711 300/592/712
f 300/602/713 302/594/714 304/595/715 298/587/716
f 301/603/717 303/596/718 304/588/719 302/599/720
