# This file uses centimeters as units for non-parametric coordinates.

mtllib pit.mtl
g default
v -5287.930719 4539.610413 -859.737609
v -5148.148126 4539.610413 -1048.304752
v -5287.930719 4546.094949 -859.737609
v -5148.148126 4546.094949 -1048.304752
v -6088.956634 4546.094949 -1431.765473
v -5949.174045 4546.094949 -1620.332611
v -6088.956634 4539.610413 -1431.765473
v -5949.174045 4539.610413 -1620.332611
vt 0.375000 0.000000
vt 0.625000 0.000000
vt 0.375000 0.250000
vt 0.625000 0.250000
vt 0.375000 0.500000
vt 0.625000 0.500000
vt 0.375000 0.750000
vt 0.625000 0.750000
vt 0.375000 1.000000
vt 0.625000 1.000000
vt 0.875000 0.000000
vt 0.875000 0.250000
vt 0.125000 0.000000
vt 0.125000 0.250000
vn 0.803347 0.000000 0.595511
vn 0.803347 0.000000 0.595511
vn 0.803347 0.000000 0.595511
vn 0.803347 0.000000 0.595511
vn 0.000000 1.000000 0.000000
vn 0.000000 1.000000 0.000000
vn 0.000000 1.000000 0.000000
vn 0.000000 1.000000 0.000000
vn -0.803347 0.000000 -0.595511
vn -0.803347 0.000000 -0.595511
vn -0.803347 0.000000 -0.595511
vn -0.803347 0.000000 -0.595511
vn 0.000000 -1.000000 0.000000
vn 0.000000 -1.000000 0.000000
vn 0.000000 -1.000000 0.000000
vn 0.000000 -1.000000 0.000000
vn 0.581148 0.000000 -0.813798
vn 0.581148 0.000000 -0.813798
vn 0.581148 0.000000 -0.813798
vn 0.581148 0.000000 -0.813798
vn -0.581148 0.000000 0.813798
vn -0.581148 0.000000 0.813798
vn -0.581148 0.000000 0.813798
vn -0.581148 0.000000 0.813798
s off
g pCube8
usemtl initialShadingGroup
f 1/1/1 2/2/2 4/4/3 3/3/4
f 3/3/5 4/4/6 6/6/7 5/5/8
f 5/5/9 6/6/10 8/8/11 7/7/12
f 7/7/13 8/8/14 2/10/15 1/9/16
f 2/2/17 8/11/18 6/12/19 4/4/20
f 7/13/21 1/1/22 3/3/23 5/14/24
g default
v -5664.836302 2726.575840 -2176.410962
v -5832.959977 2726.575840 -2506.372675
v -6094.818910 2726.575840 -2768.232304
v -6424.779929 2726.575840 -2936.356211
v -6790.546978 2726.575840 -2994.287525
v -7156.312172 2726.575840 -2936.356211
v -7486.274582 2726.575840 -2768.232304
v -7748.133515 2726.575840 -2506.372675
v -7916.258118 2726.575840 -2176.410730
v -7974.189663 2726.575840 -1810.645187
v -7916.258118 2726.575840 -1444.879529
v -7748.133515 2726.575840 -1114.917815
v -7486.274582 2726.575840 -853.058650
v -7156.312172 2726.575840 -684.934627
v -6790.546978 2726.575840 -627.003082
v -6424.779929 2726.575840 -684.934627
v -6094.819838 2726.575840 -853.058650
v -5832.960904 2726.575840 -1114.918105
v -5664.837693 2726.575840 -1444.879529
v -5606.905684 2726.575840 -1810.645187
v -5793.859604 5502.278531 -2134.489715
v -5942.713881 5502.278531 -2426.633271
v -6174.558779 5502.279047 -2658.477241
v -6466.702102 5502.278531 -2807.331982
v -6790.546978 5502.278531 -2858.624296
v -7114.389998 5502.278531 -2807.332214
v -7406.533786 5502.278531 -2658.477704
v -7638.380075 5502.279047 -2426.631880
v -7787.233888 5502.279047 -2134.488556
v -7838.526667 5502.279047 -1810.645187
v -7787.233888 5502.278531 -1486.800776
v -7638.380075 5502.279047 -1194.657684
v -7406.533786 5502.278531 -962.812554
v -7114.389998 5502.278531 -813.958045
v -6790.546978 5502.278531 -762.666426
v -6466.702102 5502.279047 -813.958625
v -6174.559706 5502.279047 -962.811917
v -5942.714809 5502.279047 -1194.657973
v -5793.860995 5502.279047 -1486.800776
v -5742.569144 5502.278531 -1810.644376
v -6790.546978 4127.942980 -929.391374
v -7062.869528 4127.942980 -972.523015
v -7308.535453 4127.942980 -1097.695788
v -7503.497073 4127.943495 -1292.656829
v -7628.668628 4127.942980 -1538.322405
v -7671.801603 4127.943495 -1810.645187
v -7628.668628 4127.943495 -2082.967622
v -7503.497073 4127.943495 -2328.633546
v -7308.535453 4127.942980 -2523.594703
v -7062.869528 4127.942980 -2648.767649
v -6790.546978 4127.942980 -2691.899233
v -6518.224427 4127.942980 -2648.767649
v -6272.558503 4127.943495 -2523.594703
v -6077.596883 4127.942980 -2328.634010
v -5952.424864 4127.942980 -2082.968318
v -5909.294208 4127.942980 -1810.644956
v -5952.425791 4127.943495 -1538.322405
v -6077.598274 4127.943495 -1292.657060
v -6272.558503 4127.943495 -1097.695672
v -6518.224427 4127.943495 -972.523189
v -7097.310800 3427.260054 -866.519996
v -7374.048530 3427.260054 -1007.524416
v -7593.668561 3427.260312 -1227.143404
v -7734.671879 3427.260054 -1503.880206
v -7783.259717 3427.260312 -1810.645187
v -7734.671879 3427.260312 -2117.410285
v -7593.668561 3427.260312 -2394.146855
v -7374.048530 3427.260054 -2613.766191
v -7097.310800 3427.260054 -2754.770669
v -6790.546978 3427.260054 -2803.357579
v -6483.781764 3427.260054 -2754.770900
v -6207.044035 3427.260312 -2613.766423
v -5987.424931 3427.260054 -2394.147319
v -5846.421613 3427.260054 -2117.410749
v -5797.834702 3427.260054 -1810.645071
v -5846.423004 3427.260312 -1503.880206
v -5987.425858 3427.260312 -1227.143867
v -6207.044962 3427.260312 -1007.524300
v -6483.781764 3427.260312 -866.520228
v -6790.546978 3427.260054 -817.933376
v -7068.674972 4828.626421 -954.652867
v -7319.579661 4828.626421 -1082.494699
v -7518.698626 4828.626937 -1281.612273
v -7646.540342 4828.626421 -1532.515918
v -7690.591503 4828.626937 -1810.645187
v -7646.540342 4828.626937 -2088.774225
v -7518.698626 4828.626937 -2339.677754
v -7319.579661 4828.626421 -2538.795792
v -7068.674972 4828.626421 -2666.637276
v -6790.546978 4828.626421 -2710.689365
v -6512.418057 4828.626421 -2666.637276
v -6261.512904 4828.626937 -2538.795560
v -6062.395330 4828.626421 -2339.678450
v -5934.555005 4828.626421 -2088.774804
v -5890.502916 4828.626421 -1810.644724
v -5934.555005 4828.626937 -1532.515918
v -6062.397185 4828.626937 -1281.612273
v -6261.513831 4828.626937 -1082.494351
v -6512.418057 4828.626937 -954.653214
v -6790.546978 4828.626421 -910.601474
v -7090.036258 5178.968270 -888.912967
v -7360.208954 5178.968270 -1026.573020
v -7574.620363 5178.968786 -1240.982632
v -7712.280183 5178.968270 -1511.155559
v -7759.714723 5178.968786 -1810.645187
v -7712.280183 5178.968786 -2110.134236
v -7574.620363 5178.968786 -2380.307279
v -7360.208954 5178.968270 -2594.717297
v -7090.036258 5178.968270 -2732.377350
v -6790.546978 5178.968270 -2779.812121
v -6491.057697 5178.968270 -2732.377118
v -6220.884075 5178.968786 -2594.717297
v -6006.473129 5178.968270 -2380.308207
v -5868.814700 5178.968270 -2110.135395
v -5821.380624 5178.968270 -1810.644608
v -5868.815627 5178.968786 -1511.155559
v -6006.474520 5178.968786 -1240.982864
v -6220.884538 5178.968786 -1026.572672
v -6491.057697 5178.968786 -888.913431
v -6790.546978 5178.968270 -841.478543
v -7054.949473 4478.285603 -996.896406
v -7293.470700 4478.285603 -1118.429241
v -7482.764141 4478.285603 -1307.720306
v -7604.295412 4478.285603 -1546.241880
v -7646.173995 4478.285603 -1810.645187
v -7604.295412 4478.285603 -2075.048263
v -7482.764141 4478.285603 -2313.569489
v -7293.470700 4478.285603 -2502.861075
v -7054.949473 4478.285603 -2624.394201
v -6790.546978 4478.285603 -2666.271857
v -6526.144019 4478.285603 -2624.393969
v -6287.620937 4478.285603 -2502.861075
v -6098.330742 4478.285603 -2313.570417
v -5976.798081 4478.285603 -2075.048958
v -5934.920425 4478.285603 -1810.644840
v -5976.799008 4478.285603 -1546.241880
v -6098.331670 4478.285603 -1307.720538
v -6287.622792 4478.285603 -1118.428952
v -6526.144019 4478.285603 -996.896638
v -6790.546978 4478.285603 -955.019156
v -7074.994692 3777.601130 -935.202034
v -7331.600485 3777.601130 -1065.948965
v -7535.244070 3777.601388 -1269.591448
v -7665.989667 3777.601130 -1526.196313
v -7711.042950 3777.601388 -1810.645187
v -7665.989667 3777.601388 -2095.093945
v -7535.244070 3777.601388 -2351.698811
v -7331.600485 3777.601130 -2555.341700
v -7074.994692 3777.601130 -2686.088456
v -6790.546978 3777.601130 -2731.140812
v -6506.097872 3777.601130 -2686.088688
v -6249.493007 3777.601388 -2555.341700
v -6045.849422 3777.601130 -2351.699275
v -5915.103825 3777.601130 -2095.094525
v -5870.051469 3777.601130 -1810.644956
v -5915.104752 3777.601388 -1526.196313
v -6045.850813 3777.601388 -1269.591680
v -6249.493934 3777.601388 -1065.948907
v -6506.097872 3777.601388 -935.202440
v -6790.546978 3777.601130 -890.149969
v -7127.068857 3076.918205 -774.933724
v -7430.651951 3076.918205 -929.616515
v -7671.576694 3076.918462 -1170.540156
v -7826.259137 3076.918205 -1474.122149
v -7879.559405 3076.918462 -1810.645187
v -7826.259137 3076.918462 -2147.168457
v -7671.576694 3076.918462 -2450.750276
v -7430.651951 3076.918205 -2691.674323
v -7127.068857 3076.918205 -2846.356999
v -6790.546978 3076.918205 -2899.657035
v -6454.023244 3076.918205 -2846.356999
v -6150.441541 3076.918462 -2691.674323
v -5909.518190 3076.918205 -2450.750508
v -5754.834819 3076.918205 -2147.168689
v -5701.535014 3076.918205 -1810.645071
v -5754.835282 3076.918462 -1474.122149
v -5909.518190 3076.918462 -1170.540562
v -6150.442005 3076.918462 -929.616399
v -6454.023244 3076.918462 -774.933956
v -6790.546978 3076.918205 -721.633803
v -5761.245430 5519.774381 -2145.086307
v -5914.971662 5519.774381 -2446.789090
v -6154.404119 5519.774897 -2686.219692
v -6456.106786 5519.774381 -2839.944532
v -6790.546978 5519.774381 -2892.915551
v -7124.985315 5519.774381 -2839.944996
v -7426.689373 5519.774381 -2686.219924
v -7666.121830 5519.774897 -2446.787698
v -7819.848062 5519.774897 -2145.085148
v -7872.817690 5519.774897 -1810.645187
v -7819.848062 5519.774381 -1476.204300
v -7666.121830 5519.774897 -1174.501691
v -7426.689373 5519.774381 -935.070393
v -7124.985315 5519.774381 -781.345263
v -6790.546978 5519.774381 -728.375171
v -6456.106786 5519.774897 -781.345727
v -6154.405047 5519.774897 -935.069929
v -5914.972589 5519.774897 -1174.502155
v -5761.247285 5519.774897 -1476.204300
v -5708.277194 5519.774381 -1810.644260
v -5752.155383 5562.265777 -2148.040155
v -5907.238026 5562.265777 -2452.407881
v -6148.785095 5562.266292 -2693.953327
v -6453.152822 5562.265777 -2849.035739
v -6790.546978 5562.265777 -2902.473967
v -7127.939279 5562.265777 -2849.035971
v -7432.307933 5562.265777 -2693.953327
v -7673.855466 5562.266292 -2452.406258
v -7828.939036 5562.266292 -2148.039112
v -7882.375641 5562.266292 -1810.645071
v -7828.939036 5562.265777 -1473.250104
v -7673.855466 5562.266292 -1168.882899
v -7432.307933 5562.265777 -927.337047
v -7127.939279 5562.265777 -772.254288
v -6790.546978 5562.265777 -718.816292
v -6453.152822 5562.266292 -772.254520
v -6148.786487 5562.266292 -927.336700
v -5907.238954 5562.266292 -1168.883479
v -5752.156311 5562.266292 -1473.250336
v -5698.719242 5562.265777 -1810.644260
v -5798.632319 2740.743333 -2531.313035
v -5875.216501 3091.199900 -2475.672086
v -5714.510660 3091.199900 -2160.270934
v -5624.482001 2740.743333 -2189.522944
v -6069.878087 2740.743333 -2802.559962
v -6125.519731 3091.200158 -2725.976012
v -6411.667946 2740.743333 -2976.710512
v -6440.921463 3091.199900 -2886.681389
v -6790.546978 2740.743333 -3036.718411
v -6790.546978 3091.199900 -2942.056620
v -7169.424155 2740.743333 -2976.710512
v -7140.171101 3091.199385 -2886.680693
v -7511.214477 2740.743333 -2802.559962
v -7455.574225 3091.199900 -2725.976012
v -7782.460709 2740.743075 -2531.313035
v -7705.877919 3091.199900 -2475.671855
v -7956.611955 2740.743333 -2189.522481
v -7866.582368 3091.199900 -2160.270470
v -8016.620550 2740.743333 -1810.645187
v -7921.958294 3091.200158 -1810.645187
v -7956.612419 2740.743333 -1431.767546
v -7866.583759 3091.199900 -1461.019905
v -7782.461173 2740.743333 -1089.977456
v -7705.877919 3091.200158 -1145.618346
v -7511.214477 2740.743075 -818.731340
v -7455.574225 3091.199900 -895.314652
v -7169.424155 2740.743333 -644.580326
v -7140.171101 3091.199900 -734.609333
v -6790.546978 2740.743333 -584.572079
v -6790.546978 3091.199900 -679.234335
v -6411.667946 2740.743333 -644.580210
v -6440.921463 3091.200158 -734.609681
v -6069.879942 2740.743333 -818.730992
v -6125.520658 3091.200158 -895.314420
v -5798.633247 2740.743333 -1089.977688
v -5875.216501 3091.200158 -1145.618636
v -5624.482928 2740.743075 -1431.767662
v -5714.511588 3091.200158 -1461.020021
v -5564.474334 2740.743333 -1810.645187
v -5659.135198 3091.199900 -1810.645071
v -6790.546978 4132.989523 -885.271986
v -6790.546978 4476.824951 -910.424966
v -7068.729692 4476.825467 -954.484880
v -7076.503208 4132.990038 -930.563047
v -7334.467732 4132.990038 -1062.002444
v -7319.682609 4476.825467 -1082.351870
v -7539.190417 4132.990296 -1266.724086
v -7518.841918 4476.825467 -1281.508397
v -7670.628828 4132.990038 -1524.688841
v -7646.707285 4476.825467 -1532.461430
v -7715.920469 4132.990296 -1810.645187
v -7690.767721 4476.825467 -1810.645187
v -7670.628828 4132.990296 -2096.601302
v -7646.707285 4476.825467 -2088.828597
v -7539.190881 4132.990296 -2354.566289
v -7518.841455 4476.825467 -2339.781166
v -7334.467732 4132.990038 -2559.288279
v -7319.682609 4476.825467 -2538.938621
v -7076.503208 4132.990038 -2690.727849
v -7068.730156 4476.825467 -2666.805842
v -6790.546978 4132.990038 -2736.018794
v -6790.546978 4476.825467 -2710.865814
v -6504.591211 4132.990038 -2690.727617
v -6512.363336 4476.825467 -2666.805379
v -6246.625760 4132.990296 -2559.288047
v -6261.409492 4476.825467 -2538.938853
v -6041.903539 4132.990038 -2354.566521
v -6062.252965 4476.825467 -2339.782325
v -5910.464200 4132.990038 -2096.601765
v -5934.386207 4476.825467 -2088.829293
v -5865.174878 4132.990038 -1810.644840
v -5890.326699 4476.825467 -1810.644724
v -5910.465128 4132.990296 -1524.688609
v -5934.387135 4476.825467 -1532.461314
v -6041.904930 4132.990296 -1266.724318
v -6062.253892 4476.825467 -1281.508397
v -6246.625760 4132.990296 -1062.002212
v -6261.411347 4476.825467 -1082.351464
v -6504.591211 4132.990296 -930.563105
v -6512.363336 4476.825467 -954.485054
v -7110.548918 3439.978755 -825.778306
v -7088.502701 3786.174530 -893.628992
v -7357.294407 3786.174530 -1030.584753
v -7399.228638 3439.978755 -972.867393
v -7628.325468 3439.979012 -1201.963759
v -7570.608166 3786.174530 -1243.897990
v -7775.413859 3439.978755 -1490.642436
v -7707.562652 3786.174530 -1512.688305
v -7826.097759 3439.979012 -1810.645187
v -7754.755588 3786.175046 -1810.645187
v -7775.413859 3439.979012 -2130.648055
v -7707.563116 3786.174530 -2108.601722
v -7628.325931 3439.979012 -2419.326963
v -7570.608629 3786.174530 -2377.392500
v -7399.228638 3439.979012 -2648.423329
v -7357.294407 3786.174530 -2590.706027
v -7110.548454 3439.978755 -2795.512648
v -7088.502701 3786.174530 -2727.661673
v -6790.546978 3439.978755 -2846.196084
v -6790.546978 3786.174530 -2774.853450
v -6470.543647 3439.978755 -2795.512648
v -6492.590327 3786.174530 -2727.661905
v -6181.864390 3439.979012 -2648.423561
v -6223.799549 3786.174530 -2590.705795
v -5952.768488 3439.978755 -2419.326963
v -6010.485326 3786.174530 -2377.392964
v -5805.679633 3439.978755 -2130.648287
v -5873.530840 3786.174530 -2108.602418
v -5754.996661 3439.978755 -1810.644956
v -5826.338831 3786.174530 -1810.644840
v -5805.681024 3439.979012 -1490.642320
v -5873.531767 3786.174530 -1512.688305
v -5952.768488 3439.979012 -1201.963991
v -6010.487181 3786.174530 -1243.898338
v -6181.865318 3439.979012 -972.867335
v -6223.800013 3786.174530 -1030.584637
v -6470.543647 3439.979012 -825.778538
v -6492.590327 3786.174530 -893.629339
v -6790.546978 3439.978755 -775.094986
v -6790.546978 3786.174530 -846.437447
v -7082.167214 4819.893963 -913.128458
v -7345.242512 4819.893963 -1047.171933
v -7103.341153 5167.238203 -847.963874
v -7385.516124 5167.238203 -991.739664
v -7554.021913 4819.894479 -1255.948726
v -7609.453487 5167.238719 -1215.674650
v -7688.064171 4819.893963 -1519.023792
v -7753.228987 5167.238719 -1497.850433
v -7734.252667 4819.894479 -1810.645187
v -7802.771182 5167.238719 -1810.645187
v -7688.064171 4819.894479 -2102.266235
v -7753.228987 5167.238719 -2123.439247
v -7554.021913 4819.893963 -2365.341301
v -7609.453487 5167.238719 -2405.614913
v -7345.242976 4819.893963 -2574.118847
v -7385.516588 5167.238719 -2629.550653
v -7082.167677 4819.893963 -2708.161337
v -7103.341153 5167.238203 -2773.326385
v -6790.546978 4819.893963 -2754.350529
v -6790.546978 5167.238203 -2822.868348
v -6498.925815 4819.893963 -2708.161569
v -6477.752339 5167.238203 -2773.325921
v -6235.849589 4819.894479 -2574.118615
v -6195.576441 5167.238719 -2629.550653
v -6027.072970 4819.893963 -2365.341997
v -5971.640469 5167.238203 -2405.616072
v -5893.030712 4819.893963 -2102.266698
v -5827.864969 5167.238203 -2123.440522
v -5846.841289 4819.893963 -1810.644608
v -5778.324165 5167.238203 -1810.644492
v -5893.030712 4819.894479 -1519.023676
v -5827.867288 5167.238719 -1497.850433
v -6027.073898 4819.893963 -1255.948841
v -5971.641396 5167.238719 -1215.675114
v -6235.850052 4819.894479 -1047.171469
v -6195.576441 5167.238719 -991.739142
v -6498.925815 4819.894479 -913.128979
v -6477.752339 5167.238719 -847.964280
v -6790.546978 4819.893963 -866.940078
v -6790.546978 5167.238203 -798.422142
v -7125.853883 5467.197634 -778.676493
v -7428.339326 5467.197634 -932.800200
v -7668.392719 5467.198665 -1172.852607
v -7822.515440 5467.198150 -1475.337123
v -7876.007229 5467.702391 -1810.645303
v -7822.515440 5467.198665 -2145.952324
v -7668.392719 5467.198150 -2448.436956
v -7428.339326 5467.197634 -2688.489885
v -7125.853419 5467.197634 -2842.613765
v -6790.546978 5467.197634 -2895.721817
v -6455.238682 5467.197634 -2842.613534
v -6152.753702 5467.198665 -2688.489653
v -5912.702164 5467.198150 -2448.438347
v -5758.578052 5467.197634 -2145.953251
v -5705.471623 5467.197634 -1810.644260
v -5758.579443 5467.198665 -1475.337007
v -5912.702628 5467.198665 -1172.852839
v -6152.754629 5467.198665 -932.799620
v -6455.238682 5467.198150 -778.676957
v -6790.546978 5467.198150 -725.569369
v -5884.571338 5484.931685 -2468.876810
v -5725.506640 5484.932200 -2156.698469
v -6132.316167 5484.933231 -2716.620711
v -6444.494508 5484.932716 -2875.683322
v -6790.546978 5484.932716 -2930.493265
v -7136.597593 5484.932716 -2875.683786
v -7448.777325 5484.931685 -2716.621175
v -7696.523081 5484.932716 -2468.875419
v -7855.586852 5484.932716 -2156.697426
v -7910.396099 5484.932716 -1810.645187
v -7855.585924 5484.931685 -1464.591906
v -7696.523081 5484.932716 -1152.414028
v -7448.777325 5484.932200 -904.669084
v -7136.597593 5484.931685 -745.606473
v -6790.546978 5484.931685 -690.797457
v -6444.494508 5484.933231 -745.607284
v -6132.317094 5484.932716 -904.668736
v -5884.571802 5484.932716 -1152.414260
v -5725.508959 5484.932716 -1464.591906
v -5670.699712 5484.931685 -1810.644144
v -5872.456840 5550.310399 -2477.678185
v -5711.267792 5550.310915 -2161.325341
v -6123.515024 5550.310915 -2728.734514
v -6439.867867 5550.310915 -2889.923330
v -6790.546978 5550.310915 -2945.465967
v -7141.224697 5550.310915 -2889.923793
v -7457.577541 5550.310399 -2728.734514
v -7708.636188 5550.310915 -2477.676330
v -7869.826627 5550.311431 -2161.324066
v -7925.367178 5550.311946 -1810.645071
v -7869.826164 5550.310915 -1459.964918
v -7708.636652 5550.310399 -1143.612827
v -7457.577541 5550.310399 -892.555919
v -7141.224233 5550.310915 -731.366697
v -6790.546978 5550.310399 -675.824640
v -6439.867404 5550.310915 -731.366929
v -6123.516415 5550.310915 -892.555397
v -5872.457767 5550.310915 -1143.613407
v -5711.268720 5550.310915 -1459.965149
v -5655.727242 5550.310915 -1810.644144
vt 0.375000 0.312500
vt 0.387500 0.312500
vt 0.400000 0.312500
vt 0.412500 0.312500
vt 0.425000 0.312500
vt 0.437500 0.312500
vt 0.450000 0.312500
vt 0.462500 0.312500
vt 0.475000 0.312500
vt 0.487500 0.312500
vt 0.500000 0.312500
vt 0.512500 0.312500
vt 0.525000 0.312500
vt 0.537500 0.312500
vt 0.550000 0.312500
vt 0.562500 0.312500
vt 0.575000 0.312500
vt 0.587500 0.312500
vt 0.600000 0.312500
vt 0.612500 0.312500
vt 0.625000 0.312500
vt 0.648603 0.892034
vt 0.626409 0.935591
vt 0.591841 0.970159
vt 0.548284 0.992353
vt 0.500000 1.000000
vt 0.451716 0.992353
vt 0.408159 0.970159
vt 0.373591 0.935591
vt 0.351397 0.892034
vt 0.343750 0.843750
vt 0.351397 0.795466
vt 0.373591 0.751909
vt 0.408159 0.717341
vt 0.451716 0.695147
vt 0.500000 0.687500
vt 0.548284 0.695147
vt 0.591842 0.717341
vt 0.626409 0.751908
vt 0.648603 0.795466
vt 0.656250 0.843750
vt 0.525000 0.500000
vt 0.494608 0.503824
vt 0.466579 0.514921
vt 0.443045 0.532204
vt 0.425699 0.553983
vt 0.415625 0.578125
vt 0.413199 0.602267
vt 0.418045 0.624046
vt 0.429079 0.641329
vt 0.444608 0.652426
vt 0.462500 0.656250
vt 0.480392 0.652426
vt 0.495921 0.641329
vt 0.506954 0.624046
vt 0.636801 0.602267
vt 0.511801 0.602267
vt 0.634375 0.578125
vt 0.624301 0.553983
vt 0.606954 0.532204
vt 0.583421 0.514920
vt 0.555392 0.503824
vt 0.516054 0.408162
vt 0.495790 0.413710
vt 0.477773 0.422352
vt 0.462849 0.433242
vt 0.451562 0.445312
vt 0.444099 0.457383
vt 0.440273 0.468273
vt 0.439540 0.476915
vt 0.441054 0.482463
vt 0.443750 0.484375
vt 0.446446 0.482463
vt 0.447960 0.476915
vt 0.447227 0.468273
vt 0.630901 0.457383
vt 0.443401 0.457383
vt 0.623437 0.445312
vt 0.612150 0.433242
vt 0.597227 0.422352
vt 0.579210 0.413710
vt 0.558946 0.408162
vt 0.537500 0.406250
vt 0.473162 0.599486
vt 0.437369 0.616131
vt 0.408318 0.642056
vt 0.388548 0.674725
vt 0.379687 0.710938
vt 0.382298 0.747150
vt 0.395818 0.779819
vt 0.418619 0.805744
vt 0.448162 0.822389
vt 0.481250 0.828125
vt 0.514338 0.822389
vt 0.543881 0.805744
vt 0.566682 0.779819
vt 0.642702 0.747150
vt 0.580202 0.747150
vt 0.645312 0.710938
vt 0.636452 0.674725
vt 0.616682 0.642056
vt 0.587631 0.616131
vt 0.551838 0.599486
vt 0.512500 0.593750
vt 0.462439 0.647316
vt 0.422764 0.666736
vt 0.390955 0.696983
vt 0.369973 0.735095
vt 0.361719 0.777344
vt 0.366848 0.819592
vt 0.384705 0.857705
vt 0.413389 0.887952
vt 0.449939 0.907371
vt 0.490625 0.914062
vt 0.531311 0.907371
vt 0.567861 0.887952
vt 0.596545 0.857705
vt 0.645652 0.819592
vt 0.614402 0.819592
vt 0.650781 0.777344
vt 0.642527 0.735095
vt 0.621545 0.696982
vt 0.589736 0.666736
vt 0.550061 0.647316
vt 0.506250 0.640625
vt 0.483885 0.551655
vt 0.451974 0.565526
vt 0.425682 0.587130
vt 0.407123 0.614354
vt 0.397656 0.644531
vt 0.397748 0.674709
vt 0.406932 0.701932
vt 0.423849 0.723537
vt 0.446385 0.737408
vt 0.471875 0.742188
vt 0.497365 0.737408
vt 0.519901 0.723537
vt 0.536818 0.701932
vt 0.639752 0.674709
vt 0.546002 0.674709
vt 0.639844 0.644531
vt 0.630377 0.614354
vt 0.611818 0.587130
vt 0.585526 0.565526
vt 0.553615 0.551655
vt 0.518750 0.546875
vt 0.505331 0.455993
vt 0.481184 0.464315
vt 0.460409 0.477278
vt 0.444274 0.493612
vt 0.433594 0.511719
vt 0.428649 0.529825
vt 0.429159 0.546159
vt 0.434309 0.559122
vt 0.442831 0.567445
vt 0.453125 0.570312
vt 0.463419 0.567445
vt 0.471941 0.559122
vt 0.477091 0.546159
vt 0.633851 0.529825
vt 0.477601 0.529825
vt 0.628906 0.511719
vt 0.618226 0.493612
vt 0.602091 0.477278
vt 0.581315 0.464315
vt 0.557169 0.455993
vt 0.531250 0.453125
vt 0.526777 0.360331
vt 0.510395 0.363105
vt 0.495136 0.367426
vt 0.481425 0.372871
vt 0.469531 0.378906
vt 0.459550 0.384942
vt 0.451386 0.390386
vt 0.444770 0.394707
vt 0.439277 0.397482
vt 0.434375 0.398438
vt 0.429473 0.397482
vt 0.423980 0.394707
vt 0.417364 0.390386
vt 0.627950 0.384942
vt 0.409200 0.384942
vt 0.617969 0.378906
vt 0.606075 0.372871
vt 0.592363 0.367426
vt 0.577105 0.363105
vt 0.560723 0.360331
vt 0.543750 0.359375
vt 0.000000 0.000000
vt 1.000000 0.000000
vt 1.000000 1.000000
vt 0.000000 1.000000
vt 0.000000 0.000000
vt 1.000000 0.000000
vt 1.000000 1.000000
vt 0.000000 1.000000
vt 0.000000 0.000000
vt 1.000000 0.000000
vt 1.000000 1.000000
vt 0.000000 1.000000
vt 0.000000 0.000000
vt 1.000000 0.000000
vt 1.000000 1.000000
vt 0.000000 1.000000
vt 0.000000 0.000000
vt 1.000000 0.000000
vt 1.000000 1.000000
vt 0.000000 1.000000
vt 0.000000 0.000000
vt 1.000000 0.000000
vt 1.000000 1.000000
vt 0.000000 1.000000
vt 0.000000 0.000000
vt 1.000000 0.000000
vt 1.000000 1.000000
vt 0.000000 1.000000
vt 0.000000 0.000000
vt 1.000000 0.000000
vt 1.000000 1.000000
vt 0.000000 1.000000
vt 0.000000 0.000000
vt 1.000000 0.000000
vt 1.000000 1.000000
vt 0.000000 1.000000
vt 0.000000 0.000000
vt 1.000000 0.000000
vt 1.000000 1.000000
vt 0.000000 1.000000
vt 0.000000 0.000000
vt 1.000000 0.000000
vt 1.000000 1.000000
vt 0.000000 1.000000
vt 0.000000 0.000000
vt 1.000000 0.000000
vt 1.000000 1.000000
vt 0.000000 1.000000
vt 0.000000 0.000000
vt 1.000000 0.000000
vt 1.000000 1.000000
vt 0.000000 1.000000
vt 0.000000 0.000000
vt 1.000000 0.000000
vt 1.000000 1.000000
vt 0.000000 1.000000
vt 0.000000 0.000000
vt 1.000000 0.000000
vt 1.000000 1.000000
vt 0.000000 1.000000
vt 0.000000 0.000000
vt 1.000000 0.000000
vt 1.000000 1.000000
vt 0.000000 1.000000
vt 0.000000 0.000000
vt 1.000000 0.000000
vt 1.000000 1.000000
vt 0.000000 1.000000
vt 0.000000 0.000000
vt 1.000000 0.000000
vt 1.000000 1.000000
vt 0.000000 1.000000
vt 0.000000 0.000000
vt 1.000000 0.000000
vt 1.000000 1.000000
vt 0.000000 1.000000
vt 0.000000 0.000000
vt 1.000000 0.000000
vt 1.000000 1.000000
vt 0.000000 1.000000
vt 0.000000 0.000000
vt 1.000000 0.000000
vt 1.000000 1.000000
vt 0.000000 1.000000
vt 0.000000 0.000000
vt 1.000000 0.000000
vt 1.000000 1.000000
vt 0.000000 1.000000
vt 0.000000 0.000000
vt 1.000000 0.000000
vt 1.000000 1.000000
vt 0.000000 1.000000
vt 0.000000 0.000000
vt 1.000000 0.000000
vt 1.000000 1.000000
vt 0.000000 1.000000
vt 0.000000 0.000000
vt 1.000000 0.000000
vt 1.000000 1.000000
vt 0.000000 1.000000
vt 0.000000 0.000000
vt 1.000000 0.000000
vt 1.000000 1.000000
vt 0.000000 1.000000
vt 0.000000 0.000000
vt 1.000000 0.000000
vt 1.000000 1.000000
vt 0.000000 1.000000
vt 0.000000 0.000000
vt 1.000000 0.000000
vt 1.000000 1.000000
vt 0.000000 1.000000
vt 0.000000 0.000000
vt 1.000000 0.000000
vt 1.000000 1.000000
vt 0.000000 1.000000
vt 0.000000 0.000000
vt 1.000000 0.000000
vt 1.000000 1.000000
vt 0.000000 1.000000
vt 0.000000 0.000000
vt 1.000000 0.000000
vt 1.000000 1.000000
vt 0.000000 1.000000
vt 0.000000 0.000000
vt 1.000000 0.000000
vt 1.000000 1.000000
vt 0.000000 1.000000
vt 0.000000 0.000000
vt 1.000000 0.000000
vt 1.000000 1.000000
vt 0.000000 1.000000
vt 0.000000 0.000000
vt 1.000000 0.000000
vt 1.000000 1.000000
vt 0.000000 1.000000
vt 0.000000 0.000000
vt 1.000000 0.000000
vt 1.000000 1.000000
vt 0.000000 1.000000
vt 0.000000 0.000000
vt 1.000000 0.000000
vt 1.000000 1.000000
vt 0.000000 1.000000
vt 0.000000 0.000000
vt 1.000000 0.000000
vt 1.000000 1.000000
vt 0.000000 1.000000
vt 0.000000 0.000000
vt 1.000000 0.000000
vt 1.000000 1.000000
vt 0.000000 1.000000
vt 0.000000 0.000000
vt 1.000000 0.000000
vt 1.000000 1.000000
vt 0.000000 1.000000
vt 0.000000 0.000000
vt 1.000000 0.000000
vt 1.000000 1.000000
vt 0.000000 1.000000
vt 0.387500 0.312500
vt 0.417364 0.390386
vt 0.409200 0.384942
vt 0.375000 0.312500
vt 0.400000 0.312500
vt 0.423980 0.394707
vt 0.412500 0.312500
vt 0.429473 0.397482
vt 0.425000 0.312500
vt 0.434375 0.398438
vt 0.437500 0.312500
vt 0.439277 0.397482
vt 0.450000 0.312500
vt 0.444770 0.394707
vt 0.462500 0.312500
vt 0.451386 0.390386
vt 0.475000 0.312500
vt 0.459550 0.384942
vt 0.487500 0.312500
vt 0.469531 0.378906
vt 0.500000 0.312500
vt 0.481425 0.372871
vt 0.512500 0.312500
vt 0.495136 0.367426
vt 0.525000 0.312500
vt 0.510395 0.363105
vt 0.537500 0.312500
vt 0.526777 0.360331
vt 0.550000 0.312500
vt 0.543750 0.359375
vt 0.562500 0.312500
vt 0.560723 0.360331
vt 0.575000 0.312500
vt 0.577105 0.363105
vt 0.587500 0.312500
vt 0.592363 0.367426
vt 0.600000 0.312500
vt 0.606075 0.372871
vt 0.612500 0.312500
vt 0.617969 0.378906
vt 0.625000 0.312500
vt 0.627950 0.384942
vt 0.525000 0.500000
vt 0.518750 0.546875
vt 0.483885 0.551655
vt 0.494608 0.503824
vt 0.466579 0.514921
vt 0.451974 0.565526
vt 0.443045 0.532204
vt 0.425682 0.587130
vt 0.425699 0.553983
vt 0.407123 0.614354
vt 0.415625 0.578125
vt 0.397656 0.644531
vt 0.413199 0.602267
vt 0.397748 0.674709
vt 0.418045 0.624046
vt 0.406932 0.701932
vt 0.429079 0.641329
vt 0.423849 0.723537
vt 0.444608 0.652426
vt 0.446385 0.737408
vt 0.462500 0.656250
vt 0.471875 0.742188
vt 0.480392 0.652426
vt 0.497365 0.737408
vt 0.495921 0.641329
vt 0.519901 0.723537
vt 0.506954 0.624046
vt 0.536818 0.701932
vt 0.511801 0.602267
vt 0.546002 0.674709
vt 0.634375 0.578125
vt 0.636801 0.602267
vt 0.639752 0.674709
vt 0.639844 0.644531
vt 0.624301 0.553983
vt 0.630377 0.614354
vt 0.606954 0.532204
vt 0.611818 0.587130
vt 0.583421 0.514920
vt 0.585526 0.565526
vt 0.555392 0.503824
vt 0.553615 0.551655
vt 0.516054 0.408162
vt 0.505331 0.455993
vt 0.481184 0.464315
vt 0.495790 0.413710
vt 0.477773 0.422352
vt 0.460409 0.477278
vt 0.462849 0.433242
vt 0.444274 0.493612
vt 0.451562 0.445312
vt 0.433594 0.511719
vt 0.444099 0.457383
vt 0.428649 0.529825
vt 0.440273 0.468273
vt 0.429159 0.546159
vt 0.439540 0.476915
vt 0.434309 0.559122
vt 0.441054 0.482463
vt 0.442831 0.567445
vt 0.443750 0.484375
vt 0.453125 0.570312
vt 0.446446 0.482463
vt 0.463419 0.567445
vt 0.447960 0.476915
vt 0.471941 0.559122
vt 0.447227 0.468273
vt 0.477091 0.546159
vt 0.443401 0.457383
vt 0.477601 0.529825
vt 0.623437 0.445312
vt 0.630901 0.457383
vt 0.633851 0.529825
vt 0.628906 0.511719
vt 0.612150 0.433242
vt 0.618226 0.493612
vt 0.597227 0.422352
vt 0.602091 0.477278
vt 0.579210 0.413710
vt 0.581315 0.464315
vt 0.558946 0.408162
vt 0.557169 0.455993
vt 0.537500 0.406250
vt 0.531250 0.453125
vt 0.437369 0.616131
vt 0.473162 0.599486
vt 0.462439 0.647316
vt 0.422764 0.666736
vt 0.408318 0.642056
vt 0.390955 0.696983
vt 0.388548 0.674725
vt 0.369973 0.735095
vt 0.379687 0.710938
vt 0.361719 0.777344
vt 0.382298 0.747150
vt 0.366848 0.819592
vt 0.395818 0.779819
vt 0.384705 0.857705
vt 0.418619 0.805744
vt 0.413389 0.887952
vt 0.448162 0.822389
vt 0.449939 0.907371
vt 0.481250 0.828125
vt 0.490625 0.914062
vt 0.514338 0.822389
vt 0.531311 0.907371
vt 0.543881 0.805744
vt 0.567861 0.887952
vt 0.566682 0.779819
vt 0.596545 0.857705
vt 0.580202 0.747150
vt 0.614402 0.819592
vt 0.645312 0.710938
vt 0.642702 0.747150
vt 0.645652 0.819592
vt 0.650781 0.777344
vt 0.636452 0.674725
vt 0.642527 0.735095
vt 0.616682 0.642056
vt 0.621545 0.696982
vt 0.587631 0.616131
vt 0.589736 0.666736
vt 0.551838 0.599486
vt 0.550061 0.647316
vt 0.512500 0.593750
vt 0.506250 0.640625
vt 0.451716 0.695147
vt 0.408159 0.717341
vt 0.373591 0.751909
vt 0.351397 0.795466
vt 0.343750 0.843750
vt 0.351397 0.892034
vt 0.373591 0.935591
vt 0.408159 0.970159
vt 0.451716 0.992353
vt 0.500000 1.000000
vt 0.548284 0.992353
vt 0.591841 0.970159
vt 0.626409 0.935591
vt 0.648603 0.892034
vt 0.656250 0.843750
vt 0.648603 0.795466
vt 0.626409 0.751908
vt 0.591842 0.717341
vt 0.548284 0.695147
vt 0.500000 0.687500
vt 0.000000 0.000000
vt 1.000000 0.000000
vt 1.000000 1.000000
vt 0.000000 1.000000
vt 0.000000 0.000000
vt 1.000000 0.000000
vt 1.000000 1.000000
vt 0.000000 1.000000
vt 0.000000 0.000000
vt 1.000000 0.000000
vt 1.000000 1.000000
vt 0.000000 1.000000
vt 0.000000 0.000000
vt 1.000000 0.000000
vt 1.000000 1.000000
vt 0.000000 1.000000
vt 0.000000 0.000000
vt 1.000000 0.000000
vt 1.000000 1.000000
vt 0.000000 1.000000
vt 0.000000 0.000000
vt 1.000000 0.000000
vt 1.000000 1.000000
vt 0.000000 1.000000
vt 0.000000 0.000000
vt 1.000000 0.000000
vt 1.000000 1.000000
vt 0.000000 1.000000
vt 0.000000 0.000000
vt 1.000000 0.000000
vt 1.000000 1.000000
vt 0.000000 1.000000
vt 0.000000 0.000000
vt 1.000000 0.000000
vt 1.000000 1.000000
vt 0.000000 1.000000
vt 0.000000 0.000000
vt 1.000000 0.000000
vt 1.000000 1.000000
vt 0.000000 1.000000
vt 0.000000 0.000000
vt 1.000000 0.000000
vt 1.000000 1.000000
vt 0.000000 1.000000
vt 0.000000 0.000000
vt 1.000000 0.000000
vt 1.000000 1.000000
vt 0.000000 1.000000
vt 0.000000 0.000000
vt 1.000000 0.000000
vt 1.000000 1.000000
vt 0.000000 1.000000
vt 0.000000 0.000000
vt 1.000000 0.000000
vt 1.000000 1.000000
vt 0.000000 1.000000
vt 0.000000 0.000000
vt 1.000000 0.000000
vt 1.000000 1.000000
vt 0.000000 1.000000
vt 0.000000 0.000000
vt 1.000000 0.000000
vt 1.000000 1.000000
vt 0.000000 1.000000
vt 0.000000 0.000000
vt 1.000000 0.000000
vt 1.000000 1.000000
vt 0.000000 1.000000
vt 0.000000 0.000000
vt 1.000000 0.000000
vt 1.000000 1.000000
vt 0.000000 1.000000
vt 0.000000 0.000000
vt 1.000000 0.000000
vt 1.000000 1.000000
vt 0.000000 1.000000
vt 0.000000 0.000000
vt 1.000000 0.000000
vt 1.000000 1.000000
vt 0.000000 1.000000
vt 0.000000 0.000000
vt 1.000000 0.000000
vt 1.000000 1.000000
vt 0.000000 1.000000
vt 0.000000 0.000000
vt 1.000000 0.000000
vt 1.000000 1.000000
vt 0.000000 1.000000
vt 0.000000 0.000000
vt 1.000000 0.000000
vt 1.000000 1.000000
vt 0.000000 1.000000
vt 0.000000 0.000000
vt 1.000000 0.000000
vt 1.000000 1.000000
vt 0.000000 1.000000
vt 0.000000 0.000000
vt 1.000000 0.000000
vt 1.000000 1.000000
vt 0.000000 1.000000
vt 0.000000 0.000000
vt 1.000000 0.000000
vt 1.000000 1.000000
vt 0.000000 1.000000
vt 0.000000 0.000000
vt 1.000000 0.000000
vt 1.000000 1.000000
vt 0.000000 1.000000
vt 0.000000 0.000000
vt 1.000000 0.000000
vt 1.000000 1.000000
vt 0.000000 1.000000
vt 0.000000 0.000000
vt 1.000000 0.000000
vt 1.000000 1.000000
vt 0.000000 1.000000
vt 0.000000 0.000000
vt 1.000000 0.000000
vt 1.000000 1.000000
vt 0.000000 1.000000
vt 0.000000 0.000000
vt 1.000000 0.000000
vt 1.000000 1.000000
vt 0.000000 1.000000
vt 0.000000 0.000000
vt 1.000000 0.000000
vt 1.000000 1.000000
vt 0.000000 1.000000
vt 0.000000 0.000000
vt 1.000000 0.000000
vt 1.000000 1.000000
vt 0.000000 1.000000
vt 0.000000 0.000000
vt 1.000000 0.000000
vt 1.000000 1.000000
vt 0.000000 1.000000
vt 0.000000 0.000000
vt 1.000000 0.000000
vt 1.000000 1.000000
vt 0.000000 1.000000
vt 0.000000 0.000000
vt 1.000000 0.000000
vt 1.000000 1.000000
vt 0.000000 1.000000
vt 0.000000 0.000000
vt 1.000000 0.000000
vt 1.000000 1.000000
vt 0.000000 1.000000
vt 0.000000 0.000000
vt 1.000000 0.000000
vt 1.000000 1.000000
vt 0.000000 1.000000
vt 0.000000 0.000000
vt 1.000000 0.000000
vt 1.000000 1.000000
vt 0.000000 1.000000
vt 0.000000 0.000000
vt 1.000000 0.000000
vt 1.000000 1.000000
vt 0.000000 1.000000
vt 0.375000 0.312500
vt 0.387500 0.312500
vt 0.400000 0.312500
vt 0.412500 0.312500
vt 0.425000 0.312500
vt 0.437500 0.312500
vt 0.450000 0.312500
vt 0.462500 0.312500
vt 0.475000 0.312500
vt 0.487500 0.312500
vt 0.500000 0.312500
vt 0.512500 0.312500
vt 0.525000 0.312500
vt 0.537500 0.312500
vt 0.550000 0.312500
vt 0.562500 0.312500
vt 0.575000 0.312500
vt 0.587500 0.312500
vt 0.600000 0.312500
vt 0.612500 0.312500
vt 0.625000 0.312500
vt 1.000000 1.000000
vt 0.000000 1.000000
vt 1.000000 1.000000
vt 0.000000 1.000000
vt 1.000000 1.000000
vt 0.000000 1.000000
vt 1.000000 1.000000
vt 0.000000 1.000000
vt 1.000000 1.000000
vt 0.000000 1.000000
vt 1.000000 1.000000
vt 0.000000 1.000000
vt 1.000000 1.000000
vt 0.000000 1.000000
vt 1.000000 1.000000
vt 0.000000 1.000000
vt 1.000000 1.000000
vt 0.000000 1.000000
vt 1.000000 1.000000
vt 0.000000 1.000000
vt 1.000000 1.000000
vt 0.000000 1.000000
vt 1.000000 1.000000
vt 0.000000 1.000000
vt 1.000000 1.000000
vt 0.000000 1.000000
vt 1.000000 1.000000
vt 0.000000 1.000000
vt 1.000000 1.000000
vt 0.000000 1.000000
vt 1.000000 1.000000
vt 0.000000 1.000000
vt 1.000000 1.000000
vt 0.000000 1.000000
vt 1.000000 1.000000
vt 0.000000 1.000000
vt 1.000000 1.000000
vt 0.000000 1.000000
vt 1.000000 1.000000
vt 0.000000 1.000000
vn 0.781027 0.260767 -0.567448
vn 0.780594 0.262738 -0.567134
vn 0.917643 0.262738 -0.298160
vn 0.918152 0.260765 -0.298326
vn 0.567449 0.260768 -0.781026
vn 0.567135 0.262739 -0.780594
vn 0.298325 0.260767 -0.918152
vn 0.298160 0.262738 -0.917643
vn -0.000000 0.260766 -0.965402
vn -0.000001 0.262738 -0.964867
vn -0.298325 0.260767 -0.918152
vn -0.298160 0.262738 -0.917643
vn -0.567448 0.260766 -0.781027
vn -0.567134 0.262738 -0.780595
vn -0.781027 0.260765 -0.567449
vn -0.780595 0.262737 -0.567134
vn -0.918152 0.260766 -0.298326
vn -0.917643 0.262738 -0.298161
vn -0.965402 0.260766 -0.000001
vn -0.964867 0.262739 -0.000001
vn -0.918152 0.260765 0.298326
vn -0.917643 0.262738 0.298160
vn -0.781026 0.260765 0.567450
vn -0.780594 0.262738 0.567135
vn -0.567449 0.260765 0.781027
vn -0.567134 0.262738 0.780595
vn -0.298326 0.260766 0.918152
vn -0.298160 0.262738 0.917643
vn 0.000000 0.260766 0.965402
vn 0.000000 0.262739 0.964867
vn 0.298326 0.260767 0.918152
vn 0.298160 0.262739 0.917643
vn 0.567450 0.260766 0.781026
vn 0.567135 0.262738 0.780594
vn 0.781027 0.260765 0.567449
vn 0.780594 0.262737 0.567134
vn 0.918152 0.260764 0.298326
vn 0.917643 0.262738 0.298161
vn 0.965403 0.260764 0.000001
vn 0.964867 0.262738 0.000001
vn 0.000000 0.092778 0.995687
vn 0.000000 -0.027464 0.999623
vn -0.308901 -0.027464 0.950698
vn -0.307684 0.092778 0.946954
vn -0.585248 0.092778 0.805529
vn -0.587561 -0.027464 0.808713
vn -0.805528 0.092777 0.585250
vn -0.808711 -0.027465 0.587564
vn -0.946955 0.092777 0.307683
vn -0.950698 -0.027465 0.308899
vn -0.995687 0.092778 0.000000
vn -0.999623 -0.027465 -0.000000
vn -0.946955 0.092778 -0.307683
vn -0.950698 -0.027465 -0.308899
vn -0.805528 0.092778 -0.585250
vn -0.808712 -0.027465 -0.587564
vn -0.585249 0.092778 -0.805528
vn -0.587563 -0.027464 -0.808713
vn -0.307685 0.092778 -0.946954
vn -0.308901 -0.027464 -0.950698
vn 0.000000 0.092778 -0.995687
vn 0.000000 -0.027464 -0.999623
vn 0.307684 0.092778 -0.946954
vn 0.308900 -0.027464 -0.950698
vn 0.585249 0.092778 -0.805529
vn 0.587562 -0.027465 -0.808713
vn 0.805528 0.092778 -0.585250
vn 0.808712 -0.027464 -0.587563
vn 0.946955 0.092778 -0.307682
vn 0.950698 -0.027464 -0.308899
vn 0.995687 0.092778 0.000002
vn 0.999623 -0.027465 0.000001
vn 0.946954 0.092777 0.307684
vn 0.950698 -0.027465 0.308901
vn 0.805528 0.092777 0.585249
vn 0.808712 -0.027465 0.587563
vn 0.585250 0.092777 0.805527
vn 0.587563 -0.027465 0.808712
vn 0.307684 0.092778 0.946955
vn 0.308900 -0.027464 0.950698
vn -0.300289 0.235987 0.924195
vn -0.305082 0.159072 0.938947
vn -0.580300 0.159072 0.798717
vn -0.571183 0.235987 0.786168
vn -0.786167 0.235987 0.571184
vn -0.798716 0.159072 0.580301
vn -0.924195 0.235988 0.300289
vn -0.938947 0.159072 0.305082
vn -0.971756 0.235987 -0.000000
vn -0.987267 0.159073 0.000000
vn -0.924195 0.235986 -0.300289
vn -0.938947 0.159072 -0.305081
vn -0.786168 0.235986 -0.571183
vn -0.798716 0.159073 -0.580300
vn -0.571182 0.235986 -0.786169
vn -0.580300 0.159072 -0.798717
vn -0.300289 0.235986 -0.924195
vn -0.305082 0.159072 -0.938947
vn -0.000000 0.235987 -0.971756
vn -0.000000 0.159073 -0.987267
vn 0.300289 0.235987 -0.924195
vn 0.305082 0.159073 -0.938947
vn 0.571184 0.235987 -0.786167
vn 0.580300 0.159073 -0.798716
vn 0.786168 0.235986 -0.571184
vn 0.798716 0.159073 -0.580301
vn 0.924195 0.235987 -0.300288
vn 0.938947 0.159072 -0.305080
vn 0.971756 0.235988 0.000002
vn 0.987267 0.159073 0.000002
vn 0.924195 0.235987 0.300290
vn 0.938946 0.159073 0.305083
vn 0.786168 0.235987 0.571183
vn 0.798716 0.159073 0.580300
vn 0.571184 0.235987 0.786167
vn 0.580301 0.159073 0.798716
vn 0.300289 0.235987 0.924195
vn 0.305082 0.159072 0.938947
vn 0.000000 0.235987 0.971756
vn 0.000000 0.159072 0.987267
vn -0.580046 -0.161725 0.798368
vn -0.304949 -0.161725 0.938537
vn -0.301817 -0.214612 0.928896
vn -0.574088 -0.214612 0.790168
vn -0.798366 -0.161725 0.580049
vn -0.790166 -0.214611 0.574091
vn -0.938537 -0.161725 0.304948
vn -0.928857 -0.214712 0.301865
vn -0.986836 -0.161726 -0.000000
vn -0.976652 -0.214827 -0.000000
vn -0.938537 -0.161726 -0.304948
vn -0.928857 -0.214712 -0.301866
vn -0.798367 -0.161725 -0.580048
vn -0.790166 -0.214611 -0.574090
vn -0.580046 -0.161725 -0.798368
vn -0.574088 -0.214611 -0.790167
vn -0.304950 -0.161725 -0.938537
vn -0.301817 -0.214612 -0.928896
vn 0.000000 -0.161725 -0.986836
vn 0.000000 -0.214612 -0.976699
vn 0.304949 -0.161724 -0.938537
vn 0.301817 -0.214611 -0.928896
vn 0.580046 -0.161725 -0.798368
vn 0.574088 -0.214611 -0.790168
vn 0.798368 -0.161725 -0.580047
vn 0.790166 -0.214611 -0.574090
vn 0.938537 -0.161725 -0.304948
vn 0.928897 -0.214611 -0.301815
vn 0.986836 -0.161725 0.000002
vn 0.976700 -0.214610 0.000003
vn 0.938536 -0.161724 0.304950
vn 0.928896 -0.214610 0.301817
vn 0.798368 -0.161725 0.580046
vn 0.790168 -0.214611 0.574088
vn 0.580047 -0.161726 0.798367
vn 0.574089 -0.214611 0.790167
vn 0.304948 -0.161725 0.938537
vn 0.301816 -0.214611 0.928897
vn 0.000001 -0.161725 0.986836
vn 0.000001 -0.214611 0.976700
vn -0.300287 -0.236015 0.924189
vn -0.571179 -0.236016 0.786162
vn -0.786161 -0.236015 0.571181
vn -0.924132 -0.236206 0.300311
vn -0.971650 -0.236426 -0.000000
vn -0.924132 -0.236206 -0.300311
vn -0.786162 -0.236015 -0.571180
vn -0.571179 -0.236015 -0.786162
vn -0.300287 -0.236015 -0.924188
vn 0.000000 -0.236016 -0.971749
vn 0.300288 -0.236016 -0.924188
vn 0.571179 -0.236015 -0.786163
vn 0.786161 -0.236014 -0.571181
vn 0.924190 -0.236013 -0.300285
vn 0.971750 -0.236014 0.000003
vn 0.924188 -0.236015 0.300288
vn 0.786163 -0.236015 0.571179
vn 0.571180 -0.236015 0.786162
vn 0.300287 -0.236015 0.924189
vn 0.000001 -0.236014 0.971750
vn 0.432094 -0.890834 -0.140395
vn 0.367562 -0.890832 -0.267051
vn 0.367561 -0.890832 -0.267052
vn 0.432094 -0.890834 -0.140394
vn 0.267057 -0.890825 -0.367576
vn 0.267055 -0.890825 -0.367577
vn 0.140406 -0.890820 -0.432119
vn 0.140404 -0.890820 -0.432119
vn 0.000000 -0.890820 -0.454356
vn 0.000000 -0.890820 -0.454356
vn -0.140402 -0.890823 -0.432113
vn -0.140400 -0.890823 -0.432114
vn -0.267056 -0.890826 -0.367572
vn -0.267056 -0.890826 -0.367573
vn -0.367569 -0.890829 -0.267052
vn -0.367569 -0.890829 -0.267053
vn -0.430469 -0.891646 -0.140232
vn -0.430479 -0.891646 -0.140199
vn -0.451216 -0.892415 -0.000001
vn -0.451216 -0.892415 -0.000001
vn -0.430465 -0.891648 0.140230
vn -0.430474 -0.891648 0.140198
vn -0.367566 -0.890830 0.267052
vn -0.367565 -0.890830 0.267053
vn -0.267057 -0.890827 0.367570
vn -0.267056 -0.890827 0.367571
vn -0.140400 -0.890830 0.432100
vn -0.140397 -0.890830 0.432101
vn 0.000003 -0.890829 0.454338
vn 0.000003 -0.890829 0.454338
vn 0.140402 -0.890824 0.432111
vn 0.140401 -0.890824 0.432111
vn 0.267057 -0.890826 0.367574
vn 0.267055 -0.890826 0.367575
vn 0.367565 -0.890830 0.267052
vn 0.367565 -0.890830 0.267053
vn 0.432095 -0.890832 0.140397
vn 0.432095 -0.890832 0.140397
vn 0.454332 -0.890832 0.000001
vn 0.454332 -0.890832 0.000001
vn 0.927058 -0.223233 -0.301216
vn 0.788598 -0.223246 -0.572952
vn 0.788599 -0.223246 -0.572951
vn 0.927057 -0.223233 -0.301217
vn 0.572949 -0.223248 -0.788600
vn 0.572949 -0.223248 -0.788600
vn 0.301218 -0.223241 -0.927055
vn 0.301218 -0.223241 -0.927055
vn 0.000001 -0.223238 -0.974764
vn 0.000001 -0.223238 -0.974764
vn -0.301218 -0.223238 -0.927056
vn -0.301219 -0.223238 -0.927056
vn -0.572951 -0.223236 -0.788602
vn -0.572950 -0.223236 -0.788603
vn -0.788600 -0.223236 -0.572953
vn -0.788600 -0.223236 -0.572953
vn -0.927058 -0.223229 -0.301219
vn -0.927058 -0.223229 -0.301219
vn -0.974767 -0.223223 0.000001
vn -0.974767 -0.223223 0.000001
vn -0.927057 -0.223234 0.301218
vn -0.927057 -0.223234 0.301218
vn -0.788599 -0.223242 0.572952
vn -0.788599 -0.223242 0.572953
vn -0.572949 -0.223236 0.788603
vn -0.572948 -0.223236 0.788604
vn -0.301218 -0.223233 0.927057
vn -0.301218 -0.223233 0.927057
vn -0.000000 -0.223239 0.974764
vn -0.000000 -0.223238 0.974764
vn 0.301218 -0.223243 0.927055
vn 0.301218 -0.223243 0.927055
vn 0.572951 -0.223243 0.788599
vn 0.572951 -0.223243 0.788600
vn 0.788599 -0.223244 0.572952
vn 0.788600 -0.223244 0.572950
vn 0.927055 -0.223241 0.301218
vn 0.927055 -0.223241 0.301217
vn 0.974766 -0.223231 0.000002
vn 0.974766 -0.223231 0.000002
vn -0.781027 -0.260764 0.567449
vn -0.918153 -0.260763 0.298325
vn -0.917641 -0.262749 0.298159
vn -0.780592 -0.262749 0.567133
vn -0.567450 -0.260764 0.781027
vn -0.567133 -0.262749 0.780591
vn -0.298326 -0.260764 0.918152
vn -0.298159 -0.262750 0.917640
vn -0.000000 -0.260764 0.965403
vn 0.000000 -0.262750 0.964864
vn 0.298326 -0.260764 0.918152
vn 0.298159 -0.262750 0.917640
vn 0.567449 -0.260764 0.781027
vn 0.567132 -0.262750 0.780592
vn 0.781027 -0.260763 0.567450
vn 0.780591 -0.262750 0.567133
vn 0.918153 -0.260763 0.298326
vn 0.917640 -0.262750 0.298160
vn 0.965403 -0.260763 -0.000000
vn 0.964864 -0.262750 -0.000000
vn 0.918153 -0.260763 -0.298326
vn 0.917640 -0.262750 -0.298159
vn 0.781027 -0.260763 -0.567450
vn 0.780591 -0.262750 -0.567133
vn 0.567449 -0.260764 -0.781028
vn 0.567132 -0.262750 -0.780592
vn 0.298326 -0.260764 -0.918152
vn 0.298159 -0.262750 -0.917640
vn -0.000000 -0.260764 -0.965402
vn -0.000000 -0.262750 -0.964864
vn -0.298326 -0.260765 -0.918152
vn -0.298159 -0.262750 -0.917640
vn -0.567451 -0.260764 -0.781026
vn -0.567134 -0.262749 -0.780591
vn -0.781028 -0.260762 -0.567449
vn -0.780592 -0.262749 -0.567132
vn -0.918153 -0.260761 -0.298326
vn -0.917640 -0.262749 -0.298160
vn -0.965403 -0.260761 -0.000001
vn -0.964864 -0.262749 -0.000001
vn -0.000000 -0.092732 -0.995691
vn 0.307686 -0.092732 -0.946958
vn 0.308899 0.027632 -0.950693
vn -0.000000 0.027632 -0.999618
vn 0.585251 -0.092732 -0.805532
vn 0.587559 0.027632 -0.808710
vn 0.805531 -0.092732 -0.585252
vn 0.808708 0.027633 -0.587561
vn 0.946959 -0.092732 -0.307685
vn 0.950693 0.027633 -0.308899
vn 0.995691 -0.092732 -0.000000
vn 0.999618 0.027633 0.000000
vn 0.946959 -0.092732 0.307685
vn 0.950693 0.027633 0.308899
vn 0.805531 -0.092732 0.585252
vn 0.808708 0.027632 0.587561
vn 0.585252 -0.092732 0.805532
vn 0.587559 0.027631 0.808709
vn 0.307686 -0.092732 0.946958
vn 0.308900 0.027631 0.950693
vn 0.000000 -0.092732 0.995691
vn -0.000000 0.027632 0.999618
vn -0.307685 -0.092732 0.946958
vn -0.308899 0.027632 0.950693
vn -0.585251 -0.092732 0.805532
vn -0.587559 0.027632 0.808709
vn -0.805531 -0.092732 0.585252
vn -0.808709 0.027632 0.587560
vn -0.946959 -0.092732 0.307683
vn -0.950694 0.027632 0.308898
vn -0.995691 -0.092732 -0.000002
vn -0.999618 0.027633 -0.000001
vn -0.946958 -0.092732 -0.307686
vn -0.950693 0.027633 -0.308900
vn -0.805532 -0.092732 -0.585252
vn -0.808709 0.027632 -0.587560
vn -0.585253 -0.092732 -0.805531
vn -0.587561 0.027632 -0.808708
vn -0.307685 -0.092732 -0.946959
vn -0.308898 0.027632 -0.950694
vn 0.300290 -0.235972 -0.924199
vn 0.571184 -0.235972 -0.786171
vn 0.580284 -0.159232 -0.798696
vn 0.305074 -0.159232 -0.938922
vn 0.786170 -0.235973 -0.571186
vn 0.798695 -0.159233 -0.580285
vn 0.924198 -0.235973 -0.300290
vn 0.938922 -0.159233 -0.305074
vn 0.971759 -0.235973 -0.000000
vn 0.987241 -0.159233 -0.000000
vn 0.924198 -0.235973 0.300290
vn 0.938922 -0.159233 0.305074
vn 0.786170 -0.235973 0.571186
vn 0.798695 -0.159233 0.580285
vn 0.571185 -0.235973 0.786171
vn 0.580285 -0.159232 0.798696
vn 0.300291 -0.235972 0.924198
vn 0.305074 -0.159233 0.938922
vn 0.000000 -0.235972 0.971760
vn 0.000000 -0.159233 0.987241
vn -0.300290 -0.235972 0.924199
vn -0.305074 -0.159233 0.938922
vn -0.571186 -0.235972 0.786170
vn -0.580285 -0.159234 0.798695
vn -0.786171 -0.235972 0.571186
vn -0.798695 -0.159233 0.580285
vn -0.924199 -0.235972 0.300289
vn -0.938923 -0.159234 0.305072
vn -0.971760 -0.235973 -0.000002
vn -0.987241 -0.159234 -0.000002
vn -0.924198 -0.235973 -0.300291
vn -0.938922 -0.159233 -0.305074
vn -0.786171 -0.235973 -0.571185
vn -0.798695 -0.159233 -0.580285
vn -0.571186 -0.235973 -0.786170
vn -0.580286 -0.159233 -0.798695
vn -0.300290 -0.235972 -0.924199
vn -0.305074 -0.159233 -0.938922
vn -0.000000 -0.235972 -0.971760
vn -0.000000 -0.159233 -0.987241
vn 0.580057 0.161613 -0.798383
vn 0.573931 0.215826 -0.789951
vn 0.301734 0.215826 -0.928642
vn 0.304955 0.161613 -0.938554
vn 0.798381 0.161613 -0.580060
vn 0.789949 0.215826 -0.573933
vn 0.938554 0.161613 -0.304954
vn 0.928642 0.215825 -0.301734
vn 0.986854 0.161613 0.000000
vn 0.976432 0.215825 0.000000
vn 0.938554 0.161613 0.304954
vn 0.928642 0.215825 0.301734
vn 0.798381 0.161613 0.580059
vn 0.789950 0.215825 0.573933
vn 0.580057 0.161613 0.798383
vn 0.573931 0.215826 0.789951
vn 0.304956 0.161612 0.938554
vn 0.301735 0.215826 0.928642
vn -0.000000 0.161612 0.986854
vn -0.000000 0.215826 0.976432
vn -0.304955 0.161612 0.938554
vn -0.301734 0.215826 0.928642
vn -0.580056 0.161613 0.798383
vn -0.573930 0.215826 0.789951
vn -0.798383 0.161613 0.580057
vn -0.789950 0.215826 0.573932
vn -0.938555 0.161613 0.304953
vn -0.928643 0.215826 0.301731
vn -0.986854 0.161612 -0.000001
vn -0.976432 0.215825 -0.000002
vn -0.938554 0.161612 -0.304956
vn -0.928642 0.215825 -0.301734
vn -0.798383 0.161613 -0.580057
vn -0.789951 0.215826 -0.573931
vn -0.580058 0.161613 -0.798382
vn -0.573932 0.215827 -0.789950
vn -0.304954 0.161612 -0.938554
vn -0.301733 0.215826 -0.928642
vn -0.000001 0.161612 -0.986854
vn -0.000001 0.215826 -0.976432
vn 0.571062 0.236831 -0.786002
vn 0.300225 0.236831 -0.924000
vn 0.786001 0.236830 -0.571064
vn 0.924000 0.236830 -0.300226
vn 0.971551 0.236830 0.000000
vn 0.924000 0.236829 0.300226
vn 0.786001 0.236830 0.571064
vn 0.571063 0.236831 0.786002
vn 0.300226 0.236831 0.924000
vn -0.000000 0.236832 0.971551
vn -0.300227 0.236832 0.923999
vn -0.571062 0.236832 0.786002
vn -0.786001 0.236831 0.571064
vn -0.924001 0.236831 0.300223
vn -0.971551 0.236830 -0.000002
vn -0.924000 0.236830 -0.300225
vn -0.786002 0.236831 -0.571062
vn -0.571063 0.236832 -0.786001
vn -0.300225 0.236832 -0.924000
vn -0.000001 0.236832 -0.971551
vn -0.432225 0.890763 0.140438
vn -0.432225 0.890763 0.140437
vn -0.367678 0.890759 0.267137
vn -0.367678 0.890759 0.267137
vn -0.267136 0.890755 0.367687
vn -0.267138 0.890755 0.367685
vn -0.140442 0.890756 0.432237
vn -0.140445 0.890756 0.432236
vn -0.000000 0.890758 0.454479
vn -0.000000 0.890758 0.454479
vn 0.140441 0.890757 0.432237
vn 0.140443 0.890757 0.432236
vn 0.267137 0.890757 0.367682
vn 0.267137 0.890757 0.367682
vn 0.367679 0.890759 0.267134
vn 0.367680 0.890759 0.267133
vn 0.432229 0.890761 0.140439
vn 0.432228 0.890761 0.140440
vn 0.454472 0.890761 0.000001
vn 0.454472 0.890761 0.000001
vn 0.432229 0.890761 -0.140439
vn 0.432228 0.890761 -0.140440
vn 0.367678 0.890759 -0.267134
vn 0.367679 0.890759 -0.267134
vn 0.267136 0.890757 -0.367683
vn 0.267137 0.890757 -0.367682
vn 0.140440 0.890757 -0.432237
vn 0.140443 0.890757 -0.432237
vn -0.000001 0.890757 -0.454480
vn -0.000001 0.890757 -0.454480
vn -0.140441 0.890756 -0.432240
vn -0.140444 0.890756 -0.432239
vn -0.267137 0.890755 -0.367686
vn -0.267139 0.890755 -0.367685
vn -0.367680 0.890758 -0.267136
vn -0.367680 0.890758 -0.267136
vn -0.432228 0.890761 -0.140439
vn -0.432227 0.890761 -0.140440
vn -0.454467 0.890763 -0.000002
vn -0.454467 0.890763 -0.000002
vn -0.927872 0.219461 0.301480
vn -0.927871 0.219461 0.301482
vn -0.789290 0.219478 0.573456
vn -0.789290 0.219478 0.573456
vn -0.573451 0.219485 0.789291
vn -0.573450 0.219485 0.789292
vn -0.301483 0.219478 0.927867
vn -0.301483 0.219478 0.927867
vn -0.000001 0.219471 0.975619
vn -0.000001 0.219471 0.975619
vn 0.301484 0.219473 0.927868
vn 0.301483 0.219473 0.927868
vn 0.573453 0.219478 0.789292
vn 0.573453 0.219478 0.789292
vn 0.789291 0.219478 0.573454
vn 0.789290 0.219478 0.573455
vn 0.927868 0.219472 0.301483
vn 0.927869 0.219472 0.301483
vn 0.975620 0.219465 -0.000001
vn 0.975620 0.219465 -0.000000
vn 0.927868 0.219473 -0.301484
vn 0.927869 0.219473 -0.301482
vn 0.789289 0.219480 -0.573455
vn 0.789289 0.219480 -0.573455
vn 0.573452 0.219478 -0.789292
vn 0.573452 0.219478 -0.789292
vn 0.301484 0.219476 -0.927868
vn 0.301483 0.219476 -0.927868
vn -0.000001 0.219476 -0.975618
vn -0.000000 0.219476 -0.975618
vn -0.301483 0.219477 -0.927867
vn -0.301483 0.219477 -0.927867
vn -0.573454 0.219479 -0.789291
vn -0.573454 0.219479 -0.789291
vn -0.789291 0.219478 -0.573453
vn -0.789291 0.219478 -0.573454
vn -0.927869 0.219471 -0.301483
vn -0.927869 0.219471 -0.301482
vn -0.975622 0.219459 -0.000002
vn -0.975622 0.219460 -0.000002
vn 0.301205 -0.948524 -0.097867
vn 0.256220 -0.948524 -0.186154
vn 0.256220 -0.948524 -0.186154
vn 0.301205 -0.948524 -0.097867
vn 0.186155 -0.948524 -0.256219
vn 0.186155 -0.948524 -0.256219
vn 0.097867 -0.948524 -0.301205
vn 0.097867 -0.948524 -0.301205
vn -0.000000 -0.948523 -0.316707
vn 0.000000 -0.948523 -0.316707
vn -0.097868 -0.948523 -0.301207
vn -0.097868 -0.948523 -0.301207
vn -0.186155 -0.948524 -0.256220
vn -0.186154 -0.948524 -0.256221
vn -0.256221 -0.948524 -0.186155
vn -0.256220 -0.948524 -0.186155
vn -0.301207 -0.948523 -0.097868
vn -0.301207 -0.948523 -0.097868
vn -0.316708 -0.948523 -0.000000
vn -0.316708 -0.948523 -0.000000
vn -0.301206 -0.948524 0.097868
vn -0.301206 -0.948524 0.097868
vn -0.256220 -0.948524 0.186155
vn -0.256220 -0.948524 0.186155
vn -0.186155 -0.948524 0.256220
vn -0.186154 -0.948524 0.256221
vn -0.097867 -0.948524 0.301206
vn -0.097867 -0.948524 0.301206
vn -0.000000 -0.948524 0.316707
vn -0.000000 -0.948524 0.316707
vn 0.097868 -0.948524 0.301205
vn 0.097868 -0.948524 0.301205
vn 0.186156 -0.948524 0.256220
vn 0.186156 -0.948524 0.256221
vn 0.256219 -0.948524 0.186154
vn 0.256219 -0.948524 0.186154
vn 0.301201 -0.948525 0.097866
vn 0.301201 -0.948525 0.097866
vn 0.316704 -0.948524 0.000000
vn 0.316704 -0.948524 0.000000
vn 0.216748 0.963443 -0.157476
vn 0.254797 0.963444 -0.082788
vn 0.254797 0.963444 -0.082788
vn 0.216748 0.963443 -0.157477
vn 0.157476 0.963443 -0.216747
vn 0.157477 0.963443 -0.216747
vn 0.082789 0.963444 -0.254797
vn 0.082789 0.963444 -0.254797
vn 0.000000 0.963445 -0.267906
vn 0.000000 0.963445 -0.267906
vn -0.082789 0.963444 -0.254796
vn -0.082790 0.963444 -0.254796
vn -0.157477 0.963442 -0.216748
vn -0.157477 0.963442 -0.216749
vn -0.216748 0.963442 -0.157478
vn -0.216748 0.963442 -0.157479
vn -0.254796 0.963444 -0.082789
vn -0.254796 0.963444 -0.082789
vn -0.267904 0.963446 0.000001
vn -0.267904 0.963446 0.000001
vn -0.254799 0.963443 0.082791
vn -0.254799 0.963443 0.082791
vn -0.216752 0.963441 0.157481
vn -0.216752 0.963441 0.157481
vn -0.157479 0.963442 0.216750
vn -0.157479 0.963441 0.216750
vn -0.082790 0.963443 0.254800
vn -0.082790 0.963443 0.254800
vn 0.000000 0.963442 0.267917
vn 0.000000 0.963442 0.267917
vn 0.082790 0.963441 0.254807
vn 0.082791 0.963441 0.254806
vn 0.157478 0.963442 0.216749
vn 0.157478 0.963442 0.216749
vn 0.216750 0.963442 0.157478
vn 0.216750 0.963442 0.157478
vn 0.254803 0.963443 0.082790
vn 0.254803 0.963443 0.082790
vn 0.267910 0.963444 0.000000
vn 0.267910 0.963444 0.000000
s 1
g pCylinder1
usemtl initialShadingGroup
f 229/712/25 230/194/26 231/196/27 232/711/28
f 233/713/29 234/193/30 230/194/26 229/712/25
f 235/714/31 236/192/32 234/193/30 233/713/29
f 237/715/33 238/191/34 236/192/32 235/714/31
f 239/716/35 240/190/36 238/191/34 237/715/33
f 241/717/37 242/189/38 240/190/36 239/716/35
f 243/718/39 244/188/40 242/189/38 241/717/37
f 245/719/41 246/187/42 244/188/40 243/718/39
f 247/720/43 248/186/44 246/187/42 245/719/41
f 249/721/45 250/185/46 248/186/44 247/720/43
f 251/722/47 252/184/48 250/185/46 249/721/45
f 253/723/49 254/183/50 252/184/48 251/722/47
f 255/724/51 256/182/52 254/183/50 253/723/49
f 257/725/53 258/202/54 256/182/52 255/724/51
f 259/726/55 260/201/56 258/202/54 257/725/53
f 261/727/57 262/200/58 260/201/56 259/726/55
f 263/728/59 264/199/60 262/200/58 261/727/57
f 265/729/61 266/198/62 264/199/60 263/728/59
f 267/730/63 268/197/64 266/198/62 265/729/61
f 232/731/28 231/195/27 268/197/64 267/730/63
f 269/56/65 270/160/66 271/140/67 272/57/68
f 273/58/69 272/57/68 271/140/67 274/141/70
f 275/59/71 273/58/69 274/141/70 276/142/72
f 277/60/73 275/59/71 276/142/72 278/143/74
f 279/61/75 277/60/73 278/143/74 280/144/76
f 281/62/77 279/61/75 280/144/76 282/145/78
f 283/63/79 281/62/77 282/145/78 284/146/80
f 285/64/81 283/63/79 284/146/80 286/147/82
f 287/65/83 285/64/81 286/147/82 288/148/84
f 289/66/85 287/65/83 288/148/84 290/149/86
f 291/67/87 289/66/85 290/149/86 292/150/88
f 293/68/89 291/67/87 292/150/88 294/151/90
f 295/69/91 293/68/89 294/151/90 296/152/92
f 297/71/93 295/69/91 296/152/92 298/154/94
f 299/72/95 297/70/93 298/153/94 300/155/96
f 301/73/97 299/72/95 300/155/96 302/156/98
f 303/74/99 301/73/97 302/156/98 304/157/100
f 305/75/101 303/74/99 304/157/100 306/158/102
f 307/76/103 305/75/101 306/158/102 308/159/104
f 269/56/65 307/76/103 308/159/104 270/160/66
f 309/77/105 310/161/106 311/162/107 312/78/108
f 313/79/109 312/78/108 311/162/107 314/163/110
f 315/80/111 313/79/109 314/163/110 316/164/112
f 317/81/113 315/80/111 316/164/112 318/165/114
f 319/82/115 317/81/113 318/165/114 320/166/116
f 321/83/117 319/82/115 320/166/116 322/167/118
f 323/84/119 321/83/117 322/167/118 324/168/120
f 325/85/121 323/84/119 324/168/120 326/169/122
f 327/86/123 325/85/121 326/169/122 328/170/124
f 329/87/125 327/86/123 328/170/124 330/171/126
f 331/88/127 329/87/125 330/171/126 332/172/128
f 333/89/129 331/88/127 332/172/128 334/173/130
f 335/91/131 333/89/129 334/173/130 336/175/132
f 337/92/133 335/90/131 336/174/132 338/176/134
f 339/93/135 337/92/133 338/176/134 340/177/136
f 341/94/137 339/93/135 340/177/136 342/178/138
f 343/95/139 341/94/137 342/178/138 344/179/140
f 345/96/141 343/95/139 344/179/140 346/180/142
f 347/97/143 345/96/141 346/180/142 348/181/144
f 309/77/105 347/97/143 348/181/144 310/161/106
f 350/99/145 349/98/146 351/119/147 352/120/148
f 353/100/149 350/99/145 352/120/148 354/121/150
f 355/101/151 353/100/149 354/121/150 356/122/152
f 357/102/153 355/101/151 356/122/152 358/123/154
f 359/103/155 357/102/153 358/123/154 360/124/156
f 361/104/157 359/103/155 360/124/156 362/125/158
f 363/105/159 361/104/157 362/125/158 364/126/160
f 365/106/161 363/105/159 364/126/160 366/127/162
f 367/107/163 365/106/161 366/127/162 368/128/164
f 369/108/165 367/107/163 368/128/164 370/129/166
f 371/109/167 369/108/165 370/129/166 372/130/168
f 373/110/169 371/109/167 372/130/168 374/131/170
f 375/112/171 373/110/169 374/131/170 376/133/172
f 377/113/173 375/111/171 376/132/172 378/134/174
f 379/114/175 377/113/173 378/134/174 380/135/176
f 381/115/177 379/114/175 380/135/176 382/136/178
f 383/116/179 381/115/177 382/136/178 384/137/180
f 385/117/181 383/116/179 384/137/180 386/138/182
f 387/118/183 385/117/181 386/138/182 388/139/184
f 349/98/146 387/118/183 388/139/184 351/119/147
f 352/120/148 351/119/147 389/49/185 390/48/186
f 354/121/150 352/120/148 390/48/186 391/47/187
f 356/122/152 354/121/150 391/47/187 392/46/188
f 358/123/154 356/122/152 392/46/188 393/45/189
f 360/124/156 358/123/154 393/45/189 394/44/190
f 362/125/158 360/124/156 394/44/190 395/43/191
f 364/126/160 362/125/158 395/43/191 396/42/192
f 366/127/162 364/126/160 396/42/192 397/41/193
f 368/128/164 366/127/162 397/41/193 398/40/194
f 370/129/166 368/128/164 398/40/194 399/39/195
f 372/130/168 370/129/166 399/39/195 400/38/196
f 374/131/170 372/130/168 400/38/196 401/37/197
f 376/133/172 374/131/170 401/37/197 402/36/198
f 378/134/174 376/132/172 402/36/198 403/55/199
f 380/135/176 378/134/174 403/55/199 404/54/200
f 382/136/178 380/135/176 404/54/200 405/53/201
f 384/137/180 382/136/178 405/53/201 406/52/202
f 386/138/182 384/137/180 406/52/202 407/51/203
f 388/139/184 386/138/182 407/51/203 408/50/204
f 351/119/147 388/139/184 408/50/204 389/49/185
f 274/141/70 271/140/67 349/98/146 350/99/145
f 276/142/72 274/141/70 350/99/145 353/100/149
f 278/143/74 276/142/72 353/100/149 355/101/151
f 280/144/76 278/143/74 355/101/151 357/102/153
f 282/145/78 280/144/76 357/102/153 359/103/155
f 284/146/80 282/145/78 359/103/155 361/104/157
f 286/147/82 284/146/80 361/104/157 363/105/159
f 288/148/84 286/147/82 363/105/159 365/106/161
f 290/149/86 288/148/84 365/106/161 367/107/163
f 292/150/88 290/149/86 367/107/163 369/108/165
f 294/151/90 292/150/88 369/108/165 371/109/167
f 296/152/92 294/151/90 371/109/167 373/110/169
f 298/154/94 296/152/92 373/110/169 375/112/171
f 300/155/96 298/153/94 375/111/171 377/113/173
f 302/156/98 300/155/96 377/113/173 379/114/175
f 304/157/100 302/156/98 379/114/175 381/115/177
f 306/158/102 304/157/100 381/115/177 383/116/179
f 308/159/104 306/158/102 383/116/179 385/117/181
f 270/160/66 308/159/104 385/117/181 387/118/183
f 271/140/67 270/160/66 387/118/183 349/98/146
f 310/161/106 272/57/68 273/58/69 311/162/107
f 314/163/110 311/162/107 273/58/69 275/59/71
f 316/164/112 314/163/110 275/59/71 277/60/73
f 318/165/114 316/164/112 277/60/73 279/61/75
f 320/166/116 318/165/114 279/61/75 281/62/77
f 322/167/118 320/166/116 281/62/77 283/63/79
f 324/168/120 322/167/118 283/63/79 285/64/81
f 326/169/122 324/168/120 285/64/81 287/65/83
f 328/170/124 326/169/122 287/65/83 289/66/85
f 330/171/126 328/170/124 289/66/85 291/67/87
f 332/172/128 330/171/126 291/67/87 293/68/89
f 334/173/130 332/172/128 293/68/89 295/69/91
f 336/175/132 334/173/130 295/69/91 297/71/93
f 338/176/134 336/174/132 297/70/93 299/72/95
f 340/177/136 338/176/134 299/72/95 301/73/97
f 342/178/138 340/177/136 301/73/97 303/74/99
f 344/179/140 342/178/138 303/74/99 305/75/101
f 346/180/142 344/179/140 305/75/101 307/76/103
f 348/181/144 346/180/142 307/76/103 269/56/65
f 310/161/106 348/181/144 269/56/65 272/57/68
f 256/182/52 309/77/105 312/78/108 254/183/50
f 252/184/48 254/183/50 312/78/108 313/79/109
f 250/185/46 252/184/48 313/79/109 315/80/111
f 248/186/44 250/185/46 315/80/111 317/81/113
f 246/187/42 248/186/44 317/81/113 319/82/115
f 244/188/40 246/187/42 319/82/115 321/83/117
f 242/189/38 244/188/40 321/83/117 323/84/119
f 240/190/36 242/189/38 323/84/119 325/85/121
f 238/191/34 240/190/36 325/85/121 327/86/123
f 236/192/32 238/191/34 327/86/123 329/87/125
f 234/193/30 236/192/32 329/87/125 331/88/127
f 230/194/26 234/193/30 331/88/127 333/89/129
f 231/196/27 230/194/26 333/89/129 335/91/131
f 268/197/64 231/195/27 335/90/131 337/92/133
f 266/198/62 268/197/64 337/92/133 339/93/135
f 264/199/60 266/198/62 339/93/135 341/94/137
f 262/200/58 264/199/60 341/94/137 343/95/139
f 260/201/56 262/200/58 343/95/139 345/96/141
f 258/202/54 260/201/56 345/96/141 347/97/143
f 256/182/52 258/202/54 347/97/143 309/77/105
s 4
f 402/203/205 401/204/206 409/205/207 410/206/208
f 401/207/206 400/208/209 411/209/210 409/210/207
f 400/211/209 399/212/211 412/213/212 411/214/210
f 399/215/211 398/216/213 413/217/214 412/218/212
f 398/219/213 397/220/215 414/221/216 413/222/214
f 397/223/215 396/224/217 415/225/218 414/226/216
f 396/227/217 395/228/219 416/229/220 415/230/218
f 395/231/219 394/232/221 417/233/222 416/234/220
f 394/235/221 393/236/223 418/237/224 417/238/222
f 393/239/223 392/240/225 419/241/226 418/242/224
f 392/243/225 391/244/227 420/245/228 419/246/226
f 391/247/227 390/248/229 421/249/230 420/250/228
f 390/251/229 389/252/231 422/253/232 421/254/230
f 389/255/231 408/256/233 423/257/234 422/258/232
f 408/259/233 407/260/235 424/261/236 423/262/234
f 407/263/235 406/264/237 425/265/238 424/266/236
f 406/267/237 405/268/239 426/269/240 425/270/238
f 405/271/239 404/272/241 427/273/242 426/274/240
f 404/275/241 403/276/243 428/277/244 427/278/242
f 403/279/243 402/280/205 410/281/208 428/282/244
s 5
f 410/283/245 409/284/246 429/732/247 430/733/248
f 409/287/246 411/288/249 431/734/250 429/735/247
f 411/291/249 412/292/251 432/736/252 431/737/250
f 412/295/251 413/296/253 433/738/254 432/739/252
f 413/299/253 414/300/255 434/740/256 433/741/254
f 414/303/255 415/304/257 435/742/258 434/743/256
f 415/307/257 416/308/259 436/744/260 435/745/258
f 416/311/259 417/312/261 437/746/262 436/747/260
f 417/315/261 418/316/263 438/748/264 437/749/262
f 418/319/263 419/320/265 439/750/266 438/751/264
f 419/323/265 420/324/267 440/752/268 439/753/266
f 420/327/267 421/328/269 441/754/270 440/755/268
f 421/331/269 422/332/271 442/756/272 441/757/270
f 422/335/271 423/336/273 443/758/274 442/759/272
f 423/339/273 424/340/275 444/760/276 443/761/274
f 424/343/275 425/344/277 445/762/278 444/763/276
f 425/347/277 426/348/279 446/764/280 445/765/278
f 426/351/279 427/352/281 447/766/282 446/767/280
f 427/355/281 428/356/283 448/768/284 447/769/282
f 428/359/283 410/360/245 430/770/248 448/771/284
s 6
f 10/363/285 9/366/286 182/365/287 181/364/288
f 11/367/289 10/363/285 181/364/288 180/368/290
f 12/369/291 11/367/289 180/368/290 179/370/292
f 13/371/293 12/369/291 179/370/292 178/372/294
f 14/373/295 13/371/293 178/372/294 177/374/296
f 15/375/297 14/373/295 177/374/296 176/376/298
f 16/377/299 15/375/297 176/376/298 175/378/300
f 17/379/301 16/377/299 175/378/300 174/380/302
f 18/381/303 17/379/301 174/380/302 173/382/304
f 19/383/305 18/381/303 173/382/304 172/384/306
f 20/385/307 19/383/305 172/384/306 171/386/308
f 21/387/309 20/385/307 171/386/308 170/388/310
f 22/389/311 21/387/309 170/388/310 169/390/312
f 23/391/313 22/389/311 169/390/312 188/392/314
f 24/393/315 23/391/313 188/392/314 187/394/316
f 25/395/317 24/393/315 187/394/316 186/396/318
f 26/397/319 25/395/317 186/396/318 185/398/320
f 27/399/321 26/397/319 185/398/320 184/400/322
f 28/401/323 27/399/321 184/400/322 183/402/324
f 9/403/286 28/401/323 183/402/324 182/404/287
f 49/405/325 50/408/326 129/407/327 148/406/328
f 51/409/329 130/410/330 129/407/327 50/408/326
f 52/411/331 131/412/332 130/410/330 51/409/329
f 53/413/333 132/414/334 131/412/332 52/411/331
f 54/415/335 133/416/336 132/414/334 53/413/333
f 55/417/337 134/418/338 133/416/336 54/415/335
f 56/419/339 135/420/340 134/418/338 55/417/337
f 57/421/341 136/422/342 135/420/340 56/419/339
f 58/423/343 137/424/344 136/422/342 57/421/341
f 59/425/345 138/426/346 137/424/344 58/423/343
f 60/427/347 139/428/348 138/426/346 59/425/345
f 61/429/349 140/430/350 139/428/348 60/427/347
f 62/431/351 141/432/352 140/430/350 61/429/349
f 63/433/353 142/434/354 141/432/352 62/431/351
f 64/435/355 143/438/356 142/437/354 63/436/353
f 65/439/357 144/440/358 143/438/356 64/435/355
f 66/441/359 145/442/360 144/440/358 65/439/357
f 67/443/361 146/444/362 145/442/360 66/441/359
f 68/445/363 147/446/364 146/444/362 67/443/361
f 49/405/325 148/406/328 147/446/364 68/445/363
f 69/447/365 70/450/366 150/449/367 149/448/368
f 71/451/369 151/452/370 150/449/367 70/450/366
f 72/453/371 152/454/372 151/452/370 71/451/369
f 73/455/373 153/456/374 152/454/372 72/453/371
f 74/457/375 154/458/376 153/456/374 73/455/373
f 75/459/377 155/460/378 154/458/376 74/457/375
f 76/461/379 156/462/380 155/460/378 75/459/377
f 77/463/381 157/464/382 156/462/380 76/461/379
f 78/465/383 158/466/384 157/464/382 77/463/381
f 79/467/385 159/468/386 158/466/384 78/465/383
f 80/469/387 160/470/388 159/468/386 79/467/385
f 81/471/389 161/472/390 160/470/388 80/469/387
f 82/473/391 162/474/392 161/472/390 81/471/389
f 83/475/393 163/478/394 162/477/392 82/476/391
f 84/479/395 164/480/396 163/478/394 83/475/393
f 85/481/397 165/482/398 164/480/396 84/479/395
f 86/483/399 166/484/400 165/482/398 85/481/397
f 87/485/401 167/486/402 166/484/400 86/483/399
f 88/487/403 168/488/404 167/486/402 87/485/401
f 69/447/365 149/448/368 168/488/404 88/487/403
f 90/489/405 110/492/406 109/491/407 89/490/408
f 91/493/409 111/494/410 110/492/406 90/489/405
f 92/495/411 112/496/412 111/494/410 91/493/409
f 93/497/413 113/498/414 112/496/412 92/495/411
f 94/499/415 114/500/416 113/498/414 93/497/413
f 95/501/417 115/502/418 114/500/416 94/499/415
f 96/503/419 116/504/420 115/502/418 95/501/417
f 97/505/421 117/506/422 116/504/420 96/503/419
f 98/507/423 118/508/424 117/506/422 97/505/421
f 99/509/425 119/510/426 118/508/424 98/507/423
f 100/511/427 120/512/428 119/510/426 99/509/425
f 101/513/429 121/514/430 120/512/428 100/511/427
f 102/515/431 122/516/432 121/514/430 101/513/429
f 103/517/433 123/520/434 122/519/432 102/518/431
f 104/521/435 124/522/436 123/520/434 103/517/433
f 105/523/437 125/524/438 124/522/436 104/521/435
f 106/525/439 126/526/440 125/524/438 105/523/437
f 107/527/441 127/528/442 126/526/440 106/525/439
f 108/529/443 128/530/444 127/528/442 107/527/441
f 89/490/408 109/491/407 128/530/444 108/529/443
f 110/492/406 41/532/445 42/531/446 109/491/407
f 111/494/410 40/533/447 41/532/445 110/492/406
f 112/496/412 39/534/448 40/533/447 111/494/410
f 113/498/414 38/535/449 39/534/448 112/496/412
f 114/500/416 37/536/450 38/535/449 113/498/414
f 115/502/418 36/537/451 37/536/450 114/500/416
f 116/504/420 35/538/452 36/537/451 115/502/418
f 117/506/422 34/539/453 35/538/452 116/504/420
f 118/508/424 33/540/454 34/539/453 117/506/422
f 119/510/426 32/541/455 33/540/454 118/508/424
f 120/512/428 31/542/456 32/541/455 119/510/426
f 121/514/430 30/543/457 31/542/456 120/512/428
f 122/516/432 29/544/458 30/543/457 121/514/430
f 123/520/434 48/545/459 29/544/458 122/519/432
f 124/522/436 47/546/460 48/545/459 123/520/434
f 125/524/438 46/547/461 47/546/460 124/522/436
f 126/526/440 45/548/462 46/547/461 125/524/438
f 127/528/442 44/549/463 45/548/462 126/526/440
f 128/530/444 43/550/464 44/549/463 127/528/442
f 109/491/407 42/531/446 43/550/464 128/530/444
f 130/410/330 90/489/405 89/490/408 129/407/327
f 131/412/332 91/493/409 90/489/405 130/410/330
f 132/414/334 92/495/411 91/493/409 131/412/332
f 133/416/336 93/497/413 92/495/411 132/414/334
f 134/418/338 94/499/415 93/497/413 133/416/336
f 135/420/340 95/501/417 94/499/415 134/418/338
f 136/422/342 96/503/419 95/501/417 135/420/340
f 137/424/344 97/505/421 96/503/419 136/422/342
f 138/426/346 98/507/423 97/505/421 137/424/344
f 139/428/348 99/509/425 98/507/423 138/426/346
f 140/430/350 100/511/427 99/509/425 139/428/348
f 141/432/352 101/513/429 100/511/427 140/430/350
f 142/434/354 102/515/431 101/513/429 141/432/352
f 143/438/356 103/517/433 102/518/431 142/437/354
f 144/440/358 104/521/435 103/517/433 143/438/356
f 145/442/360 105/523/437 104/521/435 144/440/358
f 146/444/362 106/525/439 105/523/437 145/442/360
f 147/446/364 107/527/441 106/525/439 146/444/362
f 148/406/328 108/529/443 107/527/441 147/446/364
f 129/407/327 89/490/408 108/529/443 148/406/328
f 149/448/368 150/449/367 51/409/329 50/408/326
f 151/452/370 52/411/331 51/409/329 150/449/367
f 152/454/372 53/413/333 52/411/331 151/452/370
f 153/456/374 54/415/335 53/413/333 152/454/372
f 154/458/376 55/417/337 54/415/335 153/456/374
f 155/460/378 56/419/339 55/417/337 154/458/376
f 156/462/380 57/421/341 56/419/339 155/460/378
f 157/464/382 58/423/343 57/421/341 156/462/380
f 158/466/384 59/425/345 58/423/343 157/464/382
f 159/468/386 60/427/347 59/425/345 158/466/384
f 160/470/388 61/429/349 60/427/347 159/468/386
f 161/472/390 62/431/351 61/429/349 160/470/388
f 162/474/392 63/433/353 62/431/351 161/472/390
f 163/478/394 64/435/355 63/436/353 162/477/392
f 164/480/396 65/439/357 64/435/355 163/478/394
f 165/482/398 66/441/359 65/439/357 164/480/396
f 166/484/400 67/443/361 66/441/359 165/482/398
f 167/486/402 68/445/363 67/443/361 166/484/400
f 168/488/404 49/405/325 68/445/363 167/486/402
f 149/448/368 50/408/326 49/405/325 168/488/404
f 169/390/312 170/388/310 70/450/366 69/447/365
f 171/386/308 71/451/369 70/450/366 170/388/310
f 172/384/306 72/453/371 71/451/369 171/386/308
f 173/382/304 73/455/373 72/453/371 172/384/306
f 174/380/302 74/457/375 73/455/373 173/382/304
f 175/378/300 75/459/377 74/457/375 174/380/302
f 176/376/298 76/461/379 75/459/377 175/378/300
f 177/374/296 77/463/381 76/461/379 176/376/298
f 178/372/294 78/465/383 77/463/381 177/374/296
f 179/370/292 79/467/385 78/465/383 178/372/294
f 180/368/290 80/469/387 79/467/385 179/370/292
f 181/364/288 81/471/389 80/469/387 180/368/290
f 182/365/287 82/473/391 81/471/389 181/364/288
f 183/402/324 83/475/393 82/476/391 182/404/287
f 184/400/322 84/479/395 83/475/393 183/402/324
f 185/398/320 85/481/397 84/479/395 184/400/322
f 186/396/318 86/483/399 85/481/397 185/398/320
f 187/394/316 87/485/401 86/483/399 186/396/318
f 188/392/314 88/487/403 87/485/401 187/394/316
f 169/390/312 69/447/365 88/487/403 188/392/314
s 9
f 29/551/465 189/554/466 190/553/467 30/552/468
f 30/555/468 190/558/467 191/557/469 31/556/470
f 31/559/470 191/562/469 192/561/471 32/560/472
f 32/563/472 192/566/471 193/565/473 33/564/474
f 33/567/474 193/570/473 194/569/475 34/568/476
f 34/571/476 194/574/475 195/573/477 35/572/478
f 35/575/478 195/578/477 196/577/479 36/576/480
f 36/579/480 196/582/479 197/581/481 37/580/482
f 37/583/482 197/586/481 198/585/483 38/584/484
f 38/587/484 198/590/483 199/589/485 39/588/486
f 39/591/486 199/594/485 200/593/487 40/592/488
f 40/595/488 200/598/487 201/597/489 41/596/490
f 41/599/490 201/602/489 202/601/491 42/600/492
f 42/603/492 202/606/491 203/605/493 43/604/494
f 43/607/494 203/610/493 204/609/495 44/608/496
f 44/611/496 204/614/495 205/613/497 45/612/498
f 45/615/498 205/618/497 206/617/499 46/616/500
f 46/619/500 206/622/499 207/621/501 47/620/502
f 47/623/502 207/626/501 208/625/503 48/624/504
f 48/627/504 208/630/503 189/629/466 29/628/465
s 10
f 189/631/505 209/634/506 210/633/507 190/632/508
f 190/635/508 210/638/507 211/637/509 191/636/510
f 191/639/510 211/642/509 212/641/511 192/640/512
f 192/643/512 212/646/511 213/645/513 193/644/514
f 193/647/514 213/650/513 214/649/515 194/648/516
f 194/651/516 214/654/515 215/653/517 195/652/518
f 195/655/518 215/658/517 216/657/519 196/656/520
f 196/659/520 216/662/519 217/661/521 197/660/522
f 197/663/522 217/666/521 218/665/523 198/664/524
f 198/667/524 218/670/523 219/669/525 199/668/526
f 199/671/526 219/674/525 220/673/527 200/672/528
f 200/675/528 220/678/527 221/677/529 201/676/530
f 201/679/530 221/682/529 222/681/531 202/680/532
f 202/683/532 222/686/531 223/685/533 203/684/534
f 203/687/534 223/690/533 224/689/535 204/688/536
f 204/691/536 224/694/535 225/693/537 205/692/538
f 205/695/538 225/698/537 226/697/539 206/696/540
f 206/699/540 226/702/539 227/701/541 207/700/542
f 207/703/542 227/706/541 228/705/543 208/704/544
f 208/707/544 228/710/543 209/709/506 189/708/505
s 11
f 9/15/545 10/16/546 229/712/547 232/711/548
f 10/16/546 11/17/549 233/713/550 229/712/547
f 11/17/549 12/18/551 235/714/552 233/713/550
f 12/18/551 13/19/553 237/715/554 235/714/552
f 13/19/553 14/20/555 239/716/556 237/715/554
f 14/20/555 15/21/557 241/717/558 239/716/556
f 15/21/557 16/22/559 243/718/560 241/717/558
f 16/22/559 17/23/561 245/719/562 243/718/560
f 17/23/561 18/24/563 247/720/564 245/719/562
f 18/24/563 19/25/565 249/721/566 247/720/564
f 19/25/565 20/26/567 251/722/568 249/721/566
f 20/26/567 21/27/569 253/723/570 251/722/568
f 21/27/569 22/28/571 255/724/572 253/723/570
f 22/28/571 23/29/573 257/725/574 255/724/572
f 23/29/573 24/30/575 259/726/576 257/725/574
f 24/30/575 25/31/577 261/727/578 259/726/576
f 25/31/577 26/32/579 263/728/580 261/727/578
f 26/32/579 27/33/581 265/729/582 263/728/580
f 27/33/581 28/34/583 267/730/584 265/729/582
f 28/34/583 9/35/545 232/731/548 267/730/584
s 12
f 210/285/585 209/286/586 430/733/587 429/732/588
f 211/289/589 210/290/585 429/735/588 431/734/590
f 212/293/591 211/294/589 431/737/590 432/736/592
f 213/297/593 212/298/591 432/739/592 433/738/594
f 214/301/595 213/302/593 433/741/594 434/740/596
f 215/305/597 214/306/595 434/743/596 435/742/598
f 216/309/599 215/310/597 435/745/598 436/744/600
f 217/313/601 216/314/599 436/747/600 437/746/602
f 218/317/603 217/318/601 437/749/602 438/748/604
f 219/321/605 218/322/603 438/751/604 439/750/606
f 220/325/607 219/326/605 439/753/606 440/752/608
f 221/329/609 220/330/607 440/755/608 441/754/610
f 222/333/611 221/334/609 441/757/610 442/756/612
f 223/337/613 222/338/611 442/759/612 443/758/614
f 224/341/615 223/342/613 443/761/614 444/760/616
f 225/345/617 224/346/615 444/763/616 445/762/618
f 226/349/619 225/350/617 445/765/618 446/764/620
f 227/353/621 226/354/619 446/767/620 447/766/622
f 228/357/623 227/358/621 447/769/622 448/768/624
f 209/361/586 228/362/623 448/771/624 430/770/587
