# This file uses centimeters as units for non-parametric coordinates.

mtllib B08.mtl
g default
v -953.546631 -3.407977 64.492844
v -953.546631 18.876505 64.492844
v -1297.119385 18.876505 -274.000671
v -955.328369 18.876505 -275.790283
v -613.537354 18.876505 -277.579926
v -957.110107 18.876505 -616.073425
v -957.110107 -3.407977 -616.073425
v -1297.119385 -3.407977 -274.000671
v -955.328369 -3.407977 -275.790283
v -613.537354 -3.407977 -277.579926
v -680.113770 -3.407977 63.061138
v -680.113770 18.876505 63.061138
v -681.895508 18.876505 -277.221985
v -683.677246 18.876505 -617.505127
v -683.677246 -3.407977 -617.505127
v -681.895508 -3.407977 -277.221985
v -1226.979492 -3.407977 65.924545
v -1226.979492 18.876505 65.924545
v -1228.761230 18.876505 -274.358582
v -1230.542969 18.876505 -614.641724
v -1230.542969 -3.407977 -614.641724
v -1228.761230 -3.407977 -274.358582
v -1295.693970 18.876505 -1.774151
v -1295.693970 -3.407977 -1.774151
v -1227.335815 -3.407977 -2.132077
v -953.902954 -3.407977 -3.563781
v -680.470093 -3.407977 -4.995485
v -612.111938 -3.407977 -5.353411
v -612.111938 18.876505 -5.353411
v -680.470093 18.876505 -4.995485
v -953.902954 18.876505 -3.563781
v -1227.335815 18.876505 -2.132077
v -1298.544800 18.876505 -546.227173
v -1298.544800 -3.407977 -546.227173
v -1230.186646 -3.407977 -546.585144
v -956.753723 -3.407977 -548.016846
v -683.320862 -3.407977 -549.448547
v -614.962708 -3.407977 -549.806458
v -614.962708 18.876505 -549.806458
v -683.320862 18.876505 -549.448547
v -956.753723 18.876505 -548.016846
v -1230.186646 18.876505 -546.585144
vt 0.500000 0.000000
vt 0.500000 0.250000
vt 0.375000 0.375000
vt 0.500000 0.375000
vt 0.625000 0.375000
vt 0.500000 0.500000
vt 0.500000 0.750000
vt 0.375000 0.875000
vt 0.500000 0.875000
vt 0.625000 0.875000
vt 0.500000 1.000000
vt 0.750000 0.000000
vt 0.750000 0.250000
vt 0.250000 0.000000
vt 0.250000 0.250000
vt 0.600000 0.000000
vt 0.600000 1.000000
vt 0.600000 0.250000
vt 0.600000 0.375000
vt 0.600000 0.500000
vt 0.600000 0.750000
vt 0.600000 0.875000
vt 0.400000 0.000000
vt 0.400000 1.000000
vt 0.400000 0.250000
vt 0.400000 0.375000
vt 0.400000 0.500000
vt 0.400000 0.750000
vt 0.400000 0.875000
vt 0.350000 0.250000
vt 0.375000 0.275000
vt 0.350000 0.000000
vt 0.375000 0.975000
vt 0.400000 0.975000
vt 0.500000 0.975000
vt 0.600000 0.975000
vt 0.625000 0.975000
vt 0.650000 0.000000
vt 0.625000 0.275000
vt 0.650000 0.250000
vt 0.600000 0.275000
vt 0.500000 0.275000
vt 0.400000 0.275000
vt 0.150000 0.250000
vt 0.375000 0.475000
vt 0.150000 0.000000
vt 0.375000 0.775000
vt 0.400000 0.775000
vt 0.500000 0.775000
vt 0.600000 0.775000
vt 0.625000 0.775000
vt 0.850000 0.000000
vt 0.625000 0.475000
vt 0.850000 0.250000
vt 0.600000 0.475000
vt 0.500000 0.475000
vt 0.400000 0.475000
vn 0.005236 0.000000 0.999986
vn 0.005236 0.000000 0.999986
vn 0.005236 0.000000 0.999986
vn 0.005236 0.000000 0.999986
vn 0.000000 1.000000 0.000000
vn 0.000000 1.000000 0.000000
vn 0.000000 1.000000 0.000000
vn 0.000000 1.000000 0.000000
vn 0.000000 1.000000 -0.000000
vn 0.000000 1.000000 -0.000000
vn 0.000000 1.000000 -0.000000
vn 0.000000 1.000000 0.000000
vn 0.000000 1.000000 0.000000
vn 0.000000 1.000000 -0.000000
vn 0.000000 1.000000 0.000000
vn 0.000000 1.000000 0.000000
vn 0.000000 1.000000 -0.000000
vn 0.000000 1.000000 -0.000000
vn 0.000000 1.000000 -0.000000
vn -0.005236 0.000000 -0.999986
vn -0.005236 0.000000 -0.999986
vn -0.005236 0.000000 -0.999986
vn -0.005236 0.000000 -0.999986
vn 0.000000 -1.000000 0.000000
vn 0.000000 -1.000000 -0.000000
vn 0.000000 -1.000000 0.000000
vn 0.000000 -1.000000 0.000000
vn 0.000000 -1.000000 -0.000000
vn 0.000000 -1.000000 -0.000000
vn 0.000000 -1.000000 -0.000000
vn 0.000000 -1.000000 -0.000000
vn 0.000000 -1.000000 0.000000
vn 0.000000 -1.000000 0.000000
vn 0.000000 -1.000000 0.000000
vn 0.000000 -1.000000 0.000000
vn 0.999986 0.000000 -0.005236
vn 0.999986 0.000000 -0.005236
vn 0.999986 0.000000 -0.005236
vn 0.999986 0.000000 -0.005236
vn -0.999986 0.000000 0.005236
vn -0.999986 0.000000 0.005236
vn -0.999986 0.000000 0.005236
vn -0.999986 0.000000 0.005236
vn 0.000000 1.000000 0.000000
vn 0.000000 1.000000 -0.000000
vn 0.000000 1.000000 -0.000000
vn 0.000000 -1.000000 -0.000000
vn 0.000000 -1.000000 -0.000000
vn 0.005236 0.000000 0.999986
vn 0.005236 0.000000 0.999986
vn -0.005236 0.000000 -0.999986
vn -0.005236 0.000000 -0.999986
vn 0.000000 -1.000000 0.000000
vn 0.000000 -1.000000 -0.000000
vn -0.999986 0.000000 0.005236
vn -0.999986 0.000000 0.005236
vn 0.000000 -1.000000 0.000000
vn 0.000000 -1.000000 -0.000000
vn 0.999986 0.000000 -0.005236
vn 0.999986 0.000000 -0.005236
vn 0.000000 -1.000000 -0.000000
vn 0.000000 -1.000000 -0.000000
vn 0.000000 -1.000000 -0.000000
vn 0.000000 1.000000 -0.000000
vn 0.000000 1.000000 -0.000000
vn 0.000000 1.000000 -0.000000
vn -0.701822 0.000000 0.712352
vn -0.701822 0.000000 0.712352
vn -0.701822 0.000000 0.712352
vn -0.701822 0.000000 0.712352
vn 0.709243 0.000000 0.704964
vn 0.709243 0.000000 0.704964
vn 0.709243 0.000000 0.704964
vn 0.709243 0.000000 0.704964
vn 0.701822 0.000000 -0.712353
vn 0.701822 0.000000 -0.712353
vn 0.701822 0.000000 -0.712353
vn 0.701822 0.000000 -0.712353
vn -0.709243 0.000000 -0.704964
vn -0.709243 0.000000 -0.704964
vn -0.709243 0.000000 -0.704964
vn -0.709243 0.000000 -0.704964
s 1
g pCube83 group25 B03
usemtl blinn2SG
f 1/1/1 11/16/2 12/18/3 2/2/4
s 2
f 23/31/5 18/25/6 32/43/7
f 2/2/8 12/18/9 30/41/10 31/42/11
f 3/3/12 19/26/13 42/57/14 33/45/15
f 4/4/16 13/19/17 40/55/18 41/56/19
s 4
f 6/6/20 14/20/21 15/21/22 7/7/23
s 5
f 34/47/24 35/48/25 22/29/26 8/8/27
f 36/49/28 37/50/29 16/22/30 9/9/31
f 26/35/32 27/36/33 11/17/34 1/11/35
s 7
f 10/12/36 38/52/37 39/54/38 5/13/39
s 8
f 33/44/40 34/46/41 8/14/42 3/15/43
s 2
f 29/39/44 30/41/10 12/18/9
f 39/53/45 40/55/18 13/19/17 5/5/46
s 5
f 16/22/30 37/50/29 38/51/47 10/10/48
s 1
f 18/25/49 17/23/50 1/1/1 2/2/4
s 2
f 31/42/11 32/43/7 18/25/6 2/2/8
f 41/56/19 42/57/14 19/26/13 4/4/16
s 4
f 21/28/51 20/27/52 6/6/20 7/7/23
s 5
f 22/29/26 35/48/25 36/49/28 9/9/31
f 17/24/53 25/34/54 26/35/32 1/11/35
s 8
f 8/14/42 24/32/55 23/30/56 3/15/43
s 5
f 8/8/27 22/29/26 25/34/54 24/33/57
f 26/35/32 25/34/54 22/29/26 9/9/31
f 9/9/31 16/22/30 27/36/33 26/35/32
f 28/37/58 27/36/33 16/22/30 10/10/48
s 7
f 29/40/59 28/38/60 10/12/36 5/13/39
s 2
f 13/19/17 30/41/10 29/39/44 5/5/46
f 31/42/11 30/41/10 13/19/17 4/4/16
f 19/26/13 32/43/7 31/42/11 4/4/16
f 23/31/5 32/43/7 19/26/13 3/3/12
s 5
f 36/49/28 35/48/25 21/28/61 7/7/62
f 7/7/62 15/21/63 37/50/29 36/49/28
s 2
f 14/20/64 40/55/18 39/53/45
f 41/56/19 40/55/18 14/20/64 6/6/65
f 20/27/66 42/57/14 41/56/19 6/6/65
f 33/45/15 42/57/14 20/27/66
s 5
f 24/33/57 25/34/54 17/24/53
f 11/17/34 27/36/33 28/37/58
f 38/51/47 37/50/29 15/21/63
f 34/47/24 21/28/61 35/48/25
s off
f 18/25/67 23/30/68 24/33/69 17/23/70
f 12/18/71 11/17/72 28/38/73 29/39/74
f 15/21/75 14/20/76 39/54/77 38/51/78
f 21/28/79 34/46/80 33/45/81 20/27/82
g default
v -1247.444702 18.876526 19.401367
v -660.136719 18.876526 16.326172
v -1247.444702 328.308411 19.401367
v -660.136719 328.308411 16.326172
v -1250.520020 328.308411 -567.906677
v -663.211914 328.308411 -570.981934
v -1250.520020 18.876526 -567.906677
v -663.211914 18.876526 -570.981934
v -1053.045898 18.876526 18.383484
v -1053.045898 328.308411 18.383484
v -1056.120972 328.308411 -568.924561
v -1056.120972 18.876526 -568.924561
v -866.281921 18.876526 17.405579
v -866.281921 328.308411 17.405579
v -869.357056 328.308411 -569.902466
v -869.357056 18.876526 -569.902466
v -1247.444702 266.422058 19.401367
v -1250.520020 266.422058 -567.906677
v -1056.120972 266.422058 -568.924561
v -869.357056 266.422058 -569.902466
v -663.211914 266.422058 -570.981934
v -660.136719 266.422058 16.326172
v -866.281921 266.422058 17.405579
v -1053.045898 266.422058 18.383484
v -1247.444702 22.393585 19.401367
v -1250.520020 22.393661 -567.906677
v -1056.120972 22.393661 -568.924561
v -869.357056 22.393661 -569.902466
v -663.211914 22.393661 -570.981934
v -660.136719 22.393585 16.326172
v -866.281921 22.393585 17.405579
v -1053.045898 22.393585 18.383484
v -866.323730 266.422058 9.405701
v -1053.087769 266.422058 10.383606
v -1053.087769 22.393585 10.383606
v -866.323730 22.393585 9.405701
vt 0.375000 0.000000
vt 0.625000 0.000000
vt 0.375000 0.250000
vt 0.625000 0.250000
vt 0.375000 0.500000
vt 0.625000 0.500000
vt 0.375000 0.750000
vt 0.625000 0.750000
vt 0.375000 1.000000
vt 0.625000 1.000000
vt 0.875000 0.000000
vt 0.875000 0.250000
vt 0.125000 0.000000
vt 0.125000 0.250000
vt 0.475000 0.000000
vt 0.475000 1.000000
vt 0.475000 0.250000
vt 0.475000 0.500000
vt 0.475000 0.750000
vt 0.520000 0.000000
vt 0.520000 1.000000
vt 0.520000 0.250000
vt 0.520000 0.500000
vt 0.520000 0.750000
vt 0.375000 0.200000
vt 0.125000 0.200000
vt 0.375000 0.550000
vt 0.475000 0.550000
vt 0.520000 0.550000
vt 0.625000 0.550000
vt 0.875000 0.200000
vt 0.625000 0.200000
vt 0.520000 0.200000
vt 0.475000 0.200000
vt 0.375000 0.002842
vt 0.125000 0.002842
vt 0.375000 0.747158
vt 0.475000 0.747158
vt 0.520000 0.747158
vt 0.625000 0.747158
vt 0.875000 0.002842
vt 0.625000 0.002842
vt 0.520000 0.002842
vt 0.475000 0.002842
vt 0.520000 0.200000
vt 0.475000 0.200000
vt 0.475000 0.002842
vt 0.520000 0.002842
vn 0.005236 0.000000 0.999986
vn 0.005236 0.000000 0.999986
vn 0.005236 0.000000 0.999986
vn 0.005236 0.000000 0.999986
vn 0.000000 1.000000 0.000000
vn 0.000000 1.000000 0.000000
vn 0.000000 1.000000 0.000000
vn 0.000000 1.000000 0.000000
vn -0.005236 0.000000 -0.999986
vn -0.005236 0.000000 -0.999986
vn -0.005236 0.000000 -0.999986
vn -0.005236 0.000000 -0.999986
vn 0.000000 -1.000000 0.000000
vn 0.000000 -1.000000 0.000000
vn 0.000000 -1.000000 0.000000
vn 0.000000 -1.000000 0.000000
vn 0.999986 0.000000 -0.005236
vn 0.999986 0.000000 -0.005236
vn 0.999986 0.000000 -0.005236
vn 0.999986 0.000000 -0.005236
vn -0.999986 0.000000 0.005236
vn -0.999986 0.000000 0.005236
vn -0.999986 0.000000 0.005236
vn -0.999986 0.000000 0.005236
vn 0.005236 0.000000 0.999986
vn 0.005236 0.000000 0.999986
vn 0.000000 1.000000 0.000000
vn 0.000000 1.000000 0.000000
vn -0.005236 0.000000 -0.999986
vn -0.005236 0.000000 -0.999986
vn 0.000000 -1.000000 -0.000000
vn 0.000000 -1.000000 -0.000000
vn 0.005236 0.000000 0.999986
vn 0.005236 0.000000 0.999986
vn 0.000000 1.000000 0.000000
vn 0.000000 1.000000 0.000000
vn -0.005236 0.000000 -0.999986
vn -0.005236 0.000000 -0.999986
vn 0.000000 -1.000000 -0.000000
vn 0.000000 -1.000000 -0.000000
vn -0.999986 0.000000 0.005236
vn -0.999986 0.000000 0.005236
vn -0.999986 0.000000 0.005236
vn -0.999986 0.000000 0.005236
vn -0.005236 0.000000 -0.999986
vn -0.005236 0.000000 -0.999986
vn -0.005236 0.000000 -0.999986
vn -0.005236 0.000000 -0.999986
vn -0.005236 0.000000 -0.999986
vn -0.005236 0.000000 -0.999986
vn -0.005236 0.000000 -0.999986
vn -0.005236 0.000000 -0.999986
vn 0.999986 0.000000 -0.005236
vn 0.999986 0.000000 -0.005236
vn 0.999986 0.000000 -0.005236
vn 0.999986 0.000000 -0.005236
vn 0.005236 0.000000 0.999986
vn 0.005236 0.000000 0.999986
vn 0.005236 0.000000 0.999986
vn 0.005236 0.000000 0.999986
vn 0.005236 0.000000 0.999986
vn 0.005236 0.000000 0.999986
vn 0.005236 0.000000 0.999986
vn 0.005236 0.000000 0.999986
vn 0.005236 0.000000 0.999986
vn 0.005236 0.000000 0.999986
vn 0.005236 0.000000 0.999986
vn 0.005236 0.000000 0.999986
vn 0.000000 -1.000000 0.000001
vn 0.000000 -1.000000 0.000001
vn 0.000000 -1.000000 0.000001
vn 0.000000 -1.000000 0.000001
vn 0.999986 0.000000 -0.005234
vn 0.999986 0.000000 -0.005234
vn 0.999986 0.000000 -0.005234
vn 0.999986 0.000000 -0.005234
vn 0.000000 1.000000 -0.000000
vn 0.000000 1.000000 -0.000000
vn 0.000000 1.000000 -0.000000
vn 0.000000 1.000000 -0.000000
vn -0.999986 0.000000 0.005226
vn -0.999986 0.000000 0.005226
vn -0.999986 0.000000 0.005226
vn -0.999986 0.000000 0.005226
s 1
g group25 B03 pCube84
usemtl blinn3SG
f 43/58/83 51/72/84 74/101/85 67/92/86
s 2
f 45/60/87 52/74/88 53/75/89 47/62/90
s 3
f 68/94/91 69/95/92 54/76/93 49/64/94
s 4
f 49/64/95 54/76/96 51/73/97 43/66/98
s 5
f 44/59/99 50/68/100 71/98/101 72/99/102
s 6
f 49/70/103 43/58/104 67/92/105 68/93/106
s 1
f 73/100/107 74/101/85 51/72/84 55/77/108
s 2
f 53/75/89 52/74/88 56/79/109 57/80/110
s 3
f 54/76/93 69/95/92 70/96/111 58/81/112
s 4
f 51/73/97 54/76/96 58/81/113 55/78/114
s 1
f 72/99/115 73/100/107 55/77/108 44/59/116
s 2
f 57/80/110 56/79/109 46/61/117 48/63/118
s 3
f 58/81/112 70/96/111 71/97/119 50/65/120
s 4
f 55/78/114 58/81/113 50/65/121 44/67/122
s 6
f 60/83/123 59/82/124 45/60/125 47/71/126
s 3
f 47/62/127 53/75/128 61/85/129 60/84/130
f 62/86/131 61/85/129 53/75/128 57/80/132
f 63/87/133 62/86/131 57/80/132 48/63/134
s 5
f 64/89/135 63/88/136 48/69/137 46/61/138
s 1
f 56/79/139 65/90/140 64/89/141 46/61/142
f 52/74/143 66/91/144 65/90/140 56/79/139
f 59/82/145 66/91/144 52/74/143 45/60/146
s 6
f 68/93/106 67/92/105 59/82/124 60/83/123
s 3
f 60/84/130 61/85/129 69/95/92 68/94/91
f 70/96/111 69/95/92 61/85/129 62/86/131
f 71/97/119 70/96/111 62/86/131 63/87/133
s 5
f 72/99/102 71/98/101 63/88/136 64/89/135
s 1
f 64/89/141 65/90/140 73/100/107 72/99/115
s off
f 75/102/147 76/103/148 77/104/149 78/105/150
s 1
f 67/92/86 74/101/85 66/91/144 59/82/145
s off
f 65/90/151 66/91/152 76/103/153 75/102/154
f 66/91/155 74/101/156 77/104/157 76/103/158
f 74/101/159 73/100/160 78/105/161 77/104/162
f 73/100/163 65/90/164 75/102/165 78/105/166
g default
v -1255.286255 271.425537 27.325348
v -652.212769 271.425537 24.167633
v -1255.286255 364.031799 27.325348
v -652.212769 364.031799 24.167633
v -1258.443970 364.031799 -575.748169
v -655.370483 364.031799 -578.905884
v -1258.443970 271.425537 -575.748169
v -655.370483 271.425537 -578.905884
v -953.749512 322.761902 25.746490
v -953.749512 364.031799 25.746490
v -956.907227 364.031799 -577.327026
v -956.907227 322.761902 -577.327026
v -1104.517944 271.425537 26.535919
v -1104.517944 364.031799 26.535919
v -1107.675659 364.031799 -576.537598
v -1107.675659 271.425537 -576.537598
v -802.981140 271.425537 24.957062
v -802.981140 364.031799 24.957062
v -806.138855 364.031677 -578.116455
v -806.138855 271.425507 -578.116455
v -1059.287354 322.761902 26.299103
v -1059.287354 364.031799 26.299103
v -1062.445068 364.031799 -576.774414
v -1062.445068 322.761902 -576.774414
v -848.211670 322.761902 25.193878
v -848.211670 364.031799 25.193878
v -851.369385 364.031799 -577.879639
v -851.369385 322.761902 -577.879639
vt 0.375000 0.000000
vt 0.625000 0.000000
vt 0.375000 0.250000
vt 0.625000 0.250000
vt 0.375000 0.500000
vt 0.625000 0.500000
vt 0.375000 0.750000
vt 0.625000 0.750000
vt 0.375000 1.000000
vt 0.625000 1.000000
vt 0.875000 0.000000
vt 0.875000 0.250000
vt 0.125000 0.000000
vt 0.125000 0.250000
vt 0.500000 0.000000
vt 0.500000 1.000000
vt 0.500000 0.250000
vt 0.500000 0.500000
vt 0.500000 0.750000
vt 0.437500 0.000000
vt 0.437500 1.000000
vt 0.437500 0.250000
vt 0.437500 0.500000
vt 0.437500 0.750000
vt 0.562500 0.000000
vt 0.562500 1.000000
vt 0.562500 0.250000
vt 0.562500 0.500000
vt 0.562500 0.750000
vt 0.456250 0.000000
vt 0.456250 1.000000
vt 0.456250 0.250000
vt 0.456250 0.500000
vt 0.456250 0.750000
vt 0.543750 0.000000
vt 0.543750 1.000000
vt 0.543750 0.250000
vt 0.543750 0.500000
vt 0.543750 0.750000
vn 0.005236 0.000000 0.999986
vn 0.005236 0.000000 0.999986
vn 0.005236 0.000000 0.999986
vn 0.005236 0.000000 0.999986
vn 0.000000 1.000000 -0.000000
vn 0.000000 1.000000 -0.000000
vn 0.000000 1.000000 -0.000000
vn 0.000000 1.000000 -0.000000
vn -0.005236 0.000000 -0.999986
vn -0.005236 0.000000 -0.999986
vn -0.005236 0.000000 -0.999986
vn -0.005236 0.000000 -0.999986
vn 0.000000 -1.000000 -0.000000
vn 0.253368 -0.967369 -0.001327
vn 0.253368 -0.967369 -0.001327
vn 0.000000 -1.000000 -0.000000
vn 0.999986 0.000000 -0.005236
vn 0.999986 0.000000 -0.005236
vn 0.999986 0.000000 -0.005236
vn 0.999986 0.000000 -0.005236
vn -0.999986 0.000000 0.005236
vn -0.999986 0.000000 0.005236
vn -0.999986 0.000000 0.005236
vn -0.999986 0.000000 0.005236
vn 0.005236 0.000000 0.999986
vn 0.005236 0.000000 0.999986
vn 0.005236 0.000000 0.999986
vn 0.005236 0.000000 0.999986
vn 0.000000 1.000000 0.000000
vn 0.000000 1.000000 0.000000
vn 0.000000 1.000000 -0.000000
vn 0.000000 1.000000 -0.000000
vn -0.005236 0.000000 -0.999986
vn -0.005236 0.000000 -0.999986
vn -0.005236 0.000000 -0.999986
vn -0.005236 0.000000 -0.999986
vn 0.000000 -1.000000 0.000000
vn 0.000000 -1.000000 0.000000
vn -0.322317 -0.946630 0.001688
vn -0.322317 -0.946630 0.001688
vn 0.005236 0.000000 0.999986
vn 0.005236 0.000000 0.999986
vn 0.000000 1.000000 0.000000
vn 0.000000 1.000000 0.000000
vn -0.005236 0.000000 -0.999986
vn -0.005236 0.000000 -0.999986
vn 0.322317 -0.946630 -0.001688
vn 0.322317 -0.946630 -0.001688
vn 0.005236 0.000000 0.999986
vn 0.005236 0.000000 0.999986
vn 0.005236 0.000000 0.999986
vn 0.005236 0.000000 0.999986
vn -0.000000 1.000000 -0.000000
vn -0.000000 1.000000 -0.000000
vn -0.000000 1.000000 -0.000000
vn -0.000000 1.000000 -0.000000
vn -0.005236 0.000000 -0.999986
vn -0.005236 0.000000 -0.999986
vn -0.005236 0.000000 -0.999986
vn -0.005236 0.000000 -0.999986
vn -0.253368 -0.967369 0.001327
vn -0.253368 -0.967369 0.001327
vn 0.000000 -1.000000 0.000000
vn 0.000000 -1.000000 0.000000
s 1
g group25 B03 pCube85
usemtl blinn3SG
f 79/106/167 91/125/168 92/127/169 81/108/170
s 2
f 81/108/171 92/127/172 93/128/173 83/110/174
s 3
f 83/110/175 93/128/176 94/129/177 85/112/178
s 4
f 85/112/179 94/129/180 91/126/181 79/114/182
s off
f 80/107/183 86/116/184 84/117/185 82/109/186
f 85/118/187 79/106/188 81/108/189 83/119/190
s 1
f 88/122/191 87/120/192 103/140/193 104/142/194
s 2
f 89/123/195 88/122/196 104/142/197 105/143/198
s 3
f 90/124/199 89/123/200 105/143/201 106/144/202
s 4
f 87/121/203 90/124/204 106/144/205 103/141/206
s 1
f 92/127/169 91/125/168 99/135/207 100/137/208
s 2
f 93/128/173 92/127/172 100/137/209 101/138/210
s 3
f 94/129/177 93/128/176 101/138/211 102/139/212
s 4
f 91/126/181 94/129/180 102/139/213 99/136/214
s 1
f 96/132/215 95/130/216 80/107/217 82/109/218
s 2
f 97/133/219 96/132/220 82/109/221 84/111/222
s 3
f 98/134/223 97/133/224 84/111/225 86/113/226
s 4
f 95/131/227 98/134/228 86/113/229 80/115/230
s 1
f 100/137/208 99/135/207 87/120/192 88/122/191
s 2
f 101/138/210 100/137/209 88/122/196 89/123/195
s 3
f 102/139/212 101/138/211 89/123/200 90/124/199
s 4
f 99/136/214 102/139/213 90/124/204 87/121/203
s 1
f 104/142/194 103/140/193 95/130/216 96/132/215
s 2
f 105/143/198 104/142/197 96/132/220 97/133/219
s 3
f 106/144/202 105/143/201 97/133/224 98/134/223
s 4
f 103/141/206 106/144/205 98/134/228 95/131/227
g default
v -953.546631 362.952942 64.492844
v -953.546631 387.098328 64.492844
v -1297.119385 387.098328 -274.000671
v -955.328369 398.993591 -275.790283
v -613.537354 387.098328 -277.579926
v -957.110107 387.098328 -616.073425
v -957.110107 362.952942 -616.073425
v -1297.119385 362.952942 -274.000671
v -955.328369 362.952942 -275.790283
v -613.537354 362.952942 -277.579926
v -680.113770 362.952942 63.061138
v -680.113770 387.098328 63.061138
v -681.895508 398.993591 -277.221985
v -683.677246 387.098328 -617.505127
v -683.677246 362.952942 -617.505127
v -681.895508 362.952942 -277.221985
v -1226.979492 362.952942 65.924545
v -1226.979492 387.098328 65.924545
v -1228.761230 398.993591 -274.358582
v -1230.542969 387.098328 -614.641724
v -1230.542969 362.952942 -614.641724
v -1228.761230 362.952942 -274.358582
v -1295.693970 387.098328 -1.774151
v -1295.693970 362.952942 -1.774151
v -1227.335815 362.952942 -2.132077
v -953.902954 362.952942 -3.563781
v -680.470093 362.952942 -4.995485
v -612.111938 362.952942 -5.353411
v -612.111938 387.098328 -5.353411
v -680.470093 398.993591 -4.995485
v -953.902954 398.993591 -3.563781
v -1227.335815 398.993591 -2.132077
v -1298.544800 387.098328 -546.227173
v -1298.544800 362.952942 -546.227173
v -1230.186646 362.952942 -546.585144
v -956.753723 362.952942 -548.016846
v -683.320862 362.952942 -549.448547
v -614.962708 362.952942 -549.806458
v -614.962708 387.098328 -549.806458
v -683.320862 398.993591 -549.448547
v -956.753723 398.993591 -548.016846
v -1230.186646 398.993591 -546.585144
vt 0.500000 0.000000
vt 0.500000 0.250000
vt 0.375000 0.375000
vt 0.500000 0.375000
vt 0.625000 0.375000
vt 0.500000 0.500000
vt 0.500000 0.750000
vt 0.375000 0.875000
vt 0.500000 0.875000
vt 0.625000 0.875000
vt 0.500000 1.000000
vt 0.750000 0.000000
vt 0.750000 0.250000
vt 0.250000 0.000000
vt 0.250000 0.250000
vt 0.600000 0.000000
vt 0.600000 1.000000
vt 0.600000 0.250000
vt 0.600000 0.375000
vt 0.600000 0.500000
vt 0.600000 0.750000
vt 0.600000 0.875000
vt 0.400000 0.000000
vt 0.400000 1.000000
vt 0.400000 0.250000
vt 0.400000 0.375000
vt 0.400000 0.500000
vt 0.400000 0.750000
vt 0.400000 0.875000
vt 0.350000 0.250000
vt 0.375000 0.275000
vt 0.350000 0.000000
vt 0.375000 0.975000
vt 0.400000 0.975000
vt 0.500000 0.975000
vt 0.600000 0.975000
vt 0.625000 0.975000
vt 0.650000 0.000000
vt 0.625000 0.275000
vt 0.650000 0.250000
vt 0.600000 0.275000
vt 0.500000 0.275000
vt 0.400000 0.275000
vt 0.150000 0.250000
vt 0.375000 0.475000
vt 0.150000 0.000000
vt 0.375000 0.775000
vt 0.400000 0.775000
vt 0.500000 0.775000
vt 0.600000 0.775000
vt 0.625000 0.775000
vt 0.850000 0.000000
vt 0.625000 0.475000
vt 0.850000 0.250000
vt 0.600000 0.475000
vt 0.500000 0.475000
vt 0.400000 0.475000
vn 0.005236 0.000000 0.999986
vn 0.005236 0.000000 0.999986
vn 0.005236 0.000000 0.999986
vn 0.005236 0.000000 0.999986
vn -0.171370 0.985143 0.011178
vn -0.009386 0.985015 0.172214
vn -0.031706 0.998979 0.032182
vn 0.000901 0.985067 0.172170
vn 0.011189 0.985015 0.172107
vn 0.032041 0.998979 0.031848
vn 0.000183 0.999390 0.034935
vn -0.171433 0.985195 0.000898
vn -0.034781 0.999395 0.000182
vn -0.032041 0.998979 -0.031848
vn -0.171478 0.985143 -0.009383
vn 0.000000 1.000000 0.000000
vn 0.034781 0.999395 -0.000182
vn 0.031706 0.998979 -0.032182
vn -0.000183 0.999390 -0.034935
vn -0.005236 0.000000 -0.999986
vn -0.005236 0.000000 -0.999986
vn -0.005236 0.000000 -0.999986
vn -0.005236 0.000000 -0.999986
vn 0.000000 -1.000000 -0.000000
vn 0.000000 -1.000000 0.000000
vn 0.000000 -1.000000 -0.000000
vn 0.000000 -1.000000 -0.000000
vn 0.000000 -1.000000 0.000000
vn 0.000000 -1.000000 -0.000000
vn 0.000000 -1.000000 0.000000
vn 0.000000 -1.000000 0.000000
vn 0.000000 -1.000000 0.000000
vn 0.000000 -1.000000 0.000000
vn 0.000000 -1.000000 0.000000
vn 0.000000 -1.000000 0.000000
vn 0.999986 0.000000 -0.005236
vn 0.999986 0.000000 -0.005236
vn 0.999986 0.000000 -0.005236
vn 0.999986 0.000000 -0.005236
vn -0.999986 0.000000 0.005236
vn -0.999986 0.000000 0.005236
vn -0.999986 0.000000 0.005236
vn -0.999986 0.000000 0.005236
vn 0.171478 0.985143 0.009383
vn 0.171370 0.985143 -0.011178
vn 0.171433 0.985195 -0.000898
vn 0.000000 -1.000000 0.000000
vn 0.000000 -1.000000 0.000000
vn 0.005236 0.000000 0.999986
vn 0.005236 0.000000 0.999986
vn -0.005236 0.000000 -0.999986
vn -0.005236 0.000000 -0.999986
vn 0.000000 -1.000000 0.000000
vn 0.000000 -1.000000 0.000000
vn -0.999986 0.000000 0.005236
vn -0.999986 0.000000 0.005236
vn 0.000000 -1.000000 -0.000000
vn 0.000000 -1.000000 0.000000
vn 0.999986 0.000000 -0.005236
vn 0.999986 0.000000 -0.005236
vn 0.000000 -1.000000 0.000000
vn 0.000000 -1.000000 0.000000
vn 0.000000 -1.000000 -0.000000
vn 0.009386 0.985015 -0.172215
vn -0.000901 0.985067 -0.172170
vn -0.011189 0.985015 -0.172107
vn -0.701822 0.000000 0.712353
vn -0.701822 0.000000 0.712353
vn -0.701822 0.000000 0.712353
vn -0.701822 0.000000 0.712353
vn 0.709243 0.000000 0.704964
vn 0.709243 0.000000 0.704964
vn 0.709243 0.000000 0.704964
vn 0.709243 0.000000 0.704964
vn 0.701822 0.000000 -0.712353
vn 0.701822 0.000000 -0.712353
vn 0.701822 0.000000 -0.712353
vn 0.701822 0.000000 -0.712353
vn -0.709243 0.000000 -0.704964
vn -0.709243 0.000000 -0.704964
vn -0.709243 0.000000 -0.704964
vn -0.709243 0.000000 -0.704964
s 1
g group25 B03 pCube86
usemtl blinn2SG
f 107/145/231 117/160/232 118/162/233 108/146/234
s 2
f 129/175/235 124/169/236 138/187/237
f 108/146/238 118/162/239 136/185/240 137/186/241
f 109/147/242 125/170/243 148/201/244 139/189/245
f 110/148/246 119/163/247 146/199/248 147/200/249
s 4
f 112/150/250 120/164/251 121/165/252 113/151/253
s 5
f 140/191/254 141/192/255 128/173/256 114/152/257
f 142/193/258 143/194/259 122/166/260 115/153/261
f 132/179/262 133/180/263 117/161/264 107/155/265
s 7
f 116/156/266 144/196/267 145/198/268 111/157/269
s 8
f 139/188/270 140/190/271 114/158/272 109/159/273
s 2
f 135/183/274 136/185/240 118/162/239
f 145/197/275 146/199/248 119/163/247 111/149/276
s 5
f 122/166/260 143/194/259 144/195/277 116/154/278
s 1
f 124/169/279 123/167/280 107/145/231 108/146/234
s 2
f 137/186/241 138/187/237 124/169/236 108/146/238
f 147/200/249 148/201/244 125/170/243 110/148/246
s 4
f 127/172/281 126/171/282 112/150/250 113/151/253
s 5
f 128/173/256 141/192/255 142/193/258 115/153/261
f 123/168/283 131/178/284 132/179/262 107/155/265
s 8
f 114/158/272 130/176/285 129/174/286 109/159/273
s 5
f 114/152/257 128/173/256 131/178/284 130/177/287
f 132/179/262 131/178/284 128/173/256 115/153/261
f 115/153/261 122/166/260 133/180/263 132/179/262
f 134/181/288 133/180/263 122/166/260 116/154/278
s 7
f 135/184/289 134/182/290 116/156/266 111/157/269
s 2
f 119/163/247 136/185/240 135/183/274 111/149/276
f 137/186/241 136/185/240 119/163/247 110/148/246
f 125/170/243 138/187/237 137/186/241 110/148/246
f 129/175/235 138/187/237 125/170/243 109/147/242
s 5
f 142/193/258 141/192/255 127/172/291 113/151/292
f 113/151/292 121/165/293 143/194/259 142/193/258
s 2
f 120/164/294 146/199/248 145/197/275
f 147/200/249 146/199/248 120/164/294 112/150/295
f 126/171/296 148/201/244 147/200/249 112/150/295
f 139/189/245 148/201/244 126/171/296
s 5
f 130/177/287 131/178/284 123/168/283
f 117/161/264 133/180/263 134/181/288
f 144/195/277 143/194/259 121/165/293
f 140/191/254 127/172/291 141/192/255
s off
f 124/169/297 129/174/298 130/177/299 123/167/300
f 118/162/301 117/161/302 134/182/303 135/183/304
f 121/165/305 120/164/306 145/198/307 144/195/308
f 127/172/309 140/190/310 139/189/311 126/171/312
g default
v -1247.444824 398.993591 19.401367
v -660.136719 398.993591 16.326172
v -1247.444824 417.933838 19.401367
v -660.136719 417.933838 16.326172
v -1250.520020 417.933838 -567.906738
v -663.211914 417.933838 -570.981934
v -1250.520020 398.993591 -567.906738
v -663.211914 398.993591 -570.981934
v -953.790771 398.993591 17.863770
v -953.790771 417.933838 17.863770
v -956.865967 417.933838 -569.444336
v -956.865967 398.993591 -569.444336
v -1248.982422 417.933838 -274.252686
v -1248.982422 398.993591 -274.252686
v -955.328369 398.993591 -275.790283
v -661.674316 398.993591 -277.327881
v -661.674316 417.933838 -277.327881
v -955.328369 417.933838 -275.790283
vt 0.375000 0.000000
vt 0.625000 0.000000
vt 0.375000 0.250000
vt 0.625000 0.250000
vt 0.375000 0.500000
vt 0.625000 0.500000
vt 0.375000 0.750000
vt 0.625000 0.750000
vt 0.375000 1.000000
vt 0.625000 1.000000
vt 0.875000 0.000000
vt 0.875000 0.250000
vt 0.125000 0.000000
vt 0.125000 0.250000
vt 0.500000 0.000000
vt 0.500000 1.000000
vt 0.500000 0.250000
vt 0.500000 0.500000
vt 0.500000 0.750000
vt 0.250000 0.250000
vt 0.375000 0.375000
vt 0.250000 0.000000
vt 0.375000 0.875000
vt 0.500000 0.875000
vt 0.625000 0.875000
vt 0.750000 0.000000
vt 0.625000 0.375000
vt 0.750000 0.250000
vt 0.500000 0.375000
vn 0.005236 0.000000 0.999986
vn 0.005236 0.000000 0.999986
vn 0.005236 0.000000 0.999986
vn 0.005236 0.000000 0.999986
vn 0.000000 1.000000 0.000000
vn 0.000000 1.000000 0.000000
vn 0.000000 1.000000 0.000000
vn 0.000000 1.000000 0.000000
vn -0.005236 0.000000 -0.999986
vn -0.005236 0.000000 -0.999986
vn -0.005236 0.000000 -0.999986
vn -0.005236 0.000000 -0.999986
vn 0.000000 -1.000000 -0.000000
vn 0.000000 -1.000000 -0.000000
vn 0.000000 -1.000000 -0.000000
vn 0.000000 -1.000000 -0.000000
vn 0.999986 0.000000 -0.005236
vn 0.999986 0.000000 -0.005236
vn 0.999986 0.000000 -0.005236
vn 0.999986 0.000000 -0.005236
vn -0.999986 0.000000 0.005236
vn -0.999986 0.000000 0.005236
vn -0.999986 0.000000 0.005236
vn -0.999986 0.000000 0.005236
vn 0.005236 0.000000 0.999986
vn 0.005236 0.000000 0.999986
vn 0.000000 1.000000 -0.000000
vn 0.000000 1.000000 -0.000000
vn -0.005236 0.000000 -0.999986
vn -0.005236 0.000000 -0.999986
vn 0.000000 -1.000000 0.000000
vn 0.000000 -1.000000 0.000000
vn -0.999986 0.000000 0.005236
vn -0.999986 0.000000 0.005236
vn 0.000000 -1.000000 -0.000000
vn 0.000000 -1.000000 0.000000
vn 0.000000 -1.000000 0.000000
vn 0.999986 0.000000 -0.005236
vn 0.999986 0.000000 -0.005236
vn 0.000000 1.000000 0.000000
vn 0.000000 1.000000 0.000000
vn 0.000000 1.000000 0.000000
s 1
g group25 B03 pCube87
usemtl blinn3SG
f 149/202/313 157/216/314 158/218/315 151/204/316
s 2
f 151/204/317 158/218/318 166/230/319 161/222/320
s 3
f 153/206/321 159/219/322 160/220/323 155/208/324
s 4
f 162/224/325 163/225/326 157/217/327 149/210/328
s 5
f 150/203/329 164/227/330 165/229/331 152/205/332
s 6
f 161/221/333 162/223/334 149/202/335 151/204/336
s 1
f 158/218/315 157/216/314 150/203/337 152/205/338
s 2
f 165/228/339 166/230/319 158/218/318 152/205/340
s 3
f 160/220/323 159/219/322 154/207/341 156/209/342
s 4
f 157/217/327 163/225/326 164/226/343 150/211/344
s 6
f 155/214/345 162/223/334 161/221/333 153/215/346
s 4
f 155/208/347 160/220/348 163/225/326 162/224/325
f 164/226/343 163/225/326 160/220/348 156/209/349
s 5
f 165/229/331 164/227/330 156/212/350 154/213/351
s 2
f 159/219/352 166/230/319 165/228/339 154/207/353
f 161/222/320 166/230/319 159/219/352 153/206/354
g default
v -953.366638 433.546356 98.871460
v -953.366638 459.822784 98.871460
v -1331.650391 459.822784 -273.819855
v -955.328369 478.402008 -275.790283
v -579.006409 459.822784 -277.760712
v -957.290100 459.822784 -650.452026
v -957.290100 433.546356 -650.452026
v -1331.650391 433.546356 -273.819855
v -955.328369 417.933838 -275.790283
v -579.006409 433.546356 -277.760712
v -652.309082 433.546356 97.295105
v -652.309082 459.822784 97.295105
v -654.270752 478.402008 -277.366638
v -656.232544 459.822784 -652.028381
v -656.232544 433.546356 -652.028381
v -654.270752 417.933838 -277.366638
v -1254.424194 433.546356 100.447815
v -1254.424194 459.822784 100.447815
v -1256.385986 478.402008 -274.213928
v -1258.347656 459.822784 -648.875671
v -1258.347656 433.546356 -648.875671
v -1256.385986 417.933838 -274.213928
v -1330.080933 459.822784 25.909546
v -1330.080933 433.546356 25.909546
v -1254.816528 417.933838 25.515472
v -953.758972 417.933838 23.939117
v -652.701416 417.933838 22.362762
v -577.437012 433.546356 21.968689
v -577.437012 459.822784 21.968689
v -652.701416 478.402008 22.362762
v -953.758972 478.402008 23.939117
v -1254.816528 478.402008 25.515472
v -1333.219727 459.822784 -573.549255
v -1333.219727 433.546356 -573.549255
v -1257.955322 417.933838 -573.943359
v -956.897766 417.933838 -575.519653
v -655.840210 417.933838 -577.096069
v -580.575806 433.546356 -577.490112
v -580.575806 459.822784 -577.490112
v -655.840210 478.402008 -577.096069
v -956.897766 478.402008 -575.519653
v -1257.955322 478.402008 -573.943359
v -1330.865601 433.546356 -123.955154
v -1330.865601 459.822784 -123.955154
v -1255.601318 478.402008 -124.349228
v -954.543701 478.402008 -125.925583
v -653.486084 478.402008 -127.501938
v -578.221680 459.822784 -127.896011
v -578.221680 433.546356 -127.896011
v -653.486084 417.933838 -127.501938
v -954.543701 417.933838 -125.925583
v -1255.601318 417.933838 -124.349228
vt 0.500000 0.000000
vt 0.500000 0.250000
vt 0.375000 0.375000
vt 0.500000 0.375000
vt 0.625000 0.375000
vt 0.500000 0.500000
vt 0.500000 0.750000
vt 0.375000 0.875000
vt 0.500000 0.875000
vt 0.625000 0.875000
vt 0.500000 1.000000
vt 0.750000 0.000000
vt 0.750000 0.250000
vt 0.250000 0.000000
vt 0.250000 0.250000
vt 0.600000 0.000000
vt 0.600000 1.000000
vt 0.600000 0.250000
vt 0.600000 0.375000
vt 0.600000 0.500000
vt 0.600000 0.750000
vt 0.600000 0.875000
vt 0.400000 0.000000
vt 0.400000 1.000000
vt 0.400000 0.250000
vt 0.400000 0.375000
vt 0.400000 0.500000
vt 0.400000 0.750000
vt 0.400000 0.875000
vt 0.350000 0.250000
vt 0.375000 0.275000
vt 0.350000 0.000000
vt 0.375000 0.975000
vt 0.400000 0.975000
vt 0.500000 0.975000
vt 0.600000 0.975000
vt 0.625000 0.975000
vt 0.650000 0.000000
vt 0.625000 0.275000
vt 0.650000 0.250000
vt 0.600000 0.275000
vt 0.500000 0.275000
vt 0.400000 0.275000
vt 0.150000 0.250000
vt 0.375000 0.475000
vt 0.150000 0.000000
vt 0.375000 0.775000
vt 0.400000 0.775000
vt 0.500000 0.775000
vt 0.600000 0.775000
vt 0.625000 0.775000
vt 0.850000 0.000000
vt 0.625000 0.475000
vt 0.850000 0.250000
vt 0.600000 0.475000
vt 0.500000 0.475000
vt 0.400000 0.475000
vt 0.300000 0.000000
vt 0.375000 0.925000
vt 0.300000 0.250000
vt 0.375000 0.325000
vt 0.400000 0.325000
vt 0.500000 0.325000
vt 0.600000 0.325000
vt 0.625000 0.325000
vt 0.700000 0.250000
vt 0.625000 0.925000
vt 0.700000 0.000000
vt 0.600000 0.925000
vt 0.500000 0.925000
vt 0.400000 0.925000
vn 0.005236 0.000000 0.999986
vn 0.005236 0.000000 0.999986
vn 0.005236 0.000000 0.999986
vn 0.005236 0.000000 0.999986
vn -0.239417 0.970490 0.028793
vn -0.013355 0.970507 0.240704
vn -0.041739 0.996184 0.076658
vn 0.001260 0.970610 0.240653
vn 0.015875 0.970507 0.240551
vn 0.042539 0.996184 0.076216
vn 0.000431 0.996602 0.082366
vn -0.239652 0.970858 0.001255
vn -0.049309 0.998784 0.000258
vn -0.045333 0.997955 -0.045059
vn -0.239703 0.970754 -0.013355
vn 0.000000 1.000000 0.000000
vn 0.049309 0.998784 -0.000258
vn 0.044858 0.997955 -0.045531
vn -0.000259 0.998773 -0.049527
vn -0.005236 0.000000 -0.999986
vn -0.005236 0.000000 -0.999986
vn -0.005236 0.000000 -0.999986
vn -0.005236 0.000000 -0.999986
vn -0.203155 -0.979083 -0.011202
vn -0.038153 -0.998552 -0.037923
vn -0.041450 -0.999141 0.000217
vn -0.203106 -0.979156 0.001063
vn -0.000218 -0.999133 -0.041634
vn 0.037754 -0.998552 -0.038320
vn 0.041450 -0.999141 -0.000217
vn 0.000000 -1.000000 -0.000000
vn 0.000363 -0.997597 0.069283
vn 0.035848 -0.997295 0.064169
vn 0.013340 -0.978903 0.203889
vn 0.001068 -0.978977 0.203969
vn 0.999986 0.000000 -0.005236
vn 0.999986 0.000000 -0.005236
vn 0.999986 0.000000 -0.005236
vn 0.999986 0.000000 -0.005236
vn -0.999986 0.000000 0.005236
vn -0.999986 0.000000 0.005236
vn -0.999986 0.000000 0.005236
vn -0.999986 0.000000 0.005236
vn 0.239706 0.970490 0.026285
vn 0.239551 0.970754 -0.015864
vn 0.239653 0.970858 -0.001255
vn 0.203027 -0.979082 -0.013329
vn 0.203106 -0.979156 -0.001063
vn 0.005236 0.000000 0.999986
vn 0.005236 0.000000 0.999986
vn -0.005236 0.000000 -0.999986
vn -0.005236 0.000000 -0.999986
vn -0.011204 -0.978903 0.204018
vn -0.035174 -0.997295 0.064541
vn -0.999986 0.000000 0.005236
vn -0.999986 0.000000 0.005236
vn -0.041450 -0.999141 0.000217
vn -0.203106 -0.979156 0.001064
vn 0.000000 -1.000000 0.000000
vn 0.041450 -0.999141 -0.000217
vn 0.203106 -0.979156 -0.001063
vn 0.999986 0.000000 -0.005236
vn 0.999986 0.000000 -0.005236
vn 0.049309 0.998784 -0.000258
vn 0.239652 0.970858 -0.001255
vn 0.000000 1.000000 -0.000000
vn -0.049309 0.998784 0.000258
vn -0.239652 0.970858 0.001255
vn -0.013340 -0.978903 -0.203889
vn -0.001068 -0.978977 -0.203969
vn 0.011204 -0.978903 -0.204018
vn 0.013355 0.970507 -0.240704
vn -0.001260 0.970610 -0.240653
vn -0.015875 0.970507 -0.240551
vn -0.202931 -0.978894 0.024198
vn 0.203173 -0.978894 0.022072
vn -0.701822 0.000000 0.712353
vn -0.701822 0.000000 0.712353
vn -0.701822 0.000000 0.712353
vn -0.701822 0.000000 0.712353
vn 0.709243 0.000000 0.704964
vn 0.709243 0.000000 0.704964
vn 0.709243 0.000000 0.704964
vn 0.709243 0.000000 0.704964
vn 0.701822 0.000000 -0.712353
vn 0.701822 0.000000 -0.712353
vn 0.701822 0.000000 -0.712353
vn 0.701822 0.000000 -0.712353
vn -0.709243 0.000000 -0.704964
vn -0.709243 0.000000 -0.704964
vn -0.709243 0.000000 -0.704964
vn -0.709243 0.000000 -0.704964
vn -0.999986 0.000000 0.005236
vn -0.999986 0.000000 0.005236
vn 0.999986 0.000000 -0.005236
vn 0.999986 0.000000 -0.005236
s 1
g group25 B03 pCube88
usemtl blinn2SG
f 167/231/355 177/246/356 178/248/357 168/232/358
s 2
f 189/261/359 184/255/360 198/273/361
f 168/232/362 178/248/363 196/271/364 197/272/365
f 169/233/366 185/256/367 208/287/368 199/275/369
f 170/234/370 179/249/371 206/285/372 207/286/373
s 6
f 172/236/374 180/250/375 181/251/376 173/237/377
s 7
f 200/277/378 201/278/379 188/259/380 174/238/381
f 202/279/382 203/280/383 182/252/384 175/239/385
f 192/265/386 193/266/387 177/247/388 167/241/389
s 10
f 176/242/390 204/282/391 205/284/392 171/243/393
s 11
f 199/274/394 200/276/395 174/244/396 169/245/397
s 2
f 195/269/398 196/271/364 178/248/363
f 205/283/399 206/285/372 179/249/371 171/235/400
s 7
f 182/252/384 203/280/383 204/281/401 176/240/402
s 1
f 184/255/403 183/253/404 167/231/355 168/232/358
s 2
f 197/272/365 198/273/361 184/255/360 168/232/362
f 207/286/373 208/287/368 185/256/367 170/234/370
s 6
f 187/258/405 186/257/406 172/236/374 173/237/377
s 7
f 188/259/380 201/278/379 202/279/382 175/239/385
f 183/254/407 191/264/408 192/265/386 167/241/389
s 11
f 174/244/396 209/288/409 210/290/410 169/245/397
s 7
f 174/238/381 188/259/380 218/301/411 209/289/412
f 217/300/413 218/301/411 188/259/380 175/239/385
f 175/239/385 182/252/384 216/299/414 217/300/413
f 215/297/415 216/299/414 182/252/384 176/240/402
s 10
f 214/296/416 215/298/417 176/242/390 171/243/393
s 2
f 179/249/371 213/294/418 214/295/419 171/235/400
f 212/293/420 213/294/418 179/249/371 170/234/370
f 185/256/367 211/292/421 212/293/420 170/234/370
f 210/291/422 211/292/421 185/256/367 169/233/366
s 7
f 202/279/382 201/278/379 187/258/423 173/237/424
f 173/237/424 181/251/425 203/280/383 202/279/382
s 2
f 180/250/426 206/285/372 205/283/399
f 207/286/373 206/285/372 180/250/426 172/236/427
f 186/257/428 208/287/368 207/286/373 172/236/427
f 199/275/369 208/287/368 186/257/428
s 7
f 190/263/429 191/264/408 183/254/407
f 177/247/388 193/266/387 194/267/430
f 204/281/401 203/280/383 181/251/425
f 200/277/378 187/258/423 201/278/379
s off
f 184/255/431 189/260/432 190/263/433 183/253/434
f 178/248/435 177/247/436 194/268/437 195/269/438
f 181/251/439 180/250/440 205/284/441 204/281/442
f 187/258/443 200/276/444 199/275/445 186/257/446
s 11
f 210/290/410 209/288/409 190/262/447 189/260/448
s 2
f 189/261/359 198/273/361 211/292/421 210/291/422
f 212/293/420 211/292/421 198/273/361 197/272/365
f 197/272/365 196/271/364 213/294/418 212/293/420
f 214/295/419 213/294/418 196/271/364 195/269/398
s 10
f 195/270/449 194/268/450 215/298/417 214/296/416
s 7
f 194/267/430 193/266/387 216/299/414 215/297/415
f 217/300/413 216/299/414 193/266/387 192/265/386
f 192/265/386 191/264/408 218/301/411 217/300/413
f 209/289/412 218/301/411 191/264/408 190/263/429
g default
v -953.784058 478.402008 19.146088
v -953.784058 530.812073 19.146088
v -1251.571655 530.812073 -274.239105
v -955.328369 530.812073 -275.790253
v -659.085083 530.812073 -277.341431
v -956.872742 530.812073 -570.726624
v -956.872742 478.402008 -570.726624
v -1251.571655 478.402008 -274.239105
v -955.328369 478.402008 -275.790253
v -659.085083 478.402008 -277.341431
v -716.789490 478.402008 17.905182
v -716.789490 530.812073 17.905182
v -718.333801 530.812073 -277.031158
v -719.878052 530.812073 -571.967529
v -719.878052 478.402008 -571.967529
v -718.333801 478.402008 -277.031158
v -1190.778809 478.402008 20.386993
v -1190.778809 530.812073 20.386993
v -1192.323120 530.812073 -274.549347
v -1193.867432 530.812073 -569.485718
v -1193.867432 478.402008 -569.485718
v -1192.323120 478.402008 -274.549347
v -1250.336182 530.812073 -38.290024
v -1250.336182 478.402008 -38.290024
v -1191.087524 478.402008 -38.600281
v -954.093079 478.402008 -39.841171
v -717.098328 478.402008 -41.082077
v -657.849731 478.402008 -41.392334
v -657.849731 530.812073 -41.392334
v -717.098328 530.812073 -41.082077
v -954.093079 530.812073 -39.841171
v -1191.087524 530.812073 -38.600281
v -1252.807251 530.812073 -510.188232
v -1252.807251 478.402008 -510.188232
v -1193.558594 478.402008 -510.498474
v -956.563782 478.402008 -511.739380
v -719.569275 478.402008 -512.980286
v -660.320618 478.402008 -513.290527
v -660.320618 530.812073 -513.290527
v -719.569275 530.812073 -512.980286
v -956.563782 530.812073 -511.739380
v -1193.558594 530.812073 -510.498474
v -1251.100220 478.402008 -184.202118
v -1251.100220 530.812073 -184.202118
v -1191.851685 530.812073 -184.512360
v -954.856995 530.812073 -185.753265
v -717.862366 530.812073 -186.994171
v -658.613770 530.812073 -187.304428
v -658.613770 478.402008 -187.304428
v -717.862366 478.402008 -186.994171
v -954.856995 478.402008 -185.753265
v -1191.851685 478.402008 -184.512360
v -1250.478516 530.812073 -65.465576
v -1250.478516 478.402008 -65.465576
v -1191.229980 478.402008 -65.775818
v -954.235291 478.402008 -67.016724
v -717.240662 478.402008 -68.257599
v -657.992065 478.402008 -68.567871
v -657.992065 530.812073 -68.567871
v -717.240662 530.812073 -68.257599
v -954.235291 530.812073 -67.016724
v -1191.229980 530.812073 -65.775818
v -1250.336182 561.112061 -38.290024
v -1190.778809 561.112061 20.386993
v -1191.087524 561.112061 -38.600281
v -953.784058 561.112061 19.146088
v -716.789490 561.112061 17.905182
v -717.098328 561.112061 -41.082077
v -954.093079 561.112061 -39.841171
v -1251.571655 561.112061 -274.239105
v -1192.323120 561.112061 -274.549347
v -1193.558594 561.112061 -510.498474
v -1252.807251 561.112061 -510.188232
v -657.849731 561.112061 -41.392349
v -660.320618 561.112061 -513.290527
v -719.569275 561.112061 -512.980286
v -718.333801 561.112061 -277.031158
v -659.085083 561.112061 -277.341431
v -717.862366 561.112061 -186.994171
v -658.613770 561.112061 -187.304428
v -1251.100220 561.112061 -184.202118
v -1191.851685 561.112061 -184.512360
v -719.878052 561.112061 -571.967529
v -956.563782 561.112061 -511.739380
v -956.872742 561.112061 -570.726624
v -1193.867432 561.112061 -569.485718
v -1191.229980 561.112061 -65.775818
v -1250.478516 561.112061 -65.465576
v -657.992065 561.112061 -68.567871
v -717.240662 561.112061 -68.257629
vt 0.500000 0.000000
vt 0.500000 0.250000
vt 0.375000 0.375000
vt 0.500000 0.375000
vt 0.625000 0.375000
vt 0.500000 0.500000
vt 0.500000 0.750000
vt 0.375000 0.875000
vt 0.500000 0.875000
vt 0.625000 0.875000
vt 0.500000 1.000000
vt 0.750000 0.000000
vt 0.750000 0.250000
vt 0.250000 0.000000
vt 0.250000 0.250000
vt 0.600000 0.000000
vt 0.600000 1.000000
vt 0.600000 0.250000
vt 0.600000 0.375000
vt 0.600000 0.500000
vt 0.600000 0.750000
vt 0.600000 0.875000
vt 0.400000 0.000000
vt 0.400000 1.000000
vt 0.400000 0.250000
vt 0.400000 0.375000
vt 0.400000 0.500000
vt 0.400000 0.750000
vt 0.400000 0.875000
vt 0.350000 0.250000
vt 0.375000 0.275000
vt 0.350000 0.000000
vt 0.375000 0.975000
vt 0.400000 0.975000
vt 0.500000 0.975000
vt 0.600000 0.975000
vt 0.625000 0.975000
vt 0.650000 0.000000
vt 0.625000 0.275000
vt 0.650000 0.250000
vt 0.600000 0.275000
vt 0.500000 0.275000
vt 0.400000 0.275000
vt 0.150000 0.250000
vt 0.375000 0.475000
vt 0.150000 0.000000
vt 0.375000 0.775000
vt 0.400000 0.775000
vt 0.500000 0.775000
vt 0.600000 0.775000
vt 0.625000 0.775000
vt 0.850000 0.000000
vt 0.625000 0.475000
vt 0.850000 0.250000
vt 0.600000 0.475000
vt 0.500000 0.475000
vt 0.400000 0.475000
vt 0.288159 0.000000
vt 0.375000 0.913159
vt 0.288159 0.250000
vt 0.375000 0.336841
vt 0.400000 0.336841
vt 0.500000 0.336841
vt 0.600000 0.336841
vt 0.625000 0.336841
vt 0.711841 0.250000
vt 0.625000 0.913159
vt 0.711840 0.000000
vt 0.600000 0.913159
vt 0.500000 0.913159
vt 0.400000 0.913159
vt 0.338482 0.250000
vt 0.375000 0.286518
vt 0.338482 0.000000
vt 0.375000 0.963482
vt 0.400000 0.963482
vt 0.500000 0.963482
vt 0.600000 0.963482
vt 0.625000 0.963482
vt 0.661518 0.000000
vt 0.625000 0.286518
vt 0.661518 0.250000
vt 0.600000 0.286518
vt 0.500000 0.286518
vt 0.400000 0.286518
vt 0.375000 0.275000
vt 0.400000 0.250000
vt 0.500000 0.250000
vt 0.600000 0.250000
vt 0.600000 0.275000
vt 0.500000 0.275000
vt 0.400000 0.375000
vt 0.400000 0.475000
vt 0.375000 0.475000
vt 0.375000 0.375000
vt 0.625000 0.275000
vt 0.600000 0.475000
vt 0.600000 0.375000
vt 0.625000 0.375000
vt 0.625000 0.475000
vt 0.400000 0.275000
vt 0.600000 0.336841
vt 0.625000 0.336841
vt 0.375000 0.336841
vt 0.400000 0.336841
vt 0.600000 0.500000
vt 0.500000 0.475000
vt 0.500000 0.500000
vt 0.400000 0.500000
vt 0.400000 0.286518
vt 0.375000 0.286518
vt 0.600000 0.286518
vt 0.625000 0.286518
vn 0.005236 0.000000 0.999986
vn 0.005236 0.000000 0.999986
vn 0.005236 0.000000 0.999986
vn 0.005236 0.000000 0.999986
vn 0.000000 1.000000 -0.000001
vn 0.000000 1.000000 0.000000
vn 0.000000 1.000000 0.000000
vn 0.000000 1.000000 -0.000000
vn 0.000000 1.000000 -0.000000
vn 0.000000 1.000000 -0.000000
vn 0.000000 1.000000 0.000000
vn 0.000000 1.000000 0.000000
vn 0.000000 1.000000 0.000000
vn 0.000000 1.000000 0.000000
vn 0.000000 1.000000 0.000000
vn 0.000000 1.000000 0.000000
vn 0.000000 1.000000 0.000000
vn 0.000000 1.000000 0.000000
vn 0.000000 1.000000 0.000000
vn -0.005236 0.000000 -0.999986
vn -0.005236 0.000000 -0.999986
vn -0.005236 0.000000 -0.999986
vn -0.005236 0.000000 -0.999986
vn 0.000000 -1.000000 0.000000
vn 0.000000 -1.000000 0.000000
vn 0.000000 -1.000000 0.000000
vn 0.000000 -1.000000 0.000000
vn 0.000000 -1.000000 0.000000
vn 0.000000 -1.000000 0.000000
vn 0.000000 -1.000000 -0.000000
vn 0.000000 -1.000000 -0.000000
vn 0.000000 -1.000000 0.000000
vn 0.000000 -1.000000 0.000000
vn 0.000000 -1.000000 0.000000
vn 0.000000 -1.000000 0.000000
vn 0.999986 0.000000 -0.005236
vn 0.999986 0.000000 -0.005236
vn 0.999986 0.000000 -0.005236
vn 0.999986 0.000000 -0.005236
vn -0.999986 0.000000 0.005237
vn -0.999986 0.000000 0.005237
vn -0.999986 0.000000 0.005236
vn -0.999986 0.000000 0.005236
vn 0.000000 1.000000 -0.000001
vn 0.000000 1.000000 -0.000000
vn 0.000000 1.000000 0.000000
vn 0.000000 1.000000 0.000000
vn 0.000000 1.000000 0.000000
vn 0.000000 -1.000000 -0.000000
vn 0.000000 -1.000000 -0.000000
vn 0.005236 0.000000 0.999986
vn 0.005236 0.000000 0.999986
vn 0.000000 1.000000 0.000000
vn 0.000000 1.000000 0.000000
vn -0.005236 0.000000 -0.999986
vn -0.005236 0.000000 -0.999986
vn 0.000000 -1.000000 0.000000
vn 0.000000 -1.000000 -0.000000
vn -0.999986 0.000000 0.005236
vn -0.999986 0.000000 0.005236
vn 0.000000 -1.000000 -0.000000
vn 0.000000 -1.000000 0.000000
vn 0.000000 -1.000000 -0.000000
vn 0.000000 -1.000000 -0.000000
vn 0.000000 -1.000000 -0.000000
vn 0.999986 0.000000 -0.005235
vn 0.999986 0.000000 -0.005235
vn 0.000000 1.000000 0.000000
vn 0.000000 1.000000 0.000000
vn 0.000000 1.000000 -0.000000
vn 0.000000 1.000000 -0.000000
vn 0.000000 1.000000 -0.000000
vn 0.000000 1.000000 -0.000000
vn 0.000000 1.000000 -0.000000
vn 0.000000 -1.000000 0.000000
vn 0.000000 -1.000000 0.000000
vn 0.000000 -1.000000 0.000000
vn 0.000000 1.000000 0.000001
vn 0.000000 1.000000 0.000000
vn 0.000000 1.000000 0.000000
vn 0.000000 1.000000 0.000000
vn 0.000000 -1.000000 0.000000
vn 0.000000 -1.000000 0.000000
vn -0.701822 0.000000 0.712352
vn -0.701822 0.000000 0.712352
vn -0.701822 0.000000 0.712352
vn -0.701822 0.000000 0.712352
vn 0.709243 0.000000 0.704964
vn 0.709243 0.000000 0.704964
vn 0.709243 0.000000 0.704964
vn 0.709243 0.000000 0.704964
vn 0.701822 0.000000 -0.712352
vn 0.701822 0.000000 -0.712352
vn 0.701822 0.000000 -0.712352
vn 0.701822 0.000000 -0.712352
vn -0.709243 0.000000 -0.704965
vn -0.709243 0.000000 -0.704965
vn -0.709242 0.000000 -0.704965
vn -0.709242 0.000000 -0.704965
vn -0.999986 0.000000 0.005236
vn -0.999986 0.000000 0.005236
vn -0.999986 0.000000 0.005238
vn -0.999986 0.000000 0.005238
vn 0.000000 1.000000 -0.000001
vn 0.000000 1.000000 -0.000001
vn 0.000000 1.000000 0.000000
vn 0.000000 1.000000 -0.000000
vn 0.000000 1.000000 -0.000001
vn 0.000000 1.000000 -0.000000
vn 0.000000 1.000000 0.000001
vn 0.000000 1.000000 0.000000
vn 0.000000 1.000000 0.000000
vn 0.000000 1.000000 0.000000
vn 0.999986 0.000000 -0.005238
vn 0.999986 0.000000 -0.005238
vn 0.999986 0.000000 -0.005236
vn 0.999986 0.000000 -0.005236
vn 0.000000 -1.000000 0.000000
vn 0.000000 -1.000000 0.000000
vn 0.000000 -1.000000 0.000000
vn 0.000000 -1.000000 -0.000000
vn 0.000000 -1.000000 -0.000000
vn 0.000000 1.000000 -0.000000
vn 0.000000 1.000000 -0.000000
vn -0.701823 0.000000 0.712352
vn -0.701823 0.000000 0.712352
vn 0.005236 0.000000 0.999986
vn 0.005236 0.000000 0.999986
vn -0.005236 0.000000 -0.999986
vn -0.005236 0.000000 -0.999986
vn -0.005236 0.000000 -0.999986
vn -0.005236 0.000000 -0.999986
vn 0.999986 0.000000 -0.005236
vn 0.999986 0.000000 -0.005236
vn 0.999986 0.000000 -0.005236
vn 0.999986 0.000000 -0.005236
vn -0.999986 0.000000 0.005236
vn -0.999986 0.000000 0.005237
vn 0.709243 0.000000 0.704964
vn 0.709243 0.000000 0.704964
vn -0.999986 0.000000 0.005236
vn -0.999986 0.000000 0.005236
vn -0.999986 0.000000 0.005236
vn -0.999986 0.000000 0.005236
vn 0.999986 0.000000 -0.005236
vn 0.999986 0.000000 -0.005236
vn -0.005236 0.000000 -0.999986
vn -0.005236 0.000000 -0.999986
vn 0.005236 0.000000 0.999986
vn -0.999986 0.000000 0.005236
vn -0.999986 0.000000 0.005236
vn 0.999986 0.000000 -0.005235
vn 0.005236 0.000000 0.999986
vn 0.005236 0.000000 0.999986
vn 0.005236 0.000000 0.999986
vn 0.005236 0.000000 0.999986
vn 0.999986 0.000000 -0.005236
vn 0.999986 0.000000 -0.005236
vn -0.999986 0.000000 0.005236
vn 0.701822 0.000000 -0.712352
vn 0.701822 0.000000 -0.712352
vn 0.005236 0.000000 0.999986
vn 0.005236 0.000000 0.999986
vn 0.005236 0.000000 0.999986
vn 0.005236 0.000000 0.999986
vn -0.005236 0.000000 -0.999986
vn -0.005236 0.000000 -0.999986
vn 0.005236 0.000000 0.999986
vn 0.005236 0.000000 0.999986
vn -0.005236 0.000000 -0.999986
vn -0.709242 0.000000 -0.704965
vn -0.709242 0.000000 -0.704965
vn 0.999986 0.000000 -0.005242
vn 0.999986 0.000000 -0.005242
vn 0.999986 0.000000 -0.005242
vn 0.999986 0.000000 -0.005242
vn -0.005236 0.000000 -0.999986
vn -0.005236 0.000000 -0.999986
vn -0.005236 0.000000 -0.999986
vn -0.005236 0.000000 -0.999986
vn -0.999986 0.000000 0.005238
vn -0.999986 0.000000 0.005238
vn -0.999986 0.000000 0.005236
vn -0.999986 0.000000 0.005238
vn -0.999986 0.000000 0.005238
vn -0.999986 0.000000 0.005236
vn 0.999986 0.000000 -0.005236
vn 0.999986 0.000000 -0.005238
s 1
g group25 B03 pCube89
usemtl blinn2SG
f 219/302/451 229/317/452 230/319/453 220/303/454
s 2
f 281/387/455 282/388/456 283/402/457
f 284/389/458 285/390/459 286/391/460 287/392/461
f 288/396/462 289/393/463 290/394/464 291/395/465
s 5
f 222/305/466 231/320/467 258/356/468 259/357/469
s 6
f 224/307/470 232/321/471 233/322/472 225/308/473
s 7
f 252/348/474 253/349/475 240/330/476 226/309/477
f 254/350/478 255/351/479 234/323/480 227/310/481
f 244/336/482 245/337/483 229/318/484 219/312/485
s 10
f 228/313/486 256/353/487 257/355/488 223/314/489
s 11
f 251/345/490 252/347/491 226/315/492 221/316/493
s 2
f 292/397/494 286/391/460 285/390/459
f 293/401/495 294/398/496 295/399/497 296/400/498
s 7
f 234/323/480 255/351/479 256/352/499 228/311/500
s 1
f 236/326/501 235/324/502 219/302/451 220/303/454
s 2
f 287/392/461 283/402/457 282/388/456 284/389/458
s 5
f 259/357/469 260/358/503 237/327/504 222/305/466
s 6
f 239/329/505 238/328/506 224/307/470 225/308/473
s 7
f 240/330/476 253/349/475 254/350/478 227/310/481
f 235/325/507 243/335/508 244/336/482 219/312/485
s 11
f 226/315/492 261/359/509 262/361/510 221/316/493
s 7
f 226/309/477 240/330/476 270/372/511 261/360/512
f 269/371/513 270/372/511 240/330/476 227/310/481
f 227/310/481 234/323/480 268/370/514 269/371/513
f 267/368/515 268/370/514 234/323/480 228/311/500
s 10
f 266/367/516 267/369/517 228/313/486 223/314/489
s 2
f 295/399/497 297/403/518 298/404/519 296/400/498
s 5
f 264/364/520 265/365/521 231/320/467 222/305/466
f 237/327/504 263/363/522 264/364/520 222/305/466
s 2
f 299/405/523 300/406/524 289/393/463 288/396/462
s 7
f 254/350/478 253/349/475 239/329/525 225/308/526
f 225/308/526 233/322/527 255/351/479 254/350/478
s 2
f 301/407/528 294/398/496 293/401/495
f 302/408/529 294/398/496 301/407/528 303/409/530
f 304/410/531 290/394/464 302/408/529 303/409/530
f 291/395/465 290/394/464 304/410/531
s 7
f 242/334/532 243/335/508 235/325/507
f 229/318/484 245/337/483 246/338/533
f 256/352/499 255/351/479 233/322/527
f 252/348/474 239/329/525 253/349/475
s 13
f 236/326/534 241/331/535 242/334/536 235/324/537
s 14
f 230/319/538 229/318/539 246/339/540 247/340/541
s 15
f 233/322/542 232/321/543 257/355/544 256/352/545
s 16
f 239/329/546 252/347/547 251/346/548 238/328/549
s 11
f 271/373/550 272/375/551 242/333/552 241/331/553
s 2
f 281/387/455 283/402/457 305/411/554 306/412/555
s 5
f 279/385/556 280/386/557 250/344/558 249/343/559
f 249/343/559 248/342/560 278/384/561 279/385/556
s 2
f 307/414/562 308/413/563 286/391/460 292/397/494
s 10
f 247/341/564 246/339/565 276/381/566 277/383/567
s 7
f 246/338/533 245/337/483 275/379/568 276/380/569
f 274/378/570 275/379/568 245/337/483 244/336/482
f 244/336/482 243/335/508 273/377/571 274/378/570
f 272/376/572 273/377/571 243/335/508 242/334/532
s 11
f 262/361/510 261/359/509 272/375/551 271/373/550
s 7
f 261/360/512 270/372/511 273/377/571 272/376/572
f 274/378/570 273/377/571 270/372/511 269/371/513
f 269/371/513 268/370/514 275/379/568 274/378/570
f 276/380/569 275/379/568 268/370/514 267/368/515
s 10
f 277/383/567 276/381/566 267/369/517 266/367/516
s 2
f 298/404/519 297/403/518 308/413/563 307/414/562
s 5
f 279/385/556 278/384/561 265/365/521 264/364/520
f 264/364/520 263/363/522 280/386/557 279/385/556
f 271/374/573 280/386/557 263/363/522 262/362/574
s 13
f 241/332/535 236/326/534 282/388/575 281/387/576
s 1
f 220/303/454 230/319/453 285/390/577 284/389/578
s 17
f 248/342/579 249/343/580 287/392/581 286/391/582
s 18
f 237/327/583 260/358/584 290/394/585 289/393/586
s 11
f 251/346/490 221/304/493 288/396/587 291/395/588
s 14
f 230/319/538 247/340/541 292/397/589 285/390/590
s 19
f 258/356/591 231/320/592 295/399/593 294/398/594
s 10
f 223/306/489 257/354/488 293/401/595 296/400/596
s 17
f 249/343/580 250/344/597 283/402/598 287/392/581
s 1
f 236/326/501 220/303/454 284/389/578 282/388/599
s 19
f 231/320/592 265/365/600 297/403/601 295/399/593
s 10
f 266/366/516 223/306/489 296/400/596 298/404/602
s off
f 262/362/603 263/363/604 300/406/605 299/405/606
s 18
f 263/363/607 237/327/583 289/393/586 300/406/608
s 11
f 221/304/493 262/362/510 299/405/609 288/396/587
s 15
f 257/354/544 232/321/543 301/407/610 293/401/611
s 20
f 259/357/612 258/356/613 294/398/614 302/408/615
s 6
f 232/321/471 224/307/470 303/409/616 301/407/617
s 20
f 260/358/618 259/357/612 302/408/615 290/394/619
s 6
f 224/307/470 238/328/506 304/410/620 303/409/616
s 16
f 238/328/549 251/346/548 291/395/621 304/410/622
s off
f 250/344/623 280/386/624 305/411/625 283/402/626
f 280/386/627 271/374/628 306/412/629 305/411/630
s 11
f 271/374/550 241/332/553 281/387/631 306/412/632
s 19
f 278/384/633 248/342/634 286/391/635 308/413/636
s 10
f 247/340/564 277/382/567 307/414/637 292/397/638
s 19
f 265/365/600 278/384/633 308/413/636 297/403/601
s 10
f 277/382/567 266/366/516 298/404/602 307/414/637
g default
v -1380.603271 -6.332550 -73.694016
v -1280.604492 -6.332550 -74.217567
v -1380.603271 642.281555 -73.694016
v -1280.604614 642.281555 -74.217606
v -1381.126953 642.281555 -173.692673
v -1281.128174 642.281555 -174.216232
v -1381.126953 -6.332550 -173.692673
v -1281.128296 -6.332550 -174.216202
v -1380.603271 530.812073 -73.694016
v -1381.126953 530.812073 -173.692673
v -1281.128296 530.812073 -174.216202
v -1280.604492 530.812073 -74.217567
v -981.132568 530.812073 -175.787231
v -980.608887 530.812073 -75.788589
v -981.132996 642.281006 -175.787369
v -980.608521 642.281006 -75.788513
v -1380.865112 642.281555 -123.693344
v -1380.865112 530.812073 -123.693344
v -1380.865112 -6.332550 -123.693344
v -1280.866211 -6.332550 -124.216888
v -1280.866211 530.812073 -124.216888
v -980.870544 530.812073 -125.787865
v -980.870911 642.281006 -125.788002
v -1280.865967 642.281555 -124.216812
vt 0.375000 0.000000
vt 0.625000 0.000000
vt 0.375000 0.250000
vt 0.625000 0.250000
vt 0.375000 0.500000
vt 0.625000 0.500000
vt 0.375000 0.750000
vt 0.625000 0.750000
vt 0.375000 1.000000
vt 0.625000 1.000000
vt 0.875000 0.000000
vt 0.875000 0.250000
vt 0.125000 0.000000
vt 0.125000 0.250000
vt 0.375000 0.200000
vt 0.125000 0.200000
vt 0.375000 0.550000
vt 0.625000 0.550000
vt 0.875000 0.200000
vt 0.625000 0.200000
vt 0.625000 0.200000
vt 0.875000 0.200000
vt 0.875000 0.250000
vt 0.625000 0.250000
vt 0.250000 0.250000
vt 0.375000 0.375000
vt 0.250000 0.200000
vt 0.250000 0.000000
vt 0.375000 0.875000
vt 0.625000 0.875000
vt 0.750000 0.000000
vt 0.750000 0.200000
vt 0.750000 0.200000
vt 0.750000 0.250000
vt 0.625000 0.375000
vt 0.750000 0.250000
vn 0.005236 0.000000 0.999986
vn 0.005236 0.000000 0.999986
vn 0.005236 -0.000000 0.999986
vn 0.005236 0.000000 0.999986
vn 0.000000 1.000000 0.000000
vn 0.000001 1.000000 0.000001
vn 0.000001 1.000000 0.000000
vn 0.000000 1.000000 0.000000
vn -0.005235 -0.000000 -0.999986
vn -0.005236 -0.000000 -0.999986
vn -0.005235 0.000000 -0.999986
vn -0.005235 0.000000 -0.999986
vn 0.000000 -1.000000 0.000000
vn 0.000000 -1.000000 0.000000
vn 0.000000 -1.000000 0.000000
vn 0.000000 -1.000000 0.000000
vn 0.999986 0.000000 -0.005234
vn 0.999986 0.000000 -0.005238
vn 0.999986 0.000000 -0.005238
vn 0.999986 0.000000 -0.005234
vn -0.999986 0.000000 0.005237
vn -0.999986 0.000000 0.005237
vn -0.999986 0.000000 0.005237
vn -0.999986 0.000000 0.005237
vn -0.999986 0.000000 0.005237
vn -0.999986 0.000000 0.005237
vn -0.005235 -0.000000 -0.999986
vn -0.005237 -0.000001 -0.999986
vn 0.999986 -0.000000 -0.005240
vn 0.999986 0.000002 -0.005241
vn 0.999986 0.000002 -0.005241
vn 0.999986 -0.000000 -0.005240
vn 0.005236 -0.000000 0.999986
vn 0.005236 0.000000 0.999986
vn 0.000000 -1.000000 0.000000
vn 0.000000 -1.000000 0.000000
vn 0.000000 -1.000000 0.000000
vn 0.000000 -1.000000 0.000000
vn -0.005237 -0.000001 -0.999986
vn -0.005237 -0.000001 -0.999986
vn 0.000002 1.000000 0.000000
vn 0.000002 1.000000 0.000001
vn 0.005237 -0.000000 0.999986
vn 0.005237 -0.000000 0.999986
vn -0.999986 0.000000 0.005237
vn -0.999986 0.000000 0.005237
vn -0.999986 0.000000 0.005237
vn 0.000000 -1.000000 0.000000
vn 0.000000 -1.000000 0.000000
vn 0.999986 0.000000 -0.005242
vn 0.999986 0.000000 -0.005242
vn 0.000000 -1.000000 0.000001
vn 0.000000 -1.000000 0.000001
vn 0.999986 0.000004 -0.005241
vn 0.999986 0.000004 -0.005241
vn 0.000001 1.000000 0.000000
vn 0.000002 1.000000 0.000000
vn 0.000000 1.000000 0.000000
s 1
g group25 B03 pCube90
usemtl blinn3SG
f 309/415/639 310/416/640 320/434/641 317/429/642
s 2
f 311/417/643 312/418/644 332/449/645 325/440/646
s 3
f 318/431/647 319/432/648 316/422/649 315/421/650
s 4
f 327/443/651 328/444/652 310/424/653 309/423/654
s 5
f 310/416/655 328/445/656 329/446/657 320/434/658
s 6
f 326/441/659 327/442/660 309/415/661 317/429/662
f 325/439/663 326/441/659 317/429/662 311/417/664
s 3
f 313/419/665 314/420/666 319/432/648 318/431/647
s 7
f 322/435/667 330/447/668 331/448/669 324/438/670
s 1
f 317/429/642 320/434/641 312/418/671 311/417/672
s 8
f 320/434/673 329/446/674 330/447/675 322/435/676
s 3
f 319/433/648 314/426/666 323/437/677 321/436/678
s 2
f 331/448/679 332/450/645 312/418/644 324/438/680
s 1
f 312/418/671 320/434/641 322/435/681 324/438/682
s 6
f 318/430/683 326/441/659 325/439/663 313/428/684
f 315/427/685 327/442/660 326/441/659 318/430/683
s 4
f 315/421/686 316/422/687 328/444/652 327/443/651
s 5
f 329/446/657 328/445/656 316/425/688 319/433/689
s 8
f 330/447/675 329/446/674 319/433/690 321/436/691
s 7
f 331/448/669 330/447/668 321/436/692 323/437/693
s 2
f 314/426/694 332/450/645 331/448/679 323/437/695
f 325/440/646 332/449/645 314/420/694 313/419/696
g default
v -1034.090088 751.433289 -72.007889
v -927.090393 751.433289 -72.568138
v -1063.968018 758.191284 -41.815437
v -896.898071 758.191284 -42.690224
v -1064.842773 758.191284 -208.885483
v -897.772766 758.191284 -209.760269
v -1034.650391 751.433289 -179.007568
v -927.650696 751.433289 -179.567825
v -1052.429077 775.353271 -53.476006
v -1053.182373 775.353271 -197.346375
v -908.558533 775.353271 -54.229324
v -909.311829 775.353271 -198.099701
vt 0.375000 0.000000
vt 0.625000 0.000000
vt 0.375000 0.250000
vt 0.625000 0.250000
vt 0.375000 0.500000
vt 0.625000 0.500000
vt 0.375000 0.750000
vt 0.625000 0.750000
vt 0.375000 1.000000
vt 0.625000 1.000000
vt 0.875000 0.000000
vt 0.875000 0.250000
vt 0.125000 0.000000
vt 0.125000 0.250000
vt 0.375000 0.500000
vt 0.375000 0.250000
vt 0.625000 0.250000
vt 0.625000 0.500000
vn 0.001149 -0.975610 0.219510
vn 0.001149 -0.975610 0.219510
vn 0.001149 -0.975610 0.219510
vn 0.001149 -0.975610 0.219510
vn -0.136873 0.981285 -0.135447
vn -0.135447 0.981285 0.136873
vn 0.136873 0.981285 0.135447
vn 0.135447 0.981285 -0.136873
vn -0.001149 -0.975610 -0.219510
vn -0.001149 -0.975610 -0.219510
vn -0.001149 -0.975610 -0.219510
vn -0.001149 -0.975610 -0.219510
vn 0.000000 -1.000000 0.000000
vn 0.000000 -1.000000 0.000000
vn 0.000000 -1.000000 0.000000
vn 0.000000 -1.000000 0.000000
vn 0.219509 -0.975610 -0.001149
vn 0.219509 -0.975610 -0.001149
vn 0.219509 -0.975610 -0.001149
vn 0.219509 -0.975610 -0.001149
vn -0.219509 -0.975610 0.001150
vn -0.219509 -0.975610 0.001150
vn -0.219509 -0.975610 0.001150
vn -0.219509 -0.975610 0.001150
vn -0.513815 0.690981 -0.508468
vn -0.508463 0.690980 0.513821
vn 0.513817 0.690979 0.508469
vn 0.508465 0.690979 -0.513820
s off
g group25 B03 pCube92
usemtl blinn3SG
f 335/453/697 333/451/698 334/452/699 336/454/700
s 1
f 342/465/701 341/466/702 343/467/703 344/468/704
s off
f 339/457/705 337/455/706 338/456/707 340/458/708
f 333/459/709 339/457/710 340/458/711 334/460/712
f 334/452/713 340/461/714 338/462/715 336/454/716
f 339/463/717 333/451/718 335/453/719 337/464/720
s 1
f 337/455/721 335/453/722 341/466/702 342/465/701
f 335/453/722 336/454/723 343/467/703 341/466/702
f 336/454/723 338/456/724 344/468/704 343/467/703
f 338/456/724 337/455/721 342/465/701 344/468/704
g default
v -980.819763 775.353271 -55.804779
v -980.776428 783.580505 -55.802635
v -1051.119385 783.969238 -125.734688
v -980.827148 783.598999 -125.785721
v -910.534912 783.228699 -125.836761
v -980.877869 783.617493 -195.768814
v -980.921204 775.390259 -195.770950
v -1051.162720 775.742004 -125.736832
v -980.870483 775.371765 -125.787865
v -910.578247 775.001526 -125.838905
v -924.585999 775.057068 -55.845608
v -924.542664 783.284302 -55.843468
v -924.593323 783.302795 -125.826553
v -924.644043 783.321228 -195.809647
v -924.687378 775.094055 -195.811783
v -924.636719 775.075562 -125.828697
v -1037.053589 775.649475 -55.763950
v -1037.010254 783.876709 -55.761806
v -1037.060913 783.895203 -125.744896
v -1037.111694 783.913696 -195.727982
v -1037.155029 775.686462 -195.730118
v -1037.104248 775.667969 -125.747040
v -1051.078857 783.954468 -69.748215
v -1051.122192 775.727234 -69.750359
v -1037.063721 775.653198 -69.760567
v -980.829895 775.356995 -69.801392
v -924.596130 775.060791 -69.842224
v -910.537720 774.986694 -69.852432
v -910.494385 783.213928 -69.850288
v -924.552795 783.287964 -69.840080
v -980.786560 783.584167 -69.799255
v -1037.020386 783.880432 -69.758423
v -1051.159912 783.984009 -181.721146
v -1051.203247 775.756836 -181.723297
v -1037.144897 775.682739 -181.733505
v -980.911072 775.386536 -181.774338
v -924.677246 775.090332 -181.815155
v -910.618835 775.016296 -181.825363
v -910.575500 783.243530 -181.823227
v -924.633911 783.317566 -181.813019
v -980.867737 783.613770 -181.772186
v -1037.101562 783.909973 -181.731354
vt 0.500000 0.000000
vt 0.500000 0.250000
vt 0.375000 0.375000
vt 0.500000 0.375000
vt 0.625000 0.375000
vt 0.500000 0.500000
vt 0.500000 0.750000
vt 0.375000 0.875000
vt 0.500000 0.875000
vt 0.625000 0.875000
vt 0.500000 1.000000
vt 0.750000 0.000000
vt 0.750000 0.250000
vt 0.250000 0.000000
vt 0.250000 0.250000
vt 0.600000 0.000000
vt 0.600000 1.000000
vt 0.600000 0.250000
vt 0.600000 0.375000
vt 0.600000 0.500000
vt 0.600000 0.750000
vt 0.600000 0.875000
vt 0.400000 0.000000
vt 0.400000 1.000000
vt 0.400000 0.250000
vt 0.400000 0.375000
vt 0.400000 0.500000
vt 0.400000 0.750000
vt 0.400000 0.875000
vt 0.350000 0.250000
vt 0.375000 0.275000
vt 0.350000 0.000000
vt 0.375000 0.975000
vt 0.400000 0.975000
vt 0.500000 0.975000
vt 0.600000 0.975000
vt 0.625000 0.975000
vt 0.650000 0.000000
vt 0.625000 0.275000
vt 0.650000 0.250000
vt 0.600000 0.275000
vt 0.500000 0.275000
vt 0.400000 0.275000
vt 0.150000 0.250000
vt 0.375000 0.475000
vt 0.150000 0.000000
vt 0.375000 0.775000
vt 0.400000 0.775000
vt 0.500000 0.775000
vt 0.600000 0.775000
vt 0.625000 0.775000
vt 0.850000 0.000000
vt 0.625000 0.475000
vt 0.850000 0.250000
vt 0.600000 0.475000
vt 0.500000 0.475000
vt 0.400000 0.475000
vn 0.000725 -0.000264 1.000000
vn 0.000725 -0.000264 1.000000
vn 0.000725 -0.000264 1.000000
vn 0.000725 -0.000264 1.000000
vn 0.005266 0.999986 0.000261
vn 0.005268 0.999986 0.000261
vn 0.005268 0.999986 0.000260
vn 0.005268 0.999986 0.000261
vn 0.005267 0.999986 0.000260
vn 0.005268 0.999986 0.000261
vn 0.005268 0.999986 0.000261
vn 0.005266 0.999986 0.000260
vn 0.005267 0.999986 0.000260
vn 0.005267 0.999986 0.000262
vn 0.005266 0.999986 0.000259
vn 0.005268 0.999986 0.000261
vn 0.005268 0.999986 0.000261
vn 0.005268 0.999986 0.000260
vn 0.005268 0.999986 0.000262
vn -0.000725 0.000263 -1.000000
vn -0.000725 0.000263 -1.000000
vn -0.000725 0.000263 -1.000000
vn -0.000725 0.000263 -1.000000
vn -0.005269 -0.999986 -0.000260
vn -0.005268 -0.999986 -0.000260
vn -0.005267 -0.999986 -0.000260
vn -0.005267 -0.999986 -0.000260
vn -0.005267 -0.999986 -0.000261
vn -0.005267 -0.999986 -0.000261
vn -0.005267 -0.999986 -0.000259
vn -0.005267 -0.999986 -0.000260
vn -0.005267 -0.999986 -0.000260
vn -0.005268 -0.999986 -0.000259
vn -0.005268 -0.999986 -0.000258
vn -0.005267 -0.999986 -0.000263
vn 0.999986 -0.005265 -0.000726
vn 0.999986 -0.005264 -0.000726
vn 0.999986 -0.005264 -0.000726
vn 0.999986 -0.005265 -0.000726
vn -0.999986 0.005266 0.000725
vn -0.999986 0.005266 0.000725
vn -0.999986 0.005267 0.000725
vn -0.999986 0.005267 0.000725
vn 0.005268 0.999986 0.000260
vn 0.005268 0.999986 0.000260
vn 0.005269 0.999986 0.000260
vn -0.005266 -0.999986 -0.000260
vn -0.005267 -0.999986 -0.000261
vn 0.000725 -0.000264 1.000000
vn 0.000725 -0.000264 1.000000
vn -0.000725 0.000263 -1.000000
vn -0.000725 0.000263 -1.000000
vn -0.005267 -0.999986 -0.000267
vn -0.005267 -0.999986 -0.000261
vn -0.999986 0.005267 0.000725
vn -0.999986 0.005267 0.000725
vn -0.005266 -0.999986 -0.000260
vn -0.005269 -0.999986 -0.000261
vn 0.999986 -0.005266 -0.000725
vn 0.999986 -0.005266 -0.000725
vn -0.005268 -0.999986 -0.000259
vn -0.005267 -0.999986 -0.000263
vn -0.005267 -0.999986 -0.000266
vn 0.005268 0.999986 0.000260
vn 0.005268 0.999986 0.000267
vn 0.005267 0.999986 0.000272
vn -0.705018 0.003528 0.709181
vn -0.705018 0.003528 0.709181
vn -0.705018 0.003528 0.709181
vn -0.705018 0.003528 0.709181
vn 0.706042 -0.003901 0.708160
vn 0.706042 -0.003901 0.708160
vn 0.706042 -0.003901 0.708160
vn 0.706042 -0.003901 0.708160
vn 0.705023 -0.003524 -0.709176
vn 0.705023 -0.003524 -0.709176
vn 0.705023 -0.003524 -0.709176
vn 0.705023 -0.003524 -0.709176
vn -0.706048 0.003915 -0.708153
vn -0.706048 0.003915 -0.708153
vn -0.706048 0.003915 -0.708153
vn -0.706048 0.003915 -0.708153
s 1
g group25 B03 pCube94
usemtl blinn2SG
f 345/469/725 355/484/726 356/486/727 346/470/728
s 2
f 367/499/729 362/493/730 376/511/731
f 346/470/732 356/486/733 374/509/734 375/510/735
f 347/471/736 363/494/737 386/525/738 377/513/739
f 348/472/740 357/487/741 384/523/742 385/524/743
s 4
f 350/474/744 358/488/745 359/489/746 351/475/747
s 5
f 378/515/748 379/516/749 366/497/750 352/476/751
f 380/517/752 381/518/753 360/490/754 353/477/755
f 370/503/756 371/504/757 355/485/758 345/479/759
s 7
f 354/480/760 382/520/761 383/522/762 349/481/763
s 8
f 377/512/764 378/514/765 352/482/766 347/483/767
s 2
f 373/507/768 374/509/734 356/486/733
f 383/521/769 384/523/742 357/487/741 349/473/770
s 5
f 360/490/754 381/518/753 382/519/771 354/478/772
s 1
f 362/493/773 361/491/774 345/469/725 346/470/728
s 2
f 375/510/735 376/511/731 362/493/730 346/470/732
f 385/524/743 386/525/738 363/494/737 348/472/740
s 4
f 365/496/775 364/495/776 350/474/744 351/475/747
s 5
f 366/497/750 379/516/749 380/517/752 353/477/755
f 361/492/777 369/502/778 370/503/756 345/479/759
s 8
f 352/482/766 368/500/779 367/498/780 347/483/767
s 5
f 352/476/751 366/497/750 369/502/778 368/501/781
f 370/503/756 369/502/778 366/497/750 353/477/755
f 353/477/755 360/490/754 371/504/757 370/503/756
f 372/505/782 371/504/757 360/490/754 354/478/772
s 7
f 373/508/783 372/506/784 354/480/760 349/481/763
s 2
f 357/487/741 374/509/734 373/507/768 349/473/770
f 375/510/735 374/509/734 357/487/741 348/472/740
f 363/494/737 376/511/731 375/510/735 348/472/740
f 367/499/729 376/511/731 363/494/737 347/471/736
s 5
f 380/517/752 379/516/749 365/496/785 351/475/786
f 351/475/786 359/489/787 381/518/753 380/517/752
s 2
f 358/488/788 384/523/742 383/521/769
f 385/524/743 384/523/742 358/488/788 350/474/789
f 364/495/790 386/525/738 385/524/743 350/474/789
f 377/513/739 386/525/738 364/495/790
s 5
f 368/501/781 369/502/778 361/492/777
f 355/485/758 371/504/757 372/505/782
f 382/519/771 381/518/753 359/489/787
f 378/515/748 365/496/785 379/516/749
s off
f 362/493/791 367/498/792 368/501/793 361/491/794
f 356/486/795 355/485/796 372/506/797 373/507/798
f 359/489/799 358/488/800 383/522/801 382/519/802
f 365/496/803 378/514/804 377/513/805 364/495/806
g default
v -1039.158447 782.816833 -66.886345
v -980.563721 782.816833 -67.193153
v -921.968994 782.816833 -67.499954
v -1027.716553 918.338989 -113.918777
v -980.809631 918.338989 -114.164383
v -933.902649 918.338989 -114.409988
v -1027.777466 918.338989 -125.542259
v -980.870483 918.338989 -125.787865
v -933.963501 918.338989 -126.033470
v -1027.838379 918.338989 -137.165741
v -980.931335 918.338989 -137.411346
v -934.024414 918.338989 -137.656952
v -1039.771973 782.816833 -184.075775
v -981.177307 782.816833 -184.382584
v -922.582581 782.816833 -184.689377
v -1039.465210 782.816833 -125.481064
v -980.870483 782.816833 -125.787865
v -922.275757 782.816833 -126.094673
vt 0.375000 0.000000
vt 0.500000 0.000000
vt 0.625000 0.000000
vt 0.375000 0.250000
vt 0.500000 0.250000
vt 0.625000 0.250000
vt 0.375000 0.375000
vt 0.500000 0.375000
vt 0.625000 0.375000
vt 0.375000 0.500000
vt 0.500000 0.500000
vt 0.625000 0.500000
vt 0.375000 0.750000
vt 0.500000 0.750000
vt 0.625000 0.750000
vt 0.375000 0.875000
vt 0.500000 0.875000
vt 0.625000 0.875000
vt 0.375000 1.000000
vt 0.500000 1.000000
vt 0.625000 1.000000
vt 0.875000 0.000000
vt 0.750000 0.000000
vt 0.875000 0.250000
vt 0.750000 0.250000
vt 0.125000 0.000000
vt 0.250000 0.000000
vt 0.125000 0.250000
vt 0.250000 0.250000
vn 0.004947 0.327486 0.944843
vn 0.004947 0.327487 0.944843
vn 0.004947 0.327487 0.944843
vn 0.004947 0.327486 0.944843
vn 0.004947 0.327487 0.944843
vn 0.004947 0.327487 0.944843
vn 0.000000 1.000000 0.000005
vn 0.000000 1.000000 0.000002
vn 0.000000 1.000000 -0.000001
vn 0.000000 1.000000 0.000001
vn 0.000000 1.000000 0.000000
vn 0.000000 1.000000 -0.000004
vn 0.000000 1.000000 -0.000005
vn 0.000000 1.000000 -0.000002
vn 0.000000 1.000000 -0.000007
vn -0.004947 0.327486 -0.944843
vn -0.004947 0.327487 -0.944843
vn -0.004947 0.327487 -0.944843
vn -0.004947 0.327486 -0.944843
vn -0.004947 0.327487 -0.944843
vn -0.004947 0.327487 -0.944843
vn 0.000000 -1.000000 -0.000000
vn 0.000000 -1.000000 -0.000000
vn 0.000000 -1.000000 -0.000000
vn 0.000000 -1.000000 -0.000000
vn 0.000000 -1.000000 -0.000000
vn 0.000000 -1.000000 -0.000000
vn 0.000000 -1.000000 -0.000000
vn 0.000000 -1.000000 -0.000000
vn 0.000000 -1.000000 -0.000000
vn 0.996288 0.085925 -0.005217
vn 0.996288 0.085924 -0.005218
vn 0.996288 0.085924 -0.005218
vn 0.996288 0.085925 -0.005217
vn 0.996288 0.085925 -0.005216
vn 0.996288 0.085925 -0.005216
vn -0.996288 0.085925 0.005217
vn -0.996288 0.085925 0.005217
vn -0.996288 0.085925 0.005217
vn -0.996288 0.085925 0.005217
vn -0.996288 0.085924 0.005217
vn -0.996288 0.085924 0.005217
s 1
g group25 B03 pCube93
usemtl blinn2SG
f 387/526/807 388/527/808 391/530/809 390/529/810
f 388/527/808 389/528/811 392/531/812 391/530/809
s 2
f 390/529/813 391/530/814 394/533/815 393/532/816
f 391/530/814 392/531/817 395/534/818 394/533/815
f 393/532/816 394/533/815 397/536/819 396/535/820
f 394/533/815 395/534/818 398/537/821 397/536/819
s 3
f 396/535/822 397/536/823 400/539/824 399/538/825
f 397/536/823 398/537/826 401/540/827 400/539/824
s 4
f 399/538/828 400/539/829 403/542/830 402/541/831
f 400/539/829 401/540/832 404/543/833 403/542/830
f 402/541/831 403/542/830 388/545/834 387/544/835
f 403/542/830 404/543/833 389/546/836 388/545/834
s 5
f 404/548/837 401/547/838 398/549/839 395/550/840
f 389/528/841 404/548/837 395/550/840 392/531/842
s 6
f 399/551/843 402/552/844 393/554/845 396/553/846
f 402/552/844 387/526/847 390/529/848 393/554/845
g default
v -1040.006226 530.812073 -66.029549
v -980.559204 530.812073 -66.340813
v -921.112183 530.812073 -66.652084
v -1028.210571 760.612793 -77.949394
v -980.621338 760.612793 -78.198578
v -933.032043 760.612793 -78.447754
v -1028.459839 760.612793 -125.538689
v -980.870483 760.612793 -125.787865
v -933.281189 760.612793 -126.037048
v -1028.708984 760.612793 -173.127975
v -981.119690 760.612793 -173.377151
v -933.530396 760.612793 -173.626328
v -1040.628784 530.812073 -184.923645
v -981.181763 530.812073 -185.234909
v -921.734741 530.812073 -185.546188
v -1040.317505 530.812073 -125.476601
v -980.870483 530.812073 -125.787865
v -921.423462 530.812073 -126.099136
vt 0.375000 0.000000
vt 0.500000 0.000000
vt 0.625000 0.000000
vt 0.375000 0.250000
vt 0.500000 0.250000
vt 0.625000 0.250000
vt 0.375000 0.375000
vt 0.500000 0.375000
vt 0.625000 0.375000
vt 0.375000 0.500000
vt 0.500000 0.500000
vt 0.625000 0.500000
vt 0.375000 0.750000
vt 0.500000 0.750000
vt 0.625000 0.750000
vt 0.375000 0.875000
vt 0.500000 0.875000
vt 0.625000 0.875000
vt 0.375000 1.000000
vt 0.500000 1.000000
vt 0.625000 1.000000
vt 0.875000 0.000000
vt 0.750000 0.000000
vt 0.875000 0.250000
vt 0.750000 0.250000
vt 0.125000 0.000000
vt 0.250000 0.000000
vt 0.125000 0.250000
vt 0.250000 0.250000
vn 0.005229 0.051532 0.998658
vn 0.005229 0.051532 0.998658
vn 0.005229 0.051532 0.998658
vn 0.005229 0.051532 0.998658
vn 0.005229 0.051532 0.998658
vn 0.005229 0.051532 0.998658
vn 0.000000 1.000000 0.000001
vn 0.000000 1.000000 0.000000
vn 0.000000 1.000000 0.000000
vn 0.000000 1.000000 0.000000
vn 0.000000 1.000000 0.000000
vn 0.000000 1.000000 0.000000
vn 0.000000 1.000000 0.000000
vn 0.000000 1.000000 0.000000
vn 0.000000 1.000000 0.000000
vn -0.005229 0.051532 -0.998658
vn -0.005229 0.051532 -0.998658
vn -0.005229 0.051532 -0.998658
vn -0.005229 0.051532 -0.998658
vn -0.005229 0.051532 -0.998658
vn -0.005229 0.051532 -0.998658
vn 0.000000 -1.000000 0.000000
vn 0.000000 -1.000000 0.000000
vn 0.000000 -1.000000 0.000000
vn 0.000000 -1.000000 0.000000
vn 0.000000 -1.000000 0.000000
vn 0.000000 -1.000000 0.000000
vn 0.000000 -1.000000 0.000000
vn 0.000000 -1.000000 0.000000
vn 0.000000 -1.000000 0.000000
vn 0.998658 0.051532 -0.005229
vn 0.998658 0.051532 -0.005229
vn 0.998658 0.051532 -0.005229
vn 0.998658 0.051532 -0.005229
vn 0.998658 0.051532 -0.005229
vn 0.998658 0.051532 -0.005229
vn -0.998658 0.051532 0.005229
vn -0.998658 0.051532 0.005229
vn -0.998658 0.051532 0.005229
vn -0.998658 0.051532 0.005229
vn -0.998658 0.051532 0.005230
vn -0.998658 0.051532 0.005230
s 1
g group25 B03 pCube91
usemtl blinn2SG
f 405/555/849 406/556/850 409/559/851 408/558/852
f 406/556/850 407/557/853 410/560/854 409/559/851
s 2
f 408/558/855 409/559/856 412/562/857 411/561/858
f 409/559/856 410/560/859 413/563/860 412/562/857
f 411/561/858 412/562/857 415/565/861 414/564/862
f 412/562/857 413/563/860 416/566/863 415/565/861
s 3
f 414/564/864 415/565/865 418/568/866 417/567/867
f 415/565/865 416/566/868 419/569/869 418/568/866
s 4
f 417/567/870 418/568/871 421/571/872 420/570/873
f 418/568/871 419/569/874 422/572/875 421/571/872
f 420/570/873 421/571/872 406/574/876 405/573/877
f 421/571/872 422/572/875 407/575/878 406/574/876
s 5
f 422/577/879 419/576/880 416/578/881 413/579/882
f 407/557/883 422/577/879 413/579/882 410/560/884
s 6
f 417/580/885 420/581/886 411/583/887 414/582/888
f 420/581/886 405/555/889 408/558/890 411/583/887
g default
v -1005.212830 918.338867 -121.459435
v -1004.457092 918.338867 -123.837578
v -1004.422302 918.338867 -126.328651
v -1005.111572 918.338867 -128.688629
v -1006.457642 918.338867 -130.686676
v -1008.328674 918.338867 -132.127075
v -1010.541565 918.338867 -132.868927
v -1012.879578 918.338867 -132.839539
v -1015.113953 918.338867 -132.041840
v -1017.025940 918.338867 -130.553864
v -1018.428406 918.338867 -128.521332
v -1019.184082 918.338867 -126.143150
v -1019.218933 918.338867 -123.652107
v -1018.529663 918.338867 -121.292107
v -1017.183594 918.338867 -119.294090
v -1015.312561 918.338867 -117.853691
v -1013.099731 918.338867 -117.111839
v -1010.761658 918.338867 -117.141197
v -1008.527283 918.338867 -117.938896
v -1006.615295 918.338867 -119.426857
v -1005.212830 1032.725830 -121.459435
v -1004.457092 1032.725830 -123.837578
v -1004.422302 1032.725830 -126.328651
v -1005.111572 1032.725830 -128.688629
v -1006.457642 1032.725830 -130.686676
v -1008.328674 1032.725830 -132.127075
v -1010.541565 1032.725830 -132.868927
v -1012.879578 1032.725830 -132.839539
v -1015.113953 1032.725830 -132.041840
v -1017.025940 1032.725830 -130.553864
v -1018.428406 1032.725830 -128.521332
v -1019.184082 1032.725830 -126.143150
v -1019.218933 1032.725830 -123.652107
v -1018.529663 1032.725830 -121.292107
v -1017.183594 1032.725830 -119.294090
v -1015.312561 1032.725830 -117.853691
v -1013.099731 1032.725830 -117.111839
v -1010.761658 1032.725830 -117.141197
v -1008.527283 1032.725830 -117.938896
v -1006.615295 1032.725830 -119.426857
v -1011.820618 918.338867 -124.990395
v -1011.820618 1032.725830 -124.990395
v -1005.212830 998.409729 -121.459435
v -1006.615295 998.409729 -119.426857
v -1008.527283 998.409729 -117.938896
v -1010.761658 998.409729 -117.141197
v -1013.099731 998.409729 -117.111839
v -1015.312561 998.409729 -117.853691
v -1017.183594 998.409729 -119.294090
v -1018.529663 998.409729 -121.292107
v -1019.218933 998.409729 -123.652107
v -1019.184082 998.409729 -126.143150
v -1018.428406 998.409729 -128.521332
v -1017.025940 998.409729 -130.553864
v -1015.113953 998.409729 -132.041840
v -1012.879578 998.409729 -132.839539
v -1010.541565 998.409729 -132.868927
v -1008.328674 998.409729 -132.127075
v -1006.457642 998.409729 -130.686676
v -1005.111572 998.409729 -128.688629
v -1004.422302 998.409729 -126.328651
v -1004.457092 998.409729 -123.837578
v -1005.212830 1005.272888 -121.459435
v -1006.615295 1005.272888 -119.426857
v -1008.527283 1005.272888 -117.938896
v -1010.761658 1005.272888 -117.141197
v -1013.099731 1005.272888 -117.111839
v -1015.312561 1005.272888 -117.853691
v -1017.183594 1005.272888 -119.294090
v -1018.529663 1005.272888 -121.292107
v -1019.218933 1005.272888 -123.652107
v -1019.184082 1005.272888 -126.143150
v -1018.428406 1005.272888 -128.521332
v -1017.025940 1005.272888 -130.553864
v -1015.113953 1005.272888 -132.041840
v -1012.879578 1005.272888 -132.839539
v -1010.541565 1005.272888 -132.868927
v -1008.328674 1005.272888 -132.127075
v -1006.457642 1005.272888 -130.686676
v -1005.111572 1005.272888 -128.688629
v -1004.422363 1005.272888 -126.328682
v -1004.457092 1005.272888 -123.837578
v -1007.300903 999.440186 -122.483131
v -1008.307251 999.440186 -121.024529
v -1007.300903 1004.242432 -122.483131
v -1008.307251 1004.242432 -121.024529
v -1009.648438 999.440186 -119.980873
v -1009.648438 1004.242432 -119.980873
v -1011.173950 999.440186 -119.436211
v -1011.173950 1004.242432 -119.436211
v -1012.738525 999.440186 -119.416588
v -1012.738525 1004.242432 -119.416588
v -1014.215515 999.440186 -119.911720
v -1014.215515 1004.242432 -119.911720
v -1015.484680 999.440186 -120.888817
v -1015.484680 1004.242432 -120.888817
v -1016.422180 999.440186 -122.280418
v -1016.422180 1004.242310 -122.280418
v -1016.914307 999.440186 -123.965355
v -1016.914307 1004.242310 -123.965355
v -1016.889099 999.440186 -125.770836
v -1016.889099 1004.242432 -125.770836
v -1016.340332 999.440186 -127.497612
v -1016.340332 1004.242432 -127.497612
v -1015.333984 999.440186 -128.956177
v -1015.333984 1004.242432 -128.956177
v -1013.992798 999.440186 -129.999878
v -1013.992798 1004.242432 -129.999878
v -1012.467285 999.440186 -130.544525
v -1012.467285 1004.242432 -130.544525
v -1010.902771 999.440186 -130.564178
v -1010.902771 1004.242432 -130.564178
v -1009.425781 999.440186 -130.069092
v -1009.425781 1004.242432 -130.069092
v -1008.156555 999.440186 -129.091949
v -1008.156555 1004.242432 -129.091949
v -1007.219116 999.440186 -127.700340
v -1007.219116 1004.242432 -127.700340
v -1006.726929 999.440186 -126.015358
v -1006.726868 1004.242432 -126.015388
v -1006.752136 999.440186 -124.209923
v -1006.752136 1004.242432 -124.209923
vt 0.648603 0.107966
vt 0.626409 0.064408
vt 0.591842 0.029841
vt 0.548284 0.007647
vt 0.500000 -0.000000
vt 0.451716 0.007647
vt 0.408159 0.029841
vt 0.373591 0.064409
vt 0.351397 0.107966
vt 0.343750 0.156250
vt 0.351397 0.204534
vt 0.373591 0.248091
vt 0.408159 0.282659
vt 0.451716 0.304853
vt 0.500000 0.312500
vt 0.548284 0.304853
vt 0.591841 0.282659
vt 0.626409 0.248091
vt 0.648603 0.204534
vt 0.656250 0.156250
vt 0.375000 0.312500
vt 0.387500 0.312500
vt 0.400000 0.312500
vt 0.412500 0.312500
vt 0.425000 0.312500
vt 0.437500 0.312500
vt 0.450000 0.312500
vt 0.462500 0.312500
vt 0.475000 0.312500
vt 0.487500 0.312500
vt 0.500000 0.312500
vt 0.512500 0.312500
vt 0.525000 0.312500
vt 0.537500 0.312500
vt 0.550000 0.312500
vt 0.562500 0.312500
vt 0.575000 0.312500
vt 0.587500 0.312500
vt 0.600000 0.312500
vt 0.612500 0.312500
vt 0.625000 0.312500
vt 0.375000 0.687500
vt 0.387500 0.687500
vt 0.400000 0.687500
vt 0.412500 0.687500
vt 0.425000 0.687500
vt 0.437500 0.687500
vt 0.450000 0.687500
vt 0.462500 0.687500
vt 0.475000 0.687500
vt 0.487500 0.687500
vt 0.500000 0.687500
vt 0.512500 0.687500
vt 0.525000 0.687500
vt 0.537500 0.687500
vt 0.550000 0.687500
vt 0.562500 0.687500
vt 0.575000 0.687500
vt 0.587500 0.687500
vt 0.600000 0.687500
vt 0.612500 0.687500
vt 0.625000 0.687500
vt 0.648603 0.795466
vt 0.626409 0.751908
vt 0.591842 0.717341
vt 0.548284 0.695147
vt 0.500000 0.687500
vt 0.451716 0.695147
vt 0.408159 0.717341
vt 0.373591 0.751909
vt 0.351397 0.795466
vt 0.343750 0.843750
vt 0.351397 0.892034
vt 0.373591 0.935591
vt 0.408159 0.970159
vt 0.451716 0.992353
vt 0.500000 1.000000
vt 0.548284 0.992353
vt 0.591841 0.970159
vt 0.626409 0.935591
vt 0.648603 0.892034
vt 0.656250 0.843750
vt 0.500000 0.156250
vt 0.500000 0.843750
vt 0.625000 0.575000
vt 0.375000 0.575000
vt 0.612500 0.575000
vt 0.600000 0.575000
vt 0.587500 0.575000
vt 0.575000 0.575000
vt 0.562500 0.575000
vt 0.550000 0.575000
vt 0.537500 0.575000
vt 0.525000 0.575000
vt 0.512500 0.575000
vt 0.500000 0.575000
vt 0.487500 0.575000
vt 0.475000 0.575000
vt 0.462500 0.575000
vt 0.450000 0.575000
vt 0.437500 0.575000
vt 0.425000 0.575000
vt 0.412500 0.575000
vt 0.400000 0.575000
vt 0.387500 0.575000
vt 0.625000 0.597500
vt 0.375000 0.597500
vt 0.612500 0.597500
vt 0.600000 0.597500
vt 0.587500 0.597500
vt 0.575000 0.597500
vt 0.562500 0.597500
vt 0.550000 0.597500
vt 0.537500 0.597500
vt 0.525000 0.597500
vt 0.512500 0.597500
vt 0.500000 0.597500
vt 0.487500 0.597500
vt 0.475000 0.597500
vt 0.462500 0.597500
vt 0.450000 0.597500
vt 0.437500 0.597500
vt 0.425000 0.597500
vt 0.412500 0.597500
vt 0.400000 0.597500
vt 0.387500 0.597500
vt 0.612500 0.575000
vt 0.625000 0.575000
vt 0.625000 0.597500
vt 0.612500 0.597500
vt 0.600000 0.575000
vt 0.600000 0.597500
vt 0.587500 0.575000
vt 0.587500 0.597500
vt 0.575000 0.575000
vt 0.575000 0.597500
vt 0.562500 0.575000
vt 0.562500 0.597500
vt 0.550000 0.575000
vt 0.550000 0.597500
vt 0.537500 0.575000
vt 0.537500 0.597500
vt 0.525000 0.575000
vt 0.525000 0.597500
vt 0.512500 0.575000
vt 0.512500 0.597500
vt 0.500000 0.575000
vt 0.500000 0.597500
vt 0.487500 0.575000
vt 0.487500 0.597500
vt 0.475000 0.575000
vt 0.475000 0.597500
vt 0.462500 0.575000
vt 0.462500 0.597500
vt 0.450000 0.575000
vt 0.450000 0.597500
vt 0.437500 0.575000
vt 0.437500 0.597500
vt 0.425000 0.575000
vt 0.425000 0.597500
vt 0.412500 0.575000
vt 0.412500 0.597500
vt 0.400000 0.575000
vt 0.400000 0.597500
vt 0.387500 0.575000
vt 0.387500 0.597500
vt 0.375000 0.575000
vt 0.375000 0.597500
vn 0.898235 0.000000 0.439515
vn 0.987076 0.000000 0.160254
vn 0.987076 0.000000 0.160254
vn 0.898235 0.000000 0.439515
vn 0.991021 0.000000 -0.133704
vn 0.991021 0.000000 -0.133704
vn 0.906056 0.000000 -0.423158
vn 0.906056 0.000000 -0.423158
vn 0.730219 0.000000 -0.683213
vn 0.730219 0.000000 -0.683213
vn 0.471289 0.000000 -0.881979
vn 0.471289 0.000000 -0.881979
vn 0.154671 0.000000 -0.987966
vn 0.154671 0.000000 -0.987966
vn -0.177999 0.000000 -0.984031
vn -0.177999 0.000000 -0.984031
vn -0.482757 0.000000 -0.875754
vn -0.482757 0.000000 -0.875754
vn -0.728094 0.000000 -0.685477
vn -0.728094 0.000000 -0.685477
vn -0.898240 0.000000 -0.439505
vn -0.898240 0.000000 -0.439505
vn -0.987076 0.000000 -0.160254
vn -0.987076 0.000000 -0.160254
vn -0.991023 0.000000 0.133692
vn -0.991023 0.000000 0.133692
vn -0.906056 0.000000 0.423158
vn -0.906056 0.000000 0.423158
vn -0.730217 0.000000 0.683215
vn -0.730217 0.000000 0.683215
vn -0.471292 0.000000 0.881977
vn -0.471292 0.000000 0.881977
vn -0.154676 0.000000 0.987965
vn -0.154676 0.000000 0.987965
vn 0.177989 0.000000 0.984033
vn 0.177989 0.000000 0.984033
vn 0.482755 0.000000 0.875755
vn 0.482755 0.000000 0.875755
vn 0.728096 0.000000 0.685475
vn 0.728096 0.000000 0.685475
vn 0.000000 -1.000000 0.000000
vn 0.000000 -1.000000 0.000000
vn 0.000000 -1.000000 0.000003
vn 0.000000 -1.000000 0.000000
vn 0.000000 -1.000000 0.000000
vn 0.000000 -1.000000 -0.000014
vn 0.000000 -1.000000 -0.000013
vn 0.000000 -1.000000 0.000003
vn 0.000000 -1.000000 0.000003
vn 0.000000 -1.000000 -0.000025
vn 0.000000 -1.000000 -0.000028
vn 0.000000 -1.000000 0.000000
vn 0.000000 -1.000000 0.000027
vn 0.000000 -1.000000 0.000026
vn 0.000000 -1.000000 0.000000
vn 0.000000 -1.000000 0.000014
vn 0.000000 -1.000000 0.000013
vn 0.000000 -1.000000 0.000003
vn 0.000000 -1.000000 0.000003
vn 0.000000 -1.000000 0.000025
vn 0.000000 -1.000000 0.000028
vn 0.000000 1.000000 -0.000001
vn 0.000000 1.000000 0.000026
vn 0.000000 1.000000 0.000001
vn 0.000000 1.000000 0.000000
vn 0.000000 1.000000 0.000000
vn 0.000000 1.000000 0.000000
vn 0.000000 1.000000 0.000000
vn 0.000000 1.000000 0.000000
vn 0.000000 1.000000 0.000006
vn 0.000000 1.000000 -0.000006
vn 0.000000 1.000000 0.000012
vn 0.000000 1.000000 0.000001
vn 0.000000 1.000000 -0.000026
vn 0.000000 1.000000 0.000000
vn 0.000000 1.000000 0.000000
vn 0.000000 1.000000 0.000000
vn 0.000000 1.000000 0.000000
vn 0.000000 1.000000 0.000007
vn 0.000000 1.000000 0.000000
vn 0.000000 1.000000 0.000006
vn 0.000000 1.000000 -0.000012
vn 0.729293 0.000000 0.684201
vn 0.898629 0.000000 0.438710
vn 0.898629 0.000000 0.438710
vn 0.729293 0.000000 0.684201
vn 0.484639 0.000000 0.874715
vn 0.484639 0.000000 0.874715
vn 0.179641 0.000000 0.983732
vn 0.179641 0.000000 0.983732
vn -0.154462 0.000000 0.987999
vn -0.154462 0.000000 0.987999
vn -0.472492 0.000000 0.881335
vn -0.472492 0.000000 0.881335
vn -0.731688 0.000000 0.681639
vn -0.731686 0.000000 0.681642
vn -0.906869 0.000000 0.421413
vn -0.906867 0.000000 0.421416
vn -0.991171 0.000000 0.132590
vn -0.991171 0.000000 0.132587
vn -0.987053 0.000000 -0.160392
vn -0.987053 0.000000 -0.160395
vn -0.898626 0.000000 -0.438716
vn -0.898626 0.000000 -0.438716
vn -0.729293 0.000000 -0.684201
vn -0.729293 0.000000 -0.684201
vn -0.484645 0.000000 -0.874711
vn -0.484645 0.000000 -0.874711
vn -0.179652 0.000000 -0.983730
vn -0.179652 0.000000 -0.983730
vn 0.154440 0.000000 -0.988002
vn 0.154440 0.000000 -0.988002
vn 0.472482 0.000000 -0.881341
vn 0.472482 0.000000 -0.881341
vn 0.731694 0.000000 -0.681634
vn 0.731694 0.000000 -0.681634
vn 0.906868 0.000005 -0.421414
vn 0.906868 0.000005 -0.421414
vn 0.991169 0.000005 -0.132607
vn 0.991169 0.000005 -0.132608
vn 0.987052 0.000000 0.160400
vn 0.987052 0.000000 0.160400
vn 0.728095 0.000000 0.685476
vn 0.898235 0.000000 0.439515
vn 0.898235 0.000000 0.439515
vn 0.728095 0.000000 0.685476
vn 0.482756 0.000000 0.875755
vn 0.482756 0.000000 0.875755
vn 0.177991 0.000000 0.984032
vn 0.177991 0.000000 0.984032
vn -0.154677 0.000000 0.987965
vn -0.154677 0.000000 0.987965
vn -0.471292 0.000000 0.881977
vn -0.471292 0.000000 0.881977
vn -0.730217 0.000000 0.683216
vn -0.730217 0.000000 0.683216
vn -0.906056 0.000000 0.423159
vn -0.906056 0.000000 0.423159
vn -0.991023 0.000000 0.133692
vn -0.991023 0.000000 0.133692
vn -0.987076 0.000000 -0.160254
vn -0.987076 0.000000 -0.160254
vn -0.898240 0.000000 -0.439505
vn -0.898240 0.000000 -0.439505
vn -0.728093 0.000000 -0.685478
vn -0.728093 0.000000 -0.685478
vn -0.482757 0.000000 -0.875754
vn -0.482757 0.000000 -0.875754
vn -0.177997 0.000000 -0.984031
vn -0.177997 0.000000 -0.984031
vn 0.154671 0.000000 -0.987966
vn 0.154671 0.000000 -0.987966
vn 0.471287 0.000000 -0.881980
vn 0.471287 0.000000 -0.881980
vn 0.730219 0.000000 -0.683213
vn 0.730219 0.000000 -0.683213
vn 0.906058 -0.000001 -0.423154
vn 0.906058 -0.000001 -0.423154
vn 0.991021 0.000001 -0.133704
vn 0.991021 0.000001 -0.133704
vn 0.987077 0.000002 0.160247
vn 0.987077 0.000002 0.160247
vn 0.294995 0.914371 0.277316
vn 0.363961 0.914259 0.177942
vn 0.363961 0.914258 0.177942
vn 0.294996 0.914371 0.277315
vn 0.363965 -0.914263 0.177911
vn 0.294996 -0.914368 0.277325
vn 0.294997 -0.914368 0.277324
vn 0.363965 -0.914263 0.177912
vn 0.195612 0.914521 0.354101
vn 0.195612 0.914521 0.354101
vn 0.195610 -0.914523 0.354098
vn 0.195609 -0.914523 0.354098
vn 0.072217 0.914664 0.397712
vn 0.072215 0.914664 0.397712
vn 0.072216 -0.914667 0.397704
vn 0.072215 -0.914667 0.397705
vn -0.062461 0.914728 0.399213
vn -0.062462 0.914728 0.399213
vn -0.062462 -0.914736 0.399194
vn -0.062462 -0.914736 0.399194
vn -0.190669 0.914684 0.356368
vn -0.190672 0.914684 0.356367
vn -0.190673 -0.914690 0.356351
vn -0.190676 -0.914690 0.356349
vn -0.295582 0.914560 0.276065
vn -0.295582 0.914560 0.276066
vn -0.295590 -0.914556 0.276069
vn -0.295590 -0.914556 0.276069
vn -0.366906 0.914403 0.171015
vn -0.366906 0.914403 0.171016
vn -0.366927 -0.914389 0.171050
vn -0.366927 -0.914389 0.171049
vn -0.401462 0.914284 0.053981
vn -0.401462 0.914284 0.053981
vn -0.401493 -0.914270 0.053980
vn -0.401493 -0.914270 0.053981
vn -0.399946 0.914234 -0.064965
vn -0.399946 0.914234 -0.064965
vn -0.399958 -0.914226 -0.064987
vn -0.399958 -0.914226 -0.064987
vn -0.363959 0.914263 -0.177922
vn -0.363959 0.914263 -0.177921
vn -0.363960 -0.914261 -0.177933
vn -0.363960 -0.914261 -0.177932
vn -0.294992 0.914373 -0.277312
vn -0.294993 0.914373 -0.277311
vn -0.294991 -0.914370 -0.277323
vn -0.294992 -0.914370 -0.277322
vn -0.195606 0.914528 -0.354085
vn -0.195606 0.914528 -0.354085
vn -0.195610 -0.914524 -0.354093
vn -0.195610 -0.914524 -0.354094
vn -0.072217 0.914673 -0.397692
vn -0.072216 0.914673 -0.397692
vn -0.072219 -0.914663 -0.397713
vn -0.072218 -0.914663 -0.397713
vn 0.062455 0.914738 -0.399192
vn 0.062454 0.914738 -0.399192
vn 0.062456 -0.914741 -0.399184
vn 0.062455 -0.914741 -0.399184
vn 0.190668 0.914692 -0.356348
vn 0.190667 0.914692 -0.356349
vn 0.190671 -0.914694 -0.356342
vn 0.190670 -0.914694 -0.356342
vn 0.295584 0.914563 -0.276051
vn 0.295584 0.914563 -0.276051
vn 0.295589 -0.914560 -0.276055
vn 0.295589 -0.914560 -0.276055
vn 0.366899 0.914407 -0.171010
vn 0.366898 0.914407 -0.171011
vn 0.366910 -0.914409 -0.170981
vn 0.366909 -0.914409 -0.170983
vn 0.401459 0.914285 -0.053981
vn 0.401459 0.914285 -0.053981
vn 0.401461 -0.914285 -0.053959
vn 0.401461 -0.914285 -0.053959
vn 0.399950 0.914230 0.064989
vn 0.399951 0.914230 0.064988
vn 0.399945 -0.914236 0.064942
vn 0.399945 -0.914236 0.064941
s 1
g group25 B03 pCylinder28
usemtl blinn2SG
f 423/604/891 424/605/892 484/688/893 465/669/894
f 424/605/892 425/606/895 483/687/896 484/688/893
f 425/606/895 426/607/897 482/686/898 483/687/896
f 426/607/897 427/608/899 481/685/900 482/686/898
f 427/608/899 428/609/901 480/684/902 481/685/900
f 428/609/901 429/610/903 479/683/904 480/684/902
f 429/610/903 430/611/905 478/682/906 479/683/904
f 430/611/905 431/612/907 477/681/908 478/682/906
f 431/612/907 432/613/909 476/680/910 477/681/908
f 432/613/909 433/614/911 475/679/912 476/680/910
f 433/614/911 434/615/913 474/678/914 475/679/912
f 434/615/913 435/616/915 473/677/916 474/678/914
f 435/616/915 436/617/917 472/676/918 473/677/916
f 436/617/917 437/618/919 471/675/920 472/676/918
f 437/618/919 438/619/921 470/674/922 471/675/920
f 438/619/921 439/620/923 469/673/924 470/674/922
f 439/620/923 440/621/925 468/672/926 469/673/924
f 440/621/925 441/622/927 467/671/928 468/672/926
f 441/622/927 442/623/929 466/670/930 467/671/928
f 442/623/929 423/624/891 465/668/894 466/670/930
s 2
f 424/585/931 423/584/932 463/666/933
f 425/586/934 424/585/931 463/666/933
f 426/587/935 425/586/934 463/666/933
f 427/588/936 426/587/935 463/666/933
f 428/589/937 427/588/936 463/666/933
f 429/590/938 428/589/937 463/666/933
f 430/591/939 429/590/938 463/666/933
f 431/592/940 430/591/939 463/666/933
f 432/593/941 431/592/940 463/666/933
f 433/594/942 432/593/941 463/666/933
f 434/595/943 433/594/942 463/666/933
f 435/596/944 434/595/943 463/666/933
f 436/597/945 435/596/944 463/666/933
f 437/598/946 436/597/945 463/666/933
f 438/599/947 437/598/946 463/666/933
f 439/600/948 438/599/947 463/666/933
f 440/601/949 439/600/948 463/666/933
f 441/602/950 440/601/949 463/666/933
f 442/603/951 441/602/950 463/666/933
f 423/584/932 442/603/951 463/666/933
s 3
f 443/664/952 444/663/953 464/667/954
f 444/663/953 445/662/955 464/667/954
f 445/662/955 446/661/956 464/667/954
f 446/661/956 447/660/957 464/667/954
f 447/660/957 448/659/958 464/667/954
f 448/659/958 449/658/959 464/667/954
f 449/658/959 450/657/960 464/667/954
f 450/657/960 451/656/961 464/667/954
f 451/656/961 452/655/962 464/667/954
f 452/655/962 453/654/963 464/667/954
f 453/654/963 454/653/964 464/667/954
f 454/653/964 455/652/965 464/667/954
f 455/652/965 456/651/966 464/667/954
f 456/651/966 457/650/967 464/667/954
f 457/650/967 458/649/968 464/667/954
f 458/649/968 459/648/969 464/667/954
f 459/648/969 460/647/970 464/667/954
f 460/647/970 461/646/971 464/667/954
f 461/646/971 462/665/972 464/667/954
f 462/665/972 443/664/952 464/667/954
s 4
f 506/710/973 505/711/974 507/712/975 508/713/976
f 509/714/977 506/710/973 508/713/976 510/715/978
f 511/716/979 509/714/977 510/715/978 512/717/980
f 513/718/981 511/716/979 512/717/980 514/719/982
f 515/720/983 513/718/981 514/719/982 516/721/984
f 517/722/985 515/720/983 516/721/984 518/723/986
f 519/724/987 517/722/985 518/723/986 520/725/988
f 521/726/989 519/724/987 520/725/988 522/727/990
f 523/728/991 521/726/989 522/727/990 524/729/992
f 525/730/993 523/728/991 524/729/992 526/731/994
f 527/732/995 525/730/993 526/731/994 528/733/996
f 529/734/997 527/732/995 528/733/996 530/735/998
f 531/736/999 529/734/997 530/735/998 532/737/1000
f 533/738/1001 531/736/999 532/737/1000 534/739/1002
f 535/740/1003 533/738/1001 534/739/1002 536/741/1004
f 537/742/1005 535/740/1003 536/741/1004 538/743/1006
f 539/744/1007 537/742/1005 538/743/1006 540/745/1008
f 541/746/1009 539/744/1007 540/745/1008 542/747/1010
f 543/748/1011 541/746/1009 542/747/1010 544/749/1012
f 505/750/974 543/748/1011 544/749/1012 507/751/975
s 5
f 486/691/1013 485/689/1014 443/645/1015 462/644/1016
f 487/692/1017 486/691/1013 462/644/1016 461/643/1018
f 488/693/1019 487/692/1017 461/643/1018 460/642/1020
f 489/694/1021 488/693/1019 460/642/1020 459/641/1022
f 490/695/1023 489/694/1021 459/641/1022 458/640/1024
f 491/696/1025 490/695/1023 458/640/1024 457/639/1026
f 492/697/1027 491/696/1025 457/639/1026 456/638/1028
f 493/698/1029 492/697/1027 456/638/1028 455/637/1030
f 494/699/1031 493/698/1029 455/637/1030 454/636/1032
f 495/700/1033 494/699/1031 454/636/1032 453/635/1034
f 496/701/1035 495/700/1033 453/635/1034 452/634/1036
f 497/702/1037 496/701/1035 452/634/1036 451/633/1038
f 498/703/1039 497/702/1037 451/633/1038 450/632/1040
f 499/704/1041 498/703/1039 450/632/1040 449/631/1042
f 500/705/1043 499/704/1041 449/631/1042 448/630/1044
f 501/706/1045 500/705/1043 448/630/1044 447/629/1046
f 502/707/1047 501/706/1045 447/629/1046 446/628/1048
f 503/708/1049 502/707/1047 446/628/1048 445/627/1050
f 504/709/1051 503/708/1049 445/627/1050 444/626/1052
f 485/690/1014 504/709/1051 444/626/1052 443/625/1015
s 6
f 466/670/1053 465/668/1054 505/711/1055 506/710/1056
s 7
f 485/689/1057 486/691/1058 508/713/1059 507/712/1060
s 6
f 467/671/1061 466/670/1053 506/710/1056 509/714/1062
s 7
f 486/691/1058 487/692/1063 510/715/1064 508/713/1059
s 6
f 468/672/1065 467/671/1061 509/714/1062 511/716/1066
s 7
f 487/692/1063 488/693/1067 512/717/1068 510/715/1064
s 6
f 469/673/1069 468/672/1065 511/716/1066 513/718/1070
s 7
f 488/693/1067 489/694/1071 514/719/1072 512/717/1068
s 6
f 470/674/1073 469/673/1069 513/718/1070 515/720/1074
s 7
f 489/694/1071 490/695/1075 516/721/1076 514/719/1072
s 6
f 471/675/1077 470/674/1073 515/720/1074 517/722/1078
s 7
f 490/695/1075 491/696/1079 518/723/1080 516/721/1076
s 6
f 472/676/1081 471/675/1077 517/722/1078 519/724/1082
s 7
f 491/696/1079 492/697/1083 520/725/1084 518/723/1080
s 6
f 473/677/1085 472/676/1081 519/724/1082 521/726/1086
s 7
f 492/697/1083 493/698/1087 522/727/1088 520/725/1084
s 6
f 474/678/1089 473/677/1085 521/726/1086 523/728/1090
s 7
f 493/698/1087 494/699/1091 524/729/1092 522/727/1088
s 6
f 475/679/1093 474/678/1089 523/728/1090 525/730/1094
s 7
f 494/699/1091 495/700/1095 526/731/1096 524/729/1092
s 6
f 476/680/1097 475/679/1093 525/730/1094 527/732/1098
s 7
f 495/700/1095 496/701/1099 528/733/1100 526/731/1096
s 6
f 477/681/1101 476/680/1097 527/732/1098 529/734/1102
s 7
f 496/701/1099 497/702/1103 530/735/1104 528/733/1100
s 6
f 478/682/1105 477/681/1101 529/734/1102 531/736/1106
s 7
f 497/702/1103 498/703/1107 532/737/1108 530/735/1104
s 6
f 479/683/1109 478/682/1105 531/736/1106 533/738/1110
s 7
f 498/703/1107 499/704/1111 534/739/1112 532/737/1108
s 6
f 480/684/1113 479/683/1109 533/738/1110 535/740/1114
s 7
f 499/704/1111 500/705/1115 536/741/1116 534/739/1112
s 6
f 481/685/1117 480/684/1113 535/740/1114 537/742/1118
s 7
f 500/705/1115 501/706/1119 538/743/1120 536/741/1116
s 6
f 482/686/1121 481/685/1117 537/742/1118 539/744/1122
s 7
f 501/706/1119 502/707/1123 540/745/1124 538/743/1120
s 6
f 483/687/1125 482/686/1121 539/744/1122 541/746/1126
s 7
f 502/707/1123 503/708/1127 542/747/1128 540/745/1124
s 6
f 484/688/1129 483/687/1125 541/746/1126 543/748/1130
s 7
f 503/708/1127 504/709/1131 544/749/1132 542/747/1128
s 6
f 465/669/1054 484/688/1129 543/748/1130 505/750/1055
s 7
f 504/709/1131 485/690/1057 507/751/1060 544/749/1132
