# This file uses centimeters as units for non-parametric coordinates.

mtllib B01.mtl
g default
v 1283.866085 226.230601 10.824923
v 1886.332770 226.230601 10.824923
v 1283.866085 226.230601 -107.549232
v 1886.332770 226.230601 -107.549232
v 1283.866085 226.230601 -225.923370
v 1886.332770 226.230601 -225.923370
v 1656.224180 226.230601 10.824923
v 1656.224180 226.230601 -107.549232
v 1656.224180 226.230601 -225.923370
v 1755.907696 226.230601 10.824923
v 1755.907696 226.230601 -107.549232
v 1755.907696 226.230601 -225.923370
v 1283.866085 203.607539 10.824923
v 1283.866085 203.607539 -107.549232
v 1283.866085 203.607539 -225.923370
v 1656.224180 203.607539 -225.923370
v 1755.907696 203.607539 -225.923370
v 1886.332770 203.607539 -225.923370
v 1886.332770 203.607539 -107.549232
v 1886.332770 203.607539 10.824923
v 1755.907696 203.607539 10.824923
v 1656.224180 203.607539 10.824923
v 1283.866085 20.360753 10.824923
v 1283.866085 20.360753 -107.549232
v 1283.866085 20.360760 -225.923370
v 1656.224180 20.360760 -225.923370
v 1755.907696 20.360760 -225.923370
v 1886.332770 20.360760 -225.923370
v 1886.332770 20.360753 -107.549232
v 1886.332770 20.360753 10.824923
v 1755.907696 20.360753 10.824923
v 1656.224180 20.360753 10.824923
v 1755.907696 20.360753 0.824924
v 1755.907696 203.607539 0.824910
v 1656.224180 203.607539 0.824924
v 1656.224180 20.360753 0.824924
v 1283.866085 214.919076 -225.923370
v 1283.866085 214.919076 -107.549232
v 1283.866085 214.919076 10.824923
v 1656.224180 214.919076 10.824923
v 1755.907696 214.919076 10.824923
v 1886.332770 214.919076 10.824923
v 1886.332770 214.919076 -107.549232
v 1886.332770 214.919076 -225.923370
v 1755.907696 214.919076 -225.923370
v 1656.224180 214.919076 -225.923370
v 1641.625287 20.360752 10.824922
v 1641.625287 203.607526 10.824922
v 1641.625287 214.919076 10.824923
v 1641.625287 226.230601 10.824923
v 1641.625287 226.230601 -107.549232
v 1641.625287 226.230601 -225.923370
v 1641.625287 214.919076 -225.923355
v 1641.625287 203.607539 -225.923370
v 1641.625287 20.360760 -225.923370
v 1769.587905 20.360753 10.824923
v 1769.587905 203.607539 10.824923
v 1769.587905 214.919076 10.824923
v 1769.587905 226.230601 10.824923
v 1769.587905 226.230601 -107.549232
v 1769.587905 226.230601 -225.923370
v 1769.587905 214.919076 -225.923370
v 1769.587905 203.607539 -225.923370
v 1769.587905 20.360760 -225.923370
v 1769.587905 20.360753 20.128702
v 1769.587905 203.607539 20.128702
v 1755.907696 203.607539 20.128702
v 1755.907696 20.360753 20.128702
v 1656.224180 214.919076 20.128702
v 1755.907696 214.919076 20.128702
v 1656.224180 203.607539 20.128702
v 1769.587905 214.919076 20.128702
v 1641.625287 20.360752 20.128700
v 1641.625287 203.607526 20.128700
v 1656.224180 20.360753 20.128702
v 1641.625287 214.919076 20.128702
vt 0.375000 0.250000
vt 0.625000 0.250000
vt 0.375000 0.375000
vt 0.625000 0.375000
vt 0.375000 0.500000
vt 0.625000 0.500000
vt 0.875000 0.250000
vt 0.750000 0.250000
vt 0.125000 0.250000
vt 0.250000 0.250000
vt 0.412500 0.250000
vt 0.412500 0.375000
vt 0.412500 0.500000
vt 0.587500 0.250000
vt 0.587500 0.375000
vt 0.587500 0.500000
vt 0.375000 0.225000
vt 0.250000 0.225000
vt 0.125000 0.225000
vt 0.375000 0.525000
vt 0.412500 0.525000
vt 0.587500 0.525000
vt 0.625000 0.525000
vt 0.875000 0.225000
vt 0.750000 0.225000
vt 0.625000 0.225000
vt 0.587500 0.225000
vt 0.412500 0.225000
vt 0.375000 0.022500
vt 0.250000 0.022500
vt 0.125000 0.022500
vt 0.375000 0.727500
vt 0.412500 0.727500
vt 0.587500 0.727500
vt 0.625000 0.727500
vt 0.875000 0.022500
vt 0.750000 0.022500
vt 0.625000 0.022500
vt 0.587500 0.022500
vt 0.412500 0.022500
vt 0.587500 0.022500
vt 0.587500 0.225000
vt 0.412500 0.225000
vt 0.412500 0.022500
vt 0.125000 0.237500
vt 0.375000 0.512500
vt 0.250000 0.237500
vt 0.375000 0.237500
vt 0.412500 0.237500
vt 0.587500 0.237500
vt 0.625000 0.237500
vt 0.750000 0.237500
vt 0.625000 0.512500
vt 0.875000 0.237500
vt 0.587500 0.512500
vt 0.412500 0.512500
vt 0.408750 0.022500
vt 0.408750 0.225000
vt 0.408750 0.237500
vt 0.408750 0.250000
vt 0.408750 0.375000
vt 0.408750 0.500000
vt 0.408750 0.512500
vt 0.408750 0.525000
vt 0.408750 0.727500
vt 0.598750 0.022500
vt 0.598750 0.225000
vt 0.598750 0.237500
vt 0.598750 0.250000
vt 0.598750 0.375000
vt 0.598750 0.500000
vt 0.598750 0.512500
vt 0.598750 0.525000
vt 0.598750 0.727500
vt 0.598750 0.022500
vt 0.598750 0.225000
vt 0.587500 0.225000
vt 0.587500 0.022500
vt 0.587500 0.237500
vt 0.412500 0.237500
vt 0.412500 0.225000
vt 0.598750 0.237500
vt 0.408750 0.225000
vt 0.408750 0.022500
vt 0.412500 0.022500
vt 0.408750 0.237500
vn 0.000000 1.000000 0.000000
vn 0.000000 1.000000 0.000000
vn 0.000000 1.000000 0.000000
vn 0.000000 1.000000 0.000000
vn 0.000000 1.000000 0.000000
vn 0.000000 1.000000 0.000000
vn 0.000000 1.000000 0.000000
vn 0.000000 1.000000 0.000000
vn 0.000000 1.000000 0.000000
vn 0.000000 1.000000 0.000000
vn 0.000000 1.000000 0.000000
vn 0.000000 1.000000 0.000000
vn 0.000000 1.000000 0.000000
vn 0.000000 1.000000 0.000000
vn 0.000000 1.000000 0.000000
vn -1.000000 0.000000 0.000000
vn -1.000000 0.000000 0.000000
vn -1.000000 0.000000 0.000000
vn -1.000000 0.000000 0.000000
vn -1.000000 0.000000 0.000000
vn -1.000000 0.000000 0.000000
vn 0.000000 -0.000001 -1.000000
vn 0.000000 -0.000001 -1.000000
vn 0.000000 0.000000 -1.000000
vn 0.000000 0.000000 -1.000000
vn 0.000000 0.000000 -1.000000
vn 0.000000 0.000000 -1.000000
vn 0.000000 -0.000000 -1.000000
vn 0.000000 0.000000 -1.000000
vn 0.000000 0.000000 -1.000000
vn 0.000000 0.000000 -1.000000
vn 1.000000 0.000000 0.000000
vn 1.000000 0.000000 0.000000
vn 1.000000 0.000000 0.000000
vn 1.000000 0.000000 0.000000
vn 1.000000 0.000000 0.000000
vn 1.000000 0.000000 0.000000
vn 0.000000 0.000000 1.000000
vn 0.000000 0.000000 1.000000
vn 0.000000 0.000000 1.000000
vn 0.000000 0.000000 1.000000
vn 0.000000 0.000000 1.000000
vn 0.000000 0.000000 1.000000
vn 0.000000 -0.000000 1.000000
vn 0.000000 -0.000000 1.000000
vn 0.000000 0.000000 1.000000
vn 0.000000 0.000000 1.000000
vn -1.000000 0.000000 0.000000
vn -1.000000 0.000000 0.000000
vn -1.000000 0.000000 0.000000
vn -1.000000 0.000000 0.000000
vn -1.000000 0.000000 0.000000
vn -1.000000 0.000000 0.000000
vn 0.000000 0.000000 -1.000000
vn 0.000000 0.000000 -1.000000
vn 0.000000 0.000000 -1.000000
vn 0.000000 0.000000 -1.000000
vn 0.000000 0.000000 -1.000000
vn 0.000000 0.000000 -1.000000
vn 0.000000 0.000000 -1.000000
vn 0.000000 0.000000 -1.000000
vn 0.000000 0.000000 -1.000000
vn 0.000000 0.000000 -1.000000
vn 1.000000 0.000000 0.000000
vn 1.000000 0.000000 0.000000
vn 1.000000 0.000000 0.000000
vn 1.000000 0.000000 0.000000
vn 1.000000 0.000000 0.000000
vn 1.000000 0.000000 0.000000
vn 0.000000 0.000000 1.000000
vn 0.000000 0.000000 1.000000
vn 0.000000 0.000000 1.000000
vn 0.000000 0.000000 1.000000
vn 0.000000 0.000000 1.000000
vn 0.000000 0.000000 1.000000
vn 0.000000 0.000000 1.000000
vn 0.000000 0.000000 1.000000
vn 0.000000 0.000000 1.000000
vn 0.000000 0.000000 1.000000
vn 0.000000 -0.000000 1.000000
vn 0.000000 -0.000000 1.000000
vn -1.000000 0.000000 0.000000
vn -1.000000 0.000000 0.000000
vn -1.000000 0.000000 0.000000
vn -1.000000 0.000000 0.000000
vn 0.000000 -1.000000 0.000000
vn 0.000000 -1.000000 0.000000
vn 0.000000 -1.000000 0.000000
vn 0.000000 -1.000000 0.000000
vn 1.000000 0.000000 0.000000
vn 1.000000 0.000000 0.000000
vn 1.000000 0.000000 0.000000
vn 1.000000 0.000000 0.000000
vn 0.000000 0.000000 1.000000
vn -0.000000 -0.000000 1.000000
vn -0.000000 -0.000000 1.000000
vn 0.000000 0.000000 1.000000
vn -0.000000 -0.000000 1.000000
vn -0.000000 0.000000 1.000000
vn -0.000000 0.000000 1.000000
vn -0.000000 -0.000000 1.000000
vn 0.000000 0.000000 1.000000
vn 0.000000 0.000000 1.000000
vn 0.000000 0.000000 1.000000
vn 0.000000 0.000000 1.000000
vn 0.000000 0.000000 1.000000
vn 0.000000 0.000000 1.000000
vn 0.000000 1.000000 0.000000
vn 0.000000 1.000000 0.000000
vn 0.000000 1.000000 0.000000
vn 0.000000 0.000000 -1.000000
vn 0.000000 0.000000 -1.000000
vn 0.000000 0.000000 -1.000000
vn 0.000000 0.000000 -1.000000
vn 1.000000 0.000000 0.000000
vn 1.000000 0.000000 0.000000
vn 1.000000 0.000000 0.000000
vn 1.000000 0.000000 0.000000
vn -1.000000 0.000000 0.000000
vn -1.000000 0.000000 0.000000
vn 0.000000 -1.000000 0.000000
vn 0.000000 -1.000000 0.000000
vn 0.000000 -1.000000 0.000000
vn 0.000000 -1.000000 0.000000
vn 0.000000 1.000000 0.000000
vn 0.000000 1.000000 0.000000
vn 0.000000 1.000000 0.000000
vn 0.000000 1.000000 0.000000
vn 0.000000 -1.000000 0.000000
vn 0.000000 -1.000000 0.000000
vn 1.000000 0.000000 0.000000
vn 1.000000 0.000000 0.000000
vn 0.000000 1.000000 0.000000
vn 0.000000 1.000000 0.000000
vn -1.000000 0.000000 0.000000
vn -1.000000 0.000000 0.000000
vn -1.000000 0.000000 0.000000
vn -1.000000 0.000000 0.000000
vn 0.000000 -1.000000 0.000000
vn 0.000000 -1.000000 0.000000
vn 0.000000 -1.000000 0.000000
vn 0.000000 -1.000000 0.000000
vn 1.000000 0.000000 0.000000
vn 1.000000 0.000000 0.000000
vn -1.000000 0.000000 0.000000
vn -1.000000 0.000000 0.000000
vn 0.000000 1.000000 0.000000
vn 0.000000 1.000000 0.000000
s 1
g pCube7 group10 B02
usemtl blinn2SG
f 1/1/1 50/60/2 51/61/3 3/3/4
f 3/3/4 51/61/3 52/62/5 5/5/6
f 11/15/7 8/12/8 7/11/9 10/14/10
f 12/16/11 9/13/12 8/12/8 11/15/7
f 11/15/7 10/14/10 59/69/13 60/70/14
f 12/16/11 11/15/7 60/70/14 61/71/15
s 3
f 38/47/16 39/48/17 1/1/18 3/10/19
f 37/45/20 38/47/16 3/10/19 5/9/21
s 4
f 5/5/22 52/62/23 53/63/24 37/46/25
f 45/55/26 46/56/27 9/13/28 12/16/29
f 61/71/30 62/72/31 45/55/26 12/16/29
s 6
f 43/52/32 44/54/33 6/7/34 4/8/35
f 42/51/36 43/52/32 4/8/35 2/2/37
s 7
f 10/14/38 41/50/39 58/68/40 59/69/41
f 10/14/38 7/11/42 40/49/43 41/50/39
f 39/48/44 49/59/45 50/60/46 1/1/47
s 3
f 24/30/48 23/29/49 13/17/50 14/18/51
f 25/31/52 24/30/48 14/18/51 15/19/53
s 4
f 15/20/54 54/64/55 55/65/56 25/32/57
f 27/34/58 26/33/59 16/21/60 17/22/61
f 63/73/62 64/74/63 27/34/58 17/22/61
s 6
f 29/37/64 28/36/65 18/24/66 19/25/67
f 30/38/68 29/37/64 19/25/67 20/26/69
s 9
f 65/75/70 66/76/71 67/77/72 68/78/73
s off
f 34/42/74 35/43/75 36/44/76 33/41/77
s 7
f 23/29/78 47/57/79 48/58/80 13/17/81
s 10
f 31/39/82 21/27/83 34/42/84 33/41/85
s 11
f 34/42/86 21/27/87 22/28/88 35/43/89
s 12
f 22/28/90 32/40/91 36/44/92 35/43/93
s 3
f 15/19/53 14/18/51 38/47/16 37/45/20
f 14/18/51 13/17/50 39/48/17 38/47/16
s 7
f 13/17/81 48/58/80 49/59/45 39/48/44
s 9
f 70/79/94 69/80/95 71/81/96 67/77/72
f 66/76/71 72/82/97 70/79/94 67/77/72
s 6
f 20/26/69 19/25/67 43/52/32 42/51/36
f 19/25/67 18/24/66 44/54/33 43/52/32
s 4
f 62/72/31 63/73/62 17/22/61 45/55/26
f 16/21/60 46/56/27 45/55/26 17/22/61
f 37/46/25 53/63/24 54/64/55 15/20/54
s 9
f 74/83/98 73/84/99 75/85/100 71/81/96
f 76/86/101 74/83/98 71/81/96 69/80/95
s 7
f 50/60/46 49/59/45 40/49/43 7/11/42
s 1
f 51/61/3 50/60/2 7/11/9 8/12/8
f 52/62/5 51/61/3 8/12/8 9/13/12
s 4
f 53/63/24 52/62/23 9/13/28 46/56/27
f 54/64/55 53/63/24 46/56/27 16/21/60
f 55/65/56 54/64/55 16/21/60 26/33/59
s 7
f 20/26/102 57/67/103 56/66/104 30/38/105
f 42/51/106 58/68/40 57/67/103 20/26/102
f 59/69/41 58/68/40 42/51/106 2/2/107
s 1
f 60/70/14 59/69/13 2/2/108 4/4/109
f 61/71/15 60/70/14 4/4/109 6/6/110
s 4
f 44/53/111 62/72/31 61/71/30 6/6/112
f 18/23/113 63/73/62 62/72/31 44/53/111
f 28/35/114 64/74/63 63/73/62 18/23/113
s 15
f 56/66/115 57/67/116 66/76/117 65/75/118
s 10
f 21/27/83 31/39/82 68/78/119 67/77/120
s off
f 31/39/121 56/66/122 65/75/123 68/78/124
s 16
f 41/50/125 40/49/126 69/80/127 70/79/128
s 11
f 22/28/88 21/27/87 67/77/129 71/81/130
s 15
f 57/67/116 58/68/131 72/82/132 66/76/117
s 16
f 58/68/133 41/50/125 70/79/128 72/82/134
s 17
f 48/58/135 47/57/136 73/84/137 74/83/138
s off
f 47/57/139 32/40/140 75/85/141 73/84/142
s 12
f 32/40/91 22/28/90 71/81/143 75/85/144
s 17
f 49/59/145 48/58/135 74/83/138 76/86/146
s 16
f 40/49/126 49/59/147 76/86/148 69/80/127
g default
v 1242.528107 264.505289 16.714720
v 1585.099427 264.505289 16.714720
v 1927.670569 264.505289 16.714720
v 1242.528107 367.658952 16.714720
v 1585.099427 367.659536 16.714720
v 1927.670569 367.658952 16.714720
v 1242.528107 367.658952 -107.549232
v 1585.099427 367.659536 -107.549232
v 1927.670569 367.658952 -107.549232
v 1242.528107 367.658952 -231.813171
v 1585.099427 367.658952 -231.813171
v 1927.670569 367.658952 -231.813171
v 1242.528107 264.505289 -231.813171
v 1585.099427 264.505289 -231.813171
v 1927.670569 264.505289 -231.813171
v 1242.528107 264.505289 -107.549232
v 1585.099427 264.505289 -107.549232
v 1927.670569 264.505289 -107.549232
v 1381.931850 264.505289 16.714720
v 1381.931850 367.658952 16.714720
v 1381.931850 367.658952 -107.549232
v 1381.931850 367.658952 -231.813171
v 1381.931850 264.505289 -231.813171
v 1381.931850 264.505289 -107.549232
v 1488.122289 264.505289 16.714720
v 1488.122289 367.659536 16.714720
v 1488.122289 367.659536 -107.549232
v 1488.122289 367.658952 -231.813171
v 1488.122289 264.505289 -231.813171
v 1488.122289 264.505289 -107.549232
v 1788.267004 264.505289 16.714720
v 1788.267004 367.658952 16.714720
v 1788.267004 367.658952 -107.549232
v 1788.267004 367.658952 -231.813171
v 1788.267004 264.505289 -231.813171
v 1788.267004 264.505289 -107.549232
v 1682.076566 264.505289 16.714720
v 1682.076566 367.659536 16.714720
v 1682.076566 367.659536 -107.549232
v 1682.076566 367.658952 -231.813171
v 1682.076566 264.505289 -231.813171
v 1682.076566 264.505289 -107.549232
v 1242.528107 357.343568 16.714720
v 1242.528107 357.343568 -107.549232
v 1242.528107 357.343568 -231.813171
v 1381.931850 357.343568 -231.813171
v 1488.122289 357.343568 -231.813171
v 1585.099070 357.343568 -231.813171
v 1682.076566 357.343568 -231.813171
v 1788.267004 357.343568 -231.813171
v 1927.670569 357.343568 -231.813171
v 1927.670569 357.343568 -107.549232
v 1927.670569 357.343568 16.714720
v 1788.267004 357.343568 16.714720
v 1682.076566 357.344076 16.714720
v 1585.099427 357.344076 16.714720
v 1488.122289 357.344076 16.714720
v 1381.931850 357.343568 16.714720
v 1242.528107 273.789101 16.714720
v 1242.528107 273.789101 -107.549225
v 1242.528107 273.789127 -231.813171
v 1381.931850 273.789127 -231.813171
v 1488.122289 273.789127 -231.813171
v 1585.099427 273.789127 -231.813171
v 1682.076566 273.789127 -231.813171
v 1788.267004 273.789127 -231.813171
v 1927.670569 273.789127 -231.813171
v 1927.670569 273.789101 -107.549225
v 1927.670569 273.789101 16.714720
v 1788.267004 273.789101 16.714720
v 1682.076566 273.789152 16.714720
v 1585.099070 273.789152 16.714720
v 1488.122289 273.789152 16.714720
v 1381.931850 273.789101 16.714720
v 1381.931850 273.789127 -226.813171
v 1488.122289 273.789127 -226.813171
v 1381.931850 357.343568 -226.813171
v 1488.122289 357.343568 -226.813171
v 1682.076566 273.789127 -226.813171
v 1788.267004 273.789127 -226.813171
v 1682.076566 357.343568 -226.813171
v 1788.267004 357.343568 -226.813171
v 1788.267004 357.343568 11.714720
v 1682.076566 357.344076 11.714720
v 1682.076566 273.789152 11.714720
v 1788.267004 273.789101 11.714720
v 1488.122289 357.344076 11.714720
v 1381.931850 357.343568 11.714720
v 1381.931850 273.789101 11.714720
v 1488.122289 273.789152 11.714720
v 1367.991458 264.505289 16.714720
v 1367.991458 273.789101 16.714720
v 1367.991458 357.343543 16.714720
v 1367.991458 367.658952 16.714720
v 1367.991458 367.658952 -107.549232
v 1367.991458 367.658952 -231.813171
v 1367.991458 357.343568 -231.813171
v 1367.991458 273.789127 -231.813171
v 1367.991458 264.505289 -231.813171
v 1367.991458 264.505289 -107.549232
v 1497.819860 264.505289 16.714720
v 1497.819860 273.789152 16.714720
v 1497.820038 357.344076 16.714720
v 1497.819860 367.659511 16.714720
v 1497.819860 367.659511 -107.549225
v 1497.819860 367.658952 -231.813171
v 1497.819860 357.343543 -231.813171
v 1497.819860 273.789127 -231.813171
v 1497.819860 264.505289 -231.813171
v 1497.819860 264.505289 -107.549225
v 1672.378995 264.505289 16.714720
v 1672.378816 273.789152 16.714720
v 1672.378816 357.344050 16.714720
v 1672.378995 367.659536 16.714720
v 1672.378995 367.659536 -107.549232
v 1672.378995 367.658952 -231.813171
v 1672.378995 357.343568 -231.813171
v 1672.378995 273.789127 -231.813171
v 1672.378995 264.505289 -231.813171
v 1672.378995 264.505289 -107.549232
v 1802.207397 264.505289 16.714720
v 1802.207397 273.789101 16.714720
v 1802.207397 357.343568 16.714720
v 1802.207397 367.658952 16.714720
v 1802.207397 367.658952 -107.549225
v 1802.207397 367.658952 -231.813171
v 1802.207397 357.343543 -231.813171
v 1802.207397 273.789127 -231.813171
v 1802.207397 264.505289 -231.813171
v 1802.207397 264.505289 -107.549225
vt 0.375000 0.000000
vt 0.500000 0.000000
vt 0.625000 0.000000
vt 0.375000 0.250000
vt 0.500000 0.250000
vt 0.625000 0.250000
vt 0.375000 0.375000
vt 0.500000 0.375000
vt 0.625000 0.375000
vt 0.375000 0.500000
vt 0.500000 0.500000
vt 0.625000 0.500000
vt 0.375000 0.750000
vt 0.500000 0.750000
vt 0.625000 0.750000
vt 0.375000 0.875000
vt 0.500000 0.875000
vt 0.625000 0.875000
vt 0.375000 1.000000
vt 0.500000 1.000000
vt 0.625000 1.000000
vt 0.875000 0.000000
vt 0.750000 0.000000
vt 0.875000 0.250000
vt 0.750000 0.250000
vt 0.125000 0.000000
vt 0.250000 0.000000
vt 0.125000 0.250000
vt 0.250000 0.250000
vt 0.437500 0.000000
vt 0.437500 1.000000
vt 0.437500 0.250000
vt 0.437500 0.375000
vt 0.437500 0.500000
vt 0.437500 0.750000
vt 0.437500 0.875000
vt 0.456250 0.000000
vt 0.456250 1.000000
vt 0.456250 0.250000
vt 0.456250 0.375000
vt 0.456250 0.500000
vt 0.456250 0.750000
vt 0.456250 0.875000
vt 0.562500 0.000000
vt 0.562500 1.000000
vt 0.562500 0.250000
vt 0.562500 0.375000
vt 0.562500 0.500000
vt 0.562500 0.750000
vt 0.562500 0.875000
vt 0.543750 0.000000
vt 0.543750 1.000000
vt 0.543750 0.250000
vt 0.543750 0.375000
vt 0.543750 0.500000
vt 0.543750 0.750000
vt 0.543750 0.875000
vt 0.375000 0.225000
vt 0.250000 0.225000
vt 0.125000 0.225000
vt 0.375000 0.525000
vt 0.437500 0.525000
vt 0.456250 0.525000
vt 0.500000 0.525000
vt 0.543750 0.525000
vt 0.562500 0.525000
vt 0.625000 0.525000
vt 0.875000 0.225000
vt 0.750000 0.225000
vt 0.625000 0.225000
vt 0.562500 0.225000
vt 0.543750 0.225000
vt 0.500000 0.225000
vt 0.456250 0.225000
vt 0.437500 0.225000
vt 0.375000 0.022500
vt 0.250000 0.022500
vt 0.125000 0.022500
vt 0.375000 0.727500
vt 0.437500 0.727500
vt 0.456250 0.727500
vt 0.500000 0.727500
vt 0.543750 0.727500
vt 0.562500 0.727500
vt 0.625000 0.727500
vt 0.875000 0.022500
vt 0.750000 0.022500
vt 0.625000 0.022500
vt 0.562500 0.022500
vt 0.543750 0.022500
vt 0.500000 0.022500
vt 0.456250 0.022500
vt 0.437500 0.022500
vt 0.456250 0.727500
vt 0.437500 0.727500
vt 0.437500 0.525000
vt 0.456250 0.525000
vt 0.562500 0.727500
vt 0.543750 0.727500
vt 0.543750 0.525000
vt 0.562500 0.525000
vt 0.562500 0.225000
vt 0.543750 0.225000
vt 0.543750 0.022500
vt 0.562500 0.022500
vt 0.456250 0.225000
vt 0.437500 0.225000
vt 0.437500 0.022500
vt 0.456250 0.022500
vt 0.431250 0.000000
vt 0.431250 1.000000
vt 0.431250 0.022500
vt 0.431250 0.225000
vt 0.431250 0.250000
vt 0.431250 0.375000
vt 0.431250 0.500000
vt 0.431250 0.525000
vt 0.431250 0.727500
vt 0.431250 0.750000
vt 0.431250 0.875000
vt 0.460625 0.000000
vt 0.460625 1.000000
vt 0.460625 0.022500
vt 0.460625 0.225000
vt 0.460625 0.250000
vt 0.460625 0.375000
vt 0.460625 0.500000
vt 0.460625 0.525000
vt 0.460625 0.727500
vt 0.460625 0.750000
vt 0.460625 0.875000
vt 0.539375 0.000000
vt 0.539375 1.000000
vt 0.539375 0.022500
vt 0.539375 0.225000
vt 0.539375 0.250000
vt 0.539375 0.375000
vt 0.539375 0.500000
vt 0.539375 0.525000
vt 0.539375 0.727500
vt 0.539375 0.750000
vt 0.539375 0.875000
vt 0.568750 0.000000
vt 0.568750 1.000000
vt 0.568750 0.022500
vt 0.568750 0.225000
vt 0.568750 0.250000
vt 0.568750 0.375000
vt 0.568750 0.500000
vt 0.568750 0.525000
vt 0.568750 0.727500
vt 0.568750 0.750000
vt 0.568750 0.875000
vn 0.000000 0.000000 1.000000
vn 0.000000 0.000000 1.000000
vn 0.000000 0.000000 1.000000
vn 0.000000 0.000000 1.000000
vn 0.000000 0.000000 1.000000
vn 0.000000 0.000000 1.000000
vn 0.000000 0.000000 1.000000
vn 0.000000 0.000000 1.000000
vn 0.000000 1.000000 0.000000
vn 0.000000 1.000000 0.000000
vn 0.000000 1.000000 0.000000
vn 0.000000 1.000000 0.000000
vn -0.000000 1.000000 0.000000
vn 0.000000 1.000000 0.000000
vn 0.000000 1.000000 -0.000002
vn -0.000000 1.000000 -0.000002
vn 0.000000 1.000000 0.000000
vn 0.000000 1.000000 0.000000
vn 0.000000 1.000000 -0.000005
vn -0.000000 1.000000 -0.000005
vn 0.000000 0.000000 -1.000000
vn 0.000000 0.000000 -1.000000
vn 0.000000 0.000000 -1.000000
vn 0.000000 0.000000 -1.000000
vn 0.000000 0.000000 -1.000000
vn 0.000000 0.000000 -1.000000
vn 0.000000 0.000000 -1.000000
vn 0.000000 0.000000 -1.000000
vn 0.000000 -1.000000 0.000000
vn 0.000000 -1.000000 0.000000
vn 0.000000 -1.000000 0.000000
vn 0.000000 -1.000000 0.000000
vn 0.000000 -1.000000 0.000000
vn 0.000000 -1.000000 0.000000
vn 0.000000 -1.000000 0.000000
vn 0.000000 -1.000000 0.000000
vn 0.000000 -1.000000 0.000000
vn 0.000000 -1.000000 0.000000
vn 0.000000 -1.000000 0.000000
vn 0.000000 -1.000000 0.000000
vn 1.000000 -0.000002 0.000000
vn 1.000000 -0.000003 0.000000
vn 1.000000 0.000000 0.000000
vn 1.000000 0.000000 0.000000
vn 1.000000 0.000000 0.000000
vn 1.000000 0.000000 0.000000
vn -1.000000 0.000000 0.000000
vn -1.000000 0.000006 0.000000
vn -1.000000 0.000000 0.000000
vn -1.000000 0.000000 0.000000
vn -1.000000 0.000012 0.000000
vn -1.000000 0.000000 0.000000
vn 0.000000 0.000000 1.000000
vn 0.000000 0.000000 1.000000
vn 0.000000 0.000000 1.000000
vn 0.000000 0.000000 1.000000
vn -0.000004 1.000000 -0.000001
vn -0.000005 1.000000 0.000000
vn -0.000005 1.000000 0.000000
vn -0.000004 1.000000 -0.000001
vn -0.000002 1.000000 -0.000002
vn -0.000002 1.000000 -0.000003
vn 0.000000 0.000000 -1.000000
vn 0.000000 0.000000 -1.000000
vn 0.000000 0.000000 -1.000000
vn 0.000000 0.000000 -1.000000
vn 0.000000 -1.000000 0.000000
vn 0.000000 -1.000000 0.000000
vn 0.000000 -1.000000 0.000000
vn 0.000000 -1.000000 0.000000
vn 0.000000 -1.000000 0.000000
vn 0.000000 -1.000000 0.000000
vn 0.000000 0.000000 1.000000
vn 0.000000 0.000000 1.000000
vn 0.000000 1.000000 0.000000
vn 0.000000 1.000000 -0.000002
vn 0.000000 1.000000 -0.000005
vn 0.000000 0.000000 -1.000000
vn 0.000000 0.000000 -1.000000
vn 0.000000 -1.000000 0.000000
vn 0.000000 -1.000000 0.000000
vn 0.000000 -1.000000 0.000000
vn 0.000000 0.000000 1.000000
vn 0.000000 0.000000 1.000000
vn -0.000000 0.000000 1.000000
vn -0.000000 0.000000 1.000000
vn 0.000004 1.000000 -0.000001
vn 0.000005 1.000000 0.000000
vn 0.000000 1.000000 0.000000
vn 0.000000 1.000000 0.000000
vn 0.000002 1.000000 -0.000002
vn 0.000000 1.000000 0.000000
vn 0.000000 0.000000 -1.000000
vn 0.000000 0.000000 -1.000000
vn 0.000000 0.000000 -1.000000
vn 0.000000 0.000000 -1.000000
vn 0.000000 -1.000000 0.000000
vn 0.000000 -1.000000 0.000000
vn 0.000000 -1.000000 0.000000
vn 0.000000 -1.000000 0.000000
vn 0.000000 -1.000000 0.000000
vn 0.000000 -1.000000 0.000000
vn -0.000000 0.000000 1.000000
vn -0.000000 0.000000 1.000000
vn 0.000004 1.000000 -0.000001
vn 0.000005 1.000000 0.000000
vn 0.000003 1.000000 -0.000003
vn 0.000000 0.000000 -1.000000
vn 0.000000 0.000000 -1.000000
vn 0.000000 -1.000000 0.000000
vn 0.000000 -1.000000 0.000000
vn 0.000000 -1.000000 0.000000
vn -1.000000 -0.000001 0.000000
vn -1.000000 -0.000001 0.000000
vn -1.000000 0.000000 0.000000
vn -1.000000 0.000000 0.000000
vn -1.000000 0.000000 0.000000
vn -1.000000 0.000000 0.000000
vn 0.000000 0.000000 -1.000000
vn 0.000000 0.000000 -1.000000
vn 0.000000 0.000000 -1.000000
vn 0.000000 0.000000 -1.000000
vn 0.000000 0.000000 -1.000000
vn 0.000000 0.000000 -1.000000
vn 0.000000 0.000000 -1.000000
vn 0.000000 0.000000 -1.000000
vn 0.000000 0.000000 -1.000000
vn 0.000000 0.000000 -1.000000
vn 0.000000 0.000000 -1.000000
vn 0.000000 0.000000 -1.000000
vn 0.000000 0.000000 -1.000000
vn 0.000000 0.000000 -1.000000
vn 0.000000 0.000000 -1.000000
vn 0.000000 0.000000 -1.000000
vn 0.000000 0.000000 -1.000000
vn 0.000000 0.000000 -1.000000
vn 0.000000 0.000000 -1.000000
vn 0.000000 0.000000 -1.000000
vn 1.000000 0.000000 0.000000
vn 1.000000 0.000000 0.000000
vn 1.000000 0.000000 0.000000
vn 1.000000 0.000000 0.000000
vn 1.000000 0.000000 0.000000
vn 1.000000 0.000000 0.000000
vn 0.000000 0.000000 1.000000
vn 0.000000 0.000000 1.000000
vn 0.000000 0.000000 1.000000
vn 0.000000 0.000000 1.000000
vn 0.000000 0.000000 1.000000
vn -0.000000 0.000000 1.000000
vn 0.000000 0.000000 1.000000
vn 0.000000 0.000000 1.000000
vn 0.000000 0.000000 1.000000
vn -0.000000 0.000000 1.000000
vn -0.000000 0.000000 1.000000
vn -0.000000 0.000000 1.000000
vn 0.000000 0.000000 1.000000
vn -0.000000 0.000000 1.000000
vn 0.000000 0.000000 1.000000
vn 0.000000 0.000000 1.000000
vn -0.000000 0.000000 1.000000
vn 0.000000 0.000000 1.000000
vn -0.000000 0.000000 1.000000
vn -0.000000 0.000000 1.000000
vn 0.000000 0.000000 -1.000000
vn 0.000000 0.000000 -1.000000
vn 0.000000 0.000000 -1.000000
vn 0.000000 0.000000 -1.000000
vn 0.000000 0.000000 -1.000000
vn 0.000000 0.000000 -1.000000
vn 0.000000 0.000000 -1.000000
vn 0.000000 0.000000 -1.000000
vn 0.000000 0.000000 1.000000
vn 0.000000 0.000000 1.000000
vn 0.000000 0.000000 1.000000
vn 0.000000 0.000000 1.000000
vn 0.000000 0.000000 1.000000
vn 0.000000 0.000000 1.000000
vn 0.000000 0.000000 1.000000
vn 0.000000 0.000000 1.000000
vn 0.000000 1.000000 0.000000
vn 0.000000 1.000000 0.000000
vn 0.000000 1.000000 0.000000
vn 0.000000 1.000000 0.000000
vn 1.000000 0.000000 0.000000
vn 1.000000 0.000000 0.000000
vn 1.000000 0.000000 0.000000
vn 1.000000 0.000000 0.000000
vn 0.000000 -1.000000 0.000000
vn 0.000000 -1.000000 0.000000
vn 0.000000 -1.000000 0.000000
vn 0.000000 -1.000000 0.000000
vn -1.000000 0.000000 0.000000
vn -1.000000 0.000000 0.000000
vn -1.000000 0.000000 0.000000
vn -1.000000 0.000000 0.000000
vn 0.000000 1.000000 0.000000
vn 0.000000 1.000000 0.000000
vn 0.000000 1.000000 0.000000
vn 0.000000 1.000000 0.000000
vn 1.000000 0.000000 0.000000
vn 1.000000 0.000000 0.000000
vn 1.000000 0.000000 0.000000
vn 1.000000 0.000000 0.000000
vn 0.000000 -1.000000 0.000000
vn 0.000000 -1.000000 0.000000
vn 0.000000 -1.000000 0.000000
vn 0.000000 -1.000000 0.000000
vn -1.000000 0.000000 0.000000
vn -1.000000 0.000000 0.000000
vn -1.000000 0.000000 0.000000
vn -1.000000 0.000000 0.000000
vn -0.000005 -1.000000 0.000000
vn -0.000005 -1.000000 0.000000
vn -0.000005 -1.000000 0.000000
vn -0.000005 -1.000000 0.000000
vn 1.000000 0.000000 0.000000
vn 1.000000 0.000000 0.000000
vn 1.000000 0.000000 0.000000
vn 1.000000 0.000000 0.000000
vn 0.000000 1.000000 0.000000
vn 0.000000 1.000000 0.000000
vn 0.000000 1.000000 0.000000
vn 0.000000 1.000000 0.000000
vn -1.000000 0.000000 0.000000
vn -1.000000 0.000000 0.000000
vn -1.000000 0.000000 0.000000
vn -1.000000 0.000000 0.000000
vn 0.000005 -1.000000 0.000000
vn 0.000005 -1.000000 0.000000
vn 0.000005 -1.000000 0.000000
vn 0.000005 -1.000000 0.000000
vn 1.000000 0.000000 0.000000
vn 1.000000 0.000000 0.000000
vn 1.000000 0.000000 0.000000
vn 1.000000 0.000000 0.000000
vn -0.000000 1.000000 0.000000
vn -0.000000 1.000000 0.000000
vn -0.000000 1.000000 0.000000
vn -0.000000 1.000000 0.000000
vn -1.000000 0.000000 0.000000
vn -1.000000 0.000000 0.000000
vn -1.000000 0.000000 0.000000
vn -1.000000 0.000000 0.000000
vn 0.000000 0.000000 1.000000
vn 0.000000 0.000000 1.000000
vn 0.000000 0.000000 1.000000
vn 0.000000 0.000000 1.000000
vn 0.000000 1.000000 0.000000
vn 0.000000 1.000000 0.000000
vn 0.000000 1.000000 0.000000
vn 0.000000 0.000000 -1.000000
vn 0.000000 0.000000 -1.000000
vn 0.000000 0.000000 -1.000000
vn 0.000000 0.000000 -1.000000
vn 0.000000 -1.000000 0.000000
vn 0.000000 -1.000000 0.000000
vn 0.000000 -1.000000 0.000000
s 1
g group10 B02 pCube8
usemtl blinn2SG
f 77/87/149 167/196/150 168/198/151 135/162/152
f 78/88/153 187/218/154 188/220/155 148/177/156
s 3
f 80/90/157 170/200/158 171/201/159 83/93/160
f 81/91/161 190/222/162 191/223/163 84/94/164
f 83/93/160 171/201/159 172/202/165 86/96/166
f 84/94/164 191/223/163 192/224/167 87/97/168
s 5
f 137/165/169 174/204/170 175/205/171 89/99/172
f 140/168/173 194/226/174 195/227/175 90/100/176
s 7
f 89/99/177 175/205/178 176/206/179 92/102/180
f 90/100/181 195/227/182 196/228/183 93/103/184
f 92/102/180 176/206/179 167/197/185 77/105/186
f 93/103/184 196/228/183 187/219/187 78/106/188
s 9
f 94/109/189 91/108/190 143/172/191 144/173/192
f 79/89/193 94/109/189 144/173/192 145/174/194
s 10
f 89/112/195 92/113/196 136/163/197 137/164/198
f 92/113/196 77/87/199 135/162/200 136/163/197
s 1
f 149/178/201 150/179/202 95/116/203 101/123/204
s 3
f 97/119/205 96/118/206 102/125/207 103/126/208
f 98/120/209 97/119/205 103/126/208 104/127/210
s 5
f 99/121/211 138/166/212 139/167/213 105/128/214
s 7
f 100/122/215 99/121/216 105/128/217 106/129/218
f 95/117/219 100/122/215 106/129/218 101/124/220
s 1
f 177/207/221 178/209/222 149/178/201 101/123/204
s 3
f 103/126/208 102/125/207 180/211/223 181/212/224
f 104/127/210 103/126/208 181/212/224 182/213/225
s 5
f 105/128/214 139/167/213 184/215/226 185/216/227
s 7
f 106/129/218 105/128/217 185/216/228 186/217/229
f 101/124/220 106/129/218 186/217/229 177/208/230
s 1
f 197/229/231 198/231/232 146/175/233 107/130/234
s 3
f 109/133/235 108/132/236 200/233/237 201/234/238
f 110/134/239 109/133/235 201/234/238 202/235/240
s 5
f 111/135/241 142/170/242 204/237/243 205/238/244
s 7
f 112/136/245 111/135/246 205/238/247 206/239/248
f 107/131/249 112/136/245 206/239/248 197/230/250
s 1
f 146/175/233 147/176/251 113/137/252 107/130/234
s 3
f 115/140/253 114/139/254 108/132/236 109/133/235
f 116/141/255 115/140/253 109/133/235 110/134/239
s 5
f 117/142/256 141/169/257 142/170/242 111/135/241
s 7
f 118/143/258 117/142/259 111/135/246 112/136/245
f 113/138/260 118/143/258 112/136/245 107/131/249
s 10
f 120/145/261 119/144/262 80/90/263 83/115/264
f 121/146/265 120/145/261 83/115/264 86/114/266
s 5
f 86/96/267 172/202/268 173/203/269 121/147/270
f 123/149/271 122/148/272 98/120/273 104/127/274
f 182/213/275 183/214/276 123/149/271 104/127/274
f 87/97/277 192/224/278 193/225/279 124/150/280
f 126/152/281 125/151/282 116/141/283 110/134/284
f 202/235/285 203/236/286 126/152/281 110/134/284
s 9
f 128/155/287 127/154/288 88/110/289 85/111/290
f 129/156/291 128/155/287 85/111/290 82/92/292
s 1
f 108/132/293 130/157/294 199/232/295 200/233/296
f 114/139/297 131/158/298 130/157/294 108/132/293
f 132/159/299 189/221/300 190/222/301 81/91/302
f 102/125/303 133/160/304 179/210/305 180/211/306
f 96/118/307 134/161/308 133/160/304 102/125/303
f 119/144/309 169/199/310 170/200/311 80/90/312
s 10
f 136/163/197 135/162/200 119/144/262 120/145/261
f 137/164/198 136/163/197 120/145/261 121/146/265
s 5
f 121/147/270 173/203/269 174/204/170 137/165/169
s off
f 152/180/313 151/181/314 153/182/315 154/183/316
s 5
f 183/214/276 184/215/226 139/167/213 123/149/271
f 124/150/280 193/225/279 194/226/174 140/168/173
s off
f 156/184/317 155/185/318 157/186/319 158/187/320
s 5
f 203/236/286 204/237/243 142/170/242 126/152/281
s 9
f 144/173/192 143/172/191 127/154/288 128/155/287
f 145/174/194 144/173/192 128/155/287 129/156/291
s 1
f 198/231/232 199/232/295 130/157/294 146/175/233
s off
f 159/188/321 160/189/322 161/190/323 162/191/324
s 1
f 148/177/156 188/220/155 189/221/300 132/159/299
f 178/209/222 179/210/305 133/160/304 149/178/201
s off
f 163/192/325 164/193/326 165/194/327 166/195/328
s 1
f 135/162/152 168/198/151 169/199/310 119/144/309
s off
f 139/167/329 138/166/330 151/181/331 152/180/332
f 138/166/333 122/148/334 153/182/335 151/181/336
f 122/148/337 123/149/338 154/183/339 153/182/340
f 123/149/341 139/167/342 152/180/343 154/183/344
f 142/170/345 141/169/346 155/185/347 156/184/348
f 141/169/349 125/151/350 157/186/351 155/185/352
f 125/151/353 126/152/354 158/187/355 157/186/356
f 126/152/357 142/170/358 156/184/359 158/187/360
f 130/157/361 131/158/362 160/189/363 159/188/364
f 131/158/365 147/176/366 161/190/367 160/189/368
f 147/176/369 146/175/370 162/191/371 161/190/372
f 146/175/373 130/157/374 159/188/375 162/191/376
f 133/160/377 134/161/378 164/193/379 163/192/380
f 134/161/381 150/179/382 165/194/383 164/193/384
f 150/179/385 149/178/386 166/195/387 165/194/388
f 149/178/389 133/160/390 163/192/391 166/195/392
s 1
f 168/198/151 167/196/150 95/116/203 150/179/202
f 169/199/310 168/198/151 150/179/202 134/161/308
f 170/200/311 169/199/310 134/161/308 96/118/307
s 3
f 171/201/159 170/200/158 96/118/206 97/119/205
f 172/202/165 171/201/159 97/119/205 98/120/209
s 5
f 173/203/269 172/202/268 98/120/273 122/148/272
f 174/204/170 173/203/269 122/148/272 138/166/212
f 175/205/171 174/204/170 138/166/212 99/121/211
s 7
f 176/206/179 175/205/178 99/121/216 100/122/215
f 167/197/185 176/206/179 100/122/215 95/117/219
s 1
f 148/177/156 178/209/222 177/207/221 78/88/153
f 132/159/299 179/210/305 178/209/222 148/177/156
f 180/211/306 179/210/305 132/159/299 81/91/302
s 3
f 181/212/224 180/211/223 81/91/161 84/94/164
f 182/213/225 181/212/224 84/94/164 87/97/168
s 5
f 124/150/280 183/214/276 182/213/275 87/97/277
f 140/168/173 184/215/226 183/214/276 124/150/280
f 185/216/227 184/215/226 140/168/173 90/100/176
s 7
f 186/217/229 185/216/228 90/100/181 93/103/184
f 177/208/230 186/217/229 93/103/184 78/106/188
s 1
f 188/220/155 187/218/154 113/137/252 147/176/251
f 189/221/300 188/220/155 147/176/251 131/158/298
f 190/222/301 189/221/300 131/158/298 114/139/297
s 3
f 191/223/163 190/222/162 114/139/254 115/140/253
f 192/224/167 191/223/163 115/140/253 116/141/255
s 5
f 193/225/279 192/224/278 116/141/283 125/151/282
f 194/226/174 193/225/279 125/151/282 141/169/257
f 195/227/175 194/226/174 141/169/257 117/142/256
s 7
f 196/228/183 195/227/182 117/142/259 118/143/258
f 187/219/187 196/228/183 118/143/258 113/138/260
s 1
f 145/174/393 198/231/232 197/229/231 79/89/394
f 129/156/395 199/232/295 198/231/232 145/174/393
f 200/233/296 199/232/295 129/156/395 82/92/396
s 3
f 201/234/238 200/233/237 82/92/397 85/95/398
f 202/235/240 201/234/238 85/95/398 88/98/399
s 5
f 127/153/400 203/236/286 202/235/285 88/98/401
f 143/171/402 204/237/243 203/236/286 127/153/400
f 205/238/244 204/237/243 143/171/402 91/101/403
s 7
f 206/239/248 205/238/247 91/101/404 94/104/405
f 197/230/250 206/239/248 94/104/405 79/107/406
g default
v 1208.576781 364.679362 38.617004
v 1585.099427 364.679412 38.617004
v 1961.622074 364.679362 38.617004
v 1259.429700 451.217657 -4.675892
v 1585.099427 451.217657 -4.675892
v 1910.769155 451.217657 -4.675892
v 1259.429700 451.217657 -107.549232
v 1585.099427 451.217657 -107.549232
v 1910.769155 451.217657 -107.549232
v 1259.429700 451.217657 -210.422562
v 1585.099427 451.217657 -210.422562
v 1910.769155 451.217657 -210.422562
v 1208.576781 364.679362 -253.715469
v 1585.099427 364.679362 -253.715469
v 1961.622074 364.679362 -253.715469
v 1208.576781 364.679362 -107.549232
v 1585.099427 364.679362 -107.549232
v 1961.622074 364.679362 -107.549232
vt 0.375000 0.000000
vt 0.500000 0.000000
vt 0.625000 0.000000
vt 0.375000 0.250000
vt 0.500000 0.250000
vt 0.625000 0.250000
vt 0.375000 0.375000
vt 0.500000 0.375000
vt 0.625000 0.375000
vt 0.375000 0.500000
vt 0.500000 0.500000
vt 0.625000 0.500000
vt 0.375000 0.750000
vt 0.500000 0.750000
vt 0.625000 0.750000
vt 0.375000 0.875000
vt 0.500000 0.875000
vt 0.625000 0.875000
vt 0.375000 1.000000
vt 0.500000 1.000000
vt 0.625000 1.000000
vt 0.875000 0.000000
vt 0.750000 0.000000
vt 0.875000 0.250000
vt 0.750000 0.250000
vt 0.125000 0.000000
vt 0.250000 0.000000
vt 0.125000 0.250000
vt 0.250000 0.250000
vn -0.000000 0.447410 0.894329
vn -0.000000 0.447410 0.894329
vn 0.000000 0.447410 0.894329
vn 0.000000 0.447410 0.894329
vn 0.000000 0.447410 0.894329
vn 0.000000 0.447410 0.894329
vn 0.000000 1.000000 0.000000
vn 0.000000 1.000000 0.000000
vn 0.000000 1.000000 0.000000
vn 0.000000 1.000000 0.000000
vn 0.000000 1.000000 0.000000
vn 0.000000 1.000000 0.000000
vn 0.000000 1.000000 0.000000
vn 0.000000 1.000000 0.000000
vn 0.000000 1.000000 0.000000
vn 0.000000 0.447410 -0.894329
vn 0.000000 0.447410 -0.894329
vn 0.000000 0.447410 -0.894329
vn 0.000000 0.447410 -0.894329
vn 0.000000 0.447410 -0.894329
vn 0.000000 0.447410 -0.894329
vn 0.000000 -1.000000 0.000000
vn 0.000000 -1.000000 0.000000
vn 0.000000 -1.000000 0.000000
vn 0.000000 -1.000000 0.000000
vn -0.000000 -1.000000 0.000000
vn 0.000000 -1.000000 0.000000
vn 0.000000 -1.000000 0.000000
vn 0.000000 -1.000000 0.000000
vn -0.000000 -1.000000 0.000000
vn 0.862160 0.506636 0.000000
vn 0.862160 0.506636 0.000000
vn 0.862160 0.506636 0.000000
vn 0.862160 0.506636 0.000000
vn 0.862161 0.506635 0.000000
vn 0.862161 0.506635 0.000000
vn -0.862160 0.506636 0.000000
vn -0.862160 0.506636 0.000000
vn -0.862160 0.506636 0.000000
vn -0.862160 0.506636 0.000000
vn -0.862160 0.506636 0.000000
vn -0.862160 0.506636 0.000000
s 1
g group10 B02 pCube10
usemtl blinn2SG
f 210/243/407 207/240/408 208/241/409 211/244/410
f 212/245/411 211/244/410 208/241/409 209/242/412
s 2
f 213/246/413 210/243/414 211/244/415 214/247/416
f 214/247/416 211/244/415 212/245/417 215/248/418
f 216/249/419 213/246/413 214/247/416 217/250/420
f 217/250/420 214/247/416 215/248/418 218/251/421
s 3
f 219/252/422 216/249/423 217/250/424 220/253/425
f 221/254/426 220/253/425 217/250/424 218/251/427
s 4
f 222/255/428 219/252/429 220/253/430 223/256/431
f 224/257/432 223/256/431 220/253/430 221/254/433
f 207/258/434 222/255/428 223/256/431 208/259/435
f 209/260/436 208/259/435 223/256/431 224/257/432
s 5
f 224/262/437 221/261/438 218/263/439 215/264/440
f 209/242/441 224/262/437 215/264/440 212/245/442
s 6
f 216/267/443 219/265/444 222/266/445 213/268/446
f 222/266/445 207/240/447 210/243/448 213/268/446
g default
v 1259.429700 451.217653 -4.675888
v 1585.099427 451.217653 -4.675888
v 1910.769155 451.217653 -4.675888
v 1295.610460 830.465230 -99.072617
v 1585.099427 830.465230 -99.072617
v 1874.588395 830.465230 -99.072617
v 1295.610460 830.465230 -107.549232
v 1585.099427 830.465230 -107.549232
v 1874.588395 830.465230 -107.549232
v 1295.610460 830.465230 -116.025848
v 1585.099427 830.465230 -116.025848
v 1874.588395 830.465230 -116.025848
v 1259.429700 451.217653 -210.422546
v 1585.099427 451.217653 -210.422546
v 1910.769155 451.217653 -210.422546
v 1259.429700 451.217653 -107.549232
v 1585.099070 451.217653 -107.549225
v 1910.769155 451.217653 -107.549232
vt 0.375000 0.000000
vt 0.500000 0.000000
vt 0.625000 0.000000
vt 0.375000 0.250000
vt 0.500000 0.250000
vt 0.625000 0.250000
vt 0.375000 0.375000
vt 0.500000 0.375000
vt 0.625000 0.375000
vt 0.375000 0.500000
vt 0.500000 0.500000
vt 0.625000 0.500000
vt 0.375000 0.750000
vt 0.500000 0.750000
vt 0.625000 0.750000
vt 0.375000 0.875000
vt 0.500000 0.875000
vt 0.625000 0.875000
vt 0.375000 1.000000
vt 0.500000 1.000000
vt 0.625000 1.000000
vt 0.875000 0.000000
vt 0.750000 0.000000
vt 0.875000 0.250000
vt 0.750000 0.250000
vt 0.125000 0.000000
vt 0.250000 0.000000
vt 0.125000 0.250000
vt 0.250000 0.250000
vn 0.000000 0.241536 0.970392
vn 0.000000 0.241536 0.970392
vn 0.000000 0.241536 0.970392
vn 0.000000 0.241536 0.970392
vn 0.000000 0.241536 0.970392
vn 0.000000 0.241536 0.970392
vn 0.000000 1.000000 0.000000
vn 0.000000 1.000000 0.000000
vn 0.000000 1.000000 0.000000
vn 0.000000 1.000000 0.000000
vn 0.000000 1.000000 0.000000
vn 0.000000 1.000000 0.000000
vn 0.000000 1.000000 0.000000
vn 0.000000 1.000000 0.000000
vn 0.000000 1.000000 0.000000
vn 0.000000 0.241536 -0.970392
vn 0.000000 0.241536 -0.970392
vn 0.000000 0.241536 -0.970392
vn 0.000000 0.241536 -0.970392
vn 0.000000 0.241536 -0.970392
vn 0.000000 0.241536 -0.970392
vn 0.000000 -1.000000 0.000000
vn 0.000000 -1.000000 -0.000000
vn 0.000000 -1.000000 0.000000
vn 0.000000 -1.000000 0.000000
vn 0.000000 -1.000000 -0.000000
vn 0.000000 -1.000000 0.000000
vn 0.000000 -1.000000 0.000000
vn 0.000000 -1.000000 0.000000
vn 0.000000 -1.000000 0.000000
vn 0.995480 0.094970 0.000000
vn 0.995480 0.094970 0.000000
vn 0.995480 0.094970 0.000000
vn 0.995480 0.094970 0.000000
vn 0.995480 0.094970 0.000000
vn 0.995480 0.094970 0.000000
vn -0.995480 0.094971 0.000000
vn -0.995480 0.094971 0.000000
vn -0.995480 0.094971 0.000000
vn -0.995480 0.094971 0.000000
vn -0.995480 0.094971 0.000000
vn -0.995480 0.094971 0.000000
s 1
g group10 B02 pCube11
usemtl blinn2SG
f 225/269/449 226/270/450 229/273/451 228/272/452
f 226/270/450 227/271/453 230/274/454 229/273/451
s 2
f 228/272/455 229/273/456 232/276/457 231/275/458
f 229/273/456 230/274/459 233/277/460 232/276/457
f 231/275/458 232/276/457 235/279/461 234/278/462
f 232/276/457 233/277/460 236/280/463 235/279/461
s 3
f 234/278/464 235/279/465 238/282/466 237/281/467
f 235/279/465 236/280/468 239/283/469 238/282/466
s 4
f 237/281/470 238/282/471 241/285/472 240/284/473
f 238/282/471 239/283/474 242/286/475 241/285/472
f 240/284/473 241/285/472 226/288/476 225/287/477
f 241/285/472 242/286/475 227/289/478 226/288/476
s 5
f 242/291/479 239/290/480 236/292/481 233/293/482
f 227/271/483 242/291/479 233/293/482 230/274/484
s 6
f 237/294/485 240/295/486 231/297/487 234/296/488
f 240/295/486 225/269/489 228/272/490 231/297/487
g default
v 1232.103415 226.230601 31.165764
v 1585.099427 226.230601 31.165764
v 1938.095440 226.230601 31.165764
v 1232.103415 264.505314 31.165764
v 1585.099427 264.505314 31.165764
v 1938.095440 264.505314 31.165764
v 1232.103415 264.505314 -107.549232
v 1585.099427 264.505314 -107.549232
v 1938.095440 264.505314 -107.549232
v 1232.103415 264.505314 -246.264221
v 1585.099427 264.505314 -246.264221
v 1938.095440 264.505314 -246.264221
v 1232.103415 226.230601 -246.264221
v 1585.099427 226.230601 -246.264221
v 1938.095440 226.230601 -246.264221
v 1232.103415 226.230601 -107.549232
v 1585.099427 226.230601 -107.549232
v 1938.095440 226.230601 -107.549232
vt 0.375000 0.000000
vt 0.500000 0.000000
vt 0.625000 0.000000
vt 0.375000 0.250000
vt 0.500000 0.250000
vt 0.625000 0.250000
vt 0.375000 0.375000
vt 0.500000 0.375000
vt 0.625000 0.375000
vt 0.375000 0.500000
vt 0.500000 0.500000
vt 0.625000 0.500000
vt 0.375000 0.750000
vt 0.500000 0.750000
vt 0.625000 0.750000
vt 0.375000 0.875000
vt 0.500000 0.875000
vt 0.625000 0.875000
vt 0.375000 1.000000
vt 0.500000 1.000000
vt 0.625000 1.000000
vt 0.875000 0.000000
vt 0.750000 0.000000
vt 0.875000 0.250000
vt 0.750000 0.250000
vt 0.125000 0.000000
vt 0.250000 0.000000
vt 0.125000 0.250000
vt 0.250000 0.250000
vn 0.000000 0.000000 1.000000
vn 0.000000 0.000000 1.000000
vn 0.000000 0.000000 1.000000
vn 0.000000 0.000000 1.000000
vn 0.000000 0.000000 1.000000
vn 0.000000 0.000000 1.000000
vn 0.000000 1.000000 0.000000
vn 0.000000 1.000000 0.000000
vn 0.000000 1.000000 0.000000
vn 0.000000 1.000000 0.000000
vn 0.000000 1.000000 0.000000
vn 0.000000 1.000000 0.000000
vn 0.000000 1.000000 0.000000
vn 0.000000 1.000000 0.000000
vn 0.000000 1.000000 0.000000
vn 0.000000 0.000000 -1.000000
vn 0.000000 0.000000 -1.000000
vn 0.000000 0.000000 -1.000000
vn 0.000000 0.000000 -1.000000
vn 0.000000 0.000000 -1.000000
vn 0.000000 0.000000 -1.000000
vn 0.000000 -1.000000 0.000000
vn 0.000000 -1.000000 0.000000
vn 0.000000 -1.000000 0.000000
vn 0.000000 -1.000000 0.000000
vn 0.000000 -1.000000 0.000000
vn 0.000000 -1.000000 0.000000
vn 0.000000 -1.000000 0.000000
vn 0.000000 -1.000000 0.000000
vn 0.000000 -1.000000 0.000000
vn 1.000000 0.000000 0.000000
vn 1.000000 0.000000 0.000000
vn 1.000000 0.000000 0.000000
vn 1.000000 0.000000 0.000000
vn 1.000000 0.000000 0.000000
vn 1.000000 0.000000 0.000000
vn -1.000000 0.000000 0.000000
vn -1.000000 0.000000 0.000000
vn -1.000000 0.000000 0.000000
vn -1.000000 0.000000 0.000000
vn -1.000000 0.000000 0.000000
vn -1.000000 0.000000 0.000000
s 1
g group10 B02 pCube16
usemtl blinn2SG
f 243/298/491 244/299/492 247/302/493 246/301/494
f 244/299/492 245/300/495 248/303/496 247/302/493
s 2
f 246/301/497 247/302/498 250/305/499 249/304/500
f 247/302/498 248/303/501 251/306/502 250/305/499
f 249/304/500 250/305/499 253/308/503 252/307/504
f 250/305/499 251/306/502 254/309/505 253/308/503
s 3
f 252/307/506 253/308/507 256/311/508 255/310/509
f 253/308/507 254/309/510 257/312/511 256/311/508
s 4
f 255/310/512 256/311/513 259/314/514 258/313/515
f 256/311/513 257/312/516 260/315/517 259/314/514
f 258/313/515 259/314/514 244/317/518 243/316/519
f 259/314/514 260/315/517 245/318/520 244/317/518
s 5
f 260/320/521 257/319/522 254/321/523 251/322/524
f 245/300/525 260/320/521 251/322/524 248/303/526
s 6
f 255/323/527 258/324/528 249/326/529 252/325/530
f 258/324/528 243/298/531 246/301/532 249/326/529
g default
v 1232.103415 1.223401 31.165764
v 1585.099427 1.223401 31.165764
v 1938.095440 1.223401 31.165764
v 1232.103415 20.360756 31.165764
v 1585.099427 20.360756 31.165764
v 1938.095440 20.360756 31.165764
v 1232.103415 20.360756 -107.549232
v 1585.099427 20.360756 -107.549232
v 1938.095440 20.360756 -107.549232
v 1232.103415 20.360756 -246.264221
v 1585.099427 20.360756 -246.264221
v 1938.095440 20.360756 -246.264221
v 1232.103415 1.223401 -246.264221
v 1585.099427 1.223401 -246.264221
v 1938.095440 1.223401 -246.264221
v 1232.103415 1.223401 -107.549232
v 1585.099427 1.223401 -107.549232
v 1938.095440 1.223401 -107.549232
vt 0.375000 0.000000
vt 0.500000 0.000000
vt 0.625000 0.000000
vt 0.375000 0.250000
vt 0.500000 0.250000
vt 0.625000 0.250000
vt 0.375000 0.375000
vt 0.500000 0.375000
vt 0.625000 0.375000
vt 0.375000 0.500000
vt 0.500000 0.500000
vt 0.625000 0.500000
vt 0.375000 0.750000
vt 0.500000 0.750000
vt 0.625000 0.750000
vt 0.375000 0.875000
vt 0.500000 0.875000
vt 0.625000 0.875000
vt 0.375000 1.000000
vt 0.500000 1.000000
vt 0.625000 1.000000
vt 0.875000 0.000000
vt 0.750000 0.000000
vt 0.875000 0.250000
vt 0.750000 0.250000
vt 0.125000 0.000000
vt 0.250000 0.000000
vt 0.125000 0.250000
vt 0.250000 0.250000
vn 0.000000 0.000000 1.000000
vn 0.000000 0.000000 1.000000
vn 0.000000 0.000000 1.000000
vn 0.000000 0.000000 1.000000
vn 0.000000 0.000000 1.000000
vn 0.000000 0.000000 1.000000
vn 0.000000 1.000000 0.000000
vn 0.000000 1.000000 0.000000
vn 0.000000 1.000000 0.000000
vn 0.000000 1.000000 0.000000
vn 0.000000 1.000000 0.000000
vn 0.000000 1.000000 0.000000
vn 0.000000 1.000000 0.000000
vn 0.000000 1.000000 0.000000
vn 0.000000 1.000000 0.000000
vn 0.000000 0.000000 -1.000000
vn 0.000000 0.000000 -1.000000
vn 0.000000 0.000000 -1.000000
vn 0.000000 0.000000 -1.000000
vn 0.000000 0.000000 -1.000000
vn 0.000000 0.000000 -1.000000
vn 0.000000 -1.000000 0.000000
vn 0.000000 -1.000000 0.000000
vn 0.000000 -1.000000 0.000000
vn 0.000000 -1.000000 0.000000
vn 0.000000 -1.000000 0.000000
vn 0.000000 -1.000000 0.000000
vn 0.000000 -1.000000 0.000000
vn 0.000000 -1.000000 0.000000
vn 0.000000 -1.000000 0.000000
vn 1.000000 0.000000 0.000000
vn 1.000000 0.000000 0.000000
vn 1.000000 0.000000 0.000000
vn 1.000000 0.000000 0.000000
vn 1.000000 0.000000 0.000000
vn 1.000000 0.000000 0.000000
vn -1.000000 0.000000 0.000000
vn -1.000000 0.000000 0.000000
vn -1.000000 0.000000 0.000000
vn -1.000000 0.000000 0.000000
vn -1.000000 0.000000 0.000000
vn -1.000000 0.000000 0.000000
s 1
g group10 B02 pCube17
usemtl blinn2SG
f 261/327/533 262/328/534 265/331/535 264/330/536
f 262/328/534 263/329/537 266/332/538 265/331/535
s 2
f 264/330/539 265/331/540 268/334/541 267/333/542
f 265/331/540 266/332/543 269/335/544 268/334/541
f 267/333/542 268/334/541 271/337/545 270/336/546
f 268/334/541 269/335/544 272/338/547 271/337/545
s 3
f 270/336/548 271/337/549 274/340/550 273/339/551
f 271/337/549 272/338/552 275/341/553 274/340/550
s 4
f 273/339/554 274/340/555 277/343/556 276/342/557
f 274/340/555 275/341/558 278/344/559 277/343/556
f 276/342/557 277/343/556 262/346/560 261/345/561
f 277/343/556 278/344/559 263/347/562 262/346/560
s 5
f 278/349/563 275/348/564 272/350/565 269/351/566
f 263/329/567 278/349/563 269/351/566 266/332/568
s 6
f 273/352/569 276/353/570 267/355/571 270/354/572
f 276/353/570 261/327/573 264/330/574 267/355/571
g default
v 1362.329739 41.205000 10.824913
v 1577.715437 41.205000 10.824913
v 1362.329739 41.205000 17.845233
v 1577.715437 41.205000 17.845233
v 1362.329739 181.985497 17.845233
v 1577.715437 181.985497 17.845233
v 1362.329739 181.985497 10.824913
v 1577.715437 181.985497 10.824913
v 1369.129711 48.005007 17.845233
v 1369.129711 175.185517 17.845233
v 1570.915356 48.005007 17.845233
v 1570.915356 175.185517 17.845233
v 1369.129711 48.005007 14.845235
v 1369.129711 175.185517 14.845235
v 1570.915356 48.005007 14.845235
v 1570.915356 175.185517 14.845235
vt 0.375000 0.000000
vt 0.625000 0.000000
vt 0.375000 0.250000
vt 0.625000 0.250000
vt 0.375000 0.500000
vt 0.625000 0.500000
vt 0.375000 0.750000
vt 0.625000 0.750000
vt 0.375000 1.000000
vt 0.625000 1.000000
vt 0.875000 0.000000
vt 0.875000 0.250000
vt 0.125000 0.000000
vt 0.125000 0.250000
vt 0.375000 0.500000
vt 0.375000 0.250000
vt 0.625000 0.250000
vt 0.625000 0.500000
vt 0.375000 0.500000
vt 0.375000 0.250000
vt 0.625000 0.250000
vt 0.625000 0.500000
vn 0.000000 -1.000000 0.000000
vn 0.000000 -1.000000 0.000000
vn 0.000000 -1.000000 0.000000
vn 0.000000 -1.000000 0.000000
vn 0.000000 0.000000 1.000000
vn 0.000000 0.000000 1.000000
vn 0.000000 0.000000 1.000000
vn 0.000000 0.000000 1.000000
vn 0.000000 1.000000 0.000000
vn 0.000000 1.000000 0.000000
vn 0.000000 1.000000 0.000000
vn 0.000000 1.000000 0.000000
vn 0.000000 -0.000000 -1.000000
vn 0.000000 -0.000000 -1.000000
vn 0.000000 -0.000000 -1.000000
vn 0.000000 -0.000000 -1.000000
vn 1.000000 0.000000 0.000000
vn 1.000000 0.000000 0.000000
vn 1.000000 0.000000 0.000000
vn 1.000000 0.000000 0.000000
vn -1.000000 0.000000 0.000000
vn -1.000000 0.000000 0.000000
vn -1.000000 0.000000 0.000000
vn -1.000000 0.000000 0.000000
vn 0.000000 -0.000000 1.000000
vn 0.000000 0.000000 1.000000
vn 0.000000 0.000000 1.000000
vn 0.000000 -0.000000 1.000000
vn 0.000000 0.000000 1.000000
vn 0.000000 0.000000 1.000000
vn 0.000000 -0.000000 1.000000
vn 0.000000 -0.000000 1.000000
vn 1.000000 0.000000 0.000000
vn 1.000000 0.000000 0.000000
vn 1.000000 0.000000 0.000000
vn 1.000000 0.000000 0.000000
vn 0.000000 1.000000 0.000000
vn 0.000000 1.000000 0.000000
vn 0.000000 1.000000 0.000000
vn 0.000000 1.000000 0.000000
vn -1.000000 0.000000 0.000000
vn -1.000000 0.000000 0.000000
vn -1.000000 0.000000 0.000000
vn -1.000000 0.000000 0.000000
vn 0.000000 -1.000000 0.000000
vn 0.000000 -1.000000 0.000000
vn 0.000000 -1.000000 0.000000
vn 0.000000 -1.000000 0.000000
s off
g group10 B02 pCube114
usemtl blinn2SG
f 281/358/575 279/356/576 280/357/577 282/359/578
f 292/374/579 291/375/580 293/376/581 294/377/582
f 285/362/583 283/360/584 284/361/585 286/363/586
f 279/364/587 285/362/588 286/363/589 280/365/590
f 282/359/591 280/357/592 286/366/593 284/367/594
f 281/358/595 283/369/596 285/368/597 279/356/598
s 1
f 283/360/599 281/358/600 287/371/601 288/370/602
f 281/358/600 282/359/603 289/372/604 287/371/601
f 282/359/603 284/361/605 290/373/606 289/372/604
f 284/361/605 283/360/599 288/370/602 290/373/606
s off
f 288/370/607 287/371/608 291/375/609 292/374/610
f 287/371/611 289/372/612 293/376/613 291/375/614
f 289/372/615 290/373/616 294/377/617 293/376/618
f 290/373/619 288/370/620 292/374/621 294/377/622
g default
v 1656.224193 20.360738 10.824924
v 1755.907786 20.360738 10.824924
v 1656.224193 20.360738 17.845244
v 1755.907786 20.360738 17.845244
v 1656.224193 203.607522 17.845244
v 1755.907786 203.607522 17.845244
v 1656.224193 203.607522 10.824924
v 1755.907786 203.607522 10.824924
vt 0.375000 0.000000
vt 0.625000 0.000000
vt 0.375000 0.250000
vt 0.625000 0.250000
vt 0.375000 0.500000
vt 0.625000 0.500000
vt 0.375000 0.750000
vt 0.625000 0.750000
vt 0.375000 1.000000
vt 0.625000 1.000000
vt 0.875000 0.000000
vt 0.875000 0.250000
vt 0.125000 0.000000
vt 0.125000 0.250000
vn 0.000000 -1.000000 0.000000
vn 0.000000 -1.000000 0.000000
vn 0.000000 -1.000000 0.000000
vn 0.000000 -1.000000 0.000000
vn 0.000000 0.000000 1.000000
vn 0.000000 0.000000 1.000000
vn 0.000000 0.000000 1.000000
vn 0.000000 0.000000 1.000000
vn 0.000000 1.000000 0.000000
vn 0.000000 1.000000 0.000000
vn 0.000000 1.000000 0.000000
vn 0.000000 1.000000 0.000000
vn 0.000000 -0.000000 -1.000000
vn 0.000000 -0.000000 -1.000000
vn 0.000000 -0.000000 -1.000000
vn 0.000000 -0.000000 -1.000000
vn 1.000000 0.000000 0.000000
vn 1.000000 0.000000 0.000000
vn 1.000000 0.000000 0.000000
vn 1.000000 0.000000 0.000000
vn -1.000000 0.000000 0.000000
vn -1.000000 0.000000 0.000000
vn -1.000000 0.000000 0.000000
vn -1.000000 0.000000 0.000000
s off
g group10 B02 pCube115
usemtl blinn2SG
f 297/380/623 295/378/624 296/379/625 298/381/626
f 299/382/627 297/380/628 298/381/629 300/383/630
f 301/384/631 299/382/632 300/383/633 302/385/634
f 295/386/635 301/384/636 302/385/637 296/387/638
f 298/381/639 296/379/640 302/388/641 300/389/642
f 297/380/643 299/391/644 301/390/645 295/378/646
