# This file uses centimeters as units for non-parametric coordinates.

mtllib BlockOut_TF3.mtl
g default
v -1635.090442 2922.438139 2366.513422
v -1436.679771 2922.438139 2366.513422
v -1238.269099 2922.438139 2366.513422
v -1635.090442 3067.303566 2366.513422
v -1238.269099 3067.303566 2366.513422
v -1635.090442 3257.275920 2366.513422
v -1436.679771 3257.275920 2366.513422
v -1238.269099 3257.275920 2366.513422
v -1635.090442 3257.275920 2199.094371
v -1238.269099 3257.275920 2199.094371
v -1635.090442 3257.275920 2031.675321
v -1436.679771 3257.275920 2031.675321
v -1238.269099 3257.275920 2031.675321
v -1635.090442 3067.303566 2031.675321
v -1436.679771 3067.303566 2031.675321
v -1238.269099 3067.303566 2031.675321
v -1635.090442 2922.438139 2031.675321
v -1436.679771 2922.438139 2031.675321
v -1238.269099 2922.438139 2031.675321
v -1635.090442 2922.438139 2199.094371
v -1436.679771 2922.438139 2199.094371
v -1238.269099 2922.438139 2199.094371
v -1238.269099 3067.303566 2199.094371
v -1635.090442 3067.303568 2199.094371
v -1666.390437 3268.475978 2397.813426
v -1436.679771 3268.475978 2397.813426
v -1666.390437 3268.475978 2199.094371
v -1206.969104 3268.475978 2397.813426
v -1206.969104 3268.475978 2199.094371
v -1436.679771 3268.475978 2000.375317
v -1666.390437 3268.475978 2000.375317
v -1206.969104 3268.475978 2000.375317
v -1666.390437 3346.476264 2397.813426
v -1436.679771 3346.476264 2397.813426
v -1436.679771 3346.476264 2199.094371
v -1666.390437 3346.476264 2199.094371
v -1206.969104 3346.476264 2397.813426
v -1206.969104 3346.476264 2199.094371
v -1436.679771 3346.476264 2000.375317
v -1666.390437 3346.476264 2000.375317
v -1206.969104 3346.476264 2000.375317
v -1635.090442 3219.854008 2366.513422
v -1635.090442 3219.854008 2199.094371
v -1635.090442 3219.854008 2031.675321
v -1436.679771 3219.854008 2031.675321
v -1238.269099 3219.854008 2031.675321
v -1238.269099 3219.854008 2199.094371
v -1238.269099 3219.854008 2366.513422
v -1436.679771 3219.854018 2366.513422
v -1258.110183 2922.438139 2366.513422
v -1258.110183 3067.303566 2366.513422
v -1258.110183 3219.854018 2366.513422
v -1258.110183 3257.275920 2366.513422
v -1229.940169 3268.475978 2397.813426
v -1229.940169 3346.476264 2397.813426
v -1229.940169 3346.476264 2199.094371
v -1229.940169 3346.476264 2000.375317
v -1229.940169 3268.475978 2000.375317
v -1258.110183 3257.275920 2031.675321
v -1258.110183 3219.854008 2031.675321
v -1258.110183 3067.303566 2031.675321
v -1258.110183 2922.438139 2031.675321
v -1258.110183 2922.438139 2199.094371
v -1615.249358 2922.438139 2366.513422
v -1615.249358 3067.303566 2366.513422
v -1615.249358 3219.854018 2366.513422
v -1615.249358 3257.275920 2366.513422
v -1643.419373 3268.475978 2397.813426
v -1643.419373 3346.476264 2397.813426
v -1643.419373 3346.476264 2199.094371
v -1643.419373 3346.476264 2000.375317
v -1643.419373 3268.475978 2000.375317
v -1615.249358 3257.275920 2031.675321
v -1615.249358 3219.854008 2031.675321
v -1615.249358 3067.303566 2031.675321
v -1615.249358 2922.438139 2031.675321
v -1615.249358 2922.438139 2199.094371
v -1436.679771 2922.438139 2059.513427
v -1258.110183 2922.438139 2059.513427
v -1258.110183 3067.303566 2059.513427
v -1436.679771 3067.303566 2059.513427
v -1258.110183 3219.854008 2059.513427
v -1436.679771 3219.854008 2059.513427
v -1615.249358 2922.438139 2059.513427
v -1615.249358 3067.303566 2059.513427
v -1615.249358 3219.854008 2059.513427
v -1635.090442 3195.331050 2366.513422
v -1635.090442 3195.331050 2199.094371
v -1635.090442 3195.331050 2031.675321
v -1615.249358 3195.331050 2031.675321
v -1436.679771 3195.331050 2031.675321
v -1258.110183 3195.331050 2031.675321
v -1238.269099 3195.331050 2031.675321
v -1238.269099 3195.331050 2199.094371
v -1238.269099 3195.331050 2366.513422
v -1258.110183 3195.331050 2366.513422
v -1258.110183 3195.331050 2059.513427
v -1436.679771 3195.331050 2059.513427
v -1615.249358 3195.331050 2059.513427
v -1615.249358 3195.331050 2366.513422
v -1635.090442 3257.275920 2081.901038
v -1635.090442 3219.854008 2081.901038
v -1635.090442 3195.331050 2081.901038
v -1635.090442 3067.303568 2081.901038
v -1635.090442 2922.438139 2081.901038
v -1615.249358 2922.438139 2081.901038
v -1436.679771 2922.438139 2081.901038
v -1258.110183 2922.438139 2081.901038
v -1238.269099 2922.438139 2081.901038
v -1238.269099 3067.303566 2081.901038
v -1238.269099 3195.331050 2081.901038
v -1238.269099 3219.854008 2081.901038
v -1238.269099 3257.275920 2081.901038
v -1206.969104 3268.475978 2059.991040
v -1206.969104 3346.476264 2059.991040
v -1229.940169 3346.476264 2059.991040
v -1436.679771 3346.476264 2059.991040
v -1643.419373 3346.476264 2059.991040
v -1666.390437 3346.476264 2059.991040
v -1666.390437 3268.475978 2059.991040
v -1635.090442 3257.275920 2316.287705
v -1635.090442 3219.854008 2316.287705
v -1635.090442 3195.331050 2316.287705
v -1635.090442 3067.303568 2316.287705
v -1635.090442 2922.438139 2316.287705
v -1615.249358 2922.438139 2316.287705
v -1436.679771 2922.438139 2316.287705
v -1258.110183 2922.438139 2316.287705
v -1238.269099 2922.438139 2316.287705
v -1238.269099 3067.303566 2316.287705
v -1238.269099 3195.331050 2316.287705
v -1238.269099 3219.854008 2316.287705
v -1238.269099 3257.275920 2316.287705
v -1206.969104 3268.475978 2338.197703
v -1206.969104 3346.476264 2338.197703
v -1229.940169 3346.476264 2338.197703
v -1436.679771 3346.476264 2338.197703
v -1643.419373 3346.476264 2338.197703
v -1666.390437 3346.476264 2338.197703
v -1666.390437 3268.475978 2338.197703
v -1616.878500 3195.331050 2081.901038
v -1616.878500 3067.303568 2081.901038
v -1616.878500 3067.303568 2199.094371
v -1616.878500 3195.331050 2199.094371
v -1616.878500 3067.303568 2316.287705
v -1616.878500 3195.331050 2316.287705
v -1616.878500 3188.530993 2088.701036
v -1616.878500 3074.103626 2088.701036
v -1616.878500 3074.103626 2199.094371
v -1616.878500 3188.530993 2199.094371
v -1616.878500 3074.103626 2309.487707
v -1616.878500 3188.530993 2309.487707
v -1623.978499 3195.331050 2081.901038
v -1623.978499 3067.303568 2081.901038
v -1623.978499 3074.103626 2088.701036
v -1623.978499 3188.530993 2088.701036
v -1623.978499 3067.303568 2199.094371
v -1623.978499 3074.103626 2199.094371
v -1623.978499 3195.331050 2199.094371
v -1623.978499 3188.530993 2199.094371
v -1623.978499 3067.303568 2316.287705
v -1623.978499 3074.103626 2309.487707
v -1623.978499 3195.331050 2316.287705
v -1623.978499 3188.530993 2309.487707
vt 0.375000 0.000000
vt 0.500000 0.000000
vt 0.625000 0.000000
vt 0.375000 0.125000
vt 0.500000 0.125000
vt 0.625000 0.125000
vt 0.375000 0.250000
vt 0.500000 0.250000
vt 0.625000 0.250000
vt 0.375000 0.375000
vt 0.500000 0.375000
vt 0.625000 0.375000
vt 0.375000 0.500000
vt 0.500000 0.500000
vt 0.625000 0.500000
vt 0.375000 0.625000
vt 0.500000 0.625000
vt 0.625000 0.625000
vt 0.375000 0.750000
vt 0.500000 0.750000
vt 0.625000 0.750000
vt 0.375000 0.875000
vt 0.500000 0.875000
vt 0.625000 0.875000
vt 0.375000 1.000000
vt 0.500000 1.000000
vt 0.625000 1.000000
vt 0.875000 0.000000
vt 0.750000 0.000000
vt 0.875000 0.125000
vt 0.750000 0.125000
vt 0.875000 0.250000
vt 0.750000 0.250000
vt 0.125000 0.000000
vt 0.250000 0.000000
vt 0.125000 0.125000
vt 0.250000 0.125000
vt 0.125000 0.250000
vt 0.250000 0.250000
vt 0.375000 0.250000
vt 0.500000 0.250000
vt 0.375000 0.375000
vt 0.625000 0.250000
vt 0.625000 0.375000
vt 0.500000 0.500000
vt 0.375000 0.500000
vt 0.625000 0.500000
vt 0.375000 0.250000
vt 0.500000 0.250000
vt 0.375000 0.375000
vt 0.625000 0.250000
vt 0.625000 0.375000
vt 0.500000 0.500000
vt 0.375000 0.500000
vt 0.625000 0.500000
vt 0.375000 0.237500
vt 0.250000 0.237500
vt 0.125000 0.237500
vt 0.375000 0.512500
vt 0.500000 0.512500
vt 0.625000 0.512500
vt 0.875000 0.237500
vt 0.750000 0.237500
vt 0.625000 0.237500
vt 0.500000 0.237500
vt 0.612500 0.000000
vt 0.612500 1.000000
vt 0.612500 0.125000
vt 0.612500 0.237500
vt 0.612500 0.250000
vt 0.612500 0.250000
vt 0.612500 0.250000
vt 0.612500 0.375000
vt 0.612500 0.500000
vt 0.612500 0.500000
vt 0.612500 0.500000
vt 0.612500 0.512500
vt 0.612500 0.625000
vt 0.612500 0.750000
vt 0.612500 0.875000
vt 0.387500 0.000000
vt 0.387500 1.000000
vt 0.387500 0.125000
vt 0.387500 0.237500
vt 0.387500 0.250000
vt 0.387500 0.250000
vt 0.387500 0.250000
vt 0.387500 0.375000
vt 0.387500 0.500000
vt 0.387500 0.500000
vt 0.387500 0.500000
vt 0.387500 0.512500
vt 0.387500 0.625000
vt 0.387500 0.750000
vt 0.387500 0.875000
vt 0.500000 0.000000
vt 0.612500 0.000000
vt 0.612500 0.125000
vt 0.612500 0.237500
vt 0.500000 0.237500
vt 0.387500 0.125000
vt 0.387500 0.000000
vt 0.387500 0.237500
vt 0.375000 0.203750
vt 0.250000 0.203750
vt 0.125000 0.203750
vt 0.375000 0.546250
vt 0.387500 0.546250
vt 0.500000 0.546250
vt 0.612500 0.546250
vt 0.625000 0.546250
vt 0.875000 0.203750
vt 0.750000 0.203750
vt 0.625000 0.203750
vt 0.612500 0.203750
vt 0.612500 0.203750
vt 0.500000 0.203750
vt 0.387500 0.203750
vt 0.387500 0.203750
vt 0.162500 0.250000
vt 0.375000 0.462500
vt 0.162500 0.237500
vt 0.162500 0.203750
vt 0.162500 0.125000
vt 0.162500 0.000000
vt 0.375000 0.787500
vt 0.387500 0.787500
vt 0.500000 0.787500
vt 0.612500 0.787500
vt 0.625000 0.787500
vt 0.837500 0.000000
vt 0.837500 0.125000
vt 0.837500 0.203750
vt 0.837500 0.237500
vt 0.625000 0.462500
vt 0.837500 0.250000
vt 0.625000 0.462500
vt 0.625000 0.462500
vt 0.612500 0.462500
vt 0.500000 0.462500
vt 0.387500 0.462500
vt 0.375000 0.462500
vt 0.375000 0.462500
vt 0.337500 0.250000
vt 0.375000 0.287500
vt 0.337500 0.237500
vt 0.337500 0.203750
vt 0.337500 0.125000
vt 0.337500 0.000000
vt 0.375000 0.962500
vt 0.387500 0.962500
vt 0.500000 0.962500
vt 0.612500 0.962500
vt 0.625000 0.962500
vt 0.662500 0.000000
vt 0.662500 0.125000
vt 0.662500 0.203750
vt 0.662500 0.237500
vt 0.625000 0.287500
vt 0.662500 0.250000
vt 0.625000 0.287500
vt 0.625000 0.287500
vt 0.612500 0.287500
vt 0.500000 0.287500
vt 0.387500 0.287500
vt 0.375000 0.287500
vt 0.375000 0.287500
vt 0.162500 0.203750
vt 0.162500 0.125000
vt 0.250000 0.125000
vt 0.250000 0.203750
vt 0.337500 0.125000
vt 0.337500 0.203750
vt 0.162500 0.203750
vt 0.162500 0.125000
vt 0.250000 0.125000
vt 0.250000 0.203750
vt 0.337500 0.125000
vt 0.337500 0.203750
vt 0.162500 0.203750
vt 0.162500 0.125000
vt 0.162500 0.125000
vt 0.162500 0.203750
vt 0.250000 0.125000
vt 0.250000 0.125000
vt 0.250000 0.203750
vt 0.250000 0.203750
vt 0.337500 0.125000
vt 0.337500 0.125000
vt 0.337500 0.203750
vt 0.337500 0.203750
vn 0.000000 0.000000 1.000000
vn 0.000000 0.000000 1.000000
vn 0.000000 0.000000 1.000000
vn 0.000000 0.000000 1.000000
vn 0.000000 0.000000 1.000000
vn 0.000000 0.000000 1.000000
vn 0.000000 0.000000 1.000000
vn 0.000000 0.000000 1.000000
vn 0.000000 0.000000 1.000000
vn 0.000000 0.000000 1.000000
vn 0.000000 0.000000 1.000000
vn 0.000000 0.000000 1.000000
vn 0.000000 1.000000 0.000000
vn 0.000000 1.000000 0.000000
vn 0.000000 1.000000 0.000000
vn 0.000000 1.000000 0.000000
vn 0.000000 1.000000 0.000000
vn 0.000000 1.000000 0.000000
vn 0.000000 1.000000 0.000000
vn 0.000000 1.000000 0.000000
vn 0.000000 1.000000 0.000000
vn 0.000000 1.000000 0.000000
vn 0.000000 1.000000 0.000000
vn 0.000000 1.000000 0.000000
vn 0.000000 1.000000 0.000000
vn 0.000000 1.000000 0.000000
vn 0.000000 1.000000 0.000000
vn 0.000000 1.000000 0.000000
vn 0.000000 0.000000 -1.000000
vn 0.000000 0.000000 -1.000000
vn 0.000000 0.000000 -1.000000
vn 0.000000 0.000000 -1.000000
vn 0.000000 0.000000 -1.000000
vn 0.000000 0.000000 -1.000000
vn 0.000000 0.000000 -1.000000
vn 0.000000 0.000000 -1.000000
vn 0.000000 0.000000 -1.000000
vn 0.000000 0.000000 -1.000000
vn 0.000000 0.000000 -1.000000
vn 0.000000 0.000000 -1.000000
vn 0.000000 -1.000000 0.000000
vn 0.000000 -1.000000 0.000000
vn 0.000000 -1.000000 0.000000
vn 0.000000 -1.000000 0.000000
vn 0.000000 -1.000000 0.000000
vn 0.000000 -1.000000 0.000000
vn 0.000000 -1.000000 0.000000
vn 0.000000 -1.000000 0.000000
vn 0.000000 -1.000000 0.000000
vn 0.000000 -1.000000 0.000000
vn 0.000000 -1.000000 0.000000
vn 0.000000 -1.000000 0.000000
vn 0.000000 -1.000000 0.000000
vn 0.000000 -1.000000 0.000000
vn 0.000000 -1.000000 0.000000
vn 0.000000 -1.000000 0.000000
vn 1.000000 0.000000 0.000000
vn 1.000000 0.000000 0.000000
vn 1.000000 0.000000 0.000000
vn 1.000000 0.000000 0.000000
vn 1.000000 0.000000 0.000000
vn 1.000000 0.000000 0.000000
vn 1.000000 0.000000 0.000000
vn 1.000000 0.000000 0.000000
vn 1.000000 0.000000 0.000000
vn 1.000000 0.000000 0.000000
vn 1.000000 0.000000 0.000000
vn 1.000000 0.000000 0.000000
vn -1.000000 0.000000 0.000000
vn -1.000000 0.000000 0.000000
vn -1.000000 0.000000 0.000000
vn -1.000000 0.000000 0.000000
vn -1.000000 0.000000 0.000000
vn -1.000000 0.000000 0.000000
vn -1.000000 0.000000 0.000000
vn -1.000000 0.000000 0.000000
vn -1.000000 0.000000 0.000000
vn -1.000000 0.000000 0.000000
vn -1.000000 0.000000 0.000000
vn -1.000000 0.000000 0.000000
vn -1.000000 0.000000 0.000000
vn -1.000000 0.000000 0.000000
vn -0.252646 -0.963174 0.092006
vn 0.000000 -0.941537 0.336910
vn 0.000000 -0.941537 0.336910
vn -0.234673 -0.965728 0.110893
vn -0.336910 -0.941537 0.000000
vn -0.336910 -0.941537 0.000000
vn 0.000000 -0.941537 0.336910
vn 0.000000 -0.941537 0.336910
vn 0.000000 -0.941537 0.336910
vn 0.000000 -0.941537 0.336910
vn 0.252646 -0.963174 0.092007
vn 0.336910 -0.941537 0.000000
vn 0.336910 -0.941537 0.000000
vn 0.234673 -0.965728 0.110893
vn 0.000000 -0.941537 -0.336910
vn 0.000000 -0.941537 -0.336910
vn -0.252646 -0.963174 -0.092007
vn -0.234673 -0.965728 -0.110893
vn -0.336910 -0.941537 0.000000
vn -0.336910 -0.941537 0.000000
vn -0.336910 -0.941537 0.000000
vn -0.336910 -0.941537 0.000000
vn 0.336910 -0.941537 0.000000
vn 0.336910 -0.941537 0.000000
vn 0.336910 -0.941537 0.000000
vn 0.336910 -0.941537 0.000000
vn 0.000000 -0.941537 -0.336910
vn 0.000000 -0.941537 -0.336910
vn 0.000000 -0.941537 -0.336910
vn 0.000000 -0.941537 -0.336910
vn 0.000000 0.000000 1.000000
vn 0.000000 0.000000 1.000000
vn 0.000000 0.000000 1.000000
vn 0.000000 0.000000 1.000000
vn -1.000000 0.000000 0.000000
vn -1.000000 0.000000 0.000000
vn -1.000000 0.000000 0.000000
vn -1.000000 0.000000 0.000000
vn 0.000000 0.000000 1.000000
vn 0.000000 0.000000 1.000000
vn 0.000000 0.000000 1.000000
vn 0.000000 0.000000 1.000000
vn 1.000000 0.000000 0.000000
vn 1.000000 0.000000 0.000000
vn 1.000000 0.000000 0.000000
vn 1.000000 0.000000 0.000000
vn 0.000000 0.000000 -1.000000
vn 0.000000 0.000000 -1.000000
vn 0.000000 0.000000 -1.000000
vn 0.000000 0.000000 -1.000000
vn -1.000000 0.000000 0.000000
vn -1.000000 0.000000 0.000000
vn -1.000000 0.000000 0.000000
vn -1.000000 0.000000 0.000000
vn 1.000000 0.000000 0.000000
vn 1.000000 0.000000 0.000000
vn 1.000000 0.000000 0.000000
vn 1.000000 0.000000 0.000000
vn 0.000000 0.000000 -1.000000
vn 0.000000 0.000000 -1.000000
vn 0.000000 0.000000 -1.000000
vn 0.000000 0.000000 -1.000000
vn -1.000000 0.000000 0.000000
vn -1.000000 0.000000 0.000000
vn -1.000000 0.000000 0.000000
vn -1.000000 0.000000 0.000000
vn -1.000000 0.000000 0.000000
vn -1.000000 0.000000 0.000000
vn -1.000000 0.000000 0.000000
vn -1.000000 0.000000 0.000000
vn 0.000000 0.000000 -1.000000
vn 0.000000 0.000000 -1.000000
vn 0.000000 0.000000 -1.000000
vn 0.000000 0.000000 -1.000000
vn 0.000000 0.000000 -1.000000
vn 0.000000 0.000000 -1.000000
vn 0.000000 0.000000 -1.000000
vn 0.000000 0.000000 -1.000000
vn 1.000000 0.000000 0.000000
vn 1.000000 0.000000 0.000000
vn 1.000000 0.000000 0.000000
vn 1.000000 0.000000 0.000000
vn 1.000000 0.000000 0.000000
vn 1.000000 0.000000 0.000000
vn 1.000000 0.000000 0.000000
vn 1.000000 0.000000 0.000000
vn 0.000000 0.000000 1.000000
vn 0.000000 0.000000 1.000000
vn 0.000000 0.000000 1.000000
vn 0.000000 0.000000 1.000000
vn 0.000000 0.000000 1.000000
vn 0.000000 0.000000 1.000000
vn 0.000000 0.000000 1.000000
vn 0.000000 0.000000 1.000000
vn 0.000000 0.000000 1.000000
vn 0.000000 0.000000 1.000000
vn 0.000000 0.000000 1.000000
vn 0.000000 0.000000 1.000000
vn 0.000000 0.000000 1.000000
vn 0.000000 0.000000 1.000000
vn 0.000000 0.000000 1.000000
vn 0.000000 0.000000 1.000000
vn 0.000000 0.000000 1.000000
vn 0.000000 0.000000 1.000000
vn 0.000000 1.000000 0.000000
vn 0.000000 1.000000 0.000000
vn 0.000000 1.000000 0.000000
vn 0.000000 1.000000 0.000000
vn 0.000000 0.000000 -1.000000
vn 0.000000 0.000000 -1.000000
vn 0.252646 -0.963174 -0.092006
vn 0.234673 -0.965728 -0.110893
vn 0.000000 0.000000 -1.000000
vn 0.000000 0.000000 -1.000000
vn 0.000000 0.000000 -1.000000
vn 0.000000 0.000000 -1.000000
vn 0.000000 0.000000 -1.000000
vn 0.000000 -1.000000 0.000000
vn 0.000000 -1.000000 0.000000
vn 0.000000 -1.000000 0.000000
vn 0.000000 -1.000000 0.000000
vn 0.000000 0.000000 1.000000
vn 0.000000 0.000000 1.000000
vn 0.000000 0.000000 1.000000
vn 0.000000 1.000000 0.000000
vn 0.000000 1.000000 0.000000
vn 0.000000 1.000000 0.000000
vn 0.000000 1.000000 0.000000
vn -1.000000 0.000000 0.000000
vn -1.000000 0.000000 0.000000
vn -1.000000 0.000000 0.000000
vn -1.000000 0.000000 0.000000
vn -1.000000 0.000000 0.000000
vn -1.000000 0.000000 0.000000
vn 0.000000 -1.000000 0.000000
vn 0.000000 -1.000000 0.000000
vn 0.000000 -1.000000 0.000000
vn 0.000000 -1.000000 0.000000
vn 1.000000 0.000000 0.000000
vn 1.000000 0.000000 0.000000
vn 1.000000 0.000000 0.000000
vn 1.000000 0.000000 0.000000
vn 0.000000 1.000000 0.000000
vn 0.000000 1.000000 0.000000
vn 1.000000 0.000000 0.000000
vn 1.000000 0.000000 0.000000
vn 0.000000 -1.000000 0.000000
vn 0.000000 -1.000000 0.000000
vn -1.000000 0.000000 0.000000
vn -1.000000 0.000000 0.000000
vn -1.000000 0.000000 0.000000
vn -1.000000 0.000000 0.000000
vn 0.000000 0.000000 1.000000
vn 0.000000 0.000000 1.000000
vn 0.000000 0.000000 1.000000
vn 1.000000 0.000000 0.000000
vn 1.000000 0.000000 0.000000
vn -1.000000 0.000000 0.000000
vn -1.000000 0.000000 0.000000
vn -1.000000 0.000000 0.000000
vn -1.000000 0.000000 0.000000
vn -1.000000 0.000000 0.000000
vn 0.000000 -1.000000 0.000000
vn 0.000000 -1.000000 0.000000
vn 0.000000 -1.000000 0.000000
vn 0.000000 -1.000000 0.000000
vn 0.000000 -1.000000 0.000000
vn 1.000000 0.000000 0.000000
vn 1.000000 0.000000 0.000000
vn 1.000000 0.000000 0.000000
vn 1.000000 0.000000 0.000000
vn 1.000000 0.000000 0.000000
vn 1.000000 0.000000 0.000000
vn 1.000000 0.000000 0.000000
vn 0.000000 1.000000 0.000000
vn 0.000000 1.000000 0.000000
vn 0.000000 1.000000 0.000000
vn 0.000000 1.000000 0.000000
vn 0.000000 1.000000 0.000000
vn -1.000000 0.000000 0.000000
vn -1.000000 0.000000 0.000000
vn -1.000000 0.000000 0.000000
vn -1.000000 0.000000 0.000000
vn 0.000000 0.000000 1.000000
vn 0.000000 0.000000 1.000000
vn 0.000000 0.000000 1.000000
vn 0.000000 0.000000 1.000000
vn 0.000000 1.000000 0.000000
vn 0.000000 1.000000 0.000000
vn 0.000000 1.000000 0.000000
vn 0.000000 1.000000 0.000000
vn 0.000000 -1.000000 0.000000
vn 0.000000 -1.000000 0.000000
vn 0.000000 -1.000000 0.000000
vn 0.000000 -1.000000 0.000000
vn 0.000000 1.000000 0.000000
vn 0.000000 1.000000 0.000000
vn 0.000000 0.000000 -1.000000
vn 0.000000 0.000000 -1.000000
vn 0.000000 0.000000 -1.000000
vn 0.000000 0.000000 -1.000000
vn 0.000000 -1.000000 0.000000
vn 0.000000 -1.000000 0.000000
vn -1.000000 0.000000 0.000000
vn -1.000000 -0.000001 0.000000
vn -1.000000 -0.000001 0.000000
vn -1.000000 0.000000 0.000000
vn -1.000000 -0.000001 0.000000
vn -1.000000 -0.000001 0.000000
vn -1.000000 0.000001 0.000000
vn -1.000000 0.000001 0.000000
vn -1.000000 0.000000 0.000000
vn -1.000000 0.000000 0.000000
vn -1.000000 0.000001 0.000000
vn -1.000000 0.000001 0.000000
vn 0.000000 0.000000 -1.000000
vn 0.000000 0.000000 -1.000000
vn 0.000000 0.000000 -1.000000
vn 0.000000 0.000000 -1.000000
vn 0.000000 0.000000 1.000000
vn 0.000000 0.000000 1.000000
vn 0.000000 0.000000 1.000000
vn 0.000000 0.000000 1.000000
vn 0.000000 -1.000000 0.000000
vn 0.000000 -1.000000 0.000000
vn 0.000000 -1.000000 0.000000
vn 0.000000 -1.000000 0.000000
vn 0.000000 1.000000 0.000000
vn 0.000000 1.000000 0.000000
vn 0.000000 1.000000 0.000000
vn 0.000000 1.000000 0.000000
vn 0.000000 1.000000 0.000000
vn 0.000000 1.000000 0.000000
vn 0.000000 1.000000 0.000000
vn 0.000000 1.000000 0.000000
vn 0.000000 -1.000000 0.000000
vn 0.000000 -1.000000 0.000000
vn 0.000000 -1.000000 0.000000
vn 0.000000 -1.000000 0.000000
vn 0.000000 -1.000000 0.000000
vn 0.000000 -1.000000 0.000000
vn 0.000000 1.000000 0.000000
vn 0.000000 1.000000 0.000000
vn 0.000000 0.000000 1.000000
vn 0.000000 0.000000 1.000000
vn 0.000000 0.000000 1.000000
vn 0.000000 0.000000 1.000000
vn 0.000000 0.000000 -1.000000
vn 0.000000 0.000000 -1.000000
vn 0.000000 0.000000 -1.000000
vn 0.000000 0.000000 -1.000000
vn 0.000000 1.000000 0.000000
vn 0.000000 1.000000 0.000000
vn 0.000000 -1.000000 0.000000
vn 0.000000 -1.000000 0.000000
s 1
g pCube107 Tiff3
usemtl initialShadingGroup
f 1/1/1 64/81/2 65/83/3 4/4/4
s 2
f 78/96/5 79/97/6 80/98/7 81/5/8
s 1
f 4/4/4 65/83/3 100/119/9 87/104/10
s 2
f 81/5/8 80/98/7 97/116/11 98/117/12
s 3
f 33/48/13 69/87/14 138/165/15 139/166/16
f 34/49/17 55/72/18 136/163/19 137/164/20
f 36/50/21 70/88/22 118/141/23 119/142/24
f 35/11/25 56/73/26 116/139/27 117/140/28
s 5
f 89/107/29 90/108/30 75/93/31 14/16/32
f 91/109/33 92/110/34 61/78/35 15/17/36
f 14/16/32 75/93/31 76/94/37 17/19/38
f 15/17/36 61/78/35 62/79/39 18/20/40
s 7
f 105/126/41 106/127/42 77/95/43 20/22/44
f 107/128/45 108/129/46 63/80/47 21/23/48
f 125/150/49 126/151/50 64/82/51 1/25/52
f 127/152/53 128/153/54 50/67/55 2/26/56
s 9
f 22/29/57 109/131/58 110/132/59 23/31/60
f 3/3/61 129/155/62 130/156/63 5/6/64
f 23/31/60 110/132/59 111/133/65 94/113/66
f 5/6/64 130/156/63 131/157/67 95/114/68
s 10
f 104/124/69 105/125/70 20/35/71 24/37/72
f 124/148/73 125/149/74 1/1/75 4/4/76
s 11
f 147/174/77 148/175/78 149/176/79 150/177/80
s 10
f 123/147/81 124/148/73 4/4/76 87/104/82
s 12
f 6/7/83 67/85/84 68/86/85 25/40/86
f 140/167/87 121/145/88 6/7/83 25/40/86
f 7/8/89 53/70/90 54/71/91 26/41/92
f 8/9/93 133/159/94 134/161/95 28/43/96
f 72/90/97 73/91/98 11/13/99 31/46/100
f 120/143/101 101/121/102 9/10/103 27/42/104
f 10/12/105 113/135/106 114/137/107 29/44/108
f 58/75/109 59/76/110 12/14/111 30/45/112
s 18
f 25/40/113 68/86/114 69/87/115 33/48/116
s 19
f 139/166/117 140/167/118 25/40/119 33/48/120
s 18
f 26/41/121 54/71/122 55/72/123 34/49/124
s 21
f 28/43/125 134/161/126 135/162/127 37/51/128
s 22
f 71/89/129 72/90/130 31/46/131 40/54/132
s 19
f 119/142/133 120/143/134 27/42/135 36/50/136
s 21
f 29/44/137 114/137/138 115/138/139 38/52/140
s 22
f 57/74/141 58/75/142 30/45/143 39/53/144
s 10
f 121/144/145 122/146/146 42/56/147 6/7/148
f 101/120/149 102/122/150 43/57/151 9/39/152
s 5
f 11/13/153 73/91/154 74/92/155 44/59/156
f 12/14/157 59/76/158 60/77/159 45/60/160
s 9
f 47/63/161 112/134/162 113/136/163 10/33/164
f 48/64/165 132/158/166 133/160/167 8/9/168
s 1
f 49/65/169 52/69/170 53/70/171 7/8/172
f 42/56/173 66/84/174 67/85/175 6/7/176
f 51/68/177 50/66/178 3/3/179 5/6/180
f 95/114/181 96/115/182 51/68/177 5/6/180
f 53/70/171 52/69/170 48/64/183 8/9/184
s 12
f 54/71/91 53/70/90 8/9/93 28/43/96
s 18
f 55/72/123 54/71/122 28/43/185 37/51/186
s 3
f 135/162/187 136/163/19 55/72/18 37/51/188
f 115/138/189 116/139/27 56/73/26 38/52/190
s 22
f 32/47/191 58/75/142 57/74/141 41/55/192
s 12
f 13/15/193 59/76/110 58/75/109 32/47/194
s 5
f 60/77/159 59/76/158 13/15/195 46/61/196
f 61/78/35 92/110/34 93/111/197 16/18/198
f 62/79/39 61/78/35 16/18/198 19/21/199
s 7
f 63/80/47 108/129/46 109/130/200 22/24/201
f 50/67/55 128/153/54 129/154/202 3/27/203
s 2
f 85/101/204 84/102/205 78/96/5 81/5/8
f 98/117/12 99/118/206 85/101/204 81/5/8
s 1
f 67/85/175 66/84/174 49/65/169 7/8/172
s 12
f 68/86/85 67/85/84 7/8/89 26/41/92
s 18
f 69/87/115 68/86/114 26/41/121 34/49/124
s 3
f 137/164/20 138/165/15 69/87/14 34/49/17
f 117/140/28 118/141/23 70/88/22 35/11/25
s 22
f 30/45/143 72/90/130 71/89/129 39/53/144
s 12
f 12/14/111 73/91/98 72/90/97 30/45/112
s 5
f 74/92/155 73/91/154 12/14/157 45/60/160
f 75/93/31 90/108/30 91/109/33 15/17/36
f 76/94/37 75/93/31 15/17/36 18/20/40
s 7
f 77/95/43 106/127/42 107/128/45 21/23/48
f 64/82/51 126/151/50 127/152/53 2/26/56
s 32
f 2/2/207 50/66/208 79/97/209 78/96/210
s 33
f 50/66/211 51/68/212 80/98/213 79/97/214
f 51/68/212 96/115/215 97/116/216 80/98/213
s 34
f 52/69/217 49/65/218 83/100/219 82/99/220
s 35
f 65/83/221 64/81/222 84/102/223 85/101/224
s 32
f 64/81/225 2/2/207 78/96/210 84/102/226
s 35
f 99/118/227 100/119/228 65/83/221 85/101/224
s 34
f 49/65/218 66/84/229 86/103/230 83/100/219
s 10
f 122/146/146 123/147/81 87/104/82 42/56/147
f 102/122/150 103/123/231 88/105/232 43/57/151
s 5
f 44/59/156 74/92/155 90/108/30 89/107/29
f 91/109/33 90/108/30 74/92/155 45/60/160
f 45/60/160 60/77/159 92/110/34 91/109/33
f 93/111/197 92/110/34 60/77/159 46/61/196
s 9
f 94/113/66 111/133/65 112/134/162 47/63/161
f 95/114/68 131/157/67 132/158/166 48/64/165
s 1
f 52/69/170 96/115/182 95/114/181 48/64/183
s 33
f 97/116/216 96/115/215 52/69/233 82/99/234
s 2
f 98/117/12 97/116/11 82/99/235 83/100/236
f 86/103/237 99/118/206 98/117/12 83/100/236
s 35
f 66/84/238 100/119/228 99/118/227 86/103/239
s 1
f 87/104/10 100/119/9 66/84/174 42/56/173
s 10
f 44/58/240 102/122/150 101/120/149 11/38/241
f 89/106/242 103/123/231 102/122/150 44/58/240
f 14/36/243 104/124/69 103/123/231 89/106/242
f 17/34/244 105/125/70 104/124/69 14/36/243
s 7
f 17/19/245 76/94/246 106/127/42 105/126/41
f 107/128/45 106/127/42 76/94/246 18/20/247
f 18/20/247 62/79/248 108/129/46 107/128/45
f 109/130/200 108/129/46 62/79/248 19/21/249
s 9
f 110/132/59 109/131/58 19/28/250 16/30/251
f 111/133/65 110/132/59 16/30/251 93/112/252
f 112/134/162 111/133/65 93/112/252 46/62/253
f 113/136/163 112/134/162 46/62/253 13/32/254
s 12
f 114/137/107 113/135/106 13/15/193 32/47/194
s 21
f 115/138/139 114/137/138 32/47/255 41/55/256
s 3
f 57/74/257 116/139/27 115/138/189 41/55/258
f 117/140/28 116/139/27 57/74/257 39/53/259
f 71/89/260 118/141/23 117/140/28 39/53/259
f 119/142/24 118/141/23 71/89/260 40/54/261
s 19
f 31/46/262 120/143/134 119/142/133 40/54/263
s 12
f 11/13/99 101/121/102 120/143/101 31/46/100
s 10
f 43/57/151 122/146/146 121/144/145 9/39/152
f 88/105/232 123/147/81 122/146/146 43/57/151
s 11
f 149/176/79 151/178/264 152/179/265 150/177/80
s 10
f 20/35/71 125/149/74 124/148/73 24/37/72
s 7
f 20/22/44 77/95/43 126/151/50 125/150/49
f 127/152/53 126/151/50 77/95/43 21/23/48
f 21/23/48 63/80/47 128/153/54 127/152/53
f 129/154/202 128/153/54 63/80/47 22/24/201
s 9
f 130/156/63 129/155/62 22/29/57 23/31/60
f 131/157/67 130/156/63 23/31/60 94/113/66
f 132/158/166 131/157/67 94/113/66 47/63/161
f 133/160/167 132/158/166 47/63/161 10/33/164
s 12
f 134/161/95 133/159/94 10/12/105 29/44/108
s 21
f 135/162/127 134/161/126 29/44/137 38/52/140
s 3
f 56/73/26 136/163/19 135/162/187 38/52/190
f 137/164/20 136/163/19 56/73/26 35/11/25
f 70/88/22 138/165/15 137/164/20 35/11/25
f 139/166/16 138/165/15 70/88/22 36/50/21
s 19
f 27/42/135 140/167/118 139/166/117 36/50/136
s 12
f 9/10/103 121/145/88 140/167/87 27/42/104
s off
f 103/123/266 104/124/267 142/169/268 141/168/269
s 36
f 104/124/270 24/37/271 143/170/272 142/169/273
s 37
f 88/105/274 103/123/275 141/168/276 144/171/277
s 36
f 24/37/271 124/148/278 145/172/279 143/170/272
s off
f 124/148/280 123/147/281 146/173/282 145/172/283
s 37
f 123/147/284 88/105/274 144/171/277 146/173/285
s 38
f 153/180/286 154/181/287 155/182/288 156/183/289
f 154/181/287 157/184/290 158/185/291 155/182/288
f 159/186/292 153/180/286 156/183/289 160/187/293
f 157/184/290 161/188/294 162/189/295 158/185/291
f 161/188/294 163/190/296 164/191/297 162/189/295
f 163/190/296 159/186/292 160/187/293 164/191/297
s off
f 141/168/298 142/169/299 154/181/300 153/180/301
f 148/175/302 147/174/303 156/183/304 155/182/305
s 39
f 142/169/306 143/170/307 157/184/308 154/181/309
s 40
f 149/176/310 148/175/311 155/182/312 158/185/313
s 41
f 144/171/314 141/168/315 153/180/316 159/186/317
s 42
f 147/174/318 150/177/319 160/187/320 156/183/321
s 39
f 143/170/307 145/172/322 161/188/323 157/184/308
s 40
f 151/178/324 149/176/310 158/185/313 162/189/325
s off
f 145/172/326 146/173/327 163/190/328 161/188/329
f 152/179/330 151/178/331 162/189/332 164/191/333
s 41
f 146/173/334 144/171/314 159/186/317 163/190/335
s 42
f 150/177/319 152/179/336 164/191/337 160/187/320
g default
v -1617.564884 3069.379405 2126.463184
v -1617.986185 3069.379405 2125.636334
v -1618.642377 3069.379405 2124.980142
v -1619.469227 3069.379405 2124.558842
v -1620.385797 3069.379405 2124.413671
v -1621.302368 3069.379405 2124.558842
v -1622.129217 3069.379405 2124.980143
v -1622.785409 3069.379405 2125.636335
v -1623.206709 3069.379405 2126.463184
v -1623.351880 3069.379405 2127.379754
v -1623.206709 3069.379405 2128.296324
v -1622.785408 3069.379405 2129.123174
v -1622.129217 3069.379405 2129.779365
v -1621.302367 3069.379405 2130.200666
v -1620.385798 3069.379405 2130.345836
v -1619.469228 3069.379405 2130.200666
v -1618.642378 3069.379405 2129.779365
v -1617.986187 3069.379405 2129.123173
v -1617.564886 3069.379405 2128.296324
v -1617.419716 3069.379405 2127.379754
v -1617.564884 3188.591217 2126.463184
v -1617.986185 3188.591217 2125.636334
v -1618.642377 3188.591217 2124.980142
v -1619.469227 3188.591217 2124.558842
v -1620.385797 3188.591217 2124.413671
v -1621.302368 3188.591217 2124.558842
v -1622.129217 3188.591217 2124.980143
v -1622.785409 3188.591217 2125.636335
v -1623.206709 3188.591217 2126.463184
v -1623.351880 3188.591217 2127.379754
v -1623.206709 3188.591217 2128.296324
v -1622.785408 3188.591217 2129.123174
v -1622.129217 3188.591217 2129.779365
v -1621.302367 3188.591217 2130.200666
v -1620.385798 3188.591217 2130.345836
v -1619.469228 3188.591217 2130.200666
v -1618.642378 3188.591217 2129.779365
v -1617.986187 3188.591217 2129.123173
v -1617.564886 3188.591217 2128.296324
v -1617.419716 3188.591217 2127.379754
v -1620.385797 3069.379405 2127.379754
v -1620.385797 3188.591217 2127.379754
vt 0.648603 0.107966
vt 0.626409 0.064408
vt 0.591842 0.029841
vt 0.548284 0.007647
vt 0.500000 -0.000000
vt 0.451716 0.007647
vt 0.408159 0.029841
vt 0.373591 0.064409
vt 0.351397 0.107966
vt 0.343750 0.156250
vt 0.351397 0.204534
vt 0.373591 0.248091
vt 0.408159 0.282659
vt 0.451716 0.304853
vt 0.500000 0.312500
vt 0.548284 0.304853
vt 0.591841 0.282659
vt 0.626409 0.248091
vt 0.648603 0.204534
vt 0.656250 0.156250
vt 0.375000 0.312500
vt 0.387500 0.312500
vt 0.400000 0.312500
vt 0.412500 0.312500
vt 0.425000 0.312500
vt 0.437500 0.312500
vt 0.450000 0.312500
vt 0.462500 0.312500
vt 0.475000 0.312500
vt 0.487500 0.312500
vt 0.500000 0.312500
vt 0.512500 0.312500
vt 0.525000 0.312500
vt 0.537500 0.312500
vt 0.550000 0.312500
vt 0.562500 0.312500
vt 0.575000 0.312500
vt 0.587500 0.312500
vt 0.600000 0.312500
vt 0.612500 0.312500
vt 0.625000 0.312500
vt 0.375000 0.687500
vt 0.387500 0.687500
vt 0.400000 0.687500
vt 0.412500 0.687500
vt 0.425000 0.687500
vt 0.437500 0.687500
vt 0.450000 0.687500
vt 0.462500 0.687500
vt 0.475000 0.687500
vt 0.487500 0.687500
vt 0.500000 0.687500
vt 0.512500 0.687500
vt 0.525000 0.687500
vt 0.537500 0.687500
vt 0.550000 0.687500
vt 0.562500 0.687500
vt 0.575000 0.687500
vt 0.587500 0.687500
vt 0.600000 0.687500
vt 0.612500 0.687500
vt 0.625000 0.687500
vt 0.648603 0.795466
vt 0.626409 0.751908
vt 0.591842 0.717341
vt 0.548284 0.695147
vt 0.500000 0.687500
vt 0.451716 0.695147
vt 0.408159 0.717341
vt 0.373591 0.751909
vt 0.351397 0.795466
vt 0.343750 0.843750
vt 0.351397 0.892034
vt 0.373591 0.935591
vt 0.408159 0.970159
vt 0.451716 0.992353
vt 0.500000 1.000000
vt 0.548284 0.992353
vt 0.591841 0.970159
vt 0.626409 0.935591
vt 0.648603 0.892034
vt 0.656250 0.843750
vt 0.500000 0.156250
vt 0.500000 0.843750
vn 0.951057 0.000000 -0.309016
vn 0.809017 0.000000 -0.587785
vn 0.809017 0.000000 -0.587785
vn 0.951057 0.000000 -0.309016
vn 0.587785 0.000000 -0.809017
vn 0.587785 0.000000 -0.809017
vn 0.309017 0.000000 -0.951057
vn 0.309017 0.000000 -0.951057
vn -0.000000 0.000000 -1.000000
vn -0.000000 0.000000 -1.000000
vn -0.309017 0.000000 -0.951057
vn -0.309017 0.000000 -0.951057
vn -0.587785 0.000000 -0.809017
vn -0.587785 0.000000 -0.809017
vn -0.809017 0.000000 -0.587785
vn -0.809017 0.000000 -0.587785
vn -0.951057 0.000000 -0.309017
vn -0.951057 0.000000 -0.309017
vn -1.000000 0.000000 0.000000
vn -1.000000 0.000000 0.000000
vn -0.951057 0.000000 0.309017
vn -0.951057 0.000000 0.309017
vn -0.809017 0.000000 0.587785
vn -0.809017 0.000000 0.587785
vn -0.587785 0.000000 0.809017
vn -0.587785 0.000000 0.809017
vn -0.309017 0.000000 0.951057
vn -0.309017 0.000000 0.951057
vn 0.000000 0.000000 1.000000
vn 0.000000 0.000000 1.000000
vn 0.309017 0.000000 0.951057
vn 0.309017 0.000000 0.951057
vn 0.587785 0.000000 0.809017
vn 0.587785 0.000000 0.809017
vn 0.809017 0.000000 0.587785
vn 0.809017 0.000000 0.587785
vn 0.951057 0.000000 0.309017
vn 0.951057 0.000000 0.309017
vn 1.000000 0.000000 0.000001
vn 1.000000 0.000000 0.000001
vn 0.000000 -1.000000 0.000000
vn 0.000000 -1.000000 0.000000
vn 0.000000 -1.000000 0.000000
vn 0.000000 -1.000000 0.000000
vn 0.000000 -1.000000 0.000000
vn 0.000000 -1.000000 0.000000
vn 0.000000 -1.000000 0.000000
vn 0.000000 -1.000000 0.000000
vn 0.000000 -1.000000 0.000000
vn 0.000000 -1.000000 0.000000
vn 0.000000 -1.000000 0.000000
vn 0.000000 -1.000000 0.000000
vn 0.000000 -1.000000 0.000000
vn 0.000000 -1.000000 0.000000
vn 0.000000 -1.000000 0.000000
vn 0.000000 -1.000000 0.000000
vn 0.000000 -1.000000 0.000000
vn 0.000000 -1.000000 0.000000
vn 0.000000 -1.000000 0.000000
vn 0.000000 -1.000000 0.000000
vn 0.000000 -1.000000 0.000000
vn 0.000000 1.000000 0.000000
vn 0.000000 1.000000 0.000000
vn 0.000000 1.000000 0.000000
vn 0.000000 1.000000 0.000000
vn 0.000000 1.000000 0.000000
vn 0.000000 1.000000 0.000000
vn 0.000000 1.000000 0.000000
vn 0.000000 1.000000 0.000000
vn 0.000000 1.000000 0.000000
vn 0.000000 1.000000 0.000000
vn 0.000000 1.000000 0.000000
vn 0.000000 1.000000 0.000000
vn 0.000000 1.000000 0.000000
vn 0.000000 1.000000 0.000000
vn 0.000000 1.000000 0.000000
vn 0.000000 1.000000 0.000000
vn 0.000000 1.000000 0.000000
vn 0.000000 1.000000 0.000000
vn 0.000000 1.000000 0.000000
vn 0.000000 1.000000 0.000000
vn 0.000000 1.000000 0.000000
s 1
g Tiff3 pCylinder5
usemtl initialShadingGroup
f 165/212/338 166/213/339 186/234/340 185/233/341
f 166/213/339 167/214/342 187/235/343 186/234/340
f 167/214/342 168/215/344 188/236/345 187/235/343
f 168/215/344 169/216/346 189/237/347 188/236/345
f 169/216/346 170/217/348 190/238/349 189/237/347
f 170/217/348 171/218/350 191/239/351 190/238/349
f 171/218/350 172/219/352 192/240/353 191/239/351
f 172/219/352 173/220/354 193/241/355 192/240/353
f 173/220/354 174/221/356 194/242/357 193/241/355
f 174/221/356 175/222/358 195/243/359 194/242/357
f 175/222/358 176/223/360 196/244/361 195/243/359
f 176/223/360 177/224/362 197/245/363 196/244/361
f 177/224/362 178/225/364 198/246/365 197/245/363
f 178/225/364 179/226/366 199/247/367 198/246/365
f 179/226/366 180/227/368 200/248/369 199/247/367
f 180/227/368 181/228/370 201/249/371 200/248/369
f 181/228/370 182/229/372 202/250/373 201/249/371
f 182/229/372 183/230/374 203/251/375 202/250/373
f 183/230/374 184/231/376 204/252/377 203/251/375
f 184/231/376 165/232/338 185/253/341 204/252/377
s 2
f 166/193/378 165/192/379 205/274/380
f 167/194/381 166/193/378 205/274/380
f 168/195/382 167/194/381 205/274/380
f 169/196/383 168/195/382 205/274/380
f 170/197/384 169/196/383 205/274/380
f 171/198/385 170/197/384 205/274/380
f 172/199/386 171/198/385 205/274/380
f 173/200/387 172/199/386 205/274/380
f 174/201/388 173/200/387 205/274/380
f 175/202/389 174/201/388 205/274/380
f 176/203/390 175/202/389 205/274/380
f 177/204/391 176/203/390 205/274/380
f 178/205/392 177/204/391 205/274/380
f 179/206/393 178/205/392 205/274/380
f 180/207/394 179/206/393 205/274/380
f 181/208/395 180/207/394 205/274/380
f 182/209/396 181/208/395 205/274/380
f 183/210/397 182/209/396 205/274/380
f 184/211/398 183/210/397 205/274/380
f 165/192/379 184/211/398 205/274/380
s 3
f 185/272/399 186/271/400 206/275/401
f 186/271/400 187/270/402 206/275/401
f 187/270/402 188/269/403 206/275/401
f 188/269/403 189/268/404 206/275/401
f 189/268/404 190/267/405 206/275/401
f 190/267/405 191/266/406 206/275/401
f 191/266/406 192/265/407 206/275/401
f 192/265/407 193/264/408 206/275/401
f 193/264/408 194/263/409 206/275/401
f 194/263/409 195/262/410 206/275/401
f 195/262/410 196/261/411 206/275/401
f 196/261/411 197/260/412 206/275/401
f 197/260/412 198/259/413 206/275/401
f 198/259/413 199/258/414 206/275/401
f 199/258/414 200/257/415 206/275/401
f 200/257/415 201/256/416 206/275/401
f 201/256/416 202/255/417 206/275/401
f 202/255/417 203/254/418 206/275/401
f 203/254/418 204/273/419 206/275/401
f 204/273/419 185/272/399 206/275/401
g default
v -1617.564884 3069.379405 2172.689079
v -1617.986185 3069.379405 2171.862229
v -1618.642377 3069.379405 2171.206038
v -1619.469227 3069.379405 2170.784737
v -1620.385797 3069.379405 2170.639566
v -1621.302368 3069.379405 2170.784737
v -1622.129217 3069.379405 2171.206038
v -1622.785409 3069.379405 2171.862230
v -1623.206709 3069.379405 2172.689080
v -1623.351880 3069.379405 2173.605649
v -1623.206709 3069.379405 2174.522219
v -1622.785408 3069.379405 2175.349069
v -1622.129217 3069.379405 2176.005260
v -1621.302367 3069.379405 2176.426561
v -1620.385798 3069.379405 2176.571731
v -1619.469228 3069.379405 2176.426561
v -1618.642378 3069.379405 2176.005260
v -1617.986187 3069.379405 2175.349069
v -1617.564886 3069.379405 2174.522219
v -1617.419716 3069.379405 2173.605649
v -1617.564884 3188.591217 2172.689079
v -1617.986185 3188.591217 2171.862229
v -1618.642377 3188.591217 2171.206038
v -1619.469227 3188.591217 2170.784737
v -1620.385797 3188.591217 2170.639566
v -1621.302368 3188.591217 2170.784737
v -1622.129217 3188.591217 2171.206038
v -1622.785409 3188.591217 2171.862230
v -1623.206709 3188.591217 2172.689080
v -1623.351880 3188.591217 2173.605649
v -1623.206709 3188.591217 2174.522219
v -1622.785408 3188.591217 2175.349069
v -1622.129217 3188.591217 2176.005260
v -1621.302367 3188.591217 2176.426561
v -1620.385798 3188.591217 2176.571731
v -1619.469228 3188.591217 2176.426561
v -1618.642378 3188.591217 2176.005260
v -1617.986187 3188.591217 2175.349069
v -1617.564886 3188.591217 2174.522219
v -1617.419716 3188.591217 2173.605649
v -1620.385797 3069.379405 2173.605649
v -1620.385797 3188.591217 2173.605649
vt 0.648603 0.107966
vt 0.626409 0.064408
vt 0.591842 0.029841
vt 0.548284 0.007647
vt 0.500000 -0.000000
vt 0.451716 0.007647
vt 0.408159 0.029841
vt 0.373591 0.064409
vt 0.351397 0.107966
vt 0.343750 0.156250
vt 0.351397 0.204534
vt 0.373591 0.248091
vt 0.408159 0.282659
vt 0.451716 0.304853
vt 0.500000 0.312500
vt 0.548284 0.304853
vt 0.591841 0.282659
vt 0.626409 0.248091
vt 0.648603 0.204534
vt 0.656250 0.156250
vt 0.375000 0.312500
vt 0.387500 0.312500
vt 0.400000 0.312500
vt 0.412500 0.312500
vt 0.425000 0.312500
vt 0.437500 0.312500
vt 0.450000 0.312500
vt 0.462500 0.312500
vt 0.475000 0.312500
vt 0.487500 0.312500
vt 0.500000 0.312500
vt 0.512500 0.312500
vt 0.525000 0.312500
vt 0.537500 0.312500
vt 0.550000 0.312500
vt 0.562500 0.312500
vt 0.575000 0.312500
vt 0.587500 0.312500
vt 0.600000 0.312500
vt 0.612500 0.312500
vt 0.625000 0.312500
vt 0.375000 0.687500
vt 0.387500 0.687500
vt 0.400000 0.687500
vt 0.412500 0.687500
vt 0.425000 0.687500
vt 0.437500 0.687500
vt 0.450000 0.687500
vt 0.462500 0.687500
vt 0.475000 0.687500
vt 0.487500 0.687500
vt 0.500000 0.687500
vt 0.512500 0.687500
vt 0.525000 0.687500
vt 0.537500 0.687500
vt 0.550000 0.687500
vt 0.562500 0.687500
vt 0.575000 0.687500
vt 0.587500 0.687500
vt 0.600000 0.687500
vt 0.612500 0.687500
vt 0.625000 0.687500
vt 0.648603 0.795466
vt 0.626409 0.751908
vt 0.591842 0.717341
vt 0.548284 0.695147
vt 0.500000 0.687500
vt 0.451716 0.695147
vt 0.408159 0.717341
vt 0.373591 0.751909
vt 0.351397 0.795466
vt 0.343750 0.843750
vt 0.351397 0.892034
vt 0.373591 0.935591
vt 0.408159 0.970159
vt 0.451716 0.992353
vt 0.500000 1.000000
vt 0.548284 0.992353
vt 0.591841 0.970159
vt 0.626409 0.935591
vt 0.648603 0.892034
vt 0.656250 0.843750
vt 0.500000 0.156250
vt 0.500000 0.843750
vn 0.951057 0.000000 -0.309016
vn 0.809017 0.000000 -0.587785
vn 0.809017 0.000000 -0.587785
vn 0.951057 0.000000 -0.309016
vn 0.587785 0.000000 -0.809017
vn 0.587785 0.000000 -0.809017
vn 0.309017 0.000000 -0.951057
vn 0.309017 0.000000 -0.951057
vn -0.000000 0.000000 -1.000000
vn -0.000000 0.000000 -1.000000
vn -0.309017 0.000000 -0.951057
vn -0.309017 0.000000 -0.951057
vn -0.587785 0.000000 -0.809017
vn -0.587785 0.000000 -0.809017
vn -0.809017 0.000000 -0.587785
vn -0.809017 0.000000 -0.587785
vn -0.951057 0.000000 -0.309017
vn -0.951057 0.000000 -0.309017
vn -1.000000 0.000000 0.000000
vn -1.000000 0.000000 0.000000
vn -0.951057 0.000000 0.309017
vn -0.951057 0.000000 0.309017
vn -0.809017 0.000000 0.587785
vn -0.809017 0.000000 0.587785
vn -0.587785 0.000000 0.809017
vn -0.587785 0.000000 0.809017
vn -0.309017 0.000000 0.951057
vn -0.309017 0.000000 0.951057
vn 0.000000 0.000000 1.000000
vn 0.000000 0.000000 1.000000
vn 0.309017 0.000000 0.951057
vn 0.309017 0.000000 0.951057
vn 0.587785 0.000000 0.809017
vn 0.587785 0.000000 0.809017
vn 0.809017 0.000000 0.587785
vn 0.809017 0.000000 0.587785
vn 0.951057 0.000000 0.309017
vn 0.951057 0.000000 0.309017
vn 1.000000 0.000000 0.000001
vn 1.000000 0.000000 0.000001
vn 0.000000 -1.000000 0.000000
vn 0.000000 -1.000000 0.000000
vn 0.000000 -1.000000 0.000000
vn 0.000000 -1.000000 0.000000
vn 0.000000 -1.000000 0.000000
vn 0.000000 -1.000000 0.000000
vn 0.000000 -1.000000 0.000000
vn 0.000000 -1.000000 0.000000
vn 0.000000 -1.000000 0.000000
vn 0.000000 -1.000000 0.000000
vn 0.000000 -1.000000 0.000000
vn 0.000000 -1.000000 0.000000
vn 0.000000 -1.000000 0.000000
vn 0.000000 -1.000000 0.000000
vn 0.000000 -1.000000 0.000000
vn 0.000000 -1.000000 0.000000
vn 0.000000 -1.000000 0.000000
vn 0.000000 -1.000000 0.000000
vn 0.000000 -1.000000 0.000000
vn 0.000000 -1.000000 0.000000
vn 0.000000 -1.000000 0.000000
vn 0.000000 1.000000 0.000000
vn 0.000000 1.000000 0.000000
vn 0.000000 1.000000 0.000000
vn 0.000000 1.000000 0.000000
vn 0.000000 1.000000 0.000000
vn 0.000000 1.000000 0.000000
vn 0.000000 1.000000 0.000000
vn 0.000000 1.000000 0.000000
vn 0.000000 1.000000 0.000000
vn 0.000000 1.000000 0.000000
vn 0.000000 1.000000 0.000000
vn 0.000000 1.000000 0.000000
vn 0.000000 1.000000 0.000000
vn 0.000000 1.000000 0.000000
vn 0.000000 1.000000 0.000000
vn 0.000000 1.000000 0.000000
vn 0.000000 1.000000 0.000000
vn 0.000000 1.000000 0.000000
vn 0.000000 1.000000 0.000000
vn 0.000000 1.000000 0.000000
vn 0.000000 1.000000 0.000000
s 1
g Tiff3 pCylinder6
usemtl initialShadingGroup
f 207/296/420 208/297/421 228/318/422 227/317/423
f 208/297/421 209/298/424 229/319/425 228/318/422
f 209/298/424 210/299/426 230/320/427 229/319/425
f 210/299/426 211/300/428 231/321/429 230/320/427
f 211/300/428 212/301/430 232/322/431 231/321/429
f 212/301/430 213/302/432 233/323/433 232/322/431
f 213/302/432 214/303/434 234/324/435 233/323/433
f 214/303/434 215/304/436 235/325/437 234/324/435
f 215/304/436 216/305/438 236/326/439 235/325/437
f 216/305/438 217/306/440 237/327/441 236/326/439
f 217/306/440 218/307/442 238/328/443 237/327/441
f 218/307/442 219/308/444 239/329/445 238/328/443
f 219/308/444 220/309/446 240/330/447 239/329/445
f 220/309/446 221/310/448 241/331/449 240/330/447
f 221/310/448 222/311/450 242/332/451 241/331/449
f 222/311/450 223/312/452 243/333/453 242/332/451
f 223/312/452 224/313/454 244/334/455 243/333/453
f 224/313/454 225/314/456 245/335/457 244/334/455
f 225/314/456 226/315/458 246/336/459 245/335/457
f 226/315/458 207/316/420 227/337/423 246/336/459
s 2
f 208/277/460 207/276/461 247/358/462
f 209/278/463 208/277/460 247/358/462
f 210/279/464 209/278/463 247/358/462
f 211/280/465 210/279/464 247/358/462
f 212/281/466 211/280/465 247/358/462
f 213/282/467 212/281/466 247/358/462
f 214/283/468 213/282/467 247/358/462
f 215/284/469 214/283/468 247/358/462
f 216/285/470 215/284/469 247/358/462
f 217/286/471 216/285/470 247/358/462
f 218/287/472 217/286/471 247/358/462
f 219/288/473 218/287/472 247/358/462
f 220/289/474 219/288/473 247/358/462
f 221/290/475 220/289/474 247/358/462
f 222/291/476 221/290/475 247/358/462
f 223/292/477 222/291/476 247/358/462
f 224/293/478 223/292/477 247/358/462
f 225/294/479 224/293/478 247/358/462
f 226/295/480 225/294/479 247/358/462
f 207/276/461 226/295/480 247/358/462
s 3
f 227/356/481 228/355/482 248/359/483
f 228/355/482 229/354/484 248/359/483
f 229/354/484 230/353/485 248/359/483
f 230/353/485 231/352/486 248/359/483
f 231/352/486 232/351/487 248/359/483
f 232/351/487 233/350/488 248/359/483
f 233/350/488 234/349/489 248/359/483
f 234/349/489 235/348/490 248/359/483
f 235/348/490 236/347/491 248/359/483
f 236/347/491 237/346/492 248/359/483
f 237/346/492 238/345/493 248/359/483
f 238/345/493 239/344/494 248/359/483
f 239/344/494 240/343/495 248/359/483
f 240/343/495 241/342/496 248/359/483
f 241/342/496 242/341/497 248/359/483
f 242/341/497 243/340/498 248/359/483
f 243/340/498 244/339/499 248/359/483
f 244/339/499 245/338/500 248/359/483
f 245/338/500 246/357/501 248/359/483
f 246/357/501 227/356/481 248/359/483
g default
v -1617.564884 3069.379405 2219.455703
v -1617.986185 3069.379405 2218.628854
v -1618.642377 3069.379405 2217.972662
v -1619.469227 3069.379405 2217.551361
v -1620.385797 3069.379405 2217.406191
v -1621.302368 3069.379405 2217.551361
v -1622.129217 3069.379405 2217.972662
v -1622.785409 3069.379405 2218.628854
v -1623.206709 3069.379405 2219.455704
v -1623.351880 3069.379405 2220.372274
v -1623.206709 3069.379405 2221.288843
v -1622.785408 3069.379405 2222.115693
v -1622.129217 3069.379405 2222.771884
v -1621.302367 3069.379405 2223.193185
v -1620.385798 3069.379405 2223.338356
v -1619.469228 3069.379405 2223.193185
v -1618.642378 3069.379405 2222.771884
v -1617.986187 3069.379405 2222.115693
v -1617.564886 3069.379405 2221.288843
v -1617.419716 3069.379405 2220.372274
v -1617.564884 3188.591217 2219.455703
v -1617.986185 3188.591217 2218.628854
v -1618.642377 3188.591217 2217.972662
v -1619.469227 3188.591217 2217.551361
v -1620.385797 3188.591217 2217.406191
v -1621.302368 3188.591217 2217.551361
v -1622.129217 3188.591217 2217.972662
v -1622.785409 3188.591217 2218.628854
v -1623.206709 3188.591217 2219.455704
v -1623.351880 3188.591217 2220.372274
v -1623.206709 3188.591217 2221.288843
v -1622.785408 3188.591217 2222.115693
v -1622.129217 3188.591217 2222.771884
v -1621.302367 3188.591217 2223.193185
v -1620.385798 3188.591217 2223.338356
v -1619.469228 3188.591217 2223.193185
v -1618.642378 3188.591217 2222.771884
v -1617.986187 3188.591217 2222.115693
v -1617.564886 3188.591217 2221.288843
v -1617.419716 3188.591217 2220.372274
v -1620.385797 3069.379405 2220.372274
v -1620.385797 3188.591217 2220.372274
vt 0.648603 0.107966
vt 0.626409 0.064408
vt 0.591842 0.029841
vt 0.548284 0.007647
vt 0.500000 -0.000000
vt 0.451716 0.007647
vt 0.408159 0.029841
vt 0.373591 0.064409
vt 0.351397 0.107966
vt 0.343750 0.156250
vt 0.351397 0.204534
vt 0.373591 0.248091
vt 0.408159 0.282659
vt 0.451716 0.304853
vt 0.500000 0.312500
vt 0.548284 0.304853
vt 0.591841 0.282659
vt 0.626409 0.248091
vt 0.648603 0.204534
vt 0.656250 0.156250
vt 0.375000 0.312500
vt 0.387500 0.312500
vt 0.400000 0.312500
vt 0.412500 0.312500
vt 0.425000 0.312500
vt 0.437500 0.312500
vt 0.450000 0.312500
vt 0.462500 0.312500
vt 0.475000 0.312500
vt 0.487500 0.312500
vt 0.500000 0.312500
vt 0.512500 0.312500
vt 0.525000 0.312500
vt 0.537500 0.312500
vt 0.550000 0.312500
vt 0.562500 0.312500
vt 0.575000 0.312500
vt 0.587500 0.312500
vt 0.600000 0.312500
vt 0.612500 0.312500
vt 0.625000 0.312500
vt 0.375000 0.687500
vt 0.387500 0.687500
vt 0.400000 0.687500
vt 0.412500 0.687500
vt 0.425000 0.687500
vt 0.437500 0.687500
vt 0.450000 0.687500
vt 0.462500 0.687500
vt 0.475000 0.687500
vt 0.487500 0.687500
vt 0.500000 0.687500
vt 0.512500 0.687500
vt 0.525000 0.687500
vt 0.537500 0.687500
vt 0.550000 0.687500
vt 0.562500 0.687500
vt 0.575000 0.687500
vt 0.587500 0.687500
vt 0.600000 0.687500
vt 0.612500 0.687500
vt 0.625000 0.687500
vt 0.648603 0.795466
vt 0.626409 0.751908
vt 0.591842 0.717341
vt 0.548284 0.695147
vt 0.500000 0.687500
vt 0.451716 0.695147
vt 0.408159 0.717341
vt 0.373591 0.751909
vt 0.351397 0.795466
vt 0.343750 0.843750
vt 0.351397 0.892034
vt 0.373591 0.935591
vt 0.408159 0.970159
vt 0.451716 0.992353
vt 0.500000 1.000000
vt 0.548284 0.992353
vt 0.591841 0.970159
vt 0.626409 0.935591
vt 0.648603 0.892034
vt 0.656250 0.843750
vt 0.500000 0.156250
vt 0.500000 0.843750
vn 0.951057 0.000000 -0.309016
vn 0.809017 0.000000 -0.587785
vn 0.809017 0.000000 -0.587785
vn 0.951057 0.000000 -0.309016
vn 0.587785 0.000000 -0.809017
vn 0.587785 0.000000 -0.809017
vn 0.309017 0.000000 -0.951057
vn 0.309017 0.000000 -0.951057
vn -0.000000 0.000000 -1.000000
vn -0.000000 0.000000 -1.000000
vn -0.309017 0.000000 -0.951057
vn -0.309017 0.000000 -0.951057
vn -0.587785 0.000000 -0.809017
vn -0.587785 0.000000 -0.809017
vn -0.809017 0.000000 -0.587785
vn -0.809017 0.000000 -0.587785
vn -0.951057 0.000000 -0.309017
vn -0.951057 0.000000 -0.309017
vn -1.000000 0.000000 0.000000
vn -1.000000 0.000000 0.000000
vn -0.951057 0.000000 0.309017
vn -0.951057 0.000000 0.309017
vn -0.809017 0.000000 0.587785
vn -0.809017 0.000000 0.587785
vn -0.587785 0.000000 0.809017
vn -0.587785 0.000000 0.809017
vn -0.309017 0.000000 0.951057
vn -0.309017 0.000000 0.951057
vn 0.000000 0.000000 1.000000
vn 0.000000 0.000000 1.000000
vn 0.309017 0.000000 0.951057
vn 0.309017 0.000000 0.951057
vn 0.587785 0.000000 0.809017
vn 0.587785 0.000000 0.809017
vn 0.809017 0.000000 0.587785
vn 0.809017 0.000000 0.587785
vn 0.951057 0.000000 0.309017
vn 0.951057 0.000000 0.309017
vn 1.000000 0.000000 0.000001
vn 1.000000 0.000000 0.000001
vn 0.000000 -1.000000 0.000000
vn 0.000000 -1.000000 0.000000
vn 0.000000 -1.000000 0.000000
vn 0.000000 -1.000000 0.000000
vn 0.000000 -1.000000 0.000000
vn 0.000000 -1.000000 0.000000
vn 0.000000 -1.000000 0.000000
vn 0.000000 -1.000000 0.000000
vn 0.000000 -1.000000 0.000000
vn 0.000000 -1.000000 0.000000
vn 0.000000 -1.000000 0.000000
vn 0.000000 -1.000000 0.000000
vn 0.000000 -1.000000 0.000000
vn 0.000000 -1.000000 0.000000
vn 0.000000 -1.000000 0.000000
vn 0.000000 -1.000000 0.000000
vn 0.000000 -1.000000 0.000000
vn 0.000000 -1.000000 0.000000
vn 0.000000 -1.000000 0.000000
vn 0.000000 -1.000000 0.000000
vn 0.000000 -1.000000 0.000000
vn 0.000000 1.000000 0.000000
vn 0.000000 1.000000 0.000000
vn 0.000000 1.000000 0.000000
vn 0.000000 1.000000 0.000000
vn 0.000000 1.000000 0.000000
vn 0.000000 1.000000 0.000000
vn 0.000000 1.000000 0.000000
vn 0.000000 1.000000 0.000000
vn 0.000000 1.000000 0.000000
vn 0.000000 1.000000 0.000000
vn 0.000000 1.000000 0.000000
vn 0.000000 1.000000 0.000000
vn 0.000000 1.000000 0.000000
vn 0.000000 1.000000 0.000000
vn 0.000000 1.000000 0.000000
vn 0.000000 1.000000 0.000000
vn 0.000000 1.000000 0.000000
vn 0.000000 1.000000 0.000000
vn 0.000000 1.000000 0.000000
vn 0.000000 1.000000 0.000000
vn 0.000000 1.000000 0.000000
s 1
g Tiff3 pCylinder7
usemtl initialShadingGroup
f 249/380/502 250/381/503 270/402/504 269/401/505
f 250/381/503 251/382/506 271/403/507 270/402/504
f 251/382/506 252/383/508 272/404/509 271/403/507
f 252/383/508 253/384/510 273/405/511 272/404/509
f 253/384/510 254/385/512 274/406/513 273/405/511
f 254/385/512 255/386/514 275/407/515 274/406/513
f 255/386/514 256/387/516 276/408/517 275/407/515
f 256/387/516 257/388/518 277/409/519 276/408/517
f 257/388/518 258/389/520 278/410/521 277/409/519
f 258/389/520 259/390/522 279/411/523 278/410/521
f 259/390/522 260/391/524 280/412/525 279/411/523
f 260/391/524 261/392/526 281/413/527 280/412/525
f 261/392/526 262/393/528 282/414/529 281/413/527
f 262/393/528 263/394/530 283/415/531 282/414/529
f 263/394/530 264/395/532 284/416/533 283/415/531
f 264/395/532 265/396/534 285/417/535 284/416/533
f 265/396/534 266/397/536 286/418/537 285/417/535
f 266/397/536 267/398/538 287/419/539 286/418/537
f 267/398/538 268/399/540 288/420/541 287/419/539
f 268/399/540 249/400/502 269/421/505 288/420/541
s 2
f 250/361/542 249/360/543 289/442/544
f 251/362/545 250/361/542 289/442/544
f 252/363/546 251/362/545 289/442/544
f 253/364/547 252/363/546 289/442/544
f 254/365/548 253/364/547 289/442/544
f 255/366/549 254/365/548 289/442/544
f 256/367/550 255/366/549 289/442/544
f 257/368/551 256/367/550 289/442/544
f 258/369/552 257/368/551 289/442/544
f 259/370/553 258/369/552 289/442/544
f 260/371/554 259/370/553 289/442/544
f 261/372/555 260/371/554 289/442/544
f 262/373/556 261/372/555 289/442/544
f 263/374/557 262/373/556 289/442/544
f 264/375/558 263/374/557 289/442/544
f 265/376/559 264/375/558 289/442/544
f 266/377/560 265/376/559 289/442/544
f 267/378/561 266/377/560 289/442/544
f 268/379/562 267/378/561 289/442/544
f 249/360/543 268/379/562 289/442/544
s 3
f 269/440/563 270/439/564 290/443/565
f 270/439/564 271/438/566 290/443/565
f 271/438/566 272/437/567 290/443/565
f 272/437/567 273/436/568 290/443/565
f 273/436/568 274/435/569 290/443/565
f 274/435/569 275/434/570 290/443/565
f 275/434/570 276/433/571 290/443/565
f 276/433/571 277/432/572 290/443/565
f 277/432/572 278/431/573 290/443/565
f 278/431/573 279/430/574 290/443/565
f 279/430/574 280/429/575 290/443/565
f 280/429/575 281/428/576 290/443/565
f 281/428/576 282/427/577 290/443/565
f 282/427/577 283/426/578 290/443/565
f 283/426/578 284/425/579 290/443/565
f 284/425/579 285/424/580 290/443/565
f 285/424/580 286/423/581 290/443/565
f 286/423/581 287/422/582 290/443/565
f 287/422/582 288/441/583 290/443/565
f 288/441/583 269/440/563 290/443/565
g default
v -1617.564884 3069.379405 2265.677353
v -1617.986185 3069.379405 2264.850503
v -1618.642377 3069.379405 2264.194311
v -1619.469227 3069.379405 2263.773010
v -1620.385797 3069.379405 2263.627840
v -1621.302368 3069.379405 2263.773011
v -1622.129217 3069.379405 2264.194312
v -1622.785409 3069.379405 2264.850504
v -1623.206709 3069.379405 2265.677353
v -1623.351880 3069.379405 2266.593923
v -1623.206709 3069.379405 2267.510493
v -1622.785408 3069.379405 2268.337342
v -1622.129217 3069.379405 2268.993534
v -1621.302367 3069.379405 2269.414835
v -1620.385798 3069.379405 2269.560005
v -1619.469228 3069.379405 2269.414835
v -1618.642378 3069.379405 2268.993534
v -1617.986187 3069.379405 2268.337342
v -1617.564886 3069.379405 2267.510493
v -1617.419716 3069.379405 2266.593923
v -1617.564884 3188.591217 2265.677353
v -1617.986185 3188.591217 2264.850503
v -1618.642377 3188.591217 2264.194311
v -1619.469227 3188.591217 2263.773010
v -1620.385797 3188.591217 2263.627840
v -1621.302368 3188.591217 2263.773011
v -1622.129217 3188.591217 2264.194312
v -1622.785409 3188.591217 2264.850504
v -1623.206709 3188.591217 2265.677353
v -1623.351880 3188.591217 2266.593923
v -1623.206709 3188.591217 2267.510493
v -1622.785408 3188.591217 2268.337342
v -1622.129217 3188.591217 2268.993534
v -1621.302367 3188.591217 2269.414835
v -1620.385798 3188.591217 2269.560005
v -1619.469228 3188.591217 2269.414835
v -1618.642378 3188.591217 2268.993534
v -1617.986187 3188.591217 2268.337342
v -1617.564886 3188.591217 2267.510493
v -1617.419716 3188.591217 2266.593923
v -1620.385797 3069.379405 2266.593923
v -1620.385797 3188.591217 2266.593923
vt 0.648603 0.107966
vt 0.626409 0.064408
vt 0.591842 0.029841
vt 0.548284 0.007647
vt 0.500000 -0.000000
vt 0.451716 0.007647
vt 0.408159 0.029841
vt 0.373591 0.064409
vt 0.351397 0.107966
vt 0.343750 0.156250
vt 0.351397 0.204534
vt 0.373591 0.248091
vt 0.408159 0.282659
vt 0.451716 0.304853
vt 0.500000 0.312500
vt 0.548284 0.304853
vt 0.591841 0.282659
vt 0.626409 0.248091
vt 0.648603 0.204534
vt 0.656250 0.156250
vt 0.375000 0.312500
vt 0.387500 0.312500
vt 0.400000 0.312500
vt 0.412500 0.312500
vt 0.425000 0.312500
vt 0.437500 0.312500
vt 0.450000 0.312500
vt 0.462500 0.312500
vt 0.475000 0.312500
vt 0.487500 0.312500
vt 0.500000 0.312500
vt 0.512500 0.312500
vt 0.525000 0.312500
vt 0.537500 0.312500
vt 0.550000 0.312500
vt 0.562500 0.312500
vt 0.575000 0.312500
vt 0.587500 0.312500
vt 0.600000 0.312500
vt 0.612500 0.312500
vt 0.625000 0.312500
vt 0.375000 0.687500
vt 0.387500 0.687500
vt 0.400000 0.687500
vt 0.412500 0.687500
vt 0.425000 0.687500
vt 0.437500 0.687500
vt 0.450000 0.687500
vt 0.462500 0.687500
vt 0.475000 0.687500
vt 0.487500 0.687500
vt 0.500000 0.687500
vt 0.512500 0.687500
vt 0.525000 0.687500
vt 0.537500 0.687500
vt 0.550000 0.687500
vt 0.562500 0.687500
vt 0.575000 0.687500
vt 0.587500 0.687500
vt 0.600000 0.687500
vt 0.612500 0.687500
vt 0.625000 0.687500
vt 0.648603 0.795466
vt 0.626409 0.751908
vt 0.591842 0.717341
vt 0.548284 0.695147
vt 0.500000 0.687500
vt 0.451716 0.695147
vt 0.408159 0.717341
vt 0.373591 0.751909
vt 0.351397 0.795466
vt 0.343750 0.843750
vt 0.351397 0.892034
vt 0.373591 0.935591
vt 0.408159 0.970159
vt 0.451716 0.992353
vt 0.500000 1.000000
vt 0.548284 0.992353
vt 0.591841 0.970159
vt 0.626409 0.935591
vt 0.648603 0.892034
vt 0.656250 0.843750
vt 0.500000 0.156250
vt 0.500000 0.843750
vn 0.951057 0.000000 -0.309016
vn 0.809017 0.000000 -0.587785
vn 0.809017 0.000000 -0.587785
vn 0.951057 0.000000 -0.309016
vn 0.587785 0.000000 -0.809017
vn 0.587785 0.000000 -0.809017
vn 0.309017 0.000000 -0.951057
vn 0.309017 0.000000 -0.951057
vn -0.000000 0.000000 -1.000000
vn -0.000000 0.000000 -1.000000
vn -0.309017 0.000000 -0.951057
vn -0.309017 0.000000 -0.951057
vn -0.587785 0.000000 -0.809017
vn -0.587785 0.000000 -0.809017
vn -0.809017 0.000000 -0.587785
vn -0.809017 0.000000 -0.587785
vn -0.951057 0.000000 -0.309017
vn -0.951057 0.000000 -0.309017
vn -1.000000 0.000000 0.000000
vn -1.000000 0.000000 0.000000
vn -0.951057 0.000000 0.309017
vn -0.951057 0.000000 0.309017
vn -0.809017 0.000000 0.587785
vn -0.809017 0.000000 0.587785
vn -0.587785 0.000000 0.809017
vn -0.587785 0.000000 0.809017
vn -0.309017 0.000000 0.951057
vn -0.309017 0.000000 0.951057
vn 0.000000 0.000000 1.000000
vn 0.000000 0.000000 1.000000
vn 0.309017 0.000000 0.951057
vn 0.309017 0.000000 0.951057
vn 0.587785 0.000000 0.809017
vn 0.587785 0.000000 0.809017
vn 0.809017 0.000000 0.587785
vn 0.809017 0.000000 0.587785
vn 0.951057 0.000000 0.309017
vn 0.951057 0.000000 0.309017
vn 1.000000 0.000000 0.000001
vn 1.000000 0.000000 0.000001
vn 0.000000 -1.000000 0.000000
vn 0.000000 -1.000000 0.000000
vn 0.000000 -1.000000 0.000000
vn 0.000000 -1.000000 0.000000
vn 0.000000 -1.000000 0.000000
vn 0.000000 -1.000000 0.000000
vn 0.000000 -1.000000 0.000000
vn 0.000000 -1.000000 0.000000
vn 0.000000 -1.000000 0.000000
vn 0.000000 -1.000000 0.000000
vn 0.000000 -1.000000 0.000000
vn 0.000000 -1.000000 0.000000
vn 0.000000 -1.000000 0.000000
vn 0.000000 -1.000000 0.000000
vn 0.000000 -1.000000 0.000000
vn 0.000000 -1.000000 0.000000
vn 0.000000 -1.000000 0.000000
vn 0.000000 -1.000000 0.000000
vn 0.000000 -1.000000 0.000000
vn 0.000000 -1.000000 0.000000
vn 0.000000 -1.000000 0.000000
vn 0.000000 1.000000 0.000000
vn 0.000000 1.000000 0.000000
vn 0.000000 1.000000 0.000000
vn 0.000000 1.000000 0.000000
vn 0.000000 1.000000 0.000000
vn 0.000000 1.000000 0.000000
vn 0.000000 1.000000 0.000000
vn 0.000000 1.000000 0.000000
vn 0.000000 1.000000 0.000000
vn 0.000000 1.000000 0.000000
vn 0.000000 1.000000 0.000000
vn 0.000000 1.000000 0.000000
vn 0.000000 1.000000 0.000000
vn 0.000000 1.000000 0.000000
vn 0.000000 1.000000 0.000000
vn 0.000000 1.000000 0.000000
vn 0.000000 1.000000 0.000000
vn 0.000000 1.000000 0.000000
vn 0.000000 1.000000 0.000000
vn 0.000000 1.000000 0.000000
vn 0.000000 1.000000 0.000000
s 1
g Tiff3 pCylinder8
usemtl initialShadingGroup
f 291/464/584 292/465/585 312/486/586 311/485/587
f 292/465/585 293/466/588 313/487/589 312/486/586
f 293/466/588 294/467/590 314/488/591 313/487/589
f 294/467/590 295/468/592 315/489/593 314/488/591
f 295/468/592 296/469/594 316/490/595 315/489/593
f 296/469/594 297/470/596 317/491/597 316/490/595
f 297/470/596 298/471/598 318/492/599 317/491/597
f 298/471/598 299/472/600 319/493/601 318/492/599
f 299/472/600 300/473/602 320/494/603 319/493/601
f 300/473/602 301/474/604 321/495/605 320/494/603
f 301/474/604 302/475/606 322/496/607 321/495/605
f 302/475/606 303/476/608 323/497/609 322/496/607
f 303/476/608 304/477/610 324/498/611 323/497/609
f 304/477/610 305/478/612 325/499/613 324/498/611
f 305/478/612 306/479/614 326/500/615 325/499/613
f 306/479/614 307/480/616 327/501/617 326/500/615
f 307/480/616 308/481/618 328/502/619 327/501/617
f 308/481/618 309/482/620 329/503/621 328/502/619
f 309/482/620 310/483/622 330/504/623 329/503/621
f 310/483/622 291/484/584 311/505/587 330/504/623
s 2
f 292/445/624 291/444/625 331/526/626
f 293/446/627 292/445/624 331/526/626
f 294/447/628 293/446/627 331/526/626
f 295/448/629 294/447/628 331/526/626
f 296/449/630 295/448/629 331/526/626
f 297/450/631 296/449/630 331/526/626
f 298/451/632 297/450/631 331/526/626
f 299/452/633 298/451/632 331/526/626
f 300/453/634 299/452/633 331/526/626
f 301/454/635 300/453/634 331/526/626
f 302/455/636 301/454/635 331/526/626
f 303/456/637 302/455/636 331/526/626
f 304/457/638 303/456/637 331/526/626
f 305/458/639 304/457/638 331/526/626
f 306/459/640 305/458/639 331/526/626
f 307/460/641 306/459/640 331/526/626
f 308/461/642 307/460/641 331/526/626
f 309/462/643 308/461/642 331/526/626
f 310/463/644 309/462/643 331/526/626
f 291/444/625 310/463/644 331/526/626
s 3
f 311/524/645 312/523/646 332/527/647
f 312/523/646 313/522/648 332/527/647
f 313/522/648 314/521/649 332/527/647
f 314/521/649 315/520/650 332/527/647
f 315/520/650 316/519/651 332/527/647
f 316/519/651 317/518/652 332/527/647
f 317/518/652 318/517/653 332/527/647
f 318/517/653 319/516/654 332/527/647
f 319/516/654 320/515/655 332/527/647
f 320/515/655 321/514/656 332/527/647
f 321/514/656 322/513/657 332/527/647
f 322/513/657 323/512/658 332/527/647
f 323/512/658 324/511/659 332/527/647
f 324/511/659 325/510/660 332/527/647
f 325/510/660 326/509/661 332/527/647
f 326/509/661 327/508/662 332/527/647
f 327/508/662 328/507/663 332/527/647
f 328/507/663 329/506/664 332/527/647
f 329/506/664 330/525/665 332/527/647
f 330/525/665 311/524/645 332/527/647
g default
v -1631.421511 3180.924342 2330.582021
v -1622.539451 3180.924342 2330.582021
v -1631.421511 3202.844752 2318.996233
v -1622.539451 3202.844752 2318.996233
v -1631.421511 3069.975636 2067.606722
v -1622.539451 3069.975636 2067.606722
v -1631.421511 3048.055226 2079.192510
v -1622.539451 3048.055226 2079.192510
vt 0.375000 0.000000
vt 0.625000 0.000000
vt 0.375000 0.250000
vt 0.625000 0.250000
vt 0.375000 0.500000
vt 0.625000 0.500000
vt 0.375000 0.750000
vt 0.625000 0.750000
vt 0.375000 1.000000
vt 0.625000 1.000000
vt 0.875000 0.000000
vt 0.875000 0.250000
vt 0.125000 0.000000
vt 0.125000 0.250000
vn 0.000000 0.467285 0.884107
vn 0.000000 0.467285 0.884107
vn 0.000000 0.467285 0.884107
vn 0.000000 0.467285 0.884107
vn 0.000000 0.884107 -0.467285
vn 0.000000 0.884107 -0.467285
vn 0.000000 0.884107 -0.467285
vn 0.000000 0.884107 -0.467285
vn 0.000000 -0.467285 -0.884107
vn 0.000000 -0.467285 -0.884107
vn 0.000000 -0.467285 -0.884107
vn 0.000000 -0.467285 -0.884107
vn 0.000000 -0.884107 0.467285
vn 0.000000 -0.884107 0.467285
vn 0.000000 -0.884107 0.467285
vn 0.000000 -0.884107 0.467285
vn 1.000000 0.000000 0.000000
vn 1.000000 0.000000 0.000000
vn 1.000000 0.000000 0.000000
vn 1.000000 0.000000 0.000000
vn -1.000000 0.000000 0.000000
vn -1.000000 0.000000 0.000000
vn -1.000000 0.000000 0.000000
vn -1.000000 0.000000 0.000000
s off
g Tiff3 pCube108
usemtl initialShadingGroup
f 333/528/666 334/529/667 336/531/668 335/530/669
f 335/530/670 336/531/671 338/533/672 337/532/673
f 337/532/674 338/533/675 340/535/676 339/534/677
f 339/534/678 340/535/679 334/537/680 333/536/681
f 334/529/682 340/538/683 338/539/684 336/531/685
f 339/540/686 333/528/687 335/530/688 337/541/689
g default
v -1615.249370 3167.759223 2463.920839
v -1258.110175 3167.759223 2463.920839
v -1615.249370 3179.657057 2463.920839
v -1258.110175 3179.657057 2463.920839
v -1615.249370 3219.853963 2366.513407
v -1258.110175 3219.853963 2366.513407
v -1615.249370 3207.956128 2366.513407
v -1258.110175 3207.956128 2366.513407
vt 0.375000 0.000000
vt 0.625000 0.000000
vt 0.375000 0.250000
vt 0.625000 0.250000
vt 0.375000 0.500000
vt 0.625000 0.500000
vt 0.375000 0.750000
vt 0.625000 0.750000
vt 0.375000 1.000000
vt 0.625000 1.000000
vt 0.875000 0.000000
vt 0.875000 0.250000
vt 0.125000 0.000000
vt 0.125000 0.250000
vn 0.000000 0.000000 1.000000
vn 0.000000 0.000000 1.000000
vn 0.000000 0.000000 1.000000
vn 0.000000 0.000000 1.000000
vn 0.000000 0.924384 0.381463
vn 0.000000 0.924384 0.381463
vn 0.000000 0.924384 0.381463
vn 0.000000 0.924384 0.381463
vn 0.000000 0.000000 -1.000000
vn 0.000000 0.000000 -1.000000
vn 0.000000 0.000000 -1.000000
vn 0.000000 0.000000 -1.000000
vn 0.000000 -0.924384 -0.381463
vn 0.000000 -0.924384 -0.381463
vn 0.000000 -0.924384 -0.381463
vn 0.000000 -0.924384 -0.381463
vn 1.000000 0.000000 0.000000
vn 1.000000 0.000000 0.000000
vn 1.000000 0.000000 0.000000
vn 1.000000 0.000000 0.000000
vn -1.000000 0.000000 0.000000
vn -1.000000 0.000000 0.000000
vn -1.000000 0.000000 0.000000
vn -1.000000 0.000000 0.000000
s off
g Tiff3 pCube109
usemtl initialShadingGroup
f 341/542/690 342/543/691 344/545/692 343/544/693
f 343/544/694 344/545/695 346/547/696 345/546/697
f 345/546/698 346/547/699 348/549/700 347/548/701
f 347/548/702 348/549/703 342/551/704 341/550/705
f 342/543/706 348/552/707 346/553/708 344/545/709
f 347/554/710 341/542/711 343/544/712 345/555/713
g default
v -1756.048573 2923.276912 2194.651767
v -1635.090463 2923.276912 2194.651767
v -1635.090463 3046.263631 2194.651767
v -1635.090463 3046.263631 2077.458470
v -1756.048573 2923.276912 2077.458470
v -1635.090463 2923.276912 2077.458470
v -1756.048573 2937.679656 2194.651763
v -1756.048573 2937.679656 2077.458470
v -1635.090463 2937.679656 2077.458470
v -1635.090463 2937.679656 2194.651763
v -1635.090463 3033.301189 2194.651767
v -1635.090463 3033.301189 2077.458470
v -1640.500952 2923.276912 2194.651767
v -1640.500952 2937.679656 2194.651763
v -1640.500952 3033.301189 2194.651767
v -1640.500952 3046.263631 2194.651767
v -1640.500952 3046.263631 2077.458470
v -1640.500952 3033.301189 2077.458470
v -1640.500952 2937.679656 2077.458470
v -1640.500952 2923.276912 2077.458470
v -1761.048595 2923.276912 2199.651768
v -1640.500952 2923.276912 2199.651768
v -1640.500952 2937.679656 2199.651759
v -1761.048595 2937.679656 2199.651763
v -1761.048595 2937.679656 2072.458465
v -1640.500952 2937.679656 2072.458465
v -1640.500952 2923.276912 2072.458465
v -1761.048595 2923.276912 2072.458465
v -1630.090458 2923.276912 2072.458465
v -1630.090458 2923.276912 2199.651772
v -1630.090458 2937.679656 2072.458465
v -1630.090458 2937.679656 2199.651768
vt 0.375000 0.000000
vt 0.625000 0.000000
vt 0.625000 0.250000
vt 0.625000 0.500000
vt 0.375000 0.750000
vt 0.625000 0.750000
vt 0.375000 1.000000
vt 0.625000 1.000000
vt 0.875000 0.000000
vt 0.875000 0.250000
vt 0.125000 0.000000
vt 0.375000 0.025000
vt 0.125000 0.025000
vt 0.375000 0.725000
vt 0.625000 0.725000
vt 0.875000 0.025000
vt 0.625000 0.025000
vt 0.625000 0.227500
vt 0.625000 0.522500
vt 0.875000 0.227500
vt 0.600000 0.000000
vt 0.600000 1.000000
vt 0.600000 0.025000
vt 0.600000 0.227500
vt 0.600000 0.250000
vt 0.600000 0.500000
vt 0.600000 0.522500
vt 0.600000 0.725000
vt 0.600000 0.750000
vt 0.375000 0.000000
vt 0.600000 0.000000
vt 0.600000 0.025000
vt 0.375000 0.025000
vt 0.375000 0.725000
vt 0.600000 0.725000
vt 0.600000 0.750000
vt 0.375000 0.750000
vt 0.625000 0.000000
vt 0.875000 0.000000
vt 0.875000 0.025000
vt 0.625000 0.025000
vt 0.125000 0.000000
vt 0.125000 0.025000
vt 0.625000 0.725000
vt 0.625000 0.750000
vn 0.000000 0.000000 1.000000
vn 0.000000 0.000000 1.000000
vn 0.000000 0.000000 1.000000
vn 0.000000 0.000000 1.000000
vn 0.000000 0.000000 -1.000000
vn 0.000000 0.000000 -1.000000
vn 0.000000 0.000000 -1.000000
vn 0.000000 0.000000 -1.000000
vn 0.000000 -1.000000 -0.000000
vn 0.000000 -1.000000 -0.000000
vn 0.000000 -1.000000 0.000000
vn 0.000000 -1.000000 0.000000
vn 1.000000 0.000000 0.000000
vn 1.000000 0.000000 0.000000
vn 1.000000 0.000000 0.000000
vn 1.000000 0.000000 0.000000
vn -1.000000 0.000000 0.000000
vn -1.000000 0.000000 0.000000
vn -1.000000 0.000000 0.000000
vn -1.000000 0.000000 0.000000
vn 1.000000 -0.000000 0.000000
vn 1.000000 -0.000000 0.000000
vn 1.000000 0.000000 0.000000
vn 1.000000 0.000000 0.000000
vn 1.000000 -0.000000 0.000000
vn 1.000000 -0.000000 0.000000
vn -0.000001 0.000000 1.000000
vn -0.000001 0.000000 1.000000
vn 0.000000 -0.000000 1.000000
vn 0.000000 -0.000000 1.000000
vn 0.000000 -0.000000 1.000000
vn 0.000000 -0.000000 1.000000
vn 0.000000 0.000000 1.000000
vn 0.000000 0.000000 1.000000
vn 0.000000 1.000000 0.000000
vn 0.000000 1.000000 0.000000
vn 0.000000 1.000000 0.000000
vn 0.000000 1.000000 0.000000
vn 0.000000 0.000000 -1.000000
vn 0.000000 0.000000 -1.000000
vn 0.000000 0.000000 -1.000000
vn 0.000000 0.000000 -1.000000
vn 0.000000 0.000000 -1.000000
vn 0.000000 0.000000 -1.000000
vn 0.000000 0.000000 -1.000000
vn 0.000000 0.000000 -1.000000
vn 0.000000 -1.000000 0.000000
vn 0.000000 -1.000000 0.000000
vn 0.000000 -0.000000 1.000000
vn 0.000000 0.000000 -1.000000
vn -0.637551 0.770408 0.000000
vn -0.637551 0.770408 0.000000
vn -0.637552 0.770408 0.000000
vn -0.637551 0.770408 0.000000
vn -1.000000 0.000000 0.000000
vn -1.000000 0.000000 0.000000
vn -1.000000 0.000000 0.000000
vn -1.000000 0.000000 0.000000
vn 0.000000 -1.000000 0.000001
vn 0.000000 -1.000000 0.000000
vn 0.000000 1.000000 0.000001
vn 0.000000 1.000000 0.000001
vn 0.000000 1.000000 0.000001
vn 0.000000 1.000000 0.000001
vn 0.000000 1.000000 -0.000000
vn 0.000000 1.000000 -0.000001
vn 0.000000 1.000000 -0.000001
vn 0.000000 1.000000 -0.000000
vn 0.000000 -1.000000 -0.000001
vn 0.000000 -1.000000 -0.000001
vn 0.000000 -1.000000 0.000000
vn 0.000000 -1.000000 0.000000
vn 0.000000 1.000000 0.000000
vn 0.000000 1.000000 -0.000000
vn 0.000000 1.000000 -0.000000
vn 0.000000 1.000000 0.000000
s 1
g Tiff3 pCube110
usemtl initialShadingGroup
f 369/585/714 370/586/715 371/587/716 372/588/717
s 2
f 373/589/718 374/590/719 375/591/720 376/592/721
s 3
f 353/560/722 368/584/723 361/577/724 349/562/725
s off
f 378/593/726 377/594/727 379/595/728 380/596/729
f 376/597/730 369/585/731 372/588/732 373/598/733
s 4
f 359/573/734 360/575/735 352/565/736 351/558/737
f 358/572/738 357/571/739 360/575/735 359/573/734
s 1
f 371/587/716 370/586/715 378/593/740 380/596/741
s 5
f 363/579/742 362/578/743 358/572/744 359/573/745
f 364/580/746 363/579/742 359/573/745 351/558/747
s off
f 365/581/748 364/580/749 351/558/750 352/559/751
s 6
f 366/582/752 365/581/753 352/559/754 360/574/755
f 367/583/756 366/582/752 360/574/755 357/570/757
s 2
f 375/591/720 374/590/719 379/599/758 377/600/759
s 3
f 361/577/724 368/584/723 354/561/760 350/563/761
s 5
f 355/567/762 362/578/743 363/579/742
s 6
f 356/569/763 366/582/752 367/583/756
s off
f 356/568/764 355/567/765 363/579/766 366/582/767
f 364/580/768 365/581/769 366/582/770 363/579/771
s 3
f 349/556/725 361/576/724 370/586/772 369/585/773
s 7
f 362/578/774 355/567/775 372/588/776 371/587/777
f 356/569/778 367/583/779 374/590/780 373/589/781
s 3
f 368/584/723 353/560/722 376/592/782 375/591/783
f 350/557/761 354/564/760 377/594/784 378/593/785
s 7
f 357/571/786 358/572/787 380/596/788 379/595/789
s 3
f 353/566/722 349/556/725 369/585/773 376/597/782
s 7
f 355/567/775 356/568/778 373/598/781 372/588/776
s 3
f 361/576/724 350/557/761 378/593/785 370/586/772
s 7
f 358/572/787 362/578/774 371/587/777 380/596/788
f 367/583/779 357/570/786 379/599/789 374/590/780
s 3
f 354/561/760 368/584/723 375/591/783 377/600/784
g default
v -1756.048573 2923.276912 2322.238734
v -1635.090463 2923.276912 2322.238734
v -1635.090463 3046.263631 2322.238734
v -1635.090463 3046.263631 2205.045437
v -1756.048573 2923.276912 2205.045437
v -1635.090463 2923.276912 2205.045437
v -1756.048573 2937.679656 2322.238730
v -1756.048573 2937.679656 2205.045437
v -1635.090463 2937.679656 2205.045437
v -1635.090463 2937.679656 2322.238730
v -1635.090463 3033.301189 2322.238734
v -1635.090463 3033.301189 2205.045437
v -1640.500952 2923.276912 2322.238734
v -1640.500952 2937.679656 2322.238730
v -1640.500952 3033.301189 2322.238734
v -1640.500952 3046.263631 2322.238734
v -1640.500952 3046.263631 2205.045437
v -1640.500952 3033.301189 2205.045437
v -1640.500952 2937.679656 2205.045437
v -1640.500952 2923.276912 2205.045437
v -1761.048595 2923.276912 2327.238735
v -1640.500952 2923.276912 2327.238735
v -1640.500952 2937.679656 2327.238726
v -1761.048595 2937.679656 2327.238730
v -1761.048595 2937.679656 2200.045432
v -1640.500952 2937.679656 2200.045432
v -1640.500952 2923.276912 2200.045432
v -1761.048595 2923.276912 2200.045432
v -1630.090458 2923.276912 2200.045432
v -1630.090458 2923.276912 2327.238739
v -1630.090458 2937.679656 2200.045432
v -1630.090458 2937.679656 2327.238735
vt 0.375000 0.000000
vt 0.625000 0.000000
vt 0.625000 0.250000
vt 0.625000 0.500000
vt 0.375000 0.750000
vt 0.625000 0.750000
vt 0.375000 1.000000
vt 0.625000 1.000000
vt 0.875000 0.000000
vt 0.875000 0.250000
vt 0.125000 0.000000
vt 0.375000 0.025000
vt 0.125000 0.025000
vt 0.375000 0.725000
vt 0.625000 0.725000
vt 0.875000 0.025000
vt 0.625000 0.025000
vt 0.625000 0.227500
vt 0.625000 0.522500
vt 0.875000 0.227500
vt 0.600000 0.000000
vt 0.600000 1.000000
vt 0.600000 0.025000
vt 0.600000 0.227500
vt 0.600000 0.250000
vt 0.600000 0.500000
vt 0.600000 0.522500
vt 0.600000 0.725000
vt 0.600000 0.750000
vt 0.375000 0.000000
vt 0.600000 0.000000
vt 0.600000 0.025000
vt 0.375000 0.025000
vt 0.375000 0.725000
vt 0.600000 0.725000
vt 0.600000 0.750000
vt 0.375000 0.750000
vt 0.625000 0.000000
vt 0.875000 0.000000
vt 0.875000 0.025000
vt 0.625000 0.025000
vt 0.125000 0.000000
vt 0.125000 0.025000
vt 0.625000 0.725000
vt 0.625000 0.750000
vn 0.000000 0.000000 1.000000
vn 0.000000 0.000000 1.000000
vn 0.000000 0.000000 1.000000
vn 0.000000 0.000000 1.000000
vn 0.000000 0.000000 -1.000000
vn 0.000000 0.000000 -1.000000
vn 0.000000 0.000000 -1.000000
vn 0.000000 0.000000 -1.000000
vn 0.000000 -1.000000 -0.000000
vn 0.000000 -1.000000 -0.000000
vn 0.000000 -1.000000 0.000000
vn 0.000000 -1.000000 0.000000
vn 1.000000 0.000000 0.000000
vn 1.000000 0.000000 0.000000
vn 1.000000 0.000000 0.000000
vn 1.000000 0.000000 0.000000
vn -1.000000 0.000000 0.000000
vn -1.000000 0.000000 0.000000
vn -1.000000 0.000000 0.000000
vn -1.000000 0.000000 0.000000
vn 1.000000 -0.000000 0.000000
vn 1.000000 -0.000000 0.000000
vn 1.000000 0.000000 0.000000
vn 1.000000 0.000000 0.000000
vn 1.000000 -0.000000 0.000000
vn 1.000000 -0.000000 0.000000
vn -0.000001 0.000000 1.000000
vn -0.000001 0.000000 1.000000
vn 0.000000 -0.000000 1.000000
vn 0.000000 -0.000000 1.000000
vn 0.000000 -0.000000 1.000000
vn 0.000000 -0.000000 1.000000
vn 0.000000 0.000000 1.000000
vn 0.000000 0.000000 1.000000
vn 0.000000 1.000000 0.000000
vn 0.000000 1.000000 0.000000
vn 0.000000 1.000000 0.000000
vn 0.000000 1.000000 0.000000
vn 0.000000 0.000000 -1.000000
vn 0.000000 0.000000 -1.000000
vn 0.000000 0.000000 -1.000000
vn 0.000000 0.000000 -1.000000
vn 0.000000 0.000000 -1.000000
vn 0.000000 0.000000 -1.000000
vn 0.000000 0.000000 -1.000000
vn 0.000000 0.000000 -1.000000
vn 0.000000 -1.000000 0.000000
vn 0.000000 -1.000000 0.000000
vn 0.000000 -0.000000 1.000000
vn 0.000000 0.000000 -1.000000
vn -0.637551 0.770408 0.000000
vn -0.637551 0.770408 0.000000
vn -0.637552 0.770408 0.000000
vn -0.637551 0.770408 0.000000
vn -1.000000 0.000000 0.000000
vn -1.000000 0.000000 0.000000
vn -1.000000 0.000000 0.000000
vn -1.000000 0.000000 0.000000
vn 0.000000 -1.000000 0.000001
vn 0.000000 -1.000000 0.000000
vn 0.000000 1.000000 0.000001
vn 0.000000 1.000000 0.000001
vn 0.000000 1.000000 0.000001
vn 0.000000 1.000000 0.000001
vn 0.000000 1.000000 -0.000000
vn 0.000000 1.000000 -0.000001
vn 0.000000 1.000000 -0.000001
vn 0.000000 1.000000 -0.000000
vn 0.000000 -1.000000 -0.000001
vn 0.000000 -1.000000 -0.000001
vn 0.000000 -1.000000 0.000000
vn 0.000000 -1.000000 0.000000
vn 0.000000 1.000000 0.000000
vn 0.000000 1.000000 -0.000000
vn 0.000000 1.000000 -0.000000
vn 0.000000 1.000000 0.000000
s 1
g Tiff3 pCube111
usemtl initialShadingGroup
f 401/630/790 402/631/791 403/632/792 404/633/793
s 2
f 405/634/794 406/635/795 407/636/796 408/637/797
s 3
f 385/605/798 400/629/799 393/622/800 381/607/801
s off
f 410/638/802 409/639/803 411/640/804 412/641/805
f 408/642/806 401/630/807 404/633/808 405/643/809
s 4
f 391/618/810 392/620/811 384/610/812 383/603/813
f 390/617/814 389/616/815 392/620/811 391/618/810
s 1
f 403/632/792 402/631/791 410/638/816 412/641/817
s 5
f 395/624/818 394/623/819 390/617/820 391/618/821
f 396/625/822 395/624/818 391/618/821 383/603/823
s off
f 397/626/824 396/625/825 383/603/826 384/604/827
s 6
f 398/627/828 397/626/829 384/604/830 392/619/831
f 399/628/832 398/627/828 392/619/831 389/615/833
s 2
f 407/636/796 406/635/795 411/644/834 409/645/835
s 3
f 393/622/800 400/629/799 386/606/836 382/608/837
s 5
f 387/612/838 394/623/819 395/624/818
s 6
f 388/614/839 398/627/828 399/628/832
s off
f 388/613/840 387/612/841 395/624/842 398/627/843
f 396/625/844 397/626/845 398/627/846 395/624/847
s 3
f 381/601/801 393/621/800 402/631/848 401/630/849
s 7
f 394/623/850 387/612/851 404/633/852 403/632/853
f 388/614/854 399/628/855 406/635/856 405/634/857
s 3
f 400/629/799 385/605/798 408/637/858 407/636/859
f 382/602/837 386/609/836 409/639/860 410/638/861
s 7
f 389/616/862 390/617/863 412/641/864 411/640/865
s 3
f 385/611/798 381/601/801 401/630/849 408/642/858
s 7
f 387/612/851 388/613/854 405/643/857 404/633/852
s 3
f 393/621/800 382/602/837 410/638/861 402/631/848
s 7
f 390/617/863 394/623/850 403/632/853 412/641/864
f 399/628/855 389/615/862 411/644/865 406/635/856
s 3
f 386/606/836 400/629/799 407/636/859 409/645/860
g default
v -1621.695622 2928.029641 2272.139125
v -1251.663919 2928.029641 2272.139125
v -1621.695622 3260.559417 2272.139125
v -1251.663919 3260.559417 2272.139125
v -1621.695622 3260.559417 2081.140540
v -1251.663919 3260.559417 2081.140540
v -1621.695622 2928.029641 2081.140540
v -1251.663919 2928.029641 2081.140540
v -1621.695622 3027.788637 2272.139125
v -1621.695622 3027.788637 2081.140540
v -1251.663919 3027.788637 2081.140540
v -1251.663919 3027.788637 2272.139125
v -1385.619064 2928.029641 2272.139125
v -1385.619064 3027.788637 2272.139125
v -1385.619064 3260.559417 2272.139125
v -1385.619064 3260.559417 2081.140540
v -1385.619064 3027.788637 2081.140540
v -1385.619064 2928.029641 2081.140540
v -1621.695622 3144.173869 2081.140540
v -1621.695622 3144.173869 2272.139125
v -1385.619064 3144.173869 2272.139125
v -1251.663919 3144.173869 2272.139125
v -1251.663919 3144.173869 2081.140540
v -1385.619064 3144.173869 2081.140540
v -1294.405118 3027.788637 2272.139125
v -1294.405118 2928.029641 2272.139125
v -1294.405118 2928.029641 2081.140540
v -1294.405118 3027.788637 2081.140540
v -1294.405118 3144.173869 2081.140540
v -1294.405118 3260.559417 2081.140540
v -1294.405118 3260.559417 2272.139125
v -1294.405118 3144.173869 2272.139125
v -1488.730262 2928.029641 2272.139125
v -1488.730273 3027.788637 2272.139125
v -1488.730262 3144.173869 2272.139125
v -1488.730262 3260.559417 2272.139125
v -1488.730262 3260.559417 2081.140540
v -1488.730273 3144.173869 2081.140540
v -1488.730262 3027.788637 2081.140540
v -1488.730262 2928.029641 2081.140540
v -1294.405118 3144.173869 2233.638798
v -1294.405118 3027.788637 2233.638798
v -1385.619064 3144.173869 2233.638798
v -1385.619064 3027.788637 2233.638798
v -1580.252076 2928.029641 2272.139125
v -1580.252076 3027.788637 2272.139125
v -1580.252076 3144.173869 2272.139125
v -1580.252076 3260.559417 2272.139125
v -1580.252076 3260.559417 2081.140540
v -1580.252076 3144.173869 2081.140540
v -1580.252076 3027.788637 2081.140540
v -1580.252076 2928.029641 2081.140540
v -1580.252076 2928.029641 2241.067120
v -1580.252076 3027.788637 2241.067120
v -1488.730262 2928.029641 2241.067120
v -1488.730273 3027.788637 2241.067120
v -1580.252076 3144.173869 2241.067120
v -1488.730262 3144.173869 2241.067120
v -1437.174668 3027.788637 2272.139125
v -1437.174663 2928.029641 2272.139125
v -1437.174663 2928.029641 2081.140540
v -1437.174663 3027.788637 2081.140540
v -1437.174668 3144.173869 2081.140540
v -1437.174663 3260.559417 2081.140540
v -1437.174663 3260.559417 2272.139125
v -1437.174663 3144.173869 2272.139125
v -1294.405118 3027.788637 2288.039127
v -1294.405118 2928.029641 2288.039127
v -1251.663919 2928.029641 2288.039127
v -1251.663919 3027.788637 2288.039127
v -1385.619064 2928.029641 2288.039127
v -1385.619064 3027.788637 2288.039127
v -1437.174668 3027.788637 2288.039127
v -1437.174663 2928.029641 2288.039127
vt 0.375000 0.000000
vt 0.625000 0.000000
vt 0.375000 0.250000
vt 0.625000 0.250000
vt 0.375000 0.500000
vt 0.625000 0.500000
vt 0.375000 0.750000
vt 0.625000 0.750000
vt 0.375000 1.000000
vt 0.625000 1.000000
vt 0.875000 0.000000
vt 0.875000 0.250000
vt 0.125000 0.000000
vt 0.125000 0.250000
vt 0.375000 0.075000
vt 0.125000 0.075000
vt 0.375000 0.675000
vt 0.625000 0.675000
vt 0.875000 0.075000
vt 0.625000 0.075000
vt 0.550000 0.000000
vt 0.550000 1.000000
vt 0.550000 0.075000
vt 0.550000 0.250000
vt 0.550000 0.500000
vt 0.550000 0.675000
vt 0.550000 0.750000
vt 0.125000 0.162500
vt 0.375000 0.587500
vt 0.375000 0.162500
vt 0.550000 0.162500
vt 0.625000 0.162500
vt 0.625000 0.587500
vt 0.875000 0.162500
vt 0.550000 0.587500
vt 0.610000 0.075000
vt 0.610000 0.000000
vt 0.610000 1.000000
vt 0.610000 0.750000
vt 0.610000 0.675000
vt 0.610000 0.587500
vt 0.610000 0.500000
vt 0.610000 0.250000
vt 0.610000 0.162500
vt 0.445000 0.000000
vt 0.445000 1.000000
vt 0.445000 0.075000
vt 0.445000 0.162500
vt 0.445000 0.250000
vt 0.445000 0.500000
vt 0.445000 0.587500
vt 0.445000 0.675000
vt 0.445000 0.750000
vt 0.610000 0.075000
vt 0.610000 0.162500
vt 0.550000 0.162500
vt 0.550000 0.075000
vt 0.403000 0.000000
vt 0.403000 1.000000
vt 0.403000 0.075000
vt 0.403000 0.162500
vt 0.403000 0.250000
vt 0.403000 0.500000
vt 0.403000 0.587500
vt 0.403000 0.675000
vt 0.403000 0.750000
vt 0.403000 0.075000
vt 0.403000 0.000000
vt 0.445000 0.000000
vt 0.445000 0.075000
vt 0.403000 0.162500
vt 0.445000 0.162500
vt 0.497500 0.075000
vt 0.497500 0.000000
vt 0.497500 1.000000
vt 0.497500 0.750000
vt 0.497500 0.675000
vt 0.497500 0.587500
vt 0.497500 0.500000
vt 0.497500 0.250000
vt 0.497500 0.162500
vt 0.610000 0.000000
vt 0.625000 0.000000
vt 0.625000 0.075000
vt 0.610000 0.075000
vt 0.550000 0.000000
vt 0.550000 0.075000
vt 0.497500 0.075000
vt 0.497500 0.000000
vn 0.000000 0.000000 1.000000
vn 0.000000 0.000000 1.000000
vn 0.000000 0.000000 1.000000
vn 0.000000 0.000000 1.000000
vn 0.000000 1.000000 0.000000
vn 0.000000 1.000000 0.000000
vn 0.000000 1.000000 0.000000
vn 0.000000 1.000000 0.000000
vn 0.000000 0.000000 -1.000000
vn 0.000000 0.000000 -1.000000
vn 0.000000 0.000000 -1.000000
vn 0.000000 0.000000 -1.000000
vn 0.000000 -1.000000 0.000000
vn 0.000000 -1.000000 0.000000
vn 0.000000 -1.000000 0.000000
vn 0.000000 -1.000000 0.000000
vn 1.000000 0.000000 0.000000
vn 1.000000 0.000000 0.000000
vn 1.000000 0.000000 0.000000
vn 1.000000 0.000000 0.000000
vn -1.000000 0.000000 0.000000
vn -1.000000 0.000000 0.000000
vn -1.000000 0.000000 0.000000
vn -1.000000 0.000000 0.000000
vn -1.000000 0.000000 0.000000
vn -1.000000 0.000000 0.000000
vn -1.000000 0.000000 0.000000
vn -1.000000 0.000000 0.000000
vn 0.000000 0.000000 -1.000000
vn 0.000000 0.000000 -1.000000
vn 0.000000 0.000000 -1.000000
vn 0.000000 0.000000 -1.000000
vn 1.000000 0.000000 0.000000
vn 1.000000 0.000000 0.000000
vn 1.000000 0.000000 0.000000
vn 1.000000 0.000000 0.000000
vn 0.000000 0.000000 1.000000
vn 0.000000 0.000000 1.000000
vn 0.000000 0.000000 1.000000
vn 0.000000 0.000000 1.000000
vn 0.000000 0.000000 1.000000
vn 0.000000 0.000000 1.000000
vn 0.000000 0.000000 1.000000
vn 0.000000 0.000000 1.000000
vn 0.000000 0.000000 1.000000
vn 0.000000 0.000000 1.000000
vn 0.000000 0.000000 1.000000
vn 0.000000 0.000000 1.000000
vn 0.000000 1.000000 0.000000
vn 0.000000 1.000000 0.000000
vn 0.000000 1.000000 0.000000
vn 0.000000 1.000000 0.000000
vn 0.000000 0.000000 -1.000000
vn 0.000000 0.000000 -1.000000
vn 0.000000 0.000000 -1.000000
vn 0.000000 0.000000 -1.000000
vn 0.000000 0.000000 -1.000000
vn 0.000000 0.000000 -1.000000
vn 0.000000 0.000000 -1.000000
vn 0.000000 0.000000 -1.000000
vn 0.000000 -1.000000 0.000000
vn 0.000000 -1.000000 0.000000
vn 0.000000 -1.000000 0.000000
vn 0.000000 -1.000000 0.000000
vn 0.000000 0.000000 1.000000
vn 0.000000 0.000000 1.000000
vn 0.000000 0.000000 1.000000
vn 0.000000 0.000000 1.000000
vn 0.000000 -1.000000 0.000000
vn 0.000000 -1.000000 0.000000
vn 0.000000 0.000000 -1.000000
vn 0.000000 0.000000 -1.000000
vn 0.000000 0.000000 -1.000000
vn 0.000000 0.000000 -1.000000
vn 0.000000 1.000000 0.000000
vn 0.000000 1.000000 0.000000
vn 0.000000 0.000000 1.000000
vn 0.000000 0.000000 1.000000
vn 0.000000 0.000000 1.000000
vn 0.000000 0.000000 1.000000
vn 0.000000 0.000000 1.000000
vn 0.000000 0.000000 1.000000
vn 0.000000 0.000000 1.000000
vn 0.000000 0.000000 1.000000
vn 0.000000 0.000000 1.000000
vn 0.000000 0.000000 1.000000
vn 0.000000 0.000000 1.000000
vn 0.000000 0.000000 1.000000
vn 0.000000 1.000000 0.000000
vn 0.000000 1.000000 0.000000
vn 0.000000 0.000000 -1.000000
vn 0.000000 0.000000 -1.000000
vn 0.000000 0.000000 -1.000000
vn 0.000000 0.000000 -1.000000
vn 0.000000 -1.000000 0.000000
vn 0.000000 -1.000000 0.000000
vn -1.000000 0.000000 0.000000
vn -1.000000 0.000000 0.000000
vn -1.000000 0.000000 0.000000
vn -1.000000 0.000000 0.000000
vn 0.000000 -1.000000 0.000000
vn 0.000000 -1.000000 0.000000
vn 0.000000 -1.000000 0.000000
vn 0.000000 -1.000000 0.000000
vn 1.000000 0.000000 0.000000
vn 1.000000 0.000000 0.000000
vn 1.000000 0.000000 0.000000
vn 1.000000 0.000000 0.000000
vn 0.000000 1.000000 0.000000
vn 0.000000 1.000000 0.000000
vn 0.000000 1.000000 0.000000
vn 0.000000 1.000000 0.000000
vn 0.000000 0.000000 1.000000
vn 0.000000 0.000000 1.000000
vn 0.000000 0.000000 1.000000
vn 0.000000 0.000000 1.000000
vn 0.000000 0.000000 1.000000
vn 0.000000 0.000000 1.000000
vn 0.000000 0.000000 1.000000
vn 0.000000 0.000000 1.000000
vn 0.000000 1.000000 0.000000
vn 0.000000 1.000000 0.000000
vn 0.000000 0.000000 -1.000000
vn 0.000000 0.000000 -1.000000
vn 0.000000 0.000000 -1.000000
vn 0.000000 0.000000 -1.000000
vn 0.000000 -1.000000 0.000000
vn 0.000000 -1.000000 0.000000
vn 1.000000 0.000000 0.000000
vn 1.000000 0.000000 0.000000
vn 1.000000 0.000000 0.000000
vn 1.000000 0.000000 0.000000
vn 0.000000 1.000000 0.000000
vn 0.000000 1.000000 0.000000
vn 0.000000 1.000000 0.000000
vn 0.000000 1.000000 0.000000
vn -1.000000 -0.000000 0.000000
vn -1.000000 0.000000 0.000000
vn -1.000000 0.000000 0.000000
vn -1.000000 -0.000000 0.000000
vn 1.000000 0.000000 0.000000
vn 1.000000 0.000000 0.000000
vn -1.000000 0.000000 0.000000
vn -1.000000 0.000000 0.000000
vn 0.000000 -1.000000 0.000000
vn 0.000000 -1.000000 0.000000
vn 0.000000 -1.000000 0.000000
vn 0.000000 -1.000000 0.000000
vn 0.000000 0.000000 1.000000
vn 0.000000 0.000000 1.000000
vn 0.000000 0.000000 1.000000
vn 0.000000 -1.000000 0.000000
vn 0.000000 -1.000000 0.000000
vn 1.000000 0.000000 0.000000
vn 1.000000 0.000000 0.000000
vn 0.000000 1.000000 0.000000
vn 0.000000 1.000000 0.000000
vn 0.000000 1.000000 0.000000
vn 0.000000 -1.000000 0.000000
vn 0.000000 1.000000 0.000000
vn -1.000000 -0.000000 0.000000
vn -1.000000 -0.000000 0.000000
vn -1.000000 -0.000000 0.000000
vn -1.000000 -0.000000 0.000000
vn 0.000000 -1.000000 0.000000
vn 0.000000 1.000000 0.000000
vn 0.000000 1.000000 0.000000
s 1
g Tiff3 pCube112
usemtl initialShadingGroup
f 413/646/866 457/703/867 458/705/868 421/660/869
s 2
f 415/648/870 460/707/871 461/708/872 417/650/873
s 3
f 422/662/874 463/710/875 464/711/876 419/652/877
s 4
f 419/652/878 464/711/879 457/704/880 413/654/881
s 5
f 414/647/882 420/656/883 423/664/884 424/665/885
s 6
f 419/658/886 413/646/887 421/660/888 422/661/889
f 431/673/890 432/675/891 415/648/892 417/659/893
s 3
f 417/650/894 461/708/895 462/709/896 431/674/897
s 5
f 434/677/898 435/679/899 418/657/900 416/649/901
s 1
f 432/675/902 459/706/903 460/707/904 415/648/905
s 8
f 479/730/906 480/727/907 481/728/908 482/729/909
s 1
f 443/688/910 444/689/911 434/677/912 416/649/913
s 2
f 442/687/914 443/688/915 416/649/916 418/651/917
s 3
f 435/678/918 441/686/919 442/687/920 418/651/921
f 439/684/922 440/685/923 423/663/924 420/653/925
s 4
f 438/683/926 439/684/927 420/653/928 414/655/929
s 6
f 422/661/889 421/660/888 432/675/891 431/673/890
s 1
f 421/660/869 458/705/868 459/706/903 432/675/902
f 434/677/912 444/689/911 437/681/930 424/665/931
s 5
f 424/665/885 423/664/884 435/679/899 434/677/898
s 3
f 440/685/923 441/686/919 435/678/918 423/663/924
f 431/674/897 462/709/896 463/710/875 422/662/874
s 8
f 484/732/932 483/731/933 480/727/907 479/730/906
s 4
f 425/667/934 430/672/935 439/684/927 438/683/926
s 3
f 430/672/936 429/671/937 440/685/923 439/684/922
f 429/671/937 436/680/938 441/686/919 440/685/923
f 442/687/920 441/686/919 436/680/938 428/670/939
s 2
f 428/670/940 427/669/941 443/688/915 442/687/914
s 1
f 427/669/942 433/676/943 444/689/911 443/688/910
s off
f 454/699/944 453/700/945 455/701/946 456/702/947
s 8
f 485/733/948 486/734/949 483/731/933 484/732/932
s 1
f 478/726/950 471/718/951 426/668/952 433/676/943
f 477/725/953 478/726/950 433/676/943 427/669/942
s 2
f 476/724/954 477/725/955 427/669/941 428/670/940
s 3
f 475/723/956 476/724/957 428/670/939 436/680/938
f 474/722/958 475/723/956 436/680/938 429/671/937
f 473/721/959 474/722/958 429/671/937 430/672/936
s 4
f 472/720/960 473/721/961 430/672/935 425/667/934
s off
f 437/681/962 444/689/963 453/700/964 454/699/965
f 444/689/966 433/676/967 455/701/968 453/700/969
f 433/676/970 426/668/971 456/702/972 455/701/973
s 15
f 426/668/974 437/681/975 454/699/976 456/702/977
s 16
f 466/712/978 465/713/979 467/714/980 468/715/981
f 469/716/982 466/712/978 468/715/981 470/717/983
s 1
f 460/707/904 459/706/903 447/693/984 448/694/985
s 2
f 461/708/872 460/707/871 448/694/986 449/695/987
s 3
f 462/709/896 461/708/895 449/695/988 450/696/989
f 463/710/875 462/709/896 450/696/989 451/697/990
f 464/711/876 463/710/875 451/697/990 452/698/991
s 4
f 457/704/880 464/711/879 452/698/992 445/691/993
s 17
f 458/705/994 457/703/995 465/713/996 466/712/997
s off
f 457/703/998 445/690/999 467/714/1000 465/713/1001
s 18
f 445/690/1002 446/692/1003 468/715/1004 467/714/1005
s 17
f 459/706/1006 458/705/994 466/712/997 469/716/1007
s 18
f 446/692/1003 447/693/1008 470/717/1009 468/715/1004
s off
f 447/693/1010 459/706/1011 469/716/1012 470/717/1013
s 1
f 446/692/1014 445/690/1015 472/719/1016 471/718/951
s 4
f 445/691/993 452/698/992 473/721/961 472/720/960
s 3
f 452/698/991 451/697/990 474/722/958 473/721/959
f 451/697/990 450/696/989 475/723/956 474/722/958
f 450/696/989 449/695/988 476/724/957 475/723/956
s 2
f 449/695/987 448/694/986 477/725/955 476/724/954
s 1
f 448/694/985 447/693/984 478/726/950 477/725/953
f 447/693/984 446/692/1014 471/718/951 478/726/950
s 4
f 438/682/926 414/647/929 481/728/1017 480/727/1018
s 5
f 414/647/882 424/665/885 482/729/1019 481/728/1020
s 15
f 424/665/1021 437/681/975 479/730/1022 482/729/1023
s 4
f 425/666/934 438/682/926 480/727/1018 483/731/1024
s 15
f 437/681/975 426/668/974 484/732/1025 479/730/1022
s off
f 471/718/1026 472/719/1027 486/734/1028 485/733/1029
s 4
f 472/719/960 425/666/934 483/731/1024 486/734/1030
s 15
f 426/668/974 471/718/1031 485/733/1032 484/732/1025
g default
v -1714.994359 2925.053324 2050.140187
v -1696.954037 2925.053324 2068.180493
v -1714.994359 2997.221772 2050.140187
v -1696.954037 2997.221772 2068.180493
v -1642.825894 2925.053324 2050.140187
v -1660.866234 2925.053324 2068.180493
v -1642.825894 2997.221772 2050.140187
v -1660.866234 2997.221772 2068.180493
v -1714.994359 2997.221772 2014.052350
v -1696.954037 2997.221772 1996.012045
v -1714.994359 2925.053324 2014.052350
v -1696.954037 2925.053324 1996.012045
v -1660.866234 2997.221772 1996.012045
v -1642.825894 2997.221772 2014.052350
v -1642.825894 2925.053324 2014.052350
v -1660.866234 2925.053324 1996.012045
v -1693.681743 2997.221772 2060.280479
v -1707.094362 2997.221772 2046.867893
v -1664.138511 2997.221772 2060.280479
v -1650.725857 2997.221772 2046.867893
v -1650.725857 2997.221772 2017.324644
v -1664.138511 2997.221772 2003.912042
v -1693.681743 2997.221772 2003.912042
v -1707.094362 2997.221772 2017.324644
v -1693.681743 2928.221761 2060.280393
v -1707.094362 2928.221761 2046.867790
v -1664.138511 2928.221761 2060.280393
v -1650.725857 2928.221761 2046.867790
v -1650.725857 2928.221761 2017.324558
v -1664.138511 2928.221761 2003.911956
v -1693.681743 2928.221761 2003.911956
v -1707.094362 2928.221761 2017.324558
vt 0.375000 0.312494
vt 0.625000 0.312494
vt 0.375000 0.437506
vt 0.625000 0.812494
vt 0.625000 0.937506
vt 0.562506 1.000000
vt 0.437494 1.000000
vt 0.375000 0.937506
vt 0.437494 0.250000
vt 0.562506 0.000000
vt 0.187494 0.250000
vt 0.187494 0.000000
vt 0.312506 0.000000
vt 0.437494 0.750000
vt 0.562506 0.500000
vt 0.687494 0.250000
vt 0.812506 0.000000
vt 0.812506 0.250000
vt 0.437494 0.000000
vt 0.312506 0.250000
vt 0.687494 0.000000
vt 0.562506 0.250000
vt 0.437494 0.500000
vt 0.375000 0.812494
vt 0.625000 0.437506
vt 0.562506 0.750000
vt 0.375000 0.312494
vt 0.437494 0.250000
vt 0.562506 0.250000
vt 0.625000 0.312494
vt 0.625000 0.437506
vt 0.562506 0.500000
vt 0.437494 0.500000
vt 0.375000 0.437506
vt 0.375000 0.312494
vt 0.437494 0.250000
vt 0.562506 0.250000
vt 0.625000 0.312494
vt 0.625000 0.437506
vt 0.562506 0.500000
vt 0.437494 0.500000
vt 0.375000 0.437506
vn 0.000000 0.000000 1.000000
vn 0.000000 0.000000 1.000000
vn 0.000000 0.000000 1.000000
vn 0.000000 0.000000 1.000000
vn 0.000000 0.000000 -1.000000
vn 0.000000 0.000000 -1.000000
vn 0.000000 0.000000 -1.000000
vn 0.000000 0.000000 -1.000000
vn 1.000000 0.000000 0.000000
vn 1.000000 0.000000 0.000000
vn 1.000000 0.000000 0.000000
vn 1.000000 0.000000 0.000000
vn -1.000000 0.000000 0.000000
vn -1.000000 0.000000 0.000000
vn -1.000000 0.000000 0.000000
vn -1.000000 0.000000 0.000000
vn 0.000000 1.000000 0.000000
vn 0.000000 1.000000 0.000000
vn 0.000000 1.000000 0.000000
vn 0.000000 1.000000 0.000000
vn 0.000000 1.000000 0.000000
vn 0.000000 1.000000 0.000000
vn 0.000000 1.000000 0.000000
vn 0.000000 1.000000 0.000000
vn 0.000000 -1.000000 0.000000
vn 0.000000 -1.000000 0.000000
vn 0.000000 -1.000000 0.000000
vn 0.000000 -1.000000 0.000000
vn 0.000000 -1.000000 0.000000
vn 0.000000 -1.000000 0.000000
vn 0.000000 -1.000000 0.000000
vn 0.000000 -1.000000 0.000000
vn -0.707106 0.000000 0.707107
vn -0.707106 0.000000 0.707107
vn -0.707106 0.000000 0.707107
vn -0.707106 0.000000 0.707107
vn 0.707106 0.000000 0.707107
vn 0.707106 0.000000 0.707107
vn 0.707106 0.000000 0.707107
vn 0.707106 0.000000 0.707107
vn -0.707106 0.000000 -0.707107
vn -0.707106 0.000000 -0.707107
vn -0.707106 0.000000 -0.707107
vn -0.707106 0.000000 -0.707107
vn 0.707106 0.000000 -0.707107
vn 0.707106 0.000000 -0.707107
vn 0.707106 0.000000 -0.707107
vn 0.707106 0.000000 -0.707107
vn 0.000000 1.000000 0.000000
vn 0.000000 1.000000 0.000000
vn 0.000000 1.000000 0.000000
vn 0.000000 1.000000 0.000000
vn 0.000000 1.000000 0.000000
vn 0.000000 1.000000 0.000000
vn 0.000000 1.000000 0.000000
vn 0.000000 1.000000 0.000000
vn 0.000000 1.000000 0.000000
vn 0.000000 1.000000 0.000000
vn 0.000000 1.000000 0.000000
vn 0.000000 1.000000 0.000000
vn 0.000000 1.000000 0.000000
vn 0.000000 1.000000 0.000000
vn 0.000000 1.000000 0.000000
vn 0.000000 1.000000 0.000000
vn 0.707106 0.000001 -0.707108
vn 0.707106 0.000001 -0.707108
vn 0.707106 0.000001 -0.707107
vn 0.707106 0.000001 -0.707108
vn 0.000000 0.000001 -1.000000
vn 0.000000 0.000001 -1.000000
vn 0.000000 0.000001 -1.000000
vn 0.000000 0.000001 -1.000000
vn -0.707105 0.000001 -0.707108
vn -0.707105 0.000001 -0.707108
vn -0.707105 0.000001 -0.707108
vn -0.707105 0.000001 -0.707108
vn -1.000000 0.000000 0.000000
vn -1.000000 0.000000 0.000000
vn -1.000000 0.000000 0.000000
vn -1.000000 0.000000 0.000000
vn -0.707105 -0.000001 0.707108
vn -0.707105 -0.000001 0.707108
vn -0.707105 -0.000001 0.707108
vn -0.707105 -0.000001 0.707108
vn 0.000000 -0.000001 1.000000
vn 0.000000 -0.000001 1.000000
vn 0.000000 -0.000001 1.000000
vn 0.000000 -0.000001 1.000000
vn 0.707106 -0.000001 0.707107
vn 0.707106 -0.000001 0.707107
vn 0.707106 -0.000001 0.707107
vn 0.707106 -0.000001 0.707107
vn 1.000000 0.000000 0.000000
vn 1.000000 0.000000 0.000000
vn 1.000000 0.000000 0.000000
vn 1.000000 0.000000 0.000000
s off
g Tiff3 pCube113
usemtl initialShadingGroup
f 490/743/1033 488/753/1034 492/744/1035 494/756/1036
f 498/748/1037 496/757/1038 499/749/1039 502/760/1040
f 493/750/1041 491/755/1042 501/751/1043 500/752/1044
f 495/745/1045 497/746/1046 487/747/1047 489/754/1048
f 512/769/1049 511/770/1050 513/771/1051 514/772/1052 515/773/1053 516/774/1054 517/775/1055 518/776/1056
f 497/758/1057 498/748/1058 502/760/1059 501/738/1060 491/739/1061 492/740/1062 488/741/1063 487/742/1064
f 487/747/1065 488/753/1066 490/743/1067 489/754/1068
f 492/744/1069 491/755/1070 493/750/1071 494/756/1072
f 495/737/1073 496/757/1074 498/748/1075 497/758/1076
f 499/749/1077 500/759/1078 501/738/1079 502/760/1080
s 1
f 489/735/1081 490/743/1082 503/762/1083 504/761/1084
f 490/743/1082 494/756/1085 505/763/1086 503/762/1083
f 494/756/1085 493/736/1087 506/764/1088 505/763/1086
f 493/736/1087 500/759/1089 507/765/1090 506/764/1088
f 500/759/1089 499/749/1091 508/766/1092 507/765/1090
f 499/749/1091 496/757/1093 509/767/1094 508/766/1092
f 496/757/1093 495/737/1095 510/768/1096 509/767/1094
f 495/737/1095 489/735/1081 504/761/1084 510/768/1096
s off
f 504/761/1097 503/762/1098 511/770/1099 512/769/1100
f 503/762/1101 505/763/1102 513/771/1103 511/770/1104
f 505/763/1105 506/764/1106 514/772/1107 513/771/1108
f 506/764/1109 507/765/1110 515/773/1111 514/772/1112
f 507/765/1113 508/766/1114 516/774/1115 515/773/1116
f 508/766/1117 509/767/1118 517/775/1119 516/774/1120
f 509/767/1121 510/768/1122 518/776/1123 517/775/1124
f 510/768/1125 504/761/1126 512/769/1127 518/776/1128
