# This file uses centimeters as units for non-parametric coordinates.

mtllib B05.mtl
g default
v 407.271698 277.361725 -66.869637
v 697.270203 277.361725 -66.869637
v 810.126587 277.361725 -66.869637
v 407.271698 277.361725 -259.041199
v 697.270203 277.361725 -259.041199
v 810.126587 277.361725 -259.041199
v 407.271698 277.361725 -451.212708
v 697.270203 277.361725 -451.212708
v 810.126587 277.361725 -451.212708
v 631.470764 277.361725 -66.869637
v 631.470764 277.361725 -259.041199
v 631.470764 277.361725 -451.212708
v 763.069763 277.361725 -66.869637
v 763.069763 277.361725 -259.041199
v 763.069763 277.361725 -451.212708
v 407.271698 249.550903 -66.869637
v 407.271698 249.550903 -259.041199
v 407.271698 249.550903 -451.212708
v 631.470825 249.550903 -451.212708
v 697.270142 249.550903 -451.212708
v 763.069763 249.550903 -451.212708
v 810.126587 249.550903 -451.212708
v 810.126587 249.550903 -259.041199
v 810.126587 249.550903 -66.869637
v 763.069763 249.550903 -66.869637
v 697.270142 249.550903 -66.869637
v 631.470825 249.550903 -66.869637
v 407.271698 24.283163 -66.869637
v 407.271698 24.283163 -259.041199
v 407.271698 24.283171 -451.212708
v 631.470825 24.283171 -451.212708
v 697.270142 24.283171 -451.212708
v 763.069763 24.283171 -451.212708
v 810.126587 24.283171 -451.212708
v 810.126587 24.283163 -259.041199
v 810.126587 24.283163 -66.869637
v 763.069763 24.283163 -66.869637
v 631.470825 24.283163 -66.869637
v 763.069763 24.283163 -83.103882
v 697.270142 24.283163 -83.103928
v 763.069763 249.550903 -83.103928
v 697.270142 249.550903 -83.103928
v 631.470825 249.550903 -83.103882
v 631.470825 24.283163 -83.103882
vt 0.375000 0.250000
vt 0.500000 0.250000
vt 0.625000 0.250000
vt 0.375000 0.375000
vt 0.500000 0.375000
vt 0.625000 0.375000
vt 0.375000 0.500000
vt 0.500000 0.500000
vt 0.625000 0.500000
vt 0.875000 0.250000
vt 0.750000 0.250000
vt 0.125000 0.250000
vt 0.250000 0.250000
vt 0.412500 0.250000
vt 0.412500 0.375000
vt 0.412500 0.500000
vt 0.587500 0.250000
vt 0.587500 0.375000
vt 0.587500 0.500000
vt 0.375000 0.225000
vt 0.250000 0.225000
vt 0.125000 0.225000
vt 0.375000 0.525000
vt 0.412500 0.525000
vt 0.500000 0.525000
vt 0.587500 0.525000
vt 0.625000 0.525000
vt 0.875000 0.225000
vt 0.750000 0.225000
vt 0.625000 0.225000
vt 0.587500 0.225000
vt 0.500000 0.225000
vt 0.412500 0.225000
vt 0.375000 0.022500
vt 0.250000 0.022500
vt 0.125000 0.022500
vt 0.375000 0.727500
vt 0.412500 0.727500
vt 0.500000 0.727500
vt 0.587500 0.727500
vt 0.625000 0.727500
vt 0.875000 0.022500
vt 0.750000 0.022500
vt 0.625000 0.022500
vt 0.587500 0.022500
vt 0.412500 0.022500
vt 0.500000 0.022500
vt 0.587500 0.022500
vt 0.587500 0.225000
vt 0.500000 0.225000
vt 0.412500 0.225000
vt 0.412500 0.022500
vn 0.000000 1.000000 0.000000
vn 0.000000 1.000000 0.000000
vn 0.000000 1.000000 0.000000
vn 0.000000 1.000000 0.000000
vn 0.000000 1.000000 0.000000
vn 0.000000 1.000000 0.000000
vn 0.000000 1.000000 0.000000
vn 0.000000 1.000000 0.000000
vn 0.000000 1.000000 0.000000
vn 0.000000 1.000000 0.000000
vn 0.000000 1.000000 0.000000
vn 0.000000 1.000000 0.000000
vn 0.000000 1.000000 0.000000
vn 0.000000 1.000000 0.000000
vn 0.000000 1.000000 0.000000
vn -1.000000 0.000000 0.000000
vn -1.000000 0.000000 0.000000
vn -1.000000 0.000000 0.000000
vn -1.000000 0.000000 0.000000
vn -1.000000 0.000000 0.000000
vn -1.000000 0.000000 0.000000
vn 0.000000 0.000000 -1.000000
vn 0.000000 0.000000 -1.000000
vn 0.000000 0.000000 -1.000000
vn 0.000000 0.000000 -1.000000
vn 0.000000 0.000000 -1.000000
vn 0.000000 0.000000 -1.000000
vn 0.000000 0.000000 -1.000000
vn 0.000000 0.000000 -1.000000
vn 0.000000 0.000000 -1.000000
vn 0.000000 0.000000 -1.000000
vn 1.000000 0.000000 0.000000
vn 1.000000 0.000000 0.000000
vn 1.000000 0.000000 0.000000
vn 1.000000 0.000000 0.000000
vn 1.000000 0.000000 0.000000
vn 1.000000 0.000000 0.000000
vn 0.000000 0.000000 1.000000
vn 0.000000 0.000000 1.000000
vn 0.000000 0.000000 1.000000
vn 0.000000 0.000000 1.000000
vn 0.000000 0.000000 1.000000
vn 0.000000 0.000000 1.000000
vn 0.000000 0.000000 1.000000
vn 0.000000 0.000000 1.000000
vn 0.000000 0.000000 1.000000
vn 0.000000 0.000000 1.000000
vn -1.000000 0.000000 0.000000
vn -1.000000 0.000000 0.000000
vn -1.000000 0.000000 0.000000
vn 0.000000 0.000000 -1.000000
vn 0.000000 0.000000 -1.000000
vn 0.000000 0.000000 -1.000000
vn 0.000000 0.000000 -1.000000
vn 0.000000 0.000000 -1.000000
vn 1.000000 0.000000 0.000000
vn 1.000000 0.000000 0.000000
vn 1.000000 0.000000 0.000000
vn 0.000000 0.000000 1.000000
vn 0.000000 0.000000 1.000000
vn 0.000000 0.000000 1.000000
vn -0.000000 0.000000 1.000000
vn -0.000000 0.000000 1.000000
vn 0.000000 0.000000 1.000000
vn 0.000001 0.000000 1.000000
vn 0.000001 0.000000 1.000000
vn 0.000000 0.000000 1.000000
vn 0.000000 0.000000 1.000000
vn -1.000000 0.000000 0.000000
vn -1.000000 0.000000 0.000000
vn -1.000000 0.000000 0.000000
vn -1.000000 0.000000 0.000000
vn 0.000000 -1.000000 0.000000
vn 0.000000 -1.000000 0.000000
vn 0.000000 -1.000000 0.000000
vn 0.000000 -1.000000 0.000000
vn 0.000000 -1.000000 0.000000
vn 0.000000 -1.000000 0.000000
vn 1.000000 0.000000 0.000000
vn 1.000000 0.000000 0.000000
vn 1.000000 0.000000 0.000000
vn 1.000000 0.000000 0.000000
s 1
g pCube7 group20 B03
usemtl blinn2SG
f 1/1/1 10/14/2 11/15/3 4/4/4
f 2/2/5 13/17/6 14/18/7 5/5/8
f 4/4/4 11/15/3 12/16/9 7/7/10
f 5/5/8 14/18/7 15/19/11 8/8/12
f 11/15/3 10/14/2 2/2/5 5/5/8
f 12/16/9 11/15/3 5/5/8 8/8/12
f 14/18/7 13/17/6 3/3/13 6/6/14
f 15/19/11 14/18/7 6/6/14 9/9/15
s 3
f 17/21/16 16/20/17 1/1/18 4/13/19
f 18/22/20 17/21/16 4/13/19 7/12/21
s 4
f 7/7/22 12/16/23 19/24/24 18/23/25
f 20/25/26 19/24/24 12/16/23 8/8/27
f 8/8/27 15/19/28 21/26/29 20/25/26
f 22/27/30 21/26/29 15/19/28 9/9/31
s 5
f 23/29/32 22/28/33 9/10/34 6/11/35
f 24/30/36 23/29/32 6/11/35 3/3/37
s 6
f 13/17/38 25/31/39 24/30/40 3/3/41
f 26/32/42 25/31/39 13/17/38 2/2/43
f 10/14/44 27/33/45 26/32/42 2/2/43
f 16/20/46 27/33/45 10/14/44 1/1/47
s 3
f 29/35/48 28/34/49 16/20/17 17/21/16
f 30/36/50 29/35/48 17/21/16 18/22/20
s 4
f 18/23/25 19/24/24 31/38/51 30/37/52
f 32/39/53 31/38/51 19/24/24 20/25/26
f 20/25/26 21/26/29 33/40/54 32/39/53
f 34/41/55 33/40/54 21/26/29 22/27/30
s 5
f 35/43/56 34/42/57 22/28/33 23/29/32
f 36/44/58 35/43/56 23/29/32 24/30/36
s 6
f 24/30/40 25/31/39 37/45/59 36/44/60
s 7
f 40/47/61 39/48/62 41/49/63 42/50/64
f 42/50/64 43/51/65 44/52/66 40/47/61
s 6
f 28/34/67 38/46/68 27/33/45 16/20/46
s off
f 37/45/69 25/31/70 41/49/71 39/48/72
s 8
f 25/31/73 26/32/74 42/50/75 41/49/76
f 26/32/74 27/33/77 43/51/78 42/50/75
s off
f 27/33/79 38/46/80 44/52/81 43/51/82
g default
v 405.936096 324.413330 -64.953094
v 811.462219 324.413330 -64.953094
v 405.936096 504.944702 -64.953094
v 608.699158 504.944702 -64.953094
v 811.462219 504.944702 -64.953094
v 405.936096 504.944702 -259.041199
v 608.699158 504.944702 -259.041199
v 811.462219 504.944702 -259.041199
v 405.936096 504.944702 -453.129333
v 608.699158 504.944702 -453.129333
v 811.462219 504.944702 -453.129333
v 405.936096 324.413330 -453.129333
v 608.699158 324.413330 -453.129333
v 811.462219 324.413330 -453.129333
v 405.936096 324.413330 -259.041199
v 811.462219 324.413330 -259.041199
v 488.447144 324.413330 -64.953094
v 488.447144 504.944702 -64.953094
v 488.447144 504.944702 -259.041199
v 488.447144 504.944702 -453.129333
v 488.447144 324.413330 -453.129333
v 553.991211 324.413330 -64.953094
v 553.991211 504.944702 -64.953094
v 553.991211 504.944702 -259.041199
v 553.991211 504.944702 -453.129333
v 553.991211 324.413330 -453.129333
v 728.951172 324.413330 -64.953094
v 728.951172 504.944702 -64.953094
v 728.951172 504.944702 -259.041199
v 728.951172 504.944702 -453.129333
v 728.951172 324.413330 -453.129333
v 663.407104 324.413330 -64.953094
v 663.407104 504.944702 -64.953094
v 663.407104 504.944702 -259.041199
v 663.407104 504.944702 -453.129333
v 663.407104 324.413330 -453.129333
v 405.936096 468.838440 -64.953094
v 405.936096 468.838440 -259.041199
v 405.936096 468.838440 -453.129333
v 488.447144 468.838440 -453.129333
v 553.991211 468.838440 -453.129333
v 608.699158 468.838440 -453.129333
v 663.407104 468.838440 -453.129333
v 728.951172 468.838440 -453.129333
v 811.462219 468.838440 -453.129333
v 811.462219 468.838440 -259.041199
v 811.462219 468.838440 -64.953094
v 728.951172 468.838440 -64.953094
v 663.407104 468.838440 -64.953094
v 608.699158 468.838440 -64.953094
v 553.991211 468.838440 -64.953094
v 488.447144 468.838440 -64.953094
v 608.699158 324.413330 -74.953094
v 663.407104 324.413330 -74.953094
v 663.407104 468.838440 -74.953094
v 608.699158 468.838440 -74.953094
v 553.991211 468.838440 -74.953094
v 553.991211 324.413330 -74.953094
vt 0.375000 0.000000
vt 0.625000 0.000000
vt 0.375000 0.250000
vt 0.500000 0.250000
vt 0.625000 0.250000
vt 0.375000 0.375000
vt 0.500000 0.375000
vt 0.625000 0.375000
vt 0.375000 0.500000
vt 0.500000 0.500000
vt 0.625000 0.500000
vt 0.375000 0.750000
vt 0.500000 0.750000
vt 0.625000 0.750000
vt 0.875000 0.000000
vt 0.750000 0.000000
vt 0.875000 0.250000
vt 0.750000 0.250000
vt 0.125000 0.000000
vt 0.250000 0.000000
vt 0.125000 0.250000
vt 0.250000 0.250000
vt 0.437500 0.000000
vt 0.437500 0.250000
vt 0.437500 0.375000
vt 0.437500 0.500000
vt 0.437500 0.750000
vt 0.456250 0.000000
vt 0.456250 0.250000
vt 0.456250 0.375000
vt 0.456250 0.500000
vt 0.456250 0.750000
vt 0.562500 0.000000
vt 0.562500 0.250000
vt 0.562500 0.375000
vt 0.562500 0.500000
vt 0.562500 0.750000
vt 0.543750 0.000000
vt 0.543750 0.250000
vt 0.543750 0.375000
vt 0.543750 0.500000
vt 0.543750 0.750000
vt 0.375000 0.200000
vt 0.250000 0.200000
vt 0.125000 0.200000
vt 0.375000 0.550000
vt 0.437500 0.550000
vt 0.456250 0.550000
vt 0.500000 0.550000
vt 0.543750 0.550000
vt 0.562500 0.550000
vt 0.625000 0.550000
vt 0.875000 0.200000
vt 0.750000 0.200000
vt 0.625000 0.200000
vt 0.562500 0.200000
vt 0.543750 0.200000
vt 0.500000 0.200000
vt 0.456250 0.200000
vt 0.437500 0.200000
vt 0.500000 0.000000
vt 0.543750 0.000000
vt 0.543750 0.200000
vt 0.500000 0.200000
vt 0.456250 0.200000
vt 0.456250 0.000000
vn 0.000000 0.000000 1.000000
vn 0.000000 0.000000 1.000000
vn 0.000000 0.000000 1.000000
vn 0.000000 0.000000 1.000000
vn 0.000000 0.000000 1.000000
vn 0.000000 0.000000 1.000000
vn 0.000000 0.000000 1.000000
vn 0.000000 0.000000 1.000000
vn 0.000000 1.000000 0.000000
vn 0.000000 1.000000 0.000000
vn 0.000000 1.000000 0.000000
vn 0.000000 1.000000 0.000000
vn 0.000000 1.000000 0.000000
vn 0.000000 1.000000 0.000000
vn 0.000000 1.000000 0.000000
vn 0.000000 1.000000 0.000000
vn 0.000000 1.000000 0.000000
vn 0.000000 1.000000 0.000000
vn 0.000000 1.000000 0.000000
vn 0.000000 1.000000 0.000000
vn 0.000000 0.000000 -1.000000
vn 0.000000 0.000000 -1.000000
vn 0.000000 0.000000 -1.000000
vn 0.000000 0.000000 -1.000000
vn 0.000000 0.000000 -1.000000
vn 0.000000 0.000000 -1.000000
vn 0.000000 0.000000 -1.000000
vn 0.000000 0.000000 -1.000000
vn 1.000000 0.000000 0.000000
vn 1.000000 0.000000 0.000000
vn 1.000000 0.000000 0.000000
vn 1.000000 0.000000 0.000000
vn 1.000000 0.000000 0.000000
vn 1.000000 0.000000 0.000000
vn -1.000000 0.000000 0.000000
vn -1.000000 0.000000 0.000000
vn -1.000000 0.000000 0.000000
vn -1.000000 0.000000 0.000000
vn -1.000000 0.000000 0.000000
vn -1.000000 0.000000 0.000000
vn 0.000000 0.000000 1.000000
vn 0.000000 0.000000 1.000000
vn 0.000000 1.000000 0.000000
vn 0.000000 1.000000 0.000000
vn 0.000000 1.000000 0.000000
vn 0.000000 0.000000 -1.000000
vn 0.000000 0.000000 -1.000000
vn 0.000000 0.000000 1.000000
vn 0.000000 0.000000 1.000000
vn 0.000000 0.000000 1.000000
vn 0.000000 0.000000 1.000000
vn 0.000000 0.000000 1.000000
vn 0.000000 0.000000 1.000000
vn 0.000000 1.000000 0.000000
vn 0.000000 1.000000 0.000000
vn 0.000000 1.000000 0.000000
vn 0.000000 1.000000 0.000000
vn 0.000000 1.000000 0.000000
vn 0.000000 1.000000 0.000000
vn 0.000000 0.000000 -1.000000
vn 0.000000 0.000000 -1.000000
vn 0.000000 0.000000 -1.000000
vn 0.000000 0.000000 -1.000000
vn 0.000000 0.000000 1.000000
vn 0.000000 0.000000 1.000000
vn -1.000000 0.000000 0.000000
vn -1.000000 0.000000 0.000000
vn -1.000000 0.000000 0.000000
vn 0.000000 0.000000 -1.000000
vn 0.000000 0.000000 -1.000000
vn 0.000000 0.000000 -1.000000
vn 0.000000 0.000000 -1.000000
vn 0.000000 0.000000 -1.000000
vn 0.000000 0.000000 -1.000000
vn 0.000000 0.000000 -1.000000
vn 1.000000 0.000000 0.000000
vn 1.000000 0.000000 0.000000
vn 1.000000 0.000000 0.000000
vn 0.000000 0.000000 1.000000
vn 0.000000 0.000000 1.000000
vn 0.000000 0.000000 1.000000
vn 0.000000 0.000000 1.000000
vn 0.000000 0.000000 1.000000
vn 0.000000 0.000000 1.000000
vn 0.000000 0.000000 1.000000
vn 0.000000 0.000000 1.000000
vn -1.000000 0.000000 0.000000
vn -1.000000 0.000000 0.000000
vn -1.000000 0.000000 0.000000
vn -1.000000 0.000000 0.000000
vn 0.000000 -1.000000 0.000000
vn 0.000000 -1.000000 0.000000
vn 0.000000 -1.000000 0.000000
vn 0.000000 -1.000000 0.000000
vn 0.000000 -1.000000 0.000000
vn 0.000000 -1.000000 0.000000
vn 1.000000 0.000000 0.000000
vn 1.000000 0.000000 0.000000
vn 1.000000 0.000000 0.000000
vn 1.000000 0.000000 0.000000
s 1
g group20 B03 pCube8
usemtl blinn2SG
f 45/53/83 61/75/84 96/112/85 81/95/86
s 2
f 97/113/87 98/114/88 99/115/89 100/116/90
s 3
f 47/55/91 62/76/92 63/77/93 50/58/94
f 48/56/95 77/91/96 78/92/97 51/59/98
f 50/58/94 63/77/93 64/78/99 53/61/100
f 51/59/98 78/92/97 79/93/101 54/62/102
s 5
f 83/98/103 84/99/104 65/79/105 56/64/106
f 86/101/107 87/102/108 80/94/109 57/65/110
s 7
f 60/68/111 58/67/112 89/105/113 90/106/114
f 46/54/115 60/68/111 90/106/114 91/107/116
s 8
f 56/71/117 59/72/118 82/96/119 83/97/120
f 59/72/118 45/53/121 81/95/122 82/96/119
s 1
f 95/111/123 96/112/85 61/75/84 66/80/124
s 3
f 63/77/93 62/76/92 67/81/125 68/82/126
f 64/78/99 63/77/93 68/82/126 69/83/127
s 5
f 65/79/105 84/99/104 85/100/128 70/84/129
s 2
f 100/116/90 101/117/130 102/118/131 97/113/87
s 3
f 68/82/126 67/81/125 48/56/95 51/59/98
f 69/83/127 68/82/126 51/59/98 54/62/102
s 5
f 70/84/129 85/100/128 86/101/107 57/65/110
s 1
f 91/107/132 92/108/133 71/85/134 46/54/135
s 3
f 73/87/136 72/86/137 49/57/138 52/60/139
f 74/88/140 73/87/136 52/60/139 55/63/141
s 5
f 75/89/142 88/103/143 89/104/144 58/66/145
s 1
f 92/108/133 93/109/146 76/90/147 71/85/134
s 3
f 78/92/97 77/91/96 72/86/137 73/87/136
f 79/93/101 78/92/97 73/87/136 74/88/140
s 5
f 80/94/109 87/102/108 88/103/143 75/89/142
s 8
f 82/96/119 81/95/122 47/55/148 50/74/149
f 83/97/120 82/96/119 50/74/149 53/73/150
s 5
f 53/61/151 64/78/152 84/99/104 83/98/103
f 85/100/128 84/99/104 64/78/152 69/83/153
f 86/101/107 85/100/128 69/83/153 54/62/154
f 54/62/154 79/93/155 87/102/108 86/101/107
f 88/103/143 87/102/108 79/93/155 74/88/156
f 89/104/144 88/103/143 74/88/156 55/63/157
s 7
f 90/106/114 89/105/113 55/69/158 52/70/159
f 91/107/116 90/106/114 52/70/159 49/57/160
s 1
f 72/86/161 92/108/133 91/107/132 49/57/162
f 77/91/163 93/109/146 92/108/133 72/86/161
f 94/110/164 93/109/146 77/91/163 48/56/165
f 67/81/166 95/111/123 94/110/164 48/56/165
f 62/76/167 96/112/85 95/111/123 67/81/166
f 81/95/86 96/112/85 62/76/167 47/55/168
s off
f 76/90/169 93/109/170 99/115/171 98/114/172
s 10
f 93/109/173 94/110/174 100/116/175 99/115/176
f 94/110/174 95/111/177 101/117/178 100/116/175
s off
f 95/111/179 66/80/180 102/118/181 101/117/182
g default
v 398.893951 456.238617 -52.464996
v 608.699158 504.944641 -52.464996
v 818.504333 456.238617 -52.464996
v 398.893951 585.365967 -52.464996
v 608.699158 585.365967 -52.464996
v 818.504333 585.365967 -52.464996
v 398.893951 585.365967 -259.041199
v 608.699158 585.365967 -259.041199
v 818.504333 585.365967 -259.041199
v 398.893951 585.365967 -465.617371
v 608.699158 585.365967 -465.617371
v 818.504333 585.365967 -465.617371
v 398.893951 456.238617 -465.617371
v 608.699158 456.238617 -465.617371
v 818.504333 456.238617 -465.617371
v 398.893951 456.238617 -259.041199
v 608.699158 456.238617 -259.041199
v 818.504333 456.238617 -259.041199
v 503.796539 456.238617 -52.464996
v 503.796539 585.365967 -52.464996
v 503.796539 585.365967 -259.041199
v 503.796539 585.365967 -465.617371
v 503.796539 456.238617 -465.617371
v 503.796539 456.238617 -259.041199
v 713.601746 456.238617 -52.464996
v 713.601746 585.365967 -52.464996
v 713.601746 585.365967 -259.041199
v 713.601746 585.365967 -465.617371
v 713.601746 456.238617 -465.617371
v 713.601746 456.238617 -259.041199
v 535.267334 504.944641 -52.464996
v 535.267334 585.365967 -52.464996
v 535.267334 585.365967 -259.041199
v 535.267334 585.365967 -465.617371
v 535.267334 456.238617 -465.617371
v 535.267334 456.238617 -259.041199
v 682.130981 504.944641 -52.464996
v 682.130981 585.365967 -52.464996
v 682.130981 585.365967 -259.041199
v 682.130981 585.365967 -465.617371
v 682.130981 456.238617 -465.617371
v 682.130981 456.238617 -259.041199
v 398.893951 585.365967 -155.753098
v 398.893951 456.238617 -155.753098
v 503.796539 456.238617 -155.753098
v 535.267334 504.944641 -155.753098
v 608.699158 504.944641 -155.753098
v 682.130981 504.944641 -155.753098
v 713.601746 456.238617 -155.753098
v 818.504333 456.238617 -155.753098
v 818.504333 585.365967 -155.753098
v 713.601746 585.365967 -155.753098
v 682.130981 585.365967 -155.753098
v 608.699158 585.365967 -155.753098
v 535.267334 585.365967 -155.753098
v 503.796539 585.365967 -155.753098
vt 0.375000 0.000000
vt 0.500000 0.000000
vt 0.625000 0.000000
vt 0.375000 0.250000
vt 0.500000 0.250000
vt 0.625000 0.250000
vt 0.375000 0.375000
vt 0.500000 0.375000
vt 0.625000 0.375000
vt 0.375000 0.500000
vt 0.500000 0.500000
vt 0.625000 0.500000
vt 0.375000 0.750000
vt 0.500000 0.750000
vt 0.625000 0.750000
vt 0.375000 0.875000
vt 0.500000 0.875000
vt 0.625000 0.875000
vt 0.375000 1.000000
vt 0.500000 1.000000
vt 0.625000 1.000000
vt 0.875000 0.000000
vt 0.750000 0.000000
vt 0.875000 0.250000
vt 0.750000 0.250000
vt 0.125000 0.000000
vt 0.250000 0.000000
vt 0.125000 0.250000
vt 0.250000 0.250000
vt 0.437500 0.000000
vt 0.437500 1.000000
vt 0.437500 0.250000
vt 0.437500 0.375000
vt 0.437500 0.500000
vt 0.437500 0.750000
vt 0.437500 0.875000
vt 0.562500 0.000000
vt 0.562500 1.000000
vt 0.562500 0.250000
vt 0.562500 0.375000
vt 0.562500 0.500000
vt 0.562500 0.750000
vt 0.562500 0.875000
vt 0.456250 0.000000
vt 0.456250 1.000000
vt 0.456250 0.250000
vt 0.456250 0.375000
vt 0.456250 0.500000
vt 0.456250 0.750000
vt 0.456250 0.875000
vt 0.543750 0.000000
vt 0.543750 1.000000
vt 0.543750 0.250000
vt 0.543750 0.375000
vt 0.543750 0.500000
vt 0.543750 0.750000
vt 0.543750 0.875000
vt 0.312500 0.250000
vt 0.375000 0.312500
vt 0.312500 0.000000
vt 0.375000 0.937500
vt 0.437500 0.937500
vt 0.456250 0.937500
vt 0.500000 0.937500
vt 0.543750 0.937500
vt 0.562500 0.937500
vt 0.625000 0.937500
vt 0.687500 0.000000
vt 0.625000 0.312500
vt 0.687500 0.250000
vt 0.562500 0.312500
vt 0.543750 0.312500
vt 0.500000 0.312500
vt 0.456250 0.312500
vt 0.437500 0.312500
vn 0.000000 0.000000 1.000000
vn 0.000000 0.000000 1.000000
vn 0.000000 0.000000 1.000000
vn 0.000000 0.000000 1.000000
vn 0.000000 0.000000 1.000000
vn 0.000000 0.000000 1.000000
vn 0.000000 0.000000 1.000000
vn 0.000000 0.000000 1.000000
vn 0.000000 1.000000 0.000000
vn 0.000000 1.000000 0.000000
vn 0.000000 1.000000 0.000000
vn 0.000000 1.000000 0.000000
vn 0.000000 1.000000 0.000000
vn 0.000000 1.000000 0.000000
vn 0.000000 1.000000 0.000000
vn 0.000000 1.000000 0.000000
vn 0.000000 1.000000 0.000000
vn 0.000000 1.000000 0.000000
vn 0.000000 1.000000 0.000000
vn 0.000000 1.000000 0.000000
vn 0.000000 1.000000 0.000000
vn 0.000000 1.000000 0.000000
vn 0.000000 1.000000 0.000000
vn 0.000000 1.000000 0.000000
vn 0.000000 0.000000 -1.000000
vn 0.000000 0.000000 -1.000000
vn 0.000000 0.000000 -1.000000
vn 0.000000 0.000000 -1.000000
vn 0.000000 0.000000 -1.000000
vn 0.000000 0.000000 -1.000000
vn 0.000000 0.000000 -1.000000
vn 0.000000 0.000000 -1.000000
vn 0.000000 -1.000000 0.000000
vn 0.000000 -1.000000 0.000000
vn 0.059410 -0.998070 0.018102
vn 0.000000 -1.000000 0.000000
vn 0.000000 -1.000000 0.000000
vn 0.000000 -1.000000 0.000000
vn -0.076477 -0.988289 0.132043
vn 0.000000 -0.987871 0.155279
vn 0.000000 -1.000000 0.000000
vn 0.258653 -0.965613 0.026270
vn 0.336344 -0.941739 0.000000
vn 0.000000 -1.000000 0.000000
vn 0.000000 -0.973312 0.229485
vn -0.310276 -0.932341 0.185656
vn -0.421120 -0.907005 0.000000
vn 0.000000 -1.000000 0.000000
vn 1.000000 0.000000 0.000000
vn 1.000000 0.000000 0.000000
vn 1.000000 0.000000 0.000000
vn 1.000000 0.000000 0.000000
vn 1.000000 0.000000 0.000000
vn 1.000000 0.000000 0.000000
vn 1.000000 0.000000 0.000000
vn 1.000000 0.000000 0.000000
vn -1.000000 0.000000 0.000000
vn -1.000000 0.000000 0.000000
vn -1.000000 0.000000 0.000000
vn -1.000000 0.000000 0.000000
vn -1.000000 0.000000 0.000000
vn -1.000000 0.000000 0.000000
vn -1.000000 0.000000 0.000000
vn -1.000000 0.000000 0.000000
vn 0.000000 0.000000 1.000000
vn 0.000000 0.000000 1.000000
vn 0.000000 1.000000 0.000000
vn 0.000000 1.000000 0.000000
vn 0.000000 1.000000 0.000000
vn 0.000000 1.000000 0.000000
vn 0.000000 0.000000 -1.000000
vn 0.000000 0.000000 -1.000000
vn 0.000000 -1.000000 0.000000
vn 0.076477 -0.988289 0.132043
vn 0.310276 -0.932341 0.185656
vn 0.421120 -0.907005 0.000000
vn 0.000000 0.000000 1.000000
vn 0.000000 0.000000 1.000000
vn 0.000000 0.000000 1.000000
vn 0.000000 0.000000 1.000000
vn 0.000000 1.000000 0.000000
vn 0.000000 1.000000 0.000000
vn 0.000000 1.000000 0.000000
vn 0.000000 1.000000 0.000000
vn 0.000000 1.000000 0.000000
vn 0.000000 1.000000 0.000000
vn 0.000000 1.000000 0.000000
vn 0.000000 1.000000 0.000000
vn 0.000000 0.000000 -1.000000
vn 0.000000 0.000000 -1.000000
vn 0.000000 0.000000 -1.000000
vn 0.000000 0.000000 -1.000000
vn -0.059410 -0.998070 0.018102
vn 0.000000 -1.000000 0.000000
vn 0.000000 -1.000000 0.000000
vn 0.000000 -1.000000 0.000000
vn -0.336344 -0.941739 0.000000
vn -0.258653 -0.965613 0.026270
vn 0.000000 -1.000000 0.000000
vn 0.000000 -1.000000 0.000000
s 1
g group20 B03 pCube9
usemtl blinn2SG
f 103/119/183 121/148/184 122/150/185 106/122/186
f 104/120/187 139/169/188 140/171/189 107/123/190
s 3
f 106/122/191 122/150/192 158/193/193 145/177/194
f 107/123/195 140/171/196 155/190/197 156/191/198
f 109/125/199 123/151/200 124/152/201 112/128/202
f 110/126/203 141/172/204 142/173/205 113/129/206
s 5
f 112/128/207 124/152/208 125/153/209 115/131/210
f 113/129/211 142/173/212 143/174/213 116/132/214
s 7
f 115/131/215 125/153/216 126/154/217 118/134/218
f 116/132/219 143/174/220 144/175/221 119/135/222
f 146/179/223 147/180/224 121/149/225 103/137/226
f 149/182/227 150/183/228 139/170/229 104/138/230
s 9
f 120/141/231 117/140/232 114/142/233 111/143/234
f 105/121/235 152/186/236 153/188/237 108/124/238
s 10
f 115/144/239 118/145/240 109/147/241 112/146/242
f 145/176/243 146/178/244 103/119/245 106/122/246
s 1
f 122/150/185 121/148/184 133/162/247 134/164/248
s 3
f 157/192/249 158/193/193 122/150/192 134/164/250
f 124/152/201 123/151/200 135/165/251 136/166/252
s 5
f 125/153/209 124/152/208 136/166/253 137/167/254
s 7
f 126/154/217 125/153/216 137/167/255 138/168/256
f 121/149/225 147/180/224 148/181/257 133/163/258
s 1
f 128/157/259 127/155/260 105/121/261 108/124/262
s 3
f 153/187/263 154/189/264 128/157/265 108/124/266
f 130/159/267 129/158/268 111/127/269 114/130/270
s 5
f 131/160/271 130/159/272 114/130/273 117/133/274
s 7
f 132/161/275 131/160/276 117/133/277 120/136/278
f 127/156/279 151/184/280 152/185/281 105/139/282
s 1
f 134/164/248 133/162/247 104/120/187 107/123/190
s 3
f 156/191/198 157/192/249 134/164/250 107/123/195
f 136/166/252 135/165/251 110/126/203 113/129/206
s 5
f 137/167/254 136/166/253 113/129/211 116/132/214
s 7
f 138/168/256 137/167/255 116/132/219 119/135/222
f 133/163/258 148/181/257 149/182/227 104/138/230
s 1
f 140/171/189 139/169/188 127/155/260 128/157/259
s 3
f 154/189/264 155/190/197 140/171/196 128/157/265
f 142/173/205 141/172/204 129/158/268 130/159/267
s 5
f 143/174/213 142/173/212 130/159/272 131/160/271
s 7
f 144/175/221 143/174/220 131/160/276 132/161/275
f 139/170/229 150/183/228 151/184/280 127/156/279
s 10
f 118/145/240 146/178/244 145/176/243 109/147/241
s 7
f 118/134/218 126/154/217 147/180/224 146/179/223
f 148/181/257 147/180/224 126/154/217 138/168/256
f 149/182/227 148/181/257 138/168/256 119/135/222
f 119/135/222 144/175/221 150/183/228 149/182/227
f 151/184/280 150/183/228 144/175/221 132/161/275
f 152/185/281 151/184/280 132/161/275 120/136/278
s 9
f 153/188/237 152/186/236 120/141/231 111/143/234
s 3
f 129/158/268 154/189/264 153/187/263 111/127/269
f 141/172/204 155/190/197 154/189/264 129/158/268
f 156/191/198 155/190/197 141/172/204 110/126/203
f 135/165/251 157/192/249 156/191/198 110/126/203
f 123/151/200 158/193/193 157/192/249 135/165/251
f 145/177/194 158/193/193 123/151/200 109/125/199
g default
v 385.840729 587.410889 -45.659832
v 608.699158 587.410950 -45.659832
v 831.557556 587.410889 -45.659832
v 415.939880 634.412781 -108.861145
v 608.699158 634.412781 -108.861145
v 801.458435 634.412781 -108.861145
v 415.939880 634.412781 -259.041199
v 608.699158 634.412781 -259.041199
v 801.458435 634.412781 -259.041199
v 415.939880 634.412781 -409.221222
v 608.699158 634.412781 -409.221222
v 801.458435 634.412781 -409.221222
v 385.840729 587.410889 -472.422546
v 608.699158 587.410889 -472.422546
v 831.557556 587.410889 -472.422546
v 385.840729 587.410889 -259.041199
v 608.699158 587.410889 -259.041199
v 831.557556 587.410889 -259.041199
vt 0.375000 0.000000
vt 0.500000 0.000000
vt 0.625000 0.000000
vt 0.375000 0.250000
vt 0.500000 0.250000
vt 0.625000 0.250000
vt 0.375000 0.375000
vt 0.500000 0.375000
vt 0.625000 0.375000
vt 0.375000 0.500000
vt 0.500000 0.500000
vt 0.625000 0.500000
vt 0.375000 0.750000
vt 0.500000 0.750000
vt 0.625000 0.750000
vt 0.375000 0.875000
vt 0.500000 0.875000
vt 0.625000 0.875000
vt 0.375000 1.000000
vt 0.500000 1.000000
vt 0.625000 1.000000
vt 0.875000 0.000000
vt 0.750000 0.000000
vt 0.875000 0.250000
vt 0.750000 0.250000
vt 0.125000 0.000000
vt 0.250000 0.000000
vt 0.125000 0.250000
vt 0.250000 0.250000
vn -0.000000 0.802426 0.596752
vn -0.000000 0.802426 0.596752
vn 0.000000 0.802426 0.596752
vn 0.000000 0.802426 0.596752
vn 0.000000 0.802426 0.596752
vn 0.000000 0.802426 0.596752
vn 0.000000 1.000000 0.000000
vn 0.000000 1.000000 0.000000
vn 0.000000 1.000000 0.000000
vn 0.000000 1.000000 0.000000
vn 0.000000 1.000000 0.000000
vn 0.000000 1.000000 0.000000
vn 0.000000 1.000000 0.000000
vn 0.000000 1.000000 0.000000
vn 0.000000 1.000000 0.000000
vn 0.000000 0.802426 -0.596752
vn 0.000000 0.802426 -0.596752
vn 0.000000 0.802426 -0.596752
vn 0.000000 0.802426 -0.596752
vn 0.000000 0.802426 -0.596752
vn 0.000000 0.802426 -0.596752
vn 0.000000 -1.000000 0.000000
vn 0.000000 -1.000000 0.000000
vn 0.000000 -1.000000 0.000000
vn 0.000000 -1.000000 0.000000
vn -0.000000 -1.000000 0.000000
vn 0.000000 -1.000000 0.000000
vn 0.000000 -1.000000 0.000000
vn 0.000000 -1.000000 0.000000
vn -0.000000 -1.000000 0.000000
vn 0.842126 0.539281 0.000000
vn 0.842126 0.539281 0.000000
vn 0.842126 0.539281 0.000000
vn 0.842126 0.539281 0.000000
vn 0.842126 0.539281 0.000000
vn 0.842126 0.539281 0.000000
vn -0.842125 0.539282 0.000000
vn -0.842125 0.539282 0.000000
vn -0.842125 0.539282 0.000000
vn -0.842125 0.539282 0.000000
vn -0.842125 0.539282 0.000000
vn -0.842125 0.539282 0.000000
s 1
g group20 B03 pCube10
usemtl blinn2SG
f 162/197/283 159/194/284 160/195/285 163/198/286
f 164/199/287 163/198/286 160/195/285 161/196/288
s 2
f 165/200/289 162/197/290 163/198/291 166/201/292
f 166/201/292 163/198/291 164/199/293 167/202/294
f 168/203/295 165/200/289 166/201/292 169/204/296
f 169/204/296 166/201/292 167/202/294 170/205/297
s 3
f 171/206/298 168/203/299 169/204/300 172/207/301
f 173/208/302 172/207/301 169/204/300 170/205/303
s 4
f 174/209/304 171/206/305 172/207/306 175/210/307
f 176/211/308 175/210/307 172/207/306 173/208/309
f 159/212/310 174/209/304 175/210/307 160/213/311
f 161/214/312 160/213/311 175/210/307 176/211/308
s 5
f 176/216/313 173/215/314 170/217/315 167/218/316
f 161/196/317 176/216/313 167/218/316 164/199/318
s 6
f 168/221/319 171/219/320 174/220/321 165/222/322
f 174/220/321 159/194/323 162/197/324 165/222/322
g default
v 415.939880 634.412720 -108.861137
v 608.699158 634.412720 -108.861137
v 801.458435 634.412720 -108.861137
v 437.354767 897.645813 -246.666565
v 608.699158 897.645813 -246.666565
v 780.043518 897.645813 -246.666565
v 437.354767 897.645813 -259.041199
v 608.699158 897.645813 -259.041199
v 780.043518 897.645813 -259.041199
v 437.354767 897.645813 -271.415802
v 608.699158 897.645813 -271.415802
v 780.043518 897.645813 -271.415802
v 415.939880 634.412720 -409.221191
v 608.699158 634.412720 -409.221191
v 801.458435 634.412720 -409.221191
v 415.939880 634.412720 -259.041199
v 608.698975 634.412720 -259.041168
v 801.458435 634.412720 -259.041199
vt 0.375000 0.000000
vt 0.500000 0.000000
vt 0.625000 0.000000
vt 0.375000 0.250000
vt 0.500000 0.250000
vt 0.625000 0.250000
vt 0.375000 0.375000
vt 0.500000 0.375000
vt 0.625000 0.375000
vt 0.375000 0.500000
vt 0.500000 0.500000
vt 0.625000 0.500000
vt 0.375000 0.750000
vt 0.500000 0.750000
vt 0.625000 0.750000
vt 0.375000 0.875000
vt 0.500000 0.875000
vt 0.625000 0.875000
vt 0.375000 1.000000
vt 0.500000 1.000000
vt 0.625000 1.000000
vt 0.875000 0.000000
vt 0.750000 0.000000
vt 0.875000 0.250000
vt 0.750000 0.250000
vt 0.125000 0.000000
vt 0.250000 0.000000
vt 0.125000 0.250000
vt 0.250000 0.250000
vn 0.000000 0.463800 0.885940
vn 0.000000 0.463799 0.885940
vn 0.000000 0.463799 0.885940
vn 0.000000 0.463799 0.885940
vn 0.000000 0.463799 0.885940
vn 0.000000 0.463799 0.885940
vn 0.000000 1.000000 0.000000
vn 0.000000 1.000000 0.000000
vn 0.000000 1.000000 0.000000
vn 0.000000 1.000000 0.000000
vn 0.000000 1.000000 0.000000
vn 0.000000 1.000000 0.000000
vn 0.000000 1.000000 0.000000
vn 0.000000 1.000000 0.000000
vn 0.000000 1.000000 0.000000
vn 0.000000 0.463799 -0.885940
vn 0.000000 0.463799 -0.885940
vn 0.000000 0.463799 -0.885940
vn 0.000000 0.463799 -0.885940
vn 0.000000 0.463799 -0.885940
vn 0.000000 0.463799 -0.885940
vn 0.000000 -1.000000 0.000000
vn 0.000000 -1.000000 0.000000
vn 0.000000 -1.000000 -0.000000
vn 0.000000 -1.000000 0.000000
vn 0.000000 -1.000000 0.000000
vn 0.000000 -1.000000 0.000000
vn 0.000000 -1.000000 -0.000000
vn 0.000000 -1.000000 0.000000
vn 0.000000 -1.000000 -0.000000
vn 0.996707 0.081085 0.000000
vn 0.996707 0.081085 0.000000
vn 0.996707 0.081085 0.000000
vn 0.996707 0.081085 0.000000
vn 0.996707 0.081086 0.000000
vn 0.996707 0.081086 0.000000
vn -0.996707 0.081085 0.000000
vn -0.996707 0.081085 0.000000
vn -0.996707 0.081085 0.000000
vn -0.996707 0.081085 0.000000
vn -0.996707 0.081085 0.000000
vn -0.996707 0.081085 0.000000
s 1
g group20 B03 pCube11
usemtl blinn2SG
f 177/223/325 178/224/326 181/227/327 180/226/328
f 178/224/326 179/225/329 182/228/330 181/227/327
s 2
f 180/226/331 181/227/332 184/230/333 183/229/334
f 181/227/332 182/228/335 185/231/336 184/230/333
f 183/229/334 184/230/333 187/233/337 186/232/338
f 184/230/333 185/231/336 188/234/339 187/233/337
s 3
f 186/232/340 187/233/341 190/236/342 189/235/343
f 187/233/341 188/234/344 191/237/345 190/236/342
s 4
f 189/235/346 190/236/347 193/239/348 192/238/349
f 190/236/347 191/237/350 194/240/351 193/239/348
f 192/238/349 193/239/348 178/242/352 177/241/353
f 193/239/348 194/240/351 179/243/354 178/242/352
s 5
f 194/245/355 191/244/356 188/246/357 185/247/358
f 179/225/359 194/245/355 185/247/358 182/228/360
s 6
f 189/248/361 192/249/362 183/251/363 186/250/364
f 192/249/362 177/223/365 180/226/366 183/251/363
g default
v 399.765869 277.361755 -56.537567
v 608.699158 277.361755 -56.537567
v 817.632507 277.361755 -56.537567
v 399.765869 324.413361 -56.537567
v 608.699158 324.413361 -56.537567
v 817.632507 324.413361 -56.537567
v 399.765869 324.413361 -259.041199
v 608.699158 324.413361 -259.041199
v 817.632507 324.413361 -259.041199
v 399.765869 324.413361 -461.544800
v 608.699158 324.413361 -461.544800
v 817.632507 324.413361 -461.544800
v 399.765869 277.361755 -461.544800
v 608.699158 277.361755 -461.544800
v 817.632507 277.361755 -461.544800
v 399.765869 277.361755 -259.041199
v 608.699158 277.361755 -259.041199
v 817.632507 277.361755 -259.041199
v 399.765869 310.297882 -56.537567
v 399.765869 310.297882 -259.041199
v 399.765869 310.297882 -461.544800
v 608.699158 310.297882 -461.544800
v 817.632507 310.297882 -461.544800
v 817.632507 310.297882 -259.041199
v 817.632507 310.297882 -56.537567
v 608.699158 310.297882 -56.537567
v 504.232513 277.361755 -56.537567
v 504.232513 310.297882 -56.537567
v 504.232513 324.413361 -56.537567
v 504.232513 324.413361 -259.041199
v 504.232513 324.413361 -461.544800
v 504.232513 310.297882 -461.544800
v 504.232513 277.361755 -461.544800
v 504.232513 277.361755 -259.041199
v 713.165894 277.361755 -56.537567
v 713.165894 310.297882 -56.537567
v 713.165894 324.413361 -56.537567
v 713.165894 324.413361 -259.041199
v 713.165894 324.413361 -461.544800
v 713.165894 310.297882 -461.544800
v 713.165894 277.361755 -461.544800
v 713.165894 277.361755 -259.041199
v 713.165894 310.297882 50.412415
v 608.699158 310.297882 50.412415
v 713.165894 324.413361 50.412415
v 608.699158 324.413361 50.412415
v 504.232513 310.297882 50.412415
v 504.232513 324.413361 50.412415
vt 0.375000 0.000000
vt 0.500000 0.000000
vt 0.625000 0.000000
vt 0.375000 0.250000
vt 0.500000 0.250000
vt 0.625000 0.250000
vt 0.375000 0.375000
vt 0.500000 0.375000
vt 0.625000 0.375000
vt 0.375000 0.500000
vt 0.500000 0.500000
vt 0.625000 0.500000
vt 0.375000 0.750000
vt 0.500000 0.750000
vt 0.625000 0.750000
vt 0.375000 0.875000
vt 0.500000 0.875000
vt 0.625000 0.875000
vt 0.375000 1.000000
vt 0.500000 1.000000
vt 0.625000 1.000000
vt 0.875000 0.000000
vt 0.750000 0.000000
vt 0.875000 0.250000
vt 0.750000 0.250000
vt 0.125000 0.000000
vt 0.250000 0.000000
vt 0.125000 0.250000
vt 0.250000 0.250000
vt 0.375000 0.175000
vt 0.250000 0.175000
vt 0.125000 0.175000
vt 0.375000 0.575000
vt 0.500000 0.575000
vt 0.625000 0.575000
vt 0.875000 0.175000
vt 0.750000 0.175000
vt 0.625000 0.175000
vt 0.500000 0.175000
vt 0.437500 0.000000
vt 0.437500 1.000000
vt 0.437500 0.175000
vt 0.437500 0.250000
vt 0.437500 0.375000
vt 0.437500 0.500000
vt 0.437500 0.575000
vt 0.437500 0.750000
vt 0.437500 0.875000
vt 0.562500 0.000000
vt 0.562500 1.000000
vt 0.562500 0.175000
vt 0.562500 0.250000
vt 0.562500 0.375000
vt 0.562500 0.500000
vt 0.562500 0.575000
vt 0.562500 0.750000
vt 0.562500 0.875000
vt 0.500000 0.175000
vt 0.562500 0.175000
vt 0.562500 0.250000
vt 0.500000 0.250000
vt 0.437500 0.250000
vt 0.437500 0.175000
vn 0.000000 0.000000 1.000000
vn 0.000000 0.000000 1.000000
vn 0.000000 0.000000 1.000000
vn 0.000000 0.000000 1.000000
vn 0.000000 0.000000 1.000000
vn 0.000000 0.000000 1.000000
vn 0.000000 0.000000 1.000000
vn 0.000000 0.000000 1.000000
vn 0.000000 1.000000 0.000000
vn 0.000000 1.000000 0.000000
vn 0.000000 1.000000 0.000000
vn 0.000000 1.000000 0.000000
vn 0.000000 1.000000 0.000000
vn 0.000000 1.000000 0.000000
vn 0.000000 1.000000 0.000000
vn 0.000000 1.000000 0.000000
vn 0.000000 1.000000 0.000000
vn 0.000000 1.000000 0.000000
vn 0.000000 1.000000 0.000000
vn 0.000000 1.000000 0.000000
vn 0.000000 0.000000 -1.000000
vn 0.000000 0.000000 -1.000000
vn 0.000000 0.000000 -1.000000
vn 0.000000 0.000000 -1.000000
vn 0.000000 0.000000 -1.000000
vn 0.000000 0.000000 -1.000000
vn 0.000000 0.000000 -1.000000
vn 0.000000 0.000000 -1.000000
vn 0.000000 -1.000000 0.000000
vn 0.000000 -1.000000 0.000000
vn 0.000000 -1.000000 0.000000
vn 0.000000 -1.000000 0.000000
vn 0.000000 -1.000000 0.000000
vn 0.000000 -1.000000 0.000000
vn 0.000000 -1.000000 0.000000
vn 0.000000 -1.000000 0.000000
vn 0.000000 -1.000000 0.000000
vn 0.000000 -1.000000 0.000000
vn 0.000000 -1.000000 0.000000
vn 0.000000 -1.000000 0.000000
vn 1.000000 0.000000 0.000000
vn 1.000000 0.000000 0.000000
vn 1.000000 0.000000 0.000000
vn 1.000000 0.000000 0.000000
vn 1.000000 0.000000 0.000000
vn 1.000000 0.000000 0.000000
vn -1.000000 0.000000 0.000000
vn -1.000000 0.000000 0.000000
vn -1.000000 0.000000 0.000000
vn -1.000000 0.000000 0.000000
vn -1.000000 0.000000 0.000000
vn -1.000000 0.000000 0.000000
vn -1.000000 0.000000 0.000000
vn -1.000000 0.000000 0.000000
vn -1.000000 0.000000 0.000000
vn 0.000000 0.000000 -1.000000
vn 0.000000 0.000000 -1.000000
vn 0.000000 0.000000 -1.000000
vn 0.000000 0.000000 -1.000000
vn 1.000000 0.000000 0.000000
vn 1.000000 0.000000 0.000000
vn 1.000000 0.000000 0.000000
vn 0.000000 0.000000 1.000000
vn 0.000000 0.000000 1.000000
vn 0.000000 0.000000 1.000000
vn 0.000000 0.000000 1.000000
vn 0.000000 0.000000 1.000000
vn 0.000000 0.000000 1.000000
vn 0.000000 0.000000 1.000000
vn 0.000000 0.000000 1.000000
vn 0.000000 0.000000 1.000000
vn 0.000000 0.000000 1.000000
vn 0.000000 0.000000 1.000000
vn 0.000000 0.000000 1.000000
vn 0.000000 1.000000 0.000000
vn 0.000000 1.000000 0.000000
vn 0.000000 1.000000 0.000000
vn 0.000000 0.000000 -1.000000
vn 0.000000 0.000000 -1.000000
vn 0.000000 0.000000 -1.000000
vn 0.000000 -1.000000 0.000000
vn 0.000000 -1.000000 0.000000
vn 0.000000 -1.000000 0.000000
vn 0.000000 -1.000000 0.000000
vn 0.000000 -1.000000 0.000000
vn 0.000000 -1.000000 0.000000
vn 0.000000 -1.000000 0.000000
vn 1.000000 0.000000 0.000000
vn 1.000000 0.000000 0.000000
vn 1.000000 0.000000 0.000000
vn 1.000000 0.000000 0.000000
vn 0.000000 1.000000 0.000000
vn 0.000000 1.000000 0.000000
vn 0.000000 1.000000 0.000000
vn 0.000000 1.000000 0.000000
vn -1.000000 0.000000 0.000000
vn -1.000000 0.000000 0.000000
vn -1.000000 0.000000 0.000000
vn -1.000000 0.000000 0.000000
vn 0.000000 -1.000000 0.000000
vn 0.000000 -1.000000 0.000000
vn 0.000000 -1.000000 0.000000
vn 0.000000 -1.000000 0.000000
vn 0.000000 1.000000 0.000000
vn 0.000000 1.000000 0.000000
vn 0.000000 1.000000 0.000000
vn 0.000000 1.000000 0.000000
s 1
g group20 B03 pCube16
usemtl blinn2SG
f 195/252/367 221/291/368 222/293/369 213/281/370
f 196/253/371 229/300/372 230/302/373 220/290/374
s 3
f 198/255/375 223/294/376 224/295/377 201/258/378
f 199/256/379 231/303/380 232/304/381 202/259/382
f 201/258/378 224/295/377 225/296/383 204/261/384
f 202/259/382 232/304/381 233/305/385 205/262/386
s 5
f 215/284/387 226/297/388 227/298/389 207/264/390
f 216/285/391 234/306/392 235/307/393 208/265/394
s 7
f 207/264/395 227/298/396 228/299/397 210/267/398
f 208/265/399 235/307/400 236/308/401 211/268/402
f 210/267/398 228/299/397 221/292/403 195/270/404
f 211/268/402 236/308/401 229/301/405 196/271/406
s 9
f 212/274/407 209/273/408 217/287/409 218/288/410
f 197/254/411 212/274/407 218/288/410 219/289/412
s 10
f 207/277/413 210/278/414 214/282/415 215/283/416
f 210/278/414 195/252/417 213/281/418 214/282/415
f 214/282/415 213/281/418 198/255/419 201/280/420
f 215/283/416 214/282/415 201/280/420 204/279/421
s 5
f 204/261/422 225/296/423 226/297/388 215/284/387
f 205/262/424 233/305/425 234/306/392 216/285/391
s 9
f 218/288/410 217/287/409 206/275/426 203/276/427
f 219/289/412 218/288/410 203/276/427 200/257/428
s 11
f 238/309/429 237/310/430 239/311/431 240/312/432
s 1
f 213/281/370 222/293/369 223/294/433 198/255/434
f 222/293/369 221/291/368 196/253/371 220/290/374
s 11
f 242/313/435 241/314/436 238/309/429 240/312/432
s 3
f 224/295/377 223/294/376 199/256/379 202/259/382
f 225/296/383 224/295/377 202/259/382 205/262/386
s 5
f 226/297/388 225/296/423 205/262/424 216/285/391
f 227/298/389 226/297/388 216/285/391 208/265/394
s 7
f 228/299/397 227/298/396 208/265/399 211/268/402
f 221/292/403 228/299/397 211/268/402 196/271/406
s 1
f 230/302/373 229/300/372 197/254/437 219/289/438
f 231/303/439 230/302/373 219/289/438 200/257/440
s 3
f 232/304/381 231/303/380 200/257/441 203/260/442
f 233/305/385 232/304/381 203/260/442 206/263/443
s 5
f 234/306/392 233/305/425 206/263/444 217/286/445
f 235/307/393 234/306/392 217/286/445 209/266/446
s 7
f 236/308/401 235/307/400 209/266/447 212/269/448
f 229/301/405 236/308/401 212/269/448 197/272/449
s off
f 220/290/450 230/302/451 237/310/452 238/309/453
f 230/302/454 231/303/455 239/311/456 237/310/457
f 231/303/458 199/256/459 240/312/460 239/311/461
f 223/294/462 222/293/463 241/314/464 242/313/465
f 222/293/466 220/290/467 238/309/468 241/314/469
f 199/256/470 223/294/471 242/313/472 240/312/473
g default
v 504.232452 324.413361 50.412415
v 513.890076 324.413361 50.412415
v 504.232452 384.271240 50.412415
v 513.890076 384.271240 50.412415
v 504.232452 384.271240 40.463947
v 513.890076 384.271240 40.463947
v 504.232452 324.413361 40.463947
v 513.890076 324.413361 40.463947
vt 0.375000 0.000000
vt 0.625000 0.000000
vt 0.375000 0.250000
vt 0.625000 0.250000
vt 0.375000 0.500000
vt 0.625000 0.500000
vt 0.375000 0.750000
vt 0.625000 0.750000
vt 0.375000 1.000000
vt 0.625000 1.000000
vt 0.875000 0.000000
vt 0.875000 0.250000
vt 0.125000 0.000000
vt 0.125000 0.250000
vn 0.000000 0.000000 1.000000
vn 0.000000 0.000000 1.000000
vn 0.000000 0.000000 1.000000
vn 0.000000 0.000000 1.000000
vn 0.000000 1.000000 0.000000
vn 0.000000 1.000000 0.000000
vn 0.000000 1.000000 0.000000
vn 0.000000 1.000000 0.000000
vn 0.000000 0.000000 -1.000000
vn 0.000000 0.000000 -1.000000
vn 0.000000 0.000000 -1.000000
vn 0.000000 0.000000 -1.000000
vn 0.000000 -1.000000 0.000000
vn 0.000000 -1.000000 0.000000
vn 0.000000 -1.000000 0.000000
vn 0.000000 -1.000000 0.000000
vn 1.000000 0.000000 0.000000
vn 1.000000 0.000000 0.000000
vn 1.000000 0.000000 0.000000
vn 1.000000 0.000000 0.000000
vn -1.000000 0.000000 0.000000
vn -1.000000 0.000000 0.000000
vn -1.000000 0.000000 0.000000
vn -1.000000 0.000000 0.000000
s off
g group20 B03 pCube17
usemtl blinn2SG
f 245/317/474 243/315/475 244/316/476 246/318/477
f 246/318/478 248/320/479 247/319/480 245/317/481
f 249/321/482 247/319/483 248/320/484 250/322/485
f 250/322/486 244/324/487 243/323/488 249/321/489
f 246/318/490 244/316/491 250/325/492 248/326/493
f 245/317/494 247/328/495 249/327/496 243/315/497
g default
v 703.508301 324.413361 50.412415
v 713.165894 324.413361 50.412415
v 703.508301 384.271240 50.412415
v 713.165894 384.271240 50.412415
v 703.508301 384.271240 40.463947
v 713.165894 384.271240 40.463947
v 703.508301 324.413361 40.463947
v 713.165894 324.413361 40.463947
vt 0.375000 0.000000
vt 0.625000 0.000000
vt 0.375000 0.250000
vt 0.625000 0.250000
vt 0.375000 0.500000
vt 0.625000 0.500000
vt 0.375000 0.750000
vt 0.625000 0.750000
vt 0.375000 1.000000
vt 0.625000 1.000000
vt 0.875000 0.000000
vt 0.875000 0.250000
vt 0.125000 0.000000
vt 0.125000 0.250000
vn 0.000000 0.000000 1.000000
vn 0.000000 0.000000 1.000000
vn 0.000000 0.000000 1.000000
vn 0.000000 0.000000 1.000000
vn 0.000000 1.000000 0.000000
vn 0.000000 1.000000 0.000000
vn 0.000000 1.000000 0.000000
vn 0.000000 1.000000 0.000000
vn 0.000000 0.000000 -1.000000
vn 0.000000 0.000000 -1.000000
vn 0.000000 0.000000 -1.000000
vn 0.000000 0.000000 -1.000000
vn 0.000000 -1.000000 0.000000
vn 0.000000 -1.000000 0.000000
vn 0.000000 -1.000000 0.000000
vn 0.000000 -1.000000 0.000000
vn 1.000000 0.000000 0.000000
vn 1.000000 0.000000 0.000000
vn 1.000000 0.000000 0.000000
vn 1.000000 0.000000 0.000000
vn -1.000000 0.000000 0.000000
vn -1.000000 0.000000 0.000000
vn -1.000000 0.000000 0.000000
vn -1.000000 0.000000 0.000000
s off
g group20 B03 pCube119
usemtl blinn2SG
f 253/331/498 251/329/499 252/330/500 254/332/501
f 254/332/502 256/334/503 255/333/504 253/331/505
f 257/335/506 255/333/507 256/334/508 258/336/509
f 258/336/510 252/338/511 251/337/512 257/335/513
f 254/332/514 252/330/515 258/339/516 256/340/517
f 253/331/518 255/342/519 257/341/520 251/329/521
g default
v 513.890137 324.413361 46.038658
v 703.508301 324.413361 46.038658
v 513.890137 379.065948 46.038658
v 703.508301 379.065948 46.038658
vt 0.000000 0.000000
vt 1.000000 0.000000
vt 0.000000 1.000000
vt 1.000000 1.000000
vn 0.000000 0.000000 1.000000
vn 0.000000 0.000000 1.000000
vn 0.000000 0.000000 1.000000
vn 0.000000 0.000000 1.000000
s off
g group20 B03 pPlane4
usemtl initialShadingGroup
f 259/343/522 260/344/523 262/346/524 261/345/525
g default
v 509.823547 324.413361 -65.871201
v 509.823608 324.413361 40.463943
v 509.823547 379.065979 -65.871201
v 509.823608 379.065979 40.463943
vt 0.000000 0.000000
vt 1.000000 0.000000
vt 0.000000 1.000000
vt 1.000000 1.000000
vn -1.000000 0.000000 0.000001
vn -1.000000 0.000000 0.000001
vn -1.000000 0.000000 0.000001
vn -1.000000 0.000000 0.000001
s off
g group20 B03 pPlane5
usemtl initialShadingGroup
f 263/347/526 264/348/527 266/350/528 265/349/529
g default
v 707.574829 324.413361 40.463943
v 707.574829 324.413361 -65.871201
v 707.574829 379.065979 40.463943
v 707.574829 379.065979 -65.871201
vt 0.000000 0.000000
vt 1.000000 0.000000
vt 0.000000 1.000000
vt 1.000000 1.000000
vn 1.000000 0.000000 0.000000
vn 1.000000 0.000000 0.000000
vn 1.000000 0.000000 0.000000
vn 1.000000 0.000000 0.000000
s off
g group20 B03 pPlane6
usemtl initialShadingGroup
f 267/351/530 268/352/531 270/354/532 269/353/533
