# This file uses centimeters as units for non-parametric coordinates.

mtllib pipe1.mtl
g default
v 5.060852 15.581665 -9.169037
v 3.502258 13.627075 -9.169037
v 1.249939 12.542480 -9.169037
v -1.249939 12.542480 -9.169037
v -3.502258 13.627075 -9.169037
v -5.060852 15.581665 -9.169037
v -5.617126 18.018799 -9.169037
v -5.060852 20.455933 -9.169037
v -3.502258 22.410522 -9.169037
v -1.249939 23.495117 -9.169037
v 1.249939 23.495117 -9.169037
v 3.502258 22.410522 -9.169037
v 5.060852 20.455933 -9.169037
v 5.617126 18.018799 -9.169037
v 5.060852 2.435303 2.331085
v 3.502258 2.435303 0.376617
v 1.249939 2.435303 -0.708038
v -1.249939 2.435303 -0.708038
v -3.502258 2.435303 0.376617
v -5.060852 2.435303 2.331085
v -5.617126 2.435303 4.768280
v -5.060852 2.435303 7.205475
v -3.502258 2.435303 9.159943
v -1.249939 2.435303 10.244598
v 1.249939 2.435303 10.244598
v 3.502258 2.435303 9.159943
v 5.060852 2.435303 7.205475
v 5.617126 2.435303 4.768280
v 3.502258 13.368896 -4.649658
v 5.060852 15.289795 -4.396179
v 5.617126 17.684814 -4.080109
v 5.060852 20.079956 -3.764069
v 3.502258 22.000732 -3.510590
v 1.249939 23.066650 -3.369934
v -1.249939 23.066650 -3.369934
v -3.502258 22.000732 -3.510590
v -5.060852 20.079956 -3.764069
v -5.617126 17.684814 -4.080109
v -5.060852 15.289795 -4.396179
v -3.502258 13.368896 -4.649658
v -1.249939 12.302979 -4.790253
v 1.249939 12.302979 -4.790253
v 3.502258 12.329712 -2.147583
v 5.060852 13.910645 -1.092743
v 5.617126 15.881836 0.222687
v 5.060852 17.853027 1.537994
v 3.502258 19.433960 2.592896
v 1.249939 20.311279 3.178253
v -1.249939 20.311279 3.178253
v -3.502258 19.433960 2.592896
v -5.060852 17.853027 1.537994
v -5.617126 15.881836 0.222687
v -5.060852 13.910645 -1.092743
v -3.502258 12.329712 -2.147583
v -1.249939 11.452515 -2.732941
v 1.249939 11.452515 -2.732941
v 3.502258 10.491821 -0.728149
v 5.060852 11.318604 0.999542
v 5.617126 12.349487 3.153870
v 5.060852 13.380493 5.308197
v 3.502258 14.207275 7.035889
v 1.249939 14.666138 7.994659
v -1.249939 14.666138 7.994659
v -3.502258 14.207275 7.035889
v -5.060852 13.380493 5.308197
v -5.617126 12.349487 3.153870
v -5.060852 11.318604 0.999542
v -3.502258 10.491821 -0.728149
v -1.249939 10.032959 -1.686859
v 1.249939 10.032959 -1.686859
v 3.502258 7.212769 0.176666
v 5.060852 7.393799 2.113953
v 5.617126 7.619629 4.529663
v 5.060852 7.845337 6.945404
v 3.502258 8.026367 8.882690
v 1.249939 8.126953 9.957794
v -1.249939 8.126953 9.957794
v -3.502258 8.026367 8.882690
v -5.060852 7.845337 6.945404
v -5.617126 7.619629 4.529663
v -5.060852 7.393799 2.113953
v -3.502258 7.212769 0.176666
v -1.249939 7.112305 -0.898438
v 1.249939 7.112305 -0.898438
v -5.060852 20.455933 -11.844604
v -5.617126 18.018799 -11.844604
v -5.060852 15.581665 -11.844604
v -3.502258 13.627075 -11.844604
v -1.249939 12.542480 -11.844604
v 1.249939 12.542480 -11.844604
v 3.502258 13.627075 -11.844604
v 5.060852 15.581665 -11.844604
v 5.617126 18.018799 -11.844604
v 5.060852 20.455933 -11.844604
v 3.502258 22.410522 -11.844604
v 1.249939 23.495117 -11.844604
v -1.249939 23.495117 -11.844604
v -3.502258 22.410522 -11.844604
v -3.502258 0.000000 0.376617
v -5.060852 0.000000 2.331085
v -1.249939 0.000000 -0.708038
v 1.249939 0.000000 -0.708038
v 3.502258 0.000000 0.376617
v 5.060852 0.000000 2.331085
v 5.617126 0.000000 4.768280
v 5.060852 0.000000 7.205475
v 3.502258 0.000000 9.159943
v 1.249939 0.000000 10.244598
v -1.249939 0.000000 10.244598
v -3.502258 0.000000 9.159943
v -5.060852 0.000000 7.205475
v -5.617126 0.000000 4.768280
v 6.539490 14.869629 -9.169037
v 4.525513 12.343994 -9.169037
v 4.525513 12.343994 -11.844604
v 6.539490 14.869629 -11.844604
v 1.615112 10.942505 -9.169037
v 1.615112 10.942505 -11.844604
v -1.615112 10.942505 -9.169037
v -1.615112 10.942505 -11.844604
v -4.525574 12.343872 -9.169037
v -4.525574 12.343872 -11.844604
v -6.539490 14.869629 -9.169037
v -6.539490 14.869629 -11.844604
v -7.258301 18.018799 -9.169037
v -7.258301 18.018799 -11.844604
v -6.539490 21.167969 -9.169037
v -6.539490 21.167969 -11.844604
v -4.525452 23.693481 -9.169037
v -4.525452 23.693481 -11.844604
v -1.615051 25.095093 -9.169037
v -1.615051 25.095093 -11.844604
v 1.615051 25.095093 -9.169037
v 1.615051 25.095093 -11.844604
v 4.525574 23.693726 -9.169037
v 4.525574 23.693726 -11.844604
v 6.539429 21.167969 -9.169037
v 6.539429 21.167969 -11.844604
v 7.258301 18.018799 -9.169037
v 7.258301 18.018799 -11.844604
v -6.539490 0.000000 1.619019
v -4.525513 0.000000 -0.906494
v -6.539490 2.435303 1.619019
v -4.525513 2.435303 -0.906494
v -1.615112 0.000000 -2.308014
v -1.615112 2.435303 -2.308014
v 1.615112 0.000000 -2.308044
v 1.615112 2.435303 -2.308044
v 4.525452 0.000000 -0.906494
v 4.525452 2.435303 -0.906494
v 6.539490 0.000000 1.619019
v 6.539490 2.435303 1.619019
v 7.258240 0.000000 4.768280
v 7.258240 2.435303 4.768280
v 6.539490 0.000000 7.917511
v 6.539490 2.435303 7.917511
v 4.525452 0.000000 10.443054
v 4.525452 2.435303 10.443054
v 1.615112 0.000000 11.844604
v 1.615112 2.435303 11.844604
v -1.615112 0.000000 11.844604
v -1.615112 2.435303 11.844604
v -4.525452 0.000000 10.443054
v -4.525452 2.435303 10.443054
v -6.539490 0.000000 7.917511
v -6.539490 2.435303 7.917511
v -7.258240 0.000000 4.768280
v -7.258240 2.435303 4.768280
vt 0.182122 0.242404
vt 0.182122 0.126020
vt 0.252242 0.126020
vt 0.252242 0.242404
vt 0.182122 0.995436
vt 0.252242 0.995436
vt 0.182122 0.973318
vt 0.252242 0.973318
vt 0.182122 0.950061
vt 0.252242 0.950061
vt 0.182122 0.923083
vt 0.252242 0.923083
vt 0.182122 0.889936
vt 0.252242 0.889936
vt 0.182122 0.848232
vt 0.252242 0.848232
vt 0.182122 0.796355
vt 0.252242 0.796355
vt 0.182122 0.732655
vt 0.252242 0.732655
vt 0.182122 0.655270
vt 0.252242 0.655270
vt 0.182122 0.565358
vt 0.252242 0.565358
vt 0.182122 0.465458
vt 0.252242 0.465458
vt 0.182122 0.357017
vt 0.252242 0.357017
vt 0.441166 0.100792
vt 0.441166 0.182323
vt 0.136139 0.137337
vt 0.136139 0.070371
vt 0.441166 0.255537
vt 0.136139 0.214727
vt 0.441166 0.323671
vt 0.136139 0.291016
vt 0.441166 0.393299
vt 0.136139 0.368206
vt 0.441166 0.466210
vt 0.136139 0.445258
vt 0.441166 0.534629
vt 0.136139 0.521003
vt 0.441166 0.595714
vt 0.136139 0.595578
vt 0.441166 0.655455
vt 0.136139 0.668085
vt 0.441166 0.716643
vt 0.136139 0.737559
vt 0.441166 0.781294
vt 0.136139 0.804525
vt 0.441166 0.850936
vt 0.136139 0.869189
vt 0.441166 0.923803
vt 0.136139 0.932355
vt 0.441166 0.004853
vt 0.136139 0.004396
vt 0.140308 0.126020
vt 0.140308 0.242404
vt 0.755245 0.182323
vt 0.755245 0.100792
vt 0.140308 0.357017
vt 0.755245 0.255537
vt 0.140308 0.465458
vt 0.755245 0.323671
vt 0.140308 0.565358
vt 0.755245 0.393299
vt 0.140308 0.655270
vt 0.755245 0.466210
vt 0.140308 0.732655
vt 0.755245 0.534629
vt 0.140308 0.796355
vt 0.755245 0.595714
vt 0.140308 0.848232
vt 0.755245 0.655455
vt 0.140308 0.889936
vt 0.755245 0.716643
vt 0.140308 0.923083
vt 0.755245 0.781294
vt 0.140308 0.950061
vt 0.755245 0.850936
vt 0.140308 0.973318
vt 0.755245 0.923803
vt 0.140308 0.995436
vt 0.755245 0.004853
vt 0.639891 0.182323
vt 0.639891 0.100792
vt 0.639891 0.255537
vt 0.639891 0.323671
vt 0.639891 0.393299
vt 0.639891 0.466210
vt 0.639891 0.534629
vt 0.639891 0.595714
vt 0.639891 0.655455
vt 0.639891 0.716643
vt 0.639891 0.781294
vt 0.639891 0.850936
vt 0.639891 0.923803
vt 0.639891 0.004853
vt 0.558556 0.182323
vt 0.558556 0.100792
vt 0.558556 0.255537
vt 0.558556 0.323671
vt 0.558556 0.393299
vt 0.558556 0.466210
vt 0.558556 0.534629
vt 0.558556 0.595715
vt 0.558556 0.655455
vt 0.558556 0.716643
vt 0.558556 0.781294
vt 0.558556 0.850936
vt 0.558556 0.923803
vt 0.558556 0.004853
vt 0.038179 0.869189
vt 0.038179 0.804525
vt 0.094704 0.804525
vt 0.094704 0.869189
vt 0.038179 0.932355
vt 0.094704 0.932355
vt 0.038179 0.004396
vt 0.094704 0.004396
vt 0.038179 0.070371
vt 0.094704 0.070371
vt 0.038179 0.137337
vt 0.094704 0.137337
vt 0.038179 0.214727
vt 0.094704 0.214727
vt 0.038179 0.291016
vt 0.094704 0.291016
vt 0.038179 0.368206
vt 0.094704 0.368206
vt 0.038179 0.445258
vt 0.094704 0.445258
vt 0.038179 0.521003
vt 0.094704 0.521003
vt 0.038179 0.595578
vt 0.094704 0.595578
vt 0.038179 0.668085
vt 0.094704 0.668085
vt 0.038179 0.737559
vt 0.094704 0.737559
vt 0.292453 0.126020
vt 0.292453 0.242404
vt 0.292453 0.995436
vt 0.292453 0.973318
vt 0.292453 0.950061
vt 0.292453 0.923083
vt 0.292453 0.889936
vt 0.292453 0.848232
vt 0.292453 0.796355
vt 0.292453 0.732655
vt 0.292453 0.655270
vt 0.292453 0.565358
vt 0.292453 0.465458
vt 0.292453 0.357017
vt 0.001479 0.869189
vt 0.001479 0.804525
vt 0.001479 0.932355
vt 0.001479 0.004396
vt 0.001479 0.070371
vt 0.001479 0.137337
vt 0.001479 0.214727
vt 0.001479 0.291016
vt 0.001479 0.368206
vt 0.001479 0.445258
vt 0.001479 0.521003
vt 0.001479 0.595578
vt 0.001479 0.668085
vt 0.001479 0.737559
vt 0.038179 0.998008
vt 0.094704 0.998008
vt 0.298691 0.993394
vt 0.001479 0.998008
vt 0.182122 0.003045
vt 0.252242 0.003045
vt 0.292453 0.003045
vt 0.896007 0.004853
vt 0.441166 0.993394
vt 0.558556 0.993394
vt 0.639891 0.993394
vt 0.755245 0.993394
vt 0.298691 0.255537
vt 0.298691 0.182323
vt 0.298691 0.323671
vt 0.298691 0.393299
vt 0.298691 0.466210
vt 0.298691 0.534629
vt 0.298691 0.595714
vt 0.298691 0.655455
vt 0.298691 0.716643
vt 0.298691 0.781294
vt 0.298691 0.850936
vt 0.298691 0.923803
vt 0.298691 0.004853
vt 0.136139 0.998008
vt 0.298691 0.100792
vt 0.896007 0.255537
vt 0.896007 0.182323
vt 0.896007 0.323671
vt 0.896007 0.393299
vt 0.896007 0.466210
vt 0.896007 0.534629
vt 0.896007 0.595715
vt 0.896007 0.655455
vt 0.896007 0.716643
vt 0.896007 0.781294
vt 0.896007 0.850936
vt 0.896007 0.923803
vt 0.896007 0.993394
vt 0.140308 0.003045
vt 0.896007 0.100792
vn 0.816552 -0.393223 0.422632
vn 0.565079 -0.708576 0.422618
vn 0.565079 -0.708576 -0.422618
vn 0.816552 -0.393223 -0.422632
vn 0.201663 -0.883584 0.422624
vn 0.201663 -0.883584 -0.422624
vn -0.201643 -0.883584 0.422635
vn -0.201643 -0.883584 -0.422635
vn -0.565078 -0.708574 0.422623
vn -0.565078 -0.708574 -0.422623
vn -0.816555 -0.393207 0.422641
vn -0.816555 -0.393207 -0.422641
vn -0.906303 0.000000 0.422629
vn -0.906303 0.000000 -0.422629
vn -0.816549 0.393239 0.422623
vn -0.816549 0.393239 -0.422623
vn -0.565078 0.708583 0.422608
vn -0.565078 0.708582 -0.422609
vn -0.201684 0.883584 0.422613
vn -0.201684 0.883584 -0.422614
vn 0.201645 0.883583 0.422636
vn 0.201645 0.883583 -0.422636
vn 0.565080 0.708576 0.422617
vn 0.565080 0.708576 -0.422617
vn 0.816556 0.393208 0.422639
vn 0.816556 0.393208 -0.422639
vn 0.906305 0.000009 0.422623
vn 0.906305 0.000009 -0.422623
vn 0.634775 -0.105894 -0.765407
vn 0.910699 -0.059852 -0.408711
vn 0.836304 0.382119 -0.393169
vn 0.580346 0.382249 -0.719086
vn 0.999586 0.007074 0.027897
vn 0.923214 0.384140 0.010621
vn 0.888018 0.080176 0.452765
vn 0.825719 0.388252 0.409204
vn 0.606241 0.140879 0.782703
vn 0.567373 0.392840 0.723716
vn 0.214548 0.174797 0.960945
vn 0.201609 0.395809 0.895929
vn -0.214548 0.174797 0.960945
vn -0.201609 0.395809 0.895929
vn -0.606241 0.140879 0.782703
vn -0.567373 0.392840 0.723716
vn -0.888018 0.080176 0.452765
vn -0.825719 0.388252 0.409204
vn -0.999586 0.007074 0.027897
vn -0.923214 0.384140 0.010621
vn -0.910699 -0.059852 -0.408711
vn -0.836303 0.382120 -0.393168
vn -0.634775 -0.105894 -0.765407
vn -0.580345 0.382252 -0.719085
vn -0.227325 -0.127217 -0.965474
vn -0.207301 0.383065 -0.900160
vn 0.227325 -0.127217 -0.965474
vn 0.207301 0.383064 -0.900160
vn 0.579082 -0.714957 0.391791
vn 0.834850 -0.388984 0.389508
vn 0.914612 -0.396413 -0.079638
vn 0.640502 -0.754814 -0.141469
vn 0.920132 0.015111 0.391316
vn 0.999220 0.037320 0.012890
vn 0.820098 0.411805 0.397311
vn 0.883189 0.455065 0.113552
vn 0.561321 0.721979 0.404556
vn 0.599960 0.775708 0.195767
vn 0.198955 0.890446 0.409295
vn 0.211654 0.947167 0.240994
vn -0.198956 0.890452 0.409282
vn -0.211654 0.947167 0.240994
vn -0.561328 0.721987 0.404531
vn -0.599960 0.775708 0.195767
vn -0.820101 0.411807 0.397302
vn -0.883189 0.455065 0.113552
vn -0.920131 0.015111 0.391319
vn -0.999220 0.037320 0.012890
vn -0.834847 -0.388983 0.389517
vn -0.914612 -0.396413 -0.079638
vn -0.579078 -0.714951 0.391807
vn -0.640502 -0.754814 -0.141469
vn -0.206618 -0.895279 0.394695
vn -0.230189 -0.958540 -0.167973
vn 0.206619 -0.895283 0.394687
vn 0.230189 -0.958540 -0.167973
vn 0.923831 -0.308780 -0.226254
vn 0.656415 -0.607528 -0.447246
vn 0.997999 0.049806 0.038958
vn 0.872677 0.392080 0.291046
vn 0.587398 0.650995 0.480801
vn 0.206138 0.787654 0.580611
vn -0.206138 0.787654 0.580611
vn -0.587398 0.650995 0.480801
vn -0.872677 0.392080 0.291046
vn -0.997999 0.049806 0.038958
vn -0.923831 -0.308780 -0.226254
vn -0.656415 -0.607528 -0.447246
vn -0.239711 -0.781867 -0.575520
vn 0.239711 -0.781867 -0.575520
vn 0.919411 -0.171992 -0.353698
vn 0.646388 -0.317606 -0.693764
vn 0.998519 0.028037 0.046626
vn 0.876029 0.231196 0.423227
vn 0.591087 0.389224 0.706484
vn 0.207716 0.473687 0.855848
vn -0.207716 0.473687 0.855848
vn -0.591087 0.389225 0.706484
vn -0.876029 0.231196 0.423227
vn -0.998519 0.028037 0.046626
vn -0.919411 -0.171992 -0.353698
vn -0.646388 -0.317606 -0.693764
vn -0.232787 -0.385248 -0.892969
vn 0.232787 -0.385248 -0.892969
vn -0.554902 -0.455965 -0.695830
vn -0.801865 -0.455968 -0.386144
vn -0.801865 0.455968 -0.386144
vn -0.554902 0.455965 -0.695830
vn -0.198042 -0.455969 -0.867682
vn -0.198042 0.455969 -0.867682
vn 0.198040 -0.455966 -0.867684
vn 0.198040 0.455966 -0.867684
vn 0.554905 -0.455965 -0.695828
vn 0.554905 0.455965 -0.695828
vn 0.801863 -0.455963 -0.386152
vn 0.801863 0.455963 -0.386152
vn 0.889996 -0.455969 0.000000
vn 0.889996 0.455969 -0.000000
vn 0.801864 -0.455962 0.386152
vn 0.801864 0.455962 0.386152
vn 0.554908 -0.455963 0.695827
vn 0.554908 0.455963 0.695827
vn 0.198044 -0.455969 0.867682
vn 0.198044 0.455969 0.867682
vn -0.198044 -0.455969 0.867682
vn -0.198044 0.455969 0.867682
vn -0.554908 -0.455963 0.695827
vn -0.554908 0.455963 0.695827
vn -0.801864 -0.455962 0.386152
vn -0.801864 0.455962 0.386152
vn -0.889996 -0.455969 0.000000
vn -0.889996 0.455969 0.000000
vn 0.000000 0.000000 -1.000000
vn 0.000000 0.000000 -1.000000
vn 0.000000 0.000000 -1.000000
vn 0.000000 0.000000 -1.000000
vn -0.000000 0.000000 -1.000000
vn -0.000001 0.000000 -1.000000
vn -0.000001 0.000000 -1.000000
vn -0.000000 0.000000 -1.000000
vn -0.000000 0.000000 -1.000000
vn 0.000000 0.000000 -1.000000
vn 0.000000 0.000000 -1.000000
vn 0.000000 0.000000 -1.000000
vn 0.000001 0.000000 -1.000000
vn 0.000001 0.000000 -1.000000
vn 0.000000 -1.000000 0.000000
vn 0.000000 -1.000000 0.000000
vn 0.000000 -1.000000 0.000000
vn 0.000000 -1.000000 0.000000
vn 0.000000 -1.000000 0.000000
vn 0.000000 -1.000000 0.000000
vn 0.000000 -1.000000 0.000000
vn 0.000000 -1.000000 0.000000
vn 0.000000 -1.000000 0.000000
vn 0.000000 -1.000000 0.000000
vn 0.000000 -1.000000 0.000000
vn 0.000000 -1.000000 0.000000
vn 0.000000 -1.000000 0.000000
vn 0.000000 -1.000000 0.000000
s 1
g Pipe01_low
usemtl aiStandardSurface1SG
f 113/1/1 114/2/2 115/3/3 116/4/4
f 114/2/2 117/173/5 118/174/6 115/3/3
f 117/5/5 119/7/7 120/8/8 118/6/6
f 119/7/7 121/9/9 122/10/10 120/8/8
f 121/9/9 123/11/11 124/12/12 122/10/10
f 123/11/11 125/13/13 126/14/14 124/12/12
f 125/13/13 127/15/15 128/16/16 126/14/14
f 127/15/15 129/17/17 130/18/18 128/16/16
f 129/17/17 131/19/19 132/20/20 130/18/18
f 131/19/19 133/21/21 134/22/22 132/20/20
f 133/21/21 135/23/23 136/24/24 134/22/22
f 135/23/23 137/25/25 138/26/26 136/24/24
f 137/25/25 139/27/27 140/28/28 138/26/26
f 139/27/27 113/1/1 116/4/4 140/28/28
f 71/29/29 72/30/30 15/182/31 16/195/32
f 72/30/30 73/33/33 28/181/34 15/182/31
f 73/33/33 74/35/35 27/183/36 28/181/34
f 74/35/35 75/37/37 26/184/38 27/183/36
f 75/37/37 76/39/39 25/185/40 26/184/38
f 76/39/39 77/41/41 24/186/42 25/185/40
f 77/41/41 78/43/43 23/187/44 24/186/42
f 78/43/43 79/45/45 22/188/46 23/187/44
f 79/45/45 80/47/47 21/189/48 22/188/46
f 80/47/47 81/49/49 20/190/50 21/189/48
f 81/49/49 82/51/51 19/191/52 20/190/50
f 82/51/51 83/53/53 18/192/54 19/191/52
f 83/53/53 84/177/55 17/171/56 18/192/54
f 84/55/55 71/29/29 16/195/32 17/193/56
f 2/210/57 1/197/58 30/59/59 29/60/60
f 1/197/58 14/196/61 31/62/62 30/59/59
f 14/196/61 13/198/63 32/64/64 31/62/62
f 13/198/63 12/199/65 33/66/66 32/64/64
f 12/199/65 11/200/67 34/68/68 33/66/66
f 11/200/67 10/201/69 35/70/70 34/68/68
f 10/201/69 9/202/71 36/72/72 35/70/70
f 9/202/71 8/203/73 37/74/74 36/72/72
f 8/203/73 7/204/75 38/76/76 37/74/74
f 7/204/75 6/205/77 39/78/78 38/76/76
f 6/205/77 5/206/79 40/80/80 39/78/78
f 5/206/79 4/207/81 41/82/82 40/80/80
f 4/207/81 3/208/83 42/180/84 41/82/82
f 3/176/83 2/210/57 29/60/60 42/84/84
f 29/60/60 30/59/59 44/85/85 43/86/86
f 30/59/59 31/62/62 45/87/87 44/85/85
f 31/62/62 32/64/64 46/88/88 45/87/87
f 32/64/64 33/66/66 47/89/89 46/88/88
f 33/66/66 34/68/68 48/90/90 47/89/89
f 34/68/68 35/70/70 49/91/91 48/90/90
f 35/70/70 36/72/72 50/92/92 49/91/91
f 36/72/72 37/74/74 51/93/93 50/92/92
f 37/74/74 38/76/76 52/94/94 51/93/93
f 38/76/76 39/78/78 53/95/95 52/94/94
f 39/78/78 40/80/80 54/96/96 53/95/95
f 40/80/80 41/82/82 55/97/97 54/96/96
f 41/82/82 42/180/84 56/179/98 55/97/97
f 42/84/84 29/60/60 43/86/86 56/98/98
f 43/86/86 44/85/85 58/99/99 57/100/100
f 44/85/85 45/87/87 59/101/101 58/99/99
f 45/87/87 46/88/88 60/102/102 59/101/101
f 46/88/88 47/89/89 61/103/103 60/102/102
f 47/89/89 48/90/90 62/104/104 61/103/103
f 48/90/90 49/91/91 63/105/105 62/104/104
f 49/91/91 50/92/92 64/106/106 63/105/105
f 50/92/92 51/93/93 65/107/107 64/106/106
f 51/93/93 52/94/94 66/108/108 65/107/107
f 52/94/94 53/95/95 67/109/109 66/108/108
f 53/95/95 54/96/96 68/110/110 67/109/109
f 54/96/96 55/97/97 69/111/111 68/110/110
f 55/97/97 56/179/98 70/178/112 69/111/111
f 56/98/98 43/86/86 57/100/100 70/112/112
f 57/100/100 58/99/99 72/30/30 71/29/29
f 58/99/99 59/101/101 73/33/33 72/30/30
f 59/101/101 60/102/102 74/35/35 73/33/33
f 60/102/102 61/103/103 75/37/37 74/35/35
f 61/103/103 62/104/104 76/39/39 75/37/37
f 62/104/104 63/105/105 77/41/41 76/39/39
f 63/105/105 64/106/106 78/43/43 77/41/41
f 64/106/106 65/107/107 79/45/45 78/43/43
f 65/107/107 66/108/108 80/47/47 79/45/45
f 66/108/108 67/109/109 81/49/49 80/47/47
f 67/109/109 68/110/110 82/51/51 81/49/49
f 68/110/110 69/111/111 83/53/53 82/51/51
f 69/111/111 70/178/112 84/177/55 83/53/53
f 70/112/112 57/100/100 71/29/29 84/55/55
f 142/113/113 141/114/114 143/115/115 144/116/116
f 145/117/117 142/113/113 144/116/116 146/118/118
f 147/169/119 145/117/117 146/118/118 148/170/120
f 149/121/121 147/119/119 148/120/120 150/122/122
f 151/123/123 149/121/121 150/122/122 152/124/124
f 153/125/125 151/123/123 152/124/124 154/126/126
f 155/127/127 153/125/125 154/126/126 156/128/128
f 157/129/129 155/127/127 156/128/128 158/130/130
f 159/131/131 157/129/129 158/130/130 160/132/132
f 161/133/133 159/131/131 160/132/132 162/134/134
f 163/135/135 161/133/133 162/134/134 164/136/136
f 165/137/137 163/135/135 164/136/136 166/138/138
f 167/139/139 165/137/137 166/138/138 168/140/140
f 141/114/114 167/139/139 168/140/140 143/115/115
f 1/58/58 2/57/57 114/2/2 113/1/1
f 91/141/141 92/142/142 116/4/4 115/3/3
f 2/57/57 3/209/83 117/173/5 114/2/2
f 90/175/143 91/141/141 115/3/3 118/174/6
f 3/83/83 4/81/81 119/7/7 117/5/5
f 89/144/144 90/143/143 118/6/6 120/8/8
f 4/81/81 5/79/79 121/9/9 119/7/7
f 88/145/145 89/144/144 120/8/8 122/10/10
f 5/79/79 6/77/77 123/11/11 121/9/9
f 87/146/146 88/145/145 122/10/10 124/12/12
f 6/77/77 7/75/75 125/13/13 123/11/11
f 86/147/147 87/146/146 124/12/12 126/14/14
f 7/75/75 8/73/73 127/15/15 125/13/13
f 85/148/148 86/147/147 126/14/14 128/16/16
f 8/73/73 9/71/71 129/17/17 127/15/15
f 98/149/149 85/148/148 128/16/16 130/18/18
f 9/71/71 10/69/69 131/19/19 129/17/17
f 97/150/150 98/149/149 130/18/18 132/20/20
f 10/69/69 11/67/67 133/21/21 131/19/19
f 96/151/151 97/150/150 132/20/20 134/22/22
f 11/67/67 12/65/65 135/23/23 133/21/21
f 95/152/152 96/151/151 134/22/22 136/24/24
f 12/65/65 13/63/63 137/25/25 135/23/23
f 94/153/153 95/152/152 136/24/24 138/26/26
f 13/63/63 14/61/61 139/27/27 137/25/25
f 93/154/154 94/153/153 138/26/26 140/28/28
f 14/61/61 1/58/58 113/1/1 139/27/27
f 92/142/142 93/154/154 140/28/28 116/4/4
f 99/155/155 100/156/156 141/114/114 142/113/113
f 20/50/50 19/52/52 144/116/116 143/115/115
f 101/157/157 99/155/155 142/113/113 145/117/117
f 19/52/52 18/54/54 146/118/118 144/116/116
f 102/172/158 101/157/157 145/117/117 147/169/119
f 18/54/54 17/194/56 148/170/120 146/118/118
f 103/159/159 102/158/158 147/119/119 149/121/121
f 17/56/56 16/32/32 150/122/122 148/120/120
f 104/160/160 103/159/159 149/121/121 151/123/123
f 16/32/32 15/31/31 152/124/124 150/122/122
f 105/161/161 104/160/160 151/123/123 153/125/125
f 15/31/31 28/34/34 154/126/126 152/124/124
f 106/162/162 105/161/161 153/125/125 155/127/127
f 28/34/34 27/36/36 156/128/128 154/126/126
f 107/163/163 106/162/162 155/127/127 157/129/129
f 27/36/36 26/38/38 158/130/130 156/128/128
f 108/164/164 107/163/163 157/129/129 159/131/131
f 26/38/38 25/40/40 160/132/132 158/130/130
f 109/165/165 108/164/164 159/131/131 161/133/133
f 25/40/40 24/42/42 162/134/134 160/132/132
f 110/166/166 109/165/165 161/133/133 163/135/135
f 24/42/42 23/44/44 164/136/136 162/134/134
f 111/167/167 110/166/166 163/135/135 165/137/137
f 23/44/44 22/46/46 166/138/138 164/136/136
f 112/168/168 111/167/167 165/137/137 167/139/139
f 22/46/46 21/48/48 168/140/140 166/138/138
f 100/156/156 112/168/168 167/139/139 141/114/114
f 21/48/48 20/50/50 143/115/115 168/140/140
