# This file uses centimeters as units for non-parametric coordinates.

mtllib pipe2_01.mtl
g default
v -647.978394 1596.051025 168.300781
v -647.978394 1597.609619 166.346313
v -647.978394 1599.861938 165.261658
v -647.978394 1602.361816 165.261658
v -647.978394 1604.614136 166.346313
v -647.978394 1606.172729 168.300781
v -647.978394 1606.729004 170.737976
v -647.978394 1606.172729 173.175171
v -647.978394 1604.614136 175.129639
v -647.978394 1602.361816 176.214294
v -647.978394 1599.861938 176.214294
v -647.978394 1597.609619 175.129639
v -647.978394 1596.051025 173.175171
v -647.978394 1595.494751 170.737976
v -645.734619 1606.172729 168.300781
v -645.734619 1606.729004 170.737976
v -645.734619 1606.172729 173.175171
v -645.734619 1604.614136 175.129639
v -645.734619 1602.361816 176.214294
v -645.734619 1599.861938 176.214294
v -645.734619 1597.609619 175.129639
v -645.734619 1596.051025 173.175171
v -645.734619 1595.494751 170.737976
v -645.734619 1596.051025 168.300781
v -645.734619 1597.609619 166.346313
v -645.734619 1599.861938 165.261658
v -645.734619 1602.361816 165.261658
v -645.734619 1604.614136 166.346313
v -645.734619 1607.651367 167.588715
v -645.734619 1608.370117 170.737976
v -647.978394 1607.651367 167.588715
v -647.978394 1608.370117 170.737976
v -645.734619 1607.651367 173.887207
v -647.978394 1607.651367 173.887207
v -645.734619 1605.637451 176.412720
v -647.978394 1605.637451 176.412720
v -645.734619 1602.727051 177.814301
v -647.978394 1602.727051 177.814301
v -645.734619 1599.496826 177.814301
v -647.978394 1599.496826 177.814301
v -645.734619 1596.586426 176.412750
v -647.978394 1596.586426 176.412750
v -645.734619 1594.572388 173.887238
v -647.978394 1594.572388 173.887238
v -645.734619 1593.853638 170.737976
v -647.978394 1593.853638 170.737976
v -645.734619 1594.572388 167.588715
v -647.978394 1594.572388 167.588715
v -645.734619 1596.586426 165.063232
v -647.978394 1596.586426 165.063232
v -645.734619 1599.496826 163.661652
v -647.978394 1599.496826 163.661652
v -645.734619 1602.727051 163.661652
v -647.978394 1602.727051 163.661652
v -645.734619 1605.637451 165.063202
v -647.978394 1605.637451 165.063202
v -402.801208 1599.862061 176.214294
v -400.497253 1599.862061 176.214294
v -400.497253 1597.609741 175.129639
v -402.801208 1597.609741 175.129639
v -400.497253 1596.051147 173.175171
v -402.801208 1596.051147 173.175171
v -400.497253 1595.494873 170.737976
v -402.801208 1595.494873 170.737976
v -400.497253 1596.051147 168.300812
v -402.801208 1596.051147 168.300812
v -400.497253 1597.609741 166.346313
v -402.801208 1597.609741 166.346313
v -400.497253 1599.862061 165.261658
v -402.801208 1599.862061 165.261658
v -400.497253 1602.361938 165.261658
v -402.801208 1602.361938 165.261658
v -400.497253 1604.614258 166.346313
v -402.801208 1604.614258 166.346313
v -400.497253 1606.172852 168.300812
v -402.801208 1606.172852 168.300812
v -400.497253 1606.729126 170.737976
v -402.801208 1606.729126 170.737976
v -400.497253 1606.172852 173.175171
v -402.801208 1606.172852 173.175171
v -400.497253 1604.614258 175.129639
v -402.801208 1604.614258 175.129639
v -400.497253 1602.361938 176.214294
v -402.801208 1602.361938 176.214294
v -402.801208 1599.496826 177.814331
v -400.497253 1599.496826 177.814331
v -400.497253 1602.727051 177.814301
v -402.801208 1602.727051 177.814301
v -402.801208 1596.586426 176.412720
v -400.497253 1596.586426 176.412720
v -402.801208 1594.572510 173.887207
v -400.497253 1594.572510 173.887207
v -402.801208 1593.853760 170.737976
v -400.497253 1593.853760 170.737976
v -402.801208 1594.572510 167.588776
v -400.497253 1594.572510 167.588776
v -402.801208 1596.586426 165.063232
v -400.497253 1596.586426 165.063232
v -402.801208 1599.496826 163.661682
v -400.497253 1599.496826 163.661682
v -402.801208 1602.727051 163.661682
v -400.497253 1602.727051 163.661682
v -402.801208 1605.637451 165.063232
v -400.497253 1605.637451 165.063232
v -402.801208 1607.651489 167.588806
v -400.497253 1607.651489 167.588806
v -402.801208 1608.370239 170.737976
v -400.497253 1608.370239 170.737976
v -402.801208 1607.651489 173.887207
v -400.497253 1607.651489 173.887207
v -402.801208 1605.637451 176.412720
v -400.497253 1605.637451 176.412720
vt 0.682937 0.294752
vt 0.682937 0.154315
vt 0.757941 0.154315
vt 0.757941 0.294752
vt 0.682937 0.466715
vt 0.757941 0.466715
vt 0.682937 0.584669
vt 0.757941 0.584669
vt 0.682937 0.676763
vt 0.757941 0.676762
vt 0.682937 0.748035
vt 0.757941 0.748035
vt 0.682937 0.803004
vt 0.757941 0.803004
vt 0.682937 0.846061
vt 0.757941 0.846061
vt 0.682937 0.879888
vt 0.757941 0.879888
vt 0.682937 0.906975
vt 0.757941 0.906975
vt 0.682937 0.929526
vt 0.757941 0.929526
vt 0.682937 0.948860
vt 0.757941 0.948861
vt 0.682937 0.966493
vt 0.757941 0.966493
vt 0.682937 0.009935
vt 0.757941 0.009935
vt 0.530690 0.998008
vt 0.574795 0.998008
vt 0.804361 0.154315
vt 0.804361 0.294752
vt 0.486547 0.998008
vt 0.804361 0.466715
vt 0.442439 0.998008
vt 0.804361 0.584669
vt 0.398330 0.998008
vt 0.804361 0.676763
vt 0.354222 0.998008
vt 0.804361 0.748035
vt 0.310115 0.998008
vt 0.804361 0.803004
vt 0.266009 0.998008
vt 0.804361 0.846061
vt 0.221905 0.998008
vt 0.804361 0.879888
vt 0.177800 0.998008
vt 0.804361 0.906975
vt 0.133697 0.998008
vt 0.804361 0.929526
vt 0.089592 0.998008
vt 0.804361 0.948861
vt 0.045487 0.998008
vt 0.804361 0.966493
vt 0.618898 0.998008
vt 0.804361 0.984644
vt 0.866969 0.598599
vt 0.917881 0.598599
vt 0.917881 0.650698
vt 0.866969 0.650698
vt 0.866969 0.571820
vt 0.917881 0.571820
vt 0.866969 0.511701
vt 0.917881 0.511701
vt 0.866969 0.440527
vt 0.917881 0.440526
vt 0.866969 0.360640
vt 0.917881 0.360640
vt 0.866969 0.274071
vt 0.917881 0.274071
vt 0.866969 0.187270
vt 0.917881 0.187270
vt 0.866969 0.104135
vt 0.917881 0.104135
vt 0.866969 0.979117
vt 0.917881 0.979117
vt 0.866969 0.908249
vt 0.917881 0.908249
vt 0.866969 0.840667
vt 0.917881 0.840667
vt 0.866969 0.772879
vt 0.917881 0.772879
vt 0.866969 0.708711
vt 0.917881 0.708711
vt 0.827667 0.571820
vt 0.827667 0.598599
vt 0.827667 0.511702
vt 0.827667 0.440527
vt 0.827667 0.360640
vt 0.827667 0.274071
vt 0.827667 0.187270
vt 0.827667 0.104135
vt 0.827667 0.979117
vt 0.827667 0.908249
vt 0.827667 0.840667
vt 0.827667 0.772879
vt 0.827667 0.708711
vt 0.827667 0.650698
vt 0.955440 0.598599
vt 0.955440 0.650698
vt 0.955440 0.571820
vt 0.955440 0.511701
vt 0.955440 0.440527
vt 0.955440 0.360640
vt 0.955440 0.274071
vt 0.955440 0.187270
vt 0.955440 0.104135
vt 0.955439 0.979117
vt 0.955440 0.908249
vt 0.955440 0.840667
vt 0.955440 0.772879
vt 0.955440 0.708711
vt 0.866969 0.018288
vt 0.917881 0.018288
vt 0.955440 0.018288
vt 0.618898 0.001992
vt 0.001381 0.001992
vt 0.827667 0.018288
vt 0.634947 0.009935
vt 0.634947 0.984644
vt 0.001381 0.998008
vt 0.442439 0.001992
vt 0.398330 0.001992
vt 0.486547 0.001992
vt 0.530690 0.001992
vt 0.574795 0.001992
vt 0.045487 0.001992
vt 0.089592 0.001992
vt 0.133697 0.001992
vt 0.177800 0.001992
vt 0.221905 0.001992
vt 0.266009 0.001992
vt 0.310115 0.001992
vt 0.354222 0.001992
vt 0.682937 0.984644
vt 0.757941 0.984644
vt 0.804361 0.009935
vt 0.634947 0.154315
vt 0.634947 0.966493
vt 0.634947 0.948860
vt 0.634947 0.929526
vt 0.634947 0.906975
vt 0.634947 0.879888
vt 0.634947 0.846061
vt 0.634947 0.803004
vt 0.634947 0.748035
vt 0.634947 0.676762
vt 0.634947 0.584669
vt 0.634947 0.466715
vt 0.634947 0.294752
vn 0.485977 0.873971 0.000000
vn 0.485982 0.787424 -0.379189
vn -0.485981 0.787426 -0.379188
vn -0.485977 0.873972 0.000000
vn 0.485980 0.787425 0.379190
vn -0.485979 0.787426 0.379189
vn 0.485979 0.544918 0.683292
vn -0.485981 0.544920 0.683290
vn 0.485984 0.194481 0.852054
vn -0.485985 0.194481 0.852054
vn 0.485980 -0.194478 0.852058
vn -0.485978 -0.194478 0.852058
vn 0.485972 -0.544907 0.683306
vn -0.485970 -0.544910 0.683306
vn 0.485972 -0.787423 0.379204
vn -0.485971 -0.787424 0.379203
vn 0.485977 -0.873972 0.000000
vn -0.485976 -0.873972 0.000000
vn 0.485970 -0.787424 -0.379204
vn -0.485967 -0.787428 -0.379202
vn 0.485972 -0.544911 -0.683303
vn -0.485969 -0.544916 -0.683301
vn 0.485978 -0.194482 -0.852058
vn -0.485977 -0.194482 -0.852058
vn 0.485984 0.194477 -0.852055
vn -0.485986 0.194477 -0.852054
vn 0.485982 0.544911 -0.683296
vn -0.485982 0.544913 -0.683294
vn 0.008848 0.999961 0.000000
vn 0.008848 0.900945 -0.433844
vn -1.000000 0.000000 0.000000
vn -1.000000 0.000000 0.000000
vn 0.008848 0.900945 0.433844
vn -1.000000 0.000013 0.000000
vn 0.008848 0.623449 0.781814
vn -1.000000 0.000013 0.000000
vn 0.008848 0.222512 0.974890
vn -1.000000 0.000000 0.000000
vn 0.008848 -0.222512 0.974890
vn -1.000000 0.000000 0.000000
vn 0.008848 -0.623462 0.781803
vn -1.000000 0.000000 0.000000
vn 0.008849 -0.900945 0.433844
vn -1.000000 0.000000 0.000000
vn 0.008849 -0.999961 -0.000000
vn -1.000000 0.000000 0.000000
vn 0.008849 -0.900945 -0.433844
vn -1.000000 -0.000013 0.000000
vn 0.008848 -0.623464 -0.781802
vn -1.000000 -0.000013 0.000000
vn 0.008848 -0.222512 -0.974890
vn -1.000000 0.000000 0.000000
vn 0.008848 0.222512 -0.974890
vn -1.000000 0.000000 0.000000
vn 0.008848 0.623451 -0.781812
vn -1.000000 0.000000 0.000000
vn -0.476196 -0.195672 0.857292
vn 0.476197 -0.195674 0.857291
vn 0.476193 0.195683 0.857291
vn -0.476193 0.195680 0.857292
vn -0.476192 -0.548268 0.687490
vn 0.476195 -0.548267 0.687489
vn -0.476194 -0.792268 0.381512
vn 0.476195 -0.792267 0.381512
vn -0.476191 -0.879342 0.000000
vn 0.476192 -0.879341 0.000000
vn -0.476197 -0.792265 -0.381514
vn 0.476197 -0.792266 -0.381513
vn -0.476190 -0.548267 -0.687493
vn 0.476189 -0.548267 -0.687494
vn -0.476190 -0.195675 -0.857295
vn 0.476189 -0.195669 -0.857296
vn -0.476184 0.195676 -0.857298
vn 0.476183 0.195670 -0.857300
vn -0.476178 0.548270 -0.687499
vn 0.476178 0.548265 -0.687503
vn -0.476185 0.792267 -0.381525
vn 0.476184 0.792267 -0.381525
vn -0.476190 0.879343 0.000000
vn 0.476190 0.879342 0.000000
vn -0.476185 0.792267 0.381525
vn 0.476186 0.792265 0.381527
vn -0.476184 0.548261 0.687501
vn 0.476182 0.548264 0.687501
vn -0.008848 -0.623462 0.781803
vn -0.008848 -0.222511 0.974890
vn -0.008848 -0.900945 0.433844
vn -0.008847 -0.999961 -0.000000
vn -0.008848 -0.900945 -0.433844
vn -0.008848 -0.623464 -0.781802
vn -0.008848 -0.222512 -0.974890
vn -0.008848 0.222512 -0.974890
vn -0.008848 0.623451 -0.781812
vn -0.008848 0.900945 -0.433844
vn -0.008848 0.999961 0.000000
vn -0.008849 0.900945 0.433844
vn -0.008848 0.623449 0.781814
vn -0.008848 0.222512 0.974890
vn 1.000000 0.000000 0.000000
vn 1.000000 0.000007 0.000000
vn 1.000000 0.000000 0.000000
vn 1.000000 0.000000 0.000000
vn 1.000000 0.000007 0.000000
vn 1.000000 -0.000000 0.000000
vn 1.000000 0.000000 0.000000
vn 1.000000 0.000007 0.000000
vn 1.000000 -0.000007 0.000000
vn 1.000000 -0.000003 0.000000
vn 1.000000 0.000003 0.000000
vn 1.000000 -0.000007 0.000000
vn 1.000000 -0.000007 0.000000
vn 1.000000 0.000007 0.000000
s 1
g Pipe02:Pipe02_low Pipe
usemtl Pipe02:aiStandardSurface1SG
f 30/1/1 29/2/2 31/3/3 32/4/4
f 33/5/5 30/1/1 32/4/4 34/6/6
f 35/7/7 33/5/5 34/6/6 36/8/8
f 37/9/9 35/7/7 36/8/8 38/10/10
f 39/11/11 37/9/9 38/10/10 40/12/12
f 41/13/13 39/11/11 40/12/12 42/14/14
f 43/15/15 41/13/13 42/14/14 44/16/16
f 45/17/17 43/15/15 44/16/16 46/18/18
f 47/19/19 45/17/17 46/18/18 48/20/20
f 49/21/21 47/19/19 48/20/20 50/22/22
f 51/23/23 49/21/21 50/22/22 52/24/24
f 53/25/25 51/23/23 52/24/24 54/26/26
f 55/135/27 53/25/25 54/26/26 56/136/28
f 29/2/2 55/27/27 56/28/28 31/3/3
f 16/150/29 15/138/30 29/2/2 30/1/1
f 6/31/31 7/32/32 32/4/4 31/3/3
f 17/149/33 16/150/29 30/1/1 33/5/5
f 7/32/32 8/34/34 34/6/6 32/4/4
f 18/148/35 17/149/33 33/5/5 35/7/7
f 8/34/34 9/36/36 36/8/8 34/6/6
f 19/147/37 18/148/35 35/7/7 37/9/9
f 9/36/36 10/38/38 38/10/10 36/8/8
f 20/146/39 19/147/37 37/9/9 39/11/11
f 10/38/38 11/40/40 40/12/12 38/10/10
f 21/145/41 20/146/39 39/11/11 41/13/13
f 11/40/40 12/42/42 42/14/14 40/12/12
f 22/144/43 21/145/41 41/13/13 43/15/15
f 12/42/42 13/44/44 44/16/16 42/14/14
f 23/143/45 22/144/43 43/15/15 45/17/17
f 13/44/44 14/46/46 46/18/18 44/16/16
f 24/142/47 23/143/45 45/17/17 47/19/19
f 14/46/46 1/48/48 48/20/20 46/18/18
f 25/141/49 24/142/47 47/19/19 49/21/21
f 1/48/48 2/50/50 50/22/22 48/20/20
f 26/140/51 25/141/49 49/21/21 51/23/23
f 2/50/50 3/52/52 52/24/24 50/22/22
f 27/139/53 26/140/51 51/23/23 53/25/25
f 3/52/52 4/54/54 54/26/26 52/24/24
f 28/120/55 27/139/53 53/25/25 55/135/27
f 4/54/54 5/56/56 56/136/28 54/26/26
f 15/138/30 28/119/55 55/27/27 29/2/2
f 5/137/56 6/31/31 31/3/3 56/28/28
f 85/57/57 86/58/58 87/59/59 88/60/60
f 86/58/58 85/57/57 89/61/61 90/62/62
f 90/62/62 89/61/61 91/63/63 92/64/64
f 92/64/64 91/63/63 93/65/65 94/66/66
f 94/66/66 93/65/65 95/67/67 96/68/68
f 96/68/68 95/67/67 97/69/69 98/70/70
f 98/70/70 97/69/69 99/71/71 100/72/72
f 100/72/72 99/71/71 101/73/73 102/74/74
f 102/74/74 101/73/73 103/113/75 104/114/76
f 104/76/76 103/75/75 105/77/77 106/78/78
f 106/78/78 105/77/77 107/79/79 108/80/80
f 108/80/80 107/79/79 109/81/81 110/82/82
f 110/82/82 109/81/81 111/83/83 112/84/84
f 112/84/84 111/83/83 88/60/60 87/59/59
f 60/133/85 57/134/86 20/39/39 21/41/41
f 62/132/87 60/133/85 21/41/41 22/43/43
f 64/131/88 62/132/87 22/43/43 23/45/45
f 66/130/89 64/131/88 23/45/45 24/47/47
f 68/129/90 66/130/89 24/47/47 25/49/49
f 70/128/91 68/129/90 25/49/49 26/51/51
f 72/127/92 70/128/91 26/51/51 27/53/53
f 74/117/93 72/127/92 27/53/53 28/121/55
f 76/126/94 74/116/93 28/55/55 15/30/30
f 78/125/95 76/126/94 15/30/30 16/29/29
f 80/124/96 78/125/95 16/29/29 17/33/33
f 82/122/97 80/124/96 17/33/33 18/35/35
f 84/123/98 82/122/97 18/35/35 19/37/37
f 57/134/86 84/123/98 19/37/37 20/39/39
f 58/99/99 83/100/100 87/59/59 86/58/58
f 84/98/98 57/86/86 85/57/57 88/60/60
f 57/86/86 60/85/85 89/61/61 85/57/57
f 59/101/101 58/99/99 86/58/58 90/62/62
f 60/85/85 62/87/87 91/63/63 89/61/61
f 61/102/102 59/101/101 90/62/62 92/64/64
f 62/87/87 64/88/88 93/65/65 91/63/63
f 63/103/103 61/102/102 92/64/64 94/66/66
f 64/88/88 66/89/89 95/67/67 93/65/65
f 65/104/104 63/103/103 94/66/66 96/68/68
f 66/89/89 68/90/90 97/69/69 95/67/67
f 67/105/105 65/104/104 96/68/68 98/70/70
f 68/90/90 70/91/91 99/71/71 97/69/69
f 69/106/106 67/105/105 98/70/70 100/72/72
f 70/91/91 72/92/92 101/73/73 99/71/71
f 71/107/107 69/106/106 100/72/72 102/74/74
f 72/92/92 74/118/93 103/113/75 101/73/73
f 73/115/108 71/107/107 102/74/74 104/114/76
f 74/93/93 76/94/94 105/77/77 103/75/75
f 75/109/109 73/108/108 104/76/76 106/78/78
f 76/94/94 78/95/95 107/79/79 105/77/77
f 77/110/110 75/109/109 106/78/78 108/80/80
f 78/95/95 80/96/96 109/81/81 107/79/79
f 79/111/111 77/110/110 108/80/80 110/82/82
f 80/96/96 82/97/97 111/83/83 109/81/81
f 81/112/112 79/111/111 110/82/82 112/84/84
f 82/97/97 84/98/98 88/60/60 111/83/83
f 83/100/100 81/112/112 112/84/84 87/59/59
