# This file uses centimeters as units for non-parametric coordinates.

mtllib pipe2.mtl
g default
v -5.060852 61.003052 -2.437225
v -3.502258 61.003052 -4.391693
v -1.249939 61.003052 -5.476349
v 1.249939 61.003052 -5.476349
v 3.502258 61.003052 -4.391693
v 5.060852 61.003052 -2.437225
v 5.617126 61.003052 -0.000031
v 5.060852 61.003052 2.437164
v 3.502258 61.003052 4.391632
v 1.249939 61.003052 5.476288
v -1.249939 61.003052 5.476288
v -3.502258 61.003052 4.391632
v -5.060852 61.003052 2.437164
v -5.617126 61.003052 -0.000031
v 5.060852 58.759277 -2.437225
v 5.617126 58.759277 -0.000031
v 5.060852 58.759277 2.437164
v 3.502258 58.759277 4.391632
v 1.249939 58.759277 5.476288
v -1.249939 58.759277 5.476288
v -3.502258 58.759277 4.391632
v -5.060852 58.759277 2.437164
v -5.617126 58.759277 -0.000031
v -5.060852 58.759277 -2.437225
v -3.502258 58.759277 -4.391693
v -1.249939 58.759277 -5.476349
v 1.249939 58.759277 -5.476349
v 3.502258 58.759277 -4.391693
v 6.539490 58.759277 -3.149292
v 7.258240 58.759277 -0.000031
v 6.539490 61.003052 -3.149292
v 7.258240 61.003052 -0.000031
v 6.539490 58.759277 3.149200
v 6.539490 61.003052 3.149200
v 4.525513 58.759277 5.674713
v 4.525513 61.003052 5.674713
v 1.615112 58.759277 7.076294
v 1.615112 61.003052 7.076294
v -1.615112 58.759277 7.076294
v -1.615112 61.003052 7.076294
v -4.525513 58.759277 5.674744
v -4.525513 61.003052 5.674744
v -6.539490 58.759277 3.149231
v -6.539490 61.003052 3.149231
v -7.258240 58.759277 -0.000031
v -7.258240 61.003052 -0.000031
v -6.539551 58.759277 -3.149292
v -6.539551 61.003052 -3.149292
v -4.525513 58.759277 -5.674774
v -4.525513 61.003052 -5.674774
v -1.615112 58.759277 -7.076355
v -1.615112 61.003052 -7.076355
v 1.615112 58.759277 -7.076355
v 1.615112 61.003052 -7.076355
v 4.525513 58.759277 -5.674805
v 4.525513 61.003052 -5.674805
v -1.249939 2.303955 5.476288
v -1.249939 0.000000 5.476288
v -3.502258 0.000000 4.391632
v -3.502258 2.303955 4.391632
v -5.060852 0.000000 2.437164
v -5.060852 2.303955 2.437164
v -5.617126 0.000000 -0.000031
v -5.617126 2.303955 -0.000031
v -5.060852 0.000000 -2.437195
v -5.060852 2.303955 -2.437195
v -3.502258 0.000000 -4.391693
v -3.502258 2.303955 -4.391693
v -1.249939 0.000000 -5.476349
v -1.249939 2.303955 -5.476349
v 1.249939 0.000000 -5.476349
v 1.249939 2.303955 -5.476349
v 3.502258 0.000000 -4.391693
v 3.502258 2.303955 -4.391693
v 5.060852 0.000000 -2.437195
v 5.060852 2.303955 -2.437195
v 5.617126 0.000000 -0.000031
v 5.617126 2.303955 -0.000031
v 5.060852 0.000000 2.437164
v 5.060852 2.303955 2.437164
v 3.502258 0.000000 4.391632
v 3.502258 2.303955 4.391632
v 1.249939 0.000000 5.476288
v 1.249939 2.303955 5.476288
v -1.615112 2.303955 7.076324
v -1.615112 0.000000 7.076324
v 1.615112 0.000000 7.076294
v 1.615112 2.303955 7.076294
v -4.525513 2.303955 5.674713
v -4.525513 0.000000 5.674713
v -6.539490 2.303955 3.149200
v -6.539490 0.000000 3.149200
v -7.258240 2.303955 -0.000031
v -7.258240 0.000000 -0.000031
v -6.539490 2.303955 -3.149231
v -6.539490 0.000000 -3.149231
v -4.525513 2.303955 -5.674774
v -4.525513 0.000000 -5.674774
v -1.615112 2.303955 -7.076324
v -1.615112 0.000000 -7.076324
v 1.615112 2.303955 -7.076324
v 1.615112 0.000000 -7.076324
v 4.525513 2.303955 -5.674774
v 4.525513 0.000000 -5.674774
v 6.539490 2.303955 -3.149200
v 6.539490 0.000000 -3.149200
v 7.258240 2.303955 -0.000031
v 7.258240 0.000000 -0.000031
v 6.539490 2.303955 3.149200
v 6.539490 0.000000 3.149200
v 4.525513 2.303955 5.674713
v 4.525513 0.000000 5.674713
vt 0.682937 0.294752
vt 0.682937 0.154315
vt 0.757941 0.154315
vt 0.757941 0.294752
vt 0.682937 0.466715
vt 0.757941 0.466715
vt 0.682937 0.584669
vt 0.757941 0.584669
vt 0.682937 0.676763
vt 0.757941 0.676762
vt 0.682937 0.748035
vt 0.757941 0.748035
vt 0.682937 0.803004
vt 0.757941 0.803004
vt 0.682937 0.846061
vt 0.757941 0.846061
vt 0.682937 0.879888
vt 0.757941 0.879888
vt 0.682937 0.906975
vt 0.757941 0.906975
vt 0.682937 0.929526
vt 0.757941 0.929526
vt 0.682937 0.948860
vt 0.757941 0.948861
vt 0.682937 0.966493
vt 0.757941 0.966493
vt 0.682937 0.009935
vt 0.757941 0.009935
vt 0.530690 0.998008
vt 0.574795 0.998008
vt 0.804361 0.154315
vt 0.804361 0.294752
vt 0.486547 0.998008
vt 0.804361 0.466715
vt 0.442439 0.998008
vt 0.804361 0.584669
vt 0.398330 0.998008
vt 0.804361 0.676763
vt 0.354222 0.998008
vt 0.804361 0.748035
vt 0.310115 0.998008
vt 0.804361 0.803004
vt 0.266009 0.998008
vt 0.804361 0.846061
vt 0.221905 0.998008
vt 0.804361 0.879888
vt 0.177800 0.998008
vt 0.804361 0.906975
vt 0.133697 0.998008
vt 0.804361 0.929526
vt 0.089592 0.998008
vt 0.804361 0.948861
vt 0.045487 0.998008
vt 0.804361 0.966493
vt 0.618898 0.998008
vt 0.804361 0.984644
vt 0.866969 0.598599
vt 0.917881 0.598599
vt 0.917881 0.650698
vt 0.866969 0.650698
vt 0.866969 0.571820
vt 0.917881 0.571820
vt 0.866969 0.511701
vt 0.917881 0.511701
vt 0.866969 0.440527
vt 0.917881 0.440526
vt 0.866969 0.360640
vt 0.917881 0.360640
vt 0.866969 0.274071
vt 0.917881 0.274071
vt 0.866969 0.187270
vt 0.917881 0.187270
vt 0.866969 0.104135
vt 0.917881 0.104135
vt 0.866969 0.979117
vt 0.917881 0.979117
vt 0.866969 0.908249
vt 0.917881 0.908249
vt 0.866969 0.840667
vt 0.917881 0.840667
vt 0.866969 0.772879
vt 0.917881 0.772879
vt 0.866969 0.708711
vt 0.917881 0.708711
vt 0.827667 0.571820
vt 0.827667 0.598599
vt 0.827667 0.511702
vt 0.827667 0.440527
vt 0.827667 0.360640
vt 0.827667 0.274071
vt 0.827667 0.187270
vt 0.827667 0.104135
vt 0.827667 0.979117
vt 0.827667 0.908249
vt 0.827667 0.840667
vt 0.827667 0.772879
vt 0.827667 0.708711
vt 0.827667 0.650698
vt 0.955440 0.598599
vt 0.955440 0.650698
vt 0.955440 0.571820
vt 0.955440 0.511701
vt 0.955440 0.440527
vt 0.955440 0.360640
vt 0.955440 0.274071
vt 0.955440 0.187270
vt 0.955440 0.104135
vt 0.955439 0.979117
vt 0.955440 0.908249
vt 0.955440 0.840667
vt 0.955440 0.772879
vt 0.955440 0.708711
vt 0.866969 0.018288
vt 0.917881 0.018288
vt 0.955440 0.018288
vt 0.618898 0.001992
vt 0.001381 0.001992
vt 0.827667 0.018288
vt 0.634947 0.009935
vt 0.634947 0.984644
vt 0.001381 0.998008
vt 0.442439 0.001992
vt 0.398330 0.001992
vt 0.486547 0.001992
vt 0.530690 0.001992
vt 0.574795 0.001992
vt 0.045487 0.001992
vt 0.089592 0.001992
vt 0.133697 0.001992
vt 0.177800 0.001992
vt 0.221905 0.001992
vt 0.266009 0.001992
vt 0.310115 0.001992
vt 0.354222 0.001992
vt 0.682937 0.984644
vt 0.757941 0.984644
vt 0.804361 0.009935
vt 0.634947 0.154315
vt 0.634947 0.966493
vt 0.634947 0.948860
vt 0.634947 0.929526
vt 0.634947 0.906975
vt 0.634947 0.879888
vt 0.634947 0.846061
vt 0.634947 0.803004
vt 0.634947 0.748035
vt 0.634947 0.676762
vt 0.634947 0.584669
vt 0.634947 0.466715
vt 0.634947 0.294752
vn 0.873971 -0.485979 -0.000000
vn 0.787426 -0.485978 -0.379191
vn 0.787426 0.485978 -0.379190
vn 0.873971 0.485979 0.000000
vn 0.787426 -0.485976 0.379193
vn 0.787426 0.485976 0.379192
vn 0.544916 -0.485974 0.683298
vn 0.544917 0.485974 0.683297
vn 0.194480 -0.485977 0.852058
vn 0.194480 0.485978 0.852058
vn -0.194476 -0.485980 0.852058
vn -0.194476 0.485980 0.852058
vn -0.544912 -0.485977 0.683298
vn -0.544913 0.485978 0.683298
vn -0.787426 -0.485978 0.379191
vn -0.787426 0.485978 0.379190
vn -0.873968 -0.485984 0.000008
vn -0.873968 0.485984 0.000008
vn -0.787425 -0.485979 -0.379192
vn -0.787425 0.485979 -0.379192
vn -0.544908 -0.485980 -0.683301
vn -0.544908 0.485980 -0.683300
vn -0.194480 -0.485977 -0.852058
vn -0.194480 0.485978 -0.852058
vn 0.194476 -0.485980 -0.852058
vn 0.194476 0.485980 -0.852058
vn 0.544912 -0.485977 -0.683298
vn 0.544913 0.485978 -0.683298
vn 0.999276 -0.038048 0.000000
vn 0.900320 -0.038048 -0.433562
vn 0.000000 1.000000 0.000002
vn 0.000000 1.000000 0.000001
vn 0.900320 -0.038048 0.433562
vn 0.000000 1.000000 -0.000001
vn 0.623041 -0.038049 0.781263
vn 0.000000 1.000000 -0.000001
vn 0.222359 -0.038048 0.974222
vn 0.000000 1.000000 -0.000000
vn -0.222359 -0.038048 0.974222
vn 0.000000 1.000000 0.000000
vn -0.623041 -0.038049 0.781263
vn 0.000000 1.000000 -0.000001
vn -0.900320 -0.038048 0.433562
vn 0.000000 1.000000 -0.000002
vn -0.999276 -0.038049 0.000000
vn 0.000000 1.000000 -0.000001
vn -0.900320 -0.038049 -0.433562
vn 0.000000 1.000000 0.000001
vn -0.623043 -0.038049 -0.781262
vn 0.000000 1.000000 0.000001
vn -0.222359 -0.038048 -0.974222
vn 0.000000 1.000000 0.000000
vn 0.222359 -0.038048 -0.974222
vn 0.000000 1.000000 0.000000
vn 0.623043 -0.038049 -0.781262
vn 0.000000 1.000000 0.000001
vn -0.195675 0.476193 0.857293
vn -0.195675 -0.476193 0.857293
vn 0.195679 -0.476194 0.857292
vn 0.195679 0.476194 0.857292
vn -0.548266 0.476190 0.687493
vn -0.548266 -0.476190 0.687493
vn -0.792265 0.476191 0.381523
vn -0.792265 -0.476190 0.381523
vn -0.879341 0.476193 -0.000000
vn -0.879341 -0.476193 0.000000
vn -0.792264 0.476191 -0.381522
vn -0.792264 -0.476191 -0.381522
vn -0.548265 0.476186 -0.687497
vn -0.548265 -0.476186 -0.687497
vn -0.195671 0.476188 -0.857297
vn -0.195671 -0.476188 -0.857297
vn 0.195671 0.476188 -0.857297
vn 0.195671 -0.476188 -0.857297
vn 0.548269 0.476184 -0.687496
vn 0.548269 -0.476184 -0.687496
vn 0.792265 0.476191 -0.381523
vn 0.792265 -0.476191 -0.381523
vn 0.879341 0.476193 0.000000
vn 0.879341 -0.476193 0.000000
vn 0.792265 0.476190 0.381523
vn 0.792265 -0.476190 0.381523
vn 0.548265 0.476188 0.687496
vn 0.548265 -0.476188 0.687496
vn -0.623041 0.038049 0.781263
vn -0.222359 0.038049 0.974222
vn -0.900320 0.038048 0.433562
vn -0.999276 0.038048 -0.000000
vn -0.900320 0.038048 -0.433562
vn -0.623043 0.038049 -0.781262
vn -0.222359 0.038048 -0.974222
vn 0.222359 0.038048 -0.974222
vn 0.623043 0.038049 -0.781262
vn 0.900320 0.038047 -0.433562
vn 0.999276 0.038048 0.000000
vn 0.900320 0.038048 0.433562
vn 0.623041 0.038049 0.781263
vn 0.222359 0.038049 0.974222
vn 0.000000 -1.000000 0.000000
vn 0.000000 -1.000000 0.000000
vn 0.000000 -1.000000 0.000000
vn 0.000000 -1.000000 0.000000
vn 0.000000 -1.000000 0.000000
vn 0.000000 -1.000000 0.000000
vn 0.000000 -1.000000 0.000000
vn 0.000000 -1.000000 0.000000
vn 0.000000 -1.000000 0.000000
vn 0.000000 -1.000000 0.000000
vn 0.000000 -1.000000 0.000000
vn 0.000000 -1.000000 0.000000
vn 0.000000 -1.000000 0.000000
vn 0.000000 -1.000000 0.000000
s 1
g Pipe02_low
usemtl aiStandardSurface1SG
f 30/1/1 29/2/2 31/3/3 32/4/4
f 33/5/5 30/1/1 32/4/4 34/6/6
f 35/7/7 33/5/5 34/6/6 36/8/8
f 37/9/9 35/7/7 36/8/8 38/10/10
f 39/11/11 37/9/9 38/10/10 40/12/12
f 41/13/13 39/11/11 40/12/12 42/14/14
f 43/15/15 41/13/13 42/14/14 44/16/16
f 45/17/17 43/15/15 44/16/16 46/18/18
f 47/19/19 45/17/17 46/18/18 48/20/20
f 49/21/21 47/19/19 48/20/20 50/22/22
f 51/23/23 49/21/21 50/22/22 52/24/24
f 53/25/25 51/23/23 52/24/24 54/26/26
f 55/135/27 53/25/25 54/26/26 56/136/28
f 29/2/2 55/27/27 56/28/28 31/3/3
f 16/150/29 15/138/30 29/2/2 30/1/1
f 6/31/31 7/32/32 32/4/4 31/3/3
f 17/149/33 16/150/29 30/1/1 33/5/5
f 7/32/32 8/34/34 34/6/6 32/4/4
f 18/148/35 17/149/33 33/5/5 35/7/7
f 8/34/34 9/36/36 36/8/8 34/6/6
f 19/147/37 18/148/35 35/7/7 37/9/9
f 9/36/36 10/38/38 38/10/10 36/8/8
f 20/146/39 19/147/37 37/9/9 39/11/11
f 10/38/38 11/40/40 40/12/12 38/10/10
f 21/145/41 20/146/39 39/11/11 41/13/13
f 11/40/40 12/42/42 42/14/14 40/12/12
f 22/144/43 21/145/41 41/13/13 43/15/15
f 12/42/42 13/44/44 44/16/16 42/14/14
f 23/143/45 22/144/43 43/15/15 45/17/17
f 13/44/44 14/46/46 46/18/18 44/16/16
f 24/142/47 23/143/45 45/17/17 47/19/19
f 14/46/46 1/48/48 48/20/20 46/18/18
f 25/141/49 24/142/47 47/19/19 49/21/21
f 1/48/48 2/50/50 50/22/22 48/20/20
f 26/140/51 25/141/49 49/21/21 51/23/23
f 2/50/50 3/52/52 52/24/24 50/22/22
f 27/139/53 26/140/51 51/23/23 53/25/25
f 3/52/52 4/54/54 54/26/26 52/24/24
f 28/120/55 27/139/53 53/25/25 55/135/27
f 4/54/54 5/56/56 56/136/28 54/26/26
f 15/138/30 28/119/55 55/27/27 29/2/2
f 5/137/56 6/31/31 31/3/3 56/28/28
f 85/57/57 86/58/58 87/59/59 88/60/60
f 86/58/58 85/57/57 89/61/61 90/62/62
f 90/62/62 89/61/61 91/63/63 92/64/64
f 92/64/64 91/63/63 93/65/65 94/66/66
f 94/66/66 93/65/65 95/67/67 96/68/68
f 96/68/68 95/67/67 97/69/69 98/70/70
f 98/70/70 97/69/69 99/71/71 100/72/72
f 100/72/72 99/71/71 101/73/73 102/74/74
f 102/74/74 101/73/73 103/113/75 104/114/76
f 104/76/76 103/75/75 105/77/77 106/78/78
f 106/78/78 105/77/77 107/79/79 108/80/80
f 108/80/80 107/79/79 109/81/81 110/82/82
f 110/82/82 109/81/81 111/83/83 112/84/84
f 112/84/84 111/83/83 88/60/60 87/59/59
f 60/133/85 57/134/86 20/39/39 21/41/41
f 62/132/87 60/133/85 21/41/41 22/43/43
f 64/131/88 62/132/87 22/43/43 23/45/45
f 66/130/89 64/131/88 23/45/45 24/47/47
f 68/129/90 66/130/89 24/47/47 25/49/49
f 70/128/91 68/129/90 25/49/49 26/51/51
f 72/127/92 70/128/91 26/51/51 27/53/53
f 74/117/93 72/127/92 27/53/53 28/121/55
f 76/126/94 74/116/93 28/55/55 15/30/30
f 78/125/95 76/126/94 15/30/30 16/29/29
f 80/124/96 78/125/95 16/29/29 17/33/33
f 82/122/97 80/124/96 17/33/33 18/35/35
f 84/123/98 82/122/97 18/35/35 19/37/37
f 57/134/86 84/123/98 19/37/37 20/39/39
f 58/99/99 83/100/100 87/59/59 86/58/58
f 84/98/98 57/86/86 85/57/57 88/60/60
f 57/86/86 60/85/85 89/61/61 85/57/57
f 59/101/101 58/99/99 86/58/58 90/62/62
f 60/85/85 62/87/87 91/63/63 89/61/61
f 61/102/102 59/101/101 90/62/62 92/64/64
f 62/87/87 64/88/88 93/65/65 91/63/63
f 63/103/103 61/102/102 92/64/64 94/66/66
f 64/88/88 66/89/89 95/67/67 93/65/65
f 65/104/104 63/103/103 94/66/66 96/68/68
f 66/89/89 68/90/90 97/69/69 95/67/67
f 67/105/105 65/104/104 96/68/68 98/70/70
f 68/90/90 70/91/91 99/71/71 97/69/69
f 69/106/106 67/105/105 98/70/70 100/72/72
f 70/91/91 72/92/92 101/73/73 99/71/71
f 71/107/107 69/106/106 100/72/72 102/74/74
f 72/92/92 74/118/93 103/113/75 101/73/73
f 73/115/108 71/107/107 102/74/74 104/114/76
f 74/93/93 76/94/94 105/77/77 103/75/75
f 75/109/109 73/108/108 104/76/76 106/78/78
f 76/94/94 78/95/95 107/79/79 105/77/77
f 77/110/110 75/109/109 106/78/78 108/80/80
f 78/95/95 80/96/96 109/81/81 107/79/79
f 79/111/111 77/110/110 108/80/80 110/82/82
f 80/96/96 82/97/97 111/83/83 109/81/81
f 81/112/112 79/111/111 110/82/82 112/84/84
f 82/97/97 84/98/98 88/60/60 111/83/83
f 83/100/100 81/112/112 112/84/84 87/59/59
