# This file uses centimeters as units for non-parametric coordinates.

mtllib S_P09_01_LP.mtl
g default
v -0.000000 113.737251 0.000000
v -13.011931 105.583885 -4.227831
v -11.068609 105.583885 -8.041814
v -8.041815 105.583885 -11.068608
v -4.227833 105.583885 -13.011929
v -0.000000 105.583885 -13.681552
v 4.227831 105.583885 -13.011929
v 8.041812 105.583885 -11.068603
v 11.068604 105.583885 -8.041811
v 13.011927 105.583885 -4.227830
v 13.681548 105.583885 0.000001
v 13.011927 105.583885 4.227832
v 11.068604 105.583885 8.041812
v 8.041811 105.583885 11.068603
v 4.227830 105.583885 13.011927
v -0.000000 105.583885 13.681549
v -4.227829 105.583885 13.011927
v -8.041809 105.583885 11.068603
v -11.068601 105.583885 8.041810
v -13.011925 105.583885 4.227831
v -13.681545 105.583885 0.000001
v -9.593456 113.513870 -3.117103
v -8.160682 113.513870 -5.929082
v -5.929082 113.513870 -8.160681
v -3.117103 113.513870 -9.593456
v -0.000000 113.513870 -10.087154
v 3.117103 113.513870 -9.593453
v 5.929080 113.513870 -8.160679
v 8.160679 113.513870 -5.929080
v 9.593453 113.513870 -3.117102
v 10.087154 113.513870 0.000000
v 9.593453 113.513870 3.117102
v 8.160678 113.513870 5.929080
v 5.929080 113.513870 8.160677
v 3.117102 113.513870 9.593451
v 0.000000 113.513870 10.087152
v -3.117101 113.513870 9.593451
v -5.929078 113.513870 8.160677
v -8.160675 113.513870 5.929079
v -9.593451 113.513870 3.117101
v -10.087151 113.513870 -0.000000
v -12.848435 109.423767 -4.174708
v -10.929531 109.423767 -7.940767
v -7.940769 109.423767 -10.929529
v -4.174710 109.423767 -12.848433
v -0.000000 109.423767 -13.509643
v 4.174708 109.423767 -12.848433
v 7.940766 109.423767 -10.929526
v 10.929526 109.423767 -7.940765
v 12.848431 109.423767 -4.174707
v 13.509639 109.423767 0.000001
v 12.848431 109.423767 4.174709
v 10.929525 109.423767 7.940766
v 7.940765 109.423767 10.929525
v 4.174707 109.423767 12.848431
v 0.000000 109.423767 13.509640
v -4.174706 109.423767 12.848431
v -7.940763 109.423767 10.929523
v -10.929523 109.423767 7.940764
v -12.848429 109.423767 4.174708
v -13.509636 109.423767 0.000001
vt 0.367963 0.743619
vt 0.383739 0.738620
vt 0.391632 0.790922
vt 0.354504 0.753248
vt 0.344679 0.766565
vt 0.339450 0.782266
vt 0.339329 0.798815
vt 0.344328 0.814591
vt 0.353957 0.828050
vt 0.367274 0.837875
vt 0.382976 0.843104
vt 0.399524 0.843225
vt 0.415300 0.838226
vt 0.428759 0.828597
vt 0.438584 0.815280
vt 0.443813 0.799578
vt 0.443934 0.783030
vt 0.438935 0.767254
vt 0.429306 0.753794
vt 0.415989 0.743970
vt 0.400287 0.738741
vt 0.379139 0.711107
vt 0.404415 0.711153
vt 0.375768 0.690725
vt 0.407507 0.690727
vt 0.355086 0.718874
vt 0.345581 0.700531
vt 0.334611 0.733693
vt 0.319903 0.719185
vt 0.319717 0.754115
vt 0.301246 0.744862
vt 0.311863 0.778139
vt 0.291436 0.775047
vt 0.311816 0.803414
vt 0.291434 0.806786
vt 0.319583 0.827467
vt 0.301240 0.836972
vt 0.334402 0.847943
vt 0.319894 0.862650
vt 0.354824 0.862837
vt 0.345571 0.881308
vt 0.378848 0.870691
vt 0.375755 0.891118
vt 0.404123 0.870737
vt 0.407494 0.891120
vt 0.428176 0.862971
vt 0.437681 0.881314
vt 0.448652 0.848152
vt 0.463360 0.862660
vt 0.463546 0.827730
vt 0.482017 0.836983
vt 0.471401 0.803706
vt 0.491827 0.806798
vt 0.471447 0.778430
vt 0.491829 0.775059
vt 0.463680 0.754377
vt 0.482023 0.744872
vt 0.448861 0.733902
vt 0.463368 0.719194
vt 0.428439 0.719008
vt 0.437692 0.700536
vn -0.411072 0.861290 -0.298663
vn -0.483245 0.861290 -0.157016
vn 0.000000 1.000000 0.000000
vn -0.298662 0.861290 -0.411074
vn -0.157016 0.861290 -0.483245
vn 0.000000 0.861290 -0.508115
vn 0.157016 0.861290 -0.483245
vn 0.298662 0.861290 -0.411073
vn 0.411073 0.861290 -0.298662
vn 0.483245 0.861290 -0.157016
vn 0.508114 0.861290 -0.000000
vn 0.483245 0.861290 0.157015
vn 0.411073 0.861290 0.298661
vn 0.298662 0.861290 0.411073
vn 0.157016 0.861290 0.483245
vn -0.000000 0.861290 0.508114
vn -0.157016 0.861290 0.483245
vn -0.298662 0.861290 0.411073
vn -0.411072 0.861289 0.298664
vn -0.483245 0.861290 0.157018
vn -0.508114 0.861290 0.000001
vn -0.879574 0.380361 -0.285790
vn -0.924838 0.380361 0.000001
vn -0.950105 0.044725 -0.308707
vn -0.998999 0.044725 0.000001
vn -0.748210 0.380361 -0.543606
vn -0.808208 0.044725 -0.587197
vn -0.543606 0.380361 -0.748210
vn -0.587198 0.044725 -0.808207
vn -0.285791 0.380361 -0.879574
vn -0.308708 0.044725 -0.950105
vn 0.000000 0.380361 -0.924838
vn -0.000000 0.044725 -0.998999
vn 0.285791 0.380361 -0.879573
vn 0.308708 0.044725 -0.950105
vn 0.543606 0.380360 -0.748210
vn 0.587197 0.044725 -0.808207
vn 0.748210 0.380360 -0.543607
vn 0.808207 0.044725 -0.587197
vn 0.879573 0.380361 -0.285791
vn 0.950105 0.044725 -0.308708
vn 0.924838 0.380361 0.000000
vn 0.998999 0.044725 0.000000
vn 0.879573 0.380361 0.285791
vn 0.950105 0.044725 0.308708
vn 0.748210 0.380361 0.543607
vn 0.808207 0.044725 0.587198
vn 0.543606 0.380360 0.748210
vn 0.587197 0.044725 0.808207
vn 0.285791 0.380361 0.879573
vn 0.308708 0.044725 0.950105
vn 0.000000 0.380361 0.924838
vn 0.000000 0.044725 0.998999
vn -0.285791 0.380361 0.879573
vn -0.308708 0.044725 0.950105
vn -0.543606 0.380360 0.748210
vn -0.587197 0.044725 0.808207
vn -0.748209 0.380361 0.543607
vn -0.808207 0.044725 0.587198
vn -0.879573 0.380361 0.285791
vn -0.950105 0.044725 0.308708
s 1
g Top_low LP Lantern
usemtl set2
f 23/1/1 22/2/2 1/3/3
f 24/4/4 23/1/1 1/3/3
f 25/5/5 24/4/4 1/3/3
f 26/6/6 25/5/5 1/3/3
f 27/7/7 26/6/6 1/3/3
f 28/8/8 27/7/7 1/3/3
f 29/9/9 28/8/8 1/3/3
f 30/10/10 29/9/9 1/3/3
f 31/11/11 30/10/10 1/3/3
f 32/12/12 31/11/11 1/3/3
f 33/13/13 32/12/12 1/3/3
f 34/14/14 33/13/13 1/3/3
f 35/15/15 34/14/14 1/3/3
f 36/16/16 35/15/15 1/3/3
f 37/17/17 36/16/16 1/3/3
f 38/18/18 37/17/17 1/3/3
f 39/19/19 38/18/18 1/3/3
f 40/20/20 39/19/19 1/3/3
f 41/21/21 40/20/20 1/3/3
f 22/2/2 41/21/21 1/3/3
f 42/22/22 61/23/23 41/21/21 22/2/2
f 61/23/23 42/22/22 2/24/24 21/25/25
f 42/22/22 43/26/26 3/27/27 2/24/24
f 43/26/26 42/22/22 22/2/2 23/1/1
f 43/26/26 44/28/28 4/29/29 3/27/27
f 44/28/28 43/26/26 23/1/1 24/4/4
f 44/28/28 45/30/30 5/31/31 4/29/29
f 45/30/30 44/28/28 24/4/4 25/5/5
f 45/30/30 46/32/32 6/33/33 5/31/31
f 46/32/32 45/30/30 25/5/5 26/6/6
f 46/32/32 47/34/34 7/35/35 6/33/33
f 47/34/34 46/32/32 26/6/6 27/7/7
f 47/34/34 48/36/36 8/37/37 7/35/35
f 48/36/36 47/34/34 27/7/7 28/8/8
f 48/36/36 49/38/38 9/39/39 8/37/37
f 49/38/38 48/36/36 28/8/8 29/9/9
f 49/38/38 50/40/40 10/41/41 9/39/39
f 50/40/40 49/38/38 29/9/9 30/10/10
f 50/40/40 51/42/42 11/43/43 10/41/41
f 51/42/42 50/40/40 30/10/10 31/11/11
f 51/42/42 52/44/44 12/45/45 11/43/43
f 52/44/44 51/42/42 31/11/11 32/12/12
f 52/44/44 53/46/46 13/47/47 12/45/45
f 53/46/46 52/44/44 32/12/12 33/13/13
f 53/46/46 54/48/48 14/49/49 13/47/47
f 54/48/48 53/46/46 33/13/13 34/14/14
f 54/48/48 55/50/50 15/51/51 14/49/49
f 55/50/50 54/48/48 34/14/14 35/15/15
f 55/50/50 56/52/52 16/53/53 15/51/51
f 56/52/52 55/50/50 35/15/15 36/16/16
f 56/52/52 57/54/54 17/55/55 16/53/53
f 57/54/54 56/52/52 36/16/16 37/17/17
f 57/54/54 58/56/56 18/57/57 17/55/55
f 58/56/56 57/54/54 37/17/17 38/18/18
f 58/56/56 59/58/58 19/59/59 18/57/57
f 59/58/58 58/56/56 38/18/18 39/19/19
f 59/58/58 60/60/60 20/61/61 19/59/59
f 60/60/60 59/58/58 39/19/19 40/20/20
f 60/60/60 61/23/23 21/25/25 20/61/61
f 61/23/23 60/60/60 40/20/20 41/21/21
g default
v 0.000000 0.000000 0.000000
v 13.011932 8.153361 -4.227831
v 11.068610 8.153361 -8.041814
v 8.041815 8.153361 -11.068609
v 4.227833 8.153361 -13.011930
v 0.000000 8.153361 -13.681553
v -4.227831 8.153361 -13.011930
v -8.041812 8.153361 -11.068603
v -11.068604 8.153361 -8.041811
v -13.011928 8.153361 -4.227830
v -13.681549 8.153361 0.000001
v -13.011928 8.153361 4.227832
v -11.068604 8.153361 8.041812
v -8.041811 8.153361 11.068603
v -4.227830 8.153361 13.011928
v 0.000000 8.153361 13.681549
v 4.227829 8.153361 13.011928
v 8.041809 8.153361 11.068603
v 11.068602 8.153361 8.041811
v 13.011925 8.153361 4.227831
v 13.681545 8.153361 0.000001
v 9.593456 0.223384 -3.117103
v 8.160682 0.223384 -5.929082
v 5.929082 0.223384 -8.160681
v 3.117103 0.223384 -9.593456
v 0.000000 0.223384 -10.087155
v -3.117103 0.223384 -9.593454
v -5.929080 0.223384 -8.160679
v -8.160679 0.223384 -5.929080
v -9.593452 0.223384 -3.117102
v -10.087154 0.223384 0.000000
v -9.593452 0.223384 3.117102
v -8.160679 0.223384 5.929080
v -5.929080 0.223384 8.160677
v -3.117102 0.223384 9.593451
v -0.000000 0.223384 10.087152
v 3.117101 0.223384 9.593451
v 5.929078 0.223384 8.160677
v 8.160676 0.223384 5.929079
v 9.593451 0.223384 3.117101
v 10.087151 0.223384 -0.000000
v 12.848436 4.313478 -4.174708
v 10.929532 4.313478 -7.940767
v 7.940769 4.313478 -10.929530
v 4.174710 4.313478 -12.848433
v 0.000000 4.313478 -13.509644
v -4.174708 4.313478 -12.848433
v -7.940766 4.313478 -10.929525
v -10.929525 4.313478 -7.940765
v -12.848432 4.313478 -4.174707
v -13.509640 4.313478 0.000001
v -12.848432 4.313478 4.174709
v -10.929525 4.313478 7.940766
v -7.940765 4.313478 10.929525
v -4.174707 4.313478 12.848432
v -0.000000 4.313478 13.509640
v 4.174706 4.313478 12.848432
v 7.940763 4.313478 10.929523
v 10.929523 4.313478 7.940765
v 12.848429 4.313478 4.174708
v 13.509636 4.313478 0.000001
vt 0.812585 0.756991
vt 0.796809 0.761990
vt 0.788916 0.709687
vt 0.826044 0.747362
vt 0.835869 0.734045
vt 0.841098 0.718343
vt 0.841219 0.701795
vt 0.836220 0.686019
vt 0.826591 0.672560
vt 0.813274 0.662735
vt 0.797573 0.657506
vt 0.781024 0.657385
vt 0.765248 0.662384
vt 0.751789 0.672013
vt 0.741964 0.685330
vt 0.736735 0.701031
vt 0.736614 0.717580
vt 0.741613 0.733356
vt 0.751242 0.746815
vt 0.764559 0.756640
vt 0.780261 0.761869
vt 0.801409 0.789503
vt 0.776133 0.789456
vt 0.804780 0.809885
vt 0.773041 0.809883
vt 0.825462 0.781736
vt 0.834967 0.800079
vt 0.845937 0.766916
vt 0.860645 0.781424
vt 0.860831 0.746495
vt 0.879302 0.755748
vt 0.868686 0.722471
vt 0.889112 0.725563
vt 0.868732 0.697195
vt 0.889114 0.693824
vt 0.860965 0.673143
vt 0.879308 0.663638
vt 0.846146 0.652667
vt 0.860654 0.637959
vt 0.825725 0.637773
vt 0.834978 0.619302
vt 0.801700 0.629918
vt 0.804793 0.609492
vt 0.776425 0.629872
vt 0.773054 0.609490
vt 0.752372 0.637639
vt 0.742867 0.619296
vt 0.731896 0.652458
vt 0.717188 0.637950
vt 0.717002 0.672879
vt 0.698531 0.663626
vt 0.709147 0.696904
vt 0.688721 0.693812
vt 0.709101 0.722179
vt 0.688719 0.725551
vt 0.716868 0.746232
vt 0.698525 0.755737
vt 0.731687 0.766708
vt 0.717180 0.781416
vt 0.752109 0.781602
vt 0.742856 0.800073
vn 0.411072 -0.861290 -0.298661
vn 0.483245 -0.861290 -0.157015
vn -0.000000 -1.000000 0.000000
vn 0.298661 -0.861290 -0.411072
vn 0.157016 -0.861290 -0.483244
vn -0.000000 -0.861290 -0.508113
vn -0.157016 -0.861290 -0.483244
vn -0.298662 -0.861290 -0.411072
vn -0.411072 -0.861290 -0.298662
vn -0.483244 -0.861290 -0.157016
vn -0.508113 -0.861290 -0.000000
vn -0.483244 -0.861290 0.157016
vn -0.411072 -0.861290 0.298662
vn -0.298661 -0.861290 0.411072
vn -0.157016 -0.861290 0.483244
vn -0.000000 -0.861290 0.508113
vn 0.157016 -0.861290 0.483244
vn 0.298662 -0.861290 0.411072
vn 0.411072 -0.861290 0.298662
vn 0.483244 -0.861290 0.157016
vn 0.508113 -0.861290 0.000000
vn 0.879574 -0.380361 -0.285790
vn 0.924838 -0.380361 0.000001
vn 0.950105 -0.044725 -0.308707
vn 0.998999 -0.044725 0.000001
vn 0.748210 -0.380361 -0.543606
vn 0.808207 -0.044725 -0.587197
vn 0.543606 -0.380361 -0.748210
vn 0.587197 -0.044725 -0.808207
vn 0.285791 -0.380361 -0.879573
vn 0.308708 -0.044725 -0.950105
vn -0.000000 -0.380361 -0.924838
vn 0.000000 -0.044725 -0.998999
vn -0.285791 -0.380361 -0.879573
vn -0.308709 -0.044725 -0.950105
vn -0.543607 -0.380361 -0.748210
vn -0.587198 -0.044725 -0.808207
vn -0.748210 -0.380361 -0.543606
vn -0.808207 -0.044725 -0.587197
vn -0.879573 -0.380361 -0.285791
vn -0.950105 -0.044725 -0.308708
vn -0.924838 -0.380361 0.000000
vn -0.998999 -0.044725 0.000000
vn -0.879573 -0.380361 0.285791
vn -0.950105 -0.044725 0.308708
vn -0.748210 -0.380361 0.543607
vn -0.808207 -0.044725 0.587198
vn -0.543606 -0.380361 0.748210
vn -0.587197 -0.044725 0.808207
vn -0.285791 -0.380361 0.879573
vn -0.308708 -0.044725 0.950105
vn 0.000000 -0.380361 0.924838
vn 0.000000 -0.044725 0.998999
vn 0.285791 -0.380361 0.879573
vn 0.308708 -0.044725 0.950105
vn 0.543607 -0.380361 0.748210
vn 0.587197 -0.044725 0.808207
vn 0.748210 -0.380361 0.543607
vn 0.808207 -0.044725 0.587197
vn 0.879573 -0.380361 0.285791
vn 0.950105 -0.044725 0.308708
s 1
g LP Lantern Bottom_low
usemtl set2
f 84/62/62 83/63/63 62/64/64
f 85/65/65 84/62/62 62/64/64
f 86/66/66 85/65/65 62/64/64
f 87/67/67 86/66/66 62/64/64
f 88/68/68 87/67/67 62/64/64
f 89/69/69 88/68/68 62/64/64
f 90/70/70 89/69/69 62/64/64
f 91/71/71 90/70/70 62/64/64
f 92/72/72 91/71/71 62/64/64
f 93/73/73 92/72/72 62/64/64
f 94/74/74 93/73/73 62/64/64
f 95/75/75 94/74/74 62/64/64
f 96/76/76 95/75/75 62/64/64
f 97/77/77 96/76/76 62/64/64
f 98/78/78 97/77/77 62/64/64
f 99/79/79 98/78/78 62/64/64
f 100/80/80 99/79/79 62/64/64
f 101/81/81 100/80/80 62/64/64
f 102/82/82 101/81/81 62/64/64
f 83/63/63 102/82/82 62/64/64
f 103/83/83 122/84/84 102/82/82 83/63/63
f 122/84/84 103/83/83 63/85/85 82/86/86
f 103/83/83 104/87/87 64/88/88 63/85/85
f 104/87/87 103/83/83 83/63/63 84/62/62
f 104/87/87 105/89/89 65/90/90 64/88/88
f 105/89/89 104/87/87 84/62/62 85/65/65
f 105/89/89 106/91/91 66/92/92 65/90/90
f 106/91/91 105/89/89 85/65/65 86/66/66
f 106/91/91 107/93/93 67/94/94 66/92/92
f 107/93/93 106/91/91 86/66/66 87/67/67
f 107/93/93 108/95/95 68/96/96 67/94/94
f 108/95/95 107/93/93 87/67/67 88/68/68
f 108/95/95 109/97/97 69/98/98 68/96/96
f 109/97/97 108/95/95 88/68/68 89/69/69
f 109/97/97 110/99/99 70/100/100 69/98/98
f 110/99/99 109/97/97 89/69/69 90/70/70
f 110/99/99 111/101/101 71/102/102 70/100/100
f 111/101/101 110/99/99 90/70/70 91/71/71
f 111/101/101 112/103/103 72/104/104 71/102/102
f 112/103/103 111/101/101 91/71/71 92/72/72
f 112/103/103 113/105/105 73/106/106 72/104/104
f 113/105/105 112/103/103 92/72/72 93/73/73
f 113/105/105 114/107/107 74/108/108 73/106/106
f 114/107/107 113/105/105 93/73/73 94/74/74
f 114/107/107 115/109/109 75/110/110 74/108/108
f 115/109/109 114/107/107 94/74/74 95/75/75
f 115/109/109 116/111/111 76/112/112 75/110/110
f 116/111/111 115/109/109 95/75/75 96/76/76
f 116/111/111 117/113/113 77/114/114 76/112/112
f 117/113/113 116/111/111 96/76/76 97/77/77
f 117/113/113 118/115/115 78/116/116 77/114/114
f 118/115/115 117/113/113 97/77/77 98/78/78
f 118/115/115 119/117/117 79/118/118 78/116/116
f 119/117/117 118/115/115 98/78/78 99/79/79
f 119/117/117 120/119/119 80/120/120 79/118/118
f 120/119/119 119/117/117 99/79/79 100/80/80
f 120/119/119 121/121/121 81/122/122 80/120/120
f 121/121/121 120/119/119 100/80/80 101/81/81
f 121/121/121 122/84/84 82/86/86 81/122/122
f 122/84/84 121/121/121 101/81/81 102/82/82
g default
v -13.567230 105.583893 -4.408261
v -11.540970 105.583893 -8.385004
v -8.385005 105.583893 -11.540971
v -4.408254 105.583893 -13.567236
v 0.000001 105.583893 -14.265405
v 4.408259 105.583893 -13.567235
v 8.385003 105.583893 -11.540970
v 11.540969 105.583893 -8.385003
v 13.567230 105.583893 -4.408261
v 14.265399 105.583893 -0.000002
v 13.567230 105.583893 4.408252
v 11.540967 105.583893 8.384995
v 8.385002 105.583893 11.540962
v 4.408259 105.583893 13.567227
v 0.000002 105.583893 14.265396
v -4.408254 105.583893 13.567225
v -8.384996 105.583893 11.540962
v -11.540963 105.583893 8.384995
v -13.567225 105.583893 4.408252
v -14.265393 105.583893 -0.000002
v 0.000001 105.583893 -0.000002
v -6.396625 105.583893 12.554094
v 6.396631 105.583893 12.554094
v -21.854733 88.358650 -7.101035
v -18.590746 88.358650 -13.506966
v -13.506967 88.358650 -18.590744
v -7.101032 92.181206 -21.854729
v -0.000000 92.181206 -22.979420
v 7.101031 92.181206 -21.854727
v 13.506963 88.358650 -18.590740
v 18.590738 88.358650 -13.506963
v 21.854723 88.358650 -7.101030
v 22.979414 88.358650 0.000000
v 21.854723 88.358650 7.101030
v 18.590738 88.358650 13.506960
v 13.506961 88.358650 18.590736
v 10.303995 92.181206 20.222729
v 7.101030 92.181206 21.854719
v 0.000001 92.181206 22.979412
v -7.101027 92.181206 21.854719
v -10.303992 92.181206 20.222727
v -13.506957 88.358650 18.590734
v -18.590733 88.358650 13.506958
v -21.854717 88.358650 7.101028
v -22.979410 88.358650 -0.000002
v -23.456320 88.695374 -7.621420
v -19.953138 88.695374 -14.496802
v -14.495322 88.698341 -19.951099
v -7.616816 92.533134 -23.442148
v -0.000000 92.517929 -24.663429
v 7.616816 92.533134 -23.442146
v 14.495319 88.698341 -19.951096
v 19.953131 88.695374 -14.496799
v 23.456310 88.695374 -7.621417
v 24.663424 88.695374 0.000000
v 23.456310 88.695374 7.621417
v 19.953131 88.695374 14.496797
v 14.488277 88.711830 19.941402
v 11.181362 92.517929 21.642426
v 7.621417 92.517929 23.456306
v 0.000001 92.517929 24.663422
v -7.621415 92.517929 23.456306
v -11.181359 92.517929 21.642424
v -14.488275 88.711830 19.941401
v -19.953125 88.695374 14.496795
v -23.456305 88.695374 7.621416
v -24.663418 88.695374 -0.000000
v -23.256191 98.060310 -7.556394
v -24.452990 98.060310 -0.000000
v -23.256176 98.060310 7.556389
v -19.782885 98.060310 14.373107
v -14.373106 98.060310 19.782887
v -11.019002 98.062645 21.490774
v -7.556388 98.060310 23.256178
v 0.000001 98.060310 24.452993
v 7.556391 98.060310 23.256178
v 11.019005 98.062645 21.490776
v 14.373109 98.060310 19.782888
v 19.782890 98.060310 14.373109
v 23.256182 98.060310 7.556391
v 24.452995 98.060310 -0.000000
v 23.256182 98.060310 -7.556391
v 19.782890 98.060310 -14.373111
v 14.373112 98.060310 -19.782892
v 7.556393 98.060310 -23.256186
v 0.000000 98.060310 -24.453001
v -7.556393 98.060310 -23.256187
v -14.373115 98.060310 -19.782896
v -19.782898 98.060310 -14.373115
vt 0.633626 0.612753
vt 0.626063 0.635590
vt 0.081099 0.792851
vt 0.633764 0.588680
vt 0.626463 0.565733
vt 0.612395 0.546203
vt 0.592981 0.531964
vt 0.570121 0.524415
vt 0.546056 0.524293
vt 0.523142 0.531619
vt 0.503626 0.545659
vt 0.489426 0.565032
vt 0.481927 0.587833
vt 0.481829 0.611876
vt 0.489278 0.634767
vt 0.485545 0.623336
vt 0.503253 0.654268
vt 0.522568 0.668496
vt 0.545433 0.675938
vt 0.534002 0.672231
vt 0.569435 0.676120
vt 0.592302 0.668915
vt 0.611824 0.654950
vt 0.730783 0.942072
vt 0.776387 0.942072
vt 0.776387 0.951829
vt 0.730783 0.951829
vt 0.821999 0.942072
vt 0.821999 0.951829
vt 0.867610 0.942072
vt 0.867610 0.951829
vt 0.914278 0.942072
vt 0.914278 0.951829
vt 0.956835 0.942072
vt 0.002930 0.997070
vt 0.045472 0.987346
vt 0.045472 0.997070
vt 0.092086 0.987346
vt 0.092086 0.997070
vt 0.137612 0.987346
vt 0.137612 0.997070
vt 0.183242 0.987346
vt 0.183242 0.997070
vt 0.228877 0.987346
vt 0.228877 0.997070
vt 0.274150 0.987346
vt 0.274150 0.997070
vt 0.318252 0.987346
vt 0.707637 0.606365
vt 0.750021 0.597443
vt 0.750021 0.606365
vt 0.771834 0.570600
vt 0.771834 0.580011
vt 0.792588 0.570600
vt 0.792588 0.580011
vt 0.835434 0.570600
vt 0.835434 0.580011
vt 0.878328 0.570600
vt 0.878328 0.580011
vt 0.899074 0.570600
vt 0.899074 0.580011
vt 0.920862 0.597358
vt 0.920862 0.606266
vt 0.963215 0.597358
vt 0.641423 0.951829
vt 0.685528 0.942072
vt 0.685528 0.951829
vt 0.687032 0.666344
vt 0.730783 0.898200
vt 0.685528 0.898200
vt 0.963215 0.541641
vt 0.920862 0.541641
vt 0.899074 0.541641
vt 0.878328 0.541641
vt 0.835434 0.541641
vt 0.792588 0.541641
vt 0.771834 0.541641
vt 0.750021 0.541641
vt 0.318252 0.943426
vt 0.274150 0.943426
vt 0.228877 0.943426
vt 0.183242 0.943426
vt 0.137612 0.943426
vt 0.092086 0.943426
vt 0.045472 0.943426
vt 0.956835 0.898200
vt 0.914278 0.898200
vt 0.867610 0.898200
vt 0.821999 0.898200
vt 0.144334 0.838802
vt 0.151612 0.828786
vt 0.155443 0.768701
vt 0.151618 0.756926
vt 0.093485 0.714684
vt 0.068724 0.714682
vt 0.117034 0.722337
vt 0.137065 0.736893
vt 0.159268 0.780476
vt 0.159266 0.805237
vt 0.137056 0.848817
vt 0.117023 0.863370
vt 0.093473 0.871020
vt 0.068712 0.871018
vt 0.045163 0.863364
vt 0.025132 0.848809
vt 0.010580 0.828775
vt 0.002930 0.805225
vt 0.002932 0.780464
vt 0.010585 0.756915
vt 0.025141 0.736884
vt 0.045174 0.722332
vt 0.002930 0.987346
vt 0.002930 0.943426
vt 0.956835 0.951829
vt 0.776387 0.898200
vt 0.701119 0.623085
vt 0.701130 0.577589
vt 0.687060 0.534321
vt 0.660288 0.497545
vt 0.623453 0.470857
vt 0.580174 0.456871
vt 0.534697 0.456953
vt 0.491482 0.471097
vt 0.454777 0.497909
vt 0.428200 0.534747
vt 0.414403 0.577958
vt 0.414825 0.623191
vt 0.421185 0.644484
vt 0.428598 0.666261
vt 0.455164 0.702829
vt 0.491912 0.729182
vt 0.513569 0.736857
vt 0.534856 0.743503
vt 0.580141 0.743714
vt 0.623398 0.729791
vt 0.660250 0.703120
vt 0.707637 0.597443
vt 0.707637 0.541641
vt 0.641423 0.942072
vt 0.641423 0.898200
vt 0.963215 0.606266
vt 0.318252 0.997070
vt 0.612395 0.546203
vt 0.660288 0.497545
vn 0.000000 1.000000 0.000000
vn 0.000000 1.000000 0.000000
vn 0.000000 1.000000 -0.000000
vn 0.000000 1.000000 0.000000
vn 0.000000 1.000000 0.000000
vn 0.000000 1.000000 0.000000
vn 0.000000 1.000000 -0.000001
vn 0.000000 1.000000 -0.000001
vn 0.000000 1.000000 0.000000
vn 0.000000 1.000000 -0.000002
vn 0.000000 1.000000 -0.000000
vn 0.000000 1.000000 -0.000000
vn 0.000000 1.000000 -0.000001
vn 0.000000 1.000000 0.000001
vn 0.000000 1.000000 0.000001
vn 0.000000 1.000000 0.000001
vn 0.000000 1.000000 -0.000000
vn 0.000000 1.000000 -0.000000
vn 0.000000 1.000000 0.000000
vn 0.000000 1.000000 0.000000
vn 0.000000 1.000000 0.000000
vn 0.000000 1.000000 0.000000
vn 0.000000 1.000000 0.000000
vn -0.196072 -0.980589 0.000000
vn -0.186476 -0.980590 -0.060589
vn -0.186476 -0.980590 -0.060589
vn -0.196072 -0.980589 0.000000
vn -0.158900 -0.980496 -0.115665
vn -0.158899 -0.980496 -0.115667
vn 0.112642 -0.955215 -0.273634
vn 0.096463 -0.959213 -0.265717
vn 0.150140 -0.944475 -0.292275
vn 0.159183 -0.941661 -0.296540
vn -0.000000 -0.979592 -0.200998
vn -0.000000 -0.979592 -0.200998
vn -0.150140 -0.944477 -0.292270
vn -0.159183 -0.941662 -0.296534
vn -0.112642 -0.955216 -0.273632
vn -0.096462 -0.959214 -0.265714
vn 0.158900 -0.980496 -0.115667
vn 0.158899 -0.980496 -0.115669
vn 0.186476 -0.980589 -0.060590
vn 0.186476 -0.980590 -0.060590
vn 0.196072 -0.980590 -0.000001
vn 0.196072 -0.980589 -0.000001
vn 0.186476 -0.980590 0.060589
vn 0.186476 -0.980590 0.060589
vn 0.160159 -0.980062 0.117587
vn 0.160151 -0.980062 0.117601
vn 0.143286 -0.978988 0.145090
vn 0.143286 -0.978988 0.145090
vn -0.524319 -0.674506 0.519742
vn -0.524319 -0.674506 0.519742
vn -0.524319 -0.674505 0.519742
vn -0.524319 -0.674506 0.519742
vn 0.090081 -0.980117 0.176791
vn 0.050982 -0.980540 0.189584
vn 0.050982 -0.980540 0.189584
vn 0.090081 -0.980118 0.176791
vn -0.000000 -0.980589 0.196074
vn -0.000000 -0.980589 0.196074
vn -0.050982 -0.980539 0.189590
vn -0.050982 -0.980539 0.189590
vn -0.090081 -0.980117 0.176793
vn -0.090081 -0.980117 0.176793
vn 0.524318 -0.674505 0.519744
vn 0.524318 -0.674505 0.519744
vn 0.524318 -0.674505 0.519744
vn 0.524318 -0.674505 0.519744
vn -0.143286 -0.978988 0.145089
vn -0.160159 -0.980062 0.117587
vn -0.160151 -0.980062 0.117601
vn -0.143286 -0.978988 0.145089
vn -0.186476 -0.980589 0.060590
vn -0.186476 -0.980590 0.060590
vn -0.846585 0.455664 -0.275071
vn -0.890152 0.455664 0.000001
vn -0.594066 0.804416 0.000000
vn -0.564990 0.804417 -0.183575
vn -0.950817 0.022464 -0.308938
vn -0.999748 0.022464 0.000001
vn -0.846585 0.455664 0.275071
vn -0.564990 0.804417 0.183575
vn -0.950817 0.022464 0.308939
vn -0.720041 0.455624 0.523400
vn -0.480609 0.804416 0.349183
vn -0.808665 0.022089 0.587854
vn -0.564160 0.471656 0.677690
vn -0.374767 0.804016 0.461636
vn -0.672224 0.022480 0.740007
vn -0.382713 0.549386 0.742769
vn -0.271838 0.800918 0.533512
vn -0.462952 0.030664 0.885853
vn -0.214014 0.566141 0.796042
vn -0.153999 0.804037 0.574290
vn -0.260049 0.037919 0.964851
vn -0.000000 0.567660 0.823263
vn -0.000000 0.804417 0.594066
vn -0.000000 0.037940 0.999280
vn 0.214014 0.566141 0.796042
vn 0.153999 0.804037 0.574290
vn 0.260048 0.037919 0.964851
vn 0.382713 0.549385 0.742769
vn 0.271838 0.800917 0.533513
vn 0.462951 0.030664 0.885853
vn 0.564159 0.471656 0.677691
vn 0.374767 0.804016 0.461636
vn 0.672223 0.022480 0.740007
vn 0.720041 0.455624 0.523400
vn 0.480609 0.804417 0.349183
vn 0.808665 0.022089 0.587855
vn 0.846585 0.455664 0.275072
vn 0.564990 0.804416 0.183575
vn 0.950817 0.022464 0.308939
vn 0.890152 0.455664 0.000000
vn 0.594066 0.804416 0.000000
vn 0.999748 0.022464 -0.000000
vn 0.846585 0.455664 -0.275071
vn 0.564991 0.804417 -0.183575
vn 0.950817 0.022464 -0.308939
vn 0.720129 0.455657 -0.523249
vn 0.480609 0.804416 -0.349183
vn 0.808788 0.022399 -0.587674
vn 0.524534 0.479841 -0.703290
vn 0.349184 0.804416 -0.480609
vn 0.624598 0.024007 -0.780578
vn 0.272752 0.535638 -0.799187
vn 0.183576 0.804417 -0.564990
vn 0.353001 0.030562 -0.935124
vn 0.000000 0.567603 -0.823302
vn 0.000000 0.804417 -0.594066
vn -0.000000 0.036654 -0.999328
vn -0.272751 0.535637 -0.799187
vn -0.183576 0.804417 -0.564990
vn -0.353001 0.030562 -0.935124
vn -0.524534 0.479841 -0.703290
vn -0.349183 0.804417 -0.480609
vn -0.624597 0.024007 -0.780578
vn -0.720129 0.455658 -0.523249
vn -0.480609 0.804416 -0.349183
vn -0.808788 0.022399 -0.587674
s 1
g LP Lantern TopBody_low
usemtl set2
f 124/233/123 123/217/124 143/125/125
f 125/232/126 124/233/123 143/125/125
f 126/231/127 125/232/126 143/125/125
f 127/230/128 126/231/127 143/125/125
f 128/229/129 127/230/128 143/125/125
f 129/228/130 128/229/129 143/125/125
f 130/227/131 129/228/130 143/125/125
f 131/226/132 130/227/131 143/125/125
f 132/225/133 131/226/132 143/125/125
f 133/224/134 132/225/133 143/125/125
f 134/223/135 133/224/134 143/125/125
f 135/222/136 134/223/135 143/125/125
f 136/213/137 145/212/138 135/222/136 143/125/125
f 137/221/139 136/213/137 143/125/125
f 138/220/140 137/221/139 143/125/125
f 139/215/141 144/214/142 138/220/140 143/125/125
f 140/219/143 139/215/141 143/125/125
f 141/218/144 140/219/143 143/125/125
f 142/216/145 141/218/144 143/125/125
f 123/217/124 142/216/145 143/125/125
s 2
f 189/146/146 168/147/147 146/148/148 167/149/149
f 168/147/147 169/150/150 147/151/151 146/148/148
f 169/150/150 170/152/152 148/153/153 147/151/151
f 170/152/152 171/154/154 149/155/155 148/153/153
f 171/154/154 172/156/156 150/236/157 149/155/155
f 172/234/156 173/158/158 151/159/159 150/157/157
f 173/158/158 174/160/160 152/161/161 151/159/159
f 174/160/160 175/162/162 153/163/163 152/161/161
f 175/162/162 176/164/164 154/165/165 153/163/163
f 176/164/164 177/166/166 155/167/167 154/165/165
f 177/166/166 178/168/168 156/169/169 155/167/167
f 178/168/168 179/170/170 157/264/171 156/169/169
f 179/259/170 180/172/172 158/173/173 157/171/171
s off
f 180/172/174 181/174/175 159/175/176 158/173/177
s 3
f 181/174/178 182/176/179 160/177/180 159/175/181
f 182/176/179 183/178/182 161/179/183 160/177/180
f 183/178/182 184/180/184 162/181/185 161/179/183
f 184/180/184 185/182/186 163/183/187 162/181/185
s off
f 185/182/188 186/184/189 164/185/190 163/183/191
s 2
f 186/184/192 187/186/193 165/263/194 164/185/195
f 187/261/193 188/188/196 166/189/197 165/187/194
f 188/188/196 189/146/146 167/149/149 166/189/197
s 5
f 190/190/198 191/258/199 142/145/200 123/124/201
f 191/191/199 190/237/198 168/147/202 189/146/203
f 191/258/199 192/257/204 141/144/205 142/145/200
f 192/192/204 191/191/199 189/146/203 188/188/206
f 192/257/204 193/256/207 140/143/208 141/144/205
f 193/262/207 192/192/204 188/188/206 187/261/209
f 193/256/207 194/255/210 139/141/211 140/143/208
f 194/194/210 193/193/207 187/186/209 186/184/212
f 194/255/210 195/254/213 144/142/214 139/141/211
f 195/195/213 194/194/210 186/184/212 185/182/215
f 195/254/213 196/253/216 138/140/217 144/142/214
f 196/196/216 195/195/213 185/182/215 184/180/218
f 196/253/216 197/252/219 137/139/220 138/140/217
f 197/197/219 196/196/216 184/180/218 183/178/221
f 197/252/219 198/251/222 136/137/223 137/139/220
f 198/198/222 197/197/219 183/178/221 182/176/224
f 198/251/222 199/250/225 145/138/226 136/137/223
f 199/199/225 198/198/222 182/176/224 181/174/227
f 199/250/225 200/249/228 135/136/229 145/138/226
f 200/200/228 199/199/225 181/174/227 180/172/230
f 200/249/228 201/248/231 134/135/232 135/136/229
f 201/260/231 200/200/228 180/172/230 179/259/233
f 201/248/231 202/247/234 133/134/235 134/135/232
f 202/202/234 201/201/231 179/170/233 178/168/236
f 202/247/234 203/246/237 132/133/238 133/134/235
f 203/203/237 202/202/234 178/168/236 177/166/239
f 203/246/237 204/245/240 131/132/241 132/133/238
f 204/204/240 203/203/237 177/166/239 176/164/242
f 204/245/240 205/244/243 130/131/244 131/132/241
f 205/205/243 204/204/240 176/164/242 175/162/245
f 205/244/243 206/243/246 129/130/247 130/131/244
f 206/206/246 205/205/243 175/162/245 174/160/248
f 206/243/246 207/242/249 128/129/250 129/130/247
f 207/207/249 206/206/246 174/160/248 173/158/251
f 207/242/249 208/241/252 127/128/253 128/129/250
f 208/235/252 207/207/249 173/158/251 172/234/254
f 208/266/252 209/240/255 126/127/256 127/265/253
f 209/209/255 208/208/252 172/156/254 171/154/257
f 209/240/255 210/239/258 125/126/259 126/127/256
f 210/210/258 209/209/255 171/154/257 170/152/260
f 210/239/258 211/238/261 124/123/262 125/126/259
f 211/211/261 210/210/258 170/152/260 169/150/263
f 190/237/198 211/211/261 169/150/263 168/147/202
f 211/238/261 190/190/198 123/124/201 124/123/262
g default
v 13.567230 8.153390 -4.408261
v 11.540970 8.153390 -8.385004
v 8.385005 8.153390 -11.540971
v 4.408254 8.153390 -13.567236
v -0.000001 8.153390 -14.265405
v -4.408259 8.153390 -13.567235
v -8.385003 8.153390 -11.540970
v -11.540969 8.153390 -8.385003
v -13.567230 8.153390 -4.408261
v -14.265399 8.153390 -0.000002
v -13.567230 8.153390 4.408252
v -11.540967 8.153390 8.384995
v -8.385002 8.153390 11.540962
v -4.408259 8.153390 13.567227
v -0.000002 8.153390 14.265396
v 4.408254 8.153390 13.567225
v 8.384996 8.153390 11.540962
v 11.540963 8.153390 8.384995
v 13.567225 8.153390 4.408252
v 14.265393 8.153390 -0.000002
v -0.000001 8.153390 -0.000002
v 23.780556 15.389255 -7.726770
v 25.004339 15.389255 0.000000
v 23.780540 15.389255 7.726766
v 20.228935 15.389255 14.697183
v 14.697182 15.389255 20.228937
v 7.726765 15.389255 23.780542
v -0.000001 15.389255 25.004343
v -7.726768 15.389255 23.780542
v -14.697185 15.389255 20.228939
v -20.228941 15.389255 14.697185
v -23.780546 15.389255 7.726768
v -25.004345 15.389255 0.000000
v -23.780546 15.389255 -7.726768
v -20.228941 15.389255 -14.697186
v -14.697187 15.389255 -20.228943
v -7.726769 15.389255 -23.780550
v 0.000000 15.389255 -25.004351
v 7.726769 15.389255 -23.780552
v 14.697190 15.389255 -20.228947
v 20.228949 15.389255 -14.697190
v -6.396631 8.153390 12.554094
v -11.211976 15.389255 22.004742
v 6.396625 8.153390 12.554094
v 11.211973 15.389255 22.004740
v 21.854733 25.378632 -7.101035
v 18.590746 25.378632 -13.506966
v 13.506967 25.378632 -18.590744
v 7.101032 29.201187 -21.854729
v 0.000000 29.201187 -22.979420
v -7.101031 29.201187 -21.854727
v -13.506963 25.378632 -18.590740
v -18.590738 25.378632 -13.506963
v -21.854723 25.378632 -7.101030
v -22.979414 25.378632 0.000000
v -21.854723 25.378632 7.101030
v -18.590738 25.378632 13.506960
v -13.506961 25.378632 18.590736
v -10.303995 29.201187 20.222729
v -7.101030 29.201187 21.854719
v -0.000001 29.201187 22.979412
v 7.101027 29.201187 21.854719
v 10.303992 29.201187 20.222727
v 13.506957 25.378632 18.590734
v 18.590733 25.378632 13.506958
v 21.854717 25.378632 7.101028
v 22.979410 25.378632 -0.000002
v 23.473598 25.059851 -7.627034
v 19.967834 25.059851 -14.507480
v 14.499191 25.045450 -19.956425
v 7.626297 28.879599 -23.471327
v 0.000000 28.882406 -24.681597
v -7.626297 28.879599 -23.471325
v -14.499187 25.045450 -19.956421
v -19.967827 25.059851 -14.507476
v -23.473589 25.059851 -7.627031
v -24.681591 25.059851 0.000000
v -23.473589 25.059851 7.627031
v -19.967827 25.059851 14.507474
v -14.488040 25.025049 19.941076
v -10.951510 28.882406 21.779678
v -7.627031 28.882406 23.473585
v -0.000001 28.882406 24.681589
v 7.627028 28.882406 23.473585
v 10.951508 28.882406 21.779676
v 14.488037 25.025049 19.941074
v 19.967821 25.059851 14.507472
v 23.473583 25.059851 7.627029
v 24.681585 25.059851 -0.000000
vt 0.665655 0.887003
vt 0.685688 0.872450
vt 0.501070 0.898200
vt 0.455691 0.898200
vt 0.700244 0.852419
vt 0.545839 0.898200
vt 0.707897 0.828870
vt 0.590903 0.898200
vt 0.707899 0.804109
vt 0.002930 0.874567
vt 0.700249 0.780559
vt 0.047163 0.874567
vt 0.685696 0.760526
vt 0.092211 0.874567
vt 0.665665 0.745970
vt 0.136854 0.874567
vt 0.642116 0.738317
vt 0.182098 0.874567
vt 0.617355 0.738315
vt 0.226966 0.874567
vt 0.593805 0.745965
vt 0.270952 0.874567
vt 0.573772 0.760518
vt 0.688719 0.457427
vt 0.559216 0.780549
vt 0.731226 0.457427
vt 0.142778 0.578317
vt 0.754350 0.457427
vt 0.139028 0.589877
vt 0.551561 0.828859
vt 0.819183 0.457427
vt 0.775783 0.457427
vt 0.559211 0.852409
vt 0.862567 0.457427
vt 0.153327 0.647099
vt 0.884039 0.457427
vt 0.160460 0.656928
vt 0.593795 0.886998
vt 0.324541 0.898200
vt 0.907138 0.457427
vt 0.617344 0.894651
vt 0.366804 0.898200
vt 0.642105 0.894653
vt 0.410789 0.898200
vt 0.629730 0.816484
vt 0.455691 0.954205
vt 0.410789 0.954205
vt 0.455691 0.963737
vt 0.410789 0.963737
vt 0.501070 0.954205
vt 0.501070 0.963737
vt 0.545839 0.954205
vt 0.545839 0.963737
vt 0.590903 0.954205
vt 0.590903 0.963737
vt 0.002930 0.930378
vt 0.002930 0.939879
vt 0.047163 0.930378
vt 0.047163 0.939879
vt 0.092211 0.930378
vt 0.092211 0.939879
vt 0.136854 0.930378
vt 0.136854 0.939879
vt 0.182098 0.930378
vt 0.182098 0.939879
vt 0.226966 0.930378
vt 0.226966 0.939879
vt 0.270952 0.930378
vt 0.270952 0.939879
vt 0.688719 0.514952
vt 0.688719 0.524530
vt 0.731226 0.514952
vt 0.731226 0.524530
vt 0.754350 0.528795
vt 0.754350 0.538094
vt 0.775783 0.528795
vt 0.775783 0.538094
vt 0.819183 0.528795
vt 0.819183 0.538094
vt 0.862567 0.528795
vt 0.862567 0.538094
vt 0.884039 0.528795
vt 0.884039 0.538094
vt 0.907138 0.514594
vt 0.907138 0.524186
vt 0.324541 0.954205
vt 0.324541 0.963737
vt 0.366804 0.954205
vt 0.366804 0.963737
vt 0.566487 0.862425
vt 0.573764 0.872442
vt 0.555389 0.792323
vt 0.551563 0.804098
vt 0.227234 0.679215
vt 0.250381 0.671848
vt 0.202970 0.679034
vt 0.179983 0.671341
vt 0.146205 0.637248
vt 0.138865 0.614132
vt 0.146555 0.566745
vt 0.160927 0.547148
vt 0.180617 0.532967
vt 0.203744 0.525572
vt 0.228043 0.525695
vt 0.251127 0.533327
vt 0.270725 0.547728
vt 0.284922 0.567484
vt 0.292327 0.590659
vt 0.292216 0.614984
vt 0.284551 0.638079
vt 0.270134 0.657674
vt 0.635253 0.954205
vt 0.635253 0.963737
vt 0.361955 0.579191
vt 0.096746 0.688333
vt 0.083627 0.669309
vt 0.076068 0.557143
vt 0.083680 0.535352
vt 0.320222 0.707386
vt 0.282597 0.734643
vt 0.347571 0.669827
vt 0.361955 0.625646
vt 0.635253 0.898200
vt 0.347584 0.535016
vt 0.320260 0.497454
vt 0.282665 0.470183
vt 0.238484 0.455880
vt 0.192059 0.455947
vt 0.147963 0.470379
vt 0.110574 0.497754
vt 0.069188 0.579229
vt 0.069144 0.625424
vt 0.110534 0.706933
vt 0.147832 0.734319
vt 0.191927 0.748807
vt 0.238384 0.748921
vt 0.949654 0.514594
vt 0.949654 0.524186
vt 0.315758 0.930378
vt 0.301413 0.939879
vt 0.315758 0.874567
vt 0.949654 0.457427
vn 0.531439 -0.829311 -0.172674
vn 0.452069 -0.829311 -0.328447
vn 0.452069 -0.829311 -0.328447
vn 0.531439 -0.829311 -0.172674
vn 0.328447 -0.829311 -0.452069
vn 0.328447 -0.829311 -0.452069
vn 0.172674 -0.829311 -0.531439
vn 0.172674 -0.829311 -0.531439
vn -0.000000 -0.829311 -0.558788
vn 0.000000 -0.829311 -0.558788
vn -0.172674 -0.829311 -0.531439
vn -0.172675 -0.829311 -0.531439
vn -0.328448 -0.829311 -0.452069
vn -0.328448 -0.829311 -0.452069
vn -0.452069 -0.829311 -0.328447
vn -0.452069 -0.829311 -0.328447
vn -0.531439 -0.829311 -0.172674
vn -0.531439 -0.829311 -0.172674
vn -0.558788 -0.829311 0.000000
vn -0.558788 -0.829311 0.000000
vn -0.531439 -0.829311 0.172674
vn -0.531439 -0.829311 0.172675
vn -0.452069 -0.829311 0.328447
vn -0.452069 -0.829311 0.328447
vn -0.352161 -0.828950 0.434539
vn -0.352161 -0.828950 0.434539
vn -0.255847 -0.826082 0.502127
vn -0.255847 -0.826082 0.502127
vn -0.144554 -0.828950 0.540320
vn 0.000000 -0.829311 0.558788
vn 0.000000 -0.829311 0.558788
vn -0.144554 -0.828950 0.540320
vn 0.144554 -0.828950 0.540320
vn 0.144554 -0.828950 0.540320
vn 0.255847 -0.826082 0.502127
vn 0.255847 -0.826082 0.502127
vn 0.352161 -0.828950 0.434539
vn 0.452069 -0.829311 0.328447
vn 0.452069 -0.829311 0.328447
vn 0.352161 -0.828950 0.434539
vn 0.531439 -0.829311 0.172674
vn 0.531439 -0.829311 0.172674
vn 0.558788 -0.829311 0.000001
vn 0.558788 -0.829311 0.000000
vn 0.000000 -1.000000 0.000000
vn 0.000000 -1.000000 0.000000
vn 0.000000 -1.000000 -0.000000
vn 0.000000 -1.000000 0.000000
vn 0.000000 -1.000000 0.000000
vn 0.000000 -1.000000 0.000000
vn 0.000000 -1.000000 0.000000
vn 0.000000 -1.000000 0.000000
vn 0.000000 -1.000000 0.000000
vn 0.000000 -1.000000 0.000000
vn 0.000000 -1.000000 0.000000
vn 0.000000 -1.000000 0.000000
vn 0.000000 -1.000000 -0.000000
vn 0.000000 -1.000000 -0.000000
vn 0.000000 -1.000000 -0.000000
vn 0.000000 -1.000000 0.000000
vn 0.000000 -1.000000 -0.000000
vn 0.000000 -1.000000 0.000000
vn 0.000000 -1.000000 0.000000
vn 0.000000 -1.000000 0.000000
vn 0.000000 -1.000000 -0.000000
vn 0.000000 -1.000000 0.000000
vn 0.000000 -1.000000 0.000000
vn 0.950528 0.033356 -0.308844
vn 0.999444 0.033356 0.000001
vn 0.999444 0.033356 0.000001
vn 0.950528 0.033356 -0.308844
vn 0.184078 0.982912 0.000000
vn 0.175069 0.982912 -0.056883
vn 0.175069 0.982912 -0.056883
vn 0.184078 0.982912 0.000000
vn 0.150268 0.982479 -0.110249
vn 0.150260 0.982479 -0.110262
vn 0.808379 0.033735 -0.587695
vn 0.808325 0.033735 -0.587769
vn 0.318585 0.947039 -0.040266
vn 0.326789 0.944420 -0.035786
vn 0.563314 0.030720 -0.825672
vn 0.579018 0.031077 -0.814722
vn 0.283713 0.957134 -0.058327
vn 0.268703 0.960941 -0.066269
vn 0.274703 0.025730 -0.961185
vn 0.300824 0.026134 -0.953322
vn -0.000000 0.982747 -0.184954
vn -0.000000 0.982747 -0.184954
vn 0.000000 0.024004 -0.999712
vn 0.000000 0.024004 -0.999712
vn -0.283713 0.957134 -0.058327
vn -0.268704 0.960941 -0.066269
vn -0.274703 0.025730 -0.961185
vn -0.300824 0.026134 -0.953322
vn -0.318586 0.947038 -0.040267
vn -0.326789 0.944420 -0.035786
vn -0.563315 0.030720 -0.825671
vn -0.579019 0.031077 -0.814722
vn -0.150268 0.982479 -0.110250
vn -0.150260 0.982479 -0.110263
vn -0.808379 0.033735 -0.587695
vn -0.808326 0.033735 -0.587768
vn -0.175069 0.982912 -0.056883
vn -0.175069 0.982912 -0.056883
vn -0.950527 0.033356 -0.308845
vn -0.950527 0.033356 -0.308845
vn -0.184078 0.982912 0.000000
vn -0.184078 0.982912 0.000000
vn -0.999444 0.033356 -0.000000
vn -0.999444 0.033356 -0.000000
vn -0.175069 0.982912 0.056883
vn -0.175069 0.982912 0.056883
vn -0.950527 0.033356 0.308845
vn -0.950527 0.033356 0.308845
vn -0.152160 0.981859 0.113142
vn -0.152144 0.981857 0.113176
vn -0.808132 0.034245 0.588005
vn -0.808002 0.034246 0.588184
vn -0.138035 0.980212 0.141884
vn -0.138035 0.980212 0.141884
vn -0.600267 0.032396 0.799143
vn -0.622692 0.032918 0.781774
vn -0.681586 0.697743 -0.220442
vn -0.681586 0.697743 -0.220442
vn -0.681586 0.697743 -0.220442
vn -0.681586 0.697743 -0.220442
vn -0.458854 0.025304 0.888151
vn -0.461532 0.026210 0.886736
vn -0.084575 0.982494 0.165989
vn -0.047422 0.982863 0.178134
vn -0.047422 0.982863 0.178134
vn -0.084575 0.982494 0.165989
vn -0.257233 0.023878 0.966054
vn -0.257233 0.023878 0.966054
vn 0.000000 0.982912 0.184079
vn 0.000000 0.982912 0.184079
vn -0.000000 0.023913 0.999714
vn -0.000000 0.023913 0.999714
vn 0.047422 0.982863 0.178133
vn 0.047422 0.982863 0.178133
vn 0.257233 0.023878 0.966054
vn 0.257233 0.023878 0.966054
vn 0.084576 0.982494 0.165988
vn 0.084576 0.982494 0.165988
vn 0.458854 0.025304 0.888151
vn 0.461532 0.026210 0.886736
vn 0.681585 0.697744 -0.220443
vn 0.681585 0.697744 -0.220443
vn 0.681585 0.697744 -0.220443
vn 0.681585 0.697744 -0.220443
vn 0.600268 0.032396 0.799143
vn 0.622692 0.032918 0.781774
vn 0.138035 0.980212 0.141885
vn 0.152160 0.981859 0.113143
vn 0.152144 0.981857 0.113176
vn 0.138035 0.980212 0.141885
vn 0.808132 0.034245 0.588005
vn 0.808002 0.034246 0.588184
vn 0.175069 0.982912 0.056883
vn 0.175069 0.982912 0.056883
vn 0.950527 0.033356 0.308845
vn 0.950527 0.033356 0.308845
s 1
g LP Lantern BottomBody_low
usemtl set2
f 212/361/264 213/377/265 252/385/266 233/386/267
f 213/377/265 214/376/268 251/387/269 252/385/266
f 214/376/268 215/375/270 250/388/271 251/387/269
f 215/375/270 216/374/272 249/380/273 250/388/271
f 216/374/272 217/373/274 248/390/275 249/380/273
f 217/373/274 218/372/276 247/391/277 248/390/275
f 218/372/276 219/371/278 246/392/279 247/391/277
f 219/371/278 220/370/280 245/393/281 246/392/279
f 220/370/280 221/369/282 244/394/283 245/393/281
f 221/369/282 222/368/284 243/395/285 244/394/283
f 222/368/284 223/367/286 242/396/287 243/395/285
f 223/367/286 224/366/288 241/384/289 242/396/287
f 224/366/288 253/293/290 254/383/291 241/384/289
f 225/295/292 226/365/293 239/398/294 240/397/295
f 226/365/293 227/364/296 238/382/297 239/398/294
f 227/364/296 255/301/298 256/381/299 238/382/297
f 228/303/300 229/363/301 236/400/302 237/399/303
f 229/363/301 230/362/304 235/401/305 236/400/302
f 230/362/304 231/360/306 234/402/307 235/401/305
f 231/360/306 212/361/264 233/386/267 234/402/307
s 4
f 213/268/308 212/267/309 232/311/310
f 214/271/311 213/268/308 232/311/310
f 215/273/312 214/271/311 232/311/310
f 216/275/313 215/273/312 232/311/310
f 217/277/314 216/275/313 232/311/310
f 218/279/315 217/277/314 232/311/310
f 219/281/316 218/279/315 232/311/310
f 220/283/317 219/281/316 232/311/310
f 221/285/318 220/283/317 232/311/310
f 222/287/319 221/285/318 232/311/310
f 223/289/320 222/287/319 232/311/310
f 224/291/321 223/289/320 232/311/310
f 225/359/322 253/358/323 224/291/321 232/311/310
f 226/296/324 225/359/322 232/311/310
f 227/299/325 226/296/324 232/311/310
f 228/357/326 255/356/327 227/299/325 232/311/310
f 229/304/328 228/357/326 232/311/310
f 230/307/329 229/304/328 232/311/310
f 231/309/330 230/307/329 232/311/310
f 212/267/309 231/309/330 232/311/310
s 1
f 254/383/291 253/293/290 225/295/292 240/397/295
f 256/381/299 255/301/298 228/303/300 237/399/303
s 5
f 279/312/331 300/313/332 234/310/333 233/270/334
s 6
f 300/313/335 279/312/336 257/314/337 278/315/338
f 279/312/336 280/316/339 258/317/340 257/314/337
s 5
f 280/316/341 279/312/331 233/270/334 252/269/342
s 6
f 280/316/339 281/318/343 259/319/344 258/317/340
s 5
f 281/318/345 280/316/341 252/269/342 251/272/346
s 6
f 281/318/343 282/320/347 260/321/348 259/319/344
s 5
f 282/320/349 281/318/345 251/272/346 250/274/350
s 6
f 282/320/347 283/378/351 261/379/352 260/321/348
s 5
f 283/378/353 282/320/349 250/274/350 249/389/354
s 6
f 283/322/351 284/324/355 262/325/356 261/323/352
s 5
f 284/324/357 283/322/353 249/276/354 248/278/358
s 6
f 284/324/355 285/326/359 263/327/360 262/325/356
s 5
f 285/326/361 284/324/357 248/278/358 247/280/362
s 6
f 285/326/359 286/328/363 264/329/364 263/327/360
s 5
f 286/328/365 285/326/361 247/280/362 246/282/366
s 6
f 286/328/363 287/330/367 265/331/368 264/329/364
s 5
f 287/330/369 286/328/365 246/282/366 245/284/370
s 6
f 287/330/367 288/332/371 266/333/372 265/331/368
s 5
f 288/332/373 287/330/369 245/284/370 244/286/374
s 6
f 288/332/371 289/334/375 267/335/376 266/333/372
s 5
f 289/334/377 288/332/373 244/286/374 243/288/378
s 6
f 289/334/375 290/405/379 268/406/380 267/335/376
s 5
f 290/405/381 289/334/377 243/288/378 242/407/382
s 6
f 290/336/379 291/338/383 269/339/384 268/337/380
s 5
f 291/338/385 290/336/381 242/290/382 241/292/386
s off
f 291/338/387 292/340/388 270/341/389 269/339/390
s 5
f 292/340/391 291/338/385 241/292/386 254/294/392
s 7
f 292/340/393 293/342/394 271/343/395 270/341/396
s 5
f 293/342/397 292/340/391 254/294/392 240/298/398
s 7
f 293/342/394 294/344/399 272/345/400 271/343/395
s 5
f 294/344/401 293/342/397 240/298/398 239/297/402
s 7
f 294/344/399 295/346/403 273/347/404 272/345/400
s 5
f 295/346/405 294/344/401 239/297/402 238/300/406
s 7
f 295/346/403 296/348/407 274/349/408 273/347/404
s 5
f 296/348/409 295/346/405 238/300/406 256/302/410
s off
f 296/348/411 297/350/412 275/351/413 274/349/414
s 5
f 297/350/415 296/348/409 256/302/410 237/306/416
s 6
f 297/350/417 298/403/418 276/404/419 275/351/420
s 5
f 298/403/421 297/350/415 237/306/416 236/408/422
s 6
f 298/352/418 299/354/423 277/355/424 276/353/419
s 5
f 299/354/425 298/352/421 236/305/422 235/308/426
s 6
f 299/354/423 300/313/335 278/315/338 277/355/424
s 5
f 300/313/332 299/354/425 235/308/426 234/310/333
g default
v -18.262194 20.856287 14.494610
v -18.416803 21.255672 14.362297
v -18.657616 21.572626 14.156216
v -18.961056 21.776123 13.896537
v -19.297422 21.846245 13.608682
v -19.633787 21.776123 13.320826
v -19.937227 21.572626 13.061148
v -20.178040 21.255672 12.855066
v -20.332649 20.856287 12.722754
v -20.385925 20.413565 12.677162
v -20.332649 19.970842 12.722754
v -20.178040 19.571457 12.855066
v -19.937227 19.254503 13.061148
v -19.633787 19.051006 13.320827
v -19.297422 18.980886 13.608682
v -18.961056 19.051006 13.896537
v -18.657616 19.254503 14.156215
v -18.416803 19.571457 14.362297
v -18.262194 19.970842 14.494609
v -18.208920 20.413565 14.540201
v -21.160460 20.413565 15.785687
v -20.142097 20.791460 16.384460
v -20.274069 21.132362 16.271523
v -20.479618 21.402903 16.095617
v -20.738625 21.576603 15.873964
v -21.025736 21.636456 15.628260
v -21.312847 21.576603 15.382555
v -21.571856 21.402903 15.160901
v -21.777405 21.132362 14.984997
v -21.909374 20.791460 14.872058
v -21.954849 20.413565 14.833143
v -21.909374 20.035669 14.872058
v -21.777405 19.694767 14.984997
v -21.571856 19.424227 15.160902
v -21.312847 19.250528 15.382555
v -21.025738 19.190676 15.628260
v -20.738625 19.250528 15.873964
v -20.479618 19.424227 16.095617
v -20.274069 19.694767 16.271523
v -20.142097 20.035671 16.384460
v -20.096622 20.413565 16.423376
vt 0.863469 0.025452
vt 0.865546 0.025816
vt 0.868230 0.035234
vt 0.863116 0.035234
vt 0.865666 0.019096
vt 0.861611 0.024455
vt 0.858251 0.033653
vt 0.860152 0.022934
vt 0.854113 0.030647
vt 0.859233 0.021037
vt 0.851107 0.026509
vt 0.858945 0.018950
vt 0.849526 0.021645
vt 0.859316 0.016877
vt 0.849525 0.016530
vt 0.860308 0.015020
vt 0.851104 0.011665
vt 0.861826 0.013562
vt 0.854110 0.007526
vt 0.863719 0.012643
vt 0.858248 0.004517
vt 0.865802 0.012355
vt 0.863114 0.002934
vt 0.867873 0.012724
vt 0.868232 0.002931
vt 0.869729 0.013714
vt 0.873098 0.004515
vt 0.871188 0.015229
vt 0.877237 0.007524
vt 0.872109 0.017121
vt 0.880243 0.011665
vt 0.872400 0.019206
vt 0.881822 0.016531
vt 0.872033 0.021279
vt 0.881821 0.021646
vt 0.871043 0.023137
vt 0.880240 0.026511
vt 0.869527 0.024599
vt 0.877233 0.030648
vt 0.867633 0.025522
vt 0.873094 0.033654
vn 0.669186 0.308062 0.676230
vn 0.706258 0.000000 0.707955
vn 0.706258 -0.000000 0.707955
vn 0.669186 0.308062 0.676230
vn -0.514133 0.000000 0.857711
vn -0.520347 0.051622 0.852393
vn -0.650195 0.000001 0.759768
vn -0.538373 0.098198 0.836966
vn 0.561602 0.585966 0.584164
vn 0.561602 0.585965 0.584164
vn -0.566454 0.135153 0.812935
vn 0.394039 0.806509 0.440768
vn 0.394039 0.806509 0.440768
vn -0.601837 0.158881 0.782655
vn 0.182899 0.948108 0.260076
vn 0.182899 0.948108 0.260076
vn -0.641057 0.167058 0.749091
vn -0.051156 0.996900 0.059776
vn -0.051156 0.996900 0.059775
vn -0.680279 0.158881 0.715526
vn -0.285211 0.948108 -0.140522
vn -0.285211 0.948108 -0.140522
vn -0.715664 0.135154 0.685244
vn -0.496351 0.806511 -0.321209
vn -0.496351 0.806511 -0.321209
vn -0.743743 0.098188 0.661216
vn -0.663916 0.585965 -0.464608
vn -0.663916 0.585965 -0.464608
vn -0.761769 0.051624 0.645788
vn -0.771498 0.308059 -0.556678
vn -0.771498 0.308059 -0.556678
vn -0.767982 0.000000 0.640471
vn -0.808567 -0.000000 -0.588404
vn -0.808567 -0.000000 -0.588404
vn -0.761769 -0.051624 0.645788
vn -0.771498 -0.308059 -0.556678
vn -0.771498 -0.308059 -0.556678
vn -0.743744 -0.098186 0.661215
vn -0.663915 -0.585965 -0.464610
vn -0.663915 -0.585964 -0.464610
vn -0.715663 -0.135152 0.685245
vn -0.496350 -0.806511 -0.321211
vn -0.496350 -0.806511 -0.321211
vn -0.680280 -0.158881 0.715525
vn -0.285210 -0.948108 -0.140520
vn -0.285210 -0.948108 -0.140520
vn -0.641057 -0.167057 0.749092
vn -0.051157 -0.996900 0.059779
vn -0.051157 -0.996900 0.059779
vn -0.601834 -0.158880 0.782658
vn 0.182897 -0.948108 0.260076
vn 0.182897 -0.948108 0.260076
vn -0.566453 -0.135152 0.812936
vn 0.394039 -0.806511 0.440765
vn 0.394039 -0.806511 0.440765
vn -0.538374 -0.098197 0.836965
vn 0.561603 -0.585966 0.584163
vn 0.561603 -0.585966 0.584163
vn -0.520343 -0.051622 0.852396
vn 0.669187 -0.308061 0.676231
vn 0.669187 -0.308061 0.676231
s 1
g LP Lantern Screw1_low group3
usemtl set2
f 322/409/427 341/410/428 320/411/429 301/412/430
s 2
f 341/410/431 322/409/432 321/413/433
f 322/409/432 323/414/434 321/413/433
s 1
f 323/414/435 322/409/427 301/412/430 302/415/436
s 2
f 323/414/434 324/416/437 321/413/433
s 1
f 324/416/438 323/414/435 302/415/436 303/417/439
s 2
f 324/416/437 325/418/440 321/413/433
s 1
f 325/418/441 324/416/438 303/417/439 304/419/442
s 2
f 325/418/440 326/420/443 321/413/433
s 1
f 326/420/444 325/418/441 304/419/442 305/421/445
s 2
f 326/420/443 327/422/446 321/413/433
s 1
f 327/422/447 326/420/444 305/421/445 306/423/448
s 2
f 327/422/446 328/424/449 321/413/433
s 1
f 328/424/450 327/422/447 306/423/448 307/425/451
s 2
f 328/424/449 329/426/452 321/413/433
s 1
f 329/426/453 328/424/450 307/425/451 308/427/454
s 2
f 329/426/452 330/428/455 321/413/433
s 1
f 330/428/456 329/426/453 308/427/454 309/429/457
s 2
f 330/428/455 331/430/458 321/413/433
s 1
f 331/430/459 330/428/456 309/429/457 310/431/460
s 2
f 331/430/458 332/432/461 321/413/433
s 1
f 332/432/462 331/430/459 310/431/460 311/433/463
s 2
f 332/432/461 333/434/464 321/413/433
s 1
f 333/434/465 332/432/462 311/433/463 312/435/466
s 2
f 333/434/464 334/436/467 321/413/433
s 1
f 334/436/468 333/434/465 312/435/466 313/437/469
s 2
f 334/436/467 335/438/470 321/413/433
s 1
f 335/438/471 334/436/468 313/437/469 314/439/472
s 2
f 335/438/470 336/440/473 321/413/433
s 1
f 336/440/474 335/438/471 314/439/472 315/441/475
s 2
f 336/440/473 337/442/476 321/413/433
s 1
f 337/442/477 336/440/474 315/441/475 316/443/478
s 2
f 337/442/476 338/444/479 321/413/433
s 1
f 338/444/480 337/442/477 316/443/478 317/445/481
s 2
f 338/444/479 339/446/482 321/413/433
s 1
f 339/446/483 338/444/480 317/445/481 318/447/484
s 2
f 339/446/482 340/448/485 321/413/433
s 1
f 340/448/486 339/446/483 318/447/484 319/449/487
s 2
f 340/448/485 341/410/431 321/413/433
s 1
f 341/410/428 340/448/486 319/449/487 320/411/429
g default
v 18.262194 20.856287 14.494610
v 18.416803 21.255672 14.362297
v 18.657616 21.572626 14.156216
v 18.961056 21.776123 13.896537
v 19.297422 21.846245 13.608682
v 19.633787 21.776123 13.320826
v 19.937227 21.572626 13.061148
v 20.178040 21.255672 12.855066
v 20.332649 20.856287 12.722754
v 20.385925 20.413565 12.677162
v 20.332649 19.970842 12.722754
v 20.178040 19.571457 12.855066
v 19.937227 19.254503 13.061148
v 19.633787 19.051006 13.320827
v 19.297422 18.980886 13.608682
v 18.961056 19.051006 13.896537
v 18.657616 19.254503 14.156215
v 18.416803 19.571457 14.362297
v 18.262194 19.970842 14.494609
v 18.208920 20.413565 14.540201
v 21.160460 20.413565 15.785687
v 20.142097 20.791458 16.384460
v 20.274069 21.132362 16.271521
v 20.479618 21.402903 16.095617
v 20.738625 21.576603 15.873964
v 21.025736 21.636456 15.628260
v 21.312847 21.576603 15.382555
v 21.571856 21.402903 15.160901
v 21.777405 21.132362 14.984997
v 21.909374 20.791458 14.872058
v 21.954849 20.413565 14.833143
v 21.909374 20.035671 14.872058
v 21.777405 19.694767 14.984997
v 21.571856 19.424227 15.160902
v 21.312847 19.250528 15.382555
v 21.025738 19.190676 15.628260
v 20.738625 19.250528 15.873964
v 20.479618 19.424227 16.095617
v 20.274069 19.694767 16.271521
v 20.142097 20.035671 16.384460
v 20.096622 20.413565 16.423376
vt 0.934610 0.018952
vt 0.934906 0.021039
vt 0.926779 0.026503
vt 0.925198 0.021639
vt 0.941334 0.019076
vt 0.935830 0.022933
vt 0.929785 0.030641
vt 0.937293 0.024449
vt 0.933923 0.033647
vt 0.939152 0.025439
vt 0.938787 0.035228
vt 0.941226 0.025806
vt 0.943902 0.035229
vt 0.943311 0.025515
vt 0.948767 0.033649
vt 0.945204 0.024593
vt 0.952907 0.030642
vt 0.946719 0.023133
vt 0.955915 0.026504
vt 0.947708 0.021276
vt 0.957498 0.021638
vt 0.948077 0.019205
vt 0.957501 0.016520
vt 0.947787 0.017122
vt 0.955916 0.011654
vt 0.946869 0.015230
vt 0.952906 0.007516
vt 0.945410 0.013713
vt 0.948766 0.004510
vt 0.943554 0.012721
vt 0.943900 0.002931
vt 0.941481 0.012351
vt 0.938785 0.002932
vt 0.939395 0.012639
vt 0.933921 0.004514
vt 0.937499 0.013559
vt 0.929784 0.007521
vt 0.935980 0.015019
vt 0.926778 0.011660
vt 0.934984 0.016877
vt 0.925198 0.016524
vn -0.669186 0.308062 0.676230
vn -0.561602 0.585965 0.584165
vn -0.561602 0.585965 0.584165
vn -0.669186 0.308062 0.676230
vn 0.538370 0.098198 0.836968
vn 0.520345 0.051624 0.852395
vn 0.650194 0.000000 0.759768
vn -0.394039 0.806509 0.440768
vn -0.394039 0.806509 0.440768
vn 0.566452 0.135151 0.812937
vn -0.182899 0.948108 0.260076
vn -0.182899 0.948108 0.260076
vn 0.601838 0.158881 0.782655
vn 0.051156 0.996900 0.059776
vn 0.051157 0.996900 0.059775
vn 0.641058 0.167057 0.749091
vn 0.285211 0.948108 -0.140523
vn 0.285211 0.948108 -0.140523
vn 0.680279 0.158880 0.715526
vn 0.496351 0.806510 -0.321212
vn 0.496351 0.806510 -0.321212
vn 0.715664 0.135156 0.685243
vn 0.663915 0.585962 -0.464612
vn 0.663915 0.585962 -0.464613
vn 0.743743 0.098190 0.661215
vn 0.771498 0.308058 -0.556678
vn 0.771498 0.308058 -0.556678
vn 0.761768 0.051624 0.645790
vn 0.808569 0.000000 -0.588401
vn 0.808569 0.000000 -0.588401
vn 0.767980 -0.000000 0.640473
vn 0.771498 -0.308058 -0.556679
vn 0.771498 -0.308058 -0.556679
vn 0.761769 -0.051624 0.645788
vn 0.663915 -0.585964 -0.464611
vn 0.663915 -0.585964 -0.464611
vn 0.743744 -0.098188 0.661215
vn 0.496350 -0.806511 -0.321210
vn 0.496350 -0.806512 -0.321210
vn 0.715664 -0.135154 0.685243
vn 0.285210 -0.948108 -0.140521
vn 0.285210 -0.948108 -0.140521
vn 0.680281 -0.158881 0.715524
vn 0.051157 -0.996900 0.059779
vn 0.051157 -0.996900 0.059779
vn 0.641057 -0.167058 0.749091
vn -0.182897 -0.948108 0.260078
vn -0.182897 -0.948108 0.260078
vn 0.601835 -0.158880 0.782657
vn -0.394038 -0.806511 0.440765
vn -0.394039 -0.806511 0.440765
vn 0.566453 -0.135152 0.812936
vn -0.561603 -0.585966 0.584163
vn -0.561603 -0.585966 0.584163
vn 0.538372 -0.098198 0.836966
vn -0.669187 -0.308060 0.676231
vn -0.669187 -0.308061 0.676231
vn 0.520342 -0.051624 0.852396
vn -0.706258 0.000000 0.707954
vn -0.706258 -0.000000 0.707954
vn 0.514131 -0.000000 0.857712
s 1
g LP Lantern group3 Screw2_low
usemtl set2
f 363/450/488 364/451/489 343/452/490 342/453/491
s 2
f 364/451/492 363/450/493 362/454/494
s 1
f 364/451/489 365/455/495 344/456/496 343/452/490
s 2
f 365/455/497 364/451/492 362/454/494
s 1
f 365/455/495 366/457/498 345/458/499 344/456/496
s 2
f 366/457/500 365/455/497 362/454/494
s 1
f 366/457/498 367/459/501 346/460/502 345/458/499
s 2
f 367/459/503 366/457/500 362/454/494
s 1
f 367/459/501 368/461/504 347/462/505 346/460/502
s 2
f 368/461/506 367/459/503 362/454/494
s 1
f 368/461/504 369/463/507 348/464/508 347/462/505
s 2
f 369/463/509 368/461/506 362/454/494
s 1
f 369/463/507 370/465/510 349/466/511 348/464/508
s 2
f 370/465/512 369/463/509 362/454/494
s 1
f 370/465/510 371/467/513 350/468/514 349/466/511
s 2
f 371/467/515 370/465/512 362/454/494
s 1
f 371/467/513 372/469/516 351/470/517 350/468/514
s 2
f 372/469/518 371/467/515 362/454/494
s 1
f 372/469/516 373/471/519 352/472/520 351/470/517
s 2
f 373/471/521 372/469/518 362/454/494
s 1
f 373/471/519 374/473/522 353/474/523 352/472/520
s 2
f 374/473/524 373/471/521 362/454/494
s 1
f 374/473/522 375/475/525 354/476/526 353/474/523
s 2
f 375/475/527 374/473/524 362/454/494
s 1
f 375/475/525 376/477/528 355/478/529 354/476/526
s 2
f 376/477/530 375/475/527 362/454/494
s 1
f 376/477/528 377/479/531 356/480/532 355/478/529
s 2
f 377/479/533 376/477/530 362/454/494
s 1
f 377/479/531 378/481/534 357/482/535 356/480/532
s 2
f 378/481/536 377/479/533 362/454/494
s 1
f 378/481/534 379/483/537 358/484/538 357/482/535
s 2
f 379/483/539 378/481/536 362/454/494
s 1
f 379/483/537 380/485/540 359/486/541 358/484/538
s 2
f 380/485/542 379/483/539 362/454/494
s 1
f 380/485/540 381/487/543 360/488/544 359/486/541
s 2
f 381/487/545 380/485/542 362/454/494
s 1
f 381/487/543 382/489/546 361/490/547 360/488/544
s 2
f 382/489/548 381/487/545 362/454/494
f 363/450/493 382/489/548 362/454/494
s 1
f 382/489/546 363/450/488 342/453/491 361/490/547
g default
v 18.262194 93.363747 14.494610
v 18.416803 93.763138 14.362297
v 18.657616 94.080086 14.156216
v 18.961056 94.283585 13.896537
v 19.297422 94.353706 13.608682
v 19.633787 94.283585 13.320826
v 19.937227 94.080086 13.061148
v 20.178040 93.763138 12.855066
v 20.332649 93.363747 12.722754
v 20.385925 92.921028 12.677162
v 20.332649 92.478302 12.722754
v 20.178040 92.078918 12.855066
v 19.937227 91.761963 13.061148
v 19.633787 91.558472 13.320827
v 19.297422 91.488350 13.608682
v 18.961056 91.558472 13.896537
v 18.657616 91.761963 14.156215
v 18.416803 92.078918 14.362297
v 18.262194 92.478302 14.494609
v 18.208920 92.921028 14.540201
v 21.160460 92.921028 15.785687
v 20.142097 93.298920 16.384462
v 20.274067 93.639832 16.271524
v 20.479618 93.910362 16.095621
v 20.738626 94.084068 15.873965
v 21.025738 94.143921 15.628261
v 21.312849 94.084068 15.382557
v 21.571857 93.910362 15.160901
v 21.777407 93.639832 14.984997
v 21.909378 93.298920 14.872059
v 21.954853 92.921028 14.833143
v 21.909378 92.543129 14.872059
v 21.777407 92.202225 14.984997
v 21.571857 91.931686 15.160902
v 21.312851 91.757988 15.382556
v 21.025738 91.698135 15.628261
v 20.738625 91.757988 15.873967
v 20.479618 91.931686 16.095621
v 20.274067 92.202225 16.271524
v 20.142097 92.543129 16.384462
v 20.096622 92.921028 16.423378
vt 0.896774 0.018952
vt 0.897070 0.021039
vt 0.888942 0.026503
vt 0.887362 0.021639
vt 0.903497 0.019076
vt 0.897994 0.022933
vt 0.891949 0.030641
vt 0.899457 0.024449
vt 0.896086 0.033647
vt 0.901316 0.025439
vt 0.900951 0.035228
vt 0.903389 0.025806
vt 0.906065 0.035229
vt 0.905474 0.025515
vt 0.910931 0.033649
vt 0.907367 0.024594
vt 0.915070 0.030643
vt 0.908882 0.023133
vt 0.918079 0.026504
vt 0.909872 0.021276
vt 0.919662 0.021638
vt 0.910240 0.019205
vt 0.919664 0.016520
vt 0.909951 0.017122
vt 0.918080 0.011654
vt 0.909032 0.015230
vt 0.915070 0.007516
vt 0.907574 0.013714
vt 0.910929 0.004510
vt 0.905717 0.012721
vt 0.906063 0.002931
vt 0.903645 0.012351
vt 0.900948 0.002932
vt 0.901558 0.012640
vt 0.896084 0.004514
vt 0.899663 0.013559
vt 0.891947 0.007521
vt 0.898143 0.015019
vt 0.888942 0.011659
vt 0.897148 0.016877
vt 0.887361 0.016524
vn -0.669187 0.308057 0.676232
vn -0.561602 0.585960 0.584170
vn -0.561602 0.585959 0.584170
vn -0.669187 0.308057 0.676232
vn 0.538369 0.098191 0.836969
vn 0.520352 0.051622 0.852390
vn 0.650194 -0.000000 0.759768
vn -0.394037 0.806509 0.440769
vn -0.394037 0.806509 0.440769
vn 0.566444 0.135147 0.812943
vn -0.182903 0.948107 0.260077
vn -0.182903 0.948107 0.260077
vn 0.601836 0.158879 0.782656
vn 0.051155 0.996901 0.059770
vn 0.051155 0.996901 0.059770
vn 0.641055 0.167054 0.749094
vn 0.285213 0.948107 -0.140523
vn 0.285213 0.948107 -0.140523
vn 0.680276 0.158876 0.715530
vn 0.496349 0.806513 -0.321208
vn 0.496349 0.806513 -0.321208
vn 0.715659 0.135150 0.685249
vn 0.663916 0.585962 -0.464612
vn 0.663916 0.585962 -0.464612
vn 0.743739 0.098193 0.661219
vn 0.771498 0.308057 -0.556679
vn 0.771498 0.308057 -0.556679
vn 0.761771 0.051624 0.645787
vn 0.808568 0.000000 -0.588403
vn 0.808568 0.000000 -0.588403
vn 0.767984 -0.000000 0.640469
vn 0.771501 -0.308058 -0.556674
vn 0.771501 -0.308058 -0.556674
vn 0.761774 -0.051624 0.645782
vn 0.663916 -0.585962 -0.464612
vn 0.663916 -0.585962 -0.464612
vn 0.743746 -0.098194 0.661211
vn 0.496350 -0.806510 -0.321215
vn 0.496350 -0.806510 -0.321216
vn 0.715659 -0.135147 0.685250
vn 0.285207 -0.948110 -0.140517
vn 0.285207 -0.948110 -0.140517
vn 0.680274 -0.158877 0.715531
vn 0.051155 -0.996900 0.059777
vn 0.051155 -0.996900 0.059777
vn 0.641057 -0.167057 0.749092
vn -0.182897 -0.948110 0.260071
vn -0.182897 -0.948110 0.260071
vn 0.601837 -0.158879 0.782656
vn -0.394039 -0.806512 0.440763
vn -0.394039 -0.806512 0.440763
vn 0.566449 -0.135148 0.812939
vn -0.561605 -0.585967 0.584160
vn -0.561606 -0.585966 0.584160
vn 0.538372 -0.098193 0.836967
vn -0.669187 -0.308057 0.676232
vn -0.669187 -0.308057 0.676232
vn 0.520353 -0.051622 0.852389
vn -0.706256 0.000002 0.707956
vn -0.706256 0.000002 0.707956
vn 0.514142 -0.000000 0.857705
s 1
g LP Lantern group3 Screw3_low
usemtl set2
f 404/491/549 405/492/550 384/493/551 383/494/552
s 2
f 405/492/553 404/491/554 403/495/555
s 1
f 405/492/550 406/496/556 385/497/557 384/493/551
s 2
f 406/496/558 405/492/553 403/495/555
s 1
f 406/496/556 407/498/559 386/499/560 385/497/557
s 2
f 407/498/561 406/496/558 403/495/555
s 1
f 407/498/559 408/500/562 387/501/563 386/499/560
s 2
f 408/500/564 407/498/561 403/495/555
s 1
f 408/500/562 409/502/565 388/503/566 387/501/563
s 2
f 409/502/567 408/500/564 403/495/555
s 1
f 409/502/565 410/504/568 389/505/569 388/503/566
s 2
f 410/504/570 409/502/567 403/495/555
s 1
f 410/504/568 411/506/571 390/507/572 389/505/569
s 2
f 411/506/573 410/504/570 403/495/555
s 1
f 411/506/571 412/508/574 391/509/575 390/507/572
s 2
f 412/508/576 411/506/573 403/495/555
s 1
f 412/508/574 413/510/577 392/511/578 391/509/575
s 2
f 413/510/579 412/508/576 403/495/555
s 1
f 413/510/577 414/512/580 393/513/581 392/511/578
s 2
f 414/512/582 413/510/579 403/495/555
s 1
f 414/512/580 415/514/583 394/515/584 393/513/581
s 2
f 415/514/585 414/512/582 403/495/555
s 1
f 415/514/583 416/516/586 395/517/587 394/515/584
s 2
f 416/516/588 415/514/585 403/495/555
s 1
f 416/516/586 417/518/589 396/519/590 395/517/587
s 2
f 417/518/591 416/516/588 403/495/555
s 1
f 417/518/589 418/520/592 397/521/593 396/519/590
s 2
f 418/520/594 417/518/591 403/495/555
s 1
f 418/520/592 419/522/595 398/523/596 397/521/593
s 2
f 419/522/597 418/520/594 403/495/555
s 1
f 419/522/595 420/524/598 399/525/599 398/523/596
s 2
f 420/524/600 419/522/597 403/495/555
s 1
f 420/524/598 421/526/601 400/527/602 399/525/599
s 2
f 421/526/603 420/524/600 403/495/555
s 1
f 421/526/601 422/528/604 401/529/605 400/527/602
s 2
f 422/528/606 421/526/603 403/495/555
s 1
f 422/528/604 423/530/607 402/531/608 401/529/605
s 2
f 423/530/609 422/528/606 403/495/555
f 404/491/554 423/530/609 403/495/555
s 1
f 423/530/607 404/491/549 383/494/552 402/531/608
g default
v -18.262194 93.363747 14.494610
v -18.416803 93.763138 14.362297
v -18.657616 94.080086 14.156216
v -18.961056 94.283585 13.896537
v -19.297422 94.353706 13.608682
v -19.633787 94.283585 13.320826
v -19.937227 94.080086 13.061148
v -20.178040 93.763138 12.855066
v -20.332649 93.363747 12.722754
v -20.385925 92.921028 12.677162
v -20.332649 92.478302 12.722754
v -20.178040 92.078918 12.855066
v -19.937227 91.761963 13.061148
v -19.633787 91.558472 13.320827
v -19.297422 91.488350 13.608682
v -18.961056 91.558472 13.896537
v -18.657616 91.761963 14.156215
v -18.416803 92.078918 14.362297
v -18.262194 92.478302 14.494609
v -18.208920 92.921028 14.540201
v -21.160460 92.921028 15.785687
v -20.142097 93.298920 16.384462
v -20.274067 93.639832 16.271524
v -20.479618 93.910362 16.095621
v -20.738626 94.084068 15.873965
v -21.025738 94.143921 15.628261
v -21.312849 94.084068 15.382557
v -21.571857 93.910362 15.160901
v -21.777407 93.639832 14.984997
v -21.909378 93.298920 14.872059
v -21.954853 92.921028 14.833143
v -21.909378 92.543129 14.872059
v -21.777407 92.202225 14.984997
v -21.571857 91.931686 15.160902
v -21.312851 91.757988 15.382556
v -21.025738 91.698135 15.628261
v -20.738625 91.757988 15.873967
v -20.479618 91.931686 16.095621
v -20.274067 92.202225 16.271524
v -20.142097 92.543129 16.384462
v -20.096622 92.921028 16.423378
vt 0.825632 0.025452
vt 0.827709 0.025816
vt 0.830394 0.035234
vt 0.825279 0.035234
vt 0.827829 0.019096
vt 0.823775 0.024455
vt 0.820414 0.033653
vt 0.822315 0.022934
vt 0.816277 0.030647
vt 0.821396 0.021037
vt 0.813270 0.026509
vt 0.821108 0.018950
vt 0.811689 0.021645
vt 0.821479 0.016877
vt 0.811688 0.016530
vt 0.822472 0.015020
vt 0.813268 0.011665
vt 0.823989 0.013562
vt 0.816273 0.007526
vt 0.825882 0.012643
vt 0.820412 0.004517
vt 0.827966 0.012355
vt 0.825278 0.002933
vt 0.830036 0.012724
vt 0.830395 0.002931
vt 0.831892 0.013714
vt 0.835262 0.004515
vt 0.833352 0.015229
vt 0.839400 0.007524
vt 0.834272 0.017121
vt 0.842406 0.011665
vt 0.834564 0.019206
vt 0.843986 0.016531
vt 0.834196 0.021279
vt 0.843984 0.021646
vt 0.833206 0.023137
vt 0.842403 0.026510
vt 0.831690 0.024599
vt 0.839396 0.030648
vt 0.829796 0.025522
vt 0.835258 0.033654
vn 0.669187 0.308057 0.676232
vn 0.706256 0.000002 0.707956
vn 0.706256 0.000002 0.707956
vn 0.669187 0.308057 0.676232
vn -0.514142 -0.000000 0.857705
vn -0.520352 0.051622 0.852390
vn -0.650195 0.000001 0.759767
vn -0.538370 0.098194 0.836968
vn 0.561602 0.585960 0.584170
vn 0.561602 0.585959 0.584170
vn -0.566446 0.135149 0.812941
vn 0.394037 0.806510 0.440768
vn 0.394037 0.806510 0.440768
vn -0.601838 0.158879 0.782655
vn 0.182902 0.948107 0.260077
vn 0.182902 0.948107 0.260077
vn -0.641057 0.167056 0.749092
vn -0.051155 0.996901 0.059770
vn -0.051155 0.996901 0.059770
vn -0.680276 0.158878 0.715529
vn -0.285213 0.948107 -0.140523
vn -0.285213 0.948107 -0.140523
vn -0.715660 0.135152 0.685248
vn -0.496349 0.806513 -0.321208
vn -0.496349 0.806513 -0.321208
vn -0.743738 0.098195 0.661220
vn -0.663916 0.585962 -0.464612
vn -0.663916 0.585962 -0.464612
vn -0.761770 0.051624 0.645787
vn -0.771498 0.308057 -0.556679
vn -0.771498 0.308057 -0.556679
vn -0.767984 -0.000000 0.640469
vn -0.808568 0.000000 -0.588403
vn -0.808568 0.000000 -0.588403
vn -0.761779 -0.051624 0.645777
vn -0.771501 -0.308058 -0.556674
vn -0.771501 -0.308058 -0.556674
vn -0.743751 -0.098195 0.661206
vn -0.663915 -0.585963 -0.464612
vn -0.663915 -0.585963 -0.464612
vn -0.715658 -0.135147 0.685251
vn -0.496349 -0.806511 -0.321215
vn -0.496349 -0.806511 -0.321215
vn -0.680273 -0.158877 0.715532
vn -0.285207 -0.948110 -0.140517
vn -0.285207 -0.948110 -0.140517
vn -0.641057 -0.167057 0.749092
vn -0.051155 -0.996900 0.059777
vn -0.051155 -0.996900 0.059777
vn -0.601834 -0.158878 0.782658
vn 0.182896 -0.948110 0.260071
vn 0.182896 -0.948110 0.260071
vn -0.566447 -0.135146 0.812941
vn 0.394039 -0.806512 0.440763
vn 0.394039 -0.806512 0.440763
vn -0.538372 -0.098192 0.836967
vn 0.561605 -0.585967 0.584160
vn 0.561605 -0.585966 0.584160
vn -0.520354 -0.051622 0.852389
vn 0.669187 -0.308057 0.676232
vn 0.669187 -0.308057 0.676232
s 1
g LP Lantern group3 Screw4_low
usemtl set2
f 445/532/610 464/533/611 443/534/612 424/535/613
s 2
f 464/533/614 445/532/615 444/536/616
f 445/532/615 446/537/617 444/536/616
s 1
f 446/537/618 445/532/610 424/535/613 425/538/619
s 2
f 446/537/617 447/539/620 444/536/616
s 1
f 447/539/621 446/537/618 425/538/619 426/540/622
s 2
f 447/539/620 448/541/623 444/536/616
s 1
f 448/541/624 447/539/621 426/540/622 427/542/625
s 2
f 448/541/623 449/543/626 444/536/616
s 1
f 449/543/627 448/541/624 427/542/625 428/544/628
s 2
f 449/543/626 450/545/629 444/536/616
s 1
f 450/545/630 449/543/627 428/544/628 429/546/631
s 2
f 450/545/629 451/547/632 444/536/616
s 1
f 451/547/633 450/545/630 429/546/631 430/548/634
s 2
f 451/547/632 452/549/635 444/536/616
s 1
f 452/549/636 451/547/633 430/548/634 431/550/637
s 2
f 452/549/635 453/551/638 444/536/616
s 1
f 453/551/639 452/549/636 431/550/637 432/552/640
s 2
f 453/551/638 454/553/641 444/536/616
s 1
f 454/553/642 453/551/639 432/552/640 433/554/643
s 2
f 454/553/641 455/555/644 444/536/616
s 1
f 455/555/645 454/553/642 433/554/643 434/556/646
s 2
f 455/555/644 456/557/647 444/536/616
s 1
f 456/557/648 455/555/645 434/556/646 435/558/649
s 2
f 456/557/647 457/559/650 444/536/616
s 1
f 457/559/651 456/557/648 435/558/649 436/560/652
s 2
f 457/559/650 458/561/653 444/536/616
s 1
f 458/561/654 457/559/651 436/560/652 437/562/655
s 2
f 458/561/653 459/563/656 444/536/616
s 1
f 459/563/657 458/561/654 437/562/655 438/564/658
s 2
f 459/563/656 460/565/659 444/536/616
s 1
f 460/565/660 459/563/657 438/564/658 439/566/661
s 2
f 460/565/659 461/567/662 444/536/616
s 1
f 461/567/663 460/565/660 439/566/661 440/568/664
s 2
f 461/567/662 462/569/665 444/536/616
s 1
f 462/569/666 461/567/663 440/568/664 441/570/667
s 2
f 462/569/665 463/571/668 444/536/616
s 1
f 463/571/669 462/569/666 441/570/667 442/572/670
s 2
f 463/571/668 464/533/614 444/536/616
s 1
f 464/533/611 463/571/669 442/572/670 443/534/612
g default
v 21.854733 17.378632 -7.101035
v 18.590746 17.378632 -13.506966
v 13.506967 17.378632 -18.590744
v 7.101032 17.378632 -21.854727
v 0.000000 17.378632 -22.979420
v -7.101031 17.378632 -21.854729
v -13.506963 17.378632 -18.590736
v -18.590738 17.378632 -13.506960
v -21.854723 17.378632 -7.101030
v -22.979414 17.378632 0.000000
v -21.854723 17.378632 7.101030
v -18.590738 17.378632 13.506960
v -13.506961 17.378632 18.590736
v -11.194912 17.378632 20.222729
v -7.101030 17.378632 21.854717
v -0.000001 17.378632 22.979412
v 7.101027 17.378632 21.854721
v 11.194909 17.378632 20.222729
v 13.506957 17.378632 18.590734
v 18.590733 17.378632 13.506958
v 21.854717 17.378632 7.101028
v 22.979410 17.378632 -0.000002
v 21.854733 96.827019 -7.101035
v 18.590746 96.827019 -13.506939
v 13.506967 96.827019 -18.590771
v 7.101032 96.827019 -21.854727
v 0.000000 96.827019 -22.979424
v -7.101031 96.827019 -21.854715
v -13.506963 96.827019 -18.590736
v -18.590738 96.827019 -13.506960
v -21.854723 96.827019 -7.101030
v -22.979414 96.827019 0.000000
v -21.854723 96.827019 7.101030
v -18.590738 96.827019 13.506960
v -13.506961 96.827019 18.590736
v -11.194912 96.827019 20.222729
v -7.101030 96.827019 21.854717
v -0.000001 96.827019 22.979399
v 7.101027 96.827019 21.854734
v 11.194908 96.827019 20.222742
v 13.506957 96.827019 18.590734
v 18.590733 96.827019 13.506931
v 21.854717 96.827019 7.101028
v 22.979410 96.827019 0.000025
v 21.854733 93.181107 -7.101035
v 22.979410 93.181107 0.000014
v 21.854717 93.181107 7.101028
v 18.590733 93.181107 13.506943
v 13.506957 93.181107 18.590734
v -13.506960 93.181107 18.590736
v -18.590738 93.181107 13.506960
v -21.854723 93.181107 7.101030
v -22.979414 93.181107 0.000000
v -21.854723 93.181107 -7.101030
v -18.590738 93.181107 -13.506960
v -13.506964 93.181107 -18.590736
v -7.101031 93.181107 -21.854721
v 0.000000 93.181107 -22.979424
v 7.101032 93.181107 -21.854727
v 13.506967 93.181107 -18.590759
v 18.590746 93.181107 -13.506950
v 21.854733 24.378733 -7.101035
v 22.979410 24.378733 0.000009
v 21.854717 24.378733 7.101028
v 18.590733 24.378733 13.506948
v 13.506958 24.378733 18.590734
v -13.506960 24.378733 18.590736
v -18.590738 24.378733 13.506960
v -21.854723 24.378733 7.101030
v -22.979416 24.378733 0.000000
v -21.854723 24.378733 -7.101030
v -18.590738 24.378733 -13.506960
v -13.506964 24.378733 -18.590736
v -7.101031 24.378733 -21.854723
v 0.000000 24.378733 -22.979422
v 7.101032 24.378733 -21.854727
v 13.506968 24.378733 -18.590755
v 18.590746 24.378733 -13.506955
v 9.396010 25.378632 18.440722
v 6.475291 25.378632 19.928904
v 9.396010 92.181206 18.440723
v 6.475291 92.181206 19.928905
v 0.000001 25.378632 20.954475
v 0.000001 92.181206 20.954475
v -6.475294 25.378632 19.928896
v -6.475294 92.181206 19.928896
v -9.396015 25.378632 18.440716
v -9.396015 92.181206 18.440716
v 11.194908 93.181107 19.768791
v 10.431978 92.474068 19.828835
v 7.101027 93.181107 21.854731
v 7.009399 92.474068 21.572727
v -0.000001 93.181107 22.979403
v -0.000001 92.474068 22.682890
v -7.101030 93.181107 21.854717
v -7.009402 92.474068 21.572716
v -11.194912 93.181107 19.768784
v -10.431981 92.474068 19.828827
v 11.194909 24.378731 19.768787
v 10.431978 25.085768 19.828833
v -11.194912 24.378733 19.768784
v -10.431981 25.085768 19.828827
v 7.101027 24.378733 21.854727
v 7.009399 25.085768 21.572725
v -0.000001 24.378733 22.979406
v -0.000001 25.085768 22.682892
v -7.101030 24.378733 21.854717
v -7.009402 25.085768 21.572716
vt 0.646337 0.012914
vt 0.686205 0.012961
vt 0.686049 0.051837
vt 0.646078 0.051755
vt 0.726124 0.013009
vt 0.726016 0.051902
vt 0.766067 0.013066
vt 0.765979 0.051966
vt 0.806023 0.013136
vt 0.805942 0.052036
vt 0.042889 0.011985
vt 0.042965 0.050883
vt 0.082836 0.011948
vt 0.082943 0.050840
vt 0.122761 0.011917
vt 0.122935 0.050795
vt 0.162638 0.011878
vt 0.162947 0.050731
vt 0.202430 0.011809
vt 0.202985 0.050614
vt 0.242096 0.011658
vt 0.243061 0.050398
vt 0.281636 0.011291
vt 0.283175 0.050030
vt 0.321271 0.010261
vt 0.323295 0.049518
vt 0.488747 0.010591
vt 0.527691 0.012241
vt 0.526083 0.050897
vt 0.486075 0.050095
vt 0.566984 0.012700
vt 0.566098 0.051367
vt 0.606569 0.012848
vt 0.606096 0.051619
vt 0.605393 0.433098
vt 0.645357 0.433207
vt 0.645360 0.453466
vt 0.605464 0.453350
vt 0.565425 0.433052
vt 0.565668 0.453284
vt 0.525441 0.433190
vt 0.526079 0.453373
vt 0.485427 0.433781
vt 0.486710 0.453896
vt 0.282462 0.432382
vt 0.322317 0.433242
vt 0.320769 0.453478
vt 0.281818 0.452503
vt 0.242599 0.432119
vt 0.242366 0.452325
vt 0.202716 0.432101
vt 0.202645 0.452345
vt 0.162811 0.432169
vt 0.162801 0.452426
vt 0.122888 0.432258
vt 0.122900 0.452519
vt 0.082951 0.432343
vt 0.082971 0.452606
vt 0.043003 0.432416
vt 0.043025 0.452679
vt 0.805210 0.433617
vt 0.003068 0.452736
vt 0.765247 0.433536
vt 0.765211 0.453799
vt 0.725284 0.433438
vt 0.725251 0.453701
vt 0.685320 0.433327
vt 0.685297 0.453588
vt 0.440992 0.056547
vt 0.458627 0.058441
vt 0.457908 0.424956
vt 0.440063 0.427121
vt 0.404896 0.055307
vt 0.403676 0.428601
vt 0.368591 0.056584
vt 0.367488 0.427147
vt 0.350785 0.058580
vt 0.349801 0.425109
vt 0.336673 0.009052
vt 0.337770 0.049363
vt 0.362110 0.005728
vt 0.364953 0.043721
vt 0.404811 0.002930
vt 0.404797 0.041429
vt 0.447652 0.005326
vt 0.444497 0.043823
vt 0.473285 0.009071
vt 0.471640 0.049732
vt 0.470979 0.434053
vt 0.471706 0.455200
vt 0.443684 0.440213
vt 0.446116 0.459932
vt 0.403774 0.442693
vt 0.403742 0.462925
vt 0.364021 0.440127
vt 0.361458 0.460103
vt 0.336729 0.433715
vt 0.335773 0.454978
vt 0.466749 0.429991
vt 0.467406 0.053651
vt 0.442812 0.436253
vt 0.403753 0.438412
vt 0.364910 0.436197
vt 0.340981 0.429831
vt 0.443593 0.047669
vt 0.341984 0.053467
vt 0.404817 0.045647
vt 0.365834 0.047607
vt 0.002997 0.050933
vt 0.003046 0.432473
vt 0.805173 0.453880
vt 0.002930 0.012037
vn 0.951057 -0.000000 -0.309016
vn 0.809017 -0.000000 -0.587785
vn 0.809017 0.000000 -0.587785
vn 0.951057 0.000000 -0.309016
vn 0.587785 -0.000000 -0.809017
vn 0.587786 -0.000000 -0.809017
vn 0.309016 -0.000000 -0.951057
vn 0.309016 -0.000000 -0.951057
vn -0.000000 0.000000 -1.000000
vn -0.000000 -0.000000 -1.000000
vn -0.309017 0.000000 -0.951057
vn -0.309018 0.000000 -0.951056
vn -0.587785 0.000000 -0.809017
vn -0.587785 0.000000 -0.809017
vn -0.809017 0.000000 -0.587785
vn -0.809017 0.000000 -0.587785
vn -0.951057 0.000000 -0.309017
vn -0.951057 0.000000 -0.309017
vn -1.000000 0.000000 0.000000
vn -1.000000 0.000000 0.000000
vn -0.951057 0.000000 0.309017
vn -0.951057 0.000000 0.309017
vn -0.809017 0.000000 0.587785
vn -0.809017 0.000000 0.587785
vn -0.659489 0.007619 0.751675
vn -0.647429 0.000713 0.762126
vn 0.659490 0.007620 0.751675
vn 0.809017 0.000000 0.587785
vn 0.809017 0.000000 0.587785
vn 0.647430 0.000713 0.762125
vn 0.951057 0.000000 0.309017
vn 0.951056 0.000000 0.309018
vn 1.000000 -0.000000 0.000001
vn 1.000000 -0.000000 0.000001
vn 1.000000 0.000000 0.000001
vn 0.951057 0.000000 -0.309016
vn 0.951057 0.000000 -0.309016
vn 1.000000 0.000000 0.000001
vn 0.951056 0.000000 0.309018
vn 0.951056 0.000000 0.309018
vn 0.809017 0.000000 0.587785
vn 0.809017 0.000001 0.587785
vn 0.646859 -0.000747 0.762610
vn 0.659440 -0.014627 0.751615
vn -0.809017 0.000000 0.587785
vn -0.646857 -0.000747 0.762611
vn -0.659438 -0.014628 0.751617
vn -0.809017 0.000000 0.587785
vn -0.951057 0.000000 0.309017
vn -0.951057 0.000000 0.309017
vn -1.000000 0.000000 0.000000
vn -1.000000 0.000000 0.000000
vn -0.951057 0.000000 -0.309017
vn -0.951057 0.000000 -0.309017
vn -0.809017 0.000000 -0.587785
vn -0.809017 0.000000 -0.587785
vn -0.587785 0.000000 -0.809017
vn -0.587785 0.000000 -0.809017
vn -0.309018 0.000000 -0.951056
vn -0.309018 0.000001 -0.951056
vn -0.000000 0.000000 -1.000000
vn -0.000001 0.000000 -1.000000
vn 0.309016 -0.000000 -0.951057
vn 0.309016 -0.000001 -0.951057
vn 0.587786 -0.000000 -0.809017
vn 0.587786 -0.000001 -0.809016
vn 0.809017 0.000000 -0.587785
vn 0.809018 0.000000 -0.587784
vn 0.258445 -0.000000 0.966026
vn 0.453991 -0.000000 0.891006
vn 0.453991 -0.000000 0.891006
vn 0.258445 -0.000000 0.966026
vn -0.000001 -0.000000 1.000000
vn -0.000001 -0.000000 1.000000
vn -0.258445 0.000000 0.966026
vn -0.258445 0.000000 0.966026
vn -0.453990 0.000000 0.891007
vn -0.453990 0.000000 0.891007
vn -0.452823 0.028894 0.891132
vn -0.417287 0.008194 0.908738
vn -0.257512 0.011457 0.966207
vn -0.258325 0.046473 0.964940
vn -0.000001 0.000000 1.000000
vn -0.000001 0.036878 0.999320
vn 0.257512 0.011456 0.966207
vn 0.258325 0.046473 0.964940
vn 0.452824 0.028894 0.891131
vn 0.417289 0.008194 0.908737
vn 0.413426 -0.009017 0.910493
vn 0.451430 -0.055443 0.890583
vn 0.258557 -0.082491 0.962468
vn 0.257465 -0.021993 0.966037
vn -0.000001 -0.065406 0.997859
vn -0.000001 0.000000 1.000000
vn -0.258557 -0.082490 0.962467
vn -0.257466 -0.021992 0.966037
vn -0.413423 -0.009016 0.910494
vn -0.451428 -0.055442 0.890584
vn 0.078462 -0.000000 0.996917
vn 0.078462 -0.000000 0.996917
vn -0.801415 -0.000000 0.598108
vn -0.801415 -0.000000 0.598108
vn -0.801415 -0.000000 0.598108
vn -0.801415 -0.000000 0.598108
vn 0.076761 -0.985602 0.150655
vn 0.043707 -0.985913 0.161450
vn 0.043707 -0.985913 0.161450
vn 0.076761 -0.985602 0.150655
vn 0.419435 -0.382685 0.823181
vn 0.249028 -0.386469 0.888047
vn -0.000000 -0.985947 0.167058
vn -0.000000 -0.985947 0.167058
vn -0.000001 -0.386740 0.922189
vn -0.043707 -0.985913 0.161446
vn -0.043707 -0.985913 0.161446
vn -0.249029 -0.386468 0.888047
vn -0.076761 -0.985602 0.150652
vn -0.076761 -0.985602 0.150652
vn -0.419434 -0.382684 0.823182
vn 0.419433 0.382683 0.823183
vn 0.249029 0.386471 0.888046
vn 0.043707 0.985913 0.161449
vn 0.076762 0.985602 0.150654
vn 0.076762 0.985602 0.150654
vn 0.043707 0.985913 0.161449
vn 0.801416 0.000000 0.598108
vn 0.801416 0.000000 0.598108
vn 0.801416 0.000000 0.598107
vn 0.801416 0.000000 0.598108
vn -0.078457 0.000000 0.996917
vn -0.078457 0.000000 0.996918
vn -0.000001 0.386744 0.922187
vn -0.000000 0.985947 0.167059
vn -0.000000 0.985947 0.167059
vn -0.249029 0.386471 0.888046
vn -0.043707 0.985913 0.161449
vn -0.043707 0.985913 0.161449
vn -0.076762 0.985602 0.150654
vn -0.076762 0.985602 0.150654
vn -0.419433 0.382684 0.823182
s 1
g LP Lantern Body_low
usemtl set2
f 465/573/671 466/574/672 542/575/673 526/576/674
f 466/574/672 467/577/675 541/578/676 542/575/673
f 467/577/675 468/579/677 540/580/678 541/578/676
f 468/579/677 469/581/679 539/582/680 540/580/678
f 469/684/679 470/583/681 538/584/682 539/681/680
f 470/583/681 471/585/683 537/586/684 538/584/682
f 471/585/683 472/587/685 536/588/686 537/586/684
f 472/587/685 473/589/687 535/590/688 536/588/686
f 473/589/687 474/591/689 534/592/690 535/590/688
f 474/591/689 475/593/691 533/594/692 534/592/690
f 475/593/691 476/595/693 532/596/694 533/594/692
f 476/595/693 477/597/695 531/598/696 532/596/694
f 483/599/697 484/600/698 529/601/699 530/602/700
f 484/600/698 485/603/701 528/604/702 529/601/699
f 485/603/701 486/605/703 527/606/704 528/604/702
f 486/605/703 465/573/671 526/576/674 527/606/704
f 510/607/705 509/608/706 487/609/707 508/610/708
f 511/611/709 510/607/705 508/610/708 507/612/710
f 512/613/711 511/611/709 507/612/710 506/614/712
f 513/615/713 512/613/711 506/614/712 505/616/714
f 515/617/715 514/618/716 499/619/717 498/620/718
f 516/621/719 515/617/715 498/620/718 497/622/720
f 517/623/721 516/621/719 497/622/720 496/624/722
f 518/625/723 517/623/721 496/624/722 495/626/724
f 519/627/725 518/625/723 495/626/724 494/628/726
f 520/629/727 519/627/725 494/628/726 493/630/728
f 521/631/729 520/629/727 493/630/728 492/632/730
f 522/682/731 521/631/729 492/632/730 491/634/732
f 523/635/733 522/633/731 491/683/732 490/636/734
f 524/637/735 523/635/733 490/636/734 489/638/736
f 525/639/737 524/637/735 489/638/736 488/640/738
f 509/608/706 525/639/737 488/640/738 487/609/707
f 527/606/704 526/576/674 509/608/706 510/607/705
f 528/604/702 527/606/704 510/607/705 511/611/709
f 529/601/699 528/604/702 511/611/709 512/613/711
f 530/602/700 529/601/699 512/613/711 513/615/713
s 3
f 544/641/739 543/642/740 545/643/741 546/644/742
f 547/645/743 544/641/739 546/644/742 548/646/744
f 549/647/745 547/645/743 548/646/744 550/648/746
f 551/649/747 549/647/745 550/648/746 552/650/748
s 1
f 532/596/694 531/598/696 514/618/716 515/617/715
f 533/594/692 532/596/694 515/617/715 516/621/719
f 534/592/690 533/594/692 516/621/719 517/623/721
f 535/590/688 534/592/690 517/623/721 518/625/723
f 536/588/686 535/590/688 518/625/723 519/627/725
f 537/586/684 536/588/686 519/627/725 520/629/727
f 538/584/682 537/586/684 520/629/727 521/631/729
f 539/681/680 538/584/682 521/631/729 522/682/731
f 540/580/678 539/582/680 522/633/731 523/635/733
f 541/578/676 540/580/678 523/635/733 524/637/735
f 542/575/673 541/578/676 524/637/735 525/639/737
f 526/576/674 542/575/673 525/639/737 509/608/706
f 477/597/695 478/651/749 565/652/750 531/598/696
f 478/651/749 479/653/751 571/654/752 565/652/750
f 479/653/751 480/655/753 569/656/754 571/654/752
f 480/655/753 481/657/755 567/658/756 569/656/754
f 481/657/755 482/659/757 563/660/758 567/658/756
f 482/659/757 483/599/697 530/602/700 563/660/758
f 553/661/759 513/615/713 505/616/714 504/662/760
f 555/663/761 553/661/759 504/662/760 503/664/762
f 557/665/763 555/663/761 503/664/762 502/666/764
f 559/667/765 557/665/763 502/666/764 501/668/766
f 561/669/767 559/667/765 501/668/766 500/670/768
f 514/618/716 561/669/767 500/670/768 499/619/717
f 563/660/758 530/602/700 513/615/713 553/661/759
f 531/598/696 565/652/750 561/669/767 514/618/716
f 553/661/759 554/671/769 564/672/770 563/660/758
s off
f 564/672/771 554/671/772 545/643/773 543/642/774
s 4
f 554/671/775 556/673/776 546/644/777 545/643/778
s 1
f 554/671/779 553/661/759 555/663/761 556/673/780
s 4
f 556/673/776 558/674/781 548/646/782 546/644/777
s 1
f 556/673/780 555/663/761 557/665/763 558/674/783
s 4
f 558/674/781 560/675/784 550/648/785 548/646/782
s 1
f 558/674/783 557/665/763 559/667/765 560/675/786
s 4
f 560/675/784 562/676/787 552/650/788 550/648/785
s 1
f 560/675/786 559/667/765 561/669/767 562/676/789
f 563/660/758 564/672/790 568/677/791 567/658/756
s 5
f 568/677/792 564/672/793 543/642/794 544/641/795
s off
f 562/676/796 566/678/797 551/649/798 552/650/799
s 1
f 562/676/800 561/669/767 565/652/750 566/678/801
f 567/658/756 568/677/791 570/679/802 569/656/754
s 5
f 570/679/803 568/677/792 544/641/795 547/645/804
s 1
f 569/656/754 570/679/802 572/680/805 571/654/752
s 5
f 572/680/806 570/679/803 547/645/804 549/647/807
f 566/678/808 572/680/806 549/647/807 551/649/809
s 1
f 566/678/810 565/652/750 571/654/752 572/680/805
