# This file uses centimeters as units for non-parametric coordinates.

mtllib S_P01_01_LP.mtl
g default
v 48.649658 65.579895 31.167467
v 48.810303 66.724670 31.167467
v 49.267578 67.695190 31.167467
v 49.952148 68.343689 31.167467
v 50.759766 68.571411 31.167467
v 48.649658 44.814758 31.167467
v 50.759766 41.823303 31.167467
v 49.952148 42.051025 31.167467
v 49.267578 42.699463 31.167467
v 48.810303 43.669983 31.167467
v 52.870361 41.823303 31.167467
v 52.870361 68.571411 31.167467
v 50.759766 68.571411 33.350151
v 52.870361 68.571411 33.350151
v 48.649658 65.579895 33.350151
v 48.649658 44.814758 33.350151
v 48.810303 66.724670 33.350151
v 49.267578 67.695190 33.350151
v 49.952148 68.343689 33.350151
v 49.952148 42.051025 33.350151
v 50.759766 41.823303 33.350151
v 49.267578 42.699463 33.350151
v 48.810303 43.669983 33.350151
v 52.870361 41.823303 33.350151
vt 0.396634 0.482395
vt 0.396634 0.489468
vt 0.396634 0.507257
vt 0.235410 0.755731
vt 0.008887 0.755693
vt 0.396634 0.455661
vt 0.396634 0.280640
vt 0.396634 0.270897
vt 0.396634 0.465405
vt 0.396634 0.474447
vt 0.396634 0.253907
vt 0.396634 0.246834
vt 0.396634 0.229045
vt 0.396634 0.261854
vt 0.378237 0.507257
vt 0.378237 0.455661
vt 0.378237 0.465405
vt 0.378237 0.474448
vt 0.378237 0.482395
vt 0.378237 0.489468
vt 0.378237 0.253907
vt 0.378237 0.261854
vt 0.378237 0.270897
vt 0.378237 0.280640
vt 0.378237 0.246834
vt 0.024521 0.790079
vt 0.016302 0.786205
vt 0.010812 0.780407
vt 0.008884 0.773567
vt 0.235407 0.773605
vt 0.233477 0.780445
vt 0.227984 0.786241
vt 0.219764 0.790112
vt 0.210069 0.791471
vt 0.034215 0.791442
vt 0.378237 0.229045
vt 0.378237 0.003596
vt 0.396634 0.003596
vn -0.077798 0.996969 0.000000
vn -0.077798 0.996969 0.000000
vn 0.000000 1.000000 0.000000
vn 0.000000 1.000000 0.000000
vn -0.999973 0.007332 0.000000
vn -0.999973 -0.007332 0.000000
vn -0.999973 -0.007332 0.000000
vn -0.999973 0.007332 0.000000
vn -0.959883 0.280401 0.000000
vn -0.959883 0.280401 0.000000
vn -0.817203 0.576350 0.000000
vn -0.817203 0.576350 0.000000
vn -0.506360 0.862322 0.000000
vn -0.506360 0.862322 0.000000
vn -0.077798 -0.996969 0.000000
vn -0.506334 -0.862337 0.000000
vn -0.506334 -0.862337 0.000000
vn -0.077798 -0.996969 0.000000
vn -0.817193 -0.576365 0.000000
vn -0.817193 -0.576365 0.000000
vn -0.959883 -0.280401 0.000000
vn -0.959883 -0.280401 0.000000
vn 0.996901 -0.078662 0.000000
vn 0.996901 -0.078662 0.000000
vn -0.000000 0.000000 1.000000
vn -0.000000 0.000000 1.000000
vn 0.000000 0.000000 1.000000
vn 0.000000 0.000000 1.000000
vn 1.000000 0.000000 0.000000
vn 1.000000 0.000000 0.000000
vn -0.000002 0.000000 1.000000
vn -0.000002 0.000000 1.000000
vn -0.000001 0.000000 1.000000
vn -0.000001 0.000000 1.000000
vn 0.000005 0.000000 1.000000
vn 0.000005 0.000000 1.000000
vn -0.000010 0.000000 1.000000
vn -0.000010 0.000000 1.000000
s 1
g button_low S_P01_01_LP
usemtl aiStandardSurface1SG
f 5/20/1 13/2/2 14/3/3 12/15/4
f 1/16/5 6/24/6 16/7/7 15/6/8
f 15/6/8 17/9/9 2/17/10 1/16/5
f 17/9/9 18/10/11 3/18/12 2/17/10
f 18/10/11 19/1/13 4/19/14 3/18/12
f 19/1/13 13/2/2 5/20/1 4/19/14
f 21/12/15 20/11/16 8/21/17 7/25/18
f 20/11/16 22/14/19 9/22/20 8/21/17
f 22/14/19 23/8/21 10/23/22 9/22/20
f 23/8/21 16/7/7 6/24/6 10/23/22
f 21/12/15 7/25/18 11/36/23 24/13/24
s 4
f 13/30/25 21/29/26 24/5/27 14/4/28
s 1
f 11/36/23 12/37/29 14/38/30 24/13/24
s 4
f 19/31/31 20/28/32 21/29/26 13/30/25
f 18/32/33 22/27/34 20/28/32 19/31/31
f 23/26/35 22/27/34 18/32/33 17/33/36
f 23/26/35 17/33/36 15/34/37 16/35/38
g default
v -59.775635 107.408264 24.651842
v 91.279053 107.408264 24.651842
v -59.775635 2.986328 24.651842
v 91.279053 2.986328 24.651842
v -112.275146 54.908691 24.651842
v -108.247314 75.158630 24.651842
v -96.943115 92.076294 24.651842
v -80.025635 103.380371 24.651842
v -80.025635 7.014282 24.651842
v -96.943115 18.318359 24.651842
v -108.247314 35.236023 24.651842
v 94.632080 106.741272 24.651842
v 97.225586 105.008545 24.651842
v 98.958252 102.415283 24.651842
v 98.958252 7.979370 24.651842
v 97.225586 5.386048 24.651842
v 94.632080 3.653320 24.651842
v -59.775635 107.408264 -32.659065
v 91.279053 107.408264 -32.659065
v -59.775635 2.986328 -32.659065
v 91.279053 2.986328 -32.659065
v -112.275146 54.908691 -32.659065
v -108.247314 75.158630 -32.659065
v -96.943115 92.076294 -32.659065
v -80.025635 103.380371 -32.659065
v -80.025635 7.014282 -32.659065
v -96.943115 18.318359 -32.659065
v -108.247314 35.236023 -32.659065
v 94.632080 106.741272 -32.659065
v 97.225586 105.008545 -32.659065
v 98.958252 102.415283 -32.659065
v 98.958252 7.979370 -32.659065
v 97.225586 5.386048 -32.659065
v 94.632080 3.653320 -32.659065
v 91.573242 110.394714 31.348803
v 95.797363 109.554321 31.348803
v -111.060303 76.323853 31.348803
v -115.261475 55.202820 31.348803
v -115.261475 55.202820 24.651842
v -111.060303 76.323792 24.651842
v -99.096191 94.229370 31.348803
v -99.096191 94.229370 24.651842
v -81.190674 106.193359 31.348803
v -81.190674 106.193420 24.651842
v -60.069824 110.394714 31.348803
v -60.069824 110.394653 24.651842
v -81.190674 4.201233 31.348803
v -60.069824 0.000000 31.348803
v -60.069824 0.000000 24.651842
v -81.190674 4.201233 24.651842
v -99.096191 16.165344 31.348803
v -99.096191 16.165283 24.651842
v -111.060303 34.070862 31.348803
v -111.060303 34.070801 24.651842
v 91.573242 110.394653 24.651842
v 95.797363 109.554382 24.651842
v 99.378418 107.161621 31.348803
v 99.378418 107.161560 24.651842
v 101.771240 103.580444 31.348803
v 101.771240 103.580444 24.651842
v 102.611572 99.356323 31.348803
v 102.611572 99.356262 24.651842
v 101.771240 6.814209 31.348803
v 102.611572 11.038392 31.348803
v 102.611572 11.038331 24.651842
v 101.771240 6.814148 24.651842
v 99.378418 3.233094 31.348803
v 99.378418 3.233032 24.651842
v 95.797363 0.840271 31.348803
v 95.797363 0.840210 24.651842
v 91.573242 0.000000 31.348803
v 91.573242 0.000000 24.651842
v 101.771240 6.814209 -39.356087
v 99.378418 3.233094 -39.356087
v -60.069824 110.394714 -39.356087
v 91.573242 110.394714 -39.356087
v -60.069824 0.000000 -39.356087
v 91.573242 0.000000 -39.356087
v -115.261475 55.202820 -39.356087
v -111.060303 34.070862 -39.356087
v -115.261475 55.202820 -32.659065
v -111.060303 34.070801 -32.659065
v -111.060303 76.323853 -39.356087
v -111.060303 76.323792 -32.659065
v -99.096191 94.229370 -39.356087
v -99.096191 94.229370 -32.659065
v -81.190674 106.193359 -39.356087
v -81.190674 106.193420 -32.659065
v -60.069824 110.394653 -32.659065
v -81.190674 4.201233 -39.356087
v -60.069824 0.000000 -32.659065
v -81.190674 4.201233 -32.659065
v -99.096191 16.165344 -39.356087
v -99.096191 16.165283 -32.659065
v 95.797363 109.554321 -39.356087
v 91.573242 110.394653 -32.659065
v 95.797363 109.554382 -32.659065
v 99.378418 107.161621 -39.356087
v 99.378418 107.161560 -32.659065
v 101.771240 103.580444 -39.356087
v 101.771240 103.580444 -32.659065
v 102.611572 99.356323 -39.356087
v 102.611572 99.356262 -32.659065
v 102.611572 11.038392 -39.356087
v 102.611572 11.038331 -32.659065
v 101.771240 6.814148 -32.659065
v 99.378418 3.233032 -32.659065
v 95.797363 0.840271 -39.356087
v 95.797363 0.840210 -32.659065
v 91.573242 0.000000 -32.659065
v 99.625244 99.062195 24.651844
v 99.625244 99.062195 -32.659065
v 99.625244 11.332520 24.651844
v 99.625244 11.332520 -32.659065
v 107.444092 11.332540 -32.659058
v 107.444092 11.332540 24.651838
v 107.444092 99.062172 24.651838
v 107.444092 99.062172 -32.659058
v 115.261475 19.149920 24.651825
v 112.971924 13.622125 24.651833
v 115.261475 19.149920 -32.659065
v 112.971924 13.622125 -32.659058
v 112.971924 96.772537 -32.659058
v 115.261475 91.244797 -32.659065
v 115.261475 91.244797 24.651825
v 112.971924 96.772537 24.651833
vt 0.123068 0.194242
vt 0.002676 0.194242
vt 0.002676 0.148463
vt 0.123068 0.148463
vt 0.123068 0.240615
vt 0.002676 0.240615
vt 0.123068 0.285320
vt 0.002676 0.285320
vt 0.123068 0.328889
vt 0.002676 0.328889
vt 0.123068 0.372005
vt 0.002676 0.372005
vt 0.123068 0.007129
vt 0.123068 0.054776
vt 0.002676 0.054776
vt 0.008635 0.796707
vt 0.123068 0.101683
vt 0.002676 0.101683
vt 0.123068 0.681931
vt 0.123068 0.688905
vt 0.002676 0.688905
vt 0.002676 0.681931
vt 0.123068 0.695269
vt 0.002676 0.695269
vt 0.002676 0.701632
vt 0.573838 0.986811
vt 0.563956 0.989295
vt 0.568015 0.813686
vt 0.553891 0.991721
vt 0.557138 0.810832
vt 0.542655 0.994347
vt 0.544983 0.807845
vt 0.008909 0.998615
vt 0.002676 0.007129
vt 0.687151 0.025407
vt 0.511046 0.025395
vt 0.864431 0.022510
vt 0.776163 0.447010
vt 0.640417 0.449615
vt 0.599089 0.471412
vt 0.675583 0.426302
vt 0.645540 0.462173
vt 0.699350 0.391365
vt 0.685046 0.435942
vt 0.708281 0.350014
vt 0.711669 0.396691
vt 0.498803 0.391357
vt 0.476428 0.350530
vt 0.522563 0.426298
vt 0.486480 0.396681
vt 0.557723 0.449626
vt 0.513095 0.435938
vt 0.552608 0.462193
vt 0.599092 0.457812
vt 0.706679 0.038519
vt 0.721544 0.045682
vt 0.702208 0.031742
vt 0.717445 0.034263
vt 0.695415 0.027095
vt 0.710476 0.024246
vt 0.700499 0.016562
vt 0.502784 0.027084
vt 0.495989 0.031729
vt 0.491518 0.038505
vt 0.487722 0.024233
vt 0.489922 0.046406
vt 0.480753 0.034249
vt 0.598403 0.477860
vt 0.648023 0.468244
vt 0.689623 0.440596
vt 0.721726 0.350542
vt 0.717616 0.399261
vt 0.470350 0.350293
vt 0.480530 0.399251
vt 0.508516 0.440591
vt 0.550094 0.468257
vt 0.727653 0.046039
vt 0.725386 0.030888
vt 0.717254 0.018438
vt 0.480945 0.018425
vt 0.476651 0.045667
vt 0.472812 0.030873
vt 0.470543 0.046023
vt 0.489874 0.350003
vt 0.708273 0.046420
vt 0.727804 0.350307
vt 0.963399 0.444649
vt 0.761174 0.440802
vt 0.952679 0.446810
vt 0.909808 0.018131
vt 0.904899 0.030315
vt 0.948588 0.043346
vt 0.939466 0.052782
vt 0.974986 0.081296
vt 0.963036 0.086614
vt 0.985437 0.126197
vt 0.757241 0.127473
vt 0.754218 0.081943
vt 0.766187 0.087189
vt 0.780377 0.043838
vt 0.789555 0.053220
vt 0.819004 0.018383
vt 0.975591 0.425594
vt 0.984810 0.438141
vt 0.974284 0.433403
vt 0.977601 0.448524
vt 0.970047 0.440086
vt 0.763175 0.456011
vt 0.767862 0.445370
vt 0.753191 0.448699
vt 0.746263 0.438567
vt 0.756898 0.434097
vt 0.742429 0.426943
vt 0.864390 0.009357
vt 0.912184 0.012247
vt 0.953000 0.038789
vt 0.980758 0.078733
vt 0.991416 0.126367
vt 0.744024 0.126899
vt 0.748435 0.079415
vt 0.775940 0.039308
vt 0.816557 0.012519
vt 0.988722 0.426247
vt 0.993023 0.441846
vt 0.984342 0.455354
vt 0.746513 0.455166
vt 0.738202 0.442129
vt 0.736400 0.426557
vt 0.755551 0.426258
vt 0.972221 0.126845
vt 0.823988 0.030544
vt 0.994757 0.425834
vt 0.738047 0.127104
vt 0.863705 0.003133
vt 0.688592 0.011776
vt 0.688449 0.005324
vt 0.704722 0.008706
vt 0.967017 0.455942
vt 0.970751 0.464437
vt 0.954016 0.466503
vt 0.509752 0.005313
vt 0.509608 0.011765
vt 0.497700 0.016549
vt 0.493477 0.008693
vt 0.775059 0.466557
vt 0.954189 0.460199
vt 0.774867 0.460297
vt 0.759303 0.464054
vt 0.123068 0.701632
vt 0.578687 0.816669
vt 0.777950 0.978498
vt 0.123068 0.708606
vt 0.786912 0.843025
vt 0.590108 0.820092
vt 0.584452 0.984024
vt 0.612472 0.961091
vt 0.758183 0.859769
vt 0.601341 0.964854
vt 0.616846 0.845421
vt 0.593158 0.972260
vt 0.605840 0.840668
vt 0.769514 0.857777
vt 0.751985 0.959350
vt 0.777912 0.852255
vt 0.762785 0.962331
vt 0.770301 0.968548
vt 0.598089 0.832568
vt 0.002676 0.708606
vn -1.000000 -0.000000 0.000000
vn -1.000000 -0.000000 0.000000
vn -0.922305 -0.386463 0.000000
vn -0.922305 -0.386463 0.000000
vn -0.924435 0.381339 0.000000
vn -0.924435 0.381339 0.000000
vn -0.707108 0.707106 0.000000
vn -0.707108 0.707106 0.000000
vn -0.381339 0.924435 0.000000
vn -0.381339 0.924435 0.000000
vn -0.023507 0.999724 0.000000
vn -0.023507 0.999724 0.000000
vn -0.195089 -0.980786 0.000000
vn -0.381340 -0.924435 0.000000
vn -0.381340 -0.924435 0.000000
vn -0.195089 -0.980786 0.000000
vn -0.707108 -0.707106 0.000000
vn -0.707108 -0.707106 0.000000
vn 0.004320 0.999991 0.000000
vn 0.374226 0.927337 0.000000
vn 0.374226 0.927337 0.000000
vn 0.004320 0.999991 0.000000
vn 0.707092 0.707122 0.000000
vn 0.707092 0.707122 0.000000
vn 0.927336 0.374229 0.000000
vn 0.927337 0.374229 0.000000
vn 0.980784 0.195097 0.000000
vn 0.980784 0.195097 0.000000
vn 0.222801 -0.563839 -0.795264
vn 0.222801 -0.563839 0.795264
vn 0.927339 -0.374222 0.000000
vn 0.927339 -0.374222 0.000000
vn 0.707097 -0.707117 0.000000
vn 0.707097 -0.707117 0.000000
vn 0.374226 -0.927337 0.000000
vn 0.374226 -0.927337 0.000000
vn 0.004320 -0.999991 0.000000
vn 0.004320 -0.999991 0.000000
vn 0.000000 -1.000000 0.000000
vn 0.000000 -1.000000 0.000000
vn 0.923559 0.008386 -0.383364
vn 0.973384 0.008839 0.229012
vn 0.973384 -0.008839 0.229009
vn 0.923561 -0.008387 -0.383360
vn -0.876612 0.000000 0.481199
vn -0.215271 0.089168 0.972475
vn -0.861250 0.356740 -0.361918
vn -0.933632 0.000000 -0.358233
vn -0.079936 0.079936 0.993590
vn -0.659479 0.659481 -0.360794
vn -0.030564 0.073787 0.996806
vn -0.356742 0.861249 -0.361918
vn -0.001501 0.061743 0.998091
vn -0.022437 0.922643 -0.385001
vn -0.001501 -0.061743 0.998091
vn -0.030564 -0.073787 0.996806
vn -0.356743 -0.861250 -0.361917
vn -0.022437 -0.922649 -0.384987
vn -0.079936 -0.079936 0.993590
vn -0.659480 -0.659481 -0.360792
vn -0.215329 -0.089167 0.972462
vn -0.863133 -0.357421 -0.356724
vn 0.000328 0.060769 0.998152
vn 0.028463 0.068714 0.997230
vn 0.361219 0.872038 -0.330258
vn 0.004977 0.923183 -0.384329
vn 0.064929 0.064929 0.995775
vn 0.668867 0.668863 -0.324407
vn 0.129421 0.053610 0.990140
vn 0.872041 0.361223 -0.330245
vn 0.129421 -0.053610 0.990140
vn 0.872041 -0.361224 -0.330244
vn 0.064929 -0.064928 0.995775
vn 0.668869 -0.668863 -0.324402
vn 0.028463 -0.068715 0.997230
vn 0.361217 -0.872042 -0.330250
vn 0.000328 -0.060768 0.998152
vn 0.004977 -0.923189 -0.384314
vn 0.000000 0.000000 -1.000000
vn 0.000000 0.000000 -1.000000
vn 0.000000 0.000000 -1.000000
vn -0.000000 0.000000 -1.000000
vn 0.000000 0.000000 -1.000000
vn -0.000000 0.000000 -1.000000
vn -0.000000 0.000000 -1.000000
vn -0.000000 0.000000 -1.000000
vn 0.000000 0.000000 -1.000000
vn -0.000000 0.000000 -1.000000
vn -0.000000 0.000000 -1.000000
vn -0.000000 0.000000 -1.000000
vn -0.000000 -0.000000 -1.000000
vn -0.000000 -0.000000 -1.000000
vn -0.000000 0.000000 -1.000000
vn -0.000000 0.000000 -1.000000
vn 0.000000 0.000000 -1.000000
vn -0.000000 0.000000 -1.000000
vn -0.000000 0.000000 -1.000000
vn 0.129422 0.053610 -0.990139
vn 0.129423 -0.053610 -0.990139
vn 0.064929 -0.064929 -0.995775
vn 0.064929 0.064930 -0.995775
vn 0.923560 0.008386 0.383361
vn 0.923562 -0.008386 0.383357
vn 0.973385 -0.008839 -0.229007
vn 0.973384 0.008839 -0.229010
vn -0.876613 0.000000 -0.481195
vn -0.933633 0.000000 0.358231
vn -0.861252 0.356740 0.361915
vn -0.215273 0.089169 -0.972474
vn -0.079937 0.079937 -0.993590
vn -0.659480 0.659482 0.360791
vn -0.030564 0.073787 -0.996806
vn -0.356742 0.861251 0.361915
vn -0.001501 0.061743 -0.998091
vn -0.022437 0.922645 0.384997
vn -0.030564 -0.073787 -0.996806
vn -0.001501 -0.061743 -0.998091
vn -0.022437 -0.922650 0.384984
vn -0.356743 -0.861251 0.361914
vn -0.079937 -0.079937 -0.993590
vn -0.659480 -0.659482 0.360789
vn -0.215332 -0.089168 -0.972462
vn -0.863134 -0.357421 0.356721
vn 0.028463 0.068715 -0.997230
vn 0.000328 0.060769 -0.998152
vn 0.004977 0.923185 0.384325
vn 0.361219 0.872039 0.330256
vn 0.668867 0.668863 0.324405
vn 0.872043 0.361222 0.330243
vn 0.872043 -0.361223 0.330242
vn 0.668869 -0.668864 0.324399
vn 0.028463 -0.068716 -0.997230
vn 0.361217 -0.872043 0.330247
vn 0.000328 -0.060769 -0.998152
vn 0.004977 -0.923190 0.384311
vn 0.000000 0.000000 1.000000
vn -0.000000 0.000000 1.000000
vn -0.000000 0.000000 1.000000
vn 0.000000 0.000000 1.000000
vn 0.000000 0.000000 1.000000
vn -0.000000 0.000000 1.000000
vn -0.000000 0.000000 1.000000
vn -0.000000 0.000000 1.000000
vn -0.000000 0.000000 1.000000
vn 0.000000 0.000000 1.000000
vn 0.000000 0.000000 1.000000
vn 0.000000 0.000000 1.000000
vn 0.000000 0.000000 1.000000
vn 0.000000 0.000000 1.000000
vn 0.000000 0.000000 1.000000
vn 0.000001 0.000000 1.000000
vn 0.000000 0.000000 1.000000
vn 0.000000 0.000000 1.000000
vn 0.000000 0.000000 1.000000
vn 0.997134 0.029411 -0.069712
vn 0.997133 0.029411 0.069712
vn 0.997133 -0.029411 0.069712
vn 0.997133 -0.029411 -0.069712
vn 0.499528 -0.499528 0.707774
vn 0.499528 -0.499528 -0.707774
vn 0.101110 -0.589392 0.801495
vn 0.101110 -0.589393 -0.801494
vn 0.499526 0.499527 -0.707776
vn 0.499527 0.499527 0.707775
vn 0.101112 0.589393 -0.801494
vn 0.101113 0.589393 0.801494
vn 0.000002 0.546911 -0.837191
vn 0.000002 0.546911 0.837191
s 1
g S_P01_01_LP base_01_low
usemtl aiStandardSurface1SG
f 29/39/39 46/40/40 52/41/41 35/42/42
f 29/39/39 30/43/43 47/44/44 46/40/40
f 30/43/43 31/45/45 48/46/46 47/44/44
f 31/45/45 32/47/47 49/48/48 48/46/46
f 32/47/47 25/49/49 42/50/50 49/48/48
f 27/51/51 33/52/52 50/53/53 44/72/54
f 33/52/52 34/55/55 51/56/56 50/53/53
f 34/55/55 35/42/42 52/41/41 51/56/56
f 26/57/57 36/58/58 53/59/59 43/60/60
f 36/58/58 37/61/61 54/62/62 53/59/59
f 37/61/61 38/187/63 55/63/64 54/62/62
f 38/187/63 135/190/65 136/206/66 55/63/64
s 4
f 138/192/67 137/193/68 39/64/69 56/188/70
f 39/64/69 40/65/71 57/66/72 56/188/70
f 40/65/71 41/67/73 58/68/74 57/66/72
f 41/67/73 28/69/75 45/70/76 58/68/74
s 1
f 25/49/49 26/57/57 43/60/60 42/50/50
s 4
f 44/54/77 45/70/76 28/69/75 27/71/78
s 5
f 86/173/79 85/73/80 88/74/81 89/180/82
f 62/92/83 61/77/84 64/80/85 63/78/86
f 61/77/84 65/79/87 66/82/88 64/80/85
f 65/79/87 67/81/89 68/84/90 66/82/88
f 67/81/89 69/83/91 70/109/92 68/84/90
f 72/122/93 71/85/94 74/88/95 73/86/96
f 71/85/94 75/87/97 76/90/98 74/88/95
f 75/87/97 77/89/99 78/91/100 76/90/98
f 78/91/100 77/89/99 62/92/83 63/78/86
f 59/123/101 60/93/102 80/96/103 79/94/104
f 60/93/102 81/95/105 82/98/106 80/96/103
f 81/95/105 83/97/107 84/99/108 82/98/106
f 83/97/107 85/73/80 86/173/79 84/99/108
f 88/74/81 87/100/109 90/181/110 89/180/82
f 87/100/109 91/101/111 92/103/112 90/181/110
f 91/101/111 93/102/113 94/105/114 92/103/112
f 93/102/113 95/104/115 96/119/116 94/105/114
f 63/78/86 64/80/85 30/107/117 29/106/118
f 64/80/85 66/82/88 31/108/119 30/107/117
f 66/82/88 68/84/90 32/110/120 31/108/119
f 68/84/90 70/109/92 25/124/121 32/110/120
f 73/86/96 74/88/95 33/112/122 27/111/123
f 74/88/95 76/90/98 34/113/124 33/112/122
f 76/90/98 78/91/100 35/114/125 34/113/124
f 29/106/118 35/114/125 78/91/100 63/78/86
f 79/94/104 80/96/103 36/116/126 26/115/127
f 80/96/103 82/98/106 37/117/128 36/116/126
f 82/98/106 84/99/108 38/175/129 37/117/128
f 84/99/108 86/173/79 135/174/130 38/175/129
f 89/180/82 90/181/110 39/182/131 137/179/132
f 90/181/110 92/103/112 40/118/133 39/182/131
f 92/103/112 94/105/114 41/120/134 40/118/133
f 94/105/114 96/119/116 28/121/135 41/120/134
f 27/111/123 28/121/135 96/119/116 73/86/96
f 96/119/116 95/104/115 72/122/93 73/86/96
f 69/83/91 59/123/101 79/94/104 70/109/92
f 79/94/104 26/115/127 25/124/121 70/109/92
f 59/123/101 69/83/91 72/122/93 95/104/115
f 72/122/93 69/83/91 67/81/89 71/85/94
f 83/97/107 87/100/109 88/74/81 85/73/80
f 71/85/94 67/81/89 65/79/87 75/87/97
f 75/87/97 65/79/87 61/77/84 77/89/99
f 77/89/99 61/77/84 62/92/83
f 81/95/105 91/101/111 87/100/109 83/97/107
f 60/93/102 93/102/113 91/101/111 81/95/105
f 59/123/101 95/104/115 93/102/113 60/93/102
s 8
f 124/125/136 97/147/137 98/126/138 122/145/139
f 127/184/140 129/185/141 128/76/142 126/127/143
f 103/75/144 105/152/145 108/128/146 107/129/147
f 109/131/148 107/129/147 108/128/146 110/130/149
f 111/133/150 109/131/148 110/130/149 112/132/151
f 99/168/152 111/133/150 112/132/151 113/134/153
f 114/137/154 101/135/155 115/157/156 116/136/157
f 117/139/158 114/137/154 116/136/157 118/138/159
f 104/169/160 117/139/158 118/138/159 106/140/161
f 119/143/162 100/141/163 120/161/164 121/142/165
f 122/145/139 119/143/162 121/142/165 123/144/166
f 124/125/136 122/145/139 123/144/166 125/176/167
f 126/127/143 124/125/136 125/176/167 127/184/140
f 97/147/137 128/76/142 129/185/141 130/146/168
f 98/126/138 97/147/137 130/146/168 131/148/169
f 132/150/170 98/126/138 131/148/169 133/149/171
f 102/167/172 132/150/170 133/149/171 134/151/173
f 105/152/145 46/172/174 47/153/175 108/128/146
f 110/130/149 108/128/146 47/153/175 48/154/176
f 112/132/151 110/130/149 48/154/176 49/155/177
f 113/134/153 112/132/151 49/155/177 42/156/178
f 116/136/157 115/157/156 44/171/179 50/158/180
f 118/138/159 116/136/157 50/158/180 51/159/181
f 106/140/161 118/138/159 51/159/181 52/160/182
f 121/142/165 120/161/164 43/170/183 53/162/184
f 123/144/166 121/142/165 53/162/184 54/163/185
f 125/176/167 123/144/166 54/163/185 55/177/186
f 127/184/140 125/176/167 55/177/186 136/178/187
f 130/146/168 129/185/141 138/183/188 56/186/189
f 131/148/169 130/146/168 56/186/189 57/164/190
f 133/149/171 131/148/169 57/164/190 58/165/191
f 134/151/173 133/149/171 58/165/191 45/166/192
f 124/125/136 126/127/143 128/76/142 97/147/137
f 104/169/160 103/75/144 107/129/147
f 132/150/170 119/143/162 122/145/139 98/126/138
f 102/167/172 100/141/163 119/143/162 132/150/170
f 114/137/154 111/133/150 99/168/152 101/135/155
f 117/139/158 109/131/148 111/133/150 114/137/154
f 104/169/160 107/129/147 109/131/148 117/139/158
f 42/156/178 43/170/183 120/161/164 113/134/153
f 120/161/164 100/141/163 99/168/152 113/134/153
f 99/168/152 100/141/163 102/167/172 101/135/155
f 102/167/172 134/151/173 115/157/156 101/135/155
f 134/151/173 45/166/192 44/171/179 115/157/156
f 103/75/144 104/169/160 106/140/161 105/152/145
f 105/152/145 106/140/161 52/160/182 46/172/174
f 136/178/187 138/183/188 129/185/141 127/184/140
s 5
f 137/179/132 135/174/130 86/173/79 89/180/82
s 4
f 148/195/193 149/201/194 143/194/195 145/197/196
f 143/194/195 144/196/197 146/199/198 145/197/196
f 144/196/197 140/198/199 139/205/200 146/199/198
f 148/195/193 147/200/201 150/203/202 149/201/194
f 147/200/201 142/202/203 141/204/204 150/203/202
f 139/205/200 138/192/67 136/191/205 142/202/203
f 149/201/194 150/203/202 144/196/197 143/194/195
f 150/203/202 141/204/204 140/198/199 144/196/197
f 141/204/204 135/189/206 137/193/68 140/198/199
f 147/200/201 148/195/193 145/197/196 146/199/198
f 142/202/203 147/200/201 146/199/198 139/205/200
f 142/202/203 136/191/205 135/189/206 141/204/204
f 140/198/199 137/193/68 138/192/67 139/205/200
g default
v -28.325687 68.379028 31.210773
v -34.644497 79.323532 31.210773
v -44.325474 87.446838 31.210772
v -56.200947 91.769165 31.210772
v -68.838570 91.769173 31.210775
v -80.714058 87.446854 31.210772
v -90.395042 79.323547 31.210775
v -96.713852 68.379044 31.210775
v -98.908356 55.933418 31.210775
v -96.713860 43.487793 31.210775
v -90.395042 32.543289 31.210775
v -80.714081 24.419975 31.210775
v -68.838593 20.097652 31.210775
v -56.200966 20.097649 31.210775
v -44.325485 24.419971 31.210775
v -34.644505 32.543282 31.210775
v -28.325691 43.487785 31.210775
v -26.131191 55.933411 31.210775
v -62.519775 55.933411 39.356087
v -28.325687 68.379028 38.157959
v -34.644497 79.323532 38.157955
v -44.325474 87.446838 38.157955
v -56.200947 91.769165 38.157955
v -68.838570 91.769180 38.157955
v -80.714058 87.446861 38.157955
v -90.395042 79.323555 38.157955
v -96.713852 68.379044 38.157955
v -98.908356 55.933418 38.157959
v -96.713860 43.487789 38.157951
v -90.395042 32.543289 38.157955
v -80.714081 24.419977 38.157955
v -68.838593 20.097652 38.157955
v -56.200966 20.097649 38.157955
v -44.325485 24.419971 38.157955
v -34.644505 32.543282 38.157955
v -28.325691 43.487782 38.157955
v -26.131191 55.933411 38.157959
v -32.619537 66.816193 38.157959
v -38.144875 76.386368 38.157955
v -46.610184 83.489616 38.157955
v -56.994419 87.269173 38.157955
v -68.045105 87.269173 38.157955
v -78.429352 83.489632 38.157955
v -86.894676 76.386391 38.157959
v -92.420013 66.816208 38.157959
v -94.338951 55.933418 38.157959
v -92.420013 45.050621 38.157959
v -86.894676 35.480442 38.157959
v -78.429359 28.377207 38.157955
v -68.045120 24.597652 38.157955
v -56.994438 24.597645 38.157955
v -46.610188 28.377207 38.157955
v -38.144882 35.480442 38.157959
v -32.619541 45.050613 38.157959
v -30.700609 55.933411 38.157959
v -35.338978 65.826401 32.326092
v -40.361782 74.526161 32.326096
v -48.057159 80.983360 32.326096
v -57.496960 84.419174 32.326088
v -67.542572 84.419174 32.326088
v -76.982353 80.983383 32.326096
v -84.677765 74.526176 32.326092
v -89.700577 65.826416 32.326092
v -91.444984 55.933422 32.326092
v -89.700577 46.040417 32.326092
v -84.677765 37.340652 32.326092
v -76.982368 30.883450 32.326092
v -67.542587 27.447651 32.326092
v -57.496979 27.447643 32.326092
v -48.057171 30.883450 32.326092
v -40.361782 37.340652 32.326092
v -35.338978 46.040413 32.326092
v -33.594574 55.933411 32.326092
v -50.558289 60.287018 34.346478
v -52.768688 64.115540 34.346481
v -56.155205 66.957169 34.346478
v -60.309372 68.469170 34.346474
v -64.730164 68.469170 34.346474
v -68.884346 66.957169 34.346478
v -72.270882 64.115547 34.346481
v -74.481255 60.287041 34.346474
v -75.248917 55.933418 34.346481
v -74.481255 51.579784 34.346481
v -72.270866 47.751274 34.346474
v -68.884346 44.909649 34.346478
v -64.730164 43.397652 34.346481
v -60.309383 43.397640 34.346481
v -56.155205 44.909645 34.346478
v -52.768684 47.751274 34.346474
v -50.558289 51.579784 34.346481
v -49.790627 55.933411 34.346474
v -39.937351 64.152725 35.688339
v -44.110416 71.380684 35.688339
v -45.438442 62.150494 35.819687
v -48.594948 67.617714 35.819687
v -50.503906 76.745476 35.688339
v -53.430981 71.675636 35.819683
v -58.346699 79.600014 35.688335
v -59.363262 73.834824 35.819687
v -66.692825 79.600014 35.688335
v -65.676277 73.834824 35.819687
v -74.535614 76.745491 35.688335
v -71.608559 71.675652 35.819683
v -80.929146 71.380699 35.688335
v -76.444611 67.617737 35.819687
v -85.102203 64.152740 35.688339
v -79.601112 62.150513 35.819687
v -86.551483 55.933422 35.688339
v -80.697350 55.933418 35.819687
v -85.102203 47.714088 35.688339
v -79.601112 49.716312 35.819687
v -80.929146 40.486126 35.688343
v -76.444603 44.249092 35.819687
v -74.535629 35.121334 35.688343
v -71.608566 40.191170 35.819683
v -66.692841 32.266800 35.688335
v -65.676285 38.031994 35.819687
v -58.346722 32.266788 35.688335
v -59.363281 38.031986 35.819687
v -50.503922 35.121334 35.688343
v -53.430988 40.191166 35.819683
v -44.110413 40.486126 35.688343
v -48.594948 44.249092 35.819687
v -39.937351 47.714085 35.688339
v -45.438438 49.716312 35.819687
v -38.488060 55.933411 35.688339
v -44.342197 55.933411 35.819687
v -53.059731 59.376549 36.451370
v -54.807884 62.404453 36.451374
v -57.707630 57.684875 39.063377
v -58.596886 59.225105 39.063381
v -57.486202 64.651833 36.451363
v -59.959290 60.368301 39.063381
v -60.771622 65.847626 36.451363
v -61.630524 60.976585 39.063381
v -64.267914 65.847626 36.451363
v -63.409019 60.976585 39.063381
v -67.553360 64.651817 36.451363
v -65.080261 60.368298 39.063381
v -70.231682 62.404442 36.451366
v -66.442673 59.225105 39.063381
v -71.979813 59.376591 36.451366
v -67.331917 57.684891 39.063377
v -72.586945 55.933426 36.451363
v -67.640755 55.933414 39.063377
v -71.979813 52.490242 36.451366
v -67.331917 54.181934 39.063377
v -70.231667 49.462364 36.451370
v -66.442665 52.641712 39.063374
v -67.553352 47.215000 36.451370
v -65.080269 51.498516 39.063381
v -64.267906 46.019192 36.451363
v -63.409016 50.890236 39.063381
v -60.771626 46.019188 36.451363
v -61.630531 50.890232 39.063381
v -57.486195 47.214989 36.451370
v -59.959286 51.498512 39.063381
v -54.807880 49.462368 36.451370
v -58.596878 52.641708 39.063374
v -53.059738 52.490242 36.451366
v -57.707630 54.181931 39.063377
v -52.452610 55.933407 36.451363
v -57.398800 55.933411 39.063377
vt 0.460646 0.265020
vt 0.460646 0.325059
vt 0.969144 0.748821
vt 0.990708 0.678041
vt 0.435398 0.325059
vt 0.909958 0.811535
vt 0.435398 0.265020
vt 0.840536 0.837161
vt 0.460646 0.387277
vt 0.772949 0.837151
vt 0.435399 0.387277
vt 0.713635 0.815125
vt 0.460646 0.450992
vt 0.667707 0.775692
vt 0.429807 0.456446
vt 0.638639 0.724398
vt 0.403928 0.395115
vt 0.628251 0.667148
vt 0.429807 0.395115
vt 0.636446 0.609879
vt 0.403928 0.336104
vt 0.661775 0.557800
vt 0.429807 0.336104
vt 0.701477 0.515727
vt 0.403928 0.280832
vt 0.752012 0.487439
vt 0.429807 0.280832
vt 0.808704 0.475921
vt 0.403928 0.229352
vt 0.866471 0.483006
vt 0.429807 0.229352
vt 0.919349 0.509039
vt 0.403928 0.181096
vt 0.961363 0.552628
vt 0.429807 0.181096
vt 0.986806 0.610551
vt 0.943872 0.735037
vt 0.965364 0.674553
vt 0.894732 0.787100
vt 0.835592 0.812062
vt 0.776841 0.813849
vt 0.724835 0.795763
vt 0.684326 0.761872
vt 0.658590 0.717125
vt 0.649338 0.666735
vt 0.656595 0.616051
vt 0.679139 0.569801
vt 0.714465 0.532356
vt 0.759331 0.507194
vt 0.809515 0.497001
vt 0.860349 0.503344
vt 0.906525 0.526437
vt 0.942693 0.564928
vt 0.963757 0.615774
vt 0.876778 0.573860
vt 0.843382 0.553882
vt 0.901453 0.603847
vt 0.914629 0.640463
vt 0.914629 0.679451
vt 0.901347 0.716173
vt 0.876258 0.746261
vt 0.842267 0.766020
vt 0.803350 0.772932
vt 0.764236 0.765977
vt 0.729766 0.745870
vt 0.704362 0.714997
vt 0.691266 0.677301
vt 0.691970 0.637580
vt 0.706244 0.600722
vt 0.732177 0.571169
vt 0.766532 0.552342
vt 0.805124 0.546377
vt 0.835310 0.574966
vt 0.862065 0.590949
vt 0.847792 0.607545
vt 0.827492 0.595422
vt 0.881852 0.614994
vt 0.862819 0.625806
vt 0.892385 0.644326
vt 0.870807 0.648060
vt 0.892358 0.675521
vt 0.870776 0.671702
vt 0.881702 0.704876
vt 0.862695 0.693915
vt 0.861618 0.728875
vt 0.847488 0.712039
vt 0.834442 0.744582
vt 0.826935 0.723844
vt 0.803384 0.750002
vt 0.803479 0.727864
vt 0.772199 0.744369
vt 0.779961 0.723527
vt 0.744752 0.728284
vt 0.759254 0.711313
vt 0.724503 0.703677
vt 0.743948 0.692712
vt 0.714002 0.673646
vt 0.735948 0.670042
vt 0.714478 0.641961
vt 0.736219 0.646129
vt 0.725774 0.612527
vt 0.744680 0.623886
vt 0.746420 0.588883
vt 0.760221 0.605989
vt 0.773836 0.573794
vt 0.780933 0.594555
vt 0.804693 0.568988
vt 0.804286 0.590901
vt 0.232236 0.639280
vt 0.213038 0.628585
vt 0.246284 0.655661
vt 0.253927 0.676265
vt 0.253928 0.698100
vt 0.246456 0.718484
vt 0.232532 0.735006
vt 0.213912 0.745730
vt 0.192809 0.749484
vt 0.171737 0.745810
vt 0.153224 0.735269
vt 0.139371 0.719114
vt 0.131776 0.699212
vt 0.131357 0.677826
vt 0.138285 0.657542
vt 0.151722 0.640775
vt 0.170174 0.629532
vt 0.191458 0.625255
vt 0.199582 0.667251
vt 0.206144 0.670919
vt 0.192424 0.687635
vt 0.211034 0.676628
vt 0.213663 0.683665
vt 0.213710 0.691183
vt 0.211188 0.698252
vt 0.206408 0.704024
vt 0.199951 0.707798
vt 0.192609 0.709145
vt 0.185258 0.707911
vt 0.178776 0.704245
vt 0.173927 0.698591
vt 0.171293 0.691627
vt 0.171195 0.684174
vt 0.173642 0.677121
vt 0.178362 0.671317
vt 0.184790 0.667474
vt 0.192166 0.666055
vt 0.207741 0.643919
vt 0.221867 0.651793
vt 0.232337 0.664001
vt 0.237964 0.679162
vt 0.238020 0.695314
vt 0.232540 0.710443
vt 0.222247 0.722732
vt 0.208435 0.730748
vt 0.192765 0.733564
vt 0.177096 0.730870
vt 0.163307 0.723043
vt 0.152992 0.711014
vt 0.147358 0.696192
vt 0.147084 0.680296
vt 0.152257 0.665239
vt 0.162284 0.652810
vt 0.175999 0.644511
vt 0.191786 0.641402
vt 0.787735 0.614427
vt 0.803889 0.611920
vt 0.773452 0.622318
vt 0.762767 0.634670
vt 0.757017 0.650015
vt 0.756941 0.666518
vt 0.762551 0.682187
vt 0.773164 0.695084
vt 0.787460 0.703606
vt 0.803669 0.706707
vt 0.819833 0.704019
vt 0.834012 0.695912
vt 0.844504 0.683415
vt 0.850074 0.668046
vt 0.850073 0.651658
vt 0.844513 0.636203
vt 0.834065 0.623507
vt 0.819970 0.615076
vt 0.933104 0.621563
vt 0.917595 0.580622
vt 0.889160 0.549374
vt 0.852042 0.530579
vt 0.810608 0.525490
vt 0.769385 0.534082
vt 0.732250 0.555099
vt 0.702864 0.586243
vt 0.684020 0.624525
vt 0.677842 0.666184
vt 0.685299 0.707247
vt 0.706226 0.743218
vt 0.739053 0.769804
vt 0.780836 0.782904
vt 0.827431 0.779323
vt 0.873499 0.756777
vt 0.912377 0.715588
vt 0.932205 0.668298
vt 0.403928 0.135441
vt 0.429807 0.135441
vt 0.403928 0.091771
vt 0.429807 0.091771
vt 0.403928 0.049373
vt 0.429807 0.049373
vt 0.403928 0.007492
vt 0.435399 0.006794
vt 0.460646 0.043356
vt 0.435399 0.043357
vt 0.460646 0.080216
vt 0.435399 0.080216
vt 0.460646 0.119727
vt 0.435399 0.119727
vt 0.460646 0.163000
vt 0.435398 0.163000
vt 0.460646 0.210972
vt 0.435398 0.210972
vt 0.403928 0.456446
vt 0.435399 0.450992
vt 0.460646 0.006794
vt 0.429807 0.007492
vn 0.939693 0.342020 0.000000
vn 0.766045 0.642787 0.000000
vn 0.766045 0.642787 0.000000
vn 0.939693 0.342020 0.000000
vn 0.500000 0.866025 0.000000
vn 0.500000 0.866025 0.000000
vn 0.342021 0.939692 0.000000
vn 0.342021 0.939692 0.000000
vn 0.000001 1.000000 0.000000
vn -0.173648 0.984808 0.000000
vn -0.173648 0.984808 0.000000
vn 0.000001 1.000000 0.000000
vn -0.500000 0.866026 -0.000000
vn -0.500000 0.866026 -0.000000
vn -0.766045 0.642788 -0.000001
vn -0.766044 0.642788 -0.000001
vn -0.939693 0.342020 -0.000000
vn -0.939693 0.342020 -0.000000
vn -1.000000 0.000000 -0.000000
vn -1.000000 0.000000 -0.000000
vn -0.939692 -0.342020 -0.000000
vn -0.939693 -0.342021 -0.000000
vn -0.766045 -0.642787 0.000000
vn -0.766045 -0.642787 0.000000
vn -0.500000 -0.866025 0.000000
vn -0.500000 -0.866025 0.000000
vn -0.342020 -0.939693 0.000000
vn -0.342020 -0.939693 0.000000
vn -0.000000 -1.000000 0.000000
vn 0.173648 -0.984808 0.000000
vn 0.173648 -0.984808 0.000000
vn -0.000000 -1.000000 0.000000
vn 0.500000 -0.866025 0.000000
vn 0.500000 -0.866025 0.000000
vn 0.766044 -0.642788 0.000000
vn 0.766044 -0.642788 0.000000
vn 0.939693 -0.342020 -0.000000
vn 0.939693 -0.342020 -0.000000
vn 1.000000 -0.000000 -0.000000
vn 1.000000 -0.000000 -0.000000
vn -0.000001 0.000000 1.000000
vn -0.000000 0.000000 1.000000
vn -0.420191 -0.352581 0.836138
vn -0.515440 -0.187604 0.836138
vn 0.000000 0.000000 1.000000
vn -0.274260 -0.475032 0.836138
vn 0.000000 0.000000 1.000000
vn -0.095250 -0.540186 0.836138
vn 0.000000 0.000000 1.000000
vn 0.095249 -0.540186 0.836138
vn 0.000000 0.000000 1.000000
vn 0.274259 -0.475032 0.836138
vn -0.000001 0.000000 1.000000
vn 0.420190 -0.352581 0.836138
vn -0.000001 0.000000 1.000000
vn 0.515440 -0.187605 0.836138
vn -0.000000 -0.000000 1.000000
vn 0.548520 -0.000000 0.836138
vn -0.000001 -0.000000 1.000000
vn 0.515440 0.187605 0.836138
vn -0.000001 -0.000000 1.000000
vn 0.420190 0.352582 0.836138
vn -0.000000 -0.000000 1.000000
vn 0.274260 0.475032 0.836138
vn 0.000000 0.000000 1.000000
vn 0.095250 0.540186 0.836138
vn -0.000000 0.000000 1.000000
vn -0.095249 0.540186 0.836138
vn -0.000000 -0.000000 1.000000
vn -0.274260 0.475032 0.836138
vn 0.000000 -0.000000 1.000000
vn -0.420190 0.352581 0.836138
vn 0.000000 -0.000000 1.000000
vn -0.515440 0.187605 0.836138
vn -0.000000 -0.000000 1.000000
vn -0.548520 0.000000 0.836138
vn -0.686202 -0.575791 0.444512
vn -0.841751 -0.306372 0.444512
vn -0.447887 -0.775762 0.444513
vn -0.155549 -0.882164 0.444513
vn 0.155549 -0.882164 0.444513
vn 0.447885 -0.775762 0.444513
vn 0.686201 -0.575792 0.444513
vn 0.841751 -0.306372 0.444512
vn 0.895773 -0.000000 0.444512
vn 0.841751 0.306372 0.444512
vn 0.686202 0.575792 0.444513
vn 0.447886 0.775762 0.444512
vn 0.155550 0.882164 0.444512
vn -0.155549 0.882164 0.444512
vn -0.447886 0.775762 0.444512
vn -0.686202 0.575791 0.444512
vn -0.841751 0.306372 0.444512
vn -0.895773 0.000000 0.444512
vn 0.346394 0.126077 0.929578
vn 0.282383 0.236947 0.929579
vn -0.061980 -0.052007 0.996722
vn -0.076029 -0.027673 0.996722
vn 0.184312 0.319238 0.929579
vn -0.040455 -0.070069 0.996722
vn 0.064011 0.363024 0.929578
vn -0.014050 -0.079680 0.996722
vn -0.064010 0.363024 0.929579
vn 0.014050 -0.079680 0.996722
vn -0.184312 0.319238 0.929578
vn 0.040454 -0.070069 0.996722
vn -0.282383 0.236948 0.929578
vn 0.061980 -0.052007 0.996722
vn -0.346394 0.126077 0.929578
vn 0.076029 -0.027672 0.996722
vn -0.368625 0.000000 0.929578
vn 0.080909 0.000000 0.996722
vn -0.346394 -0.126077 0.929578
vn 0.076030 0.027672 0.996722
vn -0.282383 -0.236947 0.929578
vn 0.061980 0.052007 0.996722
vn -0.184312 -0.319238 0.929578
vn 0.040455 0.070069 0.996722
vn -0.064011 -0.363024 0.929578
vn 0.014050 0.079680 0.996722
vn 0.064011 -0.363025 0.929578
vn -0.014049 0.079679 0.996722
vn 0.184312 -0.319238 0.929578
vn -0.040454 0.070069 0.996722
vn 0.282383 -0.236947 0.929578
vn -0.061980 0.052008 0.996722
vn 0.346394 -0.126077 0.929578
vn -0.076029 0.027673 0.996722
vn 0.368625 0.000000 0.929578
vn -0.080909 0.000000 0.996722
vn 0.532145 0.193685 0.824201
vn 0.433808 0.364008 0.824202
vn 0.283148 0.490427 0.824202
vn 0.098336 0.557693 0.824202
vn -0.098335 0.557693 0.824202
vn -0.283148 0.490427 0.824202
vn -0.433808 0.364009 0.824201
vn -0.532145 0.193685 0.824201
vn -0.566297 -0.000000 0.824201
vn -0.532146 -0.193685 0.824201
vn -0.433810 -0.364009 0.824201
vn -0.283149 -0.490428 0.824201
vn -0.098337 -0.557694 0.824201
vn 0.098336 -0.557694 0.824201
vn 0.283149 -0.490428 0.824201
vn 0.433809 -0.364009 0.824201
vn 0.532146 -0.193685 0.824201
vn 0.566298 0.000000 0.824201
vn -0.199952 -0.167779 0.965334
vn -0.245277 -0.089274 0.965334
vn -0.130510 -0.226048 0.965334
vn -0.045326 -0.257053 0.965334
vn 0.045325 -0.257053 0.965334
vn 0.130509 -0.226048 0.965334
vn 0.199951 -0.167779 0.965334
vn 0.245277 -0.089273 0.965334
vn 0.261018 0.000000 0.965334
vn 0.245276 0.089273 0.965334
vn 0.199952 0.167779 0.965334
vn 0.130509 0.226048 0.965334
vn 0.045325 0.257052 0.965334
vn -0.045325 0.257052 0.965334
vn -0.130509 0.226048 0.965334
vn -0.199951 0.167779 0.965334
vn -0.245277 0.089274 0.965334
vn -0.261019 -0.000000 0.965334
vn 0.367053 0.133595 0.920557
vn 0.299224 0.251078 0.920557
vn 0.000000 -0.000000 1.000000
vn 0.195304 0.338278 0.920557
vn 0.067828 0.384676 0.920556
vn -0.067830 0.384676 0.920556
vn -0.195305 0.338278 0.920556
vn -0.299223 0.251079 0.920557
vn -0.367052 0.133596 0.920557
vn -0.390609 -0.000000 0.920557
vn -0.367052 -0.133596 0.920557
vn -0.299224 -0.251078 0.920557
vn -0.195304 -0.338277 0.920557
vn -0.067828 -0.384675 0.920557
vn 0.067827 -0.384675 0.920557
vn 0.195304 -0.338276 0.920557
vn 0.299224 -0.251078 0.920557
vn 0.367052 -0.133596 0.920557
vn 0.390609 -0.000000 0.920557
vn 0.516336 0.187930 0.835512
vn 0.420920 0.353194 0.835512
vn 0.274736 0.475858 0.835512
vn 0.095415 0.541125 0.835512
vn -0.095416 0.541125 0.835512
vn -0.274736 0.475857 0.835512
vn -0.420919 0.353194 0.835512
vn -0.516335 0.187930 0.835512
vn -0.549473 0.000000 0.835512
vn -0.516334 -0.187930 0.835512
vn -0.420920 -0.353194 0.835512
vn -0.274736 -0.475857 0.835512
vn -0.095415 -0.541124 0.835512
vn 0.095414 -0.541124 0.835512
vn 0.274736 -0.475856 0.835512
vn 0.420921 -0.353194 0.835512
vn 0.516335 -0.187930 0.835512
vn 0.549473 -0.000000 0.835512
vn 0.582843 0.212137 0.784406
vn 0.475137 0.398688 0.784406
vn 0.310124 0.537151 0.784406
vn 0.107705 0.610824 0.784406
vn -0.107705 0.610824 0.784406
vn -0.310122 0.537150 0.784407
vn -0.475135 0.398687 0.784408
vn -0.582842 0.212137 0.784406
vn -0.620247 -0.000000 0.784406
vn -0.582841 -0.212138 0.784406
vn -0.475137 -0.398687 0.784406
vn -0.310123 -0.537149 0.784407
vn -0.107705 -0.610823 0.784408
vn 0.107705 -0.610823 0.784407
vn 0.310125 -0.537149 0.784406
vn 0.475137 -0.398688 0.784406
vn 0.582841 -0.212137 0.784407
vn 0.620248 -0.000000 0.784406
s 1
g S_P01_01_LP speaker_low
usemtl aiStandardSurface1SG
f 151/207/207 152/208/208 171/211/209 170/213/210
f 152/208/208 153/215/211 172/217/212 171/211/209
f 153/215/211 154/219/213 173/425/214 172/217/212
s 2
f 154/424/215 155/223/216 174/225/217 173/221/218
f 155/223/216 156/227/219 175/229/220 174/225/217
f 156/227/219 157/231/221 176/233/222 175/229/220
f 157/231/221 158/235/223 177/237/224 176/233/222
f 158/235/223 159/239/225 178/241/226 177/237/224
f 159/239/225 160/406/227 179/407/228 178/241/226
f 160/406/227 161/408/229 180/409/230 179/407/228
f 161/408/229 162/410/231 181/411/232 180/409/230
f 162/410/231 163/412/233 182/427/234 181/411/232
s 1
f 163/426/235 164/414/236 183/415/237 182/413/238
f 164/414/236 165/416/239 184/417/240 183/415/237
f 165/416/239 166/418/241 185/419/242 184/417/240
f 166/418/241 167/420/243 186/421/244 185/419/242
f 167/420/243 168/422/245 187/423/246 186/421/244
f 168/422/245 151/207/207 170/213/210 187/423/246
s 4
f 170/210/247 171/209/248 189/243/249 188/244/250
f 171/209/248 172/212/251 190/245/252 189/243/249
f 172/212/251 173/214/253 191/246/254 190/245/252
f 173/214/253 174/216/255 192/247/256 191/246/254
f 174/216/255 175/218/257 193/248/258 192/247/256
f 175/218/257 176/220/259 194/249/260 193/248/258
f 176/220/259 177/222/261 195/250/262 194/249/260
f 177/222/261 178/224/263 196/251/264 195/250/262
f 178/224/263 179/226/265 197/252/266 196/251/264
f 179/226/265 180/228/267 198/253/268 197/252/266
f 180/228/267 181/230/269 199/254/270 198/253/268
f 181/230/269 182/232/271 200/255/272 199/254/270
f 182/232/271 183/234/273 201/256/274 200/255/272
f 183/234/273 184/236/275 202/257/276 201/256/274
f 184/236/275 185/238/277 203/258/278 202/257/276
f 185/238/277 186/240/279 204/259/280 203/258/278
f 186/240/279 187/242/281 205/260/282 204/259/280
f 187/242/281 170/210/247 188/244/250 205/260/282
f 188/244/250 189/243/249 207/404/283 206/405/284
f 189/243/249 190/245/252 208/403/285 207/404/283
f 190/245/252 191/246/254 209/402/286 208/403/285
f 191/246/254 192/247/256 210/401/287 209/402/286
f 192/247/256 193/248/258 211/400/288 210/401/287
f 193/248/258 194/249/260 212/399/289 211/400/288
f 194/249/260 195/250/262 213/398/290 212/399/289
f 195/250/262 196/251/264 214/397/291 213/398/290
f 196/251/264 197/252/266 215/396/292 214/397/291
f 197/252/266 198/253/268 216/395/293 215/396/292
f 198/253/268 199/254/270 217/394/294 216/395/293
f 199/254/270 200/255/272 218/393/295 217/394/294
f 200/255/272 201/256/274 219/392/296 218/393/295
f 201/256/274 202/257/276 220/391/297 219/392/296
f 202/257/276 203/258/278 221/390/298 220/391/297
f 203/258/278 204/259/280 222/389/299 221/390/298
f 204/259/280 205/260/282 223/388/300 222/389/299
f 205/260/282 188/244/250 206/405/284 223/388/300
s 5
f 242/279/301 243/280/302 245/281/303 244/282/304
f 243/280/302 246/283/305 247/284/306 245/281/303
f 246/283/305 248/285/307 249/286/308 247/284/306
f 248/285/307 250/287/309 251/288/310 249/286/308
f 250/287/309 252/289/311 253/290/312 251/288/310
f 252/289/311 254/291/313 255/292/314 253/290/312
f 254/291/313 256/293/315 257/294/316 255/292/314
f 256/293/315 258/295/317 259/296/318 257/294/316
f 258/295/317 260/297/319 261/298/320 259/296/318
f 260/297/319 262/299/321 263/300/322 261/298/320
f 262/299/321 264/301/323 265/302/324 263/300/322
f 264/301/323 266/303/325 267/304/326 265/302/324
f 266/303/325 268/305/327 269/306/328 267/304/326
f 268/305/327 270/307/329 271/308/330 269/306/328
f 270/307/329 272/309/331 273/310/332 271/308/330
f 272/309/331 274/311/333 275/312/334 273/310/332
f 274/311/333 276/313/335 277/314/336 275/312/334
f 276/313/335 242/279/301 244/282/304 277/314/336
f 206/262/337 207/261/338 243/280/302 242/279/301
f 207/261/338 208/263/339 246/283/305 243/280/302
f 208/263/339 209/264/340 248/285/307 246/283/305
f 209/264/340 210/265/341 250/287/309 248/285/307
f 210/265/341 211/266/342 252/289/311 250/287/309
f 211/266/342 212/267/343 254/291/313 252/289/311
f 212/267/343 213/268/344 256/293/315 254/291/313
f 213/268/344 214/269/345 258/295/317 256/293/315
f 214/269/345 215/270/346 260/297/319 258/295/317
f 215/270/346 216/271/347 262/299/321 260/297/319
f 216/271/347 217/272/348 264/301/323 262/299/321
f 217/272/348 218/273/349 266/303/325 264/301/323
f 218/273/349 219/274/350 268/305/327 266/303/325
f 219/274/350 220/275/351 270/307/329 268/305/327
f 220/275/351 221/276/352 272/309/331 270/307/329
f 221/276/352 222/277/353 274/311/333 272/309/331
f 222/277/353 223/278/354 276/313/335 274/311/333
f 223/278/354 206/262/337 242/279/301 276/313/335
f 244/282/304 245/281/303 225/386/355 224/387/356
f 245/281/303 247/284/306 226/385/357 225/386/355
f 247/284/306 249/286/308 227/384/358 226/385/357
f 249/286/308 251/288/310 228/383/359 227/384/358
f 251/288/310 253/290/312 229/382/360 228/383/359
f 253/290/312 255/292/314 230/381/361 229/382/360
f 255/292/314 257/294/316 231/380/362 230/381/361
f 257/294/316 259/296/318 232/379/363 231/380/362
f 259/296/318 261/298/320 233/378/364 232/379/363
f 261/298/320 263/300/322 234/377/365 233/378/364
f 263/300/322 265/302/324 235/376/366 234/377/365
f 265/302/324 267/304/326 236/375/367 235/376/366
f 267/304/326 269/306/328 237/374/368 236/375/367
f 269/306/328 271/308/330 238/373/369 237/374/368
f 271/308/330 273/310/332 239/372/370 238/373/369
f 273/310/332 275/312/334 240/370/371 239/372/370
f 275/312/334 277/314/336 241/371/372 240/370/371
f 277/314/336 244/282/304 224/387/356 241/371/372
s 6
f 280/333/373 281/334/374 169/335/375
f 281/334/374 283/336/376 169/335/375
f 283/336/376 285/337/377 169/335/375
f 285/337/377 287/338/378 169/335/375
f 287/338/378 289/339/379 169/335/375
f 289/339/379 291/340/380 169/335/375
f 291/340/380 293/341/381 169/335/375
f 293/341/381 295/342/382 169/335/375
f 295/342/382 297/343/383 169/335/375
f 297/343/383 299/344/384 169/335/375
f 299/344/384 301/345/385 169/335/375
f 301/345/385 303/346/386 169/335/375
f 303/346/386 305/347/387 169/335/375
f 305/347/387 307/348/388 169/335/375
f 307/348/388 309/349/389 169/335/375
f 309/349/389 311/350/390 169/335/375
f 311/350/390 313/351/391 169/335/375
f 313/351/391 280/333/373 169/335/375
f 278/352/392 279/353/393 281/334/374 280/333/373
f 279/353/393 282/354/394 283/336/376 281/334/374
f 282/354/394 284/355/395 285/337/377 283/336/376
f 284/355/395 286/356/396 287/338/378 285/337/377
f 286/356/396 288/357/397 289/339/379 287/338/378
f 288/357/397 290/358/398 291/340/380 289/339/379
f 290/358/398 292/359/399 293/341/381 291/340/380
f 292/359/399 294/360/400 295/342/382 293/341/381
f 294/360/400 296/361/401 297/343/383 295/342/382
f 296/361/401 298/362/402 299/344/384 297/343/383
f 298/362/402 300/363/403 301/345/385 299/344/384
f 300/363/403 302/364/404 303/346/386 301/345/385
f 302/364/404 304/365/405 305/347/387 303/346/386
f 304/365/405 306/366/406 307/348/388 305/347/387
f 306/366/406 308/367/407 309/349/389 307/348/388
f 308/367/407 310/368/408 311/350/390 309/349/389
f 310/368/408 312/369/409 313/351/391 311/350/390
f 312/369/409 278/352/392 280/333/373 313/351/391
f 224/316/410 225/315/411 279/353/393 278/352/392
f 225/315/411 226/317/412 282/354/394 279/353/393
f 226/317/412 227/318/413 284/355/395 282/354/394
f 227/318/413 228/319/414 286/356/396 284/355/395
f 228/319/414 229/320/415 288/357/397 286/356/396
f 229/320/415 230/321/416 290/358/398 288/357/397
f 230/321/416 231/322/417 292/359/399 290/358/398
f 231/322/417 232/323/418 294/360/400 292/359/399
f 232/323/418 233/324/419 296/361/401 294/360/400
f 233/324/419 234/325/420 298/362/402 296/361/401
f 234/325/420 235/326/421 300/363/403 298/362/402
f 235/326/421 236/327/422 302/364/404 300/363/403
f 236/327/422 237/328/423 304/365/405 302/364/404
f 237/328/423 238/329/424 306/366/406 304/365/405
f 238/329/424 239/330/425 308/367/407 306/366/406
f 239/330/425 240/331/426 310/368/408 308/367/407
f 240/331/426 241/332/427 312/369/409 310/368/408
f 241/332/427 224/316/410 278/352/392 312/369/409
g default
v 18.711639 86.793076 31.012699
v 16.435728 90.735077 31.012699
v 12.948828 93.660934 31.012699
v 8.671514 95.217758 31.012699
v 4.119687 95.217758 31.012699
v -0.157630 93.660934 31.012699
v -3.644532 90.735077 31.012699
v -5.920445 86.793091 31.012699
v -6.710861 82.310410 31.012699
v -5.920447 77.827736 31.012699
v -3.644536 73.885742 31.012699
v -0.157635 70.959892 31.012699
v 4.119681 69.403069 31.012699
v 8.671506 69.403069 31.012699
v 12.948824 70.959892 31.012699
v 16.435722 73.885742 31.012699
v 18.711639 77.827736 31.012699
v 19.502052 82.310410 31.012699
v 6.395596 82.310410 32.777367
v 18.711639 86.793076 34.617363
v 16.435728 90.735077 34.617367
v 12.948828 93.660934 34.617367
v 8.671514 95.217758 34.617363
v 4.119687 95.217758 34.617363
v -0.157630 93.660934 34.617367
v -3.644532 90.735077 34.617367
v -5.920445 86.793091 34.617367
v -6.710861 82.310410 34.617363
v -5.920447 77.827736 34.617363
v -3.644536 73.885742 34.617367
v -0.157635 70.959892 34.617367
v 4.119681 69.403069 34.617367
v 8.671506 69.403069 34.617367
v 12.948824 70.959892 34.617367
v 16.435722 73.885742 34.617367
v 18.711639 77.827736 34.617363
v 19.502052 82.310410 34.617363
v 16.984558 86.164467 34.617363
v 15.027797 89.553680 34.617363
v 12.029865 92.069244 34.617363
v 8.352361 93.407761 34.617363
v 4.438839 93.407761 34.617363
v 0.761331 92.069244 34.617363
v -2.236602 89.553680 34.617363
v -4.193364 86.164474 34.617363
v -4.872940 82.310410 34.617363
v -4.193365 78.456345 34.617363
v -2.236605 75.067139 34.617363
v 0.761326 72.551575 34.617363
v 4.438834 71.213066 34.617367
v 8.352355 71.213066 34.617367
v 12.029863 72.551575 34.617363
v 15.027796 75.067139 34.617363
v 16.984558 78.456345 34.617363
v 17.664131 82.310410 34.617363
v 15.352894 85.570587 32.777363
v 13.697653 88.437561 32.777367
v 11.161671 90.565498 32.777363
v 8.050838 91.697762 32.777359
v 4.740363 91.697762 32.777359
v 1.629522 90.565498 32.777363
v -0.906458 88.437561 32.777367
v -2.561700 85.570595 32.777363
v -3.136561 82.310410 32.777367
v -2.561702 79.050224 32.777363
v -0.906462 76.183266 32.777367
v 1.629517 74.055321 32.777363
v 4.740354 72.923065 32.777367
v 8.050835 72.923065 32.777367
v 11.161673 74.055321 32.777363
v 13.697653 76.183273 32.777367
v 15.352894 79.050224 32.777363
v 15.927752 82.310410 32.777367
vt 0.186409 0.279622
vt 0.186335 0.347563
vt 0.417126 0.624020
vt 0.384702 0.608352
vt 0.132700 0.347571
vt 0.442586 0.652253
vt 0.132665 0.279622
vt 0.454830 0.686119
vt 0.186122 0.415202
vt 0.454824 0.721164
vt 0.132933 0.415207
vt 0.443111 0.753452
vt 0.185723 0.482005
vt 0.421394 0.779520
vt 0.133366 0.482026
vt 0.392305 0.796644
vt 0.185160 0.547509
vt 0.359217 0.802979
vt 0.133931 0.547533
vt 0.325828 0.797795
vt 0.184502 0.611465
vt 0.296016 0.781669
vt 0.318818 0.006732
vt 0.273300 0.756477
vt 0.372762 0.074790
vt 0.260329 0.725164
vt 0.319587 0.074800
vt 0.258614 0.691418
vt 0.372158 0.140928
vt 0.268324 0.659158
vt 0.320208 0.140979
vt 0.288354 0.631989
vt 0.371837 0.205807
vt 0.316519 0.613071
vt 0.320668 0.205818
vt 0.349842 0.604749
vt 0.375141 0.640241
vt 0.396538 0.651473
vt 0.527635 0.581892
vt 0.413158 0.669903
vt 0.422126 0.692344
vt 0.422736 0.715875
vt 0.415242 0.737688
vt 0.400744 0.755361
vt 0.381103 0.766995
vt 0.358697 0.771249
vt 0.336053 0.767617
vt 0.315790 0.756563
vt 0.300309 0.739395
vt 0.291401 0.718102
vt 0.290121 0.695204
vt 0.296661 0.673355
vt 0.310256 0.655018
vt 0.329328 0.642416
vt 0.351798 0.637211
vt 0.408317 0.636021
vt 0.380703 0.622139
vt 0.429741 0.659779
vt 0.440705 0.688675
vt 0.441010 0.718797
vt 0.431137 0.746615
vt 0.412525 0.769104
vt 0.387492 0.783890
vt 0.358979 0.789340
vt 0.330207 0.784825
vt 0.304502 0.770886
vt 0.284898 0.749149
vt 0.273683 0.722143
vt 0.272155 0.693059
vt 0.280514 0.665260
vt 0.297799 0.641881
vt 0.322088 0.625689
vt 0.350773 0.618732
vt 0.527635 0.515616
vt 0.504967 0.519613
vt 0.485034 0.531122
vt 0.470239 0.548754
vt 0.462366 0.570383
vt 0.462366 0.593400
vt 0.470239 0.615029
vt 0.485034 0.632662
vt 0.504967 0.644170
vt 0.527635 0.648167
vt 0.550302 0.644170
vt 0.570236 0.632662
vt 0.585031 0.615029
vt 0.592903 0.593400
vt 0.592903 0.570383
vt 0.585031 0.548754
vt 0.570236 0.531122
vt 0.550302 0.519613
vt 0.371722 0.270078
vt 0.320839 0.270079
vt 0.371675 0.334210
vt 0.320818 0.334227
vt 0.371784 0.398482
vt 0.320821 0.398488
vt 0.371849 0.462900
vt 0.320836 0.462928
vt 0.371860 0.527361
vt 0.320862 0.527370
vt 0.371846 0.591698
vt 0.132764 0.010131
vt 0.186268 0.077746
vt 0.132798 0.077769
vt 0.186184 0.145142
vt 0.132882 0.145126
vt 0.186206 0.212268
vt 0.132898 0.212281
vt 0.186315 0.010135
vt 0.320903 0.591710
vt 0.373495 0.006737
vt 0.134575 0.611440
vn 0.939693 0.342020 0.000000
vn 0.766045 0.642788 0.000000
vn 0.766045 0.642788 0.000000
vn 0.939693 0.342020 0.000000
vn 0.500001 0.866025 0.000000
vn 0.500001 0.866025 0.000000
vn 0.173649 0.984808 0.000000
vn 0.173649 0.984808 0.000000
vn -0.173649 0.984808 0.000000
vn -0.173649 0.984808 0.000000
vn -0.342021 0.939692 0.000000
vn -0.342021 0.939692 0.000000
vn -0.642788 0.766045 0.000000
vn -0.766044 0.642788 0.000000
vn -0.766044 0.642788 0.000000
vn -0.642788 0.766045 0.000000
vn -0.939693 0.342020 0.000000
vn -0.939692 0.342020 0.000000
vn -1.000000 0.000000 0.000000
vn -1.000000 0.000000 0.000000
vn -0.939693 -0.342020 0.000000
vn -0.939693 -0.342020 0.000000
vn -0.766044 -0.642788 0.000000
vn -0.766044 -0.642788 0.000000
vn -0.500000 -0.866025 0.000000
vn -0.500000 -0.866025 0.000000
vn -0.173649 -0.984808 0.000000
vn -0.173649 -0.984808 0.000000
vn 0.173649 -0.984808 0.000000
vn 0.173649 -0.984808 0.000000
vn 0.342021 -0.939692 0.000000
vn 0.342021 -0.939692 0.000000
vn 0.642787 -0.766045 0.000000
vn 0.766044 -0.642789 0.000000
vn 0.766044 -0.642788 0.000000
vn 0.642787 -0.766045 0.000000
vn 0.939693 -0.342020 0.000000
vn 0.939693 -0.342020 0.000000
vn 1.000000 0.000000 0.000000
vn 1.000000 0.000000 0.000000
vn 0.000000 0.000000 1.000000
vn 0.000000 -0.000000 1.000000
vn -0.000000 0.000000 1.000000
vn -0.000002 0.000001 1.000000
vn -0.000002 0.000001 1.000000
vn 0.000002 0.000001 1.000000
vn 0.000002 0.000001 1.000000
vn 0.000000 -0.000000 1.000000
vn 0.000000 0.000000 1.000000
vn 0.000000 -0.000000 1.000000
vn 0.000000 -0.000000 1.000000
vn -0.000000 0.000000 1.000000
vn 0.000000 -0.000000 1.000000
vn 0.000001 0.000000 1.000000
vn -0.000001 0.000000 1.000000
vn -0.000001 -0.000000 1.000000
vn 0.000000 0.000000 1.000000
vn 0.000000 -0.000000 1.000000
vn 0.000000 -0.000000 1.000000
vn 0.000001 -0.000000 1.000000
vn -0.000000 -0.000001 1.000000
vn -0.299807 -0.251568 0.920233
vn -0.367767 -0.133857 0.920233
vn -0.000001 -0.000001 1.000000
vn -0.195686 -0.338937 0.920233
vn 0.000000 -0.000000 1.000000
vn -0.067962 -0.385425 0.920233
vn -0.000000 -0.000000 1.000000
vn 0.067962 -0.385425 0.920233
vn 0.000000 -0.000001 1.000000
vn 0.195686 -0.338938 0.920233
vn 0.000002 -0.000001 1.000000
vn 0.299808 -0.251569 0.920233
vn 0.000001 -0.000001 1.000000
vn 0.367768 -0.133857 0.920233
vn -0.000000 -0.000000 1.000000
vn 0.391370 -0.000000 0.920233
vn -0.000000 0.000000 1.000000
vn 0.367767 0.133857 0.920233
vn 0.000000 0.000001 1.000000
vn 0.299807 0.251569 0.920233
vn 0.000000 0.000001 1.000000
vn 0.195686 0.338938 0.920233
vn 0.000000 0.000001 1.000000
vn 0.067961 0.385425 0.920233
vn 0.000000 0.000001 1.000000
vn -0.067961 0.385425 0.920233
vn -0.000001 0.000001 1.000000
vn -0.195686 0.338938 0.920233
vn -0.000000 0.000001 1.000000
vn -0.299807 0.251569 0.920233
vn 0.000000 0.000000 1.000000
vn -0.367766 0.133857 0.920234
vn 0.000000 0.000000 1.000000
vn -0.391370 0.000000 0.920234
vn -0.557135 -0.467492 0.686332
vn -0.683428 -0.248747 0.686332
vn -0.363645 -0.629850 0.686332
vn -0.126294 -0.716240 0.686331
vn 0.126294 -0.716240 0.686331
vn 0.363645 -0.629851 0.686331
vn 0.557135 -0.467493 0.686332
vn 0.683428 -0.248748 0.686332
vn 0.727288 -0.000000 0.686332
vn 0.683427 0.248747 0.686332
vn 0.557135 0.467492 0.686332
vn 0.363645 0.629850 0.686332
vn 0.126293 0.716240 0.686331
vn -0.126293 0.716240 0.686331
vn -0.363645 0.629850 0.686332
vn -0.557135 0.467492 0.686332
vn -0.683427 0.248747 0.686333
vn -0.727288 -0.000000 0.686332
s 1
g S_P01_01_LP circle_01_low
usemtl aiStandardSurface1SG
f 314/428/428 315/429/429 334/432/430 333/434/431
f 315/429/429 316/436/432 335/438/433 334/432/430
f 316/436/432 317/440/434 336/442/435 335/438/433
f 317/440/434 318/444/436 337/446/437 336/442/435
f 318/444/436 319/448/438 338/540/439 337/446/437
s 2
f 319/539/440 320/452/441 339/454/442 338/450/443
f 320/452/441 321/456/444 340/458/445 339/454/442
f 321/456/444 322/460/446 341/462/447 340/458/445
f 322/460/446 323/519/448 342/520/449 341/462/447
f 323/519/448 324/521/450 343/522/451 342/520/449
f 324/521/450 325/523/452 344/524/453 343/522/451
f 325/523/452 326/525/454 345/526/455 344/524/453
f 326/525/454 327/527/456 346/528/457 345/526/455
f 327/527/456 328/529/458 347/538/459 346/528/457
s 1
f 328/537/460 329/531/461 348/532/462 347/530/463
f 329/531/461 330/533/464 349/534/465 348/532/462
f 330/533/464 331/535/466 350/536/467 349/534/465
f 331/535/466 314/428/428 333/434/431 350/536/467
s 4
f 369/518/468 370/517/469 332/466/470
f 370/517/469 371/516/471 332/466/470
f 371/516/471 372/515/472 332/466/470
f 372/515/472 373/514/473 332/466/470
f 373/514/473 374/513/474 332/466/470
f 374/513/474 375/512/475 332/466/470
f 375/512/475 376/511/476 332/466/470
f 376/511/476 377/510/477 332/466/470
f 377/510/477 378/509/478 332/466/470
f 378/509/478 379/508/479 332/466/470
f 379/508/479 380/507/480 332/466/470
f 380/507/480 381/506/481 332/466/470
f 381/506/481 382/505/482 332/466/470
f 382/505/482 383/504/483 332/466/470
f 383/504/483 384/503/484 332/466/470
f 384/503/484 385/502/485 332/466/470
f 385/502/485 386/501/486 332/466/470
f 386/501/486 369/518/468 332/466/470
s 5
f 333/431/487 334/430/488 352/483/489 351/484/490
f 334/430/488 335/433/491 353/485/492 352/483/489
f 335/433/491 336/435/493 354/486/494 353/485/492
f 336/435/493 337/437/495 355/487/496 354/486/494
f 337/437/495 338/439/497 356/488/498 355/487/496
f 338/439/497 339/441/499 357/489/500 356/488/498
f 339/441/499 340/443/501 358/490/502 357/489/500
f 340/443/501 341/445/503 359/491/504 358/490/502
f 341/445/503 342/447/505 360/492/506 359/491/504
f 342/447/505 343/449/507 361/493/508 360/492/506
f 343/449/507 344/451/509 362/494/510 361/493/508
f 344/451/509 345/453/511 363/495/512 362/494/510
f 345/453/511 346/455/513 364/496/514 363/495/512
f 346/455/513 347/457/515 365/497/516 364/496/514
f 347/457/515 348/459/517 366/498/518 365/497/516
f 348/459/517 349/461/519 367/499/520 366/498/518
f 349/461/519 350/463/521 368/500/522 367/499/520
f 350/463/521 333/431/487 351/484/490 368/500/522
f 351/484/490 352/483/489 370/465/523 369/464/524
f 352/483/489 353/485/492 371/467/525 370/465/523
f 353/485/492 354/486/494 372/468/526 371/467/525
f 354/486/494 355/487/496 373/469/527 372/468/526
f 355/487/496 356/488/498 374/470/528 373/469/527
f 356/488/498 357/489/500 375/471/529 374/470/528
f 357/489/500 358/490/502 376/472/530 375/471/529
f 358/490/502 359/491/504 377/473/531 376/472/530
f 359/491/504 360/492/506 378/474/532 377/473/531
f 360/492/506 361/493/508 379/475/533 378/474/532
f 361/493/508 362/494/510 380/476/534 379/475/533
f 362/494/510 363/495/512 381/477/535 380/476/534
f 363/495/512 364/496/514 382/478/536 381/477/535
f 364/496/514 365/497/516 383/479/537 382/478/536
f 365/497/516 366/498/518 384/480/538 383/479/537
f 366/498/518 367/499/520 385/481/539 384/480/538
f 367/499/520 368/500/522 386/482/540 385/481/539
f 368/500/522 351/484/490 369/464/524 386/482/540
g default
v 18.711639 33.163475 31.012699
v 16.435728 37.105476 31.012699
v 12.948828 40.031342 31.012699
v 8.671514 41.588165 31.012699
v 4.119687 41.588165 31.012699
v -0.157630 40.031342 31.012699
v -3.644532 37.105476 31.012699
v -5.920445 33.163498 31.012699
v -6.710861 28.680813 31.012699
v -5.920447 24.198141 31.012699
v -3.644536 20.256145 31.012699
v -0.157635 17.330299 31.012699
v 4.119681 15.773474 31.012699
v 8.671506 15.773474 31.012699
v 12.948824 17.330299 31.012699
v 16.435722 20.256145 31.012699
v 18.711639 24.198141 31.012699
v 19.502052 28.680813 31.012699
v 6.395596 28.680813 32.777367
v 18.711639 33.163479 34.617363
v 16.435728 37.105480 34.617367
v 12.948828 40.031338 34.617367
v 8.671515 41.588165 34.617363
v 4.119687 41.588165 34.617363
v -0.157630 40.031338 34.617367
v -3.644532 37.105480 34.617367
v -5.920446 33.163498 34.617367
v -6.710861 28.680813 34.617363
v -5.920447 24.198141 34.617363
v -3.644536 20.256145 34.617367
v -0.157635 17.330297 34.617367
v 4.119681 15.773475 34.617367
v 8.671507 15.773475 34.617367
v 12.948825 17.330297 34.617367
v 16.435722 20.256145 34.617367
v 18.711639 24.198141 34.617363
v 19.502052 28.680813 34.617363
v 16.984558 32.534874 34.617363
v 15.027797 35.924084 34.617363
v 12.029865 38.439648 34.617363
v 8.352362 39.778168 34.617363
v 4.438839 39.778168 34.617363
v 0.761331 38.439648 34.617363
v -2.236602 35.924084 34.617363
v -4.193364 32.534874 34.617363
v -4.872940 28.680813 34.617363
v -4.193365 24.826750 34.617363
v -2.236605 21.437542 34.617363
v 0.761326 18.921978 34.617363
v 4.438834 17.583471 34.617367
v 8.352355 17.583471 34.617367
v 12.029864 18.921978 34.617363
v 15.027797 21.437542 34.617363
v 16.984558 24.826750 34.617363
v 17.664131 28.680813 34.617363
v 15.352894 31.940990 32.777367
v 13.697653 34.807964 32.777367
v 11.161671 36.935905 32.777367
v 8.050838 38.068161 32.777359
v 4.740363 38.068161 32.777359
v 1.629523 36.935905 32.777367
v -0.906458 34.807961 32.777367
v -2.561700 31.941000 32.777367
v -3.136561 28.680813 32.777367
v -2.561702 25.420630 32.777367
v -0.906462 22.553665 32.777367
v 1.629517 20.425724 32.777367
v 4.740354 19.293468 32.777367
v 8.050835 19.293468 32.777367
v 11.161673 20.425724 32.777367
v 13.697653 22.553673 32.777367
v 15.352894 25.420630 32.777367
v 15.927752 28.680813 32.777367
vt 0.253477 0.274662
vt 0.253477 0.339332
vt 0.633185 0.604810
vt 0.633192 0.564907
vt 0.202265 0.339332
vt 0.616456 0.643855
vt 0.202265 0.274662
vt 0.587571 0.671385
vt 0.253477 0.404005
vt 0.552066 0.686710
vt 0.202265 0.404005
vt 0.514234 0.688893
vt 0.253477 0.468681
vt 0.478432 0.678320
vt 0.202265 0.468681
vt 0.448633 0.656753
vt 0.253477 0.533365
vt 0.427882 0.626943
vt 0.202265 0.533365
vt 0.418198 0.592235
vt 0.253477 0.598049
vt 0.420548 0.556365
vt 0.258037 0.016439
vt 0.434707 0.523320
vt 0.309249 0.081101
vt 0.459056 0.496877
vt 0.258037 0.081101
vt 0.490865 0.479946
vt 0.309249 0.145791
vt 0.526760 0.474409
vt 0.258037 0.145791
vt 0.562931 0.481105
vt 0.309249 0.210437
vt 0.595281 0.499734
vt 0.258037 0.210437
vt 0.619798 0.528631
vt 0.597021 0.570769
vt 0.596037 0.597179
vt 0.360068 0.704874
vt 0.585306 0.622224
vt 0.566864 0.641153
vt 0.543442 0.651935
vt 0.518012 0.653761
vt 0.493615 0.646881
vt 0.473092 0.632442
vt 0.458703 0.612271
vt 0.451949 0.588665
vt 0.453512 0.564245
vt 0.463150 0.541751
vt 0.479752 0.523775
vt 0.501502 0.512382
vt 0.526031 0.508886
vt 0.550642 0.513784
vt 0.572451 0.526703
vt 0.588671 0.546373
vt 0.616948 0.601671
vt 0.617574 0.567590
vt 0.602983 0.634265
vt 0.578739 0.658226
vt 0.548437 0.671689
vt 0.515926 0.673783
vt 0.485005 0.664851
vt 0.459169 0.646363
vt 0.441124 0.620683
vt 0.432684 0.590719
vt 0.434700 0.559752
vt 0.446921 0.531231
vt 0.467951 0.508409
vt 0.495466 0.493852
vt 0.526507 0.489202
vt 0.557712 0.495157
vt 0.585510 0.511381
vt 0.606417 0.536364
vt 0.360068 0.643918
vt 0.339219 0.647594
vt 0.320886 0.658179
vt 0.307278 0.674396
vt 0.300037 0.694289
vt 0.300037 0.715459
vt 0.307278 0.735353
vt 0.320886 0.751570
vt 0.339219 0.762155
vt 0.360068 0.765831
vt 0.380916 0.762155
vt 0.399250 0.751570
vt 0.412858 0.735353
vt 0.420098 0.715459
vt 0.420098 0.694289
vt 0.412858 0.674396
vt 0.399250 0.658179
vt 0.380916 0.647594
vt 0.309249 0.275108
vt 0.258037 0.275108
vt 0.309249 0.339802
vt 0.258037 0.339802
vt 0.309249 0.404453
vt 0.258037 0.404453
vt 0.309249 0.469131
vt 0.258037 0.469131
vt 0.309249 0.533835
vt 0.258037 0.533835
vt 0.309249 0.598493
vt 0.202265 0.015949
vt 0.253477 0.080636
vt 0.202265 0.080636
vt 0.253477 0.145336
vt 0.202265 0.145336
vt 0.253477 0.209981
vt 0.202265 0.209981
vt 0.309249 0.016439
vt 0.202264 0.598049
vt 0.253477 0.015949
vt 0.258037 0.598493
vn 0.939693 0.342020 -0.000000
vn 0.766045 0.642787 -0.000000
vn 0.766045 0.642787 -0.000000
vn 0.939693 0.342020 -0.000000
vn 0.500001 0.866025 0.000000
vn 0.500001 0.866025 0.000000
vn 0.173649 0.984808 -0.000000
vn 0.173649 0.984808 -0.000000
vn -0.173649 0.984808 -0.000000
vn -0.173649 0.984808 -0.000000
vn -0.342022 0.939692 0.000000
vn -0.342022 0.939692 0.000000
vn -0.642788 0.766044 0.000000
vn -0.766044 0.642788 -0.000000
vn -0.766044 0.642788 -0.000000
vn -0.642788 0.766044 0.000000
vn -0.939693 0.342020 -0.000000
vn -0.939693 0.342020 -0.000000
vn -1.000000 0.000000 -0.000000
vn -1.000000 0.000000 -0.000000
vn -0.939693 -0.342020 -0.000000
vn -0.939693 -0.342020 -0.000000
vn -0.766044 -0.642788 -0.000000
vn -0.766044 -0.642788 -0.000000
vn -0.500000 -0.866026 -0.000000
vn -0.500000 -0.866026 -0.000000
vn -0.173649 -0.984808 -0.000000
vn -0.173649 -0.984808 -0.000000
vn 0.173649 -0.984808 -0.000000
vn 0.173649 -0.984808 -0.000000
vn 0.342022 -0.939692 -0.000000
vn 0.342022 -0.939692 -0.000000
vn 0.642787 -0.766045 -0.000001
vn 0.766044 -0.642789 -0.000000
vn 0.766044 -0.642789 -0.000000
vn 0.642787 -0.766045 -0.000001
vn 0.939692 -0.342021 0.000000
vn 0.939693 -0.342021 0.000000
vn 1.000000 0.000000 -0.000000
vn 1.000000 0.000000 -0.000000
vn 0.000000 0.000000 1.000000
vn 0.000000 0.000000 1.000000
vn -0.000000 0.000000 1.000000
vn -0.000002 0.000001 1.000000
vn -0.000002 0.000001 1.000000
vn 0.000002 0.000001 1.000000
vn 0.000002 0.000001 1.000000
vn -0.000000 0.000000 1.000000
vn -0.000000 0.000000 1.000000
vn 0.000000 0.000000 1.000000
vn -0.000000 0.000000 1.000000
vn -0.000000 0.000000 1.000000
vn 0.000001 0.000000 1.000000
vn 0.000001 0.000000 1.000000
vn -0.000001 0.000000 1.000000
vn -0.000001 0.000000 1.000000
vn 0.000000 0.000000 1.000000
vn 0.000000 0.000000 1.000000
vn 0.000000 0.000000 1.000000
vn 0.000001 -0.000000 1.000000
vn -0.000000 -0.000001 1.000000
vn -0.299807 -0.251568 0.920233
vn -0.367766 -0.133857 0.920234
vn -0.000001 -0.000001 1.000000
vn -0.195687 -0.338937 0.920233
vn -0.000000 -0.000000 1.000000
vn -0.067961 -0.385424 0.920233
vn 0.000000 -0.000000 1.000000
vn 0.067961 -0.385425 0.920233
vn 0.000001 -0.000001 1.000000
vn 0.195686 -0.338937 0.920233
vn 0.000002 -0.000001 1.000000
vn 0.299808 -0.251568 0.920233
vn 0.000001 -0.000001 1.000000
vn 0.367768 -0.133857 0.920233
vn 0.000000 -0.000000 1.000000
vn 0.391370 -0.000000 0.920233
vn -0.000001 0.000000 1.000000
vn 0.367767 0.133857 0.920234
vn 0.000000 0.000001 1.000000
vn 0.299807 0.251568 0.920233
vn 0.000001 0.000001 1.000000
vn 0.195686 0.338938 0.920233
vn -0.000000 0.000001 1.000000
vn 0.067961 0.385425 0.920233
vn 0.000000 0.000001 1.000000
vn -0.067961 0.385425 0.920233
vn -0.000001 0.000001 1.000000
vn -0.195686 0.338938 0.920233
vn -0.000000 0.000001 1.000000
vn -0.299807 0.251569 0.920233
vn 0.000001 0.000000 1.000000
vn -0.367767 0.133857 0.920234
vn 0.000001 0.000000 1.000000
vn -0.391369 0.000000 0.920234
vn -0.557135 -0.467492 0.686332
vn -0.683427 -0.248747 0.686333
vn -0.363645 -0.629850 0.686332
vn -0.126293 -0.716239 0.686332
vn 0.126293 -0.716239 0.686332
vn 0.363645 -0.629850 0.686332
vn 0.557136 -0.467492 0.686332
vn 0.683428 -0.248748 0.686332
vn 0.727288 -0.000000 0.686332
vn 0.683428 0.248747 0.686332
vn 0.557135 0.467492 0.686332
vn 0.363644 0.629850 0.686332
vn 0.126293 0.716240 0.686331
vn -0.126293 0.716240 0.686331
vn -0.363644 0.629850 0.686332
vn -0.557135 0.467492 0.686333
vn -0.683427 0.248747 0.686333
vn -0.727288 0.000000 0.686332
s 1
g S_P01_01_LP circle_02_low
usemtl aiStandardSurface1SG
f 387/541/541 388/542/542 407/545/543 406/547/544
f 388/542/542 389/549/545 408/551/546 407/545/543
f 389/549/545 390/553/547 409/555/548 408/551/546
f 390/553/547 391/557/549 410/559/550 409/555/548
f 391/557/549 392/561/551 411/651/552 410/559/550
s 2
f 392/650/553 393/565/554 412/567/555 411/563/556
f 393/565/554 394/569/557 413/571/558 412/567/555
f 394/569/557 395/573/559 414/575/560 413/571/558
f 395/573/559 396/632/561 415/633/562 414/575/560
f 396/632/561 397/634/563 416/635/564 415/633/562
f 397/634/563 398/636/565 417/637/566 416/635/564
f 398/636/565 399/638/567 418/639/568 417/637/566
f 399/638/567 400/640/569 419/641/570 418/639/568
f 400/640/569 401/642/571 420/653/572 419/641/570
s 1
f 401/652/573 402/644/574 421/645/575 420/643/576
f 402/644/574 403/646/577 422/647/578 421/645/575
f 403/646/577 404/648/579 423/649/580 422/647/578
f 404/648/579 387/541/541 406/547/544 423/649/580
s 4
f 442/631/581 443/630/582 405/579/583
f 443/630/582 444/629/584 405/579/583
f 444/629/584 445/628/585 405/579/583
f 445/628/585 446/627/586 405/579/583
f 446/627/586 447/626/587 405/579/583
f 447/626/587 448/625/588 405/579/583
f 448/625/588 449/624/589 405/579/583
f 449/624/589 450/623/590 405/579/583
f 450/623/590 451/622/591 405/579/583
f 451/622/591 452/621/592 405/579/583
f 452/621/592 453/620/593 405/579/583
f 453/620/593 454/619/594 405/579/583
f 454/619/594 455/618/595 405/579/583
f 455/618/595 456/617/596 405/579/583
f 456/617/596 457/616/597 405/579/583
f 457/616/597 458/615/598 405/579/583
f 458/615/598 459/614/599 405/579/583
f 459/614/599 442/631/581 405/579/583
s 5
f 406/544/600 407/543/601 425/596/602 424/597/603
f 407/543/601 408/546/604 426/598/605 425/596/602
f 408/546/604 409/548/606 427/599/607 426/598/605
f 409/548/606 410/550/608 428/600/609 427/599/607
f 410/550/608 411/552/610 429/601/611 428/600/609
f 411/552/610 412/554/612 430/602/613 429/601/611
f 412/554/612 413/556/614 431/603/615 430/602/613
f 413/556/614 414/558/616 432/604/617 431/603/615
f 414/558/616 415/560/618 433/605/619 432/604/617
f 415/560/618 416/562/620 434/606/621 433/605/619
f 416/562/620 417/564/622 435/607/623 434/606/621
f 417/564/622 418/566/624 436/608/625 435/607/623
f 418/566/624 419/568/626 437/609/627 436/608/625
f 419/568/626 420/570/628 438/610/629 437/609/627
f 420/570/628 421/572/630 439/611/631 438/610/629
f 421/572/630 422/574/632 440/612/633 439/611/631
f 422/574/632 423/576/634 441/613/635 440/612/633
f 423/576/634 406/544/600 424/597/603 441/613/635
f 424/597/603 425/596/602 443/578/636 442/577/637
f 425/596/602 426/598/605 444/580/638 443/578/636
f 426/598/605 427/599/607 445/581/639 444/580/638
f 427/599/607 428/600/609 446/582/640 445/581/639
f 428/600/609 429/601/611 447/583/641 446/582/640
f 429/601/611 430/602/613 448/584/642 447/583/641
f 430/602/613 431/603/615 449/585/643 448/584/642
f 431/603/615 432/604/617 450/586/644 449/585/643
f 432/604/617 433/605/619 451/587/645 450/586/644
f 433/605/619 434/606/621 452/588/646 451/587/645
f 434/606/621 435/607/623 453/589/647 452/588/646
f 435/607/623 436/608/625 454/590/648 453/589/647
f 436/608/625 437/609/627 455/591/649 454/590/648
f 437/609/627 438/610/629 456/592/650 455/591/649
f 438/610/629 439/611/631 457/593/651 456/592/650
f 439/611/631 440/612/633 458/594/652 457/593/651
f 440/612/633 441/613/635 459/595/653 458/594/652
f 441/613/635 424/597/603 442/577/637 459/595/653
