# This file uses centimeters as units for non-parametric coordinates.

mtllib S_P02_01_LP.mtl
g default
v -41.276405 182.437866 6.261250
v -41.276405 182.437866 -6.836109
v 41.276405 182.437866 6.261250
v 41.276405 182.437866 -6.836109
v -41.276405 8.679564 6.261250
v -41.276405 8.679564 -6.836109
v 41.276405 8.679564 6.261250
v 41.276405 8.679564 -6.836109
vt 0.032200 0.034324
vt 0.273501 0.025637
vt 0.275433 0.528247
vt 0.037253 0.527439
vt 0.010044 0.550280
vt 0.302619 0.553148
vt 0.302739 0.002941
vt 0.832135 0.002942
vt 0.603418 0.002942
vt 0.002930 0.009054
vt 0.603418 0.484350
vt 0.832135 0.484350
vn 0.000000 0.000000 1.000000
vn 0.000000 0.000000 1.000000
vn 0.000000 0.000000 1.000000
vn 0.000000 0.000000 1.000000
vn 0.000000 1.000000 0.000000
vn 0.000000 1.000000 0.000000
vn 0.000000 1.000000 0.000000
vn 0.000000 1.000000 0.000000
vn 0.000000 0.000000 -1.000000
vn 0.000000 0.000000 -1.000000
vn 0.000000 0.000000 -1.000000
vn 0.000000 0.000000 -1.000000
vn 0.000000 -1.000000 0.000000
vn 0.000000 -1.000000 0.000000
vn 0.000000 -1.000000 0.000000
vn 0.000000 -1.000000 0.000000
vn 1.000000 0.000000 0.000000
vn 1.000000 0.000000 0.000000
vn 1.000000 0.000000 0.000000
vn 1.000000 0.000000 0.000000
vn -1.000000 0.000000 0.000000
vn -1.000000 0.000000 0.000000
vn -1.000000 0.000000 0.000000
vn -1.000000 0.000000 0.000000
s off
g Body_low Billboard_LowPoly BillBoard
usemtl set4
f 5/1/1 7/2/2 3/3/3 1/4/4
f 2/5/5 1/4/6 3/3/7 4/6/8
f 4/11/9 8/9/10 6/8/11 2/12/12
f 5/1/13 6/10/14 8/7/15 7/2/16
f 7/2/17 8/7/18 4/6/19 3/3/20
f 2/5/21 6/10/22 5/1/23 1/4/24
g default
v -51.840000 0.000000 11.250000
v -51.840000 0.000000 -11.250000
v -45.216000 9.744325 11.250000
v -45.216000 9.744325 -11.250000
v 45.216000 9.744325 11.250000
v 45.216000 9.744325 -11.250000
v 51.840000 0.000000 11.250000
v 51.840000 0.000000 -11.250000
vt 0.030214 0.663684
vt 0.347572 0.664130
vt 0.349982 0.556899
vt 0.027950 0.556913
vt 0.063538 0.577160
vt 0.061134 0.640398
vt 0.315482 0.579367
vt 0.316446 0.642380
vt 0.483320 0.949702
vt 0.483320 0.887365
vt 0.770572 0.949702
vt 0.770572 0.887365
vn 0.000000 -1.000000 0.000000
vn 0.000000 -1.000000 0.000000
vn 0.000000 -1.000000 0.000000
vn 0.000000 -1.000000 0.000000
vn -0.827011 0.562186 0.000000
vn -0.827011 0.562186 0.000000
vn -0.827011 0.562186 0.000000
vn -0.827011 0.562186 0.000000
vn 0.000000 0.000000 1.000000
vn 0.000000 0.000000 1.000000
vn 0.000000 0.000000 1.000000
vn 0.000000 0.000000 1.000000
vn 0.000000 1.000000 0.000000
vn 0.000000 1.000000 0.000000
vn 0.000000 1.000000 0.000000
vn 0.000000 1.000000 0.000000
vn 0.000000 0.000000 -1.000000
vn 0.000000 0.000000 -1.000000
vn 0.000000 0.000000 -1.000000
vn 0.000000 0.000000 -1.000000
vn 0.827011 0.562186 0.000000
vn 0.827011 0.562186 0.000000
vn 0.827011 0.562186 0.000000
vn 0.827011 0.562186 0.000000
s off
g Billboard_LowPoly BillBoard Base_low
usemtl set4
f 10/23/25 16/21/26 15/22/27 9/24/28
f 10/13/29 9/16/30 11/17/31 12/18/32
f 9/16/33 15/15/34 13/19/35 11/17/36
f 11/17/37 13/19/38 14/20/39 12/18/40
f 12/18/41 14/20/42 16/14/43 10/13/44
f 13/19/45 15/15/46 16/14/47 14/20/48
g default
v -31.862339 237.318695 -10.106543
v -31.665380 236.155396 -11.269844
v -20.448021 236.155396 -11.269844
v -20.448021 237.318695 -10.106543
v -32.007511 37.564693 -10.110644
v -33.171425 36.405464 -10.107151
v -33.174904 37.564693 -11.269844
v -33.029762 37.572884 10.681625
v -33.033867 36.405464 9.518324
v -31.870564 37.572884 9.514236
v -43.689323 217.696365 10.681625
v -44.852627 217.762695 9.518324
v -43.854492 226.487686 9.518324
v -42.724396 226.131104 10.681625
v -44.852627 217.762695 -10.106543
v -43.689323 217.696365 -11.269844
v -43.854492 226.487686 -10.106543
v -42.724396 226.131104 -11.269844
v 42.036697 237.318695 -10.106543
v 43.200001 236.155396 -10.106543
v 42.036697 236.155396 -11.269844
v 42.036697 182.110962 -11.269844
v 43.200001 182.110962 -10.106543
v 42.036697 180.947662 -10.106543
v 42.036697 236.155396 10.681625
v 43.200001 236.155396 9.518324
v 42.036697 237.318695 9.518324
v 42.036697 180.947662 9.518324
v 43.200001 182.110962 9.518324
v 42.036697 182.110962 10.681625
v -43.689323 37.568768 -11.269844
v -43.689323 36.405464 -10.106543
v -44.852627 37.568768 -10.106543
v -44.852627 37.568768 9.518324
v -43.689323 36.405464 9.518324
v -43.689323 37.568768 10.681625
v -28.148151 177.698090 9.518324
v -29.027300 178.589722 10.681625
v -31.863159 169.232330 9.517914
v -33.026051 169.476379 10.681625
v -20.448027 180.947662 9.518324
v -20.683439 182.110962 10.681625
v -28.148151 177.698090 -10.106543
v -29.026350 178.590118 -11.269844
v -31.876976 169.232330 -10.106917
v -33.040466 169.477722 -11.269844
v -20.683439 182.110962 -11.269844
v -20.448027 180.947662 -10.106543
v -31.665380 236.155396 10.681625
v -31.862339 237.318695 9.518324
v -20.448021 236.155396 10.681625
v -20.448021 237.318695 9.518324
v -44.852627 177.698090 -10.106543
v -43.689323 177.698090 -11.269844
v -44.852627 177.698090 9.518324
v -43.689323 177.698090 10.681625
v -44.852627 169.232330 9.518324
v -43.689323 169.232330 10.681625
v -43.689323 169.232330 -11.269844
v -44.852627 169.232330 -10.106543
v -40.549099 232.575806 -10.106543
v -39.652779 231.788635 -11.269844
v -35.985981 235.881134 -10.106543
v -35.441826 234.838867 -11.269844
v -39.652779 231.788635 10.681625
v -40.549099 232.575806 9.518324
v -35.985981 235.881134 9.518324
v -35.441826 234.838867 10.681625
vt 0.114353 0.919623
vt 0.102317 0.919529
vt 0.146498 0.920201
vt 0.146481 0.915626
vt 0.318832 0.915281
vt 0.595164 0.778283
vt 0.595195 0.782839
vt 0.002930 0.848608
vt 0.007451 0.848057
vt 0.039480 0.851789
vt 0.595254 0.719416
vt 0.595239 0.723971
vt 0.229989 0.720024
vt 0.008312 0.787107
vt 0.540002 0.787858
vt 0.428948 0.788521
vt 0.042962 0.860219
vt 0.043560 0.855631
vt 0.067878 0.856594
vt 0.086831 0.856666
vt 0.540542 0.846906
vt 0.540388 0.851475
vt 0.429348 0.852182
vt 0.044422 0.921003
vt 0.068043 0.919710
vt 0.067743 0.915187
vt 0.086818 0.914908
vt 0.321965 0.915323
vt 0.472867 0.920883
vt 0.008007 0.778786
vt 0.181636 0.779188
vt 0.472462 0.916312
vt 0.476576 0.860855
vt 0.545678 0.553178
vt 0.319843 0.861252
vt 0.321374 0.856833
vt 0.472031 0.861374
vt 0.008524 0.720158
vt 0.181361 0.720139
vt 0.040584 0.847350
vt 0.036833 0.847282
vt 0.037196 0.793190
vt 0.039895 0.788814
vt 0.405417 0.788539
vt 0.204289 0.719383
vt 0.204325 0.724030
vt 0.181276 0.724672
vt 0.204946 0.784328
vt 0.181722 0.783721
vt 0.230275 0.783529
vt 0.114285 0.856458
vt 0.102275 0.856599
vt 0.114431 0.861042
vt 0.145696 0.860313
vt 0.429322 0.847613
vt 0.405831 0.847769
vt 0.428971 0.793089
vt 0.405459 0.793106
vt 0.086839 0.919515
vt 0.102401 0.915045
vt 0.008428 0.791740
vt 0.322959 0.861291
vt 0.341482 0.553144
vt 0.371934 0.403416
vt 0.114449 0.915039
vt 0.204980 0.779681
vt 0.230175 0.724561
vt 0.584558 0.703606
vt 0.308201 0.367724
vt 0.555102 0.556220
vt 0.531352 0.715710
vt 0.566220 0.530972
vt 0.595726 0.553744
vt 0.540210 0.792424
vt 0.331020 0.549494
vt 0.086858 0.861274
vt 0.310847 0.525365
vt 0.531988 0.565977
vt 0.320376 0.919732
vt 0.007934 0.783334
vt 0.008587 0.724706
vt 0.372560 0.553149
vt 0.545703 0.403445
vt 0.230445 0.778991
vt 0.595724 0.530289
vt 0.566554 0.165499
vt 0.040987 0.793261
vt 0.337744 0.368405
vt 0.308262 0.002942
vt 0.337795 0.002959
vt 0.043786 0.916424
vt 0.067649 0.861117
vt 0.102382 0.861083
vt 0.348818 0.393656
vt 0.308178 0.501996
vt 0.308197 0.391179
vt 0.319355 0.541041
vt 0.562430 0.715707
vt 0.595738 0.664562
vt 0.593067 0.687931
vt 0.572893 0.712058
vt 0.007229 0.852500
vt 0.003985 0.791066
vt 0.476927 0.916853
vt 0.472447 0.856844
vt 0.145696 0.855715
vt 0.405804 0.852348
vt 0.595685 0.165508
vt 0.358234 0.715728
vt 0.358218 0.565995
vn -0.063172 0.700329 -0.711019
vn -0.063172 0.700329 -0.711019
vn -0.337238 0.617276 -0.710803
vn -0.337238 0.617276 -0.710803
vn 0.000000 0.707108 -0.707106
vn 0.000000 0.707108 -0.707106
vn 0.000000 0.707107 -0.707106
vn 0.000000 0.707107 -0.707106
vn 0.705738 -0.000699 -0.708473
vn 0.705738 -0.000699 -0.708473
vn 0.703628 -0.020060 -0.710285
vn 0.703628 -0.020064 -0.710285
vn 0.707004 -0.707193 -0.004797
vn 0.707004 -0.707193 -0.004797
vn 0.707004 -0.707193 -0.004797
vn 0.707004 -0.707193 -0.004797
vn -0.000158 -0.707633 -0.706580
vn -0.000158 -0.707633 -0.706580
vn -0.000158 -0.707633 -0.706580
vn -0.000158 -0.707633 -0.706580
vn 0.708473 -0.000040 0.705738
vn 0.708473 -0.000040 0.705738
vn 0.706230 -0.019382 0.707717
vn 0.706230 -0.019385 0.707717
vn 0.000136 -0.706482 0.707731
vn 0.000136 -0.706482 0.707731
vn 0.000136 -0.706482 0.707731
vn 0.000136 -0.706482 0.707731
vn -0.706627 0.014268 0.707442
vn -0.706627 0.014268 0.707442
vn -0.707106 0.000000 0.707107
vn -0.707106 0.000000 0.707107
vn -0.673186 0.194235 0.713508
vn -0.673186 0.194234 0.713508
vn -0.535453 0.448185 0.715836
vn -0.535453 0.448185 0.715835
vn -0.706627 0.014268 -0.707442
vn -0.706627 0.014268 -0.707442
vn -0.707106 0.000000 -0.707107
vn -0.707106 0.000000 -0.707107
vn -0.673186 0.194234 -0.713508
vn -0.673186 0.194235 -0.713508
vn -0.535452 0.448183 -0.715837
vn -0.535452 0.448183 -0.715837
vn 0.707106 0.707108 0.000000
vn 0.707106 0.707108 0.000000
vn 0.707106 0.707108 0.000000
vn 0.707106 0.707108 0.000000
vn 0.707106 0.000000 -0.707108
vn 0.707106 0.000000 -0.707108
vn 0.707106 0.000000 -0.707108
vn 0.707106 0.000000 -0.707108
vn 0.000000 -0.707108 -0.707105
vn 0.000000 -0.707108 -0.707105
vn 0.033711 -0.703287 -0.710106
vn 0.033711 -0.703287 -0.710106
vn 0.707106 -0.707108 0.000000
vn 0.707106 -0.707108 0.000000
vn 0.707106 -0.707108 0.000000
vn 0.707106 -0.707108 0.000000
vn 0.000000 0.707107 0.707106
vn 0.000000 0.707107 0.707106
vn 0.000000 0.707108 0.707106
vn 0.000000 0.707108 0.707106
vn 0.707106 0.000000 0.707107
vn 0.707106 0.000000 0.707107
vn 0.707106 0.000000 0.707107
vn 0.707106 0.000000 0.707107
vn 0.000000 -0.707108 0.707105
vn 0.000000 -0.707108 0.707105
vn 0.033712 -0.703287 0.710106
vn 0.033712 -0.703287 0.710106
vn -0.707106 0.000000 -0.707107
vn -0.707106 0.000000 -0.707107
vn -0.707106 0.000000 -0.707107
vn -0.707106 0.000000 -0.707107
vn -0.707107 -0.707106 0.000000
vn -0.707107 -0.707106 0.000000
vn -0.707107 -0.707106 0.000000
vn -0.707107 -0.707106 0.000000
vn -0.707106 0.000000 0.707107
vn -0.707106 0.000000 0.707107
vn -0.707106 0.000000 0.707107
vn -0.707106 0.000000 0.707107
vn 0.647608 -0.284189 0.706994
vn 0.647608 -0.284189 0.706994
vn 0.274931 -0.651472 0.707105
vn 0.274931 -0.651472 0.707105
vn 0.274931 -0.651472 -0.707104
vn 0.274932 -0.651472 -0.707104
vn 0.647012 -0.284985 -0.707219
vn 0.647012 -0.284985 -0.707219
vn -0.063172 0.700329 0.711019
vn -0.063172 0.700329 0.711019
vn -0.337240 0.617277 0.710801
vn -0.337240 0.617277 0.710801
vn -0.479215 0.877698 0.000000
vn -0.479215 0.877698 0.000000
vn -0.092126 0.995747 0.000000
vn -0.092126 0.995747 0.000000
vn 0.000000 -1.000000 0.000000
vn 0.000000 -1.000000 0.000000
vn 0.000000 -1.000000 0.000000
vn 0.000000 -1.000000 0.000000
vn 1.000000 0.000000 0.000000
vn 1.000000 0.000000 0.000000
vn 1.000000 0.000000 0.000000
vn 1.000000 0.000000 0.000000
vn 0.000000 0.000000 1.000000
vn -0.000000 0.000000 1.000000
vn 0.000000 0.000000 1.000000
vn 0.000000 0.000000 1.000000
vn 0.000000 1.000000 0.000000
vn 0.000000 1.000000 0.000000
vn 0.388811 -0.921318 0.000000
vn 0.388811 -0.921318 0.000000
vn 0.046251 -0.998930 0.000000
vn 0.046251 -0.998930 0.000000
vn 0.915435 -0.402465 -0.000322
vn 0.915435 -0.402465 -0.000322
vn 0.999628 -0.027048 -0.003629
vn 0.999628 -0.027037 -0.003629
vn -0.000000 0.000000 -1.000000
vn -0.000000 0.000000 -1.000000
vn 0.000000 0.000000 -1.000000
vn 0.000000 0.000000 -1.000000
vn -0.000000 0.000000 1.000000
vn -0.000000 0.000000 1.000000
vn -0.000000 0.000000 1.000000
vn 0.000000 0.000000 -1.000000
vn 0.000000 0.000000 -1.000000
vn 0.000000 0.000000 -1.000000
vn 0.000000 0.000000 -1.000000
vn 0.000000 0.000000 -1.000000
vn -0.000000 0.000000 -1.000000
vn -1.000000 0.000000 0.000000
vn -1.000000 0.000000 0.000000
vn -1.000000 0.000000 0.000000
vn -1.000000 0.000000 0.000000
vn -0.999791 0.020454 0.000000
vn -0.999791 0.020454 0.000000
vn 0.000000 0.000000 1.000000
vn -0.960295 0.278986 0.000000
vn -0.960295 0.278986 0.000000
vn -0.766588 0.642139 0.000000
vn -0.766588 0.642139 0.000000
vn 0.000000 0.000000 1.000000
vn 0.000000 0.000000 1.000000
vn 0.000000 0.000000 -1.000000
vn 0.000000 0.000000 -1.000000
vn 0.000000 -1.000000 0.000000
vn 0.000000 -1.000000 0.000000
vn 0.000000 0.000000 1.000000
vn 0.000000 0.000000 1.000000
vn 0.000000 1.000000 0.000000
vn 0.000000 1.000000 0.000000
vn 0.999992 -0.000524 -0.003841
vn 0.999992 -0.000524 -0.003841
vn 0.000000 0.000000 -1.000000
vn 0.000000 0.000000 -1.000000
vn -1.000000 0.000000 0.000000
vn -1.000000 0.000000 0.000000
vn -0.000000 0.000000 1.000000
vn -0.000000 0.000000 1.000000
vn -0.000000 0.000000 1.000000
vn -0.000000 0.000000 -1.000000
vn 0.574638 -0.578702 -0.578702
vn 0.574638 -0.578702 -0.578702
vn 0.574638 -0.578702 -0.578702
vn 0.580059 -0.575996 0.575986
vn 0.580059 -0.575996 0.575986
vn 0.580059 -0.575996 0.575986
vn 0.577349 0.577351 -0.577351
vn 0.577349 0.577351 -0.577351
vn 0.577349 0.577351 -0.577351
vn 0.577349 -0.577351 -0.577351
vn 0.577349 -0.577351 -0.577351
vn 0.577349 -0.577351 -0.577351
vn 0.577349 0.577351 0.577351
vn 0.577349 0.577351 0.577351
vn 0.577349 0.577351 0.577351
vn 0.577349 -0.577351 0.577351
vn 0.577349 -0.577351 0.577351
vn 0.577349 -0.577351 0.577351
vn -0.577349 -0.577349 -0.577352
vn -0.577349 -0.577349 -0.577352
vn -0.577349 -0.577349 -0.577352
vn -0.577349 -0.577349 0.577352
vn -0.577349 -0.577349 0.577352
vn -0.577349 -0.577349 0.577352
s 1
g Billboard_LowPoly BillBoard Top_low
usemtl set4
f 17/89/49 18/25/50 80/26/51 79/84/52
f 18/25/50 17/89/49 20/28/53 19/27/54
f 19/27/54 20/28/53 35/29/55 37/103/56
s 2
f 21/30/57 23/31/58 62/74/59 61/108/60
s off
f 22/33/61 21/32/62 26/127/63 25/85/64
f 23/126/65 22/33/66 48/65/67 47/34/68
s 3
f 24/35/69 26/36/70 55/91/71 56/37/72
s off
f 25/85/73 24/38/74 52/67/75 51/66/76
s 4
f 27/39/77 28/98/78 71/81/79 72/40/80
f 28/41/78 27/42/77 30/43/81 29/116/82
f 29/116/82 30/43/81 81/44/83 82/100/84
s 1
f 31/45/85 32/46/86 70/47/87 69/79/88
f 32/48/86 31/115/85 33/50/89 34/49/90
f 34/49/90 33/50/89 77/51/91 78/83/92
s off
f 36/52/93 35/29/94 43/59/95 42/86/96
f 37/103/97 36/52/98 39/56/99 38/53/100
s 6
f 38/104/101 40/54/102 64/55/103 63/73/104
s off
f 40/128/105 39/56/106 45/61/107 44/57/108
s 4
f 41/60/109 43/59/110 68/78/111 67/130/112
s off
f 42/86/113 41/60/114 46/129/115 45/61/116
s 8
f 44/105/117 46/62/118 58/63/119 57/71/120
s 1
f 47/34/121 49/64/122 76/80/123 75/131/124
s off
f 49/64/125 48/65/126 51/66/127 50/111/128
s 4
f 50/111/129 52/67/130 74/68/131 73/82/132
s 3
f 53/70/133 54/69/134 56/37/72 55/91/71
s 8
f 54/69/135 53/70/136 57/71/120 58/63/119
s 6
f 59/90/137 60/72/138 63/73/104 64/55/103
s 2
f 60/72/139 59/90/140 61/108/60 62/74/59
s 4
f 65/75/141 66/77/142 83/117/143 84/76/144
f 66/77/142 65/75/141 67/130/112 68/78/111
s 1
f 69/79/88 70/47/87 75/131/124 76/80/123
s 4
f 72/40/80 71/81/79 73/82/132 74/68/131
s 1
f 78/83/92 77/51/91 79/84/52 80/26/51
s 4
f 82/100/84 81/44/83 84/76/144 83/117/143
s 9
f 79/84/145 83/117/146 66/77/147 17/89/148
s off
f 51/66/149 48/65/150 22/33/151 25/85/152
f 45/61/153 39/56/154 36/52/155 42/86/156
s 10
f 65/87/157 54/118/158 58/88/159 67/106/160
s 9
f 17/89/148 66/77/147 68/78/161 20/28/162
s 11
f 53/70/163 59/90/164 64/55/165 57/71/166
s 12
f 59/90/167 53/70/168 55/91/169 61/108/170
s 13
f 60/94/171 34/124/172 78/92/173 80/125/174
s 10
f 54/118/158 72/120/175 74/93/176 56/112/177
s 13
f 60/94/171 18/122/178 19/95/179 63/102/180
f 62/96/181 75/109/182 70/97/183 60/94/171
s 9
f 69/79/184 76/80/185 73/82/186 71/81/187
f 69/79/184 71/81/187 28/98/188 31/45/189
s 10
f 65/87/157 84/99/190 54/118/158
s 9
f 33/50/191 29/116/192 82/100/193 77/51/194
s 10
f 81/121/195 30/101/196 54/118/158 84/99/190
s 13
f 63/102/180 19/95/179 37/133/197 38/134/198
s 11
f 57/71/166 64/55/165 40/54/199 44/105/200
s 10
f 67/106/160 58/88/159 46/107/201 41/58/202
s 9
f 20/28/162 68/78/161 43/59/203 35/29/204
s 12
f 61/108/170 55/91/169 26/36/205 21/30/206
s 13
f 47/132/207 75/109/182 62/96/181 23/110/208
s 9
f 73/82/186 76/80/185 49/64/209 50/111/210
s 10
f 56/112/177 74/93/176 52/113/211 24/114/212
s 9
f 31/115/189 28/41/188 29/116/192 33/50/191
f 77/51/194 82/100/193 83/117/146 79/84/145
s 10
f 54/118/158 30/101/196 27/119/213 72/120/175
s 13
f 60/94/171 80/125/174 18/122/178
f 32/123/214 34/124/172 60/94/171 70/97/183
s off
f 21/32/215 22/33/216 23/126/217
f 24/38/218 25/85/219 26/127/220
f 35/29/221 36/52/222 37/103/223
f 38/53/224 39/56/225 40/128/226
f 41/60/227 42/86/228 43/59/229
f 44/57/230 45/61/231 46/129/232
f 47/34/233 48/65/234 49/64/235
f 50/111/236 51/66/237 52/67/238
g default
v 41.617996 174.319122 10.081280
v 39.915668 172.739609 11.812225
v 41.566914 171.012634 11.815002
v 43.171520 172.765594 10.081272
v -20.806763 37.563881 10.081207
v -19.104086 39.143661 11.811783
v -20.755463 40.870544 11.814556
v -22.360350 39.117477 10.081203
v -22.360350 39.213097 -10.642956
v -20.711136 39.213097 -12.292175
v -20.711136 37.563881 -10.642956
v 43.171520 172.669907 -10.642956
v 41.522320 172.669907 -12.292175
v 41.522320 174.319122 -10.642956
v 35.003445 167.619125 10.333595
v 34.894020 167.069016 10.105732
v 35.916252 166.055527 10.105732
v 36.469021 166.156067 10.333618
v -14.174847 44.280937 10.333595
v -14.065424 44.831047 10.105732
v -15.087648 45.844498 10.105732
v -15.640421 45.743942 10.333618
v 37.404118 166.896042 12.282513
v 36.908390 166.405807 12.079453
v 36.697979 166.197739 11.493454
v 35.048771 167.846985 11.493195
v 35.257835 168.057114 12.079411
v 35.750439 168.552338 12.282593
v 35.619507 166.768509 10.105732
v 36.040543 167.189529 10.333595
v -16.575420 45.004105 12.282742
v -16.079742 45.494270 12.079571
v -15.869384 45.702293 11.493584
v -14.790904 45.131554 10.105732
v -15.211941 44.710518 10.333595
v -14.220172 44.053078 11.493317
v -14.429202 43.842957 12.079521
v -14.921774 43.347816 12.282806
v -10.792476 172.763229 11.809570
v -17.870522 169.840500 11.809322
v -20.800884 162.779480 11.809464
v -22.360331 164.323074 10.070221
v -19.432552 171.391342 10.070148
v -12.364274 174.319122 10.071209
v 43.171497 47.559929 10.070412
v 40.243725 40.491646 10.070332
v 33.175438 37.563873 10.071365
v 31.629187 39.123390 11.809517
v 38.691910 42.052803 11.809330
v 41.615711 49.129013 11.809517
v 33.175438 37.563873 -10.642963
v 40.243725 40.491646 -10.642963
v 43.171497 47.559929 -10.642963
v 41.522289 49.209145 -12.292175
v 38.594517 42.140869 -12.292175
v 31.526224 39.213089 -12.292175
v -10.715044 172.669907 -12.292175
v -20.711119 162.673874 -12.292175
v -17.783333 169.742142 -12.292175
v -12.364274 174.319122 -10.642956
v -19.432552 171.391342 -10.642956
v -22.360331 164.323074 -10.642956
v -5.645414 167.619125 10.333595
v -12.713691 164.691330 10.333599
v -15.641423 157.623032 10.333599
v -5.095318 167.069016 10.105732
v -12.163508 164.141144 10.105732
v -15.091092 157.072647 10.105732
v 36.470032 54.277054 10.333599
v 33.542305 47.208740 10.333599
v 26.474037 44.280937 10.333595
v 35.919712 54.827385 10.105732
v 25.923931 44.831047 10.105732
v 32.992119 47.758926 10.105732
v 37.507587 53.244019 12.270897
v 34.579792 46.173080 12.270897
v 27.505068 43.254425 12.272343
v 36.939377 53.810608 12.087437
v 34.012005 46.740486 12.087444
v 26.942781 43.815079 12.086464
v 26.702406 44.053078 11.527622
v 33.770344 46.980995 11.532528
v 36.697979 54.049614 11.532513
v -5.872759 167.846985 11.527519
v -12.941432 164.919357 11.532433
v -15.869375 157.851486 11.532440
v -6.110486 168.084412 12.086418
v -13.182742 165.160217 12.087418
v -16.111332 158.093155 12.087418
v -16.680870 158.653870 12.270931
v -13.753263 165.724884 12.270905
v -6.678656 168.643814 12.272316
vt 0.987066 0.420799
vt 0.532927 0.004087
vt 0.856075 0.394341
vt 0.914258 0.399197
vt 0.798587 0.944637
vt 0.358821 0.385409
vt 0.843276 0.492947
vt 0.785092 0.488096
vt 0.983026 0.414417
vt 0.849747 0.388885
vt 0.802629 0.951018
vt 0.849603 0.498401
vt 0.359670 0.379019
vt 0.532079 0.010477
vt 0.753295 0.840974
vt 0.752298 0.839346
vt 0.972622 0.402749
vt 0.758068 0.833264
vt 0.759744 0.834208
vt 0.754865 0.842410
vt 0.761220 0.835735
vt 0.604899 0.498923
vt 0.603423 0.497396
vt 0.813080 0.962730
vt 0.609778 0.490721
vt 0.611348 0.492156
vt 0.606575 0.499867
vt 0.612345 0.493785
vt 0.611143 0.498396
vt 0.613468 0.496859
vt 0.753501 0.834734
vt 0.751175 0.836272
vt 0.753268 0.831926
vt 0.754910 0.832308
vt 0.752519 0.833843
vt 0.611375 0.501205
vt 0.609733 0.500822
vt 0.612124 0.499287
vt 0.750696 0.834681
vt 0.613947 0.498449
vt 0.610095 0.810794
vt 0.827497 0.854951
vt 0.825374 0.836550
vt 0.839312 0.421346
vt 0.871886 0.032338
vt 0.874005 0.050739
vt 0.946341 0.944060
vt 0.926215 0.024005
vt 0.509259 0.386554
vt 0.930829 0.047556
vt 0.773169 0.863291
vt 0.382489 0.002942
vt 0.768552 0.839741
vt 0.619123 0.830458
vt 0.616837 0.832904
vt 0.606737 0.811718
vt 0.638990 0.838348
vt 0.638143 0.841697
vt 0.725653 0.494786
vt 0.745520 0.502676
vt 0.744009 0.504283
vt 0.724200 0.496469
vt 0.754546 0.522341
vt 0.752896 0.523836
vt 0.727229 0.489763
vt 0.749049 0.498899
vt 0.747807 0.500232
vt 0.726503 0.491436
vt 0.759570 0.520655
vt 0.757904 0.521420
vt 0.848584 0.847455
vt 0.844085 0.823521
vt 0.605070 0.812490
vt 0.615597 0.834238
vt 0.844817 0.870395
vt 0.854621 0.016934
vt 0.532090 0.352113
vt 0.359659 0.037383
vt 0.832027 0.833273
vt 0.867355 0.054085
vt 0.504553 0.380107
vt 0.387195 0.009389
vt 0.614030 0.835923
vt 0.603418 0.814068
vt 0.637424 0.843371
vt 0.635873 0.845029
vt 0.838609 0.021553
vt 0.640443 0.836665
vt 0.611745 0.809299
vt 0.761219 0.519061
vt 0.524058 0.371840
vt 0.367690 0.017656
vt 0.728763 0.488102
vt 0.834121 0.853071
vt 0.865273 0.034252
vt 0.620634 0.828852
vt 0.750607 0.497206
vt 0.977732 0.398598
vt 0.860788 0.865797
vt 0.807972 0.966883
vt 0.850821 0.039888
vt 0.855331 0.063814
vt 0.795101 0.886967
vt 0.947030 0.886968
vt 0.990537 0.478471
vt 0.838609 0.478436
vt 0.353257 0.379770
vt 0.353214 0.032681
vt 0.538491 0.009726
vt 0.538534 0.356815
vt 0.362077 0.012108
vt 0.529672 0.377388
vt 0.838706 0.376458
vt 0.988453 0.410840
vt 0.992772 0.419033
vt 0.997070 0.477462
vt 0.860691 0.510879
vt 0.797203 0.954597
vt 0.792881 0.946405
vt 0.788568 0.887978
vt 0.941860 0.950624
vt 0.930098 0.962219
vt 0.920586 0.002930
vt 0.863028 0.013948
vt 0.843864 0.414789
vt 0.855600 0.403229
vt 0.778800 0.884365
vt 0.836361 0.873336
vn 0.027309 0.997096 -0.071087
vn 0.029970 0.998527 0.045241
vn 0.999870 0.003810 0.015653
vn 0.999754 0.003631 -0.021896
vn -0.008331 -0.999728 -0.021777
vn -0.008733 -0.999836 0.015849
vn -0.999870 -0.003810 0.015673
vn -0.999754 -0.003631 -0.021897
vn 0.002510 0.279324 0.960194
vn 0.278332 0.001057 0.960484
vn -0.002498 -0.278697 0.960376
vn -0.277700 -0.001052 0.960667
vn -0.017551 -0.007535 -0.999818
vn 0.017551 0.007535 -0.999818
vn -0.015502 -0.929975 0.367296
vn -0.010082 -0.979478 0.201298
vn -0.979237 -0.003747 0.202684
vn -0.929267 -0.005824 0.369362
vn 0.000152 0.091926 0.995766
vn 0.091461 0.000060 0.995809
vn 0.340768 0.001150 0.940147
vn -0.091231 -0.000060 0.995830
vn -0.000152 -0.091707 0.995786
vn 0.003017 0.344553 0.938762
vn 0.979194 0.003749 0.202890
vn 0.010086 0.979430 0.201530
vn 0.853608 0.353725 0.382404
vn 0.010061 0.923542 0.383366
vn -0.853607 -0.353709 0.382420
vn -0.010061 -0.923533 0.383387
vn -0.005376 -0.000018 0.999986
vn -0.381660 -0.001212 0.924302
vn -0.001421 -0.001427 0.999998
vn 0.005376 0.000018 0.999986
vn 0.381656 0.001212 0.924304
vn 0.001420 0.001427 0.999998
vn -0.000652 -0.073557 0.997291
vn 0.000652 0.073556 0.997291
vn -0.923617 0.382579 0.023754
vn -0.999602 0.022511 0.016996
vn -0.262288 0.005639 0.964973
vn -0.116655 0.116923 0.986266
vn -0.048706 0.998655 0.017790
vn -0.011860 0.247369 0.968849
vn 0.923621 -0.382572 0.023713
vn 0.999603 -0.022515 0.016938
vn 0.263229 -0.005611 0.964717
vn 0.116891 -0.116678 0.986267
vn 0.048697 -0.998654 0.017839
vn 0.011915 -0.246544 0.969058
vn 0.382559 -0.923581 -0.025430
vn 0.048741 -0.998628 -0.019131
vn 0.000316 -0.011810 -0.999930
vn 0.004345 -0.004345 -0.999981
vn 0.999583 -0.022533 -0.018069
vn 0.038068 -0.000450 -0.999275
vn -0.382560 0.923581 -0.025430
vn -0.048741 0.998628 -0.019130
vn -0.000316 0.011810 -0.999930
vn -0.004345 0.004345 -0.999981
vn -0.999583 0.022533 -0.018069
vn -0.038068 0.000450 -0.999275
vn 0.984625 -0.028786 0.172296
vn 0.812476 -0.336536 0.476053
vn 0.889796 -0.368627 0.269029
vn 0.977875 -0.020480 0.208184
vn 0.041644 -0.916854 0.397044
vn 0.051473 -0.976423 0.209639
vn -0.041970 0.346226 0.937212
vn -0.198733 0.198726 0.959694
vn -0.010648 0.010648 0.999887
vn -0.003289 0.095762 0.995399
vn -0.365051 0.019663 0.930780
vn -0.005942 0.000078 0.999982
vn -0.075227 0.914528 0.397467
vn -0.333580 0.805184 0.490309
vn -0.368779 0.890208 0.267454
vn -0.051428 0.976326 0.210100
vn -0.923439 0.031741 0.382430
vn -0.977973 0.020500 0.207722
vn 0.336047 -0.003910 0.941837
vn 0.157996 -0.158979 0.974558
vn -0.039186 0.039260 0.998460
vn -0.088842 0.000443 0.996046
vn 0.009829 -0.333098 0.942841
vn -0.001023 0.085865 0.996306
vn 0.003289 -0.095763 0.995399
vn 0.089184 -0.000440 0.996015
vn 0.001030 -0.085580 0.996331
vn 0.005942 -0.000078 0.999982
vn 0.010648 -0.010647 0.999887
vn 0.039272 -0.039180 0.998460
s 1
g Billboard_LowPoly BillBoard Board_low
usemtl set4
f 98/239/239 85/135/240 88/249/241 96/250/242
f 95/237/243 89/139/244 92/253/245 93/254/246
f 85/135/240 86/143/247 87/248/248 88/249/241
f 90/145/249 91/252/250 92/253/245 89/139/244
f 95/140/243 93/241/246 94/147/251
f 96/243/242 97/148/252 98/136/239
f 111/149/253 110/150/254 109/152/255 108/153/256
f 112/154/257 111/149/253 108/153/256 107/155/258
f 116/156/259 115/157/260 122/159/261 121/160/262
f 117/161/263 116/156/259 121/160/262 120/162/264
f 112/151/257 107/232/258 87/248/248 86/143/247
f 119/163/265 120/162/264 103/164/266
f 114/165/267 110/150/254 99/166/268
f 115/234/260 91/252/250 90/145/249 122/158/261
f 101/167/269 102/168/270 114/165/267 113/169/271
f 105/170/272 106/171/273 119/163/265 118/172/274
f 99/166/268 100/173/275 113/169/271 114/165/267
f 103/164/266 104/174/276 118/172/274 119/163/265
f 127/176/277 126/177/278 125/213/279 124/228/280
f 128/262/281 127/176/277 124/228/280 123/209/282
f 130/179/283 129/180/284 134/214/285 133/229/286
f 131/258/287 130/179/283 133/229/286 132/210/288
f 136/246/289 135/183/290 140/215/291 139/225/292
f 137/244/293 136/246/289 139/225/292 138/211/294
f 145/245/295 144/186/296 141/216/297 143/226/298
f 146/242/299 145/245/295 143/226/298 142/212/300
f 149/175/301 148/188/302 169/189/303 170/190/304
f 148/188/302 147/191/305 168/192/306 169/189/303
f 155/193/307 154/194/308 158/195/309 157/196/310
f 154/194/308 153/197/311 156/198/312 158/195/309
f 164/199/313 163/200/314 166/201/315 165/202/316
f 163/200/314 162/203/317 167/204/318 166/201/315
f 173/207/319 172/208/320 175/217/321 174/218/322
f 172/208/320 171/219/323 176/220/324 175/217/321
f 128/178/281 123/259/282 86/143/247 85/135/240
f 89/139/244 131/181/287 132/255/288 90/145/249
f 96/243/242 137/244/293 138/211/294 97/148/252
f 146/242/299 142/212/300 94/147/251 93/241/246
f 128/178/281 85/135/240 98/239/239 144/240/296
f 88/137/241 129/180/284 137/184/293 96/138/242
f 131/181/287 89/139/244 95/237/243 135/238/290
f 92/141/245 126/177/278 146/187/299 93/142/246
f 92/141/245 91/146/250 125/213/279 126/177/278
f 129/180/284 88/137/241 87/144/248 134/214/285
f 95/140/243 94/147/251 140/215/291 135/183/290
f 98/136/239 97/148/252 141/216/297 144/186/296
f 147/191/305 99/166/268 110/150/254 168/192/306
f 147/191/305 150/222/325 100/173/275 99/166/268
f 156/198/312 153/197/311 102/168/270 101/167/269
f 109/152/255 102/168/270 153/197/311 167/204/318
f 159/236/326 134/214/285 87/144/248 107/247/258
f 112/151/257 86/143/247 123/259/282 176/260/324
f 174/206/322 125/213/279 91/146/250 115/251/260
f 149/175/301 170/190/304 117/161/263 106/171/273
f 120/162/264 165/202/316 155/193/307 103/164/266
f 161/256/327 122/158/261 90/145/249 132/255/288
f 152/223/328 149/175/301 106/171/273 105/170/272
f 155/193/307 157/196/310 104/174/276 103/164/266
f 107/155/258 108/153/256 162/203/317 159/224/326
f 108/153/256 109/152/255 167/204/318 162/203/317
f 110/150/254 111/149/253 171/219/323 168/192/306
f 111/149/253 112/154/257 176/220/324 171/219/323
f 120/162/264 121/160/262 164/199/313 165/202/316
f 121/160/262 122/159/261 161/227/327 164/199/313
f 115/157/260 116/156/259 173/207/319 174/218/322
f 116/156/259 117/161/263 170/190/304 173/207/319
f 141/216/297 138/211/294 139/225/292 143/226/298
f 151/230/329 113/169/271 100/173/275 150/222/325
f 129/180/284 130/179/283 136/182/289 137/184/293
f 130/179/283 131/258/287 135/257/290 136/182/289
f 126/177/278 127/176/277 145/185/295 146/187/299
f 127/176/277 128/262/281 144/261/296 145/185/295
f 147/191/305 148/188/302 151/230/329 150/222/325
f 148/188/302 149/175/301 152/223/328 151/230/329
f 153/197/311 154/194/308 166/201/315 167/204/318
f 154/194/308 155/193/307 165/202/316 166/201/315
f 132/210/288 133/229/286 160/235/330 161/221/327
f 133/229/286 134/214/285 159/236/326 160/235/330
f 161/227/327 160/231/330 163/200/314 164/199/313
f 160/231/330 159/224/326 162/203/317 163/200/314
f 170/190/304 169/189/303 172/208/320 173/207/319
f 169/189/303 168/192/306 171/219/323 172/208/320
f 123/209/282 124/228/280 175/205/321 176/233/324
f 124/228/280 125/213/279 174/206/322 175/205/321
f 152/223/328 101/167/269 113/169/271 151/230/329
f 158/195/309 118/172/274 104/174/276 157/196/310
f 156/198/312 101/167/269 152/223/328 105/170/272
f 156/198/312 105/170/272 118/172/274 158/195/309
f 141/216/297 97/148/252 138/211/294
f 142/212/300 140/215/291 94/147/251
f 143/226/298 139/225/292 140/215/291 142/212/300
f 114/165/267 102/168/270 109/152/255 110/150/254
f 119/163/265 106/171/273 117/161/263 120/162/264
