# This file uses centimeters as units for non-parametric coordinates.

mtllib S_P04_01_LP.mtl
g default
v -28.624191 9.115898 20.583279
v -29.000000 10.236932 20.583279
v -27.409752 8.768999 20.583279
v -19.496662 27.724382 23.555210
v -16.584850 22.009636 23.555210
v -5.936527 29.746103 23.118519
v -4.313133 28.122713 23.118519
v -6.978809 31.791693 23.118519
v 27.705225 3.000000 20.583279
v -27.705225 3.000000 20.583279
v -2.267552 27.080431 23.118519
v 27.409752 8.768999 20.583279
v -6.978803 36.326790 23.118519
v -7.337953 34.059235 23.118519
v -0.000012 26.721287 23.118519
v -2.189481 27.320709 24.721828
v -4.164635 28.327103 24.721825
v -5.732135 29.894602 24.721828
v -6.738532 31.869761 24.721825
v -0.000009 26.973927 24.721828
v 2.267551 27.080431 23.118519
v -12.049599 17.474384 23.555210
v -5.936525 38.372372 23.118519
v 2.189484 27.320709 24.721828
v -6.738526 36.248718 24.721828
v -7.085311 34.059235 24.721825
v -6.334850 14.562572 23.555210
v 4.313133 28.122711 23.118519
v -4.313130 39.995762 23.118519
v -32.000000 76.705231 20.583279
v -32.000000 7.294775 20.583279
v -29.000000 73.763069 20.583279
v 4.164635 28.327101 24.721825
v -0.000000 34.059223 26.285904
v 5.936521 29.746094 23.118519
v 5.732131 29.894592 24.721828
v 6.978795 31.791676 23.118519
v -4.278931 37.168049 26.093021
v -2.267549 41.038040 23.118519
v -20.514330 34.059238 23.555210
v -0.000000 13.559233 23.555210
v -3.108819 38.338161 26.093021
v 6.738518 31.869749 24.721828
v -2.189478 40.797764 24.721825
v -4.164634 39.791367 24.721828
v 4.278923 30.950411 26.093021
v 5.030171 32.424828 26.093021
v -1.634403 39.089417 26.093021
v -6.334852 53.555897 23.555210
v -12.049603 50.644089 23.555210
v -0.000004 41.397179 23.118519
v -0.000007 41.144539 24.721828
v 5.289043 34.059254 26.093021
v 7.337947 34.059246 23.118519
v 2.189494 40.797756 24.721828
v -0.000012 39.348274 26.093021
v 7.085306 34.059250 24.721825
v 3.108835 38.338158 26.093025
v 4.278935 37.168053 26.093021
v 1.634418 39.089405 26.093021
v 6.738533 36.248722 24.721828
v 5.936531 38.372372 23.118519
v 4.313152 39.995758 23.118523
v 5.030184 35.693649 26.093021
v 6.978809 36.326794 23.118519
v 4.164651 39.791367 24.721828
v 5.732141 38.223869 24.721825
v 2.267566 41.038033 23.118519
v -19.496662 40.394085 23.555210
v 6.334848 14.562574 23.555210
v -20.557306 57.881538 23.555210
v 12.049598 17.474384 23.555210
v -16.584854 46.108837 23.555210
v -4.278929 30.950418 26.093021
v -3.108818 29.780310 26.093021
v -5.030184 32.424835 26.093021
v -1.634404 29.029057 26.093021
v -5.289048 34.059227 26.093021
v -0.000005 28.770191 26.093021
v 30.787071 4.212926 20.583279
v 28.624191 9.115898 20.583279
v -5.732136 38.223869 24.721828
v -5.030180 35.693642 26.093021
v 1.634409 29.029057 26.093021
v 16.584846 22.009636 23.555210
v 32.000000 7.294775 20.583279
v 29.000000 10.236932 20.583279
v 3.108819 29.780308 26.093021
v 19.496658 27.724382 23.555210
v -30.787071 79.787071 20.583279
v -28.624191 74.884094 20.583279
v -27.409752 75.231003 20.583279
v -27.705225 81.000000 20.583279
v 20.514324 34.059238 23.555210
v 0.000000 54.559242 23.555210
v 6.334852 53.555897 23.555210
v 19.496672 40.394089 23.555210
v 12.049603 50.644093 23.555210
v 16.584860 46.108841 23.555210
v 32.000000 76.705231 20.583279
v 29.000000 73.763069 20.583279
v 20.557306 57.881538 23.555210
v 27.705225 81.000000 20.583279
v 27.409752 75.231003 20.583279
v 28.624191 74.884094 20.583279
v 30.787071 79.787071 20.583279
v 0.000000 57.881527 23.555210
v 0.000000 65.822311 23.555210
v -30.787071 4.212926 20.583279
v -23.127047 62.285370 22.506405
v -20.557306 65.822311 22.506405
v -24.094252 63.252571 22.506405
v -24.715235 64.471313 22.506405
v -21.908298 61.664383 22.506405
v -24.929211 65.822311 22.506405
v -20.557306 61.450409 22.506405
v -19.206316 61.664383 22.506405
v -24.715235 67.173309 22.506405
v -17.987566 62.285370 22.506405
v -24.094252 68.392052 22.506405
v -17.020363 63.252571 22.506405
v -23.127048 69.359261 22.506405
v -16.399380 64.471313 22.506405
v -21.908300 69.980240 22.506405
v -16.185404 65.822311 22.506405
v -20.557306 70.194214 22.506405
v -19.206312 69.980240 22.506405
v -16.399376 67.173309 22.506405
v -17.987564 69.359261 22.506405
v -17.020359 68.392052 22.506405
v 17.987566 62.285370 22.506405
v 20.557306 65.822311 22.506405
v 17.020361 63.252571 22.506405
v 16.399378 64.471313 22.506405
v 19.206314 61.664383 22.506405
v 16.185402 65.822311 22.506405
v 20.557306 61.450409 22.506405
v 21.908297 61.664383 22.506405
v 16.399378 67.173309 22.506405
v 23.127047 62.285370 22.506405
v 17.020361 68.392052 22.506405
v 24.094250 63.252571 22.506405
v 17.987564 69.359261 22.506405
v 24.715233 64.471313 22.506405
v 19.206312 69.980240 22.506405
v 24.929209 65.822311 22.506405
v 20.557306 70.194214 22.506405
v 24.715237 67.173309 22.506405
v 21.908300 69.980240 22.506405
v 23.127048 69.359261 22.506405
v 24.094254 68.392052 22.506405
v -27.866539 1.501831 -26.416721
v -28.000700 0.000000 -24.916168
v 28.000700 0.000000 -24.917549
v 27.838554 1.497672 -26.416721
v -35.000000 6.999300 -24.916870
v -33.500153 7.147023 -26.416721
v -33.498547 76.863930 -26.416721
v -35.000000 77.000702 -24.916309
v 32.949951 2.050047 -24.916847
v 31.861044 3.122092 -26.416721
v 35.000000 6.999300 -24.917393
v 33.499630 7.135976 -26.416721
v -31.859354 80.876244 -26.416721
v -32.949951 81.949951 -24.916847
v -27.838398 82.500900 -26.416721
v -28.000700 84.000000 -24.916122
v 35.000000 77.000702 -24.916870
v 33.500153 76.852982 -26.416721
v 27.866539 82.498169 -26.416721
v 28.000700 84.000000 -24.916168
v 32.949951 81.949951 -24.916836
v 31.880264 80.859131 -26.416721
v -31.878180 3.142992 -26.416721
v -32.949951 2.050047 -24.916836
v -27.726860 2.780330 23.363609
v 27.726860 2.780330 23.363609
v -32.219669 7.273139 23.363609
v -32.219669 76.726868 23.363609
v 30.945444 4.054554 23.363609
v 32.219669 7.273139 23.363609
v -30.945444 79.945442 23.363609
v -27.726860 81.219673 23.363609
v 32.219669 76.726868 23.363609
v 27.726860 81.219673 23.363609
v 30.945444 79.945442 23.363609
v -30.945444 4.054554 23.363609
v -28.058681 9.704594 23.555210
v -28.624191 9.115898 22.785358
v -29.000000 10.236932 22.785358
v -28.202080 10.321925 23.555210
v -27.337105 9.566920 23.555210
v -27.409752 8.768999 22.785358
v -28.202080 34.059235 23.555210
v -29.000000 34.059235 22.785358
v -29.000000 57.881538 22.785358
v -28.202080 57.881538 23.555210
v -20.555956 9.566919 23.555210
v -20.557312 8.768999 22.785358
v 28.058681 9.704594 23.555210
v 27.409752 8.768999 22.785358
v 27.337105 9.566920 23.555210
v 28.624191 9.115898 22.785358
v 28.202080 10.321925 23.555210
v 29.000000 10.236932 22.785358
v -28.202080 73.678078 23.555210
v -29.000000 73.763069 22.785358
v -28.058678 74.295410 23.555210
v -28.624191 74.884094 22.785358
v -27.409752 75.231003 22.785358
v -27.337105 74.433083 23.555210
v 29.000000 34.059235 22.785358
v 28.202080 34.059235 23.555210
v 28.202080 57.881538 23.555210
v 29.000000 57.881538 22.785358
v 20.557312 8.768999 22.785358
v 20.555956 9.566919 23.555210
v -0.000000 8.768999 22.785358
v -0.000000 9.566920 23.555210
v 27.337105 74.433083 23.555210
v 27.409752 75.231003 22.785358
v 28.058678 74.295410 23.555210
v 29.000000 73.763069 22.785358
v 28.202080 73.678078 23.555210
v 28.624191 74.884094 22.785358
v -29.000000 65.822311 22.785358
v -28.202080 65.822311 23.555210
v -20.557312 75.231003 22.785358
v -20.557312 74.433083 23.555210
v 0.000000 75.231003 22.785358
v 0.000000 74.433083 23.555210
v 20.557312 75.231003 22.785358
v 20.557312 74.433083 23.555210
v 29.000000 65.822311 22.785358
v 28.202080 65.822311 23.555210
v -31.776882 80.931068 -26.416721
v 27.865974 80.863663 -26.416721
v 27.864592 76.853905 -26.416721
v 27.840500 7.136909 -26.416721
v 27.839119 3.123411 -26.416721
v -27.838961 80.926620 -26.416721
v -27.840372 76.863007 -26.416721
v -27.864603 7.146094 -26.416721
v -27.865952 3.141676 -26.416721
v -16.336472 68.888931 23.361155
v -15.959005 69.163177 23.555210
v -15.595417 67.434532 23.361153
v -15.151677 67.578705 23.555210
v -14.873497 65.822311 23.555210
v -15.340072 65.822311 23.361153
v -17.490692 70.043144 23.361153
v -17.216446 70.420609 23.555210
v -24.778141 62.755699 23.361153
v -25.155607 62.481453 23.555210
v -25.519196 64.210091 23.361153
v -25.962934 64.065910 23.555210
v -23.623920 61.601479 23.361153
v -23.898165 61.224010 23.555210
v -25.774542 65.822311 23.361153
v -26.241117 65.822311 23.555210
v -22.169521 60.860424 23.361153
v -22.313702 60.416687 23.555210
v -20.557306 60.605076 23.361153
v -20.557306 60.138500 23.555210
v -18.945093 60.860424 23.361153
v -18.800913 60.416687 23.555210
v -25.519196 67.434532 23.361153
v -25.962934 67.578705 23.555210
v -24.778141 68.888931 23.361155
v -25.155607 69.163177 23.555210
v -17.490692 61.601479 23.361153
v -17.216448 61.224010 23.555210
v -23.623920 70.043144 23.361153
v -23.898167 70.420609 23.555210
v -16.336473 62.755699 23.361153
v -15.959006 62.481453 23.555210
v -22.169523 70.784203 23.361153
v -22.313702 71.227943 23.555210
v -15.595420 64.210091 23.361153
v -15.151681 64.065910 23.555210
v -20.557308 71.039551 23.361153
v -20.557308 71.506126 23.555210
v -18.945089 70.784203 23.361153
v -18.800911 71.227943 23.555210
v 24.778141 68.888931 23.361155
v 25.155607 69.163177 23.555210
v 25.519197 67.434532 23.361153
v 25.962936 67.578705 23.555210
v 25.774540 65.822311 23.361153
v 26.241116 65.822311 23.555210
v 23.623920 70.043144 23.361153
v 23.898167 70.420609 23.555210
v 16.336472 62.755699 23.361153
v 15.959004 62.481453 23.555210
v 15.595419 64.210091 23.361153
v 15.151680 64.065910 23.555210
v 17.490692 61.601479 23.361153
v 17.216448 61.224010 23.555210
v 14.873495 65.822311 23.555210
v 15.340070 65.822311 23.361153
v 18.945091 60.860424 23.361153
v 18.800911 60.416687 23.555210
v 20.557306 60.605076 23.361153
v 20.557306 60.138500 23.555210
v 15.595419 67.434532 23.361153
v 15.151680 67.578705 23.555210
v 16.336472 68.888931 23.361155
v 15.959004 69.163177 23.555210
v 22.169519 60.860424 23.361153
v 22.313700 60.416687 23.555210
v 23.623920 61.601479 23.361153
v 23.898165 61.224010 23.555210
v 17.490692 70.043144 23.361153
v 17.216446 70.420609 23.555210
v 24.778139 62.755699 23.361153
v 25.155605 62.481453 23.555210
v 18.945089 70.784203 23.361153
v 18.800911 71.227943 23.555210
v 25.519194 64.210091 23.361153
v 25.962933 64.065910 23.555210
v 20.557308 71.039551 23.361153
v 20.557308 71.506126 23.555210
v 22.169523 70.784203 23.361153
v 22.313702 71.227943 23.555210
v -17.479891 28.379675 25.844473
v -16.919493 28.561760 26.198023
v -16.263975 28.774752 26.181885
v -18.380543 34.059238 25.846371
v -17.790701 34.059238 26.198677
v -17.101597 34.059238 26.182087
v -0.000008 15.679794 25.844477
v -0.000009 16.269032 26.198027
v -0.000010 16.958284 26.181889
v 5.679558 16.579348 25.844473
v 5.497474 17.139746 26.198023
v 5.284483 17.795263 26.181885
v 10.051683 20.224272 26.181889
v 10.456816 19.666655 26.198027
v 10.803162 19.189951 25.844477
v -14.869283 44.862408 25.844477
v -14.392579 44.516064 26.198027
v -13.834963 44.110931 26.181889
v -10.803164 48.928520 25.844477
v -10.456819 48.451817 26.198027
v -10.051686 47.894203 26.181889
v -14.869283 23.256073 25.844477
v -14.392580 23.602419 26.198027
v -13.834964 24.007549 26.181889
v -10.803166 19.189955 25.844477
v -10.456821 19.666658 26.198027
v -10.051689 20.224274 26.181889
v -5.284490 17.795263 26.181889
v -5.497480 17.139746 26.198027
v -5.679564 16.579348 25.844477
v -5.679562 51.539124 25.844473
v -5.497477 50.978725 26.198023
v -5.284487 50.323208 26.181885
v 0.000000 51.160194 26.181889
v 0.000001 51.849445 26.198027
v 0.000001 52.438686 25.844477
v 16.263983 39.343723 26.181885
v 16.919500 39.556713 26.198023
v 17.479898 39.738800 25.844473
v 17.101589 34.059231 26.182087
v 17.790693 34.059231 26.198677
v 18.380535 34.059231 25.846371
v -17.479887 39.738800 25.844477
v -16.919489 39.556717 26.198027
v -16.263971 39.343727 26.181889
v 5.284494 50.323212 26.181889
v 5.497484 50.978729 26.198027
v 5.679567 51.539127 25.844477
v 10.051698 47.894199 26.181885
v 10.456829 48.451817 26.198023
v 10.803173 48.928520 25.844475
v 13.834956 24.007544 26.181885
v 14.392572 23.602413 26.198023
v 14.869276 23.256067 25.844473
v 16.263968 28.774740 26.181889
v 16.919485 28.561750 26.198027
v 17.479883 28.379665 25.844477
v 13.834972 44.110928 26.181889
v 14.392589 44.516060 26.198027
v 14.869291 44.862404 25.844477
v -28.000700 0.000000 21.992014
v -27.895039 1.072796 22.930286
v 28.000700 0.000000 21.992014
v 27.895039 1.072796 22.930286
v -35.000000 6.999300 21.992014
v -33.927204 7.104961 22.930286
v -35.000000 77.000702 21.992014
v -33.927204 76.895042 22.930286
v 32.949951 2.050047 22.007124
v 32.148228 2.851770 22.948347
v 35.000000 6.999300 21.992014
v 33.927204 7.104961 22.930286
v 35.000000 77.000702 21.992014
v 33.927204 76.895042 22.930286
v -32.949951 81.949951 22.007124
v -32.148228 81.148232 22.948347
v -28.000700 84.000000 21.992014
v -27.895039 82.927208 22.930286
v 28.000700 84.000000 21.992014
v 27.895039 82.927208 22.930286
v 32.949951 81.949951 22.007124
v 32.148228 81.148232 22.948347
v -32.949951 2.050047 22.007124
v -32.148228 2.851770 22.948347
vt 0.347536 0.303134
vt 0.343681 0.364259
vt 0.344056 0.280961
vt 0.483365 0.303477
vt 0.941450 0.174193
vt 0.936360 0.182090
vt 0.933957 0.191165
vt 0.934472 0.200534
vt 0.030083 0.173447
vt 0.218088 0.173621
vt 0.951483 0.172874
vt 0.945491 0.177746
vt 0.958693 0.170089
vt 0.966415 0.169667
vt 0.955248 0.179259
vt 0.951038 0.182661
vt 0.941298 0.184225
vt 0.948085 0.187197
vt 0.960304 0.177323
vt 0.973894 0.171653
vt 0.983944 0.171813
vt 0.937819 0.209291
vt 0.965714 0.177044
vt 0.939733 0.199373
vt 0.939313 0.191677
vt 0.946673 0.192423
vt 0.946932 0.197833
vt 0.980397 0.175856
vt 0.970948 0.178451
vt 0.975492 0.181409
vt 0.016042 0.422320
vt 0.016126 0.187761
vt 0.963910 0.194286
vt 0.985286 0.181868
vt 0.978900 0.185628
vt 0.988079 0.189102
vt 0.948917 0.202870
vt 0.952291 0.207108
vt 0.947317 0.212591
vt 0.942458 0.206588
vt 0.953764 0.216892
vt 0.267789 0.183753
vt 0.980832 0.190696
vt 0.956814 0.210104
vt 0.962040 0.211546
vt 0.981087 0.196115
vt 0.961249 0.218822
vt 0.967448 0.211230
vt 0.979737 0.201375
vt 0.972522 0.209325
vt 0.976755 0.205922
vt 0.988510 0.196850
vt 0.968987 0.218553
vt 0.986468 0.204337
vt 0.976234 0.215754
vt 0.982261 0.210856
vt 0.227555 0.178438
vt 0.232029 0.187987
vt 0.740666 0.201557
vt 0.020519 0.431849
vt 0.029978 0.436649
vt 0.231837 0.422395
vt 0.217886 0.436741
vt 0.227372 0.431926
vt 0.020595 0.178253
vt 0.486966 0.364578
vt 0.473164 0.323379
vt 0.315583 0.194274
vt 0.317935 0.196431
vt 0.317329 0.198303
vt 0.313575 0.197653
vt 0.313302 0.364481
vt 0.313472 0.280671
vt 0.317322 0.280737
vt 0.317147 0.364438
vt 0.513222 0.196733
vt 0.510957 0.196125
vt 0.511630 0.192394
vt 0.515369 0.194537
vt 0.315403 0.423418
vt 0.313282 0.420064
vt 0.317027 0.419171
vt 0.317558 0.421087
vt 0.513546 0.365010
vt 0.513676 0.281366
vt 0.517526 0.281373
vt 0.517391 0.365096
vt 0.515278 0.423375
vt 0.511785 0.425655
vt 0.510855 0.421879
vt 0.513068 0.421284
vt 0.977242 0.440911
vt 0.789430 0.440911
vt 0.996249 0.694995
vt 0.996237 0.459942
vt 0.990446 0.708708
vt 0.977167 0.714002
vt 0.977169 0.708694
vt 0.990768 0.446443
vt 0.775869 0.446388
vt 0.523099 0.439640
vt 0.770345 0.459922
vt 0.770361 0.694975
vt 0.789357 0.714006
vt 0.775824 0.708481
vt 0.513548 0.419303
vt 0.517281 0.420007
vt 0.310989 0.189338
vt 0.306299 0.194799
vt 0.317041 0.184946
vt 0.319328 0.192104
vt 0.320249 0.195790
vt 0.514325 0.184896
vt 0.520386 0.189410
vt 0.524721 0.195285
vt 0.517619 0.197820
vt 0.306145 0.422480
vt 0.310405 0.428072
vt 0.319139 0.425286
vt 0.316201 0.432872
vt 0.486951 0.281378
vt 0.488145 0.192199
vt 0.416000 0.192213
vt 0.343625 0.192142
vt 0.514255 0.432762
vt 0.520443 0.428359
vt 0.524705 0.422786
vt 0.313289 0.392271
vt 0.415961 0.196059
vt 0.415866 0.209892
vt 0.393650 0.213370
vt 0.487930 0.196010
vt 0.342624 0.425595
vt 0.415198 0.425636
vt 0.487582 0.425644
vt 0.517393 0.392945
vt 0.483603 0.259341
vt 0.343692 0.195958
vt 0.317103 0.392182
vt 0.513870 0.198584
vt 0.977173 0.694993
vt 0.977237 0.459941
vt 0.977240 0.446439
vt 0.789358 0.708496
vt 0.789362 0.694977
vt 0.789425 0.459924
vt 0.789429 0.446392
vt 0.028112 0.164313
vt 0.014830 0.172552
vt 0.006825 0.185881
vt 0.219847 0.445877
vt 0.233126 0.437635
vt 0.241133 0.424297
vt 0.027956 0.445926
vt 0.014748 0.437557
vt 0.006863 0.424204
vt 0.241213 0.186131
vt 0.233336 0.172746
vt 0.220111 0.164344
vt 0.527550 0.190204
vt 0.522019 0.176954
vt 0.508667 0.171487
vt 0.307789 0.439485
vt 0.321234 0.444991
vt 0.302237 0.426164
vt 0.509690 0.445107
vt 0.528761 0.426153
vt 0.302314 0.191331
vt 0.307835 0.178081
vt 0.321119 0.172535
vt 0.221749 0.412483
vt 0.220499 0.416200
vt 0.216423 0.417406
vt 0.031477 0.417258
vt 0.221918 0.197950
vt 0.027411 0.416091
vt 0.026147 0.412327
vt 0.220656 0.194184
vt 0.216591 0.193014
vt 0.026219 0.197688
vt 0.031575 0.192783
vt 0.027483 0.193977
vt 0.970124 0.223819
vt 0.960621 0.224378
vt 0.986293 0.214414
vt 0.991411 0.206473
vt 0.978962 0.220390
vt 0.993857 0.197351
vt 0.993328 0.187924
vt 0.951567 0.221600
vt 0.943716 0.216555
vt 0.989911 0.179122
vt 0.976017 0.166711
vt 0.966906 0.164310
vt 0.957506 0.164842
vt 0.948735 0.168249
vt 0.319855 0.421577
vt 0.342800 0.421771
vt 0.526996 0.171821
vt 0.534685 0.189304
vt 0.509416 0.164313
vt 0.320442 0.452158
vt 0.302780 0.444574
vt 0.295093 0.426974
vt 0.510542 0.452234
vt 0.528089 0.444871
vt 0.535929 0.426981
vt 0.295158 0.190476
vt 0.302756 0.173054
vt 0.320164 0.165409
vt 0.522826 0.439823
vt 0.990724 0.708523
vt 0.513566 0.392759
vt 0.415209 0.421791
vt 0.487486 0.421832
vt 0.357633 0.323120
vt 0.393272 0.349142
vt 0.415286 0.364204
vt 0.373393 0.338971
vt 0.437385 0.349223
vt 0.457304 0.339122
vt 0.347568 0.259011
vt 0.373586 0.223475
vt 0.438003 0.213432
vt 0.473627 0.239437
vt 0.357716 0.239217
vt 0.457918 0.223605
vt 0.415321 0.352664
vt 0.357969 0.402489
vt 0.359381 0.403517
vt 0.354914 0.407892
vt 0.353911 0.406483
vt 0.360601 0.397458
vt 0.362267 0.398001
vt 0.361548 0.391882
vt 0.363304 0.391885
vt 0.360723 0.386311
vt 0.362391 0.385769
vt 0.349289 0.410692
vt 0.348812 0.409040
vt 0.329071 0.381407
vt 0.327660 0.380388
vt 0.332039 0.375971
vt 0.333062 0.377385
vt 0.281984 0.195762
vt 0.281311 0.189307
vt 0.326502 0.386461
vt 0.285000 0.190788
vt 0.282366 0.184857
vt 0.277578 0.199561
vt 0.278933 0.193214
vt 0.324849 0.385943
vt 0.325579 0.392039
vt 0.253595 0.171744
vt 0.254268 0.178199
vt 0.258001 0.167946
vt 0.256646 0.174293
vt 0.323843 0.392062
vt 0.337550 0.373121
vt 0.250579 0.176718
vt 0.253213 0.182650
vt 0.263365 0.165695
vt 0.260114 0.171312
vt 0.338086 0.374789
vt 0.326410 0.397583
vt 0.269162 0.165211
vt 0.264334 0.169549
vt 0.324761 0.398133
vt 0.343659 0.372120
vt 0.274824 0.166543
vt 0.268893 0.169177
vt 0.343652 0.373878
vt 0.349764 0.373072
vt 0.349215 0.374742
vt 0.249731 0.188178
vt 0.255348 0.191428
vt 0.249247 0.182381
vt 0.253585 0.187208
vt 0.355263 0.375877
vt 0.354225 0.377295
vt 0.279798 0.169559
vt 0.273343 0.170231
vt 0.328900 0.402569
vt 0.327491 0.403600
vt 0.251982 0.193542
vt 0.258329 0.194897
vt 0.283597 0.173965
vt 0.277250 0.172610
vt 0.332814 0.406515
vt 0.331777 0.407915
vt 0.359615 0.380252
vt 0.255780 0.197948
vt 0.262235 0.197275
vt 0.285848 0.179328
vt 0.280230 0.176078
vt 0.358192 0.381282
vt 0.337735 0.409050
vt 0.337170 0.410698
vt 0.260754 0.200964
vt 0.266686 0.198329
vt 0.272214 0.201812
vt 0.275464 0.196194
vt 0.343238 0.409925
vt 0.266417 0.202295
vt 0.271244 0.197957
vt 0.343183 0.411665
vt 0.415246 0.391855
vt 0.286331 0.185126
vt 0.281993 0.180298
vt 0.501670 0.402869
vt 0.503072 0.403904
vt 0.498765 0.408173
vt 0.497732 0.406764
vt 0.504189 0.397943
vt 0.505837 0.398520
vt 0.505047 0.392424
vt 0.506792 0.392489
vt 0.504158 0.386873
vt 0.505819 0.386383
vt 0.493310 0.410885
vt 0.492749 0.409237
vt 0.472369 0.381463
vt 0.470948 0.380430
vt 0.475324 0.376095
vt 0.476355 0.377515
vt 0.469824 0.386460
vt 0.468148 0.385912
vt 0.468971 0.392006
vt 0.467212 0.392001
vt 0.480842 0.373327
vt 0.481386 0.374999
vt 0.469894 0.397557
vt 0.468222 0.398096
vt 0.486970 0.372419
vt 0.486970 0.374172
vt 0.493097 0.373462
vt 0.492554 0.375115
vt 0.472506 0.402563
vt 0.471098 0.403595
vt 0.476562 0.406560
vt 0.475550 0.407966
vt 0.498620 0.376358
vt 0.754858 0.213569
vt 0.754187 0.207114
vt 0.497591 0.377755
vt 0.503005 0.380809
vt 0.757875 0.208596
vt 0.755242 0.202664
vt 0.750452 0.217367
vt 0.751808 0.211020
vt 0.501589 0.381807
vt 0.481639 0.409137
vt 0.481138 0.410772
vt 0.726474 0.189546
vt 0.727146 0.196001
vt 0.730881 0.185748
vt 0.729524 0.192095
vt 0.487215 0.410061
vt 0.487250 0.411792
vt 0.723457 0.194519
vt 0.726090 0.200451
vt 0.736245 0.183498
vt 0.732994 0.189115
vt 0.567374 0.165098
vt 0.567934 0.169808
vt 0.742042 0.183016
vt 0.737214 0.187353
vt 0.553983 0.175809
vt 0.550537 0.172367
vt 0.753041 0.164900
vt 0.722607 0.205979
vt 0.728224 0.209230
vt 0.722124 0.200182
vt 0.726462 0.205009
vt 0.752526 0.169607
vt 0.769990 0.172176
vt 0.747704 0.184348
vt 0.741772 0.186981
vt 0.766552 0.175626
vt 0.752678 0.187365
vt 0.746223 0.188037
vt 0.543293 0.189214
vt 0.547998 0.189766
vt 0.724857 0.211343
vt 0.731204 0.212699
vt 0.756475 0.191772
vt 0.750129 0.190416
vt 0.547981 0.420619
vt 0.543268 0.421135
vt 0.728655 0.215749
vt 0.735110 0.215078
vt 0.758726 0.197136
vt 0.753109 0.193885
vt 0.554016 0.434639
vt 0.550570 0.438081
vt 0.777285 0.189150
vt 0.772573 0.189676
vt 0.733628 0.218767
vt 0.739560 0.216133
vt 0.777257 0.421012
vt 0.772552 0.420469
vt 0.739290 0.220099
vt 0.744118 0.215762
vt 0.759208 0.202933
vt 0.754871 0.198105
vt 0.770012 0.437878
vt 0.766565 0.434437
vt 0.745087 0.219617
vt 0.748339 0.214000
vt 0.020991 0.006861
vt 0.002930 0.161392
vt 0.799792 0.217817
vt 0.800801 0.194049
vt 0.817290 0.177949
vt 0.809046 0.200244
vt 0.860942 0.164312
vt 0.841140 0.177666
vt 0.796272 0.237379
vt 0.789816 0.214372
vt 0.836802 0.230513
vt 0.813192 0.203359
vt 0.860734 0.180133
vt 0.852694 0.215135
vt 0.860806 0.174889
vt 0.883739 0.168476
vt 0.836539 0.245560
vt 0.801454 0.237474
vt 0.807821 0.274961
vt 0.789069 0.260079
vt 0.880394 0.178243
vt 0.904270 0.179143
vt 0.867735 0.215361
vt 0.894783 0.191772
vt 0.839869 0.252411
vt 0.804049 0.255567
vt 0.838005 0.167706
vt 0.823328 0.186445
vt 0.845157 0.257894
vt 0.812118 0.271946
vt 0.874458 0.218945
vt 0.907542 0.204801
vt 0.821666 0.289274
vt 0.799145 0.281032
vt 0.851881 0.261471
vt 0.824787 0.285099
vt 0.879745 0.224427
vt 0.915469 0.221211
vt 0.859382 0.262788
vt 0.840941 0.293692
vt 0.840387 0.223789
vt 0.826333 0.190699
vt 0.839271 0.298602
vt 0.815427 0.297634
vt 0.883078 0.231280
vt 0.918142 0.239242
vt 0.842691 0.182646
vt 0.845849 0.218477
vt 0.884136 0.238826
vt 0.914980 0.257207
vt 0.873771 0.258372
vt 0.877043 0.294166
vt 0.882817 0.246334
vt 0.906485 0.273347
vt 0.879246 0.253069
vt 0.893420 0.286088
vt 0.835491 0.238018
vt 0.804743 0.219520
vt 0.835946 0.308364
vt 0.858906 0.301961
vt 0.785927 0.237165
vt 0.799060 0.257083
vt 0.866926 0.261724
vt 0.858967 0.296717
vt 0.923323 0.239310
vt 0.929799 0.262171
vt 0.878609 0.299141
vt 0.858786 0.312534
vt 0.878716 0.183153
vt 0.860235 0.214045
vt 0.896449 0.290330
vt 0.881772 0.309098
vt 0.897927 0.187580
vt 0.920235 0.195883
vt 0.930560 0.216558
vt 0.911785 0.201814
vt 0.920473 0.219663
vt 0.933674 0.239454
vt 0.919916 0.258867
vt 0.919083 0.282623
vt 0.910675 0.276445
vt 0.902544 0.298801
vt 0.802286 0.218678
vt 0.798847 0.237432
vt 0.860772 0.177533
vt 0.879558 0.180684
vt 0.896341 0.189689
vt 0.809990 0.273444
vt 0.823225 0.287184
vt 0.811108 0.201793
vt 0.824837 0.188569
vt 0.841924 0.180156
vt 0.840102 0.296162
vt 0.858935 0.299318
vt 0.917446 0.258041
vt 0.920746 0.239274
vt 0.801558 0.256334
vt 0.877818 0.296653
vt 0.894926 0.288212
vt 0.909672 0.203297
vt 0.917952 0.220439
vt 0.908573 0.274901
vt 0.002930 0.006912
vt 0.568070 0.440643
vt 0.567546 0.445349
vt 0.752603 0.440439
vt 0.753156 0.445150
vt 0.568566 0.175632
vt 0.751950 0.175432
vt 0.553807 0.420038
vt 0.553819 0.190391
vt 0.558030 0.179853
vt 0.558064 0.430594
vt 0.762512 0.179678
vt 0.766749 0.190267
vt 0.766727 0.419855
vt 0.568657 0.434818
vt 0.751982 0.434614
vt 0.762516 0.430393
vt 0.020991 0.161391
vt 0.039053 0.006912
vt 0.518061 0.006861
vt 0.500000 0.161391
vt 0.518061 0.161391
vt 0.536123 0.006912
vt 0.500000 0.006912
vt 0.311189 0.161392
vt 0.536123 0.161391
vt 0.772136 0.006912
vt 0.311189 0.006912
vt 0.293127 0.161391
vt 0.997070 0.006912
vt 0.997070 0.161392
vt 0.808259 0.161392
vt 0.039053 0.161391
vt 0.275066 0.006912
vt 0.808259 0.006912
vt 0.790198 0.161391
vt 0.790198 0.006861
vt 0.772136 0.161391
vt 0.275066 0.161392
vt 0.293127 0.006861
vn 0.000000 0.000000 1.000000
vn -0.000000 0.000000 1.000000
vn -0.000000 0.000000 1.000000
vn 0.000000 0.000000 1.000000
vn -0.799156 -0.580622 0.155654
vn -0.580622 -0.799156 0.155654
vn -0.500024 -0.688222 0.525668
vn -0.688222 -0.500024 0.525668
vn -0.305252 -0.939464 0.155654
vn -0.262879 -0.809053 0.525669
vn -0.000000 -0.987812 0.155654
vn 0.000000 -0.850690 0.525668
vn -0.214112 -0.294699 0.931294
vn -0.294700 -0.214112 0.931294
vn -0.809054 -0.262878 0.525668
vn -0.346440 -0.112565 0.931294
vn -0.112565 -0.346440 0.931294
vn 0.305250 -0.939465 0.155655
vn 0.262878 -0.809054 0.525668
vn 0.000000 -0.364268 0.931294
vn -0.809054 0.262878 0.525668
vn -0.850689 0.000001 0.525669
vn -0.364268 0.000000 0.931294
vn -0.346439 0.112565 0.931294
vn 0.580621 -0.799156 0.155655
vn 0.500023 -0.688223 0.525668
vn 0.112565 -0.346440 0.931294
vn 0.214112 -0.294700 0.931294
vn -0.000000 0.000000 1.000000
vn -0.000000 0.000000 1.000000
vn -0.000000 0.000000 1.000000
vn -0.000000 0.000000 1.000000
vn -0.000000 -0.000000 1.000000
vn 0.688222 -0.500023 0.525669
vn 0.294699 -0.214112 0.931294
vn 0.799156 -0.580621 0.155655
vn 0.939465 -0.305250 0.155655
vn 0.809054 -0.262877 0.525669
vn -0.294699 0.214112 0.931294
vn -0.214112 0.294699 0.931294
vn -0.500023 0.688222 0.525669
vn -0.688222 0.500024 0.525668
vn -0.305250 0.939464 0.155656
vn -0.580621 0.799156 0.155656
vn -0.262878 0.809054 0.525668
vn -0.000000 0.000000 1.000000
vn 0.000000 0.000000 1.000000
vn 0.000001 0.000000 1.000000
vn 0.000000 0.000000 1.000000
vn 0.000000 0.000000 1.000000
vn 0.000000 0.000000 1.000000
vn 0.000000 0.000000 1.000000
vn 0.346440 -0.112564 0.931294
vn -0.112565 0.346440 0.931294
vn -0.000000 0.000000 1.000000
vn 0.000000 0.000000 1.000000
vn 0.000000 0.364267 0.931295
vn 0.364269 -0.000001 0.931294
vn 0.000001 0.850689 0.525669
vn 0.000002 0.987812 0.155654
vn 0.112563 0.346439 0.931295
vn 0.346439 0.112565 0.931294
vn 0.000000 0.000000 1.000000
vn 0.000000 0.000000 1.000000
vn 0.214111 0.294698 0.931294
vn 0.294699 0.214111 0.931294
vn 0.850690 -0.000003 0.525668
vn -0.000001 0.000000 1.000000
vn -0.000000 0.000000 1.000000
vn 0.262875 0.809054 0.525669
vn 0.305249 0.939466 0.155652
vn 0.809054 0.262877 0.525668
vn 0.799156 0.580621 0.155655
vn 0.580621 0.799156 0.155654
vn 0.500023 0.688222 0.525669
vn 0.688222 0.500023 0.525668
vn 0.000000 0.000000 1.000000
vn 0.000000 0.000000 1.000000
vn 0.000000 0.000000 1.000000
vn 0.000000 0.000000 1.000000
vn -0.000000 0.000000 1.000000
vn 0.000000 0.000000 1.000000
vn 0.000000 0.000000 1.000000
vn 0.000000 0.000000 1.000000
vn -0.939464 -0.305251 0.155654
vn -0.987812 0.000001 0.155655
vn -0.939464 0.305251 0.155654
vn 0.000000 0.000000 1.000000
vn 0.000000 0.000000 1.000000
vn -0.799156 0.580622 0.155655
vn 0.000000 0.000000 1.000000
vn 0.000000 0.000000 1.000000
vn -0.000000 0.000000 1.000000
vn 0.000000 0.000000 1.000000
vn 0.000001 0.000000 1.000000
vn 0.000000 0.000000 1.000000
vn 0.000000 0.000000 1.000000
vn 0.000000 0.000000 1.000000
vn 0.000000 0.000000 1.000000
vn -0.000000 0.000000 1.000000
vn 0.000000 0.000000 1.000000
vn 0.000000 0.000000 1.000000
vn 0.000000 0.000000 1.000000
vn -0.000001 0.000000 1.000000
vn -0.000000 0.000000 1.000000
vn 0.000000 0.000000 1.000000
vn 0.000000 0.000000 1.000000
vn 0.000000 0.000000 1.000000
vn 0.000000 0.000000 1.000000
vn 0.000000 0.000000 1.000000
vn -0.000000 0.000000 1.000000
vn 0.000000 0.000000 1.000000
vn 0.000000 0.000000 1.000000
vn 0.987812 -0.000003 0.155655
vn 0.000000 0.000000 1.000000
vn 0.000000 0.000000 1.000000
vn 0.939465 0.305250 0.155654
vn 0.000000 0.000000 1.000000
vn 0.000000 0.000000 1.000000
vn 0.000000 0.000000 1.000000
vn 0.000000 0.000000 1.000000
vn -0.000000 0.000000 1.000000
vn -0.000000 0.000000 1.000000
vn -0.000000 0.000000 1.000000
vn -0.000000 0.000000 1.000000
vn -0.000001 0.000000 1.000000
vn 0.000000 0.000000 1.000000
vn -0.000000 0.000000 1.000000
vn 0.000001 0.000000 1.000000
vn -0.000000 0.000000 1.000000
vn -0.000001 0.000000 1.000000
vn 0.000000 0.000000 1.000000
vn 0.000000 0.000000 1.000000
vn 0.019810 -0.706321 -0.707615
vn -0.019628 -0.706273 -0.707667
vn -0.023425 -0.706075 -0.707749
vn 0.022886 -0.706170 -0.707673
vn -0.706173 0.018979 -0.707785
vn -0.706252 -0.018746 -0.707712
vn -0.706378 -0.015922 -0.707655
vn -0.706322 0.015907 -0.707712
vn 0.000000 0.000000 -1.000000
vn 0.000000 0.000000 -1.000000
vn 0.000000 0.000000 -1.000000
vn -0.275720 -0.669470 -0.689774
vn -0.275720 -0.669470 -0.689774
vn 0.274684 -0.670548 -0.689140
vn 0.274684 -0.670548 -0.689140
vn -0.669600 0.275616 -0.689689
vn -0.669600 0.275616 -0.689689
vn 0.669850 -0.275708 -0.689410
vn 0.669850 -0.275708 -0.689410
vn 0.706192 -0.018969 -0.707767
vn 0.706337 -0.015899 -0.707697
vn 0.706400 0.015929 -0.707634
vn 0.706278 0.018748 -0.707687
vn -0.275362 0.672313 -0.687147
vn -0.275362 0.672313 -0.687147
vn -0.275362 0.672313 -0.687147
vn -0.019823 0.706457 -0.707478
vn -0.022865 0.706329 -0.707514
vn 0.023380 0.706108 -0.707719
vn 0.019591 0.706300 -0.707641
vn 0.671129 0.275032 -0.688436
vn 0.671129 0.275032 -0.688436
vn 0.275657 0.669859 -0.689422
vn 0.275657 0.669859 -0.689422
vn -0.670741 -0.275094 -0.688789
vn -0.670741 -0.275094 -0.688789
vn 0.020977 0.996667 0.078838
vn -0.020977 0.996667 0.078838
vn -0.021333 0.996659 0.078839
vn 0.021333 0.996659 0.078839
vn -0.366153 0.927535 0.074912
vn -0.366153 0.927535 0.074912
vn 0.996740 0.017221 0.078827
vn 0.996745 0.016931 0.078826
vn 0.927535 0.366153 0.074912
vn 0.927535 0.366153 0.074912
vn 0.996745 -0.016931 0.078826
vn 0.996740 -0.017221 0.078827
vn -0.927535 0.366153 0.074912
vn -0.927535 0.366153 0.074912
vn -0.996745 0.016931 0.078826
vn -0.996740 0.017221 0.078827
vn -0.996745 -0.016931 0.078826
vn -0.996740 -0.017221 0.078827
vn 0.927534 -0.366154 0.074911
vn 0.927534 -0.366154 0.074911
vn 0.366154 -0.927534 0.074910
vn 0.366154 -0.927534 0.074910
vn 0.021333 -0.996659 0.078840
vn 0.020977 -0.996667 0.078839
vn -0.927534 -0.366154 0.074911
vn -0.927534 -0.366154 0.074911
vn -0.020977 -0.996667 0.078839
vn -0.021333 -0.996659 0.078840
vn -0.366154 -0.927534 0.074910
vn -0.366154 -0.927534 0.074910
vn 0.366153 0.927535 0.074912
vn 0.366153 0.927535 0.074912
vn -0.686501 -0.205041 0.697621
vn -0.686501 -0.205041 0.697621
vn -0.694565 -0.007364 0.719393
vn -0.694552 -0.006938 0.719409
vn -0.694335 0.000000 0.719652
vn -0.694335 0.000000 0.719652
vn -0.694335 0.000000 0.719652
vn -0.694335 0.000000 0.719652
vn 0.173912 -0.694831 0.697828
vn 0.021706 -0.695564 0.718136
vn 0.020769 -0.695518 0.718209
vn 0.173912 -0.694831 0.697828
vn -0.686500 0.205043 0.697621
vn -0.694865 0.019581 0.718873
vn -0.694888 0.020705 0.718820
vn -0.686500 0.205043 0.697621
vn 0.694335 0.000000 0.719652
vn 0.694335 0.000000 0.719652
vn 0.694335 0.000000 0.719652
vn 0.694335 0.000000 0.719652
vn 0.173915 0.694828 0.697830
vn 0.020770 0.695517 0.718209
vn 0.021708 0.695564 0.718137
vn 0.173915 0.694828 0.697830
vn 0.686500 0.205043 0.697621
vn 0.694888 0.020705 0.718820
vn 0.694865 0.019581 0.718873
vn 0.686500 0.205043 0.697621
vn -0.948141 -0.317849 0.000000
vn -0.948141 -0.317849 0.000000
vn -0.999983 -0.005813 0.000000
vn -0.999983 -0.005813 0.000000
vn -0.274660 -0.961542 0.000000
vn -0.274660 -0.961542 0.000000
vn -0.006191 -0.999981 -0.000000
vn -0.006191 -0.999981 -0.000000
vn -0.000000 0.000000 1.000000
vn -0.000000 0.000000 1.000000
vn -0.000001 0.000000 1.000000
vn -0.000000 0.000000 1.000000
vn -0.000000 0.000000 1.000000
vn 0.274660 -0.961542 0.000000
vn 0.006191 -0.999981 -0.000000
vn 0.006191 -0.999981 -0.000000
vn 0.274660 -0.961542 0.000000
vn 0.948141 -0.317849 0.000000
vn 0.948141 -0.317849 0.000000
vn 0.999983 -0.005813 0.000000
vn 0.999983 -0.005813 0.000000
vn -0.999983 0.005813 0.000000
vn -0.999983 0.005813 0.000000
vn -0.948141 0.317851 0.000000
vn -0.948141 0.317851 0.000000
vn -0.274667 0.961540 0.000000
vn -0.274667 0.961540 0.000000
vn -0.006191 0.999981 0.000002
vn -0.006191 0.999981 0.000002
vn 0.000000 0.000000 1.000000
vn 0.000000 0.000000 1.000000
vn 0.000000 0.000000 1.000000
vn 0.000000 -1.000000 -0.000000
vn 0.000000 -1.000000 -0.000000
vn 0.000000 -1.000000 -0.000000
vn 0.006191 0.999981 0.000002
vn 0.006191 0.999981 0.000002
vn 0.274667 0.961540 0.000000
vn 0.274667 0.961540 0.000000
vn 0.948141 0.317851 0.000000
vn 0.999983 0.005813 0.000000
vn 0.999983 0.005813 0.000000
vn 0.948141 0.317851 0.000000
vn -1.000000 0.000000 0.000000
vn -1.000000 0.000000 0.000000
vn -1.000000 0.000000 0.000000
vn 0.000000 0.000000 1.000000
vn 0.000000 0.000000 1.000000
vn 0.000000 0.000000 1.000000
vn 0.000000 0.000000 1.000000
vn 0.000001 0.000000 1.000000
vn 0.000000 1.000000 0.000003
vn 0.000000 1.000000 0.000003
vn 0.000000 1.000000 0.000003
vn 1.000000 0.000000 0.000000
vn 1.000000 0.000000 0.000000
vn 1.000000 0.000000 0.000000
vn -0.000002 0.000000 1.000000
vn -0.173912 -0.694831 0.697828
vn -0.173912 -0.694831 0.697828
vn -0.020769 -0.695518 0.718208
vn -0.021706 -0.695564 0.718136
vn 0.000000 -0.694336 0.719651
vn -0.000000 -0.694336 0.719651
vn -0.694335 0.000000 0.719652
vn -0.694335 0.000000 0.719652
vn 0.000000 -0.694336 0.719651
vn -0.000000 -0.694336 0.719651
vn 0.686501 -0.205040 0.697621
vn 0.686501 -0.205040 0.697621
vn 0.694552 -0.006938 0.719409
vn 0.694565 -0.007364 0.719393
vn -0.020770 0.695517 0.718209
vn -0.173915 0.694829 0.697829
vn -0.173915 0.694829 0.697829
vn -0.021708 0.695564 0.718136
vn 0.000000 0.694334 0.719653
vn 0.000000 0.694334 0.719653
vn -0.000000 -0.694336 0.719651
vn -0.000000 -0.694336 0.719651
vn 0.694335 0.000000 0.719652
vn 0.694335 0.000000 0.719652
vn 0.000000 0.694334 0.719653
vn 0.000000 0.694334 0.719653
vn 0.000000 0.694334 0.719653
vn 0.000000 0.694334 0.719653
vn 0.000001 0.000000 1.000000
vn 0.000000 0.000000 1.000000
vn 0.000000 0.000000 1.000000
vn -0.000000 0.000000 1.000000
vn -0.000000 0.000000 1.000000
vn 0.000000 0.000000 1.000000
vn -0.000001 0.000000 1.000000
vn 0.000000 0.000000 1.000000
vn 0.000000 0.000000 1.000000
vn 0.000000 0.000000 1.000000
vn 0.000000 0.000000 1.000000
vn 0.000000 0.000000 1.000000
vn 0.000000 0.000000 1.000000
vn 0.000000 0.000000 1.000000
vn -0.000000 0.000000 -1.000000
vn -0.000000 0.000000 -1.000000
vn -0.000000 0.000000 -1.000000
vn -0.000000 0.000000 -1.000000
vn 0.000000 0.000000 -1.000000
vn 0.000000 0.000000 -1.000000
vn 0.000001 0.000000 -1.000000
vn 0.000000 0.000000 -1.000000
vn 0.000000 0.000000 -1.000000
vn -0.000000 0.000000 -1.000000
vn -0.000000 0.000000 -1.000000
vn 0.000000 0.000000 -1.000000
vn 0.000000 0.000000 -1.000000
vn 0.000000 0.000000 -1.000000
vn 0.000000 0.000000 -1.000000
vn 0.000001 0.000000 -1.000000
vn -0.000000 0.000000 -1.000000
vn 0.000000 0.000000 -1.000000
vn 0.000000 0.000000 1.000000
vn 0.000000 0.000000 1.000000
vn -0.488940 -0.355237 0.796709
vn -0.014963 -0.010872 0.999829
vn -0.013521 -0.018611 0.999735
vn -0.355237 -0.488940 0.796708
vn -0.574782 -0.186758 0.796710
vn -0.005212 -0.001693 0.999985
vn -0.604362 0.000001 0.796710
vn -0.003530 0.000000 0.999994
vn -0.574783 0.186758 0.796709
vn -0.005606 0.001822 0.999983
vn -0.002649 -0.008153 0.999963
vn -0.186758 -0.574783 0.796710
vn 0.488939 0.355237 0.796709
vn 0.042461 0.030851 0.998622
vn 0.030386 0.041823 0.998663
vn 0.355236 0.488939 0.796709
vn 0.574782 0.186758 0.796710
vn 0.026276 0.008538 0.999618
vn 0.604361 -0.000000 0.796710
vn 0.024047 0.000000 0.999711
vn 0.007958 0.024492 0.999668
vn 0.186759 0.574784 0.796709
vn 0.574783 -0.186758 0.796710
vn 0.025718 -0.008356 0.999634
vn 0.000000 0.013153 0.999914
vn 0.000000 0.604363 0.796709
vn -0.003274 0.010075 0.999944
vn -0.186759 0.574784 0.796709
vn -0.014167 0.019500 0.999710
vn -0.355236 0.488941 0.796708
vn 0.488940 -0.355237 0.796708
vn 0.036452 -0.026484 0.998984
vn 0.355237 -0.488940 0.796708
vn 0.024877 -0.034241 0.999104
vn -0.015361 0.011160 0.999820
vn -0.488940 0.355236 0.796709
vn 0.186758 -0.574783 0.796710
vn 0.006988 -0.021508 0.999744
vn 0.000000 -0.604363 0.796710
vn -0.000000 -0.010735 0.999942
vn 0.000000 0.000000 1.000000
vn -0.575222 -0.417925 0.703178
vn -0.676212 -0.219714 0.703181
vn 0.000000 0.000000 1.000000
vn -0.711010 0.000001 0.703182
vn -0.417925 -0.575223 0.703177
vn 0.575220 0.417924 0.703179
vn 0.676212 0.219714 0.703181
vn 0.417922 0.575219 0.703181
vn 0.000000 0.000000 1.000000
vn 0.711010 -0.000000 0.703182
vn 0.219714 0.676212 0.703181
vn -0.000000 0.711012 0.703180
vn -0.219714 0.676211 0.703182
vn -0.000000 0.000000 1.000000
vn 0.000000 0.000000 1.000000
vn 0.676212 -0.219715 0.703180
vn 0.575222 -0.417924 0.703178
vn -0.417921 0.575219 0.703182
vn 0.417925 -0.575223 0.703177
vn -0.575220 0.417923 0.703180
vn 0.000000 0.000000 1.000000
vn 0.219715 -0.676212 0.703180
vn -0.676211 0.219715 0.703181
vn 0.000000 0.000000 1.000000
vn -0.000000 -0.711009 0.703183
vn -0.219714 -0.676213 0.703180
vn -0.488940 -0.355238 0.796708
vn -0.036453 -0.026484 0.998984
vn -0.024877 -0.034241 0.999104
vn -0.355237 -0.488940 0.796708
vn -0.574782 -0.186758 0.796710
vn -0.025717 -0.008356 0.999634
vn -0.604362 0.000001 0.796710
vn -0.024046 0.000000 0.999711
vn -0.574784 0.186758 0.796709
vn -0.026277 0.008538 0.999618
vn -0.006988 -0.021508 0.999744
vn -0.186758 -0.574782 0.796711
vn 0.488939 0.355237 0.796710
vn 0.015361 0.011160 0.999820
vn 0.014167 0.019500 0.999709
vn 0.355236 0.488939 0.796710
vn 0.574782 0.186759 0.796710
vn 0.005606 0.001822 0.999983
vn 0.604362 -0.000000 0.796710
vn 0.003530 -0.000000 0.999994
vn 0.003274 0.010075 0.999944
vn 0.186759 0.574784 0.796709
vn 0.574783 -0.186759 0.796709
vn 0.005212 -0.001693 0.999985
vn 0.000000 0.013153 0.999914
vn 0.000000 0.604363 0.796709
vn -0.007958 0.024492 0.999668
vn -0.186759 0.574784 0.796709
vn 0.488941 -0.355237 0.796708
vn 0.014964 -0.010872 0.999829
vn 0.355237 -0.488940 0.796708
vn 0.013521 -0.018611 0.999735
vn -0.030386 0.041823 0.998663
vn -0.355236 0.488940 0.796709
vn -0.042461 0.030850 0.998622
vn -0.488940 0.355237 0.796709
vn 0.186758 -0.574784 0.796709
vn 0.002649 -0.008153 0.999963
vn -0.000000 -0.604362 0.796710
vn -0.000000 -0.010735 0.999942
vn -0.000001 0.000000 1.000000
vn -0.000000 0.000000 1.000000
vn -0.575223 -0.417926 0.703177
vn -0.676213 -0.219714 0.703180
vn 0.000001 0.000000 1.000000
vn -0.711010 0.000001 0.703182
vn -0.417925 -0.575223 0.703177
vn 0.575220 0.417924 0.703180
vn 0.676212 0.219715 0.703180
vn 0.417922 0.575219 0.703181
vn 0.711010 -0.000000 0.703182
vn 0.219714 0.676212 0.703181
vn -0.000000 0.711012 0.703180
vn 0.676212 -0.219715 0.703180
vn 0.575222 -0.417924 0.703178
vn -0.219714 0.676211 0.703182
vn -0.417921 0.575219 0.703182
vn 0.417925 -0.575223 0.703177
vn -0.575219 0.417924 0.703180
vn 0.219715 -0.676214 0.703179
vn -0.676213 0.219715 0.703180
vn 0.000000 0.000000 1.000000
vn 0.000000 -0.711008 0.703184
vn 0.000000 0.000000 1.000000
vn -0.219714 -0.676211 0.703182
vn -0.083891 0.258192 0.962445
vn -0.007233 0.022262 0.999726
vn -0.013758 0.018937 0.999726
vn -0.159571 0.219631 0.962444
vn 0.158990 -0.489322 0.857488
vn 0.217700 -0.670012 0.709711
vn 0.414090 -0.569946 0.709711
vn 0.302418 -0.416242 0.857488
vn 0.159572 0.219631 0.962444
vn 0.013759 0.018937 0.999726
vn 0.007233 0.022262 0.999726
vn 0.083892 0.258192 0.962444
vn -0.302419 -0.416242 0.857488
vn -0.414091 -0.569946 0.709711
vn -0.217700 -0.670012 0.709711
vn -0.158991 -0.489322 0.857488
vn -0.669499 -0.217990 0.710107
vn -0.697186 -0.226969 0.680012
vn -0.593512 -0.431212 0.679558
vn -0.569947 -0.414090 0.709711
vn -0.431212 -0.593512 0.679558
vn -0.226701 -0.697716 0.679558
vn 0.000000 -0.733622 0.679558
vn 0.000000 -0.704493 0.709711
vn -0.703554 0.000000 0.710642
vn -0.732631 0.000000 0.680626
vn 0.242205 0.175972 0.954134
vn 0.284729 0.092513 0.954134
vn 0.258213 0.083889 0.962439
vn 0.219631 0.159572 0.962444
vn 0.000000 0.271479 0.962444
vn 0.000000 0.299382 0.954134
vn 0.092514 0.284729 0.954134
vn 0.226701 -0.697716 0.679558
vn 0.299381 -0.000000 0.954134
vn 0.284729 -0.092513 0.954134
vn 0.258213 -0.083889 0.962439
vn 0.271512 -0.000000 0.962435
vn -0.569947 0.414090 0.709711
vn -0.593513 0.431212 0.679558
vn -0.697187 0.226968 0.680012
vn -0.669500 0.217990 0.710106
vn 0.431212 -0.593512 0.679558
vn -0.175972 0.242205 0.954134
vn -0.092513 0.284729 0.954134
vn 0.242205 -0.175972 0.954134
vn 0.219631 -0.159571 0.962444
vn 0.175972 -0.242204 0.954134
vn 0.159571 -0.219631 0.962444
vn -0.242205 0.175972 0.954134
vn -0.219631 0.159571 0.962444
vn -0.414090 0.569947 0.709712
vn -0.431211 0.593512 0.679559
vn 0.092514 -0.284729 0.954134
vn 0.083892 -0.258192 0.962444
vn -0.284729 0.092513 0.954134
vn -0.258213 0.083888 0.962439
vn -0.000000 -0.299381 0.954134
vn -0.000000 -0.271479 0.962444
vn 0.175972 0.242205 0.954134
vn -0.217700 0.670012 0.709712
vn -0.226702 0.697716 0.679558
vn -0.299381 0.000001 0.954134
vn -0.271512 0.000001 0.962435
vn -0.284729 -0.092513 0.954134
vn -0.258213 -0.083888 0.962439
vn -0.092514 -0.284728 0.954134
vn -0.175972 -0.242204 0.954134
vn -0.159571 -0.219631 0.962444
vn -0.083891 -0.258192 0.962444
vn -0.242205 -0.175972 0.954134
vn -0.219631 -0.159571 0.962444
vn -0.000000 0.704493 0.709711
vn -0.000000 0.733623 0.679557
vn 0.669500 0.217989 0.710107
vn 0.703554 -0.000001 0.710642
vn 0.732631 -0.000001 0.680626
vn 0.697187 0.226967 0.680012
vn 0.217700 0.670013 0.709711
vn 0.226702 0.697717 0.679557
vn 0.414090 0.569947 0.709711
vn 0.431212 0.593513 0.679558
vn 0.593512 -0.431212 0.679558
vn 0.569946 -0.414090 0.709712
vn 0.697186 -0.226968 0.680012
vn 0.669499 -0.217990 0.710107
vn 0.569946 0.414090 0.709711
vn 0.593512 0.431212 0.679558
vn -0.488867 -0.159054 0.857736
vn -0.513615 -0.000000 0.858021
vn 0.022433 0.007222 0.999722
vn 0.023750 -0.000000 0.999718
vn -0.488866 0.159054 0.857736
vn 0.022433 -0.007222 0.999722
vn 0.000000 0.023408 0.999726
vn -0.000000 -0.514504 0.857488
vn -0.018936 0.013759 0.999726
vn 0.416242 -0.302417 0.857488
vn -0.416242 0.302418 0.857488
vn -0.302417 0.416243 0.857488
vn 0.018935 -0.013759 0.999726
vn 0.013758 -0.018937 0.999726
vn -0.158989 0.489320 0.857489
vn 0.007233 -0.022262 0.999726
vn 0.018938 0.013759 0.999726
vn -0.416244 -0.302418 0.857487
vn -0.000000 0.514500 0.857490
vn -0.000000 -0.023408 0.999726
vn -0.022434 -0.007222 0.999722
vn -0.018938 -0.013759 0.999726
vn 0.488865 0.159054 0.857737
vn 0.416243 0.302418 0.857488
vn 0.513613 -0.000000 0.858022
vn -0.023750 0.000000 0.999718
vn 0.158989 0.489318 0.857491
vn -0.007233 -0.022262 0.999726
vn 0.302417 0.416240 0.857489
vn -0.013759 -0.018937 0.999726
vn -0.022432 0.007222 0.999722
vn 0.488865 -0.159055 0.857737
vn -0.018732 -0.657030 0.753632
vn -0.013938 -0.456727 0.889498
vn -0.350763 -0.350763 0.868292
vn -0.255356 -0.620134 0.741773
vn 0.018732 -0.657030 0.753632
vn 0.013938 -0.456727 0.889498
vn 0.255356 -0.620134 0.741773
vn 0.350763 -0.350763 0.868292
vn -0.657295 -0.015197 0.753480
vn -0.456209 -0.011300 0.889801
vn -0.456209 0.011300 0.889801
vn -0.657295 0.015197 0.753480
vn -0.620134 -0.255356 0.741773
vn -0.350763 0.350763 0.868292
vn -0.620135 0.255357 0.741772
vn 0.620135 -0.255356 0.741773
vn 0.657295 -0.015197 0.753480
vn 0.456209 -0.011300 0.889801
vn 0.657295 0.015197 0.753480
vn 0.456209 0.011300 0.889801
vn 0.620135 0.255357 0.741772
vn 0.350763 0.350763 0.868292
vn -0.255357 0.620135 0.741772
vn -0.013938 0.456728 0.889497
vn -0.018732 0.657029 0.753632
vn 0.013938 0.456728 0.889497
vn 0.018732 0.657029 0.753632
vn 0.255357 0.620135 0.741772
vn -0.006655 -0.245438 0.969389
vn 0.006655 -0.245438 0.969389
vn -0.245540 0.005393 0.969371
vn -0.245540 -0.005393 0.969371
vn -0.033676 -0.999433 0.000000
vn -0.033622 -0.999435 0.000000
vn 0.033619 -0.999435 0.000000
vn 0.033676 -0.999433 0.000000
vn -0.999626 -0.027346 0.000000
vn -0.999625 -0.027392 0.000000
vn -0.999625 0.027392 0.000000
vn -0.999626 0.027347 0.000000
vn 0.382683 -0.923880 0.000000
vn 0.382683 -0.923880 0.000000
vn 0.923879 -0.382684 0.000000
vn 0.923879 -0.382684 0.000000
vn 0.999626 -0.027344 0.000000
vn 0.999625 -0.027392 0.000000
vn -0.923879 0.382684 0.000000
vn -0.923879 0.382684 0.000000
vn -0.382684 0.923880 0.000000
vn -0.382684 0.923880 0.000000
vn -0.033676 0.999433 0.000000
vn -0.033623 0.999435 0.000000
vn 0.999626 0.027346 0.000000
vn 0.999625 0.027392 0.000000
vn 0.033676 0.999433 0.000000
vn 0.033623 0.999435 0.000000
vn 0.923879 0.382684 0.000000
vn 0.923879 0.382684 0.000000
vn 0.382684 0.923879 0.000000
vn 0.382684 0.923879 0.000000
vn -0.923879 -0.382684 0.000000
vn -0.923880 -0.382684 0.000000
vn -0.382684 -0.923880 0.000000
vn -0.382684 -0.923880 0.000000
vn -0.166831 -0.166830 0.971769
vn -0.166831 0.166830 0.971769
vn 0.166831 -0.166830 0.971769
vn 0.245540 -0.005393 0.969371
vn 0.245540 0.005393 0.969371
vn -0.006655 0.245440 0.969389
vn 0.006655 0.245440 0.969389
vn 0.166830 0.166830 0.971769
s 1
g polySurface4 Speaker_LP Speaker
usemtl set2
f 10/9/1 9/10/2 12/179/3 3/181/4
s 2
f 6/5/5 7/196/6 17/11/7 18/12/8
f 7/196/6 11/195/9 16/13/10 17/11/7
f 11/195/9 15/194/11 20/14/12 16/13/10
f 18/12/8 17/11/7 75/15/13 74/16/14
f 19/17/15 18/12/8 74/16/14 76/18/16
f 17/11/7 16/13/10 77/19/17 75/15/13
f 15/194/11 21/193/18 24/20/19 20/14/12
f 16/13/10 20/14/12 79/23/20 77/19/17
f 25/24/21 26/25/22 78/26/23 83/27/24
f 21/193/18 28/21/25 33/28/26 24/20/19
f 20/14/12 24/20/19 84/29/27 79/23/20
f 24/20/19 33/28/26 88/30/28 84/29/27
s 1
f 30/31/29 31/32/30 2/180/31 32/177/32
s 2
f 34/33/33 74/16/14 75/15/13
f 34/33/33 76/18/16 74/16/14
f 34/33/33 75/15/13 77/19/17
f 34/33/33 78/26/23 76/18/16
f 34/33/33 77/19/17 79/23/20
f 34/33/33 83/27/24 78/26/23
f 34/33/33 79/23/20 84/29/27
f 33/28/26 36/34/34 46/35/35 88/30/28
f 35/192/36 37/189/37 43/36/38 36/34/34
f 34/33/33 38/37/39 83/27/24
f 34/33/33 84/29/27 88/30/28
f 38/37/39 42/38/40 45/39/41 82/40/42
f 39/190/43 29/191/44 45/39/41 44/41/45
s 6
f 110/263/46 111/42/47 112/257/48
s 2
f 34/33/33 88/30/28 46/35/35
f 34/33/33 42/38/40 38/37/39
s 6
f 112/257/48 111/42/47 113/255/49
f 114/267/50 111/42/47 110/263/46
f 113/255/49 111/42/47 115/261/51
f 116/271/52 111/42/47 114/267/50
s 2
f 36/34/34 43/36/38 47/43/53 46/35/35
f 34/33/33 46/35/35 47/43/53
f 34/33/33 48/44/54 42/38/40
f 42/38/40 48/44/54 44/41/45 45/39/41
s 6
f 117/282/55 111/42/47 116/271/52
f 115/261/51 111/42/47 118/278/56
s 2
f 34/33/33 56/45/57 48/44/54
f 34/33/33 47/43/53 53/46/58
f 39/190/43 44/41/45 52/47/59 51/184/60
f 34/33/33 60/48/61 56/45/57
f 34/33/33 53/46/58 64/49/62
s 6
f 119/288/63 111/42/47 117/282/55
f 118/278/56 111/42/47 120/276/64
s 2
f 34/33/33 58/50/65 60/48/61
f 34/33/33 64/49/62 59/51/66
f 52/47/59 44/41/45 48/44/54 56/45/57
f 34/33/33 59/51/66 58/50/65
f 53/46/58 47/43/53 43/36/38 57/52/67
s 6
f 121/295/68 111/42/47 119/288/63
f 120/276/64 111/42/47 122/286/69
s 2
f 52/47/59 55/53/70 68/183/71 51/184/60
f 52/47/59 56/45/57 60/48/61 55/53/70
f 53/46/58 57/52/67 61/54/72 64/49/62
f 62/185/73 63/187/74 66/55/75 67/56/76
s 6
f 123/309/77 111/42/47 121/295/68
f 122/286/69 111/42/47 124/293/78
s 2
f 60/48/61 58/50/65 66/55/75 55/53/70
f 61/54/72 67/56/76 59/51/66 64/49/62
f 58/50/65 59/51/66 67/56/76 66/55/75
s 6
f 125/249/79 111/42/47 123/309/77
f 124/293/78 111/42/47 126/300/80
f 126/300/80 111/42/47 127/305/81
f 128/246/82 111/42/47 125/249/79
f 127/305/81 111/42/47 129/302/83
f 130/251/84 111/42/47 128/246/82
f 129/302/83 111/42/47 130/251/84
s 2
f 8/6/85 6/5/5 18/12/8 19/17/15
f 14/7/86 8/6/85 19/17/15 26/25/22
f 13/8/87 14/7/86 26/25/22 25/24/21
f 26/25/22 19/17/15 76/18/16 78/26/23
s 1
f 12/179/3 9/10/2 80/57/88 81/178/89
s 2
f 23/22/90 13/8/87 25/24/21 82/40/42
s 1
f 81/178/89 80/57/88 86/58/91 87/175/92
s 7
f 131/363/93 132/59/94 133/357/95
f 133/357/95 132/59/94 134/355/96
f 135/367/97 132/59/94 131/363/93
f 134/355/96 132/59/94 136/361/98
f 137/378/99 132/59/94 135/367/97
s 2
f 38/37/39 82/40/42 25/24/21 83/27/24
s 7
f 138/381/100 132/59/94 137/378/99
f 136/361/98 132/59/94 139/374/101
s 2
f 28/21/25 35/192/36 36/34/34 33/28/26
f 29/191/44 23/22/90 82/40/42 45/39/41
s 7
f 140/387/102 132/59/94 138/381/100
f 139/374/101 132/59/94 141/372/103
f 142/393/104 132/59/94 140/387/102
f 141/372/103 132/59/94 143/385/105
f 144/405/106 132/59/94 142/393/104
f 143/385/105 132/59/94 145/391/107
f 146/348/108 132/59/94 144/405/106
f 145/391/107 132/59/94 147/399/109
f 148/344/110 132/59/94 146/348/108
f 147/399/109 132/59/94 149/403/111
f 149/403/111 132/59/94 150/409/112
f 151/350/113 132/59/94 148/344/110
f 150/409/112 132/59/94 151/350/113
s 2
f 37/189/37 54/188/114 57/52/67 43/36/38
s 1
f 30/31/29 32/177/32 91/176/115 90/60/116
s 2
f 54/188/114 65/186/117 61/54/72 57/52/67
f 65/186/117 62/185/73 67/56/76 61/54/72
f 63/187/74 68/183/71 55/53/70 66/55/75
s 1
f 90/60/116 91/176/115 92/174/118 93/61/119
f 86/58/91 100/62/120 101/171/121 87/175/92
f 103/63/122 93/61/119 92/174/118 104/173/123
f 103/63/122 104/173/123 105/172/124 106/64/125
f 101/171/121 100/62/120 106/64/125 105/172/124
s 8
f 69/1/126 71/2/127 40/3/128
f 97/4/129 102/66/130 99/67/131
s 1
f 10/9/1 3/181/4 1/182/132 109/65/133
f 1/182/132 2/180/31 31/32/30 109/65/133
s 10
f 154/210/134 153/201/135 152/162/136 155/170/137
s 11
f 158/167/138 157/160/139 156/200/140 159/207/141
s 12
f 236/96/142 166/97/143 241/98/144
s 10
f 152/162/136 153/201/135 175/199/145 174/161/146
f 154/210/134 155/170/137 161/169/147 160/209/148
s 11
f 158/167/138 159/207/141 165/206/149 164/101/150
s 13
f 160/209/151 161/169/152 163/168/153 162/208/154
f 168/204/155 162/208/154 163/168/153 169/165/156
s 14
f 236/211/157 164/101/158 165/206/159 167/205/160 166/166/161
f 170/164/162 166/166/161 167/205/160 171/202/163
s 13
f 168/204/155 169/165/156 173/163/164 172/203/165
s 14
f 170/164/162 171/202/163 172/203/166 173/163/167
s 11
f 157/160/139 174/161/168 175/199/169 156/200/140
s 15
f 176/148/170 177/159/171 9/10/172 10/9/173
f 9/10/172 177/159/171 180/158/174 80/57/175
s 16
f 31/32/176 178/150/177 187/149/178 109/65/179
f 179/156/180 178/150/177 31/32/176 30/31/181
s 17
f 80/57/182 180/158/183 181/157/184 86/58/185
f 181/157/184 184/153/186 100/62/187 86/58/185
s 16
f 179/156/180 30/31/181 90/60/188 182/155/189
s 18
f 182/155/190 90/60/191 93/61/192 183/154/193
s 17
f 100/62/187 184/153/186 186/152/194 106/64/195
s 18
f 185/151/196 183/154/193 93/61/192 103/63/197
f 185/151/196 103/63/197 106/64/198 186/152/199
s 15
f 176/148/170 10/9/173 109/65/200 187/149/201
s 19
f 189/68/202 188/69/203 191/70/204 190/71/205
f 196/72/206 195/73/207 194/74/208 197/75/209
s 20
f 200/76/210 202/77/211 201/78/212 203/79/213
s 19
f 209/80/214 207/81/215 206/82/216 208/83/217
s 22
f 214/84/218 213/85/219 212/86/220 215/87/221
s 23
f 225/88/222 221/89/223 220/90/224 222/91/225
s 22
f 222/91/226 224/106/227 223/107/228 225/88/229
s 25
f 1/108/230 189/68/231 190/71/232 2/109/233
s 26
f 189/68/234 1/108/235 3/110/236 193/111/237
s 8
f 194/74/238 40/3/128 71/2/127 197/75/239
f 192/112/240 194/74/238 191/70/241 188/69/242
s 26
f 203/79/243 201/78/244 12/113/245 81/114/246
s 27
f 203/79/247 81/114/248 87/115/249 205/116/250
s 25
f 32/117/251 207/81/252 209/80/253 91/118/254
s 28
f 91/118/255 209/80/256 210/119/257 92/120/258
s 8
f 102/66/130 94/121/259 213/85/260 214/84/261
s 26
f 3/110/236 12/113/245 201/78/244 216/122/262 218/123/263 199/124/264 193/111/237
s 28
f 104/125/265 221/89/266 225/88/267 105/126/268
s 27
f 225/88/269 223/107/270 101/127/271 105/126/272
s 25
f 32/117/251 2/109/233 190/71/232 195/73/273 196/72/274 226/128/275 207/81/252
s 8
f 219/129/276 41/130/277 27/131/278
f 94/121/259 217/132/279 202/77/280 213/85/260
s 28
f 104/125/265 92/120/258 210/119/257 228/133/281 230/134/282 232/135/283 221/89/266
s 27
f 87/115/249 101/127/271 223/107/270 234/136/284 215/87/285 212/86/286 205/116/250
s 8
f 89/137/287 217/132/279 94/121/259
s 20
f 188/69/288 189/68/289 193/111/290 192/112/291
f 198/138/292 192/112/291 193/111/290 199/124/293
s 19
f 195/73/207 190/71/205 191/70/204 194/74/208
f 226/128/294 196/72/206 197/75/209 227/139/295
s 20
f 216/122/296 201/78/212 202/77/211 217/132/297
s 22
f 200/76/298 203/79/299 205/116/300 204/140/301
s 23
f 210/119/302 209/80/303 208/83/304 211/197/305
f 228/133/306 210/119/302 211/197/305 229/198/307
s 22
f 213/85/219 204/140/301 205/116/300 212/86/220
s 20
f 218/123/308 216/122/296 217/132/297 219/129/309
f 218/123/308 219/129/309 198/138/292 199/124/293
s 22
f 234/136/310 223/107/228 224/106/227 235/213/311
s 19
f 226/128/294 227/139/295 206/82/216 207/81/215
s 23
f 230/134/312 228/133/306 229/198/307 231/214/313
f 232/135/314 230/134/312 231/214/313 233/215/315
f 232/135/314 233/215/315 220/90/224 221/89/223
s 22
f 234/136/310 235/213/311 214/84/218 215/87/221
s 8
f 73/216/316 71/2/127 69/1/126
f 49/217/317 107/218/318 71/2/127
f 50/219/319 71/2/127 73/216/316
f 96/220/320 102/66/130 107/218/318
f 99/67/131 102/66/130 98/221/321
f 94/121/259 102/66/130 97/4/129
f 198/138/322 4/222/323 40/3/128
f 198/138/322 27/131/278 22/223/324
f 219/129/276 70/224/325 41/130/277
f 85/225/326 217/132/279 89/137/287
f 198/138/322 5/226/327 4/222/323
f 198/138/322 22/223/324 5/226/327
f 72/227/328 217/132/279 85/225/326
f 70/224/325 217/132/279 72/227/328
f 49/217/317 71/2/127 50/219/319
f 98/221/321 102/66/130 96/220/320
f 219/129/276 27/131/278 198/138/322
f 219/129/276 217/132/279 70/224/325
f 95/228/329 107/218/318 49/217/317
f 96/220/320 107/218/318 95/228/329
s 12
f 242/141/330 243/142/331 157/95/332 158/94/333
f 158/94/333 164/212/334 236/96/142 241/98/144 242/141/330
f 157/95/332 243/142/331 244/143/335 174/99/336
f 152/92/337 174/99/336 244/143/335
f 170/104/338 173/105/339 237/144/340
f 237/144/340 173/105/339 169/103/341 238/145/342
f 163/102/343 239/146/344 238/145/342 169/103/341
f 239/146/344 163/102/343 161/100/345 240/147/346
f 240/147/346 161/100/345 155/93/347
f 166/97/143 170/104/338 237/144/340 241/98/144
f 241/98/144 237/144/340 238/145/342 242/141/330
f 238/145/342 239/146/344 243/142/331 242/141/330
f 243/142/331 239/146/344 240/147/346 244/143/335
f 244/143/335 240/147/346 155/93/347 152/92/337
s 8
f 40/3/128 194/74/238 192/112/240 198/138/322
f 213/85/260 202/77/280 200/76/348 204/140/349
f 245/229/350 246/230/351 252/231/352 251/232/353
f 246/230/351 245/229/350 247/233/354 248/234/355
f 248/234/355 247/233/354 250/235/356 249/236/357
f 249/236/357 250/235/356 279/237/358 280/238/359
f 251/232/353 252/231/352 284/239/360 283/240/361
f 253/241/362 254/242/363 258/243/364 257/244/365
f 254/242/363 253/241/362 255/247/366 256/252/367
f 256/252/367 255/247/366 259/253/368 260/258/369
f 257/244/365 258/243/364 262/259/370 261/264/371
f 260/258/369 259/253/368 267/265/372 268/268/373
f 261/264/371 262/259/370 264/269/374 263/272/375
f 263/272/375 264/269/374 266/273/376 265/274/377
f 265/274/377 266/273/376 272/279/378 271/280/379
f 268/268/373 267/265/372 269/283/380 270/284/381
f 270/284/381 269/283/380 273/289/382 274/290/383
f 271/280/379 272/279/378 276/291/384 275/296/385
f 274/290/383 273/289/382 277/297/386 278/298/387
f 275/296/385 276/291/384 280/238/359 279/237/358
f 278/298/387 277/297/386 281/303/388 282/306/389
f 282/306/389 281/303/388 283/240/361 284/239/360
f 246/230/351 248/234/355 231/214/390
f 247/248/354 245/245/350 130/251/391 128/246/392
f 248/234/355 249/236/357 108/307/393 231/214/390
f 250/308/356 247/248/354 128/246/392 125/249/394
f 245/245/350 251/250/353 129/302/395 130/251/391
f 252/231/352 246/230/351 231/214/390
f 254/242/363 256/252/367 197/75/239
f 255/260/366 253/254/362 112/257/396 113/255/397
f 253/254/362 257/256/365 110/263/398 112/257/396
f 258/243/364 254/242/363 197/75/239
f 256/252/367 260/258/369 227/139/399 197/75/239
f 259/277/368 255/260/366 113/255/397 115/261/400
f 257/256/365 261/262/371 114/267/401 110/263/398
f 262/259/370 258/243/364 197/75/239
f 261/262/371 263/266/375 116/271/402 114/267/401
f 264/269/374 262/259/370 197/75/239 71/2/127
f 263/266/375 265/270/377 117/282/403 116/271/402
f 266/273/376 264/269/374 71/2/127 107/218/318
f 268/268/373 270/284/381 208/83/404 206/82/405
f 269/285/380 267/275/372 118/278/406 120/276/407
f 267/275/372 259/277/368 115/261/400 118/278/406
f 260/258/369 268/268/373 206/82/405 227/139/399
f 265/270/377 271/281/379 119/288/408 117/282/403
f 272/279/378 266/273/376 107/218/318
f 270/284/381 274/290/383 208/83/404
f 273/292/382 269/285/380 120/276/407 122/286/409
f 271/281/379 275/287/385 121/295/410 119/288/408
f 276/291/384 272/279/378 107/218/318
f 274/290/383 278/298/387 211/197/411 208/83/404
f 277/299/386 273/292/382 122/286/409 124/293/412
f 275/287/385 279/294/358 123/309/413 121/295/410
f 280/238/359 276/291/384 107/218/318
f 278/298/387 282/306/389 229/198/414 211/197/411
f 281/304/388 277/299/386 124/293/412 126/300/415
f 251/250/353 283/301/361 127/305/416 129/302/395
f 284/239/360 252/231/352 231/214/390
f 283/301/361 281/304/388 126/300/415 127/305/416
f 282/306/389 284/239/360 231/214/390 229/198/414
f 279/294/358 250/308/356 125/249/394 123/309/413
f 249/236/357 280/238/359 107/218/318 108/307/393
f 285/310/417 286/311/418 292/312/419 291/313/420
f 286/311/418 285/310/417 287/314/421 288/315/422
f 288/315/422 287/314/421 289/316/423 290/317/424
f 290/317/424 289/316/423 319/318/425 320/319/426
f 291/313/420 292/312/419 324/320/427 323/321/428
f 293/322/429 294/323/430 298/324/431 297/325/432
f 294/323/430 293/322/429 295/326/433 296/327/434
f 296/327/434 295/326/433 300/328/435 299/329/436
f 297/325/432 298/324/431 302/330/437 301/331/438
f 299/329/436 300/328/435 305/332/439 306/333/440
f 301/331/438 302/330/437 304/334/441 303/335/442
f 303/335/442 304/334/441 310/336/443 309/337/444
f 306/333/440 305/332/439 307/338/445 308/339/446
f 308/339/446 307/338/445 313/340/447 314/341/448
f 309/337/444 310/336/443 312/342/449 311/345/450
f 311/345/450 312/342/449 316/346/451 315/351/452
f 314/341/448 313/340/447 317/352/453 318/353/454
f 315/351/452 316/346/451 320/319/426 319/318/425
f 318/353/454 317/352/453 321/358/455 322/359/456
f 322/359/456 321/358/455 323/321/428 324/320/427
f 286/311/418 288/315/422 224/106/457 222/91/458
f 287/347/421 285/343/417 151/350/459 148/344/460
f 288/315/422 290/317/424 235/213/461 224/106/457
f 289/404/423 287/347/421 148/344/460 146/348/462
f 285/343/417 291/349/420 150/409/463 151/350/459
f 292/312/419 286/311/418 222/91/458
f 294/323/430 296/327/434 107/218/318
f 295/360/433 293/354/429 133/357/464 134/355/465
f 293/354/429 297/356/432 131/363/466 133/357/464
f 298/324/431 294/323/430 107/218/318
f 296/327/434 299/329/436 108/307/393 107/218/318
f 300/373/435 295/360/433 134/355/465 136/361/467
f 297/356/432 301/362/438 135/367/468 131/363/466
f 302/330/437 298/324/431 107/218/318
f 301/362/438 303/366/442 137/378/469 135/367/468
f 304/334/441 302/330/437 107/218/318 102/66/130
f 306/333/440 308/339/446 231/214/390
f 307/384/445 305/371/439 139/374/470 141/372/471
f 305/371/439 300/373/435 136/361/467 139/374/470
f 299/329/436 306/333/440 231/214/390 108/307/393
f 303/366/442 309/377/444 138/381/472 137/378/469
f 310/336/443 304/334/441 102/66/130 214/84/261
f 309/377/444 311/380/450 140/387/473 138/381/472
f 312/342/449 310/336/443 214/84/261
f 308/339/446 314/341/448 231/214/390
f 313/390/447 307/384/445 141/372/471 143/385/474
f 311/380/450 315/386/452 142/393/475 140/387/473
f 316/346/451 312/342/449 214/84/261
f 314/341/448 318/353/454 231/214/390
f 317/398/453 313/390/447 143/385/474 145/391/476
f 315/386/452 319/392/425 144/405/477 142/393/475
f 320/319/426 316/346/451 214/84/261
f 318/353/454 322/359/456 233/215/478 231/214/390
f 321/402/455 317/398/453 145/391/476 147/399/479
f 322/359/456 324/320/427 220/90/480 233/215/478
f 323/408/428 321/402/455 147/399/479 149/403/481
f 319/392/425 289/404/423 146/348/462 144/405/477
f 290/317/424 320/319/426 214/84/261 235/213/461
f 291/349/420 323/408/428 149/403/481 150/409/463
f 324/320/427 292/312/419 222/91/458 220/90/480
s 41
f 336/478/482 335/495/483 338/496/484 337/433/485
s 42
f 335/495/486 334/430/487 339/482/488 338/496/489
s 41
f 351/451/490 350/500/491 353/501/492 352/456/493
s 42
f 350/500/494 349/437/495 354/417/496 353/501/497
f 325/412/498 4/419/499 5/413/500 346/415/501
f 5/413/500 22/414/502 349/437/495 346/415/501
f 27/436/503 41/416/504 331/424/505 354/417/496
f 325/412/498 328/418/506 40/470/507 4/419/499
s 41
f 6/450/508 8/420/509 327/467/510 348/421/511
f 333/422/512 15/479/513 11/423/514 352/456/493
s 42
f 331/424/505 41/416/504 70/425/515 334/430/487
s 41
f 14/466/516 13/426/517 369/435/518 330/427/519
s 42
f 340/428/520 73/443/521 69/429/522 367/471/523
f 339/482/488 334/430/487 70/425/515 72/431/524
s 41
f 28/440/525 21/432/526 336/478/482 337/433/485
f 13/426/517 23/434/527 342/439/528 369/435/518
s 42
f 22/414/502 27/436/503 354/417/496 349/437/495
s 41
f 23/434/527 29/438/529 345/445/530 342/439/528
f 35/446/531 28/440/525 337/433/485 376/441/532
s 42
f 340/428/520 343/442/533 50/453/534 73/443/521
s 41
f 29/438/529 39/444/535 357/449/536 345/445/530
f 37/454/537 35/446/531 376/441/532 379/447/538
f 39/444/535 51/448/539 358/473/540 357/449/536
f 6/450/508 348/421/511 351/451/490 7/457/541
s 42
f 343/442/533 355/452/542 49/468/543 50/453/534
s 41
f 54/458/544 37/454/537 379/447/538 364/455/545
f 351/451/490 352/456/493 11/423/514 7/457/541
f 65/462/546 54/458/544 364/455/545 361/459/547
f 68/472/548 63/460/549 373/465/550 370/461/551
f 62/464/552 65/462/546 361/459/547 382/463/553
f 63/460/549 62/464/552 382/463/553 373/465/550
f 14/466/516 330/427/519 327/467/510 8/420/509
s 42
f 49/468/543 355/452/542 360/469/554 95/477/555
f 69/429/522 40/470/507 328/418/506 367/471/523
s 41
f 51/448/539 68/472/548 370/461/551 358/473/540
s 42
f 363/488/556 366/474/557 94/487/558 97/475/559
f 360/469/554 372/476/560 96/481/561 95/477/555
s 41
f 333/422/512 336/478/482 21/432/526 15/479/513
s 42
f 372/476/560 375/480/562 98/491/563 96/481/561
f 339/482/488 72/431/524 85/483/564 378/485/565
f 85/483/564 89/484/566 381/486/567 378/485/565
f 366/474/557 381/486/567 89/484/566 94/487/558
f 384/490/568 363/488/556 97/475/559 99/489/569
f 375/480/562 384/490/568 99/489/569 98/491/563
f 325/412/498 326/492/570 329/493/571 328/418/506
s 41
f 326/492/572 327/467/510 330/427/519 329/493/573
s 42
f 328/418/506 329/493/571 368/506/574 367/471/523
s 41
f 329/493/573 330/427/519 369/435/518 368/506/575
f 333/422/512 332/494/576 335/495/483 336/478/482
s 42
f 332/494/577 331/424/505 334/430/487 335/495/486
s 41
f 337/433/485 338/496/484 377/509/578 376/441/532
s 42
f 338/496/489 339/482/488 378/485/565 377/509/579
f 340/428/520 341/497/580 344/498/581 343/442/533
s 41
f 341/497/582 342/439/528 345/445/530 344/498/583
s 42
f 343/442/533 344/498/581 356/502/584 355/452/542
s 41
f 344/498/583 345/445/530 357/449/536 356/502/585
f 327/467/510 326/492/572 347/499/586 348/421/511
s 42
f 326/492/570 325/412/498 346/415/501 347/499/587
s 41
f 348/421/511 347/499/586 350/500/491 351/451/490
s 42
f 347/499/587 346/415/501 349/437/495 350/500/494
f 331/424/505 332/494/577 353/501/497 354/417/496
s 41
f 332/494/576 333/422/512 352/456/493 353/501/492
s 42
f 355/452/542 356/502/584 359/503/588 360/469/554
s 41
f 356/502/585 357/449/536 358/473/540 359/503/589
f 361/459/547 362/504/590 383/511/591 382/463/553
s 42
f 362/504/592 363/488/556 384/490/568 383/511/593
f 363/488/556 362/504/592 365/505/594 366/474/557
s 41
f 362/504/590 361/459/547 364/455/545 365/505/595
f 342/439/528 341/497/582 368/506/575 369/435/518
s 42
f 341/497/580 340/428/520 367/471/523 368/506/574
f 360/469/554 359/503/588 371/507/596 372/476/560
s 41
f 359/503/589 358/473/540 370/461/551 371/507/597
s 42
f 372/476/560 371/507/596 374/508/598 375/480/562
s 41
f 371/507/597 370/461/551 373/465/550 374/508/599
f 376/441/532 377/509/578 380/510/600 379/447/538
s 42
f 377/509/579 378/485/565 381/486/567 380/510/601
f 366/474/557 365/505/594 380/510/601 381/486/567
s 41
f 365/505/595 364/455/545 379/447/538 380/510/600
s 42
f 375/480/562 374/508/598 383/511/593 384/490/568
s 41
f 374/508/599 373/465/550 382/463/553 383/511/591
s 53
f 385/364/602 386/365/603 408/368/604 407/369/605
f 386/365/603 385/364/602 387/370/606 388/375/607
f 388/375/607 387/370/606 393/376/608 394/379/609
f 389/382/610 390/383/611 392/388/612 391/389/613
f 390/383/611 389/382/610 407/369/614 408/368/604
f 391/389/613 392/388/612 400/394/615 399/395/616
f 394/379/609 393/376/617 395/396/618 396/397/619
f 396/397/619 395/396/618 397/400/620 398/401/621
f 398/401/621 397/400/620 405/406/622 406/407/623
f 399/395/624 400/394/615 402/513/625 401/514/626
f 401/514/626 402/513/625 404/515/627 403/516/628
f 403/516/628 404/515/627 406/407/623 405/406/629
f 176/517/630 386/365/603 388/375/607 177/518/631
f 179/519/632 392/388/612 390/383/611 178/520/633
s 57
f 385/541/634 153/542/635 154/543/636 387/546/637
s 58
f 156/544/638 389/530/639 391/545/640 159/550/641
s 57
f 387/546/637 154/543/636 160/547/642 393/548/643
s 59
f 393/548/644 160/547/645 162/549/646 395/538/647
s 58
f 159/550/641 391/545/640 399/551/648 165/540/649
s 60
f 165/540/650 399/551/651 401/539/652 167/536/653
s 59
f 395/538/647 162/549/646 168/537/654 397/534/655
s 60
f 167/536/653 401/539/652 403/535/656 171/532/657
s 59
f 397/534/655 168/537/654 172/533/658 405/531/659
s 60
f 171/532/657 403/535/656 405/531/660 172/533/661
s 58
f 389/530/639 156/544/638 175/529/662 407/410/663
s 57
f 153/411/635 385/512/634 407/410/664 175/529/665
s 53
f 178/520/633 390/383/611 408/368/604 187/521/666
f 392/388/612 179/519/632 182/522/667 400/394/615
f 177/518/631 388/375/607 394/379/609 180/523/668
f 180/523/668 394/379/609 396/397/619 181/524/669
f 396/397/619 398/401/621 184/525/670 181/524/669
f 400/394/615 182/522/667 183/526/671 402/513/625
f 185/527/672 404/515/627 402/513/625 183/526/671
f 404/515/627 185/527/672 186/528/673 406/407/623
f 184/525/670 398/401/621 406/407/623 186/528/673
f 386/365/603 176/517/630 187/521/666 408/368/604
