# This file uses centimeters as units for non-parametric coordinates.

mtllib S_P08_01_LP.mtl
g default
v 1.353497 44.128452 13.179486
v 1.353497 42.200039 13.179486
v 0.595971 47.447392 13.179486
v -0.240734 49.184834 13.179486
v -2.363288 51.846447 13.179486
v -3.870984 53.048790 13.179486
v -6.938148 54.525845 13.179486
v -8.818214 54.954952 13.179486
v -12.222504 54.954952 13.179486
v -14.102571 54.525845 13.179486
v -17.169748 53.048790 13.179486
v -18.677446 51.846447 13.179486
v -20.799999 49.184834 13.179486
v -21.636707 47.447392 13.179486
v -22.394241 44.128452 13.179486
v -22.394241 42.200039 13.179486
v -21.636707 38.881100 13.179486
v -20.799999 37.143658 13.179486
v -18.677446 34.482044 13.179486
v -17.169750 33.279701 13.179486
v -14.102586 31.802649 13.179486
v -12.222519 31.373541 13.179486
v -8.818214 31.373541 13.179486
v -6.938148 31.802649 13.179486
v -3.870984 33.279701 13.179486
v -2.363288 34.482044 13.179486
v -0.240734 37.143658 13.179486
v 0.595971 38.881100 13.179486
v -4.153948 49.601028 12.418177
v -5.661647 50.803371 12.418177
v -2.828309 47.938736 12.418177
v -1.991601 46.201294 12.418177
v -7.577217 51.725853 12.418177
v -9.457283 52.154964 12.418177
v -11.583435 52.154964 12.418177
v -13.463501 51.725857 12.418177
v -15.379086 50.803368 12.418177
v -16.886786 49.601028 12.418177
v -18.212423 47.938736 12.418177
v -19.049128 46.201294 12.418177
v -19.522226 44.128452 12.418177
v -19.522226 42.200039 12.418177
v -19.049128 40.127197 12.418177
v -18.212423 38.389755 12.418177
v -16.886786 36.727463 12.418177
v -15.379086 35.525120 12.418177
v -13.463516 34.602638 12.418177
v -11.583450 34.173527 12.418177
v -9.457283 34.173527 12.418177
v -7.577217 34.602638 12.418177
v -5.661647 35.525120 12.418177
v -4.153948 36.727463 12.418177
v -2.828309 38.389755 12.418177
v -1.991601 40.127197 12.418177
v -1.518495 42.200039 12.418177
v -1.518495 44.128452 12.418177
v -1.243524 44.128452 13.179486
v -1.243524 42.200039 13.179486
v -1.743861 46.320602 13.179486
v -2.580570 48.058044 13.179486
v -3.982508 49.816010 13.179486
v -5.490207 51.018353 13.179486
v -7.516031 51.993927 13.179486
v -9.396097 52.423038 13.179486
v -11.644621 52.423038 13.179486
v -13.524687 51.993931 13.179486
v -15.550526 51.018349 13.179486
v -17.058226 49.816010 13.179486
v -18.460165 48.058044 13.179486
v -19.296869 46.320602 13.179486
v -19.797197 44.128452 13.179486
v -19.797197 42.200039 13.179486
v -19.296869 40.007889 13.179486
v -18.460165 38.270447 13.179486
v -17.058226 36.512482 13.179486
v -15.550527 35.310139 13.179486
v -13.524702 34.334564 13.179486
v -11.644636 33.905453 13.179486
v -9.396097 33.905453 13.179486
v -7.516031 34.334564 13.179486
v -5.490207 35.310139 13.179486
v -3.982508 36.512482 13.179486
v -2.580570 38.270447 13.179486
v -1.743861 40.007889 13.179486
v -3.785264 53.156281 9.876652
v -2.277567 51.953938 9.876652
v -0.116865 49.244488 9.876652
v 0.719841 47.507046 9.876652
v -8.787621 55.088989 9.876652
v -6.907555 54.659882 9.876652
v -14.133163 54.659882 9.876652
v -12.253097 55.088989 9.876652
v -18.763166 51.953938 9.876652
v -17.255468 53.156281 9.876652
v -21.760576 47.507046 9.876652
v -20.923868 49.244488 9.876652
v -22.531727 42.200039 9.876652
v -22.531727 44.128452 9.876652
v -20.923868 37.084003 9.876652
v -21.760576 38.821445 9.876652
v -17.255470 33.172211 9.876652
v -18.763166 34.374554 9.876652
v -12.253112 31.239502 9.876652
v -14.133178 31.668610 9.876652
v -6.907555 31.668610 9.876652
v -8.787621 31.239502 9.876652
v -2.277567 34.374554 9.876652
v -3.785264 33.172211 9.876652
v 0.719841 38.821445 9.876652
v -0.116865 37.084003 9.876652
v 1.490982 44.128452 9.876652
v 1.490982 42.200039 9.876652
v -10.520370 43.164249 12.284138
vt 0.253358 0.004219
vt 0.214823 0.337663
vt 0.248745 0.337663
vt 0.599970 0.946768
vt 0.583113 0.950414
vt 0.587664 0.940785
vt 0.583857 0.970788
vt 0.248745 0.282637
vt 0.567090 0.966759
vt 0.575366 0.960057
vt 0.214823 0.302427
vt 0.214823 0.282637
vt 0.558921 0.985439
vt 0.248745 0.227574
vt 0.545562 0.974533
vt 0.555927 0.972088
vt 0.214823 0.247375
vt 0.214823 0.227574
vt 0.530109 0.987819
vt 0.248745 0.172493
vt 0.522796 0.972201
vt 0.533194 0.974488
vt 0.214823 0.192298
vt 0.214823 0.172493
vt 0.503107 0.977476
vt 0.248745 0.117412
vt 0.503290 0.960226
vt 0.511667 0.966802
vt 0.214823 0.137216
vt 0.214823 0.117412
vt 0.483261 0.956427
vt 0.248745 0.062352
vt 0.490914 0.940969
vt 0.495608 0.950530
vt 0.214823 0.082146
vt 0.214823 0.062352
vt 0.474519 0.928848
vt 0.281485 0.353081
vt 0.488124 0.918249
vt 0.488202 0.928899
vt 0.214823 0.027107
vt 0.214823 0.007329
vt 0.478612 0.900222
vt 0.281485 0.307472
vt 0.495466 0.896570
vt 0.490920 0.906200
vt 0.253358 0.323877
vt 0.253358 0.307472
vt 0.494712 0.876199
vt 0.281485 0.261819
vt 0.511486 0.880221
vt 0.503209 0.886923
vt 0.253358 0.278238
vt 0.253358 0.261819
vt 0.519654 0.861540
vt 0.281485 0.216135
vt 0.533015 0.872445
vt 0.522650 0.874892
vt 0.253358 0.232563
vt 0.253358 0.216135
vt 0.548483 0.859162
vt 0.281485 0.170439
vt 0.555783 0.874785
vt 0.545385 0.872490
vt 0.253358 0.186870
vt 0.253358 0.170439
vt 0.575470 0.869522
vt 0.281485 0.124745
vt 0.575282 0.886764
vt 0.566905 0.880193
vt 0.253358 0.141173
vt 0.253358 0.124745
vt 0.595308 0.890551
vt 0.281485 0.079068
vt 0.587661 0.906014
vt 0.582966 0.896456
vt 0.253358 0.095489
vt 0.253358 0.079068
vt 0.604059 0.918125
vt 0.281485 0.033425
vt 0.590457 0.928733
vt 0.590376 0.918083
vt 0.253358 0.049832
vt 0.253358 0.033425
vt 0.493595 0.548609
vt 0.526650 0.582030
vt 0.544914 0.970326
vt 0.564679 0.963251
vt 0.537878 0.564378
vt 0.508876 0.593062
vt 0.524030 0.968128
vt 0.488075 0.595290
vt 0.506173 0.957093
vt 0.468368 0.588272
vt 0.494872 0.939398
vt 0.453656 0.573399
vt 0.492370 0.918553
vt 0.446856 0.553615
vt 0.499162 0.898682
vt 0.449312 0.532840
vt 0.513897 0.883730
vt 0.460539 0.515188
vt 0.533664 0.876653
vt 0.478313 0.504155
vt 0.554540 0.878857
vt 0.499115 0.501927
vt 0.572402 0.889899
vt 0.518822 0.508945
vt 0.583705 0.907587
vt 0.533533 0.523819
vt 0.586210 0.928432
vt 0.540334 0.543602
vt 0.579420 0.948297
vt 0.572528 0.956981
vt 0.540334 0.553615
vt 0.537878 0.532840
vt 0.583770 0.939245
vt 0.526650 0.515188
vt 0.586199 0.918388
vt 0.508876 0.504155
vt 0.579337 0.898545
vt 0.488075 0.501927
vt 0.564541 0.883645
vt 0.468368 0.508945
vt 0.544748 0.876629
vt 0.453656 0.523819
vt 0.523874 0.878896
vt 0.446856 0.543602
vt 0.506051 0.889999
vt 0.449312 0.564378
vt 0.494812 0.907737
vt 0.460539 0.582030
vt 0.492379 0.928596
vt 0.478314 0.593062
vt 0.499239 0.948443
vt 0.499115 0.595290
vt 0.514031 0.963345
vt 0.518822 0.588272
vt 0.533826 0.970352
vt 0.533533 0.573399
vt 0.554704 0.968083
vt 0.604104 0.928642
vt 0.248745 0.357435
vt 0.599914 0.900005
vt 0.281485 0.049832
vt 0.583711 0.876034
vt 0.281485 0.095489
vt 0.558740 0.861466
vt 0.281485 0.141173
vt 0.529896 0.859160
vt 0.281485 0.186870
vt 0.502907 0.869607
vt 0.281485 0.232563
vt 0.483131 0.890735
vt 0.281485 0.278238
vt 0.474480 0.918333
vt 0.281485 0.323877
vt 0.478659 0.946971
vt 0.248745 0.027107
vt 0.494856 0.970956
vt 0.248745 0.082146
vt 0.519856 0.985526
vt 0.248745 0.137216
vt 0.548680 0.987816
vt 0.248745 0.192298
vt 0.575664 0.977374
vt 0.248745 0.247375
vt 0.248745 0.302427
vt 0.595443 0.956260
vt 0.281485 0.004219
vt 0.214823 0.357435
vt 0.253358 0.353081
vt 0.248745 0.007329
vn 0.988878 -0.142917 0.041164
vn 0.988878 0.142917 0.041164
vn 0.821597 0.119253 0.557455
vn 0.821598 -0.119253 0.557455
vn -0.206484 -0.024168 0.978151
vn -0.206485 0.024168 0.978151
vn 0.791976 0.249034 0.557455
vn 0.688493 0.463921 0.557454
vn -0.175549 -0.111364 0.978152
vn -0.196522 -0.067815 0.978151
vn 0.952958 0.300294 0.041164
vn 0.828940 0.557821 0.041164
vn 0.605495 0.567997 0.557455
vn 0.419020 0.716706 0.557454
vn -0.109845 -0.176504 0.978152
vn -0.147635 -0.146367 0.978152
vn 0.728294 0.684028 0.041164
vn 0.504816 0.862245 0.041163
vn 0.299084 0.774463 0.557455
vn 0.066558 0.827534 0.557456
vn -0.022385 -0.206685 0.978151
vn -0.069508 -0.195929 0.978152
vn 0.359377 0.932284 0.041162
vn 0.080711 0.995887 0.041162
vn -0.066558 0.827534 0.557456
vn -0.299083 0.774463 0.557455
vn 0.069508 -0.195929 0.978152
vn 0.022385 -0.206685 0.978151
vn -0.080711 0.995887 0.041162
vn -0.359376 0.932285 0.041162
vn -0.419019 0.716707 0.557454
vn -0.605495 0.567997 0.557455
vn 0.147635 -0.146368 0.978152
vn 0.109844 -0.176504 0.978152
vn -0.504814 0.862246 0.041163
vn -0.728293 0.684028 0.041164
vn -0.688493 0.463921 0.557455
vn -0.791975 0.249035 0.557456
vn 0.196521 -0.067815 0.978152
vn 0.175549 -0.111364 0.978152
vn -0.828940 0.557821 0.041164
vn -0.952958 0.300296 0.041164
vn -0.821596 0.119255 0.557457
vn -0.821596 -0.119255 0.557457
vn 0.206484 0.024167 0.978152
vn 0.206484 -0.024167 0.978152
vn -0.988878 0.142919 0.041164
vn -0.988878 -0.142919 0.041163
vn -0.791975 -0.249035 0.557456
vn -0.688493 -0.463921 0.557454
vn 0.175549 0.111364 0.978152
vn 0.196521 0.067815 0.978152
vn -0.952958 -0.300296 0.041163
vn -0.828940 -0.557821 0.041164
vn -0.605495 -0.567997 0.557454
vn -0.419019 -0.716706 0.557454
vn 0.109845 0.176503 0.978152
vn 0.147635 0.146368 0.978152
vn -0.728294 -0.684028 0.041163
vn -0.504815 -0.862245 0.041163
vn -0.299083 -0.774463 0.557455
vn -0.066558 -0.827534 0.557456
vn 0.022385 0.206685 0.978151
vn 0.069508 0.195929 0.978152
vn -0.359377 -0.932284 0.041164
vn -0.080711 -0.995887 0.041163
vn 0.066558 -0.827534 0.557456
vn 0.299083 -0.774463 0.557455
vn -0.069508 0.195929 0.978152
vn -0.022385 0.206685 0.978151
vn 0.080711 -0.995887 0.041163
vn 0.359377 -0.932284 0.041164
vn 0.419020 -0.716706 0.557454
vn 0.605495 -0.567997 0.557454
vn -0.147635 0.146368 0.978152
vn -0.109845 0.176504 0.978152
vn 0.504816 -0.862245 0.041163
vn 0.728294 -0.684028 0.041164
vn 0.688493 -0.463921 0.557454
vn 0.791976 -0.249034 0.557455
vn -0.196522 0.067816 0.978151
vn -0.175549 0.111364 0.978152
vn 0.828940 -0.557821 0.041164
vn 0.952958 -0.300294 0.041164
vn 0.000000 0.000000 1.000000
vn -0.133582 -0.131098 0.982329
vn -0.098086 -0.159405 0.982328
vn -0.157536 -0.101061 0.982329
vn -0.177236 -0.060156 0.982328
vn -0.063471 -0.176075 0.982328
vn -0.019209 -0.186178 0.982328
vn 0.019209 -0.186178 0.982328
vn 0.063471 -0.176075 0.982328
vn 0.098086 -0.159406 0.982328
vn 0.133582 -0.131099 0.982328
vn 0.157537 -0.101061 0.982328
vn 0.177236 -0.060156 0.982328
vn 0.185784 -0.022700 0.982328
vn 0.185784 0.022700 0.982328
vn 0.177235 0.060156 0.982328
vn 0.157536 0.101061 0.982328
vn 0.133582 0.131099 0.982328
vn 0.098086 0.159405 0.982328
vn 0.063471 0.176075 0.982328
vn 0.019209 0.186177 0.982328
vn -0.019209 0.186178 0.982328
vn -0.063471 0.176075 0.982328
vn -0.098086 0.159405 0.982328
vn -0.133582 0.131099 0.982328
vn -0.157536 0.101061 0.982328
vn -0.177235 0.060156 0.982328
vn -0.185783 0.022700 0.982329
vn -0.185784 -0.022700 0.982328
s 1
g Light_3_low S_P08_01_LP
usemtl aiStandardSurface1SG
f 112/171/1 111/2/2 1/3/3 2/143/4
f 2/4/4 1/169/3 57/5/5 58/6/6
f 3/7/7 4/166/8 60/9/9 59/10/10
f 4/8/8 3/168/7 88/11/11 87/12/12
f 5/13/13 6/164/14 62/15/15 61/16/16
f 6/14/14 5/167/13 86/17/17 85/18/18
f 7/19/19 8/162/20 64/21/21 63/22/22
f 8/20/20 7/165/19 90/23/23 89/24/24
f 9/25/25 10/160/26 66/27/27 65/28/28
f 10/26/26 9/163/25 92/29/29 91/30/30
f 11/31/31 12/158/32 68/33/33 67/34/34
f 12/32/32 11/161/31 94/35/35 93/36/36
f 13/37/37 14/156/38 70/39/39 69/40/40
f 14/173/38 13/159/37 96/41/41 95/42/42
f 15/43/43 16/154/44 72/45/45 71/46/46
f 16/44/44 15/157/43 98/47/47 97/48/48
f 17/49/49 18/152/50 74/51/51 73/52/52
f 18/50/50 17/155/49 100/53/53 99/54/54
f 19/55/55 20/150/56 76/57/57 75/58/58
f 20/56/56 19/153/55 102/59/59 101/60/60
f 21/61/61 22/148/62 78/63/63 77/64/64
f 22/62/62 21/151/61 104/65/65 103/66/66
f 23/67/67 24/146/68 80/69/69 79/70/70
f 24/68/68 23/149/67 106/71/71 105/72/72
f 25/73/73 26/144/74 82/75/75 81/76/76
f 26/74/74 25/147/73 108/77/77 107/78/78
f 27/79/79 28/142/80 84/81/81 83/82/82
f 28/80/80 27/145/79 110/83/83 109/84/84
f 113/85/85 29/86/86 30/138/87
f 30/87/87 29/141/86 61/16/16 62/15/15
f 31/88/88 32/114/89 59/10/10 60/9/9
f 32/89/89 31/140/88 113/85/85
f 113/85/85 33/90/90 34/136/91
f 34/91/91 33/139/90 63/22/22 64/21/21
f 113/85/85 35/92/92 36/134/93
f 36/93/93 35/137/92 65/28/28 66/27/27
f 113/85/85 37/94/94 38/132/95
f 38/95/95 37/135/94 67/34/34 68/33/33
f 113/85/85 39/96/96 40/130/97
f 40/97/97 39/133/96 69/40/40 70/39/39
f 113/85/85 41/98/98 42/128/99
f 42/99/99 41/131/98 71/46/46 72/45/45
f 113/85/85 43/100/100 44/126/101
f 44/101/101 43/129/100 73/52/52 74/51/51
f 113/85/85 45/102/102 46/124/103
f 46/103/103 45/127/102 75/58/58 76/57/57
f 113/85/85 47/104/104 48/122/105
f 48/105/105 47/125/104 77/64/64 78/63/63
f 113/85/85 49/106/106 50/120/107
f 50/107/107 49/123/106 79/70/70 80/69/69
f 113/85/85 51/108/108 52/118/109
f 52/109/109 51/121/108 81/76/76 82/75/75
f 113/85/85 53/110/110 54/116/111
f 54/111/111 53/119/110 83/82/82 84/81/81
f 113/85/85 55/112/112 56/115/113
f 56/113/113 55/117/112 58/6/6 57/5/5
f 4/8/8 87/12/12 86/17/17 5/167/13
f 6/14/14 85/18/18 90/23/23 7/165/19
f 8/20/20 89/24/24 92/29/29 9/163/25
f 10/26/26 91/30/30 94/35/35 11/161/31
f 12/32/32 93/36/36 96/41/41 13/159/37
f 14/38/38 95/172/42 98/47/47 15/157/43
f 16/44/44 97/48/48 100/53/53 17/155/49
f 18/50/50 99/54/54 102/59/59 19/153/55
f 20/56/56 101/60/60 104/65/65 21/151/61
f 22/62/62 103/66/66 106/71/71 23/149/67
f 24/68/68 105/72/72 108/77/77 25/147/73
f 26/74/74 107/78/78 110/83/83 27/145/79
f 28/80/80 109/84/84 112/1/1 2/170/4
f 1/3/3 111/2/2 88/11/11 3/168/7
f 29/86/86 113/85/85 31/140/88
f 33/90/90 113/85/85 30/138/87
f 35/92/92 113/85/85 34/136/91
f 37/94/94 113/85/85 36/134/93
f 39/96/96 113/85/85 38/132/95
f 41/98/98 113/85/85 40/130/97
f 43/100/100 113/85/85 42/128/99
f 45/102/102 113/85/85 44/126/101
f 47/104/104 113/85/85 46/124/103
f 49/106/106 113/85/85 48/122/105
f 51/108/108 113/85/85 50/120/107
f 53/110/110 113/85/85 52/118/109
f 55/112/112 113/85/85 54/116/111
f 32/89/89 113/85/85 56/115/113
f 60/9/9 4/166/8 5/13/13 61/16/16
f 62/15/15 6/164/14 7/19/19 63/22/22
f 64/21/21 8/162/20 9/25/25 65/28/28
f 66/27/27 10/160/26 11/31/31 67/34/34
f 68/33/33 12/158/32 13/37/37 69/40/40
f 70/39/39 14/156/38 15/43/43 71/46/46
f 72/45/45 16/154/44 17/49/49 73/52/52
f 74/51/51 18/152/50 19/55/55 75/58/58
f 76/57/57 20/150/56 21/61/61 77/64/64
f 78/63/63 22/148/62 23/67/67 79/70/70
f 80/69/69 24/146/68 25/73/73 81/76/76
f 82/75/75 26/144/74 27/79/79 83/82/82
f 84/81/81 28/142/80 2/4/4 58/6/6
f 57/5/5 1/169/3 3/7/7 59/10/10
f 31/88/88 60/9/9 61/16/16 29/141/86
f 30/87/87 62/15/15 63/22/22 33/139/90
f 34/91/91 64/21/21 65/28/28 35/137/92
f 36/93/93 66/27/27 67/34/34 37/135/94
f 38/95/95 68/33/33 69/40/40 39/133/96
f 40/97/97 70/39/39 71/46/46 41/131/98
f 42/99/99 72/45/45 73/52/52 43/129/100
f 44/101/101 74/51/51 75/58/58 45/127/102
f 46/103/103 76/57/57 77/64/64 47/125/104
f 48/105/105 78/63/63 79/70/70 49/123/106
f 50/107/107 80/69/69 81/76/76 51/121/108
f 52/109/109 82/75/75 83/82/82 53/119/110
f 54/111/111 84/81/81 58/6/6 55/117/112
f 56/113/113 57/5/5 59/10/10 32/114/89
g default
v 30.402174 44.128452 13.179486
v 30.402174 42.200039 13.179486
v 29.644659 47.447388 13.179486
v 28.807955 49.184834 13.179486
v 26.685404 51.846447 13.179486
v 25.177708 53.048790 13.179486
v 22.110544 54.525845 13.179486
v 20.230476 54.954952 13.179486
v 16.826187 54.954952 13.179486
v 14.946120 54.525845 13.179486
v 11.878943 53.048790 13.179486
v 10.371245 51.846447 13.179486
v 8.248692 49.184834 13.179486
v 7.411983 47.447392 13.179486
v 6.654449 44.128452 13.179486
v 6.654449 42.200039 13.179486
v 7.411983 38.881100 13.179486
v 8.248692 37.143658 13.179486
v 10.371245 34.482044 13.179486
v 11.878942 33.279701 13.179486
v 14.946105 31.802649 13.179486
v 16.826172 31.373541 13.179486
v 20.230476 31.373541 13.179486
v 22.110544 31.802649 13.179486
v 25.177708 33.279701 13.179486
v 26.685404 34.482044 13.179486
v 28.807955 37.143658 13.179486
v 29.644659 38.881104 13.179486
v 24.894743 49.601028 12.418177
v 23.387043 50.803371 12.418177
v 26.220381 47.938736 12.418177
v 27.057089 46.201294 12.418177
v 21.471472 51.725853 12.418177
v 19.591406 52.154964 12.418177
v 17.465256 52.154964 12.418177
v 15.585188 51.725857 12.418177
v 13.669605 50.803368 12.418177
v 12.161905 49.601028 12.418177
v 10.836267 47.938736 12.418177
v 9.999562 46.201294 12.418177
v 9.526464 44.128452 12.418177
v 9.526464 42.200039 12.418177
v 9.999562 40.127197 12.418177
v 10.836267 38.389755 12.418177
v 12.161905 36.727463 12.418177
v 13.669604 35.525120 12.418177
v 15.585176 34.602638 12.418177
v 17.465242 34.173527 12.418177
v 19.591406 34.173527 12.418177
v 21.471472 34.602638 12.418177
v 23.387043 35.525120 12.418177
v 24.894743 36.727463 12.418177
v 26.220381 38.389755 12.418177
v 27.057089 40.127197 12.418177
v 27.530195 42.200039 12.418177
v 27.530195 44.128452 12.418177
v 27.805166 44.128452 13.179486
v 27.805166 42.200039 13.179486
v 27.304831 46.320602 13.179486
v 26.468122 48.058044 13.179486
v 25.066183 49.816010 13.179486
v 23.558483 51.018353 13.179486
v 21.532660 51.993927 13.179486
v 19.652594 52.423038 13.179486
v 17.404072 52.423038 13.179486
v 15.524004 51.993931 13.179486
v 13.498165 51.018349 13.179486
v 11.990465 49.816010 13.179486
v 10.588528 48.058044 13.179486
v 9.751822 46.320602 13.179486
v 9.251493 44.128452 13.179486
v 9.251493 42.200039 13.179486
v 9.751822 40.007889 13.179486
v 10.588528 38.270447 13.179486
v 11.990465 36.512482 13.179486
v 13.498164 35.310139 13.179486
v 15.523988 34.334564 13.179486
v 17.404055 33.905453 13.179486
v 19.652594 33.905453 13.179486
v 21.532660 34.334564 13.179486
v 23.558483 35.310139 13.179486
v 25.066183 36.512482 13.179486
v 26.468122 38.270447 13.179486
v 27.304831 40.007889 13.179486
v 25.263428 53.156281 9.876652
v 26.771124 51.953938 9.876652
v 28.931826 49.244488 9.876652
v 29.768530 47.507046 9.876652
v 20.261068 55.088989 9.876652
v 22.141136 54.659882 9.876652
v 14.915527 54.659882 9.876652
v 16.795595 55.088989 9.876652
v 10.285524 51.953938 9.876652
v 11.793222 53.156281 9.876652
v 7.288114 47.507046 9.876652
v 8.124822 49.244488 9.876652
v 6.516963 42.200039 9.876652
v 6.516963 44.128452 9.876652
v 8.124822 37.084003 9.876652
v 7.288114 38.821445 9.876652
v 11.793221 33.172211 9.876652
v 10.285524 34.374554 9.876652
v 16.795580 31.239502 9.876652
v 14.915512 31.668610 9.876652
v 22.141136 31.668610 9.876652
v 20.261068 31.239502 9.876652
v 26.771124 34.374554 9.876652
v 25.263428 33.172211 9.876652
v 29.768530 38.821445 9.876652
v 28.931826 37.084003 9.876652
v 30.539660 44.128452 9.876652
v 30.539660 42.200039 9.876652
v 18.528320 43.164249 12.284138
vt 0.285357 0.004218
vt 0.317886 0.333340
vt 0.351809 0.333340
vt 0.720736 0.756170
vt 0.706439 0.759263
vt 0.710299 0.751096
vt 0.707070 0.776542
vt 0.351809 0.278315
vt 0.692850 0.773126
vt 0.699869 0.767441
vt 0.317886 0.298105
vt 0.317886 0.278315
vt 0.685921 0.788969
vt 0.351809 0.223251
vt 0.674591 0.779719
vt 0.683382 0.777645
vt 0.317886 0.243053
vt 0.317886 0.223251
vt 0.661485 0.790987
vt 0.351809 0.168171
vt 0.655283 0.777741
vt 0.664102 0.779681
vt 0.317886 0.187976
vt 0.317886 0.168171
vt 0.638584 0.782215
vt 0.351809 0.113090
vt 0.638740 0.767585
vt 0.645845 0.773162
vt 0.317886 0.132894
vt 0.317886 0.113090
vt 0.621752 0.764362
vt 0.351809 0.058030
vt 0.628243 0.751252
vt 0.632224 0.759361
vt 0.317886 0.077824
vt 0.317886 0.058030
vt 0.614338 0.740972
vt 0.313484 0.353080
vt 0.625877 0.731983
vt 0.625943 0.741015
vt 0.317886 0.022785
vt 0.317886 0.003007
vt 0.617809 0.716694
vt 0.313484 0.307471
vt 0.632103 0.713597
vt 0.628248 0.721764
vt 0.285357 0.323876
vt 0.285357 0.307471
vt 0.631464 0.696319
vt 0.313484 0.261818
vt 0.645690 0.699730
vt 0.638671 0.705415
vt 0.285357 0.278237
vt 0.285357 0.261818
vt 0.652618 0.683887
vt 0.313484 0.216134
vt 0.663950 0.693136
vt 0.655159 0.695211
vt 0.285357 0.232562
vt 0.285357 0.216134
vt 0.677069 0.681870
vt 0.313484 0.170438
vt 0.683260 0.695121
vt 0.674441 0.693173
vt 0.285357 0.186869
vt 0.285357 0.170438
vt 0.699957 0.690656
vt 0.313484 0.124744
vt 0.699797 0.705280
vt 0.692693 0.699707
vt 0.285357 0.141172
vt 0.285357 0.124744
vt 0.716783 0.708492
vt 0.313484 0.079068
vt 0.710296 0.721606
vt 0.706314 0.713500
vt 0.285357 0.095488
vt 0.285357 0.079068
vt 0.724203 0.731878
vt 0.313484 0.033425
vt 0.712668 0.740875
vt 0.712599 0.731842
vt 0.285357 0.049831
vt 0.285357 0.033425
vt 0.590397 0.549023
vt 0.623452 0.582444
vt 0.674042 0.776151
vt 0.690805 0.770150
vt 0.634679 0.564792
vt 0.605678 0.593477
vt 0.656330 0.774286
vt 0.584877 0.595705
vt 0.641184 0.764927
vt 0.565169 0.588687
vt 0.631600 0.749920
vt 0.550458 0.573813
vt 0.629478 0.732241
vt 0.543658 0.554030
vt 0.635238 0.715388
vt 0.546114 0.533255
vt 0.647736 0.702706
vt 0.557341 0.515603
vt 0.664501 0.695180
vt 0.575115 0.504570
vt 0.682206 0.698573
vt 0.595917 0.502342
vt 0.697355 0.707939
vt 0.615624 0.509360
vt 0.706941 0.722941
vt 0.630335 0.524233
vt 0.709065 0.740619
vt 0.637136 0.544017
vt 0.703307 0.757467
vt 0.697461 0.764832
vt 0.637136 0.554030
vt 0.634679 0.533255
vt 0.706996 0.749790
vt 0.623452 0.515603
vt 0.709057 0.732101
vt 0.605678 0.504570
vt 0.703236 0.715271
vt 0.584877 0.502342
vt 0.690687 0.702635
vt 0.565169 0.509360
vt 0.673901 0.696684
vt 0.550458 0.524233
vt 0.656197 0.698607
vt 0.543658 0.544017
vt 0.641081 0.708023
vt 0.546114 0.564792
vt 0.631549 0.723068
vt 0.557341 0.582444
vt 0.629486 0.740759
vt 0.575116 0.593477
vt 0.635304 0.757591
vt 0.595917 0.595705
vt 0.647850 0.770230
vt 0.615624 0.588687
vt 0.664638 0.776173
vt 0.630335 0.573813
vt 0.682344 0.774249
vt 0.724242 0.740798
vt 0.351809 0.353113
vt 0.720688 0.716510
vt 0.313484 0.049831
vt 0.706946 0.696180
vt 0.313484 0.095488
vt 0.685767 0.683824
vt 0.313484 0.141172
vt 0.661305 0.681868
vt 0.313484 0.186869
vt 0.638415 0.690729
vt 0.313484 0.232562
vt 0.621642 0.708648
vt 0.313484 0.278237
vt 0.614305 0.732054
vt 0.313484 0.323876
vt 0.617849 0.756343
vt 0.351809 0.022785
vt 0.631587 0.776685
vt 0.351809 0.077824
vt 0.652789 0.789042
vt 0.351809 0.132894
vt 0.677236 0.790984
vt 0.351809 0.187976
vt 0.700122 0.782128
vt 0.351809 0.243053
vt 0.351809 0.298105
vt 0.716896 0.764221
vt 0.313484 0.004218
vt 0.317886 0.353113
vt 0.285357 0.353080
vt 0.351809 0.003007
vn 0.988879 -0.142915 0.041164
vn 0.988879 0.142915 0.041164
vn 0.821598 0.119252 0.557454
vn 0.821598 -0.119252 0.557454
vn -0.206486 -0.024168 0.978151
vn -0.206485 0.024168 0.978151
vn 0.791978 0.249032 0.557454
vn 0.688493 0.463920 0.557455
vn -0.175549 -0.111364 0.978152
vn -0.196523 -0.067816 0.978151
vn 0.952959 0.300292 0.041165
vn 0.828940 0.557820 0.041165
vn 0.605495 0.567997 0.557455
vn 0.419020 0.716706 0.557454
vn -0.109845 -0.176504 0.978152
vn -0.147635 -0.146367 0.978152
vn 0.728294 0.684027 0.041163
vn 0.504816 0.862245 0.041163
vn 0.299084 0.774463 0.557455
vn 0.066558 0.827534 0.557457
vn -0.022385 -0.206685 0.978152
vn -0.069508 -0.195929 0.978152
vn 0.359377 0.932284 0.041163
vn 0.080711 0.995887 0.041163
vn -0.066558 0.827534 0.557456
vn -0.299083 0.774463 0.557455
vn 0.069508 -0.195929 0.978152
vn 0.022385 -0.206685 0.978151
vn -0.080711 0.995887 0.041163
vn -0.359376 0.932285 0.041163
vn -0.419018 0.716706 0.557455
vn -0.605495 0.567997 0.557454
vn 0.147635 -0.146367 0.978152
vn 0.109844 -0.176504 0.978152
vn -0.504814 0.862246 0.041163
vn -0.728294 0.684028 0.041164
vn -0.688493 0.463921 0.557455
vn -0.791975 0.249035 0.557456
vn 0.196521 -0.067815 0.978152
vn 0.175549 -0.111364 0.978152
vn -0.828940 0.557821 0.041164
vn -0.952958 0.300296 0.041164
vn -0.821596 0.119255 0.557457
vn -0.821596 -0.119255 0.557457
vn 0.206484 0.024167 0.978152
vn 0.206484 -0.024167 0.978152
vn -0.988878 0.142919 0.041164
vn -0.988878 -0.142919 0.041164
vn -0.791975 -0.249035 0.557456
vn -0.688492 -0.463921 0.557455
vn 0.175549 0.111364 0.978152
vn 0.196521 0.067815 0.978152
vn -0.952958 -0.300296 0.041164
vn -0.828940 -0.557821 0.041164
vn -0.605495 -0.567997 0.557454
vn -0.419019 -0.716706 0.557454
vn 0.109845 0.176504 0.978152
vn 0.147635 0.146368 0.978152
vn -0.728294 -0.684028 0.041164
vn -0.504815 -0.862245 0.041163
vn -0.299083 -0.774463 0.557455
vn -0.066558 -0.827534 0.557457
vn 0.022385 0.206685 0.978152
vn 0.069508 0.195929 0.978152
vn -0.359377 -0.932284 0.041163
vn -0.080711 -0.995887 0.041163
vn 0.066558 -0.827534 0.557456
vn 0.299083 -0.774463 0.557455
vn -0.069508 0.195929 0.978152
vn -0.022385 0.206685 0.978152
vn 0.080711 -0.995887 0.041163
vn 0.359377 -0.932284 0.041163
vn 0.419020 -0.716706 0.557455
vn 0.605495 -0.567997 0.557454
vn -0.147635 0.146368 0.978152
vn -0.109844 0.176503 0.978152
vn 0.504816 -0.862245 0.041163
vn 0.728294 -0.684027 0.041164
vn 0.688493 -0.463920 0.557454
vn 0.791977 -0.249032 0.557454
vn -0.196522 0.067816 0.978151
vn -0.175549 0.111365 0.978152
vn 0.828940 -0.557820 0.041164
vn 0.952959 -0.300292 0.041164
vn 0.000000 -0.000000 1.000000
vn -0.133582 -0.131098 0.982329
vn -0.098086 -0.159405 0.982328
vn -0.157536 -0.101061 0.982328
vn -0.177235 -0.060156 0.982328
vn -0.063471 -0.176075 0.982328
vn -0.019209 -0.186178 0.982328
vn 0.019209 -0.186178 0.982328
vn 0.063471 -0.176075 0.982328
vn 0.098086 -0.159406 0.982328
vn 0.133582 -0.131099 0.982328
vn 0.157536 -0.101061 0.982328
vn 0.177236 -0.060156 0.982328
vn 0.185784 -0.022700 0.982328
vn 0.185784 0.022700 0.982328
vn 0.177235 0.060156 0.982328
vn 0.157536 0.101061 0.982328
vn 0.133582 0.131099 0.982328
vn 0.098086 0.159405 0.982328
vn 0.063471 0.176075 0.982328
vn 0.019209 0.186177 0.982328
vn -0.019209 0.186177 0.982328
vn -0.063471 0.176074 0.982328
vn -0.098086 0.159405 0.982328
vn -0.133582 0.131099 0.982328
vn -0.157536 0.101061 0.982328
vn -0.177235 0.060156 0.982329
vn -0.185783 0.022700 0.982329
vn -0.185784 -0.022700 0.982328
s 1
g S_P08_01_LP Light_2_low
usemtl aiStandardSurface1SG
f 225/344/114 224/175/115 114/176/116 115/316/117
f 115/177/117 114/342/116 170/178/118 171/179/119
f 116/180/120 117/339/121 173/182/122 172/183/123
f 117/181/121 116/341/120 201/184/124 200/185/125
f 118/186/126 119/337/127 175/188/128 174/189/129
f 119/187/127 118/340/126 199/190/130 198/191/131
f 120/192/132 121/335/133 177/194/134 176/195/135
f 121/193/133 120/338/132 203/196/136 202/197/137
f 122/198/138 123/333/139 179/200/140 178/201/141
f 123/199/139 122/336/138 205/202/142 204/203/143
f 124/204/144 125/331/145 181/206/146 180/207/147
f 125/205/145 124/334/144 207/208/148 206/209/149
f 126/210/150 127/329/151 183/212/152 182/213/153
f 127/346/151 126/332/150 209/214/154 208/215/155
f 128/216/156 129/327/157 185/218/158 184/219/159
f 129/217/157 128/330/156 211/220/160 210/221/161
f 130/222/162 131/325/163 187/224/164 186/225/165
f 131/223/163 130/328/162 213/226/166 212/227/167
f 132/228/168 133/323/169 189/230/170 188/231/171
f 133/229/169 132/326/168 215/232/172 214/233/173
f 134/234/174 135/321/175 191/236/176 190/237/177
f 135/235/175 134/324/174 217/238/178 216/239/179
f 136/240/180 137/319/181 193/242/182 192/243/183
f 137/241/181 136/322/180 219/244/184 218/245/185
f 138/246/186 139/317/187 195/248/188 194/249/189
f 139/247/187 138/320/186 221/250/190 220/251/191
f 140/252/192 141/315/193 197/254/194 196/255/195
f 141/253/193 140/318/192 223/256/196 222/257/197
f 226/258/198 142/259/199 143/311/200
f 143/260/200 142/314/199 174/189/129 175/188/128
f 144/261/201 145/287/202 172/183/123 173/182/122
f 145/262/202 144/313/201 226/258/198
f 226/258/198 146/263/203 147/309/204
f 147/264/204 146/312/203 176/195/135 177/194/134
f 226/258/198 148/265/205 149/307/206
f 149/266/206 148/310/205 178/201/141 179/200/140
f 226/258/198 150/267/207 151/305/208
f 151/268/208 150/308/207 180/207/147 181/206/146
f 226/258/198 152/269/209 153/303/210
f 153/270/210 152/306/209 182/213/153 183/212/152
f 226/258/198 154/271/211 155/301/212
f 155/272/212 154/304/211 184/219/159 185/218/158
f 226/258/198 156/273/213 157/299/214
f 157/274/214 156/302/213 186/225/165 187/224/164
f 226/258/198 158/275/215 159/297/216
f 159/276/216 158/300/215 188/231/171 189/230/170
f 226/258/198 160/277/217 161/295/218
f 161/278/218 160/298/217 190/237/177 191/236/176
f 226/258/198 162/279/219 163/293/220
f 163/280/220 162/296/219 192/243/183 193/242/182
f 226/258/198 164/281/221 165/291/222
f 165/282/222 164/294/221 194/249/189 195/248/188
f 226/258/198 166/283/223 167/289/224
f 167/284/224 166/292/223 196/255/195 197/254/194
f 226/258/198 168/285/225 169/288/226
f 169/286/226 168/290/225 171/179/119 170/178/118
f 117/181/121 200/185/125 199/190/130 118/340/126
f 119/187/127 198/191/131 203/196/136 120/338/132
f 121/193/133 202/197/137 205/202/142 122/336/138
f 123/199/139 204/203/143 207/208/148 124/334/144
f 125/205/145 206/209/149 209/214/154 126/332/150
f 127/211/151 208/345/155 211/220/160 128/330/156
f 129/217/157 210/221/161 213/226/166 130/328/162
f 131/223/163 212/227/167 215/232/172 132/326/168
f 133/229/169 214/233/173 217/238/178 134/324/174
f 135/235/175 216/239/179 219/244/184 136/322/180
f 137/241/181 218/245/185 221/250/190 138/320/186
f 139/247/187 220/251/191 223/256/196 140/318/192
f 141/253/193 222/257/197 225/174/114 115/343/117
f 114/176/116 224/175/115 201/184/124 116/341/120
f 142/259/199 226/258/198 144/313/201
f 146/263/203 226/258/198 143/311/200
f 148/265/205 226/258/198 147/309/204
f 150/267/207 226/258/198 149/307/206
f 152/269/209 226/258/198 151/305/208
f 154/271/211 226/258/198 153/303/210
f 156/273/213 226/258/198 155/301/212
f 158/275/215 226/258/198 157/299/214
f 160/277/217 226/258/198 159/297/216
f 162/279/219 226/258/198 161/295/218
f 164/281/221 226/258/198 163/293/220
f 166/283/223 226/258/198 165/291/222
f 168/285/225 226/258/198 167/289/224
f 145/262/202 226/258/198 169/288/226
f 173/182/122 117/339/121 118/186/126 174/189/129
f 175/188/128 119/337/127 120/192/132 176/195/135
f 177/194/134 121/335/133 122/198/138 178/201/141
f 179/200/140 123/333/139 124/204/144 180/207/147
f 181/206/146 125/331/145 126/210/150 182/213/153
f 183/212/152 127/329/151 128/216/156 184/219/159
f 185/218/158 129/327/157 130/222/162 186/225/165
f 187/224/164 131/325/163 132/228/168 188/231/171
f 189/230/170 133/323/169 134/234/174 190/237/177
f 191/236/176 135/321/175 136/240/180 192/243/183
f 193/242/182 137/319/181 138/246/186 194/249/189
f 195/248/188 139/317/187 140/252/192 196/255/195
f 197/254/194 141/315/193 115/177/117 171/179/119
f 170/178/118 114/342/116 116/180/120 172/183/123
f 144/261/201 173/182/122 174/189/129 142/314/199
f 143/260/200 175/188/128 176/195/135 146/312/203
f 147/264/204 177/194/134 178/201/141 148/310/205
f 149/266/206 179/200/140 180/207/147 150/308/207
f 151/268/208 181/206/146 182/213/153 152/306/209
f 153/270/210 183/212/152 184/219/159 154/304/211
f 155/272/212 185/218/158 186/225/165 156/302/213
f 157/274/214 187/224/164 188/231/171 158/300/215
f 159/276/216 189/230/170 190/237/177 160/298/217
f 161/278/218 191/236/176 192/243/183 162/296/219
f 163/280/220 193/242/182 194/249/189 164/294/221
f 165/282/222 195/248/188 196/255/195 166/292/223
f 167/284/224 197/254/194 171/179/119 168/290/225
f 169/286/226 170/178/118 172/183/123 145/287/202
g default
v 60.036861 44.128452 13.179486
v 60.036861 42.200039 13.179486
v 59.279335 47.447392 13.179486
v 58.442631 49.184834 13.179486
v 56.320076 51.846447 13.179486
v 54.812382 53.048790 13.179486
v 51.745213 54.525845 13.179486
v 49.865150 54.954952 13.179486
v 46.460861 54.954952 13.179486
v 44.580799 54.525845 13.179486
v 41.513630 53.048790 13.179486
v 40.005932 51.846447 13.179486
v 37.883366 49.184830 13.179486
v 37.046658 47.447392 13.179486
v 36.289124 44.128452 13.179486
v 36.289124 42.200039 13.179486
v 37.046658 38.881100 13.179486
v 37.883366 37.143661 13.179486
v 40.005932 34.482044 13.179486
v 41.513630 33.279701 13.179486
v 44.580784 31.802650 13.179486
v 46.460846 31.373541 13.179486
v 49.865150 31.373541 13.179486
v 51.745216 31.802649 13.179486
v 54.812382 33.279701 13.179486
v 56.320076 34.482044 13.179486
v 58.442631 37.143658 13.179486
v 59.279335 38.881100 13.179486
v 54.529415 49.601028 12.418177
v 53.021721 50.803371 12.418177
v 55.855057 47.938736 12.418177
v 56.691761 46.201298 12.418177
v 51.106144 51.725857 12.418177
v 49.226082 52.154964 12.418177
v 47.099930 52.154964 12.418177
v 45.219868 51.725857 12.418177
v 43.304279 50.803368 12.418177
v 41.796581 49.601028 12.418177
v 40.470940 47.938736 12.418177
v 39.634235 46.201294 12.418177
v 39.161137 44.128452 12.418177
v 39.161137 42.200039 12.418177
v 39.634235 40.127197 12.418177
v 40.470940 38.389755 12.418177
v 41.796581 36.727463 12.418177
v 43.304276 35.525120 12.418177
v 45.219852 34.602634 12.418177
v 47.099915 34.173527 12.418177
v 49.226082 34.173527 12.418177
v 51.106144 34.602634 12.418177
v 53.021721 35.525120 12.418177
v 54.529415 36.727463 12.418177
v 55.855057 38.389755 12.418177
v 56.691761 40.127193 12.418177
v 57.164871 42.200039 12.418177
v 57.164871 44.128452 12.418177
v 57.439842 44.128452 13.179486
v 57.439842 42.200039 13.179486
v 56.939503 46.320606 13.179486
v 56.102798 48.058044 13.179486
v 54.700855 49.816010 13.179486
v 53.193161 51.018349 13.179486
v 51.167332 51.993931 13.179486
v 49.287270 52.423038 13.179486
v 47.038742 52.423038 13.179486
v 45.158680 51.993931 13.179486
v 43.132839 51.018349 13.179486
v 41.625141 49.816010 13.179486
v 40.223198 48.058044 13.179486
v 39.386497 46.320602 13.179486
v 38.886166 44.128452 13.179486
v 38.886166 42.200039 13.179486
v 39.386497 40.007889 13.179486
v 40.223198 38.270447 13.179486
v 41.625141 36.512482 13.179486
v 43.132835 35.310143 13.179486
v 45.158665 34.334560 13.179486
v 47.038727 33.905453 13.179486
v 49.287270 33.905453 13.179486
v 51.167332 34.334560 13.179486
v 53.193161 35.310143 13.179486
v 54.700855 36.512482 13.179486
v 56.102798 38.270447 13.179486
v 56.939503 40.007885 13.179486
v 54.898102 53.156281 9.876652
v 56.405796 51.953938 9.876652
v 58.566502 49.244488 9.876652
v 59.403206 47.507046 9.876652
v 49.895744 55.088989 9.876652
v 51.775810 54.659882 9.876652
v 44.550201 54.659882 9.876652
v 46.430267 55.088989 9.876652
v 39.920212 51.953938 9.876652
v 41.427910 53.156281 9.876652
v 36.922787 47.507046 9.876652
v 37.759499 49.244484 9.876652
v 36.151638 42.200039 9.876652
v 36.151638 44.128452 9.876652
v 37.759499 37.084007 9.876652
v 36.922787 38.821445 9.876652
v 41.427910 33.172211 9.876652
v 39.920212 34.374554 9.876652
v 46.430252 31.239502 9.876652
v 44.550190 31.668612 9.876652
v 51.775810 31.668610 9.876652
v 49.895744 31.239502 9.876652
v 56.405796 34.374554 9.876652
v 54.898102 33.172211 9.876652
v 59.403206 38.821445 9.876652
v 58.566502 37.084003 9.876652
v 60.174347 44.128452 9.876652
v 60.174347 42.200039 9.876652
v 48.162991 43.164249 12.284138
vt 0.174672 0.006262
vt 0.353923 0.332467
vt 0.387940 0.332467
vt 0.720203 0.880181
vt 0.703277 0.883842
vt 0.707847 0.874174
vt 0.704024 0.904298
vt 0.387940 0.277289
vt 0.687190 0.900253
vt 0.695499 0.893524
vt 0.353923 0.297134
vt 0.353923 0.277289
vt 0.678987 0.919009
vt 0.387940 0.222073
vt 0.665574 0.908058
vt 0.675981 0.905604
vt 0.353923 0.241929
vt 0.353923 0.222073
vt 0.650059 0.921398
vt 0.387940 0.166840
vt 0.642716 0.905718
vt 0.653157 0.908013
vt 0.353923 0.186700
vt 0.353923 0.166840
vt 0.622948 0.911014
vt 0.387940 0.111607
vt 0.623132 0.893694
vt 0.631542 0.900296
vt 0.353923 0.131465
vt 0.353923 0.111607
vt 0.603021 0.889879
vt 0.387940 0.056393
vt 0.610706 0.874359
vt 0.615418 0.883958
vt 0.353923 0.076242
vt 0.353923 0.056393
vt 0.594244 0.862189
vt 0.202876 0.356091
vt 0.607904 0.851546
vt 0.607982 0.862240
vt 0.353923 0.021051
vt 0.353923 0.001218
vt 0.598354 0.833447
vt 0.202876 0.310355
vt 0.615276 0.829781
vt 0.610712 0.839449
vt 0.174672 0.326806
vt 0.174672 0.310355
vt 0.614519 0.809326
vt 0.202876 0.264575
vt 0.631360 0.813365
vt 0.623050 0.820094
vt 0.174672 0.281040
vt 0.174672 0.264575
vt 0.639561 0.794609
vt 0.202876 0.218765
vt 0.652977 0.805558
vt 0.642570 0.808014
vt 0.174672 0.235239
vt 0.174672 0.218765
vt 0.668507 0.792221
vt 0.202876 0.172943
vt 0.675836 0.806501
vt 0.665396 0.804195
vt 0.174672 0.189419
vt 0.174672 0.172943
vt 0.695603 0.802622
vt 0.202876 0.127122
vt 0.695414 0.819935
vt 0.687003 0.813337
vt 0.174672 0.143596
vt 0.174672 0.127122
vt 0.715522 0.823737
vt 0.202876 0.081319
vt 0.707843 0.839262
vt 0.703129 0.829665
vt 0.174672 0.097785
vt 0.174672 0.081319
vt 0.724307 0.851423
vt 0.202876 0.035550
vt 0.710651 0.862073
vt 0.710569 0.851380
vt 0.174672 0.052001
vt 0.174672 0.035550
vt 0.669591 0.614942
vt 0.702646 0.648363
vt 0.664924 0.903835
vt 0.684768 0.896730
vt 0.713874 0.630711
vt 0.684872 0.659396
vt 0.643956 0.901627
vt 0.664072 0.661624
vt 0.626026 0.890548
vt 0.644364 0.654606
vt 0.614679 0.872781
vt 0.629653 0.639732
vt 0.612167 0.851852
vt 0.622852 0.619949
vt 0.618986 0.831901
vt 0.625308 0.599173
vt 0.633782 0.816888
vt 0.636535 0.581521
vt 0.653629 0.809783
vt 0.654310 0.570489
vt 0.674589 0.810588
vt 0.675111 0.568261
vt 0.692523 0.823082
vt 0.694818 0.575279
vt 0.703871 0.840842
vt 0.709530 0.590152
vt 0.706386 0.861772
vt 0.716330 0.609936
vt 0.699569 0.881717
vt 0.692649 0.890435
vt 0.716330 0.619949
vt 0.713874 0.599173
vt 0.703937 0.872628
vt 0.702646 0.581521
vt 0.706376 0.851687
vt 0.684872 0.570489
vt 0.699485 0.831763
vt 0.664071 0.568261
vt 0.684630 0.816803
vt 0.644364 0.575279
vt 0.664757 0.808351
vt 0.629653 0.590152
vt 0.643798 0.812035
vt 0.622852 0.609936
vt 0.625904 0.823182
vt 0.625308 0.630711
vt 0.614619 0.840992
vt 0.636535 0.648363
vt 0.612176 0.861937
vt 0.654310 0.659396
vt 0.619064 0.881863
vt 0.675111 0.661624
vt 0.633916 0.896825
vt 0.694818 0.654606
vt 0.653791 0.903860
vt 0.709530 0.639732
vt 0.674753 0.901583
vt 0.724353 0.861982
vt 0.387940 0.352295
vt 0.720146 0.833229
vt 0.202876 0.052001
vt 0.703878 0.809162
vt 0.202876 0.097785
vt 0.678806 0.794534
vt 0.202876 0.143596
vt 0.649845 0.792219
vt 0.202876 0.189419
vt 0.622747 0.802709
vt 0.202876 0.235239
vt 0.602891 0.823921
vt 0.202876 0.281040
vt 0.594205 0.851631
vt 0.202876 0.326806
vt 0.598400 0.880385
vt 0.387940 0.021051
vt 0.614664 0.904467
vt 0.387940 0.076242
vt 0.639764 0.919096
vt 0.387940 0.131465
vt 0.668705 0.921396
vt 0.387940 0.186700
vt 0.695799 0.910911
vt 0.387940 0.241929
vt 0.387940 0.297134
vt 0.715657 0.889711
vt 0.202876 0.006262
vt 0.353923 0.352295
vt 0.174672 0.356091
vt 0.387940 0.001218
vn 0.988878 -0.142918 0.041164
vn 0.988878 0.142918 0.041164
vn 0.821597 0.119254 0.557455
vn 0.821597 -0.119254 0.557455
vn -0.206485 -0.024168 0.978151
vn -0.206484 0.024168 0.978151
vn 0.791976 0.249034 0.557455
vn 0.688493 0.463921 0.557454
vn -0.175549 -0.111364 0.978152
vn -0.196522 -0.067815 0.978151
vn 0.952958 0.300294 0.041164
vn 0.828940 0.557821 0.041164
vn 0.605495 0.567997 0.557455
vn 0.419020 0.716706 0.557454
vn -0.109845 -0.176504 0.978152
vn -0.147635 -0.146368 0.978152
vn 0.728294 0.684028 0.041164
vn 0.504816 0.862245 0.041163
vn 0.299084 0.774464 0.557454
vn 0.066558 0.827534 0.557456
vn -0.022385 -0.206685 0.978151
vn -0.069508 -0.195929 0.978152
vn 0.359377 0.932284 0.041163
vn 0.080711 0.995887 0.041163
vn -0.066558 0.827534 0.557456
vn -0.299084 0.774463 0.557455
vn 0.069508 -0.195930 0.978151
vn 0.022385 -0.206685 0.978151
vn -0.080711 0.995887 0.041163
vn -0.359377 0.932284 0.041163
vn -0.419020 0.716705 0.557455
vn -0.605495 0.567998 0.557453
vn 0.147635 -0.146368 0.978152
vn 0.109845 -0.176504 0.978152
vn -0.504816 0.862245 0.041164
vn -0.728293 0.684029 0.041163
vn -0.688492 0.463923 0.557453
vn -0.791975 0.249036 0.557456
vn 0.196521 -0.067815 0.978152
vn 0.175548 -0.111364 0.978152
vn -0.828938 0.557823 0.041163
vn -0.952957 0.300296 0.041163
vn -0.821596 0.119254 0.557457
vn -0.821596 -0.119254 0.557457
vn 0.206484 0.024167 0.978152
vn 0.206484 -0.024167 0.978152
vn -0.988878 0.142918 0.041164
vn -0.988878 -0.142918 0.041164
vn -0.791975 -0.249035 0.557456
vn -0.688492 -0.463923 0.557454
vn 0.175549 0.111364 0.978152
vn 0.196521 0.067815 0.978152
vn -0.952957 -0.300296 0.041164
vn -0.828938 -0.557823 0.041163
vn -0.605495 -0.567998 0.557453
vn -0.419020 -0.716705 0.557455
vn 0.109845 0.176504 0.978152
vn 0.147635 0.146368 0.978152
vn -0.728293 -0.684029 0.041163
vn -0.504816 -0.862245 0.041163
vn -0.299084 -0.774463 0.557455
vn -0.066558 -0.827534 0.557456
vn 0.022385 0.206685 0.978151
vn 0.069508 0.195929 0.978151
vn -0.359378 -0.932284 0.041164
vn -0.080711 -0.995887 0.041164
vn 0.066558 -0.827534 0.557456
vn 0.299083 -0.774463 0.557455
vn -0.069508 0.195929 0.978152
vn -0.022385 0.206685 0.978152
vn 0.080711 -0.995887 0.041163
vn 0.359377 -0.932284 0.041164
vn 0.419019 -0.716706 0.557454
vn 0.605495 -0.567997 0.557454
vn -0.147635 0.146368 0.978152
vn -0.109845 0.176504 0.978152
vn 0.504815 -0.862245 0.041163
vn 0.728294 -0.684028 0.041164
vn 0.688493 -0.463921 0.557454
vn 0.791976 -0.249034 0.557455
vn -0.196522 0.067815 0.978151
vn -0.175549 0.111364 0.978152
vn 0.828940 -0.557821 0.041164
vn 0.952958 -0.300294 0.041164
vn -0.000000 -0.000000 1.000000
vn -0.133582 -0.131098 0.982328
vn -0.098086 -0.159406 0.982328
vn -0.157536 -0.101061 0.982328
vn -0.177235 -0.060156 0.982328
vn -0.063471 -0.176075 0.982328
vn -0.019209 -0.186177 0.982328
vn 0.019209 -0.186178 0.982328
vn 0.063471 -0.176075 0.982328
vn 0.098086 -0.159406 0.982328
vn 0.133582 -0.131099 0.982328
vn 0.157536 -0.101061 0.982328
vn 0.177236 -0.060156 0.982328
vn 0.185784 -0.022700 0.982328
vn 0.185784 0.022700 0.982328
vn 0.177235 0.060155 0.982328
vn 0.157536 0.101061 0.982328
vn 0.133582 0.131099 0.982328
vn 0.098086 0.159406 0.982328
vn 0.063471 0.176075 0.982328
vn 0.019209 0.186177 0.982328
vn -0.019209 0.186177 0.982328
vn -0.063471 0.176075 0.982329
vn -0.098086 0.159405 0.982328
vn -0.133582 0.131098 0.982328
vn -0.157536 0.101061 0.982328
vn -0.177234 0.060156 0.982329
vn -0.185784 0.022700 0.982328
vn -0.185784 -0.022700 0.982328
s 1
g S_P08_01_LP Light_1_low
usemtl aiStandardSurface1SG
f 338/517/227 337/348/228 227/349/229 228/489/230
f 228/350/230 227/515/229 283/351/231 284/352/232
f 229/353/233 230/512/234 286/355/235 285/356/236
f 230/354/234 229/514/233 314/357/237 313/358/238
f 231/359/239 232/510/240 288/361/241 287/362/242
f 232/360/240 231/513/239 312/363/243 311/364/244
f 233/365/245 234/508/246 290/367/247 289/368/248
f 234/366/246 233/511/245 316/369/249 315/370/250
f 235/371/251 236/506/252 292/373/253 291/374/254
f 236/372/252 235/509/251 318/375/255 317/376/256
f 237/377/257 238/504/258 294/379/259 293/380/260
f 238/378/258 237/507/257 320/381/261 319/382/262
f 239/383/263 240/502/264 296/385/265 295/386/266
f 240/519/264 239/505/263 322/387/267 321/388/268
f 241/389/269 242/500/270 298/391/271 297/392/272
f 242/390/270 241/503/269 324/393/273 323/394/274
f 243/395/275 244/498/276 300/397/277 299/398/278
f 244/396/276 243/501/275 326/399/279 325/400/280
f 245/401/281 246/496/282 302/403/283 301/404/284
f 246/402/282 245/499/281 328/405/285 327/406/286
f 247/407/287 248/494/288 304/409/289 303/410/290
f 248/408/288 247/497/287 330/411/291 329/412/292
f 249/413/293 250/492/294 306/415/295 305/416/296
f 250/414/294 249/495/293 332/417/297 331/418/298
f 251/419/299 252/490/300 308/421/301 307/422/302
f 252/420/300 251/493/299 334/423/303 333/424/304
f 253/425/305 254/488/306 310/427/307 309/428/308
f 254/426/306 253/491/305 336/429/309 335/430/310
f 339/431/311 255/432/312 256/484/313
f 256/433/313 255/487/312 287/362/242 288/361/241
f 257/434/314 258/460/315 285/356/236 286/355/235
f 258/435/315 257/486/314 339/431/311
f 339/431/311 259/436/316 260/482/317
f 260/437/317 259/485/316 289/368/248 290/367/247
f 339/431/311 261/438/318 262/480/319
f 262/439/319 261/483/318 291/374/254 292/373/253
f 339/431/311 263/440/320 264/478/321
f 264/441/321 263/481/320 293/380/260 294/379/259
f 339/431/311 265/442/322 266/476/323
f 266/443/323 265/479/322 295/386/266 296/385/265
f 339/431/311 267/444/324 268/474/325
f 268/445/325 267/477/324 297/392/272 298/391/271
f 339/431/311 269/446/326 270/472/327
f 270/447/327 269/475/326 299/398/278 300/397/277
f 339/431/311 271/448/328 272/470/329
f 272/449/329 271/473/328 301/404/284 302/403/283
f 339/431/311 273/450/330 274/468/331
f 274/451/331 273/471/330 303/410/290 304/409/289
f 339/431/311 275/452/332 276/466/333
f 276/453/333 275/469/332 305/416/296 306/415/295
f 339/431/311 277/454/334 278/464/335
f 278/455/335 277/467/334 307/422/302 308/421/301
f 339/431/311 279/456/336 280/462/337
f 280/457/337 279/465/336 309/428/308 310/427/307
f 339/431/311 281/458/338 282/461/339
f 282/459/339 281/463/338 284/352/232 283/351/231
f 230/354/234 313/358/238 312/363/243 231/513/239
f 232/360/240 311/364/244 316/369/249 233/511/245
f 234/366/246 315/370/250 318/375/255 235/509/251
f 236/372/252 317/376/256 320/381/261 237/507/257
f 238/378/258 319/382/262 322/387/267 239/505/263
f 240/384/264 321/518/268 324/393/273 241/503/269
f 242/390/270 323/394/274 326/399/279 243/501/275
f 244/396/276 325/400/280 328/405/285 245/499/281
f 246/402/282 327/406/286 330/411/291 247/497/287
f 248/408/288 329/412/292 332/417/297 249/495/293
f 250/414/294 331/418/298 334/423/303 251/493/299
f 252/420/300 333/424/304 336/429/309 253/491/305
f 254/426/306 335/430/310 338/347/227 228/516/230
f 227/349/229 337/348/228 314/357/237 229/514/233
f 255/432/312 339/431/311 257/486/314
f 259/436/316 339/431/311 256/484/313
f 261/438/318 339/431/311 260/482/317
f 263/440/320 339/431/311 262/480/319
f 265/442/322 339/431/311 264/478/321
f 267/444/324 339/431/311 266/476/323
f 269/446/326 339/431/311 268/474/325
f 271/448/328 339/431/311 270/472/327
f 273/450/330 339/431/311 272/470/329
f 275/452/332 339/431/311 274/468/331
f 277/454/334 339/431/311 276/466/333
f 279/456/336 339/431/311 278/464/335
f 281/458/338 339/431/311 280/462/337
f 258/435/315 339/431/311 282/461/339
f 286/355/235 230/512/234 231/359/239 287/362/242
f 288/361/241 232/510/240 233/365/245 289/368/248
f 290/367/247 234/508/246 235/371/251 291/374/254
f 292/373/253 236/506/252 237/377/257 293/380/260
f 294/379/259 238/504/258 239/383/263 295/386/266
f 296/385/265 240/502/264 241/389/269 297/392/272
f 298/391/271 242/500/270 243/395/275 299/398/278
f 300/397/277 244/498/276 245/401/281 301/404/284
f 302/403/283 246/496/282 247/407/287 303/410/290
f 304/409/289 248/494/288 249/413/293 305/416/296
f 306/415/295 250/492/294 251/419/299 307/422/302
f 308/421/301 252/490/300 253/425/305 309/428/308
f 310/427/307 254/488/306 228/350/230 284/352/232
f 283/351/231 227/515/229 229/353/233 285/356/236
f 257/434/314 286/355/235 287/362/242 255/487/312
f 256/433/313 288/361/241 289/368/248 259/485/316
f 260/437/317 290/367/247 291/374/254 261/483/318
f 262/439/319 292/373/253 293/380/260 263/481/320
f 264/441/321 294/379/259 295/386/266 265/479/322
f 266/443/323 296/385/265 297/392/272 267/477/324
f 268/445/325 298/391/271 299/398/278 269/475/326
f 270/447/327 300/397/277 301/404/284 271/473/328
f 272/449/329 302/403/283 303/410/290 273/471/330
f 274/451/331 304/409/289 305/416/296 275/469/332
f 276/453/333 306/415/295 307/422/302 277/467/334
f 278/455/335 308/421/301 309/428/308 279/465/336
f 280/457/337 310/427/307 284/352/232 281/463/338
f 282/459/339 283/351/231 285/356/236 258/460/315
g default
v -21.561981 64.322083 10.651453
v -3.149536 64.322083 10.651453
v -18.408905 67.360046 7.003391
v -6.302628 67.360046 7.003391
v -18.408905 67.360046 -7.003391
v -6.302628 67.360046 -7.003391
v -21.561981 64.322083 -10.651453
v -3.149536 64.322083 -10.651453
vt 0.163662 0.824576
vt 0.312800 0.824576
vt 0.282554 0.857558
vt 0.193907 0.857558
vt 0.282554 0.960549
vt 0.193907 0.960549
vt 0.312800 0.993531
vt 0.163662 0.993531
vn -0.383437 0.845158 0.372404
vn 0.383437 0.845158 0.372403
vn 0.226623 0.955959 0.186504
vn -0.226623 0.955959 0.186504
vn 0.226623 0.955959 -0.186504
vn -0.226623 0.955959 -0.186504
vn 0.383437 0.845158 -0.372403
vn -0.383437 0.845157 -0.372404
s 1
g S_P08_01_LP Cube_3_low
usemtl aiStandardSurface1SG
f 340/520/340 341/521/341 343/522/342 342/523/343
f 342/523/343 343/522/342 345/524/344 344/525/345
f 344/525/345 345/524/344 347/526/346 346/527/347
f 341/521/341 347/526/346 345/524/344 343/522/342
f 346/527/347 340/520/340 342/523/343 344/525/345
g default
v 9.057007 64.322083 10.651453
v 27.469452 64.322083 10.651453
v 12.210098 67.360046 7.003391
v 24.316376 67.360046 7.003391
v 12.210098 67.360046 -7.003391
v 24.316376 67.360046 -7.003391
v 9.057007 64.322083 -10.651453
v 27.469452 64.322083 -10.651453
vt 0.007879 0.825200
vt 0.157018 0.825200
vt 0.126772 0.858182
vt 0.038125 0.858182
vt 0.126772 0.961173
vt 0.038125 0.961173
vt 0.157018 0.994155
vt 0.007879 0.994155
vn -0.383437 0.845158 0.372403
vn 0.383437 0.845157 0.372404
vn 0.226623 0.955959 0.186504
vn -0.226623 0.955959 0.186504
vn 0.226623 0.955959 -0.186504
vn -0.226623 0.955959 -0.186504
vn 0.383437 0.845158 -0.372404
vn -0.383437 0.845158 -0.372403
s 1
g S_P08_01_LP Cube_2_low
usemtl aiStandardSurface1SG
f 348/528/348 349/529/349 351/530/350 350/531/351
f 350/531/351 351/530/350 353/532/352 352/533/353
f 352/533/353 353/532/352 355/534/354 354/535/355
f 349/529/349 355/534/354 353/532/352 351/530/350
f 354/535/355 348/528/348 350/531/351 352/533/353
g default
v 39.676010 64.322083 10.651453
v 58.088455 64.322083 10.651453
v 42.829086 67.360046 7.003391
v 54.935364 67.360046 7.003391
v 42.829086 67.360046 -7.003391
v 54.935364 67.360046 -7.003391
v 39.676010 64.322083 -10.651453
v 58.088455 64.322083 -10.651453
vt 0.318928 0.824576
vt 0.468067 0.824576
vt 0.437821 0.857558
vt 0.349174 0.857558
vt 0.437821 0.960549
vt 0.349174 0.960549
vt 0.468067 0.993531
vt 0.318928 0.993531
vn -0.383437 0.845158 0.372404
vn 0.383437 0.845158 0.372403
vn 0.226623 0.955959 0.186504
vn -0.226623 0.955959 0.186504
vn 0.226623 0.955959 -0.186504
vn -0.226623 0.955959 -0.186504
vn 0.383437 0.845158 -0.372403
vn -0.383437 0.845158 -0.372404
s 1
g S_P08_01_LP Cube_1_low
usemtl aiStandardSurface1SG
f 356/536/356 357/537/357 359/538/358 358/539/359
f 358/539/359 359/538/358 361/540/360 360/541/361
f 360/541/361 361/540/360 363/542/362 362/543/363
f 357/537/357 363/542/362 361/540/360 359/538/358
f 362/543/363 356/536/356 358/539/359 360/541/361
g default
v 67.669868 47.255249 -9.945530
v 67.476898 47.216866 -10.411392
v 67.011040 47.124199 -10.604359
v 67.011040 38.993935 -10.604359
v 67.476898 38.901268 -10.411392
v 67.669868 38.862885 -9.945530
v 67.011040 47.124199 10.604359
v 67.476898 47.216866 10.411392
v 67.669868 47.255249 9.945530
v 67.669868 38.862885 9.945530
v 67.476898 38.901268 10.411392
v 67.011040 38.993935 10.604359
v 56.421844 58.503269 9.945410
v 56.383625 58.310181 10.411272
v 56.291359 57.844078 10.604117
v 64.375397 55.208801 9.945530
v 64.227707 55.061111 10.411392
v 63.871151 54.704556 10.604359
v 64.375397 30.909332 -9.945530
v 64.227707 31.057022 -10.411392
v 63.871151 31.413578 -10.604359
v 56.421844 58.503269 -9.945531
v 56.383629 58.310219 -10.411307
v 56.291382 57.844200 -10.604117
v 64.375397 55.208801 -9.945530
v 64.227707 55.061111 -10.411392
v 63.871151 54.704556 -10.604359
v 64.375397 30.909332 9.945530
v 64.227707 31.057022 10.411392
v 63.871151 31.413578 10.604359
v 56.421844 27.614862 9.945531
v 56.383629 27.807915 10.411307
v 56.291382 28.273933 10.604117
v 56.421844 27.614862 -9.945410
v 56.383625 27.807949 -10.411272
v 56.291359 28.274055 -10.604117
v -27.960527 27.963842 9.789873
v -27.495024 27.770267 9.790733
v -27.494717 27.963234 10.256166
v -27.494415 28.429094 10.448955
v -27.960350 28.429653 10.255378
v -28.153242 28.429705 9.789515
v -27.960527 58.154289 9.789873
v -28.153242 57.688427 9.789515
v -27.960527 57.688786 10.255378
v -27.495024 57.689644 10.448954
v -27.495026 58.155079 10.256166
v -27.495024 58.347866 9.790733
v -27.960527 57.688786 -10.255378
v -28.153242 57.688427 -9.789515
v -27.960527 58.154289 -9.789873
v -27.495024 58.347866 -9.790733
v -27.495024 58.155079 -10.256166
v -27.495024 57.689644 -10.448954
v -27.960527 27.963842 -9.789873
v -28.153242 28.429705 -9.789515
v -27.960527 28.429348 -10.255378
v -27.495024 28.428488 -10.448954
v -27.495024 27.963057 -10.256166
v -27.495024 27.770267 -9.790733
v -27.874878 28.049381 10.169969
v -27.875010 58.068882 10.169969
v -27.875008 58.068882 -10.169969
v -27.875008 28.049252 -10.169969
vt 0.676100 0.494265
vt 0.615877 0.704877
vt 0.772527 0.006819
vt 0.621605 0.006816
vt 0.165856 0.717762
vt 0.165856 0.819149
vt 0.008807 0.819136
vt 0.455925 0.494269
vt 0.606850 0.494269
vt 0.596894 0.717715
vt 0.159094 0.819136
vt 0.008807 0.716077
vt 0.159094 0.717762
vt 0.212389 0.704908
vt 0.615877 0.609970
vt 0.129603 0.609926
vt 0.089251 0.704909
vt 0.637002 0.478070
vt 0.006466 0.704909
vt 0.047858 0.609926
vt 0.170996 0.609926
vt 0.129603 0.704909
vt 0.089251 0.609926
vt 0.047858 0.704909
vt 0.170996 0.704909
vt 0.212389 0.609926
vt 0.455128 0.062109
vt 0.773327 0.438974
vt 0.757133 0.476222
vt 0.620809 0.438974
vt 0.607647 0.062109
vt 0.471322 0.023014
vt 0.591453 0.023014
vt 0.510420 0.006819
vt 0.552355 0.006819
vt 0.718035 0.494265
vt 0.006466 0.609927
vt 0.596894 0.819184
vt 0.509744 0.003421
vt 0.089251 0.708055
vt 0.129603 0.708055
vt 0.553031 0.003421
vt 0.089251 0.606780
vt 0.675424 0.497663
vt 0.718711 0.497663
vt 0.129603 0.606780
vt 0.617409 0.439647
vt 0.006466 0.606780
vt 0.596895 0.714354
vt 0.634401 0.480670
vt 0.047858 0.606780
vt 0.170996 0.708055
vt 0.594054 0.020413
vt 0.006466 0.708055
vt 0.451729 0.061437
vt 0.596894 0.822544
vt 0.468721 0.020413
vt 0.047858 0.708055
vt 0.759734 0.480670
vt 0.170996 0.606780
vt 0.776726 0.439647
vt 0.212389 0.606780
vt 0.611047 0.061437
vt 0.212389 0.708055
vt 0.619041 0.609941
vt 0.775922 0.005487
vt 0.617115 0.606780
vt 0.007511 0.714354
vt 0.773825 0.003421
vt 0.162475 0.717731
vt 0.620309 0.003421
vt 0.160391 0.714354
vt 0.164532 0.714354
vt 0.618213 0.005486
vt 0.160391 0.822544
vt 0.454629 0.497664
vt 0.162475 0.819174
vt 0.452533 0.495598
vt 0.164532 0.822544
vt 0.005425 0.819174
vt 0.608146 0.497664
vt 0.007510 0.822544
vt 0.617116 0.708055
vt 0.610243 0.495598
vt 0.619041 0.606780
vt 0.775919 0.003421
vt 0.162475 0.714354
vt 0.618217 0.003421
vt 0.162475 0.822544
vt 0.452536 0.497664
vt 0.005426 0.822544
vt 0.610239 0.497664
vt 0.619041 0.704900
vt 0.619041 0.708055
vt 0.005425 0.717731
vt 0.005426 0.714354
vn 0.036112 0.007239 -0.999322
vn 0.713411 0.143463 -0.685903
vn 0.713410 -0.143463 -0.685904
vn 0.036112 -0.007239 -0.999322
vn 0.980248 0.197561 -0.009156
vn 0.980248 -0.197561 -0.009156
vn 0.980248 0.197561 0.009156
vn 0.713411 0.143463 0.685903
vn 0.713410 -0.143463 0.685904
vn 0.980248 -0.197561 0.009156
vn 0.036112 0.007239 0.999322
vn 0.036112 -0.007239 0.999322
vn -0.001500 0.007408 0.999971
vn 0.023490 0.729248 0.683846
vn -0.004142 0.707216 0.706985
vn -0.004122 0.006436 0.999971
vn 0.034416 0.999366 0.009159
vn -0.004112 0.999946 0.009512
vn -0.001500 -0.007408 -0.999971
vn 0.023489 -0.729247 -0.683848
vn -0.004142 -0.707214 -0.706987
vn -0.004122 -0.006436 -0.999971
vn 0.034416 -0.999366 -0.009159
vn -0.004112 -0.999946 -0.009512
vn -0.004113 -0.999946 0.009512
vn -0.707527 -0.706657 0.006470
vn -0.707527 -0.706657 -0.006460
vn -0.999934 -0.006434 0.009567
vn -0.999934 -0.006434 -0.009566
vn -0.707476 -0.004351 0.706724
vn -0.707374 0.004342 0.706826
vn -0.999933 0.006434 0.009571
vn -0.004123 -0.006437 0.999971
vn -0.707528 0.706656 0.006460
vn -0.707528 0.706656 -0.006460
vn -0.999934 0.006434 -0.009566
vn -0.004113 0.999946 -0.009511
vn -0.707533 0.004347 -0.706667
vn -0.707533 -0.004347 -0.706667
vn -0.004122 0.006435 -0.999971
vn 0.034416 0.999366 -0.009158
vn 0.034416 -0.999366 0.009162
vn 0.009495 0.009523 0.999910
vn 0.009494 -0.009522 0.999910
vn 0.707078 0.707076 -0.009192
vn 0.707079 0.707075 0.009192
vn 0.707078 -0.707076 0.009192
vn 0.707078 -0.707075 -0.009193
vn -0.001500 0.007407 -0.999971
vn -0.001500 -0.007407 0.999972
vn 0.009495 -0.009523 -0.999910
vn 0.009494 0.009522 -0.999910
vn 0.519175 0.519143 -0.678932
vn 0.519174 -0.519141 0.678934
vn 0.519163 0.519154 0.678932
vn 0.519162 -0.519153 -0.678934
vn 0.023489 0.729247 -0.683847
vn -0.004143 0.707215 -0.706987
vn 0.023483 -0.729105 0.683999
vn -0.004144 -0.707162 0.707039
vn -0.578328 -0.576474 0.577247
vn -0.578592 0.576730 0.576726
vn -0.578591 0.576733 -0.576725
vn -0.578588 -0.576732 -0.576729
s 1
g S_P08_01_LP Base_low
usemtl aiStandardSurface1SG
f 366/577/364 365/582/365 368/585/366 367/578/367
f 365/583/365 364/560/368 369/565/369 368/584/366
f 372/566/370 371/586/371 374/589/372 373/559/373
f 371/587/371 370/544/374 375/579/375 374/588/372
f 378/573/376 377/590/377 410/617/378 409/547/379
f 377/592/377 376/553/380 411/548/381 410/616/378
f 399/574/382 398/606/383 422/627/384 421/552/385
f 398/607/383 397/557/386 423/545/387 422/626/384
f 401/558/388 400/608/389 418/636/390 423/545/387
f 400/638/389 405/555/391 419/550/392 418/623/390
f 405/555/391 404/611/393 408/615/394 407/556/395
f 404/612/393 403/546/396 409/547/379 408/614/394
f 407/556/395 406/613/397 414/620/398 413/554/399
f 406/613/397 411/548/381 415/549/400 414/620/398
f 413/554/399 412/618/401 420/625/402 419/550/392
f 412/619/401 417/551/403 421/552/385 420/624/402
f 385/581/404 415/549/400 411/548/381 376/553/380
f 413/554/399 419/550/392 405/555/391 407/556/395
f 397/557/386 394/569/405 401/558/388 423/545/387
f 372/566/370 373/559/373 369/565/369 364/560/368
f 375/579/375 370/544/374 381/561/406 393/572/407
f 388/567/408 385/562/404 376/580/380 379/563/409
f 373/559/373 391/564/410 382/568/411 369/565/369
f 379/563/409 372/566/370 364/560/368 388/567/408
f 397/557/386 382/568/411 391/564/410 394/569/405
f 387/570/412 399/574/382 421/552/385 417/551/403
f 396/571/413 378/573/376 409/547/379 403/546/396
f 393/572/407 381/561/406 378/573/376 396/571/413
f 384/576/414 399/574/382 387/570/412 390/575/415
f 384/576/414 390/575/415 366/577/364 367/578/367
f 364/560/368 365/583/365 389/601/416 388/567/408
f 365/582/365 366/577/364 390/575/415 389/600/416
f 373/559/373 374/589/372 392/603/417 391/564/410
f 374/588/372 375/579/375 393/572/407 392/602/417
f 376/580/380 377/591/377 380/594/418 379/563/409
f 377/590/377 378/573/376 381/561/406 380/593/418
f 370/544/374 371/587/371 380/593/418 381/561/406
f 371/586/371 372/566/370 379/563/409 380/594/418
f 367/578/367 368/585/366 383/596/419 384/576/414
f 368/584/366 369/565/369 382/568/411 383/595/419
f 385/581/404 386/599/420 416/622/421 415/549/400
f 386/598/420 387/570/412 417/551/403 416/621/421
f 387/570/412 386/598/420 389/600/416 390/575/415
f 386/597/420 385/562/404 388/567/408 389/601/416
f 391/564/410 392/603/417 395/605/422 394/569/405
f 392/602/417 393/572/407 396/571/413 395/604/422
f 394/569/405 395/605/422 402/610/423 401/558/388
f 395/604/422 396/571/413 403/546/396 402/609/423
f 384/576/414 383/596/419 398/606/383 399/574/382
f 383/595/419 382/568/411 397/557/386 398/607/383
f 404/611/393 405/555/391 400/638/389 424/639/424
f 400/608/389 401/558/388 402/610/423 424/628/424
f 402/609/423 403/546/396 404/612/393 424/629/424
f 410/616/378 411/548/381 406/613/397 425/630/425
f 406/613/397 407/556/395 408/615/394 425/630/425
f 408/614/394 409/547/379 410/617/378 425/631/425
f 416/621/421 417/551/403 412/619/401 426/633/426
f 412/618/401 413/554/399 414/620/398 426/632/426
f 414/620/398 415/549/400 416/622/421 426/632/426
f 422/626/384 423/545/387 418/636/390 427/637/427
f 418/623/390 419/550/392 420/625/402 427/634/427
f 420/624/402 421/552/385 422/627/384 427/635/427
g default
v -31.089212 63.048092 15.333968
v -30.188366 63.048092 15.707111
v -30.188366 63.948940 15.333968
v -30.188366 64.322083 14.433122
v -31.089212 63.948940 14.433122
v -31.462357 63.048092 14.433122
v -31.089212 63.048092 -15.333968
v -31.462357 63.048092 -14.433122
v -31.089212 63.948940 -14.433011
v -30.188366 64.322083 -14.433121
v -30.188366 63.948940 -15.333968
v -30.188366 63.048092 -15.707111
v 74.510483 45.644348 14.433122
v 74.137344 45.644348 15.333968
v 73.236496 45.644348 15.707111
v 74.510483 45.644348 -14.433122
v 74.137344 45.644348 -15.333968
v 73.236496 45.644348 -15.707111
v 71.606400 35.111790 15.333968
v 71.606400 34.738647 14.433122
v 72.507248 35.111790 14.433122
v 72.880386 36.012638 14.433122
v 72.507248 36.012638 15.333968
v 71.606400 36.012638 15.707111
v 71.606400 35.111790 -15.333968
v 71.606400 36.012638 -15.707111
v 72.507248 36.012638 -15.333968
v 72.880386 36.012638 -14.433122
v 72.507248 35.111790 -14.433122
v 71.606400 34.738647 -14.433122
v -31.089907 58.159618 -14.434909
v -31.462357 59.060463 -14.434793
v -31.089212 59.060307 -15.334458
v -30.188366 59.058792 -15.707111
v -30.189220 58.157944 -15.334458
v -30.190042 57.784801 -14.434793
v -30.188353 58.157944 15.333968
v -30.188366 59.058792 15.707111
v -31.089214 59.061172 15.333968
v -31.462357 59.062138 14.433122
v -31.089418 58.160107 14.433122
v -30.188372 57.784798 14.433122
v 69.190956 45.644348 -15.707111
v 68.290108 45.644348 -15.333967
v 67.916962 45.644348 -14.433117
v 69.190956 45.644348 15.707111
v 68.290108 45.644348 15.333969
v 67.916962 45.644348 14.433123
v 66.660027 35.111790 14.433123
v 67.560867 34.738647 14.433123
v 67.560867 35.111790 15.333969
v 67.560867 36.012638 15.707111
v 66.660019 36.012638 15.333969
v 66.286880 36.012638 14.433123
v 66.660027 35.111790 -14.433123
v 66.286880 36.012638 -14.433123
v 66.660019 36.012638 -15.333969
v 67.560867 36.012638 -15.707111
v 67.560867 35.111790 -15.333969
v 67.560867 34.738647 -14.433123
v -30.923647 63.783375 15.168403
v -30.923647 63.783375 -15.168360
v 72.341682 35.277355 15.168403
v 72.341682 35.277355 -15.168403
v -30.924137 58.324955 -15.169154
v -30.923773 58.325317 15.168404
v 66.825584 35.277355 15.168404
v 66.825584 35.277355 -15.168404
v 62.639507 64.322029 14.433122
v 68.574989 62.731617 14.433122
v 72.920067 58.386543 14.433122
v 74.510475 52.451061 14.433122
v 62.266376 63.948887 15.333968
v 68.201859 62.358475 15.333968
v 72.546928 58.013397 15.333968
v 74.137337 52.077908 15.333968
v 73.236488 51.171047 15.707111
v 71.645271 57.109543 15.707111
v 67.297989 61.456821 15.707111
v 61.359497 63.048038 15.707111
v 62.266376 63.948887 -15.333968
v 68.201859 62.358475 -15.333968
v 72.546928 58.013397 -15.333968
v 74.137337 52.077908 -15.333968
v 61.359497 63.048038 -15.707111
v 67.297989 61.456821 -15.707111
v 71.645271 57.109543 -15.707111
v 73.236488 51.171047 -15.707111
v 74.510475 52.451061 -14.433122
v 72.920067 58.386543 -14.433122
v 68.574989 62.731617 -14.433122
v 62.639507 64.322029 -14.433122
v 56.462273 57.930019 -15.334027
v 62.394333 56.321968 -15.333998
v 66.725128 51.960835 -15.333976
v 68.291733 46.017681 -15.333967
v 56.087498 57.557861 -14.433324
v 62.019562 55.949810 -14.433222
v 66.350357 51.588680 -14.433146
v 67.916969 45.645535 -14.433117
v 69.196457 46.908726 -15.707111
v 67.628876 52.855591 -15.707111
v 63.295380 57.219452 -15.707111
v 57.359615 58.828510 -15.707111
v 57.359615 58.828510 15.707111
v 63.295380 57.219452 15.707111
v 67.628876 52.855591 15.707111
v 69.196457 46.908726 15.707111
v 56.462265 57.930019 15.333968
v 62.394329 56.321968 15.333968
v 66.725121 51.960838 15.333969
v 68.291733 46.017693 15.333969
v 67.916969 45.645535 14.433123
v 66.350357 51.588680 14.433123
v 62.019562 55.949810 14.433122
v 56.087498 57.557861 14.433122
vt 0.134406 0.021537
vt 0.134264 0.016675
vt 0.155271 0.016803
vt 0.155040 0.021722
vt 0.932962 0.514105
vt 0.932962 0.493404
vt 0.127827 0.014895
vt 0.449493 0.025282
vt 0.443992 0.022011
vt 0.124364 0.020489
vt 0.004641 0.006104
vt 0.443024 0.026816
vt 0.421983 0.026402
vt 0.783089 0.493404
vt 0.442723 0.031705
vt 0.422065 0.031305
vt 0.354899 0.581250
vt 0.356217 0.586182
vt 0.306443 0.593009
vt 0.305362 0.588196
vt 0.357304 0.591146
vt 0.004641 0.488569
vt 0.113583 0.495928
vt 0.260938 0.582682
vt 0.267918 0.563176
vt 0.113583 0.511196
vt 0.256305 0.580902
vt 0.263210 0.561783
vt 0.113583 0.488569
vt 0.260708 0.589192
vt 0.300632 0.596370
vt 0.004641 0.495928
vt 0.300652 0.589815
vt 0.294274 0.570061
vt 0.299026 0.568844
vt 0.004641 0.511196
vt 0.415563 0.024568
vt 0.161715 0.015217
vt 0.412044 0.030139
vt 0.932962 0.483275
vt 0.004641 0.555424
vt 0.347622 0.555743
vt 0.297233 0.564266
vt 0.295038 0.559750
vt 0.349216 0.560646
vt 0.271687 0.557755
vt 0.290732 0.564521
vt 0.113583 0.518556
vt 0.113583 0.451701
vt 0.207087 0.572507
vt 0.213339 0.552096
vt 0.216726 0.542419
vt 0.205631 0.577393
vt 0.255065 0.585672
vt 0.215070 0.547248
vt 0.265158 0.557277
vt 0.130387 0.017501
vt 0.129364 0.021291
vt 0.447778 0.031602
vt 0.446869 0.027803
vt 0.258952 0.585966
vt 0.302506 0.593183
vt 0.417025 0.030996
vt 0.418096 0.027202
vt 0.160080 0.021560
vt 0.159122 0.017762
vt 0.268401 0.559334
vt 0.293952 0.566201
vt 0.174521 0.568549
vt 0.147393 0.554578
vt 0.153016 0.550590
vt 0.180265 0.564795
vt 0.129142 0.530114
vt 0.134567 0.525917
vt 0.124073 0.500110
vt 0.129215 0.495566
vt 0.387624 0.578176
vt 0.415142 0.564900
vt 0.004641 0.402822
vt 0.004641 0.426013
vt 0.434100 0.540921
vt 0.004641 0.379631
vt 0.439950 0.511016
vt 0.444982 0.513153
vt 0.349659 0.555080
vt 0.379003 0.539553
vt 0.384637 0.543560
vt 0.355636 0.558839
vt 0.399642 0.513024
vt 0.404853 0.517568
vt 0.408208 0.480732
vt 0.413201 0.485518
vt 0.213054 0.546531
vt 0.184189 0.530219
vt 0.113583 0.578624
vt 0.113583 0.555428
vt 0.164251 0.503211
vt 0.932962 0.003421
vt 0.156588 0.470732
vt 0.161661 0.468621
vt 0.113583 0.356440
vt 0.151472 0.475378
vt 0.171083 0.572767
vt 0.434928 0.506330
vt 0.381972 0.574263
vt 0.206977 0.550116
vt 0.783089 0.035331
vt 0.346107 0.550862
vt 0.113583 0.402822
vt 0.113583 0.379631
vt 0.409636 0.560774
vt 0.428765 0.536561
vt 0.004641 0.578624
vt 0.004641 0.601820
vt 0.178421 0.534079
vt 0.158947 0.507576
vt 0.395128 0.510007
vt 0.783089 0.003421
vt 0.168870 0.500301
vt 0.113583 0.601820
vt 0.004641 0.555428
vt 0.346101 0.550862
vt 0.113583 0.555424
vt 0.216720 0.542419
vt 0.783089 0.483275
vt 0.403188 0.478483
vt 0.004641 0.451701
vt 0.390955 0.582490
vt 0.113583 0.426013
vt 0.204408 0.582317
vt 0.004641 0.356440
vt 0.452804 0.030933
vt 0.165081 0.020838
vt 0.932962 0.035331
vt 0.118992 0.502109
vt 0.932962 0.524230
vt 0.188302 0.526664
vt 0.374955 0.535858
vt 0.438664 0.543835
vt 0.419100 0.568662
vt 0.124475 0.532935
vt 0.143385 0.558208
vt 0.004641 0.518556
vt 0.004641 0.514876
vt 0.113583 0.514876
vt 0.267486 0.552837
vt 0.289403 0.570655
vt 0.272965 0.563986
vt 0.932962 0.488340
vt 0.783089 0.488340
vt 0.156186 0.012000
vt 0.421200 0.021349
vt 0.296053 0.592108
vt 0.004641 0.492249
vt 0.113583 0.492249
vt 0.265252 0.585053
vt 0.306669 0.598037
vt 0.254689 0.590684
vt 0.783089 0.514105
vt 0.783089 0.519167
vt 0.932962 0.519167
vt 0.133430 0.011626
vt 0.113583 0.006104
vt 0.783089 0.524230
vn -0.003744 0.075740 0.997121
vn -0.706037 0.053614 0.706143
vn -0.705881 -0.053554 0.706303
vn -0.003964 -0.072263 0.997378
vn -0.997082 0.075433 0.011718
vn -0.997090 -0.075332 0.011727
vn -0.707082 0.707081 0.008447
vn -0.707082 0.707081 -0.008446
vn -0.997083 0.075417 -0.011717
vn -0.003939 0.999915 0.012469
vn -0.003939 0.999915 -0.012469
vn -0.705875 0.053697 -0.706298
vn -0.705716 -0.053363 -0.706483
vn -0.997088 -0.075356 -0.011722
vn -0.003743 0.075741 -0.997120
vn -0.003961 -0.072242 -0.997379
vn 0.096934 -0.010481 -0.995236
vn 0.723435 -0.073406 -0.686479
vn 0.682313 -0.131481 -0.719140
vn 0.062512 -0.041156 -0.997195
vn 0.995049 -0.098656 -0.012047
vn 0.982362 -0.186578 -0.012403
vn 0.074542 -0.997149 0.011730
vn 0.052952 -0.706114 0.706115
vn -0.052952 -0.706114 0.706116
vn -0.074542 -0.997149 0.011730
vn 0.062512 -0.041156 0.997195
vn -0.085459 -0.021760 0.996104
vn 0.982362 -0.186578 0.012403
vn 0.707083 -0.707080 0.008447
vn 0.707083 -0.707080 -0.008447
vn 0.074542 -0.997149 -0.011730
vn 0.052952 -0.706114 -0.706115
vn -0.052952 -0.706114 -0.706116
vn -0.085459 -0.021760 -0.996104
vn -0.074542 -0.997149 -0.011730
vn -0.708011 -0.706152 -0.008419
vn -0.708010 -0.706151 0.008468
vn -0.006861 -0.999898 -0.012518
vn -0.006860 -0.999898 0.012524
vn -0.985914 0.166742 -0.013076
vn -0.674752 0.110062 -0.729792
vn -0.723508 0.089817 -0.684448
vn -0.992841 0.118876 -0.011636
vn -0.054167 0.008396 -0.998497
vn -0.707083 -0.707080 0.008447
vn -0.707083 -0.707080 -0.008447
vn -0.992841 0.118876 0.011636
vn 0.995049 -0.098656 0.012047
vn 0.096934 -0.010481 0.995236
vn -0.054167 0.008396 0.998497
vn -0.985914 0.166742 0.013076
vn 0.723435 -0.073406 0.686480
vn 0.682313 -0.131481 0.719140
vn -0.674750 0.110062 0.729793
vn -0.723507 0.089817 0.684449
vn -0.577350 0.577348 0.577353
vn -0.002682 0.708114 0.706093
vn -0.002682 0.708114 -0.706093
vn -0.577365 0.577363 -0.577324
vn 0.577350 -0.577350 0.577351
vn 0.577349 -0.577351 -0.577351
vn -0.004696 -0.705611 -0.708583
vn -0.577848 -0.576331 -0.577870
vn -0.004705 -0.705718 0.708477
vn -0.578228 -0.576710 0.577112
vn -0.577351 -0.577349 0.577350
vn -0.577351 -0.577349 -0.577350
vn 0.677243 0.084377 0.730905
vn 0.544098 0.312098 0.778814
vn 0.061891 0.032744 0.997546
vn 0.078963 0.006633 0.996856
vn 0.312099 0.544097 0.778815
vn 0.032572 0.061567 0.997571
vn 0.012324 0.796626 0.604347
vn 0.001113 0.144055 0.989569
vn 0.677243 0.084377 -0.730905
vn 0.544099 0.312098 -0.778814
vn 0.865586 0.500510 -0.015868
vn 0.992107 0.124664 -0.013522
vn 0.312099 0.544097 -0.778815
vn 0.500509 0.865586 -0.015868
vn 0.012324 0.796626 -0.604347
vn 0.016284 0.999815 -0.010196
vn -0.668164 -0.163664 -0.725790
vn -0.481914 -0.277748 -0.831033
vn -0.035196 -0.022578 -0.999125
vn -0.061498 -0.015349 -0.997989
vn -0.281098 -0.479942 -0.831047
vn -0.022490 -0.034525 -0.999151
vn -0.012660 -0.613835 -0.789333
vn -0.001353 -0.032476 -0.999472
vn -0.668167 -0.163664 0.725788
vn -0.481922 -0.277755 0.831025
vn -0.868088 -0.496069 0.018384
vn -0.966971 -0.254537 0.013377
vn -0.281112 -0.479971 0.831026
vn -0.502116 -0.864605 0.018384
vn -0.012662 -0.614106 0.789122
vn -0.019700 -0.999690 0.015249
vn 0.016284 0.999815 0.010196
vn -0.001354 -0.032497 0.999471
vn 0.992107 0.124664 0.013522
vn 0.001113 0.144055 -0.989569
vn 0.078963 0.006633 -0.996856
vn -0.061499 -0.015349 0.997989
vn -0.019700 -0.999690 -0.015249
vn -0.966971 -0.254537 -0.013377
vn 0.865586 0.500510 0.015868
vn 0.500509 0.865586 0.015868
vn 0.061891 0.032744 -0.997546
vn 0.032572 0.061567 -0.997571
vn -0.868088 -0.496071 -0.018384
vn -0.502114 -0.864606 -0.018384
vn -0.035197 -0.022579 0.999125
vn -0.022491 -0.034527 0.999151
s 1
g S_P08_01_LP Curve_low
usemtl aiStandardSurface1SG
f 429/640/428 428/641/429 466/642/430 465/643/431
f 428/641/429 433/801/432 467/790/433 466/642/430
f 433/644/432 432/800/434 436/799/435 435/798/436
f 432/800/434 431/775/437 437/803/438 436/799/435
f 435/648/436 434/651/439 460/652/440 459/791/441
f 434/651/439 439/654/442 461/655/443 460/652/440
f 445/656/444 444/657/445 454/658/446 453/659/447
f 444/657/445 443/660/448 455/796/449 454/658/446
f 447/795/450 446/663/451 478/664/452 477/787/453
f 446/663/451 451/666/454 479/667/455 478/664/452
f 449/668/456 448/794/457 456/793/458 455/661/449
f 448/794/457 447/662/450 457/671/459 456/793/458
f 453/659/447 452/672/460 486/673/461 485/674/462
f 452/672/460 457/792/459 487/786/463 486/673/461
f 459/653/441 458/789/464 468/788/465 467/645/433
f 458/789/464 463/764/466 469/679/467 468/788/465
f 472/761/468 471/681/469 484/682/470 483/683/471
f 471/681/469 470/684/472 485/674/462 484/682/470
f 477/665/453 476/784/473 482/783/474 487/675/463
f 476/784/473 481/687/475 483/782/471 482/783/474
f 443/766/448 440/688/476 449/668/456 455/661/449
f 433/644/432 435/798/436 459/653/441 467/645/433
f 451/666/454 442/689/477 473/690/478 479/667/455
f 445/656/444 453/659/447 485/674/462 470/684/472
f 457/671/459 447/662/450 477/665/453 487/675/463
f 472/680/468 483/782/471 481/687/475 475/762/479
f 440/769/476 441/692/480 450/693/481 449/797/456
f 441/692/480 442/689/477 451/666/454 450/693/481
f 473/690/478 474/694/482 480/695/483 479/667/455
f 474/694/482 475/691/479 481/785/475 480/695/483
f 432/646/434 433/801/432 428/641/429 488/696/484
f 428/641/429 429/640/428 430/697/485 488/696/484
f 430/697/485 431/649/437 432/646/434 488/696/484
f 438/698/486 439/654/442 434/651/439 489/699/487
f 434/651/439 435/648/436 436/647/435 489/699/487
f 436/647/435 437/771/438 438/698/486 489/699/487
f 450/693/481 451/666/454 446/663/451 490/700/488
f 446/663/451 447/795/450 448/669/457 490/700/488
f 448/669/457 449/797/456 450/693/481 490/700/488
f 456/670/458 457/792/459 452/672/460 491/701/489
f 452/672/460 453/659/447 454/658/446 491/701/489
f 454/658/446 455/796/449 456/670/458 491/701/489
f 462/702/490 463/678/466 458/676/464 492/703/491
f 458/676/464 459/791/441 460/652/440 492/703/491
f 460/652/440 461/655/443 462/702/490 492/703/491
f 468/677/465 469/772/467 464/704/492 493/705/493
f 464/704/492 465/643/431 466/642/430 493/705/493
f 466/642/430 467/790/433 468/677/465 493/705/493
f 480/695/483 481/785/475 476/685/473 494/706/494
f 476/685/473 477/787/453 478/664/452 494/706/494
f 478/664/452 479/667/455 480/695/483 494/706/494
f 486/673/461 487/786/463 482/686/474 495/707/495
f 482/686/474 483/683/471 484/682/470 495/707/495
f 484/682/470 485/674/462 486/673/461 495/707/495
f 503/708/496 502/709/497 505/710/498 504/711/499
f 502/709/497 501/712/500 506/713/501 505/710/498
f 501/712/500 500/714/502 507/715/503 506/713/501
f 511/716/504 510/717/505 517/779/506 516/767/507
f 510/717/505 509/720/508 518/778/509 517/779/506
f 509/720/508 508/722/510 519/723/511 518/778/509
f 523/724/512 522/725/513 529/726/514 528/727/515
f 522/725/513 521/728/516 530/729/517 529/726/514
f 521/728/516 520/730/518 531/731/519 530/729/517
f 539/732/520 538/733/521 541/776/522 540/763/523
f 538/733/521 537/736/524 542/758/525 541/776/522
f 537/736/524 536/738/526 543/739/527 542/758/525
f 431/649/437 430/697/485 500/714/502 496/774/528
f 430/697/485 429/640/428 507/715/503 500/714/502
f 465/643/431 464/704/492 536/738/526 532/741/529
f 464/704/492 469/772/467 543/739/527 536/738/526
f 437/650/438 431/802/437 496/740/528 519/770/511
f 516/719/507 499/768/530 440/688/476 443/766/448
f 531/731/519 461/655/443 439/654/442 512/743/531
f 465/643/431 532/741/529 507/715/503 429/640/428
f 470/684/472 528/727/515 515/744/532 445/656/444
f 535/745/533 473/690/478 442/689/477 504/711/499
f 524/746/534 543/773/527 469/679/467 463/764/466
f 472/680/468 475/762/479 540/735/523 527/760/535
f 499/742/530 503/708/496 441/692/480 440/769/476
f 503/708/496 504/711/499 442/689/477 441/692/480
f 439/654/442 438/698/486 508/722/510 512/743/531
f 438/698/486 437/771/438 519/723/511 508/722/510
f 515/744/532 511/716/504 444/657/445 445/656/444
f 511/716/504 516/767/507 443/660/448 444/657/445
f 463/678/466 462/702/490 520/730/518 524/765/534
f 462/702/490 461/655/443 531/731/519 520/730/518
f 535/745/533 539/732/520 474/694/482 473/690/478
f 539/732/520 540/763/523 475/691/479 474/694/482
f 527/747/535 523/724/512 471/681/469 472/761/468
f 523/724/512 528/727/515 470/684/472 471/681/469
f 499/742/530 498/781/536 502/709/497 503/708/496
f 498/781/536 497/780/537 501/712/500 502/709/497
f 497/780/537 496/774/528 500/714/502 501/712/500
f 510/717/505 511/716/504 515/744/532 514/750/538
f 508/722/510 509/720/508 513/751/539 512/743/531
f 509/720/508 510/717/505 514/750/538 513/751/539
f 496/740/528 497/749/537 518/721/509 519/770/511
f 497/749/537 498/748/536 517/718/506 518/721/509
f 498/748/536 499/768/530 516/719/507 517/718/506
f 522/725/513 523/724/512 527/747/535 526/777/540
f 520/730/518 521/728/516 525/756/541 524/765/534
f 521/728/516 522/725/513 526/777/540 525/756/541
f 512/743/531 513/751/539 530/729/517 531/731/519
f 513/751/539 514/750/538 529/726/514 530/729/517
f 514/750/538 515/744/532 528/727/515 529/726/514
f 504/711/499 505/710/498 534/754/542 535/745/533
f 505/710/498 506/713/501 533/755/543 534/754/542
f 506/713/501 507/715/503 532/741/529 533/755/543
f 535/745/533 534/754/542 538/733/521 539/732/520
f 534/754/542 533/755/543 537/736/524 538/733/521
f 533/755/543 532/741/529 536/738/526 537/736/524
f 524/746/534 525/757/541 542/737/525 543/773/527
f 525/753/541 526/752/540 541/734/522 542/759/525
f 526/752/540 527/760/535 540/735/523 541/734/522
g default
v -70.654976 0.058777 -0.916909
v -71.217758 0.223480 -1.652214
v -72.030991 0.461517 -2.060278
v -72.933617 0.725708 -2.060278
v -73.746849 0.963715 -1.652215
v -74.309624 1.128448 -0.916910
v -74.510475 1.187225 0.000000
v -74.309624 1.128448 0.916910
v -73.746849 0.963715 1.652214
v -72.933617 0.725708 2.060278
v -72.030991 0.461517 2.060278
v -71.217758 0.223480 1.652215
v -70.654976 0.058777 0.916910
v -70.454124 0.000000 0.000000
v -67.951683 7.224121 -0.916909
v -68.483009 7.472198 -1.652214
v -69.250809 7.830658 -2.060278
v -70.102997 8.228516 -2.060278
v -70.870796 8.586975 -1.652215
v -71.402130 8.835022 -0.916910
v -71.591759 8.923553 0.000000
v -71.402130 8.835022 0.916910
v -70.870796 8.586975 1.652214
v -70.102997 8.228516 2.060278
v -69.250809 7.830658 2.060278
v -68.483009 7.472198 1.652215
v -67.951683 7.224121 0.916910
v -67.762054 7.135590 0.000000
v -64.194206 13.897308 -0.916909
v -64.681831 14.222992 -1.652214
v -65.386475 14.693604 -2.060278
v -66.168564 15.215973 -2.060278
v -66.873207 15.686584 -1.652215
v -67.360832 16.012268 -0.916910
v -67.534859 16.128510 0.000000
v -67.360832 16.012268 0.916910
v -66.873207 15.686584 1.652214
v -66.168564 15.215973 2.060278
v -65.386475 14.693604 2.060278
v -64.681831 14.222992 1.652215
v -64.194206 13.897308 0.916910
v -64.020172 13.781067 0.000000
v -59.469269 19.924316 -0.916909
v -59.901939 20.320129 -1.652214
v -60.527161 20.892059 -2.060278
v -61.221100 21.526855 -2.060278
v -61.846321 22.098785 -1.652215
v -62.278992 22.494568 -0.916910
v -62.433403 22.635803 0.000000
v -62.278992 22.494568 0.916910
v -61.846321 22.098785 1.652214
v -61.221100 21.526855 2.060278
v -60.527161 20.892059 2.060278
v -59.901939 20.320129 1.652215
v -59.469269 19.924316 0.916910
v -59.314857 19.783081 0.000000
v -53.885918 25.166107 -0.916909
v -54.253639 25.622864 -1.652214
v -54.785011 26.282898 -2.060278
v -55.374794 27.015472 -2.060278
v -55.906166 27.675537 -1.652215
v -56.273888 28.132263 -0.916910
v -56.405128 28.295288 0.000000
v -56.273888 28.132263 0.916910
v -55.906166 27.675537 1.652214
v -55.374794 27.015472 2.060278
v -54.785011 26.282898 2.060278
v -54.253639 25.622864 1.652215
v -53.885918 25.166107 0.916910
v -53.754677 25.003082 0.000000
v -47.572990 29.501648 -0.916909
v -47.867279 30.008850 -1.652214
v -48.292549 30.741760 -2.060278
v -48.764549 31.555237 -2.060278
v -49.189812 32.288147 -1.652215
v -49.484108 32.795288 -0.916910
v -49.589142 32.976318 0.000000
v -49.484108 32.795288 0.916910
v -49.189819 32.288147 1.652214
v -48.764549 31.555237 2.060278
v -48.292549 30.741760 2.060278
v -47.867279 30.008850 1.652215
v -47.572990 29.501648 0.916910
v -47.467957 29.320618 0.000000
v -40.676186 32.830933 -0.916909
v -40.890251 33.376831 -1.652214
v -41.199593 34.165710 -2.060278
v -41.542931 35.041260 -2.060278
v -41.852272 35.830139 -1.652215
v -42.066338 36.376038 -0.916910
v -42.142738 36.570923 0.000000
v -42.066338 36.376038 0.916910
v -41.852272 35.830139 1.652214
v -41.542931 35.041260 2.060278
v -41.199593 34.165710 2.060278
v -40.890251 33.376831 1.652215
v -40.676186 32.830933 0.916910
v -40.599785 32.636108 0.000000
v -33.354660 35.077087 -0.916909
v -33.483566 35.649109 -1.652214
v -33.669846 36.475769 -2.060278
v -33.876587 37.393250 -2.060278
v -34.062866 38.219849 -1.652215
v -34.191772 38.791870 -0.916910
v -34.237778 38.996033 0.000000
v -34.191772 38.791870 0.916910
v -34.062866 38.219849 1.652214
v -33.876587 37.393250 2.060278
v -33.669846 36.475769 2.060278
v -33.483566 35.649109 1.652215
v -33.354660 35.077087 0.916910
v -33.308655 34.872925 0.000000
v -25.777374 36.188293 -0.916909
v -25.818146 36.773254 -1.652214
v -25.877060 37.618591 -2.060278
v -25.942444 38.556763 -2.060278
v -26.001358 39.402100 -1.652215
v -26.042130 39.987061 -0.916910
v -26.056686 40.195801 0.000000
v -26.042130 39.987061 0.916910
v -26.001358 39.402100 1.652214
v -25.942444 38.556763 2.060278
v -25.877060 37.618591 2.060278
v -25.818146 36.773254 1.652215
v -25.777374 36.188293 0.916910
v -25.762817 35.979553 0.000000
vt 0.727051 0.538912
vt 0.733847 0.538912
vt 0.733847 0.595456
vt 0.727051 0.595456
vt 0.740586 0.538912
vt 0.740586 0.595456
vt 0.747265 0.538912
vt 0.747265 0.595456
vt 0.753893 0.538912
vt 0.753893 0.595456
vt 0.760484 0.538912
vt 0.760484 0.595456
vt 0.767058 0.538912
vt 0.767058 0.595456
vt 0.773621 0.538912
vt 0.773621 0.595456
vt 0.780211 0.538912
vt 0.780211 0.595456
vt 0.786837 0.538912
vt 0.786837 0.595456
vt 0.793507 0.538912
vt 0.793507 0.595456
vt 0.800235 0.538912
vt 0.800235 0.595456
vt 0.807018 0.538912
vt 0.807018 0.595456
vt 0.813834 0.538912
vt 0.813834 0.595456
vt 0.820654 0.538912
vt 0.820654 0.595456
vt 0.733847 0.651588
vt 0.727051 0.651588
vt 0.740586 0.651588
vt 0.747265 0.651588
vt 0.753893 0.651588
vt 0.760484 0.651588
vt 0.767058 0.651588
vt 0.773621 0.651588
vt 0.780211 0.651588
vt 0.786837 0.651588
vt 0.793507 0.651588
vt 0.800235 0.651588
vt 0.807018 0.651588
vt 0.813834 0.651588
vt 0.820654 0.651588
vt 0.733847 0.707920
vt 0.727051 0.707920
vt 0.740586 0.707920
vt 0.747265 0.707920
vt 0.753893 0.707920
vt 0.760484 0.707920
vt 0.767058 0.707920
vt 0.773621 0.707920
vt 0.780211 0.707920
vt 0.786837 0.707920
vt 0.793507 0.707920
vt 0.800235 0.707920
vt 0.807018 0.707920
vt 0.813834 0.707920
vt 0.820654 0.707920
vt 0.733847 0.764254
vt 0.727051 0.764254
vt 0.740586 0.764254
vt 0.747265 0.764254
vt 0.753893 0.764254
vt 0.760484 0.764254
vt 0.767058 0.764254
vt 0.773621 0.764254
vt 0.780211 0.764254
vt 0.786837 0.764254
vt 0.793507 0.764254
vt 0.800235 0.764254
vt 0.807018 0.764254
vt 0.813834 0.764254
vt 0.820654 0.764254
vt 0.733847 0.820589
vt 0.727051 0.820589
vt 0.740586 0.820589
vt 0.747265 0.820589
vt 0.753893 0.820589
vt 0.760484 0.820589
vt 0.767058 0.820589
vt 0.773621 0.820589
vt 0.780211 0.820589
vt 0.786837 0.820589
vt 0.793507 0.820589
vt 0.800235 0.820589
vt 0.807018 0.820589
vt 0.813834 0.820589
vt 0.820654 0.820589
vt 0.733847 0.876921
vt 0.727051 0.876921
vt 0.740586 0.876921
vt 0.747265 0.876921
vt 0.753893 0.876921
vt 0.760484 0.876921
vt 0.767058 0.876921
vt 0.773621 0.876921
vt 0.780211 0.876921
vt 0.786837 0.876921
vt 0.793507 0.876921
vt 0.800235 0.876921
vt 0.807018 0.876921
vt 0.813834 0.876921
vt 0.820654 0.876921
vt 0.733847 0.933053
vt 0.727051 0.933053
vt 0.740586 0.933053
vt 0.747265 0.933053
vt 0.753893 0.933053
vt 0.760484 0.933053
vt 0.767058 0.933053
vt 0.773621 0.933053
vt 0.780211 0.933053
vt 0.786837 0.933053
vt 0.793507 0.933053
vt 0.800235 0.933053
vt 0.807018 0.933053
vt 0.813834 0.933053
vt 0.820654 0.933053
vt 0.733847 0.989597
vt 0.727051 0.989597
vt 0.740586 0.989597
vt 0.747265 0.989597
vt 0.753893 0.989597
vt 0.760484 0.989597
vt 0.767058 0.989597
vt 0.773621 0.989597
vt 0.780211 0.989597
vt 0.786837 0.989597
vt 0.793507 0.989597
vt 0.800235 0.989597
vt 0.807018 0.989597
vt 0.813834 0.989597
vt 0.820654 0.989597
vn 0.841184 -0.317356 -0.437830
vn 0.577073 -0.217715 -0.787138
vn 0.557868 -0.260451 -0.788003
vn 0.814196 -0.380122 -0.438854
vn 0.197384 -0.074468 -0.977494
vn 0.190628 -0.088998 -0.977620
vn -0.220141 0.083054 -0.971926
vn -0.212614 0.099263 -0.972081
vn -0.591667 0.223221 -0.774663
vn -0.572008 0.267053 -0.775557
vn -0.845662 0.319046 -0.427861
vn -0.818552 0.382156 -0.428871
vn -0.935628 0.352988 0.000000
vn -0.906113 0.423036 0.000000
vn -0.845662 0.319046 0.427861
vn -0.818551 0.382156 0.428872
vn -0.591667 0.223221 0.774663
vn -0.572008 0.267053 0.775558
vn -0.220142 0.083054 0.971926
vn -0.212614 0.099263 0.972081
vn 0.197384 -0.074467 0.977494
vn 0.190628 -0.088998 0.977620
vn 0.577073 -0.217714 0.787139
vn 0.557867 -0.260451 0.788004
vn 0.841184 -0.317356 0.437830
vn 0.814196 -0.380122 0.438854
vn 0.935628 -0.352987 0.000000
vn 0.906113 -0.423035 0.000000
vn 0.511979 -0.341948 -0.788003
vn 0.747221 -0.499066 -0.438855
vn 0.174948 -0.116847 -0.977620
vn -0.195125 0.130323 -0.972081
vn -0.524957 0.350616 -0.775558
vn -0.751220 0.501736 -0.428870
vn -0.831578 0.555408 0.000000
vn -0.751220 0.501736 0.428870
vn -0.524957 0.350616 0.775558
vn -0.195125 0.130323 0.972081
vn 0.174948 -0.116847 0.977620
vn 0.511978 -0.341948 0.788004
vn 0.747221 -0.499066 0.438855
vn 0.831578 -0.555408 0.000000
vn 0.454274 -0.415553 -0.788004
vn 0.663004 -0.606491 -0.438855
vn 0.155230 -0.141999 -0.977620
vn -0.173132 0.158375 -0.972082
vn -0.465790 0.426088 -0.775557
vn -0.666552 0.609738 -0.428868
vn -0.737853 0.674961 0.000000
vn -0.666552 0.609738 0.428868
vn -0.465790 0.426088 0.775557
vn -0.173133 0.158376 0.972081
vn 0.155230 -0.141998 0.977620
vn 0.454273 -0.415553 0.788005
vn 0.663004 -0.606491 0.438855
vn 0.737853 -0.674962 -0.000000
vn 0.386086 -0.479569 -0.788004
vn 0.563484 -0.699921 -0.438858
vn 0.131930 -0.163874 -0.977620
vn -0.147144 0.182772 -0.972082
vn -0.395874 0.491729 -0.775555
vn -0.566502 0.703669 -0.428865
vn -0.627099 0.778940 0.000000
vn -0.566502 0.703669 0.428865
vn -0.395874 0.491729 0.775555
vn -0.147145 0.182772 0.972082
vn 0.131929 -0.163874 0.977620
vn 0.386086 -0.479569 0.788004
vn 0.563484 -0.699921 0.438858
vn 0.627099 -0.778939 0.000000
vn 0.308988 -0.532519 -0.788004
vn 0.450963 -0.777199 -0.438857
vn 0.105584 -0.181967 -0.977620
vn -0.117761 0.202953 -0.972081
vn -0.316823 0.546023 -0.775553
vn -0.453376 0.781358 -0.428870
vn -0.501873 0.864941 -0.000001
vn -0.453376 0.781359 0.428868
vn -0.316823 0.546023 0.775553
vn -0.117761 0.202954 0.972081
vn 0.105584 -0.181966 0.977620
vn 0.308988 -0.532518 0.788004
vn 0.450963 -0.777199 0.438856
vn 0.501875 -0.864940 0.000000
vn 0.224760 -0.573178 -0.788004
vn 0.328034 -0.836544 -0.438849
vn 0.076803 -0.195860 -0.977620
vn -0.085661 0.218450 -0.972081
vn -0.230459 0.587713 -0.775553
vn -0.329787 0.841014 -0.428877
vn -0.365065 0.930982 -0.000001
vn -0.329787 0.841015 0.428876
vn -0.230459 0.587713 0.775553
vn -0.085661 0.218451 0.972081
vn 0.076802 -0.195860 0.977620
vn 0.224760 -0.573178 0.788004
vn 0.328034 -0.836544 0.438849
vn 0.365066 -0.930982 -0.000000
vn 0.135344 -0.600607 -0.788006
vn 0.197533 -0.876583 -0.438843
vn 0.046248 -0.205233 -0.977620
vn -0.051583 0.228907 -0.972081
vn -0.138777 0.615837 -0.775555
vn -0.198591 0.881268 -0.428869
vn -0.219833 0.975538 0.000000
vn -0.198591 0.881268 0.428870
vn -0.138777 0.615837 0.775555
vn -0.051583 0.228907 0.972081
vn 0.046248 -0.205233 0.977620
vn 0.135344 -0.600607 0.788006
vn 0.197533 -0.876583 0.438842
vn 0.219832 -0.975538 0.000000
vn 0.089493 -0.610244 -0.787143
vn 0.130454 -0.889550 -0.437815
vn 0.030610 -0.208729 -0.977494
vn -0.034140 0.232798 -0.971926
vn -0.091759 0.625685 -0.774661
vn -0.131150 0.894285 -0.427849
vn -0.145101 0.989417 0.000000
vn -0.131150 0.894285 0.427849
vn -0.091759 0.625684 0.774661
vn -0.034140 0.232798 0.971926
vn 0.030610 -0.208728 0.977495
vn 0.089493 -0.610243 0.787143
vn 0.130454 -0.889550 0.437815
vn 0.145100 -0.989417 0.000000
s 1
g S_P08_01_LP Pole_1_low
usemtl aiStandardSurface1SG
f 544/804/544 545/805/545 559/806/546 558/807/547
f 545/805/545 546/808/548 560/809/549 559/806/546
f 546/808/548 547/810/550 561/811/551 560/809/549
f 547/810/550 548/812/552 562/813/553 561/811/551
f 548/812/552 549/814/554 563/815/555 562/813/553
f 549/814/554 550/816/556 564/817/557 563/815/555
f 550/816/556 551/818/558 565/819/559 564/817/557
f 551/818/558 552/820/560 566/821/561 565/819/559
f 552/820/560 553/822/562 567/823/563 566/821/561
f 553/822/562 554/824/564 568/825/565 567/823/563
f 554/824/564 555/826/566 569/827/567 568/825/565
f 555/826/566 556/828/568 570/829/569 569/827/567
f 556/828/568 557/830/570 571/831/571 570/829/569
f 557/830/570 544/832/544 558/833/547 571/831/571
f 558/807/547 559/806/546 573/834/572 572/835/573
f 559/806/546 560/809/549 574/836/574 573/834/572
f 560/809/549 561/811/551 575/837/575 574/836/574
f 561/811/551 562/813/553 576/838/576 575/837/575
f 562/813/553 563/815/555 577/839/577 576/838/576
f 563/815/555 564/817/557 578/840/578 577/839/577
f 564/817/557 565/819/559 579/841/579 578/840/578
f 565/819/559 566/821/561 580/842/580 579/841/579
f 566/821/561 567/823/563 581/843/581 580/842/580
f 567/823/563 568/825/565 582/844/582 581/843/581
f 568/825/565 569/827/567 583/845/583 582/844/582
f 569/827/567 570/829/569 584/846/584 583/845/583
f 570/829/569 571/831/571 585/847/585 584/846/584
f 571/831/571 558/833/547 572/848/573 585/847/585
f 572/835/573 573/834/572 587/849/586 586/850/587
f 573/834/572 574/836/574 588/851/588 587/849/586
f 574/836/574 575/837/575 589/852/589 588/851/588
f 575/837/575 576/838/576 590/853/590 589/852/589
f 576/838/576 577/839/577 591/854/591 590/853/590
f 577/839/577 578/840/578 592/855/592 591/854/591
f 578/840/578 579/841/579 593/856/593 592/855/592
f 579/841/579 580/842/580 594/857/594 593/856/593
f 580/842/580 581/843/581 595/858/595 594/857/594
f 581/843/581 582/844/582 596/859/596 595/858/595
f 582/844/582 583/845/583 597/860/597 596/859/596
f 583/845/583 584/846/584 598/861/598 597/860/597
f 584/846/584 585/847/585 599/862/599 598/861/598
f 585/847/585 572/848/573 586/863/587 599/862/599
f 586/850/587 587/849/586 601/864/600 600/865/601
f 587/849/586 588/851/588 602/866/602 601/864/600
f 588/851/588 589/852/589 603/867/603 602/866/602
f 589/852/589 590/853/590 604/868/604 603/867/603
f 590/853/590 591/854/591 605/869/605 604/868/604
f 591/854/591 592/855/592 606/870/606 605/869/605
f 592/855/592 593/856/593 607/871/607 606/870/606
f 593/856/593 594/857/594 608/872/608 607/871/607
f 594/857/594 595/858/595 609/873/609 608/872/608
f 595/858/595 596/859/596 610/874/610 609/873/609
f 596/859/596 597/860/597 611/875/611 610/874/610
f 597/860/597 598/861/598 612/876/612 611/875/611
f 598/861/598 599/862/599 613/877/613 612/876/612
f 599/862/599 586/863/587 600/878/601 613/877/613
f 600/865/601 601/864/600 615/879/614 614/880/615
f 601/864/600 602/866/602 616/881/616 615/879/614
f 602/866/602 603/867/603 617/882/617 616/881/616
f 603/867/603 604/868/604 618/883/618 617/882/617
f 604/868/604 605/869/605 619/884/619 618/883/618
f 605/869/605 606/870/606 620/885/620 619/884/619
f 606/870/606 607/871/607 621/886/621 620/885/620
f 607/871/607 608/872/608 622/887/622 621/886/621
f 608/872/608 609/873/609 623/888/623 622/887/622
f 609/873/609 610/874/610 624/889/624 623/888/623
f 610/874/610 611/875/611 625/890/625 624/889/624
f 611/875/611 612/876/612 626/891/626 625/890/625
f 612/876/612 613/877/613 627/892/627 626/891/626
f 613/877/613 600/878/601 614/893/615 627/892/627
f 614/880/615 615/879/614 629/894/628 628/895/629
f 615/879/614 616/881/616 630/896/630 629/894/628
f 616/881/616 617/882/617 631/897/631 630/896/630
f 617/882/617 618/883/618 632/898/632 631/897/631
f 618/883/618 619/884/619 633/899/633 632/898/632
f 619/884/619 620/885/620 634/900/634 633/899/633
f 620/885/620 621/886/621 635/901/635 634/900/634
f 621/886/621 622/887/622 636/902/636 635/901/635
f 622/887/622 623/888/623 637/903/637 636/902/636
f 623/888/623 624/889/624 638/904/638 637/903/637
f 624/889/624 625/890/625 639/905/639 638/904/638
f 625/890/625 626/891/626 640/906/640 639/905/639
f 626/891/626 627/892/627 641/907/641 640/906/640
f 627/892/627 614/893/615 628/908/629 641/907/641
f 628/895/629 629/894/628 643/909/642 642/910/643
f 629/894/628 630/896/630 644/911/644 643/909/642
f 630/896/630 631/897/631 645/912/645 644/911/644
f 631/897/631 632/898/632 646/913/646 645/912/645
f 632/898/632 633/899/633 647/914/647 646/913/646
f 633/899/633 634/900/634 648/915/648 647/914/647
f 634/900/634 635/901/635 649/916/649 648/915/648
f 635/901/635 636/902/636 650/917/650 649/916/649
f 636/902/636 637/903/637 651/918/651 650/917/650
f 637/903/637 638/904/638 652/919/652 651/918/651
f 638/904/638 639/905/639 653/920/653 652/919/652
f 639/905/639 640/906/640 654/921/654 653/920/653
f 640/906/640 641/907/641 655/922/655 654/921/654
f 641/907/641 628/908/629 642/923/643 655/922/655
f 642/910/643 643/909/642 657/924/656 656/925/657
f 643/909/642 644/911/644 658/926/658 657/924/656
f 644/911/644 645/912/645 659/927/659 658/926/658
f 645/912/645 646/913/646 660/928/660 659/927/659
f 646/913/646 647/914/647 661/929/661 660/928/660
f 647/914/647 648/915/648 662/930/662 661/929/661
f 648/915/648 649/916/649 663/931/663 662/930/662
f 649/916/649 650/917/650 664/932/664 663/931/663
f 650/917/650 651/918/651 665/933/665 664/932/664
f 651/918/651 652/919/652 666/934/666 665/933/665
f 652/919/652 653/920/653 667/935/667 666/934/666
f 653/920/653 654/921/654 668/936/668 667/935/667
f 654/921/654 655/922/655 669/937/669 668/936/668
f 655/922/655 642/923/643 656/938/657 669/937/669
g default
v -27.090042 54.839172 -1.095299
v -27.090042 54.138733 -1.973662
v -27.090042 53.126526 -2.461117
v -27.090042 52.003052 -2.461117
v -27.090042 50.990845 -1.973663
v -27.090042 50.290344 -1.095300
v -27.090042 50.040344 0.000000
v -27.090042 50.290344 1.095300
v -27.090042 50.990845 1.973662
v -27.090042 52.003052 2.461117
v -27.090042 53.126526 2.461117
v -27.090042 54.138733 1.973663
v -27.090042 54.839172 1.095300
v -27.090042 55.089172 0.000000
v -73.316559 54.839172 -1.095299
v -73.316559 54.138733 -1.973662
v -73.316559 53.126526 -2.461117
v -73.316559 52.003052 -2.461117
v -73.316559 50.990845 -1.973663
v -73.316559 50.290344 -1.095300
v -73.316559 50.040344 0.000000
v -73.316559 50.290344 1.095300
v -73.316559 50.990845 1.973662
v -73.316559 52.003052 2.461117
v -73.316559 53.126526 2.461117
v -73.316559 54.138733 1.973663
v -73.316559 54.839172 1.095300
v -73.316559 55.089172 0.000000
vt 0.832585 0.529324
vt 0.843756 0.529324
vt 0.843756 0.988986
vt 0.832585 0.988986
vt 0.854927 0.529324
vt 0.854927 0.988986
vt 0.866098 0.529324
vt 0.866098 0.988986
vt 0.877270 0.529324
vt 0.877270 0.988986
vt 0.888442 0.529323
vt 0.888442 0.988986
vt 0.899613 0.529324
vt 0.899613 0.988986
vt 0.910784 0.529323
vt 0.910784 0.988986
vt 0.921955 0.529323
vt 0.921955 0.988987
vt 0.933127 0.529324
vt 0.933127 0.988986
vt 0.944298 0.529323
vt 0.944298 0.988987
vt 0.955469 0.529323
vt 0.955469 0.988987
vt 0.966641 0.529323
vt 0.966641 0.988986
vt 0.977813 0.529323
vt 0.977813 0.988987
vt 0.988984 0.529323
vt 0.988984 0.988987
vn 0.000000 0.900973 -0.433874
vn 0.000000 0.623498 -0.781825
vn 0.000000 0.623498 -0.781825
vn 0.000000 0.900973 -0.433874
vn 0.000000 0.222521 -0.974928
vn 0.000000 0.222521 -0.974928
vn 0.000000 -0.222520 -0.974928
vn 0.000000 -0.222520 -0.974928
vn 0.000000 -0.623484 -0.781836
vn 0.000000 -0.623484 -0.781836
vn 0.000000 -0.900963 -0.433896
vn 0.000000 -0.900963 -0.433896
vn 0.000000 -1.000000 0.000000
vn 0.000000 -1.000000 0.000000
vn 0.000000 -0.900963 0.433896
vn 0.000000 -0.900963 0.433896
vn 0.000000 -0.623484 0.781836
vn 0.000000 -0.623484 0.781836
vn 0.000000 -0.222521 0.974928
vn 0.000000 -0.222521 0.974928
vn 0.000000 0.222520 0.974928
vn 0.000000 0.222520 0.974928
vn 0.000000 0.623497 0.781825
vn 0.000000 0.623497 0.781825
vn 0.000000 0.900973 0.433874
vn 0.000000 0.900973 0.433874
vn 0.000000 1.000000 0.000000
vn 0.000000 1.000000 0.000000
s 1
g S_P08_01_LP Pole_2_low
usemtl aiStandardSurface1SG
f 670/939/670 671/940/671 685/941/672 684/942/673
f 671/940/671 672/943/674 686/944/675 685/941/672
f 672/943/674 673/945/676 687/946/677 686/944/675
f 673/945/676 674/947/678 688/948/679 687/946/677
f 674/947/678 675/949/680 689/950/681 688/948/679
f 675/949/680 676/951/682 690/952/683 689/950/681
f 676/951/682 677/953/684 691/954/685 690/952/683
f 677/953/684 678/955/686 692/956/687 691/954/685
f 678/955/686 679/957/688 693/958/689 692/956/687
f 679/957/688 680/959/690 694/960/691 693/958/689
f 680/959/690 681/961/692 695/962/693 694/960/691
f 681/961/692 682/963/694 696/964/695 695/962/693
f 682/963/694 683/965/696 697/966/697 696/964/695
f 683/965/696 670/967/670 684/968/673 697/966/697
g default
v -53.647354 25.763092 -0.892236
v -54.217964 25.763092 -1.607755
v -55.042519 25.763092 -2.004837
v -55.957695 25.763092 -2.004838
v -56.782249 25.763092 -1.607755
v -57.352852 25.763092 -0.892237
v -57.556503 25.763092 0.000000
v -57.352852 25.763092 0.892236
v -56.782249 25.763092 1.607755
v -55.957695 25.763092 2.004837
v -55.042519 25.763092 2.004838
v -54.217964 25.763092 1.607755
v -53.647362 25.763092 0.892237
v -53.443710 25.763092 0.000000
v -53.647354 53.094299 -0.892236
v -54.217964 53.094299 -1.607755
v -55.042519 53.094299 -2.004837
v -55.957695 53.094299 -2.004838
v -56.782249 53.094299 -1.607755
v -57.352852 53.094299 -0.892237
v -57.556503 53.094299 0.000000
v -57.352852 53.094299 0.892236
v -56.782249 53.094299 1.607755
v -55.957695 53.094299 2.004837
v -55.042519 53.094299 2.004838
v -54.217964 53.094299 1.607755
v -53.647362 53.094299 0.892237
v -53.443710 53.094299 0.000000
vt 0.400058 0.365416
vt 0.400058 0.373272
vt 0.165452 0.373272
vt 0.165452 0.365416
vt 0.400058 0.381128
vt 0.165452 0.381128
vt 0.400058 0.388984
vt 0.165452 0.388984
vt 0.400058 0.396838
vt 0.165452 0.396838
vt 0.400057 0.404696
vt 0.165452 0.404696
vt 0.400057 0.412550
vt 0.165452 0.412550
vt 0.400057 0.420407
vt 0.165452 0.420407
vt 0.400057 0.428262
vt 0.165452 0.428262
vt 0.400057 0.436119
vt 0.165452 0.436119
vt 0.400057 0.443973
vt 0.165452 0.443973
vt 0.400057 0.451829
vt 0.165452 0.451829
vt 0.400057 0.459684
vt 0.165452 0.459684
vt 0.400057 0.467541
vt 0.165452 0.467541
vt 0.400057 0.475396
vt 0.165452 0.475396
vn 0.900969 0.000000 -0.433884
vn 0.623488 0.000000 -0.781833
vn 0.623488 0.000000 -0.781833
vn 0.900969 0.000000 -0.433884
vn 0.222521 0.000000 -0.974928
vn 0.222521 0.000000 -0.974928
vn -0.222521 0.000000 -0.974928
vn -0.222521 0.000000 -0.974928
vn -0.623490 0.000000 -0.781831
vn -0.623490 0.000000 -0.781831
vn -0.900969 0.000000 -0.433884
vn -0.900969 0.000000 -0.433884
vn -1.000000 0.000000 -0.000000
vn -1.000000 0.000000 -0.000000
vn -0.900969 0.000000 0.433884
vn -0.900969 0.000000 0.433884
vn -0.623490 0.000000 0.781831
vn -0.623490 0.000000 0.781831
vn -0.222521 0.000000 0.974928
vn -0.222521 0.000000 0.974928
vn 0.222521 0.000000 0.974928
vn 0.222521 0.000000 0.974928
vn 0.623490 0.000000 0.781831
vn 0.623490 0.000000 0.781831
vn 0.900969 0.000000 0.433884
vn 0.900969 0.000000 0.433884
vn 1.000000 0.000000 0.000004
vn 1.000000 0.000000 0.000004
s 1
g S_P08_01_LP Pole_3_low
usemtl aiStandardSurface1SG
f 698/969/698 699/970/699 713/971/700 712/972/701
f 699/970/699 700/973/702 714/974/703 713/971/700
f 700/973/702 701/975/704 715/976/705 714/974/703
f 701/975/704 702/977/706 716/978/707 715/976/705
f 702/977/706 703/979/708 717/980/709 716/978/707
f 703/979/708 704/981/710 718/982/711 717/980/709
f 704/981/710 705/983/712 719/984/713 718/982/711
f 705/983/712 706/985/714 720/986/715 719/984/713
f 706/985/714 707/987/716 721/988/717 720/986/715
f 707/987/716 708/989/718 722/990/719 721/988/717
f 708/989/718 709/991/720 723/992/721 722/990/719
f 709/991/720 710/993/722 724/994/723 723/992/721
f 710/993/722 711/995/724 725/996/725 724/994/723
f 711/995/724 698/997/698 712/998/701 725/996/725
