# This file uses centimeters as units for non-parametric coordinates.

mtllib S_P07_01_LP.mtl
g default
v 20.644032 42.321415 -6.707657
v 12.758709 42.321415 -17.560873
v -12.758739 42.321415 -17.560869
v -20.644047 42.321415 -6.707654
v -20.644047 42.321415 6.707654
v -12.758724 42.321415 17.560865
v 12.758694 42.321415 17.560863
v 20.644016 42.321415 6.707653
v 11.785236 64.706261 -3.829270
v 7.283680 64.706261 -10.025132
v -7.283695 64.706261 -10.025143
v -11.785259 64.706261 -3.829258
v -11.785259 64.706261 3.829262
v -7.283695 64.706261 10.025135
v 7.283672 64.706253 10.025130
v 11.785229 64.706261 3.829252
v 20.644032 0.000027 -6.707657
v 12.758709 0.000027 -17.560873
v 20.644016 0.000018 6.707653
v 12.758694 0.000027 17.560863
v -12.758724 0.000027 17.560865
v -20.644047 0.000027 6.707654
v -20.644047 0.000027 -6.707654
v -12.758739 0.000027 -17.560869
v 12.758709 21.160727 -17.560873
v -12.758739 21.160727 -17.560869
v -20.644047 21.160727 -6.707654
v -20.644047 21.160727 6.707654
v -12.758724 21.160727 17.560865
v 12.758694 21.160727 17.560863
v 20.644016 21.160727 6.707653
v 20.644032 21.160727 -6.707657
v 12.758709 19.838238 -17.560873
v -12.758739 19.838238 -17.560867
v -20.644047 19.838238 -6.707654
v -20.644047 19.838238 6.707654
v -12.758724 19.838238 17.560863
v 12.758694 19.838238 17.560863
v 20.644016 19.838238 6.707653
v 20.644032 19.838238 -6.707657
v 11.632214 21.130783 -16.010376
v 11.632214 19.868181 -16.010376
v -11.632229 21.130783 -16.010372
v -11.632229 19.868181 -16.010372
v -18.821331 21.130783 -6.115415
v -18.821331 19.868181 -6.115415
v -18.821331 21.130783 6.115414
v -18.821331 19.868183 6.115414
v -11.632221 21.130783 16.010368
v -11.632221 19.868183 16.010366
v 11.632191 21.130783 16.010366
v 11.632191 19.868181 16.010366
v 18.821301 21.130783 6.115413
v 18.821301 19.868181 6.115413
v 18.821316 21.130783 -6.115417
v 18.821316 19.868181 -6.115417
v -4.733936 95.639908 -0.000000
v -0.000011 94.445602 -0.000001
v 4.733906 95.639908 -0.000001
v -4.733929 64.706261 -10.853609
v -0.000011 64.706261 -11.365607
v 4.733906 64.706261 -10.853604
v 4.733906 64.706253 10.853599
v -0.000011 64.706261 11.365600
v -4.733929 64.706261 10.853601
v -4.733929 42.321415 20.168276
v -0.000011 42.321415 20.680275
v 4.733906 42.321415 20.168274
v 4.733906 21.160727 20.168274
v -0.000011 21.160727 20.680275
v -4.733929 21.160727 20.168276
v 4.733906 42.321415 -20.168285
v -0.000011 42.321415 -20.680286
v -4.733929 42.321415 -20.168285
v -4.733929 21.160727 -20.168285
v -0.000011 21.160727 -20.680286
v 4.733906 21.160727 -20.168285
v 4.519535 21.130783 -18.321419
v -0.000011 21.130783 -18.810236
v -4.519558 21.130783 -18.321417
v -4.519558 19.868181 -18.321417
v -0.000011 19.868176 -18.810236
v 4.519535 19.868176 -18.321419
v -4.519558 21.130777 18.321407
v -0.000011 21.130783 18.810225
v 4.519535 21.130783 18.321407
v 4.519535 19.868181 18.321407
v -0.000011 19.868181 18.810225
v -4.519558 19.868181 18.321407
v -4.733929 0.000027 -20.168285
v -0.000011 0.000027 -20.680286
v 4.733906 0.000027 -20.168285
v 4.733906 19.838238 -20.168285
v -0.000011 19.838238 -20.680286
v -4.733929 19.838238 -20.168283
v 4.733906 0.000027 20.168274
v -0.000011 0.000027 20.680275
v -4.733929 0.000027 20.168276
v -4.733929 19.838238 20.168274
v -0.000011 19.838238 20.680275
v 4.733906 19.838238 20.168274
v 11.542233 96.629791 -3.805461
v 6.983753 104.572113 -2.108396
v 5.985836 96.831856 -4.922316
v 6.633076 91.365822 -10.174441
v -6.633091 91.365822 -10.174463
v -5.985859 96.831863 -4.922338
v -11.459171 96.696381 -4.066167
v -7.145222 104.890877 -1.309461
v -11.542255 96.629784 3.805451
v -6.983776 104.572098 2.108390
v -5.985859 96.831863 4.922312
v -6.633099 91.365822 10.174444
v 6.633076 91.365822 10.174441
v 5.985836 96.831863 4.922321
v 11.459133 96.696388 4.066198
v 7.145199 104.890900 1.309484
v -4.733929 96.052231 -6.779799
v -4.417133 90.888519 -10.934545
v -0.000011 95.074402 -7.527200
v -0.000011 90.497406 -11.392927
v 4.417110 90.888504 -10.934528
v 4.733913 96.052223 -6.779769
v 4.733906 96.052231 6.779764
v 4.417110 90.888519 10.934524
v -0.000011 95.074402 7.527182
v -0.000011 90.497414 11.392917
v -4.417133 90.888527 10.934526
v -4.733929 96.052231 6.779764
v 11.259075 101.748077 -3.681131
v 9.528950 105.242249 -3.027663
v 8.148937 105.175674 -2.526004
v 6.323582 96.402328 -6.250270
v 6.701031 95.282722 -8.107255
v 6.724064 93.514572 -9.470017
v -11.259090 101.748070 3.681124
v -9.528973 105.242233 3.027656
v -8.148968 105.175659 2.525999
v -6.323612 96.402336 6.250271
v -6.701054 95.282730 8.107255
v -6.724087 93.514572 9.470020
v -0.000011 94.634422 -8.789226
v -0.000011 93.914154 -9.926159
v -0.000011 92.357018 -10.934726
v 4.577427 92.987404 -10.456984
v 4.552158 94.724915 -9.380978
v 4.167454 95.443977 -8.200785
v -0.000011 94.634422 8.789209
v -0.000011 93.914154 9.926144
v -0.000011 92.357025 10.934712
v -4.577450 92.987419 10.456983
v -4.552181 94.724930 9.380975
v -4.167477 95.443993 8.200780
v 11.216541 101.915474 3.783858
v 9.610683 105.503891 2.693786
v 8.272038 105.467300 1.921428
v -6.723179 93.512871 -9.468071
v -6.699223 95.279266 -8.103453
v -6.317837 96.409668 -6.227609
v -8.272068 105.467278 -1.921400
v -9.610714 105.503868 -2.693750
v -11.216572 101.915459 -3.783820
v 6.723164 93.512871 9.468045
v 6.699200 95.279274 8.103422
v 6.317814 96.409676 6.227587
v -4.580494 92.977333 -10.467639
v -4.563374 94.716034 -9.409555
v -4.209332 95.410828 -8.307520
v 4.580471 92.977333 10.467612
v 4.563351 94.716034 9.409524
v 4.209309 95.410828 8.307488
vt 0.312722 0.239054
vt 0.280551 0.230063
vt 0.291971 0.177415
vt 0.327271 0.185624
vt 0.248694 0.223911
vt 0.256870 0.171207
vt 0.216697 0.220067
vt 0.221586 0.166917
vt 0.153659 0.219564
vt 0.121505 0.222915
vt 0.114234 0.169866
vt 0.149715 0.166217
vt 0.089396 0.228601
vt 0.078839 0.175471
vt 0.056865 0.237150
vt 0.043167 0.183103
vt 0.106286 0.294860
vt 0.081781 0.300233
vt 0.131891 0.291050
vt 0.158402 0.288657
vt 0.237368 0.291655
vt 0.210962 0.288964
vt 0.262810 0.295725
vt 0.287091 0.301334
vt 0.077919 0.170480
vt 0.042430 0.177954
vt 0.442404 0.220708
vt 0.479744 0.220708
vt 0.113565 0.164891
vt 0.517105 0.220708
vt 0.554413 0.224494
vt 0.554413 0.220708
vt 0.257623 0.166266
vt 0.222521 0.161958
vt 0.629657 0.220708
vt 0.666958 0.220708
vt 0.292983 0.172470
vt 0.704290 0.220708
vt 0.367704 0.224494
vt 0.367704 0.220708
vt 0.479744 0.215409
vt 0.442404 0.215409
vt 0.442404 0.159107
vt 0.479744 0.159107
vt 0.517105 0.215409
vt 0.517105 0.159107
vt 0.554413 0.215409
vt 0.554413 0.159107
vt 0.666958 0.215409
vt 0.629658 0.215409
vt 0.629658 0.159107
vt 0.666958 0.159107
vt 0.704290 0.215409
vt 0.704290 0.159107
vt 0.367704 0.215409
vt 0.741359 0.159107
vt 0.196612 0.219354
vt 0.185200 0.219106
vt 0.185697 0.164590
vt 0.198878 0.164969
vt 0.173782 0.219172
vt 0.172503 0.164707
vt 0.036204 0.245035
vt 0.024034 0.250238
vt 0.363239 0.195297
vt 0.020122 0.188595
vt 0.333084 0.247195
vt 0.350035 0.191477
vt 0.418761 0.224494
vt 0.005859 0.186465
vt 0.404722 0.220708
vt 0.418761 0.220708
vt 0.350703 0.185985
vt 0.391003 0.220708
vt 0.606093 0.224494
vt 0.185754 0.159107
vt 0.592059 0.220708
vt 0.606093 0.220708
vt 0.171545 0.159361
vt 0.578016 0.220708
vt 0.391004 0.159107
vt 0.404722 0.159107
vt 0.404722 0.215409
vt 0.391004 0.215409
vt 0.418761 0.159107
vt 0.418761 0.215409
vt 0.578016 0.159107
vt 0.592059 0.159107
vt 0.592059 0.215409
vt 0.578016 0.215409
vt 0.606093 0.159107
vt 0.606093 0.215409
vt 0.295041 0.303890
vt 0.073741 0.302726
vt 0.167886 0.288502
vt 0.201495 0.288699
vt 0.184696 0.288492
vt 0.060332 0.307217
vt 0.968443 0.187943
vt 0.944055 0.200897
vt 0.911059 0.201877
vt 0.879918 0.181715
vt 0.857131 0.192262
vt 0.832276 0.208758
vt 0.791281 0.208760
vt 0.767487 0.192261
vt 0.798259 0.170449
vt 0.926573 0.165841
vt 0.811741 0.192521
vt 0.795680 0.189854
vt 0.824716 0.169923
vt 0.827852 0.189592
vt 0.775730 0.159111
vt 0.946094 0.177063
vt 0.941798 0.182932
vt 0.912387 0.183789
vt 0.907738 0.178215
vt 0.890527 0.159105
vt 0.847838 0.167591
vt 0.832376 0.183551
vt 0.791090 0.184032
vt 0.775265 0.166920
vt 0.938977 0.201918
vt 0.916265 0.202619
vt 0.825728 0.211011
vt 0.797965 0.211116
vt 0.927157 0.185852
vt 0.927667 0.203264
vt 0.811891 0.212795
vt 0.965475 0.159906
vt 0.764261 0.160528
vt 0.947812 0.188511
vt 0.947313 0.181571
vt 0.754044 0.167967
vt 0.945728 0.194782
vt 0.850115 0.168328
vt 0.852106 0.169926
vt 0.834776 0.195017
vt 0.833687 0.188124
vt 0.854080 0.178540
vt 0.833544 0.201725
vt 0.927517 0.198328
vt 0.927373 0.193389
vt 0.940212 0.191239
vt 0.939582 0.196567
vt 0.927267 0.189664
vt 0.939627 0.187378
vt 0.811839 0.206823
vt 0.811799 0.201040
vt 0.826624 0.198466
vt 0.826247 0.204518
vt 0.811771 0.196792
vt 0.825709 0.194281
vt 0.906844 0.182666
vt 0.906757 0.189648
vt 0.860400 0.159967
vt 0.854788 0.159106
vt 0.909088 0.195840
vt 0.884283 0.174891
vt 0.770373 0.178686
vt 0.773213 0.168056
vt 0.789939 0.188395
vt 0.790014 0.201758
vt 0.915350 0.197322
vt 0.914733 0.188417
vt 0.797368 0.204636
vt 0.797735 0.194764
vt 0.771582 0.169992
vt 0.788920 0.195153
vt 0.914423 0.192062
vt 0.796939 0.198650
vt 0.629657 0.224494
vt 0.199943 0.159651
vt 0.578016 0.224494
vt 0.148875 0.161227
vt 0.442404 0.224494
vt 0.019556 0.183048
vt 0.391004 0.224494
vt 0.328097 0.180524
vt 0.592059 0.224494
vt 0.404722 0.224494
vt 0.704290 0.224494
vt 0.666958 0.224494
vt 0.517105 0.224494
vt 0.479744 0.224494
vt 0.741359 0.220708
vt 0.741359 0.215409
vt 0.367704 0.159107
vt 0.741359 0.224494
vt 0.171233 0.372879
vt 0.184373 0.371459
vt 0.197492 0.372944
vt 0.283720 0.382299
vt 0.071172 0.382445
vt 0.084532 0.381704
vt 0.204358 0.374758
vt 0.226268 0.393564
vt 0.164340 0.374661
vt 0.141416 0.393255
vt 0.117316 0.395971
vt 0.091713 0.382178
vt 0.276585 0.382723
vt 0.250282 0.395978
vt 0.296975 0.383125
vt 0.308279 0.308482
vt 0.006735 0.192213
vt 0.364218 0.189617
vt 0.345056 0.252541
vt 0.886740 0.189797
vt 0.871209 0.167605
vt 0.886934 0.160450
vt 0.848856 0.159416
vt 0.969716 0.173230
vt 0.745281 0.181378
vt 0.961809 0.159113
vt 0.769694 0.159166
vt 0.883726 0.163248
vt 0.968879 0.162053
vt 0.914885 0.165564
vt 0.938210 0.164931
vt 0.811446 0.170527
vn 0.644620 0.171024 -0.745128
vn 0.935892 0.177865 -0.304089
vn 0.948789 -0.069019 -0.308280
vn 0.644378 -0.068481 -0.761635
vn 0.935892 0.177865 0.304090
vn 0.948788 -0.069020 0.308281
vn 0.644620 0.171024 0.745128
vn 0.644378 -0.068482 0.761635
vn -0.644620 0.171024 0.745128
vn -0.935892 0.177865 0.304090
vn -0.948789 -0.069019 0.308280
vn -0.644378 -0.068481 0.761635
vn -0.935892 0.177865 -0.304089
vn -0.948789 -0.069020 -0.308280
vn -0.644620 0.171024 -0.745128
vn -0.644378 -0.068482 -0.761635
vn -0.929191 0.214681 -0.300860
vn -0.667138 0.230514 -0.708371
vn -0.929809 0.214548 0.299041
vn -0.669085 0.230113 0.706664
vn 0.929191 0.214681 0.300860
vn 0.667138 0.230515 0.708371
vn 0.929809 0.214548 -0.299040
vn 0.669085 0.230113 -0.706664
vn -0.951057 0.000000 -0.309017
vn -0.649175 0.000000 -0.760639
vn -0.307528 0.880655 -0.360379
vn -0.451426 0.880171 -0.146677
vn -0.951057 -0.000000 0.309017
vn -0.451426 0.880171 0.146677
vn -0.649176 -0.000001 0.760639
vn -0.307528 0.880655 0.360378
vn 0.951056 0.000000 0.309018
vn 0.649175 0.000000 0.760639
vn 0.307528 0.880655 0.360379
vn 0.451426 0.880171 0.146677
vn 0.951057 0.000000 -0.309017
vn 0.451426 0.880171 -0.146677
vn 0.809017 0.000000 -0.587785
vn 0.399050 0.869886 -0.289926
vn -0.948478 0.073591 -0.308179
vn -0.644170 0.073018 -0.761389
vn -0.645893 0.000000 -0.763428
vn -0.951057 0.000000 -0.309017
vn -0.948478 0.073591 0.308179
vn -0.951056 0.000000 0.309017
vn -0.644170 0.073018 0.761389
vn -0.645892 0.000000 0.763429
vn 0.948478 0.073591 0.308180
vn 0.644170 0.073018 0.761389
vn 0.645893 0.000000 0.763428
vn 0.951056 0.000000 0.309018
vn 0.948478 0.073591 -0.308179
vn 0.951057 0.000000 -0.309016
vn 0.807032 0.070007 -0.586343
vn 0.809017 0.000000 -0.587785
vn -0.010144 -0.999877 -0.011940
vn -0.014857 -0.999878 -0.004827
vn -0.014857 -0.999878 0.004828
vn -0.010144 -0.999877 0.011941
vn 0.010144 -0.999877 0.011940
vn 0.014857 -0.999878 0.004828
vn 0.014857 -0.999878 -0.004828
vn 0.010144 -0.999877 -0.011940
vn 0.222506 0.178244 0.958499
vn 0.000000 0.206580 0.978430
vn 0.000000 -0.080088 0.996788
vn 0.236796 -0.076251 0.968563
vn -0.222506 0.178244 0.958499
vn -0.236796 -0.076251 0.968563
vn -0.222506 0.178244 -0.958499
vn -0.105235 0.205433 -0.972997
vn -0.107187 -0.079627 -0.991045
vn -0.236796 -0.076251 -0.968563
vn 0.105236 0.205433 -0.972997
vn 0.222506 0.178245 -0.958499
vn 0.236796 -0.076251 -0.968563
vn 0.107187 -0.079627 -0.991045
vn -0.234015 0.000000 -0.972233
vn -0.000000 0.000000 -1.000000
vn 0.000000 0.844865 -0.534979
vn -0.123360 0.850035 -0.512077
vn 0.234015 0.000000 -0.972233
vn 0.123360 0.850035 -0.512077
vn 0.234015 0.000000 0.972233
vn 0.000000 0.000000 1.000000
vn 0.000000 0.844865 0.534979
vn 0.123360 0.850035 0.512077
vn -0.234015 -0.000001 0.972233
vn -0.123359 0.850036 0.512076
vn 0.237497 0.000000 -0.971388
vn 0.000000 0.000000 -1.000000
vn 0.000000 0.085382 -0.996348
vn 0.236701 0.081294 -0.968176
vn -0.237498 0.000000 -0.971388
vn -0.236701 0.081295 -0.968176
vn -0.237497 0.000000 0.971388
vn 0.000000 0.000000 1.000000
vn 0.000000 0.085382 0.996348
vn -0.236701 0.081295 0.968176
vn 0.237497 0.000000 0.971388
vn 0.236701 0.081294 0.968176
vn 0.199708 0.222007 -0.954374
vn -0.199707 0.222007 -0.954374
vn -0.199707 0.222007 0.954374
vn 0.199708 0.222007 0.954374
vn 0.309017 0.000000 -0.951057
vn 0.150762 0.872912 -0.464000
vn 0.308278 0.069084 -0.948785
vn 0.309016 0.000000 -0.951057
vn 0.003914 -0.999868 -0.015757
vn -0.003914 -0.999868 -0.015756
vn -0.003915 -0.999868 0.015759
vn 0.003914 -0.999868 0.015757
vn 0.000000 0.194229 0.980956
vn -0.104469 0.193166 -0.975589
vn 0.104470 0.193166 -0.975589
vn -0.001732 -0.999870 -0.016010
vn 0.001732 -0.999870 -0.016010
vn 0.000000 -0.999872 0.016011
vn 0.973037 0.010117 -0.230425
vn 0.739277 0.009650 -0.673333
vn -0.735961 0.008228 -0.676974
vn -0.971380 0.009469 -0.237344
vn -0.973037 0.010117 0.230427
vn -0.739277 0.009650 0.673333
vn 0.735960 0.008227 0.676975
vn 0.971380 0.009469 0.237343
vn -0.581036 0.813737 0.015149
vn -0.000000 0.997363 -0.072578
vn -0.000638 0.999990 0.004521
vn -0.228814 0.973466 0.003000
vn 0.560842 0.827904 0.005645
vn 0.229637 0.973276 -0.000159
vn -0.513957 0.857780 -0.007882
vn -0.838062 0.304307 -0.452823
vn -0.860758 0.400846 -0.313716
vn -0.229637 0.973276 0.000158
vn 0.538069 0.842780 -0.014250
vn 0.228813 0.973466 -0.003000
vn 0.856727 0.419359 -0.300260
vn 0.846832 0.331364 -0.416021
vn 0.865756 0.500460 0.002579
vn 0.888128 0.391641 0.240511
vn 0.860758 0.400848 0.313716
vn -0.856729 0.419356 0.300260
vn -0.878332 0.421536 0.225477
vn -0.887316 0.461159 0.001587
vn 0.189827 -0.000211 -0.981818
vn -0.189824 -0.000211 -0.981818
vn -0.189825 -0.000211 0.981818
vn 0.189826 -0.000211 0.981818
vn 0.000001 0.997363 0.072578
vn 0.000639 0.999990 -0.004522
vn -0.105509 -0.001428 -0.994417
vn 0.105512 -0.001428 -0.994417
vn 0.000000 -0.001436 0.999999
vn -0.644930 0.425926 -0.634549
vn -0.269757 0.490058 -0.828900
vn 0.137340 0.509942 -0.849174
vn -0.553255 0.540563 -0.633799
vn 0.417915 0.332424 -0.845483
vn 0.637459 0.188109 -0.747169
vn 0.536249 0.694348 0.479914
vn -0.526160 0.715557 0.459493
vn -0.137342 0.509942 0.849174
vn 0.553255 0.540565 0.633797
vn -0.883531 0.280778 0.374882
vn -0.637460 0.188109 0.747168
vn 0.000670 0.367179 -0.930150
vn 0.000663 0.653205 -0.757181
vn 0.067988 0.687871 -0.722642
vn 0.134863 0.390801 -0.910542
vn 0.001749 0.891566 -0.452888
vn -0.062050 0.892725 -0.446310
vn -0.000667 0.367180 0.930150
vn -0.000660 0.653206 0.757180
vn -0.067986 0.687872 0.722641
vn -0.134861 0.390802 0.910542
vn -0.001746 0.891566 0.452887
vn 0.062053 0.892726 0.446307
vn 0.589290 0.546998 -0.594584
vn -0.065413 0.534990 -0.842322
vn 0.386505 0.507168 -0.770322
vn 0.681508 0.439461 -0.585167
vn -0.617671 0.200670 -0.760404
vn -0.341155 0.372607 -0.863005
vn 0.731409 0.096332 -0.675100
vn 0.610889 0.147058 -0.777939
vn -0.935677 0.078154 0.344094
vn -0.610891 0.147059 0.777937
vn 0.000432 0.226166 -0.974089
vn 0.142091 0.230868 -0.962554
vn -0.000429 0.226167 0.974088
vn -0.142089 0.230868 0.962554
vn 0.998676 0.050905 0.007404
vn 0.982173 0.187974 -0.001171
vn 0.868083 0.303920 0.392511
vn 0.928767 0.084052 0.361008
vn -0.178560 0.982420 -0.054470
vn -0.567838 0.709352 0.417588
vn -0.594455 0.155282 -0.788994
vn -0.715315 0.107492 -0.690485
vn 0.148405 0.987430 0.054394
vn -0.982740 0.184988 0.000984
vn -0.998676 0.050907 -0.007402
vn -0.589294 0.546995 0.594584
vn 0.617668 0.200671 0.760406
vn 0.594451 0.155282 0.788997
vn -0.135615 0.387959 -0.911645
vn -0.142284 0.229015 -0.962968
vn 0.059393 0.892082 -0.447953
vn 0.135616 0.387960 0.911644
vn 0.142286 0.229017 0.962967
vn -0.059394 0.892082 0.447954
vn 0.826397 0.562558 -0.024418
vn 0.483425 0.758353 0.437265
vn 0.065405 0.534988 0.842324
vn -0.072273 0.682015 -0.727758
vn -0.841253 0.540148 0.023117
vn 0.072273 0.682016 0.727757
s 1
g poles_01_low S_P07_LP
usemtl aiStandardSurface1SG
f 2/1/1 1/2/2 32/3/3 25/4/4
f 1/2/2 8/5/5 31/6/6 32/3/3
f 8/5/5 7/7/7 30/8/8 31/6/6
f 6/9/9 5/10/10 28/11/11 29/12/12
f 5/10/10 4/13/13 27/14/14 28/11/11
f 4/13/13 3/15/15 26/16/16 27/14/14
f 3/15/15 4/13/13 12/17/17 11/18/18
f 4/13/13 5/10/10 13/19/19 12/17/17
f 5/10/10 6/9/9 14/20/20 13/19/19
f 7/7/7 8/5/5 16/21/21 15/22/22
f 8/5/5 1/2/2 9/23/23 16/21/21
f 1/2/2 2/1/1 10/24/24 9/23/23
s 3
f 45/185/25 43/176/26 44/27/27 46/28/28
f 47/184/29 45/185/25 46/28/28 48/30/30
f 49/31/31 47/184/29 48/30/30 50/32/32
f 53/183/33 51/172/34 52/35/35 54/36/36
f 55/182/37 53/183/33 54/36/36 56/38/38
f 41/189/39 55/182/37 56/38/38 42/186/40
f 35/41/41 34/42/42 24/43/43 23/44/44
f 36/45/45 35/41/41 23/44/44 22/46/46
f 37/47/47 36/45/45 22/46/46 21/48/48
f 39/49/49 38/50/50 20/51/51 19/52/52
f 40/53/53 39/49/49 19/52/52 17/54/54
f 33/187/55 40/53/53 17/54/54 18/56/56
s 1
f 27/14/14 26/16/16 43/26/57 45/25/58
s 3
f 34/42/42 35/41/41 46/28/28 44/27/27
s 1
f 28/11/11 27/14/14 45/25/58 47/29/59
s 3
f 35/41/41 36/45/45 48/30/30 46/28/28
s 1
f 29/12/12 28/11/11 47/29/59 49/175/60
s 3
f 36/45/45 37/47/47 50/32/32 48/30/30
s 1
f 31/6/6 30/8/8 51/34/61 53/33/62
s 3
f 38/50/50 39/49/49 54/36/36 52/35/35
s 1
f 32/3/3 31/6/6 53/33/62 55/37/63
s 3
f 39/49/49 40/53/53 56/38/38 54/36/36
s 1
f 25/4/4 32/3/3 55/37/63 41/179/64
s 3
f 40/53/53 33/187/55 42/186/40 56/38/38
s 1
f 68/57/65 67/58/66 70/59/67 69/60/68
f 67/58/66 66/61/69 71/62/70 70/59/67
f 74/63/71 73/64/72 76/206/73 75/66/74
f 73/208/75 72/67/76 77/68/77 76/65/78
s 3
f 80/69/79 79/181/80 82/71/81 81/72/82
f 79/181/80 78/178/83 83/74/84 82/71/81
f 86/75/85 85/180/86 88/77/87 87/78/88
f 85/180/86 84/174/89 89/80/90 88/77/87
f 92/81/91 91/82/92 94/83/93 93/84/94
f 91/82/92 90/85/95 95/86/96 94/83/93
f 98/87/97 97/88/98 100/89/99 99/90/100
f 97/88/98 96/91/101 101/92/102 100/89/99
s 1
f 7/7/7 68/57/65 69/60/68 30/8/8
f 66/61/69 6/9/9 29/12/12 71/62/70
f 3/15/15 74/63/71 75/66/74 26/16/16
f 72/67/76 2/1/1 25/4/4 77/68/77
f 2/1/1 72/67/76 62/93/103 10/24/24
f 74/63/71 3/15/15 11/18/18 60/94/104
f 6/9/9 66/61/69 65/95/105 14/20/20
f 68/57/65 7/7/7 15/22/22 63/96/106
s 3
f 78/178/83 41/39/107 42/40/108 83/74/84
f 43/176/26 80/69/79 81/72/82 44/27/27
f 84/174/89 49/31/31 50/32/32 89/80/90
f 51/172/34 86/75/85 87/78/88 52/35/35
f 93/84/94 33/55/109 18/188/110 92/81/91
f 34/42/42 95/86/96 90/85/95 24/43/43
f 99/90/100 37/47/47 21/48/48 98/87/97
f 38/50/50 101/92/102 96/91/101 20/51/51
s 1
f 77/68/77 25/4/4 41/179/64 78/73/111
s 3
f 33/55/109 93/84/94 83/74/84 42/40/108
s 1
f 26/16/16 75/66/74 80/177/112 43/26/57
s 3
f 95/86/96 34/42/42 44/27/27 81/72/82
s 1
f 71/62/70 29/12/12 49/175/60 84/79/113
s 3
f 37/47/47 99/90/100 89/80/90 50/32/32
s 1
f 30/8/8 69/60/68 86/173/114 51/34/61
s 3
f 101/92/102 38/50/50 52/35/35 87/78/88
s 1
f 63/96/106 64/97/115 67/58/66 68/57/65
f 64/97/115 65/95/105 66/61/69 67/58/66
f 60/94/104 61/98/116 73/64/72 74/63/71
f 61/205/117 62/93/103 72/67/76 73/208/75
f 75/66/74 76/206/73 79/70/118 80/177/112
f 76/65/78 77/68/77 78/73/111 79/207/119
f 69/60/68 70/59/67 85/76/120 86/173/114
f 70/59/67 71/62/70 84/79/113 85/76/120
s 3
f 81/72/82 82/71/81 94/83/93 95/86/96
f 82/71/81 83/74/84 93/84/94 94/83/93
f 87/78/88 88/77/87 100/89/99 101/92/102
f 88/77/87 89/80/90 99/90/100 100/89/99
s 1
f 102/203/121 9/23/23 10/24/24 105/202/122
f 106/201/123 11/18/18 12/17/17 108/200/124
f 108/200/124 12/17/17 13/19/19 110/199/125
f 110/199/125 13/19/19 14/20/20 113/198/126
f 114/196/127 15/22/22 16/21/21 116/197/128
f 116/197/128 16/21/21 9/23/23 102/203/121
s 12
f 59/107/129 58/221/130 126/109/131 124/110/132
f 58/221/130 57/111/133 129/112/134 126/109/131
s 13
f 59/220/135 103/215/136 104/114/137
f 59/220/135 104/114/137 123/115/138
f 57/219/139 118/116/140 107/117/141
f 57/219/139 107/117/141 109/118/142
s 12
f 57/111/133 109/212/143 111/119/144
f 57/111/133 111/119/144 112/120/145
f 57/111/133 112/120/145 129/112/134
f 59/107/129 124/110/132 115/121/146
f 59/107/129 115/121/146 117/122/147
f 59/107/129 117/122/147 103/113/148
s 1
f 105/202/122 10/24/24 62/93/103 122/193/149
f 119/195/150 60/94/104 11/18/18 106/201/123
f 113/198/126 14/20/20 65/95/105 128/190/151
f 125/192/152 63/96/106 15/22/22 114/196/127
s 13
f 57/219/139 58/108/153 120/127/154 118/116/140
f 58/108/153 59/220/135 123/115/138 120/127/154
s 1
f 119/195/150 121/194/155 61/98/116 60/94/104
f 121/204/156 122/193/149 62/93/103 61/205/117
f 125/192/152 127/191/157 64/97/115 63/96/106
f 127/191/157 128/190/151 65/95/105 64/97/115
s 13
f 132/130/158 131/218/159 134/132/160 133/133/161
f 131/218/159 130/213/162 135/135/163 134/132/160
s 12
f 138/136/164 137/137/165 140/138/166 139/139/167
f 137/137/165 136/140/168 141/141/169 140/138/166
s 13
f 144/142/170 143/143/171 146/144/172 145/145/173
f 143/143/171 142/146/174 147/147/175 146/144/172
s 12
f 150/148/176 149/149/177 152/150/178 151/151/179
f 149/149/177 148/152/180 153/153/181 152/150/178
s 13
f 159/154/182 158/155/183 161/217/184 160/211/185
f 158/155/183 157/158/186 162/159/187 161/217/184
f 103/215/136 132/130/158 133/133/161 104/114/137
f 130/213/162 102/99/188 105/100/189 135/135/163
s 12
f 111/119/144 138/136/164 139/139/167 112/120/145
f 136/140/168 110/103/190 113/104/191 141/141/169
s 13
f 121/128/192 144/142/170 145/145/173 122/123/193
f 142/146/174 120/127/154 123/115/138 147/147/175
s 12
f 127/129/194 150/148/176 151/151/179 128/125/195
f 148/152/180 126/109/131 129/112/134 153/153/181
f 102/214/196 130/134/197 154/160/198 116/106/199
f 132/216/200 103/113/148 117/122/147 156/161/201
s 13
f 107/117/141 159/154/182 160/211/185 109/118/142
f 157/158/186 106/101/202 108/209/203 162/159/187
s 12
f 109/212/143 160/157/204 138/136/164 111/119/144
f 162/210/205 108/102/206 110/103/190 136/140/168
f 115/121/146 165/162/207 156/161/201 117/122/147
f 163/163/208 114/105/209 116/106/199 154/160/198
s 13
f 106/101/202 157/158/186 166/164/210 119/124/211
f 159/154/182 107/117/141 118/116/140 168/165/212
f 119/124/211 166/164/210 144/142/170 121/128/192
f 168/165/212 118/116/140 120/127/154 142/146/174
f 104/114/137 133/133/161 147/147/175 123/115/138
f 135/135/163 105/100/189 122/123/193 145/145/173
s 12
f 114/105/209 163/163/208 169/166/213 125/126/214
f 165/162/207 115/121/146 124/110/132 171/167/215
f 125/126/214 169/166/213 150/148/176 127/129/194
f 171/167/215 124/110/132 126/109/131 148/152/180
f 112/120/145 139/139/167 153/153/181 129/112/134
f 141/141/169 113/104/191 128/125/195 151/151/179
f 130/134/197 131/131/216 155/168/217 154/160/198
f 131/131/216 132/216/200 156/161/201 155/168/217
s 13
f 133/133/161 134/132/160 146/144/172 147/147/175
f 134/132/160 135/135/163 145/145/173 146/144/172
s 12
f 139/139/167 140/138/166 152/150/178 153/153/181
f 140/138/166 141/141/169 151/151/179 152/150/178
f 154/160/198 155/168/217 164/169/218 163/163/208
f 155/168/217 156/161/201 165/162/207 164/169/218
s 13
f 157/158/186 158/155/183 167/170/219 166/164/210
f 158/155/183 159/154/182 168/165/212 167/170/219
s 12
f 136/140/168 137/137/165 161/156/220 162/210/205
f 137/137/165 138/136/164 160/157/204 161/156/220
f 163/163/208 164/169/218 170/171/221 169/166/213
f 164/169/218 165/162/207 171/167/215 170/171/221
s 13
f 142/146/174 143/143/171 167/170/219 168/165/212
f 143/143/171 144/142/170 166/164/210 167/170/219
s 12
f 148/152/180 149/149/177 170/171/221 171/167/215
f 149/149/177 150/148/176 169/166/213 170/171/221
g default
v -3.320518 66.895302 12.049226
v -3.601425 67.281944 12.049226
v -4.055946 67.429626 12.049226
v -4.510468 67.281944 12.049226
v -4.791382 66.895302 12.049226
v -4.791382 66.417389 12.049226
v -4.510468 66.030746 12.049226
v -4.055946 65.883064 12.049226
v -3.601425 66.030746 12.049226
v -3.320518 66.417389 12.049226
v -3.320518 66.895302 12.971589
v -3.601425 67.281944 12.971589
v -4.055946 67.429626 12.971589
v -4.510468 67.281944 12.971589
v -4.791382 66.895302 12.971589
v -4.791382 66.417389 12.971589
v -4.510468 66.030746 12.971589
v -4.055946 65.883064 12.971589
v -3.601425 66.030746 12.971589
v -3.320518 66.417389 12.971589
v -4.055946 66.656342 12.971589
vt 0.053116 0.159107
vt 0.053116 0.161726
vt 0.051759 0.161726
vt 0.051759 0.159107
vt 0.050402 0.161726
vt 0.050402 0.159107
vt 0.049045 0.161726
vt 0.049045 0.159107
vt 0.047688 0.161726
vt 0.047688 0.159107
vt 0.046331 0.161726
vt 0.046331 0.159107
vt 0.044974 0.161726
vt 0.044974 0.159107
vt 0.043617 0.161726
vt 0.057187 0.159107
vt 0.055830 0.161726
vt 0.055830 0.159107
vt 0.054473 0.161726
vt 0.054473 0.159107
vt 0.278545 0.161302
vt 0.280633 0.161981
vt 0.279835 0.163079
vt 0.278545 0.163498
vt 0.277254 0.163079
vt 0.276456 0.161981
vt 0.276456 0.160624
vt 0.277254 0.159526
vt 0.278545 0.159107
vt 0.279835 0.159526
vt 0.280633 0.160624
vt 0.057187 0.161726
vt 0.043617 0.159107
vn 0.951058 0.309013 0.000000
vn 0.951058 0.309013 0.000000
vn 0.587789 0.809014 0.000000
vn 0.587789 0.809014 0.000000
vn 0.000000 1.000000 0.000000
vn 0.000000 1.000000 0.000000
vn -0.587785 0.809017 0.000000
vn -0.587785 0.809017 0.000000
vn -0.951056 0.309020 0.000000
vn -0.951056 0.309020 0.000000
vn -0.951056 -0.309020 0.000000
vn -0.951056 -0.309020 0.000000
vn -0.587785 -0.809017 0.000000
vn -0.587785 -0.809017 0.000000
vn -0.309016 -0.951057 0.000000
vn -0.309016 -0.951057 0.000000
vn 0.309016 -0.951057 0.000000
vn 0.309016 -0.951057 0.000000
vn 0.587789 -0.809014 0.000000
vn 0.587789 -0.809014 0.000000
vn 0.951058 -0.309013 0.000000
vn 0.951058 -0.309013 0.000000
vn 0.000000 0.000000 1.000000
vn 0.000000 0.000000 1.000000
vn 0.000000 0.000000 1.000000
vn 0.000000 0.000000 1.000000
vn -0.000001 0.000000 1.000000
vn -0.000001 0.000000 1.000000
vn 0.000000 0.000000 1.000000
vn 0.000000 0.000000 1.000000
vn 0.000000 0.000000 1.000000
vn 0.000001 0.000000 1.000000
vn 0.000001 0.000000 1.000000
s 1
g S_P07_LP poles_02_low
usemtl aiStandardSurface1SG
f 182/222/222 172/223/223 173/224/224 183/225/225
f 183/225/225 173/224/224 174/226/226 184/227/227
f 184/227/227 174/226/226 175/228/228 185/229/229
f 185/229/229 175/228/228 176/230/230 186/231/231
f 186/231/231 176/230/230 177/232/232 187/233/233
f 187/233/233 177/232/232 178/234/234 188/235/235
f 188/235/235 178/234/234 179/236/236 189/254/237
f 189/237/238 179/253/239 180/238/240 190/239/241
f 190/239/241 180/238/240 181/240/242 191/241/243
f 191/241/243 181/240/242 172/223/223 182/222/222
s 3
f 192/242/244 182/243/245 183/244/246
f 192/242/244 183/244/246 184/245/247
f 192/242/244 184/245/247 185/246/248
f 192/242/244 185/246/248 186/247/249
f 192/242/244 186/247/249 187/248/250
f 192/242/244 187/248/250 188/249/251
f 192/242/244 188/249/251 189/250/252
f 192/242/244 189/250/252 190/251/253
f 192/242/244 190/251/253 191/252/254
f 192/242/244 191/252/254 182/243/245
g default
v -0.089642 65.051628 13.695210
v -0.089642 85.370262 13.695210
v -0.089642 85.370262 11.101787
v -0.089642 65.051628 11.101787
v -5.370686 65.415321 12.381148
v -4.492664 65.051628 12.599625
v -5.734379 66.293343 12.290652
v -5.370686 65.415321 9.787725
v -5.734379 66.293343 9.697229
v -4.492664 65.051628 10.006201
v -5.370686 85.006569 12.381148
v -5.734379 84.128548 12.290652
v -4.492664 85.370262 12.599625
v -5.370686 85.006569 9.787725
v -4.492664 85.370262 10.006201
v -5.734379 84.128548 9.697229
v 4.313389 85.370262 12.599624
v 5.555103 84.128548 12.290652
v 5.191410 85.006569 12.381148
v 4.313389 85.370262 10.006201
v 5.191410 85.006569 9.787725
v 5.555103 84.128548 9.697229
v 4.313389 65.051628 12.599624
v 5.191410 65.415321 12.381148
v 5.555103 66.293343 12.290652
v 4.313389 65.051628 10.006201
v 5.555103 66.293343 9.697229
v 5.191410 65.415321 9.787725
v -0.089642 84.951027 13.695210
v -0.089642 84.103989 13.695210
v -0.089642 66.286896 13.695210
v -0.089642 65.440483 13.695210
vt 0.613135 0.282203
vt 0.658251 0.347572
vt 0.658251 0.398213
vt 0.613129 0.231563
vt 0.616762 0.228036
vt 0.658251 0.230732
vt 0.658251 0.243233
vt 0.629645 0.228035
vt 0.646162 0.231559
vt 0.658251 0.261133
vt 0.658251 0.311774
vt 0.646167 0.282200
vt 0.629651 0.285728
vt 0.658251 0.329672
vt 0.658251 0.342175
vt 0.650887 0.342175
vt 0.642534 0.285726
vt 0.658251 0.317171
vt 0.658251 0.255736
vt 0.650887 0.255736
vt 0.614193 0.229069
vt 0.658251 0.400911
vt 0.614199 0.284696
vt 0.658251 0.344873
vt 0.645103 0.284693
vt 0.658251 0.314472
vt 0.645098 0.229066
vt 0.658251 0.258435
vt 0.629651 0.284537
vt 0.629651 0.282132
vt 0.629646 0.231543
vt 0.629645 0.229139
vt 0.650887 0.258435
vt 0.642528 0.228034
vt 0.650887 0.261133
vt 0.650887 0.314472
vt 0.650887 0.311774
vt 0.650887 0.317171
vt 0.650887 0.344873
vt 0.616768 0.285729
vt 0.650887 0.347572
vt 0.650887 0.228034
vt 0.650887 0.398213
vt 0.650887 0.230732
vt 0.650887 0.329672
vt 0.650887 0.243233
vt 0.650887 0.400911
vt 0.658251 0.228034
vn -0.999789 0.020547 0.000000
vn -0.999832 0.018309 0.000000
vn -0.999832 -0.018309 0.000000
vn -0.999789 -0.020547 0.000000
vn -0.053257 -0.998581 0.000000
vn -0.087728 -0.996144 0.000000
vn 0.000000 -1.000000 0.000000
vn 0.000000 -1.000000 0.000000
vn 0.999789 -0.020547 0.000000
vn 0.999832 -0.018309 0.000000
vn 0.999832 0.018309 0.000000
vn 0.999789 0.020547 0.000000
vn 0.000000 1.000000 0.000000
vn 0.000000 1.000000 0.000000
vn -0.087728 0.996144 0.000000
vn -0.053257 0.998581 0.000000
vn 0.053257 0.998581 0.000000
vn 0.087728 0.996145 0.000000
vn 0.087728 -0.996145 0.000000
vn 0.053257 -0.998581 0.000000
vn -0.382688 -0.923878 0.000000
vn -0.382688 -0.923878 0.000000
vn -0.923878 -0.382688 0.000000
vn -0.923878 -0.382688 0.000000
vn -0.677829 0.735220 0.000000
vn -0.737607 0.675230 0.000000
vn 0.677829 0.735220 0.000000
vn 0.737607 0.675230 0.000000
vn 0.677829 -0.735220 0.000000
vn 0.737607 -0.675230 0.000000
vn -0.241464 0.000000 0.970410
vn 0.000000 -0.000000 1.000000
vn 0.000000 -0.000002 1.000000
vn -0.241462 -0.000002 0.970410
vn 0.241464 0.000000 0.970410
vn 0.241462 -0.000001 0.970410
vn -0.241463 0.000000 0.970410
vn 0.000000 0.000000 1.000000
vn 0.241463 0.000000 0.970410
vn -0.241463 -0.000000 0.970410
vn 0.000000 -0.000000 1.000000
vn 0.241463 -0.000000 0.970410
vn -0.241464 -0.000000 0.970410
vn 0.000000 0.000000 1.000000
vn 0.241464 -0.000000 0.970410
vn -0.241463 0.000002 0.970410
vn 0.000001 0.000002 1.000000
vn 0.241461 0.000001 0.970411
s 1
g S_P07_LP poles_03_low
usemtl aiStandardSurface1SG
f 204/295/255 208/256/256 201/257/257 199/297/258
f 198/298/259 202/260/260 196/261/261 193/300/262
f 217/289/263 219/264/264 214/265/265 210/291/266
f 194/299/267 195/268/268 207/269/269 205/270/270
f 209/292/271 212/272/272 195/268/268 194/299/267
f 193/300/262 196/261/261 218/273/273 215/274/274
f 198/298/259 197/296/275 200/302/276 202/260/260
f 197/301/277 199/297/258 201/257/257 200/276/278
f 204/295/255 203/293/279 206/278/280 208/256/256
f 203/293/279 205/270/270 207/269/269 206/278/280
f 209/292/271 211/290/281 213/280/282 212/272/272
f 211/290/281 210/291/266 214/265/265 213/280/282
f 217/289/263 216/287/283 220/282/284 219/264/264
f 216/287/283 215/274/274 218/273/273 220/282/284
s 5
f 203/277/285 221/283/286 194/267/287 205/294/288
f 221/283/286 211/279/289 209/271/290 194/267/287
f 203/277/285 204/255/291 222/284/292 221/283/286
f 210/266/293 211/279/289 221/283/286 222/284/292
f 222/284/292 204/255/291 199/258/294 223/285/295
f 210/266/293 222/284/292 223/285/295 217/263/296
f 223/285/295 199/258/294 197/275/297 224/286/298
f 217/263/296 223/285/295 224/286/298 216/281/299
f 224/286/298 197/275/297 198/259/300 193/262/301
f 216/281/299 224/286/298 193/262/301 215/288/302
g default
v 5.048851 66.895302 12.049226
v 4.767944 67.281944 12.049226
v 4.313416 67.429626 12.049226
v 3.858894 67.281944 12.049226
v 3.577988 66.895302 12.049226
v 3.577988 66.417389 12.049226
v 3.858894 66.030746 12.049226
v 4.313416 65.883064 12.049226
v 4.767944 66.030746 12.049226
v 5.048851 66.417389 12.049226
v 5.048851 66.895302 12.971589
v 4.767944 67.281944 12.971589
v 4.313416 67.429626 12.971589
v 3.858894 67.281944 12.971589
v 3.577988 66.895302 12.971589
v 3.577988 66.417389 12.971589
v 3.858894 66.030746 12.971589
v 4.313416 65.883064 12.971589
v 4.767944 66.030746 12.971589
v 5.048851 66.417389 12.971589
v 4.313416 66.656342 12.971589
vt 0.015358 0.159107
vt 0.015358 0.161726
vt 0.014001 0.161726
vt 0.014001 0.159107
vt 0.012644 0.161726
vt 0.012644 0.159107
vt 0.011287 0.161726
vt 0.011287 0.159107
vt 0.009930 0.161726
vt 0.009930 0.159107
vt 0.008573 0.161726
vt 0.008573 0.159107
vt 0.007216 0.161726
vt 0.007216 0.159107
vt 0.005859 0.161726
vt 0.019429 0.159107
vt 0.018072 0.161726
vt 0.018072 0.159107
vt 0.016715 0.161726
vt 0.016715 0.159107
vt 0.083463 0.161302
vt 0.085551 0.161981
vt 0.084754 0.163079
vt 0.083463 0.163498
vt 0.082173 0.163079
vt 0.081375 0.161981
vt 0.081375 0.160624
vt 0.082173 0.159526
vt 0.083463 0.159107
vt 0.084754 0.159526
vt 0.085551 0.160624
vt 0.019429 0.161726
vt 0.005859 0.159107
vn 0.951058 0.309013 0.000000
vn 0.951058 0.309013 0.000000
vn 0.587785 0.809017 0.000000
vn 0.587785 0.809017 0.000000
vn 0.000000 1.000000 0.000000
vn 0.000000 1.000000 0.000000
vn -0.587789 0.809014 0.000000
vn -0.587789 0.809014 0.000000
vn -0.951058 0.309013 0.000000
vn -0.951058 0.309013 0.000000
vn -0.951058 -0.309013 0.000000
vn -0.951058 -0.309013 0.000000
vn -0.587789 -0.809014 0.000000
vn -0.587789 -0.809014 0.000000
vn -0.309016 -0.951057 0.000000
vn -0.309016 -0.951057 0.000000
vn 0.309011 -0.951058 0.000000
vn 0.309011 -0.951058 0.000000
vn 0.587785 -0.809017 0.000000
vn 0.587785 -0.809017 0.000000
vn 0.951058 -0.309013 0.000000
vn 0.951058 -0.309013 0.000000
vn -0.000000 0.000000 1.000000
vn 0.000000 0.000000 1.000000
vn 0.000000 0.000000 1.000000
vn 0.000000 0.000000 1.000000
vn -0.000001 0.000000 1.000000
vn -0.000001 0.000000 1.000000
vn 0.000000 0.000000 1.000000
vn 0.000000 0.000000 1.000000
vn 0.000000 0.000000 1.000000
vn 0.000001 0.000000 1.000000
vn 0.000001 0.000000 1.000000
s 1
g S_P07_LP poles_04_low
usemtl aiStandardSurface1SG
f 235/303/303 225/304/304 226/305/305 236/306/306
f 236/306/306 226/305/305 227/307/307 237/308/308
f 237/308/308 227/307/307 228/309/309 238/310/310
f 238/310/310 228/309/309 229/311/311 239/312/312
f 239/312/312 229/311/311 230/313/313 240/314/314
f 240/314/314 230/313/313 231/315/315 241/316/316
f 241/316/316 231/315/315 232/317/317 242/335/318
f 242/318/319 232/334/320 233/319/321 243/320/322
f 243/320/322 233/319/321 234/321/323 244/322/324
f 244/322/324 234/321/323 225/304/304 235/303/303
s 3
f 245/323/325 235/324/326 236/325/327
f 245/323/325 236/325/327 237/326/328
f 245/323/325 237/326/328 238/327/329
f 245/323/325 238/327/329 239/328/330
f 245/323/325 239/328/330 240/329/331
f 245/323/325 240/329/331 241/330/332
f 245/323/325 241/330/332 242/331/333
f 245/323/325 242/331/333 243/332/334
f 245/323/325 243/332/334 244/333/335
f 245/323/325 244/333/335 235/324/326
g default
v 5.048851 84.237061 12.049226
v 4.767944 84.623703 12.049226
v 4.313416 84.771385 12.049226
v 3.858894 84.623703 12.049226
v 3.577988 84.237061 12.049226
v 3.577988 83.759148 12.049226
v 3.858894 83.372513 12.049226
v 4.313416 83.224831 12.049226
v 4.767944 83.372513 12.049226
v 5.048851 83.759148 12.049226
v 5.048851 84.237061 12.971589
v 4.767944 84.623703 12.971589
v 4.313416 84.771385 12.971589
v 3.858894 84.623703 12.971589
v 3.577988 84.237061 12.971589
v 3.577988 83.759148 12.971589
v 3.858894 83.372513 12.971589
v 4.313416 83.224831 12.971589
v 4.767944 83.372513 12.971589
v 5.048851 83.759148 12.971589
v 4.313416 83.998108 12.971589
vt 0.028809 0.161726
vt 0.028809 0.159107
vt 0.030166 0.159107
vt 0.030166 0.161726
vt 0.031523 0.159107
vt 0.031523 0.161726
vt 0.032880 0.159107
vt 0.032880 0.161726
vt 0.034237 0.159107
vt 0.034237 0.161726
vt 0.035594 0.159107
vt 0.035594 0.161726
vt 0.036951 0.159107
vt 0.036951 0.161726
vt 0.038308 0.159107
vt 0.024738 0.161726
vt 0.026095 0.159107
vt 0.026095 0.161726
vt 0.027452 0.159107
vt 0.027452 0.161726
vt 0.269105 0.161302
vt 0.271193 0.161981
vt 0.270396 0.163079
vt 0.269105 0.163498
vt 0.267815 0.163079
vt 0.267017 0.161981
vt 0.267017 0.160624
vt 0.267815 0.159526
vt 0.269105 0.159107
vt 0.270396 0.159526
vt 0.271193 0.160624
vt 0.024738 0.159107
vt 0.038308 0.161726
vn 0.951058 0.309013 0.000000
vn 0.951058 0.309013 0.000000
vn 0.587785 0.809017 0.000000
vn 0.587785 0.809017 0.000000
vn 0.000000 1.000000 0.000000
vn 0.000000 1.000000 0.000000
vn -0.587789 0.809014 0.000000
vn -0.587789 0.809014 0.000000
vn -0.951058 0.309013 0.000000
vn -0.951058 0.309013 0.000000
vn -0.951057 -0.309015 0.000000
vn -0.951057 -0.309015 0.000000
vn -0.587784 -0.809018 0.000000
vn -0.587784 -0.809018 0.000000
vn -0.309016 -0.951057 0.000000
vn -0.309016 -0.951057 0.000000
vn 0.309011 -0.951058 0.000000
vn 0.309011 -0.951058 0.000000
vn 0.587780 -0.809021 0.000000
vn 0.587780 -0.809021 0.000000
vn 0.951057 -0.309015 0.000000
vn 0.951057 -0.309015 0.000000
vn -0.000000 0.000000 1.000000
vn 0.000000 0.000000 1.000000
vn 0.000000 0.000000 1.000000
vn 0.000000 0.000000 1.000000
vn -0.000001 0.000000 1.000000
vn -0.000001 0.000000 1.000000
vn 0.000000 0.000000 1.000000
vn 0.000000 0.000000 1.000000
vn 0.000000 0.000000 1.000000
vn -0.000001 0.000000 1.000000
vn -0.000001 0.000000 1.000000
s 1
g S_P07_LP poles_05_low
usemtl aiStandardSurface1SG
f 256/336/336 246/337/337 247/338/338 257/339/339
f 257/339/339 247/338/338 248/340/340 258/341/341
f 258/341/341 248/340/340 249/342/342 259/343/343
f 259/343/343 249/342/342 250/344/344 260/345/345
f 260/345/345 250/344/344 251/346/346 261/347/347
f 261/347/347 251/346/346 252/348/348 262/349/349
f 262/349/349 252/348/348 253/350/350 263/368/351
f 263/351/352 253/367/353 254/352/354 264/353/355
f 264/353/355 254/352/354 255/354/356 265/355/357
f 265/355/357 255/354/356 246/337/337 256/336/336
s 3
f 266/356/358 256/357/359 257/358/360
f 266/356/358 257/358/360 258/359/361
f 266/356/358 258/359/361 259/360/362
f 266/356/358 259/360/362 260/361/363
f 266/356/358 260/361/363 261/362/364
f 266/356/358 261/362/364 262/363/365
f 266/356/358 262/363/365 263/364/366
f 266/356/358 263/364/366 264/365/367
f 266/356/358 264/365/367 265/366/368
f 266/356/358 265/366/368 256/357/359
g default
v -3.320518 84.237061 12.049226
v -3.601425 84.623703 12.049226
v -4.055946 84.771385 12.049226
v -4.510468 84.623703 12.049226
v -4.791382 84.237061 12.049226
v -4.791382 83.759148 12.049226
v -4.510468 83.372513 12.049226
v -4.055946 83.224831 12.049226
v -3.601425 83.372513 12.049226
v -3.320518 83.759148 12.049226
v -3.320518 84.237061 12.971589
v -3.601425 84.623703 12.971589
v -4.055946 84.771385 12.971589
v -4.510468 84.623703 12.971589
v -4.791382 84.237061 12.971589
v -4.791382 83.759148 12.971589
v -4.510468 83.372513 12.971589
v -4.055946 83.224831 12.971589
v -3.601425 83.372513 12.971589
v -3.320518 83.759148 12.971589
v -4.055946 83.998108 12.971589
vt 0.092902 0.161302
vt 0.071995 0.161726
vt 0.070638 0.161726
vt 0.094991 0.161981
vt 0.069281 0.161726
vt 0.094193 0.163079
vt 0.067924 0.161726
vt 0.092902 0.163498
vt 0.066567 0.161726
vt 0.091612 0.163079
vt 0.065210 0.161726
vt 0.090814 0.161981
vt 0.063853 0.161726
vt 0.090814 0.160624
vt 0.062496 0.161726
vt 0.091612 0.159526
vt 0.074709 0.161726
vt 0.092902 0.159107
vt 0.073352 0.161726
vt 0.094193 0.159526
vt 0.094991 0.160624
vt 0.071995 0.159107
vt 0.073352 0.159107
vt 0.074709 0.159107
vt 0.076066 0.159107
vt 0.062496 0.159107
vt 0.063853 0.159107
vt 0.076066 0.161726
vt 0.065210 0.159107
vt 0.066567 0.159107
vt 0.067924 0.159107
vt 0.069281 0.159107
vt 0.070638 0.159107
vn 0.951058 0.309013 0.000000
vn 0.951058 0.309013 0.000000
vn 0.587789 0.809014 0.000000
vn 0.587789 0.809014 0.000000
vn 0.000000 1.000000 0.000000
vn 0.000000 1.000000 0.000000
vn -0.587785 0.809017 0.000000
vn -0.587785 0.809017 0.000000
vn -0.951056 0.309020 0.000000
vn -0.951056 0.309020 0.000000
vn -0.951055 -0.309022 0.000000
vn -0.951055 -0.309022 0.000000
vn -0.587780 -0.809021 0.000000
vn -0.587780 -0.809021 0.000000
vn -0.309016 -0.951057 0.000000
vn -0.309016 -0.951057 0.000000
vn 0.309016 -0.951057 0.000000
vn 0.309016 -0.951057 0.000000
vn 0.587784 -0.809018 0.000000
vn 0.587784 -0.809018 0.000000
vn 0.951057 -0.309015 0.000000
vn 0.951057 -0.309015 0.000000
vn -0.000000 0.000000 1.000000
vn 0.000000 0.000000 1.000000
vn 0.000000 0.000000 1.000000
vn 0.000000 0.000000 1.000000
vn -0.000001 0.000000 1.000000
vn -0.000001 0.000000 1.000000
vn 0.000000 0.000000 1.000000
vn 0.000000 0.000000 1.000000
vn 0.000000 0.000000 1.000000
vn -0.000001 0.000000 1.000000
vn -0.000001 0.000000 1.000000
s 1
g S_P07_LP poles_06_low
usemtl aiStandardSurface1SG
f 277/390/369 267/370/370 268/371/371 278/401/372
f 278/401/372 268/371/371 269/373/373 279/400/374
f 279/400/374 269/373/373 270/375/375 280/399/376
f 280/399/376 270/375/375 271/377/377 281/398/378
f 281/398/378 271/377/377 272/379/379 282/397/380
f 282/397/380 272/379/379 273/381/381 283/395/382
f 283/395/382 273/381/381 274/383/383 284/394/384
f 284/393/385 274/396/386 275/385/387 285/392/388
f 285/392/388 275/385/387 276/387/389 286/391/390
f 286/391/390 276/387/389 267/370/370 277/390/369
s 3
f 287/369/391 277/372/392 278/374/393
f 287/369/391 278/374/393 279/376/394
f 287/369/391 279/376/394 280/378/395
f 287/369/391 280/378/395 281/380/396
f 287/369/391 281/380/396 282/382/397
f 287/369/391 282/382/397 283/384/398
f 287/369/391 283/384/398 284/386/399
f 287/369/391 284/386/399 285/388/400
f 287/369/391 285/388/400 286/389/401
f 287/369/391 286/389/401 277/372/392
g default
v -13.227863 583.014954 19.926176
v 14.600819 583.014954 19.926176
v -13.227863 583.014954 -19.926176
v 14.600819 583.014954 -19.926176
v -13.227863 590.203430 14.296907
v 14.600811 590.203430 14.296907
v 14.600811 590.203430 -14.296907
v -13.227863 590.203430 -14.296907
v -9.148266 571.864502 0.000000
v 10.521221 571.864502 0.000000
v 14.600811 590.203430 0.000000
v -13.227863 590.203430 0.000000
v -9.148266 566.721191 7.970472
v 10.521198 566.721191 7.970472
v 14.600811 590.203430 5.718762
v -13.227863 590.203430 5.718762
v -9.148266 566.721191 -7.970471
v -13.227863 590.203430 -5.718762
v 14.600811 590.203430 -5.718762
v 10.521198 566.721191 -7.970471
v -8.988827 558.802429 -11.557183
v -13.227863 590.203430 -8.292206
v 14.600811 590.203430 -8.292206
v 10.361774 558.802429 -11.557183
v -8.988827 558.802429 11.557185
v 10.361774 558.802429 11.557185
v 14.600811 590.203430 8.292206
v -13.227863 590.203430 8.292206
v 14.600811 583.647888 21.901745
v -13.227863 583.647888 21.901745
v -13.227863 591.666931 15.208212
v 14.600819 591.666931 15.208212
v 14.600819 591.903442 8.292206
v -13.227863 591.903442 8.292206
v -13.227863 583.647888 -21.901745
v 14.600811 583.647888 -21.901745
v -7.588818 557.581787 10.171944
v 8.961773 557.581787 10.171944
v -13.227863 591.666931 -15.208206
v 14.600819 591.666931 -15.208206
v 8.961773 557.581787 -10.171943
v -7.588818 557.581787 -10.171943
v -13.227863 591.903442 -8.292206
v 14.600819 591.903442 -8.292206
v -9.148266 569.841309 0.000000
v 10.521221 569.841309 0.000000
v 10.521183 565.616882 6.546454
v -9.148266 565.616882 6.546454
v 14.600819 591.903442 5.718762
v -13.227863 591.903442 5.718762
v 14.600819 591.903442 0.000000
v -13.227863 591.903442 0.000000
v 14.600819 591.903442 -5.718762
v -13.227863 591.903442 -5.718762
v 10.521183 565.616882 -6.546452
v -9.148235 565.616882 -6.546452
v 11.414021 558.626770 11.443325
v 15.672276 582.926514 11.499855
v 15.670811 582.935669 19.907139
v 15.670811 590.203430 8.292206
v 15.670811 590.203430 14.296907
v 15.672276 582.926514 -11.499855
v 11.414021 558.626770 -11.443323
v 15.670811 582.935669 -19.907139
v 15.670811 590.203430 -8.292206
v 15.670811 590.203430 -14.296907
v 11.559269 566.492249 7.832986
v 15.671764 582.898804 7.900749
v 11.561108 571.598267 0.000000
v 15.672550 582.880127 0.000000
v 15.670811 590.203430 5.718762
v 15.670811 590.203430 0.000000
v 15.671764 582.898804 -7.900751
v 15.670811 590.203430 -5.718762
v 11.559269 566.492249 -7.832986
v -14.299313 582.926514 11.499855
v -10.041058 558.626770 11.443325
v -14.297863 582.935669 19.907139
v -14.297863 590.203430 8.292206
v -14.297863 590.203430 14.296907
v -10.041058 558.626770 -11.443323
v -14.299313 582.926514 -11.499855
v -14.297863 582.935669 -19.907139
v -14.297863 590.203430 -8.292206
v -14.297863 590.203430 -14.296907
v -14.299587 582.880127 0.000000
v -10.188145 571.598267 0.000000
v -10.186337 566.492249 7.832987
v -14.298817 582.898804 7.900749
v -14.297863 590.203430 0.000000
v -14.297863 590.203430 5.718762
v -10.186337 566.492249 -7.832986
v -14.298809 582.898804 -7.900750
v -14.297863 590.203430 -5.718762
v 0.686489 583.647888 21.901745
v 0.686474 591.666931 15.208212
v 0.686474 591.903442 8.292206
v 0.686474 591.903442 5.718762
v 0.686474 591.903442 0.000000
v 0.686474 591.903442 -5.718762
v 0.686474 591.903442 -8.292206
v 0.686474 591.666931 -15.208206
v 0.686489 583.647888 -21.901745
v 0.686489 557.581787 -10.171943
v 0.686489 565.616882 -6.546452
v 0.686489 569.540161 0.000000
v 0.686489 565.616882 6.546454
v 0.686489 557.581787 10.171944
v -11.108349 570.005310 19.926176
v -12.172161 569.886841 19.897730
v -12.170193 571.882385 11.471589
v -12.242573 575.801208 7.866867
v -12.243862 578.344910 0.000000
v -12.242573 575.801208 -7.866867
v -12.170193 571.882385 -11.471589
v -12.172161 569.886841 -19.897730
v -11.108349 570.005310 -19.926176
v -10.408337 569.021423 -21.763964
v 0.686489 569.021423 -21.763964
v 11.781292 569.021423 -21.763964
v 12.481297 570.005310 -19.926176
v 13.545109 569.886841 -19.897730
v 13.543148 571.882385 -11.471589
v 13.615513 575.801208 -7.866869
v 13.616825 578.344910 0.000000
v 13.615513 575.801208 7.866867
v 13.543148 571.882385 11.471589
v 13.545109 569.886841 19.897730
v 12.481297 570.005310 19.926176
v 11.781292 569.021423 21.763964
v -10.408337 569.021423 21.763964
v 6.542416 569.139404 21.764929
v 0.648540 563.321655 21.717321
v 4.800426 565.009888 21.731136
v -3.481113 565.063538 21.731575
v -5.169453 569.215332 21.765549
v 0.724415 575.033081 21.813154
v 4.854076 573.291199 21.798901
v -3.427464 573.344849 21.799339
v 2.892399 563.752869 21.720850
v 6.082142 566.901428 21.746614
v -1.589535 563.781860 21.721088
v -4.738216 566.971497 21.747189
v 6.111172 571.383240 21.783289
v 2.962498 574.572876 21.809389
v -1.519444 574.601868 21.809626
v -4.709179 571.453308 21.783861
v 5.665585 569.157837 20.205027
v 0.686481 569.420959 20.207180
v 0.671070 566.949219 20.186954
v 5.274227 567.254944 20.189455
v -3.925953 567.314514 20.189943
v -4.292622 569.222412 20.205555
v 0.718746 574.169067 20.246031
v 0.712849 573.330750 20.239172
v 4.230045 572.687988 20.233912
v 2.621708 573.777771 20.242830
v -2.811466 572.733582 20.234285
v -1.189152 573.802368 20.243031
v -3.901264 571.125305 20.221125
v 0.700039 571.431091 20.223629
v 5.298908 571.065735 20.220638
v -2.857082 565.692261 20.176668
v 0.659229 565.049500 20.171410
v 4.184429 565.646667 20.176294
v -1.248745 564.602478 20.167751
v 0.654217 564.211182 20.164549
v 2.562107 564.577881 20.167549
v 0.686481 588.524109 19.337231
v -13.621456 588.424133 19.213890
v -13.318539 587.261902 17.769012
v -14.389034 587.225647 17.862400
v -14.906414 587.084473 9.897135
v -14.887737 587.026062 6.811479
v -14.876392 586.971191 0.000000
v -14.887730 587.026062 -6.811479
v -14.906414 587.084473 -9.897135
v -14.389034 587.225647 -17.862400
v -13.318539 587.261902 -17.769012
v -13.355923 588.397156 -19.336189
v 0.686481 588.407837 -19.336277
v 14.728878 588.397156 -19.336189
v 14.691494 587.261902 -17.769012
v 15.761982 587.225647 -17.862400
v 16.279369 587.084473 -9.897135
v 16.260685 587.026062 -6.811480
v 16.249348 586.971191 0.000000
v 16.260685 587.026062 6.811479
v 16.279369 587.084473 9.897135
v 15.761982 587.225647 17.862400
v 14.691494 587.261902 17.769012
v 14.994411 588.424133 19.213890
v -8.625301 558.373291 -21.676830
v -7.924976 555.046875 -19.826601
v -7.588818 554.822388 -16.026863
v 0.686481 554.836670 -15.996588
v 0.686481 555.067261 -19.813776
v 0.686481 558.406738 -21.677103
v -7.588818 554.764343 16.150072
v -6.776897 554.963562 19.878939
v -8.239925 558.237061 21.675714
v 0.686481 554.836670 15.996587
v 0.686481 555.067261 19.813776
v 0.686481 558.406738 21.677103
v 11.227413 561.000732 19.926176
v 10.643841 557.695496 18.081661
v 10.361774 557.502136 14.265474
v 8.961773 554.764343 16.150072
v 8.149853 554.963562 19.878939
v 9.612888 558.237061 21.675714
v -8.988827 557.502136 14.265474
v -9.270893 557.695496 18.081661
v -9.854465 561.000732 19.926176
v 10.361774 557.502136 -14.265474
v 10.643841 557.695496 -18.081661
v 11.227413 561.000732 -19.926176
v 9.998257 558.373291 -21.676830
v 9.297932 555.046875 -19.826601
v 8.961773 554.822388 -16.026863
v -9.854465 561.000732 -19.926176
v -9.270893 557.695496 -18.081661
v -8.988827 557.502136 -14.265474
v 11.698635 557.509949 18.051991
v 11.415806 557.302185 14.239772
v 12.281322 560.814209 19.892138
v 11.698635 557.509949 -18.051992
v 12.281322 560.814209 -19.892138
v 11.415806 557.302185 -14.239773
v -10.325680 557.509949 18.051992
v -10.908375 560.814209 19.892138
v -10.042850 557.302185 14.239773
v -10.325680 557.509949 -18.051992
v -10.042850 557.302185 -14.239773
v -10.908375 560.814209 -19.892138
vt 0.492347 0.259927
vt 0.738989 0.268011
vt 0.972593 0.344815
vt 0.492882 0.279043
vt 0.769321 0.228524
vt 0.769342 0.268022
vt 0.753717 0.268016
vt 0.484228 0.247658
vt 0.524657 0.247326
vt 0.527223 0.269999
vt 0.516057 0.274925
vt 0.514303 0.253843
vt 0.885872 0.311199
vt 0.885872 0.344815
vt 0.869594 0.344815
vt 0.869594 0.311199
vt 0.478440 0.253483
vt 0.476722 0.274549
vt 0.465573 0.269654
vt 0.468059 0.246975
vt 0.514327 0.350574
vt 0.516063 0.329532
vt 0.527220 0.334443
vt 0.524647 0.357068
vt 0.492969 0.324391
vt 0.922601 0.344815
vt 0.901741 0.344815
vt 0.901741 0.311199
vt 0.468243 0.356591
vt 0.465681 0.333898
vt 0.476821 0.328960
vt 0.478614 0.350040
vt 0.443837 0.278327
vt 0.449932 0.301796
vt 0.428135 0.301827
vt 0.415745 0.275032
vt 0.419493 0.301839
vt 0.928175 0.268057
vt 0.906324 0.268053
vt 0.409422 0.280545
vt 0.543011 0.302233
vt 0.549053 0.278609
vt 0.577257 0.275004
vt 0.564987 0.302239
vt 0.516872 0.302232
vt 0.516433 0.283309
vt 0.527936 0.279919
vt 0.528555 0.302232
vt 0.492793 0.286122
vt 0.964836 0.344815
vt 0.947597 0.344815
vt 0.492664 0.301727
vt 0.476360 0.282909
vt 0.475956 0.301754
vt 0.464322 0.301773
vt 0.464888 0.279552
vt 0.443905 0.325288
vt 0.415800 0.328652
vt 0.476426 0.320598
vt 0.464962 0.323997
vt 0.930359 0.344815
vt 0.492845 0.317322
vt 0.516434 0.321153
vt 0.527932 0.324536
vt 0.549034 0.325854
vt 0.577239 0.329490
vt 0.409468 0.323152
vt 0.950024 0.268060
vt 0.433928 0.337177
vt 0.396678 0.344608
vt 0.558983 0.337829
vt 0.596065 0.345767
vt 0.388343 0.339224
vt 0.975078 0.268065
vt 0.433831 0.266475
vt 0.396646 0.259106
vt 0.881256 0.268048
vt 0.881271 0.244597
vt 0.559024 0.266637
vt 0.596073 0.258767
vt 0.504635 0.262716
vt 0.504536 0.279415
vt 0.972593 0.378460
vt 0.993453 0.378460
vt 0.488217 0.279015
vt 0.488112 0.262355
vt 0.524052 0.244516
vt 0.512227 0.251914
vt 0.753720 0.308620
vt 0.521560 0.239198
vt 0.480515 0.251552
vt 0.468654 0.244158
vt 0.468846 0.359409
vt 0.480699 0.351967
vt 0.508656 0.356677
vt 0.512260 0.352499
vt 0.524043 0.359870
vt 0.521541 0.365163
vt 0.504541 0.325064
vt 0.504669 0.341745
vt 0.500442 0.344193
vt 0.922601 0.378460
vt 0.488270 0.341119
vt 0.488303 0.324442
vt 0.567786 0.302239
vt 0.579640 0.277032
vt 0.906195 0.295949
vt 0.928173 0.296130
vt 0.413414 0.277087
vt 0.425386 0.301831
vt 0.504618 0.286497
vt 0.504762 0.302231
vt 0.947597 0.378460
vt 0.964836 0.378460
vt 0.488011 0.301733
vt 0.488138 0.286073
vt 0.504615 0.317975
vt 0.930359 0.378460
vt 0.488193 0.317389
vt 0.579625 0.327463
vt 0.950154 0.295964
vt 0.413466 0.326602
vt 0.598306 0.344065
vt 0.975105 0.291525
vt 0.394465 0.342839
vt 0.598321 0.260465
vt 0.604524 0.263885
vt 0.394424 0.260870
vt 0.507303 0.263473
vt 0.507464 0.279405
vt 0.507469 0.325068
vt 0.507332 0.340982
vt 0.507563 0.286463
vt 0.507721 0.302231
vt 0.507562 0.318006
vt 0.485298 0.279007
vt 0.485447 0.263110
vt 0.485599 0.340374
vt 0.485382 0.324464
vt 0.485067 0.301739
vt 0.485205 0.286041
vt 0.485260 0.317432
vt 0.431895 0.241946
vt 0.432220 0.238914
vt 0.432055 0.361750
vt 0.432390 0.364781
vt 0.825503 0.311199
vt 0.825503 0.344815
vt 0.562437 0.371153
vt 0.560303 0.365354
vt 0.560655 0.362343
vt 0.560752 0.242118
vt 0.560409 0.239095
vt 0.810845 0.299530
vt 0.430022 0.233101
vt 0.860321 0.214125
vt 0.873857 0.210832
vt 0.875177 0.217617
vt 0.862378 0.219150
vt 0.887610 0.214236
vt 0.887632 0.208806
vt 0.871315 0.197799
vt 0.871764 0.200099
vt 0.862437 0.203686
vt 0.866288 0.199860
vt 0.881753 0.199924
vt 0.876747 0.197823
vt 0.858237 0.221985
vt 0.855411 0.215164
vt 0.892544 0.215151
vt 0.892541 0.207768
vt 0.855408 0.207781
vt 0.863445 0.195725
vt 0.858227 0.200956
vt 0.884497 0.195722
vt 0.877671 0.192890
vt 0.889716 0.200948
vt 0.870275 0.192889
vt 0.885574 0.203781
vt 0.872781 0.205314
vt 0.860342 0.208696
vt 0.885515 0.219246
vt 0.876191 0.222832
vt 0.866200 0.223007
vt 0.881664 0.223072
vt 0.876638 0.225133
vt 0.871206 0.225109
vt 0.822109 0.256205
vt 0.822257 0.279717
vt 0.825766 0.261577
vt 0.827083 0.267931
vt 0.825848 0.274300
vt 0.993481 0.244605
vt 0.387498 0.371979
vt 0.781946 0.344815
vt 0.993356 0.268068
vt 0.399622 0.375397
vt 0.793447 0.344815
vt 0.600510 0.250763
vt 0.596809 0.239406
vt 0.851998 0.289295
vt 0.862557 0.291543
vt 0.585627 0.235241
vt 0.841428 0.293408
vt 0.585524 0.369398
vt 0.596867 0.365243
vt 0.781946 0.378460
vt 0.793447 0.378460
vt 0.600531 0.353760
vt 0.608858 0.361303
vt 0.862940 0.268045
vt 0.383437 0.243106
vt 0.406838 0.235262
vt 0.841437 0.242676
vt 0.406953 0.368596
vt 0.392047 0.251127
vt 0.392039 0.352571
vt 0.597748 0.250820
vt 0.585541 0.238035
vt 0.597755 0.353733
vt 0.585475 0.366576
vt 0.394841 0.251131
vt 0.406950 0.238084
vt 0.394848 0.352606
vt 0.407032 0.365739
vt 0.841063 0.268041
vt 0.595073 0.241211
vt 0.595077 0.363411
vt 0.397402 0.241398
vt 0.397403 0.362420
vt 0.395557 0.364252
vt 0.852006 0.246792
vt 0.395617 0.239594
vt 0.851995 0.268043
vt 0.604485 0.340644
vt 0.770453 0.378460
vt 0.608861 0.242658
vt 0.881263 0.291500
vt 0.592725 0.376183
vt 0.825503 0.378460
vt 0.975113 0.244604
vt 0.383449 0.360008
vt 0.862565 0.244547
vt 0.388271 0.264476
vt 0.793447 0.311199
vt 0.430208 0.370600
vt 0.604679 0.372911
vt 0.606268 0.230505
vt 0.385893 0.230610
vt 0.781946 0.311199
vt 0.508518 0.248025
vt 0.885872 0.378460
vt 0.901741 0.378460
vt 0.484346 0.356157
vt 0.492523 0.343532
vt 0.753747 0.227413
vt 0.869594 0.378460
vt 0.471351 0.364746
vt 0.499943 0.286548
vt 0.499856 0.279444
vt 0.583720 0.280443
vt 0.583710 0.324057
vt 0.499861 0.325047
vt 0.499935 0.317925
vt 0.573759 0.302242
vt 0.500082 0.302229
vt 0.500395 0.260278
vt 0.964836 0.311199
vt 0.972593 0.311199
vt 0.906205 0.240156
vt 0.950164 0.240157
vt 0.922601 0.311199
vt 0.930359 0.311199
vt 0.928183 0.239983
vt 0.947597 0.311199
vt 0.993453 0.311199
vt 0.993473 0.291530
vt 0.770453 0.344815
vt 0.770453 0.311199
vt 0.398856 0.228032
vt 0.810863 0.236541
vt 0.562566 0.233284
vt 0.593497 0.228032
vt 0.471130 0.238818
vt 0.769295 0.307520
vt 0.500395 0.260278
vt 0.739076 0.307533
vt 0.993453 0.344815
vt 0.488112 0.262355
vt 0.504635 0.262716
vt 0.739102 0.228490
vt 0.492347 0.259927
vt 0.803964 0.252714
vt 0.798593 0.256350
vt 0.795029 0.261769
vt 0.793803 0.268137
vt 0.795106 0.274491
vt 0.798738 0.279864
vt 0.804152 0.283433
vt 0.810524 0.284659
vt 0.816691 0.252635
vt 0.810318 0.251409
vt 0.884507 0.227207
vt 0.889725 0.221976
vt 0.816883 0.283354
vt 0.863456 0.227210
vt 0.870282 0.230042
vt 0.877677 0.230043
vn 0.000000 0.999416 0.034179
vn 0.000000 0.999416 0.034179
vn 0.000000 0.999690 0.024917
vn 0.000000 0.999690 0.024917
vn -0.003074 0.273535 0.961857
vn -0.000001 0.257503 0.966278
vn 0.000000 0.640783 0.767722
vn -0.005625 0.640578 0.767873
vn 0.982463 -0.135602 0.127978
vn 0.987247 -0.157451 -0.023525
vn 0.999669 0.011335 0.023097
vn 0.982081 0.076821 0.172094
vn -0.000247 0.640716 -0.767778
vn 0.000000 0.640864 -0.767655
vn 0.000000 0.135641 -0.990758
vn -0.000061 0.151137 -0.988513
vn -0.982081 0.076819 0.172094
vn -0.999669 0.011334 0.023097
vn -0.987247 -0.157451 -0.023524
vn -0.982463 -0.135602 0.127979
vn 0.982081 0.076820 -0.172094
vn 0.999669 0.011335 -0.023097
vn 0.987247 -0.157451 0.023524
vn 0.982463 -0.135602 -0.127979
vn 0.000000 0.999690 -0.024917
vn 0.000000 0.999690 -0.024917
vn 0.000000 0.953027 -0.302884
vn -0.000139 0.952273 -0.305249
vn -0.982463 -0.135602 -0.127979
vn -0.987247 -0.157451 0.023524
vn -0.999669 0.011334 -0.023097
vn -0.982081 0.076820 -0.172094
vn -0.960673 -0.250835 -0.119118
vn -0.956230 -0.292617 0.000000
vn -0.937398 -0.348260 0.000000
vn -0.897455 -0.300184 -0.323210
vn -0.015309 -0.999883 0.000002
vn -0.000000 -1.000000 0.000001
vn -0.000000 -0.652747 -0.757576
vn -0.007020 -0.666231 -0.745712
vn 0.956230 -0.292617 0.000000
vn 0.960673 -0.250835 -0.119119
vn 0.897454 -0.300184 -0.323212
vn 0.937398 -0.348260 0.000000
vn 0.999911 -0.013364 0.000000
vn 0.999717 -0.023738 -0.001299
vn 0.969558 -0.239406 -0.051405
vn 0.965567 -0.260155 0.000000
vn 0.000000 1.000000 0.000000
vn 0.000000 1.000000 0.000000
vn 0.000000 1.000000 0.000000
vn 0.000000 1.000000 0.000000
vn -0.999717 -0.023739 -0.001299
vn -0.999911 -0.013365 -0.000000
vn -0.965567 -0.260155 0.000000
vn -0.969558 -0.239406 -0.051403
vn -0.960673 -0.250835 0.119118
vn -0.897455 -0.300183 0.323210
vn -0.999717 -0.023739 0.001299
vn -0.969558 -0.239406 0.051403
vn 0.000000 1.000000 0.000000
vn 0.000000 1.000000 0.000000
vn 0.999717 -0.023738 0.001299
vn 0.969558 -0.239406 0.051405
vn 0.960673 -0.250835 0.119119
vn 0.897454 -0.300184 0.323212
vn -0.007020 -0.666231 0.745712
vn -0.000000 -0.652747 0.757576
vn -0.980415 -0.172854 0.094386
vn -0.942611 -0.246078 0.225677
vn 0.980415 -0.172854 0.094387
vn 0.942611 -0.246078 0.225676
vn 0.000000 -0.633305 0.773902
vn -0.000000 -0.647423 0.762131
vn -0.980415 -0.172854 -0.094386
vn -0.942611 -0.246078 -0.225676
vn -0.000000 -0.648833 -0.760931
vn -0.000000 -0.634698 -0.772760
vn 0.980415 -0.172854 -0.094387
vn 0.942611 -0.246078 -0.225676
vn 0.907891 0.419206 -0.000000
vn 0.847377 0.530992 -0.000000
vn 1.000000 -0.000004 -0.000000
vn 1.000000 -0.000004 -0.000000
vn -0.847376 0.530994 0.000000
vn -0.907890 0.419209 0.000000
vn -1.000000 0.000000 0.000000
vn -1.000000 0.000000 0.000000
vn 0.865475 -0.086508 0.493425
vn 0.930750 0.225113 0.288145
vn 0.996063 -0.057762 -0.067245
vn 0.983600 -0.147913 0.103214
vn -0.996063 -0.057762 -0.067245
vn -0.930750 0.225113 0.288147
vn -0.865473 -0.086508 0.493430
vn -0.983600 -0.147913 0.103213
vn -0.862668 -0.073815 -0.500355
vn -0.908691 0.259165 -0.327283
vn -0.999907 -0.010000 0.009333
vn -0.984510 -0.131341 -0.116146
vn 0.999906 -0.010000 0.009332
vn 0.908692 0.259163 -0.327281
vn 0.862668 -0.073816 -0.500355
vn 0.984510 -0.131341 -0.116148
vn 0.847377 0.530992 0.000000
vn 0.910966 0.396714 -0.112958
vn 0.999915 0.003986 0.012378
vn 1.000000 -0.000004 0.000000
vn -0.910964 0.396718 -0.112958
vn -0.847375 0.530994 0.000000
vn -1.000000 0.000000 0.000000
vn -0.999916 0.003988 0.012377
vn 0.693176 -0.720769 0.000000
vn 0.677486 -0.486290 -0.551847
vn 0.982239 -0.118442 -0.145527
vn 1.000000 -0.000006 0.000000
vn -0.677487 -0.486289 -0.551846
vn -0.693178 -0.720767 0.000001
vn -1.000000 -0.000004 0.000002
vn -0.982240 -0.118440 -0.145524
vn 0.846319 0.532676 0.000000
vn 0.846319 0.532676 0.000000
vn 1.000000 -0.000004 0.000000
vn 1.000000 -0.000004 0.000000
vn -0.846318 0.532678 0.000000
vn -0.846318 0.532678 0.000000
vn -1.000000 0.000000 0.000000
vn -1.000000 0.000000 0.000000
vn 0.846319 0.532676 0.000000
vn 1.000000 -0.000004 0.000000
vn -0.846318 0.532678 0.000000
vn -1.000000 0.000000 0.000000
vn 0.677486 -0.486290 0.551847
vn 0.982239 -0.118442 0.145528
vn -0.677485 -0.486290 0.551848
vn -0.982238 -0.118445 0.145530
vn 0.687465 -0.507277 0.519675
vn 0.885246 -0.370205 0.281583
vn -0.687465 -0.507278 0.519674
vn -0.885244 -0.370208 0.281585
vn 0.687975 -0.507726 -0.518561
vn 0.884721 -0.371457 -0.281581
vn -0.687976 -0.507727 -0.518558
vn -0.884721 -0.371459 -0.281580
vn 0.904729 0.408974 0.119189
vn 0.891597 0.452551 0.015886
vn 0.891597 0.452551 -0.015886
vn 0.904729 0.408973 -0.119190
vn 0.906288 0.422654 -0.002268
vn 0.899219 0.437498 0.000000
vn 0.906288 0.422654 0.002268
vn -0.891597 0.452550 0.015886
vn -0.904730 0.408972 0.119188
vn -0.904730 0.408973 -0.119188
vn -0.891598 0.452550 -0.015886
vn -0.899220 0.437497 0.000000
vn -0.906289 0.422653 -0.002268
vn -0.906289 0.422652 0.002268
vn 0.005625 0.640582 0.767869
vn 0.003074 0.273422 0.961889
vn 0.000000 0.999416 0.034179
vn 0.000000 0.999690 0.024917
vn 0.000000 1.000000 0.000000
vn 0.000000 1.000000 0.000000
vn 0.000000 1.000000 0.000000
vn 0.000000 0.999690 -0.024917
vn 0.000139 0.952276 -0.305238
vn -0.000000 -0.633303 0.773904
vn 0.007020 -0.666229 0.745714
vn 0.015309 -0.999883 0.000000
vn 0.007020 -0.666229 -0.745714
vn 0.000000 -0.634699 -0.772759
vn -0.979943 -0.158363 0.120963
vn -0.797652 -0.142158 0.586124
vn -0.979943 -0.158363 -0.120962
vn -0.805611 -0.139771 -0.575722
vn -0.948777 -0.157747 -0.273748
vn -0.000000 -0.008959 -0.999960
vn 0.000000 -0.009022 -0.999959
vn -0.000000 -0.009022 -0.999959
vn 0.000061 0.151139 -0.988512
vn 0.805611 -0.139770 -0.575722
vn 0.948777 -0.157747 -0.273747
vn 0.979943 -0.158363 -0.120963
vn 0.979944 -0.158363 0.120962
vn 0.797655 -0.142158 0.586121
vn 0.934862 -0.165422 0.314115
vn -0.934862 -0.165422 0.314116
vn -0.307730 -0.005792 0.951456
vn 0.000000 -0.008182 0.999967
vn 0.000000 -0.008183 0.999967
vn -0.297581 0.117780 0.947403
vn 0.000247 0.640721 -0.767773
vn 0.299297 0.113958 0.947331
vn 0.307851 -0.009779 0.951384
vn -0.004297 -0.671240 0.741227
vn -0.000000 -0.008182 0.999967
vn -0.301711 -0.305226 0.903221
vn -0.258511 -0.618944 0.741674
vn 0.297881 -0.309167 0.903152
vn 0.250562 -0.622272 0.741618
vn 0.000000 -0.008183 0.999967
vn -0.000422 -0.008867 0.999961
vn -0.000000 -0.008183 0.999967
vn 0.000424 -0.008867 0.999961
vn 0.000000 -0.008183 0.999967
vn 0.000001 -0.008182 0.999967
vn -0.000615 -0.009179 0.999958
vn -0.000162 -0.010005 0.999950
vn -0.000365 -0.009646 0.999954
vn 0.000364 -0.009653 0.999953
vn 0.000158 -0.010012 0.999950
vn 0.000620 -0.009182 0.999958
vn -0.000016 -0.010283 0.999947
vn 0.316602 -0.141231 0.937986
vn 0.000000 -0.008182 0.999967
vn -0.318204 -0.137074 0.938060
vn 0.301773 0.290467 0.908054
vn 0.000000 -0.008183 0.999967
vn -0.297820 0.294287 0.908129
vn 0.258529 0.606770 0.751660
vn 0.004299 0.659014 0.752118
vn -0.250546 0.610006 0.751744
vn -0.803196 0.334786 0.492742
vn -0.871712 0.001635 0.490016
vn 0.871713 -0.009657 0.489922
vn 0.807524 0.324347 0.492650
vn -0.620390 -0.616391 0.484953
vn -0.338804 -0.807186 0.483387
vn -0.005631 -0.875694 0.482833
vn 0.328361 -0.811495 0.483379
vn 0.612392 -0.624373 0.484906
vn 0.803198 -0.342807 0.487191
vn -0.807520 -0.332364 0.487284
vn 0.620394 0.608375 0.494966
vn -0.612392 0.616355 0.495058
vn 0.338803 0.799166 0.496535
vn 0.005635 0.867666 0.497116
vn -0.328364 0.803469 0.496604
vn 0.000000 0.786725 0.617303
vn -0.005485 0.786707 0.617302
vn -0.914874 0.336148 0.223631
vn -0.995268 -0.032708 -0.091503
vn 0.914874 0.336148 0.223629
vn 0.995267 -0.032708 -0.091505
vn 0.005485 0.786720 0.617286
vn 0.002202 -0.998211 -0.059742
vn 0.002425 -0.812006 -0.583644
vn 0.000000 -0.837748 -0.546057
vn 0.000000 -0.998214 -0.059742
vn 0.000427 -0.106946 -0.994265
vn -0.000000 -0.125264 -0.992123
vn 0.653688 -0.737062 -0.171556
vn 0.736508 -0.610497 0.291289
vn 0.848689 -0.491166 0.196173
vn 0.833511 -0.552295 0.015152
vn 0.753869 -0.225094 0.617264
vn 0.869828 -0.354252 0.343372
vn 0.792425 -0.195185 -0.577897
vn 0.809435 -0.551855 -0.200677
vn 0.911663 -0.402405 -0.083308
vn 0.929993 -0.252847 -0.266798
vn 0.658893 -0.721631 0.212388
vn 0.857143 -0.505881 0.096908
vn -0.000000 -0.964233 -0.265056
vn 0.004030 -0.961311 -0.275437
vn 0.000001 -0.904575 0.426314
vn 0.000000 -0.904573 0.426318
vn -0.753867 -0.225093 0.617266
vn -0.869826 -0.354251 0.343379
vn -0.792423 -0.195185 -0.577900
vn -0.929992 -0.252847 -0.266802
vn -0.653687 -0.737062 -0.171559
vn -0.833510 -0.552296 0.015150
vn -0.658892 -0.721631 0.212390
vn -0.857141 -0.505883 0.096906
vn 0.966469 -0.243318 -0.082066
vn 0.983406 -0.159976 0.085558
vn 0.966469 -0.243319 0.082065
vn 0.983406 -0.159975 -0.085558
vn -0.966469 -0.243318 -0.082068
vn -0.983406 -0.159976 0.085557
vn -0.966468 -0.243318 0.082068
vn -0.983406 -0.159976 -0.085556
vn -0.000427 -0.106945 -0.994265
vn -0.000001 -0.904571 0.426322
vn -0.004030 -0.961309 -0.275443
vn -0.000000 -0.268957 0.963152
vn -0.000000 -0.008183 0.999967
vn 0.000001 -0.008183 0.999967
vn -0.000000 -0.008183 0.999967
vn 0.004468 -0.193378 0.981114
vn -0.000000 -0.008183 0.999967
vn -0.004468 -0.193374 0.981115
vn 0.000000 -0.008183 0.999967
vn 0.973451 -0.228890 -0.001531
vn 0.973451 -0.228890 0.001531
vn -0.973451 -0.228890 -0.001533
vn -0.973451 -0.228890 0.001534
vn -0.911662 -0.402406 -0.083313
vn -0.809434 -0.551855 -0.200681
vn -0.848687 -0.491166 0.196177
vn -0.736508 -0.610497 0.291290
vn 0.013344 -0.827062 0.561953
vn -0.000000 -0.840236 0.542221
vn -0.013344 -0.827065 0.561948
vn -0.002425 -0.812006 -0.583644
vn -0.002202 -0.998212 -0.059742
s 1
g S_P07_LP poles_07_low
usemtl aiStandardSurface1SG
f 318/677/402 383/689/403 384/404/404 321/670/405
s 2
f 317/406/406 382/407/407 456/408/408 457/657/409
s 3
f 346/410/410 345/411/411 476/412/412 477/413/413
s 1
f 467/414/414 468/415/415 390/416/416 322/417/417
s 5
f 459/418/418 460/419/419 363/420/420 365/421/421
s 3
f 471/422/422 472/423/423 349/424/424 351/425/425
s 1
f 330/673/426 388/427/427 389/428/428 326/429/429
s 5
f 370/430/430 369/431/431 464/432/432 465/433/433
f 399/434/434 400/435/435 374/436/436 375/437/437
s 2
f 332/675/438 393/439/439 394/440/440 335/671/441
s 3
f 412/442/442 413/443/443 354/444/444 356/445/445
f 474/446/446 475/447/447 355/448/448 357/449/449
s 1
f 337/669/450 385/451/451 386/452/452 339/676/453
s 5
f 461/454/454 462/455/455 373/456/456 376/457/457
f 400/435/435 401/458/458 379/459/459 374/436/436
f 462/455/455 463/460/460 380/461/461 373/456/456
s 1
f 339/676/453 386/452/452 387/462/462 341/674/463
s 3
f 473/464/464 474/446/446 357/449/449 360/465/465
f 411/466/466 412/442/442 356/445/445 362/467/467
s 2
f 343/672/468 392/469/469 393/439/439 332/675/438
s 5
f 401/458/458 402/470/470 368/471/471 379/459/459
f 463/460/460 464/432/432 369/431/431 380/461/461
s 1
f 341/674/463 387/462/462 388/427/427 330/673/426
s 3
f 472/423/423 473/464/464 360/465/465 349/424/424
f 410/472/472 411/466/466 362/467/467 350/473/473
s 2
f 329/642/474 391/475/475 392/469/469 343/672/468
s 5
f 398/476/476 399/434/434 375/437/437 364/477/477
s 2
f 335/671/441 394/440/440 395/478/478 324/479/479
s 3
f 413/443/443 414/480/480 344/481/481 354/444/444
f 475/447/447 476/412/412 345/411/411 355/448/448
s 1
f 321/670/405 384/404/404 385/451/451 337/669/450
s 5
f 460/419/419 461/454/454 376/457/457 363/420/420
s 3
f 293/691/482 314/483/483 320/661/484 319/668/485
s 5
f 315/486/486 292/487/487 318/402/488 321/405/489
s 3
f 289/488/490 478/489/491 479/652/492 316/491/493
s 5
f 457/409/494 458/492/495 288/493/496 317/685/497
f 290/494/498 466/495/499 467/655/500 322/659/501
s 3
f 469/496/502 470/497/503 291/498/504 323/499/505
f 310/500/506 294/501/507 327/502/508 331/664/509
s 5
f 295/504/510 309/505/511 330/426/512 326/656/513
s 3
f 297/506/514 301/507/515 334/662/516 333/666/517
s 5
f 300/510/518 296/511/519 332/438/520 335/441/521
s 3
f 302/512/522 298/513/523 338/667/524 336/660/525
s 5
f 299/516/526 303/517/527 337/450/528 339/453/529
s 3
f 298/513/523 306/518/530 340/665/531 338/667/524
s 5
f 305/520/532 299/516/526 339/453/529 341/463/533
s 3
f 307/521/534 297/506/514 333/666/517 342/663/535
s 5
f 296/511/519 304/523/536 343/468/537 332/438/520
s 3
f 306/518/530 310/500/506 331/664/509 340/665/531
s 5
f 309/505/511 305/520/532 341/463/533 330/426/512
s 3
f 311/524/538 307/521/534 342/663/535 328/636/539
s 5
f 304/523/536 308/526/540 329/474/541 343/468/537
s 3
f 301/507/515 313/527/542 325/528/543 334/662/516
s 5
f 312/529/544 300/510/518 335/441/521 324/645/545
s 3
f 314/483/483 302/512/522 336/660/525 320/661/484
s 5
f 303/517/527 315/486/486 321/405/489 337/450/528
s 3
f 314/483/483 293/691/482 348/530/546 347/531/547
f 477/413/413 478/489/491 289/488/490 346/410/410
f 291/498/504 470/497/503 471/422/422 351/425/425
f 294/501/507 310/500/506 352/532/548 353/533/549
f 301/507/515 297/506/514 356/445/445 354/444/444
f 298/513/523 302/512/522 358/534/550 359/535/551
f 306/518/530 298/513/523 359/535/551 361/536/552
f 297/506/514 307/521/534 362/467/467 356/445/445
f 310/500/506 306/518/530 361/536/552 352/532/548
f 307/521/534 311/524/538 350/473/473 362/467/467
f 313/527/542 301/507/515 354/444/444 344/481/481
f 302/512/522 314/483/483 347/531/547 358/534/550
s 5
f 288/493/496 458/492/495 459/418/418 365/421/421
f 292/487/487 315/486/486 366/537/553 367/538/554
f 309/505/511 295/504/510 372/539/555 371/540/556
f 465/433/433 466/495/499 290/494/498 370/430/430
f 296/511/519 300/510/518 375/437/437 374/436/436
f 303/517/527 299/516/526 377/541/557 378/542/558
f 304/523/536 296/511/519 374/436/436 379/459/459
f 299/516/526 305/520/532 381/543/559 377/541/557
f 308/526/540 304/523/536 379/459/459 368/471/471
f 305/520/532 309/505/511 371/540/556 381/543/559
f 300/510/518 312/529/544 364/477/477 375/437/437
f 315/486/486 303/517/527 378/542/558 366/537/553
s 2
f 479/490/560 456/408/408 382/407/407 316/686/561
s 1
f 384/404/404 383/689/403 319/485/562 320/484/563
f 385/451/451 384/404/404 320/484/563 336/515/564
f 386/452/452 385/451/451 336/515/564 338/514/565
f 387/462/462 386/452/452 338/514/565 340/519/566
f 388/427/427 387/462/462 340/519/566 331/503/567
f 389/428/428 388/427/427 331/503/567 327/654/568
s 2
f 392/469/469 391/475/475 328/525/569 342/522/570
f 393/439/439 392/469/469 342/522/570 333/509/571
f 394/440/440 393/439/439 333/509/571 334/508/572
f 395/478/478 394/440/440 334/508/572 325/639/573
s 5
f 397/544/574 396/545/575 288/493/496 365/421/421
f 363/420/420 398/476/476 397/544/574 365/421/421
f 376/457/457 399/434/434 398/476/476 363/420/420
f 373/456/456 400/435/435 399/434/434 376/457/457
f 380/461/461 401/458/458 400/435/435 373/456/456
f 369/431/431 402/470/470 401/458/458 380/461/461
f 403/546/576 402/470/470 369/431/431 370/430/430
f 290/494/498 404/547/577 403/546/576 370/430/430
f 405/647/578 404/547/577 290/494/498 322/659/501
s 1
f 322/417/417 390/416/416 406/549/579 405/548/580
f 407/641/581 406/549/579 390/416/416 323/658/582
s 3
f 291/498/504 408/551/583 407/550/584 323/499/505
f 409/552/585 408/551/583 291/498/504 351/425/425
f 349/424/424 410/472/472 409/552/585 351/425/425
f 360/465/465 411/466/466 410/472/472 349/424/424
f 357/449/449 412/442/442 411/466/466 360/465/465
f 355/448/448 413/443/443 412/442/442 357/449/449
f 345/411/411 414/480/480 413/443/443 355/448/448
f 415/553/586 414/480/480 345/411/411 346/410/410
f 289/488/490 416/554/587 415/553/586 346/410/410
f 417/683/588 416/554/587 289/488/490 316/491/493
s 5
f 288/493/496 396/545/575 418/556/589 317/685/497
s 22
f 435/557/590 436/558/591 437/559/592 438/560/593
s 1
f 390/416/416 468/415/415 469/653/594 323/658/582
s 22
f 439/561/595 437/559/592 436/558/591 440/562/596
f 441/563/597 442/564/598 443/565/599 444/566/600
f 445/567/601 442/564/598 441/563/597 446/568/602
s 2
f 428/706/603 417/555/604 419/701/605
f 418/682/606 430/702/607 423/703/608
f 417/555/604 431/700/609 419/701/605
f 316/686/561 382/407/407 432/698/610 425/699/611
f 382/407/407 317/406/406 426/695/612 433/696/613
f 434/694/614 418/682/606 423/703/608
f 382/407/407 433/696/613 424/697/615
f 432/698/610 382/407/407 424/697/615
f 317/406/406 418/682/606 434/694/614 426/695/612
f 417/555/604 316/686/561 425/699/611 431/700/609
s 22
f 447/580/616 448/581/617 442/564/598 445/567/601
f 443/565/599 442/564/598 448/581/617 449/582/618
f 440/562/596 436/558/591 448/581/617 447/580/616
f 449/582/618 448/581/617 436/558/591 435/557/590
f 450/583/619 451/584/620 437/559/592 439/561/595
f 438/560/593 437/559/592 451/584/620 452/585/621
f 450/583/619 453/586/622 454/587/623 451/584/620
f 452/585/621 451/584/620 454/587/623 455/588/624
f 428/569/625 419/570/626 435/557/590 438/560/593
f 423/572/627 430/571/628 439/561/595 440/562/596
f 425/575/629 432/574/630 444/566/600 443/565/599
f 432/574/630 424/579/631 441/563/597 444/566/600
f 424/579/631 433/577/632 446/568/602 441/563/597
f 433/577/632 426/576/633 445/567/601 446/568/602
f 426/576/633 434/578/634 447/580/616 445/567/601
f 431/573/635 425/575/629 443/565/599 449/582/618
f 434/578/634 423/572/627 440/562/596 447/580/616
f 419/570/626 431/573/635 449/582/618 435/557/590
f 430/571/628 422/705/636 450/583/619 439/561/595
f 421/707/637 428/569/625 438/560/593 452/585/621
f 422/705/636 429/704/638 453/586/622 450/583/619
f 429/704/638 420/709/639 454/587/623 453/586/622
f 420/709/639 427/708/640 455/588/624 454/587/623
f 427/708/640 421/707/637 452/585/621 455/588/624
s 2
f 457/657/409 456/408/408 383/403/641 318/692/642
s 5
f 292/690/643 458/492/495 457/409/494 318/693/644
f 459/418/418 458/492/495 292/690/643 367/538/554
f 366/537/553 460/419/419 459/418/418 367/538/554
f 378/542/558 461/454/454 460/419/419 366/537/553
f 377/541/557 462/455/455 461/454/454 378/542/558
f 381/543/559 463/460/460 462/455/455 377/541/557
f 371/540/556 464/432/432 463/460/460 381/543/559
f 465/433/433 464/432/432 371/540/556 372/539/555
f 295/504/510 466/495/499 465/433/433 372/539/555
f 467/655/500 466/495/499 295/504/510 326/656/513
s 1
f 389/428/428 468/415/415 467/414/414 326/429/429
f 469/653/594 468/415/415 389/428/428 327/654/568
s 3
f 294/501/507 470/497/503 469/496/502 327/502/508
f 471/422/422 470/497/503 294/501/507 353/533/549
f 352/532/548 472/423/423 471/422/422 353/533/549
f 361/536/552 473/464/464 472/423/423 352/532/548
f 359/535/551 474/446/446 473/464/464 361/536/552
f 358/534/550 475/447/447 474/446/446 359/535/551
f 347/531/547 476/412/412 475/447/447 358/534/550
f 477/413/413 476/412/412 347/531/547 348/530/546
f 293/482/645 478/489/491 477/413/413 348/530/546
f 479/652/492 478/489/491 293/482/645 319/687/646
s 2
f 383/403/641 456/408/408 479/490/560 319/688/647
s 1
f 482/680/648 481/651/649 484/596/650 483/679/651
f 481/651/649 480/646/652 485/599/653 484/596/650
s 3
f 494/600/654 493/601/655 496/649/656 495/638/657
f 493/601/655 492/604/658 497/684/659 496/649/656
f 503/606/660 502/607/661 505/648/662 504/640/663
f 502/607/661 501/610/664 506/611/665 505/648/662
s 1
f 405/548/580 406/549/579 485/599/653 480/646/652
s 2
f 324/479/479 395/478/478 489/612/666 486/644/667
f 482/594/668 483/597/669 391/475/475 329/642/474
s 3
f 492/604/658 416/554/587 417/683/588 497/684/659
s 5
f 418/556/589 396/545/575 500/614/670 488/681/671
s 3
f 407/550/584 408/551/583 503/606/660 504/640/663
s 5
f 507/616/672 404/547/577 405/647/578 480/598/673
s 3
f 313/527/542 494/600/654 495/638/657 325/528/543
s 5
f 498/617/674 312/529/544 324/645/545 486/613/675
s 3
f 501/610/664 311/524/538 328/636/539 506/611/665
s 5
f 308/526/540 509/618/676 482/643/677 329/474/541
s 3
f 494/600/654 313/527/542 344/481/481 511/619/678
f 415/553/586 416/554/587 492/604/658 512/620/679
f 311/524/538 501/610/664 515/621/680 350/473/473
f 503/606/660 408/551/583 409/552/585 514/622/681
s 5
f 312/529/544 498/617/674 518/623/682 364/477/477
f 500/614/670 396/545/575 397/544/574 517/624/683
f 509/618/676 308/526/540 368/471/471 520/625/684
f 403/546/576 404/547/577 507/616/672 521/626/685
s 1
f 485/599/653 406/549/579 407/641/581 504/609/686
s 2
f 391/475/475 483/597/669 506/678/687 328/525/569
f 489/612/666 395/478/478 325/639/573 495/603/688
f 491/627/689 427/593/690 420/592/691
f 429/591/692 491/627/689 420/592/691
f 418/682/606 488/615/693 422/589/694 430/702/607
f 488/615/693 491/627/689 429/591/692 422/589/694
f 491/627/689 497/605/695 421/590/696 427/593/690
f 497/605/695 417/555/604 428/706/603 421/590/696
s 3
f 510/628/697 414/480/480 415/553/586 512/620/679
f 513/629/698 514/622/681 409/552/585 410/472/472
s 5
f 516/630/699 398/476/476 364/477/477 518/623/682
f 519/631/700 402/470/470 403/546/576 521/626/685
f 480/598/673 481/595/701 508/632/702 507/616/672
f 481/595/701 482/643/677 509/618/676 508/632/702
f 486/613/675 487/650/703 499/634/704 498/617/674
f 487/650/703 488/681/671 500/614/670 499/634/704
s 2
f 488/615/693 487/633/705 490/635/706 491/627/689
f 487/633/705 486/644/667 489/612/666 490/635/706
s 3
f 492/604/658 493/601/655 510/628/697 512/620/679
f 493/601/655 494/600/654 511/619/678 510/628/697
s 2
f 491/627/689 490/635/706 496/602/707 497/605/695
f 490/635/706 489/612/666 495/603/688 496/602/707
s 5
f 498/617/674 499/634/704 516/630/699 518/623/682
s 3
f 501/610/664 502/607/661 513/629/698 515/621/680
f 502/607/661 503/606/660 514/622/681 513/629/698
s 1
f 483/679/651 484/596/650 505/608/708 506/637/709
f 484/596/650 485/599/653 504/609/686 505/608/708
s 5
f 507/616/672 508/632/702 519/631/700 521/626/685
f 508/632/702 509/618/676 520/625/684 519/631/700
f 499/634/704 500/614/670 517/624/683 516/630/699
f 398/476/476 516/630/699 517/624/683 397/544/574
f 519/631/700 520/625/684 368/471/471 402/470/470
s 3
f 510/628/697 511/619/678 344/481/481 414/480/480
f 513/629/698 410/472/472 350/473/473 515/621/680
g default
v 5.391250 94.522743 -2.596298
v 3.730854 94.522743 -4.678370
v 1.331513 94.522743 -5.833833
v -1.331556 94.522743 -5.833833
v -3.730898 94.522743 -4.678371
v -5.391294 94.522743 -2.596301
v -5.983884 94.522743 -0.000001
v -5.391295 94.522743 2.596299
v -3.730900 94.522743 4.678370
v -1.331558 94.522743 5.833833
v 1.331511 94.522743 5.833834
v 3.730853 94.522743 4.678371
v 5.391250 94.522743 2.596300
v 5.983839 94.522743 0.000000
v -0.000023 594.533569 0.000000
v 5.391250 586.752869 -2.596298
v 5.983839 586.752869 0.000000
v 5.391250 586.752869 2.596300
v 3.730853 586.752869 4.678371
v 1.331511 586.752869 5.833834
v -1.331558 586.752869 5.833833
v -3.730900 586.752869 4.678370
v -5.391295 586.752869 2.596299
v -5.983884 586.752869 -0.000001
v -5.391294 586.752869 -2.596301
v -3.730898 586.752869 -4.678371
v -1.331556 586.752869 -5.833833
v 1.331513 586.752869 -5.833833
v 3.730854 586.752869 -4.678370
v 4.582640 594.533569 -2.206892
v 5.154414 594.277222 -2.482244
v 5.391250 593.658569 -2.596298
v 3.171279 594.533569 -3.976685
v 3.566958 594.277222 -4.472851
v 3.730854 593.658569 -4.678370
v 1.131802 594.533569 -4.958846
v 1.273019 594.277222 -5.577555
v 1.331513 593.658569 -5.833833
v -1.131846 594.533569 -4.958846
v -1.273062 594.277222 -5.577556
v -1.331556 593.658569 -5.833833
v -3.171322 594.533569 -3.976686
v -3.567002 594.277222 -4.472853
v -3.730898 593.658569 -4.678371
v -4.582685 594.533569 -2.206895
v -5.154458 594.277222 -2.482246
v -5.391294 593.658569 -2.596301
v -5.086395 594.533569 -0.000001
v -5.721015 594.277222 -0.000001
v -5.983884 593.658569 -0.000001
v -4.582686 594.533569 2.206893
v -5.154459 594.277222 2.482245
v -5.391295 593.658569 2.596299
v -3.171324 594.533569 3.976685
v -3.567004 594.277222 4.472852
v -3.730900 593.658569 4.678370
v -1.131848 594.533569 4.958846
v -1.273064 594.277222 5.577555
v -1.331558 593.658569 5.833833
v 1.131801 594.533569 4.958847
v 1.273017 594.277222 5.577556
v 1.331511 593.658569 5.833834
v 3.171278 594.533569 3.976686
v 3.566957 594.277222 4.472853
v 3.730853 593.658569 4.678371
v 4.582640 594.533569 2.206894
v 5.154413 594.277222 2.482246
v 5.391250 593.658569 2.596300
v 5.086349 594.533569 -0.000000
v 5.720970 594.277222 -0.000000
v 5.983839 593.658569 0.000000
vt 0.994141 0.123487
vt 0.994141 0.134180
vt 0.377880 0.318771
vt 0.377879 0.311210
vt 0.005859 0.134180
vt 0.377880 0.326333
vt 0.005859 0.123487
vt 0.377873 0.228034
vt 0.994141 0.144874
vt 0.377873 0.235595
vt 0.005859 0.144874
vt 0.377874 0.243157
vt 0.994141 0.155567
vt 0.377875 0.250718
vt 0.005859 0.005859
vt 0.377875 0.258280
vt 0.994141 0.016553
vt 0.377876 0.265841
vt 0.005859 0.016553
vt 0.377876 0.273403
vt 0.994141 0.027246
vt 0.377877 0.280964
vt 0.005859 0.027246
vt 0.377877 0.288526
vt 0.994141 0.037940
vt 0.377878 0.296087
vt 0.005859 0.037940
vt 0.377879 0.303649
vt 0.980154 0.225443
vt 0.973908 0.226876
vt 0.973893 0.212475
vt 0.967658 0.225456
vt 0.962644 0.221465
vt 0.959857 0.215694
vt 0.959850 0.209285
vt 0.962625 0.203508
vt 0.967632 0.199507
vt 0.973879 0.198074
vt 0.980128 0.199494
vt 0.985143 0.203485
vt 0.987930 0.209256
vt 0.987936 0.215665
vt 0.985161 0.221442
vt 0.358271 0.311211
vt 0.358271 0.303650
vt 0.358270 0.296088
vt 0.358269 0.288527
vt 0.358269 0.280966
vt 0.358268 0.273404
vt 0.358268 0.265843
vt 0.358267 0.258281
vt 0.358267 0.250720
vt 0.358266 0.243158
vt 0.358265 0.235597
vt 0.358273 0.333896
vt 0.358273 0.326334
vt 0.358272 0.318773
vt 0.980996 0.227193
vt 0.973906 0.228817
vt 0.966815 0.227204
vt 0.961125 0.222675
vt 0.957964 0.216125
vt 0.957958 0.208852
vt 0.961108 0.202296
vt 0.966791 0.197757
vt 0.973880 0.196133
vt 0.980972 0.197746
vt 0.986662 0.202276
vt 0.989823 0.208826
vt 0.989828 0.216098
vt 0.986678 0.222654
vt 0.994141 0.048633
vt 0.005859 0.048633
vt 0.994141 0.059326
vt 0.005859 0.059326
vt 0.994141 0.070020
vt 0.005859 0.070020
vt 0.994141 0.080713
vt 0.005859 0.080713
vt 0.994141 0.091406
vt 0.005859 0.091406
vt 0.994141 0.102100
vt 0.005859 0.102100
vt 0.994141 0.112793
vt 0.005859 0.112793
vt 0.991691 0.216535
vt 0.988167 0.223855
vt 0.991690 0.208411
vt 0.988164 0.201091
vt 0.981811 0.196027
vt 0.973891 0.194220
vt 0.965970 0.196029
vt 0.959619 0.201095
vt 0.956095 0.208415
vt 0.956096 0.216540
vt 0.959622 0.223859
vt 0.965975 0.228923
vt 0.973896 0.230730
vt 0.981816 0.228921
vt 0.358265 0.228035
vt 0.377881 0.333894
vt 0.994141 0.005859
vt 0.005859 0.155567
vn 0.900969 0.000000 -0.433884
vn 0.623490 0.000000 -0.781831
vn 0.623490 0.000000 -0.781831
vn 0.900969 0.000000 -0.433884
vn 0.222521 0.000000 -0.974928
vn 0.222521 0.000000 -0.974928
vn 0.000000 0.000000 -1.000000
vn 0.000000 0.000000 -1.000000
vn -0.433884 0.000000 -0.900969
vn -0.623490 0.000000 -0.781832
vn -0.623490 0.000000 -0.781832
vn -0.433884 0.000000 -0.900969
vn -0.900969 0.000000 -0.433884
vn -0.900969 0.000000 -0.433884
vn -1.000000 0.000000 -0.000000
vn -1.000000 0.000000 -0.000000
vn -0.900969 0.000000 0.433884
vn -0.900969 0.000000 0.433884
vn -0.623490 0.000000 0.781831
vn -0.623490 0.000000 0.781831
vn -0.222521 0.000000 0.974928
vn -0.222521 0.000000 0.974928
vn 0.222521 0.000000 0.974928
vn 0.222521 0.000000 0.974928
vn 0.623490 0.000000 0.781832
vn 0.623490 0.000000 0.781832
vn 0.900969 0.000000 0.433884
vn 0.900969 0.000000 0.433884
vn 1.000000 0.000000 -0.000000
vn 1.000000 0.000000 -0.000000
vn 0.093882 0.994557 -0.045195
vn 0.064968 0.994557 -0.081453
vn 0.000000 1.000000 -0.000001
vn 0.023187 0.994558 -0.101572
vn -0.023187 0.994558 -0.101572
vn -0.064968 0.994558 -0.081446
vn -0.093881 0.994557 -0.045203
vn -0.104200 0.994556 -0.000019
vn -0.093882 0.994557 0.045192
vn -0.064968 0.994557 0.081464
vn -0.023187 0.994557 0.101585
vn 0.023187 0.994556 0.101589
vn 0.064968 0.994555 0.081481
vn 0.093881 0.994557 0.045205
vn 0.104201 0.994556 -0.000003
vn 1.000000 0.000000 0.000000
vn 0.900969 0.000000 -0.433883
vn 0.900969 0.000000 -0.433883
vn 1.000000 0.000000 0.000000
vn 0.900969 0.000000 0.433883
vn 0.900969 0.000000 0.433883
vn 0.623491 0.000000 0.781831
vn 0.623491 0.000000 0.781831
vn 0.222521 0.000000 0.974928
vn 0.222521 0.000000 0.974928
vn -0.222521 0.000000 0.974928
vn -0.222521 0.000000 0.974928
vn -0.623489 0.000000 0.781832
vn -0.623489 0.000000 0.781832
vn -0.900969 0.000000 0.433883
vn -0.900969 0.000000 0.433883
vn -1.000000 0.000000 -0.000001
vn -1.000000 0.000000 -0.000001
vn -0.900969 0.000000 -0.433884
vn -0.900969 0.000000 -0.433884
vn -0.623489 0.000000 -0.781832
vn -0.623489 0.000000 -0.781832
vn -0.433882 0.000000 -0.900970
vn -0.433882 0.000000 -0.900970
vn 0.222521 0.000000 -0.974928
vn 0.000000 0.000000 -1.000000
vn 0.000000 0.000000 -1.000000
vn 0.222521 0.000000 -0.974928
vn 0.623491 0.000000 -0.781831
vn 0.623491 0.000000 -0.781831
vn 0.664509 0.675288 -0.320020
vn 0.459853 0.675288 -0.576647
vn 0.829213 0.391064 -0.399343
vn 0.573815 0.391049 -0.719595
vn 0.164117 0.675293 -0.719059
vn 0.204780 0.391051 -0.897298
vn -0.164121 0.675302 -0.719049
vn -0.204789 0.391063 -0.897291
vn -0.459858 0.675295 -0.576634
vn -0.573827 0.391059 -0.719580
vn -0.664510 0.675288 -0.320019
vn -0.829213 0.391064 -0.399343
vn -0.737552 0.675290 -0.000005
vn -0.920363 0.391066 -0.000000
vn -0.664513 0.675291 0.320008
vn -0.829218 0.391067 0.399330
vn -0.459859 0.675293 0.576636
vn -0.573839 0.391065 0.719568
vn -0.164116 0.675290 0.719062
vn -0.204790 0.391063 0.897291
vn 0.164121 0.675299 0.719052
vn 0.204799 0.391076 0.897283
vn 0.459860 0.675296 0.576631
vn 0.573850 0.391075 0.719553
vn 0.664512 0.675289 0.320014
vn 0.829219 0.391067 0.399328
vn 0.737552 0.675290 -0.000004
vn 0.920363 0.391066 0.000000
s 1
g S_P07_LP poles_08_low
usemtl aiStandardSurface1SG
f 522/710/710 523/711/711 550/714/712 537/716/713
f 523/711/711 524/718/714 549/720/715 550/714/712
f 524/718/714 525/722/716 548/812/717 549/720/715
f 525/811/718 526/726/719 547/728/720 548/724/721
f 526/726/719 527/730/722 546/732/723 547/728/720
f 527/730/722 528/734/724 545/736/725 546/732/723
f 528/734/724 529/781/726 544/782/727 545/736/725
f 529/781/726 530/783/728 543/784/729 544/782/727
f 530/783/728 531/785/730 542/786/731 543/784/729
f 531/785/730 532/787/732 541/788/733 542/786/731
f 532/787/732 533/789/734 540/790/735 541/788/733
f 533/789/734 534/791/736 539/792/737 540/790/735
f 539/792/737 534/791/736 535/793/738 538/794/739
f 535/793/738 522/710/710 537/716/713 538/794/739
s 3
f 551/738/740 554/739/741 536/740/742
f 554/739/741 557/741/743 536/740/742
f 557/741/743 560/742/744 536/740/742
f 560/742/744 563/743/745 536/740/742
f 563/743/745 566/744/746 536/740/742
f 566/744/746 569/745/747 536/740/742
f 569/745/747 572/746/748 536/740/742
f 572/746/748 575/747/749 536/740/742
f 575/747/749 578/748/750 536/740/742
f 578/748/750 581/749/751 536/740/742
f 581/749/751 584/750/752 536/740/742
f 584/750/752 587/751/753 536/740/742
f 587/751/753 590/752/754 536/740/742
f 590/752/754 551/738/740 536/740/742
s 4
f 538/737/755 537/713/756 553/753/757 592/754/758
f 539/735/759 538/737/755 592/754/758 589/755/760
f 540/733/761 539/735/759 589/755/760 586/756/762
f 541/731/763 540/733/761 586/756/762 583/757/764
f 542/729/765 541/731/763 583/757/764 580/758/766
f 543/727/767 542/729/765 580/758/766 577/759/768
f 544/725/769 543/727/767 577/759/768 574/760/770
f 545/723/771 544/725/769 574/760/770 571/761/772
f 546/721/773 545/723/771 571/761/772 568/762/774
f 547/719/775 546/721/773 568/762/774 565/763/776
f 548/717/777 547/719/775 565/763/776 562/809/778
f 549/715/779 548/810/780 562/764/781 559/765/782
f 550/712/783 549/715/779 559/765/782 556/766/784
f 537/713/756 550/712/783 556/766/784 553/753/757
s 3
f 551/738/740 552/767/785 555/768/786 554/739/741
f 552/767/785 553/808/787 556/807/788 555/768/786
f 554/739/741 555/768/786 558/769/789 557/741/743
f 555/768/786 556/807/788 559/806/790 558/769/789
f 557/741/743 558/769/789 561/770/791 560/742/744
f 558/769/789 559/806/790 562/805/792 561/770/791
f 560/742/744 561/770/791 564/771/793 563/743/745
f 561/770/791 562/805/792 565/804/794 564/771/793
f 563/743/745 564/771/793 567/772/795 566/744/746
f 564/771/793 565/804/794 568/803/796 567/772/795
f 566/744/746 567/772/795 570/773/797 569/745/747
f 567/772/795 568/803/796 571/802/798 570/773/797
f 569/745/747 570/773/797 573/774/799 572/746/748
f 570/773/797 571/802/798 574/801/800 573/774/799
f 572/746/748 573/774/799 576/775/801 575/747/749
f 573/774/799 574/801/800 577/800/802 576/775/801
f 575/747/749 576/775/801 579/776/803 578/748/750
f 576/775/801 577/800/802 580/799/804 579/776/803
f 578/748/750 579/776/803 582/777/805 581/749/751
f 579/776/803 580/799/804 583/798/806 582/777/805
f 581/749/751 582/777/805 585/778/807 584/750/752
f 582/777/805 583/798/806 586/797/808 585/778/807
f 584/750/752 585/778/807 588/779/809 587/751/753
f 585/778/807 586/797/808 589/795/810 588/779/809
f 587/751/753 588/779/809 591/780/811 590/752/754
f 588/779/809 589/795/810 592/796/812 591/780/811
f 553/808/787 552/767/785 591/780/811 592/796/812
f 552/767/785 551/738/740 590/752/754 591/780/811
