# This file uses centimeters as units for non-parametric coordinates.

mtllib S_P06_01_LP.mtl
g default
v -40.552216 86.324280 2.197574
v -32.886993 86.325584 2.197225
v -32.989822 86.677582 -0.000002
v -40.450169 86.677582 -0.000002
v -40.603607 7.731694 23.456711
v -32.836388 7.731699 23.456705
v -40.603607 8.744797 27.238068
v -32.836388 8.744797 27.238068
v -32.553753 0.000047 25.103348
v -31.953417 0.602957 24.319815
v -31.953442 2.285313 29.970804
v -32.554047 1.371463 29.593876
v -41.486557 0.602968 24.319832
v -40.885960 0.000000 25.103176
v -40.886238 1.371416 29.593699
v -41.486557 2.285307 29.970806
v -31.930559 6.075945 22.875303
v -41.509293 6.075991 22.875443
v -41.509293 7.601548 28.569315
v -31.930698 7.601548 28.569315
v -32.150925 6.740538 22.946604
v -41.288940 6.740590 22.946730
v -41.288940 8.141464 28.175282
v -32.151054 8.141464 28.175282
v -40.554558 89.255577 5.080583
v -32.885960 89.353477 5.055627
v -35.206848 89.284943 5.073096
v -35.164932 86.677582 -0.000003
v -35.205517 86.324677 2.197469
v -35.226311 7.731696 23.456709
v -35.500408 6.740575 22.946692
v -35.588543 6.075977 22.875401
v -35.579483 0.602965 24.319828
v -35.339165 0.000014 25.103228
v -35.339447 1.371431 29.593750
v -35.579491 2.285309 29.970806
v -35.588585 7.601548 28.569315
v -35.500443 8.141464 28.175282
v -35.226311 8.744797 27.238068
v -40.450005 99.676788 -0.000003
v -35.164871 99.676758 -0.000003
v -32.989983 99.676666 -0.000003
v -40.535492 91.079559 4.361714
v -40.450115 91.079559 -0.000002
v -32.904175 91.079559 4.372976
v -32.989880 91.079559 -0.000002
v -35.199322 91.079559 4.365069
v -35.164917 91.079559 -0.000002
v -40.450104 92.041206 -0.000002
v -32.914322 92.041206 3.992654
v -32.989891 92.041206 -0.000002
v -35.164909 92.041206 -0.000002
v -35.195286 92.041206 3.985673
v -40.849339 100.076546 -0.000003
v -40.850304 100.048065 0.559255
v -35.164795 100.048019 0.559257
v -35.164860 100.076202 -0.000004
v -40.853165 99.621109 1.425125
v -35.164902 99.621025 1.425203
v -32.589920 100.047920 0.559260
v -32.590672 100.076408 -0.000003
v -32.587345 99.620552 1.425939
v -40.942490 91.229393 4.732366
v -40.850040 91.080139 -0.000003
v -40.931469 92.190880 4.353494
v -40.850048 92.041962 -0.000005
v -35.199539 91.226295 4.737184
v -35.195591 92.188019 4.357758
v -32.589935 92.042152 -0.000003
v -32.509308 92.191193 4.364116
vt 0.758734 0.815762
vt 0.766163 0.805576
vt 0.523206 0.442022
vt 0.794811 0.832163
vt 0.727609 0.815898
vt 0.823617 0.436572
vt 0.680123 0.836924
vt 0.716631 0.816619
vt 0.711897 0.843699
vt 0.518754 0.638158
vt 0.871870 0.651640
vt 0.456009 0.691275
vt 0.871870 0.727382
vt 0.879170 0.629382
vt 0.871870 0.629382
vt 0.550262 0.638158
vt 0.879170 0.788468
vt 0.879170 0.692482
vt 0.879170 0.727382
vt 0.879170 0.767144
vt 0.879170 0.651640
vt 0.917519 0.727382
vt 0.917519 0.692482
vt 0.917519 0.651640
vt 0.917520 0.788467
vt 0.917519 0.629382
vt 0.917519 0.767144
vt 0.922156 0.592381
vt 0.922156 0.629381
vt 0.922156 0.727382
vt 0.922156 0.692482
vt 0.922156 0.651640
vt 0.851521 0.007161
vt 0.930754 0.767144
vt 0.922156 0.767144
vt 0.930755 0.788468
vt 0.911134 0.007161
vt 0.870960 0.007161
vt 0.898875 0.007161
vt 0.578338 0.442022
vt 0.930598 0.436572
vt 0.679126 0.823007
vt 0.727251 0.844196
vt 0.774216 0.907954
vt 0.778626 0.907202
vt 0.578338 0.567838
vt 0.578338 0.573560
vt 0.785119 0.903098
vt 0.578338 0.557948
vt 0.578338 0.461829
vt 0.764555 0.841707
vt 0.605484 0.567838
vt 0.707987 0.911491
vt 0.696232 0.907687
vt 0.765820 0.843428
vt 0.519960 0.465575
vt 0.519960 0.475753
vt 0.767430 0.848607
vt 0.711103 0.850591
vt 0.680752 0.845348
vt 0.727174 0.850858
vt 0.578338 0.465575
vt 0.578338 0.475753
vt 0.578338 0.471921
vt 0.764739 0.848771
vt 0.709075 0.851469
vt 0.729065 0.908276
vt 0.711300 0.908464
vt 0.605485 0.475753
vt 0.770735 0.905237
vt 0.930755 0.651640
vt 0.930755 0.629382
vt 0.823617 0.007161
vt 0.930598 0.007161
vt 0.726342 0.800985
vt 0.851521 0.436572
vt 0.898875 0.436572
vt 0.911134 0.436572
vt 0.930755 0.692482
vt 0.930754 0.727382
vt 0.706662 0.807998
vt 0.870960 0.436572
vt 0.811362 0.436572
vt 0.811362 0.007161
vt 0.871870 0.767144
vt 0.518754 0.691271
vt 0.871870 0.692482
vt 0.871870 0.592381
vt 0.550262 0.691270
vt 0.456009 0.638162
vt 0.930755 0.592381
vt 0.922157 0.788467
vt 0.917519 0.592381
vt 0.879170 0.592381
vt 0.871870 0.788468
vt 0.519960 0.573560
vt 0.729286 0.911488
vt 0.605484 0.557948
vt 0.677111 0.848646
vt 0.601472 0.471921
vt 0.798589 0.842977
vt 0.519960 0.557948
vt 0.798638 0.834682
vt 0.523205 0.461829
vt 0.703372 0.911171
vt 0.605484 0.573560
vt 0.519960 0.567838
vt 0.601472 0.461829
vt 0.601472 0.442022
vt 0.794873 0.817495
vn -0.346619 -0.398049 -0.849360
vn -0.752055 -0.646600 -0.127755
vn -0.999439 0.016721 -0.029020
vn -0.978563 -0.204890 -0.020853
vn 0.000035 -0.422376 -0.906421
vn 0.000081 -0.987349 -0.158565
vn 0.999675 0.008210 -0.024140
vn 0.658500 -0.319275 -0.681499
vn 0.752819 0.000333 -0.658227
vn -0.000001 -0.956393 0.292084
vn -0.000001 -0.956393 0.292084
vn -0.000000 -0.956393 0.292084
vn -0.000000 -0.956393 0.292084
vn 0.853898 0.053149 0.517719
vn 0.589256 -0.600886 0.540106
vn 0.794193 -0.581853 0.175230
vn 0.997939 -0.061459 0.018456
vn -0.710154 0.094669 0.697653
vn -0.690231 -0.269143 -0.671672
vn -0.460195 -0.840517 -0.285924
vn -0.461597 -0.574921 0.675569
vn -0.000007 -0.342335 -0.939578
vn 0.000008 -0.792467 -0.609915
vn -0.000009 -0.381391 0.924414
vn -0.000001 0.164290 0.986412
vn -0.700655 -0.144847 -0.698643
vn -0.708627 0.217589 0.671195
vn 0.000000 0.293122 0.956075
vn 0.999727 0.022578 -0.005980
vn 0.852835 0.167934 0.494440
vn -0.000009 -0.218341 -0.975873
vn 0.886487 0.446993 -0.119744
vn 0.678630 0.689006 0.254423
vn -0.525014 0.449839 -0.722499
vn -0.525013 0.750815 0.400797
vn 0.000000 0.756788 0.653661
vn -0.410951 0.625465 -0.663259
vn -0.000006 0.457563 -0.889177
vn -0.000009 0.328583 -0.944475
vn 0.769320 0.617101 -0.165327
vn 0.555012 0.822597 0.123680
vn -0.410955 0.873293 0.261679
vn 0.000000 0.840836 0.541289
vn -0.000124 0.265339 0.964155
vn -0.000125 0.265339 0.964155
vn -0.414877 0.241673 0.877195
vn -0.565140 0.219239 0.795331
vn -0.685749 -0.189646 -0.702697
vn -0.576963 -0.212931 -0.788526
vn 0.000000 -0.261114 -0.965308
vn 0.000000 -0.261114 -0.965308
vn 1.000000 0.000503 -0.000462
vn 0.721348 0.184184 0.667633
vn 0.841849 0.143696 0.520232
vn 1.000000 0.000503 -0.000462
vn 0.000000 0.000000 -1.000000
vn 0.936242 -0.340918 -0.085006
vn 0.000000 -0.261114 -0.965308
vn 0.000000 -0.261114 -0.965308
vn -0.000011 0.457580 -0.889168
vn -0.000019 0.259854 -0.965648
vn -0.000017 -0.226206 -0.974079
vn -0.000014 -0.309434 -0.950921
vn 0.000013 -0.792497 -0.609877
vn -0.000002 -0.956393 0.292085
vn -0.000002 -0.956393 0.292085
vn 0.000034 0.998720 0.050577
vn 0.000017 0.952472 0.304626
vn 0.000017 0.952551 0.304378
vn 0.000017 0.998720 0.050582
vn -0.000237 0.434227 0.900804
vn -0.000578 0.434615 0.900616
vn -0.001484 0.366993 0.930223
vn 0.022197 0.244394 0.969422
vn -0.000779 0.067010 0.997752
vn -0.000649 0.366838 0.930285
vn -0.003528 0.367369 0.930068
vn -0.003353 0.367371 0.930068
vn -0.324250 -0.058657 -0.944151
vn 0.000016 0.952460 0.304664
vn -0.000021 0.998719 0.050592
vn -0.001319 0.433690 0.901061
vn -0.926469 -0.365786 -0.088634
vn -0.966330 -0.256909 -0.014324
vn -0.999817 0.002775 -0.018921
vn -0.980415 0.002688 -0.196925
vn 0.193201 -0.073396 -0.978410
vn 0.912507 -0.408932 -0.010233
vn -0.000000 -0.000000 -1.000000
vn -0.000633 0.190698 0.981649
vn 0.064258 0.018976 0.997753
vn 0.005064 0.354200 0.935156
vn -0.000292 0.366833 0.930287
vn -0.002772 -0.182003 0.983294
vn 0.155833 -0.019771 0.987586
vn 0.000000 -0.000000 -1.000000
vn -0.999948 0.001523 -0.010095
vn 0.999951 0.001543 -0.009817
vn 0.970553 -0.105386 -0.216610
vn 0.939843 0.000148 -0.341606
vn 0.999997 0.000158 -0.002282
vn 0.000000 -0.000000 -1.000000
vn -0.000000 -0.000000 -1.000000
vn -0.001451 0.345425 0.938445
vn 0.000000 -0.000000 -1.000000
vn -0.903553 0.000137 -0.428476
vn 0.000000 -0.000002 -1.000000
vn 0.997761 -0.064602 -0.017335
vn 0.999414 0.017170 -0.029619
vn -0.999997 0.000152 -0.002636
s 1
g pillars_01_low S_P06_LP
usemtl aiStandardSurface1SG
f 4/1/1 1/2/2 25/110/3 43/4/4
f 28/5/5 29/75/6 1/2/2 4/1/1
f 45/7/7 3/8/8 46/9/9
s 3
f 34/10/10 35/86/11 15/12/12 14/90/13
s 4
f 11/14/14 12/15/15 9/88/16 10/94/17
f 16/18/18 13/19/19 14/13/20 15/87/21
f 33/20/22 34/85/23 14/13/20 13/19/19
f 15/87/21 35/11/24 36/21/25 16/18/18
f 18/22/26 13/19/19 16/18/18 19/23/27
f 19/23/27 16/18/18 36/21/25 37/24/28
f 17/93/29 20/26/30 11/14/14 10/94/17
f 32/27/31 33/20/22 13/19/19 18/22/26
f 21/28/32 24/29/33 20/26/30 17/93/29
f 22/30/34 18/22/26 19/23/27 23/31/35
f 23/31/35 19/23/27 37/24/28 38/32/36
f 5/80/37 30/34/38 31/35/39 22/30/34
f 31/35/39 32/27/31 18/22/26 22/30/34
f 21/28/32 6/91/40 8/72/41 24/29/33
f 7/79/42 5/80/37 22/30/34 23/31/35
f 38/32/36 39/71/43 7/79/42 23/31/35
s 7
f 39/39/44 27/77/45 25/82/46 7/38/47
f 25/82/46 1/76/48 5/33/49 7/38/47
f 1/76/48 29/6/50 30/73/51 5/33/49
f 2/41/52 26/78/53 8/37/54 6/74/55
s 1
f 3/8/8 28/5/5 48/43/56 46/9/9
f 3/8/8 2/81/57 29/75/6 28/5/5
s 7
f 30/73/51 29/6/50 2/83/58 6/84/59
s 4
f 31/35/39 30/34/38 6/36/60 21/92/61
f 21/92/61 17/25/62 32/27/31 31/35/39
f 17/25/62 10/17/63 33/20/22 32/27/31
f 10/17/63 9/95/64 34/85/23 33/20/22
s 3
f 9/16/65 12/89/66 35/86/11 34/10/10
s 4
f 36/21/25 35/11/24 12/15/15 11/14/14
f 37/24/28 36/21/25 11/14/14 20/26/30
f 38/32/36 37/24/28 20/26/30 24/29/33
f 8/72/41 39/71/43 38/32/36 24/29/33
s 7
f 26/78/53 27/77/45 39/39/44 8/37/54
s 8
f 54/96/67 55/107/68 56/46/69 57/47/70
f 55/107/68 58/102/71 59/49/72 56/46/69
f 27/40/73 47/50/74 43/104/75 25/3/76
f 26/109/77 45/108/78 47/50/74 27/40/73
s 1
f 4/1/1 44/51/79 48/43/56 28/5/5
s 8
f 57/47/70 56/46/69 60/52/80 61/106/81
f 56/46/69 59/49/72 62/98/82 60/52/80
s 1
f 64/55/83 63/103/84 65/101/85 66/58/86
f 45/7/7 46/9/9 51/59/87 50/60/88
f 46/9/9 48/43/56 52/61/89 51/59/87
s 8
f 63/56/90 67/62/91 68/63/92 65/57/93
f 47/50/74 45/108/78 50/100/94 53/64/95
s 1
f 48/43/56 44/51/79 49/65/96 52/61/89
f 66/58/86 65/101/85 58/48/97
f 62/54/98 69/66/99 61/53/100 60/105/101
f 51/59/87 52/61/89 41/67/102 42/68/103
s 8
f 65/57/93 68/63/92 59/49/72 58/102/71
f 68/63/92 70/69/104 62/98/82 59/49/72
s 1
f 52/61/89 49/65/96 40/70/105 41/67/102
f 41/67/102 40/70/105 54/44/106 57/97/107
f 42/68/103 41/67/102 57/97/107 61/53/100
f 44/51/79 43/4/4 63/103/84 64/55/83
f 49/65/96 44/51/79 64/55/83 66/58/86
s 8
f 43/104/75 47/50/74 67/62/91 63/56/90
f 47/50/74 53/64/95 68/63/92 67/62/91
s 1
f 40/70/105 49/65/96 66/58/86 54/44/106
f 50/60/88 51/59/87 69/66/99 70/99/108
f 51/59/87 42/68/103 61/53/100 69/66/99
s 8
f 53/64/95 50/100/94 70/69/104 68/63/92
s 1
f 70/99/108 69/66/99 62/54/98
f 26/42/109 2/81/57 3/8/8 45/7/7
f 4/1/1 43/4/4 44/51/79
f 66/58/86 58/48/97 55/45/110 54/44/106
g default
v -24.991865 80.089539 4.609450
v -26.721712 80.085754 4.610365
v -25.018747 86.654526 2.846760
v -26.694645 86.654205 2.846504
v -26.734791 86.944656 2.071296
v -24.978603 86.944656 2.072430
v -28.675274 86.587959 2.858758
v -23.041241 85.936073 2.410485
v -28.676043 85.934990 2.409735
v -23.042423 86.590309 2.860376
v -25.002522 79.371765 4.003520
v -26.711254 79.367081 4.004648
v -25.002546 79.572845 4.685915
v -26.711290 79.568169 4.687043
v -23.615402 79.916367 3.871811
v -23.615423 80.117455 4.554206
v -28.101616 79.906509 3.874193
v -28.101652 80.107574 4.556592
v -28.676210 86.881134 2.060490
v -28.676119 86.100471 1.943642
v -23.041237 86.100464 1.947267
v -23.041338 86.881134 2.064115
v -26.739855 83.290604 3.868618
v -28.661379 82.984879 3.906795
v -28.660601 82.718117 3.238121
v -23.057423 82.725189 3.236354
v -23.056730 82.991920 3.904825
v -24.973545 83.292328 3.868176
v -24.991865 80.089539 -4.729829
v -26.721712 80.085754 -4.730744
v -25.018747 86.654526 -2.967138
v -26.694645 86.654205 -2.966882
v -26.734791 86.944656 -2.191674
v -24.978603 86.944656 -2.192808
v -28.675274 86.587959 -2.979136
v -23.041241 85.936073 -2.530863
v -28.676043 85.934990 -2.530113
v -23.042423 86.590309 -2.980753
v -25.002522 79.371765 -4.123897
v -26.711254 79.367081 -4.125026
v -25.002546 79.572845 -4.806293
v -26.711290 79.568169 -4.807422
v -23.615402 79.916367 -3.992190
v -23.615423 80.117455 -4.674584
v -28.101616 79.906509 -3.994571
v -28.101652 80.107574 -4.676970
v -28.676210 86.881134 -2.180868
v -28.676119 86.100471 -2.064020
v -23.041237 86.100464 -2.067645
v -23.041338 86.881134 -2.184492
v -26.739855 83.290604 -3.988996
v -28.661379 82.984879 -4.027173
v -28.660601 82.718117 -3.358499
v -23.057423 82.725189 -3.356732
v -23.056730 82.991920 -4.025203
v -24.973545 83.292328 -3.988553
v -23.044477 85.293900 2.575659
v -23.045284 85.870636 3.069266
v -25.009703 85.982086 3.051044
v -26.703686 85.981491 3.050927
v -28.672497 85.867348 3.068366
v -28.672955 85.291618 2.575412
v -28.672955 85.291618 -2.695790
v -23.044477 85.293900 -2.696037
v -23.045284 85.870636 -3.189643
v -25.009703 85.982086 -3.171421
v -26.703686 85.981491 -3.171305
v -28.672497 85.867348 -3.188743
v -25.155817 86.270340 -3.497273
v -26.557716 86.269844 -3.497181
v -26.550709 86.995270 -3.273780
v -25.162870 86.995544 -3.273998
v -26.590834 87.378632 -2.253052
v -25.122646 87.378601 -2.254174
v -25.162870 86.995544 3.153618
v -26.550709 86.995270 3.153400
v -25.122646 87.378601 2.133795
v -26.590834 87.378632 2.132675
v -25.155817 86.270332 3.376896
v -26.557720 86.269836 3.376804
vt 0.457525 0.761606
vt 0.457543 0.746071
vt 0.487042 0.745878
vt 0.487045 0.761735
vt 0.450993 0.730319
vt 0.526520 0.812840
vt 0.589326 0.812840
vt 0.449134 0.736924
vt 0.512176 0.782330
vt 0.438311 0.735783
vt 0.441706 0.724818
vt 0.526520 0.782330
vt 0.440501 0.794765
vt 0.451242 0.792812
vt 0.453642 0.799454
vt 0.444462 0.805532
vt 0.462711 0.802776
vt 0.453955 0.808726
vt 0.531257 0.838202
vt 0.492404 0.825000
vt 0.497130 0.816282
vt 0.534714 0.829405
vt 0.552334 0.835137
vt 0.550255 0.843547
vt 0.571322 0.838208
vt 0.571028 0.846322
vt 0.587022 0.836693
vt 0.589054 0.844613
vt 0.623350 0.835505
vt 0.619457 0.827809
vt 0.666186 0.817940
vt 0.589326 0.782330
vt 0.497686 0.812840
vt 0.657035 0.821119
vt 0.511317 0.728535
vt 0.497686 0.782330
vt 0.632353 0.746043
vt 0.632380 0.761578
vt 0.602860 0.761725
vt 0.602854 0.745868
vt 0.649160 0.815918
vt 0.657040 0.812467
vt 0.658978 0.805764
vt 0.669785 0.807246
vt 0.669778 0.747985
vt 0.658936 0.749494
vt 0.532624 0.898455
vt 0.656911 0.742613
vt 0.666388 0.737226
vt 0.621732 0.714861
vt 0.657331 0.733542
vt 0.648368 0.738504
vt 0.605541 0.728645
vt 0.618159 0.812840
vt 0.616641 0.722886
vt 0.571774 0.779051
vt 0.603668 0.812840
vt 0.584850 0.700629
vt 0.581480 0.709068
vt 0.578572 0.728543
vt 0.618159 0.782330
vt 0.603668 0.782330
vt 0.564419 0.704499
vt 0.612791 0.787583
vt 0.612791 0.807585
vt 0.603668 0.807585
vt 0.603668 0.787583
vt 0.565693 0.695851
vt 0.512176 0.812840
vt 0.589326 0.807585
vt 0.589326 0.787583
vt 0.512176 0.807585
vt 0.512176 0.787583
vt 0.526520 0.787583
vt 0.526520 0.807585
vt 0.503054 0.807585
vt 0.503054 0.787583
vt 0.578581 0.779074
vt 0.544459 0.703659
vt 0.543872 0.694949
vt 0.527076 0.706428
vt 0.524681 0.697787
vt 0.487485 0.707388
vt 0.491443 0.715755
vt 0.531609 0.894822
vt 0.511331 0.779066
vt 0.518133 0.779043
vt 0.459242 0.727182
vt 0.484345 0.728655
vt 0.451144 0.721421
vt 0.632003 0.733677
vt 0.524651 0.939904
vt 0.452081 0.898473
vt 0.605586 0.778991
vt 0.564046 0.779057
vt 0.525845 0.779048
vt 0.564088 0.728551
vt 0.571777 0.728557
vt 0.637077 0.761490
vt 0.632073 0.773974
vt 0.480116 0.947880
vt 0.460164 0.939857
vt 0.637043 0.746139
vt 0.504678 0.947912
vt 0.451066 0.894824
vt 0.459139 0.853439
vt 0.484329 0.779002
vt 0.457839 0.774001
vt 0.518117 0.728550
vt 0.525821 0.728542
vt 0.452828 0.761520
vt 0.523626 0.853375
vt 0.457886 0.733704
vt 0.479088 0.845410
vt 0.452853 0.746169
vt 0.503651 0.845372
vt 0.577652 0.746194
vt 0.577654 0.761383
vt 0.512245 0.746190
vt 0.512250 0.761378
vt 0.518490 0.746315
vt 0.518500 0.761242
vt 0.571406 0.761250
vt 0.571405 0.746322
vt 0.564063 0.745963
vt 0.525842 0.745960
vt 0.564048 0.761603
vt 0.525847 0.761600
vn -0.011006 0.215372 0.976470
vn 0.011104 0.215392 0.976465
vn 0.010005 0.256458 0.966504
vn -0.010130 0.256549 0.966478
vn -0.032682 0.997759 0.058391
vn -0.032680 0.997669 0.059898
vn -0.032680 0.997669 -0.059898
vn -0.032682 0.997759 -0.058391
vn 0.020615 0.709212 0.704694
vn 0.020349 0.702362 0.711529
vn 0.032614 0.997775 0.058154
vn 0.032609 0.997695 0.059508
vn 0.000001 -0.235065 -0.971980
vn 0.000001 -0.235065 -0.971980
vn -0.000030 -0.221021 -0.975269
vn -0.000030 -0.221020 -0.975269
vn -0.000031 -0.220658 -0.975351
vn -0.000031 -0.220658 -0.975351
vn -0.020329 0.253016 0.967249
vn -0.023771 0.219812 0.975253
vn -0.008114 0.146321 0.989204
vn 0.008502 0.146280 0.989207
vn 0.023957 0.219834 0.975243
vn 0.020214 0.252924 0.967275
vn 0.032614 0.997775 -0.058154
vn 0.032609 0.997695 -0.059508
vn -0.008576 0.287307 0.957800
vn -0.014891 0.284870 0.958450
vn 0.014400 0.284556 0.958551
vn 0.008189 0.287127 0.957858
vn 0.011105 0.215392 -0.976465
vn -0.011006 0.215372 -0.976470
vn -0.010130 0.256549 -0.966478
vn 0.010005 0.256458 -0.966504
vn 0.000001 -0.235065 0.971980
vn 0.000001 -0.235065 0.971980
vn -0.000030 -0.221020 0.975269
vn -0.000030 -0.221021 0.975269
vn -0.000031 -0.220658 0.975351
vn -0.000031 -0.220658 0.975351
vn -0.020329 0.253016 -0.967248
vn -0.023771 0.219813 -0.975252
vn -0.008114 0.146322 -0.989204
vn 0.023957 0.219835 -0.975243
vn 0.008503 0.146281 -0.989207
vn 0.020214 0.252924 -0.967275
vn -0.008576 0.287307 -0.957800
vn -0.014892 0.284871 -0.958450
vn -0.021246 0.702233 -0.711630
vn -0.021516 0.709202 -0.704677
vn 0.014400 0.284556 -0.958551
vn 0.008189 0.287127 -0.957858
vn 0.020615 0.709211 -0.704695
vn 0.020349 0.702361 -0.711530
vn 0.210065 -0.148487 -0.966346
vn -0.210247 -0.148634 -0.966284
vn -0.194858 0.735701 -0.648671
vn 0.194268 0.735794 -0.648742
vn -0.021246 0.702233 0.711630
vn -0.021515 0.709202 0.704677
vn 0.999993 -0.001237 0.003511
vn 1.000000 0.000181 0.000147
vn 1.000000 0.000178 0.000139
vn 0.999996 -0.000729 0.002782
vn 1.000000 0.000178 -0.000139
vn 1.000000 0.000180 -0.000147
vn 0.999993 -0.001238 -0.003511
vn 0.999996 -0.000730 -0.002782
vn 0.999989 -0.003634 -0.003073
vn 0.999987 -0.003430 -0.003811
vn 0.877743 -0.457757 -0.141512
vn 0.995521 -0.089165 -0.031419
vn 0.993894 -0.104151 -0.036438
vn 0.865786 -0.478230 -0.147347
vn 0.178243 -0.943858 -0.278138
vn 0.180468 -0.943469 -0.278024
vn -0.173476 -0.944680 -0.278362
vn -0.175675 -0.944306 -0.278252
vn -0.865168 -0.479277 -0.147571
vn -0.877185 -0.458760 -0.141722
vn -0.995524 -0.089224 -0.031178
vn -0.993896 -0.104204 -0.036220
vn -0.999997 -0.000962 -0.002380
vn -0.999989 -0.003400 -0.003274
vn -0.999990 -0.003580 -0.002620
vn -0.999995 -0.001422 -0.003022
vn -1.000000 -0.000082 -0.000120
vn -1.000000 -0.000084 -0.000114
vn -1.000000 -0.000084 0.000114
vn -1.000000 -0.000082 0.000120
vn -0.999995 -0.001423 0.003022
vn -0.999997 -0.000963 0.002380
vn -0.995523 -0.089225 0.031178
vn -0.999989 -0.003401 0.003274
vn -0.999990 -0.003581 0.002620
vn -0.993896 -0.104204 0.036220
vn -0.877185 -0.458760 0.141720
vn -0.865168 -0.479278 0.147570
vn -0.173476 -0.944680 0.278362
vn -0.175675 -0.944306 0.278251
vn 0.178244 -0.943858 0.278138
vn 0.180468 -0.943469 0.278024
vn 0.865786 -0.478230 0.147346
vn 0.877743 -0.457758 0.141512
vn 0.995521 -0.089165 0.031419
vn 0.993894 -0.104151 0.036438
vn 0.999989 -0.003633 0.003073
vn 0.999987 -0.003430 0.003811
vn -0.235661 0.969524 -0.066988
vn 0.235768 0.969492 -0.067075
vn -0.194857 0.735697 0.648677
vn 0.194266 0.735791 0.648747
vn 0.235768 0.969492 0.067075
vn -0.235661 0.969524 0.066988
vn -0.210248 -0.148636 0.966283
vn 0.210064 -0.148489 0.966346
vn 0.350848 -0.618219 -0.703357
vn -0.350718 -0.618305 -0.703347
vn -0.951735 0.208657 -0.225082
vn 0.951629 0.208823 -0.225378
vn 0.950510 0.309486 -0.027364
vn -0.950577 0.309280 -0.027363
vn 0.951628 0.208827 0.225380
vn 0.950510 0.309487 0.027364
vn -0.950577 0.309281 0.027363
vn -0.951735 0.208660 0.225080
vn -0.350729 -0.618323 0.703325
vn 0.350860 -0.618234 0.703338
s 1
g S_P06_LP block_low
usemtl aiStandardSurface1SG
f 72/111/111 71/112/112 98/113/113 93/114/114
f 89/206/115 75/238/116 103/237/117 117/205/118
f 73/231/119 80/219/120 92/220/121 76/236/122
s 4
f 81/224/123 82/226/124 87/222/125 85/216/126
f 85/216/126 87/222/125 95/195/127 96/215/128
s 1
f 72/111/111 93/114/114 94/217/129 88/218/130
f 72/111/111 88/218/130 84/221/131
f 71/112/112 83/225/132 86/223/133
f 71/112/112 86/223/133 97/199/134 98/113/113
f 71/112/112 72/111/111 84/221/131 83/225/132
f 76/236/122 92/220/121 120/207/135 104/235/136
f 94/217/129 93/114/114 130/230/137 131/196/138
f 98/113/113 97/199/134 128/145/139 129/229/140
f 93/114/114 98/113/113 129/229/140 130/230/137
f 99/147/141 100/148/142 121/149/143 126/150/144
s 6
f 110/214/145 109/211/146 113/212/147 115/202/148
f 124/203/149 123/157/150 115/202/148 113/212/147
s 1
f 122/204/151 121/149/143 100/148/142 116/210/152
f 100/148/142 112/209/153 116/210/152
f 99/147/141 114/201/154 111/213/155
f 99/147/141 126/150/144 125/163/156 114/201/154
f 100/148/142 99/147/141 111/213/155 112/209/153
f 137/228/157 138/188/158 105/166/159 102/233/160
f 135/170/161 136/227/162 101/234/163 108/208/164
s 7
f 139/174/165 140/175/166 141/176/167 142/177/168
s 1
f 108/208/164 101/234/163 104/235/136 120/207/135
f 117/205/118 103/237/117 102/233/160 105/166/159
f 77/197/169 74/232/170 75/238/116 89/206/115
s 8
f 78/115/171 91/118/172 92/120/173 80/121/174
f 120/123/175 92/120/173 91/118/172 119/124/176
f 119/124/176 106/125/177 108/126/178 120/123/175
f 134/127/179 135/128/180 108/126/178 106/125/177
f 114/129/181 125/130/182 124/131/183 113/132/184
f 113/132/184 109/133/185 111/134/186 114/129/181
f 109/133/185 110/135/187 112/136/188 111/134/186
f 110/135/187 115/137/189 116/138/190 112/136/188
f 122/139/191 116/138/190 115/137/189 123/140/192
f 105/141/193 138/144/194 133/151/195 107/152/196
f 107/152/196 118/153/197 117/154/198 105/141/193
f 89/155/199 117/154/198 118/153/197 90/156/200
f 90/156/200 79/158/201 77/159/202 89/155/199
f 94/160/203 131/161/204 132/162/205 95/165/206
f 88/168/207 94/160/203 95/165/206 87/169/208
f 87/169/208 82/173/209 84/178/210 88/168/207
f 82/173/209 81/189/211 83/190/212 84/178/210
f 81/189/211 85/191/213 86/192/214 83/190/212
f 97/193/215 86/192/214 85/191/213 96/194/216
f 127/198/217 128/200/218 97/193/215 96/194/216
s 7
f 143/180/219 144/181/220 142/177/168 141/176/167
f 146/182/221 145/183/222 147/184/223 148/185/224
f 148/185/224 147/184/223 144/181/220 143/180/219
s 8
f 80/121/174 128/200/218 127/198/217 78/115/171
s 1
f 129/229/140 128/145/139 80/219/120 73/231/119
s 7
f 150/186/225 149/187/226 145/183/222 146/182/221
s 1
f 131/196/138 130/230/137 74/232/170 77/197/169
s 8
f 132/162/205 131/161/204 77/159/202 79/158/201
f 125/130/182 135/128/180 134/127/179 124/131/183
s 1
f 125/163/156 126/150/144 136/227/162 135/170/161
f 126/150/144 121/149/143 137/228/157 136/227/162
f 121/149/143 122/204/151 138/188/158 137/228/157
s 8
f 133/151/195 138/144/194 122/139/191 123/140/192
s 7
f 136/171/227 137/164/228 140/175/166 139/174/165
f 137/164/228 102/167/229 141/176/167 140/175/166
f 101/172/230 136/171/227 139/174/165 142/177/168
f 104/142/231 101/172/230 142/177/168 144/181/220
f 102/167/229 103/117/232 143/180/219 141/176/167
f 73/119/233 76/122/234 147/184/223 145/183/222
f 75/116/235 74/179/236 146/182/221 148/185/224
f 76/122/234 104/142/231 144/181/220 147/184/223
f 103/117/232 75/116/235 148/185/224 143/180/219
f 130/143/237 129/146/238 149/187/226 150/186/225
f 129/146/238 73/119/233 145/183/222 149/187/226
f 74/179/236 130/143/237 150/186/225 146/182/221
g default
v 33.274105 86.324280 2.197574
v 40.939327 86.325584 2.197225
v 40.836494 86.677582 -0.200001
v 33.376148 86.677582 -0.200001
v 33.222713 7.731694 23.456711
v 40.989929 7.731699 23.456705
v 33.222713 8.744797 27.238068
v 40.989929 8.744797 27.238068
v 41.272568 0.000047 25.103348
v 41.872902 0.602957 24.319815
v 41.872879 2.285313 29.970804
v 41.272274 1.371463 29.593876
v 32.339760 0.602968 24.319832
v 32.940357 0.000000 25.103176
v 32.940083 1.371416 29.593699
v 32.339760 2.285307 29.970806
v 41.895760 6.075945 22.875303
v 32.317024 6.075991 22.875443
v 32.317024 7.601548 28.569315
v 41.895618 7.601548 28.569315
v 41.675392 6.740538 22.946604
v 32.537380 6.740590 22.946730
v 32.537380 8.141464 28.175282
v 41.675262 8.141464 28.175282
v 33.271759 89.255577 5.080583
v 40.940357 89.353477 5.055627
v 38.746498 89.284943 5.073096
v 38.788410 86.677582 -0.200001
v 38.747833 86.324677 2.197469
v 38.727039 7.731696 23.456709
v 38.452942 6.740575 22.946692
v 38.364803 6.075977 22.875401
v 38.373859 0.602965 24.319828
v 38.614182 0.000014 25.103228
v 38.613899 1.371431 29.593750
v 38.373856 2.285309 29.970806
v 38.364761 7.601548 28.569315
v 38.452908 8.141464 28.175282
v 38.727039 8.744797 27.238068
v 33.290798 91.079559 4.369692
v 33.376205 91.079559 -0.200001
v 40.922169 91.079559 4.380605
v 40.836441 91.079559 -0.200001
v 38.754017 91.079559 4.372944
v 38.788429 91.079559 -0.200001
v 33.376217 92.041206 -0.200002
v 41.236374 92.041992 -0.200001
v 38.788437 92.041206 -0.200002
v 33.300831 92.041206 3.994895
v 38.758045 92.041206 3.997767
v 32.982941 100.080170 -0.200006
v 32.976223 100.072243 0.560833
v 38.788559 100.072205 0.560846
v 38.788490 100.215714 -0.200003
v 32.973244 99.640938 1.462105
v 38.788448 99.640862 1.462178
v 41.236183 100.072105 0.560850
v 41.235371 100.076752 -0.200001
v 41.238861 99.640388 1.462927
v 41.236366 91.080170 -0.200001
v 41.329189 91.228760 4.753123
v 41.318031 92.190086 4.376821
v 38.752773 91.225098 4.745529
v 38.757401 92.186668 4.370379
v 32.895832 92.189285 4.366383
v 32.981892 92.042145 -0.200005
v 38.788437 92.041206 -0.200005
vt 0.873696 0.476829
vt 0.882264 0.464395
vt 0.704256 0.437283
vt 0.911222 0.474854
vt 0.912404 0.489025
vt 0.775097 0.437283
vt 0.839694 0.482654
vt 0.836728 0.464392
vt 0.794636 0.513353
vt 0.486615 0.634340
vt 0.807222 0.710438
vt 0.550797 0.581227
vt 0.807222 0.592288
vt 0.814678 0.688983
vt 0.807222 0.688983
vt 0.456544 0.634340
vt 0.814678 0.654313
vt 0.814678 0.751769
vt 0.814678 0.592288
vt 0.814678 0.633064
vt 0.814678 0.710438
vt 0.852553 0.592288
vt 0.852553 0.751769
vt 0.852553 0.710438
vt 0.852553 0.654313
vt 0.852553 0.688983
vt 0.852553 0.633064
vt 0.857315 0.654313
vt 0.857315 0.688983
vt 0.857316 0.592288
vt 0.857316 0.751769
vt 0.857315 0.710438
vt 0.684766 0.007993
vt 0.866111 0.633064
vt 0.857315 0.633064
vt 0.866111 0.654313
vt 0.743910 0.007993
vt 0.704256 0.007993
vt 0.732462 0.007993
vt 0.700866 0.577909
vt 0.763360 0.437283
vt 0.827965 0.484370
vt 0.827734 0.515318
vt 0.843017 0.513254
vt 0.817539 0.476016
vt 0.700866 0.570060
vt 0.880911 0.504667
vt 0.912407 0.496416
vt 0.760379 0.570060
vt 0.760379 0.577909
vt 0.883335 0.510617
vt 0.791995 0.517168
vt 0.826722 0.517677
vt 0.700866 0.559739
vt 0.760379 0.559739
vt 0.827996 0.523566
vt 0.760379 0.442898
vt 0.795026 0.526013
vt 0.844764 0.519960
vt 0.886147 0.509949
vt 0.915085 0.498433
vt 0.760379 0.462512
vt 0.703842 0.462512
vt 0.703842 0.442898
vt 0.914928 0.555482
vt 0.782036 0.442898
vt 0.909482 0.560556
vt 0.839906 0.582330
vt 0.845462 0.580615
vt 0.782036 0.462512
vt 0.786659 0.570060
vt 0.863964 0.576787
vt 0.786659 0.577909
vt 0.786659 0.559739
vt 0.760379 0.473374
vt 0.703842 0.473374
vt 0.743910 0.437283
vt 0.760379 0.466041
vt 0.786659 0.466041
vt 0.866111 0.710438
vt 0.866111 0.688983
vt 0.486615 0.581227
vt 0.807222 0.751769
vt 0.807222 0.633064
vt 0.807222 0.654313
vt 0.775097 0.007993
vt 0.763360 0.007993
vt 0.844764 0.519960
vt 0.684766 0.437283
vt 0.732462 0.437283
vt 0.456544 0.581227
vt 0.550797 0.634340
vt 0.866111 0.751769
vt 0.866111 0.788357
vt 0.903989 0.562270
vt 0.786659 0.477138
vt 0.792726 0.498048
vt 0.832278 0.581237
vt 0.760379 0.477138
vt 0.700866 0.477138
vt 0.807222 0.788357
vt 0.804034 0.437283
vt 0.804034 0.007993
vt 0.852553 0.788357
vt 0.857315 0.788357
vt 0.866111 0.592288
vt 0.814678 0.788357
vn -0.346885 -0.426670 -0.835239
vn -0.733121 -0.669321 -0.120589
vn -0.999488 0.016134 -0.027634
vn -0.999707 0.007985 -0.022852
vn 0.000038 -0.453197 -0.891411
vn 0.000081 -0.989338 -0.145637
vn 0.978048 -0.207399 -0.020212
vn 0.689324 -0.329584 -0.645141
vn 0.650216 -0.117540 -0.750602
vn -0.000001 -0.956393 0.292085
vn -0.000001 -0.956393 0.292084
vn -0.000000 -0.956393 0.292085
vn -0.000000 -0.956393 0.292085
vn 0.861878 0.050139 0.504632
vn 0.596855 -0.601843 0.530612
vn 0.597878 -0.789516 -0.138586
vn 0.849639 -0.214123 -0.481939
vn -0.702681 0.096531 0.704926
vn -0.997939 -0.061464 0.018440
vn -0.794196 -0.581861 0.175185
vn -0.456284 -0.573495 0.680374
vn -0.000007 -0.342648 -0.939464
vn 0.000008 -0.792466 -0.609916
vn 0.000003 -0.792444 -0.609944
vn -0.000003 -0.314378 -0.949298
vn -0.000009 -0.381392 0.924414
vn -0.000001 0.163958 0.986467
vn -0.999727 0.022585 -0.005997
vn -0.701093 0.219566 0.678424
vn 0.000000 0.293197 0.956052
vn 0.855839 -0.097468 -0.507976
vn 0.860923 0.164259 0.481489
vn -0.000009 -0.218268 -0.975889
vn -0.000004 -0.225413 -0.974263
vn 0.687542 0.470221 -0.553334
vn 0.687544 0.683876 0.244123
vn -0.886494 0.446975 -0.119756
vn -0.518611 0.752359 0.406200
vn 0.000000 0.757172 0.653216
vn -0.000003 0.457551 -0.889184
vn -0.000006 0.457563 -0.889178
vn -0.000009 0.329138 -0.944282
vn -0.000005 0.273397 -0.961901
vn 0.563438 0.651249 -0.508342
vn 0.563457 0.818152 0.114643
vn -0.405717 0.874373 0.266206
vn -0.769344 0.617071 -0.165328
vn 0.000000 0.840836 0.541290
vn -0.000124 0.265339 0.964155
vn -0.000125 0.265339 0.964155
vn -0.406909 0.242622 0.880659
vn -0.556137 0.220851 0.801209
vn -1.000000 0.000461 -0.000625
vn -1.000000 0.000461 -0.000625
vn 0.000000 -0.261114 -0.965308
vn 0.000000 -0.261114 -0.965308
vn 0.000000 -0.261114 -0.965308
vn 0.000000 -0.261114 -0.965308
vn 0.916591 -0.103864 -0.386100
vn 0.740610 0.178720 0.647732
vn 0.855027 0.138098 0.499858
vn 0.862161 -0.131785 -0.489195
vn 0.000000 -0.000000 -1.000000
vn 0.939361 -0.333973 -0.077867
vn -0.000002 -0.956393 0.292084
vn -0.000002 -0.956393 0.292084
vn -0.011606 0.995022 0.098977
vn -0.005079 0.956269 0.292445
vn 0.000104 0.956545 0.291586
vn 0.000180 0.995151 0.098362
vn -0.000220 0.434093 0.900868
vn -0.000579 0.434473 0.900685
vn -0.001438 0.363444 0.931615
vn -0.021448 0.319693 0.947278
vn -0.000583 0.363303 0.931671
vn -0.000615 0.363304 0.931671
vn -0.437977 0.000217 -0.898986
vn -0.003622 0.363817 0.931464
vn -0.003571 0.041182 0.999145
vn 0.012439 0.956585 0.291188
vn 0.028267 0.994898 0.096842
vn -0.001416 0.433396 0.901202
vn -0.913047 -0.407735 -0.009885
vn -0.632834 -0.239102 -0.736445
vn 0.966508 -0.256266 -0.013752
vn 0.929242 -0.366327 -0.048102
vn 0.742211 0.002099 -0.670163
vn 0.999868 0.002802 -0.016032
vn 0.000001 -0.000001 -1.000000
vn -0.068549 -0.010002 0.997598
vn -0.000672 -0.167152 0.985931
vn -0.148284 0.028516 0.988534
vn -0.003079 0.195468 0.980705
vn -0.001727 0.363862 0.931451
vn -0.006679 0.332937 0.942925
vn -0.385800 -0.033299 -0.921981
vn -0.998491 -0.052764 -0.015232
vn -0.999867 0.002397 -0.016158
vn -0.999885 0.002055 -0.015053
vn 0.999911 0.002574 -0.013109
vn 0.146518 0.000018 -0.989208
vn 0.000000 0.000000 -1.000000
vn -0.000251 0.340663 0.940186
vn 0.000000 -0.000000 -1.000000
vn -0.063425 0.000008 -0.997987
vn 0.999466 0.016546 -0.028177
vn 0.999879 0.003007 -0.015235
s 1
g S_P06_LP pillars_04_low
usemtl aiStandardSurface1SG
f 154/239/239 151/240/240 175/242/241 190/243/242
f 178/245/243 179/246/244 151/240/240 154/239/239
f 192/247/245 153/280/246 193/281/247
s 3
f 184/248/248 185/320/249 165/250/250 164/330/251
s 4
f 161/252/252 162/253/253 159/323/254 160/255/255
f 166/256/256 163/345/257 164/339/258 165/321/259
f 183/258/260 184/322/261 164/251/262 163/257/263
f 165/321/259 185/249/264 186/259/265 166/256/256
f 168/342/266 163/345/257 166/256/256 169/261/267
f 169/261/267 166/256/256 186/259/265 187/262/268
f 167/263/269 170/264/270 161/252/252 160/255/255
f 182/265/271 183/258/260 163/257/263 168/260/272
f 171/266/273 174/267/274 170/264/270 167/263/269
f 172/343/275 168/342/266 169/261/267 173/269/276
f 173/269/276 169/261/267 187/262/268 188/270/277
f 155/344/278 180/272/279 181/273/280 172/268/281
f 181/273/280 182/265/271 168/260/272 172/268/281
f 171/266/273 156/274/282 158/319/283 174/267/274
f 157/331/284 155/332/285 172/343/275 173/269/276
f 188/270/277 189/318/286 157/331/284 173/269/276
s 7
f 189/277/287 177/328/288 175/241/289 157/276/290
f 175/241/289 151/327/291 155/271/292 157/276/290
f 151/340/293 179/244/294 180/324/295 155/341/296
f 152/279/297 176/315/298 158/275/299 156/325/300
s 1
f 153/280/246 178/245/243 195/282/301 193/281/247
f 153/280/246 152/283/302 179/246/244 178/245/243
s 7
f 180/324/295 179/244/294 152/279/297 156/325/300
s 4
f 181/273/280 180/272/279 156/274/282 171/266/273
f 171/266/273 167/263/269 182/265/271 181/273/280
f 167/263/269 160/255/255 183/258/260 182/265/271
f 160/255/255 159/323/254 184/322/261 183/258/260
s 3
f 159/254/303 162/329/304 185/320/249 184/248/248
s 4
f 186/259/265 185/249/264 162/253/253 161/252/252
f 187/262/268 186/259/265 161/252/252 170/264/270
f 188/270/277 187/262/268 170/264/270 174/267/274
f 158/319/283 189/318/286 188/270/277 174/267/274
s 7
f 176/315/298 177/328/288 189/277/287 158/275/299
s 9
f 201/278/305 202/284/306 203/287/307 204/288/308
f 202/284/306 205/292/309 206/293/310 203/287/307
f 177/295/311 194/300/312 190/301/313 175/302/314
s 1
f 154/239/239 191/285/315 195/282/301 178/245/243
s 9
f 176/304/316 192/308/317 194/300/312 177/295/311
f 204/288/308 203/287/307 207/309/318 208/311/319
f 203/287/307 206/293/310 209/312/320 207/309/318
s 1
f 191/285/315 190/243/242 199/286/321 196/289/322
f 211/290/323 210/291/324 197/294/325 212/296/326
f 193/281/247 195/282/301 198/297/327 197/294/325
s 9
f 190/301/313 194/300/312 200/313/328 199/314/329
s 1
f 195/282/301 191/285/315 196/289/322 198/297/327
s 9
f 213/316/330 211/317/331 212/334/332 214/337/333
s 1
f 216/298/334 215/299/335 205/303/336 202/305/337
f 207/306/338 197/294/325 208/307/339
f 208/307/339 197/294/325 198/297/327 204/310/340
s 9
f 215/338/341 214/337/333 206/293/310 205/292/309
s 1
f 217/326/342 216/298/334 201/333/343 204/310/340
s 9
f 214/337/333 212/334/332 209/312/320 206/293/310
s 1
f 192/247/245 193/281/247 210/291/324 211/290/323
f 193/281/247 197/294/325 210/291/324
s 9
f 194/300/312 192/308/317 211/317/331 213/316/330
f 200/313/328 194/300/312 213/316/330 214/337/333
s 1
f 196/289/322 199/286/321 215/299/335 216/298/334
s 9
f 199/314/329 200/313/328 214/337/333 215/338/341
s 1
f 198/297/327 196/289/322 216/298/334 217/326/342
f 198/297/327 217/326/342 204/310/340
f 176/335/344 152/283/302 153/280/246 192/247/245
f 212/296/326 197/294/325 207/306/338 209/336/345
f 154/239/239 190/243/242 191/285/315
f 216/298/334 202/305/337 201/333/343
g default
v 36.416752 82.149200 -8.561093
v -42.772461 82.151031 -8.561140
v 43.927425 74.894409 -10.507333
v 43.926521 74.491730 -9.005903
v 43.926590 58.681030 -13.242157
v 36.412411 81.748596 -7.059125
v -42.776825 81.746887 -7.059634
v -43.927429 81.035500 -8.856977
v -43.927414 80.634224 -7.359815
v -43.927429 58.681053 -13.242674
v 42.771645 57.968102 -15.040945
v -42.776825 57.969669 -15.040018
v 43.926613 59.082092 -14.739354
v 42.776001 57.567345 -13.538530
v -42.772461 57.565525 -13.538510
v -43.927414 59.082336 -14.739840
vt 0.420766 0.131122
vt 0.985746 0.919365
vt 0.985746 0.813823
vt 0.420769 0.249753
vt 0.419922 0.007033
vt 0.968139 0.793999
vt 0.968139 0.870030
vt 0.392636 0.126669
vt 0.045513 0.249821
vt 0.015141 0.125069
vt 0.978526 0.813823
vt 0.978526 0.919365
vt 0.017533 0.007156
vt 0.015374 0.131197
vt 0.975361 0.793999
vt 0.985746 0.389177
vt 0.426241 0.244283
vt 0.426219 0.136582
vt 0.985746 0.926937
vt 0.975361 0.786425
vt 0.009902 0.136667
vt 0.009914 0.214234
vt 0.985746 0.806251
vt 0.985746 0.438513
vt 0.968139 0.389057
vt 0.968139 0.786425
vt 0.012113 0.012130
vt 0.425322 0.012016
vt 0.009957 0.119724
vt 0.978526 0.806251
vt 0.978526 0.438513
vt 0.427551 0.089505
vt 0.975361 0.389057
vt 0.978526 0.926937
vt 0.975361 0.870030
vt 0.978526 0.389177
vn -0.000876 0.195780 -0.980648
vn -0.667952 0.161295 -0.726515
vn -0.668098 0.223560 -0.709694
vn -0.000872 0.316461 -0.948605
vn 0.000019 -0.258808 0.965929
vn 0.000549 -0.258734 0.965948
vn 0.000549 -0.258734 0.965948
vn 0.000009 -0.258810 0.965928
vn 0.004836 0.312153 -0.950020
vn -0.014372 0.965833 0.258767
vn 0.086024 0.962321 0.257949
vn -0.998832 0.046684 0.012469
vn -0.998831 -0.046708 -0.012475
vn -0.707257 -0.683014 -0.182427
vn 0.000996 0.185338 -0.982674
vn 0.013316 -0.965838 -0.258804
vn -0.000000 -0.965926 -0.258817
vn 0.222183 0.238089 -0.945489
vn 0.997838 -0.063541 -0.016792
vn 0.295325 0.335832 -0.894427
vn 1.000000 -0.000099 0.000283
vn 0.707106 0.682787 0.183854
vn -0.000012 -0.258811 0.965928
vn -0.000012 -0.258811 0.965928
vn -0.002142 -0.258819 0.965923
vn -0.002142 -0.258819 0.965923
s 1
g S_P06_LP signs_03_low
usemtl aiStandardSurface1SG
f 229/346/346 233/363/347 225/362/348 219/349/349
s 2
f 231/350/350 222/373/351 221/377/352 223/353/353
s 1
f 218/369/354 219/368/349 224/375/355 223/376/356
f 219/368/349 225/348/348 226/356/357 224/375/355
f 225/348/348 233/347/347 227/357/358 226/356/357
f 233/347/347 229/364/346 232/379/359 227/357/358
f 229/378/346 228/365/360 231/371/361 232/370/362
f 228/365/360 230/360/363 222/351/364 231/371/361
f 230/360/363 220/380/365 221/352/366 222/351/364
f 220/361/365 218/369/354 223/376/356 221/381/367
f 228/359/360 218/354/354 220/367/365 230/366/363
f 229/346/346 219/349/349 218/354/354 228/359/360
s 2
f 231/350/350 223/353/353 224/355/368 232/358/369
f 232/358/369 224/355/368 226/374/370 227/372/371
g default
v 40.938534 86.324280 -2.197576
v 33.273312 86.325584 -2.197226
v 33.376148 86.677582 -0.200007
v 40.836494 86.677582 -0.200007
v 40.989918 7.731694 -23.456715
v 33.222706 7.731699 -23.456707
v 40.989929 8.744797 -27.238064
v 33.222713 8.744797 -27.238064
v 32.940079 0.000047 -25.103352
v 32.339741 0.602957 -24.319818
v 32.339760 2.285313 -29.970806
v 32.940369 1.371463 -29.593878
v 41.872879 0.602968 -24.319836
v 41.272285 0.000000 -25.103178
v 41.272568 1.371416 -29.593700
v 41.872879 2.285307 -29.970804
v 32.316883 6.075945 -22.875307
v 41.895618 6.075991 -22.875446
v 41.895618 7.601548 -28.569317
v 32.317024 7.601548 -28.569317
v 32.537251 6.740538 -22.946606
v 41.675259 6.740590 -22.946733
v 41.675259 8.141464 -28.175278
v 32.537380 8.141464 -28.175278
v 40.940884 89.255577 -5.080585
v 33.272278 89.353477 -5.055629
v 38.747025 89.324104 -5.063116
v 38.788410 86.677582 -0.200007
v 38.747040 86.325195 -2.197331
v 38.727036 7.731697 -23.456709
v 38.452816 6.740553 -22.946644
v 38.364662 6.075959 -22.875349
v 38.373840 0.602960 -24.319824
v 38.613899 0.000033 -25.103298
v 38.614185 1.371449 -29.593826
v 38.373859 2.285311 -29.970806
v 38.364761 7.601548 -28.569317
v 38.452900 8.141464 -28.175278
v 38.727039 8.744797 -27.238064
v 40.921852 91.079559 -4.371203
v 40.836441 91.079559 -0.200007
v 33.290466 91.079559 -4.382049
v 33.376205 91.079559 -0.200007
v 38.754395 91.079559 -4.378773
v 38.788437 91.079559 -0.200007
v 41.236374 92.041985 -0.200007
v 33.300598 92.041206 -4.006781
v 33.376217 92.041206 -0.200007
v 38.788441 92.041206 -0.200007
v 38.758438 92.041206 -4.003887
v 41.235340 100.076874 -0.200008
v 41.236385 100.076797 -0.561150
v 38.788742 100.076691 -0.561151
v 38.800812 100.215714 -0.200004
v 41.239368 99.645119 -1.468380
v 38.789345 99.644653 -1.469117
v 32.976498 100.076660 -0.561156
v 32.982918 100.076782 -0.200004
v 32.973812 99.644577 -1.469192
v 41.328823 91.227409 -4.741548
v 41.236366 91.080162 -0.200008
v 41.317795 92.188980 -4.367925
v 38.755623 91.224701 -4.751510
v 38.759079 92.186417 -4.376599
v 32.981850 92.042168 -0.200003
v 32.895645 92.189392 -4.378439
v 38.788441 92.041206 -0.200003
vt 0.906586 0.820734
vt 0.940745 0.839761
vt 0.912237 0.850645
vt 0.895229 0.822444
vt 0.606547 0.434619
vt 0.894685 0.806714
vt 0.914404 0.811493
vt 0.829507 0.844491
vt 0.861716 0.824165
vt 0.623349 0.633212
vt 0.733138 0.711895
vt 0.653421 0.580100
vt 0.733138 0.656459
vt 0.725739 0.753492
vt 0.733138 0.753492
vt 0.559167 0.633212
vt 0.725739 0.593245
vt 0.725740 0.690157
vt 0.725739 0.656459
vt 0.725739 0.634682
vt 0.725740 0.711895
vt 0.687857 0.656459
vt 0.687857 0.690157
vt 0.687857 0.711895
vt 0.687857 0.593245
vt 0.687857 0.753492
vt 0.687857 0.634682
vt 0.683115 0.789714
vt 0.683115 0.753492
vt 0.683115 0.656459
vt 0.683115 0.690157
vt 0.683115 0.711895
vt 0.606547 0.006503
vt 0.674368 0.656459
vt 0.674368 0.634682
vt 0.683115 0.634682
vt 0.618052 0.006503
vt 0.618052 0.434619
vt 0.637719 0.006503
vt 0.859273 0.853770
vt 0.897497 0.853427
vt 0.637719 0.434619
vt 0.853613 0.814538
vt 0.914073 0.852250
vt 0.944024 0.842055
vt 0.455446 0.570721
vt 0.944310 0.849915
vt 0.914989 0.858010
vt 0.455446 0.560153
vt 0.455446 0.444254
vt 0.455446 0.463048
vt 0.434040 0.444254
vt 0.859116 0.860423
vt 0.830242 0.852260
vt 0.897786 0.860479
vt 0.515949 0.560153
vt 0.930196 0.909564
vt 0.429662 0.466846
vt 0.429662 0.476855
vt 0.923732 0.914449
vt 0.851970 0.917875
vt 0.856302 0.860428
vt 0.854750 0.918496
vt 0.455446 0.466846
vt 0.455446 0.476855
vt 0.455446 0.473098
vt 0.897786 0.860479
vt 0.901528 0.918518
vt 0.515949 0.476855
vt 0.649510 0.006503
vt 0.649510 0.434619
vt 0.558954 0.006503
vt 0.578236 0.006503
vt 0.674368 0.593245
vt 0.674368 0.753492
vt 0.578236 0.434619
vt 0.558954 0.434619
vt 0.674368 0.690157
vt 0.674368 0.711895
vt 0.674368 0.789714
vt 0.683115 0.593245
vt 0.687857 0.789714
vt 0.725739 0.789714
vt 0.623349 0.580100
vt 0.733138 0.690157
vt 0.733138 0.634682
vt 0.733138 0.789714
vt 0.733138 0.593245
vt 0.559167 0.580100
vt 0.653421 0.633212
vt 0.678570 0.006503
vt 0.678570 0.434619
vt 0.920995 0.915254
vt 0.827061 0.854990
vt 0.515949 0.574655
vt 0.511192 0.473098
vt 0.941009 0.825125
vt 0.429662 0.560153
vt 0.828597 0.830289
vt 0.434040 0.463048
vt 0.515949 0.570721
vt 0.429662 0.570721
vt 0.511192 0.463048
vt 0.511192 0.444254
vt 0.845171 0.913427
vt 0.455446 0.574655
vt 0.429662 0.574655
vn 0.674167 -0.289029 0.679677
vn 0.978174 -0.206636 0.021834
vn 0.615366 -0.111461 0.780321
vn -0.000032 -0.389732 0.920928
vn -0.000080 -0.984792 0.173739
vn 0.949150 -0.302980 0.085540
vn -0.999646 0.008328 0.025261
vn -0.328629 -0.370751 0.868647
vn -0.406803 0.000164 0.913516
vn 0.000001 -0.956393 -0.292084
vn 0.000001 -0.956393 -0.292084
vn 0.000002 -0.956393 -0.292084
vn 0.000002 -0.956393 -0.292084
vn -0.702693 0.096533 -0.704915
vn -0.456239 -0.573417 -0.680470
vn -0.794194 -0.581851 -0.175230
vn -0.997939 -0.061459 -0.018455
vn 0.861875 0.050149 -0.504636
vn 0.849642 -0.214109 0.481940
vn 0.597825 -0.789536 0.138699
vn 0.596916 -0.601870 -0.530513
vn 0.000007 -0.342663 0.939459
vn -0.000008 -0.792494 0.609880
vn 0.000009 -0.381350 -0.924431
vn 0.000001 0.163966 -0.986466
vn 0.855835 -0.097459 0.507984
vn 0.860925 0.164266 -0.481483
vn 0.000000 0.293197 -0.956052
vn -0.999727 0.022579 0.005981
vn -0.701093 0.219560 -0.678427
vn 0.000009 -0.218274 0.975888
vn -0.886487 0.446993 0.119743
vn -0.518610 0.752365 -0.406191
vn 0.687549 0.470198 0.553345
vn 0.687550 0.683870 -0.244126
vn 0.000000 0.757174 -0.653214
vn 0.563459 0.651220 0.508357
vn 0.000007 0.457582 0.889167
vn 0.000009 0.329163 0.944273
vn -0.769319 0.617102 0.165326
vn -0.405715 0.874378 -0.266192
vn 0.563466 0.818145 -0.114654
vn 0.000000 0.840836 -0.541289
vn 0.000124 0.265330 -0.964158
vn 0.000123 0.265330 -0.964158
vn 0.733556 0.180763 -0.655149
vn 0.855062 0.138088 -0.499801
vn 0.914895 -0.104873 0.389833
vn 0.861913 -0.131894 0.489603
vn 0.000000 -0.261114 0.965308
vn 0.000000 -0.261114 0.965308
vn -1.000000 0.000503 0.000461
vn -0.402481 0.243124 -0.882553
vn -0.556038 0.220854 -0.801277
vn -1.000000 0.000503 0.000461
vn -0.000000 0.000000 1.000000
vn -0.745867 -0.651101 0.140533
vn 0.000000 -0.261114 0.965308
vn 0.000000 -0.261114 0.965308
vn 0.000002 0.457594 0.889161
vn 0.000004 0.273424 0.961894
vn 0.000004 -0.225427 0.974260
vn 0.000003 -0.314418 0.949285
vn -0.000003 -0.792515 0.609852
vn 0.000001 -0.956393 -0.292084
vn 0.000001 -0.956393 -0.292084
vn 0.027890 0.981494 -0.189451
vn 0.007454 0.929816 -0.367951
vn -0.000103 0.930135 -0.367218
vn 0.000256 0.981963 -0.189072
vn 0.001398 0.433067 -0.901361
vn 0.000575 0.434754 -0.900549
vn 0.001492 0.363215 -0.931704
vn -0.019269 0.318847 -0.947610
vn 0.003997 0.044981 -0.998980
vn 0.003586 0.362842 -0.931844
vn 0.000617 0.363370 -0.931645
vn 0.000585 0.363370 -0.931645
vn -0.003136 0.929779 -0.368106
vn -0.011732 0.981933 -0.188863
vn 0.000222 0.434695 -0.900578
vn 0.928679 -0.367131 0.052639
vn 0.966696 -0.255486 0.015031
vn 0.999847 0.002227 0.017379
vn 0.722506 0.001630 0.691363
vn -0.600436 -0.226616 0.766891
vn -0.912952 -0.407922 0.010905
vn 0.000001 -0.000001 1.000000
vn 0.003294 0.193495 -0.981096
vn -0.142133 0.026890 -0.989482
vn -0.005225 0.332688 -0.943023
vn 0.001706 0.362815 -0.931860
vn 0.000404 -0.167045 -0.985949
vn -0.067412 -0.010390 -0.997671
vn 0.999861 0.002358 0.016496
vn 0.999881 0.002161 0.015293
vn -0.999847 0.001692 0.017406
vn -0.369309 -0.030709 0.928799
vn -0.030300 0.000004 0.999541
vn 0.000000 -0.000000 1.000000
vn 0.000000 0.000000 1.000000
vn 0.000241 0.340760 -0.940150
vn 0.070557 0.000009 0.997508
vn -0.998516 -0.051944 0.016384
vn 0.999378 0.017504 0.030620
vn -0.999349 0.017984 0.031290
vn -0.999847 0.001843 0.017370
s 1
g S_P06_LP pillars_03_low
usemtl aiStandardSurface1SG
f 237/382/372 273/383/373 274/384/374
f 261/385/375 262/387/376 234/388/377 237/382/372
f 275/389/378 236/390/379 276/421/380
s 4
f 267/391/381 268/465/382 248/393/383 247/471/384
s 5
f 244/395/385 245/396/386 242/468/387 243/464/388
f 249/399/389 246/400/390 247/394/391 248/466/392
f 266/401/393 267/467/394 247/394/391 246/400/390
f 248/466/392 268/392/395 269/402/396 249/399/389
f 251/403/397 246/400/390 249/399/389 252/404/398
f 252/404/398 249/399/389 269/402/396 270/405/399
f 250/463/400 253/407/401 244/395/385 243/464/388
f 265/408/402 266/401/393 246/400/390 251/403/397
f 254/409/403 257/410/404 253/407/401 250/463/400
f 255/411/405 251/403/397 252/404/398 256/412/406
f 256/412/406 252/404/398 270/405/399 271/413/407
f 238/415/408 263/416/409 264/417/410 255/411/405
f 264/417/410 265/408/402 251/403/397 255/411/405
f 254/409/403 239/461/411 241/456/412 257/410/404
f 240/459/413 238/415/408 255/411/405 256/412/406
f 271/413/407 272/460/414 240/459/413 256/412/406
s 8
f 272/386/415 260/414/416 258/418/417 240/419/418
f 258/418/417 234/420/419 238/423/420 240/419/418
f 234/420/419 262/451/421 263/452/422 238/423/420
f 235/453/423 259/454/424 241/457/425 239/458/426
s 1
f 236/390/379 261/385/375 278/422/427 276/421/380
f 236/390/379 235/424/428 262/387/376 261/385/375
s 8
f 263/452/422 262/451/421 235/472/429 239/473/430
s 5
f 264/417/410 263/416/409 239/455/431 254/462/432
f 254/462/432 250/406/433 265/408/402 264/417/410
f 250/406/433 243/398/434 266/401/393 265/408/402
f 243/398/434 242/469/435 267/467/394 266/401/393
s 4
f 242/397/436 245/470/437 268/465/382 267/391/381
s 5
f 269/402/396 268/392/395 245/396/386 244/395/385
f 270/405/399 269/402/396 244/395/385 253/407/401
f 271/413/407 270/405/399 253/407/401 257/410/404
f 241/456/412 272/460/414 271/413/407 257/410/404
s 8
f 259/454/424 260/414/416 272/386/415 241/457/425
s 9
f 284/488/438 285/483/439 286/427/440 287/487/441
f 285/483/439 288/479/442 289/430/443 286/427/440
f 260/431/444 277/432/445 273/481/446 258/433/447
f 259/485/448 275/484/449 277/432/445 260/431/444
s 1
f 237/382/372 274/384/374 278/422/427 261/385/375
s 9
f 287/487/441 286/427/440 290/482/450 291/476/451
f 286/427/440 289/430/443 292/437/452 290/482/450
s 1
f 294/425/453 293/426/454 295/428/455 279/429/456
f 275/389/378 276/421/380 281/434/457 280/435/458
f 276/421/380 278/422/427 282/436/459 281/434/457
s 9
f 293/439/460 296/445/461 297/446/462 295/440/463
f 277/432/445 275/484/449 280/477/464 283/447/465
s 1
f 278/422/427 274/384/374 279/429/456 282/436/459
f 279/429/456 295/428/455 288/438/466 285/441/467
f 290/442/468 298/443/469 291/444/470
f 298/443/469 300/448/471 287/449/472 291/444/470
s 9
f 295/440/463 297/446/462 289/430/443 288/479/442
f 297/446/462 299/450/473 292/437/452 289/430/443
s 1
f 284/474/474 287/449/472 282/436/459 279/429/456
f 274/384/374 273/383/373 293/426/454 294/425/453
f 279/429/456 274/384/374 294/425/453
s 9
f 273/481/446 277/432/445 296/445/461 293/439/460
f 277/432/445 283/447/465 297/446/462 296/445/461
s 1
f 280/435/458 281/434/457 298/443/469 299/475/475
f 281/434/457 282/436/459 300/448/471 298/443/469
f 282/436/459 287/449/472 300/448/471
s 9
f 283/447/465 280/477/464 299/450/473 297/446/462
s 1
f 237/382/372 234/388/377 258/478/476 273/383/373
f 279/429/456 285/441/467 284/474/474
f 259/480/477 235/424/428 236/390/379 275/389/378
f 299/475/475 298/443/469 290/442/468 292/486/478
g default
v -40.533218 81.976578 3.365990
v -40.527336 86.095886 2.319541
v -40.527420 86.095886 -2.425359
v -40.531834 81.978149 -3.471202
v 40.535458 81.976425 3.367654
v 40.526337 86.095215 2.319028
v 40.526337 86.095215 -2.424838
v 40.535458 81.976425 -3.473464
vt 0.996052 0.384665
vt 0.954291 0.775982
vt 0.936850 0.007916
vt 0.995809 0.954155
vt 0.935131 0.388129
vt 0.974059 0.008143
vt 0.973754 0.954155
vt 0.968641 0.384503
vt 0.935131 0.775982
vt 0.996096 0.008146
vt 0.968611 0.007920
vt 0.973754 0.932046
vt 0.954291 0.802925
vt 0.936862 0.384505
vt 0.974010 0.384662
vt 0.995809 0.932046
vt 0.657125 0.954155
vt 0.954291 0.388129
vt 0.657125 0.932046
vt 0.935131 0.802925
vn -0.079901 0.245751 -0.966034
vn -0.058232 0.246095 -0.967495
vn -0.999999 0.001249 -0.000112
vn -0.999999 0.001249 -0.000112
vn 0.999998 0.002214 0.000000
vn 0.079865 0.245849 0.966012
vn 0.058233 0.246173 0.967475
vn 0.999998 0.002214 0.000000
vn -0.000006 0.246470 0.969150
vn -0.000006 0.246470 0.969150
vn -0.000012 -1.000000 -0.000114
vn -0.000012 -1.000000 -0.000114
vn -0.000012 -1.000000 -0.000114
vn -0.000012 -1.000000 -0.000114
vn -0.000007 0.246447 -0.969156
vn -0.000007 0.246447 -0.969156
vn 0.000008 1.000000 0.000000
vn 0.000008 1.000000 0.000000
vn 0.000008 1.000000 0.000000
vn 0.000008 1.000000 0.000000
s 1
g S_P06_LP polySurface1
usemtl aiStandardSurface1SG
f 303/497/479 304/490/480 301/501/481 302/508/482
s 2
f 307/492/483 306/495/484 305/500/485 308/504/486
f 302/505/487 301/507/488 305/500/485 306/495/484
s off
f 301/491/489 304/499/490 308/496/491 305/502/492
s 1
f 304/490/480 303/497/479 307/493/493 308/506/494
s off
f 303/489/495 302/503/496 306/494/497 307/498/498
g default
v -32.887787 86.324280 -2.197576
v -40.553009 86.325584 -2.197226
v -40.450169 86.677582 -0.000003
v -32.989822 86.677582 -0.000003
v -32.836395 7.731694 -23.456715
v -40.603611 7.731699 -23.456707
v -32.836388 8.744797 -27.238064
v -40.603607 8.744797 -27.238064
v -40.886242 0.000047 -25.103352
v -41.486576 0.602957 -24.319818
v -41.486557 2.285313 -29.970806
v -40.885948 1.371463 -29.593878
v -31.953434 0.602968 -24.319836
v -32.554031 0.000000 -25.103178
v -32.553757 1.371416 -29.593700
v -31.953434 2.285307 -29.970804
v -41.509434 6.075945 -22.875307
v -31.930698 6.075991 -22.875446
v -31.930698 7.601548 -28.569317
v -41.509293 7.601548 -28.569317
v -41.289070 6.740538 -22.946606
v -32.151062 6.740590 -22.946733
v -32.151054 8.141464 -28.175278
v -41.288940 8.141464 -28.175278
v -32.885437 89.255577 -5.080585
v -40.554039 89.353477 -5.055629
v -35.206329 89.324104 -5.063116
v -35.164932 86.677582 -0.000003
v -35.206310 86.325195 -2.197331
v -35.226318 7.731697 -23.456709
v -35.500534 6.740553 -22.946644
v -35.588684 6.075959 -22.875349
v -35.579502 0.602960 -24.319824
v -35.339451 0.000033 -25.103298
v -35.339157 1.371449 -29.593826
v -35.579491 2.285311 -29.970806
v -35.588585 7.601548 -28.569317
v -35.500443 8.141464 -28.175278
v -35.226311 8.744797 -27.238064
v -32.989983 99.676788 -0.000003
v -35.164871 99.676704 -0.000003
v -40.450005 99.676666 -0.000003
v -32.904503 91.079559 -4.361716
v -32.989880 91.079559 -0.000003
v -40.535820 91.079559 -4.372977
v -40.450115 91.079559 -0.000003
v -35.198936 91.079559 -4.369576
v -35.164917 91.079559 -0.000003
v -32.989891 92.041206 -0.000003
v -40.450104 92.041206 -0.000003
v -35.164909 92.041206 -0.000003
v -32.914555 92.041206 -3.982712
v -35.194889 92.041206 -3.989652
v -32.590649 100.076561 -0.000003
v -32.589691 100.048073 -0.559258
v -35.164612 100.047981 -0.559262
v -35.164879 100.076157 -0.000003
v -32.586838 99.621460 -1.424435
v -35.164024 99.621002 -1.425156
v -40.850071 100.047928 -0.559263
v -40.849319 100.076416 -0.000003
v -40.852631 99.620911 -1.425242
v -40.850040 91.080147 -0.000002
v -40.942825 91.229889 -4.743916
v -40.850048 92.041977 -0.000003
v -40.931683 92.191315 -4.363616
v -35.198715 91.226601 -4.741569
v -35.194592 92.188171 -4.361674
v -32.509506 92.190620 -4.353143
v -32.589935 92.042137 -0.000003
vt 0.629243 0.859066
vt 0.639428 0.850482
vt 0.454947 0.437149
vt 0.665275 0.879820
vt 0.618148 0.858209
vt 0.542710 0.437149
vt 0.550426 0.874025
vt 0.586856 0.857808
vt 0.580829 0.883820
vt 0.624196 0.690226
vt 0.741331 0.726842
vt 0.655704 0.637114
vt 0.741331 0.592863
vt 0.748740 0.688680
vt 0.741331 0.688680
vt 0.561452 0.690226
vt 0.748740 0.657966
vt 0.748740 0.749620
vt 0.748740 0.592863
vt 0.748740 0.617542
vt 0.748740 0.726842
vt 0.786736 0.592863
vt 0.786736 0.749619
vt 0.786737 0.726843
vt 0.786736 0.657966
vt 0.786737 0.688680
vt 0.786736 0.617542
vt 0.791543 0.657966
vt 0.791544 0.688680
vt 0.791543 0.592863
vt 0.791543 0.749620
vt 0.791544 0.726842
vt 0.435418 0.006490
vt 0.800462 0.617542
vt 0.791544 0.617542
vt 0.800462 0.657966
vt 0.495234 0.006490
vt 0.454947 0.006490
vt 0.467242 0.006490
vt 0.636472 0.443739
vt 0.514721 0.437149
vt 0.550456 0.860081
vt 0.618221 0.886564
vt 0.637087 0.953687
vt 0.641594 0.953389
vt 0.636472 0.569133
vt 0.636472 0.574939
vt 0.648524 0.949966
vt 0.636472 0.559097
vt 0.636472 0.463045
vt 0.633576 0.886210
vt 0.695435 0.569133
vt 0.571042 0.950116
vt 0.560035 0.945228
vt 0.613233 0.473427
vt 0.634283 0.893104
vt 0.695435 0.466730
vt 0.579548 0.885527
vt 0.577917 0.890731
vt 0.546587 0.884895
vt 0.618248 0.893234
vt 0.580613 0.890913
vt 0.636472 0.473427
vt 0.636472 0.466730
vt 0.636472 0.476950
vt 0.636293 0.893997
vt 0.610024 0.476950
vt 0.616255 0.950477
vt 0.574531 0.947402
vt 0.633828 0.950678
vt 0.800462 0.726843
vt 0.800463 0.688680
vt 0.624196 0.637114
vt 0.741331 0.749620
vt 0.741331 0.617542
vt 0.741331 0.657966
vt 0.542710 0.006490
vt 0.514721 0.006490
vt 0.619496 0.843232
vt 0.435418 0.437149
vt 0.467242 0.437149
vt 0.495234 0.437149
vt 0.561452 0.637114
vt 0.655704 0.690226
vt 0.800462 0.749619
vt 0.800462 0.788131
vt 0.579404 0.847540
vt 0.666718 0.865201
vt 0.786736 0.788131
vt 0.791543 0.788131
vt 0.800462 0.592863
vt 0.748740 0.788131
vt 0.741331 0.788131
vt 0.554998 0.437149
vt 0.554998 0.006490
vt 0.610024 0.574939
vt 0.616072 0.953682
vt 0.695435 0.559097
vt 0.695435 0.476950
vt 0.667984 0.891475
vt 0.610024 0.559097
vt 0.664509 0.888172
vt 0.546561 0.876548
vt 0.691409 0.463045
vt 0.566583 0.949347
vt 0.695435 0.574939
vt 0.610024 0.569133
vt 0.691409 0.443739
vt 0.613233 0.463045
vt 0.613233 0.443739
vn 0.662087 -0.317901 0.678660
vn 0.939500 -0.332300 0.083161
vn 0.999439 0.016722 0.029018
vn 0.999682 0.008074 0.023897
vn -0.000035 -0.422361 0.906428
vn -0.000081 -0.987384 0.158346
vn -0.978070 -0.207205 0.021093
vn -0.343690 -0.398586 0.850298
vn -0.325021 -0.058785 0.943878
vn 0.000001 -0.956393 -0.292084
vn 0.000001 -0.956393 -0.292084
vn 0.000002 -0.956393 -0.292085
vn 0.000002 -0.956392 -0.292085
vn -0.710165 0.094671 -0.697641
vn -0.461551 -0.574846 -0.675665
vn -0.460239 -0.840538 0.285791
vn -0.690224 -0.269173 0.671667
vn 0.853895 0.053158 -0.517723
vn 0.997939 -0.061465 -0.018440
vn 0.794197 -0.581860 -0.175186
vn 0.589315 -0.600915 -0.540009
vn 0.000007 -0.342349 0.939573
vn -0.000008 -0.792493 0.609881
vn -0.000013 -0.792463 0.609920
vn 0.000014 -0.309411 0.950928
vn 0.000009 -0.381351 -0.924430
vn 0.000001 0.164298 -0.986411
vn 0.999727 0.022585 0.005997
vn 0.852836 0.167942 -0.494435
vn 0.000000 0.293123 -0.956075
vn -0.700662 -0.144862 0.698633
vn -0.708627 0.217583 -0.671197
vn 0.000009 -0.218347 0.975871
vn 0.000017 -0.226200 0.974081
vn -0.525008 0.449870 0.722485
vn -0.525012 0.750821 -0.400788
vn 0.886493 0.446978 0.119758
vn 0.678635 0.689001 -0.254425
vn 0.000000 0.756789 -0.653659
vn 0.000013 0.457564 0.889177
vn 0.000007 0.457582 0.889168
vn 0.000009 0.328607 0.944467
vn 0.000021 0.259852 0.965649
vn -0.410929 0.625504 0.663236
vn -0.410952 0.873298 -0.261665
vn 0.555021 0.822589 -0.123692
vn 0.769343 0.617072 0.165330
vn 0.000000 0.840836 -0.541289
vn 0.000124 0.265331 -0.964158
vn 0.000123 0.265331 -0.964158
vn 0.714837 0.185969 -0.674110
vn 0.841882 0.143688 -0.520181
vn 1.000000 0.000460 0.000626
vn 1.000000 0.000460 0.000626
vn 0.000000 -0.261114 0.965308
vn 0.000000 -0.261114 0.965308
vn 0.000000 -0.261114 0.965308
vn 0.000000 -0.261114 0.965308
vn -0.689662 -0.188677 0.699119
vn -0.410455 0.242187 -0.879131
vn -0.565040 0.219243 -0.795401
vn -0.577327 -0.212865 0.788278
vn -0.000000 0.000000 1.000000
vn -0.742583 -0.657138 0.129384
vn 0.000001 -0.956393 -0.292084
vn 0.000001 -0.956393 -0.292084
vn -0.000096 0.998721 -0.050570
vn -0.000057 0.952480 -0.304603
vn -0.000017 0.952551 -0.304379
vn -0.000017 0.998720 -0.050575
vn 0.001311 0.433410 -0.901196
vn 0.000578 0.434941 -0.900459
vn 0.001545 0.367432 -0.930049
vn 0.026119 0.242377 -0.969830
vn 0.003339 0.367058 -0.930192
vn 0.003513 0.367056 -0.930192
vn 0.752008 0.000325 0.659154
vn 0.000655 0.367601 -0.929983
vn 0.000595 0.056659 -0.998393
vn 0.000002 0.952482 -0.304597
vn 0.000018 0.998720 -0.050578
vn 0.000240 0.434891 -0.900483
vn 0.912420 -0.409127 0.010221
vn 0.192682 -0.073232 0.978525
vn -0.966296 -0.257033 0.014334
vn -0.926509 -0.365727 0.088451
vn -0.980492 0.002753 0.196539
vn -0.999817 0.002841 0.018932
vn 0.000000 0.000000 1.000000
vn -0.000000 0.000000 1.000000
vn 0.161794 -0.021179 -0.986597
vn 0.003400 -0.182994 -0.983108
vn 0.065410 0.020057 -0.997657
vn 0.000528 0.191708 -0.981452
vn 0.000297 0.367609 -0.929981
vn 0.006341 0.354678 -0.934967
vn 0.970448 -0.105422 0.217066
vn 0.997754 -0.064708 0.017334
vn 0.999949 0.001505 0.009986
vn -0.999950 0.001562 0.009922
vn -0.903691 0.000141 0.428184
vn -0.999997 0.000156 0.002273
vn 0.000000 0.000000 1.000000
vn -0.000000 0.000000 1.000000
vn 0.001470 0.344995 -0.938603
vn 0.000000 0.000000 1.000000
vn 0.939623 0.000144 0.342210
vn 0.000000 0.000000 1.000000
vn 0.999997 0.000153 0.002626
vn -0.999414 0.017167 0.029622
s 1
g S_P06_LP pillars_02_low
usemtl aiStandardSurface1SG
f 312/509/499 309/510/500 333/596/501 351/512/502
f 336/513/503 337/587/504 309/510/500 312/509/499
f 353/515/505 311/516/506 354/517/507
s 3
f 342/518/508 343/581/509 323/520/510 322/592/511
s 4
f 319/522/512 320/523/513 317/584/514 318/525/515
f 324/526/516 321/600/517 322/601/518 323/582/519
f 341/528/520 342/583/521 322/521/522 321/527/523
f 323/582/519 343/519/524 344/529/525 324/526/516
f 326/597/526 321/600/517 324/526/516 327/531/527
f 327/531/527 324/526/516 344/529/525 345/532/528
f 325/533/529 328/534/530 319/522/512 318/525/515
f 340/535/531 341/528/520 321/527/523 326/530/532
f 329/536/533 332/537/534 328/534/530 325/533/529
f 330/598/535 326/597/526 327/531/527 331/539/536
f 331/539/536 327/531/527 345/532/528 346/540/537
f 313/599/538 338/542/539 339/543/540 330/538/541
f 339/543/540 340/535/531 326/530/532 330/538/541
f 329/536/533 314/544/542 316/580/543 332/537/534
f 315/593/544 313/594/545 330/598/535 331/539/536
f 346/540/537 347/579/546 315/593/544 331/539/536
s 7
f 347/547/547 335/589/548 333/511/549 315/546/550
f 333/511/549 309/588/551 313/541/552 315/546/550
f 309/602/553 337/514/554 338/585/555 313/603/556
f 310/549/557 334/590/558 316/545/559 314/586/560
s 1
f 311/516/506 336/513/503 356/551/561 354/517/507
f 311/516/506 310/595/562 337/587/504 336/513/503
s 7
f 338/585/555 337/514/554 310/549/557 314/586/560
s 4
f 339/543/540 338/542/539 314/544/542 329/536/533
f 329/536/533 325/533/529 340/535/531 339/543/540
f 325/533/529 318/525/515 341/528/520 340/535/531
f 318/525/515 317/584/514 342/583/521 341/528/520
s 3
f 317/524/563 320/591/564 343/581/509 342/518/508
s 4
f 344/529/525 343/519/524 320/523/513 319/522/512
f 345/532/528 344/529/525 319/522/512 328/534/530
f 346/540/537 345/532/528 328/534/530 332/537/534
f 316/580/543 347/579/546 346/540/537 332/537/534
s 7
f 334/590/558 335/589/548 347/547/547 316/545/559
s 9
f 362/604/565 363/615/566 364/554/567 365/555/568
f 363/615/566 366/609/569 367/557/570 364/554/567
f 335/548/571 355/558/572 351/617/573 333/618/574
s 1
f 312/509/499 352/559/575 356/551/561 336/513/503
s 9
f 334/616/576 353/612/577 355/558/572 335/548/571
f 365/555/568 364/554/567 368/560/578 369/614/579
f 364/554/567 367/557/570 370/606/580 368/560/578
s 1
f 352/559/575 351/512/502 360/610/581 357/564/582
f 372/611/583 371/566/584 373/567/585 374/568/586
f 354/517/507 356/551/561 359/569/587 358/570/588
s 9
f 351/617/573 355/558/572 361/571/589 360/563/590
s 1
f 356/551/561 352/559/575 357/564/582 359/569/587
s 9
f 375/572/591 372/565/592 374/607/593 376/573/594
s 1
f 378/574/595 377/608/596 366/556/597
f 370/562/598 373/567/585 369/561/599 368/613/600
f 358/570/588 359/569/587 349/576/601 350/577/602
s 9
f 377/575/603 376/573/594 367/557/570 366/609/569
s 1
f 359/569/587 357/564/582 348/578/604 349/576/601
s 9
f 376/573/594 374/607/593 370/606/580 367/557/570
s 1
f 349/576/601 348/578/604 362/552/605 365/605/606
f 350/577/602 349/576/601 365/605/606 369/561/599
f 353/515/505 354/517/507 371/566/584 372/611/583
f 354/517/507 358/570/588 373/567/585 371/566/584
s 9
f 355/558/572 353/612/577 372/565/592 375/572/591
f 361/571/589 355/558/572 375/572/591 376/573/594
s 1
f 357/564/582 360/610/581 377/608/596 378/574/595
f 348/578/604 357/564/582 378/574/595 362/552/605
f 358/570/588 350/577/602 369/561/599 373/567/585
s 9
f 360/563/590 361/571/589 376/573/594 377/575/603
s 1
f 378/574/595 366/556/597 363/553/607 362/552/605
f 312/509/499 351/512/502 352/559/575
f 334/550/608 310/595/562 311/516/506 353/515/505
f 374/568/586 373/567/585 370/562/598
g default
v -36.416752 45.388695 -18.816181
v 42.772465 45.390533 -18.816227
v -43.927425 38.133911 -20.762417
v -43.926514 37.731224 -19.260990
v -43.926590 21.920525 -23.497244
v -36.412403 44.988098 -17.314213
v 42.776821 44.986389 -17.314718
v 43.927429 44.274998 -19.112062
v 43.927422 43.873722 -17.614902
v 43.927429 21.920547 -23.497759
v -42.771637 21.207596 -25.296032
v 42.776821 21.209166 -25.295105
v -43.926605 22.321587 -24.994438
v -42.775997 20.806839 -23.793613
v 42.772465 20.805021 -23.793598
v 43.927422 22.321831 -24.994923
vt 0.957415 0.388379
vt 0.995009 0.926450
vt 0.964700 0.756257
vt 0.957476 0.756238
vt 0.964692 0.763822
vt 0.957491 0.763823
vt 0.995087 0.388501
vt 0.957507 0.869400
vt 0.995099 0.396086
vt 0.987875 0.396064
vt 0.995012 0.793487
vt 0.987789 0.793465
vt 0.995001 0.801052
vt 0.987801 0.801050
vt 0.994985 0.877088
vt 0.987764 0.877088
vt 0.390631 0.372772
vt 0.420768 0.254148
vt 0.426240 0.259618
vt 0.426229 0.337185
vt 0.015376 0.254079
vt 0.015374 0.372709
vt 0.009902 0.367240
vt 0.009923 0.259539
vt 0.423100 0.868129
vt 0.423096 0.749498
vt 0.428568 0.754968
vt 0.428553 0.862669
vt 0.017705 0.749449
vt 0.047843 0.868084
vt 0.012241 0.832475
vt 0.012252 0.754910
vt 0.987787 0.926432
vt 0.964637 0.388398
vt 0.987886 0.388499
vt 0.964708 0.869400
vn -0.000000 0.258819 -0.965926
vn -0.000001 0.258817 -0.965926
vn -0.000014 0.258724 -0.965951
vn -0.000014 0.258724 -0.965951
vn 0.000012 -0.258811 0.965928
vn 0.000012 -0.258811 0.965928
vn 0.002143 -0.258819 0.965924
vn 0.002143 -0.258819 0.965924
vn 0.000000 0.965929 0.258807
vn 0.000000 0.965929 0.258807
vn 0.014372 0.965832 0.258769
vn 0.014266 0.965834 0.258769
vn 0.998832 0.046684 0.012469
vn 0.998831 0.046706 0.012475
vn 1.000000 -0.000001 0.000000
vn 1.000000 -0.000001 0.000000
vn 0.707255 -0.683016 -0.182428
vn 0.707255 -0.683016 -0.182428
vn 0.013218 -0.965844 -0.258787
vn 0.013316 -0.965843 -0.258787
vn -0.013316 -0.965837 -0.258807
vn -0.013218 -0.965838 -0.258808
vn -0.997838 -0.063541 -0.016792
vn -0.997837 -0.063562 -0.016798
vn -0.953826 0.289979 0.078286
vn -0.953831 0.289963 0.078281
vn -0.707106 0.682787 0.183856
vn -0.707106 0.682787 0.183856
vn 0.000014 0.258820 -0.965926
vn 0.000014 0.258820 -0.965926
vn 0.002144 0.258820 -0.965923
vn 0.002144 0.258820 -0.965923
vn -0.000019 -0.258808 0.965929
vn -0.000009 -0.258810 0.965928
vn -0.000549 -0.258734 0.965949
vn -0.000549 -0.258734 0.965949
s 1
g S_P06_LP signs_04_low
usemtl aiStandardSurface1SG
f 379/635/609 389/636/610 391/637/611 381/638/612
s 2
f 385/643/613 393/644/614 388/645/615 387/646/616
s 3
f 379/619/617 384/652/618 385/621/619 380/622/620
f 380/622/620 385/621/619 387/623/621 386/624/622
f 386/624/622 387/623/621 388/654/623 394/626/624
s 4
f 394/653/625 388/625/626 393/627/627 390/628/628
f 390/628/628 393/627/627 392/629/629 389/630/630
f 389/630/630 392/629/629 383/631/631 391/632/632
f 391/632/632 383/631/631 382/633/633 381/634/634
f 381/634/634 382/633/633 384/620/635 379/651/636
s 1
f 390/639/637 380/640/638 386/641/639 394/642/640
f 390/639/637 389/636/610 379/635/609 380/640/638
s 2
f 392/647/641 384/648/642 382/649/643 383/650/644
f 392/647/641 393/644/614 385/643/613 384/648/642
g default
v -36.416752 82.149200 8.799028
v 42.772465 82.151031 8.799074
v -43.927425 74.894409 10.745268
v -43.926514 74.491730 9.243837
v -43.926590 58.681030 13.480092
v -36.412403 81.748596 7.297060
v 42.776821 81.746887 7.297568
v 43.927429 81.035500 9.094913
v 43.927422 80.634224 7.597749
v 43.927429 58.681053 13.480609
v -42.771637 57.968102 15.278880
v 42.776821 57.969669 15.277952
v -43.926605 59.082092 14.977289
v -42.775997 57.567345 13.776464
v 42.772465 57.565525 13.776445
v 43.927422 59.082336 14.977774
vt 0.856034 0.975176
vt 0.469050 0.975176
vt 0.996175 0.978115
vt 0.856034 0.967578
vt 0.988207 0.985712
vt 0.988207 0.978115
vt 0.877155 0.985712
vt 0.877155 0.978115
vt 0.869188 0.985712
vt 0.869188 0.978115
vt 0.451182 0.985712
vt 0.995911 0.967578
vt 0.987942 0.975176
vt 0.987942 0.967578
vt 0.907952 0.975176
vt 0.907952 0.967578
vt 0.419714 0.500441
vt 0.419716 0.619072
vt 0.044460 0.619134
vt 0.014323 0.500509
vt 0.008862 0.583547
vt 0.008851 0.505979
vt 0.425168 0.505901
vt 0.425188 0.613602
vt 0.421347 0.623754
vt 0.426800 0.629214
vt 0.426811 0.706779
vt 0.391209 0.742389
vt 0.015952 0.742434
vt 0.015956 0.623803
vt 0.010499 0.736973
vt 0.010483 0.629272
vt 0.996175 0.985712
vt 0.469050 0.967578
vt 0.995911 0.975176
vt 0.451182 0.978115
vn 0.000014 0.258820 0.965926
vn 0.000014 0.258820 0.965926
vn -0.000000 0.258819 0.965926
vn -0.000001 0.258817 0.965926
vn -0.000019 -0.258808 -0.965929
vn -0.000549 -0.258734 -0.965948
vn -0.000549 -0.258734 -0.965948
vn -0.000009 -0.258810 -0.965928
vn -0.086600 0.962271 -0.257943
vn 0.000000 0.965928 -0.258811
vn 0.000000 0.965928 -0.258811
vn -0.086023 0.962320 -0.257955
vn 0.707256 0.683015 -0.182428
vn 0.998831 0.046707 -0.012475
vn 0.998832 0.046685 -0.012469
vn 0.707256 0.683015 -0.182428
vn 0.998832 -0.046684 0.012469
vn 0.998831 -0.046707 0.012475
vn 0.013316 -0.965843 0.258786
vn 0.013218 -0.965844 0.258787
vn 0.000000 -0.965926 0.258820
vn 0.000000 -0.965926 0.258820
vn -0.707257 -0.682721 0.183519
vn -0.997837 -0.063562 0.016797
vn -0.997838 -0.063541 0.016792
vn -0.707257 -0.682721 0.183519
vn -0.953831 0.289962 -0.078281
vn -0.953825 0.289980 -0.078286
vn -0.000014 0.258724 0.965951
vn -0.000014 0.258724 0.965951
vn 0.002141 0.258820 0.965923
vn 0.002141 0.258820 0.965923
vn 0.000012 -0.258811 -0.965928
vn 0.000012 -0.258811 -0.965928
vn 0.002142 -0.258820 -0.965923
vn 0.002142 -0.258820 -0.965923
s 1
g S_P06_LP signs_01_low
usemtl aiStandardSurface1SG
f 406/671/645 396/672/646 395/673/647 405/674/648
s 2
f 408/679/649 399/680/650 398/681/651 400/682/652
s 3
f 395/655/653 396/656/654 401/688/655 400/658/656
s 4
f 396/687/657 402/659/658 403/660/659 401/657/660
f 402/659/658 410/661/661 404/662/662 403/660/659
f 410/661/661 406/663/663 409/664/664 404/662/662
f 406/663/663 405/665/665 408/690/666 409/664/664
s 3
f 405/689/667 407/667/668 399/668/669 408/666/670
f 407/667/668 397/669/671 398/670/672 399/668/669
f 397/669/671 395/655/653 400/658/656 398/670/672
s 1
f 405/674/648 395/673/647 397/675/673 407/676/674
f 406/671/645 410/677/675 402/678/676 396/672/646
s 2
f 408/679/649 400/682/652 401/683/677 409/684/678
f 409/684/678 401/683/677 403/685/679 404/686/680
g default
v 36.416752 45.388695 18.732321
v -42.772461 45.390533 18.732367
v 43.927425 38.133911 20.678562
v 43.926521 37.731224 19.177130
v 43.926590 21.920525 23.413385
v 36.412411 44.988098 17.230352
v -42.776825 44.986389 17.230862
v -43.927429 44.274998 19.028206
v -43.927414 43.873722 17.531042
v -43.927429 21.920547 23.413902
v 42.771645 21.207596 25.212173
v -42.776825 21.209166 25.211246
v 43.926613 22.321587 24.910582
v 42.776001 20.806839 23.709759
v -42.772461 20.805021 23.709738
v -43.927414 22.321831 24.911068
vt 0.481619 0.964297
vt 0.996571 0.988142
vt 0.868549 0.956701
vt 0.868549 0.964297
vt 0.876516 0.956701
vt 0.876516 0.964297
vt 0.987567 0.956701
vt 0.987567 0.964297
vt 0.995535 0.956701
vt 0.438557 0.995740
vt 0.856674 0.988142
vt 0.856674 0.995740
vt 0.864644 0.988142
vt 0.864644 0.995740
vt 0.944646 0.988142
vt 0.944646 0.995740
vt 0.427290 0.992598
vt 0.427287 0.873967
vt 0.432759 0.879436
vt 0.432744 0.987137
vt 0.021895 0.873917
vt 0.052034 0.992553
vt 0.016431 0.956943
vt 0.016442 0.879378
vt 0.390631 0.495595
vt 0.420767 0.376970
vt 0.426239 0.382440
vt 0.426229 0.460008
vt 0.015376 0.376901
vt 0.015374 0.495532
vt 0.009902 0.490062
vt 0.009923 0.382361
vt 0.996571 0.995740
vt 0.481619 0.956701
vt 0.995535 0.964297
vt 0.438557 0.988142
vn 0.000000 0.258819 0.965926
vn 0.000001 0.258817 0.965926
vn 0.000014 0.258723 0.965952
vn 0.000014 0.258723 0.965952
vn -0.000012 -0.258810 -0.965928
vn -0.000012 -0.258811 -0.965928
vn -0.002143 -0.258819 -0.965923
vn -0.002143 -0.258819 -0.965923
vn -0.000000 0.965930 -0.258805
vn -0.000000 0.965930 -0.258805
vn -0.014372 0.965833 -0.258767
vn -0.014266 0.965834 -0.258768
vn -0.998832 0.046685 -0.012469
vn -0.998831 0.046707 -0.012475
vn -0.998831 -0.046707 0.012475
vn -0.998832 -0.046684 0.012469
vn -0.707256 -0.683014 0.182429
vn -0.707256 -0.683014 0.182429
vn -0.000000 -0.965926 0.258820
vn -0.000000 -0.965926 0.258820
vn 0.013316 -0.965837 0.258807
vn 0.013218 -0.965839 0.258808
vn 0.997838 -0.063540 0.016792
vn 0.997837 -0.063561 0.016797
vn 0.953826 0.289980 -0.078284
vn 0.953831 0.289964 -0.078280
vn 0.707106 0.682788 -0.183852
vn 0.707106 0.682788 -0.183852
vn -0.000014 0.258820 0.965926
vn -0.000014 0.258820 0.965926
vn -0.002138 0.258820 0.965923
vn -0.002138 0.258820 0.965923
vn 0.000019 -0.258808 -0.965929
vn 0.000009 -0.258810 -0.965928
vn 0.000549 -0.258734 -0.965948
vn 0.000549 -0.258734 -0.965948
s 1
g S_P06_LP signs_02_low
usemtl aiStandardSurface1SG
f 411/715/681 421/716/682 423/717/683 413/718/684
s 2
f 417/707/685 425/708/686 420/709/687 419/710/688
s 3
f 411/691/689 416/724/690 417/693/691 412/694/692
f 412/694/692 417/693/691 419/695/693 418/696/694
f 418/696/694 419/695/693 420/697/695 426/698/696
f 426/698/696 420/697/695 425/699/697 422/725/698
s 4
f 422/700/699 425/726/700 424/701/701 421/702/702
f 421/702/702 424/701/701 415/703/703 423/704/704
f 423/704/704 415/703/703 414/705/705 413/706/706
f 413/706/706 414/705/705 416/692/707 411/723/708
s 1
f 422/719/709 421/716/682 411/715/681 412/720/710
f 422/719/709 412/720/710 418/721/711 426/722/712
s 2
f 424/711/713 425/708/686 417/707/685 416/712/714
f 424/711/713 416/712/714 414/713/715 415/714/716
