# This file uses centimeters as units for non-parametric coordinates.

mtllib S_P13_StreetLight.mtl
g default
v -0.000000 -174.422226 -60.404728
v -1.806619 -174.464890 -59.657616
v -2.554945 -174.567856 -57.853935
v -1.806619 -174.670822 -56.050251
v 0.000000 -174.713470 -55.303143
v 1.806619 -174.670822 -56.050251
v 2.554945 -174.567856 -57.853935
v 1.806618 -174.464890 -59.657616
v -0.000000 -127.772217 -59.219120
v -1.806619 -127.942772 -58.490494
v -2.554945 -128.354553 -56.731426
v -1.806619 -128.766312 -54.972359
v 0.000000 -128.936874 -54.243729
v 1.806619 -128.766312 -54.972359
v 2.554945 -128.354553 -56.731426
v 1.806618 -127.942772 -58.490494
v -0.000000 -96.678482 -47.054462
v -1.806619 -97.024483 -46.390934
v -2.554945 -97.859810 -44.789028
v -1.806619 -98.695145 -43.187126
v 0.000000 -99.041145 -42.523594
v 1.806619 -98.695145 -43.187126
v 2.554945 -97.859810 -44.789028
v 1.806618 -97.024483 -46.390934
v -0.000000 -68.516533 -29.512465
v -1.806619 -68.956078 -28.906832
v -2.554945 -70.017235 -27.444702
v -1.806619 -71.078392 -25.982574
v 0.000000 -71.517937 -25.376942
v 1.806619 -71.078392 -25.982574
v 2.554945 -70.017235 -27.444704
v 1.806618 -68.956078 -28.906832
v -0.000000 -43.021984 -8.353227
v -1.806619 -43.533787 -7.807285
v -2.554945 -44.769382 -6.489267
v -1.806619 -46.004982 -5.171250
v 0.000000 -46.516781 -4.625309
v 1.806619 -46.004978 -5.171250
v 2.554945 -44.769382 -6.489268
v 1.806618 -43.533783 -7.807286
v -0.000000 -20.230751 15.692802
v -1.806619 -20.806767 16.170504
v -2.554945 -22.197388 17.323780
v -1.806619 -23.588009 18.477055
v 0.000000 -24.164022 18.954758
v 1.806619 -23.588009 18.477055
v 2.554945 -22.197388 17.323780
v 1.806618 -20.806765 16.170504
v -0.000000 -5.682590 38.559002
v -1.806619 -6.413480 38.719604
v -2.554945 -8.178001 39.107334
v -1.806619 -9.942524 39.495064
v 0.000000 -10.673412 39.655666
v 1.806619 -9.942523 39.495064
v 2.554945 -8.178001 39.107334
v 1.806618 -6.413479 38.719604
v -0.000000 2.037220 77.230576
v -1.806619 1.306945 77.393951
v -2.554945 -0.456094 77.788368
v -1.806619 -2.219132 78.182785
v 0.000000 -2.949407 78.346161
v 1.806619 -2.219132 78.182785
v 2.554945 -0.456093 77.788368
v 1.806618 1.306946 77.393951
v 0.000000 -174.567856 -57.853935
v 0.000000 -0.456094 77.788368
v 1.921354 -2.225375 65.251785
v 1.109294 -2.336449 64.447357
v 0.000000 -2.377105 64.152916
v -1.109294 -2.336449 64.447357
v -1.921354 -2.225375 65.251785
v -2.218589 -2.073645 66.350655
v -1.921354 -1.921915 67.449524
v -1.109294 -1.810841 68.253952
v 0.000000 -1.770185 68.548393
v 1.109294 -1.810841 68.253952
v 1.921354 -1.921915 67.449524
v 2.218589 -2.073645 66.350655
v 1.921354 6.223702 64.085152
v 1.109294 6.112628 63.280727
v 0.000000 6.071972 62.986282
v -1.109294 6.112628 63.280727
v -1.921354 6.223702 64.085152
v -2.218589 6.375432 65.184021
v -1.921354 6.527162 66.282890
v -1.109294 6.638236 67.087318
v 0.000000 6.678892 67.381760
v 1.109294 6.638236 67.087318
v 1.921354 6.527162 66.282890
v 2.218589 6.375432 65.184021
v -17.485321 -2.462219 149.129440
v -10.491890 -2.462219 155.703537
v -13.168159 -2.462219 155.203110
v -15.436990 -2.462219 153.778030
v -16.952976 -2.462219 151.645233
v -19.657057 7.159617 153.358093
v -19.058594 7.159617 156.366760
v -17.354317 7.159617 158.917389
v -14.803690 7.159617 160.621674
v -11.795019 7.159617 161.220123
v 17.485321 -2.462219 149.129440
v 16.952976 -2.462219 151.645233
v 15.436990 -2.462219 153.778030
v 13.168159 -2.462219 155.203110
v 10.491890 -2.462219 155.703537
v 19.657057 7.159617 153.358093
v 11.795019 7.159617 161.220123
v 14.803690 7.159617 160.621674
v 17.354317 7.159617 158.917389
v 19.058594 7.159617 156.366760
v -14.803690 7.159617 94.467598
v -17.354317 7.159617 96.171883
v -19.058594 7.159617 98.722504
v -19.657057 7.159617 101.731178
v -11.795019 7.159617 93.869141
v -17.485321 -2.462219 105.959831
v -16.952976 -2.462219 103.444031
v -15.436990 -2.462219 101.311234
v -13.168159 -2.462219 99.886139
v -10.491890 -2.462219 99.385719
v 19.058594 7.159617 98.722504
v 17.354317 7.159617 96.171883
v 14.803690 7.159617 94.467598
v 11.795019 7.159617 93.869141
v 19.657057 7.159617 101.731178
v 17.485321 -2.462219 105.959831
v 10.491890 -2.462219 99.385719
v 13.168159 -2.462219 99.886139
v 15.436990 -2.462219 101.311234
v 16.952976 -2.462219 103.444031
v 1.921354 -6.695940 47.162106
v 1.109294 -6.837512 46.362480
v 0.000000 -6.889330 46.069798
v -1.109294 -6.837512 46.362480
v -1.921354 -6.695940 47.162106
v -2.218589 -6.502549 48.254410
v -1.921354 -6.309157 49.346718
v -1.109294 -6.167585 50.146339
v 0.000000 -6.115767 50.439026
v 1.109294 -6.167585 50.146339
v 1.921354 -6.309157 49.346718
v 2.218589 -6.502549 48.254410
v 1.921354 2.585710 45.518803
v 1.109294 2.444138 44.719181
v 0.000000 2.392319 44.426498
v -1.109294 2.444138 44.719181
v -1.921354 2.585710 45.518803
v -2.218589 2.779101 46.611111
v -1.921354 2.972492 47.703419
v -1.109294 3.114064 48.503040
v 0.000000 3.165883 48.795723
v 1.109294 3.114064 48.503040
v 1.921354 2.972492 47.703419
v 2.218589 2.779101 46.611111
v -21.957125 7.096292 156.378525
v -13.175151 7.096292 165.160477
v -16.535864 7.096292 164.492004
v -19.384941 7.096292 162.588318
v -21.288633 7.096292 159.739243
v -21.957125 16.993343 156.378525
v -21.288633 16.993343 159.739243
v -19.384941 16.993343 162.588318
v -16.535864 16.993343 164.492004
v -13.175151 16.993343 165.160477
v 21.957125 7.096292 156.378525
v 21.288633 7.096292 159.739243
v 19.384941 7.096292 162.588318
v 16.535864 7.096292 164.492004
v 13.175151 7.096292 165.160477
v 21.957125 16.993343 156.378525
v 13.175151 16.993343 165.160477
v 16.535864 16.993343 164.492004
v 19.384941 16.993343 162.588318
v 21.288633 16.993343 159.739243
v -16.535864 16.993343 90.597267
v -19.384941 16.993343 92.500954
v -21.288633 16.993343 95.350044
v -21.957125 16.993343 98.710754
v -13.175151 16.993343 89.928780
v -21.957125 7.096292 98.710754
v -21.288633 7.096292 95.350044
v -19.384941 7.096292 92.500954
v -16.535864 7.096292 90.597267
v -13.175151 7.096292 89.928780
v 21.288633 16.993343 95.350044
v 19.384941 16.993343 92.500954
v 16.535864 16.993343 90.597267
v 13.175151 16.993343 89.928780
v 21.957125 16.993343 98.710754
v 21.957125 7.096292 98.710754
v 13.175151 7.096292 89.928780
v 16.535864 7.096292 90.597267
v 19.384941 7.096292 92.500954
v 21.288633 7.096292 95.350044
v 0.000000 16.136892 90.747314
v 3.030458 14.883455 90.814873
v 4.285714 11.857389 90.977974
v 3.030457 8.831325 91.141075
v -0.000001 7.577888 91.208633
v -3.030458 8.831326 91.141075
v -4.285714 11.857390 90.977974
v -3.030456 14.883456 90.814873
v 0.000000 12.961143 59.937477
v 3.030458 11.720517 60.128574
v 4.285714 8.725384 60.589928
v 3.030457 5.730250 61.051281
v -0.000001 4.489625 61.242378
v -3.030458 5.730251 61.051281
v -4.285714 8.725384 60.589928
v -3.030456 11.720519 60.128574
v 0.000000 6.646958 29.588392
v 3.030458 5.433329 29.908976
v 4.285714 2.503370 30.682936
v 3.030457 -0.426589 31.456894
v -0.000001 -1.640218 31.777477
v -3.030458 -0.426588 31.456894
v -4.285714 2.503371 30.682936
v -3.030456 5.433331 29.908976
v 0.000000 -2.888573 0.077263
v 3.030458 -4.060214 0.527739
v 4.285714 -6.888804 1.615282
v 3.030457 -9.717394 2.702826
v -0.000001 -10.889034 3.153301
v -3.030458 -9.717393 2.702825
v -4.285714 -6.888803 1.615282
v -3.030456 -4.060212 0.527738
v 0.000000 -15.575219 -28.220224
v 3.030458 -16.691225 -27.645592
v 4.285714 -19.385498 -26.258305
v 3.030457 -22.079771 -24.871019
v -0.000001 -23.195776 -24.296387
v -3.030458 -22.079771 -24.871019
v -4.285714 -19.385498 -26.258305
v -3.030456 -16.691223 -27.645592
v 0.000000 -31.195393 -54.991806
v 3.030458 -32.245430 -54.303989
v 4.285714 -34.780437 -52.643448
v 3.030457 -37.315449 -50.982906
v -0.000001 -38.365482 -50.295086
v -3.030458 -37.315449 -50.982906
v -4.285714 -34.780437 -52.643448
v -3.030456 -32.245426 -54.303989
v 0.000000 -49.423073 -80.026794
v 3.030458 -50.401146 -79.239998
v 4.285714 -52.762424 -77.340515
v 3.030457 -55.123703 -75.441032
v -0.000001 -56.101776 -74.654243
v -3.030458 -55.123703 -75.441032
v -4.285714 -52.762424 -77.340515
v -3.030456 -50.401146 -79.240005
v 0.000000 -69.880692 -103.227715
v 3.030458 -70.785027 -102.357170
v 4.285714 -72.968292 -100.255493
v 3.030457 -75.151558 -98.153824
v -0.000001 -76.055893 -97.283279
v -3.030458 -75.151558 -98.153824
v -4.285714 -72.968292 -100.255493
v -3.030456 -70.785027 -102.357170
v 0.000000 -92.194008 -124.597977
v 3.030458 -93.026138 -123.658173
v 4.285714 -95.035080 -121.389290
v 3.030457 -97.044022 -119.120407
v -0.000001 -97.876152 -118.180603
v -3.030458 -97.044014 -119.120407
v -4.285714 -95.035080 -121.389290
v -3.030456 -93.026138 -123.658173
v 0.000000 -95.035080 -121.389290
v -0.000000 -100.360870 -114.215408
v -1.826045 -100.907425 -113.692558
v -2.582417 -102.226944 -112.430290
v -1.826045 -103.546463 -111.168022
v 0.000000 -104.093018 -110.645172
v 1.826045 -103.546455 -111.168022
v 2.582417 -102.226944 -112.430290
v 1.826044 -100.907425 -113.692558
v -0.000000 -92.995377 -106.215317
v -1.826045 -93.572792 -105.726753
v -2.582417 -94.966797 -104.547272
v -1.826045 -96.360802 -103.367783
v 0.000000 -96.938217 -102.879219
v 1.826045 -96.360802 -103.367783
v 2.582417 -94.966797 -104.547272
v 1.826044 -93.572792 -105.726753
v -0.000000 -88.529945 -100.013092
v -1.826045 -89.191864 -99.647087
v -2.582417 -90.789886 -98.763474
v -1.826045 -92.387909 -97.879860
v 0.000000 -93.049828 -97.513855
v 1.826045 -92.387901 -97.879860
v 2.582417 -90.789886 -98.763474
v 1.826044 -89.191864 -99.647087
v -0.000000 -86.956139 -95.937088
v -1.826045 -87.698990 -95.794678
v -2.582417 -89.492371 -95.450859
v -1.826045 -91.285759 -95.107048
v 0.000000 -92.028603 -94.964630
v 1.826045 -91.285759 -95.107048
v 2.582417 -89.492371 -95.450859
v 1.826044 -87.698982 -95.794678
v -0.000000 -87.374321 -91.075592
v -1.826045 -88.081276 -91.344498
v -2.582417 -89.788017 -91.993706
v -1.826045 -91.494759 -92.642914
v 0.000000 -92.201714 -92.911827
v 1.826045 -91.494759 -92.642914
v 2.582417 -89.788017 -91.993706
v 1.826044 -88.081276 -91.344498
v -0.000000 -89.805405 -87.310783
v -1.826045 -90.359566 -87.825569
v -2.582417 -91.697433 -89.068359
v -1.826045 -93.035309 -90.311157
v 0.000000 -93.589470 -90.825943
v 1.826045 -93.035309 -90.311157
v 2.582417 -91.697433 -89.068359
v 1.826044 -90.359566 -87.825569
v -0.000000 -95.749893 -82.491531
v -1.826045 -96.161835 -83.125885
v -2.582417 -97.156349 -84.657349
v -1.826045 -98.150856 -86.188820
v 0.000000 -98.562798 -86.823174
v 1.826045 -98.150856 -86.188820
v 2.582417 -97.156349 -84.657349
v 1.826044 -96.161835 -83.125885
v -0.000000 -103.405426 -79.954384
v -1.826045 -103.518456 -80.702263
v -2.582417 -103.791336 -82.507805
v -1.826045 -104.064209 -84.313347
v 0.000000 -104.177238 -85.061226
v 1.826045 -104.064209 -84.313347
v 2.582417 -103.791336 -82.507805
v 1.826044 -103.518456 -80.702263
v -0.000000 -114.170967 -79.038689
v -1.826045 -114.207542 -79.794174
v -2.582417 -114.295830 -81.618088
v -1.826045 -114.384125 -83.441994
v 0.000000 -114.420700 -84.197479
v 1.826045 -114.384125 -83.441994
v 2.582417 -114.295830 -81.618088
v 1.826044 -114.207542 -79.794174
v -0.000000 -174.033234 -78.096390
v -1.826045 -174.038116 -78.852753
v -2.582417 -174.049927 -80.678757
v -1.826045 -174.061737 -82.504761
v 0.000000 -174.066635 -83.261124
v 1.826045 -174.061737 -82.504761
v 2.582417 -174.049927 -80.678757
v 1.826044 -174.038116 -78.852753
v 0.000000 -102.226944 -112.430290
v 0.000000 -174.049927 -80.678757
v 1.727057 -136.849197 -80.631363
v 0.997117 -136.119263 -80.631363
v 0.000000 -135.852081 -80.631363
v -0.997117 -136.119263 -80.631363
v -1.727057 -136.849197 -80.631363
v -1.994234 -137.846313 -80.631363
v -1.727057 -138.843430 -80.631363
v -0.997117 -139.573364 -80.631363
v 0.000000 -139.840546 -80.631363
v 0.997117 -139.573364 -80.631363
v 1.727057 -138.843430 -80.631363
v 1.994234 -137.846313 -80.631363
v 1.727057 -136.849197 -57.693501
v 0.997117 -136.119263 -57.693501
v 0.000000 -135.852081 -57.693501
v -0.997117 -136.119263 -57.693501
v -1.727057 -136.849197 -57.693501
v -1.994234 -137.846313 -57.693501
v -1.727057 -138.843430 -57.693501
v -0.997117 -139.573364 -57.693501
v 0.000000 -139.840546 -57.693501
v 0.997117 -139.573364 -57.693501
v 1.727057 -138.843430 -57.693501
v 1.994234 -137.846313 -57.693501
v 1.550658 -99.261940 -110.573250
v 0.895273 -99.742691 -111.018684
v 0.000000 -99.918663 -111.181717
v -0.895273 -99.742691 -111.018684
v -1.550658 -99.261940 -110.573250
v -1.790546 -98.605217 -109.964783
v -1.550658 -97.948494 -109.356323
v -0.895273 -97.467743 -108.910889
v 0.000000 -97.291779 -108.747856
v 0.895273 -97.467743 -108.910889
v 1.550658 -97.948494 -109.356323
v 1.790546 -98.605217 -109.964783
v 1.550658 -94.311691 -115.916092
v 0.895273 -94.792442 -116.361519
v 0.000000 -94.968414 -116.524559
v -0.895273 -94.792442 -116.361519
v -1.550658 -94.311691 -115.916092
v -1.790546 -93.654968 -115.307625
v -1.550658 -92.998245 -114.699158
v -0.895273 -92.517494 -114.253731
v 0.000000 -92.341522 -114.090698
v 0.895273 -92.517494 -114.253731
v 1.550658 -92.998245 -114.699158
v 1.790546 -93.654968 -115.307625
v 1.727057 -158.851700 -80.609909
v 0.997117 -158.121887 -80.595787
v 0.000000 -157.854767 -80.590614
v -0.997117 -158.121887 -80.595787
v -1.727057 -158.851700 -80.609909
v -1.994234 -159.848633 -80.629211
v -1.727057 -160.845551 -80.648506
v -0.997117 -161.575363 -80.662636
v 0.000000 -161.842484 -80.667809
v 0.997117 -161.575363 -80.662636
v 1.727057 -160.845551 -80.648506
v 1.994234 -159.848633 -80.629211
v 1.727057 -159.295624 -57.676350
v 0.997117 -158.565826 -57.662220
v 0.000000 -158.298691 -57.657051
v -0.997117 -158.565826 -57.662220
v -1.727057 -159.295624 -57.676350
v -1.994234 -160.292557 -57.695648
v -1.727057 -161.289490 -57.714947
v -0.997117 -162.019287 -57.729073
v 0.000000 -162.286407 -57.734241
v 0.997117 -162.019287 -57.729073
v 1.727057 -161.289490 -57.714947
v 1.994234 -160.292557 -57.695648
vt 0.895143 0.508066
vt 0.886431 0.508066
vt 0.886431 0.304536
vt 0.895143 0.304536
vt 0.877754 0.508066
vt 0.877754 0.304536
vt 0.869104 0.508066
vt 0.869104 0.304536
vt 0.860456 0.508066
vt 0.929868 0.304536
vt 0.921214 0.508066
vt 0.921214 0.304536
vt 0.912551 0.508066
vt 0.912551 0.304536
vt 0.903861 0.508066
vt 0.903861 0.304536
vt 0.886431 0.160555
vt 0.895143 0.160555
vt 0.877754 0.160555
vt 0.869104 0.160555
vt 0.929868 0.160555
vt 0.921214 0.160555
vt 0.912551 0.160555
vt 0.903861 0.160555
vt 0.806156 0.594484
vt 0.814879 0.594484
vt 0.797601 0.594484
vt 0.789037 0.594484
vt 0.849555 0.594484
vt 0.840897 0.594484
vt 0.832318 0.594484
vt 0.823615 0.594484
vt 0.806156 0.449033
vt 0.814879 0.449033
vt 0.797601 0.449033
vt 0.789037 0.449033
vt 0.849555 0.449033
vt 0.840897 0.449033
vt 0.832318 0.449033
vt 0.823615 0.449033
vt 0.806156 0.303725
vt 0.814879 0.303725
vt 0.797601 0.303725
vt 0.789037 0.303725
vt 0.849555 0.303725
vt 0.840897 0.303725
vt 0.832318 0.303725
vt 0.823615 0.303725
vt 0.806156 0.190342
vt 0.814879 0.190342
vt 0.797601 0.190342
vt 0.789037 0.190342
vt 0.849555 0.190342
vt 0.840897 0.190342
vt 0.832318 0.190342
vt 0.823615 0.190342
vt 0.806156 0.015625
vt 0.814879 0.015625
vt 0.797601 0.015625
vt 0.789037 0.015625
vt 0.849555 0.015625
vt 0.840897 0.015625
vt 0.832318 0.015625
vt 0.823615 0.015625
vt 0.740338 0.194432
vt 0.746463 0.188307
vt 0.755125 0.188307
vt 0.740338 0.203094
vt 0.746463 0.209219
vt 0.755125 0.209219
vt 0.761250 0.194432
vt 0.750794 0.198763
vt 0.714433 0.176802
vt 0.761250 0.203094
vt 0.718763 0.187259
vt 0.708308 0.182926
vt 0.708306 0.191588
vt 0.714430 0.197714
vt 0.729220 0.182930
vt 0.729218 0.191592
vt 0.723092 0.197716
vt 0.723096 0.176804
vt 0.780377 0.190342
vt 0.780377 0.015625
vt 0.780377 0.303725
vt 0.780377 0.449033
vt 0.860456 0.015625
vt 0.860456 0.160555
vt 0.860456 0.304536
vt 0.929868 0.508066
vt 0.895143 0.015625
vt 0.903861 0.015625
vt 0.912551 0.015625
vt 0.921214 0.015625
vt 0.929868 0.015625
vt 0.780377 0.594484
vt 0.869104 0.015625
vt 0.877754 0.015625
vt 0.886431 0.015625
vt 0.751170 0.065398
vt 0.756257 0.065398
vt 0.756257 0.103180
vt 0.751170 0.103180
vt 0.761344 0.065398
vt 0.761344 0.103180
vt 0.700298 0.065398
vt 0.705385 0.065398
vt 0.705385 0.103180
vt 0.700298 0.103180
vt 0.710472 0.065398
vt 0.710472 0.103180
vt 0.715560 0.065398
vt 0.715560 0.103180
vt 0.720647 0.065398
vt 0.720647 0.103180
vt 0.725734 0.065398
vt 0.725734 0.103180
vt 0.730821 0.065398
vt 0.730821 0.103180
vt 0.735908 0.065398
vt 0.735908 0.103180
vt 0.740995 0.065398
vt 0.740995 0.103180
vt 0.746082 0.065398
vt 0.746082 0.103180
vt 0.680882 0.656672
vt 0.726656 0.637917
vt 0.771694 0.719227
vt 0.731514 0.748082
vt 0.251209 0.730726
vt 0.211036 0.759591
vt 0.160380 0.668194
vt 0.206150 0.649427
vt 0.190161 0.389646
vt 0.230260 0.415181
vt 0.199412 0.603902
vt 0.153269 0.615340
vt 0.710735 0.378131
vt 0.750828 0.403677
vt 0.719931 0.592390
vt 0.673785 0.603816
vt 0.718702 0.603715
vt 0.672271 0.617320
vt 0.719189 0.615296
vt 0.672677 0.630902
vt 0.721818 0.626869
vt 0.675503 0.644194
vt 0.251142 0.374171
vt 0.243036 0.383101
vt 0.204656 0.351921
vt 0.213731 0.341807
vt 0.236856 0.393233
vt 0.197742 0.363619
vt 0.232705 0.404055
vt 0.193029 0.376364
vt 0.713607 0.364850
vt 0.753275 0.392552
vt 0.718323 0.352106
vt 0.757430 0.381731
vt 0.725240 0.340410
vt 0.763612 0.371600
vt 0.734318 0.330298
vt 0.771721 0.362672
vt 0.154998 0.655717
vt 0.201309 0.638381
vt 0.152168 0.642427
vt 0.198677 0.626808
vt 0.151759 0.628844
vt 0.198187 0.615227
vt 0.414773 0.386004
vt 0.259865 0.386022
vt 0.262222 0.374878
vt 0.412414 0.374860
vt 0.259888 0.577249
vt 0.414796 0.577230
vt 0.405697 0.365413
vt 0.268936 0.365430
vt 0.278986 0.359116
vt 0.395646 0.359102
vt 0.290840 0.356898
vt 0.383791 0.356887
vt 0.262247 0.588393
vt 0.412439 0.588375
vt 0.405725 0.597823
vt 0.268964 0.597839
vt 0.279015 0.604151
vt 0.395676 0.604137
vt 0.383821 0.606355
vt 0.290870 0.606366
vt 0.731158 0.015634
vt 0.736245 0.015635
vt 0.736237 0.057389
vt 0.731150 0.057388
vt 0.741332 0.015636
vt 0.741324 0.057390
vt 0.680286 0.015625
vt 0.685373 0.015626
vt 0.685366 0.057380
vt 0.680279 0.057379
vt 0.690461 0.015627
vt 0.690453 0.057381
vt 0.695548 0.015628
vt 0.695540 0.057382
vt 0.700635 0.015629
vt 0.700627 0.057383
vt 0.705722 0.015630
vt 0.705714 0.057384
vt 0.710809 0.015631
vt 0.710801 0.057385
vt 0.715896 0.015632
vt 0.715888 0.057386
vt 0.720983 0.015633
vt 0.720976 0.057386
vt 0.726070 0.015633
vt 0.726063 0.057387
vt 0.940534 0.392501
vt 0.984375 0.392501
vt 0.984375 0.509224
vt 0.940534 0.509224
vt 0.059466 0.850491
vt 0.015625 0.850491
vt 0.015625 0.733769
vt 0.059466 0.733769
vt 0.015625 0.417607
vt 0.059466 0.417607
vt 0.059466 0.673055
vt 0.015625 0.673055
vt 0.940534 0.076339
vt 0.984375 0.076339
vt 0.984375 0.331787
vt 0.940534 0.331787
vt 0.984375 0.346966
vt 0.940534 0.346966
vt 0.984375 0.362144
vt 0.940534 0.362144
vt 0.984375 0.377322
vt 0.940534 0.377322
vt 0.059466 0.356893
vt 0.059466 0.372071
vt 0.015625 0.372071
vt 0.015625 0.356893
vt 0.059466 0.387250
vt 0.015625 0.387250
vt 0.059466 0.402428
vt 0.015625 0.402428
vt 0.940534 0.061160
vt 0.984375 0.061160
vt 0.940534 0.045982
vt 0.984375 0.045982
vt 0.940534 0.030803
vt 0.984375 0.030803
vt 0.940534 0.015625
vt 0.984375 0.015625
vt 0.015625 0.718590
vt 0.059466 0.718590
vt 0.015625 0.703412
vt 0.059466 0.703412
vt 0.015625 0.688233
vt 0.059466 0.688233
vt 0.219826 0.309973
vt 0.414351 0.309979
vt 0.411389 0.324866
vt 0.222787 0.324860
vt 0.210150 0.054523
vt 0.015625 0.054539
vt 0.018585 0.039652
vt 0.207188 0.039636
vt 0.222795 0.039638
vt 0.231228 0.027018
vt 0.402965 0.027023
vt 0.411397 0.039644
vt 0.414358 0.054531
vt 0.219833 0.054525
vt 0.390345 0.018590
vt 0.243849 0.018586
vt 0.258735 0.015625
vt 0.375458 0.015628
vt 0.210171 0.309971
vt 0.015646 0.309987
vt 0.198754 0.027017
vt 0.027017 0.027031
vt 0.039636 0.018597
vt 0.186133 0.018585
vt 0.054523 0.015635
vt 0.171246 0.015625
vt 0.207211 0.324858
vt 0.018609 0.324874
vt 0.027042 0.337494
vt 0.198780 0.337479
vt 0.186160 0.345913
vt 0.039664 0.345925
vt 0.171273 0.348875
vt 0.054551 0.348885
vt 0.243839 0.345914
vt 0.390335 0.345918
vt 0.375448 0.348879
vt 0.258726 0.348875
vt 0.402956 0.337486
vt 0.231219 0.337481
vt 0.610325 0.015625
vt 0.624956 0.015625
vt 0.624956 0.150750
vt 0.610325 0.150750
vt 0.639487 0.015625
vt 0.639487 0.150750
vt 0.653994 0.015625
vt 0.653994 0.150750
vt 0.668512 0.015625
vt 0.668512 0.150750
vt 0.552153 0.015625
vt 0.566670 0.015625
vt 0.566670 0.150750
vt 0.552153 0.150750
vt 0.581176 0.015625
vt 0.581176 0.150750
vt 0.595694 0.015625
vt 0.595694 0.150750
vt 0.624956 0.285818
vt 0.610325 0.285818
vt 0.639487 0.285818
vt 0.653994 0.285818
vt 0.668512 0.285818
vt 0.566670 0.285818
vt 0.552153 0.285818
vt 0.581176 0.285818
vt 0.595694 0.285818
vt 0.624956 0.420850
vt 0.610325 0.420850
vt 0.639487 0.420850
vt 0.653994 0.420850
vt 0.668512 0.420850
vt 0.566670 0.420850
vt 0.552153 0.420850
vt 0.581176 0.420850
vt 0.595694 0.420850
vt 0.624956 0.555953
vt 0.610325 0.555953
vt 0.639487 0.555953
vt 0.653994 0.555953
vt 0.668512 0.555953
vt 0.566670 0.555953
vt 0.552153 0.555953
vt 0.581176 0.555953
vt 0.595694 0.555953
vt 0.482177 0.015625
vt 0.496776 0.015625
vt 0.496776 0.150797
vt 0.482177 0.150797
vt 0.511312 0.015625
vt 0.511312 0.150797
vt 0.525834 0.015625
vt 0.525834 0.150797
vt 0.540357 0.015625
vt 0.540357 0.150797
vt 0.424027 0.015625
vt 0.438548 0.015625
vt 0.438548 0.150797
vt 0.424027 0.150797
vt 0.453064 0.015625
vt 0.453064 0.150797
vt 0.467588 0.015625
vt 0.467588 0.150797
vt 0.496776 0.285854
vt 0.482177 0.285854
vt 0.511312 0.285854
vt 0.525834 0.285854
vt 0.540357 0.285854
vt 0.438548 0.285854
vt 0.424027 0.285854
vt 0.453064 0.285854
vt 0.467588 0.285854
vt 0.496776 0.420998
vt 0.482177 0.420998
vt 0.511312 0.420998
vt 0.525834 0.420998
vt 0.540357 0.420998
vt 0.438548 0.420998
vt 0.424027 0.420998
vt 0.453064 0.420998
vt 0.467588 0.420998
vt 0.496776 0.556228
vt 0.482177 0.556228
vt 0.511312 0.556228
vt 0.525834 0.556228
vt 0.540357 0.556228
vt 0.438548 0.556228
vt 0.424027 0.556228
vt 0.453064 0.556228
vt 0.467588 0.556228
vt 0.746609 0.145220
vt 0.753873 0.162759
vt 0.736334 0.155493
vt 0.761137 0.180299
vt 0.746607 0.180298
vt 0.761139 0.145220
vt 0.771413 0.155495
vt 0.771412 0.170025
vt 0.736334 0.170023
vt 0.142250 0.851060
vt 0.133549 0.851060
vt 0.133549 0.803832
vt 0.142250 0.803832
vt 0.124814 0.851060
vt 0.124814 0.803832
vt 0.115985 0.851060
vt 0.115985 0.803832
vt 0.106921 0.851060
vt 0.106921 0.803832
vt 0.097974 0.851060
vt 0.097974 0.803832
vt 0.089143 0.851060
vt 0.089143 0.803832
vt 0.080411 0.851060
vt 0.080411 0.803832
vt 0.071680 0.851060
vt 0.071680 0.803832
vt 0.133549 0.772772
vt 0.142250 0.772772
vt 0.124814 0.772772
vt 0.115985 0.772772
vt 0.106921 0.772772
vt 0.097974 0.772772
vt 0.089143 0.772772
vt 0.080411 0.772772
vt 0.071680 0.772772
vt 0.133549 0.757535
vt 0.142250 0.757535
vt 0.124814 0.757535
vt 0.115985 0.757535
vt 0.106921 0.757535
vt 0.097974 0.757535
vt 0.089143 0.757535
vt 0.080411 0.757535
vt 0.071680 0.757535
vt 0.133549 0.743054
vt 0.142250 0.743054
vt 0.124814 0.743054
vt 0.115985 0.743054
vt 0.106921 0.743054
vt 0.097974 0.743054
vt 0.089143 0.743054
vt 0.080411 0.743054
vt 0.071680 0.743054
vt 0.133549 0.728146
vt 0.142250 0.728146
vt 0.124814 0.728146
vt 0.115985 0.728146
vt 0.106921 0.728146
vt 0.097974 0.728146
vt 0.089143 0.728146
vt 0.080411 0.728146
vt 0.071680 0.728146
vt 0.133549 0.697698
vt 0.142250 0.697698
vt 0.124814 0.697698
vt 0.115985 0.697698
vt 0.106921 0.697698
vt 0.097974 0.697698
vt 0.089143 0.697698
vt 0.080411 0.697698
vt 0.071680 0.697698
vt 0.133549 0.667376
vt 0.142250 0.667376
vt 0.124814 0.667376
vt 0.115985 0.667376
vt 0.106921 0.667376
vt 0.097974 0.667376
vt 0.089143 0.667376
vt 0.080411 0.667376
vt 0.071680 0.667376
vt 0.133549 0.621015
vt 0.142250 0.621015
vt 0.124814 0.621015
vt 0.115985 0.621015
vt 0.106921 0.621015
vt 0.097974 0.621015
vt 0.089143 0.621015
vt 0.080411 0.621015
vt 0.071680 0.621015
vt 0.133549 0.356892
vt 0.142250 0.356892
vt 0.124814 0.356892
vt 0.115985 0.356892
vt 0.106921 0.356892
vt 0.097974 0.356892
vt 0.089143 0.356892
vt 0.080411 0.356892
vt 0.071680 0.356892
vt 0.695225 0.151459
vt 0.690847 0.162028
vt 0.686469 0.151459
vt 0.746529 0.132325
vt 0.740338 0.126134
vt 0.750906 0.121756
vt 0.680279 0.166405
vt 0.680279 0.157650
vt 0.701416 0.157650
vt 0.695225 0.172596
vt 0.701416 0.166405
vt 0.686469 0.172596
vt 0.755284 0.132325
vt 0.740338 0.117379
vt 0.746529 0.111188
vt 0.761475 0.126134
vt 0.761475 0.117379
vt 0.755284 0.111188
vt 0.860458 0.553819
vt 0.860458 0.549246
vt 0.962064 0.549240
vt 0.962065 0.553813
vt 0.860457 0.544673
vt 0.962064 0.544668
vt 0.860457 0.540101
vt 0.962064 0.540095
vt 0.860457 0.535528
vt 0.962064 0.535522
vt 0.860457 0.530955
vt 0.962063 0.530950
vt 0.860456 0.526383
vt 0.962063 0.526377
vt 0.860456 0.521810
vt 0.962063 0.521804
vt 0.860456 0.517237
vt 0.962063 0.517232
vt 0.860459 0.572110
vt 0.860459 0.567537
vt 0.962065 0.567531
vt 0.962066 0.572104
vt 0.860458 0.562964
vt 0.962065 0.562958
vt 0.860458 0.558391
vt 0.962065 0.558386
vt 0.713124 0.143452
vt 0.709018 0.143452
vt 0.709018 0.111188
vt 0.713124 0.111188
vt 0.704912 0.143452
vt 0.704912 0.111188
vt 0.700807 0.143452
vt 0.700807 0.111188
vt 0.696701 0.143452
vt 0.696701 0.111188
vt 0.692595 0.143452
vt 0.692595 0.111188
vt 0.688490 0.143452
vt 0.688490 0.111188
vt 0.684384 0.143452
vt 0.684384 0.111188
vt 0.680279 0.143452
vt 0.680279 0.111188
vt 0.729546 0.143452
vt 0.725441 0.143452
vt 0.725441 0.111188
vt 0.729546 0.111188
vt 0.721335 0.143452
vt 0.721335 0.111188
vt 0.717229 0.143452
vt 0.717229 0.111188
vt 0.552155 0.600549
vt 0.552154 0.595976
vt 0.653761 0.595970
vt 0.653761 0.600543
vt 0.552154 0.591403
vt 0.653761 0.591398
vt 0.552154 0.586830
vt 0.653761 0.586825
vt 0.552154 0.582258
vt 0.653760 0.582252
vt 0.552153 0.577685
vt 0.653760 0.577679
vt 0.552153 0.573112
vt 0.653760 0.573107
vt 0.552153 0.568540
vt 0.653760 0.568534
vt 0.552153 0.563967
vt 0.653759 0.563961
vt 0.552156 0.618839
vt 0.552155 0.614267
vt 0.653762 0.614261
vt 0.653762 0.618834
vt 0.552155 0.609694
vt 0.653762 0.609688
vt 0.552155 0.605121
vt 0.653762 0.605116
vn 0.000000 0.025243 -0.999681
vn -0.706469 0.017748 -0.707521
vn -0.685144 0.123014 -0.717945
vn -0.000000 0.170350 -0.985384
vn -0.999978 0.000006 0.006663
vn -0.998963 0.006571 -0.045049
vn -0.699792 -0.016767 0.714150
vn -0.730783 -0.113953 0.673032
vn 0.000000 -0.023306 0.999728
vn 0.000000 -0.165498 0.986210
vn 0.699792 -0.016767 0.714150
vn 0.730783 -0.113953 0.673032
vn 0.999978 0.000006 0.006662
vn 0.998963 0.006571 -0.045050
vn 0.706469 0.017748 -0.707521
vn 0.685144 0.123014 -0.717946
vn -0.694087 0.322729 -0.643498
vn -0.000000 0.448557 -0.893754
vn -0.999696 0.010682 -0.022236
vn -0.718739 -0.312190 0.621251
vn 0.000000 -0.448797 0.893634
vn 0.718739 -0.312190 0.621250
vn 0.999696 0.010682 -0.022236
vn 0.694087 0.322729 -0.643498
vn -0.697907 0.418975 -0.580849
vn -0.000000 0.585036 -0.811007
vn -0.999837 0.010522 -0.014688
vn -0.715980 -0.408473 0.566147
vn 0.000000 -0.585078 0.810977
vn 0.715980 -0.408473 0.566147
vn 0.999837 0.010523 -0.014689
vn 0.697907 0.418975 -0.580849
vn -0.698938 0.488781 -0.522091
vn -0.000001 0.683443 -0.730003
vn -0.999873 0.010907 -0.011663
vn -0.714908 -0.477866 0.510442
vn 0.000000 -0.683421 0.730025
vn 0.714908 -0.477866 0.510442
vn 0.999873 0.010907 -0.011663
vn 0.698938 0.488781 -0.522091
vn -0.689410 0.566259 -0.451735
vn -0.000000 0.781621 -0.623754
vn -0.999661 0.021047 -0.015320
vn -0.715088 -0.543912 0.439100
vn 0.000000 -0.777993 0.628273
vn 0.715088 -0.543912 0.439100
vn 0.999661 0.021047 -0.015320
vn 0.689410 0.566259 -0.451735
vn -0.687794 0.682740 -0.246589
vn -0.000000 0.942923 -0.333011
vn -0.999199 0.034370 -0.020500
vn -0.726856 -0.646588 0.231525
vn 0.000000 -0.939180 0.343424
vn 0.726856 -0.646588 0.231525
vn 0.999199 0.034371 -0.020501
vn 0.687794 0.682740 -0.246588
vn -0.709837 0.690737 -0.137890
vn -0.000000 0.980651 -0.195763
vn -0.999984 -0.005543 0.001107
vn -0.704185 -0.696278 0.139001
vn 0.000000 -0.980649 0.195772
vn 0.704185 -0.696278 0.139001
vn 0.999984 -0.005543 0.001107
vn 0.709837 0.690737 -0.137890
vn 0.000002 -0.998375 -0.056991
vn 0.000000 -0.998375 -0.056993
vn 0.000000 -0.998375 -0.056991
vn -0.000003 0.218318 0.975878
vn 0.000000 0.218318 0.975878
vn -0.000006 0.218318 0.975878
vn 0.000000 -0.998375 -0.056991
vn -0.000000 -0.998375 -0.056991
vn -0.000002 -0.998374 -0.056998
vn 0.000000 -0.998374 -0.056998
vn -0.000000 -0.998375 -0.056991
vn 0.000000 -0.998375 -0.056991
vn -0.000002 0.218318 0.975878
vn 0.000001 0.218319 0.975878
vn 0.000000 0.218318 0.975878
vn 0.000002 0.218319 0.975878
vn 0.000008 0.218318 0.975878
vn 0.000000 0.218318 0.975878
vn 0.707108 -0.096718 -0.700460
vn 0.707108 -0.096718 -0.700460
vn 0.707108 -0.096718 -0.700460
vn 0.707108 -0.096718 -0.700460
vn 0.258822 -0.132119 -0.956847
vn 0.258822 -0.132119 -0.956847
vn 0.258822 -0.132119 -0.956847
vn 0.258822 -0.132119 -0.956847
vn -0.258822 -0.132119 -0.956847
vn -0.258822 -0.132119 -0.956847
vn -0.258822 -0.132119 -0.956847
vn -0.258822 -0.132119 -0.956847
vn -0.707108 -0.096718 -0.700460
vn -0.707108 -0.096718 -0.700460
vn -0.707108 -0.096718 -0.700460
vn -0.707108 -0.096718 -0.700460
vn -0.965925 -0.035402 -0.256388
vn -0.965925 -0.035402 -0.256388
vn -0.965925 -0.035402 -0.256388
vn -0.965925 -0.035402 -0.256388
vn -0.965927 0.035401 0.256382
vn -0.965927 0.035401 0.256382
vn -0.965927 0.035401 0.256382
vn -0.965927 0.035401 0.256382
vn -0.707105 0.096719 0.700463
vn -0.707105 0.096719 0.700463
vn -0.707105 0.096719 0.700463
vn -0.707105 0.096719 0.700463
vn -0.258816 0.132120 0.956848
vn -0.258816 0.132120 0.956848
vn -0.258816 0.132120 0.956848
vn -0.258816 0.132120 0.956848
vn 0.258816 0.132120 0.956848
vn 0.258816 0.132120 0.956848
vn 0.258816 0.132120 0.956848
vn 0.258816 0.132120 0.956848
vn 0.707105 0.096719 0.700463
vn 0.707105 0.096719 0.700463
vn 0.707105 0.096719 0.700463
vn 0.707105 0.096719 0.700463
vn 0.965927 0.035401 0.256382
vn 0.965927 0.035401 0.256382
vn 0.965927 0.035401 0.256382
vn 0.965927 0.035401 0.256382
vn 0.965925 -0.035402 -0.256388
vn 0.965925 -0.035402 -0.256388
vn 0.965925 -0.035402 -0.256388
vn 0.965925 -0.035402 -0.256388
vn -0.020483 -0.499231 0.866227
vn -0.017528 -0.498978 0.866437
vn 0.017528 -0.498978 0.866437
vn 0.020483 -0.499231 0.866227
vn -0.017528 -0.498978 -0.866438
vn -0.020483 -0.499230 -0.866227
vn 0.020483 -0.499230 -0.866227
vn 0.017528 -0.498978 -0.866438
vn 0.973599 -0.227593 0.017495
vn 0.974766 -0.223121 0.006931
vn 0.974766 -0.223121 -0.006931
vn 0.973599 -0.227593 -0.017495
vn -0.973599 -0.227593 -0.017495
vn -0.974766 -0.223121 -0.006931
vn -0.974766 -0.223121 0.006931
vn -0.973599 -0.227593 0.017495
vn -0.873705 -0.355025 0.332560
vn -0.833964 -0.380437 0.399714
vn -0.633722 -0.458591 0.622969
vn -0.598555 -0.467328 0.650643
vn -0.326131 -0.504507 0.799445
vn -0.317019 -0.504995 0.802794
vn 0.326131 -0.504507 0.799445
vn 0.317019 -0.504995 0.802794
vn 0.633722 -0.458591 0.622969
vn 0.598555 -0.467328 0.650643
vn 0.873705 -0.355025 0.332561
vn 0.833964 -0.380436 0.399714
vn -0.833964 -0.380437 -0.399714
vn -0.873706 -0.355024 -0.332560
vn -0.598557 -0.467327 -0.650642
vn -0.633723 -0.458591 -0.622969
vn -0.317024 -0.504993 -0.802794
vn -0.326135 -0.504505 -0.799444
vn 0.317024 -0.504993 -0.802794
vn 0.326135 -0.504505 -0.799444
vn 0.598557 -0.467327 -0.650643
vn 0.633723 -0.458591 -0.622969
vn 0.833964 -0.380436 -0.399714
vn 0.873706 -0.355024 -0.332560
vn 0.000000 -1.000000 -0.000000
vn 0.000000 -1.000000 -0.000000
vn 0.000000 -1.000000 -0.000000
vn 0.000000 -1.000000 -0.000000
vn 0.000000 -1.000000 0.000000
vn 0.000000 -1.000000 0.000000
vn 0.000000 -1.000000 -0.000000
vn 0.000000 -1.000000 -0.000000
vn 0.000000 -1.000000 0.000000
vn 0.000000 -1.000000 0.000000
vn 0.000000 -1.000000 -0.000000
vn 0.000000 -1.000000 -0.000000
vn 0.000000 -1.000000 0.000000
vn 0.000000 -1.000000 0.000000
vn 0.000000 -1.000000 0.000000
vn 0.000000 -1.000000 0.000000
vn 0.000000 -1.000000 -0.000000
vn 0.000000 -1.000000 -0.000000
vn 0.000000 -1.000000 0.000000
vn 0.000000 -1.000000 0.000000
vn 0.707107 -0.123275 -0.696278
vn 0.707107 -0.123275 -0.696278
vn 0.707107 -0.123275 -0.696278
vn 0.707107 -0.123275 -0.696278
vn 0.258821 -0.168396 -0.951133
vn 0.258821 -0.168396 -0.951133
vn 0.258821 -0.168396 -0.951133
vn 0.258821 -0.168396 -0.951133
vn -0.258821 -0.168396 -0.951133
vn -0.258821 -0.168396 -0.951133
vn -0.258821 -0.168396 -0.951133
vn -0.258821 -0.168396 -0.951133
vn -0.707107 -0.123275 -0.696278
vn -0.707107 -0.123275 -0.696278
vn -0.707107 -0.123275 -0.696278
vn -0.707107 -0.123275 -0.696278
vn -0.965926 -0.045122 -0.254855
vn -0.965926 -0.045122 -0.254855
vn -0.965926 -0.045122 -0.254855
vn -0.965926 -0.045122 -0.254855
vn -0.965926 0.045122 0.254856
vn -0.965926 0.045122 0.254856
vn -0.965926 0.045122 0.254856
vn -0.965926 0.045122 0.254856
vn -0.707107 0.123275 0.696278
vn -0.707107 0.123275 0.696278
vn -0.707107 0.123275 0.696278
vn -0.707107 0.123275 0.696278
vn -0.258824 0.168396 0.951132
vn -0.258824 0.168396 0.951132
vn -0.258824 0.168396 0.951132
vn -0.258824 0.168396 0.951132
vn 0.258824 0.168396 0.951132
vn 0.258824 0.168396 0.951132
vn 0.258824 0.168396 0.951132
vn 0.258824 0.168396 0.951132
vn 0.707107 0.123275 0.696278
vn 0.707107 0.123275 0.696278
vn 0.707107 0.123275 0.696278
vn 0.707107 0.123275 0.696278
vn 0.965926 0.045122 0.254856
vn 0.965926 0.045122 0.254856
vn 0.965926 0.045122 0.254856
vn 0.965926 0.045122 0.254856
vn 0.965926 -0.045122 -0.254855
vn 0.965926 -0.045122 -0.254855
vn 0.965926 -0.045122 -0.254855
vn 0.965926 -0.045122 -0.254855
vn -0.022494 0.000000 0.999747
vn -0.022494 0.000000 0.999747
vn 0.022494 0.000000 0.999747
vn 0.022494 0.000000 0.999747
vn -0.022494 0.000000 -0.999747
vn -0.022494 0.000000 -0.999747
vn 0.022494 0.000000 -0.999747
vn 0.022494 0.000000 -0.999747
vn 0.999940 0.000000 0.010953
vn 0.999940 0.000000 0.010953
vn 0.999940 0.000000 -0.010953
vn 0.999940 0.000000 -0.010953
vn -0.999940 0.000000 -0.010953
vn -0.999940 0.000000 -0.010953
vn -0.999940 0.000000 0.010953
vn -0.999940 0.000000 0.010953
vn -0.923879 0.000000 0.382684
vn -0.923879 0.000000 0.382684
vn -0.707106 0.000000 0.707107
vn -0.707106 0.000000 0.707107
vn -0.382681 0.000000 0.923881
vn -0.382681 0.000000 0.923881
vn 0.382681 0.000000 0.923881
vn 0.382681 0.000000 0.923881
vn 0.707106 0.000000 0.707107
vn 0.707106 0.000000 0.707107
vn 0.923879 0.000000 0.382684
vn 0.923879 0.000000 0.382684
vn -0.923879 0.000000 -0.382684
vn -0.923879 0.000000 -0.382684
vn -0.707107 0.000000 -0.707106
vn -0.707107 0.000000 -0.707106
vn -0.382683 0.000000 -0.923880
vn -0.382683 0.000000 -0.923880
vn 0.382683 0.000000 -0.923880
vn 0.382683 0.000000 -0.923880
vn 0.707107 0.000000 -0.707106
vn 0.707107 0.000000 -0.707106
vn 0.923879 0.000000 -0.382684
vn 0.923879 0.000000 -0.382684
vn 0.000000 1.000000 0.000000
vn 0.000000 1.000000 0.000000
vn 0.000000 1.000000 0.000000
vn 0.000000 1.000000 0.000000
vn 0.000000 -1.000000 0.000000
vn 0.000000 -1.000000 0.000000
vn 0.000000 -1.000000 0.000000
vn 0.000000 -1.000000 0.000000
vn 0.000000 1.000000 -0.000000
vn 0.000000 1.000000 0.000000
vn 0.000000 1.000000 0.000000
vn 0.000000 1.000000 -0.000000
vn 0.000000 1.000000 -0.000000
vn 0.000000 1.000000 -0.000000
vn 0.000000 1.000000 0.000000
vn 0.000000 1.000000 0.000000
vn 0.000000 1.000000 0.000000
vn 0.000000 1.000000 0.000000
vn 0.000000 -1.000000 -0.000000
vn 0.000000 -1.000000 -0.000000
vn 0.000000 -1.000000 -0.000000
vn 0.000000 -1.000000 -0.000000
vn 0.000000 -1.000000 -0.000000
vn 0.000000 -1.000000 -0.000000
vn 0.000000 -1.000000 -0.000001
vn 0.000000 -1.000000 -0.000001
vn 0.000000 -1.000000 -0.000000
vn 0.000000 -1.000000 -0.000000
vn 0.000000 -1.000000 0.000000
vn 0.000000 -1.000000 0.000000
vn 0.000000 -1.000000 0.000000
vn 0.000000 -1.000000 0.000000
vn 0.000000 -1.000000 0.000001
vn 0.000000 -1.000000 0.000001
vn 0.000000 1.000000 -0.000000
vn 0.000000 1.000000 -0.000000
vn 0.000000 1.000000 -0.000000
vn 0.000000 1.000000 -0.000000
vn 0.000000 1.000000 -0.000000
vn 0.000000 1.000000 -0.000000
vn 0.000000 0.994730 -0.102531
vn 0.699625 0.710744 -0.073259
vn 0.699739 0.705952 -0.109535
vn 0.000000 0.988177 -0.153316
vn 0.999903 0.013875 -0.001431
vn 0.999894 0.014395 -0.002251
vn 0.713568 -0.696895 0.071822
vn 0.714311 -0.691558 0.107271
vn -0.000000 -0.994731 0.102516
vn -0.000000 -0.988181 0.153290
vn -0.713568 -0.696894 0.071822
vn -0.714311 -0.691558 0.107271
vn -0.999903 0.013876 -0.001431
vn -0.999894 0.014395 -0.002251
vn -0.699625 0.710744 -0.073259
vn -0.699739 0.705952 -0.109535
vn 0.699377 0.690944 -0.182944
vn 0.000000 0.966690 -0.255949
vn 0.999883 0.014766 -0.003920
vn 0.714658 -0.676178 0.179017
vn -0.000000 -0.966694 0.255935
vn -0.714658 -0.676178 0.179017
vn -0.999883 0.014767 -0.003920
vn -0.699377 0.690944 -0.182944
vn 0.699266 0.667259 -0.256501
vn 0.000000 0.933410 -0.358813
vn 0.999880 0.014464 -0.005559
vn 0.714765 -0.652793 0.250942
vn -0.000000 -0.933409 0.358814
vn -0.714765 -0.652793 0.250942
vn -0.999880 0.014464 -0.005559
vn -0.699266 0.667259 -0.256501
vn 0.699428 0.635643 -0.326740
vn 0.000000 0.889377 -0.457174
vn 0.999885 0.013505 -0.006929
vn 0.714610 -0.622133 0.319818
vn -0.000000 -0.889370 0.457189
vn -0.714610 -0.622133 0.319818
vn -0.999885 0.013505 -0.006929
vn -0.699428 0.635643 -0.326740
vn 0.699830 0.597988 -0.390703
vn 0.000000 0.837149 -0.546975
vn 0.999897 0.012058 -0.007856
vn 0.714224 -0.585922 0.382858
vn 0.000000 -0.837134 0.546997
vn -0.714224 -0.585922 0.382858
vn -0.999896 0.012059 -0.007856
vn -0.699829 0.597988 -0.390703
vn 0.700398 0.556798 -0.446563
vn -0.000000 0.780093 -0.625664
vn 0.999912 0.010372 -0.008291
vn 0.713677 -0.546417 0.438285
vn 0.000000 -0.780073 0.625688
vn -0.713677 -0.546417 0.438284
vn -0.999912 0.010372 -0.008291
vn -0.700398 0.556798 -0.446563
vn 0.701047 0.514527 -0.493755
vn 0.000000 0.721513 -0.692401
vn 0.999928 0.008674 -0.008295
vn 0.713051 -0.505842 0.485471
vn -0.000001 -0.721492 0.692422
vn -0.713051 -0.505842 0.485471
vn -0.999928 0.008674 -0.008295
vn -0.701047 0.514527 -0.493755
vn 0.701193 0.493147 -0.514912
vn 0.000000 0.691679 -0.722205
vn 0.999938 0.007726 -0.008065
vn 0.712359 -0.485424 0.506860
vn -0.000001 -0.691669 0.722215
vn -0.712360 -0.485424 0.506860
vn -0.999938 0.007726 -0.008066
vn -0.701193 0.493147 -0.514912
vn 0.000001 -0.748693 -0.662917
vn -0.000000 -0.748694 -0.662916
vn -0.000001 -0.748695 -0.662915
vn 0.000000 -0.748694 -0.662916
vn 0.000000 -0.748693 -0.662917
vn 0.000000 -0.748693 -0.662917
vn -0.000001 -0.748694 -0.662916
vn -0.000001 -0.748694 -0.662916
vn -0.000001 -0.748694 -0.662916
vn 0.000000 0.735667 -0.677343
vn -0.703514 0.522813 -0.481388
vn -0.697198 0.550517 -0.459180
vn -0.000000 0.767965 -0.640492
vn -0.999977 0.004995 -0.004567
vn -0.999818 0.015002 -0.011793
vn -0.710282 -0.517722 0.476931
vn -0.716265 -0.534408 0.448746
vn 0.000001 -0.735470 0.677557
vn 0.000001 -0.765713 0.643183
vn 0.710282 -0.517722 0.476931
vn 0.716265 -0.534408 0.448746
vn 0.999977 0.004996 -0.004567
vn 0.999818 0.015002 -0.011793
vn 0.703514 0.522813 -0.481388
vn 0.697198 0.550517 -0.459181
vn -0.682692 0.628994 -0.371884
vn -0.000001 0.861342 -0.508025
vn -0.998844 0.042122 -0.023156
vn -0.730727 -0.581724 0.357261
vn 0.000001 -0.850952 0.525243
vn 0.730727 -0.581724 0.357261
vn 0.998844 0.042122 -0.023156
vn 0.682692 0.628994 -0.371884
vn -0.657660 0.746715 -0.099496
vn -0.000001 0.991102 -0.133103
vn -0.994987 0.099624 -0.008701
vn -0.760164 -0.640610 0.108490
vn 0.000001 -0.985071 0.172149
vn 0.760165 -0.640609 0.108489
vn 0.994987 0.099625 -0.008702
vn 0.657659 0.746716 -0.099497
vn -0.654298 0.717412 0.239195
vn 0.000000 0.948387 0.317115
vn -0.994175 0.103255 0.030911
vn -0.765328 -0.604879 -0.219988
vn -0.000000 -0.938252 -0.345951
vn 0.765328 -0.604879 -0.219989
vn 0.994175 0.103255 0.030911
vn 0.654299 0.717411 0.239195
vn -0.677104 0.524850 0.515813
vn 0.000001 0.713994 0.700152
vn -0.998253 0.043693 0.039780
vn -0.736220 -0.471249 -0.485700
vn -0.000000 -0.694043 -0.719933
vn 0.736219 -0.471250 -0.485700
vn 0.998253 0.043693 0.039780
vn 0.677105 0.524849 0.515812
vn -0.675575 0.350921 0.648424
vn 0.000000 0.478948 0.877843
vn -0.998061 0.026331 0.056394
vn -0.738091 -0.322211 -0.592792
vn -0.000001 -0.474734 -0.880130
vn 0.738090 -0.322211 -0.592793
vn 0.998061 0.026331 0.056393
vn 0.675575 0.350921 0.648423
vn -0.686740 0.132077 0.714803
vn 0.000000 0.181435 0.983403
vn -0.999323 0.009215 0.035606
vn -0.723300 -0.115324 -0.680836
vn -0.000000 -0.166182 -0.986095
vn 0.723299 -0.115324 -0.680837
vn 0.999323 0.009215 0.035605
vn 0.686740 0.132077 0.714803
vn -0.702589 0.018657 0.711352
vn 0.000000 0.026249 0.999655
vn -0.999961 0.000278 0.008848
vn -0.711439 -0.018152 -0.702513
vn 0.000000 -0.025795 -0.999667
vn 0.711439 -0.018152 -0.702513
vn 0.999961 0.000278 0.008848
vn 0.702589 0.018657 0.711352
vn -0.705741 0.011146 0.708382
vn 0.000000 0.015736 0.999876
vn -0.999997 0.000043 0.002519
vn -0.708260 -0.011086 -0.705864
vn 0.000000 -0.015700 -0.999877
vn 0.708260 -0.011086 -0.705864
vn 0.999997 0.000043 0.002519
vn 0.705741 0.011146 0.708382
vn 0.000000 -0.691256 -0.722610
vn 0.000000 -0.691258 -0.722608
vn -0.000002 -0.691258 -0.722608
vn -0.000000 -0.999979 0.006463
vn -0.000002 -0.999979 0.006463
vn -0.000000 -0.999979 0.006464
vn 0.000000 -0.691257 -0.722609
vn -0.000002 -0.691259 -0.722607
vn 0.000000 -0.691259 -0.722607
vn 0.000002 -0.691256 -0.722610
vn 0.000002 -0.691259 -0.722607
vn 0.000000 -0.691256 -0.722610
vn 0.000002 -0.999979 0.006465
vn 0.000000 -0.999979 0.006465
vn -0.000001 -0.999979 0.006470
vn 0.000000 -0.999979 0.006465
vn 0.000001 -0.999979 0.006459
vn -0.000000 -0.999979 0.006463
vn 0.707104 0.707109 0.000000
vn 0.707104 0.707109 0.000000
vn 0.707104 0.707109 0.000000
vn 0.707104 0.707109 0.000000
vn 0.258823 0.965925 0.000000
vn 0.258823 0.965925 0.000000
vn 0.258823 0.965925 0.000000
vn 0.258823 0.965925 0.000000
vn -0.258823 0.965925 0.000000
vn -0.258823 0.965925 0.000000
vn -0.258823 0.965925 0.000000
vn -0.258823 0.965925 0.000000
vn -0.707104 0.707109 0.000000
vn -0.707104 0.707109 0.000000
vn -0.707104 0.707109 0.000000
vn -0.707104 0.707109 0.000000
vn -0.965926 0.258819 0.000000
vn -0.965926 0.258819 0.000000
vn -0.965926 0.258819 0.000000
vn -0.965926 0.258819 0.000000
vn -0.965926 -0.258819 0.000000
vn -0.965926 -0.258819 0.000000
vn -0.965926 -0.258819 0.000000
vn -0.965926 -0.258819 0.000000
vn -0.707104 -0.707109 0.000000
vn -0.707104 -0.707109 0.000000
vn -0.707104 -0.707109 0.000000
vn -0.707104 -0.707109 0.000000
vn -0.258823 -0.965925 0.000000
vn -0.258823 -0.965925 0.000000
vn -0.258823 -0.965925 0.000000
vn -0.258823 -0.965925 0.000000
vn 0.258823 -0.965925 0.000000
vn 0.258823 -0.965925 0.000000
vn 0.258823 -0.965925 0.000000
vn 0.258823 -0.965925 0.000000
vn 0.707104 -0.707109 0.000000
vn 0.707104 -0.707109 0.000000
vn 0.707104 -0.707109 0.000000
vn 0.707104 -0.707109 0.000000
vn 0.965926 -0.258819 0.000000
vn 0.965926 -0.258819 0.000000
vn 0.965926 -0.258819 0.000000
vn 0.965926 -0.258819 0.000000
vn 0.965926 0.258819 0.000000
vn 0.965926 0.258819 0.000000
vn 0.965926 0.258819 0.000000
vn 0.965926 0.258819 0.000000
vn 0.707101 -0.518697 -0.480584
vn 0.707101 -0.518697 -0.480584
vn 0.707101 -0.518697 -0.480584
vn 0.707101 -0.518697 -0.480584
vn 0.258820 -0.708549 -0.656484
vn 0.258820 -0.708549 -0.656484
vn 0.258820 -0.708549 -0.656484
vn 0.258820 -0.708549 -0.656484
vn -0.258820 -0.708549 -0.656484
vn -0.258820 -0.708549 -0.656484
vn -0.258820 -0.708549 -0.656484
vn -0.258820 -0.708549 -0.656484
vn -0.707106 -0.518693 -0.480581
vn -0.707106 -0.518693 -0.480581
vn -0.707106 -0.518693 -0.480581
vn -0.707106 -0.518693 -0.480581
vn -0.965926 -0.189853 -0.175903
vn -0.965926 -0.189853 -0.175903
vn -0.965926 -0.189853 -0.175903
vn -0.965926 -0.189853 -0.175903
vn -0.965926 0.189855 0.175905
vn -0.965926 0.189855 0.175905
vn -0.965926 0.189855 0.175905
vn -0.965926 0.189855 0.175905
vn -0.707106 0.518694 0.480580
vn -0.707106 0.518694 0.480580
vn -0.707106 0.518694 0.480580
vn -0.707106 0.518694 0.480580
vn -0.258811 0.708549 0.656486
vn -0.258811 0.708549 0.656486
vn -0.258811 0.708549 0.656486
vn -0.258811 0.708549 0.656486
vn 0.258811 0.708549 0.656486
vn 0.258811 0.708549 0.656486
vn 0.258811 0.708549 0.656486
vn 0.258811 0.708549 0.656486
vn 0.707111 0.518691 0.480577
vn 0.707111 0.518691 0.480577
vn 0.707111 0.518691 0.480577
vn 0.707111 0.518691 0.480577
vn 0.965926 0.189855 0.175905
vn 0.965926 0.189855 0.175905
vn 0.965926 0.189855 0.175905
vn 0.965926 0.189855 0.175905
vn 0.965926 -0.189853 -0.175903
vn 0.965926 -0.189853 -0.175903
vn 0.965926 -0.189853 -0.175903
vn 0.965926 -0.189853 -0.175903
vn 0.707107 0.706974 0.013685
vn 0.707108 0.706974 0.013685
vn 0.707107 0.706974 0.013685
vn 0.707108 0.706974 0.013685
vn 0.258820 0.965745 0.018694
vn 0.258820 0.965745 0.018694
vn 0.258820 0.965745 0.018694
vn 0.258820 0.965745 0.018694
vn -0.258820 0.965745 0.018694
vn -0.258820 0.965745 0.018694
vn -0.258820 0.965745 0.018694
vn -0.258820 0.965745 0.018694
vn -0.707108 0.706974 0.013685
vn -0.707107 0.706974 0.013685
vn -0.707108 0.706974 0.013685
vn -0.707107 0.706974 0.013685
vn -0.965926 0.258770 0.005009
vn -0.965926 0.258770 0.005009
vn -0.965926 0.258770 0.005009
vn -0.965926 0.258770 0.005009
vn -0.965926 -0.258772 -0.005009
vn -0.965926 -0.258772 -0.005009
vn -0.965926 -0.258772 -0.005009
vn -0.965925 -0.258772 -0.005009
vn -0.707108 -0.706974 -0.013685
vn -0.707108 -0.706974 -0.013685
vn -0.707108 -0.706974 -0.013685
vn -0.707108 -0.706974 -0.013685
vn -0.258813 -0.965746 -0.018694
vn -0.258813 -0.965746 -0.018694
vn -0.258813 -0.965747 -0.018694
vn -0.258813 -0.965746 -0.018694
vn 0.258813 -0.965746 -0.018694
vn 0.258813 -0.965746 -0.018694
vn 0.258813 -0.965746 -0.018694
vn 0.258813 -0.965747 -0.018694
vn 0.707108 -0.706973 -0.013685
vn 0.707108 -0.706974 -0.013685
vn 0.707108 -0.706974 -0.013685
vn 0.707108 -0.706973 -0.013685
vn 0.965926 -0.258772 -0.005009
vn 0.965926 -0.258772 -0.005009
vn 0.965925 -0.258772 -0.005009
vn 0.965926 -0.258772 -0.005009
vn 0.965926 0.258770 0.005009
vn 0.965926 0.258770 0.005009
vn 0.965926 0.258770 0.005009
vn 0.965926 0.258770 0.005009
s 1
g SP13_08_low
usemtl aiStandardSurface4SG
f 1/1/1 2/2/2 10/3/3 9/4/4
f 2/2/2 3/5/5 11/6/6 10/3/3
f 3/5/5 4/7/7 12/8/8 11/6/6
f 4/7/7 5/9/9 13/89/10 12/8/8
f 5/90/9 6/11/11 14/12/12 13/10/10
f 6/11/11 7/13/13 15/14/14 14/12/12
f 7/13/13 8/15/15 16/16/16 15/14/14
f 8/15/15 1/1/1 9/4/4 16/16/16
f 9/4/4 10/3/3 18/17/17 17/18/18
f 10/3/3 11/6/6 19/19/19 18/17/17
f 11/6/6 12/8/8 20/20/20 19/19/19
f 12/8/8 13/89/10 21/88/21 20/20/20
f 13/10/10 14/12/12 22/22/22 21/21/21
f 14/12/12 15/14/14 23/23/23 22/22/22
f 15/14/14 16/16/16 24/24/24 23/23/23
f 16/16/16 9/4/4 17/18/18 24/24/24
f 17/18/18 18/17/17 26/99/25 25/91/26
f 18/17/17 19/19/19 27/98/27 26/99/25
f 19/19/19 20/20/20 28/97/28 27/98/27
f 20/20/20 21/88/21 29/87/29 28/97/28
f 21/21/21 22/22/22 30/94/30 29/95/29
f 22/22/22 23/23/23 31/93/31 30/94/30
f 23/23/23 24/24/24 32/92/32 31/93/31
f 24/24/24 17/18/18 25/91/26 32/92/32
f 25/26/26 26/25/25 34/33/33 33/34/34
f 26/25/25 27/27/27 35/35/35 34/33/33
f 27/27/27 28/28/28 36/36/36 35/35/35
f 28/28/28 29/96/29 37/86/37 36/36/36
f 29/29/29 30/30/30 38/38/38 37/37/37
f 30/30/30 31/31/31 39/39/39 38/38/38
f 31/31/31 32/32/32 40/40/40 39/39/39
f 32/32/32 25/26/26 33/34/34 40/40/40
f 33/34/34 34/33/33 42/41/41 41/42/42
f 34/33/33 35/35/35 43/43/43 42/41/41
f 35/35/35 36/36/36 44/44/44 43/43/43
f 36/36/36 37/86/37 45/85/45 44/44/44
f 37/37/37 38/38/38 46/46/46 45/45/45
f 38/38/38 39/39/39 47/47/47 46/46/46
f 39/39/39 40/40/40 48/48/48 47/47/47
f 40/40/40 33/34/34 41/42/42 48/48/48
f 41/42/42 42/41/41 50/49/49 49/50/50
f 42/41/41 43/43/43 51/51/51 50/49/49
f 43/43/43 44/44/44 52/52/52 51/51/51
f 44/44/44 45/85/45 53/83/53 52/52/52
f 45/45/45 46/46/46 54/54/54 53/53/53
f 46/46/46 47/47/47 55/55/55 54/54/54
f 47/47/47 48/48/48 56/56/56 55/55/55
f 48/48/48 41/42/42 49/50/50 56/56/56
f 49/50/50 50/49/49 58/57/57 57/58/58
f 50/49/49 51/51/51 59/59/59 58/57/57
f 51/51/51 52/52/52 60/60/60 59/59/59
f 52/52/52 53/83/53 61/84/61 60/60/60
f 53/53/53 54/54/54 62/62/62 61/61/61
f 54/54/54 55/55/55 63/63/63 62/62/62
f 55/55/55 56/56/56 64/64/64 63/63/63
f 56/56/56 49/50/50 57/58/58 64/64/64
s 2
f 2/73/65 65/75/66 3/76/67
s 3
f 63/74/68 66/72/69 62/71/70
s 2
f 4/77/71 65/75/66 5/78/72
f 65/75/66 8/79/73 7/80/74
f 5/78/72 65/75/66 6/81/75
f 3/76/67 65/75/66 4/77/71
f 65/75/66 1/82/76 8/79/73
f 2/73/65 1/82/76 65/75/66
f 6/81/75 65/75/66 7/80/74
s 3
f 64/70/77 66/72/69 63/74/68
f 57/69/78 58/68/79 66/72/69
f 61/67/80 66/72/69 60/66/81
f 57/69/78 66/72/69 64/70/77
f 60/66/81 66/72/69 59/65/82
f 66/72/69 58/68/79 59/65/82
f 62/71/70 66/72/69 61/67/80
s off
f 67/100/83 68/101/84 80/102/85 79/103/86
f 68/101/87 69/104/88 81/105/89 80/102/90
f 69/106/91 70/107/92 82/108/93 81/109/94
f 70/107/95 71/110/96 83/111/97 82/108/98
f 71/110/99 72/112/100 84/113/101 83/111/102
f 72/112/103 73/114/104 85/115/105 84/113/106
f 73/114/107 74/116/108 86/117/109 85/115/110
f 74/116/111 75/118/112 87/119/113 86/117/114
f 75/118/115 76/120/116 88/121/117 87/119/118
f 76/120/119 77/122/120 89/123/121 88/121/122
f 77/122/123 78/124/124 90/125/125 89/123/126
f 78/124/127 67/100/128 79/103/129 90/125/130
s 6
f 100/126/131 92/127/132 105/128/133 107/129/134
f 120/130/135 115/131/136 124/132/137 127/133/138
f 106/134/139 101/135/140 126/136/141 125/137/142
f 114/138/143 116/139/144 91/140/145 96/141/146
f 91/140/145 95/142/147 97/143/148 96/141/146
f 95/142/147 94/144/149 98/145/150 97/143/148
f 94/144/149 93/146/151 99/147/152 98/145/150
f 93/146/151 92/127/132 100/126/131 99/147/152
f 105/148/133 104/149/153 108/150/154 107/151/134
f 104/149/153 103/152/155 109/153/156 108/150/154
f 103/152/155 102/154/157 110/155/158 109/153/156
f 102/154/157 101/135/140 106/134/139 110/155/158
f 114/138/143 113/156/159 117/157/160 116/139/144
f 113/156/159 112/158/161 118/159/162 117/157/160
f 112/158/161 111/160/163 119/161/164 118/159/162
f 111/160/163 115/162/136 120/163/135 119/161/164
f 124/132/137 123/164/165 128/165/166 127/133/138
f 123/164/165 122/166/167 129/167/168 128/165/166
f 122/166/167 121/168/169 130/169/170 129/167/168
f 121/168/169 125/137/142 126/136/141 130/169/170
s 10
f 91/170/171 101/171/172 102/172/173 95/173/174
f 126/174/175 101/171/172 91/170/171 116/175/176
f 94/176/177 103/177/178 104/178/179 93/179/180
f 95/173/174 102/172/173 103/177/178 94/176/177
f 93/179/180 104/178/179 105/180/181 92/181/182
f 130/182/183 117/183/184 118/184/185 129/185/186
f 126/174/175 116/175/176 117/183/184 130/182/183
f 128/186/187 119/187/188 120/188/189 127/189/190
f 129/185/186 118/184/185 119/187/188 128/186/187
s off
f 131/190/191 132/191/192 144/192/193 143/193/194
f 132/191/195 133/194/196 145/195/197 144/192/198
f 133/196/199 134/197/200 146/198/201 145/199/202
f 134/197/203 135/200/204 147/201/205 146/198/206
f 135/200/207 136/202/208 148/203/209 147/201/210
f 136/202/211 137/204/212 149/205/213 148/203/214
f 137/204/215 138/206/216 150/207/217 149/205/218
f 138/206/219 139/208/220 151/209/221 150/207/222
f 139/208/223 140/210/224 152/211/225 151/209/226
f 140/210/227 141/212/228 153/213/229 152/211/230
f 141/212/231 142/214/232 154/215/233 153/213/234
f 142/214/235 131/190/236 143/193/237 154/215/238
s 11
f 164/216/239 156/217/240 169/218/241 171/219/242
f 184/220/243 179/221/244 188/222/245 191/223/246
f 170/224/247 165/225/248 190/226/249 189/227/250
f 178/228/251 180/229/252 155/230/253 160/231/254
f 155/230/253 159/232/255 161/233/256 160/231/254
f 159/232/255 158/234/257 162/235/258 161/233/256
f 158/234/257 157/236/259 163/237/260 162/235/258
f 157/236/259 156/217/240 164/216/239 163/237/260
f 169/238/241 168/239/261 172/240/262 171/241/242
f 168/239/261 167/242/263 173/243/264 172/240/262
f 167/242/263 166/244/265 174/245/266 173/243/264
f 166/244/265 165/225/248 170/224/247 174/245/266
f 178/228/251 177/246/267 181/247/268 180/229/252
f 177/246/267 176/248/269 182/249/270 181/247/268
f 176/248/269 175/250/271 183/251/272 182/249/270
f 175/250/271 179/252/244 184/253/243 183/251/272
f 188/222/245 187/254/273 192/255/274 191/223/246
f 187/254/273 186/256/275 193/257/276 192/255/274
f 186/256/275 185/258/277 194/259/278 193/257/276
f 185/258/277 189/227/250 190/226/249 194/259/278
s 15
f 170/260/279 160/261/280 161/262/281 174/263/282
s 16
f 190/264/283 180/265/284 181/266/285 194/267/286
s 15
f 185/268/287 186/269/288 176/270/289 177/271/290
f 185/268/287 177/271/290 178/272/291 189/273/292
f 175/274/293 187/275/294 188/276/295 179/277/296
f 176/270/289 186/269/288 187/275/294 175/274/293
s 16
f 190/264/283 165/278/297 155/279/298 180/265/284
f 193/280/299 182/281/300 183/282/301 192/283/302
f 194/267/286 181/266/285 182/281/300 193/280/299
f 192/283/302 183/282/301 184/284/303 191/285/304
f 155/279/298 165/278/297 166/286/305 159/287/306
f 158/288/307 167/289/308 168/290/309 157/291/310
f 159/287/306 166/286/305 167/289/308 158/288/307
f 157/291/310 168/290/309 169/292/311 156/293/312
s 15
f 189/273/292 178/272/291 160/261/280 170/260/279
f 172/294/313 163/295/314 164/296/315 171/297/316
f 174/263/282 161/262/281 162/298/317 173/299/318
f 173/299/318 162/298/317 163/295/314 172/294/313
s 19
f 195/300/319 196/301/320 204/302/321 203/303/322
f 196/301/320 197/304/323 205/305/324 204/302/321
f 197/304/323 198/306/325 206/307/326 205/305/324
f 198/306/325 199/308/327 207/309/328 206/307/326
f 199/310/327 200/311/329 208/312/330 207/313/328
f 200/311/329 201/314/331 209/315/332 208/312/330
f 201/314/331 202/316/333 210/317/334 209/315/332
f 202/316/333 195/300/319 203/303/322 210/317/334
f 203/303/322 204/302/321 212/318/335 211/319/336
f 204/302/321 205/305/324 213/320/337 212/318/335
f 205/305/324 206/307/326 214/321/338 213/320/337
f 206/307/326 207/309/328 215/322/339 214/321/338
f 207/313/328 208/312/330 216/323/340 215/324/339
f 208/312/330 209/315/332 217/325/341 216/323/340
f 209/315/332 210/317/334 218/326/342 217/325/341
f 210/317/334 203/303/322 211/319/336 218/326/342
f 211/319/336 212/318/335 220/327/343 219/328/344
f 212/318/335 213/320/337 221/329/345 220/327/343
f 213/320/337 214/321/338 222/330/346 221/329/345
f 214/321/338 215/322/339 223/331/347 222/330/346
f 215/324/339 216/323/340 224/332/348 223/333/347
f 216/323/340 217/325/341 225/334/349 224/332/348
f 217/325/341 218/326/342 226/335/350 225/334/349
f 218/326/342 211/319/336 219/328/344 226/335/350
f 219/328/344 220/327/343 228/336/351 227/337/352
f 220/327/343 221/329/345 229/338/353 228/336/351
f 221/329/345 222/330/346 230/339/354 229/338/353
f 222/330/346 223/331/347 231/340/355 230/339/354
f 223/333/347 224/332/348 232/341/356 231/342/355
f 224/332/348 225/334/349 233/343/357 232/341/356
f 225/334/349 226/335/350 234/344/358 233/343/357
f 226/335/350 219/328/344 227/337/352 234/344/358
f 227/345/352 228/346/351 236/347/359 235/348/360
f 228/346/351 229/349/353 237/350/361 236/347/359
f 229/349/353 230/351/354 238/352/362 237/350/361
f 230/351/354 231/353/355 239/354/363 238/352/362
f 231/355/355 232/356/356 240/357/364 239/358/363
f 232/356/356 233/359/357 241/360/365 240/357/364
f 233/359/357 234/361/358 242/362/366 241/360/365
f 234/361/358 227/345/352 235/348/360 242/362/366
f 235/348/360 236/347/359 244/363/367 243/364/368
f 236/347/359 237/350/361 245/365/369 244/363/367
f 237/350/361 238/352/362 246/366/370 245/365/369
f 238/352/362 239/354/363 247/367/371 246/366/370
f 239/358/363 240/357/364 248/368/372 247/369/371
f 240/357/364 241/360/365 249/370/373 248/368/372
f 241/360/365 242/362/366 250/371/374 249/370/373
f 242/362/366 235/348/360 243/364/368 250/371/374
f 243/364/368 244/363/367 252/372/375 251/373/376
f 244/363/367 245/365/369 253/374/377 252/372/375
f 245/365/369 246/366/370 254/375/378 253/374/377
f 246/366/370 247/367/371 255/376/379 254/375/378
f 247/369/371 248/368/372 256/377/380 255/378/379
f 248/368/372 249/370/373 257/379/381 256/377/380
f 249/370/373 250/371/374 258/380/382 257/379/381
f 250/371/374 243/364/368 251/373/376 258/380/382
f 251/373/376 252/372/375 260/381/383 259/382/384
f 252/372/375 253/374/377 261/383/385 260/381/383
f 253/374/377 254/375/378 262/384/386 261/383/385
f 254/375/378 255/376/379 263/385/387 262/384/386
f 255/378/379 256/377/380 264/386/388 263/387/387
f 256/377/380 257/379/381 265/388/389 264/386/388
f 257/379/381 258/380/382 266/389/390 265/388/389
f 258/380/382 251/373/376 259/382/384 266/389/390
s 20
f 264/390/391 267/391/392 263/392/393
f 267/391/392 260/393/394 261/394/395
f 265/395/396 267/391/392 264/390/391
f 266/396/397 267/391/392 265/395/396
f 259/397/398 260/393/394 267/391/392
f 263/392/393 267/391/392 262/398/399
f 259/397/398 267/391/392 266/396/397
f 262/398/399 267/391/392 261/394/395
s 22
f 268/399/400 269/400/401 277/401/402 276/402/403
f 269/400/401 270/403/404 278/404/405 277/401/402
f 270/403/404 271/405/406 279/406/407 278/404/405
f 271/405/406 272/407/408 280/408/409 279/406/407
f 272/407/408 273/409/410 281/410/411 280/408/409
f 273/409/410 274/411/412 282/412/413 281/410/411
f 274/411/412 275/413/414 283/414/415 282/412/413
f 275/413/414 268/415/400 276/416/403 283/414/415
f 276/402/403 277/401/402 285/417/416 284/418/417
f 277/401/402 278/404/405 286/419/418 285/417/416
f 278/404/405 279/406/407 287/420/419 286/419/418
f 279/406/407 280/408/409 288/421/420 287/420/419
f 280/408/409 281/410/411 289/422/421 288/421/420
f 281/410/411 282/412/413 290/423/422 289/422/421
f 282/412/413 283/414/415 291/424/423 290/423/422
f 283/414/415 276/416/403 284/425/417 291/424/423
f 284/418/417 285/417/416 293/426/424 292/427/425
f 285/417/416 286/419/418 294/428/426 293/426/424
f 286/419/418 287/420/419 295/429/427 294/428/426
f 287/420/419 288/421/420 296/430/428 295/429/427
f 288/421/420 289/422/421 297/431/429 296/430/428
f 289/422/421 290/423/422 298/432/430 297/431/429
f 290/423/422 291/424/423 299/433/431 298/432/430
f 291/424/423 284/425/417 292/434/425 299/433/431
f 292/427/425 293/426/424 301/435/432 300/436/433
f 293/426/424 294/428/426 302/437/434 301/435/432
f 294/428/426 295/429/427 303/438/435 302/437/434
f 295/429/427 296/430/428 304/439/436 303/438/435
f 296/430/428 297/431/429 305/440/437 304/439/436
f 297/431/429 298/432/430 306/441/438 305/440/437
f 298/432/430 299/433/431 307/442/439 306/441/438
f 299/433/431 292/434/425 300/443/433 307/442/439
f 300/436/433 301/435/432 309/444/440 308/445/441
f 301/435/432 302/437/434 310/446/442 309/444/440
f 302/437/434 303/438/435 311/447/443 310/446/442
f 303/438/435 304/439/436 312/448/444 311/447/443
f 304/439/436 305/440/437 313/449/445 312/448/444
f 305/440/437 306/441/438 314/450/446 313/449/445
f 306/441/438 307/442/439 315/451/447 314/450/446
f 307/442/439 300/443/433 308/452/441 315/451/447
f 308/445/441 309/444/440 317/453/448 316/454/449
f 309/444/440 310/446/442 318/455/450 317/453/448
f 310/446/442 311/447/443 319/456/451 318/455/450
f 311/447/443 312/448/444 320/457/452 319/456/451
f 312/448/444 313/449/445 321/458/453 320/457/452
f 313/449/445 314/450/446 322/459/454 321/458/453
f 314/450/446 315/451/447 323/460/455 322/459/454
f 315/451/447 308/452/441 316/461/449 323/460/455
f 316/454/449 317/453/448 325/462/456 324/463/457
f 317/453/448 318/455/450 326/464/458 325/462/456
f 318/455/450 319/456/451 327/465/459 326/464/458
f 319/456/451 320/457/452 328/466/460 327/465/459
f 320/457/452 321/458/453 329/467/461 328/466/460
f 321/458/453 322/459/454 330/468/462 329/467/461
f 322/459/454 323/460/455 331/469/463 330/468/462
f 323/460/455 316/461/449 324/470/457 331/469/463
f 324/463/457 325/462/456 333/471/464 332/472/465
f 325/462/456 326/464/458 334/473/466 333/471/464
f 326/464/458 327/465/459 335/474/467 334/473/466
f 327/465/459 328/466/460 336/475/468 335/474/467
f 328/466/460 329/467/461 337/476/469 336/475/468
f 329/467/461 330/468/462 338/477/470 337/476/469
f 330/468/462 331/469/463 339/478/471 338/477/470
f 331/469/463 324/470/457 332/479/465 339/478/471
f 332/472/465 333/471/464 341/480/472 340/481/473
f 333/471/464 334/473/466 342/482/474 341/480/472
f 334/473/466 335/474/467 343/483/475 342/482/474
f 335/474/467 336/475/468 344/484/476 343/483/475
f 336/475/468 337/476/469 345/485/477 344/484/476
f 337/476/469 338/477/470 346/486/478 345/485/477
f 338/477/470 339/478/471 347/487/479 346/486/478
f 339/478/471 332/479/465 340/488/473 347/487/479
s 23
f 274/489/480 348/490/481 275/491/482
s 24
f 340/492/483 341/493/484 349/494/485
s 23
f 269/495/486 268/496/487 348/490/481
f 273/497/488 348/490/481 274/489/480
f 271/498/489 348/490/481 272/499/490
f 270/500/491 348/490/481 271/498/489
f 275/491/482 348/490/481 268/496/487
f 272/499/490 348/490/481 273/497/488
f 269/495/486 348/490/481 270/500/491
s 24
f 340/492/483 349/494/485 347/501/492
f 349/494/485 342/502/493 343/503/494
f 346/504/495 349/494/485 345/505/496
f 349/494/485 343/503/494 344/506/497
f 347/501/492 349/494/485 346/504/495
f 349/494/485 341/493/484 342/502/493
f 345/505/496 349/494/485 344/506/497
s off
f 350/507/498 351/508/499 363/509/500 362/510/501
f 351/508/502 352/511/503 364/512/504 363/509/505
f 352/511/506 353/513/507 365/514/508 364/512/509
f 353/513/510 354/515/511 366/516/512 365/514/513
f 354/515/514 355/517/515 367/518/516 366/516/517
f 355/517/518 356/519/519 368/520/520 367/518/521
f 356/519/522 357/521/523 369/522/524 368/520/525
f 357/521/526 358/523/527 370/524/528 369/522/529
f 358/525/530 359/526/531 371/527/532 370/528/533
f 359/526/534 360/529/535 372/530/536 371/527/537
f 360/529/538 361/531/539 373/532/540 372/530/541
f 361/531/542 350/507/543 362/510/544 373/532/545
f 374/533/546 375/534/547 387/535/548 386/536/549
f 375/534/550 376/537/551 388/538/552 387/535/553
f 376/537/554 377/539/555 389/540/556 388/538/557
f 377/539/558 378/541/559 390/542/560 389/540/561
f 378/541/562 379/543/563 391/544/564 390/542/565
f 379/543/566 380/545/567 392/546/568 391/544/569
f 380/545/570 381/547/571 393/548/572 392/546/573
f 381/547/574 382/549/575 394/550/576 393/548/577
f 382/551/578 383/552/579 395/553/580 394/554/581
f 383/552/582 384/555/583 396/556/584 395/553/585
f 384/555/586 385/557/587 397/558/588 396/556/589
f 385/557/590 374/533/591 386/536/592 397/558/593
f 398/559/594 399/560/595 411/561/596 410/562/597
f 399/560/598 400/563/599 412/564/600 411/561/601
f 400/563/602 401/565/603 413/566/604 412/564/605
f 401/565/606 402/567/607 414/568/608 413/566/609
f 402/567/610 403/569/611 415/570/612 414/568/613
f 403/569/614 404/571/615 416/572/616 415/570/617
f 404/571/618 405/573/619 417/574/620 416/572/621
f 405/573/622 406/575/623 418/576/624 417/574/625
f 406/577/626 407/578/627 419/579/628 418/580/629
f 407/578/630 408/581/631 420/582/632 419/579/633
f 408/581/634 409/583/635 421/584/636 420/582/637
f 409/583/638 398/559/639 410/562/640 421/584/641
