# This file uses centimeters as units for non-parametric coordinates.

mtllib S_P12_01_LP.mtl
g default
v -30.642965 -27.284014 -2.476648
v -30.642965 27.475512 -2.476648
v -27.601080 -30.325869 2.476645
v 27.158447 -30.325869 2.476648
v -27.601076 -30.325869 -2.476644
v 27.158447 -30.325869 -2.476644
v 30.200335 -27.284012 -2.476644
v 30.200335 27.475512 -2.476644
v -30.642962 -27.284012 2.476648
v -30.642962 27.475512 2.476648
v -27.601076 30.517630 2.476648
v 27.158447 30.517630 2.476648
v 30.200335 -27.284012 2.476648
v 30.200335 27.475512 2.476648
v -27.601076 30.517630 -2.476644
v 27.158447 30.517630 -2.476644
v -29.751993 -29.434929 2.476648
v -29.751993 -29.434929 -2.476644
v 29.309423 -29.434929 2.476648
v 29.309423 -29.434929 -2.476644
v -29.751993 29.626547 2.476648
v -29.751993 29.626547 -2.476644
v 29.309423 29.626547 2.476648
v 29.309423 29.626547 -2.476644
vt 0.392232 0.955785
vt 0.392232 0.924632
vt 0.736630 0.924632
vt 0.736630 0.955785
vt 0.736630 0.964941
vt 0.736630 0.996094
vt 0.392232 0.996094
vt 0.392232 0.964941
vt 0.377590 0.955785
vt 0.377590 0.924632
vt 0.362947 0.955785
vt 0.362947 0.924632
vt 0.751272 0.964941
vt 0.751272 0.924633
vt 0.362947 0.964941
vt 0.377590 0.964941
vt 0.377590 0.996094
vt 0.362947 0.996094
vt 0.018549 0.996094
vt 0.018549 0.964941
vt 0.018549 0.924632
vt 0.018549 0.955785
vt 0.003906 0.996094
vt 0.003906 0.955785
vt 0.023037 0.395724
vt 0.009510 0.401328
vt 0.380964 0.401328
vt 0.367435 0.395724
vt 0.003906 0.759253
vt 0.386567 0.759253
vt 0.386567 0.023037
vt 0.003906 0.023038
vt 0.009509 0.009510
vt 0.380963 0.009510
vt 0.386567 0.367435
vt 0.380964 0.380964
vt 0.009510 0.380964
vt 0.003907 0.367436
vt 0.023038 0.003907
vt 0.367435 0.003906
vt 0.367436 0.386568
vt 0.023038 0.386568
vt 0.009510 0.772782
vt 0.380964 0.772782
vt 0.367435 0.778386
vt 0.023038 0.778386
vt 0.003906 0.414855
vt 0.386567 0.414855
vt 0.003906 0.924632
vt 0.003906 0.964941
vt 0.751272 0.955785
vt 0.751272 0.996094
vn 0.000000 -1.000000 -0.000000
vn 0.000000 -1.000000 -0.000000
vn 0.000000 -1.000000 -0.000000
vn 0.000000 -1.000000 -0.000000
vn 1.000000 0.000000 0.000000
vn 1.000000 0.000000 0.000000
vn 1.000000 0.000000 0.000000
vn 1.000000 0.000000 0.000000
vn -0.382684 -0.923879 -0.000000
vn -0.382684 -0.923879 -0.000000
vn -0.382684 -0.923879 -0.000000
vn -0.382684 -0.923879 -0.000000
vn -0.923874 -0.382696 0.000000
vn -0.923874 -0.382696 0.000000
vn -0.923874 -0.382696 0.000000
vn -0.923874 -0.382696 0.000000
vn 0.923884 -0.382674 0.000000
vn 0.923884 -0.382674 0.000000
vn 0.923884 -0.382674 0.000000
vn 0.923884 -0.382674 0.000000
vn 0.382675 -0.923883 0.000000
vn 0.382675 -0.923883 0.000000
vn 0.382675 -0.923883 0.000000
vn 0.382675 -0.923883 0.000000
vn 0.382727 0.923862 0.000000
vn 0.382727 0.923862 0.000000
vn 0.382727 0.923862 0.000000
vn 0.382727 0.923862 0.000000
vn 0.923891 0.382656 0.000000
vn 0.923891 0.382656 0.000000
vn 0.923891 0.382656 0.000000
vn 0.923891 0.382656 0.000000
vn 0.000000 1.000000 0.000000
vn 0.000000 1.000000 0.000000
vn 0.000000 1.000000 0.000000
vn 0.000000 1.000000 0.000000
vn -1.000000 0.000000 0.000001
vn -1.000000 0.000000 0.000001
vn -1.000000 0.000000 0.000001
vn -1.000000 0.000000 0.000001
vn -0.382736 0.923858 0.000000
vn -0.382736 0.923858 0.000000
vn -0.382736 0.923858 0.000000
vn -0.382736 0.923858 0.000000
vn -0.923882 0.382678 0.000000
vn -0.923882 0.382678 0.000000
vn -0.923882 0.382678 0.000000
vn -0.923882 0.382678 0.000000
vn 0.000000 -0.000000 -1.000000
vn 0.000000 -0.000000 -1.000000
vn 0.000000 -0.000001 -1.000000
vn 0.000000 -0.000001 -1.000000
vn 0.000000 0.000000 1.000000
vn 0.000000 0.000000 1.000000
vn 0.000000 0.000000 1.000000
vn 0.000000 0.000000 1.000000
vn 0.000000 0.000000 1.000000
vn 0.000000 0.000000 1.000000
vn 0.000000 0.000000 1.000000
vn 0.000000 0.000000 1.000000
vn -0.000000 -0.000002 1.000000
vn -0.000000 -0.000000 1.000000
vn -0.000000 -0.000000 1.000000
vn -0.000000 -0.000002 1.000000
vn 0.000000 0.000000 -1.000000
vn 0.000000 0.000001 -1.000000
vn 0.000000 0.000001 -1.000000
vn 0.000000 0.000000 -1.000000
vn 0.000000 0.000000 -1.000000
vn 0.000000 0.000000 -1.000000
vn 0.000000 0.000000 -1.000000
vn 0.000000 0.000000 -1.000000
s off
g S_P12_01_01_low S_P12_01_low
usemtl set2
f 3/1/1 5/2/2 6/3/3 4/4/4
f 13/5/5 7/6/6 8/7/7 14/8/8
f 3/1/9 17/9/10 18/10/11 5/2/12
f 17/9/13 9/11/14 1/12/15 18/10/16
f 13/5/17 19/13/18 20/52/19 7/6/20
f 19/51/21 4/4/22 6/3/23 20/14/24
f 12/15/25 23/16/26 24/17/27 16/18/28
f 23/16/29 14/8/30 8/7/31 24/17/32
f 15/19/33 11/20/34 12/15/35 16/18/36
f 2/21/37 1/12/38 9/11/39 10/22/40
f 22/23/41 21/50/42 11/20/43 15/19/44
f 2/21/45 10/22/46 21/24/47 22/49/48
s 1
f 1/31/49 7/32/50 20/33/51 18/34/52
s 2
f 21/43/53 23/44/54 12/45/55 11/46/56
f 9/47/57 13/48/58 14/30/59 10/29/60
f 10/29/60 14/30/59 23/44/54 21/43/53
f 4/28/61 19/27/62 17/26/63 3/25/64
f 17/26/63 19/27/62 13/48/58 9/47/57
s 1
f 2/35/65 22/36/66 24/37/67 8/38/68
f 18/34/52 20/33/51 6/39/69 5/40/70
f 2/35/65 8/38/68 7/32/50 1/31/49
f 24/37/67 22/36/66 15/41/71 16/42/72
g default
v -23.989735 28.417311 -4.652017
v 11.508493 29.527208 -4.652017
v 11.183439 28.742422 -4.652017
v 10.398597 28.417311 -4.652017
v 10.398597 28.417311 4.652017
v 11.183439 28.742422 4.652017
v 11.508493 29.527208 4.652017
v -23.989735 28.417311 4.652017
v -28.542990 -14.720100 -4.652026
v -28.868046 -15.504913 -4.652026
v -29.652828 -15.829996 -4.652026
v -28.542990 23.923414 -4.652024
v -28.542990 23.923414 4.652017
v -29.652828 -15.829996 4.652017
v -28.868046 -15.504913 4.652017
v -28.542990 -14.720100 4.652017
v -26.266335 26.170362 -4.652020
v -26.266335 26.170362 4.652017
v 11.183439 31.792376 4.652017
v 10.398597 32.117546 4.652017
v 11.508493 31.007647 4.652017
v -25.508125 32.117546 4.652017
v 10.398597 32.117546 -4.652017
v 11.183439 31.792376 -4.652017
v 11.508493 31.007647 -4.652017
v -25.508125 32.117546 -4.652017
v -31.133097 -15.829996 -4.652026
v -31.917879 -15.504913 -4.652026
v -32.242992 -14.720100 -4.652026
v -32.242992 -14.720100 4.652017
v -31.917879 -15.504913 4.652017
v -31.133097 -15.829996 4.652017
v -32.242992 25.470293 4.652017
v -32.242992 25.470293 -4.652024
v -28.087149 31.177660 4.652017
v -31.370825 27.884878 -4.652022
v -31.370825 27.884878 4.652017
v -28.087149 31.177660 -4.652019
v -30.094919 29.896128 4.652017
v -30.094919 29.896128 -4.652020
vt 0.292659 0.913729
vt 0.287316 0.913729
vt 0.287316 0.855214
vt 0.292659 0.855214
vt 0.281974 0.913729
vt 0.281974 0.855214
vt 0.277749 0.846058
vt 0.272406 0.846058
vt 0.272406 0.787542
vt 0.277749 0.787542
vt 0.267064 0.846058
vt 0.267064 0.787542
vt 0.261978 0.855214
vt 0.267321 0.855214
vt 0.267321 0.913729
vt 0.261978 0.913729
vt 0.272663 0.855214
vt 0.272663 0.913729
vt 0.297744 0.846058
vt 0.292401 0.846058
vt 0.292401 0.787542
vt 0.297744 0.787542
vt 0.287059 0.846058
vt 0.287059 0.787542
vt 0.036150 0.913729
vt 0.036150 0.855214
vt 0.550512 0.787542
vt 0.550512 0.846058
vt 0.018887 0.913729
vt 0.018887 0.855214
vt 0.508937 0.913729
vt 0.508937 0.855214
vt 0.024024 0.846058
vt 0.024024 0.787542
vt 0.003906 0.846058
vt 0.529054 0.855214
vt 0.566659 0.787542
vt 0.566659 0.846058
vt 0.581639 0.787542
vt 0.003906 0.913729
vt 0.397612 0.010886
vt 0.397611 0.020196
vt 0.682838 0.279111
vt 0.692149 0.279112
vt 0.670732 0.335846
vt 0.670732 0.316664
vt 0.672776 0.321599
vt 0.672776 0.330910
vt 0.665796 0.314619
vt 0.665796 0.337891
vt 0.439968 0.337891
vt 0.449518 0.314619
vt 0.420881 0.286356
vt 0.397611 0.296084
vt 0.397611 0.043316
vt 0.420881 0.043316
vt 0.423748 0.331980
vt 0.435200 0.300487
vt 0.411121 0.323920
vt 0.403096 0.311270
vt 0.399656 0.038380
vt 0.418837 0.038380
vt 0.404591 0.036335
vt 0.413901 0.036335
vt 0.404593 0.003906
vt 0.404590 0.027177
vt 0.399655 0.025132
vt 0.399657 0.005950
vt 0.693254 0.030084
vt 0.661760 0.041531
vt 0.685195 0.017456
vt 0.675889 0.055852
vt 0.699162 0.046305
vt 0.699131 0.272133
vt 0.675859 0.272129
vt 0.672547 0.009429
vt 0.647630 0.027211
vt 0.657362 0.003942
vt 0.697085 0.277068
vt 0.677903 0.277066
vt 0.003906 0.787542
vt 0.529054 0.913729
vt 0.003906 0.855214
vt 0.581639 0.846058
vn 0.008961 -0.999115 -0.041092
vn 0.379490 -0.924788 -0.027485
vn 0.379490 -0.924787 0.027485
vn 0.008961 -0.999115 0.041092
vn 0.924801 -0.379458 -0.027482
vn 0.989639 -0.138760 -0.036894
vn 0.989639 -0.138760 0.036894
vn 0.924801 -0.379458 0.027482
vn 0.138782 -0.989635 -0.036897
vn 0.379486 -0.924789 -0.027484
vn 0.379486 -0.924789 0.027484
vn 0.138782 -0.989635 0.036897
vn 0.924805 -0.379447 -0.027482
vn 0.999123 -0.007992 -0.041106
vn 0.999123 -0.007992 0.041106
vn 0.924805 -0.379447 0.027482
vn 0.008594 0.999122 0.041010
vn 0.379544 0.924765 0.027485
vn 0.379544 0.924765 -0.027485
vn 0.008594 0.999122 -0.041010
vn 0.924791 0.379481 0.027483
vn 0.989638 0.138763 0.036894
vn 0.989638 0.138763 -0.036894
vn 0.924791 0.379481 -0.027483
vn -0.999128 -0.007694 -0.041032
vn -0.924784 -0.379500 -0.027482
vn -0.924784 -0.379500 0.027482
vn -0.999128 -0.007694 0.041032
vn -0.379485 -0.924790 -0.027484
vn -0.138782 -0.989635 -0.036896
vn -0.138782 -0.989635 0.036896
vn -0.379485 -0.924790 0.027484
vn -0.024358 0.998868 -0.040853
vn -0.024358 0.998868 0.040853
vn 0.008594 0.999122 0.041010
vn 0.008594 0.999122 -0.041010
vn -0.999128 -0.007694 -0.041032
vn -0.999128 -0.007694 0.041032
vn -0.998957 0.020417 0.040832
vn -0.998957 0.020417 -0.040832
vn -0.435493 0.899282 -0.040468
vn -0.435493 0.899282 0.040467
vn -0.024358 0.998868 0.040853
vn -0.024358 0.998868 -0.040853
vn 0.000000 -0.999094 -0.042567
vn 0.008961 -0.999115 -0.041092
vn 0.008961 -0.999115 0.041092
vn -0.000000 -0.999094 0.042567
vn 0.999123 -0.007992 -0.041106
vn 0.999093 0.000000 -0.042575
vn 0.999093 0.000000 0.042575
vn 0.999123 -0.007992 0.041106
vn 0.701831 -0.711101 -0.042054
vn 0.701799 -0.711059 -0.043282
vn 0.701799 -0.711059 0.043282
vn 0.701831 -0.711101 0.042054
vn 0.989639 -0.138760 0.036894
vn 0.989639 -0.138760 -0.036894
vn 0.989638 0.138763 -0.036894
vn 0.989638 0.138763 0.036894
vn 0.138782 -0.989635 -0.036897
vn 0.138782 -0.989635 0.036897
vn -0.138782 -0.989635 0.036896
vn -0.138782 -0.989635 -0.036896
vn 0.701788 -0.711067 -0.043314
vn 0.701831 -0.711101 -0.042054
vn 0.701831 -0.711101 0.042054
vn 0.701788 -0.711067 0.043314
vn -0.998957 0.020417 -0.040832
vn -0.998957 0.020417 0.040832
vn -0.898912 0.436258 0.040444
vn -0.898913 0.436257 -0.040444
vn -0.898912 0.436258 0.040444
vn -0.707497 0.705540 0.040753
vn -0.707497 0.705540 -0.040753
vn -0.898913 0.436257 -0.040444
vn -0.707497 0.705540 0.040753
vn -0.435493 0.899282 0.040467
vn -0.435493 0.899282 -0.040468
vn -0.707497 0.705540 -0.040753
vn -0.000000 0.000000 -1.000000
vn -0.000000 0.000000 -1.000000
vn 0.000000 0.000000 -1.000000
vn 0.000000 0.000000 -1.000000
vn 0.000000 0.000000 1.000000
vn 0.000000 0.000000 1.000000
vn 0.000000 0.000000 1.000000
vn 0.000000 0.000000 1.000000
vn 0.000001 0.000000 -1.000000
vn 0.000001 0.000001 -1.000000
vn 0.000001 0.000001 -1.000000
vn 0.000000 0.000000 -1.000000
vn 0.000000 0.000000 -1.000000
vn -0.000000 0.000000 -1.000000
vn -0.000000 0.000000 -1.000000
vn 0.000001 0.000001 -1.000000
vn -0.000000 0.000000 -1.000000
vn -0.000000 0.000000 -1.000000
vn -0.000000 0.000000 -1.000000
vn -0.000000 0.000000 -1.000000
vn 0.000000 0.000000 -1.000000
vn 0.000000 0.000000 -1.000000
vn 0.000000 0.000000 1.000000
vn 0.000000 0.000000 1.000000
vn -0.000000 0.000000 1.000000
vn -0.000000 0.000000 1.000000
vn -0.000000 0.000000 1.000000
vn -0.000000 0.000000 1.000000
vn -0.000000 0.000000 1.000000
vn -0.000000 0.000000 1.000000
vn -0.000000 0.000000 1.000000
vn -0.000000 0.000000 1.000000
vn 0.000000 0.000000 1.000000
vn -0.000000 0.000000 1.000000
vn 0.000000 0.000000 1.000000
vn 0.000000 0.000000 1.000000
vn 0.000000 0.000000 1.000000
vn 0.000000 0.000000 1.000000
vn 0.000000 0.000000 -1.000000
vn 0.000000 0.000000 -1.000000
s off
g S_P12_01_low S_P12_01_02_low
usemtl set2
f 28/53/73 27/54/74 30/55/75 29/56/76
f 27/54/77 26/57/78 31/58/79 30/55/80
f 35/59/81 34/60/82 39/61/83 38/62/84
f 34/60/85 33/63/86 40/64/87 39/61/88
f 44/65/89 43/66/90 48/67/91 47/68/92
f 43/66/93 45/69/94 49/70/95 48/67/96
f 53/71/97 52/72/98 55/73/99 54/74/100
f 52/72/101 51/75/102 56/76/103 55/73/104
f 50/77/105 46/78/106 44/65/107 47/68/108
f 53/71/109 54/74/110 57/79/111 58/80/112
f 62/81/113 59/82/114 46/78/115 50/77/116
f 25/83/117 28/53/118 29/56/119 32/84/120
f 33/63/121 36/85/122 37/86/123 40/64/124
f 41/134/125 25/83/126 32/84/127 42/88/128
f 31/58/129 26/57/130 49/70/131 45/69/132
f 35/59/133 38/62/134 56/76/135 51/75/136
f 36/85/137 41/87/138 42/133/139 37/86/140
f 58/80/141 57/79/142 61/89/143 60/90/144
f 61/89/145 63/91/146 64/136/147 60/90/148
f 63/135/149 59/82/150 62/81/151 64/92/152
s 1
f 53/117/153 33/118/154 34/119/155 52/120/156
s 2
f 43/97/157 30/98/158 31/99/159 45/100/160
s 1
f 62/121/161 41/122/162 64/123/163
f 25/124/164 50/125/165 47/126/166 28/127/167
f 60/128/168 41/122/162 36/129/169 58/130/170
f 64/123/163 41/122/162 60/128/168
f 25/124/164 41/122/162 62/121/161 50/125/165
f 28/127/167 47/126/166 48/131/171 27/132/172
f 27/132/172 48/131/171 49/96/173 26/95/174
s 2
f 29/101/175 44/102/176 46/103/177 32/104/178
f 29/101/175 30/98/158 43/97/157 44/102/176
f 37/105/179 57/106/180 54/107/181 40/108/182
f 32/104/178 46/103/177 59/109/183 42/110/184
f 42/110/184 63/111/185 61/112/186
f 42/110/184 61/112/186 57/106/180 37/105/179
f 42/110/184 59/109/183 63/111/185
f 40/108/182 54/107/181 55/113/187 39/114/188
f 39/114/188 55/113/187 56/115/189 38/116/190
s 1
f 58/130/170 36/129/169 33/118/154 53/117/153
f 52/120/156 34/119/155 35/94/191 51/93/192
g default
v 24.697506 -26.932796 -4.790923
v -0.930375 -26.932796 -4.790923
v 27.236897 -24.393461 4.790924
v 27.236897 10.810408 4.790924
v 26.493137 -26.189035 4.790924
v 27.236897 -24.393461 -4.790923
v 26.493137 -26.189035 -4.790923
v 24.697506 -26.932796 4.790924
v 25.711893 -32.032787 -4.790923
v -0.930375 -32.032787 -4.790923
v 32.336803 -25.407820 4.790924
v 32.336803 10.810408 4.790924
v 30.396458 -30.092415 4.790924
v 32.336803 -25.407820 -4.790923
v 30.396458 -30.092415 -4.790923
v 25.711893 -32.032787 4.790924
v -2.715215 -28.717577 -4.790923
v -2.715215 -30.248007 -4.790923
v -2.715215 -28.717577 4.790915
v -2.715215 -30.248007 4.790915
v -0.930375 -26.932796 4.790915
v 29.021622 12.595190 -4.790923
v 30.551964 12.595190 -4.790923
v 27.236897 10.810408 -4.790923
v 29.021622 12.595190 4.790924
v 30.551964 12.595190 4.790924
v -0.930375 -32.032787 4.790915
v 32.336803 10.810408 -4.790923
v -2.192412 -27.455599 -4.790923
v -2.192412 -27.455599 4.790915
v 27.759701 12.072386 -4.790923
v 27.759701 12.072386 4.790924
v -2.192412 -31.510103 4.790915
v -2.192412 -31.510103 -4.790923
v 31.814001 12.072386 -4.790923
v 31.814001 12.072386 4.790924
vt 0.746217 0.395093
vt 0.778291 0.388713
vt 0.400899 0.665668
vt 0.426397 0.665668
vt 0.418461 0.668956
vt 0.408836 0.668956
vt 0.778291 0.616500
vt 0.746216 0.616500
vt 0.614775 0.417065
vt 0.756923 0.915476
vt 0.749505 0.624436
vt 0.775003 0.624436
vt 0.767066 0.627725
vt 0.757441 0.627725
vt 0.741539 0.383800
vt 0.614775 0.391565
vt 0.766088 0.359250
vt 0.730246 0.379122
vt 0.618063 0.399503
vt 0.736625 0.347047
vt 0.756923 0.855214
vt 0.618063 0.409128
vt 0.397611 0.657731
vt 0.429686 0.657731
vt 0.569065 0.379122
vt 0.569065 0.347047
vt 0.429686 0.436324
vt 0.924483 0.855214
vt 0.924483 0.915476
vt 0.561127 0.375834
vt 0.397611 0.429944
vt 0.409814 0.400481
vt 0.561127 0.350334
vt 0.434363 0.425031
vt 0.557839 0.367897
vt 0.439277 0.388278
vt 0.445656 0.420353
vt 0.606837 0.388278
vt 0.557839 0.358272
vt 0.606837 0.420353
vt 0.851578 0.509312
vt 0.791315 0.509312
vt 0.791315 0.281526
vt 0.851578 0.281526
vt 0.851578 0.541202
vt 0.956373 0.855214
vt 0.712932 0.855214
vt 0.712932 0.915476
vt 0.551751 0.915477
vt 0.551751 0.855214
vt 0.851578 0.016130
vt 0.851578 0.237537
vt 0.791315 0.237537
vt 0.791315 0.016130
vt 0.791315 0.003906
vt 0.539528 0.915477
vt 0.730115 0.915476
vt 0.730115 0.855214
vt 0.739740 0.855214
vt 0.739740 0.915476
vt 0.791315 0.254718
vt 0.851578 0.254718
vt 0.851578 0.264343
vt 0.791315 0.264343
vt 0.721523 0.855214
vt 0.721523 0.915476
vt 0.791315 0.246128
vt 0.851578 0.246128
vt 0.748332 0.915476
vt 0.748332 0.855214
vt 0.791315 0.272934
vt 0.851578 0.272934
vt 0.539528 0.855214
vt 0.851578 0.003906
vt 0.956373 0.915476
vt 0.791315 0.541202
vn -0.018630 -0.999273 0.033266
vn -0.018630 -0.999273 -0.033266
vn 0.061724 -0.997531 -0.033511
vn 0.061724 -0.997531 0.033511
vn 0.998319 -0.047306 0.033478
vn 0.998319 -0.047306 -0.033478
vn 0.999350 0.013873 -0.033281
vn 0.999350 0.013873 0.033281
vn 0.998319 -0.047306 0.033478
vn 0.923408 -0.382473 0.032133
vn 0.923408 -0.382473 -0.032133
vn 0.998319 -0.047306 -0.033478
vn 0.382480 -0.923405 0.032134
vn 0.061724 -0.997531 0.033511
vn 0.061724 -0.997531 -0.033511
vn 0.382480 -0.923405 -0.032134
vn -0.019333 0.999257 -0.033335
vn -0.019333 0.999257 0.033335
vn -0.027189 0.999024 0.034803
vn -0.027189 0.999024 -0.034803
vn -0.999193 0.020157 0.034730
vn -0.999343 0.014257 0.033327
vn -0.999343 0.014257 -0.033327
vn -0.999193 0.020157 -0.034730
vn -0.999193 0.020157 0.034730
vn -0.999193 0.020157 -0.034730
vn -0.923259 0.382430 -0.036612
vn -0.923259 0.382430 0.036612
vn -0.382420 0.923263 0.036613
vn -0.382420 0.923263 -0.036613
vn -0.027189 0.999024 -0.034803
vn -0.027189 0.999024 0.034803
vn -0.982444 0.183720 0.032416
vn -0.982444 0.183720 -0.032416
vn -0.982445 -0.183713 -0.032416
vn -0.982445 -0.183713 0.032416
vn -0.183728 0.982442 -0.032416
vn -0.183728 0.982442 0.032416
vn 0.183720 0.982444 0.032415
vn 0.183720 0.982444 -0.032415
vn -0.019333 0.999257 -0.033335
vn -0.382534 0.923430 -0.030736
vn -0.382534 0.923430 0.030736
vn -0.019333 0.999257 0.033335
vn -0.923423 0.382551 -0.030739
vn -0.982444 0.183720 -0.032416
vn -0.982444 0.183720 0.032416
vn -0.923423 0.382551 0.030739
vn -0.183728 0.982442 -0.032416
vn -0.382564 0.923418 -0.030736
vn -0.382564 0.923418 0.030736
vn -0.183728 0.982442 0.032416
vn -0.923423 0.382551 -0.030739
vn -0.999343 0.014257 -0.033327
vn -0.999343 0.014257 0.033327
vn -0.923423 0.382551 0.030739
vn -0.018630 -0.999273 0.033266
vn -0.382463 -0.923460 0.030734
vn -0.382463 -0.923460 -0.030734
vn -0.018630 -0.999273 -0.033266
vn -0.923435 -0.382521 0.030739
vn -0.982445 -0.183713 0.032416
vn -0.982445 -0.183713 -0.032416
vn -0.923435 -0.382521 -0.030739
vn 0.999350 0.013873 -0.033281
vn 0.923424 0.382548 -0.030732
vn 0.923424 0.382548 0.030732
vn 0.999350 0.013873 0.033281
vn 0.382533 0.923431 -0.030735
vn 0.183720 0.982444 -0.032415
vn 0.183720 0.982444 0.032415
vn 0.382533 0.923431 0.030735
vn -0.000000 0.000000 1.000000
vn -0.000000 0.000000 1.000000
vn -0.000000 0.000000 1.000000
vn -0.000000 0.000000 1.000000
vn 0.000000 0.000000 -1.000000
vn 0.000000 0.000000 -1.000000
vn 0.000000 0.000000 -1.000000
vn 0.000000 0.000000 -1.000000
vn -0.000000 0.000000 -1.000000
vn -0.000000 0.000000 -1.000000
vn 0.000001 0.000000 -1.000000
vn 0.000001 0.000000 -1.000000
vn 0.000000 0.000000 -1.000000
vn 0.000000 0.000000 -1.000000
vn 0.000000 0.000000 1.000000
vn 0.000000 0.000000 1.000000
vn 0.000000 0.000000 1.000000
vn 0.000000 0.000000 1.000000
vn 0.000000 0.000000 1.000000
vn 0.000000 0.000000 1.000000
vn -0.000000 -0.000000 1.000000
vn -0.000000 -0.000000 1.000000
vn -0.000000 -0.000000 1.000000
vn -0.000000 -0.000000 1.000000
vn 0.000000 0.000000 -1.000000
vn 0.000000 0.000000 -1.000000
vn 0.000000 0.000000 -1.000000
vn -0.000000 0.000000 -1.000000
vn 0.000000 0.000000 -1.000000
vn 0.000000 0.000000 -1.000000
vn -0.000000 0.000000 -1.000000
vn -0.000000 0.000000 -1.000000
vn -0.000000 0.000000 1.000000
vn -0.000000 0.000000 1.000000
vn -0.000002 0.000000 1.000000
vn -0.000002 0.000000 1.000000
s off
g S_P12_01_low S_P12_01_03_low
usemtl set2
f 91/146/193 74/157/194 73/164/195 80/165/196
f 75/177/197 78/178/198 92/179/199 76/180/200
f 75/177/201 77/181/202 79/212/203 78/178/204
f 77/211/205 80/165/206 73/164/207 79/182/208
f 66/183/209 85/184/210 72/185/211 65/186/212
f 67/187/213 68/188/214 88/189/215 70/190/216
f 67/187/217 70/190/218 71/191/219 69/210/220
f 69/192/221 71/209/222 65/186/223 72/185/224
f 83/193/225 81/194/226 82/195/227 84/196/228
f 86/197/229 89/198/230 90/199/231 87/200/232
f 66/183/233 93/201/234 94/202/235 85/184/236
f 93/201/237 81/194/238 83/193/239 94/202/240
f 86/197/241 95/203/242 96/204/243 89/198/244
f 95/203/245 88/189/246 68/188/247 96/204/248
f 91/146/249 97/205/250 98/206/251 74/157/252
f 97/205/253 84/196/254 82/195/255 98/206/256
f 92/179/257 99/207/258 100/208/259 76/180/260
f 99/207/261 87/200/262 90/199/263 100/208/264
s 1
f 67/137/265 75/138/266 76/143/267 68/144/268
s 2
f 99/139/269 95/140/270 86/141/271 87/142/272
f 93/145/273 98/152/274 82/155/275 81/158/276
f 92/159/277 88/160/278 95/140/270 99/139/269
s 1
f 96/147/279 100/148/280 90/149/281 89/150/282
f 68/144/268 76/143/267 100/148/280 96/147/279
f 69/151/283 77/153/284 75/138/266 67/137/265
f 72/154/285 80/156/286 77/153/284 69/151/283
f 72/154/285 85/161/287 91/162/288 80/156/286
s 2
f 70/163/289 88/160/278 92/159/277 78/167/290
f 70/163/289 78/167/290 79/168/291 71/170/292
f 71/170/292 79/168/291 73/172/293 65/173/294
f 65/173/294 73/172/293 74/174/295 66/176/296
f 66/176/296 74/174/295 98/152/274 93/145/273
s 1
f 91/162/288 85/161/287 94/166/297 97/169/298
f 97/169/298 94/166/297 83/171/299 84/175/300
g default
v -6.131485 43.335556 -0.440046
v -6.121109 42.562088 -2.358526
v -6.101883 40.658615 -3.168121
v -6.085038 38.740219 -2.394583
v -6.080460 37.930618 -0.491039
v -6.090836 38.704117 1.427441
v -6.110062 40.607559 2.237036
v -6.126908 42.525955 1.463497
v -27.000626 43.172775 -0.470611
v -26.957535 42.400497 -2.389120
v -26.851517 40.499924 -3.198784
v -26.744705 38.584396 -2.425310
v -26.699661 37.775986 -0.521791
v -26.742691 38.548264 1.396717
v -26.848709 40.448837 2.206381
v -26.955521 42.364365 1.432907
v -30.881058 42.521774 -0.470611
v -30.671646 41.777176 -2.389120
v -30.156387 39.944717 -3.198784
v -29.637039 38.097855 -2.425310
v -29.417862 37.318405 -0.521791
v -29.627213 38.063004 1.396717
v -30.142532 39.895462 2.206381
v -30.661880 41.742325 1.432907
v -34.525284 41.059464 -0.470611
v -34.161697 40.376816 -2.389120
v -33.266861 38.696732 -3.198784
v -32.364944 37.003433 -2.425310
v -31.984329 36.288834 -0.521791
v -32.347916 36.971512 1.396717
v -33.242813 38.651566 2.206381
v -34.144669 40.344864 1.432907
v -37.767227 38.859818 -0.470611
v -37.268082 38.268936 -2.389120
v -36.039810 36.814743 -3.198784
v -34.801773 35.349136 -2.425310
v -34.279312 34.730606 -0.521791
v -34.778458 35.321487 1.396717
v -36.006790 36.775650 2.206381
v -37.244766 38.241287 1.432907
v -40.462906 36.084000 -0.470611
v -39.859390 35.600174 -2.389120
v -38.374222 34.409531 -3.198784
v -36.877396 33.209518 -2.425310
v -36.245682 32.703049 -0.521791
v -36.849136 33.186874 1.396717
v -38.334305 34.377518 2.206381
v -39.831192 35.577530 1.432907
v -42.576736 32.934616 -0.470611
v -41.902115 32.556290 -2.389120
v -40.241837 31.625231 -3.198784
v -38.568497 30.686846 -2.425310
v -37.862259 30.290850 -0.521791
v -38.536942 30.669146 1.396717
v -40.197220 31.600210 2.206381
v -41.870560 32.538589 1.432907
v -44.163834 29.578722 -0.470611
v -43.444656 29.294146 -2.389120
v -41.674637 28.593767 -3.198784
v -39.890762 27.887865 -2.425310
v -39.137894 27.589952 -0.521791
v -39.857071 27.874559 1.396717
v -41.627090 28.574938 2.206381
v -43.411026 29.280840 1.432907
v -45.313065 26.122667 -0.470611
v -44.567398 25.917192 -2.389120
v -42.732254 25.411547 -3.198784
v -40.882706 24.901903 -2.425310
v -40.102127 24.686815 -0.521791
v -40.847794 24.892290 1.396717
v -42.682938 25.397936 2.206381
v -44.532486 25.907579 1.432907
v -46.109512 22.626055 -0.470611
v -45.348831 22.486132 -2.389120
v -43.476700 22.141771 -3.198784
v -41.589859 21.794725 -2.425310
v -40.793533 21.648241 -0.521791
v -41.554276 21.788164 1.396717
v -43.426346 22.132524 2.206381
v -45.313248 22.479574 1.432907
v -46.397842 20.873125 -0.470611
v -45.632462 20.761583 -2.389120
v -43.748856 20.487078 -3.198784
v -41.850357 20.210375 -2.425310
v -41.049210 20.093615 -0.521791
v -41.814590 20.205156 1.396717
v -43.698196 20.479692 2.206381
v -45.596634 20.756365 1.432907
vt 0.631087 0.402691
vt 0.644156 0.402691
vt 0.657008 0.402691
vt 0.669720 0.402691
vt 0.682218 0.402691
vt 0.695170 0.402691
vt 0.707917 0.402691
vt 0.720885 0.402691
vt 0.733951 0.402691
vt 0.631087 0.535032
vt 0.644156 0.535032
vt 0.657008 0.535032
vt 0.669720 0.535032
vt 0.682218 0.535032
vt 0.695170 0.535032
vt 0.707917 0.535032
vt 0.720885 0.535032
vt 0.733951 0.535032
vt 0.644156 0.556047
vt 0.631087 0.556047
vt 0.657008 0.556047
vt 0.669720 0.556047
vt 0.682218 0.556047
vt 0.695170 0.556047
vt 0.707917 0.556047
vt 0.720885 0.556047
vt 0.733951 0.556047
vt 0.644156 0.577411
vt 0.631087 0.577411
vt 0.657008 0.577411
vt 0.669720 0.577411
vt 0.682218 0.577411
vt 0.695170 0.577411
vt 0.707917 0.577411
vt 0.720885 0.577411
vt 0.733951 0.577411
vt 0.644156 0.598502
vt 0.631087 0.598502
vt 0.657008 0.598502
vt 0.669720 0.598502
vt 0.682218 0.598502
vt 0.695170 0.598502
vt 0.707917 0.598502
vt 0.720885 0.598502
vt 0.733951 0.598502
vt 0.644156 0.619618
vt 0.631087 0.619618
vt 0.657008 0.619618
vt 0.669720 0.619618
vt 0.682218 0.619618
vt 0.695170 0.619618
vt 0.707917 0.619618
vt 0.720885 0.619618
vt 0.733951 0.619618
vt 0.644156 0.640828
vt 0.631087 0.640828
vt 0.657008 0.640828
vt 0.669720 0.640828
vt 0.682218 0.640828
vt 0.695170 0.640828
vt 0.707917 0.640828
vt 0.720885 0.640828
vt 0.733951 0.640828
vt 0.644156 0.662082
vt 0.631087 0.662082
vt 0.657008 0.662082
vt 0.669720 0.662082
vt 0.682218 0.662082
vt 0.695170 0.662082
vt 0.707917 0.662082
vt 0.720885 0.662082
vt 0.733951 0.662082
vt 0.644156 0.683391
vt 0.631087 0.683391
vt 0.657008 0.683391
vt 0.669720 0.683391
vt 0.682218 0.683391
vt 0.695170 0.683391
vt 0.707917 0.683391
vt 0.720885 0.683391
vt 0.733951 0.683391
vt 0.644156 0.704792
vt 0.631087 0.704792
vt 0.657008 0.704792
vt 0.669720 0.704792
vt 0.682218 0.704792
vt 0.695170 0.704792
vt 0.707917 0.704792
vt 0.720885 0.704792
vt 0.733951 0.704792
vt 0.644156 0.715446
vt 0.631087 0.715446
vt 0.657008 0.715446
vt 0.669720 0.715446
vt 0.682218 0.715446
vt 0.695170 0.715446
vt 0.707917 0.715446
vt 0.720885 0.715446
vt 0.733951 0.715446
vn -0.007919 0.999925 0.009382
vn -0.004593 0.714026 -0.700104
vn -0.017099 0.721687 -0.692008
vn -0.025158 0.999643 0.008964
vn -0.004593 0.714026 -0.700104
vn 0.001391 0.009891 -0.999950
vn 0.000254 0.026299 -0.999654
vn -0.017099 0.721687 -0.692008
vn 0.001391 0.009891 -0.999950
vn 0.006451 -0.700239 -0.713879
vn 0.015738 -0.691532 -0.722174
vn 0.000254 0.026299 -0.999654
vn 0.006451 -0.700239 -0.713879
vn 0.007685 -0.999925 -0.009502
vn 0.021069 -0.999729 -0.009961
vn 0.015738 -0.691532 -0.722174
vn 0.007685 -0.999925 -0.009502
vn 0.004444 -0.713674 0.700464
vn 0.014212 -0.705633 0.708435
vn 0.021069 -0.999729 -0.009961
vn 0.004444 -0.713674 0.700464
vn -0.001437 -0.009063 0.999958
vn -0.001797 0.007254 0.999972
vn 0.014212 -0.705633 0.708435
vn -0.001437 -0.009063 0.999958
vn -0.006584 0.700707 0.713419
vn -0.018480 0.708897 0.705070
vn -0.001797 0.007254 0.999972
vn -0.006584 0.700707 0.713419
vn -0.007919 0.999925 0.009382
vn -0.025158 0.999643 0.008964
vn -0.018480 0.708897 0.705070
vn -0.025158 0.999643 0.008964
vn -0.017099 0.721687 -0.692008
vn -0.197993 0.703897 -0.682149
vn -0.270764 0.962602 0.009137
vn -0.017099 0.721687 -0.692008
vn 0.000254 0.026299 -0.999654
vn -0.012909 0.045882 -0.998864
vn -0.197993 0.703897 -0.682149
vn 0.000254 0.026299 -0.999654
vn 0.015738 -0.691532 -0.722174
vn 0.183889 -0.653783 -0.733998
vn -0.012909 0.045882 -0.998864
vn 0.015738 -0.691532 -0.722174
vn 0.021069 -0.999729 -0.009961
vn 0.270748 -0.962600 -0.009875
vn 0.183889 -0.653783 -0.733998
vn 0.021069 -0.999729 -0.009961
vn 0.014212 -0.705633 0.708435
vn 0.187717 -0.667393 0.720659
vn 0.270748 -0.962600 -0.009875
vn 0.014212 -0.705633 0.708435
vn -0.001797 0.007254 0.999972
vn -0.007806 0.027744 0.999585
vn 0.187717 -0.667393 0.720659
vn -0.001797 0.007254 0.999972
vn -0.018480 0.708897 0.705070
vn -0.194558 0.691672 0.695512
vn -0.007806 0.027744 0.999585
vn -0.018480 0.708897 0.705070
vn -0.025158 0.999643 0.008964
vn -0.270764 0.962602 0.009137
vn -0.194558 0.691672 0.695512
vn -0.270764 0.962602 0.009137
vn -0.197993 0.703897 -0.682149
vn -0.343693 0.645499 -0.682060
vn -0.469953 0.882644 0.009145
vn -0.197993 0.703897 -0.682149
vn -0.012909 0.045882 -0.998864
vn -0.022492 0.042253 -0.998854
vn -0.343693 0.645499 -0.682060
vn -0.012909 0.045882 -0.998864
vn 0.183889 -0.653783 -0.733998
vn 0.319158 -0.599353 -0.734108
vn -0.022492 0.042253 -0.998854
vn 0.183889 -0.653783 -0.733998
vn 0.270748 -0.962600 -0.009875
vn 0.470001 -0.882611 -0.009873
vn 0.319158 -0.599353 -0.734108
vn 0.270748 -0.962600 -0.009875
vn 0.187717 -0.667393 0.720659
vn 0.325807 -0.611835 0.720769
vn 0.470001 -0.882611 -0.009873
vn 0.187717 -0.667393 0.720659
vn -0.007806 0.027744 0.999585
vn -0.013632 0.025620 0.999579
vn 0.325807 -0.611835 0.720769
vn -0.007806 0.027744 0.999585
vn -0.194558 0.691672 0.695512
vn -0.337724 0.634300 0.695418
vn -0.013632 0.025620 0.999579
vn -0.194558 0.691672 0.695512
vn -0.270764 0.962602 0.009137
vn -0.469953 0.882644 0.009145
vn -0.337724 0.634300 0.695418
vn -0.469953 0.882644 0.009145
vn -0.343693 0.645499 -0.682060
vn -0.470835 0.558503 -0.682927
vn -0.644509 0.764542 0.009142
vn -0.343693 0.645499 -0.682060
vn -0.022492 0.042253 -0.998854
vn -0.029612 0.035190 -0.998942
vn -0.470835 0.558503 -0.682927
vn -0.022492 0.042253 -0.998854
vn 0.319158 -0.599353 -0.734108
vn 0.438596 -0.519874 -0.733051
vn -0.029612 0.035190 -0.998942
vn 0.319158 -0.599353 -0.734108
vn 0.470001 -0.882611 -0.009873
vn 0.644841 -0.764253 -0.009849
vn 0.438596 -0.519874 -0.733051
vn 0.470001 -0.882611 -0.009873
vn 0.325807 -0.611835 0.720769
vn 0.447695 -0.530645 0.719712
vn 0.644841 -0.764253 -0.009849
vn 0.325807 -0.611835 0.720769
vn -0.013632 0.025620 0.999579
vn -0.017453 0.020770 0.999632
vn 0.447695 -0.530645 0.719712
vn -0.013632 0.025620 0.999579
vn -0.337724 0.634300 0.695418
vn -0.462635 0.548782 0.696281
vn -0.017453 0.020770 0.999632
vn -0.337724 0.634300 0.695418
vn -0.469953 0.882644 0.009145
vn -0.644509 0.764542 0.009142
vn -0.462635 0.548782 0.696281
vn -0.644509 0.764542 0.009142
vn -0.470835 0.558503 -0.682927
vn -0.567780 0.456576 -0.684956
vn -0.779252 0.626644 0.009179
vn -0.470835 0.558503 -0.682927
vn -0.029612 0.035190 -0.998942
vn -0.032363 0.026107 -0.999135
vn -0.567780 0.456576 -0.684956
vn -0.029612 0.035190 -0.998942
vn 0.438596 -0.519874 -0.733051
vn 0.532325 -0.427599 -0.730609
vn -0.032363 0.026107 -0.999135
vn 0.438596 -0.519874 -0.733051
vn 0.644841 -0.764253 -0.009849
vn 0.779612 -0.626186 -0.009805
vn 0.532325 -0.427599 -0.730609
vn 0.644841 -0.764253 -0.009849
vn 0.447695 -0.530645 0.719712
vn 0.543248 -0.436395 0.717246
vn 0.779612 -0.626186 -0.009805
vn 0.447695 -0.530645 0.719712
vn -0.017453 0.020770 0.999632
vn -0.017656 0.014271 0.999742
vn 0.543248 -0.436395 0.717246
vn -0.017453 0.020770 0.999632
vn -0.462635 0.548782 0.696281
vn -0.557815 0.448539 0.698323
vn -0.017656 0.014271 0.999742
vn -0.462635 0.548782 0.696281
vn -0.644509 0.764542 0.009142
vn -0.779252 0.626644 0.009179
vn -0.557815 0.448539 0.698323
vn -0.779252 0.626644 0.009179
vn -0.567780 0.456576 -0.684956
vn -0.632864 0.356133 -0.687497
vn -0.871436 0.490423 0.009225
vn -0.567780 0.456576 -0.684956
vn -0.032363 0.026107 -0.999135
vn -0.031443 0.017743 -0.999348
vn -0.632864 0.356133 -0.687497
vn -0.032363 0.026107 -0.999135
vn 0.532325 -0.427599 -0.730609
vn 0.597965 -0.336165 -0.727620
vn -0.031443 0.017743 -0.999348
vn 0.532325 -0.427599 -0.730609
vn 0.779612 -0.626186 -0.009805
vn 0.871679 -0.489980 -0.009741
vn 0.597965 -0.336165 -0.727620
vn 0.779612 -0.626186 -0.009805
vn 0.543248 -0.436395 0.717246
vn 0.610095 -0.342967 0.714253
vn 0.871679 -0.489980 -0.009741
vn 0.543248 -0.436395 0.717246
vn -0.017656 0.014271 0.999742
vn -0.014979 0.008496 0.999852
vn 0.610095 -0.342967 0.714253
vn -0.017656 0.014271 0.999742
vn -0.557815 0.448539 0.698323
vn -0.621623 0.349818 0.700865
vn -0.014979 0.008496 0.999852
vn -0.557815 0.448539 0.698323
vn -0.779252 0.626644 0.009179
vn -0.871436 0.490423 0.009225
vn -0.621623 0.349818 0.700865
vn -0.871436 0.490423 0.009225
vn -0.632864 0.356133 -0.687497
vn -0.672778 0.267194 -0.689911
vn -0.929342 0.369104 0.009274
vn -0.632864 0.356133 -0.687497
vn -0.031443 0.017743 -0.999348
vn -0.028781 0.011471 -0.999520
vn -0.672778 0.267194 -0.689911
vn -0.031443 0.017743 -0.999348
vn 0.597965 -0.336165 -0.727620
vn 0.640324 -0.254083 -0.724863
vn -0.028781 0.011471 -0.999520
vn 0.597965 -0.336165 -0.727620
vn 0.871679 -0.489980 -0.009741
vn 0.929462 -0.368790 -0.009680
vn 0.640324 -0.254083 -0.724863
vn 0.871679 -0.489980 -0.009741
vn 0.610095 -0.342967 0.714253
vn 0.653149 -0.259189 0.711490
vn 0.929462 -0.368790 -0.009680
vn 0.610095 -0.342967 0.714253
vn -0.014979 0.008496 0.999852
vn -0.011213 0.004487 0.999927
vn 0.653149 -0.259189 0.711490
vn -0.014979 0.008496 0.999852
vn -0.621623 0.349818 0.700865
vn -0.660705 0.262401 0.703288
vn -0.011213 0.004487 0.999927
vn -0.621623 0.349818 0.700865
vn -0.871436 0.490423 0.009225
vn -0.929342 0.369104 0.009274
vn -0.660705 0.262401 0.703288
vn -0.929342 0.369104 0.009274
vn -0.672778 0.267194 -0.689911
vn -0.695847 0.192463 -0.691921
vn -0.963765 0.266589 0.009310
vn -0.672778 0.267194 -0.689911
vn -0.028781 0.011471 -0.999520
vn -0.025788 0.007152 -0.999642
vn -0.695847 0.192463 -0.691921
vn -0.028781 0.011471 -0.999520
vn 0.640324 -0.254083 -0.724863
vn 0.666251 -0.184139 -0.722636
vn -0.025788 0.007152 -0.999642
vn 0.640324 -0.254083 -0.724863
vn 0.929462 -0.368790 -0.009680
vn 0.963827 -0.266354 -0.009637
vn 0.666251 -0.184139 -0.722636
vn 0.929462 -0.368790 -0.009680
vn 0.653149 -0.259189 0.711490
vn 0.679482 -0.187785 0.709254
vn 0.963827 -0.266354 -0.009637
vn 0.653149 -0.259189 0.711490
vn -0.011213 0.004487 0.999927
vn -0.007554 0.002116 0.999969
vn 0.679482 -0.187785 0.709254
vn -0.011213 0.004487 0.999927
vn -0.660705 0.262401 0.703288
vn -0.683251 0.188987 0.705302
vn -0.007554 0.002116 0.999969
vn -0.660705 0.262401 0.703288
vn -0.929342 0.369104 0.009274
vn -0.963765 0.266589 0.009310
vn -0.683251 0.188987 0.705302
vn -0.963765 0.266589 0.009310
vn -0.695847 0.192463 -0.691921
vn -0.708475 0.130862 -0.693497
vn -0.983323 0.181629 0.009340
vn -0.695847 0.192463 -0.691921
vn -0.025788 0.007152 -0.999642
vn -0.023084 0.004277 -0.999724
vn -0.708475 0.130862 -0.693497
vn -0.025788 0.007152 -0.999642
vn 0.666251 -0.184139 -0.722636
vn 0.681509 -0.125787 -0.720918
vn -0.023084 0.004277 -0.999724
vn 0.666251 -0.184139 -0.722636
vn 0.963827 -0.266354 -0.009637
vn 0.983347 -0.181485 -0.009602
vn 0.681509 -0.125787 -0.720918
vn 0.963827 -0.266354 -0.009637
vn 0.679482 -0.187785 0.709254
vn 0.694946 -0.128273 0.707528
vn 0.983347 -0.181485 -0.009602
vn 0.679482 -0.187785 0.709254
vn -0.007554 0.002116 0.999969
vn -0.004480 0.000840 0.999990
vn 0.694946 -0.128273 0.707528
vn -0.007554 0.002116 0.999969
vn -0.683251 0.188987 0.705302
vn -0.695563 0.128466 0.706886
vn -0.004480 0.000840 0.999990
vn -0.683251 0.188987 0.705302
vn -0.963765 0.266589 0.009310
vn -0.983323 0.181629 0.009340
vn -0.695563 0.128466 0.706886
vn -0.983323 0.181629 0.009340
vn -0.708475 0.130862 -0.693497
vn -0.710607 0.116862 -0.693817
vn -0.986700 0.162282 0.009341
vn -0.708475 0.130862 -0.693497
vn -0.023084 0.004277 -0.999724
vn -0.022394 0.003675 -0.999743
vn -0.710607 0.116862 -0.693817
vn -0.023084 0.004277 -0.999724
vn 0.681509 -0.125787 -0.720918
vn 0.684323 -0.112531 -0.720443
vn -0.022394 0.003675 -0.999743
vn 0.681509 -0.125787 -0.720918
vn 0.983347 -0.181485 -0.009602
vn 0.986706 -0.162234 -0.009584
vn 0.684323 -0.112531 -0.720443
vn 0.983347 -0.181485 -0.009602
vn 0.694946 -0.128273 0.707528
vn 0.697778 -0.114750 0.707063
vn 0.986706 -0.162234 -0.009584
vn 0.694946 -0.128273 0.707528
vn -0.004480 0.000840 0.999990
vn -0.003725 0.000600 0.999993
vn 0.697778 -0.114750 0.707063
vn -0.004480 0.000840 0.999990
vn -0.695563 0.128466 0.706886
vn -0.697634 0.114745 0.707206
vn -0.003725 0.000600 0.999993
vn -0.695563 0.128466 0.706886
vn -0.983323 0.181629 0.009340
vn -0.986700 0.162282 0.009341
vn -0.697634 0.114745 0.707206
s off
g S_P12_01_low S_P12_01_04_low
usemtl set2
f 101/213/301 102/214/302 110/223/303 109/222/304
f 102/214/305 103/215/306 111/224/307 110/223/308
f 103/215/309 104/216/310 112/225/311 111/224/312
f 104/216/313 105/217/314 113/226/315 112/225/316
f 105/217/317 106/218/318 114/227/319 113/226/320
f 106/218/321 107/219/322 115/228/323 114/227/324
f 107/219/325 108/220/326 116/229/327 115/228/328
f 108/220/329 101/221/330 109/230/331 116/229/332
f 109/222/333 110/223/334 118/231/335 117/232/336
f 110/223/337 111/224/338 119/233/339 118/231/340
f 111/224/341 112/225/342 120/234/343 119/233/344
f 112/225/345 113/226/346 121/235/347 120/234/348
f 113/226/349 114/227/350 122/236/351 121/235/352
f 114/227/353 115/228/354 123/237/355 122/236/356
f 115/228/357 116/229/358 124/238/359 123/237/360
f 116/229/361 109/230/362 117/239/363 124/238/364
f 117/232/365 118/231/366 126/240/367 125/241/368
f 118/231/369 119/233/370 127/242/371 126/240/372
f 119/233/373 120/234/374 128/243/375 127/242/376
f 120/234/377 121/235/378 129/244/379 128/243/380
f 121/235/381 122/236/382 130/245/383 129/244/384
f 122/236/385 123/237/386 131/246/387 130/245/388
f 123/237/389 124/238/390 132/247/391 131/246/392
f 124/238/393 117/239/394 125/248/395 132/247/396
f 125/241/397 126/240/398 134/249/399 133/250/400
f 126/240/401 127/242/402 135/251/403 134/249/404
f 127/242/405 128/243/406 136/252/407 135/251/408
f 128/243/409 129/244/410 137/253/411 136/252/412
f 129/244/413 130/245/414 138/254/415 137/253/416
f 130/245/417 131/246/418 139/255/419 138/254/420
f 131/246/421 132/247/422 140/256/423 139/255/424
f 132/247/425 125/248/426 133/257/427 140/256/428
f 133/250/429 134/249/430 142/258/431 141/259/432
f 134/249/433 135/251/434 143/260/435 142/258/436
f 135/251/437 136/252/438 144/261/439 143/260/440
f 136/252/441 137/253/442 145/262/443 144/261/444
f 137/253/445 138/254/446 146/263/447 145/262/448
f 138/254/449 139/255/450 147/264/451 146/263/452
f 139/255/453 140/256/454 148/265/455 147/264/456
f 140/256/457 133/257/458 141/266/459 148/265/460
f 141/259/461 142/258/462 150/267/463 149/268/464
f 142/258/465 143/260/466 151/269/467 150/267/468
f 143/260/469 144/261/470 152/270/471 151/269/472
f 144/261/473 145/262/474 153/271/475 152/270/476
f 145/262/477 146/263/478 154/272/479 153/271/480
f 146/263/481 147/264/482 155/273/483 154/272/484
f 147/264/485 148/265/486 156/274/487 155/273/488
f 148/265/489 141/266/490 149/275/491 156/274/492
f 149/268/493 150/267/494 158/276/495 157/277/496
f 150/267/497 151/269/498 159/278/499 158/276/500
f 151/269/501 152/270/502 160/279/503 159/278/504
f 152/270/505 153/271/506 161/280/507 160/279/508
f 153/271/509 154/272/510 162/281/511 161/280/512
f 154/272/513 155/273/514 163/282/515 162/281/516
f 155/273/517 156/274/518 164/283/519 163/282/520
f 156/274/521 149/275/522 157/284/523 164/283/524
f 157/277/525 158/276/526 166/285/527 165/286/528
f 158/276/529 159/278/530 167/287/531 166/285/532
f 159/278/533 160/279/534 168/288/535 167/287/536
f 160/279/537 161/280/538 169/289/539 168/288/540
f 161/280/541 162/281/542 170/290/543 169/289/544
f 162/281/545 163/282/546 171/291/547 170/290/548
f 163/282/549 164/283/550 172/292/551 171/291/552
f 164/283/553 157/284/554 165/293/555 172/292/556
f 165/286/557 166/285/558 174/294/559 173/295/560
f 166/285/561 167/287/562 175/296/563 174/294/564
f 167/287/565 168/288/566 176/297/567 175/296/568
f 168/288/569 169/289/570 177/298/571 176/297/572
f 169/289/573 170/290/574 178/299/575 177/298/576
f 170/290/577 171/291/578 179/300/579 178/299/580
f 171/291/581 172/292/582 180/301/583 179/300/584
f 172/292/585 165/293/586 173/302/587 180/301/588
f 173/295/589 174/294/590 182/303/591 181/304/592
f 174/294/593 175/296/594 183/305/595 182/303/596
f 175/296/597 176/297/598 184/306/599 183/305/600
f 176/297/601 177/298/602 185/307/603 184/306/604
f 177/298/605 178/299/606 186/308/607 185/307/608
f 178/299/609 179/300/610 187/309/611 186/308/612
f 179/300/613 180/301/614 188/310/615 187/309/616
f 180/301/617 173/302/618 181/311/619 188/310/620
g default
v 4.094468 40.436394 0.033446
v -7.165832 40.436394 0.033446
v 4.094468 43.855835 -1.077608
v 4.094468 43.345177 -2.079904
v 4.094468 42.549736 -2.875330
v 4.094468 41.547455 -3.386025
v 4.094468 40.436394 -3.561998
v 4.094468 39.325325 -3.386025
v 4.094468 38.323051 -2.875329
v 4.094468 37.527603 -2.079903
v 4.094468 37.016891 -1.077607
v 4.094468 36.840950 0.033446
v 4.094468 37.016891 1.144499
v 4.094468 37.527603 2.146794
v 4.094468 38.323051 2.942220
v 4.094468 39.325325 3.452915
v 4.094468 40.436394 3.628888
v 4.094468 41.547455 3.452915
v 4.094468 42.549736 2.942220
v 4.094468 43.345177 2.146794
v 4.094468 43.855835 1.144499
v 4.094468 44.031830 0.033446
v -7.165832 43.855835 -1.077608
v -7.165832 43.345177 -2.079904
v -7.165832 42.549736 -2.875330
v -7.165832 41.547455 -3.386025
v -7.165832 40.436394 -3.561998
v -7.165832 39.325325 -3.386025
v -7.165832 38.323051 -2.875329
v -7.165832 37.527603 -2.079903
v -7.165832 37.016891 -1.077607
v -7.165832 36.840950 0.033446
v -7.165832 37.016891 1.144499
v -7.165832 37.527603 2.146794
v -7.165832 38.323051 2.942220
v -7.165832 39.325325 3.452915
v -7.165832 40.436394 3.628888
v -7.165832 41.547455 3.452915
v -7.165832 42.549736 2.942220
v -7.165832 43.345177 2.146794
v -7.165832 43.855835 1.144499
v -7.165832 44.031830 0.033446
vt 0.779731 0.081729
vt 0.779731 0.088804
vt 0.708912 0.088804
vt 0.708912 0.081729
vt 0.779731 0.095879
vt 0.708912 0.095879
vt 0.779731 0.102954
vt 0.708912 0.102954
vt 0.779731 0.110029
vt 0.708912 0.110029
vt 0.779731 0.117104
vt 0.708912 0.117104
vt 0.779731 0.124178
vt 0.708912 0.124178
vt 0.779731 0.131253
vt 0.708912 0.131253
vt 0.779731 0.138328
vt 0.708912 0.138328
vt 0.779731 0.145403
vt 0.708912 0.003906
vt 0.779731 0.010981
vt 0.708912 0.010981
vt 0.779731 0.018056
vt 0.708912 0.018056
vt 0.779731 0.025131
vt 0.708912 0.025131
vt 0.779731 0.032206
vt 0.708912 0.032206
vt 0.779731 0.039280
vt 0.708912 0.039280
vt 0.779731 0.046355
vt 0.708912 0.046355
vt 0.779731 0.053430
vt 0.708912 0.053430
vt 0.779731 0.060505
vt 0.708912 0.060505
vt 0.779731 0.067580
vt 0.708912 0.067580
vt 0.779731 0.074655
vt 0.708912 0.074655
vt 0.925843 0.042230
vt 0.931567 0.046389
vt 0.870907 0.042230
vt 0.941833 0.026241
vt 0.886897 0.026241
vt 0.876631 0.046389
vt 0.883360 0.048575
vt 0.890434 0.048575
vt 0.897163 0.046389
vt 0.902887 0.042230
vt 0.907045 0.036507
vt 0.909231 0.029778
vt 0.909231 0.022703
vt 0.907045 0.015975
vt 0.902887 0.010251
vt 0.897163 0.006092
vt 0.890435 0.003906
vt 0.883360 0.003906
vt 0.876631 0.006092
vt 0.870907 0.010251
vt 0.866749 0.015975
vt 0.864563 0.022703
vt 0.864563 0.029778
vt 0.866749 0.036507
vt 0.921685 0.036507
vt 0.919498 0.029778
vt 0.919498 0.022703
vt 0.921684 0.015975
vt 0.925843 0.010251
vt 0.931567 0.006093
vt 0.938295 0.003906
vt 0.945370 0.003906
vt 0.952099 0.006092
vt 0.957822 0.010251
vt 0.961981 0.015975
vt 0.964167 0.022703
vt 0.964167 0.029778
vt 0.961981 0.036507
vt 0.957822 0.042230
vt 0.952098 0.046389
vt 0.945370 0.048575
vt 0.938295 0.048575
vt 0.779731 0.003906
vt 0.708912 0.145403
vn 0.000000 0.951059 -0.309010
vn 0.000000 0.809022 -0.587779
vn 0.000000 0.809022 -0.587779
vn 0.000000 0.951059 -0.309010
vn 0.000000 0.587785 -0.809017
vn 0.000000 0.587785 -0.809017
vn 0.000000 0.309018 -0.951056
vn 0.000000 0.309018 -0.951056
vn 0.000000 -0.000000 -1.000000
vn 0.000000 -0.000000 -1.000000
vn 0.000000 -0.309018 -0.951056
vn 0.000000 -0.309018 -0.951056
vn 0.000000 -0.587785 -0.809017
vn 0.000000 -0.587785 -0.809017
vn 0.000000 -0.809009 -0.587797
vn 0.000000 -0.809009 -0.587797
vn 0.000000 -0.951059 -0.309010
vn 0.000000 -0.951059 -0.309010
vn 0.000000 -1.000000 0.000000
vn 0.000000 -1.000000 0.000000
vn 0.000000 -0.951059 0.309010
vn 0.000000 -0.951059 0.309010
vn 0.000000 -0.809008 0.587797
vn 0.000000 -0.809008 0.587797
vn 0.000000 -0.587785 0.809017
vn 0.000000 -0.587785 0.809017
vn 0.000000 -0.309018 0.951056
vn 0.000000 -0.309018 0.951056
vn 0.000000 -0.000000 1.000000
vn 0.000000 -0.000000 1.000000
vn 0.000000 0.309018 0.951056
vn 0.000000 0.309018 0.951056
vn 0.000000 0.587785 0.809017
vn 0.000000 0.587785 0.809017
vn 0.000000 0.809022 0.587779
vn 0.000000 0.809022 0.587779
vn 0.000000 0.951059 0.309010
vn 0.000000 0.951059 0.309010
vn 0.000000 1.000000 -0.000000
vn 0.000000 1.000000 -0.000000
vn 1.000000 0.000000 0.000000
vn 1.000000 0.000000 0.000000
vn 1.000000 0.000000 0.000000
vn -1.000000 0.000000 0.000000
vn -1.000000 0.000000 0.000000
vn -1.000000 0.000000 0.000000
vn -1.000000 0.000001 0.000000
vn -1.000000 0.000001 0.000000
vn -1.000000 0.000001 0.000000
vn -1.000000 -0.000001 0.000000
vn -1.000000 -0.000001 0.000000
vn -1.000000 -0.000001 0.000000
vn -1.000000 0.000000 0.000000
vn -1.000000 0.000000 0.000000
vn -1.000000 0.000000 0.000000
vn -1.000000 0.000000 0.000000
vn -1.000000 0.000000 0.000000
vn -1.000000 0.000000 0.000000
vn -1.000000 0.000000 0.000000
vn -1.000000 0.000000 0.000000
vn -1.000000 0.000000 0.000000
vn -1.000000 0.000000 0.000000
vn -1.000000 0.000000 0.000000
vn -1.000000 0.000000 0.000000
vn -1.000000 -0.000000 0.000000
vn -1.000000 -0.000000 0.000000
vn -1.000000 -0.000000 0.000000
vn -1.000000 0.000000 0.000000
vn -1.000000 0.000000 0.000000
vn -1.000000 0.000000 0.000000
vn -1.000000 0.000000 0.000000
vn -1.000000 0.000000 0.000000
vn -1.000000 0.000000 0.000000
vn -1.000000 0.000000 0.000000
vn -1.000000 0.000000 0.000000
vn -1.000000 0.000000 0.000000
vn -1.000000 0.000000 0.000000
vn -1.000000 0.000000 0.000000
vn -1.000000 0.000000 0.000000
vn -1.000000 -0.000001 0.000000
vn -1.000000 -0.000001 0.000000
vn -1.000000 -0.000001 0.000000
vn -1.000000 0.000000 0.000000
vn -1.000000 0.000000 0.000000
vn -1.000000 0.000000 0.000000
vn -1.000000 0.000000 0.000000
vn -1.000000 0.000000 0.000000
vn -1.000000 0.000000 0.000000
vn -1.000000 0.000000 0.000000
vn -1.000000 0.000000 0.000000
vn -1.000000 0.000000 0.000000
vn -1.000000 -0.000000 0.000000
vn -1.000000 -0.000000 0.000000
vn -1.000000 -0.000000 0.000000
vn -1.000000 -0.000000 0.000000
vn -1.000000 -0.000000 0.000000
vn -1.000000 -0.000000 0.000000
vn -1.000000 0.000000 0.000000
vn -1.000000 0.000000 0.000000
vn -1.000000 0.000000 0.000000
vn 1.000000 0.000000 0.000000
vn 1.000000 0.000000 0.000000
vn 1.000000 0.000000 0.000000
vn 1.000000 0.000000 0.000000
vn 1.000000 0.000000 0.000000
vn 1.000000 0.000000 0.000000
vn 1.000000 0.000000 0.000000
vn 1.000000 0.000000 0.000000
vn 1.000000 0.000000 0.000000
vn 1.000000 0.000000 0.000000
vn 1.000000 0.000000 0.000000
vn 1.000000 0.000000 0.000000
vn 1.000000 0.000000 0.000000
vn 1.000000 0.000000 0.000000
vn 1.000000 0.000000 0.000000
vn 1.000000 0.000000 0.000000
vn 1.000000 0.000000 0.000000
vn 1.000000 0.000000 0.000000
vn 1.000000 0.000000 0.000000
vn 1.000000 0.000000 0.000000
vn 1.000000 0.000000 0.000000
vn 1.000000 -0.000000 0.000000
vn 1.000000 -0.000000 0.000000
vn 1.000000 -0.000000 0.000000
vn 1.000000 0.000000 0.000000
vn 1.000000 0.000000 0.000000
vn 1.000000 0.000000 0.000000
vn 1.000000 0.000000 0.000000
vn 1.000000 0.000000 0.000000
vn 1.000000 0.000000 0.000000
vn 1.000000 0.000000 0.000000
vn 1.000000 0.000000 0.000000
vn 1.000000 0.000000 0.000000
vn 1.000000 0.000000 0.000000
vn 1.000000 0.000000 0.000000
vn 1.000000 0.000000 0.000000
vn 1.000000 0.000000 0.000000
vn 1.000000 0.000000 0.000000
vn 1.000000 0.000000 0.000000
vn 1.000000 -0.000000 0.000000
vn 1.000000 -0.000000 0.000000
vn 1.000000 -0.000000 0.000000
vn 1.000000 0.000000 0.000000
vn 1.000000 0.000000 0.000000
vn 1.000000 0.000000 0.000000
vn 1.000000 0.000000 0.000000
vn 1.000000 0.000000 0.000000
vn 1.000000 0.000000 0.000000
vn 1.000000 0.000000 0.000000
vn 1.000000 0.000000 0.000000
vn 1.000000 0.000000 0.000000
vn 1.000000 -0.000000 0.000000
vn 1.000000 -0.000000 0.000000
vn 1.000000 -0.000000 0.000000
vn 1.000000 0.000000 0.000000
vn 1.000000 0.000000 0.000000
vn 1.000000 0.000000 0.000000
vn -1.000000 0.000000 0.000000
vn -1.000000 0.000000 0.000000
vn -1.000000 0.000000 0.000000
s 1
g S_P12_01_low S_P12_01_05_low
usemtl set2
f 191/312/621 192/313/622 212/314/623 211/315/624
f 192/313/622 193/316/625 213/317/626 212/314/623
f 193/316/625 194/318/627 214/319/628 213/317/626
f 194/318/627 195/320/629 215/321/630 214/319/628
f 195/320/629 196/322/631 216/323/632 215/321/630
f 196/322/631 197/324/633 217/325/634 216/323/632
f 197/324/633 198/326/635 218/327/636 217/325/634
f 198/326/635 199/328/637 219/329/638 218/327/636
f 199/328/637 200/330/639 220/395/640 219/329/638
f 200/394/639 201/332/641 221/333/642 220/331/640
f 201/332/641 202/334/643 222/335/644 221/333/642
f 202/334/643 203/336/645 223/337/646 222/335/644
f 203/336/645 204/338/647 224/339/648 223/337/646
f 204/338/647 205/340/649 225/341/650 224/339/648
f 205/340/649 206/342/651 226/343/652 225/341/650
f 206/342/651 207/344/653 227/345/654 226/343/652
f 207/344/653 208/346/655 228/347/656 227/345/654
f 208/346/655 209/348/657 229/349/658 228/347/656
f 209/348/657 210/350/659 230/351/660 229/349/658
f 210/350/659 191/312/621 211/315/624 230/351/660
s off
f 210/354/661 189/356/662 191/357/663
f 190/355/664 211/376/665 212/377/666
f 190/355/667 212/377/668 213/378/669
f 190/355/670 213/378/671 214/379/672
f 190/355/673 214/379/674 215/380/675
f 190/355/676 215/380/677 216/381/678
f 190/355/679 216/381/680 217/382/681
f 190/355/682 217/382/683 218/383/684
f 190/355/685 218/383/686 219/384/687
f 190/355/688 219/384/689 220/385/690
f 190/355/691 220/385/692 221/386/693
f 190/355/694 221/386/695 222/387/696
f 190/355/697 222/387/698 223/388/699
f 190/355/700 223/388/701 224/389/702
f 190/355/703 224/389/704 225/390/705
f 190/355/706 225/390/707 226/391/708
f 190/355/709 226/391/710 227/392/711
f 190/355/712 227/392/713 228/393/714
f 190/355/715 228/393/716 229/353/717
f 230/352/718 190/355/719 229/353/720
f 192/358/721 191/357/722 189/356/723
f 193/359/724 192/358/725 189/356/726
f 194/360/727 193/359/728 189/356/729
f 195/361/730 194/360/731 189/356/732
f 196/362/733 195/361/734 189/356/735
f 197/363/736 196/362/737 189/356/738
f 198/364/739 197/363/740 189/356/741
f 199/365/742 198/364/743 189/356/744
f 200/366/745 199/365/746 189/356/747
f 201/367/748 200/366/749 189/356/750
f 202/368/751 201/367/752 189/356/753
f 203/369/754 202/368/755 189/356/756
f 204/370/757 203/369/758 189/356/759
f 205/371/760 204/370/761 189/356/762
f 206/372/763 205/371/764 189/356/765
f 207/373/766 206/372/767 189/356/768
f 208/374/769 207/373/770 189/356/771
f 209/375/772 208/374/773 189/356/774
f 210/354/775 209/375/776 189/356/777
f 230/352/778 211/376/779 190/355/780
g default
v 1.883832 31.535517 -1.077608
v 1.373136 31.535517 -2.079904
v 0.577710 31.535517 -2.875330
v -0.424586 31.535517 -3.386025
v -1.535639 31.535517 -3.561998
v -2.646693 31.535517 -3.386025
v -3.648988 31.535517 -2.875329
v -4.444414 31.535517 -2.079903
v -4.955109 31.535517 -1.077607
v -5.131082 31.535517 0.033446
v -4.955109 31.535517 1.144499
v -4.444414 31.535517 2.146794
v -3.648988 31.535517 2.942220
v -2.646692 31.535517 3.452915
v -1.535640 31.535517 3.628888
v -0.424587 31.535517 3.452915
v 0.577708 31.535517 2.942220
v 1.373134 31.535517 2.146794
v 1.883829 31.535517 1.144498
v 2.059803 31.535517 0.033446
v 1.883832 40.433846 -1.077608
v 1.373136 40.433846 -2.079904
v 0.577710 40.433846 -2.875330
v -0.424586 40.433846 -3.386025
v -1.535639 40.433846 -3.561998
v -2.646693 40.433846 -3.386025
v -3.648988 40.433846 -2.875329
v -4.444414 40.433846 -2.079903
v -4.955109 40.433846 -1.077607
v -5.131082 40.433846 0.033446
v -4.955109 40.433846 1.144499
v -4.444414 40.433846 2.146794
v -3.648988 40.433846 2.942220
v -2.646692 40.433846 3.452915
v -1.535640 40.433846 3.628888
v -0.424587 40.433846 3.452915
v 0.577708 40.433846 2.942220
v 1.373134 40.433846 2.146794
v 1.883829 40.433846 1.144498
v 2.059803 40.433846 0.033446
vt 0.512057 0.036358
vt 0.519132 0.036358
vt 0.519132 0.092322
vt 0.512057 0.092322
vt 0.526207 0.036358
vt 0.526207 0.092322
vt 0.533282 0.036358
vt 0.533282 0.092322
vt 0.540357 0.036358
vt 0.540357 0.092322
vt 0.547432 0.036358
vt 0.547432 0.092322
vt 0.554506 0.036358
vt 0.554506 0.092322
vt 0.561581 0.036358
vt 0.561581 0.092322
vt 0.568656 0.036358
vt 0.568656 0.092322
vt 0.575731 0.036358
vt 0.434234 0.092322
vt 0.441309 0.036358
vt 0.441309 0.092322
vt 0.448384 0.036358
vt 0.448384 0.092322
vt 0.455459 0.036358
vt 0.455459 0.092322
vt 0.462534 0.036358
vt 0.462534 0.092322
vt 0.469609 0.036358
vt 0.469609 0.092322
vt 0.476683 0.036358
vt 0.476683 0.092322
vt 0.483758 0.036358
vt 0.483758 0.092322
vt 0.490833 0.036358
vt 0.490833 0.092322
vt 0.497908 0.036358
vt 0.497908 0.092322
vt 0.504983 0.036358
vt 0.504983 0.092322
vt 0.434234 0.036358
vt 0.575731 0.092322
vn 0.951057 0.000000 -0.309016
vn 0.809017 0.000000 -0.587785
vn 0.809017 0.000000 -0.587785
vn 0.951057 0.000000 -0.309016
vn 0.809017 0.000000 -0.587785
vn 0.587785 0.000000 -0.809017
vn 0.587785 0.000000 -0.809017
vn 0.809017 0.000000 -0.587785
vn 0.587785 0.000000 -0.809017
vn 0.309017 0.000000 -0.951057
vn 0.309017 0.000000 -0.951057
vn 0.587785 0.000000 -0.809017
vn 0.309017 0.000000 -0.951057
vn 0.000000 0.000000 -1.000000
vn 0.000000 0.000000 -1.000000
vn 0.309017 0.000000 -0.951057
vn 0.000000 0.000000 -1.000000
vn -0.309017 0.000000 -0.951056
vn -0.309017 0.000000 -0.951056
vn 0.000000 0.000000 -1.000000
vn -0.309017 0.000000 -0.951056
vn -0.587785 0.000000 -0.809017
vn -0.587785 0.000000 -0.809017
vn -0.309017 0.000000 -0.951056
vn -0.587785 0.000000 -0.809017
vn -0.809017 0.000000 -0.587785
vn -0.809017 0.000000 -0.587785
vn -0.587785 0.000000 -0.809017
vn -0.809017 0.000000 -0.587785
vn -0.951057 0.000000 -0.309017
vn -0.951057 0.000000 -0.309017
vn -0.809017 0.000000 -0.587785
vn -0.951057 0.000000 -0.309017
vn -1.000000 0.000000 -0.000000
vn -1.000000 0.000000 -0.000000
vn -0.951057 0.000000 -0.309017
vn -1.000000 0.000000 -0.000000
vn -0.951057 0.000000 0.309017
vn -0.951057 0.000000 0.309017
vn -1.000000 0.000000 -0.000000
vn -0.951057 0.000000 0.309017
vn -0.809017 0.000000 0.587785
vn -0.809017 0.000000 0.587785
vn -0.951057 0.000000 0.309017
vn -0.809017 0.000000 0.587785
vn -0.587785 0.000000 0.809017
vn -0.587785 0.000000 0.809017
vn -0.809017 0.000000 0.587785
vn -0.587785 0.000000 0.809017
vn -0.309017 0.000000 0.951056
vn -0.309017 0.000000 0.951056
vn -0.587785 0.000000 0.809017
vn -0.309017 0.000000 0.951056
vn -0.000000 0.000000 1.000000
vn -0.000000 0.000000 1.000000
vn -0.309017 0.000000 0.951056
vn -0.000000 0.000000 1.000000
vn 0.309017 0.000000 0.951057
vn 0.309017 0.000000 0.951057
vn -0.000000 0.000000 1.000000
vn 0.309017 0.000000 0.951057
vn 0.587785 0.000000 0.809017
vn 0.587785 0.000000 0.809017
vn 0.309017 0.000000 0.951057
vn 0.587785 0.000000 0.809017
vn 0.809017 0.000000 0.587785
vn 0.809017 0.000000 0.587785
vn 0.587785 0.000000 0.809017
vn 0.809017 0.000000 0.587785
vn 0.951057 0.000000 0.309017
vn 0.951057 0.000000 0.309017
vn 0.809017 0.000000 0.587785
vn 0.951057 0.000000 0.309017
vn 1.000000 0.000000 0.000001
vn 1.000000 0.000000 0.000001
vn 0.951057 0.000000 0.309017
vn 1.000000 0.000000 0.000001
vn 0.951057 0.000000 -0.309016
vn 0.951057 0.000000 -0.309016
vn 1.000000 0.000000 0.000001
s off
g S_P12_01_low S_P12_01_06_low
usemtl set2
f 231/396/781 232/397/782 252/398/783 251/399/784
f 232/397/785 233/400/786 253/401/787 252/398/788
f 233/400/789 234/402/790 254/403/791 253/401/792
f 234/402/793 235/404/794 255/405/795 254/403/796
f 235/404/797 236/406/798 256/407/799 255/405/800
f 236/406/801 237/408/802 257/409/803 256/407/804
f 237/408/805 238/410/806 258/411/807 257/409/808
f 238/410/809 239/412/810 259/413/811 258/411/812
f 239/412/813 240/414/814 260/437/815 259/413/816
f 240/436/817 241/416/818 261/417/819 260/415/820
f 241/416/821 242/418/822 262/419/823 261/417/824
f 242/418/825 243/420/826 263/421/827 262/419/828
f 243/420/829 244/422/830 264/423/831 263/421/832
f 244/422/833 245/424/834 265/425/835 264/423/836
f 245/424/837 246/426/838 266/427/839 265/425/840
f 246/426/841 247/428/842 267/429/843 266/427/844
f 247/428/845 248/430/846 268/431/847 267/429/848
f 248/430/849 249/432/850 269/433/851 268/431/852
f 249/432/853 250/434/854 270/435/855 269/433/856
f 250/434/857 231/396/858 251/399/859 270/435/860
