# This file uses centimeters as units for non-parametric coordinates.

mtllib S_P13.mtl
g default
v -17.416615 7.581908 143.225616
v -10.450664 7.581908 150.191559
v -13.116416 7.581908 149.661316
v -15.376332 7.581908 148.151291
v -16.886360 7.581908 145.891373
v -17.416615 15.432351 143.225616
v -16.886360 15.432351 145.891373
v -15.376332 15.432351 148.151291
v -13.116416 15.432351 149.661316
v -10.450664 15.432351 150.191559
v 17.416615 7.581908 143.225616
v 16.886360 7.581908 145.891373
v 15.376332 7.581908 148.151291
v 13.116416 7.581908 149.661316
v 10.450664 7.581908 150.191559
v 17.416615 15.432351 143.225616
v 10.450664 15.432351 150.191559
v 13.116416 15.432351 149.661316
v 15.376332 15.432351 148.151291
v 16.886360 15.432351 145.891373
v -13.116416 15.432351 91.047256
v -15.376332 15.432351 92.557281
v -16.886360 15.432351 94.817207
v -17.416615 15.432351 97.482956
v -10.450664 15.432351 90.517006
v -17.416615 7.581908 97.482956
v -16.886360 7.581908 94.817207
v -15.376332 7.581908 92.557281
v -13.116416 7.581908 91.047256
v -10.450664 7.581908 90.517006
v 16.886360 15.432351 94.817207
v 15.376332 15.432351 92.557281
v 13.116416 15.432351 91.047256
v 10.450664 15.432351 90.517006
v 17.416615 15.432351 97.482956
v 17.416615 7.581908 97.482956
v 10.450664 7.581908 90.517006
v 13.116416 7.581908 91.047256
v 15.376332 7.581908 92.557281
v 16.886360 7.581908 94.817207
v -13.869534 0.000000 137.475571
v -8.322274 0.000000 142.690216
v -10.445118 0.000000 142.293274
v -12.244778 0.000000 141.162888
v -13.447273 0.000000 139.471130
v -15.592177 7.632139 140.829788
v -15.117470 7.632139 143.216293
v -13.765621 7.632139 145.239471
v -11.742437 7.632139 146.591324
v -9.355929 7.632139 147.066025
v 13.869534 0.000000 137.475571
v 13.447273 0.000000 139.471130
v 12.244778 0.000000 141.162888
v 10.445118 0.000000 142.293274
v 8.322274 0.000000 142.690216
v 15.592177 7.632139 140.829788
v 9.355929 7.632139 147.066025
v 11.742437 7.632139 146.591324
v 13.765621 7.632139 145.239471
v 15.117470 7.632139 143.216293
v -11.742437 7.632139 94.117241
v -13.765621 7.632139 95.469101
v -15.117470 7.632139 97.492279
v -15.592177 7.632139 99.878792
v -9.355929 7.632139 93.642540
v -13.869534 0.000000 103.233002
v -13.447273 0.000000 101.237442
v -12.244778 0.000000 99.545685
v -10.445118 0.000000 98.415283
v -8.322274 0.000000 98.018349
v 15.117470 7.632139 97.492279
v 13.765621 7.632139 95.469101
v 11.742437 7.632139 94.117241
v 9.355929 7.632139 93.642540
v 15.592177 7.632139 99.878792
v 13.869534 0.000000 103.233002
v 8.322274 0.000000 98.018349
v 10.445118 0.000000 98.415283
v 12.244778 0.000000 99.545685
v 13.447273 0.000000 101.237442
v 2.266214 10.258126 91.254494
v 1.308400 9.300311 91.254494
v 0.000000 8.949726 91.254494
v -1.308400 9.300311 91.254494
v -2.266214 10.258126 91.254494
v -2.616799 11.566525 91.254494
v -2.266214 12.874925 91.254494
v -1.308400 13.832740 91.254494
v 0.000000 14.183325 91.254494
v 1.308400 13.832740 91.254494
v 2.266214 12.874925 91.254494
v 2.616799 11.566525 91.254494
v 2.266214 10.258126 -91.236069
v 1.308400 9.300311 -91.236069
v 0.000000 8.949726 -91.236069
v -1.308400 9.300311 -91.236069
v -2.266214 10.258126 -91.236069
v -2.616799 11.566525 -91.236069
v -2.266214 12.874925 -91.236069
v -1.308400 13.832740 -91.236069
v 0.000000 14.183325 -91.236069
v 1.308400 13.832740 -91.236069
v 2.266214 12.874925 -91.236069
v 2.616799 11.566525 -91.236069
vt 0.936817 0.371841
vt 0.979163 0.371839
vt 0.979168 0.484583
vt 0.936822 0.484584
vt 0.979189 0.961353
vt 0.936802 0.007815
vt 0.936838 0.848611
vt 0.979184 0.848609
vt 0.936825 0.543228
vt 0.979171 0.543227
vt 0.979182 0.789966
vt 0.936836 0.789968
vt 0.936804 0.066458
vt 0.979150 0.066457
vt 0.164353 0.891987
vt 0.424469 0.891894
vt 0.979161 0.313196
vt 0.420516 0.911802
vt 0.168320 0.911891
vt 0.375374 0.086464
vt 0.115258 0.086586
vt 0.119208 0.066678
vt 0.371405 0.066560
vt 0.375534 0.428046
vt 0.115418 0.428168
vt 0.936815 0.313197
vt 0.360121 0.049689
vt 0.979162 0.327857
vt 0.130477 0.049796
vt 0.936816 0.327858
vt 0.147347 0.038513
vt 0.979162 0.342518
vt 0.936816 0.342519
vt 0.168184 0.530497
vt 0.979163 0.357178
vt 0.936817 0.357180
vt 0.343240 0.038421
vt 0.979169 0.499244
vt 0.167252 0.034544
vt 0.936823 0.499246
vt 0.323332 0.034471
vt 0.979169 0.513905
vt 0.936824 0.513906
vt 0.979170 0.528566
vt 0.936824 0.528567
vt 0.179454 0.513617
vt 0.936804 0.051797
vt 0.979149 0.051796
vt 0.936803 0.037136
vt 0.409099 0.513536
vt 0.979149 0.037134
vt 0.936802 0.022476
vt 0.371583 0.447955
vt 0.979148 0.022474
vt 0.936837 0.833950
vt 0.979183 0.833949
vt 0.420381 0.530407
vt 0.936837 0.819289
vt 0.979183 0.819288
vt 0.936836 0.804628
vt 0.979182 0.804627
vt 0.167460 0.480161
vt 0.323540 0.480089
vt 0.147552 0.476211
vt 0.343444 0.476120
vt 0.119387 0.448072
vt 0.424348 0.550312
vt 0.164232 0.550405
vt 0.392219 0.502266
vt 0.196326 0.502335
vt 0.216231 0.498368
vt 0.372311 0.498313
vt 0.196481 0.940034
vt 0.392374 0.939964
vt 0.372469 0.943931
vt 0.216389 0.943986
vt 0.409246 0.928682
vt 0.179602 0.928763
vt 0.130670 0.464943
vt 0.360315 0.464836
vt 0.979147 0.007812
vt 0.936843 0.961355
vt 0.471407 0.478799
vt 0.531333 0.450792
vt 0.596739 0.556484
vt 0.544937 0.597618
vt 0.725754 0.535119
vt 0.673852 0.576128
vt 0.600611 0.457131
vt 0.660604 0.429269
vt 0.623399 0.083231
vt 0.678522 0.114894
vt 0.648828 0.368869
vt 0.587888 0.386962
vt 0.493290 0.104845
vt 0.548489 0.136374
vt 0.519410 0.390421
vt 0.458514 0.408662
vt 0.518501 0.405625
vt 0.457364 0.426796
vt 0.519899 0.421062
vt 0.458784 0.444910
vt 0.524158 0.436350
vt 0.463418 0.462480
vt 0.703914 0.058840
vt 0.693631 0.071262
vt 0.640461 0.031954
vt 0.651966 0.017890
vt 0.685994 0.085174
vt 0.631938 0.048001
vt 0.681108 0.099883
vt 0.626420 0.065314
vt 0.496267 0.086920
vt 0.551039 0.121358
vt 0.501743 0.069595
vt 0.555889 0.106636
vt 0.510227 0.053527
vt 0.563492 0.092706
vt 0.521698 0.039435
vt 0.573745 0.080258
vt 0.592661 0.440792
vt 0.653464 0.414809
vt 0.588070 0.423212
vt 0.649243 0.399511
vt 0.586694 0.405093
vt 0.647882 0.384072
vt 0.925606 0.132326
vt 0.718466 0.132430
vt 0.721612 0.117527
vt 0.922446 0.117426
vt 0.718594 0.388136
vt 0.925735 0.388031
vt 0.913460 0.104797
vt 0.730585 0.104889
vt 0.744020 0.096441
vt 0.900017 0.096363
vt 0.759870 0.093469
vt 0.884163 0.093407
vt 0.721755 0.403036
vt 0.922589 0.402935
vt 0.913616 0.415572
vt 0.730741 0.415665
vt 0.744184 0.424099
vt 0.900181 0.424020
vt 0.884331 0.426993
vt 0.760038 0.427055
vt 0.080965 0.007819
vt 0.088272 0.007820
vt 0.088185 0.992187
vt 0.080878 0.992186
vt 0.095578 0.007820
vt 0.095491 0.992188
vt 0.007900 0.007812
vt 0.015206 0.007813
vt 0.015119 0.992180
vt 0.007812 0.992180
vt 0.022513 0.007814
vt 0.022426 0.992181
vt 0.029819 0.007814
vt 0.029732 0.992182
vt 0.037126 0.007815
vt 0.037039 0.992182
vt 0.044432 0.007816
vt 0.044345 0.992183
vt 0.051739 0.007816
vt 0.051652 0.992184
vt 0.059046 0.007817
vt 0.058959 0.992184
vt 0.066352 0.007818
vt 0.066265 0.992185
vt 0.073659 0.007818
vt 0.073572 0.992186
vn -0.022494 0.000000 0.999747
vn -0.022494 0.000000 0.999747
vn 0.022494 0.000000 0.999747
vn 0.022494 0.000000 0.999747
vn -0.022494 0.000000 -0.999747
vn -0.022494 0.000000 -0.999747
vn 0.022494 0.000000 -0.999747
vn 0.022494 0.000000 -0.999747
vn 0.999940 0.000000 0.010953
vn 0.999940 0.000000 0.010953
vn 0.999940 0.000000 -0.010953
vn 0.999940 0.000000 -0.010953
vn -0.999940 0.000000 -0.010953
vn -0.999940 0.000000 -0.010953
vn -0.999940 0.000000 0.010953
vn -0.999940 0.000000 0.010953
vn -0.923879 0.000000 0.382684
vn -0.923879 0.000000 0.382684
vn -0.707106 0.000000 0.707107
vn -0.707106 0.000000 0.707107
vn -0.382683 0.000000 0.923880
vn -0.382683 0.000000 0.923880
vn 0.382683 0.000000 0.923880
vn 0.382683 0.000000 0.923880
vn 0.707106 0.000000 0.707107
vn 0.707106 0.000000 0.707107
vn 0.923879 0.000000 0.382684
vn 0.923879 0.000000 0.382684
vn -0.923879 0.000000 -0.382684
vn -0.923879 0.000000 -0.382684
vn -0.707107 0.000000 -0.707106
vn -0.707107 0.000000 -0.707106
vn -0.382683 0.000000 -0.923880
vn -0.382683 0.000000 -0.923880
vn 0.382683 0.000000 -0.923880
vn 0.382683 0.000000 -0.923880
vn 0.707107 0.000000 -0.707106
vn 0.707107 0.000000 -0.707106
vn 0.923879 0.000000 -0.382684
vn 0.923879 0.000000 -0.382684
vn 0.000000 1.000000 -0.000000
vn 0.000000 1.000000 -0.000000
vn 0.000000 1.000000 -0.000000
vn 0.000000 1.000000 -0.000000
vn 0.000000 -1.000000 0.000000
vn 0.000000 -1.000000 0.000000
vn 0.000000 -1.000000 0.000000
vn 0.000000 -1.000000 0.000000
vn 0.000000 1.000000 -0.000000
vn 0.000000 1.000000 -0.000001
vn 0.000000 1.000000 -0.000001
vn 0.000000 1.000000 -0.000000
vn 0.000000 1.000000 0.000000
vn 0.000000 1.000000 0.000000
vn 0.000000 1.000000 -0.000000
vn 0.000000 1.000000 -0.000000
vn 0.000000 1.000000 0.000000
vn 0.000000 1.000000 0.000000
vn 0.000000 -1.000000 -0.000000
vn 0.000000 -1.000000 -0.000000
vn 0.000000 -1.000000 0.000000
vn 0.000000 -1.000000 0.000000
vn 0.000000 -1.000000 -0.000000
vn 0.000000 -1.000000 -0.000000
vn 0.000000 -1.000000 0.000001
vn 0.000000 -1.000000 0.000001
vn 0.000000 -1.000000 -0.000000
vn 0.000000 -1.000000 -0.000000
vn 0.000000 -1.000000 -0.000000
vn 0.000000 -1.000000 -0.000000
vn 0.000000 -1.000000 0.000000
vn 0.000000 -1.000000 0.000000
vn 0.000000 -1.000000 -0.000001
vn 0.000000 -1.000000 -0.000001
vn 0.000000 1.000000 0.000000
vn 0.000000 1.000000 0.000000
vn 0.000000 1.000000 -0.000000
vn 0.000000 1.000000 -0.000000
vn 0.000000 1.000000 0.000000
vn 0.000000 1.000000 0.000000
vn -0.020484 -0.499231 0.866227
vn -0.017529 -0.498978 0.866437
vn 0.017529 -0.498978 0.866437
vn 0.020484 -0.499231 0.866227
vn -0.017528 -0.498978 -0.866438
vn -0.020483 -0.499231 -0.866227
vn 0.020483 -0.499231 -0.866227
vn 0.017528 -0.498978 -0.866438
vn 0.973599 -0.227593 0.017495
vn 0.974766 -0.223121 0.006931
vn 0.974766 -0.223121 -0.006931
vn 0.973599 -0.227593 -0.017495
vn -0.973599 -0.227593 -0.017495
vn -0.974766 -0.223121 -0.006931
vn -0.974766 -0.223121 0.006931
vn -0.973599 -0.227593 0.017495
vn -0.873706 -0.355024 0.332560
vn -0.833964 -0.380436 0.399715
vn -0.633721 -0.458591 0.622971
vn -0.598554 -0.467327 0.650644
vn -0.326134 -0.504505 0.799444
vn -0.317023 -0.504994 0.802794
vn 0.326134 -0.504505 0.799444
vn 0.317023 -0.504994 0.802794
vn 0.633720 -0.458591 0.622971
vn 0.598554 -0.467328 0.650644
vn 0.873706 -0.355024 0.332560
vn 0.833964 -0.380437 0.399715
vn -0.833964 -0.380436 -0.399714
vn -0.873706 -0.355024 -0.332560
vn -0.598556 -0.467327 -0.650643
vn -0.633722 -0.458591 -0.622969
vn -0.317023 -0.504993 -0.802794
vn -0.326134 -0.504505 -0.799444
vn 0.317023 -0.504993 -0.802794
vn 0.326134 -0.504505 -0.799444
vn 0.598556 -0.467327 -0.650643
vn 0.633722 -0.458591 -0.622969
vn 0.833964 -0.380436 -0.399714
vn 0.873705 -0.355025 -0.332560
vn 0.000000 -1.000000 0.000000
vn 0.000000 -1.000000 0.000000
vn 0.000000 -1.000000 0.000000
vn 0.000000 -1.000000 0.000000
vn 0.000000 -1.000000 0.000000
vn 0.000000 -1.000000 0.000000
vn 0.000000 -1.000000 0.000000
vn 0.000000 -1.000000 0.000000
vn 0.000000 -1.000000 0.000000
vn 0.000000 -1.000000 0.000000
vn 0.000000 -1.000000 0.000000
vn 0.000000 -1.000000 0.000000
vn 0.000000 -1.000000 0.000000
vn 0.000000 -1.000000 0.000000
vn 0.000000 -1.000000 0.000000
vn 0.000000 -1.000000 0.000000
vn 0.000000 -1.000000 0.000000
vn 0.000000 -1.000000 0.000000
vn 0.000000 -1.000000 0.000000
vn 0.000000 -1.000000 0.000000
vn 0.707107 -0.707107 0.000000
vn 0.707107 -0.707107 0.000000
vn 0.707107 -0.707107 0.000000
vn 0.707107 -0.707107 0.000000
vn 0.258819 -0.965926 0.000000
vn 0.258819 -0.965926 0.000000
vn 0.258819 -0.965926 0.000000
vn 0.258819 -0.965926 0.000000
vn -0.258819 -0.965926 0.000000
vn -0.258819 -0.965926 0.000000
vn -0.258819 -0.965926 0.000000
vn -0.258819 -0.965926 0.000000
vn -0.707107 -0.707107 0.000000
vn -0.707107 -0.707107 0.000000
vn -0.707107 -0.707107 0.000000
vn -0.707107 -0.707107 0.000000
vn -0.965926 -0.258819 0.000000
vn -0.965926 -0.258819 0.000000
vn -0.965926 -0.258819 0.000000
vn -0.965926 -0.258819 0.000000
vn -0.965926 0.258819 0.000000
vn -0.965926 0.258819 0.000000
vn -0.965926 0.258819 0.000000
vn -0.965926 0.258819 0.000000
vn -0.707107 0.707107 0.000000
vn -0.707107 0.707107 0.000000
vn -0.707107 0.707107 0.000000
vn -0.707107 0.707107 0.000000
vn -0.258819 0.965926 0.000000
vn -0.258819 0.965926 0.000000
vn -0.258819 0.965926 0.000000
vn -0.258819 0.965926 0.000000
vn 0.258819 0.965926 0.000000
vn 0.258819 0.965926 0.000000
vn 0.258819 0.965926 0.000000
vn 0.258819 0.965926 0.000000
vn 0.707107 0.707107 0.000000
vn 0.707107 0.707107 0.000000
vn 0.707107 0.707107 0.000000
vn 0.707107 0.707107 0.000000
vn 0.965926 0.258819 0.000000
vn 0.965926 0.258819 0.000000
vn 0.965926 0.258819 0.000000
vn 0.965926 0.258819 0.000000
vn 0.965926 -0.258819 0.000000
vn 0.965926 -0.258819 0.000000
vn 0.965926 -0.258819 0.000000
vn 0.965926 -0.258819 0.000000
s 1
g SP13_01_low_SP13_01_low
usemtl set1
f 10/1/1 2/2/2 15/3/3 17/4/4
f 30/5/5 25/82/6 34/7/7 37/8/8
f 16/9/9 11/10/10 36/11/11 35/12/12
f 24/13/13 26/14/14 1/17/15 6/26/16
f 1/17/15 5/28/17 7/30/18 6/26/16
f 5/28/17 4/32/19 8/33/20 7/30/18
f 4/32/19 3/35/21 9/36/22 8/33/20
f 3/35/21 2/2/2 10/1/1 9/36/22
f 15/3/3 14/38/23 18/40/24 17/4/4
f 14/38/23 13/42/25 19/43/26 18/40/24
f 13/42/25 12/44/27 20/45/28 19/43/26
f 12/44/27 11/10/10 16/9/9 20/45/28
f 24/13/13 23/47/29 27/48/30 26/14/14
f 23/47/29 22/49/31 28/51/32 27/48/30
f 22/49/31 21/52/33 29/54/34 28/51/32
f 21/52/33 25/6/6 30/81/5 29/54/34
f 34/7/7 33/55/35 38/56/36 37/8/8
f 33/55/35 32/58/37 39/59/38 38/56/36
f 32/58/37 31/60/39 40/61/40 39/59/38
f 31/60/39 35/12/12 36/11/11 40/61/40
s 5
f 16/15/41 6/16/42 7/18/43 20/19/44
s 6
f 36/20/45 26/21/46 27/22/47 40/23/48
s 5
f 31/34/49 32/46/50 22/50/51 23/57/52
f 31/34/49 23/57/52 24/67/53 35/68/54
f 21/69/55 33/70/56 34/71/57 25/72/58
f 22/50/51 32/46/50 33/70/56 21/69/55
s 6
f 36/20/45 11/24/59 1/25/60 26/21/46
f 39/27/61 28/29/62 29/31/63 38/37/64
f 40/23/48 27/22/47 28/29/62 39/27/61
f 38/37/64 29/31/63 30/39/65 37/41/66
f 1/25/60 11/24/59 12/53/67 5/66/68
f 4/79/69 13/80/70 14/65/71 3/64/72
f 5/66/68 12/53/67 13/80/70 4/79/69
f 3/64/72 14/65/71 15/63/73 2/62/74
s 5
f 35/68/54 24/67/53 6/16/42 16/15/41
f 18/73/75 9/74/76 10/75/77 17/76/78
f 20/19/44 7/18/43 8/77/79 19/78/80
f 19/78/80 8/77/79 9/74/76 18/73/75
s 9
f 50/83/81 42/84/82 55/85/83 57/86/84
f 70/87/85 65/88/86 74/89/87 77/90/88
f 56/91/89 51/92/90 76/93/91 75/94/92
f 64/95/93 66/96/94 41/97/95 46/98/96
f 41/97/95 45/99/97 47/100/98 46/98/96
f 45/99/97 44/101/99 48/102/100 47/100/98
f 44/101/99 43/103/101 49/104/102 48/102/100
f 43/103/101 42/84/82 50/83/81 49/104/102
f 55/105/83 54/106/103 58/107/104 57/108/84
f 54/106/103 53/109/105 59/110/106 58/107/104
f 53/109/105 52/111/107 60/112/108 59/110/106
f 52/111/107 51/92/90 56/91/89 60/112/108
f 64/95/93 63/113/109 67/114/110 66/96/94
f 63/113/109 62/115/111 68/116/112 67/114/110
f 62/115/111 61/117/113 69/118/114 68/116/112
f 61/117/113 65/119/86 70/120/85 69/118/114
f 74/89/87 73/121/115 78/122/116 77/90/88
f 73/121/115 72/123/117 79/124/118 78/122/116
f 72/123/117 71/125/119 80/126/120 79/124/118
f 71/125/119 75/94/92 76/93/91 80/126/120
s 13
f 41/127/121 51/128/122 52/129/123 45/130/124
f 76/131/125 51/128/122 41/127/121 66/132/126
f 44/133/127 53/134/128 54/135/129 43/136/130
f 45/130/124 52/129/123 53/134/128 44/133/127
f 43/136/130 54/135/129 55/137/131 42/138/132
f 80/139/133 67/140/134 68/141/135 79/142/136
f 76/131/125 66/132/126 67/140/134 80/139/133
f 78/143/137 69/144/138 70/145/139 77/146/140
f 79/142/136 68/141/135 69/144/138 78/143/137
s off
f 81/147/141 82/148/142 94/149/143 93/150/144
f 82/148/145 83/151/146 95/152/147 94/149/148
f 83/153/149 84/154/150 96/155/151 95/156/152
f 84/154/153 85/157/154 97/158/155 96/155/156
f 85/157/157 86/159/158 98/160/159 97/158/160
f 86/159/161 87/161/162 99/162/163 98/160/164
f 87/161/165 88/163/166 100/164/167 99/162/168
f 88/163/169 89/165/170 101/166/171 100/164/172
f 89/165/173 90/167/174 102/168/175 101/166/176
f 90/167/177 91/169/178 103/170/179 102/168/180
f 91/169/181 92/171/182 104/172/183 103/170/184
f 92/171/185 81/147/186 93/150/187 104/172/188
