# This file uses centimeters as units for non-parametric coordinates.

mtllib S_P15_01_LP.mtl
g default
v -64.482330 -0.000001 30.802431
v 60.217052 -0.000001 30.802431
v -64.482330 12.326395 30.802431
v 60.217052 12.326395 30.802431
v -64.482330 12.326395 -30.802431
v 60.217052 12.326395 -30.802431
v -64.482330 -0.000001 -30.802431
v 60.217052 -0.000001 -30.802431
vt 0.345942 0.602586
vt 0.318664 0.602590
vt 0.621900 0.575271
vt 0.621904 0.602549
vt 0.621922 0.738882
vt 0.345961 0.738919
vt 0.649200 0.738878
vt 0.345964 0.766197
vt 0.649182 0.602546
vt 0.621926 0.766160
vt 0.318682 0.738922
vt 0.345939 0.575308
vn 0.000000 0.000000 1.000000
vn 0.000000 0.000000 1.000000
vn 0.000000 0.000000 1.000000
vn 0.000000 0.000000 1.000000
vn 0.000000 1.000000 0.000000
vn 0.000000 1.000000 0.000000
vn 0.000000 1.000000 0.000000
vn 0.000000 1.000000 0.000000
vn 0.000000 0.000000 -1.000000
vn 0.000000 0.000000 -1.000000
vn 0.000000 0.000000 -1.000000
vn 0.000000 0.000000 -1.000000
vn 1.000000 0.000000 0.000000
vn 1.000000 0.000000 0.000000
vn 1.000000 0.000000 0.000000
vn 1.000000 0.000000 0.000000
vn -1.000000 0.000000 0.000000
vn -1.000000 0.000000 0.000000
vn -1.000000 0.000000 0.000000
vn -1.000000 0.000000 0.000000
s off
g S_P15_01_low S_P15_01_low
usemtl set3
f 3/1/1 1/12/2 2/3/3 4/4/4
f 3/1/5 4/4/6 6/5/7 5/6/8
f 8/10/9 7/8/10 5/6/11 6/5/12
f 2/9/13 8/7/14 6/5/15 4/4/16
f 7/11/17 1/2/18 3/1/19 5/6/20
g default
v -46.749966 19.340069 23.780279
v 56.641171 19.340069 23.780279
v -46.749966 31.350761 23.780279
v 56.641171 31.350761 23.780279
v -46.749966 31.350761 -23.780281
v 56.641171 31.350761 -23.780281
v -46.749966 19.340069 -23.780281
v 56.641171 19.340069 -23.780281
vt 0.737480 0.571399
vt 0.710900 0.571400
vt 0.966286 0.544817
vt 0.966286 0.571397
vt 0.966287 0.676649
vt 0.737481 0.676651
vt 0.992867 0.676648
vt 0.737482 0.703231
vt 0.992866 0.571396
vt 0.966287 0.703228
vt 0.710901 0.676652
vt 0.737480 0.544819
vn 0.000000 0.000000 1.000000
vn 0.000000 0.000000 1.000000
vn 0.000000 0.000000 1.000000
vn 0.000000 0.000000 1.000000
vn 0.000000 1.000000 0.000000
vn 0.000000 1.000000 0.000000
vn 0.000000 1.000000 0.000000
vn 0.000000 1.000000 0.000000
vn 0.000000 0.000000 -1.000000
vn 0.000000 0.000000 -1.000000
vn 0.000000 0.000000 -1.000000
vn 0.000000 0.000000 -1.000000
vn 1.000000 0.000000 0.000000
vn 1.000000 0.000000 0.000000
vn 1.000000 0.000000 0.000000
vn 1.000000 0.000000 0.000000
vn -1.000000 0.000000 0.000000
vn -1.000000 0.000000 0.000000
vn -1.000000 0.000000 0.000000
vn -1.000000 0.000000 0.000000
s off
g S_P15_01_low S_P15_02_low
usemtl set3
f 11/13/21 9/24/22 10/15/23 12/16/24
f 11/13/25 12/16/26 14/17/27 13/18/28
f 16/22/29 15/20/30 13/18/31 14/17/32
f 10/21/33 16/19/34 14/17/35 12/16/36
f 15/23/37 9/14/38 11/13/39 13/18/40
g default
v -58.749783 8.011644 18.693897
v 50.690884 8.011644 18.693897
v -58.749783 8.011644 -18.693897
v 50.690884 8.011644 -18.693897
v -58.749783 151.900589 18.693897
v 50.690884 151.900589 18.693897
v 50.690884 151.900589 -18.693897
v -58.749783 151.900589 -18.693897
v -42.296543 165.848999 11.107645
v 34.237644 165.848999 11.107645
v 34.237644 165.848999 -11.107645
v -42.296543 165.848999 -11.107645
v -52.613167 158.874802 15.807708
v -52.613167 158.874802 -15.807708
v 44.554268 158.874802 -15.807708
v 44.554268 158.874802 15.807708
vt 0.411579 0.003930
vt 0.653773 0.003906
vt 0.003938 0.322399
vt 0.411611 0.322358
vt 0.086646 0.003963
vt 0.086678 0.322391
vt 0.328839 0.003939
vt 0.328871 0.322367
vt 0.081385 0.575328
vt 0.323579 0.575314
vt 0.309999 0.592018
vt 0.094966 0.592031
vt 0.003906 0.620324
vt 0.880385 0.003907
vt 0.232519 0.637031
vt 0.017486 0.637028
vt 0.117798 0.610641
vt 0.897174 0.052023
vt 0.040317 0.655640
vt 0.287169 0.610631
vt 0.003906 0.003971
vt 0.653804 0.322334
vt 0.886773 0.024465
vt 0.209688 0.655643
vt 0.956738 0.024464
vt 0.946337 0.052023
vt 0.246100 0.620328
vt 0.963125 0.003906
vn 0.000000 0.000000 1.000000
vn 0.000000 0.000000 1.000000
vn 0.000000 0.000000 1.000000
vn 0.000000 0.000000 1.000000
vn 1.000000 0.000000 0.000000
vn 1.000000 0.000000 0.000000
vn 1.000000 0.000000 0.000000
vn 1.000000 0.000000 0.000000
vn 0.000000 0.000000 -1.000000
vn 0.000000 0.000000 -1.000000
vn 0.000000 0.000000 -1.000000
vn 0.000000 0.000000 -1.000000
vn -1.000000 0.000000 0.000000
vn -1.000000 0.000000 0.000000
vn -1.000000 0.000000 0.000000
vn -1.000000 0.000000 0.000000
vn 0.000000 0.382386 0.924002
vn 0.000000 0.382386 0.924002
vn 0.000000 0.422919 0.906168
vn 0.000000 0.422919 0.906168
vn 0.000000 0.382386 -0.924002
vn 0.000000 0.382386 -0.924002
vn 0.000000 0.422919 -0.906168
vn 0.000000 0.422919 -0.906168
vn -0.750750 0.660586 0.000000
vn -0.750750 0.660586 0.000000
vn -0.679137 0.734011 0.000000
vn -0.679137 0.734011 0.000000
vn -0.560051 0.828458 0.000000
vn -0.560051 0.828458 0.000000
vn 0.000000 0.558859 -0.829263
vn 0.000000 0.558859 -0.829263
vn 0.000000 0.558859 0.829263
vn 0.000000 0.558859 0.829263
s off
g S_P15_01_low S_P15_03_low
usemtl set3
f 17/25/41 18/26/42 22/46/43 21/28/44
f 18/45/45 20/29/46 23/30/47 22/27/48
f 20/29/49 19/31/50 24/32/51 23/30/52
f 19/31/53 17/25/54 21/28/55 24/32/56
s 1
f 21/33/57 22/34/58 32/35/59 29/36/60
s 2
f 23/37/61 24/51/62 30/39/63 31/40/64
s 3
f 24/38/65 21/52/66 29/49/67 30/47/68
f 30/47/68 29/49/67 25/50/69 28/42/70
s 2
f 31/40/64 30/39/63 28/48/71 27/43/72
s 1
f 29/36/60 32/35/59 26/44/73 25/41/74
g default
v -40.098804 46.708603 -20.035114
v -40.098804 164.543884 -20.035114
v 51.722958 46.708603 -20.035114
v 51.722958 135.573914 -20.035114
v 43.237858 156.058807 -20.035114
v 49.517754 146.660278 -20.035114
v 33.839348 162.338776 -20.035114
v 22.753021 164.543884 -20.035114
vt 0.870521 0.535133
vt 0.731429 0.535133
vt 0.706895 0.530253
vt 0.686096 0.516355
vt 0.667319 0.471022
vt 0.667319 0.274362
vt 0.870521 0.274362
vt 0.672199 0.495556
vn 0.000000 0.000000 -1.000000
vn 0.000000 0.000000 -1.000000
vn 0.000000 0.000000 -1.000000
vn 0.000000 0.000000 -1.000000
vn 0.000000 0.000000 -1.000000
vn 0.000000 0.000000 -1.000000
vn 0.000000 0.000000 -1.000000
vn 0.000000 0.000000 -1.000000
s 1
g S_P15_01_low S_P15_04_low
usemtl set3
f 34/53/75 40/54/76 39/55/77 37/56/78
f 34/53/75 36/57/79 35/58/80 33/59/81
f 34/53/75 37/56/78 38/60/82 36/57/79
g default
v -40.098804 164.543884 20.035130
v -40.098804 46.708603 20.035130
v 51.722958 46.708603 20.035130
v 51.722958 135.573914 20.035130
v 49.517754 146.660278 20.035130
v 43.237858 156.058807 20.035130
v 33.839348 162.338776 20.035130
v 22.753021 164.543884 20.035130
vt 0.870521 0.200566
vt 0.667319 0.264677
vt 0.667319 0.003906
vt 0.870521 0.003906
vt 0.865641 0.225101
vt 0.851744 0.245900
vt 0.830945 0.259797
vt 0.806410 0.264677
vn 0.000000 0.000000 1.000000
vn 0.000000 0.000000 1.000000
vn 0.000000 0.000000 1.000000
vn 0.000000 0.000000 1.000000
vn 0.000000 0.000000 1.000000
vn 0.000000 0.000000 1.000000
vn 0.000000 0.000000 1.000000
vn 0.000000 0.000000 1.000000
s 1
g S_P15_01_low S_P15_05_low
usemtl set3
f 44/61/83 41/62/84 42/63/85 43/64/86
f 45/65/87 46/66/88 41/62/84 44/61/83
f 41/62/84 46/66/88 47/67/89 48/68/90
g default
v -47.212097 36.006454 23.780279
v -47.212097 36.006454 -23.780279
v 55.913193 150.860046 23.780279
v 49.050751 161.130280 23.780279
v 38.780396 167.992935 23.780279
v 26.665632 170.402512 23.780279
v 58.322975 138.745163 23.780279
v 58.322975 138.745163 -23.780279
v 26.665632 170.402512 -23.780279
v 38.780396 167.992935 -23.780279
v 49.050751 161.130280 -23.780279
v 55.913193 150.860046 -23.780279
v 40.997265 153.039551 23.780279
v 46.901211 144.203659 23.780279
v 32.161427 158.943542 23.780279
v 21.738808 161.016663 23.780279
v -37.350235 50.235909 23.780279
v 48.974384 133.781006 23.780279
v 48.974384 133.781006 -23.780279
v -37.350235 50.235909 -23.780279
v 21.738808 161.016663 -23.780279
v 32.161427 158.943542 -23.780279
v 40.997265 153.039551 -23.780279
v 46.901211 144.203659 -23.780279
v 52.352028 36.006454 23.780279
v 58.322975 41.977402 23.780279
v 58.322975 41.977402 -23.780279
v 52.352028 36.006454 -23.780279
v -47.212097 164.494202 23.780279
v -41.303783 170.402512 23.780279
v -31.441921 161.016663 23.780279
v -37.350235 155.108353 23.780279
v 43.003437 50.235909 23.780279
v 48.974384 56.206856 23.780279
v 48.974384 56.206856 -23.780279
v 43.003437 50.235909 -23.780279
v -41.303783 170.402512 -23.780279
v -47.212097 164.494202 -23.780279
v -37.350235 155.108353 -23.780279
v -31.441921 161.016663 -23.780279
vt 0.650009 0.495512
vt 0.296817 0.337387
vt 0.319547 0.352570
vt 0.644681 0.522323
vt 0.301646 0.370396
vt 0.624652 0.507679
vt 0.282089 0.357333
vt 0.629236 0.484613
vt 0.334738 0.375296
vt 0.629498 0.545054
vt 0.314715 0.389947
vt 0.340075 0.402105
vt 0.319306 0.413012
vt 0.270005 0.332059
vt 0.259023 0.352749
vt 0.611590 0.527235
vt 0.606772 0.560245
vt 0.592038 0.540304
vt 0.579963 0.565582
vt 0.568973 0.544895
vt 0.042646 0.345311
vt 0.055857 0.332095
vt 0.087351 0.352778
vt 0.074139 0.365994
vt 0.365814 0.565619
vt 0.352598 0.552407
vt 0.384085 0.531713
vt 0.397301 0.544925
vt 0.340101 0.552522
vt 0.327028 0.565600
vt 0.636906 0.332022
vt 0.649983 0.345095
vt 0.306253 0.543779
vt 0.319326 0.530701
vt 0.629216 0.366923
vt 0.616139 0.353850
vt 0.042683 0.565648
vt 0.352561 0.332070
vt 0.074169 0.543818
vt 0.384055 0.353889
vt 0.327396 0.890841
vt 0.327396 0.996093
vt 0.300061 0.996093
vt 0.300061 0.890841
vt 0.272725 0.996093
vt 0.272725 0.890841
vt 0.245390 0.996093
vt 0.245390 0.890841
vt 0.218054 0.996093
vt 0.218054 0.890841
vt 0.796572 0.996069
vt 0.773055 0.996066
vt 0.773068 0.890814
vt 0.796586 0.890817
vt 0.749538 0.996063
vt 0.749551 0.890811
vt 0.726020 0.996060
vt 0.726034 0.890808
vt 0.820090 0.996072
vt 0.820103 0.890820
vt 0.003906 0.996093
vt 0.022606 0.775843
vt 0.022593 0.881095
vt 0.003906 0.881093
vt 0.527288 0.775906
vt 0.477813 0.996093
vt 0.477813 0.890841
vt 0.496304 0.890841
vt 0.608331 0.996045
vt 0.589840 0.996043
vt 0.565645 0.881108
vt 0.608344 0.890793
vt 0.975535 0.775790
vt 0.994222 0.775787
vt 0.991775 0.890842
vt 0.975552 0.881042
vt 0.242943 0.775871
vt 0.242930 0.881123
vt 0.797712 0.775819
vt 0.797729 0.881071
vt 0.991762 0.996094
vt 0.994239 0.881039
vt 0.565628 0.775856
vt 0.589853 0.890791
vt 0.527275 0.881158
vt 0.496304 0.996093
vt 0.003906 0.890841
vt 0.003919 0.775841
vn 0.030074 0.999548 0.000000
vn 0.030074 0.999548 0.000000
vn 0.382684 0.923879 0.000000
vn 0.382684 0.923879 0.000000
vn 0.707109 0.707105 0.000000
vn 0.707109 0.707105 0.000000
vn 0.923880 0.382684 0.000000
vn 0.923880 0.382684 0.000000
vn 0.999755 0.022127 0.000000
vn 0.999755 0.022127 0.000000
vn 0.000000 0.000000 1.000000
vn 0.000000 0.000000 1.000000
vn 0.000000 0.000000 1.000000
vn 0.000000 0.000000 1.000000
vn 0.000000 0.000000 1.000000
vn 0.000000 0.000000 1.000000
vn 0.000000 0.000000 1.000000
vn 0.000000 0.000000 1.000000
vn 0.000000 0.000000 1.000000
vn 0.000000 0.000000 1.000000
vn 0.000000 0.000000 1.000000
vn 0.000000 0.000000 1.000000
vn 0.000000 0.000000 1.000000
vn 0.000000 0.000000 1.000000
vn 0.000000 0.000000 1.000000
vn 0.000000 0.000000 1.000000
vn -0.000000 0.000000 -1.000000
vn -0.000000 0.000000 -1.000000
vn -0.000000 0.000000 -1.000000
vn -0.000000 0.000000 -1.000000
vn 0.000000 0.000000 -1.000000
vn 0.000000 0.000000 -1.000000
vn 0.000000 0.000000 -1.000000
vn 0.000000 0.000000 -1.000000
vn -0.000000 0.000000 -1.000000
vn -0.000000 0.000000 -1.000000
vn -0.000000 0.000000 -1.000000
vn -0.000000 0.000000 -1.000000
vn 0.000000 0.000000 -1.000000
vn 0.000000 0.000000 -1.000000
vn 0.000000 0.000000 -1.000000
vn 0.000000 0.000000 -1.000000
vn -0.831470 -0.555570 0.000000
vn -0.831470 -0.555570 0.000000
vn -0.831470 -0.555570 0.000000
vn -0.831470 -0.555570 0.000000
vn -0.555575 -0.831467 0.000000
vn -0.555575 -0.831467 0.000000
vn -0.555575 -0.831467 0.000000
vn -0.555575 -0.831467 0.000000
vn -0.195084 -0.980787 0.000000
vn -0.032577 -0.999469 0.000000
vn -0.032577 -0.999469 0.000000
vn -0.195084 -0.980787 0.000000
vn -0.999723 -0.023553 0.000000
vn -0.980786 -0.195088 0.000000
vn -0.980786 -0.195088 0.000000
vn -0.999723 -0.023553 0.000000
vn -0.000000 0.000000 1.000000
vn 0.000000 0.000000 1.000000
vn 0.000000 0.000000 1.000000
vn -0.000000 0.000000 1.000000
vn 0.707107 -0.707107 0.000000
vn 0.707107 -0.707107 0.000000
vn 0.707107 -0.707107 0.000000
vn 0.707107 -0.707107 0.000000
vn 0.000000 0.000000 -1.000000
vn 0.000000 0.000000 -1.000000
vn 0.000000 0.000000 -1.000000
vn 0.000000 0.000000 -1.000000
vn -0.707107 0.707107 0.000000
vn -0.707107 0.707107 0.000000
vn -0.707107 0.707107 0.000000
vn -0.707107 0.707107 0.000000
vn 0.000000 0.000000 1.000000
vn 0.000000 0.000000 1.000000
vn 0.000000 0.000000 1.000000
vn 0.000000 0.000000 1.000000
vn 0.707107 -0.707107 0.000000
vn 0.707107 -0.707107 0.000000
vn 0.707107 -0.707107 0.000000
vn 0.707107 -0.707107 0.000000
vn -0.707107 0.707107 0.000000
vn -0.707107 0.707107 0.000000
vn -0.707107 0.707107 0.000000
vn -0.707107 0.707107 0.000000
vn 0.000000 0.000000 -1.000000
vn 0.000000 0.000000 -1.000000
vn 0.000000 0.000000 -1.000000
vn 0.000000 0.000000 -1.000000
vn 0.000000 1.000000 0.000000
vn 0.000000 1.000000 0.000000
vn 0.000000 -1.000000 0.000000
vn 0.000000 -1.000000 0.000000
vn 0.000000 -1.000000 0.000000
vn 0.000000 -1.000000 0.000000
vn 1.000000 0.000000 0.000000
vn 1.000000 0.000000 0.000000
vn -1.000000 0.000000 0.000000
vn -1.000000 0.000000 0.000000
vn -1.000000 0.000000 0.000000
vn -1.000000 0.000000 0.000000
vn 0.000000 0.000000 1.000000
vn 0.000000 0.000000 1.000000
vn 0.000000 0.000000 -1.000000
vn 0.000000 0.000000 -1.000000
vn 0.000000 -1.000000 0.000000
vn 0.000000 -1.000000 0.000000
vn 1.000000 0.000000 0.000000
vn 1.000000 0.000000 0.000000
vn 1.000000 0.000000 0.000000
vn 1.000000 0.000000 0.000000
vn 0.000000 1.000000 0.000000
vn 0.000000 1.000000 0.000000
vn 0.000000 1.000000 0.000000
vn 0.000000 1.000000 0.000000
vn -1.000000 0.000000 0.000000
vn -1.000000 0.000000 0.000000
s 1
g S_P15_01_low S_P15_06_low
usemtl set3
f 57/109/91 54/110/92 53/111/93 58/112/94
f 53/111/93 52/113/95 59/114/96 58/112/94
f 52/113/95 51/115/97 60/116/98 59/114/96
f 51/115/97 55/117/99 56/118/100 60/116/98
s off
f 51/70/101 52/71/102 61/73/103 62/75/104
f 52/71/105 53/77/106 63/79/107 61/73/108
s 2
f 53/77/109 54/80/110 64/81/111 63/79/112
f 55/82/113 51/70/114 62/75/115 66/83/116
s 4
f 57/69/117 58/72/118 70/74/119 69/76/120
s off
f 58/72/121 59/78/122 71/84/123 70/74/124
f 59/78/125 60/85/126 72/86/127 71/84/128
s 4
f 60/85/129 56/87/130 67/88/131 72/86/132
s off
f 62/119/133 61/120/134 71/121/135 72/122/136
f 61/120/137 63/123/138 70/124/139 71/121/140
s 6
f 63/123/141 64/125/142 69/126/143 70/124/144
s 7
f 66/127/145 62/119/146 72/122/147 67/128/148
s 2
f 73/89/149 74/90/150 82/91/151 81/92/152
s off
f 74/156/153 73/130/154 76/131/155 75/132/156
s 4
f 75/93/157 76/94/158 84/95/159 83/96/160
s off
f 77/154/161 78/134/162 85/135/163 86/136/164
s 2
f 78/97/165 77/98/166 80/101/167 79/102/168
s off
f 79/137/169 80/138/170 87/152/171 88/140/172
f 81/141/173 82/142/174 83/150/175 84/144/176
s 4
f 86/99/177 85/100/178 88/103/179 87/104/180
s 1
f 78/134/181 54/110/92 57/109/91 85/135/182
s off
f 73/130/183 49/145/184 50/146/185 76/131/186
s 1
f 55/117/99 74/129/187 75/155/188 56/118/100
s off
f 49/145/189 77/133/190 86/153/191 50/146/192
s 2
f 54/80/110 78/97/165 79/102/168 64/81/111
f 77/98/166 49/105/193 65/107/194 80/101/167
f 49/105/193 73/89/149 81/92/152 65/107/194
f 74/90/150 55/82/113 66/83/116 82/91/151
s 4
f 56/87/130 75/93/157 83/96/160 67/88/131
f 76/94/158 50/106/195 68/108/196 84/95/159
f 50/106/195 86/99/177 87/104/180 68/108/196
f 85/100/178 57/69/117 69/76/120 88/103/179
s 6
f 69/126/143 64/125/142 79/137/197 88/140/198
s off
f 87/139/199 80/151/200 65/147/201 68/148/202
f 68/148/203 65/147/204 81/141/205 84/144/206
s 7
f 83/143/207 82/149/208 66/127/145 67/128/148
