# This file uses centimeters as units for non-parametric coordinates.

mtllib S_P13_01_LP.mtl
g default
v -164.343811 7.443076 -2.644775
v -164.343811 10.087851 -3.740276
v -164.343811 12.732625 -2.644775
v -164.343811 13.828127 0.000000
v -164.343811 12.732625 2.644775
v -164.343811 10.087851 3.740276
v -164.343811 7.443076 2.644775
v -164.343811 6.347574 0.000000
v -34.134609 7.443076 -2.644775
v -34.134609 10.087851 -3.740276
v -34.134609 12.732626 -2.644775
v -34.134609 13.828127 0.000000
v -34.134609 12.732626 2.644775
v -34.134609 10.087851 3.740276
v -34.134609 7.443076 2.644775
v -34.134609 6.347574 0.000000
v -60.682007 -7.778644 -2.644775
v -61.817730 -5.390132 -3.740276
v -62.953442 -3.001621 -2.644775
v -63.423874 -2.012267 0.000000
v -62.953442 -3.001621 2.644775
v -61.817730 -5.390132 3.740276
v -60.682007 -7.778644 2.644775
v -60.211578 -8.767999 0.000000
v -34.134613 -1.191656 -2.644775
v -34.134613 1.453118 -3.740276
v -34.134621 4.097894 -2.644775
v -34.134621 5.193396 0.000000
v -34.134621 4.097894 2.644775
v -34.134613 1.453118 3.740276
v -34.134613 -1.191656 2.644775
v -34.134613 -2.287158 0.000000
v -91.786163 -17.811464 3.740276
v -90.472641 -20.107000 2.644775
v -93.099678 -15.515920 2.644775
v -93.643761 -14.565078 0.000000
v -93.099678 -15.515920 -2.644775
v -91.786163 -17.811464 -3.740276
v -90.472641 -20.107000 -2.644775
v -89.928551 -21.057844 0.000000
v -119.520920 -33.165195 3.740276
v -118.207413 -35.460732 2.644775
v -120.834442 -30.869656 2.644775
v -121.378525 -29.918812 0.000000
v -120.834442 -30.869656 -2.644775
v -119.520920 -33.165195 -3.740276
v -118.207413 -35.460732 -2.644775
v -117.663345 -36.411575 0.000000
v -142.863312 -52.369518 3.740276
v -141.069412 -54.312916 2.644775
v -144.657211 -50.426136 2.644775
v -145.400269 -49.621162 0.000000
v -144.657211 -50.426136 -2.644775
v -142.863312 -52.369518 -3.740276
v -141.069412 -54.312916 -2.644775
v -140.326340 -55.117882 0.000000
v -167.552521 -80.644333 3.740276
v -165.573898 -82.399300 2.644775
v -169.531143 -78.889374 2.644775
v -170.350723 -78.162453 0.000000
v -169.531143 -78.889374 -2.644775
v -167.552521 -80.644333 -3.740276
v -165.573898 -82.399300 -2.644775
v -164.754318 -83.126213 0.000000
v -23.971584 10.087852 -3.740276
v -23.971584 12.732626 -2.644775
v -23.971584 13.828128 0.000000
v -23.971584 12.732626 2.644775
v -23.971584 10.087852 3.740276
v -23.971584 1.453118 -3.740276
v -23.971584 1.453118 3.740276
v -23.971584 -1.191656 -2.644775
v -23.971584 -1.191656 2.644775
v -23.971584 -2.287158 0.000000
vt 0.767497 0.810711
vt 0.749760 0.810708
vt 0.749862 0.003923
vt 0.767600 0.003925
vt 0.732023 0.810706
vt 0.732125 0.003921
vt 0.714285 0.810704
vt 0.714387 0.003918
vt 0.696548 0.810702
vt 0.211588 0.386363
vt 0.696650 0.003916
vt 0.678811 0.810700
vt 0.678913 0.003914
vt 0.661073 0.810697
vt 0.661175 0.003912
vt 0.643336 0.810695
vt 0.785337 0.003928
vt 0.181264 0.363184
vt 0.511739 0.820696
vt 0.529346 0.820696
vt 0.529346 0.996094
vt 0.511739 0.996094
vt 0.547014 0.820696
vt 0.547014 0.996094
vt 0.564893 0.820696
vt 0.564893 0.996094
vt 0.582750 0.820696
vt 0.582750 0.996094
vt 0.600366 0.820696
vt 0.600366 0.996094
vt 0.617922 0.820696
vt 0.617922 0.996094
vt 0.635631 0.820696
vt 0.494008 0.996094
vt 0.600366 0.619827
vt 0.617922 0.619827
vt 0.582750 0.619827
vt 0.564893 0.619827
vt 0.547014 0.619827
vt 0.529346 0.619827
vt 0.511739 0.619827
vt 0.635631 0.619827
vt 0.600366 0.422520
vt 0.617922 0.422520
vt 0.582750 0.422520
vt 0.564893 0.422520
vt 0.547014 0.422520
vt 0.529346 0.422520
vt 0.511739 0.422520
vt 0.635631 0.422520
vt 0.600366 0.235845
vt 0.617922 0.235845
vt 0.582750 0.235845
vt 0.564893 0.235845
vt 0.547014 0.235845
vt 0.529346 0.235845
vt 0.511739 0.235845
vt 0.635631 0.235845
vt 0.600366 0.003910
vt 0.617922 0.003910
vt 0.582750 0.003910
vt 0.564893 0.003910
vt 0.547014 0.003910
vt 0.529346 0.003910
vt 0.511739 0.003910
vt 0.635631 0.003910
vt 0.643438 0.003910
vt 0.785235 0.810713
vt 0.122603 0.449322
vt 0.371513 0.386385
vt 0.796493 0.027081
vt 0.796493 0.080583
vt 0.842843 0.080583
vt 0.803280 0.096970
vt 0.819668 0.103758
vt 0.836055 0.096970
vt 0.229325 0.386366
vt 0.229316 0.449336
vt 0.211579 0.449334
vt 0.247062 0.386368
vt 0.247054 0.449339
vt 0.264800 0.386370
vt 0.264791 0.449341
vt 0.282537 0.386373
vt 0.282528 0.449344
vt 0.158078 0.449327
vt 0.158086 0.386356
vt 0.336039 0.386380
vt 0.336030 0.449351
vt 0.140349 0.386353
vt 0.140340 0.449324
vt 0.353776 0.386383
vt 0.353767 0.449353
vt 0.122611 0.386351
vt 0.371505 0.449356
vt 0.298925 0.379587
vt 0.319652 0.379590
vt 0.188416 0.363185
vt 0.312867 0.363202
vt 0.195201 0.379573
vt 0.174474 0.379570
vt 0.305715 0.363201
vt 0.819668 0.003906
vt 0.836055 0.010694
vt 0.803280 0.010694
vt 0.842843 0.027081
vt 0.494008 0.235845
vt 0.494008 0.003910
vt 0.494008 0.422520
vt 0.494008 0.619827
vt 0.494008 0.820696
vt 0.635631 0.996094
vn 0.000000 -0.382683 -0.923880
vn 0.000000 -0.382683 -0.923880
vn 0.000000 -0.382683 -0.923880
vn 0.000000 -0.382683 -0.923880
vn -0.000000 0.382683 -0.923880
vn -0.000000 0.382683 -0.923880
vn -0.000000 0.382683 -0.923880
vn -0.000000 0.382683 -0.923880
vn -0.000000 0.923880 -0.382683
vn -0.000000 0.923880 -0.382683
vn -0.000000 0.923880 -0.382683
vn -0.000000 0.923880 -0.382683
vn -0.000000 0.923880 0.382683
vn -0.000000 0.923880 0.382683
vn -0.000000 0.923880 0.382683
vn -0.000000 0.923880 0.382683
vn -0.000000 0.382683 0.923880
vn -0.000000 0.382683 0.923880
vn -0.000000 0.382683 0.923880
vn -0.000000 0.382683 0.923880
vn 0.000000 -0.382683 0.923880
vn 0.000000 -0.382683 0.923880
vn 0.000000 -0.382683 0.923880
vn 0.000000 -0.382683 0.923880
vn 0.000000 -0.923880 0.382684
vn 0.000000 -0.923880 0.382684
vn 0.000000 -0.923880 0.382684
vn 0.000000 -0.923880 0.382684
vn 0.000000 -0.923880 -0.382684
vn 0.000000 -0.923880 -0.382684
vn 0.000000 -0.923880 -0.382684
vn 0.000000 -0.923880 -0.382684
vn 0.093973 -0.379459 -0.920424
vn 0.093973 -0.379459 -0.920424
vn 0.093973 -0.379459 -0.920424
vn 0.093973 -0.379459 -0.920424
vn -0.093656 0.379531 -0.920426
vn -0.093656 0.379531 -0.920426
vn -0.093656 0.379531 -0.920426
vn -0.093656 0.379531 -0.920426
vn -0.221642 0.900318 -0.374569
vn -0.221642 0.900318 -0.374569
vn -0.221642 0.900318 -0.374569
vn -0.221642 0.900318 -0.374569
vn -0.221642 0.900318 0.374569
vn -0.221642 0.900318 0.374569
vn -0.221642 0.900318 0.374569
vn -0.221642 0.900318 0.374569
vn -0.093656 0.379531 0.920426
vn -0.093656 0.379531 0.920426
vn -0.093656 0.379531 0.920426
vn -0.093656 0.379531 0.920426
vn 0.093973 -0.379459 0.920424
vn 0.093973 -0.379459 0.920424
vn 0.093973 -0.379459 0.920424
vn 0.093973 -0.379459 0.920424
vn 0.223459 -0.899875 0.374555
vn 0.223459 -0.899875 0.374555
vn 0.223459 -0.899875 0.374555
vn 0.223459 -0.899875 0.374555
vn 0.223459 -0.899875 -0.374556
vn 0.223459 -0.899875 -0.374556
vn 0.223459 -0.899874 -0.374556
vn 0.223459 -0.899875 -0.374556
vn 0.147018 -0.354980 0.923242
vn 0.147018 -0.354980 0.923242
vn 0.147018 -0.354980 0.923242
vn 0.147018 -0.354980 0.923242
vn -0.147206 0.354884 0.923248
vn -0.147206 0.354884 0.923248
vn -0.147206 0.354884 0.923248
vn -0.147206 0.354884 0.923248
vn -0.354548 0.853815 0.381178
vn -0.354548 0.853815 0.381178
vn -0.354548 0.853815 0.381178
vn -0.354548 0.853815 0.381178
vn -0.354548 0.853814 -0.381178
vn -0.354548 0.853815 -0.381178
vn -0.354548 0.853815 -0.381178
vn -0.354548 0.853814 -0.381178
vn -0.147206 0.354884 -0.923248
vn -0.147206 0.354884 -0.923248
vn -0.147206 0.354884 -0.923248
vn -0.147206 0.354884 -0.923248
vn 0.147018 -0.354980 -0.923242
vn 0.147018 -0.354980 -0.923242
vn 0.147018 -0.354980 -0.923242
vn 0.147018 -0.354980 -0.923242
vn 0.353422 -0.854298 -0.381141
vn 0.353422 -0.854298 -0.381141
vn 0.353422 -0.854298 -0.381141
vn 0.353422 -0.854298 -0.381141
vn 0.353422 -0.854298 0.381141
vn 0.353422 -0.854298 0.381141
vn 0.353422 -0.854298 0.381141
vn 0.353422 -0.854298 0.381141
vn 0.185361 -0.334833 0.923866
vn 0.185361 -0.334833 0.923866
vn 0.185361 -0.334833 0.923866
vn 0.185361 -0.334833 0.923866
vn -0.185360 0.334832 0.923866
vn -0.185360 0.334832 0.923866
vn -0.185360 0.334832 0.923866
vn -0.185360 0.334832 0.923866
vn -0.447469 0.808301 0.382651
vn -0.447469 0.808301 0.382651
vn -0.447469 0.808301 0.382651
vn -0.447469 0.808301 0.382651
vn -0.447469 0.808301 -0.382651
vn -0.447469 0.808301 -0.382651
vn -0.447469 0.808301 -0.382651
vn -0.447469 0.808301 -0.382651
vn -0.185360 0.334832 -0.923866
vn -0.185360 0.334832 -0.923866
vn -0.185360 0.334832 -0.923866
vn -0.185360 0.334832 -0.923866
vn 0.185361 -0.334833 -0.923866
vn 0.185361 -0.334833 -0.923866
vn 0.185361 -0.334833 -0.923866
vn 0.185361 -0.334833 -0.923866
vn 0.447468 -0.808301 -0.382651
vn 0.447468 -0.808301 -0.382651
vn 0.447468 -0.808301 -0.382651
vn 0.447468 -0.808301 -0.382651
vn 0.447468 -0.808301 0.382651
vn 0.447468 -0.808301 0.382651
vn 0.447468 -0.808301 0.382651
vn 0.447468 -0.808301 0.382651
vn 0.244956 -0.297401 0.922794
vn 0.244956 -0.297401 0.922794
vn 0.244956 -0.297401 0.922794
vn 0.244956 -0.297401 0.922794
vn -0.244616 0.297655 0.922802
vn -0.244616 0.297655 0.922802
vn -0.244616 0.297655 0.922802
vn -0.244616 0.297655 0.922802
vn -0.586719 0.715032 0.380118
vn -0.586719 0.715032 0.380118
vn -0.586720 0.715032 0.380118
vn -0.586719 0.715032 0.380118
vn -0.586719 0.715032 -0.380118
vn -0.586719 0.715032 -0.380118
vn -0.586719 0.715032 -0.380118
vn -0.586720 0.715032 -0.380118
vn -0.244616 0.297655 -0.922802
vn -0.244616 0.297655 -0.922803
vn -0.244616 0.297655 -0.922802
vn -0.244616 0.297655 -0.922802
vn 0.244956 -0.297401 -0.922794
vn 0.244956 -0.297401 -0.922794
vn 0.244956 -0.297401 -0.922794
vn 0.244956 -0.297401 -0.922794
vn 0.588631 -0.713485 -0.380068
vn 0.588631 -0.713485 -0.380068
vn 0.588631 -0.713485 -0.380068
vn 0.588631 -0.713485 -0.380068
vn 0.588631 -0.713485 0.380069
vn 0.588631 -0.713485 0.380069
vn 0.588631 -0.713485 0.380069
vn 0.588631 -0.713485 0.380069
vn 0.289027 -0.252271 0.923484
vn 0.289027 -0.252271 0.923484
vn 0.289027 -0.252271 0.923484
vn 0.289027 -0.252271 0.923484
vn -0.288920 0.252384 0.923487
vn -0.288920 0.252384 0.923487
vn -0.288920 0.252384 0.923487
vn -0.288920 0.252384 0.923486
vn -0.695913 0.608258 0.381743
vn -0.695913 0.608257 0.381743
vn -0.695913 0.608258 0.381743
vn -0.695913 0.608257 0.381743
vn -0.695913 0.608258 -0.381743
vn -0.695913 0.608258 -0.381743
vn -0.695913 0.608258 -0.381743
vn -0.695913 0.608258 -0.381743
vn -0.288920 0.252384 -0.923486
vn -0.288920 0.252384 -0.923487
vn -0.288920 0.252384 -0.923486
vn -0.288920 0.252384 -0.923487
vn 0.289028 -0.252272 -0.923484
vn 0.289028 -0.252272 -0.923484
vn 0.289028 -0.252272 -0.923484
vn 0.289028 -0.252272 -0.923484
vn 0.696514 -0.607582 -0.381724
vn 0.696514 -0.607582 -0.381724
vn 0.696514 -0.607582 -0.381724
vn 0.696514 -0.607582 -0.381724
vn 0.696514 -0.607582 0.381724
vn 0.696514 -0.607582 0.381724
vn 0.696514 -0.607582 0.381724
vn 0.696514 -0.607582 0.381724
vn 0.000000 0.382683 -0.923880
vn 0.000000 0.382683 -0.923880
vn 0.000000 0.382683 -0.923880
vn 0.000000 0.382683 -0.923880
vn -0.000000 0.923880 -0.382683
vn -0.000000 0.923880 -0.382683
vn -0.000000 0.923880 -0.382683
vn -0.000000 0.923880 -0.382683
vn -0.000000 0.923880 0.382683
vn -0.000000 0.923880 0.382683
vn -0.000000 0.923880 0.382683
vn -0.000000 0.923880 0.382683
vn 0.000000 0.382683 0.923880
vn 0.000000 0.382683 0.923880
vn 0.000000 0.382683 0.923880
vn 0.000000 0.382683 0.923880
vn 0.000000 0.000000 -1.000000
vn 0.000000 0.000000 -1.000000
vn 0.000000 0.000000 -1.000000
vn 0.000000 0.000000 -1.000000
vn 0.000000 0.000000 1.000000
vn 0.000000 0.000000 1.000000
vn 0.000000 0.000000 1.000000
vn 0.000000 0.000000 1.000000
vn 0.000000 -0.382683 -0.923880
vn 0.000000 -0.382683 -0.923880
vn 0.000000 -0.382683 -0.923880
vn 0.000000 -0.382683 -0.923880
vn -0.000000 -0.382683 0.923880
vn -0.000000 -0.382683 0.923880
vn -0.000000 -0.382683 0.923880
vn -0.000000 -0.382683 0.923880
vn -0.000000 -0.923880 0.382683
vn -0.000000 -0.923880 0.382683
vn -0.000000 -0.923880 0.382683
vn -0.000000 -0.923880 0.382683
vn 0.000000 -0.923880 -0.382684
vn 0.000000 -0.923880 -0.382684
vn 0.000000 -0.923880 -0.382684
vn 0.000000 -0.923880 -0.382684
vn 1.000000 -0.000000 0.000000
vn 1.000000 0.000000 0.000000
vn 1.000000 -0.000000 0.000000
vn -1.000000 0.000003 0.000003
vn -1.000000 0.000003 0.000003
vn -1.000000 0.000002 0.000003
vn -1.000000 0.000002 0.000003
vn 1.000000 -0.000000 0.000000
vn 1.000000 -0.000000 0.000000
vn 1.000000 -0.000000 0.000000
vn 1.000000 -0.000000 0.000000
vn 1.000000 -0.000001 0.000000
vn 1.000000 -0.000001 0.000000
vn 1.000000 0.000001 0.000000
vn -1.000000 0.000005 0.000000
vn -1.000000 0.000005 0.000000
vn -1.000000 0.000002 -0.000003
vn -1.000000 0.000002 -0.000003
vn -1.000000 0.000001 -0.000003
vn -1.000000 0.000001 -0.000003
s off
g S_P13_01_01_low S_P13_01_low
usemtl set1
f 1/1/1 2/2/2 10/3/3 9/4/4
f 2/2/5 3/5/6 11/6/7 10/3/8
f 3/5/9 4/7/10 12/8/11 11/6/12
f 4/7/13 5/9/14 13/11/15 12/8/16
f 5/9/17 6/12/18 14/13/19 13/11/20
f 6/12/21 7/14/22 15/15/23 14/13/24
f 7/14/25 8/16/26 16/67/27 15/15/28
f 8/68/29 1/1/30 9/4/31 16/17/32
f 17/19/33 18/20/34 26/21/35 25/22/36
f 18/20/37 19/23/38 27/24/39 26/21/40
f 19/23/41 20/25/42 28/26/43 27/24/44
f 20/25/45 21/27/46 29/28/47 28/26/48
f 21/27/49 22/29/50 30/30/51 29/28/52
f 22/29/53 23/31/54 31/32/55 30/30/56
f 23/31/57 24/33/58 32/112/59 31/32/60
f 24/111/61 17/19/62 25/22/63 32/34/64
f 23/31/65 22/29/66 33/35/67 34/36/68
f 22/29/69 21/27/70 35/37/71 33/35/72
f 21/27/73 20/25/74 36/38/75 35/37/76
f 20/25/77 19/23/78 37/39/79 36/38/80
f 19/23/81 18/20/82 38/40/83 37/39/84
f 18/20/85 17/19/86 39/41/87 38/40/88
f 17/19/89 24/111/90 40/110/91 39/41/92
f 24/33/93 23/31/94 34/36/95 40/42/96
f 34/36/97 33/35/98 41/43/99 42/44/100
f 33/35/101 35/37/102 43/45/103 41/43/104
f 35/37/105 36/38/106 44/46/107 43/45/108
f 36/38/109 37/39/110 45/47/111 44/46/112
f 37/39/113 38/40/114 46/48/115 45/47/116
f 38/40/117 39/41/118 47/49/119 46/48/120
f 39/41/121 40/110/122 48/109/123 47/49/124
f 40/42/125 34/36/126 42/44/127 48/50/128
f 42/44/129 41/43/130 49/51/131 50/52/132
f 41/43/133 43/45/134 51/53/135 49/51/136
f 43/45/137 44/46/138 52/54/139 51/53/140
f 44/46/141 45/47/142 53/55/143 52/54/144
f 45/47/145 46/48/146 54/56/147 53/55/148
f 46/48/149 47/49/150 55/57/151 54/56/152
f 47/49/153 48/109/154 56/107/155 55/57/156
f 48/50/157 42/44/158 50/52/159 56/58/160
f 50/52/161 49/51/162 57/59/163 58/60/164
f 49/51/165 51/53/166 59/61/167 57/59/168
f 51/53/169 52/54/170 60/62/171 59/61/172
f 52/54/173 53/55/174 61/63/175 60/62/176
f 53/55/177 54/56/178 62/64/179 61/63/180
f 54/56/181 55/57/182 63/65/183 62/64/184
f 55/57/185 56/107/186 64/108/187 63/65/188
f 56/58/189 50/52/190 58/60/191 64/66/192
f 10/10/193 11/77/194 66/78/195 65/79/196
f 11/77/197 12/80/198 67/81/199 66/78/200
f 12/80/201 13/82/202 68/83/203 67/81/204
f 13/82/205 14/84/206 69/85/207 68/83/208
f 10/10/209 65/79/210 70/86/211 26/87/212
f 69/85/213 14/84/214 30/88/215 71/89/216
f 25/90/217 26/87/218 70/86/219 72/91/220
f 30/88/221 31/92/222 73/93/223 71/89/224
f 31/92/225 32/70/226 74/95/227 73/93/228
f 32/94/229 25/90/230 72/91/231 74/69/232
s 1
f 66/76/233 67/75/234 68/74/235
s 2
f 15/96/236 29/97/237 30/88/238 14/84/239
s 1
f 65/73/240 69/72/241 71/71/242 70/106/243
f 66/76/233 68/74/235 69/72/241 65/73/240
f 70/106/243 71/71/242 73/105/244 72/104/245
f 72/104/245 73/105/244 74/103/246
s 2
f 16/102/247 28/99/248 29/97/237 15/96/236
f 9/100/249 27/101/250 28/18/248 16/98/247
f 10/10/251 26/87/252 27/101/250 9/100/249
g default
v -28.555737 8.791290 4.747084
v 21.890938 8.791290 4.747084
v -28.555737 16.222319 6.959634
v 28.555737 16.222319 6.959634
v -28.555737 16.222319 -6.959634
v 28.555737 16.222319 -6.959634
v -28.555737 8.791290 -4.747084
v 21.890938 8.791290 -4.747084
v -21.296354 16.222319 6.959634
v -21.296354 16.222319 -6.959634
v -21.296389 8.791290 -4.747084
v -21.296389 8.791290 4.747084
v 20.183647 16.222319 6.959634
v 20.183647 16.222319 -6.959634
v 20.183619 8.791290 -4.747084
v 20.183619 8.791290 4.747084
v -11.941127 -7.288625 4.743298
v -11.941127 -7.288625 12.237021
v 10.828357 -7.288625 4.743298
v 10.828357 -7.288625 12.237021
v -3.593548 -10.828379 9.314099
v -3.593548 -10.828379 16.807819
v 2.480778 -10.828379 9.314099
v 2.480778 -10.828379 16.807819
v -20.280521 1.442679 -2.126095
v -17.579058 -3.044479 0.570059
v -20.291134 1.519449 7.340692
v -17.513939 -3.093500 9.512355
v 19.167948 1.444110 -2.126605
v 16.465075 -3.045393 0.570958
v 19.178360 1.519449 7.340692
v 16.401171 -3.093500 9.512355
vt 0.339295 0.003909
vt 0.339416 0.048889
vt 0.291375 0.049018
vt 0.291254 0.004038
vt 0.205130 0.049249
vt 0.205010 0.004269
vt 0.157090 0.049377
vt 0.156969 0.004398
vt 0.929903 0.049971
vt 0.929963 0.094950
vt 0.871136 0.095029
vt 0.871076 0.050050
vt 0.871131 0.499800
vt 0.929957 0.499875
vt 0.292064 0.306030
vt 0.205819 0.306261
vt 0.157779 0.306390
vt 0.340104 0.305901
vt 0.292203 0.357904
vt 0.205958 0.358135
vt 0.157807 0.316968
vt 0.340133 0.316480
vt 0.039588 0.107659
vt 0.039966 0.248739
vt 0.004007 0.197113
vt 0.003906 0.159477
vt 0.450371 0.247639
vt 0.449993 0.106558
vt 0.485952 0.158184
vt 0.486053 0.195821
vt 0.076374 0.072627
vt 0.108765 0.055801
vt 0.109430 0.300226
vt 0.076932 0.283566
vt 0.387269 0.054989
vt 0.418906 0.072112
vt 0.419469 0.282252
vt 0.387924 0.299544
vt 0.943587 0.561742
vt 0.857342 0.561631
vt 0.871144 0.489221
vt 0.929971 0.489297
vt 0.857305 0.004025
vt 0.943550 0.003909
vt 0.796493 0.273308
vt 0.842924 0.273307
vt 0.871247 0.367124
vt 0.824815 0.367125
vt 0.796493 0.310945
vt 0.842925 0.310944
vt 0.897099 0.410839
vt 0.913793 0.443319
vt 0.824813 0.217127
vt 0.871244 0.217127
vt 0.913785 0.140938
vt 0.897101 0.173402
vt 0.855133 0.443715
vt 0.841698 0.410344
vt 0.841694 0.173907
vt 0.855127 0.140536
vn 0.000000 -0.285364 0.958419
vn 0.000000 -0.285364 0.958419
vn 0.000000 -0.285364 0.958419
vn 0.000000 -0.285364 0.958419
vn 0.000000 1.000000 0.000000
vn 0.000000 1.000000 0.000000
vn 0.000000 1.000000 0.000000
vn 0.000000 1.000000 0.000000
vn 0.000000 -0.285364 -0.958419
vn 0.000000 -0.285364 -0.958419
vn 0.000000 -0.307415 -0.951576
vn 0.000000 -0.285364 -0.958419
vn 0.000000 -1.000000 0.000000
vn 0.000000 -1.000000 0.000000
vn 0.000000 -1.000000 0.000000
vn 0.000000 -1.000000 0.000000
vn 0.744445 -0.667684 0.000000
vn 0.744445 -0.667684 0.000000
vn 0.744445 -0.667684 0.000000
vn 0.744445 -0.667684 0.000000
vn -1.000000 0.000000 0.000000
vn -1.000000 0.000000 0.000000
vn -1.000000 0.000000 0.000000
vn -1.000000 0.000000 0.000000
vn 0.000000 1.000000 0.000000
vn 0.000000 1.000000 0.000000
vn 0.000000 -0.285364 -0.958419
vn 0.000000 -0.307996 -0.951388
vn 0.000000 -1.000000 0.000000
vn 0.000000 -1.000000 0.000000
vn 0.000000 -1.000000 0.000000
vn 0.000000 -1.000000 0.000000
vn 0.000000 -0.285364 0.958419
vn 0.000000 -0.285364 0.958419
vn 0.000000 1.000000 0.000000
vn 0.000000 1.000000 0.000000
vn 0.000000 -0.285364 -0.958419
vn 0.000000 -0.285364 -0.958419
vn 0.000000 -1.000000 0.000000
vn 0.000000 -1.000000 0.000000
vn 0.000000 -1.000000 0.000000
vn 0.000000 -1.000000 0.000000
vn 0.000000 -0.285364 0.958419
vn 0.000000 -0.285364 0.958419
vn -0.463599 -0.886045 0.000000
vn -0.524386 -0.851481 0.000000
vn -0.390396 -0.920647 0.000000
vn -0.390396 -0.920647 0.000000
vn 0.000000 -0.790634 -0.612289
vn -0.000000 -0.711952 -0.702228
vn -0.000000 -0.711952 -0.702228
vn 0.000000 -0.790634 -0.612289
vn 0.524380 -0.851484 0.000000
vn 0.463593 -0.886048 0.000000
vn 0.390396 -0.920647 0.000000
vn 0.390396 -0.920647 0.000000
vn 0.000000 0.580001 0.814616
vn 0.000000 0.790634 0.612289
vn 0.000000 0.790634 0.612289
vn 0.000000 0.580001 0.814616
vn -0.968295 -0.249810 0.000971
vn -0.775997 -0.630733 0.002123
vn -0.699857 -0.714282 0.001143
vn -0.939980 -0.341225 0.001769
vn 0.000006 -0.566165 -0.824292
vn 0.000002 -0.387950 -0.921681
vn 0.000002 -0.387946 -0.921682
vn 0.000006 -0.566170 -0.824289
vn 0.000000 0.360940 0.932589
vn 0.000000 0.451720 0.892160
vn 0.000000 0.451720 0.892160
vn 0.000000 0.360940 0.932589
vn 0.775993 -0.630738 0.002084
vn 0.968290 -0.249828 0.000953
vn 0.939957 -0.341290 0.001736
vn 0.699886 -0.714254 0.001122
vn -0.990580 -0.136937 0.000000
vn -0.990580 -0.136937 0.000000
vn 0.990580 -0.136938 0.000000
vn 0.990580 -0.136938 0.000000
vn 0.000000 0.335937 0.941885
vn 0.000000 0.335937 0.941885
s 1
g S_P13_01_low S_P13_01_02_low
usemtl set1
f 75/113/253 86/114/254 83/115/255 77/116/256
s 2
f 77/116/257 83/115/258 84/117/259 79/118/260
s 3
f 79/118/261 84/117/262 85/119/263 81/120/264
s off
f 81/121/265 85/122/266 86/123/267 75/124/268
f 76/125/269 82/126/270 80/151/271 78/152/272
f 81/121/273 75/124/274 77/155/275 79/156/276
s 2
f 84/117/259 83/115/258 87/127/277 88/128/278
s 3
f 85/119/263 84/117/262 88/128/279 89/129/280
s off
f 96/157/281 95/158/282 97/162/283 98/161/284
s 1
f 87/127/285 83/115/255 86/114/254 90/130/286
s 2
f 87/127/277 78/131/287 80/132/288 88/128/278
s 3
f 89/129/280 88/128/279 80/132/289 82/133/290
s off
f 90/153/291 89/154/292 82/126/293 76/125/294
s 1
f 87/127/285 90/130/286 76/134/295 78/131/296
s 4
f 92/165/297 91/166/298 95/158/299 96/157/300
s 3
f 95/138/301 91/135/302 93/136/303 97/137/304
s 6
f 93/159/305 94/160/306 98/161/307 97/162/308
s 7
f 92/140/309 96/141/310 98/142/311 94/139/312
s 4
f 99/167/313 100/168/314 102/171/315 101/172/316
s 3
f 100/143/317 99/144/318 103/145/319 104/146/320
s 7
f 101/147/321 102/148/322 106/149/323 105/150/324
s 6
f 104/163/325 103/164/326 105/169/327 106/170/328
s 4
f 86/123/329 85/122/330 99/167/313 101/172/316
s 3
f 99/144/318 85/119/263 89/129/280 103/145/319
s 6
f 89/154/331 90/153/332 105/169/327 103/164/326
s 7
f 86/114/333 101/147/321 105/150/324 90/130/334
s 4
f 102/171/315 100/168/314 91/166/298 92/165/297
s 3
f 91/135/302 100/143/317 104/146/320 93/136/303
s 6
f 104/163/325 106/170/328 94/160/306 93/159/305
s 7
f 102/148/322 92/140/309 94/139/312 106/149/323
