# This file uses centimeters as units for non-parametric coordinates.

mtllib S_P10_01_LP.mtl
g default
v -42.623215 -44.788239 42.623215
v 42.623215 -44.788239 42.623215
v -42.623215 -16.082378 42.623215
v -42.623215 -16.082378 -42.623215
v -42.623215 -44.788239 -42.623215
v 42.623215 -44.788239 -42.623215
v 42.623215 -25.491615 42.623215
v 42.623215 -25.491615 -42.623215
v -19.129528 -25.491615 42.623215
v -26.920456 -16.082378 42.623215
v -26.920456 -16.082378 -42.623215
v -19.129528 -25.491615 -42.623215
vt 0.994107 0.814541
vt 0.082949 0.953847
vt 0.538866 0.290705
vt 0.825664 0.290705
vt 0.628266 0.879460
vt 0.707308 0.814540
vt 0.290707 0.888926
vt 0.577505 0.888927
vt 0.420509 0.879460
vt 0.290706 0.953847
vt 0.056737 0.985503
vt 0.994106 0.911117
vt 0.538866 0.003906
vt 0.707307 0.911117
vt 0.654478 0.911116
vt 0.211664 0.412224
vt 0.003906 0.412256
vt 0.825664 0.003906
vt 0.305637 0.699008
vt 0.252807 0.699016
vt 0.252763 0.412218
vt 0.305593 0.412209
vt 0.211708 0.699023
vt 0.003950 0.699055
vt 0.577505 0.953848
vt 0.420509 0.814539
vt 0.003908 0.985502
vt 0.003908 0.888926
vn 0.000000 0.000000 1.000000
vn 0.000000 0.000000 1.000000
vn 0.757360 0.000000 0.652997
vn 0.757360 0.000000 0.652997
vn 0.000000 1.000000 0.000000
vn 0.371791 0.928316 0.000000
vn 0.371791 0.928316 0.000000
vn 0.000000 1.000000 0.000000
vn -0.944396 0.000000 -0.328809
vn -0.986182 0.000000 -0.165667
vn 0.000000 0.000000 -1.000000
vn 0.000000 0.000000 -1.000000
vn 0.000000 -1.000000 0.000000
vn 0.000000 -1.000000 0.000000
vn 0.000000 -1.000000 0.000000
vn 0.000000 -1.000000 0.000000
vn 1.000000 0.000000 0.000000
vn 1.000000 0.000000 0.000000
vn -1.000000 0.000000 0.000000
vn -1.000000 0.000000 0.000000
vn 0.134078 0.990971 0.000000
vn 0.000000 1.000000 0.000000
vn 0.000000 1.000000 0.000000
vn 0.134078 0.990971 0.000000
vn 0.000000 0.000000 -1.000000
vn 0.000000 0.000000 -1.000000
vn 0.000000 0.000000 1.000000
vn 0.000000 0.000000 1.000000
s 1
g btm_low S_P10_01_low
usemtl set5
f 9/2/1 1/28/2 2/7/3 7/10/4
s 2
f 3/19/5 10/20/6 11/21/7 4/22/8
s 3
f 5/6/9 4/14/10 11/15/11 12/5/12
s off
f 2/18/13 1/4/14 5/3/15 6/13/16
s 1
f 2/7/3 6/8/17 8/25/18 7/10/4
s 3
f 5/6/9 1/1/19 3/12/20 4/14/10
s 2
f 9/23/21 7/24/22 8/17/23 12/16/24
f 9/23/21 12/16/24 11/21/7 10/20/6
s 3
f 5/6/9 12/5/12 8/9/25 6/26/26
s 1
f 9/2/1 10/11/27 3/27/28 1/28/2
g default
v -38.478836 -27.610762 38.478836
v 38.478836 -27.610762 38.478836
v -38.478836 30.050848 38.478836
v 38.478836 30.050848 38.478836
v -38.478836 30.050848 -38.478836
v 38.478836 30.050848 -38.478836
v -38.478836 -27.610762 -38.478836
v 38.478836 -27.610762 -38.478836
v 10.518115 18.933796 38.478840
v -10.518120 18.933796 38.478840
v 10.518115 -16.493711 38.478840
v -10.518120 -16.493711 38.478840
v -8.430871 -14.179513 35.348152
v -8.430871 16.619596 35.348152
v 8.430866 -14.179513 35.348152
v 8.430866 16.619596 35.348152
vt 0.521731 0.208747
vt 0.097817 0.038480
vt 0.262819 0.208747
vt 0.267360 0.001676
vt 0.526772 0.001730
vt 0.172438 0.038927
vt 0.002771 0.197396
vt 0.262819 0.402741
vt 0.003906 0.402741
vt 0.267419 0.196927
vt 0.172351 0.159633
vt 0.097824 0.159984
vt 0.108340 0.148588
vt 0.108825 0.049301
vt 0.161878 0.050166
vt 0.161311 0.148972
vt 0.003906 0.208747
vt 0.526945 0.196325
vt 0.521731 0.402741
vt 0.002822 0.001022
vn 0.025394 0.015377 0.999559
vn 0.000000 -0.000000 1.000000
vn 0.969640 -0.000000 0.244538
vn -0.025394 0.015377 0.999559
vn 0.000000 0.000000 -1.000000
vn -0.707107 0.000000 -0.707107
vn -0.707107 0.000000 -0.707107
vn 0.000000 0.000000 -1.000000
vn 1.000000 0.000000 0.000000
vn 1.000000 0.000000 0.000000
vn 0.969640 0.000000 0.244538
vn -1.000000 0.000000 0.000000
vn -1.000000 0.000000 0.000000
vn -0.025394 -0.015377 0.999559
vn 0.203222 -0.113045 0.972585
vn 0.203222 0.113045 0.972585
vn -0.203222 0.113045 0.972585
vn -0.203222 -0.113045 0.972585
vn 0.025394 -0.015377 0.999559
vn 0.000000 0.000000 1.000000
s 1
g textureEditorIsolateSelectSet S_P10_01_low mid_low
usemtl set5
f 24/30/29 13/48/30 14/32/31 23/34/32
s 2
f 20/45/33 19/31/34 17/36/35 18/37/36
s 1
f 14/32/31 20/33/37 18/46/38 16/38/39
s 2
f 19/31/34 13/29/40 15/47/41 17/36/35
s 1
f 23/34/32 14/32/31 16/38/39 21/39/42
f 26/41/43 25/42/44 27/43/45 28/44/46
f 22/40/47 24/30/29 25/42/44 26/41/43
f 24/30/29 23/34/32 27/43/45 25/42/44
f 23/34/32 21/39/42 28/44/46 27/43/45
f 21/39/42 22/40/47 26/41/43 28/44/46
f 16/38/39 15/35/48 22/40/47 21/39/42
f 15/35/48 13/48/30 24/30/29 22/40/47
g default
v 42.623215 47.041046 42.623215
v -42.623215 47.041046 42.623215
v 42.623215 18.335186 42.623215
v 42.623215 18.335186 -42.623215
v 42.623215 47.041046 -42.623215
v -42.623215 47.041046 -42.623215
v -42.623215 27.744423 42.623215
v -42.623215 27.744423 -42.623215
v 19.129528 27.744423 42.623215
v 26.920456 18.335186 42.623215
v 26.920456 18.335186 -42.623215
v 19.129528 27.744423 -42.623215
vt 0.290705 0.805071
vt 0.211665 0.740150
vt 0.709295 0.586972
vt 0.996094 0.586972
vt 0.656545 0.740151
vt 0.577504 0.805071
vt 0.003907 0.805071
vt 0.590941 0.985507
vt 0.864303 0.740151
vt 0.877740 0.920586
vt 0.237876 0.708494
vt 0.290706 0.708494
vt 0.709295 0.300173
vt 0.577504 0.708495
vt 0.630334 0.708495
vt 0.604599 0.412200
vt 0.396841 0.412227
vt 0.996094 0.300173
vt 0.698565 0.698987
vt 0.645735 0.698994
vt 0.645698 0.412195
vt 0.698527 0.412188
vt 0.604636 0.698999
vt 0.396878 0.699026
vt 0.590941 0.920586
vt 0.864303 0.805071
vt 0.877740 0.985507
vt 0.003907 0.740150
vn 0.000000 0.000000 1.000000
vn 0.000000 0.000000 1.000000
vn 0.986182 0.000000 0.165667
vn 0.944396 0.000000 0.328809
vn 0.000000 -1.000000 0.000000
vn -0.371791 -0.928316 0.000000
vn -0.371791 -0.928316 0.000000
vn 0.000000 -1.000000 0.000000
vn 0.944396 0.000000 -0.328809
vn 0.986182 0.000000 -0.165667
vn 0.000000 0.000000 -1.000000
vn 0.000000 0.000000 -1.000000
vn 0.000000 1.000000 0.000000
vn 0.000000 1.000000 0.000000
vn 0.000000 1.000000 0.000000
vn 0.000000 1.000000 0.000000
vn -1.000000 0.000000 0.000000
vn -1.000000 0.000000 0.000000
vn -1.000000 0.000000 0.000000
vn -1.000000 0.000000 0.000000
vn -0.134078 -0.990971 0.000000
vn 0.000000 -1.000000 0.000000
vn 0.000000 -1.000000 0.000000
vn -0.134078 -0.990971 0.000000
vn 0.000000 0.000000 -1.000000
vn 0.000000 0.000000 -1.000000
vn 0.000000 0.000000 1.000000
vn 0.000000 0.000000 1.000000
s 1
g S_P10_01_low top_low
usemtl set5
f 37/50/49 38/59/50 31/60/51 29/49/52
s 2
f 31/67/53 38/68/54 39/69/55 32/70/56
s 1
f 33/54/57 32/62/58 39/63/59 40/53/60
s off
f 30/66/61 29/52/62 33/51/63 34/61/64
f 30/75/65 34/56/66 36/73/67 35/58/68
s 1
f 33/54/57 29/49/52 31/60/51 32/62/58
s 2
f 37/71/69 35/72/70 36/65/71 40/64/72
f 37/71/69 40/64/72 39/69/55 38/68/54
s 1
f 33/54/57 40/53/60 36/57/73 34/74/74
f 37/50/49 29/49/52 30/55/75 35/76/76
