# This file uses centimeters as units for non-parametric coordinates.

mtllib S_P11_01_LP.mtl
g default
v -0.000061 101.831276 0.008787
v -0.000061 107.115105 0.008787
v 6.953186 101.831276 -2.250429
v 5.914673 101.831276 -4.288500
v 7.397522 102.359604 -2.394826
v 6.292786 102.359604 -4.563157
v 7.778137 102.359604 0.008787
v 7.310852 101.831276 0.008787
v 4.297119 101.831276 -5.905920
v 4.571838 102.359604 -6.283955
v 2.259216 101.831276 -6.944368
v 2.403564 102.359604 -7.388774
v -0.000061 101.831276 -7.302192
v -0.000061 102.359604 -7.769467
v -2.259399 101.831276 -6.944366
v -2.403748 102.359604 -7.388773
v -4.297546 101.831276 -5.905919
v -4.572083 102.359604 -6.283953
v -5.914795 101.831276 -4.288498
v -6.292847 102.359604 -4.563156
v -6.953369 101.831276 -2.250428
v -7.397583 102.359604 -2.394825
v -7.310974 101.831276 0.008787
v -7.778259 102.359604 0.008787
v -6.953369 101.831276 2.268003
v -7.397583 102.359604 2.412400
v -5.914795 101.831276 4.306073
v -6.292847 102.359604 4.580729
v -4.297546 101.831276 5.923492
v -4.572083 102.359604 6.301527
v -2.259399 101.831276 6.961939
v -2.403748 102.359604 7.406345
v -0.000061 101.831276 7.319763
v -0.000061 102.359604 7.787040
v 2.259216 101.831276 6.961939
v 2.403564 102.359604 7.406345
v 4.297119 101.831276 5.923491
v 4.571838 102.359604 6.301525
v 5.914673 101.831276 4.306072
v 6.292786 102.359604 4.580729
v 6.953186 101.831276 2.268002
v 7.397522 102.359604 2.412399
v 6.953186 107.115112 -2.250429
v 7.310852 107.115112 0.008787
v 7.397522 106.586777 -2.394826
v 7.778137 106.586777 0.008787
v 6.292786 106.586777 -4.563157
v 5.914673 107.115112 -4.288500
v 4.571838 106.586777 -6.283955
v 4.297119 107.115112 -5.905920
v 2.403564 106.586777 -7.388774
v 2.259216 107.115112 -6.944368
v -0.000061 106.586777 -7.769467
v -0.000061 107.115112 -7.302192
v -2.403748 106.586777 -7.388773
v -2.259399 107.115112 -6.944366
v -4.572083 106.586777 -6.283953
v -4.297546 107.115112 -5.905919
v -6.292847 106.586777 -4.563156
v -5.914795 107.115112 -4.288498
v -7.397583 106.586777 -2.394825
v -6.953369 107.115112 -2.250428
v -7.778259 106.586777 0.008787
v -7.310974 107.115112 0.008787
v -7.397583 106.586777 2.412400
v -6.953369 107.115112 2.268003
v -6.292847 106.586777 4.580729
v -5.914795 107.115112 4.306073
v -4.572083 106.586777 6.301527
v -4.297546 107.115112 5.923492
v -2.403748 106.586777 7.406345
v -2.259399 107.115112 6.961939
v -0.000061 106.586777 7.787040
v -0.000061 107.115112 7.319763
v 2.403564 106.586777 7.406345
v 2.259216 107.115112 6.961939
v 4.571838 106.586777 6.301525
v 4.297119 107.115112 5.923491
v 6.292786 106.586777 4.580729
v 5.914673 107.115112 4.306072
v 7.397522 106.586777 2.412399
v 6.953186 107.115112 2.268002
vt 0.585598 0.057131
vt 0.654248 0.712132
vt 0.639245 0.691499
vt 0.556281 0.057131
vt 0.614914 0.057131
vt 0.662140 0.736392
vt 0.618598 0.676512
vt 0.526963 0.057131
vt 0.594334 0.668639
vt 0.497647 0.057131
vt 0.568822 0.668649
vt 0.468330 0.057131
vt 0.544561 0.676542
vt 0.439012 0.057131
vt 0.523928 0.691546
vt 0.996033 0.057131
vt 0.508942 0.712190
vt 0.966716 0.057131
vt 0.501068 0.736456
vt 0.937400 0.057131
vt 0.501080 0.761967
vt 0.908083 0.057131
vt 0.508971 0.786227
vt 0.878766 0.057131
vt 0.523975 0.806860
vt 0.849450 0.057131
vt 0.544618 0.821847
vt 0.820134 0.057131
vt 0.568885 0.829720
vt 0.790817 0.057131
vt 0.594398 0.829710
vt 0.761499 0.057131
vt 0.618658 0.821817
vt 0.732182 0.057131
vt 0.639289 0.806814
vt 0.702866 0.057131
vt 0.654277 0.786169
vt 0.673548 0.057131
vt 0.662152 0.761903
vt 0.644231 0.057131
vt 0.585598 0.006207
vt 0.845389 0.739423
vt 0.837937 0.762370
vt 0.614914 0.006207
vt 0.556281 0.006207
vt 0.859569 0.719903
vt 0.526963 0.006207
vt 0.879088 0.705720
vt 0.497647 0.006207
vt 0.902032 0.698263
vt 0.468330 0.006207
vt 0.926159 0.698260
vt 0.439012 0.006207
vt 0.949107 0.705714
vt 0.409695 0.006207
vt 0.968628 0.719894
vt 0.966716 0.006207
vt 0.982809 0.739412
vt 0.937400 0.006207
vt 0.990268 0.762357
vt 0.908083 0.006207
vt 0.990268 0.786484
vt 0.878766 0.006207
vt 0.982816 0.809430
vt 0.849450 0.006207
vt 0.968636 0.828950
vt 0.820134 0.006207
vt 0.949120 0.843134
vt 0.790817 0.006207
vt 0.926173 0.850591
vt 0.761499 0.006207
vt 0.902045 0.850593
vt 0.732182 0.006207
vt 0.879098 0.843139
vt 0.702866 0.006207
vt 0.859580 0.828960
vt 0.673548 0.006207
vt 0.845395 0.809442
vt 0.644231 0.006207
vt 0.837937 0.786496
vt 0.581610 0.749180
vt 0.914102 0.774427
vt 0.661297 0.789766
vt 0.669938 0.763155
vt 0.644853 0.812404
vt 0.622221 0.828853
vt 0.595613 0.837503
vt 0.567633 0.837507
vt 0.541023 0.828865
vt 0.518385 0.812423
vt 0.501937 0.789791
vt 0.493287 0.763183
vt 0.493282 0.735204
vt 0.501924 0.708593
vt 0.518365 0.685955
vt 0.540998 0.669507
vt 0.567607 0.660856
vt 0.595586 0.660852
vt 0.622196 0.669494
vt 0.669933 0.735177
vt 0.644835 0.685936
vt 0.661283 0.708569
vt 0.830568 0.787644
vt 0.838740 0.812810
vt 0.854291 0.834220
vt 0.875695 0.849776
vt 0.900859 0.857957
vt 0.927320 0.857961
vt 0.952487 0.849789
vt 0.973896 0.834239
vt 0.989451 0.812834
vt 0.997632 0.787670
vt 0.997636 0.761210
vt 0.989464 0.736043
vt 0.973915 0.714634
vt 0.952511 0.699078
vt 0.927346 0.690897
vt 0.900885 0.690892
vt 0.875719 0.699065
vt 0.854308 0.714615
vt 0.830573 0.761184
vt 0.838752 0.736019
vt 0.409695 0.057131
vt 0.996033 0.006207
vn 0.947242 -0.089587 -0.307745
vn 0.143658 -0.988526 -0.046669
vn 0.122195 -0.988527 -0.088784
vn 0.805757 -0.089593 -0.585431
vn 0.995979 -0.089583 0.000000
vn 0.151038 -0.988528 0.000000
vn 0.088779 -0.988527 -0.122199
vn 0.585414 -0.089593 -0.805769
vn 0.046678 -0.988526 -0.143655
vn 0.307776 -0.089588 -0.947232
vn -0.000000 -0.988527 -0.151043
vn -0.000000 -0.089588 -0.995979
vn -0.046674 -0.988527 -0.143652
vn -0.307768 -0.089585 -0.947235
vn -0.088788 -0.988526 -0.122200
vn -0.585424 -0.089581 -0.805763
vn -0.122195 -0.988528 -0.088777
vn -0.805776 -0.089577 -0.585407
vn -0.143663 -0.988526 -0.046672
vn -0.947239 -0.089574 -0.307757
vn -0.151037 -0.988528 0.000000
vn -0.995981 -0.089570 0.000000
vn -0.143663 -0.988526 0.046672
vn -0.947239 -0.089574 0.307757
vn -0.122195 -0.988528 0.088778
vn -0.805776 -0.089577 0.585407
vn -0.088788 -0.988526 0.122200
vn -0.585424 -0.089581 0.805763
vn -0.046674 -0.988527 0.143652
vn -0.307768 -0.089585 0.947235
vn 0.000000 -0.988527 0.151043
vn -0.000000 -0.089588 0.995979
vn 0.046678 -0.988526 0.143655
vn 0.307776 -0.089588 0.947232
vn 0.088779 -0.988527 0.122200
vn 0.585413 -0.089593 0.805769
vn 0.122195 -0.988527 0.088786
vn 0.805757 -0.089593 0.585431
vn 0.143658 -0.988526 0.046670
vn 0.947242 -0.089587 0.307745
vn 0.947242 0.089586 -0.307745
vn 0.143660 0.988526 -0.046670
vn 0.151040 0.988528 0.000000
vn 0.995979 0.089583 0.000000
vn 0.805757 0.089592 -0.585431
vn 0.122196 0.988527 -0.088788
vn 0.585414 0.089593 -0.805769
vn 0.088780 0.988527 -0.122199
vn 0.307776 0.089588 -0.947232
vn 0.046679 0.988526 -0.143656
vn -0.000000 0.089588 -0.995979
vn -0.000000 0.988527 -0.151044
vn -0.307769 0.089585 -0.947234
vn -0.046675 0.988527 -0.143653
vn -0.585424 0.089581 -0.805763
vn -0.088788 0.988526 -0.122203
vn -0.805776 0.089577 -0.585407
vn -0.122196 0.988527 -0.088779
vn -0.947240 0.089574 -0.307756
vn -0.143664 0.988525 -0.046674
vn -0.995981 0.089570 0.000000
vn -0.151039 0.988528 0.000000
vn -0.947239 0.089574 0.307756
vn -0.143664 0.988525 0.046675
vn -0.805776 0.089577 0.585407
vn -0.122196 0.988527 0.088779
vn -0.585424 0.089581 0.805763
vn -0.088788 0.988526 0.122202
vn -0.307769 0.089585 0.947234
vn -0.046675 0.988527 0.143653
vn -0.000000 0.089588 0.995979
vn 0.000000 0.988527 0.151044
vn 0.307777 0.089588 0.947232
vn 0.046679 0.988526 0.143656
vn 0.585413 0.089593 0.805770
vn 0.088780 0.988527 0.122197
vn 0.805757 0.089592 0.585431
vn 0.122195 0.988527 0.088786
vn 0.947242 0.089587 0.307745
vn 0.143660 0.988526 0.046670
vn 0.000000 -1.000000 0.000000
vn -0.000000 1.000000 -0.000000
s 1
g Pole_01_low S_P11_LP
usemtl aiStandardSurface1SG
f 5/102/1 3/2/2 4/3/3 6/101/4
f 3/2/2 5/102/1 7/100/5 8/6/6
f 6/101/4 4/3/3 9/7/7 10/99/8
f 10/99/8 9/7/7 11/9/9 12/98/10
f 12/98/10 11/9/9 13/11/11 14/97/12
f 14/97/12 13/11/11 15/13/13 16/96/14
f 16/96/14 15/13/13 17/15/15 18/95/16
f 18/95/16 17/15/15 19/17/17 20/94/18
f 20/94/18 19/17/17 21/19/19 22/93/20
f 22/93/20 21/19/19 23/21/21 24/92/22
f 24/92/22 23/21/21 25/23/23 26/91/24
f 26/91/24 25/23/23 27/25/25 28/90/26
f 28/90/26 27/25/25 29/27/27 30/89/28
f 30/89/28 29/27/27 31/29/29 32/88/30
f 32/88/30 31/29/29 33/31/31 34/87/32
f 34/87/32 33/31/31 35/33/33 36/86/34
f 36/86/34 35/33/33 37/35/35 38/85/36
f 38/85/36 37/35/35 39/37/37 40/83/38
f 40/83/38 39/37/37 41/39/39 42/84/40
f 42/84/40 41/39/39 8/6/6 7/100/5
f 45/122/41 43/42/42 44/43/43 46/121/44
f 43/42/42 45/122/41 47/120/45 48/46/46
f 48/46/46 47/120/45 49/119/47 50/48/48
f 50/48/48 49/119/47 51/118/49 52/50/50
f 52/50/50 51/118/49 53/117/51 54/52/52
f 54/52/52 53/117/51 55/116/53 56/54/54
f 56/54/54 55/116/53 57/115/55 58/56/56
f 58/56/56 57/115/55 59/114/57 60/58/58
f 60/58/58 59/114/57 61/113/59 62/60/60
f 62/60/60 61/113/59 63/112/61 64/62/62
f 64/62/62 63/112/61 65/111/63 66/64/64
f 66/64/64 65/111/63 67/110/65 68/66/66
f 68/66/66 67/110/65 69/109/67 70/68/68
f 70/68/68 69/109/67 71/108/69 72/70/70
f 72/70/70 71/108/69 73/107/71 74/72/72
f 74/72/72 73/107/71 75/106/73 76/74/74
f 76/74/74 75/106/73 77/105/75 78/76/76
f 78/76/76 77/105/75 79/104/77 80/78/78
f 80/78/78 79/104/77 81/103/79 82/80/80
f 82/80/80 81/103/79 46/121/44 44/43/43
f 5/1/1 6/4/4 47/45/45 45/41/41
f 6/4/4 10/8/8 49/47/47 47/45/45
f 10/8/8 12/10/10 51/49/49 49/47/47
f 12/10/10 14/12/12 53/51/51 51/49/49
f 14/12/12 16/14/14 55/53/53 53/51/51
f 16/14/14 18/123/16 57/55/55 55/53/53
f 18/16/16 20/18/18 59/57/57 57/124/55
f 20/18/18 22/20/20 61/59/59 59/57/57
f 22/20/20 24/22/22 63/61/61 61/59/59
f 24/22/22 26/24/24 65/63/63 63/61/61
f 26/24/24 28/26/26 67/65/65 65/63/63
f 28/26/26 30/28/28 69/67/67 67/65/65
f 30/28/28 32/30/30 71/69/69 69/67/67
f 32/30/30 34/32/32 73/71/71 71/69/69
f 34/32/32 36/34/34 75/73/73 73/71/71
f 36/34/34 38/36/36 77/75/75 75/73/73
f 38/36/36 40/38/38 79/77/77 77/75/75
f 40/38/38 42/40/40 81/79/79 79/77/77
f 42/40/40 7/5/5 46/44/44 81/79/79
f 7/5/5 5/1/1 45/41/41 46/44/44
f 4/3/3 3/2/2 1/81/81
f 9/7/7 4/3/3 1/81/81
f 11/9/9 9/7/7 1/81/81
f 13/11/11 11/9/9 1/81/81
f 15/13/13 13/11/11 1/81/81
f 17/15/15 15/13/13 1/81/81
f 19/17/17 17/15/15 1/81/81
f 21/19/19 19/17/17 1/81/81
f 23/21/21 21/19/19 1/81/81
f 25/23/23 23/21/21 1/81/81
f 27/25/25 25/23/23 1/81/81
f 29/27/27 27/25/25 1/81/81
f 31/29/29 29/27/27 1/81/81
f 33/31/31 31/29/29 1/81/81
f 35/33/33 33/31/31 1/81/81
f 37/35/35 35/33/33 1/81/81
f 39/37/37 37/35/35 1/81/81
f 41/39/39 39/37/37 1/81/81
f 8/6/6 41/39/39 1/81/81
f 3/2/2 8/6/6 1/81/81
f 43/42/42 48/46/46 2/82/82
f 48/46/46 50/48/48 2/82/82
f 50/48/48 52/50/50 2/82/82
f 52/50/50 54/52/52 2/82/82
f 54/52/52 56/54/54 2/82/82
f 56/54/54 58/56/56 2/82/82
f 58/56/56 60/58/58 2/82/82
f 60/58/58 62/60/60 2/82/82
f 62/60/60 64/62/62 2/82/82
f 64/62/62 66/64/64 2/82/82
f 66/64/64 68/66/66 2/82/82
f 68/66/66 70/68/68 2/82/82
f 70/68/68 72/70/70 2/82/82
f 72/70/70 74/72/72 2/82/82
f 74/72/72 76/74/74 2/82/82
f 76/74/74 78/76/76 2/82/82
f 78/76/76 80/78/78 2/82/82
f 80/78/78 82/80/80 2/82/82
f 82/80/80 44/43/43 2/82/82
f 44/43/43 43/42/42 2/82/82
g default
v -2.950928 110.272751 1.029601
v -2.806580 111.184738 1.029601
v -2.387329 112.007462 1.029601
v -1.734741 112.660378 1.029601
v -0.911987 113.079575 1.029601
v 0.000000 113.224014 1.029601
v 0.911926 113.079575 1.029601
v 1.734924 112.660378 1.029601
v 2.387634 112.007462 1.029601
v 2.806885 111.184738 1.029601
v 2.951172 110.272751 1.029601
v -2.950928 110.272751 -1.012027
v -2.806580 111.184738 -1.012027
v -2.387329 112.007462 -1.012027
v -1.734741 112.660378 -1.012027
v -0.911987 113.079575 -1.012027
v 0.000000 113.224014 -1.012027
v 0.911926 113.079575 -1.012027
v 1.734924 112.660378 -1.012027
v 2.387634 112.007462 -1.012027
v 2.806885 111.184738 -1.012027
v 2.951172 110.272751 -1.012027
v -2.950928 106.759827 1.029601
v -2.950928 106.759827 -1.012027
v 2.951294 106.759827 1.029601
v 2.951294 106.759827 -1.012027
v -3.651062 110.327858 1.029601
v -3.480835 111.403763 1.029601
v -3.480835 111.403763 -1.012027
v -3.651062 110.327858 -1.012027
v -2.960876 112.424004 1.029601
v -2.960876 112.424004 -1.012027
v -2.151062 113.233734 1.029601
v -2.151062 113.233734 -1.012027
v -1.130859 113.753609 1.029601
v -1.130859 113.753609 -1.012027
v 0.000000 113.932739 1.029601
v 0.000000 113.932739 -1.012027
v 1.131042 113.753609 1.029601
v 1.131042 113.753609 -1.012027
v 2.151306 113.233742 1.029601
v 2.151306 113.233742 -1.012027
v 2.960999 112.424057 1.029601
v 2.960999 112.424057 -1.012027
v 3.481018 111.403732 1.029601
v 3.481018 111.403732 -1.012027
v 3.651245 110.327812 1.029601
v 3.651245 110.327812 -1.012027
v -3.651062 106.759827 -1.012027
v -3.651062 106.759827 1.029601
v 3.651245 106.759827 1.029601
v 3.651245 106.759827 -1.012027
vt 0.750318 0.867155
vt 0.768074 0.867155
vt 0.768074 0.903548
vt 0.750318 0.903548
vt 0.786461 0.867155
vt 0.786461 0.903548
vt 0.804909 0.867155
vt 0.804909 0.903548
vt 0.823405 0.867155
vt 0.823405 0.903548
vt 0.841779 0.867155
vt 0.841779 0.903548
vt 0.860437 0.867156
vt 0.860437 0.903548
vt 0.878920 0.867155
vt 0.878920 0.903548
vt 0.897338 0.867155
vt 0.897338 0.903548
vt 0.915669 0.867155
vt 0.915669 0.903548
vt 0.933377 0.867155
vt 0.933377 0.903548
vt 0.688073 0.903548
vt 0.688073 0.867155
vt 0.995424 0.867156
vt 0.995424 0.903548
vt 0.750318 0.952225
vt 0.750318 0.915998
vt 0.768074 0.915998
vt 0.768074 0.952225
vt 0.786461 0.915998
vt 0.786461 0.952225
vt 0.804909 0.915998
vt 0.804909 0.952225
vt 0.823405 0.915998
vt 0.823405 0.952225
vt 0.841779 0.915998
vt 0.841779 0.952225
vt 0.860437 0.915998
vt 0.860437 0.952225
vt 0.878920 0.915998
vt 0.878920 0.952225
vt 0.897338 0.915998
vt 0.897338 0.952225
vt 0.915669 0.915998
vt 0.915669 0.952225
vt 0.933377 0.915998
vt 0.933377 0.952225
vt 0.688073 0.952225
vt 0.688073 0.915998
vt 0.995424 0.915998
vt 0.995424 0.952225
vt 0.727920 0.836921
vt 0.706726 0.840276
vt 0.701636 0.824606
vt 0.726640 0.820650
vt 0.687606 0.850019
vt 0.677926 0.836690
vt 0.672433 0.865185
vt 0.659108 0.855510
vt 0.662691 0.884305
vt 0.647027 0.879219
vt 0.659334 0.905500
vt 0.642864 0.905499
vt 0.662691 0.926692
vt 0.647027 0.931784
vt 0.672433 0.945818
vt 0.659108 0.955495
vt 0.687606 0.960987
vt 0.677925 0.974312
vt 0.706726 0.970730
vt 0.701637 0.986397
vt 0.727920 0.974083
vt 0.726641 0.990353
vt 0.809559 0.836921
vt 0.809559 0.820650
vt 0.809559 0.974086
vt 0.809559 0.990353
vn -0.952126 0.034901 0.303708
vn -0.913374 0.300741 0.274413
vn -0.913374 0.300741 -0.274413
vn -0.952126 0.034901 -0.303708
vn -0.778567 0.565756 0.271577
vn -0.778567 0.565756 -0.271577
vn -0.565707 0.778617 0.271535
vn -0.565707 0.778617 -0.271536
vn -0.297437 0.915308 0.271557
vn -0.297437 0.915307 -0.271559
vn 0.000000 0.962420 0.271567
vn -0.000000 0.962420 -0.271567
vn 0.297402 0.915314 0.271575
vn 0.297402 0.915314 -0.271575
vn 0.565700 0.778612 0.271564
vn 0.565700 0.778613 -0.271561
vn 0.778588 0.565734 0.271561
vn 0.778589 0.565734 -0.271559
vn 0.913383 0.300757 0.274366
vn 0.913383 0.300757 -0.274366
vn 0.952138 0.034902 0.303669
vn 0.952138 0.034902 -0.303669
vn -0.946691 0.000000 -0.322142
vn -0.946691 0.000000 0.322142
vn 0.946708 0.000000 0.322092
vn 0.946708 0.000000 -0.322092
vn 0.937425 -0.030580 0.346842
vn 0.937425 -0.030580 -0.346842
vn 0.876220 -0.284679 -0.388841
vn 0.876220 -0.284679 0.388841
vn 0.743898 -0.540334 -0.393261
vn 0.743898 -0.540334 0.393261
vn 0.540496 -0.743781 -0.393261
vn 0.540497 -0.743781 0.393259
vn 0.284121 -0.874457 -0.393193
vn 0.284121 -0.874457 0.393192
vn -0.000000 -0.919437 -0.393238
vn -0.000000 -0.919437 0.393238
vn -0.284092 -0.874461 -0.393203
vn -0.284092 -0.874461 0.393203
vn -0.540414 -0.743852 -0.393239
vn -0.540413 -0.743851 0.393243
vn -0.743882 -0.540384 -0.393224
vn -0.743880 -0.540383 0.393228
vn -0.876242 -0.284656 -0.388809
vn -0.876242 -0.284656 0.388809
vn -0.937449 -0.030594 -0.346776
vn -0.937449 -0.030594 0.346776
vn 0.945142 0.000000 0.326660
vn 0.945142 0.000000 -0.326660
vn -0.945158 -0.000033 -0.326612
vn -0.945158 -0.000033 0.326612
s 1
g S_P11_LP Pole_02_low
usemtl aiStandardSurface1SG
f 109/125/83 110/126/84 111/127/85 112/128/86
f 110/126/84 113/129/87 114/130/88 111/127/85
f 113/129/87 115/131/89 116/132/90 114/130/88
f 115/131/89 117/133/91 118/134/92 116/132/90
f 117/133/91 119/135/93 120/136/94 118/134/92
f 119/135/93 121/137/95 122/138/96 120/136/94
f 121/137/95 123/139/97 124/140/98 122/138/96
f 123/139/97 125/141/99 126/142/100 124/140/98
f 125/141/99 127/143/101 128/144/102 126/142/100
f 127/143/101 129/145/103 130/146/104 128/144/102
f 109/125/83 112/128/86 131/147/105 132/148/106
f 130/146/104 129/145/103 133/149/107 134/150/108
f 83/151/109 94/152/110 95/153/111 84/154/112
f 84/154/112 95/153/111 96/155/113 85/156/114
f 85/156/114 96/155/113 97/157/115 86/158/116
f 86/158/116 97/157/115 98/159/117 87/160/118
f 87/160/118 98/159/117 99/161/119 88/162/120
f 88/162/120 99/161/119 100/163/121 89/164/122
f 89/164/122 100/163/121 101/165/123 90/166/124
f 90/166/124 101/165/123 102/167/125 91/168/126
f 91/168/126 102/167/125 103/169/127 92/170/128
f 92/170/128 103/169/127 104/171/129 93/172/130
f 83/151/109 105/173/131 106/174/132 94/152/110
f 104/171/129 108/175/133 107/176/134 93/172/130
f 83/177/109 84/178/112 110/179/84 109/180/83
f 95/153/111 94/152/110 112/128/86 111/127/85
f 84/178/112 85/181/114 113/182/87 110/179/84
f 96/155/113 95/153/111 111/127/85 114/130/88
f 85/181/114 86/183/116 115/184/89 113/182/87
f 97/157/115 96/155/113 114/130/88 116/132/90
f 86/183/116 87/185/118 117/186/91 115/184/89
f 98/159/117 97/157/115 116/132/90 118/134/92
f 87/185/118 88/187/120 119/188/93 117/186/91
f 99/161/119 98/159/117 118/134/92 120/136/94
f 88/187/120 89/189/122 121/190/95 119/188/93
f 100/163/121 99/161/119 120/136/94 122/138/96
f 89/189/122 90/191/124 123/192/97 121/190/95
f 101/165/123 100/163/121 122/138/96 124/140/98
f 90/191/124 91/193/126 125/194/99 123/192/97
f 102/167/125 101/165/123 124/140/98 126/142/100
f 91/193/126 92/195/128 127/196/101 125/194/99
f 103/169/127 102/167/125 126/142/100 128/144/102
f 92/195/128 93/197/130 129/198/103 127/196/101
f 104/171/129 103/169/127 128/144/102 130/146/104
f 94/152/110 106/174/132 131/147/105 112/128/86
f 105/199/131 83/177/109 109/180/83 132/200/106
f 93/197/130 107/201/134 133/202/107 129/198/103
f 108/175/133 104/171/129 130/146/104 134/150/108
g default
v -0.000122 80.988205 0.008787
v -0.000122 86.272034 0.008787
v 6.823120 80.988205 -2.208221
v 5.804199 80.988205 -4.208213
v 4.216858 80.988205 -5.795416
v 2.216858 80.988205 -6.814461
v -0.000122 80.988205 -7.165600
v -2.217102 80.988205 -6.814461
v -4.216980 80.988205 -5.795413
v -5.804199 80.988205 -4.208212
v -6.823242 80.988205 -2.208220
v -7.174377 80.988205 0.008787
v -6.823242 80.988205 2.225795
v -5.804199 80.988205 4.225786
v -4.216980 80.988205 5.812987
v -2.217102 80.988205 6.832034
v -0.000122 80.988205 7.183173
v 2.216858 80.988205 6.832034
v 4.216858 80.988205 5.812987
v 5.804199 80.988205 4.225785
v 6.823120 80.988205 2.225794
v 7.174255 80.988205 0.008787
v 6.823120 86.272034 -2.208221
v 5.804199 86.272034 -4.208213
v 4.216858 86.272034 -5.795416
v 2.216858 86.272034 -6.814461
v -0.000122 86.272034 -7.165600
v -2.217102 86.272034 -6.814461
v -4.216980 86.272034 -5.795413
v -5.804199 86.272034 -4.208212
v -6.823242 86.272034 -2.208220
v -7.174377 86.272034 0.008787
v -6.823242 86.272034 2.225795
v -5.804199 86.272034 4.225786
v -4.216980 86.272034 5.812987
v -2.217102 86.272034 6.832034
v -0.000122 86.272034 7.183173
v 2.216858 86.272034 6.832034
v 4.216858 86.272034 5.812987
v 5.804199 86.272034 4.225785
v 6.823120 86.272034 2.225794
v 7.174255 86.272034 0.008787
vt 0.836016 0.737744
vt 0.828109 0.762076
vt 0.540334 0.985989
vt 0.514495 0.994386
vt 0.755245 0.724950
vt 0.500909 0.908615
vt 0.836015 0.712157
vt 0.487325 0.994385
vt 0.828109 0.687824
vt 0.461485 0.985989
vt 0.813070 0.667125
vt 0.439505 0.970019
vt 0.792371 0.652086
vt 0.423536 0.948039
vt 0.768039 0.644181
vt 0.415141 0.922201
vt 0.742453 0.644181
vt 0.415141 0.895031
vt 0.718120 0.652087
vt 0.423536 0.869192
vt 0.697421 0.667126
vt 0.439506 0.847211
vt 0.682382 0.687825
vt 0.461486 0.831242
vt 0.674476 0.712158
vt 0.487326 0.822846
vt 0.674476 0.737744
vt 0.514495 0.822846
vt 0.682381 0.762076
vt 0.540334 0.831241
vt 0.697420 0.782775
vt 0.562314 0.847210
vt 0.718119 0.797813
vt 0.578284 0.869191
vt 0.742452 0.805720
vt 0.586679 0.895030
vt 0.768039 0.805721
vt 0.586681 0.922201
vt 0.792371 0.797814
vt 0.578284 0.948039
vt 0.813070 0.782775
vt 0.562314 0.970019
vt 0.994614 0.062045
vt 0.411080 0.062088
vt 0.411085 0.130770
vt 0.994619 0.130726
vt 0.819558 0.130739
vt 0.848735 0.130737
vt 0.790382 0.130742
vt 0.761204 0.130744
vt 0.732027 0.130746
vt 0.702850 0.130748
vt 0.673674 0.130750
vt 0.644498 0.130752
vt 0.615321 0.130755
vt 0.586145 0.130757
vt 0.556968 0.130759
vt 0.527791 0.130761
vt 0.498614 0.130763
vt 0.469437 0.130765
vt 0.440262 0.130768
vt 0.965443 0.130729
vt 0.936266 0.130731
vt 0.907088 0.130733
vt 0.877912 0.130735
vt 0.848730 0.062056
vt 0.819553 0.062058
vt 0.790377 0.062060
vt 0.761199 0.062062
vt 0.732022 0.062064
vt 0.702845 0.062067
vt 0.673669 0.062069
vt 0.644493 0.062071
vt 0.615316 0.062073
vt 0.586140 0.062075
vt 0.556963 0.062077
vt 0.527786 0.062080
vt 0.498609 0.062082
vt 0.469432 0.062084
vt 0.440256 0.062086
vt 0.965438 0.062047
vt 0.936261 0.062049
vt 0.907083 0.062051
vt 0.877907 0.062054
vn 0.811560 -0.521394 -0.263666
vn 0.690353 -0.521380 -0.501574
vn 0.690353 0.521380 -0.501573
vn 0.811559 0.521394 -0.263667
vn 0.501554 -0.521392 -0.690358
vn 0.501554 0.521392 -0.690358
vn 0.263691 -0.521388 -0.811555
vn 0.263691 0.521388 -0.811555
vn -0.000000 -0.521387 -0.853320
vn -0.000000 0.521387 -0.853320
vn -0.263699 -0.521384 -0.811555
vn -0.263699 0.521384 -0.811555
vn -0.501578 -0.521387 -0.690344
vn -0.501578 0.521386 -0.690345
vn -0.690352 -0.521381 -0.501574
vn -0.690352 0.521381 -0.501574
vn -0.811560 -0.521381 -0.263690
vn -0.811560 0.521381 -0.263690
vn -0.853324 -0.521381 0.000000
vn -0.853324 0.521381 0.000000
vn -0.811560 -0.521381 0.263689
vn -0.811560 0.521381 0.263690
vn -0.690352 -0.521381 0.501574
vn -0.690352 0.521381 0.501573
vn -0.501578 -0.521387 0.690344
vn -0.501578 0.521387 0.690344
vn -0.263699 -0.521384 0.811555
vn -0.263699 0.521384 0.811555
vn 0.000000 -0.521387 0.853320
vn 0.000000 0.521387 0.853320
vn 0.263692 -0.521387 0.811555
vn 0.263692 0.521387 0.811555
vn 0.501554 -0.521393 0.690357
vn 0.501554 0.521392 0.690358
vn 0.690353 -0.521380 0.501574
vn 0.690353 0.521380 0.501573
vn 0.811559 -0.521394 0.263667
vn 0.811560 0.521394 0.263666
vn 0.853320 -0.521387 -0.000000
vn 0.853320 0.521387 -0.000000
vn 0.000000 -1.000000 -0.000000
vn 0.000000 1.000000 -0.000000
s 1
g S_P11_LP Pole_03_low
usemtl aiStandardSurface1SG
f 137/286/135 138/285/136 158/266/137 157/267/138
f 138/285/136 139/284/139 159/265/140 158/266/137
f 139/284/139 140/283/141 160/264/142 159/265/140
f 140/283/141 141/245/143 161/248/144 160/264/142
f 141/246/143 142/282/145 162/263/146 161/247/144
f 142/282/145 143/281/147 163/262/148 162/263/146
f 143/281/147 144/280/149 164/261/150 163/262/148
f 144/280/149 145/279/151 165/260/152 164/261/150
f 145/279/151 146/278/153 166/259/154 165/260/152
f 146/278/153 147/277/155 167/258/156 166/259/154
f 147/277/155 148/276/157 168/257/158 167/258/156
f 148/276/157 149/275/159 169/256/160 168/257/158
f 149/275/159 150/274/161 170/255/162 169/256/160
f 150/274/161 151/273/163 171/254/164 170/255/162
f 151/273/163 152/272/165 172/253/166 171/254/164
f 152/272/165 153/271/167 173/252/168 172/253/166
f 153/271/167 154/270/169 174/251/170 173/252/168
f 154/270/169 155/269/171 175/249/172 174/251/170
f 155/269/171 156/268/173 176/250/174 175/249/172
f 156/268/173 137/286/135 157/267/138 176/250/174
f 138/203/136 137/204/135 135/207/175
f 139/209/139 138/203/136 135/207/175
f 140/211/141 139/209/139 135/207/175
f 141/213/143 140/211/141 135/207/175
f 142/215/145 141/213/143 135/207/175
f 143/217/147 142/215/145 135/207/175
f 144/219/149 143/217/147 135/207/175
f 145/221/151 144/219/149 135/207/175
f 146/223/153 145/221/151 135/207/175
f 147/225/155 146/223/153 135/207/175
f 148/227/157 147/225/155 135/207/175
f 149/229/159 148/227/157 135/207/175
f 150/231/161 149/229/159 135/207/175
f 151/233/163 150/231/161 135/207/175
f 152/235/165 151/233/163 135/207/175
f 153/237/167 152/235/165 135/207/175
f 154/239/169 153/237/167 135/207/175
f 155/241/171 154/239/169 135/207/175
f 156/243/173 155/241/171 135/207/175
f 137/204/135 156/243/173 135/207/175
f 157/205/138 158/206/137 136/208/176
f 158/206/137 159/210/140 136/208/176
f 159/210/140 160/212/142 136/208/176
f 160/212/142 161/214/144 136/208/176
f 161/214/144 162/216/146 136/208/176
f 162/216/146 163/218/148 136/208/176
f 163/218/148 164/220/150 136/208/176
f 164/220/150 165/222/152 136/208/176
f 165/222/152 166/224/154 136/208/176
f 166/224/154 167/226/156 136/208/176
f 167/226/156 168/228/158 136/208/176
f 168/228/158 169/230/160 136/208/176
f 169/230/160 170/232/162 136/208/176
f 170/232/162 171/234/164 136/208/176
f 171/234/164 172/236/166 136/208/176
f 172/236/166 173/238/168 136/208/176
f 173/238/168 174/240/170 136/208/176
f 174/240/170 175/242/172 136/208/176
f 175/242/172 176/244/174 136/208/176
f 176/244/174 157/205/138 136/208/176
g default
v 5.854248 10.605982 -1.893408
v 4.979736 10.605982 -3.609404
v 3.617737 10.605982 -4.971226
v 1.901794 10.605982 -5.845569
v -0.000427 10.605982 -6.146846
v -1.902283 10.605982 -5.845568
v -3.618591 10.605982 -4.971224
v -4.980469 10.605982 -3.609403
v -5.854797 10.605982 -1.893408
v -6.155884 10.605982 0.008787
v -5.854797 10.605982 1.910982
v -4.980408 10.605982 3.626977
v -3.618591 10.605982 4.988798
v -1.902283 10.605982 5.863141
v -0.000427 10.605982 6.164419
v 1.901794 10.605982 5.863140
v 3.617737 10.605982 4.988797
v 4.979736 10.605982 3.626976
v 5.854248 10.605982 1.910982
v 6.155212 10.605982 0.008787
v 5.854248 104.050293 -1.893408
v 4.979736 104.050293 -3.609404
v 3.617737 104.050293 -4.971226
v 1.901794 104.050293 -5.845569
v -0.000427 104.050293 -6.146846
v -1.902283 104.050293 -5.845568
v -3.618591 104.050293 -4.971224
v -4.980469 104.050293 -3.609403
v -5.854797 104.050293 -1.893408
v -6.155884 104.050293 0.008787
v -5.854797 104.050293 1.910982
v -4.980408 104.050293 3.626977
v -3.618591 104.050293 4.988798
v -1.902283 104.050293 5.863141
v -0.000427 104.050293 6.164419
v 1.901794 104.050293 5.863140
v 3.617737 104.050293 4.988797
v 4.979736 104.050293 3.626976
v 5.854248 104.050293 1.910982
v 6.155212 104.050293 0.008787
v -0.000427 43.852894 6.164419
v -1.902283 43.852894 5.863141
v -3.618591 43.852894 4.988798
v -4.980408 43.852894 3.626977
v -5.854797 43.852894 1.910982
v -6.155884 43.852894 0.008787
v -5.854797 43.852894 -1.893408
v -4.980469 43.852894 -3.609403
v -3.618591 43.852894 -4.971224
v -1.902283 43.852894 -5.845568
v -0.000427 43.852894 -6.146846
v 1.901794 43.852894 -5.845569
v 3.617737 43.852894 -4.971226
v 4.979736 43.852894 -3.609404
v 5.854248 43.852894 -1.893408
v 6.155212 43.852894 0.008787
v 5.854248 43.852894 1.910982
v 4.979736 43.852894 3.626976
v 3.617737 43.852894 4.988797
v 1.901794 43.852894 5.863140
v -0.000427 42.948265 6.164419
v -1.902283 42.948265 5.863141
v -3.618591 42.948265 4.988798
v -4.980408 42.948265 3.626977
v -5.854797 42.948265 1.910982
v -6.155884 42.948265 0.008787
v -5.854797 42.948265 -1.893408
v -4.980469 42.948265 -3.609403
v -3.618591 42.948265 -4.971224
v -1.902283 42.948265 -5.845568
v -0.000427 42.948265 -6.146846
v 1.901794 42.948265 -5.845569
v 3.617737 42.948265 -4.971226
v 4.979736 42.948265 -3.609404
v 5.854248 42.948265 -1.893408
v 6.155212 42.948265 0.008787
v 5.854248 42.948265 1.910982
v 4.979736 42.948265 3.626976
v 3.617737 42.948265 4.988797
v 1.901794 42.948265 5.863140
v -0.000427 42.948265 5.556938
v -1.714722 42.948265 5.285385
v -0.000427 43.852894 5.556938
v -1.714722 43.852894 5.285385
v -3.261414 42.948265 4.497322
v -3.261414 43.852894 4.497322
v -4.488953 42.948265 3.269913
v -4.488953 43.852894 3.269913
v -5.277039 42.948265 1.723256
v -5.277039 43.852894 1.723256
v -5.548523 42.948265 0.008787
v -5.548523 43.852894 0.008787
v -5.277039 42.948265 -1.705699
v -5.277039 43.852894 -1.705699
v -4.488953 42.948265 -3.252331
v -4.488953 43.852894 -3.252331
v -3.261414 42.948265 -4.479737
v -3.261414 43.852894 -4.479737
v -1.714722 42.948265 -5.267812
v -1.714722 43.852894 -5.267812
v -0.000427 42.948265 -5.539364
v -0.000427 43.852894 -5.539364
v 1.714111 42.948265 -5.267807
v 1.714111 43.852894 -5.267807
v 3.260681 42.948265 -4.479752
v 3.260681 43.852894 -4.479752
v 4.488159 42.948265 -3.252318
v 4.488159 43.852894 -3.252318
v 5.276306 42.948265 -1.705683
v 5.276306 43.852894 -1.705683
v 5.547852 42.948265 0.008787
v 5.547852 43.852894 0.008787
v 5.276306 42.948265 1.723249
v 5.276306 43.852894 1.723249
v 4.488098 42.948265 3.269882
v 4.488098 43.852894 3.269882
v 3.260681 42.948265 4.497349
v 3.260681 43.852894 4.497349
v 1.714111 42.948265 5.285381
v 1.714111 43.852894 5.285381
vt 0.305485 0.003419
vt 0.325674 0.003419
vt 0.325674 0.343001
vt 0.305485 0.343001
vt 0.345865 0.003419
vt 0.345865 0.343001
vt 0.366037 0.003419
vt 0.366037 0.343001
vt 0.386113 0.003419
vt 0.386113 0.343001
vt 0.405695 0.003419
vt 0.003418 0.343001
vt 0.023038 0.003419
vt 0.023038 0.343001
vt 0.043119 0.003419
vt 0.043119 0.343001
vt 0.063301 0.003419
vt 0.063301 0.343001
vt 0.083485 0.003419
vt 0.083485 0.343001
vt 0.103669 0.003419
vt 0.103669 0.343001
vt 0.123856 0.003419
vt 0.123856 0.343001
vt 0.144043 0.003419
vt 0.144043 0.343001
vt 0.164234 0.003419
vt 0.164234 0.343001
vt 0.184418 0.003419
vt 0.184418 0.343001
vt 0.204611 0.003419
vt 0.204611 0.343001
vt 0.224783 0.003419
vt 0.224784 0.343001
vt 0.244958 0.003419
vt 0.244958 0.343001
vt 0.265132 0.003419
vt 0.265132 0.343001
vt 0.285306 0.003419
vt 0.285306 0.343001
vt 0.164234 0.364629
vt 0.184419 0.364629
vt 0.184418 0.996582
vt 0.164234 0.996582
vt 0.144043 0.364629
vt 0.144043 0.996582
vt 0.123856 0.364629
vt 0.123856 0.996582
vt 0.103669 0.364629
vt 0.103669 0.996582
vt 0.083485 0.364629
vt 0.083485 0.996582
vt 0.063301 0.364629
vt 0.063301 0.996582
vt 0.043119 0.364629
vt 0.043119 0.996582
vt 0.023038 0.364629
vt 0.023038 0.996582
vt 0.405695 0.364629
vt 0.003418 0.996582
vt 0.386113 0.364629
vt 0.386113 0.996582
vt 0.366037 0.364629
vt 0.366037 0.996582
vt 0.345865 0.364629
vt 0.345865 0.996582
vt 0.325674 0.364629
vt 0.325674 0.996582
vt 0.305485 0.364629
vt 0.305485 0.996582
vt 0.285306 0.364629
vt 0.285306 0.996582
vt 0.265132 0.364629
vt 0.265132 0.996582
vt 0.244958 0.364629
vt 0.244958 0.996582
vt 0.224783 0.364629
vt 0.224783 0.996582
vt 0.204611 0.364629
vt 0.204611 0.996582
vt 0.164234 0.349219
vt 0.184419 0.349219
vt 0.184418 0.358432
vt 0.164234 0.358432
vt 0.144043 0.349219
vt 0.144043 0.358432
vt 0.123856 0.349219
vt 0.123856 0.358432
vt 0.103669 0.349219
vt 0.103669 0.358432
vt 0.083485 0.349219
vt 0.083485 0.358432
vt 0.063301 0.349219
vt 0.063301 0.358432
vt 0.043119 0.349219
vt 0.043119 0.358432
vt 0.023038 0.349219
vt 0.023038 0.358432
vt 0.405695 0.349219
vt 0.003418 0.358432
vt 0.386113 0.349219
vt 0.386113 0.358432
vt 0.366037 0.349219
vt 0.366037 0.358432
vt 0.345865 0.349219
vt 0.345865 0.358432
vt 0.325674 0.349219
vt 0.325674 0.358432
vt 0.305485 0.349219
vt 0.305485 0.358432
vt 0.285306 0.349219
vt 0.285306 0.358432
vt 0.265132 0.349219
vt 0.265132 0.358432
vt 0.244958 0.349219
vt 0.244958 0.358432
vt 0.224783 0.349219
vt 0.224783 0.358432
vt 0.204611 0.349219
vt 0.204611 0.358432
vt 0.003418 0.364629
vt 0.405695 0.358432
vt 0.003418 0.349219
vt 0.405695 0.343001
vt 0.405695 0.996582
vt 0.003418 0.003419
vn 0.951068 0.000000 -0.308982
vn 0.808974 0.000000 -0.587845
vn 0.808869 0.016071 -0.587769
vn 0.950945 0.016070 -0.308943
vn 0.587770 0.000000 -0.809028
vn 0.587694 0.016069 -0.808924
vn 0.309019 0.000000 -0.951056
vn 0.308979 0.016068 -0.950933
vn -0.000000 0.000000 -1.000000
vn -0.000000 0.016069 -0.999871
vn -0.309019 0.000000 -0.951056
vn -0.308979 0.016069 -0.950933
vn -0.587739 0.000000 -0.809051
vn -0.587663 0.016069 -0.808946
vn -0.809012 0.000000 -0.587792
vn -0.808907 0.016070 -0.587716
vn -0.951072 0.000000 -0.308968
vn -0.950950 0.016068 -0.308928
vn -1.000000 0.000000 0.000000
vn -0.999871 0.016068 0.000000
vn -0.951068 0.000000 0.308983
vn -0.950945 0.016067 0.308943
vn -0.809012 0.000000 0.587792
vn -0.808907 0.016069 0.587717
vn -0.587747 0.000000 0.809045
vn -0.587671 0.016068 0.808941
vn -0.309019 0.000000 0.951056
vn -0.308979 0.016068 0.950933
vn 0.000000 0.000000 1.000000
vn 0.000000 0.016069 0.999871
vn 0.309019 0.000000 0.951056
vn 0.308979 0.016068 0.950933
vn 0.587770 0.000000 0.809029
vn 0.587694 0.016069 0.808924
vn 0.808974 0.000000 0.587845
vn 0.808869 0.016071 0.587769
vn 0.951068 0.000000 0.308983
vn 0.950945 0.016070 0.308943
vn 1.000000 0.000000 0.000000
vn 0.999871 0.016071 0.000000
vn -0.309007 -0.008634 0.951020
vn 0.000000 -0.008634 0.999963
vn 0.000000 0.000000 1.000000
vn -0.309019 0.000000 0.951056
vn -0.587725 -0.008634 0.809015
vn -0.587747 0.000000 0.809045
vn -0.808982 -0.008634 0.587771
vn -0.809012 0.000000 0.587793
vn -0.951032 -0.008633 0.308971
vn -0.951068 0.000000 0.308983
vn -0.999963 -0.008634 -0.000000
vn -1.000000 0.000000 -0.000000
vn -0.951037 -0.008633 -0.308956
vn -0.951072 0.000000 -0.308968
vn -0.808982 -0.008635 -0.587770
vn -0.809012 0.000000 -0.587792
vn -0.587717 -0.008634 -0.809020
vn -0.587739 0.000000 -0.809050
vn -0.309008 -0.008634 -0.951020
vn -0.309019 0.000000 -0.951056
vn -0.000000 -0.008634 -0.999963
vn -0.000000 0.000000 -1.000000
vn 0.309007 -0.008634 -0.951020
vn 0.309019 0.000000 -0.951056
vn 0.587748 -0.008634 -0.808998
vn 0.587770 0.000000 -0.809028
vn 0.808944 -0.008635 -0.587823
vn 0.808974 0.000000 -0.587845
vn 0.951032 -0.008635 -0.308971
vn 0.951068 0.000000 -0.308982
vn 0.999963 -0.008635 0.000000
vn 1.000000 0.000000 0.000000
vn 0.951032 -0.008635 0.308971
vn 0.951068 0.000000 0.308983
vn 0.808943 -0.008635 0.587823
vn 0.808974 0.000000 0.587845
vn 0.587748 -0.008634 0.808998
vn 0.587769 0.000000 0.809029
vn 0.309008 -0.008634 0.951020
vn 0.309019 0.000000 0.951056
vn -0.243778 0.614597 0.750229
vn 0.000001 0.614590 0.788846
vn 0.000001 -0.614590 0.788847
vn -0.243777 -0.614595 0.750230
vn -0.463644 0.614613 0.638189
vn -0.463643 -0.614612 0.638190
vn -0.638160 0.614614 0.463683
vn -0.638160 -0.614613 0.463684
vn -0.750242 0.614588 0.243760
vn -0.750242 -0.614588 0.243760
vn -0.788877 0.614552 -0.000000
vn -0.788877 -0.614552 0.000001
vn -0.750236 0.614595 -0.243760
vn -0.750236 -0.614596 -0.243758
vn -0.638146 0.614632 -0.463679
vn -0.638146 -0.614632 -0.463678
vn -0.463640 0.614625 -0.638181
vn -0.463640 -0.614625 -0.638181
vn -0.243780 0.614600 -0.750226
vn -0.243779 -0.614599 -0.750226
vn 0.000001 0.614591 -0.788846
vn 0.000001 -0.614591 -0.788846
vn 0.243767 0.614601 -0.750229
vn 0.243767 -0.614603 -0.750228
vn 0.463665 0.614613 -0.638173
vn 0.463666 -0.614614 -0.638172
vn 0.638130 0.614661 -0.463662
vn 0.638130 -0.614661 -0.463662
vn 0.750177 0.614663 -0.243770
vn 0.750177 -0.614663 -0.243769
vn 0.788825 0.614618 -0.000000
vn 0.788825 -0.614618 -0.000000
vn 0.750163 0.614676 0.243779
vn 0.750163 -0.614676 0.243780
vn 0.638129 0.614665 0.463656
vn 0.638129 -0.614665 0.463656
vn 0.463669 0.614623 0.638161
vn 0.463669 -0.614624 0.638160
vn 0.243764 0.614596 0.750234
vn 0.243764 -0.614597 0.750233
s 1
g S_P11_LP Pole_04_low
usemtl aiStandardSurface1SG
f 177/287/177 178/288/178 250/289/179 251/290/180
f 178/288/178 179/291/181 249/292/182 250/289/179
f 179/291/181 180/293/183 248/294/184 249/292/182
f 180/293/183 181/295/185 247/296/186 248/294/184
f 181/295/185 182/297/187 246/410/188 247/296/186
f 182/412/187 183/299/189 245/300/190 246/298/188
f 183/299/189 184/301/191 244/302/192 245/300/190
f 184/301/191 185/303/193 243/304/194 244/302/192
f 185/303/193 186/305/195 242/306/196 243/304/194
f 186/305/195 187/307/197 241/308/198 242/306/196
f 187/307/197 188/309/199 240/310/200 241/308/198
f 188/309/199 189/311/201 239/312/202 240/310/200
f 189/311/201 190/313/203 238/314/204 239/312/202
f 190/313/203 191/315/205 237/316/206 238/314/204
f 191/315/205 192/317/207 256/318/208 237/316/206
f 192/317/207 193/319/209 255/320/210 256/318/208
f 193/319/209 194/321/211 254/322/212 255/320/210
f 194/321/211 195/323/213 253/324/214 254/322/212
f 195/323/213 196/325/215 252/326/216 253/324/214
f 196/325/215 177/287/177 251/290/180 252/326/216
f 218/327/217 217/328/218 211/329/219 210/330/220
f 219/331/221 218/327/217 210/330/220 209/332/222
f 220/333/223 219/331/221 209/332/222 208/334/224
f 221/335/225 220/333/223 208/334/224 207/336/226
f 222/337/227 221/335/225 207/336/226 206/338/228
f 223/339/229 222/337/227 206/338/228 205/340/230
f 224/341/231 223/339/229 205/340/230 204/342/232
f 225/343/233 224/341/231 204/342/232 203/344/234
f 226/407/235 225/343/233 203/344/234 202/346/236
f 227/347/237 226/345/235 202/411/236 201/348/238
f 228/349/239 227/347/237 201/348/238 200/350/240
f 229/351/241 228/349/239 200/350/240 199/352/242
f 230/353/243 229/351/241 199/352/242 198/354/244
f 231/355/245 230/353/243 198/354/244 197/356/246
f 232/357/247 231/355/245 197/356/246 216/358/248
f 233/359/249 232/357/247 216/358/248 215/360/250
f 234/361/251 233/359/249 215/360/250 214/362/252
f 235/363/253 234/361/251 214/362/252 213/364/254
f 236/365/255 235/363/253 213/364/254 212/366/256
f 217/328/218 236/365/255 212/366/256 211/329/219
f 258/367/257 257/368/258 259/369/259 260/370/260
f 261/371/261 258/367/257 260/370/260 262/372/262
f 263/373/263 261/371/261 262/372/262 264/374/264
f 265/375/265 263/373/263 264/374/264 266/376/266
f 267/377/267 265/375/265 266/376/266 268/378/268
f 269/379/269 267/377/267 268/378/268 270/380/270
f 271/381/271 269/379/269 270/380/270 272/382/272
f 273/383/273 271/381/271 272/382/272 274/384/274
f 275/409/275 273/383/273 274/384/274 276/386/276
f 277/387/277 275/385/275 276/408/276 278/388/278
f 279/389/279 277/387/277 278/388/278 280/390/280
f 281/391/281 279/389/279 280/390/280 282/392/282
f 283/393/283 281/391/281 282/392/282 284/394/284
f 285/395/285 283/393/283 284/394/284 286/396/286
f 287/397/287 285/395/285 286/396/286 288/398/288
f 289/399/289 287/397/287 288/398/288 290/400/290
f 291/401/291 289/399/289 290/400/290 292/402/292
f 293/403/293 291/401/291 292/402/292 294/404/294
f 295/405/295 293/403/293 294/404/294 296/406/296
f 257/368/258 295/405/295 296/406/296 259/369/259
f 238/314/204 237/316/206 257/368/258 258/367/257
f 217/328/218 218/327/217 260/370/260 259/369/259
f 239/312/202 238/314/204 258/367/257 261/371/261
f 218/327/217 219/331/221 262/372/262 260/370/260
f 240/310/200 239/312/202 261/371/261 263/373/263
f 219/331/221 220/333/223 264/374/264 262/372/262
f 241/308/198 240/310/200 263/373/263 265/375/265
f 220/333/223 221/335/225 266/376/266 264/374/264
f 242/306/196 241/308/198 265/375/265 267/377/267
f 221/335/225 222/337/227 268/378/268 266/376/266
f 243/304/194 242/306/196 267/377/267 269/379/269
f 222/337/227 223/339/229 270/380/270 268/378/268
f 244/302/192 243/304/194 269/379/269 271/381/271
f 223/339/229 224/341/231 272/382/272 270/380/270
f 245/300/190 244/302/192 271/381/271 273/383/273
f 224/341/231 225/343/233 274/384/274 272/382/272
f 246/298/188 245/300/190 273/383/273 275/409/275
f 225/343/233 226/407/235 276/386/276 274/384/274
f 247/296/186 246/410/188 275/385/275 277/387/277
f 226/345/235 227/347/237 278/388/278 276/408/276
f 248/294/184 247/296/186 277/387/277 279/389/279
f 227/347/237 228/349/239 280/390/280 278/388/278
f 249/292/182 248/294/184 279/389/279 281/391/281
f 228/349/239 229/351/241 282/392/282 280/390/280
f 250/289/179 249/292/182 281/391/281 283/393/283
f 229/351/241 230/353/243 284/394/284 282/392/282
f 251/290/180 250/289/179 283/393/283 285/395/285
f 230/353/243 231/355/245 286/396/286 284/394/284
f 252/326/216 251/290/180 285/395/285 287/397/287
f 231/355/245 232/357/247 288/398/288 286/396/286
f 253/324/214 252/326/216 287/397/287 289/399/289
f 232/357/247 233/359/249 290/400/290 288/398/288
f 254/322/212 253/324/214 289/399/289 291/401/291
f 233/359/249 234/361/251 292/402/292 290/400/290
f 255/320/210 254/322/212 291/401/291 293/403/293
f 234/361/251 235/363/253 294/404/294 292/402/292
f 256/318/208 255/320/210 293/403/293 295/405/295
f 235/363/253 236/365/255 296/406/296 294/404/294
f 237/316/206 256/318/208 295/405/295 257/368/258
f 236/365/255 217/328/218 259/369/259 296/406/296
g default
v 3.650330 7.985124 11.244291
v -3.650635 7.985124 11.244293
v -6.943909 7.985124 9.566286
v -9.557800 7.985124 6.952703
v -11.235535 7.985124 3.659422
v -11.813721 7.985124 0.008787
v -11.235535 7.985124 -3.641849
v -9.557800 7.985124 -6.935131
v -6.943909 7.985124 -9.548697
v -3.650635 7.985124 -11.226723
v 3.650330 7.985124 -11.226725
v 6.943542 7.985124 -9.548717
v 9.557495 7.985124 -6.935133
v 11.235535 7.985124 -3.641850
v 11.813354 7.985124 0.008787
v 11.235535 7.985124 3.659422
v 9.557495 7.985124 6.952703
v 6.943542 7.985124 9.566266
v -0.252502 7.985124 -11.764917
v 0.252380 7.985124 -11.764917
v -0.252502 0.000000 15.054788
v 0.252380 0.000000 15.054788
v 0.252380 2.661707 14.870429
v 0.252380 5.323417 13.672123
v -0.252502 10.646832 8.141482
v 0.252380 10.646832 8.141482
v -0.252502 7.985124 11.782486
v 0.252380 7.985124 11.782486
v 0.252380 2.513227 14.279276
v -0.252502 2.513227 14.279276
v 0.252380 5.023771 13.149021
v -0.252502 5.023771 13.149021
v -0.252441 10.046831 0.008786
v 0.252380 10.046831 0.008786
v -0.252502 10.046831 7.945566
v 0.252380 10.046831 7.945566
v -0.252502 7.558279 11.349693
v 0.252380 7.558279 11.349693
v 14.347656 0.000000 -4.653044
v 12.204834 0.000000 -8.858543
v 8.867310 0.000000 -12.196045
v 4.661804 0.000000 -14.338854
v -4.661804 0.000000 -14.338853
v -8.867310 0.000000 -12.196044
v -12.204834 0.000000 -8.858541
v -14.348022 0.000000 -4.653043
v -15.085999 0.000000 0.008787
v -14.348022 0.000000 4.670617
v -12.204834 0.000000 8.876114
v -8.867310 0.000000 12.213615
v -4.661804 0.000000 14.356422
v 4.661804 0.000000 14.356422
v 8.867310 0.000000 12.213614
v 12.204834 0.000000 8.876113
v 14.347656 0.000000 4.670616
v 15.085999 0.000000 0.008787
v -0.252502 0.000000 -15.037218
v 0.252380 0.000000 -15.037218
v -0.252441 2.661707 14.870430
v -0.252441 5.323417 13.672123
v -0.252502 10.646832 0.008786
v 0.252380 10.646832 0.008786
v -0.252441 0.600001 14.411793
v 0.252380 0.600001 14.411793
v -0.352478 10.796831 -0.091214
v -2.541138 10.796831 7.829133
v -0.360229 10.793066 8.187598
v 0.360107 10.793066 8.187598
v 2.541016 10.796831 7.829134
v 0.352234 10.796831 -0.091214
v 3.652893 8.167191 11.252134
v 0.365906 8.165184 11.773479
v -0.366150 8.165184 11.773477
v -3.653320 8.167198 11.252140
v -6.948730 8.167194 9.572960
v -4.833313 10.796831 6.661180
v -9.564636 8.167223 6.957561
v -6.652649 10.796831 4.842014
v -11.243347 8.167192 3.661968
v -7.820312 10.796831 2.549816
v -11.821960 8.167200 0.008787
v -8.222900 10.796831 0.008785
v -11.243347 8.167193 -3.644396
v -7.820312 10.796831 -2.532247
v -9.564636 8.167204 -6.939981
v -6.652649 10.796831 -4.824441
v -6.948730 8.167192 -9.555368
v -4.833313 10.796831 -6.643589
v -3.653320 8.167196 -11.234567
v -2.541138 10.796831 -7.811564
v 3.652893 8.167191 -11.234568
v 6.948364 8.167202 -9.555396
v 2.541016 10.796831 -7.811562
v 4.833130 10.796831 -6.643610
v 9.564209 8.167202 -6.939983
v 6.652405 10.796831 -4.824440
v 11.243225 8.167190 -3.644398
v 7.820129 10.796831 -2.532259
v 11.821472 8.167198 0.008787
v 8.222717 10.796831 0.008783
v 11.243225 8.167190 3.661970
v 7.820129 10.796831 2.549836
v 9.564209 8.167204 6.957554
v 6.652405 10.796831 4.842008
v 6.948364 8.167194 9.572940
v 4.833130 10.796831 6.661156
v 0.259399 10.796831 -8.172894
v -0.259521 10.796831 -8.172894
v 0.253113 8.165707 -11.773056
v -0.253357 8.165712 -11.773060
v -4.275391 5.399038 13.166965
v -8.132324 5.399038 11.201809
v -3.706360 7.990136 11.415953
v -7.050110 7.990142 9.712317
v -11.193054 5.399042 8.140989
v -9.703857 7.990139 7.058800
v -13.158264 5.399037 4.284135
v -11.407227 7.990124 3.715191
v -13.835266 5.399024 0.008787
v -11.994202 7.990105 0.008787
v -13.158264 5.399035 -4.266561
v -11.407227 7.990128 -3.697619
v -11.192993 5.399033 -8.123406
v -9.703857 7.990125 -7.041217
v -8.132324 5.399035 -11.184218
v -7.049927 7.990127 -9.694712
v -4.275391 5.399042 -13.149400
v -3.706360 7.990139 -11.398383
v 4.275391 5.399047 -13.149409
v 8.132263 5.399047 -11.184245
v 3.706055 7.990146 -11.398394
v 7.049622 7.990145 -9.694744
v 11.192749 5.399049 -8.123421
v 9.703491 7.990118 -7.041214
v 13.157898 5.399045 -4.266566
v 11.407166 7.990100 -3.697609
v 13.835205 5.399034 0.008787
v 11.993774 7.990108 0.008787
v 13.157837 5.399051 4.284141
v 11.407166 7.990118 3.715188
v 11.192810 5.399043 8.140984
v 9.703491 7.990109 7.058779
v 8.132202 5.399042 11.201794
v 7.049622 7.990153 9.712302
v 4.275330 5.399038 13.166964
v 3.705994 7.990143 11.415956
v -4.651001 2.699275 14.323234
v -8.846863 2.699273 12.185383
v -12.176575 2.699282 8.855612
v -14.314514 2.699294 4.659845
v -15.051147 2.699291 0.008787
v -14.314514 2.699281 -4.642258
v -12.176575 2.699278 -8.838029
v -8.846863 2.699276 -12.167816
v -4.651001 2.699274 -14.305666
v 4.651123 2.699278 -14.305676
v 8.846741 2.699276 -12.167814
v 12.176575 2.699289 -8.838054
v 14.314453 2.699285 -4.642265
v 15.051086 2.699292 0.008787
v 14.314453 2.699289 4.659842
v 12.176575 2.699282 8.855604
v 8.846741 2.699282 12.185397
v 4.651001 2.699278 14.323244
v -0.264221 2.698836 -15.000623
v 0.264038 2.698836 -15.000621
v -0.262817 5.398332 -13.785318
v 0.262634 5.398331 -13.785317
v -0.266663 7.990078 -11.944645
v 0.266479 7.990077 -11.944643
v 0.374512 0.110004 15.180041
v 4.706543 0.110271 14.494091
v 0.374390 2.694936 15.002138
v -0.372131 5.390996 13.789926
v -0.370972 7.989365 11.946211
v 0.372009 5.390996 13.789925
v 0.370789 7.989365 11.946209
v -0.374512 2.694937 15.002139
v -4.706543 0.110271 14.494087
v -0.374695 0.110005 15.180041
v 12.321960 0.110272 -8.943636
v 14.485291 0.110271 -4.697782
v 8.952332 0.110272 -12.313156
v 4.706543 0.110271 -14.476517
v -8.952393 0.110267 -12.313136
v -4.706543 0.110270 -14.476527
v -12.322021 0.110275 -8.943639
v -14.485840 0.110285 -4.697785
v -15.230713 0.110285 0.008787
v -14.485779 0.110284 4.715350
v -12.322021 0.110281 8.961235
v -8.952393 0.110271 12.330730
v 8.952393 0.110274 12.330752
v 12.321960 0.110271 8.961204
v 14.485291 0.110271 4.715355
v 15.230774 0.110271 0.008787
v 0.263550 0.110132 -15.180041
v -0.263733 0.110132 -15.180041
vt 0.912131 0.455742
vt 0.883779 0.499245
vt 0.858545 0.477164
vt 0.880986 0.442507
vt 0.925643 0.405375
vt 0.891958 0.402186
vt 0.923161 0.353128
vt 0.890156 0.360249
vt 0.904918 0.304057
vt 0.875663 0.320790
vt 0.872649 0.262866
vt 0.849880 0.287654
vt 0.829383 0.233439
vt 0.815211 0.263898
vt 0.779205 0.218604
vt 0.774895 0.251881
vt 0.726873 0.219775
vt 0.732772 0.252749
vt 0.604569 0.310634
vt 0.635068 0.267851
vt 0.659306 0.291622
vt 0.634596 0.325755
vt 0.588459 0.360685
vt 0.621631 0.365926
vt 0.588369 0.413349
vt 0.621583 0.408206
vt 0.604311 0.463604
vt 0.634464 0.448520
vt 0.634711 0.506669
vt 0.658920 0.483002
vt 0.676623 0.538455
vt 0.692356 0.508449
vt 0.726180 0.555823
vt 0.731727 0.522797
vt 0.778763 0.556446
vt 0.773743 0.523931
vt 0.941658 0.468555
vt 0.908102 0.520630
vt 0.957627 0.408500
vt 0.954535 0.346349
vt 0.932722 0.288075
vt 0.894274 0.239214
vt 0.842822 0.204373
vt 0.783237 0.186851
vt 0.721153 0.188318
vt 0.575983 0.296213
vt 0.612259 0.245568
vt 0.556850 0.355639
vt 0.556717 0.418183
vt 0.575615 0.477910
vt 0.611779 0.529168
vt 0.661878 0.567006
vt 0.721239 0.587416
vt 0.783851 0.587632
vt 0.659425 0.210375
vt 0.665518 0.207101
vt 0.680266 0.235536
vt 0.674730 0.238574
vt 0.695640 0.265060
vt 0.690291 0.267874
vt 0.858150 0.584214
vt 0.847857 0.564794
vt 0.853956 0.561380
vt 0.833212 0.537264
vt 0.838546 0.534330
vt 0.502408 0.590043
vt 0.501991 0.586367
vt 0.577217 0.574324
vt 0.792114 0.464233
vt 0.821455 0.503838
vt 0.816650 0.506595
vt 0.850325 0.594981
vt 0.838469 0.569746
vt 0.877546 0.582570
vt 0.523559 0.407453
vt 0.523552 0.340380
vt 0.577968 0.579718
vt 0.493868 0.584751
vt 0.804852 0.460109
vt 0.787402 0.470389
vt 0.766833 0.475279
vt 0.571547 0.544749
vt 0.846648 0.529693
vt 0.829527 0.501013
vt 0.824944 0.541662
vt 0.810078 0.512148
vt 0.808593 0.509151
vt 0.773228 0.520295
vt 0.855853 0.474699
vt 0.827659 0.498210
vt 0.863066 0.556054
vt 0.840639 0.568629
vt 0.826913 0.540665
vt 0.844765 0.530817
vt 0.860985 0.557294
vt 0.578671 0.565908
vt 0.581549 0.587365
vt 0.788637 0.469042
vt 0.581066 0.609567
vt 0.827183 0.500715
vt 0.811031 0.509993
vt 0.929554 0.539968
vt 0.879259 0.580370
vt 0.546819 0.498244
vt 0.528168 0.422415
vt 0.526816 0.433743
vt 0.988250 0.344343
vt 0.989407 0.352284
vt 0.716064 0.159923
vt 0.922516 0.555243
vt 0.862347 0.599309
vt 0.966266 0.494634
vt 0.989313 0.423336
vt 0.965657 0.277203
vt 0.921557 0.217127
vt 0.861506 0.173548
vt 0.791281 0.150519
vt 0.717693 0.150134
vt 0.647896 0.172229
vt 0.588696 0.214476
vt 0.877478 0.440947
vt 0.495326 0.594009
vt 0.888147 0.401768
vt 0.497459 0.592725
vt 0.886413 0.361010
vt 0.496286 0.585328
vt 0.872335 0.322647
vt 0.580846 0.585569
vt 0.847280 0.290432
vt 0.578372 0.567861
vt 0.813579 0.267323
vt 0.409824 0.605172
vt 0.774377 0.255633
vt 0.409089 0.599648
vt 0.733397 0.256485
vt 0.480840 0.676922
vt 0.637972 0.327484
vt 0.661981 0.294215
vt 0.455041 0.667894
vt 0.433132 0.651356
vt 0.625376 0.366542
vt 0.417245 0.628848
vt 0.625338 0.407644
vt 0.409085 0.574852
vt 0.637883 0.446833
vt 0.417499 0.548633
vt 0.661689 0.480345
vt 0.433473 0.526310
vt 0.694176 0.505060
vt 0.455429 0.510002
vt 0.732447 0.519092
vt 0.481209 0.501218
vt 0.645228 0.185081
vt 0.545870 0.272507
vt 0.508281 0.500744
vt 0.533986 0.508531
vt 0.692314 0.271132
vt 0.697192 0.268557
vt 0.588764 0.556950
vt 0.647670 0.599957
vt 0.717656 0.622641
vt 0.791692 0.622488
vt 0.544209 0.499412
vt 0.524554 0.435981
vt 0.520733 0.405970
vt 0.520723 0.339986
vt 0.924476 0.557323
vt 0.863590 0.601882
vt 0.968774 0.496004
vt 0.992119 0.423862
vt 0.923486 0.215019
vt 0.968140 0.275791
vt 0.862696 0.170949
vt 0.791616 0.147680
vt 0.717140 0.147331
vt 0.646508 0.169730
vt 0.773481 0.522117
vt 0.857205 0.475932
vt 0.879237 0.441728
vt 0.890058 0.401976
vt 0.888288 0.360627
vt 0.874002 0.321715
vt 0.848582 0.289039
vt 0.814395 0.265607
vt 0.774636 0.253753
vt 0.733087 0.254613
vt 0.636281 0.326619
vt 0.660637 0.292918
vt 0.623499 0.366234
vt 0.623457 0.407926
vt 0.636169 0.447679
vt 0.660300 0.481677
vt 0.693264 0.506760
vt 0.732087 0.520948
vt 0.691281 0.269513
vt 0.696436 0.266799
vt 0.586608 0.212525
vt 0.652727 0.181441
vt 0.543286 0.271287
vt 0.591695 0.225270
vt 0.586658 0.558882
vt 0.549712 0.490665
vt 0.591068 0.549308
vt 0.648573 0.592650
vt 0.716942 0.615952
vt 0.788879 0.615950
vt 0.968087 0.480252
vt 0.646266 0.602446
vt 0.986368 0.411390
vt 0.982772 0.340278
vt 0.957764 0.273693
vt 0.913761 0.217909
vt 0.854940 0.178171
vt 0.786877 0.158213
vt 0.550267 0.283092
vt 0.528370 0.350977
vt 0.694878 0.326616
vt 0.714089 0.312274
vt 0.718890 0.309773
vt 0.741626 0.301934
vt 0.741340 0.473515
vt 0.555797 0.523734
vt 0.717297 0.463549
vt 0.695292 0.447595
vt 0.679449 0.425808
vt 0.671160 0.400339
vt 0.671170 0.373638
vt 0.679304 0.348200
vt 0.768308 0.301449
vt 0.793797 0.309200
vt 0.815624 0.324476
vt 0.831874 0.345643
vt 0.840738 0.370859
vt 0.841412 0.397757
vt 0.833686 0.423860
vt 0.820720 0.445925
vt 0.572350 0.634185
vt 0.556115 0.655083
vt 0.533955 0.670091
vt 0.803280 0.460910
vt 0.508024 0.677650
vt 0.797094 0.461466
vt 0.717097 0.625443
vt 0.792034 0.625326
vt 0.853146 0.594793
vt 0.990980 0.343586
vt 0.865382 0.580543
vt 0.992240 0.352131
vn -0.511948 0.491309 0.704645
vn -0.275218 0.491086 0.826493
vn -0.251027 0.608320 0.752949
vn -0.466530 0.608274 0.642147
vn -0.704645 0.491302 0.511954
vn -0.642153 0.608260 0.466540
vn -0.828358 0.491313 0.269137
vn -0.754894 0.608265 0.245254
vn -0.870977 0.491325 -0.000000
vn -0.793729 0.608271 0.000000
vn -0.828357 0.491313 -0.269141
vn -0.754895 0.608262 -0.245259
vn -0.704640 0.491308 -0.511957
vn -0.642150 0.608255 -0.466550
vn -0.511950 0.491317 -0.704638
vn -0.466531 0.608274 -0.642146
vn -0.273423 0.491118 -0.827069
vn -0.249453 0.608194 -0.753574
vn 0.511954 0.491335 -0.704622
vn 0.273419 0.491127 -0.827065
vn 0.249439 0.608210 -0.753566
vn 0.466521 0.608303 -0.642126
vn 0.704632 0.491333 -0.511943
vn 0.642150 0.608259 -0.466545
vn 0.828340 0.491340 -0.269144
vn 0.754903 0.608249 -0.245264
vn 0.870963 0.491348 0.000003
vn 0.793731 0.608269 0.000002
vn 0.828340 0.491340 0.269142
vn 0.754906 0.608246 0.245262
vn 0.704632 0.491333 0.511943
vn 0.642148 0.608259 0.466548
vn 0.511948 0.491336 0.704626
vn 0.466519 0.608299 0.642131
vn 0.275221 0.491098 0.826484
vn 0.251024 0.608333 0.752939
vn -0.569595 0.246835 0.783986
vn -0.305783 0.246610 0.919609
vn -0.783972 0.246856 0.569605
vn -0.921618 0.246877 0.299452
vn -0.969046 0.246880 0.000001
vn -0.921616 0.246885 -0.299453
vn -0.783971 0.246862 -0.569605
vn -0.569596 0.246836 -0.783985
vn -0.303799 0.246706 -0.920241
vn 0.569601 0.246838 -0.783980
vn 0.303799 0.246704 -0.920241
vn 0.783981 0.246863 -0.569590
vn 0.921618 0.246877 -0.299454
vn 0.969047 0.246877 0.000002
vn 0.921618 0.246879 0.299452
vn 0.783981 0.246867 0.569589
vn 0.569596 0.246849 0.783981
vn 0.305781 0.246615 0.919608
vn 0.135202 0.245217 -0.959994
vn -0.135209 0.245219 -0.959993
vn -0.120783 0.488402 -0.864219
vn 0.120777 0.488404 -0.864219
vn -0.110110 0.606345 -0.787541
vn 0.110108 0.606343 -0.787543
vn 0.907662 0.029001 0.418698
vn -0.907665 0.029000 0.418691
vn -0.827571 0.154089 0.539799
vn 0.827595 0.154074 0.539767
vn -0.793228 0.305778 0.526583
vn 0.793256 0.305765 0.526547
vn -0.768146 0.638453 0.048265
vn 0.768125 0.638478 0.048270
vn 0.836074 0.535867 0.117588
vn -0.836085 0.535849 0.117587
vn 0.807263 0.424629 0.409899
vn -0.807255 0.424632 0.409911
vn 0.113925 -0.003640 0.993483
vn 0.315315 0.016358 0.948846
vn 0.119156 0.244605 0.962274
vn 0.032446 0.999470 0.002463
vn -0.121468 0.924307 0.361805
vn 0.015223 0.926447 0.376117
vn -0.015221 0.926446 0.376119
vn 0.121476 0.924304 0.361808
vn -0.032442 0.999471 0.002464
vn -0.100524 0.488430 0.866794
vn -0.076106 0.617299 0.783039
vn 0.100525 0.488432 0.866792
vn 0.076106 0.617296 0.783041
vn 0.025722 0.772733 0.634209
vn 0.198906 0.781177 0.591777
vn -0.198906 0.781180 0.591772
vn -0.025730 0.772725 0.634219
vn -0.119158 0.244607 0.962273
vn -0.778178 -0.380446 0.499700
vn -0.979860 0.050273 0.193253
vn -0.984086 0.088826 0.153896
vn 0.984081 0.088847 0.153917
vn 0.979849 0.050277 0.193307
vn -0.980782 0.184077 0.064672
vn 0.980758 0.184203 0.064675
vn -0.983411 0.176532 0.041700
vn 0.983388 0.176653 0.041724
vn 0.972192 0.169380 0.161723
vn -0.972197 0.169352 0.161718
vn -0.315320 0.016356 0.948845
vn -0.113931 -0.003645 0.993482
vn 0.778201 -0.380346 0.499740
vn 0.950922 0.016839 -0.308973
vn 0.808900 0.016841 -0.587706
vn 0.587702 0.016834 -0.808903
vn 0.313334 0.016783 -0.949495
vn -0.313342 0.016785 -0.949492
vn -0.587698 0.016830 -0.808906
vn -0.808889 0.016862 -0.587720
vn -0.950924 0.016895 -0.308965
vn -0.999857 0.016883 0.000003
vn -0.950924 0.016892 0.308964
vn -0.808890 0.016861 0.587718
vn -0.587695 0.016830 0.808907
vn 0.587701 0.016841 0.808903
vn 0.808901 0.016843 0.587703
vn 0.950922 0.016840 0.308974
vn 0.999858 0.016840 0.000000
vn -0.366492 0.781797 0.504457
vn -0.224401 0.924251 0.308876
vn -0.504441 0.781808 0.366491
vn -0.310306 0.923516 0.225449
vn -0.593020 0.781800 0.192653
vn -0.366102 0.922944 0.118933
vn -0.623525 0.781803 0.000000
vn -0.385819 0.922575 -0.000000
vn -0.593019 0.781801 -0.192654
vn -0.367159 0.922479 -0.119277
vn -0.504441 0.781808 -0.366492
vn -0.312008 0.922640 -0.226687
vn -0.366493 0.781797 -0.504456
vn -0.226087 0.923061 -0.311196
vn -0.196651 0.781638 -0.591921
vn -0.121368 0.922966 -0.365246
vn 0.366498 0.781792 -0.504462
vn 0.196646 0.781634 -0.591928
vn 0.121371 0.922964 -0.365248
vn 0.226095 0.923058 -0.311200
vn 0.504437 0.781805 -0.366503
vn 0.312009 0.922638 -0.226692
vn 0.593013 0.781806 -0.192653
vn 0.367162 0.922477 -0.119279
vn 0.623525 0.781803 0.000000
vn 0.385825 0.922572 -0.000000
vn 0.593013 0.781806 0.192653
vn 0.366105 0.922942 0.118936
vn 0.504435 0.781805 0.366505
vn 0.310308 0.923514 0.225458
vn 0.366498 0.781791 0.504462
vn 0.224409 0.924248 0.308880
vn 0.139966 0.014652 -0.990048
vn -0.139973 0.014644 -0.990047
vn -0.045972 0.939499 -0.339453
vn 0.045975 0.939499 -0.339451
vn 0.082249 0.779739 -0.620679
vn -0.082247 0.779732 -0.620688
vn 0.214131 0.735226 0.643111
vn -0.214092 0.735206 0.643146
vn -0.399154 0.734057 0.549397
vn -0.549415 0.734010 0.399215
vn -0.645897 0.734025 0.209821
vn -0.679070 0.734073 0.000001
vn -0.645892 0.734030 -0.209819
vn -0.549471 0.733942 -0.399262
vn -0.399234 0.733930 -0.549507
vn -0.213322 0.735089 -0.643536
vn 0.399179 0.734025 -0.549421
vn 0.213335 0.735174 -0.643434
vn 0.549411 0.734019 -0.399203
vn 0.645787 0.734136 -0.209767
vn 0.678977 0.734160 -0.000004
vn 0.645772 0.734151 0.209765
vn 0.549403 0.734028 0.399199
vn 0.399177 0.734028 0.549419
vn 0.095147 0.717749 -0.689770
vn -0.095133 0.717758 -0.689764
vn 0.190432 -0.795582 0.575140
vn -0.190437 -0.795575 0.575147
vn 0.576337 -0.795469 -0.187258
vn 0.490266 -0.795461 -0.356204
vn 0.356221 -0.795451 -0.490271
vn 0.189872 -0.795468 -0.575482
vn -0.189864 -0.795494 -0.575448
vn -0.356162 -0.795506 -0.490223
vn -0.490098 -0.795603 -0.356118
vn -0.576148 -0.795618 -0.187206
vn -0.605931 -0.795517 0.000002
vn -0.576223 -0.795558 0.187228
vn -0.490120 -0.795586 0.356126
vn -0.356155 -0.795520 0.490205
vn 0.356168 -0.795507 0.490217
vn 0.490235 -0.795491 0.356180
vn 0.576337 -0.795469 0.187257
vn 0.605995 -0.795468 -0.000000
vn 0.085714 -0.792197 -0.604216
vn -0.085709 -0.792219 -0.604189
s 1
g S_P11_LP Pole_05_low
usemtl aiStandardSurface1SG
f 408/413/297 407/414/298 409/415/299 410/416/300
f 411/417/301 408/413/297 410/416/300 412/418/302
f 413/419/303 411/417/301 412/418/302 414/420/304
f 415/421/305 413/419/303 414/420/304 416/422/306
f 417/423/307 415/421/305 416/422/306 418/424/308
f 419/425/309 417/423/307 418/424/308 420/426/310
f 421/427/311 419/425/309 420/426/310 422/428/312
f 423/429/313 421/427/311 422/428/312 424/430/314
f 426/431/315 425/432/316 427/433/317 428/434/318
f 429/435/319 426/431/315 428/434/318 430/436/320
f 431/437/321 429/435/319 430/436/320 432/438/322
f 433/439/323 431/437/321 432/438/322 434/440/324
f 435/441/325 433/439/323 434/440/324 436/442/326
f 437/443/327 435/441/325 436/442/326 438/444/328
f 439/445/329 437/443/327 438/444/328 440/446/330
f 441/447/331 439/445/329 440/446/330 442/448/332
f 444/449/333 443/450/334 407/414/298 408/413/297
f 445/451/335 444/449/333 408/413/297 411/417/301
f 446/452/336 445/451/335 411/417/301 413/419/303
f 447/453/337 446/452/336 413/419/303 415/421/305
f 448/454/338 447/453/337 415/421/305 417/423/307
f 449/455/339 448/454/338 417/423/307 419/425/309
f 450/456/340 449/455/339 419/425/309 421/427/311
f 451/457/341 450/456/340 421/427/311 423/429/313
f 453/458/342 452/459/343 425/432/316 426/431/315
f 454/460/344 453/458/342 426/431/315 429/435/319
f 455/461/345 454/460/344 429/435/319 431/437/321
f 456/462/346 455/461/345 431/437/321 433/439/323
f 457/463/347 456/462/346 433/439/323 435/441/325
f 458/464/348 457/463/347 435/441/325 437/443/327
f 459/465/349 458/464/348 437/443/327 439/445/329
f 460/466/350 459/465/349 439/445/329 441/447/331
f 462/467/351 461/468/352 463/469/353 464/470/354
f 464/470/354 463/469/353 465/471/355 466/472/356
f 463/469/353 423/429/313 424/430/314 465/471/355
f 425/432/316 464/470/354 466/472/356 427/433/317
f 461/468/352 451/457/341 423/429/313 463/469/353
f 452/459/343 462/467/351 464/470/354 425/432/316
f 359/659/357 360/473/358 325/474/359 326/475/360
f 326/475/360 325/474/359 327/476/361 328/477/362
f 330/478/363 329/479/364 331/480/365 332/489/366
f 332/481/366 331/654/365 333/482/367 334/483/368
f 328/477/362 327/476/361 334/483/368 333/482/367
f 467/484/369 468/618/370 460/466/350 469/485/371
f 361/490/372 362/494/373 363/508/374
f 364/509/375 365/511/376 366/534/377
f 407/414/298 470/495/378 471/496/379 409/415/299
f 472/497/380 441/447/331 442/448/332 473/498/381
f 368/499/382 367/500/383 365/493/376 364/492/375
f 370/501/384 369/502/385 363/491/374 362/648/373
f 443/450/334 474/503/386 470/495/378 407/414/298
f 469/485/371 460/466/350 441/447/331 472/497/380
f 318/657/387 319/504/388 325/474/359 360/473/358
f 319/504/388 320/505/389 327/476/361 325/474/359
f 356/506/390 355/507/391 326/475/360 328/477/362
f 358/536/392 357/538/393 329/479/364 330/478/363
f 322/540/394 358/536/392 330/478/363 332/489/366
f 321/652/395 323/512/396 333/482/367 331/654/365
f 324/513/397 322/510/394 332/481/366 334/483/368
f 320/505/389 324/513/397 334/483/368 327/476/361
f 323/512/396 356/506/390 328/477/362 333/482/367
f 475/514/398 476/515/399 474/503/386 443/450/334
f 355/507/391 317/486/400 359/659/357 326/475/360
f 357/538/393 321/542/395 331/480/365 329/479/364
f 478/517/401 477/628/402 454/460/344 455/461/345
f 477/628/402 479/627/403 453/458/342 454/460/344
f 479/627/403 480/612/404 452/459/343 453/458/342
f 482/521/405 481/626/406 450/456/340 451/457/341
f 481/626/406 483/625/407 449/455/339 450/456/340
f 483/625/407 484/624/408 448/454/338 449/455/339
f 484/624/408 485/623/409 447/453/337 448/454/338
f 485/623/409 486/622/410 446/452/336 447/453/337
f 486/622/410 487/621/411 445/451/335 446/452/336
f 487/621/411 488/619/412 444/449/333 445/451/335
f 488/619/412 475/514/398 443/450/334 444/449/333
f 468/618/370 489/617/413 459/465/349 460/466/350
f 489/617/413 490/616/414 458/464/348 459/465/349
f 490/616/414 491/615/415 457/463/347 458/464/348
f 491/615/415 492/614/416 456/462/346 457/463/347
f 492/614/416 478/517/401 455/461/345 456/462/346
f 371/533/417 370/501/384 362/648/373 372/647/418
f 373/535/419 371/533/417 372/647/418 374/646/420
f 375/537/421 373/535/419 374/646/420 376/645/422
f 377/539/423 375/537/421 376/645/422 378/644/424
f 379/541/425 377/539/423 378/644/424 380/643/426
f 381/543/427 379/541/425 380/643/426 382/642/428
f 383/545/429 381/543/427 382/642/428 384/641/430
f 385/547/431 383/545/429 384/641/430 386/632/432
f 388/549/433 387/550/434 389/629/435 390/640/436
f 391/553/437 388/549/433 390/640/436 392/639/438
f 393/555/439 391/553/437 392/639/438 394/638/440
f 395/557/441 393/555/439 394/638/440 396/637/442
f 397/559/443 395/557/441 396/637/442 398/636/444
f 399/561/445 397/559/443 398/636/444 400/635/446
f 401/563/447 399/561/445 400/635/446 402/633/448
f 367/500/383 401/563/447 402/633/448 365/493/376
f 493/565/449 494/610/450 461/468/352 462/467/351
f 404/631/451 403/630/452 405/569/453 406/570/454
f 480/612/404 493/565/449 462/467/351 452/459/343
f 494/610/450 482/521/405 451/457/341 461/468/352
f 406/570/454 385/547/431 386/632/432 404/631/451
f 387/550/434 405/569/453 403/630/452 389/629/435
f 403/544/452 404/546/451 361/490/372 366/534/377
f 394/548/440 392/551/438 366/534/377
f 392/551/438 390/552/436 366/534/377
f 390/552/436 389/554/435 366/534/377
f 389/554/435 403/544/452 366/534/377
f 404/546/451 386/556/432 361/490/372
f 386/556/432 384/558/430 361/490/372
f 384/558/430 382/560/428 361/490/372
f 382/560/428 380/562/426 361/490/372
f 380/562/426 378/564/424 361/490/372
f 378/564/424 376/567/422 361/490/372
f 376/567/422 374/568/420 361/490/372
f 374/568/420 372/634/418 361/490/372
f 365/511/376 402/649/448 366/534/377
f 400/650/446 398/651/444 366/534/377
f 398/651/444 396/653/442 366/534/377
f 396/653/442 394/548/440 366/534/377
f 372/634/418 362/494/373 361/490/372
f 400/650/446 366/534/377 402/649/448
f 321/542/395 357/538/393 361/490/372 363/508/374
f 358/536/392 322/540/394 364/509/375 366/534/377
f 324/513/397 297/589/455 367/500/383 368/499/382
f 322/510/394 324/513/397 368/499/382 364/492/375
f 298/590/456 323/512/396 369/502/385 370/501/384
f 323/512/396 321/652/395 363/491/374 369/502/385
f 299/591/457 298/590/456 370/501/384 371/533/417
f 300/592/458 299/591/457 371/533/417 373/535/419
f 301/593/459 300/592/458 373/535/419 375/537/421
f 302/594/460 301/593/459 375/537/421 377/539/423
f 303/595/461 302/594/460 377/539/423 379/541/425
f 304/596/462 303/595/461 379/541/425 381/543/427
f 305/597/463 304/596/462 381/543/427 383/545/429
f 306/598/464 305/597/463 383/545/429 385/547/431
f 308/599/465 307/600/466 387/550/434 388/549/433
f 309/601/467 308/599/465 388/549/433 391/553/437
f 310/602/468 309/601/467 391/553/437 393/555/439
f 311/603/469 310/602/468 393/555/439 395/557/441
f 312/604/470 311/603/469 395/557/441 397/559/443
f 313/605/471 312/604/470 397/559/443 399/561/445
f 314/606/472 313/605/471 399/561/445 401/563/447
f 297/589/455 314/606/472 401/563/447 367/500/383
f 316/607/473 315/608/474 406/570/454 405/569/453
f 315/608/474 306/598/464 385/547/431 406/570/454
f 307/600/466 316/607/473 405/569/453 387/550/434
f 357/538/393 358/536/392 366/534/377 361/490/372
f 298/590/456 299/591/457 410/416/300 409/415/299
f 299/591/457 300/592/458 412/418/302 410/416/300
f 300/592/458 301/593/459 414/420/304 412/418/302
f 301/593/459 302/594/460 416/422/306 414/420/304
f 302/594/460 303/595/461 418/424/308 416/422/306
f 303/595/461 304/596/462 420/426/310 418/424/308
f 304/596/462 305/597/463 422/428/312 420/426/310
f 305/597/463 306/598/464 424/430/314 422/428/312
f 307/600/466 308/599/465 428/434/318 427/433/317
f 308/599/465 309/601/467 430/436/320 428/434/318
f 309/601/467 310/602/468 432/438/322 430/436/320
f 310/602/468 311/603/469 434/440/324 432/438/322
f 311/603/469 312/604/470 436/442/326 434/440/324
f 312/604/470 313/605/471 438/444/328 436/442/326
f 313/605/471 314/606/472 440/446/330 438/444/328
f 314/606/472 297/589/455 442/448/332 440/446/330
f 315/608/474 316/607/473 466/472/356 465/471/355
f 306/598/464 315/608/474 465/471/355 424/430/314
f 316/607/473 307/600/466 427/433/317 466/472/356
f 318/518/387 348/516/475 468/575/370 467/576/369
f 319/504/388 318/657/387 467/484/369 469/485/371
f 356/506/390 323/512/396 471/496/379 470/495/378
f 323/512/396 298/590/456 409/415/299 471/496/379
f 297/589/455 324/513/397 473/498/381 442/448/332
f 324/513/397 320/505/389 472/497/380 473/498/381
f 355/507/391 356/506/390 470/495/378 474/503/386
f 320/505/389 319/504/388 469/485/371 472/497/380
f 347/488/476 317/487/400 476/577/399 475/578/398
f 317/486/400 355/507/391 474/503/386 476/515/399
f 335/523/477 336/522/478 477/579/402 478/580/401
f 336/522/478 337/524/479 479/581/403 477/579/402
f 337/524/479 338/525/480 480/582/404 479/581/403
f 339/526/481 340/527/482 481/583/406 482/584/405
f 340/527/482 341/528/483 483/585/407 481/583/406
f 341/528/483 342/529/484 484/586/408 483/585/407
f 342/529/484 343/530/485 485/587/409 484/586/408
f 343/530/485 344/531/486 486/588/410 485/587/409
f 344/531/486 345/532/487 487/609/411 486/588/410
f 345/532/487 346/566/488 488/611/412 487/609/411
f 346/566/488 347/488/476 475/578/398 488/611/412
f 348/516/475 349/571/489 489/613/413 468/575/370
f 349/571/489 350/572/490 490/620/414 489/613/413
f 350/572/490 351/573/491 491/655/415 490/620/414
f 351/573/491 352/574/492 492/656/416 491/655/415
f 352/574/492 335/523/477 478/580/401 492/656/416
f 354/520/493 353/519/494 494/658/450 493/660/449
f 338/525/480 354/520/493 493/660/449 480/582/404
f 353/519/494 339/526/481 482/584/405 494/658/450
