# This file uses centimeters as units for non-parametric coordinates.

mtllib S_P17_01_LP.mtl
g default
v -45.727863 114.550385 45.725529
v -45.154091 114.312714 45.726250
v -45.153675 114.550385 46.300018
v -45.154091 115.124153 46.537689
v -45.727863 115.125328 46.300018
v -45.965523 115.124153 45.726250
v -37.004044 115.380455 46.303658
v -37.567509 115.107826 46.537689
v -37.557999 114.545563 46.309608
v -37.551174 114.312714 45.758930
v -36.999016 114.545502 45.480816
v -45.727863 131.429123 -45.726257
v -45.154091 131.666779 -45.726257
v -45.154091 131.429123 -46.300026
v -45.154091 130.855347 -46.537685
v -45.727863 130.855347 -46.300026
v -45.965523 130.855347 -45.726257
v 45.727863 131.429123 -45.726257
v 45.965523 130.855347 -45.726257
v 45.727863 130.855347 -46.300026
v 45.154095 130.855347 -46.537685
v 45.154095 131.429123 -46.300026
v 45.154095 131.666779 -45.726257
v -45.727863 115.125244 -46.300026
v -45.154091 115.124153 -46.537685
v -45.153366 114.550385 -46.300026
v -45.154091 114.312714 -45.726257
v -45.727863 114.550385 -45.725899
v -45.965523 115.124153 -45.726257
v -37.004044 114.546753 -45.469944
v -37.567509 114.312714 -45.742596
v -37.557938 114.540802 -46.304863
v -37.551174 115.091484 -46.537685
v -36.999649 115.366409 -46.302105
v -45.154091 131.429123 46.300018
v -45.154091 131.666779 45.726250
v -45.727863 131.429123 45.726250
v -45.965523 130.855347 45.726250
v -45.727863 130.855347 46.300018
v -45.154091 130.855347 46.537689
v 45.727863 114.550385 45.725838
v 45.965523 115.124153 45.726250
v 45.727863 115.125397 46.300018
v 45.154095 115.124153 46.537689
v 45.153275 114.550385 46.300018
v 45.154095 114.312714 45.726250
v 45.727863 131.429123 45.726250
v 45.154095 131.666779 45.726250
v 45.154095 131.429123 46.300018
v 45.154095 130.855347 46.537689
v 45.727863 130.855347 46.300018
v 45.965523 130.855347 45.726250
v 45.153728 114.550385 -46.300026
v 45.154095 115.124153 -46.537685
v 45.727863 115.125290 -46.300026
v 45.965523 115.124153 -45.726257
v 45.727856 114.550385 -45.725437
v 45.154095 114.312714 -45.726257
v -45.731503 115.380455 -37.593281
v -45.965523 115.107826 -38.156746
v -45.737442 114.545563 -38.147335
v -45.186764 114.312714 -38.140415
v -44.908661 114.545494 -37.588245
v 44.897781 114.546753 -37.593281
v 45.170433 114.312714 -38.156746
v 45.732700 114.540802 -38.147133
v 45.965523 115.091484 -38.140415
v 45.732754 115.369576 -37.588245
v -35.960987 119.756584 46.300018
v -37.583847 120.330353 46.537689
v -37.008595 118.706245 46.300018
v -37.594643 114.550766 -37.599045
v -37.583847 114.312714 -38.173084
v -37.009129 114.551697 -38.193382
v 37.923367 114.546753 45.470009
v 38.486824 114.312714 45.742588
v 38.477203 114.540802 46.304855
v 38.470482 115.091484 46.537689
v 37.918987 115.366295 46.302120
v 37.923367 115.380402 -46.303665
v 38.486824 115.107826 -46.537685
v 38.477406 114.545563 -46.309612
v 38.470482 114.312714 -45.758926
v 37.918346 114.545464 -45.480953
v 37.926418 118.705002 46.300018
v 38.503162 120.330353 46.537689
v 36.880295 119.756584 46.300018
v 37.929115 114.550766 -38.183926
v 38.503155 114.312714 -38.173084
v 38.514313 114.550766 -37.599052
v -37.007111 118.705002 -46.300026
v -37.583847 120.330353 -46.537685
v -35.960987 119.756584 -46.300026
v 36.880295 119.756584 -46.300026
v 38.503162 120.330353 -46.537685
v 37.927902 118.706245 -46.300026
v 45.727863 118.705017 -37.596348
v 45.965523 120.330376 -38.173084
v 45.727863 119.756607 -36.550224
v 45.727863 119.756607 37.467815
v 45.965523 120.330376 39.090679
v 45.727863 118.706245 38.515423
v -45.727863 119.756584 -36.550217
v -45.965523 120.330353 -38.173077
v -45.727863 118.706245 -37.597824
v -45.727856 118.705017 38.513939
v -45.965523 120.330376 39.090679
v -45.727856 119.756607 37.467815
v -44.897850 114.546753 38.510887
v -45.170433 114.312714 39.074337
v -45.732700 114.540802 39.064766
v -45.965523 115.091484 39.058006
v -45.729958 115.366295 38.506500
v -37.009808 114.550766 39.101471
v -37.583847 114.312714 39.090679
v -37.595104 114.550766 38.516644
v 38.514004 114.550766 38.516636
v 38.503155 114.312714 39.090679
v 37.928436 114.551697 39.111073
v 45.731510 115.380402 38.510887
v 45.965523 115.107826 39.074337
v 45.737450 114.545563 39.064827
v 45.186768 114.312714 39.058006
v 44.911961 114.548309 38.506500
v 37.454063 118.707497 44.925350
v 37.691734 118.707497 45.499119
v 37.454071 119.281265 45.498085
v 36.880295 119.518944 45.499119
v 36.879505 119.281265 44.925350
v 36.880295 118.707497 44.687687
v -36.534748 118.707497 44.925350
v -35.960987 118.707497 44.687687
v -35.959412 119.281265 44.925339
v -35.960987 119.518944 45.499119
v -36.534748 119.281265 45.498600
v -36.772419 118.707497 45.499119
v -36.537552 115.929794 44.127308
v -35.969162 116.162727 43.884430
v -35.975327 116.395592 44.452446
v -35.977341 116.957794 44.687687
v -36.539886 116.718071 44.921360
v -36.772419 116.162727 45.506977
v -36.772419 115.582375 45.267700
v -36.772419 115.343430 44.687687
v 37.456875 115.929794 44.127308
v 37.691734 115.343430 44.687687
v 37.691734 115.581718 45.274021
v 37.691734 116.162727 45.514839
v 37.456558 116.726875 44.926315
v 36.888477 116.965958 44.687687
v 36.888638 116.397987 44.452423
v 36.888477 116.162727 43.884430
v -35.960197 119.281265 -44.925346
v -35.960987 118.707497 -44.687687
v -36.534748 118.707497 -44.925354
v -36.772419 118.707497 -45.499119
v -36.534756 119.281265 -45.498081
v -35.960987 119.518944 -45.499119
v -36.537552 115.929794 -44.127319
v -36.772419 115.343430 -44.687687
v -36.772419 115.581985 -45.274075
v -36.772419 116.162727 -45.514839
v -36.537251 116.726875 -44.926311
v -35.969162 116.965958 -44.687687
v -35.969421 116.397987 -44.452423
v -35.969162 116.162727 -43.884438
v 37.454063 118.707497 -44.925354
v 36.880295 118.707497 -44.687687
v 36.878727 119.281265 -44.925346
v 36.880295 119.518944 -45.499119
v 37.454063 119.281265 -45.498608
v 37.691734 118.707497 -45.499119
v 37.456875 115.929794 -44.127319
v 36.888477 116.162727 -43.884438
v 36.894562 116.395592 -44.452454
v 36.896648 116.957794 -44.687687
v 37.459194 116.718071 -44.921368
v 37.691734 116.162727 -45.506981
v 37.691734 115.582512 -45.267746
v 37.691734 115.343430 -44.687687
v -37.436634 115.935883 38.053638
v -36.397732 116.162727 37.919289
v -36.535561 115.934669 38.956688
v -36.772419 115.366341 39.075626
v -37.005672 115.367592 38.512505
v -37.568798 115.366341 38.279247
v 38.356003 115.935875 38.053638
v 38.488106 115.366341 38.279247
v 37.924934 115.375877 38.508091
v 37.691723 115.381371 39.060577
v 37.464001 115.939041 38.927353
v 37.325668 116.162727 37.913185
v -36.412449 116.162727 -36.986969
v -37.449860 115.934669 -37.124805
v -37.568798 115.366341 -37.361656
v -37.005627 115.375404 -37.590492
v -36.772419 115.381371 -38.142986
v -36.544693 115.939041 -38.009762
v 38.356003 115.935875 -37.136047
v 37.317039 116.162727 -37.001694
v 37.454876 115.934669 -38.039097
v 37.691723 115.366341 -38.158035
v 37.924980 115.367592 -37.594910
v 38.488106 115.366341 -37.361656
v -44.353184 119.281265 -36.548656
v -44.926952 119.518944 -36.550224
v -44.926437 119.281265 -37.123985
v -44.926952 118.707497 -37.361649
v -44.353184 118.707497 -37.123985
v -44.115532 118.707497 -36.550224
v -43.555149 115.929794 -37.126793
v -43.312275 116.162727 -36.558407
v -43.880280 116.395592 -36.564480
v -44.115524 116.957794 -36.566578
v -44.349197 116.718071 -37.129124
v -44.934811 116.162727 -37.361656
v -44.695576 115.582535 -37.361656
v -44.115524 115.343430 -37.361656
v -43.555149 115.929794 38.044392
v -44.115532 115.343430 38.279247
v -44.702026 115.582664 38.279247
v -44.942677 116.162727 38.279247
v -44.354149 116.726875 38.044083
v -44.115532 116.965958 37.475990
v -43.880257 116.397987 37.476254
v -43.312275 116.162727 37.475990
v -44.353184 119.281273 37.467030
v -44.115524 118.707497 37.467815
v -44.353184 118.707497 38.041588
v -44.926952 118.707497 38.279247
v -44.925919 119.281273 38.041588
v -44.926952 119.518951 37.467815
v 44.348450 116.723099 38.044392
v 44.934822 116.162727 38.279247
v 44.695484 115.576408 38.279247
v 44.115524 115.335564 38.279247
v 43.551373 115.924088 38.044083
v 43.312275 116.162727 37.475990
v 43.880260 116.397987 37.476158
v 44.115524 116.965958 37.475990
v 44.348450 116.723099 -37.126793
v 44.115524 116.965958 -36.558407
v 43.882664 116.397987 -36.562923
v 43.320450 116.162727 -36.566578
v 43.560181 115.929039 -37.129124
v 44.115524 115.343430 -37.361656
v 44.695545 115.582375 -37.361656
v 44.934822 116.162727 -37.361656
v 44.353184 119.281273 37.467030
v 44.926956 119.518951 37.467815
v 44.926437 119.281273 38.041588
v 44.926956 118.707497 38.279247
v 44.353191 118.707497 38.041588
v 44.115524 118.707497 37.467815
v 44.353184 119.281273 -36.549427
v 44.115524 118.707497 -36.550224
v 44.353191 118.707497 -37.123985
v 44.926956 118.707497 -37.361656
v 44.926437 119.281273 -37.123985
v 44.926956 119.518951 -36.550224
v -45.622257 114.656296 46.194309
v -37.001781 114.792419 46.059399
v -45.622414 131.323669 -46.194569
v 45.622406 131.323669 -46.194569
v -45.622143 114.656258 -46.194447
v -37.001911 114.788193 -46.054554
v -45.622414 131.323669 46.194569
v 45.622105 114.656303 46.194431
v 45.622406 131.323669 46.194569
v 45.622284 114.656288 -46.194267
v -45.487133 114.792305 -37.591049
v 45.484795 114.789948 -37.590981
v -36.702099 119.448898 46.300152
v -37.119205 114.656052 -37.712574
v 37.921227 114.788284 46.054710
v 37.921135 114.792290 -46.059345
v 37.620602 119.448486 46.300175
v 38.039005 114.655739 -37.708805
v -36.701294 119.448486 -46.300179
v 37.621407 119.448898 -46.300156
v 45.727924 119.448486 -37.290569
v 45.727989 119.448906 38.208927
v -45.727993 119.448898 -37.291328
v -45.728008 119.448486 38.208122
v -45.482269 114.788025 38.508739
v -37.119743 114.655754 38.626373
v 38.038528 114.655983 38.630184
v 45.488937 114.794640 38.508797
v 37.348320 119.175835 45.030567
v -36.428703 119.175873 45.030952
v -36.539082 116.159279 44.690128
v 37.456646 116.162529 44.694401
v -36.429005 119.175835 -45.030563
v -36.537376 116.162727 -44.694546
v 37.348019 119.175873 -45.030952
v 37.458374 116.159409 -44.690235
v -36.757763 115.978874 38.275276
v 37.682678 115.981171 38.265354
v -36.767811 115.980721 -37.341515
v 37.677094 115.978874 -37.357655
v -44.458786 119.175873 -37.017944
v -44.118065 116.159409 -37.128304
v -44.122601 116.163063 38.044182
v -44.458401 119.175858 37.935837
v 44.115509 116.156242 38.044113
v 44.119019 116.160347 -37.127842
v 44.458836 119.175880 37.935822
v 44.458836 119.175880 -37.018227
vt 0.462641 0.946742
vt 0.461357 0.946378
vt 0.948109 0.234978
vt 0.462250 0.932153
vt 0.946660 0.234918
vt 0.947039 0.219420
vt 0.948418 0.219432
vt 0.946748 0.237945
vt 0.463545 0.932279
vt 0.948252 0.237808
vt 0.459018 0.946720
vt 0.949499 0.255961
vt 0.948059 0.256017
vt 0.946695 0.236430
vt 0.902735 0.236488
vt 0.480383 0.950000
vt 0.902735 0.234941
vt 0.902735 0.238038
vt 0.947581 0.259431
vt 0.480035 0.951658
vt 0.484568 0.947421
vt 0.946312 0.259278
vt 0.947637 0.257334
vt 0.485105 0.949133
vt 0.482311 0.951233
vt 0.482087 0.949396
vt 0.948986 0.257529
vt 0.939248 0.258711
vt 0.128973 0.998559
vt 0.940244 0.260347
vt 0.128973 0.996688
vt 0.426552 0.996688
vt 0.951486 0.483770
vt 0.951486 0.483770
vt 0.951486 0.248490
vt 0.952845 0.248523
vt 0.902735 0.007978
vt 0.902735 0.007978
vt 0.987889 0.483770
vt 0.426552 0.998559
vt 0.942552 0.007978
vt 0.428441 0.996688
vt 0.987949 0.483770
vt 0.952802 0.245367
vt 0.951486 0.245409
vt 0.951486 0.005406
vt 0.483112 0.932858
vt 0.484947 0.932162
vt 0.951486 0.005370
vt 0.481790 0.933095
vt 0.952825 0.246946
vt 0.992893 0.246853
vt 0.462314 0.688600
vt 0.992886 0.248422
vt 0.462291 0.687029
vt 0.992914 0.245282
vt 0.481512 0.686913
vt 0.481465 0.688453
vt 0.460745 0.688602
vt 0.989453 0.483770
vt 0.989437 0.463868
vt 0.462382 0.707680
vt 0.460871 0.707711
vt 0.485630 0.689573
vt 0.990866 0.463969
vt 0.944003 0.007978
vt 0.426552 0.695339
vt 0.428441 0.695339
vt 0.945263 0.024167
vt 0.943862 0.024222
vt 0.987622 0.460648
vt 0.128973 0.695339
vt 0.988873 0.460485
vt 0.990331 0.462358
vt 0.485079 0.691062
vt 0.988998 0.462569
vt 0.482984 0.689116
vt 0.483363 0.687535
vt 0.980577 0.461040
vt 0.981600 0.459458
vt 0.902735 0.238011
vt 0.483018 0.707946
vt 0.902735 0.474333
vt 0.481693 0.707704
vt 0.902735 0.474333
vt 0.902735 0.234967
vt 0.484880 0.708724
vt 0.902735 0.007978
vt 0.722094 0.949206
vt 0.720569 0.949202
vt 0.720555 0.932867
vt 0.987513 0.003825
vt 0.722025 0.932842
vt 0.989043 0.003825
vt 0.720596 0.950727
vt 0.990474 0.019689
vt 0.989012 0.019768
vt 0.944369 0.474333
vt 0.704153 0.950837
vt 0.704199 0.949343
vt 0.944316 0.474333
vt 0.951486 0.003825
vt 0.720605 0.687094
vt 0.720575 0.688640
vt 0.945888 0.474333
vt 0.703945 0.688401
vt 0.703939 0.686907
vt 0.722121 0.688644
vt 0.945584 0.456640
vt 0.947011 0.456726
vt 0.721941 0.707543
vt 0.720428 0.707472
vt 0.465063 0.711197
vt 0.994413 0.248345
vt 0.994877 0.264551
vt 0.993423 0.264542
vt 0.994458 0.245383
vt 0.993880 0.226659
vt 0.995336 0.226718
vt 0.943354 0.027511
vt 0.942151 0.027357
vt 0.463620 0.711773
vt 0.461519 0.709564
vt 0.943442 0.025495
vt 0.463073 0.709149
vt 0.481967 0.709025
vt 0.482677 0.710863
vt 0.944740 0.025698
vt 0.935337 0.026943
vt 0.719238 0.711525
vt 0.717814 0.710961
vt 0.719754 0.708943
vt 0.936322 0.028475
vt 0.991951 0.223397
vt 0.721299 0.709349
vt 0.993233 0.223202
vt 0.994747 0.225101
vt 0.993391 0.225345
vt 0.703536 0.708865
vt 0.703799 0.707569
vt 0.984772 0.224081
vt 0.985755 0.222413
vt 0.702821 0.710668
vt 0.484058 0.710061
vt 0.939007 0.261089
vt 0.938224 0.262200
vt 0.482855 0.708848
vt 0.700157 0.948281
vt 0.936104 0.262110
vt 0.937228 0.259971
vt 0.933534 0.450365
vt 0.935656 0.450331
vt 0.943722 0.453392
vt 0.944984 0.453218
vt 0.946471 0.455110
vt 0.945129 0.455328
vt 0.936631 0.453820
vt 0.937647 0.452226
vt 0.992716 0.267962
vt 0.991475 0.267735
vt 0.992920 0.265854
vt 0.994266 0.266131
vt 0.984418 0.267031
vt 0.985372 0.268653
vt 0.936421 0.451461
vt 0.934615 0.452526
vt 0.980387 0.458693
vt 0.978585 0.459746
vt 0.979636 0.457574
vt 0.977526 0.457596
vt 0.981213 0.270345
vt 0.983321 0.270452
vt 0.984122 0.269367
vt 0.982363 0.268242
vt 0.984486 0.221678
vt 0.982691 0.222831
vt 0.983673 0.220562
vt 0.981520 0.220675
vt 0.976971 0.026327
vt 0.979127 0.026339
vt 0.979886 0.025188
vt 0.700668 0.946831
vt 0.702720 0.948708
vt 0.702364 0.950236
vt 0.702692 0.932636
vt 0.704000 0.932858
vt 0.700843 0.931873
vt 0.700385 0.690989
vt 0.699851 0.689533
vt 0.702097 0.687509
vt 0.702465 0.689056
vt 0.702470 0.707821
vt 0.700622 0.708506
vt 0.701443 0.709866
vt 0.702640 0.708699
vt 0.978040 0.024119
vt 0.981122 0.024396
vt 0.980061 0.022776
vt 0.988594 0.021126
vt 0.987267 0.023130
vt 0.935146 0.029209
vt 0.934414 0.030287
vt 0.932377 0.030258
vt 0.933409 0.028185
vt 0.935227 0.213947
vt 0.937262 0.213851
vt 0.464574 0.928805
vt 0.465820 0.929260
vt 0.464118 0.931003
vt 0.462820 0.930649
vt 0.938026 0.214890
vt 0.482077 0.931783
vt 0.482800 0.929953
vt 0.484150 0.930776
vt 0.482957 0.931960
vt 0.701665 0.930532
vt 0.939227 0.215574
vt 0.938306 0.217122
vt 0.936328 0.215967
vt 0.946529 0.218191
vt 0.945078 0.216436
vt 0.946247 0.216195
vt 0.947808 0.217896
vt 0.703042 0.929744
vt 0.703746 0.931556
vt 0.702857 0.931733
vt 0.719898 0.931428
vt 0.717965 0.929445
vt 0.988561 0.023263
vt 0.719381 0.928895
vt 0.989961 0.021307
vt 0.938318 0.451232
vt 0.943065 0.451862
vt 0.721409 0.931044
vt 0.488231 0.945220
vt 0.486431 0.945922
vt 0.486392 0.931278
vt 0.486948 0.928013
vt 0.488220 0.946981
vt 0.697505 0.944896
vt 0.697505 0.946657
vt 0.699089 0.945460
vt 0.699436 0.930969
vt 0.698897 0.927794
vt 0.486678 0.692484
vt 0.486279 0.709634
vt 0.488271 0.693085
vt 0.486799 0.712828
vt 0.938786 0.450315
vt 0.943204 0.450396
vt 0.937222 0.450314
vt 0.939789 0.262261
vt 0.941351 0.262299
vt 0.940899 0.261368
vt 0.945678 0.260825
vt 0.945790 0.262314
vt 0.488273 0.691327
vt 0.947358 0.262336
vt 0.944784 0.450423
vt 0.982748 0.457575
vt 0.981193 0.457565
vt 0.984878 0.270526
vt 0.986433 0.270577
vt 0.982275 0.458476
vt 0.986988 0.459129
vt 0.697205 0.691186
vt 0.987141 0.457682
vt 0.988713 0.457718
vt 0.990848 0.270625
vt 0.992405 0.270658
vt 0.986002 0.269661
vt 0.990776 0.269206
vt 0.935919 0.030303
vt 0.938764 0.213788
vt 0.937420 0.030299
vt 0.940264 0.213743
vt 0.936971 0.029427
vt 0.941551 0.028811
vt 0.941682 0.030193
vt 0.943186 0.030171
vt 0.697192 0.692941
vt 0.128973 0.693450
vt 0.946019 0.213672
vt 0.944502 0.213691
vt 0.426552 0.693450
vt 0.944399 0.215046
vt 0.127142 0.695339
vt 0.939839 0.214613
vt 0.986644 0.024703
vt 0.981818 0.025401
vt 0.986796 0.026196
vt 0.982308 0.026324
vt 0.988402 0.026154
vt 0.992945 0.220326
vt 0.991342 0.220347
vt 0.991259 0.221851
vt 0.698788 0.692374
vt 0.699179 0.709373
vt 0.698636 0.712601
vt 0.483730 0.928532
vt 0.986405 0.221375
vt 0.986852 0.220429
vt 0.980719 0.026340
vt 0.985263 0.220486
vt 0.467008 0.927879
vt 0.467395 0.926443
vt 0.934572 0.257859
vt 0.975255 0.022066
vt 0.127142 0.996688
vt 0.930786 0.026218
vt 0.979713 0.266103
vt 0.127142 0.998559
vt 0.975861 0.461774
vt 0.931885 0.454574
vt 0.428441 0.998559
vt 0.980004 0.225010
vt 0.127142 0.693450
vt 0.428441 0.693450
vt 0.933764 0.218038
vt 0.947887 0.236388
vt 0.902735 0.007978
vt 0.951486 0.246963
vt 0.702121 0.928325
vt 0.989169 0.483770
vt 0.902735 0.236464
vt 0.716575 0.927897
vt 0.716015 0.926337
vt 0.483562 0.712296
vt 0.988712 0.003825
vt 0.466484 0.712759
vt 0.467080 0.714319
vt 0.951486 0.003825
vt 0.701891 0.712081
vt 0.716417 0.712495
vt 0.994176 0.246868
vt 0.715826 0.714029
vt 0.465326 0.714308
vt 0.937324 0.451002
vt 0.465641 0.926445
vt 0.717772 0.926333
vt 0.939901 0.261576
vt 0.717569 0.714042
vt 0.460284 0.945657
vt 0.947049 0.260724
vt 0.944418 0.451979
vt 0.460962 0.687283
vt 0.721871 0.950478
vt 0.981289 0.458241
vt 0.988333 0.459256
vt 0.721901 0.687343
vt 0.486817 0.947541
vt 0.985004 0.269855
vt 0.698800 0.946927
vt 0.992103 0.269148
vt 0.936015 0.029650
vt 0.487004 0.691003
vt 0.698494 0.690912
vt 0.942839 0.028696
vt 0.485685 0.929267
vt 0.700148 0.929021
vt 0.945663 0.215114
vt 0.485553 0.711585
vt 0.699903 0.711359
vt 0.938878 0.214425
vt 0.988036 0.024560
vt 0.465046 0.713075
vt 0.465664 0.927702
vt 0.992649 0.221934
vt 0.718007 0.927594
vt 0.717834 0.712816
vt 0.980811 0.025647
vt 0.985388 0.221176
vt 0.942500 0.007978
vt 0.943737 0.007978
vt 0.951486 0.483770
vt 0.951486 0.483770
vt 0.902735 0.474333
vt 0.902735 0.474333
vt 0.987431 0.003825
vt 0.945598 0.474333
vn -0.027781 -0.999110 0.031749
vn -0.703767 -0.710019 0.024199
vn -0.704696 -0.708289 -0.041595
vn -0.029675 -0.999217 -0.026188
vn -0.998736 -0.019905 0.046158
vn -0.999656 -0.022830 -0.012896
vn -0.041116 -0.019912 0.998956
vn -0.021400 -0.703738 0.710138
vn 0.036804 -0.704817 0.708434
vn 0.011288 -0.022603 0.999681
vn 0.023272 -0.999167 0.033515
vn -0.707076 -0.009827 0.707069
vn -0.707075 0.009836 0.707070
vn -0.999431 0.033218 0.005826
vn -0.006164 0.034705 0.999379
vn 0.974737 -0.156275 0.159578
vn 0.957766 -0.019049 0.286918
vn 0.667233 -0.033141 0.744111
vn 0.842693 -0.374655 0.386655
vn 0.956686 -0.290969 0.009425
vn 0.680477 -0.732458 0.021337
vn 0.657340 -0.029704 0.753008
vn 0.947251 -0.068064 0.313183
vn 0.783739 -0.620539 -0.026166
vn 0.945227 -0.325061 -0.029678
vn 0.027340 -0.999141 -0.031130
vn -0.006163 0.034701 -0.999379
vn -0.001751 0.707107 -0.707104
vn 0.001751 0.707107 -0.707104
vn 0.005907 0.033261 -0.999429
vn -0.002609 0.999993 -0.002577
vn 0.002609 0.999993 -0.002577
vn -0.999381 0.034666 -0.006080
vn -0.707069 0.009836 -0.707076
vn -0.707068 -0.009828 -0.707077
vn -0.998953 -0.019910 -0.041201
vn -0.041057 -0.020059 -0.998956
vn 0.999381 0.034664 -0.006080
vn 0.707108 0.707104 -0.001729
vn 0.707108 0.707104 0.001729
vn 0.999431 0.033220 0.005827
vn 0.002609 0.999993 0.002577
vn 0.707071 0.009836 -0.707074
vn 0.707072 -0.009828 -0.707073
vn 0.046144 -0.019768 -0.998739
vn 0.998952 -0.020055 -0.041138
vn -0.028112 -0.999215 -0.027915
vn -0.021377 -0.710123 -0.703753
vn 0.036797 -0.708345 -0.704907
vn 0.023165 -0.999292 -0.029637
vn 0.011339 -0.022636 -0.999680
vn -0.710135 -0.703738 -0.021445
vn -0.708436 -0.704811 0.036875
vn -0.999681 -0.022605 0.011313
vn -0.029673 -0.999293 0.023099
vn 0.974492 -0.160436 -0.156927
vn 0.956472 -0.291716 -0.007996
vn 0.677312 -0.735458 -0.018701
vn 0.842334 -0.387827 -0.374250
vn 0.958070 -0.018726 -0.285923
vn 0.668880 -0.033688 -0.742607
vn 0.785822 -0.618060 0.022035
vn 0.027404 -0.999244 0.027562
vn 0.945592 -0.324293 0.026259
vn 0.660573 -0.029060 -0.750199
vn 0.947385 -0.067359 -0.312930
vn -0.002609 0.999993 0.002577
vn -0.001751 0.707112 0.707099
vn 0.001751 0.707112 0.707099
vn 0.005907 0.033261 0.999429
vn -0.707106 0.707106 0.001729
vn -0.707106 0.707106 -0.001729
vn 0.998735 -0.019765 0.046234
vn 0.710040 -0.703745 0.024226
vn 0.708342 -0.704643 -0.041588
vn 0.999659 -0.022771 -0.012822
vn 0.031583 -0.999009 0.031367
vn 0.033573 -0.999083 -0.026569
vn 0.046064 -0.019908 0.998740
vn 0.707077 -0.009827 0.707069
vn 0.707077 0.009836 0.707068
vn 0.024144 -0.710024 0.703764
vn -0.041509 -0.708300 0.704690
vn -0.026382 -0.999090 0.033501
vn -0.012864 -0.022826 0.999657
vn 0.024172 -0.703745 -0.710041
vn -0.041503 -0.704589 -0.708401
vn -0.012804 -0.022773 -0.999659
vn 0.031381 -0.999113 -0.028087
vn -0.026047 -0.999215 -0.029859
vn 0.703757 -0.710118 -0.021420
vn 0.704854 -0.708393 0.036888
vn 0.033335 -0.999170 0.023392
vn 0.999680 -0.022644 0.011283
vn -0.159590 -0.156272 0.974736
vn -0.286913 -0.019051 0.957767
vn -0.744115 -0.033156 0.667228
vn -0.386650 -0.374685 0.842682
vn -0.008254 -0.291869 0.956423
vn -0.018896 -0.735766 0.676972
vn -0.753011 -0.029706 0.657337
vn -0.313174 -0.068065 0.947254
vn 0.023186 -0.618704 0.785282
vn 0.025702 -0.324958 0.945379
vn 0.156323 -0.159620 0.974723
vn 0.009371 -0.291688 0.956468
vn 0.021284 -0.733872 0.678954
vn 0.374460 -0.386826 0.842702
vn 0.284334 -0.018905 0.958539
vn 0.741761 -0.033258 0.669839
vn -0.025451 -0.623681 0.781265
vn -0.030969 -0.999142 0.027499
vn -0.029332 -0.322496 0.946116
vn 0.749706 -0.028867 0.661141
vn 0.311656 -0.067538 0.947792
vn 0.673639 -0.672977 0.305472
vn 0.003026 -0.945175 0.326551
vn 0.001701 -0.695305 0.718713
vn 0.452782 -0.452100 0.768502
vn -0.001703 -0.695304 0.718713
vn -0.003026 -0.945169 0.326567
vn 0.651031 -0.382966 0.655359
vn 0.623859 -0.477270 0.618881
vn -0.974490 -0.160446 0.156926
vn -0.956705 -0.290916 0.009106
vn -0.680650 -0.732306 0.021078
vn -0.842330 -0.387811 0.374278
vn -0.958067 -0.018728 0.285933
vn -0.668887 -0.033679 0.742601
vn -0.784304 -0.619868 -0.025098
vn -0.030739 -0.999043 -0.031113
vn -0.945398 -0.324533 -0.030028
vn -0.660579 -0.029060 0.750194
vn -0.947384 -0.067359 0.312933
vn -0.974735 -0.156275 -0.159591
vn -0.957765 -0.019049 -0.286921
vn -0.667227 -0.033153 -0.744116
vn -0.842684 -0.374671 -0.386660
vn -0.956424 -0.291864 -0.008273
vn -0.677032 -0.735710 -0.018938
vn -0.657335 -0.029705 -0.753013
vn -0.947250 -0.068065 -0.313184
vn -0.785298 -0.618691 0.022982
vn -0.945400 -0.324884 0.025864
vn -0.674221 -0.672753 0.304678
vn -0.453274 -0.451926 0.768313
vn -0.653301 -0.379637 0.655038
vn -0.621986 -0.475406 0.622192
vn 0.674221 -0.672751 -0.304684
vn 0.453273 -0.451925 -0.768314
vn 0.003026 -0.945172 -0.326558
vn 0.001703 -0.695300 -0.718717
vn -0.001701 -0.695301 -0.718717
vn -0.003026 -0.945178 -0.326542
vn -0.673637 -0.672978 -0.305472
vn -0.452778 -0.452100 -0.768503
vn 0.304723 -0.672742 0.674212
vn 0.768376 -0.451867 0.453226
vn 0.326584 -0.945164 0.002978
vn 0.718676 -0.695343 0.001676
vn 0.718674 -0.695345 -0.001675
vn 0.326586 -0.945163 -0.002977
vn 0.305394 -0.672967 -0.673684
vn 0.768500 -0.452099 -0.452785
vn 0.313655 -0.067919 -0.947105
vn 0.753015 -0.029702 -0.657332
vn 0.744089 -0.033038 -0.667263
vn 0.287306 -0.019166 -0.957647
vn -0.305470 -0.672973 0.673644
vn -0.326563 -0.945171 0.002979
vn -0.718670 -0.695349 0.001675
vn -0.768493 -0.452101 0.452794
vn -0.718671 -0.695348 -0.001676
vn -0.326579 -0.945165 -0.002978
vn -0.304678 -0.672746 -0.674228
vn -0.312929 -0.067359 -0.947385
vn -0.750201 -0.029060 -0.660571
vn -0.768311 -0.451925 -0.453279
vn -0.742627 -0.033698 -0.668857
vn -0.285931 -0.018718 -0.958067
vn -0.156948 -0.160419 -0.974491
vn -0.008299 -0.292828 -0.956129
vn -0.018822 -0.737028 -0.675600
vn -0.374171 -0.387837 -0.842365
vn 0.022351 -0.621929 -0.782755
vn 0.025618 -0.322953 -0.946068
vn 0.653291 -0.379645 -0.655043
vn 0.621937 -0.475415 -0.622234
vn -0.650781 -0.380898 -0.656811
vn -0.029705 -0.322991 -0.945936
vn -0.026389 -0.621907 -0.782646
vn -0.623888 -0.477211 -0.618898
vn 0.021596 -0.733654 -0.679180
vn 0.009141 -0.291220 -0.956612
vn 0.160456 -0.156941 -0.974486
vn 0.387599 -0.374417 -0.842365
vn -0.732765 -0.063654 0.677498
vn -0.808127 -0.054492 0.586482
vn -0.003097 -0.101383 0.994843
vn -0.004194 -0.101263 0.994851
vn -0.002162 -0.707101 0.707110
vn 0.002161 -0.707101 0.707110
vn 0.003072 -0.101121 0.994869
vn 0.733154 -0.065532 0.676898
vn 0.808983 -0.055716 0.585186
vn 0.004199 -0.101346 0.994843
vn 0.003381 -0.999406 0.034286
vn 0.840648 -0.541186 0.020711
vn 0.723248 -0.689783 -0.033346
vn 0.000044 -1.000000 -0.000049
vn 0.005121 -0.707685 0.706509
vn -0.005128 -0.708896 0.705294
vn -0.003358 -0.999414 0.034064
vn -0.840220 -0.541887 0.019732
vn -0.718633 -0.694533 -0.034515
vn -0.000045 -1.000000 -0.000045
vn 0.003097 -0.101384 -0.994843
vn 0.002162 -0.707100 -0.707110
vn -0.002161 -0.707100 -0.707110
vn -0.003072 -0.101122 -0.994869
vn 0.732768 -0.063655 -0.677495
vn 0.808128 -0.054485 -0.586482
vn 0.004194 -0.101267 -0.994851
vn 0.843163 -0.537386 -0.017128
vn 0.722094 -0.691132 0.030272
vn 0.003411 -0.999544 -0.029992
vn 0.000048 -1.000000 0.000049
vn 0.005128 -0.708883 -0.705308
vn -0.005120 -0.707673 -0.706522
vn -0.003437 -0.999538 -0.030196
vn -0.004199 -0.101337 -0.994843
vn -0.733152 -0.065530 -0.676901
vn -0.808973 -0.055701 -0.585201
vn -0.842840 -0.537863 -0.018008
vn -0.724986 -0.688156 0.028927
vn -0.000049 -1.000000 0.000044
vn 0.030203 -0.687660 -0.725404
vn -0.017280 -0.533652 -0.845528
vn -0.029930 -0.999546 -0.003378
vn -0.034640 -0.689146 -0.723794
vn 0.019189 -0.537315 -0.843164
vn 0.034111 -0.999412 -0.003346
vn 0.028593 -0.688173 0.724983
vn -0.017963 -0.537821 0.842868
vn -0.030134 -0.999540 0.003384
vn -0.034580 -0.686420 0.726383
vn 0.019681 -0.534633 0.844855
vn 0.034009 -0.999416 0.003334
vn -0.707119 -0.707091 0.002127
vn -0.707119 -0.707091 -0.002128
vn -0.994870 -0.101121 0.003023
vn -0.994843 -0.101384 -0.003048
vn -0.676899 -0.065532 0.733153
vn -0.585195 -0.055706 0.808977
vn -0.994843 -0.101343 0.004132
vn -0.706509 -0.707686 0.005039
vn -0.705293 -0.708898 -0.005047
vn -0.994850 -0.101274 -0.004128
vn -0.586504 -0.054460 -0.808113
vn -0.677500 -0.063654 -0.732763
vn 0.587357 -0.055917 -0.807394
vn 0.678107 -0.064887 -0.732094
vn 0.994895 -0.100829 -0.004096
vn 0.994823 -0.101577 -0.003028
vn 0.708877 -0.705314 -0.005044
vn 0.707667 -0.706528 0.005024
vn 0.994862 -0.101158 0.004087
vn 0.587418 -0.055598 0.807372
vn 0.678106 -0.064888 0.732094
vn 0.994823 -0.101576 0.003028
vn 0.707119 -0.707092 -0.002130
vn 0.707118 -0.707092 0.002130
vn 0.000197 -0.003050 0.999995
vn 0.999995 -0.003168 -0.000202
vn -0.999995 -0.003061 0.000195
vn -0.000204 -0.003157 -0.999995
vn 0.000197 -0.003049 -0.999995
vn -0.000204 -0.003156 0.999995
vn 0.999995 -0.003060 0.000194
vn -0.999995 -0.003167 -0.000202
vn -0.577568 -0.577096 0.577387
vn -0.577350 0.577351 -0.577349
vn 0.577349 0.577350 -0.577352
vn -0.577351 -0.577123 -0.577576
vn -0.577353 0.577350 0.577347
vn 0.577356 -0.577093 0.577602
vn 0.577352 0.577348 0.577351
vn 0.577609 -0.577116 -0.577326
vn -0.576832 -0.577321 0.577897
vn 0.576646 -0.577624 0.577781
vn 0.858799 -0.362577 0.361942
vn -0.858466 -0.362811 0.362498
vn 0.576835 -0.577318 -0.577897
vn 0.858465 -0.362781 -0.362529
vn -0.576637 -0.577618 -0.577795
vn -0.858775 -0.362595 -0.361982
vn 0.503514 -0.703648 -0.501352
vn -0.498293 -0.704823 -0.504904
vn 0.496054 -0.706512 0.504749
vn -0.503496 -0.703648 0.501370
vn -0.577793 -0.577617 0.576641
vn -0.361987 -0.362590 0.858775
vn -0.362625 -0.362817 -0.858410
vn -0.577891 -0.577322 -0.576837
vn 0.362981 -0.362622 -0.858342
vn 0.362970 -0.362281 0.858490
vn 0.577623 -0.577462 -0.576965
vn 0.577622 -0.577463 0.576966
s 1
g Top_low Dustbin_LP
usemtl aiStandardSurface2SG
f 2/1/1 1/2/2 111/4/3 110/9/4
f 1/3/2 6/5/5 112/6/6 111/7/3
f 4/8/7 3/10/8 9/12/9 8/13/10
f 3/11/8 2/1/1 10/16/11 9/20/9
f 6/5/5 5/14/12 39/15/13 38/17/14
f 5/14/12 4/8/7 40/18/15 39/15/13
f 143/19/16 142/22/17 7/23/18 262/27/19
f 144/21/20 143/24/16 262/25/19 11/26/21
f 71/28/22 7/23/18 142/22/17 136/30/23
f 144/21/20 11/26/21 114/47/24 184/48/25
f 11/26/21 10/16/11 115/50/26 114/47/24
f 15/33/27 14/34/28 22/35/29 21/36/30
f 14/29/28 13/31/31 23/32/32 22/40/29
f 17/37/33 16/38/34 24/373/35 29/41/36
f 16/376/34 15/33/27 25/43/37 24/39/35
f 19/44/38 18/45/39 47/46/40 52/49/41
f 18/42/39 23/32/32 48/67/42 47/68/40
f 21/36/30 20/51/43 55/52/44 54/54/45
f 20/51/43 19/44/38 56/56/46 55/52/44
f 27/53/47 26/55/48 32/57/49 31/58/50
f 26/60/48 25/43/37 33/61/51 32/65/49
f 29/41/36 28/66/52 61/69/53 60/70/54
f 28/59/52 27/53/47 62/62/55 61/63/53
f 161/64/56 160/75/57 30/77/58 266/78/59
f 162/71/60 161/73/56 266/74/59 34/76/61
f 31/58/50 30/77/58 74/82/62 73/84/63
f 74/82/62 30/77/58 160/75/57 197/87/64
f 162/71/60 34/76/61 91/79/65 156/80/66
f 36/72/67 35/282/68 49/285/69 48/67/42
f 35/81/68 40/18/15 50/83/70 49/85/69
f 17/37/33 38/17/14 37/86/71 12/88/72
f 37/287/71 36/72/67 13/31/31 12/309/72
f 42/92/73 41/94/74 122/96/75 121/97/76
f 41/89/74 46/90/77 123/91/78 122/93/75
f 44/98/79 43/101/80 51/378/81 50/83/70
f 43/379/80 42/92/73 52/49/41 51/102/81
f 46/90/77 45/95/82 77/99/83 76/100/84
f 45/105/82 44/98/79 78/109/85 77/110/83
f 54/54/45 53/114/86 82/115/87 81/116/88
f 53/103/86 58/104/89 83/106/90 82/107/87
f 58/104/89 57/108/91 66/111/92 65/112/93
f 57/117/91 56/56/46 67/118/94 66/119/92
f 217/120/95 216/121/96 59/124/97 271/128/98
f 218/113/99 217/122/95 271/123/98 63/125/100
f 105/129/101 59/124/97 216/121/96 208/133/102
f 218/113/99 63/125/100 72/126/103 195/127/104
f 63/125/100 62/62/55 73/84/63 72/126/103
f 247/130/105 246/131/106 64/132/107 272/135/108
f 248/134/109 247/136/105 272/137/108 68/138/110
f 65/112/93 64/132/107 90/139/111 89/140/112
f 90/139/111 64/132/107 246/131/106 204/143/113
f 248/134/109 68/138/110 97/141/114 258/142/115
f 135/145/116 134/146/117 69/149/118 273/150/119
f 71/28/22 136/30/23 135/145/116 273/150/119
f 87/151/120 69/149/118 134/146/117 128/152/121
f 196/144/122 195/127/104 72/126/103 274/147/123
f 74/82/62 197/87/64 196/144/122 274/147/123
f 147/148/124 146/182/125 75/183/126 275/184/127
f 148/153/128 147/154/124 275/155/127 79/156/129
f 76/100/84 75/183/126 119/185/130 118/186/131
f 119/185/130 75/183/126 146/182/125 190/187/132
f 148/153/128 79/156/129 85/157/133 126/158/134
f 179/159/135 178/160/136 80/161/137 276/162/138
f 180/188/139 179/189/135 276/190/138 84/191/140
f 96/163/141 80/161/137 178/160/136 172/164/142
f 180/188/139 84/191/140 88/192/143 202/193/144
f 84/191/140 83/106/90 89/140/112 88/192/143
f 127/165/145 126/158/134 85/157/133 277/166/146
f 87/151/120 128/152/121 127/165/145 277/166/146
f 203/194/147 202/193/144 88/192/143 278/195/148
f 90/139/111 204/143/113 203/194/147 278/195/148
f 157/167/149 156/80/66 91/79/65 279/168/150
f 158/169/151 157/167/149 279/168/150 93/170/152
f 158/169/151 93/170/152 94/171/153 170/172/154
f 171/173/155 170/172/154 94/171/153 280/174/156
f 96/163/141 172/164/142 171/173/155 280/174/156
f 259/175/157 258/142/115 97/141/114 281/176/158
f 260/177/159 259/175/157 281/176/158 99/178/160
f 260/177/159 99/178/160 100/179/161 250/180/162
f 251/181/163 250/180/162 100/179/161 282/196/164
f 252/197/165 251/181/163 282/196/164 102/198/166
f 252/197/165 102/198/166 120/199/167 234/200/168
f 207/201/169 206/202/170 103/203/171 283/204/172
f 105/129/101 208/133/102 207/201/169 283/204/172
f 108/205/173 103/203/171 206/202/170 232/206/174
f 231/211/175 230/217/176 106/218/177 284/219/178
f 108/205/173 232/206/174 231/211/175 284/219/178
f 113/220/179 106/218/177 230/217/176 222/221/180
f 221/207/181 220/208/182 109/209/183 285/210/184
f 113/220/179 222/221/180 221/222/181 285/223/184
f 110/9/4 109/209/183 116/212/185 115/50/26
f 116/212/185 109/209/183 220/208/182 186/213/186
f 185/214/187 184/48/25 114/47/24 286/215/188
f 116/212/185 186/213/186 185/214/187 286/215/188
f 189/216/189 188/224/190 117/225/191 287/226/192
f 119/185/130 190/187/132 189/216/189 287/226/192
f 118/186/131 117/225/191 124/227/193 123/91/78
f 124/227/193 117/225/191 188/224/190 236/228/194
f 235/229/195 234/200/168 120/199/167 288/231/196
f 124/227/193 236/228/194 235/230/195 288/234/196
f 126/158/134 125/232/197 149/233/198 148/153/128
f 125/232/197 130/249/199 150/250/200 149/233/198
f 130/249/199 129/251/201 133/252/202 132/253/203
f 129/251/201 128/152/121 134/146/117 133/252/202
f 132/253/203 131/254/204 141/255/205 140/256/206
f 131/254/204 136/30/23 142/22/17 141/255/205
f 138/235/207 137/236/208 183/237/209 182/238/210
f 137/236/208 144/21/20 184/48/25 183/237/209
f 140/256/206 139/258/211 151/259/212 150/250/200
f 139/239/211 138/235/207 152/240/213 151/241/212
f 146/182/125 145/242/214 191/243/215 190/187/132
f 145/242/214 152/240/213 192/244/216 191/243/215
f 154/260/217 153/261/218 169/262/219 168/263/220
f 153/261/218 158/169/151 170/172/154 169/262/219
f 156/80/66 155/264/221 163/265/222 162/71/60
f 155/264/221 154/260/217 164/267/223 163/265/222
f 160/75/57 159/245/224 198/246/225 197/87/64
f 159/245/224 166/247/226 193/248/227 198/246/225
f 166/247/226 165/257/228 175/266/229 174/281/230
f 165/268/228 164/267/223 176/269/231 175/270/229
f 168/263/220 167/271/232 177/272/233 176/269/231
f 167/271/232 172/164/142 178/160/136 177/272/233
f 174/281/230 173/297/234 201/298/235 200/299/236
f 173/297/234 180/188/139 202/193/144 201/298/235
f 182/238/210 181/300/237 219/305/238 226/306/239
f 181/300/237 186/213/186 220/208/182 219/305/238
f 188/224/190 187/323/240 237/326/241 236/228/194
f 187/323/240 192/244/216 238/327/242 237/326/241
f 195/127/104 194/328/243 211/330/244 218/113/99
f 194/328/243 193/248/227 212/331/245 211/330/244
f 200/299/236 192/244/216 182/238/210 193/248/227
f 200/299/236 199/333/246 245/334/247 244/336/248
f 199/333/246 204/143/113 246/131/106 245/334/247
f 206/202/170 205/273/249 227/274/250 232/206/174
f 205/273/249 210/275/251 228/276/252 227/274/250
f 210/275/251 209/277/253 215/278/254 214/279/255
f 209/277/253 208/133/102 216/121/96 215/278/254
f 214/279/255 213/280/256 225/283/257 224/284/258
f 213/337/256 212/331/245 226/306/239 225/339/257
f 224/284/258 223/286/259 229/288/260 228/276/252
f 223/286/259 222/221/180 230/217/176 229/288/260
f 234/200/168 233/289/261 253/290/262 252/197/165
f 233/289/261 240/291/263 254/292/264 253/290/262
f 240/291/263 239/293/265 243/294/266 242/295/267
f 239/340/265 238/327/242 244/336/248 243/342/266
f 242/295/267 241/296/268 257/301/269 256/302/270
f 241/296/268 248/134/109 258/142/115 257/301/269
f 250/180/162 249/303/271 255/304/272 260/177/159
f 249/303/271 254/292/264 256/302/270 255/304/272
f 40/18/15 4/8/7 8/13/10 70/307/273
f 36/72/67 48/67/42 23/32/32 13/31/31
f 110/9/4 115/50/26 10/16/11 2/1/1
f 52/49/41 42/92/73 121/97/76 101/308/274
f 104/310/275 17/37/33 29/41/36 60/70/54
f 130/249/199 132/253/203 140/256/206 150/250/200
f 164/267/223 154/260/217 168/263/220 176/269/231
f 21/36/30 95/311/276 92/313/277 15/33/27
f 76/100/84 118/186/131 123/91/78 46/90/77
f 27/53/47 31/58/50 73/84/63 62/62/55
f 65/112/93 89/140/112 83/106/90 58/104/89
f 210/275/251 214/279/255 224/284/258 228/276/252
f 254/292/264 240/291/263 242/295/267 256/302/270
f 8/13/10 7/23/18 71/28/22 70/307/273
f 79/156/129 78/109/85 86/314/278 85/157/133
f 69/149/118 87/151/120 86/314/278 70/307/273
f 34/76/61 33/61/51 92/313/277 91/79/65
f 93/170/152 92/313/277 95/311/276 94/171/153
f 81/116/88 80/161/137 96/163/141 95/311/276
f 68/138/110 67/118/94 98/316/279 97/141/114
f 99/178/160 98/316/279 101/308/274 100/179/161
f 102/198/166 101/308/274 121/97/76 120/199/167
f 60/70/54 59/124/97 105/129/101 104/310/275
f 106/218/177 113/220/179 112/6/6 107/319/280
f 103/203/171 108/205/173 107/319/280 104/310/275
f 5/14/12 6/5/5 1/3/2 261/320/281
f 1/2/2 2/1/1 3/11/8 261/343/281
f 3/10/8 4/8/7 5/14/12 261/320/281
f 7/23/18 8/13/10 9/12/9 262/27/19
f 9/20/9 10/16/11 11/26/21 262/25/19
f 16/38/34 17/37/33 12/88/72 263/321/282
f 12/309/72 13/31/31 14/29/28 263/312/282
f 14/34/28 15/33/27 16/376/34 263/375/282
f 22/40/29 23/32/32 18/42/39 264/315/283
f 18/45/39 19/44/38 20/51/43 264/322/283
f 20/51/43 21/36/30 22/35/29 264/322/283
f 28/66/52 29/41/36 24/373/35 265/374/284
f 24/39/35 25/43/37 26/60/48 265/324/284
f 26/55/48 27/53/47 28/59/52 265/346/284
f 30/77/58 31/58/50 32/57/49 266/78/59
f 32/65/49 33/61/51 34/76/61 266/74/59
f 39/15/13 40/18/15 35/81/68 267/325/285
f 35/282/68 36/72/67 37/287/71 267/317/285
f 37/86/71 38/17/14 39/15/13 267/325/285
f 45/95/82 46/90/77 41/89/74 268/347/286
f 41/94/74 42/92/73 43/379/80 268/329/286
f 43/101/80 44/98/79 45/105/82 268/380/286
f 51/102/81 52/49/41 47/46/40 269/332/287
f 47/68/40 48/67/42 49/285/69 269/318/287
f 49/85/69 50/83/70 51/378/81 269/377/287
f 57/108/91 58/104/89 53/103/86 270/350/288
f 53/114/86 54/54/45 55/52/44 270/335/288
f 55/52/44 56/56/46 57/117/91 270/335/288
f 59/124/97 60/70/54 61/69/53 271/128/98
f 61/63/53 62/62/55 63/125/100 271/123/98
f 64/132/107 65/112/93 66/111/92 272/135/108
f 66/119/92 67/118/94 68/138/110 272/137/108
f 69/149/118 70/307/273 273/150/119
f 70/307/273 71/28/22 273/150/119
f 72/126/103 73/84/63 74/82/62 274/147/123
f 75/183/126 76/100/84 77/99/83 275/184/127
f 77/110/83 78/109/85 79/156/129 275/155/127
f 80/161/137 81/116/88 82/115/87 276/162/138
f 82/107/87 83/106/90 84/191/140 276/190/138
f 85/157/133 86/314/278 277/166/146
f 86/314/278 87/151/120 277/166/146
f 88/192/143 89/140/112 90/139/111 278/195/148
f 91/79/65 92/313/277 279/168/150
f 92/313/277 93/170/152 279/168/150
f 94/171/153 95/311/276 280/174/156
f 95/311/276 96/163/141 280/174/156
f 97/141/114 98/316/279 281/176/158
f 98/316/279 99/178/160 281/176/158
f 100/179/161 101/308/274 282/196/164
f 101/308/274 102/198/166 282/196/164
f 103/203/171 104/310/275 283/204/172
f 104/310/275 105/129/101 283/204/172
f 106/218/177 107/319/280 284/219/178
f 107/319/280 108/205/173 284/219/178
f 109/209/183 110/9/4 111/4/3 285/210/184
f 111/7/3 112/6/6 113/220/179 285/223/184
f 114/47/24 115/50/26 116/212/185 286/215/188
f 117/225/191 118/186/131 119/185/130 287/226/192
f 120/199/167 121/97/76 122/96/75 288/231/196
f 122/93/75 123/91/78 124/227/193 288/234/196
f 129/251/201 130/249/199 125/232/197 289/338/289
f 125/232/197 126/158/134 127/165/145 289/338/289
f 127/165/145 128/152/121 129/251/201 289/338/289
f 135/145/116 136/30/23 131/254/204 290/341/290
f 131/254/204 132/253/203 133/252/202 290/341/290
f 133/252/202 134/146/117 135/145/116 290/341/290
f 143/24/16 144/21/20 137/236/208 291/351/291
f 137/236/208 138/235/207 139/239/211 291/351/291
f 139/258/211 140/256/206 141/255/205 291/344/291
f 141/255/205 142/22/17 143/19/16 291/344/291
f 151/241/212 152/240/213 145/242/214 292/353/292
f 145/242/214 146/182/125 147/148/124 292/353/292
f 147/154/124 148/153/128 149/233/198 292/345/292
f 149/233/198 150/250/200 151/259/212 292/345/292
f 157/167/149 158/169/151 153/261/218 293/348/293
f 153/261/218 154/260/217 155/264/221 293/348/293
f 155/264/221 156/80/66 157/167/149 293/348/293
f 165/257/228 166/247/226 159/245/224 294/356/294
f 159/245/224 160/75/57 161/64/56 294/356/294
f 161/73/56 162/71/60 163/265/222 294/349/294
f 163/265/222 164/267/223 165/268/228 294/349/294
f 171/173/155 172/164/142 167/271/232 295/352/295
f 167/271/232 168/263/220 169/262/219 295/352/295
f 169/262/219 170/172/154 171/173/155 295/352/295
f 179/189/135 180/188/139 173/297/234 296/357/296
f 173/297/234 174/281/230 175/266/229 296/357/296
f 175/270/229 176/269/231 177/272/233 296/354/296
f 177/272/233 178/160/136 179/159/135 296/354/296
f 185/214/187 186/213/186 181/300/237 297/359/297
f 181/300/237 182/238/210 297/359/297
f 182/238/210 183/237/209 297/359/297
f 183/237/209 184/48/25 185/214/187 297/359/297
f 192/244/216 187/323/240 298/360/298
f 187/323/240 188/224/190 189/216/189 298/360/298
f 189/216/189 190/187/132 191/243/215 298/360/298
f 191/243/215 192/244/216 298/360/298
f 193/248/227 194/328/243 299/362/299
f 194/328/243 195/127/104 196/144/122 299/362/299
f 196/144/122 197/87/64 198/246/225 299/362/299
f 198/246/225 193/248/227 299/362/299
f 203/194/147 204/143/113 199/333/246 300/363/300
f 199/333/246 200/299/236 300/363/300
f 200/299/236 201/298/235 300/363/300
f 201/298/235 202/193/144 203/194/147 300/363/300
f 209/277/253 210/275/251 205/273/249 301/355/301
f 205/273/249 206/202/170 207/201/169 301/355/301
f 207/201/169 208/133/102 209/277/253 301/355/301
f 217/122/95 218/113/99 211/330/244 302/366/302
f 211/330/244 212/331/245 213/337/256 302/366/302
f 213/280/256 214/279/255 215/278/254 302/358/302
f 215/278/254 216/121/96 217/120/95 302/358/302
f 225/339/257 226/306/239 219/305/238 303/367/303
f 219/305/238 220/208/182 221/207/181 303/367/303
f 221/222/181 222/221/180 223/286/259 303/361/303
f 223/286/259 224/284/258 225/283/257 303/361/303
f 231/211/175 232/206/174 227/274/250 304/364/304
f 227/274/250 228/276/252 229/288/260 304/364/304
f 229/288/260 230/217/176 231/211/175 304/364/304
f 239/293/265 240/291/263 233/289/261 305/365/305
f 233/289/261 234/200/168 235/229/195 305/365/305
f 235/230/195 236/228/194 237/326/241 305/369/305
f 237/326/241 238/327/242 239/340/265 305/369/305
f 247/136/105 248/134/109 241/296/268 306/368/306
f 241/296/268 242/295/267 243/294/266 306/368/306
f 243/342/266 244/336/248 245/334/247 306/370/306
f 245/334/247 246/131/106 247/130/105 306/370/306
f 253/290/262 254/292/264 249/303/271 307/371/307
f 249/303/271 250/180/162 251/181/163 307/371/307
f 251/181/163 252/197/165 253/290/262 307/371/307
f 259/175/157 260/177/159 255/304/272 308/372/308
f 255/304/272 256/302/270 257/301/269 308/372/308
f 257/301/269 258/142/115 259/175/157 308/372/308
f 40/18/15 70/307/273 86/314/278 50/83/70
f 50/83/70 86/314/278 78/109/85 44/98/79
f 107/319/280 112/6/6 6/5/5 38/17/14
f 107/319/280 38/17/14 17/37/33 104/310/275
f 15/33/27 92/313/277 33/61/51 25/43/37
f 54/54/45 81/116/88 95/311/276 21/36/30
f 19/44/38 98/316/279 67/118/94 56/56/46
f 52/49/41 101/308/274 98/316/279 19/44/38
f 200/299/236 193/248/227 166/247/226 174/281/230
f 192/244/216 200/299/236 244/336/248 238/327/242
f 182/238/210 192/244/216 152/240/213 138/235/207
f 193/248/227 182/238/210 226/306/239 212/331/245
g default
v -33.292465 121.247261 32.586769
v 33.594559 121.247261 32.586769
v -33.292465 19.490118 32.586769
v -30.287340 12.235119 32.586769
v -23.032339 9.229999 32.586769
v 23.334435 9.229999 32.586769
v 30.589436 12.235119 32.586769
v 33.594559 19.490118 32.586769
v 43.669342 121.247261 -41.475090
v 42.995499 121.247261 -43.096687
v 41.370880 121.247261 -43.763168
v 43.669342 10.260120 -41.475090
v 42.995514 10.394150 -43.096695
v 41.370880 10.717312 -43.763168
v 40.664215 3.005126 -41.474663
v 40.148361 3.520919 -43.096306
v 38.904655 4.764487 -43.762314
v 32.950531 2.305906 -43.744522
v 33.274529 0.677126 -43.087875
v 33.409222 0.000000 -41.467491
v -40.523491 121.247261 -43.391968
v -42.142036 121.247261 -42.717278
v -42.816849 121.247261 -41.098778
v -42.816849 10.336004 -41.098778
v -42.142036 10.470227 -42.717278
v -40.523491 10.792177 -43.391968
v -31.947611 2.235613 -43.368851
v -32.287354 0.648084 -42.639732
v -32.434105 0.000000 -41.017448
v -39.901215 3.297086 -41.102531
v -39.382790 3.803213 -42.718681
v -38.139107 5.017118 -43.392799
v -40.182526 3.015770 38.734901
v -39.512131 3.686163 40.870113
v -37.881016 5.317280 41.755844
v -43.184387 10.262887 38.734901
v -42.308533 10.437106 40.870167
v -40.177319 10.861032 41.755844
v -32.919807 0.000000 38.740101
v -32.756943 0.884039 40.872337
v -32.337940 3.017556 41.755844
v 33.409222 0.000000 38.741829
v 33.233624 0.882784 40.873058
v 32.809696 3.014014 41.755844
v -43.184387 121.247261 38.734901
v -42.308548 121.247261 40.870186
v -40.177319 121.247261 41.755844
v 23.334435 9.229999 38.741829
v 23.510031 8.347215 40.873058
v 23.933960 6.215984 41.755844
v -23.032339 9.229999 38.741829
v -23.207935 8.347215 40.873058
v -23.631865 6.215984 41.755844
v 30.589436 12.235119 38.741829
v 31.265089 11.559465 40.873058
v 32.896263 9.928292 41.755844
v 33.594559 19.490118 38.741829
v 34.477345 19.314522 40.873058
v 36.608574 18.890593 41.755844
v 33.594559 121.247261 38.741829
v 34.477345 121.247261 40.873058
v 36.608574 121.247261 41.755844
v 40.664215 3.005126 38.741829
v 39.988564 3.680779 40.873058
v 38.357391 5.311951 41.755844
v 43.669342 10.260120 38.741829
v 42.786556 10.435718 40.873058
v 40.655327 10.859647 41.755844
v 40.655327 121.247261 41.755844
v 42.786556 121.247261 40.873058
v 43.669342 121.247261 38.741829
v -30.287340 12.235119 38.741829
v -30.962994 11.559465 40.873058
v -32.594166 9.928292 41.755844
v -33.292465 19.490118 38.741829
v -34.175251 19.314522 40.873058
v -36.306480 18.890593 41.755844
v -36.306480 121.247261 41.755844
v -34.175251 121.247261 40.873058
v -33.292465 121.247261 38.741829
vt 0.384783 0.051118
vt 0.383371 0.050377
vt 0.396118 0.036187
vt 0.399476 0.042417
vt 0.381944 0.049617
vt 0.393211 0.000811
vt 0.628065 0.392172
vt 0.622874 0.392159
vt 0.617411 0.069647
vt 0.621421 0.069475
vt 0.617683 0.392189
vt 0.613396 0.070295
vt 0.377651 0.392159
vt 0.382077 0.069981
vt 0.610777 0.052112
vt 0.595749 0.042337
vt 0.372451 0.392129
vt 0.378061 0.069324
vt 0.367253 0.392143
vt 0.374044 0.069160
vt 0.599154 0.036214
vt 0.602139 0.000811
vt 0.612241 0.051381
vt 0.613723 0.050606
vt 0.935452 0.975214
vt 0.936961 0.982487
vt 0.587539 0.989340
vt 0.587397 0.982096
vt 0.855290 0.053672
vt 0.866012 0.389640
vt 0.909557 0.675354
vt 0.907989 0.682554
vt 0.587033 0.676087
vt 0.587176 0.668854
vt 0.874530 0.182529
vt 0.874530 0.168432
vt 0.883215 0.168432
vt 0.883215 0.182529
vt 0.874530 0.157308
vt 0.883215 0.157308
vt 0.874530 0.101652
vt 0.883215 0.101652
vt 0.874530 0.086295
vt 0.874530 0.003802
vt 0.586875 0.954922
vt 0.883215 0.003802
vt 0.883215 0.086295
vt 0.883215 0.387203
vt 0.874530 0.387203
vt 0.874530 0.093282
vt 0.138846 0.053392
vt 0.587700 0.642228
vt 0.140973 0.027304
vt 0.981375 0.951240
vt 0.143635 0.000811
vt 0.128055 0.389601
vt 0.587412 0.656715
vt 0.935224 0.663689
vt 0.954199 0.671148
vt 0.937788 0.689458
vt 0.963101 0.690422
vt 0.950512 0.724773
vt 0.963331 0.948499
vt 0.950672 0.913501
vt 0.954443 0.967766
vt 0.937998 0.948857
vt 0.909745 0.962981
vt 0.587155 0.969394
vt 0.960020 0.664852
vt 0.936733 0.656416
vt 0.587557 0.649473
vt 0.972105 0.688692
vt 0.972329 0.950231
vt 0.941552 0.911938
vt 0.931452 0.943037
vt 0.941395 0.726355
vt 0.908176 0.955776
vt 0.587016 0.962157
vt 0.960263 0.974063
vt 0.931252 0.695282
vt 0.907120 0.689678
vt 0.586890 0.683316
vt 0.925257 0.699849
vt 0.937769 0.989788
vt 0.587680 0.996587
vt 0.965921 0.980435
vt 0.883215 0.093282
vt 0.907306 0.948646
vt 0.925453 0.938472
vt 0.932356 0.727212
vt 0.932510 0.911099
vt 0.853136 0.027660
vt 0.850377 0.000811
vt 0.937538 0.649117
vt 0.965680 0.658476
vt 0.981156 0.687717
vn 0.006781 -0.011875 -0.999907
vn 0.524458 -0.524873 -0.670412
vn 0.024916 -0.735540 -0.677023
vn -0.001039 -0.125921 -0.992040
vn 0.707176 -0.706994 -0.007840
vn 0.332353 -0.941051 -0.062967
vn -0.999918 0.000000 -0.012789
vn -0.707380 0.000000 -0.706833
vn -0.730760 -0.017203 -0.682418
vn -0.999609 -0.025034 -0.012430
vn -0.012532 0.000000 -0.999922
vn -0.013582 -0.000200 -0.999908
vn 0.003550 0.000000 -0.999994
vn 0.004629 -0.000205 -0.999989
vn -0.016016 -0.012499 -0.999794
vn -0.010200 -0.128641 -0.991639
vn 0.705808 0.000000 -0.708403
vn 0.729445 -0.017698 -0.683810
vn 0.999966 0.000000 -0.008229
vn 0.999647 -0.025394 -0.007861
vn -0.035260 -0.738990 -0.672793
vn -0.344391 -0.936608 -0.064504
vn -0.524129 -0.531120 -0.665733
vn -0.707131 -0.706978 -0.012168
vn 0.230946 -0.005040 0.972954
vn 0.731249 -0.017472 0.681887
vn 0.707504 0.000000 0.706710
vn 0.145012 0.000000 0.989430
vn 0.999625 -0.025386 0.010232
vn 0.999943 0.000000 0.010711
vn 0.091070 0.002853 0.995840
vn 0.679566 0.019969 0.733342
vn 0.706675 0.000000 0.707538
vn 0.141809 0.000000 0.989894
vn 0.993496 0.027616 0.110469
vn 0.994366 0.000000 0.106003
vn 0.701496 0.701496 0.125722
vn 0.707107 0.707107 0.000000
vn 0.999620 0.027556 0.000000
vn 0.055998 0.992202 0.111351
vn 0.055955 0.998433 0.000000
vn -0.055998 0.992202 0.111351
vn -0.055955 0.998433 0.000000
vn -0.993496 0.027616 0.110469
vn -0.994366 0.000000 0.106003
vn -1.000000 0.000000 0.000000
vn -0.999620 0.027556 0.000000
vn 1.000000 0.000000 0.000000
vn -0.701496 0.701496 0.125722
vn -0.707107 0.707107 0.000000
vn -0.999670 -0.025036 0.005711
vn -0.999981 -0.000000 0.006196
vn 0.707078 -0.707064 0.010116
vn 0.319253 -0.944274 0.080145
vn -0.706286 -0.707903 0.005792
vn -0.329493 -0.941069 0.076317
vn -0.149586 -0.000000 0.988749
vn -0.236952 -0.005169 0.971508
vn -0.084714 -0.084600 0.992807
vn 0.051062 0.051062 0.997389
vn -0.008540 -0.238578 0.971086
vn 0.005984 0.095925 0.995371
vn 0.008454 -0.238367 0.971138
vn -0.005974 0.095767 0.995386
vn 0.083395 -0.083395 0.993021
vn -0.050345 0.050345 0.997462
vn -0.088416 0.002770 0.996080
vn -0.137794 0.000000 0.990461
vn -0.530339 -0.530021 0.661678
vn -0.732834 -0.017497 0.680183
vn -0.709128 -0.000000 0.705079
vn -0.028446 -0.730972 0.681814
vn 0.028212 -0.731435 0.681327
vn -0.039890 0.674538 0.737162
vn -0.433937 0.433937 0.789555
vn 0.039890 0.674538 0.737162
vn -0.679567 0.019969 0.733342
vn -0.706676 0.000000 0.707537
vn 0.529145 -0.529145 0.663333
vn 0.433937 0.433937 0.789555
s 1
g Dustbin_LP Base_low
usemtl aiStandardSurface2SG
f 325/381/309 324/382/310 327/383/311 326/384/312
f 324/382/310 323/385/313 328/386/314 327/383/311
f 331/387/315 330/388/316 333/389/317 332/390/318
f 330/388/316 329/391/319 334/392/320 333/389/317
f 334/392/320 329/391/319 319/393/321 322/394/322
f 340/395/323 334/392/320 322/394/322 325/381/309
f 326/384/312 335/396/324 340/395/323 325/381/309
f 319/393/321 318/397/325 321/398/326 322/394/322
f 318/397/325 317/399/327 320/400/328 321/398/326
f 322/394/322 321/398/326 324/382/310 325/381/309
f 321/398/326 320/400/328 323/385/313 324/382/310
f 326/384/312 327/383/311 336/401/329 335/396/324
f 327/383/311 328/386/314 337/402/330 336/401/329
f 332/390/318 333/389/317 339/403/331 338/404/332
f 333/389/317 334/392/320 340/395/323 339/403/331
f 335/396/324 336/401/329 339/403/331 340/395/323
f 336/401/329 337/402/330 338/404/332 339/403/331
f 376/405/333 375/406/334 378/407/335 377/408/336
f 375/406/334 374/464/337 379/465/338 378/407/335
f 385/411/339 384/412/340 387/413/341 386/414/342
f 384/412/340 383/461/343 388/462/344 387/413/341
f 383/415/343 380/416/345 312/417/346 311/418/347
f 380/416/345 359/419/348 313/420/349 312/417/346
f 356/421/350 314/422/351 313/420/349 359/419/348
f 365/423/352 368/424/353 310/426/354 316/427/355
f 383/415/343 311/418/347 309/428/356 388/429/344
f 356/421/350 362/430/357 315/467/358 314/422/351
f 362/430/357 365/423/352 316/427/355 315/467/358
f 344/409/359 353/410/360 331/387/315 332/390/318
f 374/431/337 371/433/361 323/385/313 320/400/328
f 371/433/361 350/435/362 328/386/314 323/385/313
f 374/431/337 320/400/328 317/399/327 379/436/338
f 332/390/318 338/404/332 341/472/363 344/409/359
f 338/404/332 337/402/330 347/473/364 341/472/363
f 355/437/365 346/438/366 385/411/339 386/414/342
f 346/438/366 343/439/367 382/440/368 385/411/339
f 343/439/367 349/441/369 361/442/370 382/440/368
f 349/441/369 352/443/371 358/444/372 361/442/370
f 352/443/371 373/445/373 364/446/374 358/444/372
f 373/445/373 376/405/333 367/447/375 364/446/374
f 376/405/333 377/408/336 370/448/376 367/447/375
f 341/475/363 342/449/377 345/450/378 344/474/359
f 342/449/377 343/439/367 346/438/366 345/450/378
f 344/474/359 345/450/378 354/451/379 353/432/360
f 345/450/378 346/438/366 355/437/365 354/451/379
f 343/439/367 342/449/377 348/452/380 349/441/369
f 342/449/377 341/475/363 347/476/364 348/452/380
f 349/441/369 348/452/380 351/453/381 352/443/371
f 348/452/380 347/476/364 350/434/362 351/453/381
f 356/471/350 357/454/382 363/455/383 362/469/357
f 357/454/382 358/444/372 364/446/374 363/455/383
f 358/444/372 357/454/382 360/456/384 361/442/370
f 357/454/382 356/471/350 359/470/348 360/456/384
f 362/469/357 363/455/383 366/457/385 365/468/352
f 363/455/383 364/446/374 367/447/375 366/457/385
f 365/468/352 366/457/385 369/458/386 368/425/353
f 366/457/385 367/447/375 370/448/376 369/458/386
f 352/443/371 351/453/381 372/459/387 373/445/373
f 351/453/381 350/434/362 371/466/361 372/459/387
f 373/445/373 372/459/387 375/406/334 376/405/333
f 372/459/387 371/466/361 374/464/337 375/406/334
f 361/442/370 360/456/384 381/460/388 382/440/368
f 360/456/384 359/470/348 380/463/345 381/460/388
f 382/440/368 381/460/388 384/412/340 385/411/339
f 381/460/388 380/463/345 383/461/343 384/412/340
g default
v 23.097954 117.182671 26.916187
v -22.693201 117.182671 26.916187
v -27.420277 121.247261 40.971115
v -26.771217 121.247261 40.702267
v -26.502375 121.247261 40.053207
v 26.913328 121.247261 40.053207
v 27.182177 121.247261 40.702267
v 27.831238 121.247261 40.971115
v -33.968292 121.247261 36.736893
v -33.699444 121.247261 40.702267
v -33.050385 121.247261 40.971115
v 33.521439 121.247261 40.971115
v 34.170498 121.247261 40.702267
v 34.439346 121.247261 36.736893
v -33.212036 75.703781 40.702267
v -32.562969 76.352844 40.971115
v 33.034023 76.352844 40.971115
v 33.683086 75.703781 40.702267
v -33.480877 75.434937 36.736893
v 33.951931 75.434937 36.736893
v -26.545092 93.327248 40.053200
v -23.929417 87.193123 40.053200
v -17.810606 84.666008 40.053200
v -26.761850 92.975441 40.702267
v -24.100681 86.943932 40.702267
v -17.884314 84.460251 40.702267
v -18.411386 83.963470 40.971115
v -24.617691 86.445358 40.971115
v -27.291115 92.479118 40.971115
v 17.887390 84.666008 40.053200
v 24.006207 87.193123 40.053200
v 26.621878 93.327248 40.053200
v 26.838665 92.976738 40.702267
v 24.177090 86.944305 40.702267
v 17.959768 84.460251 40.702267
v 27.367905 92.479118 40.971115
v 24.694479 86.445358 40.971115
v 18.488176 83.963470 40.971115
v 14.314710 88.730598 26.916187
v 20.610146 90.685997 26.916187
v 22.848967 95.432373 26.916187
v -22.728878 95.432373 26.916187
v -20.490055 90.685997 26.916187
v -15.250853 88.730598 26.916187
vt 0.504779 0.407241
vt 0.508088 0.410890
vt 0.469265 0.642735
vt 0.464871 0.642735
vt 0.835810 0.407218
vt 0.899815 0.393106
vt 0.899815 0.642735
vt 0.875036 0.642735
vt 0.439999 0.393105
vt 0.439999 0.642735
vt 0.832504 0.410860
vt 0.870658 0.642735
vt 0.835145 0.642735
vt 0.810532 0.498949
vt 0.760316 0.449777
vt 0.578265 0.449807
vt 0.527597 0.499120
vt 0.504496 0.642735
vt 0.580937 0.452570
vt 0.009428 0.212476
vt 0.550039 0.468343
vt 0.009428 0.259731
vt 0.004172 0.259731
vt 0.004172 0.212476
vt 0.546675 0.465383
vt 0.530948 0.502288
vt 0.009428 0.313970
vt 0.004172 0.313970
vt 0.009428 0.887997
vt 0.004171 0.887997
vt 0.004172 0.679363
vt 0.508847 0.642734
vt 0.009428 0.679363
vt 0.004171 0.003814
vt 0.009428 0.003814
vt 0.009428 0.582755
vt 0.004172 0.582755
vt 0.124036 0.003814
vt 0.124036 0.212476
vt 0.124036 0.679363
vt 0.830805 0.642735
vt 0.124035 0.887997
vt 0.124035 0.313970
vt 0.124035 0.582755
vt 0.807188 0.502111
vt 0.009428 0.632197
vt 0.124036 0.632197
vt 0.004171 0.632197
vt 0.757637 0.452540
vt 0.791762 0.465220
vt 0.124036 0.259731
vt 0.788413 0.468163
vn -0.548695 -0.812582 0.196581
vn -0.061047 -0.090481 0.994025
vn -0.052766 -0.000569 0.998607
vn -0.977485 -0.010437 0.210744
vn 0.548695 -0.812582 0.196581
vn 0.557315 -0.825018 0.093519
vn 0.997629 -0.010645 0.067999
vn 0.977485 -0.010437 0.210744
vn -0.557314 -0.825018 0.093518
vn -0.997629 -0.010645 0.067998
vn 0.060577 -0.089785 0.994117
vn 0.050661 -0.000546 0.998716
vn -0.032734 0.000463 0.999464
vn -0.015262 0.002242 0.999881
vn -0.001204 0.010311 0.999946
vn 0.001208 0.010362 0.999946
vn 0.015690 0.002192 0.999875
vn 0.034643 0.000084 0.999400
vn 0.037331 0.730765 0.681607
vn 0.425478 0.451923 0.784049
vn 0.017050 0.017377 0.999704
vn 0.647629 0.057399 0.759791
vn -0.951325 0.090103 0.294723
vn -0.622539 0.695617 0.358556
vn -0.425451 0.451899 0.784078
vn -0.646708 0.063348 0.760103
vn -0.066586 0.949073 0.307939
vn -0.037268 0.730865 0.681504
vn 0.958954 -0.001453 0.283559
vn 0.738619 0.000222 0.674123
vn 0.951503 0.080655 0.296878
vn -0.735204 0.008932 0.677787
vn -0.959411 0.010465 0.281819
vn 0.063073 0.950063 0.305619
vn -0.960889 0.010455 0.276738
vn -0.954536 0.078851 0.287477
vn 0.954587 0.068854 0.289866
vn 0.960340 -0.001516 0.278828
vn -0.044169 0.951795 0.303538
vn 0.048667 0.951776 0.302908
vn -0.016702 0.017022 0.999716
vn 0.644475 0.677770 0.353949
vn 0.642654 0.681821 0.349451
vn -0.618385 0.701335 0.354582
s 1
g Dustbin_LP Hole_low
usemtl aiStandardSurface2SG
f 403/477/389 404/478/390 399/479/391 398/480/392
f 406/481/393 408/482/394 402/483/395 401/484/396
f 407/485/397 408/482/394 406/481/393 403/477/389
f 397/486/398 407/485/397 403/477/389 398/480/392
f 405/487/399 406/481/393 401/484/396 400/488/400
f 406/481/393 405/487/399 404/478/390 403/477/389
f 405/487/399 400/488/400 396/489/401 424/490/402
f 404/478/390 405/487/399 426/491/403 415/492/404
f 399/479/391 404/478/390 417/493/405 391/494/406
f 414/495/407 413/497/408 416/501/409 415/492/404
f 413/497/408 412/502/410 417/493/405 416/501/409
f 420/496/411 419/498/412 422/499/413 421/500/414
f 419/498/412 418/503/415 423/504/416 422/499/413
f 393/505/417 392/506/418 412/507/410 409/509/419
f 392/508/418 391/494/406 417/493/405 412/502/410
f 396/489/401 395/517/420 421/521/414 424/490/402
f 395/510/420 394/511/421 420/496/411 421/500/414
f 426/491/403 423/525/416 414/495/407 415/492/404
f 423/504/416 418/503/415 411/512/422 414/513/407
f 420/496/411 394/511/421 389/514/423 429/515/424
f 409/509/419 430/516/425 390/518/426 393/505/417
f 411/512/422 418/503/415 427/519/427 432/520/428
f 404/478/390 415/492/404 416/501/409
f 404/478/390 416/501/409 417/493/405
f 405/487/399 424/490/402 425/526/429
f 405/487/399 425/526/429 426/491/403
f 409/509/419 410/522/430 431/523/431 430/516/425
f 410/522/430 411/512/422 432/520/428 431/523/431
f 411/512/422 410/522/430 413/524/408 414/513/407
f 410/522/430 409/509/419 412/507/410 413/524/408
f 418/503/415 419/498/412 428/527/432 427/519/427
f 419/498/412 420/496/411 429/515/424 428/527/432
f 421/521/414 422/528/413 425/526/429 424/490/402
f 422/528/413 423/525/416 426/491/403 425/526/429
g default
v 27.042833 120.347351 34.952423
v 27.679165 120.983658 34.688850
v 27.942743 121.247261 34.052509
v 27.942743 93.128746 34.052509
v 27.679165 93.181168 34.688850
v 27.042833 93.307739 34.952423
v -24.899368 120.347351 34.952423
v -25.535698 120.983658 34.688850
v -25.799273 121.247261 34.052509
v 16.762598 84.884583 34.952423
v 16.889174 84.248245 34.688850
v 16.941603 83.984673 34.052509
v -16.655207 83.984673 34.052509
v -16.602777 84.248245 34.688850
v -16.476202 84.884583 34.952423
v -24.899368 93.307739 34.952423
v -25.535698 93.181168 34.688850
v -25.799273 93.128746 34.052509
v 25.264509 86.662903 34.052509
v 25.062775 86.864647 34.688850
v 24.575748 87.351662 34.952423
v -23.121040 86.662903 34.052509
v -22.919306 86.864647 34.688850
v -22.432278 87.351662 34.952423
vt 0.790724 0.636128
vt 0.788826 0.633605
vt 0.789558 0.505329
vt 0.792759 0.504952
vt 0.785820 0.630512
vt 0.786342 0.505915
vt 0.739698 0.460560
vt 0.739325 0.463745
vt 0.584105 0.463749
vt 0.583724 0.460569
vt 0.738717 0.466939
vt 0.584713 0.466938
vt 0.545700 0.505915
vt 0.546225 0.630512
vt 0.543218 0.633605
vt 0.541321 0.636128
vt 0.777272 0.475977
vt 0.779393 0.473610
vt 0.774892 0.478383
vt 0.542486 0.505333
vt 0.539286 0.504959
vt 0.554735 0.475957
vt 0.552463 0.473681
vt 0.557139 0.478363
vn 0.404419 0.773531 0.487950
vn 0.334530 0.640059 0.691675
vn 0.728535 -0.055900 0.682724
vn 0.919481 -0.070859 0.386696
vn 0.007203 0.013812 0.999879
vn 0.005982 -0.000453 0.999982
vn 0.059332 -0.921238 0.384448
vn 0.045719 -0.727727 0.684341
vn -0.047885 -0.727838 0.684075
vn -0.061011 -0.920374 0.386251
vn 0.003423 -0.057857 0.998319
vn -0.003701 -0.057515 0.998338
vn -0.005982 -0.000453 0.999982
vn -0.007203 0.013812 0.999879
vn -0.334531 0.640059 0.691674
vn -0.404418 0.773533 0.487948
vn 0.471206 -0.568939 0.673998
vn 0.585099 -0.698173 0.412570
vn 0.007141 -0.008834 0.999936
vn -0.728537 -0.055900 0.682722
vn -0.919483 -0.070859 0.386691
vn -0.520791 -0.520789 0.676429
vn -0.645228 -0.645232 0.409094
vn -0.006987 -0.006987 0.999951
s 1
g Dustbin_LP Trash_low
usemtl aiStandardSurface2SG
f 435/529/433 434/530/434 437/531/435 436/532/436
f 434/530/434 433/533/437 438/534/438 437/531/435
f 444/535/439 443/536/440 446/537/441 445/538/442
f 443/536/440 442/539/443 447/540/444 446/537/441
f 448/541/445 438/534/438 433/533/437 439/542/446
f 433/533/437 434/530/434 440/543/447 439/542/446
f 434/530/434 435/529/433 441/544/448 440/543/447
f 436/532/436 437/531/435 452/545/449 451/546/450
f 437/531/435 438/534/438 453/547/451 452/545/449
f 439/542/446 440/543/447 449/548/452 448/541/445
f 440/543/447 441/544/448 450/549/453 449/548/452
f 445/538/442 446/537/441 455/550/454 454/551/455
f 446/537/441 447/540/444 456/552/456 455/550/454
f 442/539/443 443/536/440 452/545/449 453/547/451
f 443/536/440 444/535/439 451/546/450 452/545/449
f 448/541/445 449/548/452 455/550/454 456/552/456
f 449/548/452 450/549/453 454/551/455 455/550/454
f 456/552/456 453/547/451 438/534/438 448/541/445
f 456/552/456 447/540/444 442/539/443 453/547/451
g default
v 32.533642 11.966859 40.963531
v 30.318573 9.751781 40.963531
v 31.884861 10.400564 40.963531
v 31.496227 8.574120 40.475731
v 33.062519 9.222898 40.475731
v 33.711300 10.789199 40.475731
v 35.259216 9.335229 39.253899
v 34.590279 7.720268 39.253899
v 32.975323 7.051328 39.253899
v -33.555664 10.789199 40.475731
v -32.906879 9.222898 40.475731
v -31.340588 8.574120 40.475731
v -32.819683 7.051328 39.253899
v -34.434643 7.720268 39.253899
v -35.103577 9.335229 39.253899
v -35.103577 73.462608 39.253899
v -34.434643 75.077576 39.253899
v -32.819683 75.746506 39.253899
v -33.555664 72.008636 40.475731
v -32.906879 73.574936 40.475731
v -31.340588 74.223709 40.475731
v -32.377998 11.966854 40.963531
v -31.729219 10.400564 40.963531
v -30.162930 9.751781 40.963531
v -30.162930 73.046059 40.963531
v -31.729219 72.397278 40.963531
v -32.377998 70.830978 40.963531
v 32.533638 70.830978 40.963531
v 31.884859 72.397278 40.963531
v 30.318563 73.046059 40.963531
v 33.711300 72.008636 40.475731
v 33.062519 73.574936 40.475731
v 31.496227 74.223709 40.475731
v 32.975323 75.746506 39.253899
v 34.590279 75.077576 39.253899
v 35.259216 73.462608 39.253899
vt 0.424953 0.413043
vt 0.422188 0.406369
vt 0.429939 0.398564
vt 0.433330 0.406786
vt 0.415293 0.403351
vt 0.421658 0.395060
vt 0.148110 0.403459
vt 0.141408 0.406460
vt 0.133494 0.398659
vt 0.141744 0.395173
vt 0.138405 0.413165
vt 0.130029 0.406911
vt 0.148246 0.683146
vt 0.141545 0.680153
vt 0.146649 0.675017
vt 0.153288 0.677756
vt 0.138535 0.673452
vt 0.143921 0.668403
vt 0.415369 0.683042
vt 0.422068 0.680043
vt 0.429985 0.687839
vt 0.421734 0.691327
vt 0.425072 0.673337
vt 0.433448 0.679592
vt 0.130166 0.679714
vt 0.143797 0.418209
vt 0.153158 0.408846
vt 0.410238 0.408741
vt 0.419582 0.418093
vt 0.419681 0.668293
vt 0.141887 0.691435
vt 0.410322 0.677655
vt 0.416959 0.674911
vt 0.416873 0.411480
vt 0.146519 0.411591
vt 0.133640 0.687957
vn 0.573095 -0.004741 0.819475
vn 0.305826 -0.306579 0.901376
vn 0.351079 -0.349418 0.868706
vn 0.612374 -0.012324 0.790472
vn 0.004608 -0.578262 0.815838
vn 0.012394 -0.618419 0.785751
vn -0.004608 -0.578262 0.815838
vn -0.305827 -0.306579 0.901376
vn -0.351081 -0.349418 0.868706
vn -0.012394 -0.618419 0.785751
vn -0.573095 -0.004741 0.819475
vn -0.612375 -0.012324 0.790472
vn -0.004608 0.578262 0.815838
vn -0.305826 0.306579 0.901377
vn -0.009407 0.009407 0.999912
vn -0.001301 0.242838 0.970066
vn -0.573095 0.004741 0.819475
vn -0.010936 0.000060 0.999940
vn 0.004608 0.578263 0.815838
vn 0.305826 0.306579 0.901377
vn 0.351079 0.349418 0.868706
vn 0.012394 0.618418 0.785751
vn 0.573095 0.004741 0.819475
vn 0.612374 0.012324 0.790473
vn -0.612375 0.012324 0.790472
vn -0.010936 -0.000060 0.999940
vn -0.001301 -0.242836 0.970067
vn 0.001301 -0.242836 0.970067
vn 0.010936 -0.000060 0.999940
vn 0.010936 0.000060 0.999940
vn -0.012394 0.618418 0.785751
vn 0.001301 0.242839 0.970066
vn 0.009407 0.009407 0.999912
vn 0.009407 -0.009407 0.999912
vn -0.009407 -0.009407 0.999912
vn -0.351079 0.349418 0.868706
s 1
g Dustbin_LP Lower_low
usemtl aiStandardSurface2SG
f 462/553/457 461/554/458 464/555/459 463/556/460
f 461/554/458 460/557/461 465/558/462 464/555/459
f 468/559/463 467/560/464 470/561/465 469/562/466
f 467/560/464 466/563/467 471/564/468 470/561/465
f 477/565/469 476/566/470 482/567/471 481/568/472
f 476/566/470 475/569/473 483/570/474 482/567/471
f 489/571/475 488/572/476 491/573/477 490/574/478
f 488/572/476 487/575/479 492/576/480 491/573/477
f 471/564/468 466/563/467 475/569/473 472/577/481
f 466/563/467 478/578/482 483/570/474 475/569/473
f 480/579/483 468/559/463 460/557/461 458/580/484
f 468/559/463 469/562/466 465/558/462 460/557/461
f 457/581/485 462/553/457 487/575/479 484/582/486
f 462/553/457 463/556/460 492/576/480 487/575/479
f 474/583/487 477/565/469 489/571/475 490/574/478
f 477/565/469 481/568/472 486/584/488 489/571/475
f 481/568/472 482/567/471 485/585/489 486/584/488
f 457/581/485 459/586/490 461/554/458 462/553/457
f 459/586/490 458/580/484 460/557/461 461/554/458
f 466/563/467 467/560/464 479/587/491 478/578/482
f 467/560/464 468/559/463 480/579/483 479/587/491
f 474/583/487 473/588/492 476/566/470 477/565/469
f 473/588/492 472/577/481 475/569/473 476/566/470
f 486/584/488 485/585/489 488/572/476 489/571/475
f 485/585/489 484/582/486 487/575/479 488/572/476
f 485/585/489 482/567/471 483/570/474 484/582/486
f 484/582/486 483/570/474 478/578/482 457/581/485
f 457/581/485 478/578/482 479/587/491 459/586/490
f 459/586/490 479/587/491 480/579/483 458/580/484
