# This file uses centimeters as units for non-parametric coordinates.

mtllib S_P28_05.mtl
g default
v 2.486057 284.079102 -0.655740
v 2.486057 283.887085 -1.119326
v 2.486057 283.423492 -1.311349
v 92.294060 283.887085 -0.655740
v 92.486084 283.423492 -0.655740
v 92.294060 283.423492 -1.119326
v 91.830475 283.423492 -1.311349
v 91.830475 283.887085 -1.119326
v 91.830475 284.079102 -0.655740
v 2.486057 259.734711 -1.311349
v 2.486057 259.271118 -1.119326
v 2.486057 259.079102 -0.655740
v 92.294060 259.271118 -0.655740
v 91.830475 259.079102 -0.655740
v 91.830475 259.271118 -1.119326
v 91.830475 259.734711 -1.311349
v 92.294060 259.734711 -1.119326
v 92.486084 259.734711 -0.655740
v 2.486057 259.079102 0.655740
v 2.486057 259.271118 1.119326
v 2.486057 259.734711 1.311349
v 92.294060 259.734711 1.119326
v 91.830475 259.734711 1.311349
v 91.830475 259.271118 1.119326
v 91.830475 259.079102 0.655740
v 92.294060 259.271118 0.655740
v 92.486084 259.734711 0.655740
v 2.486057 283.423492 1.311349
v 2.486057 283.887085 1.119326
v 2.486057 284.079102 0.655740
v 92.294060 283.887085 0.655740
v 91.830475 284.079102 0.655740
v 91.830475 283.887085 1.119326
v 91.830475 283.423492 1.311349
v 92.294060 283.423492 1.119326
v 92.486084 283.423492 0.655740
v 92.208862 283.801880 -1.034124
v 92.208862 259.356323 -1.034124
v 92.208862 259.356323 1.034124
v 92.208862 283.801880 1.034124
vt 1.034975 0.013245
vt 1.039178 0.013307
vt 1.037365 0.758695
vt 1.033186 0.758521
vt 1.043380 0.013369
vt 1.041540 0.758973
vt 1.033459 0.766885
vt 1.037724 0.766237
vt 1.052272 0.763780
vt 1.033572 0.777854
vt 1.052481 0.759544
vt 1.033294 0.762702
vt 0.836024 0.763896
vt 0.836130 0.759737
vt 0.835857 0.768054
vt 0.827695 0.011457
vt 0.831896 0.011397
vt 0.831951 0.759908
vt 0.827776 0.760179
vt 0.836099 0.011337
vt 0.828653 0.764391
vt 0.831575 0.779333
vt 0.816842 0.760764
vt 0.835794 0.778973
vt 0.034529 0.089972
vt 0.034584 0.085775
vt 0.812655 0.761008
vt 0.780030 0.090095
vt 0.816717 0.011612
vt 0.784201 0.090162
vt 1.033512 0.782038
vt 0.781604 0.287909
vt 1.054352 0.013532
vt 1.058548 0.013595
vt 0.781959 0.292090
vt 0.033145 0.288533
vt 1.036867 0.762270
vt 0.832471 0.763485
vt 0.784173 0.086882
vt 1.055753 0.763227
vt 1.056667 0.759795
vt 0.780374 0.085914
vt 0.033198 0.292729
vt 0.812522 0.011672
vt 1.037673 0.778211
vt 1.036769 0.782060
vt 0.813559 0.764402
vt 0.817030 0.764912
vt 0.831710 0.767441
vt 1.040691 0.763103
vt 0.785775 0.291079
vt 0.785789 0.287822
vt 0.835848 0.783146
vt 0.832567 0.783166
vn 0.000000 0.007950 -0.999968
vn 0.000000 0.382690 -0.923877
vn 0.001322 0.382542 -0.923937
vn 0.002124 0.007936 -0.999966
vn 0.000000 0.923879 -0.382684
vn 0.000000 0.994200 -0.107551
vn 0.001934 0.994214 -0.107398
vn 0.001322 0.923940 -0.382536
vn 0.994235 0.007200 -0.106981
vn 0.924787 0.373722 -0.071415
vn 0.924788 0.373722 0.071415
vn 0.994235 0.007200 0.106981
vn 0.373715 0.924790 -0.071418
vn 0.001934 0.994214 0.107398
vn 0.373714 0.924790 0.071416
vn 0.382129 0.004934 -0.924096
vn 0.382129 -0.004934 -0.924096
vn 0.002124 -0.007936 -0.999966
vn 0.924096 0.004934 -0.382129
vn 0.994235 -0.007200 -0.106981
vn 0.924096 -0.004934 -0.382130
vn 0.000000 -0.994200 -0.107551
vn 0.000000 -0.923879 -0.382684
vn 0.001322 -0.923940 -0.382536
vn 0.001934 -0.994214 -0.107398
vn 0.000000 -0.382675 -0.923883
vn 0.000000 -0.007950 -0.999968
vn 0.001322 -0.382527 -0.923944
vn 0.373714 -0.924790 -0.071419
vn 0.373715 -0.924790 0.071418
vn 0.001934 -0.994214 0.107398
vn 0.924787 -0.373722 -0.071422
vn 0.994235 -0.007200 0.106981
vn 0.924787 -0.373722 0.071422
vn 0.000000 -0.007950 0.999968
vn 0.000000 -0.382675 0.923883
vn 0.001322 -0.382527 0.923944
vn 0.002124 -0.007936 0.999966
vn 0.000000 -0.923879 0.382684
vn 0.000000 -0.994200 0.107551
vn 0.001322 -0.923940 0.382536
vn 0.382129 -0.004934 0.924096
vn 0.382129 0.004934 0.924096
vn 0.002124 0.007936 0.999966
vn 0.924096 -0.004934 0.382130
vn 0.924096 0.004934 0.382129
vn 0.000000 0.994200 0.107551
vn 0.000000 0.923879 0.382684
vn 0.001322 0.923940 0.382536
vn 0.000000 0.382690 0.923877
vn 0.000000 0.007950 0.999968
vn 0.001322 0.382542 0.923937
vn 0.325266 0.887927 -0.325250
vn 0.887927 0.325267 -0.325248
vn 0.325273 0.325281 -0.887913
vn 0.887920 -0.325262 -0.325274
vn 0.325264 -0.887925 -0.325258
vn 0.325270 -0.325278 -0.887915
vn 0.887919 -0.325264 0.325274
vn 0.325270 -0.325278 0.887915
vn 0.325266 -0.887927 0.325250
vn 0.887928 0.325265 0.325248
vn 0.325266 0.887931 0.325240
vn 0.325270 0.325278 0.887915
s 1
g S_P28_5_low
usemtl aiStandardSurface1SG
f 3/1/1 2/2/2 8/3/3 7/4/4
s 2
f 2/2/5 1/5/6 9/6/7 8/3/8
s 3
f 5/7/9 4/8/10 31/45/11 36/10/12
s 2
f 4/50/13 9/6/7 32/11/14 31/9/15
s 1
f 7/4/4 6/12/16 17/13/17 16/14/18
s 3
f 6/12/19 5/7/9 18/15/20 17/13/21
s 4
f 12/16/22 11/17/23 15/18/24 14/19/25
s 1
f 11/17/26 10/20/27 16/14/18 15/18/28
s 4
f 14/19/25 13/21/29 26/48/30 25/23/31
s 3
f 13/49/32 18/15/20 27/24/33 26/22/34
s 5
f 21/25/35 20/26/36 24/42/37 23/28/38
s 4
f 20/44/39 19/29/40 25/23/31 24/27/41
s 5
f 23/28/38 22/30/42 35/52/43 34/32/44
s 3
f 22/53/45 27/24/33 36/10/12 35/31/46
s 2
f 30/33/47 29/34/48 33/41/49 32/11/14
s 5
f 29/43/50 28/36/51 34/32/44 33/35/52
s 1
f 3/1/1 7/4/4 16/14/18 10/20/27
s 4
f 12/16/22 14/19/25 25/23/31 19/29/40
s 5
f 21/25/35 23/28/38 34/32/44 28/36/51
s 2
f 30/33/47 32/11/14 9/6/7 1/5/6
s 3
f 5/7/9 36/10/12 27/24/33 18/15/20
s 2
f 8/3/8 9/6/7 4/50/13 37/37/53
s 3
f 4/8/10 5/7/9 6/12/19 37/37/54
s 1
f 6/12/16 7/4/4 8/3/3 37/37/55
s 3
f 17/13/21 18/15/20 13/49/32 38/38/56
s 4
f 13/21/29 14/19/25 15/18/24 38/38/57
s 1
f 15/18/28 16/14/18 17/13/17 38/38/58
s 3
f 26/22/34 27/24/33 22/53/45 39/54/59
s 5
f 22/30/42 23/28/38 24/42/37 39/39/60
s 4
f 24/27/41 25/23/31 26/48/30 39/47/61
s 3
f 35/31/46 36/10/12 31/45/11 40/46/62
s 2
f 31/9/15 32/11/14 33/41/49 40/40/63
s 5
f 33/35/52 34/32/44 35/52/43 40/51/64
