# This file uses centimeters as units for non-parametric coordinates.

mtllib S_P23_Wire.mtl
g default
v -12.808594 193.158813 -1789.334106
v -14.542969 192.469604 -1789.475952
v -15.272461 190.805664 -1789.923218
v -14.571289 189.141602 -1790.414185
v -12.848633 188.452393 -1790.661011
v -11.115234 189.141602 -1790.519165
v -10.384766 190.805664 -1790.071899
v -11.085938 192.469604 -1789.580933
v -10.219727 167.758545 -1692.609253
v -11.953125 167.065918 -1692.737915
v -12.682617 165.387695 -1693.131226
v -11.978516 163.707031 -1693.558716
v -10.255859 163.008423 -1693.769897
v -8.522461 163.701050 -1693.641235
v -7.793945 165.379272 -1693.247925
v -8.497070 167.059937 -1692.820435
v -8.199219 145.442993 -1595.094604
v -9.932617 144.747681 -1595.211792
v -10.661133 143.059082 -1595.560181
v -9.956055 141.366455 -1595.935669
v -8.232422 140.661255 -1596.118042
v -6.499023 141.356567 -1596.000610
v -5.771484 143.045044 -1595.652222
v -6.475586 144.737671 -1595.276978
v -6.621094 125.708984 -1497.005005
v -8.354492 125.011719 -1497.112183
v -9.081055 123.315430 -1497.422241
v -8.375977 121.614014 -1497.753784
v -6.652344 120.903931 -1497.912231
v -4.918945 121.601318 -1497.805054
v -4.191406 123.297485 -1497.494751
v -4.896484 124.999023 -1497.163452
v -5.389648 108.184204 -1398.481567
v -7.123047 107.485229 -1398.579712
v -7.849609 105.783081 -1398.856567
v -7.143555 104.074951 -1399.150269
v -5.418945 103.361206 -1399.288696
v -3.686523 104.060181 -1399.190552
v -2.959961 105.762329 -1398.913696
v -3.665039 107.470581 -1398.619995
v -4.433594 92.585815 -1299.626343
v -6.166992 91.885498 -1299.715698
v -6.893555 90.178711 -1299.963257
v -6.187500 88.465210 -1300.223755
v -4.462891 87.748901 -1300.344849
v -2.729492 88.449219 -1300.255493
v -2.002930 90.156006 -1300.007935
v -2.708984 91.869385 -1299.747437
v -3.696289 78.693237 -1200.508667
v -5.428711 77.991821 -1200.589966
v -6.155273 76.281250 -1200.810913
v -5.449219 74.563721 -1201.042358
v -3.724609 73.845215 -1201.148315
v -1.991211 74.546753 -1201.067017
v -1.265625 76.257202 -1200.846069
v -1.971680 77.974731 -1200.614624
v -3.129883 66.332642 -1101.183960
v -4.863281 65.630249 -1101.257690
v -5.588867 63.916748 -1101.454712
v -4.882812 62.195923 -1101.659790
v -3.158203 61.475830 -1101.752808
v -1.424805 62.178223 -1101.679077
v -0.699219 63.891724 -1101.482056
v -1.405273 65.612549 -1101.276978
v -2.697266 55.363770 -1001.691040
v -4.430664 54.660522 -1001.757202
v -5.156250 52.944580 -1001.932251
v -4.450195 51.221069 -1002.113403
v -2.725586 50.499756 -1002.194702
v -0.992188 51.203003 -1002.128540
v -0.266602 52.918945 -1001.953491
v -0.972656 54.642334 -1001.772339
v -2.365234 45.673096 -902.063110
v -4.098633 44.969116 -902.122192
v -4.824219 43.251221 -902.276733
v -4.118164 41.525635 -902.435913
v -2.393555 40.803223 -902.506714
v -0.660156 41.507080 -902.447632
v 0.065430 43.225098 -902.293335
v -0.640625 44.950684 -902.133911
v -2.105469 37.167114 -802.323120
v -3.838867 36.462646 -802.375122
v -4.564453 34.743042 -802.510132
v -3.858398 33.015747 -802.649292
v -2.132812 32.292480 -802.710815
v -0.400391 32.997070 -802.658813
v 0.325195 34.716675 -802.523560
v -0.380859 36.443970 -802.384644
v -1.892578 29.769653 -702.494995
v -3.625977 29.064575 -702.539917
v -4.351562 27.343750 -702.656860
v -3.644531 25.614990 -702.777222
v -1.919922 24.891113 -702.830200
v -0.187500 25.596191 -702.785278
v 0.538086 27.317139 -702.668335
v -0.167969 29.045898 -702.548218
v -1.704102 23.416870 -602.592651
v -3.437500 22.711426 -602.630737
v -4.163086 20.989380 -602.730103
v -3.456055 19.259521 -602.832642
v -1.731445 18.535156 -602.878296
v 0.000977 19.240723 -602.840088
v 0.726562 20.962769 -602.740723
v 0.020508 22.692627 -602.638184
v -1.519531 18.056396 -502.630859
v -3.252930 17.350586 -502.661987
v -3.978516 15.627563 -502.744751
v -3.271484 13.896851 -502.830444
v -1.546875 13.172241 -502.869141
v 0.186523 13.878052 -502.838013
v 0.912109 15.600952 -502.755249
v 0.205078 17.331787 -502.669434
v -1.319336 13.645142 -402.621704
v -3.051758 12.938965 -402.645874
v -3.777344 11.215332 -402.712402
v -3.071289 9.483887 -402.782227
v -1.345703 8.758911 -402.814575
v 0.386719 9.465088 -402.790405
v 1.112305 11.188843 -402.723877
v 0.406250 12.920166 -402.654053
v -1.084961 10.148071 -302.575806
v -2.817383 9.441650 -302.592896
v -3.542969 7.717407 -302.643555
v -2.836914 5.985474 -302.698120
v -1.111328 5.260254 -302.724731
v 0.621094 5.966675 -302.707642
v 1.346680 7.690918 -302.656982
v 0.640625 9.422852 -302.602295
v -0.797852 7.536743 -202.502319
v -2.531250 6.830200 -202.512085
v -3.256836 5.105591 -202.547363
v -2.549805 3.373169 -202.587280
v -0.825195 2.647949 -202.608521
v 0.908203 3.354492 -202.598633
v 1.633789 5.079102 -202.563477
v 0.926758 6.811523 -202.523560
v -0.442383 5.789551 -102.409668
v -2.174805 5.082764 -102.412231
v -2.900391 3.357910 -102.432129
v -2.194336 1.625244 -102.457764
v -0.468750 0.899902 -102.474121
v 1.263672 1.606689 -102.471680
v 1.989258 3.331543 -102.451782
v 1.282227 5.064087 -102.426147
v 0.000000 4.889893 -2.306030
v -1.732422 4.183105 -2.300903
v -2.458008 2.458130 -2.305542
v -1.750977 0.725342 -2.317383
v -0.026367 0.000000 -2.329224
v 1.706055 0.706787 -2.334351
v 2.431641 2.431763 -2.329712
v 1.724609 4.164551 -2.317871
v 0.546875 4.827026 97.801514
v -1.185547 4.120239 97.814453
v -1.911133 2.395264 97.824951
v -1.204102 0.662476 97.826782
v 0.520508 -0.062866 97.818970
v 2.252930 0.643921 97.805908
v 2.978516 2.368896 97.795532
v 2.271484 4.101685 97.793701
v 1.215820 5.594971 197.905640
v -0.516602 4.888184 197.926758
v -1.242188 3.163330 197.952515
v -0.535156 1.430664 197.967773
v 1.189453 0.705322 197.963623
v 2.922852 1.411987 197.942505
v 3.647461 3.136963 197.916870
v 2.940430 4.869629 197.901489
v 2.026367 7.192627 297.998535
v 0.293945 6.485962 298.028076
v -0.431641 4.761353 298.069214
v 0.275391 3.028931 298.097778
v 2.000000 2.303589 298.097168
v 3.733398 3.010132 298.067505
v 4.458008 4.734863 298.026367
v 3.750977 6.467285 297.997803
v 2.997070 9.623901 398.073120
v 1.264648 8.917480 398.111572
v 0.540039 7.193237 398.168396
v 1.247070 5.461060 398.210266
v 2.971680 4.735840 398.212646
v 4.704102 5.442261 398.174194
v 5.429688 7.166504 398.117432
v 4.722656 8.898560 398.075562
v 4.150391 12.897827 498.121948
v 2.417969 12.191650 498.169739
v 1.693359 10.467896 498.242554
v 2.400391 8.736328 498.297791
v 4.125977 8.011108 498.302979
v 5.858398 8.717163 498.255188
v 6.583008 10.440918 498.182373
v 5.875977 12.172607 498.127197
v 5.508789 17.028687 598.135132
v 3.776367 16.322998 598.192810
v 3.051758 14.599976 598.282104
v 3.758789 12.868774 598.350769
v 5.484375 12.143677 598.358521
v 7.216797 12.849487 598.300842
v 7.941406 14.572510 598.211548
v 7.233398 16.303589 598.142883
v 7.096680 22.036743 698.104675
v 5.364258 21.331543 698.172852
v 4.639648 19.609375 698.279236
v 5.347656 17.878906 698.361572
v 7.073242 17.153931 698.371582
v 8.804688 17.859131 698.303467
v 9.529297 19.581299 698.197021
v 8.821289 21.311768 698.114746
v 8.941406 27.948364 798.019714
v 7.209961 27.243896 798.099060
v 6.485352 25.522705 798.223267
v 7.193359 23.793091 798.319580
v 8.918945 23.068237 798.331604
v 10.650391 23.772705 798.252258
v 11.375000 25.493896 798.127991
v 10.666992 27.223511 798.031677
v 11.074219 34.797363 897.868225
v 9.342773 34.093628 897.959595
v 8.619141 32.373779 898.102539
v 9.328125 30.645142 898.213257
v 11.052734 29.920410 898.226929
v 12.784180 30.624146 898.135559
v 13.507812 32.343994 897.992615
v 12.799805 34.072632 897.881897
v 13.530273 42.625732 997.635925
v 11.799805 41.923096 997.740356
v 11.076172 40.204712 997.903015
v 11.785156 38.477295 998.028687
v 13.509766 37.752686 998.043701
v 15.241211 38.455322 997.939331
v 15.964844 40.173706 997.776672
v 15.255859 41.901123 997.651001
v 16.349609 51.485352 1097.306519
v 14.618164 50.783936 1097.425049
v 13.895508 49.067505 1097.608765
v 14.604492 47.341431 1097.750122
v 16.330078 46.616943 1097.766235
v 18.061523 47.318237 1097.647705
v 18.783203 49.034790 1097.463989
v 18.074219 50.760742 1097.322632
v 19.576172 61.439697 1196.859131
v 17.845703 60.739868 1196.993164
v 17.124023 59.025757 1197.199585
v 17.833984 57.301270 1197.357422
v 19.558594 56.576904 1197.374268
v 21.289062 57.276733 1197.240234
v 22.010742 58.990967 1197.033813
v 21.301758 60.715332 1196.875977
v 23.265625 72.567017 1296.269165
v 21.536133 71.869141 1296.420288
v 20.814453 70.157715 1296.651245
v 21.525391 68.435303 1296.826660
v 23.250000 67.710815 1296.843872
v 24.980469 68.408813 1296.692749
v 25.701172 70.120239 1296.461792
v 24.991211 71.842651 1296.286377
v 27.480469 84.963257 1395.505615
v 25.751953 84.267700 1395.675781
v 25.032227 82.559570 1395.933594
v 25.743164 80.839600 1396.128052
v 27.468750 80.115112 1396.145142
v 29.197266 80.810669 1395.974976
v 29.916992 82.518799 1395.717163
v 29.206055 84.238770 1395.522705
v 32.299805 98.747192 1494.526855
v 30.572266 98.054688 1494.718628
v 29.853516 96.350708 1495.006226
v 30.565430 94.633545 1495.221313
v 32.291016 93.909058 1495.237915
v 34.018555 94.601562 1495.046143
v 34.737305 96.305542 1494.758545
v 34.025391 98.022705 1494.543457
v 37.816406 114.067993 1593.281616
v 36.089844 113.379272 1593.497803
v 35.374023 111.680542 1593.818848
v 36.086914 109.966919 1594.056763
v 37.812500 109.242310 1594.072144
v 39.539062 109.931030 1593.856079
v 40.255859 111.629761 1593.534912
v 39.541992 113.343384 1593.296997
v 44.150391 131.114624 1691.697998
v 42.425781 130.430786 1691.942383
v 41.710938 128.738770 1692.301636
v 42.426758 127.029541 1692.565186
v 44.151367 126.304565 1692.578735
v 45.875977 126.988403 1692.334229
v 46.589844 128.680542 1691.975098
v 45.875000 130.389648 1691.711426
v 51.451172 150.131104 1789.676514
v 49.728516 149.453613 1789.954102
v 49.018555 147.770142 1790.357544
v 49.735352 146.066650 1790.650391
v 51.459961 145.341064 1790.661133
v 53.182617 146.018433 1790.383423
v 53.893555 147.702026 1789.980103
v 53.175781 149.405518 1789.687256
vt 21.519356 0.100818
vt 21.519356 0.122640
vt 20.351665 0.122640
vt 20.351665 0.100818
vt 21.519356 0.144452
vt 20.351664 0.144452
vt 21.519356 0.166272
vt 20.351665 0.166272
vt 21.519356 0.188094
vt 20.351665 0.013539
vt 21.519356 0.035361
vt 20.351665 0.035361
vt 21.519356 0.057182
vt 20.351665 0.057182
vt 21.519356 0.079000
vt 20.351665 0.079000
vt 19.184074 0.122640
vt 19.184074 0.100818
vt 19.184074 0.144452
vt 19.184074 0.166272
vt 19.184074 0.013539
vt 19.184074 0.035361
vt 19.184074 0.057182
vt 19.184074 0.079000
vt 18.016449 0.122640
vt 18.016449 0.100818
vt 18.016449 0.144452
vt 18.016449 0.166272
vt 18.016449 0.013539
vt 18.016449 0.035361
vt 18.016449 0.057182
vt 18.016449 0.079000
vt 16.848795 0.122640
vt 16.848795 0.100818
vt 16.848795 0.144452
vt 16.848795 0.166272
vt 16.848795 0.013539
vt 16.848795 0.035361
vt 16.848795 0.057182
vt 16.848797 0.079000
vt 15.681133 0.122640
vt 15.681133 0.100818
vt 15.681133 0.144452
vt 15.681133 0.166272
vt 15.681133 0.013539
vt 15.681133 0.035361
vt 15.681133 0.057182
vt 15.681133 0.079000
vt 14.513451 0.122640
vt 14.513451 0.100818
vt 14.513451 0.144452
vt 14.513451 0.166272
vt 14.513451 0.013539
vt 14.513451 0.035361
vt 14.513451 0.057182
vt 14.513451 0.079000
vt 13.345776 0.122640
vt 13.345777 0.100818
vt 13.345777 0.144452
vt 13.345777 0.166272
vt 13.345777 0.013539
vt 13.345777 0.035361
vt 13.345776 0.057182
vt 13.345777 0.079000
vt 12.178070 0.122640
vt 12.178070 0.100818
vt 12.178070 0.144452
vt 12.178070 0.166272
vt 12.178070 0.013539
vt 12.178070 0.035361
vt 12.178070 0.057182
vt 12.178070 0.079000
vt 11.010378 0.122640
vt 11.010378 0.100818
vt 11.010378 0.144452
vt 11.010378 0.166272
vt 11.010378 0.013539
vt 11.010378 0.035361
vt 11.010378 0.057182
vt 11.010378 0.079000
vt 9.842664 0.122640
vt 9.842664 0.100818
vt 9.842664 0.144452
vt 9.842664 0.166272
vt 9.842664 0.013539
vt 9.842664 0.035361
vt 9.842664 0.057182
vt 9.842664 0.079000
vt 8.674970 0.122640
vt 8.674970 0.100818
vt 8.674969 0.144452
vt 8.674970 0.166272
vt 8.674970 0.013539
vt 8.674970 0.035361
vt 8.674970 0.057182
vt 8.674970 0.079000
vt 7.507270 0.122640
vt 7.507270 0.100818
vt 7.507270 0.144452
vt 7.507270 0.166272
vt 7.507271 0.013539
vt 7.507270 0.035361
vt 7.507270 0.057182
vt 7.507270 0.079000
vt 6.339563 0.122640
vt 6.339563 0.100818
vt 6.339563 0.144452
vt 6.339563 0.166272
vt 6.339563 0.013539
vt 6.339563 0.035361
vt 6.339563 0.057182
vt 6.339563 0.079000
vt 5.171858 0.122640
vt 5.171858 0.100818
vt 5.171858 0.144452
vt 5.171858 0.166272
vt 5.171858 0.013539
vt 5.171858 0.035361
vt 5.171858 0.057182
vt 5.171858 0.079000
vt 4.004152 0.122640
vt 4.004152 0.100818
vt 4.004152 0.144452
vt 4.004152 0.166272
vt 4.004152 0.013539
vt 4.004152 0.035361
vt 4.004152 0.057182
vt 4.004152 0.079000
vt 2.836446 0.122640
vt 2.836446 0.100818
vt 2.836446 0.144452
vt 2.836446 0.166272
vt 2.836446 0.013539
vt 2.836446 0.035361
vt 2.836446 0.057182
vt 2.836446 0.079000
vt 1.668737 0.122640
vt 1.668737 0.100818
vt 1.668737 0.144452
vt 1.668737 0.166272
vt 1.668737 0.013539
vt 1.668737 0.035361
vt 1.668737 0.057182
vt 1.668737 0.079000
vt 0.501028 0.122640
vt 0.501028 0.100818
vt 0.501028 0.144452
vt 0.501028 0.166272
vt 0.501028 0.013539
vt 0.501028 0.035361
vt 0.501028 0.057182
vt 0.501028 0.079000
vt -0.666678 0.122640
vt -0.666678 0.100818
vt -0.666678 0.144452
vt -0.666678 0.166272
vt -0.666678 0.013539
vt -0.666678 0.035361
vt -0.666678 0.057182
vt -0.666678 0.079000
vt -1.834388 0.122640
vt -1.834388 0.100818
vt -1.834388 0.144452
vt -1.834388 0.166272
vt -1.834388 0.013539
vt -1.834389 0.035361
vt -1.834388 0.057182
vt -1.834388 0.079000
vt -3.002095 0.122640
vt -3.002095 0.100818
vt -3.002095 0.144452
vt -3.002095 0.166272
vt -3.002095 0.013539
vt -3.002094 0.035361
vt -3.002095 0.057182
vt -3.002095 0.079000
vt -4.169802 0.122640
vt -4.169802 0.100818
vt -4.169802 0.144452
vt -4.169802 0.166272
vt -4.169802 0.013539
vt -4.169802 0.035361
vt -4.169802 0.057182
vt -4.169802 0.079000
vt -5.337514 0.122640
vt -5.337513 0.100818
vt -5.337513 0.144452
vt -5.337513 0.166272
vt -5.337514 0.013539
vt -5.337514 0.035361
vt -5.337514 0.057182
vt -5.337514 0.079000
vt -6.505214 0.122640
vt -6.505214 0.100818
vt -6.505215 0.144452
vt -6.505213 0.166272
vt -6.505214 0.013539
vt -6.505214 0.035361
vt -6.505213 0.057182
vt -6.505214 0.079000
vt -7.672922 0.122640
vt -7.672921 0.100818
vt -7.672922 0.144452
vt -7.672921 0.166272
vt -7.672922 0.013539
vt -7.672921 0.035361
vt -7.672922 0.057182
vt -7.672922 0.079000
vt -8.840626 0.122640
vt -8.840624 0.100818
vt -8.840624 0.144452
vt -8.840624 0.166272
vt -8.840626 0.013539
vt -8.840625 0.035361
vt -8.840624 0.057182
vt -8.840624 0.079000
vt -10.008330 0.122640
vt -10.008331 0.100818
vt -10.008330 0.144452
vt -10.008330 0.166272
vt -10.008330 0.013539
vt -10.008330 0.035361
vt -10.008331 0.057182
vt -10.008330 0.079000
vt -11.176031 0.122640
vt -11.176031 0.100818
vt -11.176031 0.144452
vt -11.176031 0.166272
vt -11.176031 0.013539
vt -11.176031 0.035361
vt -11.176031 0.057182
vt -11.176031 0.079000
vt -12.343733 0.122640
vt -12.343733 0.100818
vt -12.343733 0.144452
vt -12.343733 0.166272
vt -12.343733 0.013539
vt -12.343733 0.035361
vt -12.343733 0.057182
vt -12.343733 0.079000
vt -13.511430 0.122640
vt -13.511430 0.100818
vt -13.511430 0.144452
vt -13.511430 0.166272
vt -13.511430 0.013539
vt -13.511430 0.035361
vt -13.511430 0.057182
vt -13.511430 0.079000
vt -14.679119 0.122640
vt -14.679119 0.100818
vt -14.679119 0.144452
vt -14.679119 0.166272
vt -14.679119 0.013539
vt -14.679119 0.035361
vt -14.679119 0.057182
vt -14.679119 0.079000
vt -15.846813 0.122640
vt -15.846813 0.100818
vt -15.846814 0.144452
vt -15.846815 0.166272
vt -15.846814 0.013539
vt -15.846815 0.035361
vt -15.846815 0.057182
vt -15.846814 0.079000
vt -17.014488 0.122640
vt -17.014488 0.100818
vt -17.014488 0.144452
vt -17.014486 0.166272
vt -17.014488 0.013539
vt -17.014488 0.035361
vt -17.014488 0.057182
vt -17.014488 0.079000
vt -18.182161 0.122640
vt -18.182161 0.100818
vt -18.182161 0.144452
vt -18.182161 0.166272
vt -18.182161 0.013539
vt -18.182161 0.035361
vt -18.182161 0.057182
vt -18.182161 0.079000
vt -19.349825 0.122640
vt -19.349825 0.100818
vt -19.349825 0.144452
vt -19.349825 0.166272
vt -19.349825 0.013539
vt -19.349825 0.035361
vt -19.349825 0.057182
vt -19.349825 0.079000
vt -20.517555 0.122640
vt -20.517555 0.100818
vt -20.517555 0.144452
vt -20.517555 0.166272
vt -20.517555 0.013539
vt -20.517555 0.035361
vt -20.517555 0.057182
vt -20.517555 0.079000
vt -19.349821 0.188094
vt -20.517555 0.188094
vt -18.182161 0.188094
vt -17.014488 0.188094
vt -15.846815 0.188094
vt -14.679119 0.188094
vt -13.511430 0.188094
vt -12.343733 0.188094
vt -11.176031 0.188094
vt -10.008330 0.188094
vt -8.840626 0.188094
vt -7.672922 0.188094
vt -6.505214 0.188094
vt -5.337513 0.188094
vt -4.169802 0.188094
vt -3.002095 0.188094
vt -1.834388 0.188094
vt -0.666678 0.188094
vt 0.501028 0.188094
vt 1.668737 0.188094
vt 2.836446 0.188094
vt 4.004152 0.188094
vt 5.171858 0.188094
vt 6.339563 0.188094
vt 7.507270 0.188094
vt 8.674971 0.188094
vt 9.842664 0.188094
vt 11.010378 0.188094
vt 12.178070 0.188094
vt 13.345777 0.188094
vt 14.513451 0.188094
vt 15.681133 0.188094
vt 16.848797 0.188094
vt 18.016449 0.188094
vt 19.184074 0.188094
vt 20.351664 0.188094
vt 21.519356 0.013539
vn -0.375330 0.893978 0.244808
vn -0.375330 0.893978 0.244808
vn -0.375330 0.893978 0.244808
vn -0.375330 0.893978 0.244808
vn -0.920518 0.371131 0.122097
vn -0.920518 0.371131 0.122097
vn -0.920518 0.371131 0.122097
vn -0.920518 0.371131 0.122097
vn -0.926452 -0.369421 -0.072216
vn -0.926452 -0.369421 -0.072216
vn -0.926452 -0.369421 -0.072216
vn -0.926452 -0.369421 -0.072216
vn -0.389640 -0.893274 -0.224149
vn -0.389640 -0.893274 -0.224149
vn -0.389640 -0.893274 -0.224149
vn -0.389640 -0.893274 -0.224149
vn 0.375430 -0.893938 -0.244798
vn 0.375430 -0.893938 -0.244798
vn 0.375430 -0.893938 -0.244798
vn 0.375430 -0.893938 -0.244798
vn 0.920521 -0.371127 -0.122094
vn 0.920521 -0.371127 -0.122094
vn 0.920520 -0.371127 -0.122094
vn 0.920520 -0.371127 -0.122094
vn 0.926541 0.369208 0.072164
vn 0.926541 0.369208 0.072164
vn 0.926541 0.369208 0.072164
vn 0.926541 0.369208 0.072164
vn 0.389627 0.893279 0.224152
vn 0.389627 0.893279 0.224152
vn 0.389627 0.893279 0.224152
vn 0.389627 0.893279 0.224152
vn -0.376113 0.901500 0.214095
vn -0.376113 0.901500 0.214095
vn -0.376113 0.901500 0.214095
vn -0.376113 0.901500 0.214095
vn -0.920806 0.375611 0.105033
vn -0.920807 0.375611 0.105033
vn -0.920807 0.375611 0.105033
vn -0.920806 0.375611 0.105033
vn -0.926196 -0.371260 -0.065772
vn -0.926196 -0.371260 -0.065772
vn -0.926197 -0.371260 -0.065772
vn -0.926196 -0.371260 -0.065772
vn -0.389065 -0.899716 -0.197835
vn -0.389065 -0.899717 -0.197835
vn -0.389065 -0.899716 -0.197835
vn -0.389065 -0.899717 -0.197835
vn 0.376108 -0.901501 -0.214098
vn 0.376108 -0.901501 -0.214098
vn 0.376108 -0.901501 -0.214098
vn 0.376108 -0.901501 -0.214098
vn 0.920985 -0.375196 -0.104947
vn 0.920985 -0.375196 -0.104947
vn 0.920985 -0.375196 -0.104947
vn 0.920985 -0.375196 -0.104947
vn 0.926377 0.370828 0.065664
vn 0.926377 0.370828 0.065664
vn 0.926377 0.370828 0.065664
vn 0.926377 0.370828 0.065664
vn 0.389096 0.899705 0.197829
vn 0.389096 0.899705 0.197829
vn 0.389096 0.899705 0.197829
vn 0.389096 0.899705 0.197829
vn -0.376547 0.907011 0.188533
vn -0.376547 0.907011 0.188533
vn -0.376547 0.907011 0.188533
vn -0.376547 0.907011 0.188533
vn -0.921200 0.378313 0.090936
vn -0.921200 0.378313 0.090936
vn -0.921200 0.378313 0.090936
vn -0.921200 0.378313 0.090936
vn -0.926169 -0.372307 -0.059993
vn -0.926169 -0.372307 -0.059993
vn -0.926169 -0.372307 -0.059993
vn -0.926169 -0.372307 -0.059993
vn -0.388694 -0.904458 -0.175706
vn -0.388694 -0.904458 -0.175706
vn -0.388694 -0.904458 -0.175706
vn -0.388694 -0.904458 -0.175706
vn 0.376573 -0.907000 -0.188532
vn 0.376573 -0.907000 -0.188532
vn 0.376573 -0.907000 -0.188532
vn 0.376573 -0.907000 -0.188532
vn 0.921194 -0.378327 -0.090939
vn 0.921194 -0.378327 -0.090939
vn 0.921194 -0.378327 -0.090939
vn 0.921194 -0.378327 -0.090939
vn 0.926262 0.372082 0.059947
vn 0.926262 0.372082 0.059947
vn 0.926262 0.372082 0.059947
vn 0.926262 0.372082 0.059947
vn 0.388601 0.904496 0.175716
vn 0.388601 0.904496 0.175716
vn 0.388601 0.904496 0.175716
vn 0.388601 0.904496 0.175716
vn -0.376839 0.911141 0.166779
vn -0.376839 0.911141 0.166779
vn -0.376839 0.911141 0.166779
vn -0.376839 0.911141 0.166779
vn -0.921457 0.380328 0.079165
vn -0.921457 0.380328 0.079165
vn -0.921457 0.380328 0.079165
vn -0.921457 0.380328 0.079165
vn -0.926111 -0.373247 -0.054818
vn -0.926111 -0.373247 -0.054818
vn -0.926111 -0.373247 -0.054818
vn -0.926111 -0.373247 -0.054818
vn -0.388441 -0.908058 -0.156664
vn -0.388441 -0.908058 -0.156664
vn -0.388441 -0.908058 -0.156664
vn -0.388441 -0.908058 -0.156664
vn 0.376953 -0.911094 -0.166774
vn 0.376953 -0.911094 -0.166774
vn 0.376953 -0.911094 -0.166774
vn 0.376953 -0.911094 -0.166774
vn 0.921358 -0.380559 -0.079204
vn 0.921358 -0.380559 -0.079204
vn 0.921358 -0.380560 -0.079204
vn 0.921358 -0.380559 -0.079204
vn 0.926210 0.373007 0.054777
vn 0.926210 0.373007 0.054777
vn 0.926210 0.373007 0.054777
vn 0.926210 0.373007 0.054777
vn 0.388288 0.908121 0.156679
vn 0.388288 0.908121 0.156679
vn 0.388288 0.908121 0.156679
vn 0.388288 0.908121 0.156679
vn -0.377039 0.914310 0.147915
vn -0.377039 0.914310 0.147915
vn -0.377039 0.914310 0.147915
vn -0.377039 0.914310 0.147915
vn -0.921501 0.382159 0.069211
vn -0.921501 0.382159 0.069211
vn -0.921501 0.382159 0.069211
vn -0.921501 0.382159 0.069211
vn -0.926049 -0.374067 -0.050073
vn -0.926049 -0.374067 -0.050073
vn -0.926049 -0.374067 -0.050073
vn -0.926049 -0.374067 -0.050073
vn -0.388182 -0.910890 -0.139979
vn -0.388182 -0.910890 -0.139979
vn -0.388182 -0.910890 -0.139979
vn -0.388182 -0.910890 -0.139979
vn 0.377128 -0.914274 -0.147909
vn 0.377128 -0.914274 -0.147909
vn 0.377128 -0.914274 -0.147909
vn 0.377128 -0.914274 -0.147909
vn 0.921500 -0.382160 -0.069216
vn 0.921500 -0.382160 -0.069216
vn 0.921501 -0.382160 -0.069216
vn 0.921500 -0.382160 -0.069216
vn 0.926138 0.373852 0.050032
vn 0.926138 0.373852 0.050032
vn 0.926138 0.373852 0.050032
vn 0.926138 0.373852 0.050032
vn 0.388189 0.910887 0.139976
vn 0.388189 0.910888 0.139976
vn 0.388189 0.910887 0.139976
vn 0.388189 0.910887 0.139976
vn -0.377242 0.916759 0.131303
vn -0.377242 0.916759 0.131303
vn -0.377242 0.916759 0.131303
vn -0.377242 0.916759 0.131303
vn -0.921532 0.383541 0.060621
vn -0.921532 0.383541 0.060621
vn -0.921532 0.383541 0.060621
vn -0.921532 0.383541 0.060621
vn -0.926064 -0.374601 -0.045611
vn -0.926064 -0.374601 -0.045611
vn -0.926064 -0.374601 -0.045611
vn -0.926064 -0.374601 -0.045611
vn -0.388065 -0.913103 -0.125094
vn -0.388065 -0.913103 -0.125095
vn -0.388065 -0.913103 -0.125094
vn -0.388065 -0.913103 -0.125094
vn 0.377179 -0.916785 -0.131306
vn 0.377179 -0.916785 -0.131306
vn 0.377179 -0.916785 -0.131306
vn 0.377179 -0.916785 -0.131306
vn 0.921621 -0.383334 -0.060585
vn 0.921621 -0.383334 -0.060585
vn 0.921620 -0.383334 -0.060585
vn 0.921621 -0.383334 -0.060585
vn 0.926060 0.374609 0.045619
vn 0.926060 0.374609 0.045620
vn 0.926060 0.374609 0.045619
vn 0.926060 0.374609 0.045619
vn 0.388091 0.913092 0.125094
vn 0.388091 0.913092 0.125094
vn 0.388091 0.913092 0.125094
vn 0.388091 0.913092 0.125094
vn -0.377335 0.918722 0.116481
vn -0.377335 0.918722 0.116482
vn -0.377335 0.918722 0.116482
vn -0.377335 0.918722 0.116482
vn -0.921643 0.384390 0.053086
vn -0.921643 0.384390 0.053086
vn -0.921643 0.384390 0.053086
vn -0.921643 0.384390 0.053086
vn -0.926070 -0.375074 -0.041398
vn -0.926070 -0.375074 -0.041398
vn -0.926070 -0.375074 -0.041398
vn -0.926070 -0.375074 -0.041398
vn -0.388011 -0.914868 -0.111641
vn -0.388011 -0.914868 -0.111641
vn -0.388011 -0.914868 -0.111641
vn -0.388011 -0.914868 -0.111641
vn 0.377275 -0.918746 -0.116485
vn 0.377275 -0.918746 -0.116485
vn 0.377275 -0.918746 -0.116485
vn 0.377275 -0.918746 -0.116485
vn 0.921732 -0.384181 -0.053064
vn 0.921731 -0.384181 -0.053064
vn 0.921732 -0.384181 -0.053064
vn 0.921732 -0.384181 -0.053064
vn 0.926070 0.375074 0.041397
vn 0.926070 0.375074 0.041397
vn 0.926070 0.375074 0.041397
vn 0.926070 0.375074 0.041397
vn 0.388009 0.914869 0.111640
vn 0.388009 0.914869 0.111640
vn 0.388009 0.914869 0.111640
vn 0.388009 0.914869 0.111640
vn -0.377314 0.920328 0.103105
vn -0.377314 0.920328 0.103105
vn -0.377314 0.920328 0.103105
vn -0.377314 0.920328 0.103105
vn -0.921748 0.384998 0.046452
vn -0.921748 0.384998 0.046452
vn -0.921748 0.384998 0.046452
vn -0.921748 0.384998 0.046452
vn -0.926077 -0.375480 -0.037371
vn -0.926077 -0.375480 -0.037371
vn -0.926077 -0.375480 -0.037371
vn -0.926077 -0.375480 -0.037371
vn -0.387942 -0.916315 -0.099336
vn -0.387942 -0.916315 -0.099336
vn -0.387942 -0.916315 -0.099336
vn -0.387942 -0.916315 -0.099336
vn 0.377314 -0.920328 -0.103104
vn 0.377314 -0.920328 -0.103104
vn 0.377314 -0.920328 -0.103104
vn 0.377314 -0.920328 -0.103104
vn 0.921748 -0.384998 -0.046451
vn 0.921748 -0.384998 -0.046451
vn 0.921748 -0.384998 -0.046451
vn 0.921748 -0.384998 -0.046451
vn 0.926071 0.375495 0.037372
vn 0.926071 0.375495 0.037372
vn 0.926071 0.375495 0.037372
vn 0.926071 0.375495 0.037372
vn 0.387973 0.916302 0.099334
vn 0.387973 0.916302 0.099334
vn 0.387973 0.916302 0.099334
vn 0.387973 0.916302 0.099334
vn -0.377376 0.921588 0.090899
vn -0.377376 0.921588 0.090899
vn -0.377376 0.921588 0.090899
vn -0.377376 0.921588 0.090899
vn -0.921753 0.385649 0.040583
vn -0.921753 0.385649 0.040583
vn -0.921753 0.385649 0.040583
vn -0.921753 0.385649 0.040583
vn -0.926077 -0.375846 -0.033473
vn -0.926077 -0.375846 -0.033473
vn -0.926077 -0.375846 -0.033473
vn -0.926077 -0.375846 -0.033473
vn -0.387908 -0.917492 -0.087951
vn -0.387908 -0.917492 -0.087951
vn -0.387908 -0.917492 -0.087951
vn -0.387908 -0.917492 -0.087951
vn 0.377347 -0.921600 -0.090900
vn 0.377347 -0.921600 -0.090900
vn 0.377347 -0.921600 -0.090900
vn 0.377347 -0.921600 -0.090900
vn 0.921757 -0.385638 -0.040581
vn 0.921757 -0.385638 -0.040581
vn 0.921757 -0.385638 -0.040581
vn 0.921757 -0.385638 -0.040581
vn 0.926073 0.375856 0.033473
vn 0.926073 0.375856 0.033473
vn 0.926073 0.375856 0.033473
vn 0.926073 0.375856 0.033473
vn 0.387939 0.917479 0.087949
vn 0.387939 0.917479 0.087949
vn 0.387939 0.917479 0.087949
vn 0.387939 0.917479 0.087949
vn -0.377385 0.922623 0.079665
vn -0.377385 0.922623 0.079665
vn -0.377385 0.922623 0.079665
vn -0.377385 0.922623 0.079665
vn -0.921758 0.386152 0.035332
vn -0.921758 0.386152 0.035332
vn -0.921758 0.386152 0.035332
vn -0.921758 0.386152 0.035332
vn -0.926076 -0.376168 -0.029669
vn -0.926076 -0.376169 -0.029669
vn -0.926076 -0.376168 -0.029669
vn -0.926076 -0.376168 -0.029669
vn -0.387822 -0.918486 -0.077318
vn -0.387822 -0.918486 -0.077318
vn -0.387822 -0.918486 -0.077318
vn -0.387822 -0.918486 -0.077318
vn 0.377477 -0.922586 -0.079663
vn 0.377477 -0.922586 -0.079663
vn 0.377477 -0.922586 -0.079663
vn 0.377477 -0.922586 -0.079663
vn 0.921763 -0.386142 -0.035330
vn 0.921763 -0.386142 -0.035330
vn 0.921763 -0.386142 -0.035330
vn 0.921763 -0.386142 -0.035330
vn 0.926076 0.376169 0.029669
vn 0.926076 0.376169 0.029669
vn 0.926076 0.376169 0.029669
vn 0.926076 0.376169 0.029669
vn 0.387890 0.918457 0.077317
vn 0.387890 0.918457 0.077317
vn 0.387890 0.918457 0.077317
vn 0.387890 0.918457 0.077317
vn -0.377400 0.923458 0.069235
vn -0.377400 0.923459 0.069235
vn -0.377400 0.923458 0.069235
vn -0.377400 0.923459 0.069235
vn -0.921758 0.386556 0.030610
vn -0.921758 0.386556 0.030610
vn -0.921758 0.386556 0.030610
vn -0.921758 0.386556 0.030610
vn -0.925987 -0.376663 -0.025933
vn -0.925987 -0.376663 -0.025933
vn -0.925987 -0.376663 -0.025933
vn -0.925987 -0.376663 -0.025933
vn -0.387811 -0.919279 -0.067292
vn -0.387811 -0.919279 -0.067292
vn -0.387811 -0.919279 -0.067292
vn -0.387811 -0.919279 -0.067292
vn 0.377610 -0.923373 -0.069229
vn 0.377610 -0.923373 -0.069229
vn 0.377610 -0.923373 -0.069229
vn 0.377610 -0.923373 -0.069229
vn 0.921763 -0.386543 -0.030609
vn 0.921763 -0.386543 -0.030609
vn 0.921763 -0.386543 -0.030609
vn 0.921763 -0.386543 -0.030609
vn 0.926077 0.376443 0.025921
vn 0.926077 0.376443 0.025921
vn 0.926077 0.376443 0.025921
vn 0.926077 0.376443 0.025921
vn 0.387855 0.919261 0.067292
vn 0.387855 0.919261 0.067292
vn 0.387855 0.919261 0.067292
vn 0.387855 0.919261 0.067292
vn -0.377423 0.924129 0.059477
vn -0.377423 0.924129 0.059477
vn -0.377423 0.924129 0.059477
vn -0.377423 0.924129 0.059477
vn -0.921759 0.386867 0.026340
vn -0.921759 0.386867 0.026340
vn -0.921759 0.386867 0.026340
vn -0.921759 0.386867 0.026340
vn -0.925897 -0.377122 -0.022235
vn -0.925897 -0.377122 -0.022235
vn -0.925897 -0.377122 -0.022235
vn -0.925897 -0.377122 -0.022235
vn -0.387892 -0.919893 -0.057765
vn -0.387892 -0.919893 -0.057765
vn -0.387892 -0.919893 -0.057765
vn -0.387892 -0.919893 -0.057765
vn 0.377634 -0.924043 -0.059472
vn 0.377634 -0.924043 -0.059472
vn 0.377634 -0.924043 -0.059472
vn 0.377634 -0.924043 -0.059472
vn 0.921764 -0.386855 -0.026338
vn 0.921764 -0.386855 -0.026338
vn 0.921764 -0.386855 -0.026338
vn 0.921764 -0.386855 -0.026338
vn 0.926079 0.376676 0.022206
vn 0.926079 0.376676 0.022206
vn 0.926079 0.376676 0.022206
vn 0.926079 0.376676 0.022206
vn 0.387838 0.919916 0.057766
vn 0.387838 0.919916 0.057766
vn 0.387838 0.919916 0.057766
vn 0.387838 0.919916 0.057766
vn -0.377419 0.924676 0.050283
vn -0.377419 0.924676 0.050283
vn -0.377419 0.924676 0.050283
vn -0.377420 0.924676 0.050283
vn -0.921768 0.387091 0.022460
vn -0.921768 0.387091 0.022460
vn -0.921768 0.387091 0.022460
vn -0.921768 0.387091 0.022460
vn -0.925893 -0.377332 -0.018526
vn -0.925893 -0.377332 -0.018526
vn -0.925893 -0.377332 -0.018526
vn -0.925893 -0.377332 -0.018526
vn -0.387855 -0.920436 -0.048642
vn -0.387855 -0.920436 -0.048642
vn -0.387855 -0.920436 -0.048642
vn -0.387855 -0.920436 -0.048642
vn 0.377540 -0.924627 -0.050282
vn 0.377540 -0.924627 -0.050282
vn 0.377540 -0.924627 -0.050282
vn 0.377540 -0.924627 -0.050282
vn 0.921763 -0.387102 -0.022469
vn 0.921763 -0.387102 -0.022469
vn 0.921763 -0.387102 -0.022469
vn 0.921763 -0.387102 -0.022469
vn 0.925989 0.377097 0.018508
vn 0.925989 0.377097 0.018508
vn 0.925989 0.377097 0.018508
vn 0.925989 0.377097 0.018508
vn 0.387823 0.920450 0.048643
vn 0.387823 0.920450 0.048643
vn 0.387823 0.920450 0.048643
vn 0.387823 0.920450 0.048643
vn -0.377536 0.925062 0.041561
vn -0.377536 0.925062 0.041561
vn -0.377536 0.925062 0.041561
vn -0.377536 0.925062 0.041561
vn -0.921768 0.387279 0.018936
vn -0.921768 0.387279 0.018936
vn -0.921768 0.387279 0.018936
vn -0.921768 0.387279 0.018936
vn -0.925982 -0.377277 -0.014783
vn -0.925982 -0.377277 -0.014783
vn -0.925982 -0.377277 -0.014783
vn -0.925982 -0.377277 -0.014783
vn -0.387737 -0.920909 -0.039842
vn -0.387737 -0.920909 -0.039842
vn -0.387737 -0.920909 -0.039842
vn -0.387737 -0.920909 -0.039842
vn 0.377538 -0.925061 -0.041561
vn 0.377538 -0.925061 -0.041561
vn 0.377538 -0.925061 -0.041561
vn 0.377538 -0.925061 -0.041561
vn 0.921768 -0.387280 -0.018927
vn 0.921768 -0.387280 -0.018927
vn 0.921768 -0.387280 -0.018927
vn 0.921768 -0.387280 -0.018927
vn 0.925983 0.377277 0.014783
vn 0.925983 0.377277 0.014783
vn 0.925983 0.377277 0.014783
vn 0.925983 0.377277 0.014783
vn 0.387735 0.920909 0.039842
vn 0.387735 0.920910 0.039842
vn 0.387735 0.920909 0.039842
vn 0.387735 0.920909 0.039842
vn -0.377656 0.925350 0.033230
vn -0.377656 0.925350 0.033230
vn -0.377656 0.925350 0.033230
vn -0.377656 0.925350 0.033230
vn -0.921767 0.387427 0.015702
vn -0.921767 0.387427 0.015702
vn -0.921767 0.387427 0.015702
vn -0.921767 0.387427 0.015702
vn -0.926071 -0.377187 -0.011016
vn -0.926072 -0.377187 -0.011016
vn -0.926071 -0.377187 -0.011016
vn -0.926072 -0.377187 -0.011016
vn -0.387656 -0.921273 -0.031295
vn -0.387656 -0.921273 -0.031295
vn -0.387656 -0.921273 -0.031295
vn -0.387656 -0.921273 -0.031295
vn 0.377656 -0.925350 -0.033230
vn 0.377656 -0.925350 -0.033230
vn 0.377656 -0.925350 -0.033230
vn 0.377656 -0.925350 -0.033230
vn 0.921771 -0.387416 -0.015701
vn 0.921771 -0.387416 -0.015701
vn 0.921771 -0.387416 -0.015701
vn 0.921771 -0.387416 -0.015701
vn 0.926067 0.377199 0.011016
vn 0.926067 0.377199 0.011016
vn 0.926067 0.377199 0.011016
vn 0.926067 0.377199 0.011016
vn 0.387656 0.921273 0.031295
vn 0.387656 0.921273 0.031295
vn 0.387656 0.921273 0.031295
vn 0.387656 0.921273 0.031295
vn -0.377565 0.925639 0.025235
vn -0.377565 0.925639 0.025235
vn -0.377565 0.925639 0.025235
vn -0.377565 0.925639 0.025235
vn -0.921767 0.387534 0.012747
vn -0.921767 0.387534 0.012747
vn -0.921767 0.387534 0.012747
vn -0.921767 0.387534 0.012747
vn -0.925980 -0.377504 -0.007199
vn -0.925980 -0.377504 -0.007199
vn -0.925980 -0.377504 -0.007199
vn -0.925980 -0.377504 -0.007199
vn -0.387709 -0.921496 -0.022935
vn -0.387709 -0.921496 -0.022935
vn -0.387709 -0.921496 -0.022935
vn -0.387709 -0.921496 -0.022935
vn 0.377566 -0.925639 -0.025234
vn 0.377566 -0.925639 -0.025234
vn 0.377566 -0.925639 -0.025234
vn 0.377566 -0.925639 -0.025234
vn 0.921767 -0.387534 -0.012756
vn 0.921767 -0.387534 -0.012756
vn 0.921767 -0.387534 -0.012756
vn 0.921767 -0.387534 -0.012756
vn 0.925980 0.377504 0.007199
vn 0.925980 0.377504 0.007199
vn 0.925980 0.377504 0.007199
vn 0.925980 0.377504 0.007199
vn 0.387708 0.921497 0.022935
vn 0.387708 0.921497 0.022935
vn 0.387708 0.921497 0.022935
vn 0.387708 0.921497 0.022935
vn -0.377597 0.925805 0.017504
vn -0.377597 0.925805 0.017504
vn -0.377597 0.925805 0.017504
vn -0.377597 0.925805 0.017504
vn -0.921764 0.387621 0.010049
vn -0.921764 0.387621 0.010049
vn -0.921764 0.387621 0.010049
vn -0.921764 0.387621 0.010049
vn -0.925980 -0.377558 -0.003299
vn -0.925980 -0.377558 -0.003299
vn -0.925980 -0.377558 -0.003299
vn -0.925980 -0.377558 -0.003299
vn -0.387663 -0.921684 -0.014712
vn -0.387663 -0.921684 -0.014712
vn -0.387663 -0.921684 -0.014712
vn -0.387663 -0.921684 -0.014712
vn 0.377597 -0.925805 -0.017504
vn 0.377597 -0.925805 -0.017504
vn 0.377597 -0.925805 -0.017504
vn 0.377597 -0.925804 -0.017504
vn 0.921764 -0.387621 -0.010039
vn 0.921764 -0.387621 -0.010039
vn 0.921764 -0.387621 -0.010039
vn 0.921764 -0.387621 -0.010039
vn 0.925884 0.377793 0.003307
vn 0.925884 0.377793 0.003307
vn 0.925884 0.377793 0.003307
vn 0.925884 0.377793 0.003307
vn 0.387784 0.921633 0.014711
vn 0.387784 0.921633 0.014711
vn 0.387784 0.921633 0.014711
vn 0.387784 0.921633 0.014711
vn -0.377723 0.925865 0.009990
vn -0.377723 0.925865 0.009990
vn -0.377723 0.925865 0.009990
vn -0.377723 0.925865 0.009990
vn -0.921761 0.387685 0.007557
vn -0.921761 0.387685 0.007557
vn -0.921761 0.387685 0.007557
vn -0.921761 0.387685 0.007557
vn -0.925974 -0.377586 0.000702
vn -0.925974 -0.377586 0.000702
vn -0.925974 -0.377586 0.000702
vn -0.925974 -0.377586 0.000702
vn -0.387633 -0.921790 -0.006569
vn -0.387634 -0.921790 -0.006569
vn -0.387633 -0.921790 -0.006569
vn -0.387633 -0.921790 -0.006569
vn 0.377723 -0.925865 -0.009989
vn 0.377723 -0.925865 -0.009989
vn 0.377723 -0.925865 -0.009989
vn 0.377723 -0.925865 -0.009989
vn 0.921761 -0.387685 -0.007556
vn 0.921761 -0.387685 -0.007556
vn 0.921761 -0.387685 -0.007556
vn 0.921761 -0.387685 -0.007556
vn 0.925878 0.377821 -0.000696
vn 0.925878 0.377821 -0.000696
vn 0.925878 0.377821 -0.000696
vn 0.925878 0.377821 -0.000696
vn 0.387755 0.921739 0.006570
vn 0.387755 0.921739 0.006570
vn 0.387755 0.921739 0.006570
vn 0.387755 0.921739 0.006570
vn -0.377735 0.925910 0.002645
vn -0.377736 0.925910 0.002645
vn -0.377735 0.925910 0.002645
vn -0.377736 0.925910 0.002645
vn -0.921757 0.387733 0.005278
vn -0.921757 0.387733 0.005278
vn -0.921757 0.387733 0.005278
vn -0.921757 0.387733 0.005278
vn -0.925875 -0.377800 0.004819
vn -0.925875 -0.377800 0.004819
vn -0.925875 -0.377800 0.004819
vn -0.925875 -0.377800 0.004819
vn -0.387681 -0.921792 0.001538
vn -0.387681 -0.921792 0.001538
vn -0.387681 -0.921792 0.001538
vn -0.387682 -0.921792 0.001538
vn 0.377735 -0.925910 -0.002644
vn 0.377735 -0.925910 -0.002644
vn 0.377735 -0.925910 -0.002644
vn 0.377735 -0.925910 -0.002644
vn 0.921757 -0.387732 -0.005278
vn 0.921757 -0.387732 -0.005278
vn 0.921757 -0.387732 -0.005278
vn 0.921757 -0.387732 -0.005278
vn 0.925875 0.377800 -0.004820
vn 0.925875 0.377800 -0.004820
vn 0.925875 0.377800 -0.004820
vn 0.925875 0.377800 -0.004820
vn 0.387682 0.921792 -0.001539
vn 0.387682 0.921792 -0.001539
vn 0.387682 0.921792 -0.001539
vn 0.387682 0.921792 -0.001539
vn -0.377783 0.925883 -0.004578
vn -0.377783 0.925883 -0.004578
vn -0.377783 0.925883 -0.004578
vn -0.377783 0.925883 -0.004578
vn -0.921751 0.387769 0.003184
vn -0.921751 0.387768 0.003184
vn -0.921751 0.387769 0.003184
vn -0.921751 0.387769 0.003184
vn -0.925863 -0.377749 0.009083
vn -0.925863 -0.377749 0.009083
vn -0.925863 -0.377749 0.009083
vn -0.925863 -0.377749 0.009083
vn -0.387643 -0.921759 0.009660
vn -0.387643 -0.921759 0.009660
vn -0.387643 -0.921759 0.009660
vn -0.387643 -0.921759 0.009660
vn 0.377664 -0.925931 0.004578
vn 0.377664 -0.925931 0.004578
vn 0.377664 -0.925931 0.004578
vn 0.377664 -0.925931 0.004578
vn 0.921849 -0.387535 -0.003191
vn 0.921849 -0.387535 -0.003191
vn 0.921849 -0.387535 -0.003191
vn 0.921849 -0.387535 -0.003191
vn 0.925863 0.377749 -0.009084
vn 0.925863 0.377749 -0.009084
vn 0.925863 0.377749 -0.009084
vn 0.925863 0.377749 -0.009084
vn 0.387643 0.921759 -0.009661
vn 0.387643 0.921759 -0.009661
vn 0.387643 0.921759 -0.009661
vn 0.387643 0.921759 -0.009661
vn -0.377842 0.925796 -0.011718
vn -0.377842 0.925796 -0.011718
vn -0.377842 0.925796 -0.011718
vn -0.377842 0.925796 -0.011718
vn -0.921744 0.387798 0.001273
vn -0.921744 0.387798 0.001273
vn -0.921744 0.387798 0.001273
vn -0.921744 0.387798 0.001273
vn -0.925847 -0.377656 0.013523
vn -0.925847 -0.377656 0.013523
vn -0.925847 -0.377656 0.013523
vn -0.925847 -0.377657 0.013523
vn -0.387607 -0.921652 0.017849
vn -0.387607 -0.921652 0.017849
vn -0.387607 -0.921652 0.017849
vn -0.387607 -0.921652 0.017849
vn 0.377603 -0.925893 0.011722
vn 0.377604 -0.925893 0.011722
vn 0.377604 -0.925893 0.011722
vn 0.377604 -0.925893 0.011722
vn 0.921940 -0.387331 -0.001282
vn 0.921940 -0.387331 -0.001282
vn 0.921940 -0.387331 -0.001282
vn 0.921940 -0.387331 -0.001282
vn 0.925847 0.377656 -0.013525
vn 0.925847 0.377656 -0.013525
vn 0.925847 0.377656 -0.013525
vn 0.925847 0.377656 -0.013525
vn 0.387606 0.921652 -0.017850
vn 0.387606 0.921652 -0.017850
vn 0.387606 0.921652 -0.017850
vn 0.387606 0.921652 -0.017850
vn -0.377887 0.925660 -0.018823
vn -0.377887 0.925660 -0.018823
vn -0.377887 0.925660 -0.018823
vn -0.377887 0.925660 -0.018823
vn -0.921827 0.387602 -0.000472
vn -0.921827 0.387602 -0.000472
vn -0.921827 0.387602 -0.000472
vn -0.921827 0.387602 -0.000472
vn -0.925830 -0.377505 0.018158
vn -0.925830 -0.377505 0.018158
vn -0.925830 -0.377505 0.018158
vn -0.925830 -0.377505 0.018158
vn -0.387541 -0.921482 0.026148
vn -0.387541 -0.921482 0.026148
vn -0.387541 -0.921482 0.026148
vn -0.387541 -0.921482 0.026148
vn 0.377767 -0.925709 0.018825
vn 0.377767 -0.925709 0.018825
vn 0.377767 -0.925709 0.018825
vn 0.377767 -0.925709 0.018825
vn 0.921832 -0.387590 0.000473
vn 0.921832 -0.387590 0.000473
vn 0.921832 -0.387590 0.000473
vn 0.921832 -0.387590 0.000473
vn 0.925825 0.377516 -0.018160
vn 0.925825 0.377516 -0.018160
vn 0.925825 0.377516 -0.018160
vn 0.925825 0.377516 -0.018160
vn 0.387475 0.921509 -0.026148
vn 0.387475 0.921509 -0.026148
vn 0.387475 0.921510 -0.026148
vn 0.387475 0.921510 -0.026148
vn -0.377951 0.925462 -0.025927
vn -0.377951 0.925462 -0.025927
vn -0.377951 0.925462 -0.025927
vn -0.377951 0.925462 -0.025927
vn -0.921907 0.387407 -0.002051
vn -0.921907 0.387407 -0.002051
vn -0.921907 0.387407 -0.002051
vn -0.921907 0.387407 -0.002051
vn -0.925801 -0.377310 0.023016
vn -0.925801 -0.377310 0.023016
vn -0.925801 -0.377310 0.023016
vn -0.925801 -0.377310 0.023016
vn -0.387373 -0.921273 0.034613
vn -0.387373 -0.921273 0.034613
vn -0.387373 -0.921273 0.034613
vn -0.387373 -0.921273 0.034613
vn 0.377923 -0.925474 0.025925
vn 0.377923 -0.925474 0.025925
vn 0.377923 -0.925474 0.025926
vn 0.377923 -0.925474 0.025926
vn 0.921813 -0.387628 0.002056
vn 0.921813 -0.387628 0.002056
vn 0.921813 -0.387629 0.002056
vn 0.921813 -0.387628 0.002056
vn 0.925801 0.377310 -0.023018
vn 0.925801 0.377310 -0.023018
vn 0.925801 0.377310 -0.023018
vn 0.925801 0.377310 -0.023018
vn 0.387308 0.921300 -0.034613
vn 0.387308 0.921300 -0.034613
vn 0.387308 0.921300 -0.034613
vn 0.387308 0.921300 -0.034613
vn -0.378014 0.925209 -0.033080
vn -0.378014 0.925209 -0.033080
vn -0.378014 0.925209 -0.033080
vn -0.378014 0.925209 -0.033080
vn -0.921885 0.387449 -0.003484
vn -0.921885 0.387449 -0.003484
vn -0.921885 0.387449 -0.003484
vn -0.921885 0.387449 -0.003484
vn -0.925769 -0.377041 0.028143
vn -0.925769 -0.377041 0.028143
vn -0.925769 -0.377041 0.028143
vn -0.925769 -0.377041 0.028143
vn -0.387195 -0.920981 0.043296
vn -0.387195 -0.920981 0.043296
vn -0.387195 -0.920981 0.043296
vn -0.387195 -0.920981 0.043296
vn 0.378014 -0.925209 0.033082
vn 0.378014 -0.925209 0.033082
vn 0.378014 -0.925209 0.033082
vn 0.378014 -0.925209 0.033082
vn 0.921885 -0.387448 0.003485
vn 0.921885 -0.387448 0.003485
vn 0.921885 -0.387448 0.003485
vn 0.921885 -0.387448 0.003485
vn 0.925678 0.377265 -0.028149
vn 0.925678 0.377265 -0.028149
vn 0.925678 0.377265 -0.028149
vn 0.925678 0.377265 -0.028149
vn 0.387287 0.920942 -0.043296
vn 0.387287 0.920942 -0.043296
vn 0.387287 0.920942 -0.043296
vn 0.387287 0.920942 -0.043296
vn -0.378083 0.924893 -0.040328
vn -0.378084 0.924893 -0.040328
vn -0.378083 0.924893 -0.040328
vn -0.378083 0.924893 -0.040328
vn -0.921854 0.387507 -0.004773
vn -0.921854 0.387507 -0.004773
vn -0.921854 0.387507 -0.004773
vn -0.921854 0.387507 -0.004773
vn -0.925640 -0.376911 0.033584
vn -0.925640 -0.376911 0.033584
vn -0.925640 -0.376911 0.033584
vn -0.925640 -0.376911 0.033584
vn -0.387063 -0.920571 0.052266
vn -0.387063 -0.920571 0.052266
vn -0.387063 -0.920571 0.052266
vn -0.387063 -0.920571 0.052266
vn 0.378203 -0.924844 0.040324
vn 0.378203 -0.924844 0.040324
vn 0.378203 -0.924844 0.040324
vn 0.378203 -0.924844 0.040324
vn 0.921854 -0.387507 0.004773
vn 0.921854 -0.387507 0.004773
vn 0.921854 -0.387507 0.004773
vn 0.921854 -0.387507 0.004773
vn 0.925544 0.377148 -0.033593
vn 0.925544 0.377148 -0.033593
vn 0.925544 0.377148 -0.033593
vn 0.925544 0.377148 -0.033593
vn 0.387251 0.920492 -0.052264
vn 0.387251 0.920492 -0.052264
vn 0.387251 0.920492 -0.052264
vn 0.387251 0.920492 -0.052264
vn -0.378259 0.924469 -0.047713
vn -0.378259 0.924470 -0.047713
vn -0.378259 0.924469 -0.047713
vn -0.378259 0.924470 -0.047713
vn -0.921819 0.387575 -0.005906
vn -0.921819 0.387575 -0.005906
vn -0.921819 0.387575 -0.005906
vn -0.921819 0.387576 -0.005906
vn -0.925491 -0.376716 0.039379
vn -0.925491 -0.376716 0.039379
vn -0.925491 -0.376716 0.039379
vn -0.925491 -0.376716 0.039379
vn -0.386906 -0.920061 0.061581
vn -0.386906 -0.920061 0.061581
vn -0.386906 -0.920061 0.061581
vn -0.386906 -0.920061 0.061581
vn 0.378348 -0.924433 0.047709
vn 0.378348 -0.924433 0.047709
vn 0.378348 -0.924433 0.047709
vn 0.378348 -0.924433 0.047709
vn 0.921820 -0.387573 0.005907
vn 0.921820 -0.387573 0.005907
vn 0.921820 -0.387573 0.005907
vn 0.921820 -0.387573 0.005907
vn 0.925490 0.376719 -0.039384
vn 0.925490 0.376719 -0.039384
vn 0.925490 0.376719 -0.039384
vn 0.925490 0.376719 -0.039384
vn 0.387003 0.920020 -0.061581
vn 0.387003 0.920020 -0.061581
vn 0.387003 0.920020 -0.061581
vn 0.387003 0.920020 -0.061581
vn -0.378462 0.923964 -0.055294
vn -0.378462 0.923964 -0.055294
vn -0.378462 0.923964 -0.055294
vn -0.378462 0.923964 -0.055294
vn -0.921864 0.387452 -0.006885
vn -0.921864 0.387452 -0.006885
vn -0.921864 0.387452 -0.006885
vn -0.921864 0.387452 -0.006885
vn -0.925328 -0.376416 0.045591
vn -0.925328 -0.376416 0.045591
vn -0.925328 -0.376416 0.045591
vn -0.925328 -0.376416 0.045591
vn -0.386811 -0.919396 0.071329
vn -0.386811 -0.919396 0.071329
vn -0.386811 -0.919396 0.071329
vn -0.386811 -0.919396 0.071329
vn 0.378461 -0.923964 0.055294
vn 0.378461 -0.923964 0.055294
vn 0.378461 -0.923964 0.055294
vn 0.378461 -0.923964 0.055294
vn 0.921864 -0.387453 0.006886
vn 0.921864 -0.387453 0.006886
vn 0.921864 -0.387453 0.006886
vn 0.921864 -0.387453 0.006886
vn 0.925420 0.376194 -0.045570
vn 0.925420 0.376194 -0.045570
vn 0.925420 0.376194 -0.045570
vn 0.925420 0.376194 -0.045570
vn 0.386718 0.919435 -0.071328
vn 0.386718 0.919435 -0.071328
vn 0.386718 0.919435 -0.071328
vn 0.386718 0.919435 -0.071328
vn -0.378680 0.923372 -0.063130
vn -0.378680 0.923372 -0.063130
vn -0.378680 0.923372 -0.063130
vn -0.378680 0.923372 -0.063130
vn -0.921892 0.387370 -0.007697
vn -0.921892 0.387370 -0.007697
vn -0.921892 0.387370 -0.007697
vn -0.921892 0.387370 -0.007697
vn -0.925145 -0.375997 0.052278
vn -0.925145 -0.375997 0.052278
vn -0.925145 -0.375997 0.052278
vn -0.925145 -0.375997 0.052278
vn -0.386672 -0.918600 0.081597
vn -0.386672 -0.918600 0.081597
vn -0.386673 -0.918600 0.081597
vn -0.386672 -0.918600 0.081597
vn 0.378590 -0.923409 0.063137
vn 0.378590 -0.923409 0.063137
vn 0.378590 -0.923409 0.063137
vn 0.378590 -0.923409 0.063137
vn 0.921892 -0.387370 0.007698
vn 0.921892 -0.387370 0.007698
vn 0.921892 -0.387370 0.007698
vn 0.921892 -0.387370 0.007698
vn 0.925236 0.375776 -0.052266
vn 0.925236 0.375776 -0.052266
vn 0.925236 0.375776 -0.052266
vn 0.925236 0.375776 -0.052266
vn 0.386487 0.918678 -0.081599
vn 0.386487 0.918678 -0.081599
vn 0.386487 0.918678 -0.081599
vn 0.386487 0.918678 -0.081599
vn -0.378820 0.922719 -0.071307
vn -0.378820 0.922719 -0.071307
vn -0.378820 0.922719 -0.071307
vn -0.378820 0.922719 -0.071307
vn -0.921899 0.387341 -0.008364
vn -0.921899 0.387341 -0.008364
vn -0.921899 0.387341 -0.008364
vn -0.921899 0.387341 -0.008364
vn -0.925029 -0.375207 0.059506
vn -0.925029 -0.375207 0.059507
vn -0.925029 -0.375207 0.059507
vn -0.925029 -0.375207 0.059507
vn -0.386286 -0.917729 0.092499
vn -0.386286 -0.917729 0.092499
vn -0.386286 -0.917729 0.092499
vn -0.386286 -0.917729 0.092499
vn 0.378708 -0.922765 0.071312
vn 0.378708 -0.922765 0.071312
vn 0.378708 -0.922765 0.071312
vn 0.378708 -0.922765 0.071312
vn 0.921997 -0.387108 0.008336
vn 0.921997 -0.387108 0.008336
vn 0.921997 -0.387108 0.008336
vn 0.921997 -0.387108 0.008336
vn 0.925024 0.375218 -0.059507
vn 0.925025 0.375218 -0.059507
vn 0.925025 0.375218 -0.059507
vn 0.925025 0.375218 -0.059507
vn 0.386312 0.917718 -0.092500
vn 0.386312 0.917718 -0.092500
vn 0.386312 0.917718 -0.092500
vn 0.386312 0.917718 -0.092500
vn -0.378996 0.921942 -0.079901
vn -0.378996 0.921942 -0.079901
vn -0.378996 0.921942 -0.079901
vn -0.378996 0.921942 -0.079901
vn -0.921969 0.387164 -0.008826
vn -0.921969 0.387164 -0.008826
vn -0.921969 0.387164 -0.008826
vn -0.921969 0.387164 -0.008826
vn -0.924793 -0.374449 0.067423
vn -0.924793 -0.374449 0.067423
vn -0.924793 -0.374449 0.067423
vn -0.924793 -0.374449 0.067423
vn -0.385927 -0.916630 0.104165
vn -0.385927 -0.916630 0.104165
vn -0.385927 -0.916630 0.104165
vn -0.385927 -0.916630 0.104165
vn 0.378969 -0.921953 0.079906
vn 0.378969 -0.921953 0.079906
vn 0.378969 -0.921953 0.079906
vn 0.378969 -0.921953 0.079906
vn 0.922070 -0.386922 0.008804
vn 0.922070 -0.386922 0.008804
vn 0.922070 -0.386922 0.008804
vn 0.922070 -0.386922 0.008804
vn 0.924876 0.374248 -0.067404
vn 0.924876 0.374248 -0.067404
vn 0.924876 0.374248 -0.067404
vn 0.924876 0.374248 -0.067404
vn 0.385953 0.916619 -0.104165
vn 0.385953 0.916619 -0.104165
vn 0.385953 0.916619 -0.104165
vn 0.385953 0.916619 -0.104165
vn -0.379369 0.920954 -0.089006
vn -0.379369 0.920954 -0.089006
vn -0.379369 0.920954 -0.089006
vn -0.379369 0.920954 -0.089006
vn -0.921915 0.387285 -0.009136
vn -0.921915 0.387285 -0.009136
vn -0.921915 0.387285 -0.009136
vn -0.921915 0.387285 -0.009136
vn -0.924417 -0.373706 0.076135
vn -0.924417 -0.373706 0.076135
vn -0.924417 -0.373706 0.076135
vn -0.924417 -0.373706 0.076135
vn -0.385610 -0.915245 0.116757
vn -0.385610 -0.915245 0.116757
vn -0.385610 -0.915245 0.116757
vn -0.385610 -0.915245 0.116757
vn 0.379308 -0.920979 0.089011
vn 0.379308 -0.920979 0.089011
vn 0.379308 -0.920979 0.089011
vn 0.379308 -0.920979 0.089011
vn 0.922014 -0.387050 0.009102
vn 0.922014 -0.387050 0.009102
vn 0.922014 -0.387050 0.009102
vn 0.922014 -0.387050 0.009102
vn 0.924595 0.373273 -0.076098
vn 0.924595 0.373273 -0.076098
vn 0.924595 0.373273 -0.076098
vn 0.924595 0.373273 -0.076098
vn 0.385389 0.915337 -0.116760
vn 0.385389 0.915337 -0.116760
vn 0.385389 0.915337 -0.116760
vn 0.385389 0.915337 -0.116760
vn -0.379812 0.919777 -0.098763
vn -0.379812 0.919777 -0.098763
vn -0.379812 0.919777 -0.098763
vn -0.379812 0.919777 -0.098763
vn -0.921915 0.387282 -0.009216
vn -0.921915 0.387282 -0.009216
vn -0.921915 0.387282 -0.009216
vn -0.921915 0.387282 -0.009216
vn -0.924069 -0.372477 0.085782
vn -0.924069 -0.372476 0.085782
vn -0.924069 -0.372477 0.085782
vn -0.924069 -0.372477 0.085782
vn -0.385005 -0.913644 0.130483
vn -0.385005 -0.913644 0.130483
vn -0.385005 -0.913644 0.130483
vn -0.385005 -0.913644 0.130483
vn 0.379749 -0.919802 0.098766
vn 0.379749 -0.919802 0.098766
vn 0.379749 -0.919802 0.098766
vn 0.379749 -0.919802 0.098766
vn 0.922006 -0.387066 0.009190
vn 0.922006 -0.387066 0.009190
vn 0.922006 -0.387066 0.009190
vn 0.922006 -0.387066 0.009190
vn 0.924163 0.372250 -0.085753
vn 0.924163 0.372250 -0.085753
vn 0.924163 0.372250 -0.085753
vn 0.924163 0.372250 -0.085753
vn 0.384887 0.913694 -0.130482
vn 0.384887 0.913694 -0.130482
vn 0.384887 0.913694 -0.130482
vn 0.384887 0.913694 -0.130482
vn -0.380302 0.918377 -0.109331
vn -0.380303 0.918377 -0.109331
vn -0.380302 0.918377 -0.109331
vn -0.380302 0.918377 -0.109331
vn -0.921941 0.387224 -0.009035
vn -0.921941 0.387224 -0.009035
vn -0.921941 0.387224 -0.009035
vn -0.921941 0.387224 -0.009035
vn -0.923654 -0.370860 0.096574
vn -0.923654 -0.370860 0.096574
vn -0.923654 -0.370860 0.096574
vn -0.923654 -0.370860 0.096574
vn -0.384204 -0.911694 0.145606
vn -0.384204 -0.911694 0.145606
vn -0.384204 -0.911694 0.145606
vn -0.384204 -0.911694 0.145606
vn 0.380299 -0.918379 0.109333
vn 0.380299 -0.918379 0.109333
vn 0.380299 -0.918379 0.109333
vn 0.380299 -0.918379 0.109333
vn 0.921939 -0.387230 0.009035
vn 0.921939 -0.387230 0.009035
vn 0.921939 -0.387230 0.009035
vn 0.921939 -0.387230 0.009035
vn 0.923656 0.370855 -0.096578
vn 0.923655 0.370855 -0.096578
vn 0.923656 0.370855 -0.096578
vn 0.923656 0.370855 -0.096578
vn 0.384193 0.911698 -0.145609
vn 0.384193 0.911698 -0.145609
vn 0.384193 0.911698 -0.145609
vn 0.384193 0.911698 -0.145609
vn -0.380845 0.916695 -0.120942
vn -0.380845 0.916695 -0.120942
vn -0.380845 0.916695 -0.120942
vn -0.380845 0.916695 -0.120942
vn -0.921970 0.387165 -0.008561
vn -0.921970 0.387165 -0.008561
vn -0.921970 0.387165 -0.008561
vn -0.921970 0.387165 -0.008561
vn -0.923048 -0.368976 0.108811
vn -0.923048 -0.368976 0.108811
vn -0.923048 -0.368976 0.108811
vn -0.923048 -0.368976 0.108811
vn -0.383277 -0.909232 0.162471
vn -0.383277 -0.909232 0.162471
vn -0.383277 -0.909232 0.162471
vn -0.383277 -0.909232 0.162471
vn 0.380842 -0.916697 0.120940
vn 0.380842 -0.916697 0.120940
vn 0.380842 -0.916697 0.120940
vn 0.380842 -0.916697 0.120940
vn 0.921879 -0.387382 0.008595
vn 0.921879 -0.387382 0.008595
vn 0.921879 -0.387382 0.008595
vn 0.921879 -0.387382 0.008595
vn 0.922956 0.369196 -0.108839
vn 0.922956 0.369196 -0.108839
vn 0.922957 0.369196 -0.108839
vn 0.922956 0.369196 -0.108839
vn 0.383268 0.909235 -0.162470
vn 0.383268 0.909235 -0.162470
vn 0.383268 0.909235 -0.162470
vn 0.383268 0.909235 -0.162470
vn -0.381608 0.914581 -0.133854
vn -0.381608 0.914581 -0.133854
vn -0.381608 0.914581 -0.133854
vn -0.381608 0.914581 -0.133854
vn -0.921879 0.387400 -0.007777
vn -0.921879 0.387400 -0.007777
vn -0.921879 0.387400 -0.007777
vn -0.921879 0.387400 -0.007777
vn -0.922113 -0.366888 0.122888
vn -0.922113 -0.366888 0.122888
vn -0.922113 -0.366888 0.122888
vn -0.922113 -0.366888 0.122888
vn -0.382205 -0.906071 0.181536
vn -0.382205 -0.906071 0.181536
vn -0.382205 -0.906071 0.181536
vn -0.382205 -0.906071 0.181536
vn 0.381590 -0.914588 0.133859
vn 0.381590 -0.914588 0.133859
vn 0.381590 -0.914588 0.133859
vn 0.381590 -0.914588 0.133859
vn 0.921881 -0.387395 0.007781
vn 0.921881 -0.387395 0.007781
vn 0.921881 -0.387395 0.007781
vn 0.921881 -0.387395 0.007781
vn 0.922111 0.366894 -0.122884
vn 0.922111 0.366894 -0.122884
vn 0.922111 0.366893 -0.122884
vn 0.922111 0.366893 -0.122884
vn 0.382207 0.906070 -0.181536
vn 0.382207 0.906070 -0.181536
vn 0.382207 0.906070 -0.181536
vn 0.382207 0.906070 -0.181536
vn -0.382607 0.911902 -0.148482
vn -0.382607 0.911902 -0.148482
vn -0.382607 0.911902 -0.148482
vn -0.382607 0.911902 -0.148482
vn -0.921797 0.387618 -0.006542
vn -0.921797 0.387618 -0.006542
vn -0.921797 0.387618 -0.006542
vn -0.921797 0.387618 -0.006542
vn -0.920968 -0.363904 0.139258
vn -0.920968 -0.363904 0.139258
vn -0.920968 -0.363904 0.139258
vn -0.920968 -0.363904 0.139258
vn -0.380743 -0.902023 0.203444
vn -0.380743 -0.902023 0.203444
vn -0.380743 -0.902023 0.203444
vn -0.380743 -0.902023 0.203444
vn 0.382564 -0.911920 0.148483
vn 0.382564 -0.911920 0.148483
vn 0.382564 -0.911920 0.148483
vn 0.382564 -0.911920 0.148483
vn 0.921808 -0.387592 0.006532
vn 0.921808 -0.387592 0.006532
vn 0.921808 -0.387592 0.006532
vn 0.921808 -0.387592 0.006532
vn 0.920962 0.363917 -0.139261
vn 0.920962 0.363917 -0.139261
vn 0.920962 0.363917 -0.139261
vn 0.920962 0.363917 -0.139261
vn 0.380758 0.902016 -0.203444
vn 0.380758 0.902017 -0.203444
vn 0.380758 0.902017 -0.203444
vn 0.380758 0.902016 -0.203444
s off
g SP23
usemtl aiStandardSurface1SG
f 1/1/1 2/2/2 10/3/3 9/4/4
f 2/2/5 3/5/6 11/6/7 10/3/8
f 3/5/9 4/7/10 12/8/11 11/6/12
f 4/7/13 5/9/14 13/332/15 12/8/16
f 5/333/17 6/11/18 14/12/19 13/10/20
f 6/11/21 7/13/22 15/14/23 14/12/24
f 7/13/25 8/15/26 16/16/27 15/14/28
f 8/15/29 1/1/30 9/4/31 16/16/32
f 9/4/33 10/3/34 18/17/35 17/18/36
f 10/3/37 11/6/38 19/19/39 18/17/40
f 11/6/41 12/8/42 20/20/43 19/19/44
f 12/8/45 13/332/46 21/331/47 20/20/48
f 13/10/49 14/12/50 22/22/51 21/21/52
f 14/12/53 15/14/54 23/23/55 22/22/56
f 15/14/57 16/16/58 24/24/59 23/23/60
f 16/16/61 9/4/62 17/18/63 24/24/64
f 17/18/65 18/17/66 26/25/67 25/26/68
f 18/17/69 19/19/70 27/27/71 26/25/72
f 19/19/73 20/20/74 28/28/75 27/27/76
f 20/20/77 21/331/78 29/330/79 28/28/80
f 21/21/81 22/22/82 30/30/83 29/29/84
f 22/22/85 23/23/86 31/31/87 30/30/88
f 23/23/89 24/24/90 32/32/91 31/31/92
f 24/24/93 17/18/94 25/26/95 32/32/96
f 25/26/97 26/25/98 34/33/99 33/34/100
f 26/25/101 27/27/102 35/35/103 34/33/104
f 27/27/105 28/28/106 36/36/107 35/35/108
f 28/28/109 29/330/110 37/329/111 36/36/112
f 29/29/113 30/30/114 38/38/115 37/37/116
f 30/30/117 31/31/118 39/39/119 38/38/120
f 31/31/121 32/32/122 40/40/123 39/39/124
f 32/32/125 25/26/126 33/34/127 40/40/128
f 33/34/129 34/33/130 42/41/131 41/42/132
f 34/33/133 35/35/134 43/43/135 42/41/136
f 35/35/137 36/36/138 44/44/139 43/43/140
f 36/36/141 37/329/142 45/328/143 44/44/144
f 37/37/145 38/38/146 46/46/147 45/45/148
f 38/38/149 39/39/150 47/47/151 46/46/152
f 39/39/153 40/40/154 48/48/155 47/47/156
f 40/40/157 33/34/158 41/42/159 48/48/160
f 41/42/161 42/41/162 50/49/163 49/50/164
f 42/41/165 43/43/166 51/51/167 50/49/168
f 43/43/169 44/44/170 52/52/171 51/51/172
f 44/44/173 45/328/174 53/327/175 52/52/176
f 45/45/177 46/46/178 54/54/179 53/53/180
f 46/46/181 47/47/182 55/55/183 54/54/184
f 47/47/185 48/48/186 56/56/187 55/55/188
f 48/48/189 41/42/190 49/50/191 56/56/192
f 49/50/193 50/49/194 58/57/195 57/58/196
f 50/49/197 51/51/198 59/59/199 58/57/200
f 51/51/201 52/52/202 60/60/203 59/59/204
f 52/52/205 53/327/206 61/326/207 60/60/208
f 53/53/209 54/54/210 62/62/211 61/61/212
f 54/54/213 55/55/214 63/63/215 62/62/216
f 55/55/217 56/56/218 64/64/219 63/63/220
f 56/56/221 49/50/222 57/58/223 64/64/224
f 57/58/225 58/57/226 66/65/227 65/66/228
f 58/57/229 59/59/230 67/67/231 66/65/232
f 59/59/233 60/60/234 68/68/235 67/67/236
f 60/60/237 61/326/238 69/325/239 68/68/240
f 61/61/241 62/62/242 70/70/243 69/69/244
f 62/62/245 63/63/246 71/71/247 70/70/248
f 63/63/249 64/64/250 72/72/251 71/71/252
f 64/64/253 57/58/254 65/66/255 72/72/256
f 65/66/257 66/65/258 74/73/259 73/74/260
f 66/65/261 67/67/262 75/75/263 74/73/264
f 67/67/265 68/68/266 76/76/267 75/75/268
f 68/68/269 69/325/270 77/324/271 76/76/272
f 69/69/273 70/70/274 78/78/275 77/77/276
f 70/70/277 71/71/278 79/79/279 78/78/280
f 71/71/281 72/72/282 80/80/283 79/79/284
f 72/72/285 65/66/286 73/74/287 80/80/288
f 73/74/289 74/73/290 82/81/291 81/82/292
f 74/73/293 75/75/294 83/83/295 82/81/296
f 75/75/297 76/76/298 84/84/299 83/83/300
f 76/76/301 77/324/302 85/323/303 84/84/304
f 77/77/305 78/78/306 86/86/307 85/85/308
f 78/78/309 79/79/310 87/87/311 86/86/312
f 79/79/313 80/80/314 88/88/315 87/87/316
f 80/80/317 73/74/318 81/82/319 88/88/320
f 81/82/321 82/81/322 90/89/323 89/90/324
f 82/81/325 83/83/326 91/91/327 90/89/328
f 83/83/329 84/84/330 92/92/331 91/91/332
f 84/84/333 85/323/334 93/322/335 92/92/336
f 85/85/337 86/86/338 94/94/339 93/93/340
f 86/86/341 87/87/342 95/95/343 94/94/344
f 87/87/345 88/88/346 96/96/347 95/95/348
f 88/88/349 81/82/350 89/90/351 96/96/352
f 89/90/353 90/89/354 98/97/355 97/98/356
f 90/89/357 91/91/358 99/99/359 98/97/360
f 91/91/361 92/92/362 100/100/363 99/99/364
f 92/92/365 93/322/366 101/321/367 100/100/368
f 93/93/369 94/94/370 102/102/371 101/101/372
f 94/94/373 95/95/374 103/103/375 102/102/376
f 95/95/377 96/96/378 104/104/379 103/103/380
f 96/96/381 89/90/382 97/98/383 104/104/384
f 97/98/385 98/97/386 106/105/387 105/106/388
f 98/97/389 99/99/390 107/107/391 106/105/392
f 99/99/393 100/100/394 108/108/395 107/107/396
f 100/100/397 101/321/398 109/320/399 108/108/400
f 101/101/401 102/102/402 110/110/403 109/109/404
f 102/102/405 103/103/406 111/111/407 110/110/408
f 103/103/409 104/104/410 112/112/411 111/111/412
f 104/104/413 97/98/414 105/106/415 112/112/416
f 105/106/417 106/105/418 114/113/419 113/114/420
f 106/105/421 107/107/422 115/115/423 114/113/424
f 107/107/425 108/108/426 116/116/427 115/115/428
f 108/108/429 109/320/430 117/319/431 116/116/432
f 109/109/433 110/110/434 118/118/435 117/117/436
f 110/110/437 111/111/438 119/119/439 118/118/440
f 111/111/441 112/112/442 120/120/443 119/119/444
f 112/112/445 105/106/446 113/114/447 120/120/448
f 113/114/449 114/113/450 122/121/451 121/122/452
f 114/113/453 115/115/454 123/123/455 122/121/456
f 115/115/457 116/116/458 124/124/459 123/123/460
f 116/116/461 117/319/462 125/318/463 124/124/464
f 117/117/465 118/118/466 126/126/467 125/125/468
f 118/118/469 119/119/470 127/127/471 126/126/472
f 119/119/473 120/120/474 128/128/475 127/127/476
f 120/120/477 113/114/478 121/122/479 128/128/480
f 121/122/481 122/121/482 130/129/483 129/130/484
f 122/121/485 123/123/486 131/131/487 130/129/488
f 123/123/489 124/124/490 132/132/491 131/131/492
f 124/124/493 125/318/494 133/317/495 132/132/496
f 125/125/497 126/126/498 134/134/499 133/133/500
f 126/126/501 127/127/502 135/135/503 134/134/504
f 127/127/505 128/128/506 136/136/507 135/135/508
f 128/128/509 121/122/510 129/130/511 136/136/512
f 129/130/513 130/129/514 138/137/515 137/138/516
f 130/129/517 131/131/518 139/139/519 138/137/520
f 131/131/521 132/132/522 140/140/523 139/139/524
f 132/132/525 133/317/526 141/316/527 140/140/528
f 133/133/529 134/134/530 142/142/531 141/141/532
f 134/134/533 135/135/534 143/143/535 142/142/536
f 135/135/537 136/136/538 144/144/539 143/143/540
f 136/136/541 129/130/542 137/138/543 144/144/544
f 137/138/545 138/137/546 146/145/547 145/146/548
f 138/137/549 139/139/550 147/147/551 146/145/552
f 139/139/553 140/140/554 148/148/555 147/147/556
f 140/140/557 141/316/558 149/315/559 148/148/560
f 141/141/561 142/142/562 150/150/563 149/149/564
f 142/142/565 143/143/566 151/151/567 150/150/568
f 143/143/569 144/144/570 152/152/571 151/151/572
f 144/144/573 137/138/574 145/146/575 152/152/576
f 145/146/577 146/145/578 154/153/579 153/154/580
f 146/145/581 147/147/582 155/155/583 154/153/584
f 147/147/585 148/148/586 156/156/587 155/155/588
f 148/148/589 149/315/590 157/314/591 156/156/592
f 149/149/593 150/150/594 158/158/595 157/157/596
f 150/150/597 151/151/598 159/159/599 158/158/600
f 151/151/601 152/152/602 160/160/603 159/159/604
f 152/152/605 145/146/606 153/154/607 160/160/608
f 153/154/609 154/153/610 162/161/611 161/162/612
f 154/153/613 155/155/614 163/163/615 162/161/616
f 155/155/617 156/156/618 164/164/619 163/163/620
f 156/156/621 157/314/622 165/313/623 164/164/624
f 157/157/625 158/158/626 166/166/627 165/165/628
f 158/158/629 159/159/630 167/167/631 166/166/632
f 159/159/633 160/160/634 168/168/635 167/167/636
f 160/160/637 153/154/638 161/162/639 168/168/640
f 161/162/641 162/161/642 170/169/643 169/170/644
f 162/161/645 163/163/646 171/171/647 170/169/648
f 163/163/649 164/164/650 172/172/651 171/171/652
f 164/164/653 165/313/654 173/312/655 172/172/656
f 165/165/657 166/166/658 174/174/659 173/173/660
f 166/166/661 167/167/662 175/175/663 174/174/664
f 167/167/665 168/168/666 176/176/667 175/175/668
f 168/168/669 161/162/670 169/170/671 176/176/672
f 169/170/673 170/169/674 178/177/675 177/178/676
f 170/169/677 171/171/678 179/179/679 178/177/680
f 171/171/681 172/172/682 180/180/683 179/179/684
f 172/172/685 173/312/686 181/311/687 180/180/688
f 173/173/689 174/174/690 182/182/691 181/181/692
f 174/174/693 175/175/694 183/183/695 182/182/696
f 175/175/697 176/176/698 184/184/699 183/183/700
f 176/176/701 169/170/702 177/178/703 184/184/704
f 177/178/705 178/177/706 186/185/707 185/186/708
f 178/177/709 179/179/710 187/187/711 186/185/712
f 179/179/713 180/180/714 188/188/715 187/187/716
f 180/180/717 181/311/718 189/310/719 188/188/720
f 181/181/721 182/182/722 190/190/723 189/189/724
f 182/182/725 183/183/726 191/191/727 190/190/728
f 183/183/729 184/184/730 192/192/731 191/191/732
f 184/184/733 177/178/734 185/186/735 192/192/736
f 185/186/737 186/185/738 194/193/739 193/194/740
f 186/185/741 187/187/742 195/195/743 194/193/744
f 187/187/745 188/188/746 196/196/747 195/195/748
f 188/188/749 189/310/750 197/309/751 196/196/752
f 189/189/753 190/190/754 198/198/755 197/197/756
f 190/190/757 191/191/758 199/199/759 198/198/760
f 191/191/761 192/192/762 200/200/763 199/199/764
f 192/192/765 185/186/766 193/194/767 200/200/768
f 193/194/769 194/193/770 202/201/771 201/202/772
f 194/193/773 195/195/774 203/203/775 202/201/776
f 195/195/777 196/196/778 204/204/779 203/203/780
f 196/196/781 197/309/782 205/308/783 204/204/784
f 197/197/785 198/198/786 206/206/787 205/205/788
f 198/198/789 199/199/790 207/207/791 206/206/792
f 199/199/793 200/200/794 208/208/795 207/207/796
f 200/200/797 193/194/798 201/202/799 208/208/800
f 201/202/801 202/201/802 210/209/803 209/210/804
f 202/201/805 203/203/806 211/211/807 210/209/808
f 203/203/809 204/204/810 212/212/811 211/211/812
f 204/204/813 205/308/814 213/307/815 212/212/816
f 205/205/817 206/206/818 214/214/819 213/213/820
f 206/206/821 207/207/822 215/215/823 214/214/824
f 207/207/825 208/208/826 216/216/827 215/215/828
f 208/208/829 201/202/830 209/210/831 216/216/832
f 209/210/833 210/209/834 218/217/835 217/218/836
f 210/209/837 211/211/838 219/219/839 218/217/840
f 211/211/841 212/212/842 220/220/843 219/219/844
f 212/212/845 213/307/846 221/306/847 220/220/848
f 213/213/849 214/214/850 222/222/851 221/221/852
f 214/214/853 215/215/854 223/223/855 222/222/856
f 215/215/857 216/216/858 224/224/859 223/223/860
f 216/216/861 209/210/862 217/218/863 224/224/864
f 217/218/865 218/217/866 226/225/867 225/226/868
f 218/217/869 219/219/870 227/227/871 226/225/872
f 219/219/873 220/220/874 228/228/875 227/227/876
f 220/220/877 221/306/878 229/305/879 228/228/880
f 221/221/881 222/222/882 230/230/883 229/229/884
f 222/222/885 223/223/886 231/231/887 230/230/888
f 223/223/889 224/224/890 232/232/891 231/231/892
f 224/224/893 217/218/894 225/226/895 232/232/896
f 225/226/897 226/225/898 234/233/899 233/234/900
f 226/225/901 227/227/902 235/235/903 234/233/904
f 227/227/905 228/228/906 236/236/907 235/235/908
f 228/228/909 229/305/910 237/304/911 236/236/912
f 229/229/913 230/230/914 238/238/915 237/237/916
f 230/230/917 231/231/918 239/239/919 238/238/920
f 231/231/921 232/232/922 240/240/923 239/239/924
f 232/232/925 225/226/926 233/234/927 240/240/928
f 233/234/929 234/233/930 242/241/931 241/242/932
f 234/233/933 235/235/934 243/243/935 242/241/936
f 235/235/937 236/236/938 244/244/939 243/243/940
f 236/236/941 237/304/942 245/303/943 244/244/944
f 237/237/945 238/238/946 246/246/947 245/245/948
f 238/238/949 239/239/950 247/247/951 246/246/952
f 239/239/953 240/240/954 248/248/955 247/247/956
f 240/240/957 233/234/958 241/242/959 248/248/960
f 241/242/961 242/241/962 250/249/963 249/250/964
f 242/241/965 243/243/966 251/251/967 250/249/968
f 243/243/969 244/244/970 252/252/971 251/251/972
f 244/244/973 245/303/974 253/302/975 252/252/976
f 245/245/977 246/246/978 254/254/979 253/253/980
f 246/246/981 247/247/982 255/255/983 254/254/984
f 247/247/985 248/248/986 256/256/987 255/255/988
f 248/248/989 241/242/990 249/250/991 256/256/992
f 249/250/993 250/249/994 258/257/995 257/258/996
f 250/249/997 251/251/998 259/259/999 258/257/1000
f 251/251/1001 252/252/1002 260/260/1003 259/259/1004
f 252/252/1005 253/302/1006 261/301/1007 260/260/1008
f 253/253/1009 254/254/1010 262/262/1011 261/261/1012
f 254/254/1013 255/255/1014 263/263/1015 262/262/1016
f 255/255/1017 256/256/1018 264/264/1019 263/263/1020
f 256/256/1021 249/250/1022 257/258/1023 264/264/1024
f 257/258/1025 258/257/1026 266/265/1027 265/266/1028
f 258/257/1029 259/259/1030 267/267/1031 266/265/1032
f 259/259/1033 260/260/1034 268/268/1035 267/267/1036
f 260/260/1037 261/301/1038 269/300/1039 268/268/1040
f 261/261/1041 262/262/1042 270/270/1043 269/269/1044
f 262/262/1045 263/263/1046 271/271/1047 270/270/1048
f 263/263/1049 264/264/1050 272/272/1051 271/271/1052
f 264/264/1053 257/258/1054 265/266/1055 272/272/1056
f 265/266/1057 266/265/1058 274/273/1059 273/274/1060
f 266/265/1061 267/267/1062 275/275/1063 274/273/1064
f 267/267/1065 268/268/1066 276/276/1067 275/275/1068
f 268/268/1069 269/300/1070 277/299/1071 276/276/1072
f 269/269/1073 270/270/1074 278/278/1075 277/277/1076
f 270/270/1077 271/271/1078 279/279/1079 278/278/1080
f 271/271/1081 272/272/1082 280/280/1083 279/279/1084
f 272/272/1085 265/266/1086 273/274/1087 280/280/1088
f 273/274/1089 274/273/1090 282/281/1091 281/282/1092
f 274/273/1093 275/275/1094 283/283/1095 282/281/1096
f 275/275/1097 276/276/1098 284/284/1099 283/283/1100
f 276/276/1101 277/299/1102 285/297/1103 284/284/1104
f 277/277/1105 278/278/1106 286/286/1107 285/285/1108
f 278/278/1109 279/279/1110 287/287/1111 286/286/1112
f 279/279/1113 280/280/1114 288/288/1115 287/287/1116
f 280/280/1117 273/274/1118 281/282/1119 288/288/1120
f 281/282/1121 282/281/1122 290/289/1123 289/290/1124
f 282/281/1125 283/283/1126 291/291/1127 290/289/1128
f 283/283/1129 284/284/1130 292/292/1131 291/291/1132
f 284/284/1133 285/297/1134 293/298/1135 292/292/1136
f 285/285/1137 286/286/1138 294/294/1139 293/293/1140
f 286/286/1141 287/287/1142 295/295/1143 294/294/1144
f 287/287/1145 288/288/1146 296/296/1147 295/295/1148
f 288/288/1149 281/282/1150 289/290/1151 296/296/1152
