# This file uses centimeters as units for non-parametric coordinates.

mtllib S_P24_01.mtl
g default
v -68.242775 47.644260 29.311474
v -69.252098 47.644260 29.311474
v -69.252098 46.930565 28.597776
v -68.242775 46.930565 28.597776
v -68.747437 52.376270 28.583792
v -69.437439 52.176327 29.283602
v -69.290421 51.146030 29.311474
v -68.238098 50.968708 29.311474
v -68.060211 51.689018 28.624249
v -77.012383 50.635578 29.311474
v -76.165047 51.184361 29.311474
v -76.817848 52.193066 29.282644
v -77.665154 51.644749 29.282644
v -74.258652 46.384453 28.600693
v -73.417206 46.930569 28.603609
v -73.873589 47.647133 29.311474
v -74.724358 47.096573 29.311474
v -68.747437 60.272743 24.308359
v -69.461136 60.932297 24.625984
v -69.461136 61.751930 21.034927
v -68.747437 61.038235 20.954514
v -83.003616 61.751934 21.034927
v -83.850983 61.203579 21.034927
v -82.473206 60.932301 24.625984
v -83.320572 60.383945 24.625984
v -69.461136 55.317085 29.103962
v -68.747437 55.134983 28.399515
v -78.839447 55.317089 29.103962
v -79.686813 54.768734 29.103962
v -68.747437 58.179302 26.933455
v -69.461136 58.635727 27.505795
v -80.987030 58.635731 27.505795
v -81.834396 58.087376 27.505795
v -69.461136 61.751930 -21.034920
v -68.747437 61.038235 -20.954506
v -68.242775 46.930565 -28.597776
v -69.252098 46.930565 -28.597776
v -69.252098 47.644260 -29.311474
v -68.242775 47.644260 -29.311474
v -74.724358 47.096573 -29.311474
v -73.873024 47.650002 -29.311474
v -73.414749 46.930569 -28.600693
v -74.258652 46.384453 -28.600693
v -83.003616 61.751934 -21.034920
v -83.850983 61.203579 -21.034920
v -94.838020 0.558893 28.584064
v -95.537018 0.692301 29.311476
v -95.701675 0.000000 28.584064
v -100.287598 0.000000 28.633358
v -99.407364 0.733271 29.311474
v -100.534958 0.726378 29.282469
v -104.097618 0.000000 28.325462
v -103.947639 0.745405 29.103958
v -69.461136 60.932297 -24.625984
v -68.747437 60.272743 -24.308359
v -82.473206 60.932301 -24.625984
v -83.320572 60.383945 -24.625984
v -107.395515 0.000000 26.790817
v -107.565605 0.789830 27.505795
v -109.598351 0.000000 24.187050
v -110.067184 0.825347 24.625984
v -69.461136 58.635727 -27.505791
v -68.747437 58.179302 -26.933451
v -80.987030 58.635731 -27.505791
v -81.834396 58.087376 -27.505791
v -110.407417 0.000000 20.920483
v -110.956940 0.844770 21.034924
v -69.461136 55.317085 -29.103962
v -68.747437 55.134983 -28.399515
v -78.839447 55.317089 -29.103962
v -79.686813 54.768734 -29.103962
v -68.060211 51.689018 -28.624249
v -68.259560 50.999050 -29.311474
v -69.290413 51.146046 -29.311474
v -69.467751 52.197731 -29.282377
v -68.747437 52.376270 -28.583792
v -77.665154 51.644749 -29.282644
v -76.817825 52.193100 -29.282642
v -76.164665 51.184155 -29.311474
v -77.012383 50.635578 -29.311474
v -95.537018 0.692301 -29.311474
v -94.840393 0.553624 -28.590919
v -95.695900 0.000000 -28.590919
v -100.534958 0.726378 -29.282467
v -99.395485 0.742968 -29.311472
v -100.287598 0.000000 -28.633356
v -110.413124 0.000000 -20.921177
v -110.956947 0.844770 -21.034916
v -109.635986 0.000000 -24.206730
v -110.067184 0.825347 -24.625984
v -107.434212 0.000000 -26.843534
v -107.565605 0.789830 -27.505791
v -103.947639 0.745405 -29.103958
v -104.097618 0.000000 -28.325462
v -55.627453 50.975327 -28.597776
v -56.341148 50.975327 -29.311474
v -56.341148 51.689022 -28.597776
v -56.341148 46.930561 -28.597776
v -56.341148 47.644257 -29.311474
v -55.627453 47.644257 -28.597776
v -55.627453 50.975327 28.597775
v -56.341148 51.689022 28.597775
v -56.341148 50.975327 29.311472
v -55.627453 47.644257 28.597775
v -56.341148 47.644257 29.311472
v -56.341148 46.930561 28.597775
v 68.242775 47.644260 29.311474
v 69.252098 47.644260 29.311474
v 69.252098 46.930565 28.597776
v 68.242775 46.930565 28.597776
v 68.747437 52.376270 28.583792
v 69.437439 52.176327 29.283602
v 69.290421 51.146030 29.311474
v 68.238098 50.968708 29.311474
v 68.060211 51.689018 28.624249
v 77.012383 50.635578 29.311474
v 76.165047 51.184361 29.311474
v 76.817848 52.193066 29.282644
v 77.665154 51.644749 29.282644
v 74.258652 46.384453 28.600693
v 73.417206 46.930569 28.603609
v 73.873589 47.647133 29.311474
v 74.724358 47.096573 29.311474
v 68.747437 60.272743 24.308359
v 69.461136 60.932297 24.625984
v 69.461136 61.751930 21.034927
v 68.747437 61.038235 20.954514
v 83.003616 61.751934 21.034927
v 83.850983 61.203579 21.034927
v 82.473206 60.932301 24.625984
v 83.320572 60.383945 24.625984
v 69.461136 55.317085 29.103962
v 68.747437 55.134983 28.399515
v 78.839447 55.317089 29.103962
v 79.686813 54.768734 29.103962
v 68.747437 58.179302 26.933455
v 69.461136 58.635727 27.505795
v 80.987030 58.635731 27.505795
v 81.834396 58.087376 27.505795
v 69.461136 61.751930 -21.034920
v 68.747437 61.038235 -20.954506
v 68.242775 46.930565 -28.597776
v 69.252098 46.930565 -28.597776
v 69.252098 47.644260 -29.311474
v 68.242775 47.644260 -29.311474
v 74.724358 47.096573 -29.311474
v 73.873024 47.650002 -29.311474
v 73.414749 46.930569 -28.600693
v 74.258652 46.384453 -28.600693
v 83.003616 61.751934 -21.034920
v 83.850983 61.203579 -21.034920
v 94.838020 0.558893 28.584064
v 95.537018 0.692301 29.311476
v 95.701675 0.000000 28.584064
v 100.287598 -0.000000 28.633358
v 99.407364 0.733271 29.311474
v 100.534958 0.726378 29.282469
v 104.097618 0.000000 28.325462
v 103.947639 0.745405 29.103958
v 69.461136 60.932297 -24.625984
v 68.747437 60.272743 -24.308359
v 82.473206 60.932301 -24.625984
v 83.320572 60.383945 -24.625984
v 107.395515 -0.000000 26.790817
v 107.565605 0.789830 27.505795
v 109.598351 -0.000000 24.187050
v 110.067184 0.825347 24.625984
v 69.461136 58.635727 -27.505791
v 68.747437 58.179302 -26.933451
v 80.987030 58.635731 -27.505791
v 81.834396 58.087376 -27.505791
v 110.407417 0.000000 20.920483
v 110.956940 0.844770 21.034924
v 69.461136 55.317085 -29.103962
v 68.747437 55.134983 -28.399515
v 78.839447 55.317089 -29.103962
v 79.686813 54.768734 -29.103962
v 68.060211 51.689018 -28.624249
v 68.259560 50.999050 -29.311474
v 69.290413 51.146046 -29.311474
v 69.467751 52.197731 -29.282377
v 68.747437 52.376270 -28.583792
v 77.665154 51.644749 -29.282644
v 76.817825 52.193100 -29.282642
v 76.164665 51.184155 -29.311474
v 77.012383 50.635578 -29.311474
v 95.537018 0.692301 -29.311474
v 94.840393 0.553624 -28.590919
v 95.695900 -0.000000 -28.590919
v 100.534958 0.726378 -29.282467
v 99.395485 0.742968 -29.311472
v 100.287598 -0.000000 -28.633356
v 110.413124 -0.000000 -20.921177
v 110.956947 0.844770 -21.034916
v 109.635986 0.000000 -24.206730
v 110.067184 0.825347 -24.625984
v 107.434212 0.000000 -26.843534
v 107.565605 0.789830 -27.505791
v 103.947639 0.745405 -29.103958
v 104.097618 -0.000000 -28.325462
v 55.627453 50.975327 -28.597776
v 56.341148 50.975327 -29.311474
v 56.341148 51.689022 -28.597776
v 56.341148 46.930561 -28.597776
v 56.341148 47.644257 -29.311474
v 55.627453 47.644257 -28.597776
v 55.627453 50.975327 28.597775
v 56.341148 51.689022 28.597775
v 56.341148 50.975327 29.311472
v 55.627453 47.644257 28.597775
v 56.341148 47.644257 29.311472
v 56.341148 46.930561 28.597775
v -67.326630 52.333347 29.099762
v -68.374405 52.333347 28.051954
v -68.374405 53.521957 28.051954
v -67.326630 53.730381 29.099762
v 68.374405 52.333347 28.051954
v 67.326630 52.333347 29.099762
v 68.374405 53.521957 28.051954
v 67.326630 53.730381 29.099762
v -68.374405 52.333347 -28.051954
v -67.326630 52.333347 -29.099762
v -67.326630 53.730381 -29.099762
v -68.374405 53.521957 -28.051954
v 67.326630 52.333347 -29.099762
v 68.374405 52.333347 -28.051954
v 68.374405 53.521957 -28.051954
v 67.326630 53.730381 -29.099762
v -68.374405 59.655319 21.918592
v -67.326630 60.703133 22.127016
v -67.326630 58.660851 27.057491
v -68.374405 57.858887 26.255533
v 67.326630 60.703133 22.127016
v 68.374405 59.655319 21.918592
v 67.326630 58.660851 27.057491
v 68.374405 57.858887 26.255533
v -67.326630 58.660851 -27.057491
v -68.374405 57.858887 -26.255533
v 67.326630 58.660851 -27.057491
v 68.374405 57.858887 -26.255533
v -67.326630 60.703133 -22.127016
v -68.374405 59.655319 -21.918592
v 68.374405 59.655319 -21.918592
v 67.326630 60.703133 -22.127016
v -68.374405 59.655319 -1.904315
v -67.326630 60.703133 -0.856508
v -67.326630 52.333347 -0.856495
v -68.374405 52.333347 -1.904304
v -67.326630 60.703133 0.856508
v -68.374405 59.655319 1.904318
v -68.374405 52.333347 1.904330
v -67.326630 52.333347 0.856521
v -68.374405 59.655319 -16.893055
v -67.326630 60.703133 -15.845249
v -67.326630 52.333347 -15.845240
v -68.374405 52.924667 -16.893051
v -68.374405 52.333347 -16.893051
v -67.326630 60.703133 -14.132237
v -68.374405 59.655319 -13.084430
v -68.374405 52.333347 -13.084420
v -67.326630 52.333347 -14.132228
v -68.374405 59.655319 13.084428
v -67.326630 60.703133 14.132237
v -67.326630 52.333347 14.132210
v -68.374405 52.333347 13.084402
v -67.326630 60.703133 15.845249
v -68.374405 59.655319 16.893053
v -68.374405 52.333347 16.893032
v -68.374405 52.924667 16.893032
v -67.326630 52.333347 15.845219
v 68.374405 59.655319 16.893053
v 67.326630 60.703133 15.845249
v 67.326630 52.333347 15.845219
v 68.374405 52.924667 16.893032
v 68.374405 52.333347 16.893032
v 67.326630 60.703133 14.132237
v 68.374405 59.655319 13.084428
v 68.374405 52.333347 13.084402
v 67.326630 52.333347 14.132210
v 68.374405 59.655319 1.904318
v 67.326630 60.703133 0.856508
v 67.326630 52.333347 0.856521
v 68.374405 52.333347 1.904330
v 67.326630 60.703133 -0.856508
v 68.374405 59.655319 -1.904315
v 68.374405 52.333347 -1.904304
v 67.326630 52.333347 -0.856495
v 68.374405 59.655319 -13.084430
v 67.326630 60.703133 -14.132237
v 67.326630 52.333347 -14.132228
v 68.374405 52.333347 -13.084420
v 67.326630 60.703133 -15.845249
v 68.374405 59.655319 -16.893055
v 68.374405 52.333347 -16.893051
v 68.374405 52.924667 -16.893051
v 67.326630 52.333347 -15.845240
vt 0.528178 0.906623
vt 0.534347 0.907107
vt 0.528656 0.979947
vt 0.522562 0.979260
vt 0.528700 0.900442
vt 0.507799 0.905085
vt 0.507304 0.898323
vt 0.534876 0.901002
vt 0.531133 0.871994
vt 0.218506 0.769903
vt 0.082413 0.445239
vt 0.501699 0.905900
vt 0.088359 0.444992
vt 0.078342 0.902076
vt 0.501091 0.896759
vt 0.088323 0.795269
vt 0.482535 0.894656
vt 0.504350 0.851355
vt 0.518409 0.389702
vt 0.502426 0.977762
vt 0.496300 0.977542
vt 0.515016 0.384504
vt 0.508816 0.388526
vt 0.507112 0.046708
vt 0.513413 0.049533
vt 0.536745 0.370384
vt 0.485623 0.837586
vt 0.489584 0.400957
vt 0.218524 0.763765
vt 0.535194 0.058911
vt 0.568512 0.763737
vt 0.568513 0.769887
vt 0.039736 0.875351
vt 0.082376 0.795021
vt 0.439112 0.892855
vt 0.460903 0.893451
vt 0.460654 0.899599
vt 0.166202 0.795115
vt 0.417147 0.892673
vt 0.160026 0.795114
vt 0.159788 0.892620
vt 0.417629 0.809761
vt 0.421725 0.426548
vt 0.444342 0.423263
vt 0.440537 0.813442
vt 0.159343 0.809693
vt 0.163584 0.426532
vt 0.466950 0.414138
vt 0.463240 0.823291
vt 0.160063 0.445161
vt 0.137819 0.892801
vt 0.042520 0.907116
vt 0.048692 0.906617
vt 0.054495 0.979278
vt 0.166238 0.445162
vt 0.048161 0.900426
vt 0.041974 0.900991
vt 0.045661 0.375819
vt 0.069574 0.898286
vt 0.069261 0.904894
vt 0.048931 0.370471
vt 0.218600 0.456404
vt 0.050038 0.059348
vt 0.070611 0.384555
vt 0.067252 0.389742
vt 0.136424 0.813352
vt 0.141058 0.423243
vt 0.537211 0.053096
vt 0.218600 0.450110
vt 0.510779 0.041530
vt 0.487924 0.038428
vt 0.488221 0.031663
vt 0.465457 0.029771
vt 0.465535 0.023052
vt 0.192759 0.795118
vt 0.116013 0.893396
vt 0.113702 0.823189
vt 0.118534 0.414129
vt 0.443082 0.023812
vt 0.443127 0.017297
vt 0.420705 0.021752
vt 0.420125 0.015573
vt 0.186583 0.795117
vt 0.094368 0.894599
vt 0.091291 0.837485
vt 0.095973 0.400972
vt 0.164159 0.022018
vt 0.164700 0.015862
vt 0.075917 0.896518
vt 0.072540 0.851264
vt 0.076796 0.388568
vt 0.186619 0.445164
vt 0.074636 0.977726
vt 0.071703 0.050039
vt 0.078023 0.047124
vt 0.074369 0.041974
vt 0.096834 0.032095
vt 0.097145 0.038821
vt 0.141849 0.024121
vt 0.141833 0.017786
vt 0.119539 0.030120
vt 0.119502 0.023668
vt 0.192795 0.445164
vt 0.501343 0.983798
vt 0.065497 0.793891
vt 0.046871 0.784919
vt 0.537093 0.875389
vt 0.510325 0.855907
vt 0.540050 0.375732
vt 0.512233 0.393762
vt 0.421804 0.432754
vt 0.446017 0.429349
vt 0.469667 0.419779
vt 0.492838 0.406308
vt 0.039875 0.372745
vt 0.045727 0.871935
vt 0.163475 0.432736
vt 0.139399 0.429296
vt 0.115844 0.419749
vt 0.092756 0.406305
vt 0.073415 0.393791
vt 0.066552 0.855822
vt 0.498567 0.902173
vt 0.065533 0.446364
vt 0.439018 0.899074
vt 0.416737 0.898858
vt 0.046905 0.455332
vt 0.481972 0.900656
vt 0.160194 0.898805
vt 0.137912 0.899025
vt 0.116263 0.899548
vt 0.034095 0.471393
vt 0.094925 0.900598
vt 0.075228 0.905840
vt 0.080764 0.977493
vt 0.029409 0.491913
vt 0.075736 0.983762
vt 0.054328 0.985412
vt 0.048399 0.979982
vt 0.029382 0.748335
vt 0.034064 0.768856
vt 0.522745 0.985391
vt 0.542940 0.367527
vt 0.545807 0.372698
vt 0.568428 0.456340
vt 0.042752 0.367624
vt 0.568427 0.450105
vt 0.541360 0.059840
vt 0.043923 0.060250
vt 0.048003 0.053582
vt 0.528178 0.906627
vt 0.534347 0.907110
vt 0.528655 0.979950
vt 0.522561 0.979264
vt 0.528700 0.900446
vt 0.507798 0.905089
vt 0.507304 0.898326
vt 0.534876 0.901005
vt 0.531133 0.871998
vt 0.537093 0.875393
vt 0.082416 0.445239
vt 0.088362 0.444992
vt 0.088319 0.795269
vt 0.082372 0.795021
vt 0.501091 0.896762
vt 0.498567 0.902176
vt 0.481972 0.900659
vt 0.482535 0.894660
vt 0.504351 0.851359
vt 0.510325 0.855911
vt 0.501699 0.905904
vt 0.502425 0.977766
vt 0.496299 0.977546
vt 0.515016 0.384504
vt 0.508816 0.388526
vt 0.507113 0.046708
vt 0.513413 0.049533
vt 0.518409 0.389702
vt 0.536745 0.370384
vt 0.540050 0.375732
vt 0.512233 0.393762
vt 0.492838 0.406308
vt 0.489584 0.400957
vt 0.542940 0.367527
vt 0.535194 0.058911
vt 0.541360 0.059840
vt 0.218506 0.769903
vt 0.218524 0.763765
vt 0.568512 0.763737
vt 0.568513 0.769887
vt 0.439018 0.899077
vt 0.439112 0.892857
vt 0.460903 0.893454
vt 0.460654 0.899602
vt 0.416737 0.898860
vt 0.417147 0.892676
vt 0.160194 0.898806
vt 0.159787 0.892620
vt 0.421804 0.432754
vt 0.421725 0.426548
vt 0.444342 0.423263
vt 0.446017 0.429349
vt 0.163475 0.432736
vt 0.163584 0.426532
vt 0.466950 0.414138
vt 0.469667 0.419779
vt 0.137911 0.899025
vt 0.137819 0.892802
vt 0.042520 0.907115
vt 0.048692 0.906617
vt 0.054494 0.979278
vt 0.048398 0.979981
vt 0.048161 0.900425
vt 0.041974 0.900991
vt 0.039736 0.875351
vt 0.045728 0.871934
vt 0.069574 0.898285
vt 0.069261 0.904893
vt 0.048931 0.370471
vt 0.042752 0.367624
vt 0.043923 0.060250
vt 0.050038 0.059348
vt 0.045661 0.375819
vt 0.070611 0.384555
vt 0.067252 0.389742
vt 0.139399 0.429296
vt 0.141058 0.423243
vt 0.218600 0.456404
vt 0.218600 0.450110
vt 0.568427 0.450105
vt 0.568428 0.456340
vt 0.537211 0.053096
vt 0.510779 0.041530
vt 0.487924 0.038428
vt 0.488221 0.031663
vt 0.465457 0.029771
vt 0.465535 0.023052
vt 0.116263 0.899548
vt 0.116013 0.893396
vt 0.115844 0.419749
vt 0.118534 0.414129
vt 0.443082 0.023813
vt 0.443127 0.017297
vt 0.420705 0.021752
vt 0.420125 0.015573
vt 0.094925 0.900598
vt 0.094368 0.894599
vt 0.092756 0.406305
vt 0.095973 0.400972
vt 0.164159 0.022018
vt 0.164700 0.015862
vt 0.078342 0.902076
vt 0.075916 0.896518
vt 0.073415 0.393791
vt 0.076796 0.388568
vt 0.075228 0.905840
vt 0.080763 0.977493
vt 0.074635 0.977726
vt 0.066552 0.855822
vt 0.072540 0.851264
vt 0.071703 0.050039
vt 0.078023 0.047124
vt 0.048003 0.053582
vt 0.074369 0.041974
vt 0.096834 0.032095
vt 0.097145 0.038821
vt 0.141849 0.024121
vt 0.141833 0.017786
vt 0.119538 0.030120
vt 0.119502 0.023668
vt 0.166198 0.795117
vt 0.160022 0.795116
vt 0.160066 0.445163
vt 0.166241 0.445163
vt 0.075735 0.983761
vt 0.054327 0.985412
vt 0.192755 0.795120
vt 0.186579 0.795119
vt 0.186623 0.445166
vt 0.192798 0.445167
vt 0.501342 0.983802
vt 0.522744 0.985395
vt 0.417630 0.809764
vt 0.440538 0.813445
vt 0.485624 0.837590
vt 0.463241 0.823295
vt 0.159344 0.809693
vt 0.136425 0.813352
vt 0.113702 0.823189
vt 0.091291 0.837485
vt 0.065493 0.793891
vt 0.046867 0.784919
vt 0.034060 0.768855
vt 0.029379 0.748334
vt 0.029411 0.491912
vt 0.034097 0.471392
vt 0.046908 0.455332
vt 0.065536 0.446364
vt 0.545807 0.372698
vt 0.039875 0.372745
vt 0.963739 0.923811
vt 0.973471 0.923918
vt 0.973373 0.933091
vt 0.963662 0.931617
vt 0.973093 0.934832
vt 0.957529 0.966849
vt 0.950577 0.959381
vt 0.651681 0.923688
vt 0.661413 0.923582
vt 0.661489 0.931388
vt 0.651777 0.932861
vt 0.652056 0.934602
vt 0.674568 0.959155
vt 0.667616 0.966622
vt 0.651681 0.923678
vt 0.661413 0.923574
vt 0.661488 0.931380
vt 0.651776 0.932851
vt 0.652055 0.934593
vt 0.674564 0.959148
vt 0.667611 0.966614
vt 0.963739 0.923810
vt 0.973471 0.923918
vt 0.973373 0.933090
vt 0.963662 0.931616
vt 0.973094 0.934831
vt 0.957530 0.966849
vt 0.950578 0.959381
vt 0.922657 0.971223
vt 0.924756 0.980803
vt 0.883112 0.981283
vt 0.889783 0.971438
vt 0.700386 0.980581
vt 0.702487 0.971002
vt 0.735361 0.971223
vt 0.742031 0.981068
vt 0.702482 0.970998
vt 0.700380 0.980577
vt 0.924757 0.980802
vt 0.922657 0.971223
vt 0.735355 0.971223
vt 0.742024 0.981068
vt 0.883112 0.981283
vt 0.889783 0.971439
vt 0.846394 0.971099
vt 0.853271 0.980822
vt 0.766152 0.980826
vt 0.773028 0.971102
vt 0.856118 0.977974
vt 0.846392 0.923050
vt 0.856116 0.923050
vt 0.766148 0.980820
vt 0.773025 0.971097
vt 0.846392 0.971104
vt 0.853267 0.980828
vt 0.763300 0.977972
vt 0.763306 0.923047
vt 0.773030 0.923048
vt 0.745068 0.978169
vt 0.735471 0.926588
vt 0.745207 0.922707
vt 0.763304 0.977978
vt 0.763302 0.923054
vt 0.773026 0.923054
vt 0.856115 0.977981
vt 0.846396 0.923055
vt 0.856120 0.923056
vt 0.880068 0.978382
vt 0.879945 0.922921
vt 0.889680 0.926804
vt 0.745074 0.978168
vt 0.735472 0.926588
vt 0.745207 0.922707
vt 0.766155 0.980830
vt 0.773030 0.971105
vt 0.846396 0.971096
vt 0.853273 0.980819
vt 0.763306 0.977982
vt 0.763300 0.923058
vt 0.773023 0.923057
vt 0.856121 0.977971
vt 0.846389 0.923047
vt 0.856114 0.923046
vt 0.766148 0.980819
vt 0.773025 0.971096
vt 0.846391 0.971104
vt 0.853266 0.980829
vt 0.763300 0.977971
vt 0.763306 0.923047
vt 0.773030 0.923048
vt 0.856114 0.977981
vt 0.846396 0.923056
vt 0.856120 0.923057
vt 0.880069 0.978382
vt 0.879945 0.922921
vt 0.889680 0.926805
vt 0.803482 0.018687
vt 0.812650 0.018687
vt 0.812714 0.902307
vt 0.803546 0.902307
vt 0.812613 0.902288
vt 0.803446 0.902287
vt 0.803582 0.018667
vt 0.812750 0.018668
vt 0.882691 0.018681
vt 0.882755 0.902302
vt 0.847734 0.902304
vt 0.847670 0.018684
vt 0.847771 0.018674
vt 0.847634 0.902294
vt 0.882791 0.018679
vt 0.882654 0.902299
vt 0.923876 0.902306
vt 0.924013 0.018686
vt 0.889709 0.922924
vt 0.889709 0.922923
vt 0.646742 0.902636
vt 0.646516 0.019013
vt 0.733634 0.018991
vt 0.733860 0.902614
vt 0.646563 0.019008
vt 0.733681 0.018995
vt 0.733814 0.902619
vt 0.646695 0.902632
vt 0.923913 0.018678
vt 0.923977 0.902299
vt 0.788606 0.018987
vt 0.788738 0.902611
vt 0.788559 0.018977
vt 0.788785 0.902600
vt 0.591771 0.902640
vt 0.591639 0.019017
vt 0.591818 0.902650
vt 0.591592 0.019027
vt 0.978837 0.018674
vt 0.978901 0.902295
vt 0.978937 0.018694
vt 0.978801 0.902315
vt 0.735443 0.922707
vt 0.735443 0.922707
vn 0.000000 -0.173523 0.984830
vn -0.000000 -0.707110 0.707104
vn 0.632195 -0.763200 0.133624
vn 0.049519 -0.168434 0.984468
vn 0.000039 -0.138599 0.990349
vn 0.009224 0.149403 0.988733
vn 0.000105 0.006521 0.999979
vn 0.000195 -0.705319 0.708890
vn 0.011024 -0.081809 0.996587
vn 0.512420 -0.855110 0.078822
vn 0.996457 0.083814 0.006928
vn 0.054368 0.998414 0.014599
vn 0.054351 0.998417 -0.014494
vn 0.996455 0.083833 -0.006981
vn 0.061536 0.064120 0.996043
vn 0.999982 0.001619 0.005708
vn 0.061455 0.284536 0.956693
vn -0.002498 0.051771 0.998656
vn -0.000548 0.010686 0.999943
vn 0.049732 0.164357 0.985146
vn 0.056781 0.998315 0.011949
vn -0.009995 0.004573 0.999940
vn -0.048324 0.022137 0.998586
vn -0.048320 0.009324 0.998788
vn -0.008658 -0.017292 0.999813
vn 0.085257 -0.039759 0.995565
vn -0.012997 0.330500 0.943717
vn -0.302358 0.138351 0.943101
vn 0.907709 -0.419312 0.015545
vn 0.109502 -0.059570 0.992200
vn 0.907687 -0.419437 0.013313
vn 0.907717 -0.419294 -0.015547
vn 0.512418 -0.855115 -0.078777
vn 0.999977 0.006065 0.002911
vn 0.047154 0.903684 0.425596
vn 0.052479 0.636041 0.769869
vn 0.999978 0.004174 0.005239
vn 0.999287 0.037744 0.000658
vn 0.047553 0.998714 0.017594
vn 0.999287 0.037744 -0.000658
vn 0.047553 0.998714 -0.017594
vn -0.038383 0.999124 0.016674
vn -0.908704 0.417118 0.016446
vn -0.834196 0.383495 0.396293
vn -0.038562 0.915175 0.401207
vn -0.038383 0.999124 -0.016674
vn -0.908704 0.417118 -0.016446
vn -0.615068 0.282328 0.736194
vn -0.028033 0.671791 0.740210
vn 0.999977 0.006065 -0.002911
vn 0.047154 0.903684 -0.425595
vn -0.000000 -0.707110 -0.707104
vn -0.000000 -0.172427 -0.985022
vn 0.049315 -0.167740 -0.984597
vn 0.632195 -0.763200 -0.133624
vn -0.000036 -0.139009 -0.990291
vn -0.000183 -0.705392 -0.708818
vn 0.011048 -0.081904 -0.996579
vn 0.000101 0.006556 -0.999979
vn 0.009697 0.148497 -0.988865
vn 0.084962 -0.039624 -0.995596
vn 0.907686 -0.419439 -0.013279
vn 0.109507 -0.059560 -0.992200
vn -0.009991 0.004570 -0.999940
vn -0.000530 0.010857 -0.999941
vn -0.038562 0.915175 -0.401207
vn -0.834196 0.383495 -0.396293
vn 0.517981 -0.853514 0.056649
vn 0.518099 -0.853431 -0.056820
vn -0.028120 -0.697779 0.715761
vn -0.289449 0.117064 0.950008
vn -0.210549 -0.683206 0.699213
vn -0.607330 0.259595 0.750841
vn -0.484669 -0.641370 0.594761
vn 0.999978 0.004174 -0.005239
vn 0.052479 0.636041 -0.769869
vn -0.028033 0.671790 -0.740211
vn -0.615068 0.282327 -0.736195
vn -0.837395 0.362788 0.408846
vn -0.726878 -0.590877 0.350019
vn -0.916885 0.398791 0.016951
vn -0.838261 -0.545072 0.014681
vn 0.999982 0.001608 -0.005757
vn 0.061707 0.285201 -0.956479
vn -0.013011 0.330780 -0.943618
vn -0.302359 0.138351 -0.943100
vn -0.916877 0.398810 -0.016945
vn -0.839099 -0.543792 -0.014262
vn 0.061085 0.063451 -0.996114
vn -0.002502 0.051749 -0.998657
vn -0.048304 0.022127 -0.998588
vn 0.056795 0.998317 -0.011713
vn 0.049838 0.163997 -0.985201
vn -0.008696 -0.017104 -0.999816
vn -0.048310 0.009299 -0.998789
vn -0.028337 -0.695853 -0.717625
vn -0.209106 -0.673491 -0.709003
vn -0.289401 0.117253 -0.949999
vn -0.837256 0.363224 -0.408743
vn -0.744833 -0.565530 -0.354117
vn -0.607200 0.260054 -0.750787
vn -0.497209 -0.615533 -0.611475
vn 0.984932 0.172612 -0.010726
vn 0.984932 0.172612 0.010726
vn 0.984932 -0.172612 -0.010726
vn 0.984932 -0.172612 0.010726
vn -0.000000 -0.173523 0.984830
vn -0.049519 -0.168434 0.984468
vn -0.632195 -0.763200 0.133624
vn 0.000000 -0.707110 0.707104
vn -0.000039 -0.138599 0.990349
vn -0.000105 0.006521 0.999979
vn -0.009224 0.149403 0.988733
vn -0.000195 -0.705319 0.708890
vn -0.512420 -0.855110 0.078822
vn -0.011024 -0.081809 0.996587
vn -0.996457 0.083814 0.006928
vn -0.996455 0.083833 -0.006981
vn -0.054351 0.998417 -0.014494
vn -0.054368 0.998414 0.014599
vn -0.061536 0.064120 0.996043
vn -0.061455 0.284536 0.956694
vn -0.999982 0.001619 0.005708
vn 0.000548 0.010686 0.999943
vn 0.002498 0.051771 0.998656
vn -0.056781 0.998315 0.011949
vn -0.049732 0.164357 0.985146
vn 0.009995 0.004573 0.999940
vn 0.008659 -0.017292 0.999813
vn 0.048320 0.009324 0.998788
vn 0.048324 0.022137 0.998586
vn -0.085257 -0.039759 0.995566
vn 0.302358 0.138351 0.943101
vn 0.012997 0.330500 0.943717
vn -0.907709 -0.419312 0.015545
vn -0.907687 -0.419437 0.013313
vn -0.109502 -0.059570 0.992200
vn -0.512418 -0.855115 -0.078777
vn -0.907717 -0.419294 -0.015547
vn -0.999977 0.006065 0.002911
vn -0.999978 0.004175 0.005239
vn -0.052479 0.636041 0.769869
vn -0.047154 0.903684 0.425596
vn -0.047553 0.998714 0.017594
vn -0.999287 0.037744 0.000658
vn -0.047553 0.998714 -0.017594
vn -0.999287 0.037744 -0.000658
vn 0.038383 0.999124 0.016674
vn 0.038562 0.915175 0.401207
vn 0.834196 0.383495 0.396293
vn 0.908704 0.417118 0.016446
vn 0.908704 0.417118 -0.016446
vn 0.038383 0.999124 -0.016674
vn 0.028033 0.671791 0.740210
vn 0.615068 0.282328 0.736194
vn -0.047154 0.903684 -0.425595
vn -0.999977 0.006065 -0.002911
vn 0.000000 -0.707110 -0.707104
vn -0.632195 -0.763200 -0.133624
vn -0.049315 -0.167740 -0.984597
vn 0.000000 -0.172427 -0.985022
vn 0.000036 -0.139009 -0.990291
vn -0.011048 -0.081904 -0.996579
vn 0.000184 -0.705392 -0.708818
vn -0.009697 0.148497 -0.988865
vn -0.000101 0.006556 -0.999979
vn -0.084962 -0.039624 -0.995596
vn -0.109507 -0.059560 -0.992200
vn -0.907686 -0.419439 -0.013279
vn 0.000530 0.010857 -0.999941
vn 0.009991 0.004570 -0.999940
vn 0.834196 0.383495 -0.396293
vn 0.038562 0.915175 -0.401207
vn -0.518099 -0.853431 -0.056820
vn -0.517981 -0.853514 0.056649
vn 0.028120 -0.697779 0.715761
vn 0.210549 -0.683206 0.699213
vn 0.289449 0.117064 0.950008
vn 0.484670 -0.641369 0.594761
vn 0.607329 0.259595 0.750841
vn -0.052479 0.636041 -0.769869
vn -0.999978 0.004175 -0.005239
vn 0.615068 0.282327 -0.736195
vn 0.028033 0.671790 -0.740211
vn 0.726877 -0.590878 0.350019
vn 0.837395 0.362788 0.408846
vn 0.838262 -0.545071 0.014681
vn 0.916885 0.398791 0.016951
vn -0.061707 0.285202 -0.956479
vn -0.999982 0.001608 -0.005757
vn 0.302359 0.138351 -0.943100
vn 0.013011 0.330780 -0.943618
vn 0.839100 -0.543791 -0.014262
vn 0.916877 0.398810 -0.016945
vn -0.061085 0.063451 -0.996114
vn 0.048305 0.022127 -0.998588
vn 0.002502 0.051749 -0.998657
vn -0.049838 0.163997 -0.985201
vn -0.056795 0.998317 -0.011713
vn 0.048310 0.009299 -0.998789
vn 0.008696 -0.017104 -0.999816
vn 0.028337 -0.695853 -0.717625
vn 0.289401 0.117253 -0.949999
vn 0.209106 -0.673492 -0.709002
vn 0.744833 -0.565530 -0.354118
vn 0.837256 0.363224 -0.408743
vn 0.497210 -0.615533 -0.611475
vn 0.607200 0.260054 -0.750787
vn -0.984932 0.172612 -0.010726
vn -0.984932 0.172612 0.010726
vn -0.984932 -0.172612 -0.010726
vn -0.984932 -0.172612 0.010726
vn -0.999294 0.000000 0.037580
vn -0.007149 0.000000 0.999974
vn -0.006682 0.307158 0.951635
vn -0.994560 0.032095 0.099102
vn -0.006441 0.707092 0.707092
vn -0.984860 0.122577 0.122578
vn 0.007149 0.000000 0.999974
vn 0.999294 0.000000 0.037580
vn 0.994560 0.032095 0.099102
vn 0.006682 0.307158 0.951635
vn 0.984860 0.122578 0.122578
vn 0.006441 0.707092 0.707092
vn -0.007149 0.000000 -0.999974
vn -0.999294 0.000000 -0.037580
vn -0.994560 0.032095 -0.099102
vn -0.006682 0.307158 -0.951635
vn -0.984860 0.122578 -0.122578
vn -0.006441 0.707092 -0.707092
vn 0.999294 0.000000 -0.037580
vn 0.007149 0.000000 -0.999974
vn 0.006682 0.307158 -0.951635
vn 0.994560 0.032095 -0.099102
vn 0.006441 0.707092 -0.707092
vn 0.984860 0.122578 -0.122578
vn -0.987632 0.154131 0.028757
vn -0.006594 0.983787 0.179222
vn -0.005946 0.600258 -0.799784
vn -0.970406 0.144739 -0.193292
vn 0.006594 0.983787 0.179222
vn 0.987632 0.154132 0.028757
vn 0.970406 0.144739 -0.193292
vn 0.005946 0.600258 -0.799784
vn -0.987632 0.154132 -0.028757
vn -0.006594 0.983787 -0.179222
vn 0.006594 0.983787 -0.179222
vn 0.987632 0.154132 -0.028757
vn -0.970406 0.144738 0.193293
vn -0.005946 0.600257 0.799785
vn 0.005946 0.600257 0.799785
vn 0.970406 0.144739 0.193293
vn -0.982308 0.157616 0.101133
vn -0.006027 0.845883 0.533334
vn -0.006027 0.845883 -0.533335
vn -0.982308 0.157616 -0.101133
vn -0.995862 0.000001 0.090881
vn -0.007241 0.000002 0.999974
vn -0.006027 0.845883 -0.533335
vn -0.982308 0.157617 -0.101133
vn -0.982308 0.157617 0.101133
vn -0.006027 0.845883 0.533335
vn -0.007241 -0.000002 -0.999974
vn -0.995862 0.000001 -0.090881
vn -0.992252 0.000000 0.124245
vn -0.005360 0.000001 0.999986
vn -0.007241 -0.000001 -0.999974
vn -0.995862 0.000001 -0.090881
vn -0.995862 0.000000 0.090881
vn -0.007241 -0.000003 0.999974
vn -0.005360 0.000004 -0.999986
vn -0.992252 0.000000 -0.124245
vn 0.992252 0.000001 -0.124244
vn 0.005360 0.000004 -0.999986
vn 0.006027 0.845883 0.533335
vn 0.982308 0.157617 0.101133
vn 0.982308 0.157617 -0.101133
vn 0.006027 0.845883 -0.533335
vn 0.007241 -0.000003 0.999974
vn 0.995862 0.000000 0.090881
vn 0.995862 0.000000 -0.090881
vn 0.007241 -0.000002 -0.999974
vn 0.006027 0.845883 0.533334
vn 0.982308 0.157616 0.101132
vn 0.982308 0.157616 -0.101133
vn 0.006027 0.845883 -0.533335
vn 0.007241 0.000002 0.999974
vn 0.995862 0.000001 0.090881
vn 0.995862 0.000001 -0.090881
vn 0.007241 -0.000001 -0.999974
vn 0.005360 0.000001 0.999986
vn 0.992252 0.000000 0.124244
vn -0.999961 0.000000 -0.008857
vn 0.999961 0.000000 0.008857
vn -0.999961 0.000000 0.008857
vn 0.999961 0.000000 -0.008857
s 1
g BenchLeg_low
usemtl aiStandardSurface1SG
f 1/1/1 4/2/2 106/3/3 105/4/4
f 2/5/5 1/1/1 8/6/6 7/7/7
f 3/8/8 2/5/5 16/9/9 15/107/10
f 5/11/11 9/13/12 72/16/13 76/34/14
f 6/15/15 5/123/11 27/128/16 26/17/17
f 7/7/7 6/15/15 12/18/18 11/108/19
f 9/12/12 8/6/6 103/20/20 102/21/21
f 10/22/22 13/23/23 51/24/24 50/25/25
f 11/19/19 10/22/22 17/26/26 16/109/9
f 13/23/23 12/110/18 28/114/27 29/28/28
f 14/143/29 17/26/26 47/30/30 46/148/31
f 15/10/10 14/29/29 43/31/32 42/32/33
f 18/125/34 19/35/35 31/36/36 30/37/37
f 19/35/35 18/125/34 21/126/38 20/39/39
f 20/39/39 21/126/38 35/129/40 34/41/41
f 22/111/42 23/43/43 25/44/44 24/112/45
f 23/43/43 22/111/42 44/117/46 45/47/47
f 24/112/45 25/44/44 33/48/48 32/113/49
f 26/17/17 27/128/16 30/37/37 31/36/36
f 29/28/28 28/114/27 32/113/49 33/48/48
f 34/41/41 35/129/40 55/130/50 54/51/51
f 36/52/52 39/53/53 99/54/54 98/139/55
f 38/56/56 37/57/57 42/33/33 41/116/58
f 39/53/53 38/56/56 74/59/59 73/60/60
f 40/61/61 43/146/32 82/149/62 81/63/63
f 41/58/58 40/61/61 80/64/64 79/65/65
f 45/47/47 44/117/46 56/118/66 57/67/67
f 46/62/31 48/69/68 83/147/69 82/145/62
f 48/68/68 47/30/30 50/25/25 49/70/70
f 49/70/70 51/24/24 53/71/71 52/72/72
f 52/72/72 53/71/71 59/73/73 58/74/74
f 54/51/51 55/130/50 63/131/75 62/76/76
f 57/67/67 56/118/66 64/119/77 65/78/78
f 58/74/74 59/73/73 61/79/79 60/80/80
f 60/80/80 61/79/79 67/81/81 66/82/82
f 62/76/76 63/131/75 69/133/83 68/84/84
f 65/78/78 64/119/77 70/120/85 71/86/86
f 66/82/82 67/81/81 88/87/87 87/88/88
f 68/84/84 69/133/83 76/14/14 75/89/89
f 71/86/86 70/120/85 78/121/90 77/91/91
f 73/60/60 72/134/13 97/135/92 96/93/93
f 75/89/89 74/59/59 79/122/65 78/90/90
f 77/91/91 80/64/64 85/94/94 84/95/95
f 81/63/63 83/150/69 86/96/96 85/94/94
f 84/95/95 86/96/96 94/97/97 93/98/98
f 87/88/88 88/87/87 90/99/99 89/100/100
f 89/100/100 90/99/99 92/101/101 91/102/102
f 91/102/102 92/101/101 93/98/98 94/97/97
f 95/38/103 97/40/92 102/50/21 101/55/104
f 96/93/93 95/137/103 100/138/105 99/54/54
f 98/75/55 100/83/105 104/92/106 106/103/3
f 101/104/104 103/20/20 105/4/4 104/142/106
f 2/5/5 7/7/7 11/108/19 16/9/9
f 19/35/35 20/39/39 22/42/42 24/45/45
f 6/15/15 26/17/17 28/27/27 12/18/18
f 31/36/36 19/35/35 24/45/45 32/49/49
f 26/17/17 31/36/36 32/49/49 28/27/27
f 22/42/42 20/39/39 34/41/41 44/46/46
f 47/30/30 17/26/26 10/22/22 50/25/25
f 51/24/24 13/23/23 29/28/28 53/71/71
f 53/71/71 29/28/28 33/48/48 59/73/73
f 59/73/73 33/48/48 25/44/44 61/79/79
f 61/79/79 25/44/44 23/43/43 67/81/81
f 34/41/41 54/51/51 56/66/66 44/46/46
f 54/51/51 62/76/76 64/77/77 56/66/66
f 67/81/81 23/43/43 45/47/47 88/87/87
f 62/76/76 68/84/84 70/85/85 64/77/77
f 43/31/32 14/29/29 46/62/31 82/145/62
f 68/84/84 75/89/89 78/90/90 70/85/85
f 74/59/59 38/56/56 41/116/58 79/122/65
f 40/61/61 81/63/63 85/94/94 80/64/64
f 57/67/67 90/99/99 88/87/87 45/47/47
f 77/91/91 84/95/95 93/98/98 71/86/86
f 65/78/78 92/101/101 90/99/99 57/67/67
f 71/86/86 93/98/98 92/101/101 65/78/78
f 102/50/21 97/40/92 72/16/13 9/13/12
f 5/11/11 76/34/14 69/105/83 63/106/75 55/141/50 35/140/40 21/136/38 18/132/34 30/127/37 27/124/16
f 1/1/1 105/4/4 103/20/20 8/6/6
f 96/93/93 99/54/54 39/53/53 73/60/60
f 104/92/106 100/83/105 95/38/103 101/55/104
f 1/1/1 2/5/5 3/8/8 4/2/2
f 5/123/11 6/15/15 8/6/6 9/12/12
f 10/22/22 11/19/19 12/110/18 13/23/23
f 14/143/29 15/144/10 16/109/9 17/26/26
f 36/52/52 37/57/57 38/56/56 39/53/53
f 40/61/61 41/58/58 42/115/33 43/146/32
f 46/148/31 47/30/30 48/68/68
f 49/70/70 50/25/25 51/24/24
f 75/89/89 73/60/60 74/59/59
f 77/91/91 78/121/90 79/65/65 80/64/64
f 81/63/63 82/149/62 83/150/69
f 84/95/95 85/94/94 86/96/96
f 95/137/103 96/93/93 97/135/92
f 98/139/55 99/54/54 100/138/105
f 101/104/104 102/21/21 103/20/20
f 104/142/106 105/4/4 106/3/3
f 8/6/6 6/15/15 7/7/7
f 72/134/13 73/60/60 75/89/89 76/14/14
s 6
f 107/151/107 211/154/108 212/153/109 110/152/110
f 108/155/111 113/157/112 114/156/113 107/151/107
f 109/158/114 121/160/115 122/159/116 108/155/111
f 111/161/117 182/164/118 178/163/119 115/162/120
f 112/165/121 132/168/122 133/167/123 111/166/117
f 113/157/112 117/170/124 118/169/125 112/165/121
f 115/171/120 208/173/126 209/172/127 114/156/113
f 116/174/128 156/177/129 157/176/130 119/175/131
f 117/178/124 122/180/116 123/179/132 116/174/128
f 119/175/131 135/183/133 134/182/134 118/181/125
f 120/184/135 152/186/136 153/185/137 123/179/132
f 121/187/115 148/190/138 149/189/139 120/188/135
f 124/191/140 136/194/141 137/193/142 125/192/143
f 125/192/143 126/196/144 127/195/145 124/191/140
f 126/196/144 140/198/146 141/197/147 127/195/145
f 128/199/148 130/202/149 131/201/150 129/200/151
f 129/200/151 151/204/152 150/203/153 128/199/148
f 130/202/149 138/206/154 139/205/155 131/201/150
f 132/168/122 137/193/142 136/194/141 133/167/123
f 135/183/133 139/205/155 138/206/154 134/182/134
f 140/198/146 160/208/156 161/207/157 141/197/147
f 142/209/158 204/212/159 205/211/160 145/210/161
f 144/213/162 147/216/163 148/215/138 143/214/164
f 145/210/161 179/218/165 180/217/166 144/213/162
f 146/219/167 187/222/168 188/221/169 149/220/139
f 147/223/163 185/225/170 186/224/171 146/219/167
f 151/204/152 163/227/172 162/226/173 150/203/153
f 152/228/136 188/231/169 189/230/174 154/229/175
f 154/232/175 155/233/176 156/177/129 153/185/137
f 155/233/176 158/235/177 159/234/178 157/176/130
f 158/235/177 164/237/179 165/236/180 159/234/178
f 160/208/156 168/239/181 169/238/182 161/207/157
f 163/227/172 171/241/183 170/240/184 162/226/173
f 164/237/179 166/243/185 167/242/186 165/236/180
f 166/243/185 172/245/187 173/244/188 167/242/186
f 168/239/181 174/247/189 175/246/190 169/238/182
f 171/241/183 177/249/191 176/248/192 170/240/184
f 172/245/187 193/251/193 194/250/194 173/244/188
f 174/247/189 181/253/195 182/252/118 175/246/190
f 177/249/191 183/255/196 184/254/197 176/248/192
f 179/218/165 202/258/198 203/257/199 178/256/119
f 181/253/195 184/260/197 185/259/170 180/217/166
f 183/255/196 190/262/200 191/261/201 186/224/171
f 187/222/168 191/261/201 192/264/202 189/263/174
f 190/262/200 199/266/203 200/265/204 192/264/202
f 193/251/193 195/268/205 196/267/206 194/250/194
f 195/268/205 197/270/207 198/269/208 196/267/206
f 197/270/207 200/265/204 199/266/203 198/269/208
f 201/271/209 207/274/210 208/273/126 203/272/199
f 202/258/198 205/211/160 206/276/211 201/275/209
f 204/277/159 212/280/109 210/279/212 206/278/211
f 207/281/210 210/282/212 211/154/108 209/172/127
f 108/155/111 122/159/116 117/170/124 113/157/112
f 125/192/143 130/284/149 128/283/148 126/196/144
f 112/165/121 118/169/125 134/285/134 132/168/122
f 137/193/142 138/286/154 130/284/149 125/192/143
f 132/168/122 134/285/134 138/286/154 137/193/142
f 128/283/148 150/287/153 140/198/146 126/196/144
f 153/185/137 156/177/129 116/174/128 123/179/132
f 157/176/130 159/234/178 135/183/133 119/175/131
f 159/234/178 165/236/180 139/205/155 135/183/133
f 165/236/180 167/242/186 131/201/150 139/205/155
f 167/242/186 173/244/188 129/200/151 131/201/150
f 140/198/146 150/287/153 162/288/173 160/208/156
f 160/208/156 162/288/173 170/289/184 168/239/181
f 173/244/188 194/250/194 151/204/152 129/200/151
f 168/239/181 170/289/184 176/290/192 174/247/189
f 149/189/139 188/231/169 152/228/136 120/188/135
f 174/247/189 176/290/192 184/260/197 181/253/195
f 180/217/166 185/259/170 147/216/163 144/213/162
f 146/219/167 186/224/171 191/261/201 187/222/168
f 163/227/172 151/204/152 194/250/194 196/267/206
f 183/255/196 177/249/191 199/266/203 190/262/200
f 171/241/183 163/227/172 196/267/206 198/269/208
f 177/249/191 171/241/183 198/269/208 199/266/203
f 208/273/126 115/162/120 178/163/119 203/272/199
f 111/161/117 133/298/123 136/297/141 124/296/140 127/295/145 141/294/147 161/293/157 169/292/182 175/291/190 182/164/118
f 107/151/107 114/156/113 209/172/127 211/154/108
f 202/258/198 179/218/165 145/210/161 205/211/160
f 210/279/212 207/274/210 201/271/209 206/278/211
f 107/151/107 110/152/110 109/158/114 108/155/111
f 111/166/117 115/171/120 114/156/113 112/165/121
f 116/174/128 119/175/131 118/181/125 117/178/124
f 120/184/135 123/179/132 122/180/116 121/299/115
f 142/209/158 145/210/161 144/213/162 143/214/164
f 146/219/167 149/220/139 148/300/138 147/223/163
f 152/186/136 154/232/175 153/185/137
f 155/233/176 157/176/130 156/177/129
f 181/253/195 180/217/166 179/218/165
f 183/255/196 186/224/171 185/225/170 184/254/197
f 187/222/168 189/263/174 188/221/169
f 190/262/200 192/264/202 191/261/201
f 201/275/209 203/257/199 202/258/198
f 204/212/159 206/276/211 205/211/160
f 207/281/210 209/172/127 208/173/126
f 210/282/212 212/153/109 211/154/108
f 114/156/113 113/157/112 112/165/121
f 178/256/119 182/252/118 181/253/195 179/218/165
s 19
f 214/301/213 213/302/214 216/303/215 215/304/216
f 215/304/216 216/305/215 231/306/217 232/307/218
f 218/308/219 217/309/220 219/310/221 220/311/222
f 220/312/222 219/310/221 236/313/223 235/314/224
s 21
f 222/315/225 221/316/226 224/317/227 223/318/228
f 223/319/228 224/317/227 238/320/229 237/321/230
f 226/322/231 225/323/232 228/324/233 227/325/234
f 227/325/234 228/326/233 239/327/235 240/328/236
s 19
f 229/329/237 230/330/238 266/331/239 267/332/240
f 230/330/238 229/329/237 232/307/218 231/306/217
f 233/333/241 234/334/242 271/335/243 272/336/244
f 234/334/242 233/333/241 235/314/224 236/313/223
s 21
f 237/321/230 238/320/229 242/337/245 241/338/246
f 240/328/236 239/327/235 244/339/247 243/340/248
f 241/338/246 242/337/245 253/341/249 254/342/250
f 243/340/248 244/339/247 292/343/251 293/344/252
s 22
f 245/345/253 246/346/254 258/347/255 259/348/256
f 246/349/254 245/345/253 248/350/257 247/351/258
s 23
f 249/352/259 250/353/260 262/354/261 263/355/262
f 250/353/260 249/356/259 252/357/263 251/358/264
s 21
f 254/359/250 253/341/249 256/360/265 255/361/266
s 22
f 259/348/256 258/362/255 261/363/267 260/364/268
s 23
f 263/365/262 262/354/261 265/366/269 264/367/270
s 19
f 267/332/240 266/368/239 270/369/271 269/370/272
f 272/371/244 271/335/243 274/372/273 273/373/274
s 23
f 276/374/275 277/375/276 280/376/277 281/377/278
f 277/375/276 276/378/275 279/379/279 278/380/280
f 281/381/278 280/376/277 283/382/281 282/383/282
s 22
f 284/384/283 285/385/284 288/386/285 289/387/286
f 285/385/284 284/388/283 287/389/287 286/390/288
f 289/391/286 288/386/285 291/392/289 290/393/290
s 21
f 293/344/252 292/394/251 296/395/291 295/396/292
s 19
f 218/397/219 220/398/222 216/399/215 213/400/214
s 21
f 228/401/233 225/402/232 222/403/225 223/404/228
s 19
f 233/405/241 230/406/238 231/407/217 235/408/224
f 235/408/224 231/407/217 216/399/215 220/398/222
s 21
f 228/401/233 223/404/228 237/409/230 239/410/235
f 239/410/235 237/409/230 241/411/246 244/412/247
f 292/413/251 244/412/247 241/411/246 254/414/250
s 19
f 232/307/218 269/370/272 268/415/293 214/301/213 215/304/216
s 21
f 240/328/236 295/396/292 294/416/294 226/322/231 227/325/234
s 23
f 263/417/262 276/418/275 281/419/278 249/420/259
s 22
f 284/421/283 289/422/286 258/423/255 246/424/254
s 19
f 230/406/238 233/405/241 272/425/244 266/426/239
f 234/334/242 236/313/223 274/372/273 271/335/243
s 23
f 250/353/260 251/358/264 265/366/269 262/354/261
f 277/375/276 278/380/280 283/382/281 280/376/277
s 22
f 259/348/256 260/364/268 248/350/257 245/345/253
f 285/385/284 286/390/288 291/392/289 288/386/285
s 21
f 238/320/229 256/360/265 253/341/249 242/337/245
s 22
f 289/422/286 290/427/290 261/428/267 258/423/255
s 23
f 281/419/278 282/429/282 252/430/263 249/420/259
s 22
f 246/424/254 247/431/258 287/432/287 284/421/283
s 23
f 263/417/262 264/433/270 279/434/279 276/418/275
s 19
f 266/426/239 272/425/244 273/435/274 270/436/271
s 21
f 254/414/250 255/437/266 296/438/291 292/413/251
f 293/344/252 295/396/292 240/328/236 243/340/248
s 19
f 267/332/240 269/370/272 232/307/218 229/329/237
s 21
f 224/317/227 221/316/226 257/439/295 256/360/265 238/320/229
s 19
f 275/440/296 274/372/273 236/313/223 219/310/221 217/309/220
s 21
f 255/361/266 256/360/265 257/439/295
s 19
f 268/415/293 269/370/272 270/369/271
f 273/373/274 274/372/273 275/440/296
s 21
f 294/416/294 295/396/292 296/395/291
