# This file uses centimeters as units for non-parametric coordinates.

mtllib S_P27_01.mtl
g default
v 3.923347 -0.531038 -1.274772
v 3.337398 -0.531038 -2.424761
v 2.424761 -0.531038 -3.337398
v 1.274772 -0.531038 -3.923346
v 0.000000 -0.531038 -4.125250
v -1.274772 -0.531038 -3.923346
v -2.424761 -0.531038 -3.337397
v -3.337397 -0.531038 -2.424761
v -3.923345 -0.531038 -1.274772
v -4.125249 -0.531038 0.000000
v -3.923345 -0.531038 1.274772
v -3.337396 -0.531038 2.424760
v -2.424760 -0.531038 3.337396
v -1.274772 -0.531038 3.923345
v -0.000000 -0.531038 4.125248
v 1.274772 -0.531038 3.923344
v 2.424760 -0.531038 3.337396
v 3.337396 -0.531038 2.424760
v 3.923344 -0.531038 1.274772
v 4.125248 -0.531038 0.000000
v 3.925842 264.182922 -1.285510
v 3.339893 264.182922 -2.435501
v 2.427256 264.182922 -3.348137
v 1.277267 264.182922 -3.934086
v 0.002498 264.182922 -4.135995
v -1.272277 264.182922 -3.934085
v -2.422266 264.182922 -3.348136
v -3.334902 264.182922 -2.435500
v -3.920850 264.182922 -1.285509
v -4.122749 264.182922 -0.010738
v -3.920850 264.182922 1.264035
v -3.334901 264.182922 2.414021
v -2.422266 264.182922 3.326657
v -1.272277 264.182922 3.912605
v 0.002498 264.182922 4.114509
v 1.277267 264.182922 3.912605
v 2.427255 264.182922 3.326657
v 3.339891 264.182922 2.414021
v 3.925839 264.182922 1.264034
v 4.127740 264.182922 -0.010738
vt 0.514040 0.005864
vt 0.516556 0.005864
vt 0.519072 0.005864
vt 0.521587 0.005864
vt 0.524103 0.005864
vt 0.526619 0.005864
vt 0.529134 0.005864
vt 0.531650 0.005864
vt 0.534166 0.005864
vt 0.536681 0.005864
vt 0.539197 0.005864
vt 0.541712 0.005864
vt 0.544228 0.005864
vt 0.546744 0.005864
vt 0.549259 0.005864
vt 0.551775 0.005864
vt 0.554291 0.005864
vt 0.556806 0.005864
vt 0.559322 0.005864
vt 0.561838 0.005864
vt 0.564353 0.005864
vt 0.514040 0.494926
vt 0.516556 0.494926
vt 0.519072 0.494926
vt 0.521587 0.494926
vt 0.524103 0.494926
vt 0.526619 0.494926
vt 0.529134 0.494926
vt 0.531650 0.494926
vt 0.534166 0.494926
vt 0.536681 0.494926
vt 0.539197 0.494926
vt 0.541712 0.494926
vt 0.544228 0.494926
vt 0.546744 0.494926
vt 0.549259 0.494926
vt 0.551775 0.494926
vt 0.554291 0.494926
vt 0.556806 0.494926
vt 0.559322 0.494926
vt 0.561838 0.494926
vt 0.564353 0.494926
vn 0.951058 -0.000021 -0.309012
vn 0.809019 -0.000031 -0.587783
vn 0.809015 -0.000031 -0.587787
vn 0.951056 -0.000021 -0.309019
vn 0.587786 -0.000038 -0.809016
vn 0.587784 -0.000038 -0.809018
vn 0.309018 -0.000042 -0.951056
vn 0.309018 -0.000042 -0.951056
vn -0.000001 -0.000041 -1.000000
vn 0.000001 -0.000041 -1.000000
vn -0.309020 -0.000036 -0.951056
vn -0.309016 -0.000036 -0.951057
vn -0.587788 -0.000027 -0.809015
vn -0.587783 -0.000027 -0.809019
vn -0.809020 -0.000016 -0.587782
vn -0.809015 -0.000016 -0.587788
vn -0.951058 -0.000004 -0.309012
vn -0.951056 -0.000004 -0.309020
vn -1.000000 0.000009 0.000004
vn -1.000000 0.000009 -0.000004
vn -0.951056 0.000022 0.309020
vn -0.951058 0.000022 0.309013
vn -0.809015 0.000031 0.587788
vn -0.809018 0.000031 0.587783
vn -0.587784 0.000038 0.809018
vn -0.587786 0.000038 0.809016
vn -0.309017 0.000041 0.951057
vn -0.309017 0.000041 0.951056
vn -0.000001 0.000041 1.000000
vn 0.000001 0.000041 1.000000
vn 0.309015 0.000036 0.951057
vn 0.309019 0.000036 0.951056
vn 0.587783 0.000027 0.809019
vn 0.587788 0.000027 0.809015
vn 0.809015 0.000016 0.587788
vn 0.809019 0.000016 0.587782
vn 0.951055 0.000004 0.309020
vn 0.951058 0.000004 0.309013
vn 1.000000 -0.000009 0.000005
vn 1.000000 -0.000009 -0.000003
s 1
g SP27_low_01 S_P27_geo
usemtl aiStandardSurface1SG
f 1/1/1 2/2/2 22/23/3 21/22/4
f 2/2/2 3/3/5 23/24/6 22/23/3
f 3/3/5 4/4/7 24/25/8 23/24/6
f 4/4/7 5/5/9 25/26/10 24/25/8
f 5/5/9 6/6/11 26/27/12 25/26/10
f 6/6/11 7/7/13 27/28/14 26/27/12
f 7/7/13 8/8/15 28/29/16 27/28/14
f 8/8/15 9/9/17 29/30/18 28/29/16
f 9/9/17 10/10/19 30/31/20 29/30/18
f 10/10/19 11/11/21 31/32/22 30/31/20
f 11/11/21 12/12/23 32/33/24 31/32/22
f 12/12/23 13/13/25 33/34/26 32/33/24
f 13/13/25 14/14/27 34/35/28 33/34/26
f 14/14/27 15/15/29 35/36/30 34/35/28
f 15/15/29 16/16/31 36/37/32 35/36/30
f 16/16/31 17/17/33 37/38/34 36/37/32
f 17/17/33 18/18/35 38/39/36 37/38/34
f 18/18/35 19/19/37 39/40/38 38/39/36
f 19/19/37 20/20/39 40/41/40 39/40/38
f 20/20/39 1/21/1 21/42/4 40/41/40
g default
v 2.082446 222.944153 -150.822800
v -150.731339 219.970474 1.962068
v 2.180279 217.106339 148.891998
v 149.842957 220.066559 -3.090287
v 0.000018 240.807434 -146.168381
v -145.537323 237.973129 -0.658688
v -0.000006 235.138824 144.851028
v 145.537308 237.973129 -0.658676
v 0.021602 266.093750 -0.142135
v -149.928680 220.068634 -3.188134
v -2.168185 222.946243 -150.920547
v -2.970862 217.092880 149.694550
v 149.940735 219.983948 1.159543
v -72.402222 258.567749 -0.315685
v -0.004356 259.981628 -72.697006
v 72.538589 258.572205 -0.167689
v 0.143135 257.158264 72.216896
v -35.766346 255.927155 35.460857
v -69.550774 236.463196 68.875877
v -73.632576 218.438873 72.607376
v 36.728889 256.088837 36.411987
v 71.595345 236.533218 70.922020
v 74.886932 218.522385 73.851357
v 36.895687 257.952026 -37.175320
v 69.986275 239.230972 -70.633720
v 73.179657 221.345993 -74.176094
v -36.442142 257.605530 -36.743256
v -70.334160 239.248245 -70.981720
v -73.613388 221.365372 -74.621994
v -3.331906 223.394867 -152.075775
v -74.774979 221.813858 -75.775047
v -71.341583 240.532578 -71.964378
v 0.000646 242.652969 -147.586533
v -70.516579 237.734192 69.866638
v -74.774078 218.936981 73.758812
v -4.115196 217.591064 150.848801
v 0.008456 236.930145 146.284317
v 3.343999 217.509644 150.063812
v 76.049629 218.925674 75.022118
v 72.603889 237.779602 71.955162
v 70.998894 240.508759 -71.621552
v 74.342949 221.783310 -75.331085
v 3.248187 223.381622 -151.980225
v -36.773621 259.257507 -37.042610
v -146.936035 239.790649 -0.631658
v -72.740952 260.285217 -0.274965
v -36.100723 257.564819 35.827202
v 37.058300 257.727203 36.773376
v 146.990540 239.791641 -0.623792
v 72.873199 260.287842 -0.132670
v 37.226074 259.606018 -37.473545
v -0.009213 261.703857 -73.003853
v 0.017850 267.819489 -0.103058
v 0.132539 258.869537 72.583138
v -151.875641 220.468658 3.116323
v 151.104477 220.387253 2.331340
v 151.008682 220.504013 -4.247727
v -151.092377 220.517273 -4.343337
vt 0.463943 0.502379
vt 0.255930 0.502379
vt 0.255930 0.463493
vt 0.463943 0.463493
vt 0.048549 0.255582
vt 0.009178 0.255582
vt 0.009178 0.048165
vt 0.048549 0.048165
vt 0.048549 0.009182
vt 0.255930 0.009182
vt 0.255930 0.048165
vt 0.463943 0.255582
vt 0.502934 0.255582
vt 0.502934 0.463493
vt 0.255930 0.357877
vt 0.048549 0.463493
vt 0.154346 0.357877
vt 0.154346 0.255582
vt 0.255930 0.153568
vt 0.463943 0.048165
vt 0.359062 0.153568
vt 0.359062 0.255582
vt 0.359062 0.357877
vt 0.255930 0.255582
vt 0.154346 0.153568
vt 0.009178 0.463493
vt 0.463943 0.009182
vt 0.502934 0.048165
vt 0.048549 0.502379
vt 0.463943 0.505698
vt 0.466044 0.465287
vt 0.040177 0.751827
vt 0.255930 0.505698
vt 0.247547 0.959220
vt 0.045761 0.046713
vt 0.009178 0.046713
vt 0.005859 0.255582
vt 0.048549 0.005864
vt 0.454914 0.751827
vt 0.255930 0.005864
vt 0.247547 0.544475
vt 0.502934 0.465287
vt 0.506252 0.255582
vt 0.146366 0.751827
vt 0.146366 0.852532
vt 0.046984 0.465704
vt 0.247547 0.852532
vt 0.348482 0.751827
vt 0.348482 0.650002
vt 0.464774 0.044636
vt 0.247547 0.650002
vt 0.146366 0.650002
vt 0.247547 0.751827
vt 0.348482 0.852532
vt 0.005859 0.463493
vt 0.464774 0.009182
vt 0.506252 0.048165
vt 0.046984 0.502379
vt 0.005859 0.751827
vt 0.005859 0.959220
vt 0.247547 0.510199
vt 0.040177 0.510199
vt 0.489210 0.751827
vt 0.489210 0.544475
vt 0.247547 0.994141
vt 0.454914 0.994141
vt 0.454914 0.544475
vt 0.454914 0.959220
vt 0.005859 0.544475
vt 0.040177 0.544475
vt 0.040177 0.959220
vt 0.454914 0.510199
vt 0.489210 0.959220
vt 0.040177 0.994141
vt 0.048549 0.505698
vt 0.502934 0.044636
vt 0.463943 0.005864
vt 0.009178 0.465704
vt 0.506252 0.463493
vt 0.045761 0.009182
vt 0.005859 0.048165
vt 0.466044 0.502379
vn -0.705081 0.269013 -0.656119
vn -0.683472 0.269949 -0.678228
vn -0.683460 0.269950 -0.678241
vn -0.705081 0.269013 -0.656119
vn -0.672135 0.297449 0.678055
vn -0.672135 0.297449 0.678055
vn -0.700566 0.297765 0.648494
vn -0.700566 0.297765 0.648494
vn 0.693263 0.244122 0.678078
vn 0.683315 0.243564 0.688300
vn 0.683321 0.243565 0.688294
vn 0.693263 0.244122 0.678078
vn 0.684666 0.263212 -0.679670
vn 0.684667 0.263212 -0.679670
vn 0.709411 0.262553 -0.654066
vn 0.709411 0.262553 -0.654066
vn -0.232625 0.948704 -0.214119
vn -0.265550 0.931821 -0.247374
vn -0.251165 0.931904 -0.261671
vn -0.236438 0.939337 -0.248480
vn -0.247439 0.920089 0.303662
vn -0.266667 0.920800 0.284634
vn -0.234527 0.938655 0.252831
vn -0.233495 0.927572 0.291703
vn 0.229020 0.941439 0.247470
vn 0.260347 0.924483 0.278479
vn 0.249256 0.924159 0.289484
vn 0.234627 0.931646 0.277464
vn 0.234036 0.948013 -0.215637
vn 0.269287 0.929710 -0.251245
vn 0.282029 0.929309 -0.238421
vn 0.267174 0.937586 -0.222598
vn -0.266771 0.938755 -0.218113
vn -0.124228 0.986686 -0.104969
vn 0.240803 0.938103 -0.248951
vn 0.118408 0.987992 -0.099251
vn 0.259221 0.932116 0.252912
vn 0.124462 0.981767 0.143673
vn -0.130025 0.980242 0.149061
vn -0.273573 0.928358 0.251611
vn -0.285682 0.920837 0.265414
vn -0.642573 0.296633 0.706477
vn -0.642573 0.296633 0.706477
vn 0.271380 0.924581 0.267399
vn 0.673233 0.242957 0.698376
vn 0.673233 0.242957 0.698376
vn 0.256468 0.929807 -0.263977
vn 0.659055 0.263537 -0.704411
vn 0.659055 0.263537 -0.704411
vn -0.279819 0.931354 -0.232983
vn -0.661197 0.270627 -0.699699
vn -0.661197 0.270627 -0.699699
vn 0.707318 -0.261953 0.656568
vn 0.707318 -0.261953 0.656569
vn 0.684781 -0.262551 0.679810
vn 0.684794 -0.262551 0.679797
vn 0.673523 -0.291346 -0.679326
vn 0.702780 -0.291667 -0.648869
vn 0.702780 -0.291667 -0.648869
vn 0.673523 -0.291346 -0.679326
vn -0.695609 -0.236774 -0.678282
vn -0.695609 -0.236774 -0.678282
vn -0.684663 -0.236580 -0.689395
vn -0.684657 -0.236580 -0.689402
vn -0.686004 -0.255795 0.681151
vn -0.711724 -0.255109 0.654499
vn -0.711724 -0.255109 0.654499
vn -0.686004 -0.255795 0.681151
vn 0.233421 -0.948316 0.214970
vn 0.239135 -0.938605 0.248668
vn 0.254188 -0.931000 0.261967
vn 0.267174 -0.930901 0.249082
vn 0.250363 -0.919195 -0.303972
vn 0.236121 -0.926837 -0.291924
vn 0.235354 -0.938227 -0.253650
vn 0.268283 -0.919834 -0.286234
vn -0.229833 -0.941042 -0.248228
vn -0.237397 -0.930943 -0.277468
vn -0.252378 -0.923281 -0.289581
vn -0.261973 -0.923557 -0.280023
vn -0.234881 -0.947609 0.216490
vn -0.267374 -0.936854 0.225422
vn -0.282367 -0.928380 0.241619
vn -0.271042 -0.928718 0.253019
vn 0.266909 -0.938065 0.220892
vn 0.124280 -0.986675 0.105007
vn -0.243622 -0.937315 0.249176
vn -0.118435 -0.987986 0.099282
vn -0.259272 -0.931369 -0.255597
vn -0.124482 -0.981760 -0.143706
vn 0.130100 -0.980222 -0.149130
vn 0.273815 -0.927573 -0.254232
vn 0.286017 -0.919888 -0.268331
vn 0.643066 -0.290504 -0.708572
vn 0.643066 -0.290504 -0.708572
vn -0.271521 -0.923663 -0.270413
vn -0.673544 -0.236329 -0.700347
vn -0.673544 -0.236329 -0.700347
vn -0.259658 -0.928817 0.264344
vn -0.659343 -0.256129 0.706870
vn -0.659343 -0.256129 0.706870
vn 0.280069 -0.930490 0.236114
vn 0.661541 -0.262874 0.702326
vn 0.661541 -0.262874 0.702326
vn -0.182565 -0.964479 -0.190921
vn -0.177346 -0.964402 -0.196154
vn -0.177346 -0.964402 -0.196154
vn -0.182565 -0.964479 -0.190921
vn 0.901915 -0.026325 -0.431112
vn 0.901915 -0.026325 -0.431111
vn 0.901915 -0.026325 -0.431112
vn 0.901915 -0.026325 -0.431112
vn -0.216747 -0.955902 0.198172
vn -0.225174 -0.955669 0.189719
vn -0.225174 -0.955669 0.189719
vn -0.216747 -0.955902 0.198172
vn 0.894217 -0.057997 0.443861
vn 0.894217 -0.057997 0.443861
vn 0.894217 -0.057997 0.443861
vn 0.894217 -0.057997 0.443861
vn 0.179797 -0.971276 0.155871
vn 0.177278 -0.971331 0.158392
vn 0.177278 -0.971331 0.158392
vn 0.179797 -0.971276 0.155871
vn -0.897898 -0.040714 0.438316
vn -0.897898 -0.040714 0.438316
vn -0.897898 -0.040714 0.438316
vn -0.897898 -0.040714 0.438316
vn 0.172703 -0.966168 -0.191552
vn 0.178516 -0.966249 -0.185726
vn 0.178516 -0.966250 -0.185726
vn 0.172703 -0.966168 -0.191552
vn -0.902286 -0.024627 -0.430435
vn -0.902286 -0.024627 -0.430435
vn -0.902286 -0.024627 -0.430435
vn -0.902285 -0.024627 -0.430435
vn -0.208289 -0.955999 0.206597
vn -0.208289 -0.955999 0.206597
vn -0.444851 -0.031943 -0.895035
vn -0.444851 -0.031943 -0.895035
vn -0.444851 -0.031943 -0.895035
vn -0.444851 -0.031943 -0.895035
vn 0.174758 -0.971374 0.160911
vn 0.174758 -0.971374 0.160911
vn 0.430609 -0.017109 -0.902376
vn 0.430609 -0.017109 -0.902376
vn 0.430609 -0.017109 -0.902376
vn 0.430609 -0.017109 -0.902376
vn 0.166878 -0.966022 -0.197366
vn 0.166878 -0.966022 -0.197366
vn 0.429928 -0.050548 0.901447
vn 0.429928 -0.050548 0.901447
vn 0.429928 -0.050548 0.901447
vn 0.429928 -0.050548 0.901447
vn -0.172117 -0.964273 -0.201376
vn -0.172117 -0.964273 -0.201376
vn -0.438936 -0.049687 0.897144
vn -0.438936 -0.049687 0.897144
vn -0.438936 -0.049687 0.897144
vn -0.438936 -0.049687 0.897144
s 1
g S_P27_geo SP27_low_02
usemtl aiStandardSurface1SG
f 70/43/41 71/44/42 72/45/43 73/46/44
s 2
f 74/47/45 75/48/46 76/49/47 77/50/48
s 3
f 78/51/49 79/52/50 80/53/51 77/50/52
s 4
f 81/54/53 82/55/54 83/56/55 73/46/56
s 5
f 84/57/57 72/45/58 85/58/59 86/59/60
s 6
f 85/58/61 74/47/62 87/60/63 86/59/64
s 7
f 88/61/65 80/53/66 89/62/67 90/63/68
s 8
f 91/64/69 81/54/70 73/46/71 92/65/72
s 5
f 92/65/73 84/57/57 93/66/74
s 8
f 90/63/75 91/64/69 93/66/76
s 7
f 94/67/77 88/61/65 93/66/78
s 6
f 86/59/64 87/60/63 93/66/79
f 93/66/79 87/60/63 94/67/80
f 87/60/63 74/47/62 77/50/81 94/67/80
s 2
f 95/68/82 75/48/46 74/47/45 85/58/83
s 7
f 77/50/84 80/53/66 88/61/65 94/67/77
s 3
f 80/53/51 79/52/50 96/69/85 89/62/86
s 7
f 93/66/78 88/61/65 90/63/68
s 8
f 89/62/87 81/54/70 91/64/69 90/63/75
s 4
f 97/70/88 82/55/54 81/54/53 89/62/89
s 8
f 93/66/76 91/64/69 92/65/72
s 5
f 73/46/90 72/45/58 84/57/57 92/65/73
s 1
f 72/45/43 71/44/42 98/71/91 85/58/92
s 5
f 93/66/74 84/57/57 86/59/60
s 9
f 51/111/93 45/112/94 68/74/95 69/101/96
s 10
f 59/76/97 47/110/98 52/108/99 60/107/100
s 11
f 43/115/101 47/110/102 62/81/103 63/105/104
s 12
f 65/83/105 45/112/106 41/104/107 66/103/108
s 13
f 67/86/109 54/87/110 46/113/111 68/74/112
s 14
f 46/113/113 54/87/114 58/89/115 59/76/116
s 15
f 61/90/117 56/91/118 48/109/119 62/81/120
s 16
f 64/93/121 55/94/122 45/112/123 65/83/124
s 13
f 55/94/125 49/95/126 67/86/109
s 16
f 56/91/127 49/95/128 64/93/121
s 15
f 57/96/129 49/95/130 61/90/117
s 14
f 54/87/114 49/95/131 58/89/115
f 49/95/131 57/96/132 58/89/115
f 58/89/115 57/96/132 47/110/133 59/76/116
s 10
f 42/116/134 46/113/135 59/76/97 60/107/100
s 15
f 47/110/136 57/96/129 61/90/117 62/81/120
s 11
f 62/81/103 48/109/137 53/106/138 63/105/104
s 15
f 49/95/130 56/91/118 61/90/117
s 16
f 48/109/139 56/91/127 64/93/121 65/83/124
s 12
f 44/114/140 48/109/141 65/83/105 66/103/108
s 16
f 49/95/128 55/94/122 64/93/121
s 13
f 45/112/142 55/94/125 67/86/109 68/74/112
s 9
f 68/74/95 46/113/143 50/102/144 69/101/96
s 13
f 49/95/126 54/87/110 67/86/109
s 17
f 51/72/145 69/75/146 71/44/147 70/43/148
s off
f 45/73/149 51/124/150 70/43/151 73/46/152
s 18
f 60/79/153 52/123/154 76/49/155 75/48/156
s off
f 52/78/157 47/77/158 77/50/159 76/49/160
s 19
f 43/80/161 63/82/162 79/52/163 78/51/164
s off
f 47/77/165 43/122/166 78/51/167 77/50/168
s 20
f 66/85/169 41/121/170 83/56/171 82/55/172
s off
f 41/84/173 45/73/174 73/46/175 83/56/176
s 18
f 42/97/177 60/79/153 75/48/156 95/68/178
s off
f 46/88/179 42/120/180 95/68/181 85/58/182
s 19
f 63/82/162 53/119/183 96/69/184 79/52/163
s off
f 53/98/185 48/92/186 89/62/187 96/69/188
s 20
f 44/99/189 66/85/169 82/55/172 97/70/190
s off
f 48/92/191 44/118/192 97/70/193 89/62/194
s 17
f 69/75/146 50/117/195 98/71/196 71/44/147
s off
f 50/100/197 46/88/198 85/58/199 98/71/200
g default
v 30.161825 -0.421207 -9.800170
v 25.657181 -0.421207 -18.641027
v 18.641027 -0.421207 -25.657171
v 9.800170 -0.421207 -30.161818
v 0.000000 -0.421207 -31.714012
v -9.800169 -0.421207 -30.161818
v -18.641026 -0.421207 -25.657171
v -25.657169 -0.421207 -18.641026
v -30.161812 -0.421207 -9.800164
v -31.714006 -0.421207 0.000001
v -30.161812 -0.421207 9.800167
v -25.657167 -0.421207 18.641024
v -18.641022 -0.421207 25.657167
v -9.800166 -0.421207 30.161808
v -0.000000 -0.421207 31.714003
v 9.800164 -0.421207 30.161808
v 18.641016 -0.421207 25.657162
v 25.657162 -0.421207 18.641022
v 30.161804 -0.421207 9.800164
v 31.714001 -0.421207 0.000001
v 0.000000 25.118019 0.000000
v 5.568891 25.118019 -1.809443
v 5.957372 25.082237 -1.935666
v 6.333621 24.976040 -2.057916
v 6.685862 24.802702 -2.172366
v 7.003455 24.567410 -2.275558
v 4.737173 25.118019 -3.441777
v 5.067635 25.082237 -3.681872
v 5.387690 24.976040 -3.914406
v 5.687326 24.802702 -4.132103
v 5.957486 24.567410 -4.328386
v 3.441772 25.118019 -4.737177
v 3.681866 25.082237 -5.067639
v 3.914400 24.976040 -5.387696
v 4.132097 24.802702 -5.687331
v 4.328380 24.567410 -5.957490
v 1.809429 25.118019 -5.568889
v 1.935657 25.082237 -5.957367
v 2.057909 24.976040 -6.333614
v 2.172361 24.802702 -6.685855
v 2.275553 24.567410 -7.003447
v -0.000006 25.118019 -5.855514
v -0.000004 25.082237 -6.263987
v -0.000003 24.976040 -6.659599
v -0.000003 24.802702 -7.029970
v -0.000002 24.567410 -7.363906
v -1.809433 25.118019 -5.568902
v -1.935661 25.082237 -5.957381
v -2.057914 24.976040 -6.333630
v -2.172365 24.802702 -6.685871
v -2.275558 24.567410 -7.003462
v -3.441775 25.118019 -4.737178
v -3.681870 25.082237 -5.067638
v -3.914405 24.976040 -5.387693
v -4.132102 24.802702 -5.687329
v -4.328385 24.567410 -5.957489
v -4.737176 25.118019 -3.441777
v -5.067637 25.082237 -3.681871
v -5.387693 24.976040 -3.914405
v -5.687326 24.802702 -4.132103
v -5.957487 24.567410 -4.328385
v -5.568898 25.118019 -1.809441
v -5.957377 25.082237 -1.935666
v -6.333627 24.976040 -2.057916
v -6.685868 24.802702 -2.172366
v -7.003461 24.567410 -2.275558
v -5.855475 25.118019 -0.000004
v -6.263947 25.082237 -0.000004
v -6.659557 24.976040 -0.000004
v -7.029926 24.802702 -0.000004
v -7.363862 24.567410 -0.000004
v -5.568898 25.118019 1.809434
v -5.957377 25.082237 1.935659
v -6.333627 24.976040 2.057909
v -6.685868 24.802702 2.172359
v -7.003461 24.567410 2.275552
v -4.737175 25.118019 3.441768
v -5.067635 25.082237 3.681863
v -5.387690 24.976040 3.914397
v -5.687325 24.802702 4.132094
v -5.957486 24.567410 4.328377
v -3.441777 25.118019 4.737166
v -3.681870 25.082237 5.067629
v -3.914404 24.976040 5.387686
v -4.132101 24.802702 5.687320
v -4.328384 24.567410 5.957481
v -1.809433 25.118019 5.568879
v -1.935660 25.082237 5.957358
v -2.057913 24.976040 6.333605
v -2.172364 24.802702 6.685845
v -2.275556 24.567410 7.003437
v 0.000000 25.118019 5.855505
v -0.000001 25.082237 6.263977
v -0.000002 24.976040 6.659590
v -0.000002 24.802702 7.029960
v -0.000003 24.567410 7.363896
v 1.809427 25.118019 5.568892
v 1.935655 25.082237 5.957372
v 2.057907 24.976040 6.333620
v 2.172359 24.802702 6.685861
v 2.275551 24.567410 7.003452
v 3.441769 25.118019 4.737170
v 3.681863 25.082237 5.067630
v 3.914398 24.976040 5.387686
v 4.132094 24.802702 5.687319
v 4.328378 24.567410 5.957481
v 4.737170 25.118019 3.441768
v 5.067630 25.082237 3.681863
v 5.387686 24.976040 3.914397
v 5.687319 24.802702 4.132094
v 5.957481 24.567410 4.328377
v 5.568891 25.118019 1.809434
v 5.957372 25.082237 1.935658
v 6.333621 24.976040 2.057909
v 6.685862 24.802702 2.172359
v 7.003455 24.567410 2.275551
v 5.855468 25.118019 -0.000004
v 6.263941 25.082237 -0.000004
v 6.659551 24.976040 -0.000004
v 7.029919 24.802702 -0.000004
v 7.363855 24.567410 -0.000004
v 25.133169 4.525545 18.260321
v 25.362391 4.227555 18.426855
v 25.533888 3.875931 18.551456
v 25.639343 3.487620 18.628071
v 25.673738 3.080832 18.653067
v 18.653059 3.080832 25.673740
v 18.628071 3.487620 25.639345
v 18.551456 3.875931 25.533894
v 18.426853 4.227555 25.362391
v 18.260319 4.525545 25.133175
v 9.806494 3.080832 30.181290
v 9.793357 3.487620 30.140858
v 9.753077 3.875931 30.016893
v 9.687570 4.227555 29.815277
v 9.600017 4.525545 29.545822
v -0.000000 3.080832 31.734488
v -0.000000 3.487620 31.691973
v -0.000000 3.875931 31.561630
v -0.000001 4.227555 31.349642
v -0.000001 4.525545 31.066313
v -9.806497 3.080832 30.181290
v -9.793358 3.487618 30.140858
v -9.753079 3.875931 30.016893
v -9.687572 4.227555 29.815277
v -9.600017 4.525545 29.545822
v -18.653067 3.080832 25.673740
v -18.628071 3.487620 25.639347
v -18.551456 3.875931 25.533895
v -18.426855 4.227555 25.362391
v -18.260321 4.525545 25.133177
v -25.673740 3.080832 18.653067
v -25.639347 3.487620 18.628071
v -25.533897 3.875931 18.551462
v -25.362396 4.227555 18.426857
v -25.133179 4.525545 18.260323
v -30.181293 3.080832 9.806499
v -30.140860 3.487620 9.793361
v -30.016895 3.875931 9.753081
v -29.815287 4.227555 9.687572
v -29.545826 4.525545 9.600020
v -31.734491 3.080832 0.000001
v -31.691977 3.487620 0.000001
v -31.561630 3.875931 0.000001
v -31.349642 4.227555 0.000001
v -31.066317 4.525545 0.000001
v -30.181293 3.080832 -9.806497
v -30.140860 3.487620 -9.793358
v -30.016895 3.875931 -9.753079
v -29.815287 4.227555 -9.687572
v -29.545826 4.525545 -9.600017
v -25.673742 3.080832 -18.653067
v -25.639347 3.487620 -18.628071
v -25.533899 3.875931 -18.551462
v -25.362398 4.227555 -18.426857
v -25.133181 4.525545 -18.260323
v -18.653070 3.080832 -25.673748
v -18.628080 3.487620 -25.639353
v -18.551466 3.875931 -25.533901
v -18.426857 4.227555 -25.362400
v -18.260323 4.525545 -25.133181
v -9.806499 3.080832 -30.181299
v -9.793362 3.487620 -30.140869
v -9.753082 3.875931 -30.016903
v -9.687574 4.227555 -29.815289
v -9.600021 4.525545 -29.545828
v 0.000000 3.080832 -31.734501
v 0.000000 3.487620 -31.691986
v 0.000000 3.875931 -31.561640
v 0.000000 4.227555 -31.349651
v 0.000000 4.525545 -31.066326
v 9.806499 3.080832 -30.181299
v 9.793364 3.487618 -30.140869
v 9.753083 3.875931 -30.016903
v 9.687576 4.227555 -29.815289
v 9.600022 4.525545 -29.545828
v 18.653072 3.080832 -25.673752
v 18.628084 3.487620 -25.639357
v 18.551470 3.875931 -25.533901
v 18.426867 4.227555 -25.362402
v 18.260330 4.525545 -25.133181
v 25.673752 3.080832 -18.653072
v 25.639359 3.487620 -18.628082
v 25.533909 3.875931 -18.551468
v 25.362402 4.227555 -18.426867
v 25.133190 4.525545 -18.260328
v 30.181305 3.080832 -9.806499
v 30.140871 3.487618 -9.793363
v 30.016909 3.875931 -9.753083
v 29.815298 4.227555 -9.687575
v 29.545837 4.525545 -9.600021
v 31.734484 3.080832 0.000001
v 31.691969 3.487618 0.000001
v 31.561628 3.875931 0.000001
v 31.349640 4.227555 0.000001
v 31.066309 4.525545 0.000001
v 30.181286 3.080832 9.806497
v 30.140854 3.487620 9.793358
v 30.016890 3.875931 9.753079
v 29.815275 4.227555 9.687572
v 29.545813 4.525545 9.600017
vt 0.714172 0.105806
vt 0.713423 0.105552
vt 0.717103 0.084049
vt 0.717894 0.084059
vt 0.712672 0.105297
vt 0.716310 0.084039
vt 0.711918 0.105042
vt 0.715515 0.084029
vt 0.711165 0.104787
vt 0.714719 0.084019
vt 0.670377 0.157012
vt 0.646437 0.160504
vt 0.646505 0.153694
vt 0.668337 0.150514
vt 0.622590 0.156428
vt 0.624759 0.149972
vt 0.601169 0.145182
vt 0.605227 0.139712
vt 0.584272 0.127867
vt 0.589821 0.123919
vt 0.573553 0.106178
vt 0.580050 0.104138
vt 0.570060 0.082238
vt 0.576870 0.082306
vt 0.574137 0.058390
vt 0.580592 0.060559
vt 0.585383 0.036970
vt 0.590852 0.041027
vt 0.602698 0.020073
vt 0.606646 0.025622
vt 0.624387 0.009353
vt 0.626427 0.015851
vt 0.648327 0.005861
vt 0.648259 0.012671
vt 0.672174 0.009937
vt 0.670005 0.016393
vt 0.693595 0.021183
vt 0.689537 0.026653
vt 0.710492 0.038498
vt 0.704943 0.042446
vt 0.721211 0.060187
vt 0.714714 0.062227
vt 0.724704 0.084127
vt 0.720627 0.107975
vt 0.709381 0.129395
vt 0.703912 0.125338
vt 0.692066 0.146292
vt 0.688118 0.140743
vt 0.023505 0.031427
vt 0.019961 0.031836
vt 0.020441 0.020441
vt 0.016463 0.031130
vt 0.013355 0.029377
vt 0.010940 0.026750
vt 0.009456 0.023505
vt 0.009047 0.019961
vt 0.009753 0.016463
vt 0.011505 0.013355
vt 0.014133 0.010940
vt 0.017377 0.009456
vt 0.020922 0.009047
vt 0.024419 0.009753
vt 0.027528 0.011505
vt 0.029942 0.014133
vt 0.031427 0.017377
vt 0.031836 0.020922
vt 0.031130 0.024419
vt 0.029377 0.027528
vt 0.026750 0.029942
vt 0.659707 0.087771
vt 0.660521 0.083738
vt 0.711682 0.063170
vt 0.660050 0.079651
vt 0.702351 0.044280
vt 0.658339 0.075909
vt 0.687639 0.029197
vt 0.655555 0.072879
vt 0.668986 0.019400
vt 0.651971 0.070858
vt 0.648219 0.015845
vt 0.647938 0.070043
vt 0.627370 0.018882
vt 0.643850 0.070515
vt 0.608479 0.028214
vt 0.640108 0.072226
vt 0.593397 0.042926
vt 0.637079 0.075010
vt 0.583599 0.061578
vt 0.635058 0.078594
vt 0.580045 0.082346
vt 0.634243 0.082627
vt 0.583082 0.103195
vt 0.634714 0.086714
vt 0.592413 0.122085
vt 0.636425 0.090456
vt 0.607125 0.137168
vt 0.639209 0.093486
vt 0.625778 0.146965
vt 0.642793 0.095507
vt 0.646545 0.150520
vt 0.646826 0.096322
vt 0.667395 0.147483
vt 0.650914 0.095850
vt 0.686285 0.138151
vt 0.654656 0.094139
vt 0.701367 0.123439
vt 0.657685 0.091355
vt 0.024148 0.033733
vt 0.019859 0.034227
vt 0.023934 0.032965
vt 0.019893 0.033431
vt 0.023720 0.032196
vt 0.019927 0.032634
vt 0.015627 0.033373
vt 0.015906 0.032626
vt 0.016185 0.031878
vt 0.011867 0.031252
vt 0.012363 0.030628
vt 0.012859 0.030003
vt 0.008946 0.028073
vt 0.009610 0.027633
vt 0.010275 0.027192
vt 0.007150 0.024148
vt 0.007918 0.023934
vt 0.008687 0.023720
vt 0.006655 0.019859
vt 0.007452 0.019893
vt 0.008249 0.019927
vt 0.007510 0.015627
vt 0.008257 0.015906
vt 0.009005 0.016185
vt 0.009630 0.011867
vt 0.010255 0.012363
vt 0.010880 0.012859
vt 0.012809 0.008946
vt 0.013250 0.009610
vt 0.013691 0.010275
vt 0.016735 0.007150
vt 0.016948 0.007918
vt 0.017163 0.008687
vt 0.021024 0.006655
vt 0.020989 0.007452
vt 0.020956 0.008249
vt 0.025255 0.007510
vt 0.024977 0.008257
vt 0.024698 0.009005
vt 0.029016 0.009630
vt 0.028520 0.010255
vt 0.028024 0.010880
vt 0.031937 0.012809
vt 0.031272 0.013249
vt 0.030607 0.013691
vt 0.033733 0.016735
vt 0.032965 0.016948
vt 0.032196 0.017163
vt 0.034227 0.021024
vt 0.033431 0.020989
vt 0.032634 0.020956
vt 0.033373 0.025255
vt 0.032626 0.024977
vt 0.031878 0.024698
vt 0.031252 0.029016
vt 0.030628 0.028520
vt 0.030003 0.028024
vt 0.028073 0.031937
vt 0.027633 0.031272
vt 0.027192 0.030607
vt 0.712442 0.062934
vt 0.713201 0.062698
vt 0.713959 0.062462
vt 0.703000 0.043820
vt 0.703650 0.043361
vt 0.704297 0.042903
vt 0.688115 0.028560
vt 0.688590 0.027922
vt 0.689065 0.027287
vt 0.669242 0.018646
vt 0.669497 0.017893
vt 0.669752 0.017142
vt 0.648229 0.015050
vt 0.648239 0.014255
vt 0.648249 0.013461
vt 0.627133 0.018123
vt 0.626897 0.017363
vt 0.626662 0.016606
vt 0.608020 0.027564
vt 0.607560 0.026915
vt 0.607102 0.026267
vt 0.592759 0.042450
vt 0.592122 0.041974
vt 0.591486 0.041500
vt 0.582846 0.061323
vt 0.582092 0.061068
vt 0.581341 0.060813
vt 0.579249 0.082336
vt 0.578454 0.082326
vt 0.577661 0.082316
vt 0.582322 0.103431
vt 0.581563 0.103667
vt 0.580805 0.103903
vt 0.591764 0.122545
vt 0.591114 0.123004
vt 0.590467 0.123462
vt 0.606650 0.137805
vt 0.606174 0.138443
vt 0.605700 0.139078
vt 0.625522 0.147719
vt 0.625267 0.148472
vt 0.625013 0.149223
vt 0.646535 0.151315
vt 0.646525 0.152110
vt 0.646515 0.152904
vt 0.667631 0.148242
vt 0.667867 0.149002
vt 0.668103 0.149759
vt 0.686744 0.138801
vt 0.687204 0.139450
vt 0.687662 0.140098
vt 0.702005 0.123915
vt 0.702642 0.124391
vt 0.703278 0.124865
vt 0.031876 0.029511
vt 0.028513 0.032601
vt 0.034119 0.025534
vt 0.035023 0.021058
vt 0.034500 0.016522
vt 0.032601 0.012369
vt 0.029511 0.009007
vt 0.025534 0.006764
vt 0.021058 0.005859
vt 0.016522 0.006382
vt 0.012369 0.008282
vt 0.009007 0.011371
vt 0.006764 0.015349
vt 0.005859 0.019825
vt 0.006382 0.024361
vt 0.008282 0.028513
vt 0.011371 0.031876
vt 0.015349 0.034119
vt 0.019825 0.035023
vt 0.024361 0.034500
vt 0.650914 0.095850
vt 0.667395 0.147483
vt 0.668337 0.150514
vt 0.670377 0.157012
vt 0.667631 0.148242
vt 0.667867 0.149002
vt 0.668103 0.149759
vn 0.809004 0.005531 0.587776
vn 0.790976 0.210009 0.574677
vn 0.574678 0.210007 0.790976
vn 0.587776 0.005531 0.809005
vn 0.735902 0.415430 0.534665
vn 0.534664 0.415431 0.735902
vn 0.646786 0.600705 0.469917
vn 0.469918 0.600704 0.646786
vn 0.523991 0.761905 0.380702
vn 0.380702 0.761905 0.523991
vn 0.951041 -0.005848 -0.309011
vn 0.809003 -0.005850 -0.587775
vn 0.809004 0.005531 -0.587777
vn 0.951042 0.005533 -0.309011
vn 0.587775 -0.005851 -0.809003
vn 0.587776 0.005530 -0.809005
vn 0.309012 -0.005850 -0.951040
vn 0.309012 0.005530 -0.951042
vn -0.000000 -0.005850 -0.999983
vn -0.000000 0.005531 -0.999985
vn -0.309012 -0.005850 -0.951040
vn -0.309012 0.005531 -0.951042
vn -0.587775 -0.005850 -0.809003
vn -0.587776 0.005531 -0.809005
vn -0.809003 -0.005850 -0.587775
vn -0.809005 0.005532 -0.587776
vn -0.951040 -0.005849 -0.309012
vn -0.951042 0.005532 -0.309012
vn -0.999983 -0.005850 -0.000000
vn -0.999985 0.005532 0.000000
vn -0.951040 -0.005850 0.309012
vn -0.951042 0.005532 0.309012
vn -0.809003 -0.005850 0.587775
vn -0.809005 0.005532 0.587777
vn -0.587775 -0.005850 0.809003
vn -0.587776 0.005532 0.809005
vn -0.309012 -0.005849 0.951040
vn -0.309012 0.005531 0.951042
vn -0.000000 -0.005849 0.999983
vn 0.000000 0.005531 0.999985
vn 0.309012 -0.005850 0.951040
vn 0.309012 0.005531 0.951042
vn 0.587775 -0.005851 0.809003
vn 0.809003 -0.005851 0.587775
vn 0.951040 -0.005850 0.309012
vn 0.951042 0.005532 0.309012
vn 0.999983 -0.005849 0.000001
vn 0.999985 0.005533 0.000001
vn 0.012492 0.999914 -0.004058
vn 0.010626 0.999914 -0.007720
vn 0.000000 1.000000 0.000000
vn 0.007720 0.999914 -0.010626
vn 0.004059 0.999914 -0.012492
vn 0.000000 0.999914 -0.013135
vn -0.004059 0.999914 -0.012492
vn -0.007720 0.999914 -0.010626
vn -0.010626 0.999914 -0.007721
vn -0.012492 0.999914 -0.004058
vn -0.013135 0.999914 0.000000
vn -0.012492 0.999914 0.004058
vn -0.010626 0.999914 0.007721
vn -0.007720 0.999914 0.010627
vn -0.004059 0.999914 0.012491
vn -0.000000 0.999914 0.013135
vn 0.004059 0.999914 0.012492
vn 0.007720 0.999914 0.010626
vn 0.010626 0.999914 0.007721
vn 0.012492 0.999914 0.004058
vn 0.013135 0.999914 0.000000
vn 0.522137 0.763847 0.379355
vn 0.379355 0.763847 0.522137
vn 0.200148 0.761905 0.615988
vn 0.199440 0.763847 0.613809
vn -0.000000 0.761905 0.647689
vn -0.000001 0.763847 0.645397
vn -0.200148 0.761905 0.615988
vn -0.199440 0.763847 0.613809
vn -0.380701 0.761905 0.523991
vn -0.379354 0.763848 0.522137
vn -0.523991 0.761905 0.380702
vn -0.522137 0.763847 0.379355
vn -0.615988 0.761905 0.200147
vn -0.613809 0.763848 0.199439
vn -0.647689 0.761905 0.000000
vn -0.645397 0.763847 0.000000
vn -0.615988 0.761905 -0.200147
vn -0.613809 0.763848 -0.199438
vn -0.523991 0.761905 -0.380702
vn -0.522137 0.763847 -0.379355
vn -0.380702 0.761905 -0.523991
vn -0.379355 0.763847 -0.522137
vn -0.200148 0.761905 -0.615988
vn -0.199440 0.763847 -0.613809
vn 0.000000 0.761905 -0.647688
vn 0.000001 0.763847 -0.645397
vn 0.200148 0.761905 -0.615988
vn 0.199440 0.763847 -0.613809
vn 0.380701 0.761905 -0.523991
vn 0.379354 0.763847 -0.522137
vn 0.523991 0.761905 -0.380702
vn 0.522137 0.763848 -0.379355
vn 0.615988 0.761906 -0.200146
vn 0.613809 0.763848 -0.199438
vn 0.647688 0.761905 0.000001
vn 0.645397 0.763847 0.000001
vn 0.615988 0.761905 0.200147
vn 0.613809 0.763847 0.199439
vn 0.485336 0.859989 -0.157695
vn 0.412852 0.859989 -0.299954
vn 0.335635 0.935658 -0.109053
vn 0.285508 0.935659 -0.207432
vn 0.176030 0.982722 -0.057195
vn 0.149740 0.982722 -0.108791
vn 0.299953 0.859989 -0.412852
vn 0.207432 0.935659 -0.285507
vn 0.108792 0.982722 -0.149740
vn 0.157700 0.859988 -0.485336
vn 0.109057 0.935658 -0.335634
vn 0.057197 0.982722 -0.176030
vn 0.000002 0.859989 -0.510313
vn 0.000001 0.935659 -0.352907
vn 0.000001 0.982722 -0.185089
vn -0.157700 0.859989 -0.485334
vn -0.109057 0.935659 -0.335632
vn -0.057197 0.982722 -0.176029
vn -0.299955 0.859989 -0.412851
vn -0.207433 0.935659 -0.285507
vn -0.108792 0.982722 -0.149742
vn -0.412852 0.859989 -0.299954
vn -0.285508 0.935659 -0.207432
vn -0.149740 0.982722 -0.108793
vn -0.485337 0.859989 -0.157695
vn -0.335635 0.935658 -0.109054
vn -0.176030 0.982722 -0.057195
vn -0.510314 0.859988 0.000000
vn -0.352907 0.935659 0.000000
vn -0.185088 0.982722 0.000000
vn -0.485337 0.859988 0.157696
vn -0.335635 0.935659 0.109054
vn -0.176030 0.982722 0.057196
vn -0.412852 0.859989 0.299955
vn -0.285508 0.935659 0.207433
vn -0.149740 0.982722 0.108791
vn -0.299953 0.859989 0.412853
vn -0.207433 0.935658 0.285509
vn -0.108792 0.982722 0.149738
vn -0.157700 0.859988 0.485336
vn -0.109057 0.935658 0.335634
vn -0.057197 0.982722 0.176027
vn -0.000002 0.859988 0.510314
vn -0.000001 0.935659 0.352906
vn -0.000001 0.982722 0.185088
vn 0.157700 0.859989 0.485335
vn 0.109057 0.935658 0.335635
vn 0.057197 0.982722 0.176030
vn 0.299955 0.859989 0.412850
vn 0.207434 0.935658 0.285509
vn 0.108792 0.982722 0.149741
vn 0.412852 0.859989 0.299954
vn 0.285508 0.935658 0.207433
vn 0.149740 0.982722 0.108791
vn 0.485337 0.859989 0.157696
vn 0.335635 0.935658 0.109054
vn 0.176030 0.982722 0.057195
vn 0.510313 0.859989 0.000000
vn 0.352907 0.935658 0.000000
vn 0.185088 0.982722 -0.000000
vn 0.247050 0.600705 0.760342
vn 0.281089 0.415433 0.865104
vn 0.302126 0.210003 0.929849
vn 0.000000 0.600706 0.799470
vn -0.000000 0.415431 0.909625
vn 0.000000 0.210002 0.977701
vn -0.247050 0.600705 0.760342
vn -0.281089 0.415432 0.865104
vn -0.302126 0.210003 0.929849
vn -0.469918 0.600704 0.646786
vn -0.534663 0.415431 0.735902
vn -0.574677 0.210005 0.790977
vn -0.646786 0.600704 0.469918
vn -0.735902 0.415428 0.534666
vn -0.790977 0.210005 0.574677
vn -0.760344 0.600703 0.247050
vn -0.865105 0.415429 0.281090
vn -0.929848 0.210006 0.302126
vn -0.799473 0.600703 -0.000000
vn -0.909625 0.415431 -0.000000
vn -0.977700 0.210008 0.000000
vn -0.760343 0.600704 -0.247050
vn -0.865106 0.415428 -0.281090
vn -0.929849 0.210004 -0.302126
vn -0.646785 0.600706 -0.469917
vn -0.735903 0.415428 -0.534665
vn -0.790977 0.210003 -0.574677
vn -0.469915 0.600707 -0.646785
vn -0.534665 0.415432 -0.735901
vn -0.574678 0.210005 -0.790976
vn -0.247050 0.600707 -0.760341
vn -0.281089 0.415434 -0.865103
vn -0.302126 0.210004 -0.929848
vn -0.000000 0.600706 -0.799470
vn 0.000000 0.415433 -0.909624
vn 0.000000 0.210004 -0.977701
vn 0.247050 0.600706 -0.760341
vn 0.281089 0.415433 -0.865104
vn 0.302126 0.210004 -0.929848
vn 0.469916 0.600707 -0.646785
vn 0.534664 0.415432 -0.735901
vn 0.574678 0.210004 -0.790977
vn 0.646784 0.600707 -0.469917
vn 0.735902 0.415431 -0.534664
vn 0.790977 0.210003 -0.574678
vn 0.760342 0.600705 -0.247049
vn 0.865106 0.415427 -0.281089
vn 0.929849 0.210003 -0.302126
vn 0.799469 0.600707 0.000001
vn 0.909627 0.415427 0.000001
vn 0.977701 0.210004 0.000001
vn 0.760340 0.600708 0.247050
vn 0.865104 0.415431 0.281089
vn 0.929848 0.210007 0.302126
s 1
g S_P27_geo SP27_low_03
usemtl aiStandardSurface1SG
f 224/125/201 223/126/202 226/127/203 225/128/204
f 223/126/202 222/129/205 227/130/206 226/127/203
f 222/129/205 221/131/207 228/132/208 227/130/206
f 221/131/207 220/133/209 229/134/210 228/132/208
f 99/369/211 100/136/212 300/137/213 305/368/214
f 100/136/212 101/139/215 295/140/216 300/137/213
f 101/139/215 102/141/217 290/142/218 295/140/216
f 102/141/217 103/143/219 285/144/220 290/142/218
f 103/143/219 104/145/221 280/146/222 285/144/220
f 104/145/221 105/147/223 275/148/224 280/146/222
f 105/147/223 106/149/225 270/150/226 275/148/224
f 106/149/225 107/151/227 265/152/228 270/150/226
f 107/151/227 108/153/229 260/154/230 265/152/228
f 108/153/229 109/155/231 255/156/232 260/154/230
f 109/155/231 110/157/233 250/158/234 255/156/232
f 110/157/233 111/159/235 245/160/236 250/158/234
f 111/159/235 112/161/237 240/162/238 245/160/236
f 112/161/237 113/163/239 235/164/240 240/162/238
f 113/163/239 114/165/241 230/166/242 235/164/240
f 114/165/241 115/167/243 225/128/204 230/166/242
f 115/167/243 116/168/244 224/125/201 225/128/204
f 116/168/244 117/169/245 315/170/246 224/125/201
f 117/169/245 118/171/247 310/172/248 315/170/246
f 118/171/247 99/135/211 305/138/214 310/172/248
f 120/173/249 125/174/250 119/175/251
f 125/174/250 130/176/252 119/175/251
f 130/176/252 135/177/253 119/175/251
f 135/177/253 140/178/254 119/175/251
f 140/178/254 145/179/255 119/175/251
f 145/179/255 150/180/256 119/175/251
f 150/180/256 155/181/257 119/175/251
f 155/181/257 160/182/258 119/175/251
f 160/182/258 165/183/259 119/175/251
f 165/183/259 170/184/260 119/175/251
f 170/184/260 175/185/261 119/175/251
f 175/185/261 180/186/262 119/175/251
f 180/186/262 185/187/263 119/175/251
f 185/187/263 190/188/264 119/175/251
f 190/188/264 195/189/265 119/175/251
f 195/189/265 200/190/266 119/175/251
f 200/190/266 205/191/267 119/175/251
f 205/191/267 210/192/268 119/175/251
f 210/192/268 215/193/269 119/175/251
f 215/193/269 120/173/249 119/175/251
f 229/134/210 220/133/209 209/194/270 204/195/271
f 234/196/272 229/134/210 204/195/271 199/197/273
f 239/198/274 234/196/272 199/197/273 194/199/275
f 244/200/276 239/198/274 194/199/275 189/201/277
f 249/202/278 244/200/276 189/201/277 184/203/279
f 254/204/280 249/202/278 184/203/279 179/205/281
f 259/206/282 254/204/280 179/205/281 174/207/283
f 264/208/284 259/206/282 174/207/283 169/209/285
f 269/210/286 264/208/284 169/209/285 164/211/287
f 274/212/288 269/210/286 164/211/287 159/213/289
f 279/214/290 274/212/288 159/213/289 154/215/291
f 284/216/292 279/214/290 154/215/291 149/217/293
f 289/218/294 284/216/292 149/217/293 144/219/295
f 294/220/296 289/218/294 144/219/295 139/221/297
f 299/222/298 294/220/296 139/221/297 134/223/299
f 304/224/300 299/222/298 134/223/299 129/225/301
f 309/226/302 304/224/300 129/225/301 124/366/303
f 314/228/304 309/367/302 124/227/303 219/229/305
f 319/230/306 314/228/304 219/229/305 214/231/307
f 220/133/209 319/230/306 214/231/307 209/194/270
f 123/232/308 124/365/303 129/364/301 128/233/309
f 122/234/310 123/232/308 128/233/309 127/235/311
f 120/173/249 121/236/312 126/237/313 125/174/250
f 121/236/312 122/234/310 127/235/311 126/237/313
f 128/233/309 129/364/301 134/363/299 133/238/314
f 127/235/311 128/233/309 133/238/314 132/239/315
f 125/174/250 126/237/313 131/240/316 130/176/252
f 126/237/313 127/235/311 132/239/315 131/240/316
f 133/238/314 134/363/299 139/362/297 138/241/317
f 132/239/315 133/238/314 138/241/317 137/242/318
f 130/176/252 131/240/316 136/243/319 135/177/253
f 131/240/316 132/239/315 137/242/318 136/243/319
f 138/241/317 139/362/297 144/361/295 143/244/320
f 137/242/318 138/241/317 143/244/320 142/245/321
f 135/177/253 136/243/319 141/246/322 140/178/254
f 136/243/319 137/242/318 142/245/321 141/246/322
f 143/244/320 144/361/295 149/360/293 148/247/323
f 142/245/321 143/244/320 148/247/323 147/248/324
f 140/178/254 141/246/322 146/249/325 145/179/255
f 141/246/322 142/245/321 147/248/324 146/249/325
f 148/247/323 149/360/293 154/359/291 153/250/326
f 147/248/324 148/247/323 153/250/326 152/251/327
f 145/179/255 146/249/325 151/252/328 150/180/256
f 146/249/325 147/248/324 152/251/327 151/252/328
f 153/250/326 154/359/291 159/358/289 158/253/329
f 152/251/327 153/250/326 158/253/329 157/254/330
f 150/180/256 151/252/328 156/255/331 155/181/257
f 151/252/328 152/251/327 157/254/330 156/255/331
f 158/253/329 159/358/289 164/357/287 163/256/332
f 157/254/330 158/253/329 163/256/332 162/257/333
f 155/181/257 156/255/331 161/258/334 160/182/258
f 156/255/331 157/254/330 162/257/333 161/258/334
f 163/256/332 164/357/287 169/356/285 168/259/335
f 162/257/333 163/256/332 168/259/335 167/260/336
f 160/182/258 161/258/334 166/261/337 165/183/259
f 161/258/334 162/257/333 167/260/336 166/261/337
f 168/259/335 169/356/285 174/355/283 173/262/338
f 167/260/336 168/259/335 173/262/338 172/263/339
f 165/183/259 166/261/337 171/264/340 170/184/260
f 166/261/337 167/260/336 172/263/339 171/264/340
f 173/262/338 174/355/283 179/354/281 178/265/341
f 172/263/339 173/262/338 178/265/341 177/266/342
f 170/184/260 171/264/340 176/267/343 175/185/261
f 171/264/340 172/263/339 177/266/342 176/267/343
f 178/265/341 179/354/281 184/353/279 183/268/344
f 177/266/342 178/265/341 183/268/344 182/269/345
f 175/185/261 176/267/343 181/270/346 180/186/262
f 176/267/343 177/266/342 182/269/345 181/270/346
f 183/268/344 184/353/279 189/352/277 188/271/347
f 182/269/345 183/268/344 188/271/347 187/272/348
f 180/186/262 181/270/346 186/273/349 185/187/263
f 181/270/346 182/269/345 187/272/348 186/273/349
f 188/271/347 189/352/277 194/351/275 193/274/350
f 187/272/348 188/271/347 193/274/350 192/275/351
f 185/187/263 186/273/349 191/276/352 190/188/264
f 186/273/349 187/272/348 192/275/351 191/276/352
f 193/274/350 194/351/275 199/350/273 198/277/353
f 192/275/351 193/274/350 198/277/353 197/278/354
f 190/188/264 191/276/352 196/279/355 195/189/265
f 191/276/352 192/275/351 197/278/354 196/279/355
f 198/277/353 199/350/273 204/349/271 203/280/356
f 197/278/354 198/277/353 203/280/356 202/281/357
f 195/189/265 196/279/355 201/282/358 200/190/266
f 196/279/355 197/278/354 202/281/357 201/282/358
f 203/280/356 204/349/271 209/348/270 208/283/359
f 202/281/357 203/280/356 208/283/359 207/284/360
f 200/190/266 201/282/358 206/285/361 205/191/267
f 201/282/358 202/281/357 207/284/360 206/285/361
f 208/283/359 209/348/270 214/346/307 213/286/362
f 207/284/360 208/283/359 213/286/362 212/287/363
f 205/191/267 206/285/361 211/288/364 210/192/268
f 206/285/361 207/284/360 212/287/363 211/288/364
f 213/286/362 214/346/307 219/347/305 218/289/365
f 212/287/363 213/286/362 218/289/365 217/290/366
f 210/192/268 211/288/364 216/291/367 215/193/269
f 211/288/364 212/287/363 217/290/366 216/291/367
f 124/365/303 123/232/308 218/289/365 219/347/305
f 123/232/308 122/234/310 217/290/366 218/289/365
f 122/234/310 121/236/312 216/291/367 217/290/366
f 121/236/312 120/173/249 215/193/269 216/291/367
f 228/132/208 229/134/210 234/196/272 233/292/368
f 227/130/206 228/132/208 233/292/368 232/293/369
f 225/128/204 226/127/203 231/294/370 230/166/242
f 226/127/203 227/130/206 232/293/369 231/294/370
f 233/292/368 234/196/272 239/198/274 238/295/371
f 232/293/369 233/292/368 238/295/371 237/296/372
f 230/166/242 231/294/370 236/297/373 235/164/240
f 231/294/370 232/293/369 237/296/372 236/297/373
f 238/295/371 239/198/274 244/200/276 243/298/374
f 237/296/372 238/295/371 243/298/374 242/299/375
f 235/164/240 236/297/373 241/300/376 240/162/238
f 236/297/373 237/296/372 242/299/375 241/300/376
f 243/298/374 244/200/276 249/202/278 248/301/377
f 242/299/375 243/298/374 248/301/377 247/302/378
f 240/162/238 241/300/376 246/303/379 245/160/236
f 241/300/376 242/299/375 247/302/378 246/303/379
f 248/301/377 249/202/278 254/204/280 253/304/380
f 247/302/378 248/301/377 253/304/380 252/305/381
f 245/160/236 246/303/379 251/306/382 250/158/234
f 246/303/379 247/302/378 252/305/381 251/306/382
f 253/304/380 254/204/280 259/206/282 258/307/383
f 252/305/381 253/304/380 258/307/383 257/308/384
f 250/158/234 251/306/382 256/309/385 255/156/232
f 251/306/382 252/305/381 257/308/384 256/309/385
f 258/307/383 259/206/282 264/208/284 263/310/386
f 257/308/384 258/307/383 263/310/386 262/311/387
f 255/156/232 256/309/385 261/312/388 260/154/230
f 256/309/385 257/308/384 262/311/387 261/312/388
f 263/310/386 264/208/284 269/210/286 268/313/389
f 262/311/387 263/310/386 268/313/389 267/314/390
f 260/154/230 261/312/388 266/315/391 265/152/228
f 261/312/388 262/311/387 267/314/390 266/315/391
f 268/313/389 269/210/286 274/212/288 273/316/392
f 267/314/390 268/313/389 273/316/392 272/317/393
f 265/152/228 266/315/391 271/318/394 270/150/226
f 266/315/391 267/314/390 272/317/393 271/318/394
f 273/316/392 274/212/288 279/214/290 278/319/395
f 272/317/393 273/316/392 278/319/395 277/320/396
f 270/150/226 271/318/394 276/321/397 275/148/224
f 271/318/394 272/317/393 277/320/396 276/321/397
f 278/319/395 279/214/290 284/216/292 283/322/398
f 277/320/396 278/319/395 283/322/398 282/323/399
f 275/148/224 276/321/397 281/324/400 280/146/222
f 276/321/397 277/320/396 282/323/399 281/324/400
f 283/322/398 284/216/292 289/218/294 288/325/401
f 282/323/399 283/322/398 288/325/401 287/326/402
f 280/146/222 281/324/400 286/327/403 285/144/220
f 281/324/400 282/323/399 287/326/402 286/327/403
f 288/325/401 289/218/294 294/220/296 293/328/404
f 287/326/402 288/325/401 293/328/404 292/329/405
f 285/144/220 286/327/403 291/330/406 290/142/218
f 286/327/403 287/326/402 292/329/405 291/330/406
f 293/328/404 294/220/296 299/222/298 298/331/407
f 292/329/405 293/328/404 298/331/407 297/332/408
f 290/142/218 291/330/406 296/333/409 295/140/216
f 291/330/406 292/329/405 297/332/408 296/333/409
f 298/331/407 299/222/298 304/224/300 303/334/410
f 297/332/408 298/331/407 303/334/410 302/335/411
f 295/140/216 296/333/409 301/336/412 300/137/213
f 296/333/409 297/332/408 302/335/411 301/336/412
f 303/334/410 304/224/300 309/226/302 308/370/413
f 302/335/411 303/334/410 308/370/413 307/371/414
f 300/137/213 301/336/412 306/372/415 305/368/214
f 301/336/412 302/335/411 307/371/414 306/372/415
f 308/337/413 309/367/302 314/228/304 313/340/416
f 307/338/414 308/337/413 313/340/416 312/341/417
f 305/138/214 306/339/415 311/342/418 310/172/248
f 306/339/415 307/338/414 312/341/417 311/342/418
f 313/340/416 314/228/304 319/230/306 318/343/419
f 312/341/417 313/340/416 318/343/419 317/344/420
f 310/172/248 311/342/418 316/345/421 315/170/246
f 311/342/418 312/341/417 317/344/420 316/345/421
f 220/133/209 221/131/207 318/343/419 319/230/306
f 221/131/207 222/129/205 317/344/420 318/343/419
f 222/129/205 223/126/202 316/345/421 317/344/420
f 223/126/202 224/125/201 315/170/246 316/345/421
