# This file uses centimeters as units for non-parametric coordinates.

mtllib S_P31_01.mtl
g default
v -56.401493 88.894897 5.466822
v -48.532253 88.894897 5.466822
v -48.532253 102.240715 5.464882
v -56.401485 102.240715 5.464882
v -30.168056 88.894897 5.466822
v -22.298815 88.894897 5.466822
v -22.298811 102.240715 5.464882
v -30.168056 102.240715 5.464882
v -3.934620 88.894897 5.466822
v 3.934623 88.894897 5.466822
v 3.934624 102.240715 5.464882
v -3.934619 102.240715 5.464882
v 22.298822 88.894897 5.466822
v 30.168064 88.894897 5.466822
v 30.168064 102.240715 5.464882
v 22.298822 102.240715 5.464882
v 48.532261 88.894897 5.466822
v 56.401497 88.894897 5.466822
v 56.401493 102.240715 5.464882
v 48.532253 102.240715 5.464882
v -85.260979 89.045319 20.577599
v -84.745911 -0.272461 11.553698
v -78.354355 -0.272461 11.553698
v -78.700317 89.045319 20.577599
v -85.260979 88.724098 -11.691672
v -78.700317 88.724098 -11.691672
v -78.354355 -0.272461 -10.727077
v -84.745911 -0.272461 -10.727077
v 84.745911 -0.272461 11.553698
v 85.260979 89.045319 20.577599
v 78.700317 89.045319 20.577599
v 78.354340 -0.272461 11.553698
v 85.260979 88.724098 -11.691672
v 84.745911 -0.272461 -10.727077
v 78.354340 -0.272461 -10.727077
v 78.700317 88.724098 -11.691672
v -85.260979 89.125534 28.313183
v -78.700317 89.125534 28.313183
v -78.700317 98.637375 28.313183
v -85.260979 98.637383 28.313183
v -78.700310 99.890541 20.573954
v -85.260979 99.890549 20.573956
v -85.260979 104.909370 -11.691672
v -78.700317 104.909363 -11.691672
v 85.260979 98.637383 28.313183
v 85.260979 89.125534 28.313183
v 85.260979 99.890549 20.573956
v 78.700317 98.637375 28.313183
v 78.700317 89.125534 28.313183
v 78.700310 99.890541 20.573954
v 78.700317 104.909363 -11.691672
v 85.260979 104.909370 -11.691672
v -48.532253 104.909363 -11.691672
v -56.401497 104.909363 -11.691672
v -56.401497 88.724091 -11.691672
v -48.532253 88.724091 -11.691672
v -22.298815 104.909363 -11.691672
v -30.168058 104.909363 -11.691672
v -30.168058 88.724091 -11.691672
v -22.298815 88.724091 -11.691672
v 3.934623 104.909363 -11.691672
v -3.934620 104.909363 -11.691672
v -3.934620 88.724091 -11.691672
v 3.934623 88.724091 -11.691672
v 30.168066 104.909363 -11.691672
v 22.298822 104.909363 -11.691672
v 22.298822 88.724091 -11.691672
v 30.168066 88.724091 -11.691672
v 56.401497 104.909363 -11.691672
v 48.532265 104.909363 -11.691672
v 48.532265 88.724091 -11.691672
v 56.401497 88.724091 -11.691672
v 56.401497 98.637383 28.313183
v 56.401497 89.125534 28.313183
v -56.401497 98.637383 28.313187
v -56.401497 89.125534 28.313187
v -48.532253 98.637383 28.313187
v -30.168060 98.637383 28.313187
v -48.532253 89.125534 28.313187
v -30.168060 89.125534 28.313187
v -22.298815 98.637383 28.313187
v -3.934620 98.637383 28.313183
v -22.298815 89.125534 28.313187
v -3.934620 89.125534 28.313183
v 3.934624 98.637383 28.313183
v 22.298822 98.637383 28.313183
v 3.934624 89.125534 28.313183
v 22.298822 89.125534 28.313183
v 30.168066 98.637383 28.313183
v 48.532265 98.637383 28.313183
v 30.168066 89.125534 28.313183
v 48.532265 89.125534 28.313183
vt 0.236566 0.866992
vt 0.267557 0.867001
vt 0.267542 0.919596
vt 0.236551 0.919596
vt 0.519826 0.867037
vt 0.550816 0.867037
vt 0.550817 0.919596
vt 0.519826 0.919596
vt 0.164293 0.745586
vt 0.195195 0.745601
vt 0.195170 0.798105
vt 0.164269 0.798105
vt 0.446738 0.745683
vt 0.477639 0.745689
vt 0.477630 0.798105
vt 0.446728 0.798105
vt 0.729182 0.745698
vt 0.760084 0.745695
vt 0.760089 0.798105
vt 0.729188 0.798105
vt 0.446271 0.742400
vt 0.446271 0.356658
vt 0.474322 0.356658
vt 0.474322 0.742400
vt 0.328641 0.742400
vt 0.300742 0.742400
vt 0.300742 0.356658
vt 0.328641 0.356658
vt 0.591633 0.742400
vt 0.591633 0.356658
vt 0.147976 0.742344
vt 0.147976 0.356612
vt 0.176028 0.356612
vt 0.176028 0.742344
vt 0.030342 0.356612
vt 0.030342 0.742344
vt 0.002441 0.742344
vt 0.002441 0.356612
vt 0.293340 0.356612
vt 0.293340 0.742344
vt 0.032938 0.867813
vt 0.058775 0.867824
vt 0.058759 0.919596
vt 0.032922 0.919596
vt 0.030770 0.036384
vt 0.002446 0.036387
vt 0.002441 0.002540
vt 0.030766 0.002536
vt 0.622485 0.922838
vt 0.652743 0.922838
vt 0.652743 0.985185
vt 0.622485 0.985185
vt 0.002447 0.319921
vt 0.030771 0.319926
vt 0.030766 0.353325
vt 0.002441 0.353320
vt 0.963135 0.798105
vt 0.963126 0.746549
vt 0.993502 0.746226
vt 0.993527 0.798105
vt 0.002441 0.919596
vt 0.002474 0.867484
vt 0.937372 0.798105
vt 0.937363 0.746555
vt 0.738642 0.036289
vt 0.710317 0.036293
vt 0.710313 0.002445
vt 0.738637 0.002441
vt 0.816471 0.863795
vt 0.816471 0.801347
vt 0.846776 0.801347
vt 0.846776 0.863795
vt 0.738638 0.353442
vt 0.710313 0.353438
vt 0.710319 0.320039
vt 0.738643 0.320044
vt 0.473670 0.985185
vt 0.473670 0.922838
vt 0.995828 0.801347
vt 0.995828 0.863795
vt 0.710336 0.177269
vt 0.738661 0.177265
vt 0.002465 0.177363
vt 0.030789 0.177359
vt 0.127050 0.102386
vt 0.161024 0.102381
vt 0.161034 0.177342
vt 0.127060 0.177347
vt 0.161027 0.254707
vt 0.127053 0.254701
vt 0.127065 0.180619
vt 0.161039 0.180624
vt 0.791876 0.985185
vt 0.755584 0.985185
vt 0.755584 0.922838
vt 0.791876 0.922838
vt 0.240308 0.102371
vt 0.274282 0.102366
vt 0.274292 0.177327
vt 0.240318 0.177332
vt 0.274285 0.254725
vt 0.240311 0.254720
vt 0.240323 0.180637
vt 0.274297 0.180643
vt 0.912864 0.985185
vt 0.876571 0.985185
vt 0.876571 0.922838
vt 0.912864 0.922838
vt 0.353566 0.102356
vt 0.387540 0.102351
vt 0.387550 0.177312
vt 0.353576 0.177316
vt 0.387543 0.254744
vt 0.353569 0.254738
vt 0.353581 0.180656
vt 0.387555 0.180662
vt 0.471111 0.863795
vt 0.434761 0.863795
vt 0.434761 0.801347
vt 0.471111 0.801347
vt 0.466824 0.102341
vt 0.500798 0.102336
vt 0.500808 0.177297
vt 0.466834 0.177301
vt 0.500801 0.254763
vt 0.466827 0.254757
vt 0.466839 0.180675
vt 0.500813 0.180681
vt 0.592290 0.863795
vt 0.555940 0.863795
vt 0.555940 0.801347
vt 0.592290 0.801347
vt 0.580081 0.102325
vt 0.614055 0.102321
vt 0.614065 0.177282
vt 0.580091 0.177286
vt 0.614059 0.254782
vt 0.580085 0.254776
vt 0.580097 0.180694
vt 0.614071 0.180700
vt 0.713468 0.863795
vt 0.677118 0.863795
vt 0.677118 0.801347
vt 0.713468 0.801347
vt 0.849808 0.798105
vt 0.849799 0.746578
vt 0.614042 0.002458
vt 0.614042 0.353422
vt 0.127037 0.002523
vt 0.146593 0.867862
vt 0.146576 0.919596
vt 0.127037 0.353341
vt 0.030794 0.180603
vt 0.161011 0.002519
vt 0.240295 0.002508
vt 0.357525 0.919596
vt 0.357530 0.867922
vt 0.429852 0.867933
vt 0.429847 0.919596
vt 0.240295 0.353360
vt 0.161011 0.353346
vt 0.274268 0.002504
vt 0.353552 0.002493
vt 0.002441 0.798105
vt 0.002464 0.746392
vt 0.074578 0.746436
vt 0.074555 0.798105
vt 0.353552 0.353378
vt 0.274269 0.353365
vt 0.997559 0.922838
vt 0.997559 0.985185
vt 0.387526 0.002489
vt 0.466810 0.002478
vt 0.284897 0.798105
vt 0.284909 0.746536
vt 0.357023 0.746559
vt 0.357011 0.798105
vt 0.466810 0.353397
vt 0.387526 0.353384
vt 0.500784 0.002474
vt 0.580068 0.002463
vt 0.567352 0.798105
vt 0.567354 0.746598
vt 0.639468 0.746600
vt 0.639466 0.798105
vt 0.580068 0.353416
vt 0.500784 0.353403
vt 0.710342 0.180716
vt 0.640796 0.919596
vt 0.640790 0.867932
vn 0.000000 0.000145 1.000000
vn 0.000000 0.000145 1.000000
vn 0.000000 0.000145 1.000000
vn 0.000000 0.000145 1.000000
vn 0.000000 0.000145 1.000000
vn 0.000000 0.000145 1.000000
vn 0.000000 0.000145 1.000000
vn 0.000000 0.000145 1.000000
vn 0.000000 0.000145 1.000000
vn 0.000000 0.000145 1.000000
vn 0.000000 0.000145 1.000000
vn 0.000000 0.000145 1.000000
vn 0.000000 0.000145 1.000000
vn 0.000000 0.000145 1.000000
vn 0.000000 0.000145 1.000000
vn 0.000000 0.000145 1.000000
vn 0.000000 0.000145 1.000000
vn 0.000000 0.000145 1.000000
vn 0.000000 0.000145 1.000000
vn 0.000000 0.000145 1.000000
vn 0.000000 0.000145 1.000000
vn 0.000000 0.000145 1.000000
vn 0.000000 0.000145 1.000000
vn 0.000000 0.000145 1.000000
vn 0.000000 0.000145 1.000000
vn 0.000000 0.000145 1.000000
vn 0.000000 0.000145 1.000000
vn 0.000000 0.000145 1.000000
vn 0.000000 0.000145 1.000000
vn 0.000000 0.000145 1.000000
vn 0.000000 -0.100520 0.994935
vn 0.000000 -0.100520 0.994935
vn 0.000000 -0.100520 0.994935
vn 0.000000 -0.100520 0.994935
vn 0.000000 -0.100520 0.994935
vn 0.000000 -0.100520 0.994935
vn 0.000000 -0.010838 -0.999941
vn 0.000000 -0.010838 -0.999941
vn 0.000000 -0.010838 -0.999941
vn 0.000000 -0.010838 -0.999941
vn 0.000000 -0.010838 -0.999941
vn 0.000000 -0.010838 -0.999941
vn 0.999992 0.003881 -0.000023
vn 0.999992 0.003881 -0.000023
vn 0.999992 0.003881 -0.000023
vn 0.999992 0.003881 -0.000023
vn 0.999992 0.003881 -0.000023
vn 0.999992 0.003881 -0.000023
vn -0.999983 -0.005779 0.000034
vn -0.999983 -0.005779 0.000034
vn -0.999983 -0.005779 0.000034
vn -0.999983 -0.005779 0.000034
vn -0.999983 -0.005779 0.000034
vn -0.999983 -0.005779 0.000034
vn 0.000000 -0.100520 0.994935
vn 0.000000 -0.100520 0.994935
vn 0.000000 -0.100520 0.994935
vn 0.000000 -0.100520 0.994935
vn 0.000000 -0.100520 0.994935
vn 0.000000 -0.100520 0.994935
vn 0.000000 -0.010838 -0.999941
vn 0.000000 -0.010838 -0.999941
vn 0.000000 -0.010838 -0.999941
vn 0.000000 -0.010838 -0.999941
vn 0.000000 -0.010838 -0.999941
vn 0.000000 -0.010838 -0.999941
vn -0.999992 0.003882 -0.000023
vn -0.999992 0.003882 -0.000023
vn -0.999992 0.003882 -0.000023
vn -0.999992 0.003882 -0.000023
vn -0.999992 0.003882 -0.000023
vn -0.999992 0.003882 -0.000023
vn 0.999983 -0.005779 0.000034
vn 0.999983 -0.005779 0.000034
vn 0.999983 -0.005779 0.000034
vn 0.999983 -0.005779 0.000034
vn 0.999983 -0.005779 0.000034
vn 0.999983 -0.005779 0.000034
vn 0.000000 0.000000 1.000000
vn 0.000000 0.000000 1.000000
vn 0.000000 0.000000 1.000000
vn 0.000000 0.000000 1.000000
vn 0.000000 0.000000 1.000000
vn 0.000000 0.000000 1.000000
vn 0.000940 0.987566 0.157203
vn 0.000474 0.987858 0.155356
vn 0.000001 0.987932 0.154889
vn 0.000001 0.987932 0.154889
vn 0.000001 0.987143 0.159843
vn 0.000940 0.987566 0.157203
vn 0.000000 0.000000 -1.000000
vn 0.000000 0.000000 -1.000000
vn 0.000000 0.000000 -1.000000
vn 0.000000 0.000000 -1.000000
vn 0.000000 0.000000 -1.000000
vn 0.000000 0.000000 -1.000000
vn 0.000000 -0.999946 0.010370
vn 0.000000 -0.999946 0.010370
vn 0.000039 -0.999949 0.010093
vn 0.000039 -0.999949 0.010093
vn 0.000062 -0.999948 0.010191
vn 0.000000 -0.999946 0.010370
vn 1.000000 0.000000 0.000000
vn 1.000000 0.000000 0.000000
vn 1.000000 0.000000 0.000000
vn 1.000000 0.000000 0.000000
vn 1.000000 0.000000 0.000000
vn 1.000000 0.000000 0.000000
vn -1.000000 0.000000 0.000000
vn -1.000000 0.000000 0.000000
vn -1.000000 0.000000 0.000000
vn -1.000000 0.000000 0.000000
vn -1.000000 0.000000 0.000000
vn -1.000000 0.000000 0.000000
vn 0.000000 0.000000 1.000000
vn 0.000000 0.000000 1.000000
vn 0.000000 0.000000 1.000000
vn 0.000000 0.000000 1.000000
vn 0.000000 0.000000 1.000000
vn 0.000000 0.000000 1.000000
vn -0.000001 0.987143 0.159843
vn -0.000001 0.987932 0.154889
vn -0.000474 0.987859 0.155355
vn -0.000474 0.987859 0.155355
vn -0.000940 0.987566 0.157203
vn -0.000001 0.987143 0.159843
vn 0.000000 0.000000 -1.000000
vn 0.000000 0.000000 -1.000000
vn 0.000000 0.000000 -1.000000
vn 0.000000 0.000000 -1.000000
vn 0.000000 0.000000 -1.000000
vn 0.000000 0.000000 -1.000000
vn 0.000000 -0.999946 0.010370
vn 0.000000 -0.999946 0.010370
vn -0.000062 -0.999948 0.010191
vn -0.000062 -0.999948 0.010191
vn -0.000039 -0.999949 0.010093
vn 0.000000 -0.999946 0.010370
vn -1.000000 0.000000 0.000000
vn -1.000000 0.000000 0.000000
vn -1.000000 0.000000 0.000000
vn -1.000000 0.000000 0.000000
vn -1.000000 0.000000 0.000000
vn -1.000000 0.000000 0.000000
vn 1.000000 0.000000 0.000000
vn 1.000000 0.000000 0.000000
vn 1.000000 0.000000 0.000000
vn 1.000000 0.000000 0.000000
vn 1.000000 0.000000 0.000000
vn 1.000000 0.000000 0.000000
vn -0.000001 0.988118 0.153699
vn 0.000000 0.988118 0.153699
vn -0.000474 0.987859 0.155355
vn -0.000474 0.987859 0.155355
vn -0.000001 0.987932 0.154889
vn -0.000001 0.988118 0.153699
vn 0.000000 0.988118 0.153699
vn 0.000001 0.988118 0.153699
vn 0.000001 0.987932 0.154889
vn 0.000001 0.987932 0.154889
vn 0.000474 0.987858 0.155356
vn 0.000000 0.988118 0.153699
vn 0.000000 0.988118 0.153699
vn 0.000205 0.988026 0.154290
vn 0.000000 0.987961 0.154704
vn 0.000000 0.987961 0.154704
vn 0.000000 0.988118 0.153699
vn 0.000000 0.988118 0.153699
vn 0.000000 -0.999950 0.009955
vn 0.000000 -0.999950 0.010022
vn 0.000013 -0.999950 0.009994
vn 0.000013 -0.999950 0.009994
vn 0.000000 -0.999950 0.009954
vn 0.000000 -0.999950 0.009955
vn 0.000000 0.000000 -1.000000
vn 0.000000 0.000000 -1.000000
vn 0.000000 0.000000 -1.000000
vn 0.000000 0.000000 -1.000000
vn 0.000000 0.000000 -1.000000
vn 0.000000 0.000000 -1.000000
vn 0.000000 0.988118 0.153699
vn 0.000000 0.987961 0.154704
vn 0.000000 0.987961 0.154704
vn 0.000000 0.987961 0.154704
vn 0.000000 0.988118 0.153699
vn 0.000000 0.988118 0.153699
vn 0.000000 -0.999950 0.009954
vn 0.000000 -0.999950 0.010022
vn 0.000000 -0.999950 0.010022
vn 0.000000 -0.999950 0.010022
vn 0.000000 -0.999950 0.009955
vn 0.000000 -0.999950 0.009954
vn 0.000000 0.000000 -1.000000
vn 0.000000 0.000000 -1.000000
vn 0.000000 0.000000 -1.000000
vn 0.000000 0.000000 -1.000000
vn 0.000000 0.000000 -1.000000
vn 0.000000 0.000000 -1.000000
vn 0.000000 0.988118 0.153699
vn 0.000000 0.987961 0.154704
vn 0.000000 0.987961 0.154704
vn 0.000000 0.987961 0.154704
vn 0.000000 0.988118 0.153698
vn 0.000000 0.988118 0.153699
vn 0.000000 -0.999950 0.009954
vn 0.000000 -0.999950 0.010022
vn 0.000000 -0.999950 0.010022
vn 0.000000 -0.999950 0.010022
vn 0.000000 -0.999950 0.009954
vn 0.000000 -0.999950 0.009954
vn 0.000000 0.000000 -1.000000
vn 0.000000 0.000000 -1.000000
vn 0.000000 0.000000 -1.000000
vn 0.000000 0.000000 -1.000000
vn 0.000000 0.000000 -1.000000
vn 0.000000 0.000000 -1.000000
vn 0.000000 0.988118 0.153698
vn 0.000000 0.987961 0.154704
vn 0.000000 0.987961 0.154704
vn 0.000000 0.987961 0.154704
vn 0.000000 0.988118 0.153699
vn 0.000000 0.988118 0.153698
vn 0.000000 -0.999950 0.009954
vn 0.000000 -0.999950 0.010022
vn 0.000000 -0.999950 0.010022
vn 0.000000 -0.999950 0.010022
vn 0.000000 -0.999950 0.009954
vn 0.000000 -0.999950 0.009954
vn 0.000000 0.000000 -1.000000
vn 0.000000 0.000000 -1.000000
vn 0.000000 0.000000 -1.000000
vn 0.000000 0.000000 -1.000000
vn 0.000000 0.000000 -1.000000
vn 0.000000 0.000000 -1.000000
vn 0.000000 0.988118 0.153699
vn 0.000000 0.987961 0.154704
vn -0.000205 0.988025 0.154291
vn -0.000205 0.988025 0.154291
vn 0.000000 0.988118 0.153699
vn 0.000000 0.988118 0.153699
vn 0.000000 -0.999950 0.009954
vn -0.000013 -0.999950 0.009994
vn 0.000000 -0.999950 0.010022
vn 0.000000 -0.999950 0.010022
vn 0.000000 -0.999950 0.009954
vn 0.000000 -0.999950 0.009954
vn 0.000000 0.000000 -1.000000
vn 0.000000 0.000000 -1.000000
vn 0.000000 0.000000 -1.000000
vn 0.000000 0.000000 -1.000000
vn 0.000000 0.000000 -1.000000
vn 0.000000 0.000000 -1.000000
vn 0.000000 0.000000 1.000000
vn 0.000000 0.000000 1.000000
vn 0.000000 0.000000 1.000000
vn 0.000000 0.000000 1.000000
vn 0.000000 0.000000 1.000000
vn 0.000000 0.000000 1.000000
vn -0.000474 0.987859 0.155355
vn -0.000205 0.988025 0.154291
vn -0.001079 0.987628 0.156809
vn -0.001079 0.987628 0.156809
vn -0.000940 0.987566 0.157203
vn -0.000474 0.987859 0.155355
vn 0.000000 0.000000 -1.000000
vn 0.000000 0.000000 -1.000000
vn 0.000000 0.000000 -1.000000
vn 0.000000 0.000000 -1.000000
vn 0.000000 0.000000 -1.000000
vn 0.000000 0.000000 -1.000000
vn -0.000039 -0.999949 0.010093
vn -0.000062 -0.999948 0.010191
vn -0.000071 -0.999948 0.010164
vn -0.000071 -0.999948 0.010164
vn -0.000013 -0.999950 0.009994
vn -0.000039 -0.999949 0.010093
vn 0.000000 0.988118 0.153699
vn 0.000000 0.988118 0.153699
vn -0.000205 0.988025 0.154291
vn -0.000205 0.988025 0.154291
vn -0.000474 0.987859 0.155355
vn 0.000000 0.988118 0.153699
vn 0.000205 0.988026 0.154290
vn 0.000474 0.987858 0.155356
vn 0.000940 0.987566 0.157203
vn 0.000940 0.987566 0.157203
vn 0.001079 0.987628 0.156810
vn 0.000205 0.988026 0.154290
vn 0.000000 0.000000 1.000000
vn 0.000000 0.000000 1.000000
vn 0.000000 0.000000 1.000000
vn 0.000000 0.000000 1.000000
vn 0.000000 0.000000 1.000000
vn 0.000000 0.000000 1.000000
vn 0.000039 -0.999949 0.010093
vn 0.000013 -0.999950 0.009994
vn 0.000071 -0.999948 0.010164
vn 0.000071 -0.999948 0.010164
vn 0.000062 -0.999948 0.010191
vn 0.000039 -0.999949 0.010093
vn 0.000013 -0.999950 0.009994
vn 0.000039 -0.999949 0.010093
vn 0.000000 -0.999950 0.009954
vn 0.000000 -0.999950 0.009954
vn 0.000000 -0.999950 0.009954
vn 0.000013 -0.999950 0.009994
vn 0.000000 0.000000 -1.000000
vn 0.000000 0.000000 -1.000000
vn 0.000000 0.000000 -1.000000
vn 0.000000 0.000000 -1.000000
vn 0.000000 0.000000 -1.000000
vn 0.000000 0.000000 -1.000000
vn 0.000000 0.988118 0.153699
vn 0.000000 0.988118 0.153699
vn 0.000474 0.987858 0.155356
vn 0.000474 0.987858 0.155356
vn 0.000205 0.988026 0.154290
vn 0.000000 0.988118 0.153699
vn 0.000000 0.987961 0.154704
vn 0.000000 0.987961 0.154704
vn 0.000000 0.987791 0.155782
vn 0.000000 0.987791 0.155782
vn 0.000000 0.987791 0.155782
vn 0.000000 0.987961 0.154704
vn 0.000000 0.000000 1.000000
vn 0.000000 0.000000 1.000000
vn 0.000000 0.000000 1.000000
vn 0.000000 0.000000 1.000000
vn 0.000000 0.000000 1.000000
vn 0.000000 0.000000 1.000000
vn 0.000000 -0.999950 0.010022
vn 0.000000 -0.999950 0.010022
vn 0.000000 -0.999949 0.010095
vn 0.000000 -0.999949 0.010095
vn 0.000000 -0.999949 0.010095
vn 0.000000 -0.999950 0.010022
vn 0.000000 0.000000 -1.000000
vn 0.000000 0.000000 -1.000000
vn 0.000000 0.000000 -1.000000
vn 0.000000 0.000000 -1.000000
vn 0.000000 0.000000 -1.000000
vn 0.000000 0.000000 -1.000000
vn 0.000000 0.988118 0.153699
vn 0.000000 0.988118 0.153699
vn 0.000000 0.987961 0.154704
vn 0.000000 0.987961 0.154704
vn 0.000000 0.987961 0.154704
vn 0.000000 0.988118 0.153699
vn 0.000000 0.987961 0.154704
vn 0.000000 0.987961 0.154704
vn 0.000000 0.987792 0.155781
vn 0.000000 0.987792 0.155781
vn 0.000000 0.987792 0.155781
vn 0.000000 0.987961 0.154704
vn 0.000000 0.000000 1.000000
vn 0.000000 0.000000 1.000000
vn 0.000000 0.000000 1.000000
vn 0.000000 0.000000 1.000000
vn 0.000000 0.000000 1.000000
vn 0.000000 0.000000 1.000000
vn 0.000000 -0.999950 0.010022
vn 0.000000 -0.999950 0.010022
vn 0.000000 -0.999949 0.010095
vn 0.000000 -0.999949 0.010095
vn 0.000000 -0.999949 0.010095
vn 0.000000 -0.999950 0.010022
vn 0.000000 0.000000 -1.000000
vn 0.000000 0.000000 -1.000000
vn 0.000000 0.000000 -1.000000
vn 0.000000 0.000000 -1.000000
vn 0.000000 0.000000 -1.000000
vn 0.000000 0.000000 -1.000000
vn 0.000000 0.988118 0.153699
vn 0.000000 0.988118 0.153699
vn 0.000000 0.987961 0.154704
vn 0.000000 0.987961 0.154704
vn 0.000000 0.987961 0.154704
vn 0.000000 0.988118 0.153699
vn 0.000000 0.987961 0.154704
vn 0.000000 0.987961 0.154704
vn 0.000000 0.987792 0.155782
vn 0.000000 0.987792 0.155782
vn 0.000000 0.987792 0.155782
vn 0.000000 0.987961 0.154704
vn 0.000000 0.000000 1.000000
vn 0.000000 0.000000 1.000000
vn 0.000000 0.000000 1.000000
vn 0.000000 0.000000 1.000000
vn 0.000000 0.000000 1.000000
vn 0.000000 0.000000 1.000000
vn 0.000000 -0.999950 0.010022
vn 0.000000 -0.999950 0.010022
vn 0.000000 -0.999949 0.010095
vn 0.000000 -0.999949 0.010095
vn 0.000000 -0.999949 0.010095
vn 0.000000 -0.999950 0.010022
vn 0.000000 0.000000 -1.000000
vn 0.000000 0.000000 -1.000000
vn 0.000000 0.000000 -1.000000
vn 0.000000 0.000000 -1.000000
vn 0.000000 0.000000 -1.000000
vn 0.000000 0.000000 -1.000000
vn 0.000000 0.988118 0.153698
vn 0.000000 0.988118 0.153698
vn 0.000000 0.987961 0.154704
vn 0.000000 0.987961 0.154704
vn 0.000000 0.987961 0.154704
vn 0.000000 0.988118 0.153698
vn 0.000000 0.987961 0.154704
vn 0.000000 0.987961 0.154704
vn 0.000000 0.987792 0.155781
vn 0.000000 0.987792 0.155781
vn 0.000000 0.987792 0.155781
vn 0.000000 0.987961 0.154704
vn 0.000000 0.000000 1.000000
vn 0.000000 0.000000 1.000000
vn 0.000000 0.000000 1.000000
vn 0.000000 0.000000 1.000000
vn 0.000000 0.000000 1.000000
vn 0.000000 0.000000 1.000000
vn 0.000000 -0.999950 0.010022
vn 0.000000 -0.999950 0.010022
vn 0.000000 -0.999949 0.010094
vn 0.000000 -0.999949 0.010094
vn 0.000000 -0.999949 0.010094
vn 0.000000 -0.999950 0.010022
vn 0.000000 0.000000 -1.000000
vn 0.000000 0.000000 -1.000000
vn 0.000000 0.000000 -1.000000
vn 0.000000 0.000000 -1.000000
vn 0.000000 0.000000 -1.000000
vn 0.000000 0.000000 -1.000000
vn 0.000000 0.988118 0.153699
vn 0.000000 0.988118 0.153699
vn 0.000000 0.987961 0.154704
vn 0.000000 0.987961 0.154704
vn 0.000000 0.987961 0.154704
vn 0.000000 0.988118 0.153699
vn 0.000000 -0.999950 0.010022
vn 0.000000 -0.999950 0.010022
vn 0.000000 -0.999950 0.009955
vn 0.000000 -0.999950 0.009955
vn 0.000000 -0.999950 0.009955
vn 0.000000 -0.999950 0.010022
vn 0.000000 -0.999950 0.010022
vn 0.000000 -0.999950 0.010022
vn 0.000000 -0.999950 0.009954
vn 0.000000 -0.999950 0.009954
vn 0.000000 -0.999950 0.009954
vn 0.000000 -0.999950 0.010022
vn 0.000000 -0.999950 0.010022
vn 0.000000 -0.999950 0.010022
vn 0.000000 -0.999950 0.009954
vn 0.000000 -0.999950 0.009954
vn 0.000000 -0.999950 0.009954
vn 0.000000 -0.999950 0.010022
vn 0.000000 -0.999950 0.010022
vn 0.000000 -0.999950 0.010022
vn 0.000000 -0.999950 0.009954
vn 0.000000 -0.999950 0.009954
vn 0.000000 -0.999950 0.009954
vn 0.000000 -0.999950 0.010022
vn -0.000039 -0.999949 0.010093
vn -0.000013 -0.999950 0.009994
vn 0.000000 -0.999950 0.009954
vn 0.000000 -0.999950 0.009954
vn 0.000000 -0.999951 0.009954
vn -0.000039 -0.999949 0.010093
vn 1.000000 0.000000 0.000000
vn 1.000000 0.000000 0.000000
vn 1.000000 0.000000 0.000000
vn 1.000000 0.000000 0.000000
vn 1.000000 0.000000 0.000000
vn 1.000000 0.000000 0.000000
vn -1.000000 0.000000 0.000000
vn -1.000000 0.000000 0.000000
vn -1.000000 0.000000 0.000000
vn -1.000000 0.000000 0.000000
vn -1.000000 0.000000 0.000000
vn -1.000000 0.000000 0.000000
vn 1.000000 0.000000 0.000000
vn 1.000000 0.000000 0.000000
vn 1.000000 0.000000 0.000000
vn 1.000000 0.000000 0.000000
vn 1.000000 0.000000 0.000000
vn 1.000000 0.000000 0.000000
vn -1.000000 0.000000 0.000000
vn -1.000000 0.000000 0.000000
vn -1.000000 0.000000 0.000000
vn -1.000000 0.000000 0.000000
vn -1.000000 0.000000 0.000000
vn -1.000000 0.000000 0.000000
vn 1.000000 0.000000 0.000000
vn 1.000000 0.000000 0.000000
vn 1.000000 0.000000 0.000000
vn 1.000000 0.000000 0.000000
vn 1.000000 0.000000 0.000000
vn 1.000000 0.000000 0.000000
vn -1.000000 0.000000 0.000000
vn -1.000000 0.000000 0.000000
vn -1.000000 0.000000 0.000000
vn -1.000000 0.000000 0.000000
vn -1.000000 0.000000 0.000000
vn -1.000000 0.000000 0.000000
vn 1.000000 0.000000 0.000000
vn 1.000000 0.000000 0.000000
vn 1.000000 0.000000 0.000000
vn 1.000000 0.000000 0.000000
vn 1.000000 0.000000 0.000000
vn 1.000000 0.000000 0.000000
vn -1.000000 0.000000 0.000000
vn -1.000000 0.000000 0.000000
vn -1.000000 0.000000 0.000000
vn -1.000000 0.000000 0.000000
vn -1.000000 0.000000 0.000000
vn -1.000000 0.000000 0.000000
vn 1.000000 0.000000 0.000000
vn 1.000000 0.000000 0.000000
vn 1.000000 0.000000 0.000000
vn 1.000000 0.000000 0.000000
vn 1.000000 0.000000 0.000000
vn 1.000000 0.000000 0.000000
vn -1.000000 0.000000 0.000000
vn -1.000000 0.000000 0.000000
vn -1.000000 0.000000 0.000000
vn -1.000000 0.000000 0.000000
vn -1.000000 0.000000 0.000000
vn -1.000000 0.000000 0.000000
s off
g scooter_charge
usemtl aiStandardSurface1SG
f 4/4/1 1/1/2 2/2/3
f 2/2/4 3/3/5 4/4/6
f 8/8/7 5/5/8 6/6/9
f 6/6/10 7/7/11 8/8/12
f 12/12/13 9/9/14 10/10/15
f 10/10/16 11/11/17 12/12/18
f 16/16/19 13/13/20 14/14/21
f 14/14/22 15/15/23 16/16/24
f 20/20/25 17/17/26 18/18/27
f 18/18/28 19/19/29 20/20/30
f 24/24/31 21/21/32 22/22/33
f 22/22/34 23/23/35 24/24/36
f 28/28/37 25/25/38 26/26/39
f 26/26/40 27/27/41 28/28/42
f 27/30/43 26/29/44 24/24/45
f 24/24/46 23/23/47 27/30/48
f 21/21/49 25/25/50 28/28/51
f 28/28/52 22/22/53 21/21/54
f 32/34/55 29/31/56 30/32/57
f 30/32/58 31/33/59 32/34/60
f 36/38/61 33/35/62 34/36/63
f 34/36/64 35/37/65 36/38/66
f 35/40/67 32/34/68 31/33/69
f 31/33/70 36/39/71 35/40/72
f 29/31/73 34/36/74 33/35/75
f 33/35/76 30/32/77 29/31/78
f 40/44/79 37/41/80 38/42/81
f 38/42/82 39/43/83 40/44/84
f 39/48/85 41/45/86 42/46/87
f 42/46/88 40/47/89 39/48/90
f 25/52/91 43/49/92 44/50/93
f 44/50/94 26/51/95 25/52/96
f 37/56/97 21/53/98 24/54/99
f 24/54/100 38/55/101 37/56/102
f 47/60/103 45/57/104 46/58/105
f 46/58/106 30/59/107 47/60/108
f 21/62/109 37/41/110 40/44/111
f 40/44/112 42/61/113 21/62/114
f 45/57/115 48/63/116 49/64/117
f 49/64/118 46/58/119 45/57/120
f 45/68/121 47/65/122 50/66/123
f 50/66/124 48/67/125 45/68/126
f 33/72/127 36/69/128 51/70/129
f 51/70/130 52/71/131 33/72/132
f 30/76/133 46/73/134 49/74/135
f 49/74/136 31/75/137 30/76/138
f 25/52/139 21/77/140 42/78/141
f 42/78/142 43/49/143 25/52/144
f 52/71/145 47/79/146 30/80/147
f 30/80/148 33/72/149 52/71/150
f 52/82/151 51/81/152 50/66/153
f 50/66/154 47/65/155 52/82/156
f 44/84/157 43/83/158 42/46/159
f 42/46/160 41/45/161 44/84/162
f 54/88/163 4/85/164 3/86/165
f 3/86/166 53/87/167 54/88/168
f 56/92/169 2/89/170 1/90/171
f 1/90/172 55/91/173 56/92/174
f 53/96/175 56/93/176 55/94/177
f 55/94/178 54/95/179 53/96/180
f 58/100/181 8/97/182 7/98/183
f 7/98/184 57/99/185 58/100/186
f 60/104/187 6/101/188 5/102/189
f 5/102/190 59/103/191 60/104/192
f 57/108/193 60/105/194 59/106/195
f 59/106/196 58/107/197 57/108/198
f 62/112/199 12/109/200 11/110/201
f 11/110/202 61/111/203 62/112/204
f 64/116/205 10/113/206 9/114/207
f 9/114/208 63/115/209 64/116/210
f 61/120/211 64/117/212 63/118/213
f 63/118/214 62/119/215 61/120/216
f 66/124/217 16/121/218 15/122/219
f 15/122/220 65/123/221 66/124/222
f 68/128/223 14/125/224 13/126/225
f 13/126/226 67/127/227 68/128/228
f 65/132/229 68/129/230 67/130/231
f 67/130/232 66/131/233 65/132/234
f 70/136/235 20/133/236 19/134/237
f 19/134/238 69/135/239 70/136/240
f 72/140/241 18/137/242 17/138/243
f 17/138/244 71/139/245 72/140/246
f 69/144/247 72/141/248 71/142/249
f 71/142/250 70/143/251 69/144/252
f 48/63/253 73/145/254 74/146/255
f 74/146/256 49/64/257 48/63/258
f 50/66/259 19/134/260 73/147/261
f 73/147/262 48/67/263 50/66/264
f 36/69/265 72/141/266 69/144/267
f 69/144/268 51/70/269 36/69/270
f 31/75/271 49/74/272 74/148/273
f 74/148/274 18/137/275 31/75/276
f 51/81/277 69/135/278 19/134/279
f 19/134/280 50/66/281 51/81/282
f 4/85/283 41/45/284 39/48/285
f 39/48/286 75/149/287 4/85/288
f 75/151/289 39/43/290 38/42/291
f 38/42/292 76/150/293 75/151/294
f 24/54/295 1/90/296 76/152/297
f 76/152/298 38/55/299 24/54/300
f 1/90/301 24/54/302 26/153/303
f 26/153/304 55/91/305 1/90/306
f 55/94/307 26/51/308 44/50/309
f 44/50/310 54/95/311 55/94/312
f 54/88/313 44/84/314 41/45/315
f 41/45/316 4/85/317 54/88/318
f 8/97/319 3/86/320 77/154/321
f 77/154/322 78/155/323 8/97/324
f 78/159/325 77/156/326 79/157/327
f 79/157/328 80/158/329 78/159/330
f 2/89/331 5/102/332 80/160/333
f 80/160/334 79/161/335 2/89/336
f 59/106/337 56/93/338 53/96/339
f 53/96/340 58/107/341 59/106/342
f 58/100/343 53/87/344 3/86/345
f 3/86/346 8/97/347 58/100/348
f 12/109/349 7/98/350 81/162/351
f 81/162/352 82/163/353 12/109/354
f 82/167/355 81/164/356 83/165/357
f 83/165/358 84/166/359 82/167/360
f 6/101/361 9/114/362 84/168/363
f 84/168/364 83/169/365 6/101/366
f 63/171/367 60/105/368 57/108/369
f 57/108/370 62/170/371 63/171/372
f 62/112/373 57/99/374 7/98/375
f 7/98/376 12/109/377 62/112/378
f 16/121/379 11/110/380 85/172/381
f 85/172/382 86/173/383 16/121/384
f 86/177/385 85/174/386 87/175/387
f 87/175/388 88/176/389 86/177/390
f 10/113/391 13/126/392 88/178/393
f 88/178/394 87/179/395 10/113/396
f 67/130/397 64/117/398 61/120/399
f 61/120/400 66/131/401 67/130/402
f 66/124/403 61/111/404 11/110/405
f 11/110/406 16/121/407 66/124/408
f 20/133/409 15/122/410 89/180/411
f 89/180/412 90/181/413 20/133/414
f 90/185/415 89/182/416 91/183/417
f 91/183/418 92/184/419 90/185/420
f 14/125/421 17/138/422 92/186/423
f 92/186/424 91/187/425 14/125/426
f 71/142/427 68/129/428 65/132/429
f 65/132/430 70/143/431 71/142/432
f 70/136/433 65/123/434 15/122/435
f 15/122/436 20/133/437 70/136/438
f 5/102/439 2/89/440 56/92/441
f 56/92/442 59/103/443 5/102/444
f 9/114/445 6/101/446 60/104/447
f 60/104/448 63/115/449 9/114/450
f 13/126/451 10/113/452 64/116/453
f 64/116/454 67/127/455 13/126/456
f 17/138/457 14/125/458 68/128/459
f 68/128/460 71/139/461 17/138/462
f 31/75/463 18/137/464 72/140/465
f 72/140/466 36/188/467 31/75/468
f 75/151/469 76/150/470 1/1/471
f 1/1/472 4/4/473 75/151/474
f 79/157/475 77/156/476 3/3/477
f 3/3/478 2/2/479 79/157/480
f 78/159/481 80/158/482 5/5/483
f 5/5/484 8/8/485 78/159/486
f 83/190/487 81/189/488 7/7/489
f 7/7/490 6/6/491 83/190/492
f 82/167/493 84/166/494 9/9/495
f 9/9/496 12/12/497 82/167/498
f 87/175/499 85/174/500 11/11/501
f 11/11/502 10/10/503 87/175/504
f 86/177/505 88/176/506 13/13/507
f 13/13/508 16/16/509 86/177/510
f 91/183/511 89/182/512 15/15/513
f 15/15/514 14/14/515 91/183/516
f 90/185/517 92/184/518 17/17/519
f 17/17/520 20/20/521 90/185/522
f 74/146/523 73/145/524 19/19/525
f 19/19/526 18/18/527 74/146/528
