# This file uses centimeters as units for non-parametric coordinates.

v -315.000000 -0.000011 472.831970
v -315.000000 0.000003 315.999939
v -471.832031 0.000003 315.999939
v 0.000000 0.000003 315.999939
v 0.000000 -0.000011 472.831970
v -332.488281 -0.000004 408.098572
v -363.536865 0.000001 364.798279
v -406.776001 0.000004 333.664490
v -457.687622 0.000004 317.950378
v -316.874268 -0.000010 459.040955
v -315.000000 0.000011 0.999939
v -471.832031 0.000011 0.999939
v 0.000000 0.000011 0.999939
v -315.000000 -0.000011 -470.831970
v -315.000000 0.000003 -313.999939
v -471.832031 0.000003 -313.999939
v 0.000000 0.000003 -313.999939
v 0.000000 -0.000011 -470.831970
v -332.488281 -0.000004 -406.098572
v -363.536865 0.000001 -362.798279
v -406.776001 0.000004 -331.664612
v -457.687622 0.000004 -315.950500
v -316.874268 -0.000010 -457.040955
v 315.000000 -0.000011 472.831970
v 315.000000 0.000003 315.999939
v 471.832031 0.000003 315.999939
v 332.488281 -0.000004 408.098572
v 363.536987 0.000001 364.798279
v 406.776123 0.000004 333.664490
v 457.687744 0.000004 317.950378
v 316.874268 -0.000010 459.040955
v 315.000000 0.000011 0.999939
v 471.832031 0.000011 0.999939
v 315.000000 -0.000011 -470.831970
v 315.000000 0.000003 -313.999939
v 471.832031 0.000003 -313.999939
v 332.488281 -0.000004 -406.098572
v 363.536987 0.000001 -362.798279
v 406.776123 0.000004 -331.664612
v 457.687744 0.000004 -315.950500
v 316.874268 -0.000010 -457.040955
vt 0.375000 0.375000
vt 0.500000 0.375000
vt 0.531250 0.375000
vt 0.531250 0.250000
vt 0.381401 0.368599
vt 0.500000 0.250000
vt 0.493744 0.256256
vt 0.465622 0.284378
vt 0.437500 0.312500
vt 0.409451 0.340549
vt 0.500000 0.437500
vt 0.375000 0.437500
vt 0.531250 0.437500
vt 0.375000 0.375000
vt 0.500000 0.375000
vt 0.500000 0.437500
vt 0.375000 0.437500
vt 0.531250 0.375000
vt 0.531250 0.437500
vt 0.500000 0.250000
vt 0.531250 0.250000
vt 0.465622 0.284378
vt 0.493744 0.256256
vt 0.381401 0.368599
vt 0.409451 0.340549
vt 0.437500 0.312500
vt 0.375000 0.375000
vt 0.500000 0.375000
vt 0.500000 0.437500
vt 0.375000 0.437500
vt 0.531250 0.375000
vt 0.531250 0.437500
vt 0.500000 0.250000
vt 0.531250 0.250000
vt 0.465622 0.284378
vt 0.493744 0.256256
vt 0.381401 0.368599
vt 0.409451 0.340549
vt 0.437500 0.312500
vt 0.375000 0.375000
vt 0.375000 0.437500
vt 0.500000 0.437500
vt 0.500000 0.375000
vt 0.531250 0.437500
vt 0.531250 0.375000
vt 0.500000 0.250000
vt 0.531250 0.250000
vt 0.465622 0.284378
vt 0.437500 0.312500
vt 0.409451 0.340549
vt 0.381401 0.368599
vt 0.493744 0.256256
f 3/1 2/2 11/11 12/12
f 2/2 4/3 13/13 11/11
f 1/6 5/4 4/3 2/2
f 6/8 10/7 1/6 2/2 3/1 9/5 8/10 7/9
f 16/14 12/17 11/16 15/15
f 15/15 11/16 13/19 17/18
f 14/20 15/15 17/18 18/21
f 19/22 20/26 21/25 22/24 16/14 15/15 14/20 23/23
f 26/27 33/30 32/29 25/28
f 25/28 32/29 13/32 4/31
f 24/33 25/28 4/31 5/34
f 27/35 28/39 29/38 30/37 26/27 25/28 24/33 31/36
f 36/40 35/43 32/42 33/41
f 35/43 17/45 13/44 32/42
f 34/46 18/47 17/45 35/43
f 37/48 41/52 34/46 35/43 36/40 40/51 39/50 38/49
