# This file uses centimeters as units for non-parametric coordinates.

v -328.682602 0.000012 254.072083
v -285.382309 0.000017 285.120667
v -254.248520 0.000020 328.359924
v -238.534409 0.000020 379.271545
v -379.624985 0.000006 238.458069
v -236.583969 0.000004 393.416077
v -236.583969 0.000008 236.583801
v -393.416000 0.000002 236.583801
v 393.416031 -0.000027 236.584045
v -236.583939 0.000027 -393.416077
v -236.583969 0.000027 -78.416199
v 78.416031 -0.000027 236.584045
v -393.416031 0.000027 -78.416199
v -393.416031 0.000027 -393.416077
v 78.416031 -0.000027 393.416077
v 393.416031 -0.000027 393.416077
v -137.977158 0.000024 -385.660583
v -41.859756 0.000020 -362.584900
v 49.464415 -0.000007 -324.757263
v 133.746719 -0.000012 -273.109070
v 208.911697 0.000005 -208.912048
v 273.108719 -0.000001 -133.747009
v 324.757050 -0.000008 -49.464783
v 362.584732 -0.000014 41.859436
v 385.660446 -0.000021 137.976624
v 393.416031 -0.000027 236.520569
v -236.520981 0.000027 -393.416077
vt 0.465622 0.284378
vt 0.437500 0.312500
vt 0.409451 0.340549
vt 0.381401 0.368599
vt 0.375000 0.375000
vt 0.500000 0.375000
vt 0.500000 0.250000
vt 0.493744 0.256256
vt 0.000000 0.000000
vt 1.000000 0.000000
vt 1.000000 1.000000
vt 0.000000 1.000000
vt 0.000000 0.000000
vt 1.000000 0.000000
vt 1.000000 1.000000
vt 0.000000 1.000000
vt 0.000000 0.000000
vt 1.000000 0.000000
vt 1.000000 1.000000
vt 0.000000 1.000000
vt 0.000000 0.000000
vt 1.000000 0.000000
vt 1.000000 1.000000
vt 0.000000 1.000000
vt 0.425020 0.500000
vt 0.375025 0.500000
vt 0.375000 0.500000
vt 0.375000 0.375000
vt 0.375000 0.250000
vt 0.500000 0.250000
vt 0.625000 0.250000
vt 0.625000 0.250025
vt 0.625000 0.300020
vt 0.625000 0.350015
vt 0.625000 0.400010
vt 0.625000 0.450005
vt 0.625000 0.500000
vt 0.575005 0.500000
vt 0.525010 0.500000
vt 0.475015 0.500000
f 1/1 2/2 3/3 4/4 6/5 7/6 8/7 5/8
f 7/9 11/10 13/11 8/12
f 11/13 10/14 14/15 13/16
f 12/17 7/18 6/19 15/20
f 9/21 12/22 15/23 16/24
f 17/25 27/26 10/27 11/28 7/29 12/30 9/31 26/32 25/33 24/34 23/35 22/36 21/37 20/38 19/39 18/40
