# This file uses centimeters as units for non-parametric coordinates.

v 314.999969 -8.543692 471.832153
v 314.999969 -8.543692 -471.831848
v -315.000031 -8.543692 471.832153
v -315.000031 -8.543692 -471.831848
vt 0.549974 0.007812
vt 0.906712 0.007813
vt 0.906712 0.542163
vt 0.549974 0.542163
f 3/1 1/2 2/3 4/4
v -471.832062 7.999990 471.832153
v -471.832062 7.999990 -471.831787
v -315.000031 -69.711113 471.832153
v -315.000031 -69.711113 -471.831787
v -315.000031 -5.209576 471.832153
v -318.869049 4.130998 471.832153
v -328.209625 7.999990 471.832153
v -328.209625 7.999990 -471.831787
v -318.869049 4.130998 -471.831787
v -315.000031 -5.209576 -471.831787
vt 0.000000 0.999938
vt 0.000011 0.847744
vt 0.999994 0.847814
vt 0.999983 1.000008
vt 0.999995 0.826387
vt 0.000012 0.826317
vt 0.000017 0.757966
vt 1.000000 0.758035
vt 0.000011 0.837030
vt 0.999995 0.837100
f 5/5 11/6 12/7 6/8
f 14/9 9/10 7/11 8/12
f 11/6 10/13 13/14 12/7
f 10/13 9/10 14/9 13/14
v 471.832001 7.999990 -471.831909
v 471.832001 7.999990 471.832031
v 314.999969 -69.711113 -471.831909
v 314.999969 -69.711113 471.832031
v 314.999969 -5.209576 -471.831909
v 318.868988 4.130998 -471.831909
v 328.209564 7.999990 -471.831909
v 328.209564 7.999990 471.832031
v 318.868988 4.130998 471.832031
v 314.999969 -5.209576 471.832031
vt 0.000000 0.999807
vt 0.000011 0.847613
vt 0.999994 0.847683
vt 0.999983 0.999877
vt 0.999995 0.826256
vt 0.000012 0.826186
vt 0.000017 0.757835
vt 1.000000 0.757904
vt 0.000011 0.836899
vt 0.999994 0.836969
f 15/15 21/16 22/17 16/18
f 24/19 19/20 17/21 18/22
f 21/16 20/23 23/24 22/17
f 20/23 19/20 24/19 23/24
