# This file uses centimeters as units for non-parametric coordinates.

v -407.098633 -0.000030 2518.822510
v -363.798340 -0.000025 2549.871094
v -332.664551 -0.000022 2593.110352
v -316.950439 -0.000022 2644.021973
v -458.041016 -0.000036 2503.208496
v -315.000000 -0.000038 2658.166504
v -315.000000 -0.000034 2501.334229
v -471.832031 -0.000040 2501.334229
v 315.000000 -0.000069 2501.334473
v -314.999969 -0.000015 1871.334351
v -315.000000 -0.000015 2186.334229
v 0.000000 -0.000069 2501.334473
v -471.832062 -0.000015 2186.334229
v -471.832062 -0.000015 1871.334351
v 0.000000 -0.000069 2658.166504
v 315.000000 -0.000069 2658.166504
v -216.393188 -0.000018 1879.089844
v -120.275787 -0.000022 1902.165527
v -28.951616 -0.000049 1939.993164
v 55.330688 -0.000054 1991.641357
v 130.495667 -0.000037 2055.838379
v 194.692688 -0.000043 2131.003418
v 246.341019 -0.000050 2215.285645
v 284.168701 -0.000056 2306.609863
v 307.244415 -0.000063 2402.727051
v 315.000000 -0.000069 2501.270996
v -314.937012 -0.000015 1871.334351
vt 0.465622 0.284378
vt 0.437500 0.312500
vt 0.409451 0.340549
vt 0.381401 0.368599
vt 0.375000 0.375000
vt 0.500000 0.375000
vt 0.500000 0.250000
vt 0.493744 0.256256
vt 0.000000 0.000000
vt 1.000000 0.000000
vt 1.000000 1.000000
vt 0.000000 1.000000
vt 0.000000 0.000000
vt 1.000000 0.000000
vt 1.000000 1.000000
vt 0.000000 1.000000
vt 0.000000 0.000000
vt 1.000000 0.000000
vt 1.000000 1.000000
vt 0.000000 1.000000
vt 0.000000 0.000000
vt 1.000000 0.000000
vt 1.000000 1.000000
vt 0.000000 1.000000
vt 0.425020 0.500000
vt 0.375025 0.500000
vt 0.375000 0.500000
vt 0.375000 0.375000
vt 0.375000 0.250000
vt 0.500000 0.250000
vt 0.625000 0.250000
vt 0.625000 0.250025
vt 0.625000 0.300020
vt 0.625000 0.350015
vt 0.625000 0.400010
vt 0.625000 0.450005
vt 0.625000 0.500000
vt 0.575005 0.500000
vt 0.525010 0.500000
vt 0.475015 0.500000
f 1/1 2/2 3/3 4/4 6/5 7/6 8/7 5/8
f 7/9 11/10 13/11 8/12
f 11/13 10/14 14/15 13/16
f 12/17 7/18 6/19 15/20
f 9/21 12/22 15/23 16/24
f 17/25 27/26 10/27 11/28 7/29 12/30 9/31 26/32 25/33 24/34 23/35 22/36 21/37 20/38 19/39 18/40
