# This file uses centimeters as units for non-parametric coordinates.

mtllib S_U_02.mtl
g default
v -469.860016 241.589951 174.286316
v -463.717834 256.418610 174.286316
v -448.889160 262.560822 174.286316
v -468.417816 240.147766 177.768127
v -462.275604 254.976379 177.768127
v -447.446960 261.118622 177.768127
v -443.965149 257.636810 181.053223
v -458.793823 251.494583 181.053223
v -464.936005 236.665939 181.053223
v -468.417816 22.413080 177.768127
v -462.275604 7.584442 177.768127
v -447.446960 1.442219 177.768127
v -464.936005 25.894844 181.053223
v -458.793762 11.066232 181.053223
v -443.965118 4.924018 181.053223
v -448.889160 0.000010 174.286316
v -463.717834 6.142229 174.286316
v -469.860016 20.970861 174.286316
v 447.446960 1.442219 177.768127
v 462.275604 7.584442 177.768127
v 468.417816 22.413080 177.768127
v 443.965118 4.924018 181.053223
v 458.793762 11.066232 181.053223
v 464.936005 25.894844 181.053223
v 469.860016 20.970861 174.286316
v 463.717834 6.142229 174.286316
v 448.889160 0.000010 174.286316
v 448.889160 262.560822 174.286316
v 463.717834 256.418610 174.286316
v 469.860016 241.589951 174.286316
v 447.446960 261.118622 177.768127
v 462.275604 254.976379 177.768127
v 468.417816 240.147766 177.768127
v 464.936005 236.665939 181.053223
v 458.793823 251.494583 181.053223
v 443.965149 257.636810 181.053223
v -447.446960 261.118622 -179.611023
v -462.275604 254.976379 -179.611023
v -468.417816 240.147766 -179.611023
v -443.965149 257.636810 -181.053223
v -464.936005 236.665939 -181.053223
v -458.793823 251.494583 -181.053223
v 464.936005 236.665939 -181.053223
v 443.965149 257.636810 -181.053223
v 458.793823 251.494583 -181.053223
v 447.446960 261.118622 -179.611023
v 462.275604 254.976379 -179.611023
v 468.417816 240.147766 -179.611023
v -448.889160 262.560822 -176.129211
v -463.717834 256.418610 -176.129211
v -469.860016 241.589951 -176.129211
v 469.860016 241.589951 -176.129211
v 463.717834 256.418610 -176.129211
v 448.889160 262.560822 -176.129211
v 443.965118 4.924018 -181.053223
v 464.936005 25.894844 -181.053223
v 458.793762 11.066232 -181.053223
v 468.417816 22.413080 -179.611023
v 462.275604 7.584442 -179.611023
v 447.446960 1.442219 -179.611023
v 448.889160 0.000010 -176.129211
v 463.717834 6.142229 -176.129211
v 469.860016 20.970861 -176.129211
v -468.417816 22.413080 -179.611023
v -462.275604 7.584442 -179.611023
v -447.446960 1.442219 -179.611023
v -469.860016 20.970861 -176.129211
v -463.717834 6.142229 -176.129211
v -448.889160 0.000010 -176.129211
v -443.965118 4.924018 -181.053223
v -458.793762 11.066232 -181.053223
v -464.936005 25.894844 -181.053223
v -460.084015 231.814163 181.053223
v -453.941742 246.642654 181.053223
v -439.112976 252.784821 181.053223
v -456.602142 228.332092 177.768127
v -450.459961 243.160782 177.768127
v -435.631378 249.303024 177.768127
v -434.189148 247.860809 174.286316
v -449.017822 241.718582 174.286316
v -455.160004 226.889938 174.286316
v -456.602142 34.228729 177.768127
v -450.459961 19.400042 177.768127
v -435.631378 13.257797 177.768127
v -455.160004 35.670860 174.286316
v -449.017822 20.842228 174.286316
v -434.189148 14.700008 174.286316
v -439.112976 9.775998 181.053223
v -453.941742 15.918163 181.053223
v -460.084015 30.746666 181.053223
v 435.631378 13.257797 177.768127
v 450.459961 19.400042 177.768127
v 456.602142 34.228729 177.768127
v 434.189148 14.700008 174.286316
v 449.017822 20.842228 174.286316
v 455.160004 35.670860 174.286316
v 460.084015 30.746666 181.053223
v 453.941742 15.918163 181.053223
v 439.112976 9.775998 181.053223
v 456.602142 228.332092 177.768127
v 450.459961 243.160782 177.768127
v 435.631378 249.303024 177.768127
v 455.160004 226.889938 174.286316
v 449.017822 241.718582 174.286316
v 434.189148 247.860809 174.286316
v 439.112976 252.784821 181.053223
v 453.941742 246.642654 181.053223
v 460.084015 231.814163 181.053223
v -434.189148 14.700008 92.608154
v -449.017822 20.842228 92.608154
v -455.160004 35.670860 92.608154
v 455.160004 35.670860 60.990295
v 449.017822 20.842228 60.990295
v 434.189148 14.700008 60.990295
v 434.189148 247.860809 92.608154
v 449.017822 241.718582 92.608154
v 455.160004 226.889938 92.608154
v -455.160004 226.889938 92.608154
v -449.017822 241.718582 92.608154
v -434.189148 247.860809 92.608154
v -443.965118 236.665939 -181.053223
v -443.965118 25.894835 -181.053223
v 443.964691 25.894844 -181.053223
v 443.965149 236.665939 -181.053223
vt 0.381078 0.250000
vt 0.375000 0.250000
vt 0.375000 0.250000
vt 0.381126 0.250000
vt 0.375000 0.229611
vt 0.375000 0.229043
vt 0.381836 0.999984
vt 0.375000 1.000000
vt 0.375000 0.995800
vt 0.381056 0.995800
vt 0.375000 0.000000
vt 0.375000 0.020389
vt 0.370800 0.020163
vt 0.370800 0.000000
vt 0.625000 0.020495
vt 0.625000 0.000000
vt 0.629200 0.000000
vt 0.629200 0.020163
vt 0.625000 1.000000
vt 0.618958 1.000000
vt 0.618944 0.995800
vt 0.625000 0.995800
vt 0.625000 0.229613
vt 0.625000 0.250000
vt 0.625000 0.250000
vt 0.625000 0.229043
vt 0.618923 0.250000
vt 0.618874 0.250000
vt 0.375000 0.520329
vt 0.375000 0.500000
vt 0.376422 0.504734
vt 0.376422 0.524897
vt 0.381836 0.499984
vt 0.382324 0.504716
vt 0.875000 0.229505
vt 0.875000 0.250000
vt 0.870800 0.250000
vt 0.870800 0.229837
vt 0.625000 0.500000
vt 0.618958 0.500000
vt 0.618944 0.495800
vt 0.625000 0.495800
vt 0.618923 0.750000
vt 0.625000 0.750000
vt 0.625000 0.754200
vt 0.618944 0.754200
vt 0.875000 0.000000
vt 0.875000 0.020387
vt 0.870800 0.020163
vt 0.870800 0.000000
vt 0.381078 0.750000
vt 0.375000 0.750000
vt 0.376422 0.745266
vt 0.382478 0.745266
vt 0.375000 0.729606
vt 0.376422 0.725103
vt 0.381250 0.250000
vt 0.375000 0.250000
vt 0.375000 0.250000
vt 0.381276 0.250000
vt 0.375000 0.227547
vt 0.375000 0.227266
vt 0.380208 0.000000
vt 0.375000 0.000000
vt 0.375000 0.000000
vt 0.381196 0.000000
vt 0.375000 0.022453
vt 0.375000 0.021802
vt 0.625000 0.022451
vt 0.625000 0.000000
vt 0.625000 0.000000
vt 0.625000 0.021803
vt 0.618750 0.000000
vt 0.618804 0.000000
vt 0.619792 0.250000
vt 0.625000 0.250000
vt 0.625000 0.250000
vt 0.618804 0.250000
vt 0.625000 0.227536
vt 0.625000 0.228198
vt 0.617516 0.504734
vt 0.381056 0.495800
vt 0.381056 0.254200
vt 0.618944 0.254200
vt 0.381056 0.754200
vt 0.629200 0.229837
vt 0.129200 0.020163
vt 0.370800 0.229837
vt 0.129200 0.229837
vt 0.380976 0.000000
vt 0.618838 0.000000
vt 0.625000 0.020917
vt 0.381196 0.250000
vt 0.375000 0.020957
vt 0.375000 0.228198
vt 0.381276 0.000000
vt 0.618724 0.000000
vt 0.618731 0.000000
vt 0.381269 0.000000
vt 0.625000 0.022737
vt 0.625000 0.227265
vt 0.625000 0.227266
vt 0.625000 0.022734
vt 0.618724 0.250000
vt 0.381269 0.250000
vt 0.618731 0.250000
vt 0.375000 0.022734
vt 0.375000 0.022734
vt 0.375000 0.227266
vt 0.381077 0.000000
vt 0.618923 0.000000
vt 0.623578 0.524947
vt 0.625000 0.520389
vt 0.625000 0.729611
vt 0.623578 0.725108
vt 0.125000 0.229610
vt 0.125000 0.020389
vt 0.617522 0.745266
vt 0.382478 0.524899
vt 0.375000 0.254200
vt 0.370800 0.250000
vt 0.375000 0.000000
vt 0.625000 0.000000
vt 0.629200 0.250000
vt 0.625000 0.254200
vt 0.375000 0.495800
vt 0.125000 0.250000
vt 0.129200 0.250000
vt 0.623578 0.504734
vt 0.623578 0.745266
vt 0.125000 0.000000
vt 0.129200 0.000000
vt 0.375000 0.754200
vt 0.375000 0.250000
vt 0.375000 0.000000
vt 0.625000 0.000000
vt 0.625000 0.250000
vt 0.375000 0.000000
vt 0.625000 0.000000
vt 0.625000 0.250000
vt 0.375000 0.250000
vt 0.382478 0.725103
vt 0.617522 0.524946
vt 0.617522 0.725108
vn -0.009931 0.680959 0.732254
vn -0.392435 0.392434 0.831860
vn -0.238010 0.238008 0.941649
vn -0.002220 0.526568 0.850130
vn -0.392435 0.392434 0.831860
vn -0.667585 0.034149 0.743750
vn -0.509337 0.008056 0.860530
vn -0.238010 0.238008 0.941649
vn -0.004839 -0.923158 0.384390
vn -0.336556 -0.812519 0.475965
vn -0.382677 -0.923864 0.005766
vn -0.007356 -0.999965 0.003937
vn -0.812520 -0.336555 0.475964
vn -0.921123 -0.017700 0.388870
vn -0.999641 -0.026472 0.004108
vn -0.923865 -0.382676 0.005766
vn 0.921123 -0.017700 0.388870
vn 0.812519 -0.336556 0.475965
vn 0.923865 -0.382676 0.005766
vn 0.999641 -0.026472 0.004108
vn 0.336557 -0.812519 0.475965
vn 0.004839 -0.923158 0.384390
vn 0.007356 -0.999965 0.003937
vn 0.382677 -0.923864 0.005766
vn 0.667585 0.034149 0.743750
vn 0.392435 0.392435 0.831859
vn 0.238010 0.238008 0.941649
vn 0.509337 0.008056 0.860530
vn 0.392435 0.392435 0.831859
vn 0.009931 0.680959 0.732254
vn 0.002220 0.526568 0.850130
vn 0.238010 0.238008 0.941649
vn -0.364250 0.021402 -0.931055
vn -0.198757 0.198757 -0.959683
vn -0.057704 0.057703 -0.996665
vn -0.080981 0.001169 -0.996715
vn -0.198757 0.198757 -0.959683
vn -0.006415 0.377193 -0.926112
vn -0.000312 0.081147 -0.996702
vn -0.057704 0.057703 -0.996665
vn 0.921123 0.017700 -0.388869
vn 0.812521 0.336555 -0.475962
vn 0.923865 0.382675 -0.005766
vn 0.999641 0.026472 -0.004108
vn 0.336556 0.812517 -0.475968
vn 0.004839 0.923157 -0.384392
vn 0.007356 0.999965 -0.003937
vn 0.382677 0.923864 -0.005766
vn 0.004839 -0.923159 -0.384389
vn 0.336557 -0.812520 -0.475963
vn 0.382677 -0.923864 -0.005766
vn 0.007356 -0.999965 -0.003937
vn 0.812519 -0.336555 -0.475965
vn 0.921123 -0.017700 -0.388869
vn 0.999641 -0.026472 -0.004108
vn 0.923865 -0.382676 -0.005766
vn -0.006415 -0.377194 -0.926112
vn -0.198758 -0.198756 -0.959683
vn -0.057704 -0.057704 -0.996665
vn -0.000312 -0.081147 -0.996702
vn -0.198758 -0.198756 -0.959683
vn -0.364251 -0.021402 -0.931055
vn -0.080981 -0.001169 -0.996715
vn -0.057704 -0.057704 -0.996665
vn 0.010151 -0.922339 0.386249
vn 0.336559 -0.812521 0.475959
vn 0.382605 -0.923691 0.020211
vn 0.007501 -0.999828 0.016939
vn 0.812526 -0.336558 0.475953
vn 0.917375 -0.038960 0.396112
vn 0.999410 -0.029825 0.017033
vn 0.923691 -0.382604 0.020210
vn 0.002946 0.684702 0.728817
vn 0.392433 0.392433 0.831861
vn 0.144556 0.144558 0.978880
vn 0.003083 0.207219 0.978290
vn 0.392433 0.392433 0.831861
vn 0.680033 0.011637 0.733089
vn 0.211022 0.011595 0.977413
vn 0.144556 0.144558 0.978880
vn -0.680033 0.011637 0.733089
vn -0.392433 0.392433 0.831861
vn -0.144556 0.144558 0.978880
vn -0.211021 0.011595 0.977413
vn -0.392433 0.392433 0.831861
vn -0.002946 0.684702 0.728817
vn -0.003083 0.207219 0.978290
vn -0.144556 0.144558 0.978880
vn -0.002946 -0.684702 0.728817
vn -0.392433 -0.392432 0.831861
vn -0.144556 -0.144558 0.978880
vn -0.003083 -0.207219 0.978290
vn -0.392433 -0.392432 0.831861
vn -0.680033 -0.011637 0.733089
vn -0.211022 -0.011595 0.977413
vn -0.144556 -0.144558 0.978880
vn -0.000312 0.081147 -0.996702
vn -0.006415 0.377193 -0.926112
vn 0.006415 0.377193 -0.926112
vn 0.000312 0.081147 -0.996702
vn -0.004839 0.923157 -0.384392
vn -0.007356 0.999965 -0.003937
vn 0.007356 0.999965 -0.003937
vn 0.004839 0.923157 -0.384392
vn -0.007356 0.999965 0.003937
vn 0.007356 0.999965 0.003937
vn 0.007356 0.999965 -0.003937
vn -0.007356 0.999965 -0.003937
vn -0.007356 -0.999965 -0.003937
vn 0.007356 -0.999965 -0.003937
vn 0.007356 -0.999965 0.003937
vn -0.007356 -0.999965 0.003937
vn 0.999641 -0.026472 0.004108
vn 0.999641 -0.026472 -0.004108
vn 0.999641 0.026472 -0.004108
vn 0.999641 0.026472 0.004108
vn -0.999641 -0.026472 -0.004108
vn -0.999641 -0.026472 0.004108
vn -0.999641 0.026472 0.004108
vn -0.999641 0.026472 -0.004108
vn -0.002220 -0.526568 0.850130
vn 0.002220 -0.526568 0.850130
vn -0.003083 0.207219 0.978290
vn 0.003083 0.207219 0.978290
vn 0.509337 -0.008056 0.860530
vn 0.509337 0.008056 0.860530
vn -0.211022 -0.011595 0.977413
vn -0.211021 0.011595 0.977413
vn 0.002220 0.526568 0.850130
vn -0.002220 0.526568 0.850130
vn 0.003083 -0.207219 0.978290
vn -0.003083 -0.207219 0.978290
vn -0.509337 0.008056 0.860530
vn -0.509337 -0.008056 0.860530
vn 0.211022 0.011595 0.977413
vn 0.211022 -0.011595 0.977413
vn 0.007501 0.999828 0.016939
vn -0.007501 0.999828 0.016939
vn -0.007680 0.999911 0.010878
vn 0.007680 0.999911 0.010878
vn -0.999410 0.029825 0.017033
vn -0.999410 -0.029825 0.017033
vn -0.999469 -0.030507 0.011434
vn -0.999469 0.030507 0.011434
vn -0.007501 -0.999828 0.016939
vn 0.007501 -0.999828 0.016939
vn 0.007680 -0.999911 0.010878
vn -0.007680 -0.999911 0.010878
vn 0.999410 -0.029825 0.017033
vn 0.999410 0.029825 0.017033
vn 0.999469 0.030507 0.011434
vn 0.999469 -0.030507 0.011434
vn -0.999641 -0.026472 0.004108
vn -0.921123 -0.017700 0.388870
vn -0.921123 0.017700 0.388870
vn -0.999641 0.026472 0.004108
vn -0.667585 -0.034149 0.743750
vn -0.509337 -0.008056 0.860530
vn -0.509337 0.008056 0.860530
vn -0.667585 0.034149 0.743750
vn -0.002220 -0.526568 0.850130
vn -0.009931 -0.680960 0.732254
vn 0.009931 -0.680960 0.732254
vn 0.002220 -0.526568 0.850130
vn -0.004839 -0.923158 0.384390
vn -0.007356 -0.999965 0.003937
vn 0.007356 -0.999965 0.003937
vn 0.004839 -0.923158 0.384390
vn -0.007356 0.999965 0.003937
vn -0.004839 0.923157 0.384393
vn 0.004839 0.923157 0.384393
vn 0.007356 0.999965 0.003937
vn -0.009931 0.680959 0.732254
vn -0.002220 0.526568 0.850130
vn 0.002220 0.526568 0.850130
vn 0.009931 0.680959 0.732254
vn 0.509337 -0.008056 0.860530
vn 0.667585 -0.034149 0.743750
vn 0.667585 0.034149 0.743750
vn 0.509337 0.008056 0.860530
vn 0.921123 -0.017700 0.388870
vn 0.999641 -0.026472 0.004108
vn 0.999641 0.026472 0.004108
vn 0.921123 0.017700 0.388870
vn 0.080980 0.001169 -0.996715
vn 0.364250 0.021402 -0.931055
vn 0.364251 -0.021402 -0.931055
vn 0.080979 -0.001169 -0.996715
vn 0.921123 0.017700 -0.388869
vn 0.999641 0.026472 -0.004108
vn 0.999641 -0.026472 -0.004108
vn 0.921123 -0.017700 -0.388869
vn -0.999641 0.026472 -0.004108
vn -0.921123 0.017700 -0.388869
vn -0.921123 -0.017700 -0.388869
vn -0.999641 -0.026472 -0.004108
vn -0.364250 0.021402 -0.931055
vn -0.080981 0.001169 -0.996715
vn -0.080981 -0.001169 -0.996715
vn -0.364251 -0.021402 -0.931055
vn -0.007356 -0.999965 -0.003937
vn -0.004839 -0.923159 -0.384389
vn 0.004839 -0.923159 -0.384389
vn 0.007356 -0.999965 -0.003937
vn -0.006415 -0.377194 -0.926112
vn -0.000312 -0.081147 -0.996702
vn 0.000312 -0.081148 -0.996702
vn 0.006415 -0.377194 -0.926112
vn 0.211022 0.011595 0.977413
vn 0.680033 0.011637 0.733089
vn 0.680033 -0.011637 0.733089
vn 0.211022 -0.011595 0.977413
vn 0.917375 0.038960 0.396112
vn 0.999410 0.029825 0.017033
vn 0.999410 -0.029825 0.017033
vn 0.917375 -0.038960 0.396112
vn 0.007501 0.999828 0.016939
vn 0.010151 0.922338 0.386250
vn -0.010151 0.922338 0.386250
vn -0.007501 0.999828 0.016939
vn 0.002946 0.684702 0.728817
vn 0.003083 0.207219 0.978290
vn -0.003083 0.207219 0.978290
vn -0.002946 0.684702 0.728817
vn -0.999410 0.029825 0.017033
vn -0.917375 0.038960 0.396112
vn -0.917375 -0.038961 0.396112
vn -0.999410 -0.029825 0.017033
vn -0.680033 0.011637 0.733089
vn -0.211021 0.011595 0.977413
vn -0.211022 -0.011595 0.977413
vn -0.680033 -0.011637 0.733089
vn -0.007501 -0.999828 0.016939
vn -0.010151 -0.922339 0.386249
vn 0.010151 -0.922339 0.386249
vn 0.007501 -0.999828 0.016939
vn -0.002946 -0.684702 0.728817
vn -0.003083 -0.207219 0.978290
vn 0.003083 -0.207219 0.978290
vn 0.002946 -0.684702 0.728817
vn -0.080981 0.001169 -0.996715
vn -0.057704 0.057703 -0.996665
vn -0.000312 0.081147 -0.996702
vn 0.000000 0.000000 -1.000000
vn -0.007356 0.999965 0.003937
vn -0.382677 0.923864 0.005766
vn -0.336558 0.812516 0.475968
vn -0.004839 0.923157 0.384393
vn -0.923865 0.382675 0.005766
vn -0.999641 0.026472 0.004108
vn -0.921123 0.017700 0.388870
vn -0.812519 0.336557 0.475964
vn -0.667585 -0.034149 0.743750
vn -0.392435 -0.392434 0.831860
vn -0.238009 -0.238009 0.941649
vn -0.509337 -0.008056 0.860530
vn -0.392435 -0.392434 0.831860
vn -0.009931 -0.680960 0.732254
vn -0.002220 -0.526568 0.850130
vn -0.238009 -0.238009 0.941649
vn 0.009931 -0.680960 0.732254
vn 0.392435 -0.392434 0.831860
vn 0.238009 -0.238009 0.941649
vn 0.002220 -0.526568 0.850130
vn 0.392435 -0.392434 0.831860
vn 0.667585 -0.034149 0.743750
vn 0.509337 -0.008056 0.860530
vn 0.238009 -0.238009 0.941649
vn 0.999641 0.026472 0.004108
vn 0.923865 0.382675 0.005766
vn 0.812519 0.336557 0.475964
vn 0.921123 0.017700 0.388870
vn 0.382677 0.923864 0.005766
vn 0.007356 0.999965 0.003937
vn 0.004839 0.923157 0.384393
vn 0.336558 0.812516 0.475969
vn -0.004839 0.923157 -0.384392
vn -0.336557 0.812518 -0.475967
vn -0.382677 0.923864 -0.005766
vn -0.007356 0.999965 -0.003937
vn -0.812522 0.336554 -0.475961
vn -0.921123 0.017700 -0.388869
vn -0.999641 0.026472 -0.004108
vn -0.923865 0.382675 -0.005766
vn 0.080980 0.001169 -0.996715
vn 0.057704 0.057704 -0.996665
vn 0.198757 0.198757 -0.959683
vn 0.364250 0.021402 -0.931055
vn 0.057704 0.057704 -0.996665
vn 0.000312 0.081147 -0.996702
vn 0.006415 0.377193 -0.926112
vn 0.198757 0.198757 -0.959683
vn -0.999641 0.026472 0.004108
vn -0.923865 0.382675 0.005766
vn -0.923865 0.382675 -0.005766
vn -0.999641 0.026472 -0.004108
vn -0.382677 0.923864 0.005766
vn -0.007356 0.999965 0.003937
vn -0.007356 0.999965 -0.003937
vn -0.382677 0.923864 -0.005766
vn 0.007356 0.999965 0.003937
vn 0.382677 0.923864 0.005766
vn 0.382677 0.923864 -0.005766
vn 0.007356 0.999965 -0.003937
vn 0.923865 0.382675 0.005766
vn 0.999641 0.026472 0.004108
vn 0.999641 0.026472 -0.004108
vn 0.923865 0.382675 -0.005766
vn 0.000312 -0.081148 -0.996702
vn 0.057703 -0.057703 -0.996665
vn 0.198758 -0.198756 -0.959683
vn 0.006415 -0.377194 -0.926112
vn 0.057703 -0.057703 -0.996665
vn 0.080979 -0.001169 -0.996715
vn 0.364251 -0.021402 -0.931055
vn 0.198758 -0.198756 -0.959683
vn 0.999641 -0.026472 0.004108
vn 0.923865 -0.382676 0.005766
vn 0.923865 -0.382676 -0.005766
vn 0.999641 -0.026472 -0.004108
vn 0.382677 -0.923864 0.005766
vn 0.007356 -0.999965 0.003937
vn 0.007356 -0.999965 -0.003937
vn 0.382677 -0.923864 -0.005766
vn -0.921123 -0.017700 -0.388869
vn -0.812520 -0.336555 -0.475965
vn -0.923865 -0.382676 -0.005766
vn -0.999641 -0.026472 -0.004108
vn -0.336557 -0.812520 -0.475963
vn -0.004839 -0.923159 -0.384389
vn -0.007356 -0.999965 -0.003937
vn -0.382677 -0.923864 -0.005766
vn -0.007356 -0.999965 0.003937
vn -0.382677 -0.923864 0.005766
vn -0.382677 -0.923864 -0.005766
vn -0.007356 -0.999965 -0.003937
vn -0.923865 -0.382676 0.005766
vn -0.999641 -0.026472 0.004108
vn -0.999641 -0.026472 -0.004108
vn -0.923865 -0.382676 -0.005766
vn -0.002220 0.526568 0.850130
vn -0.238010 0.238008 0.941649
vn 0.144556 -0.144558 0.978880
vn 0.003083 -0.207219 0.978290
vn -0.238010 0.238008 0.941649
vn -0.509337 0.008056 0.860530
vn 0.211022 -0.011595 0.977413
vn 0.144556 -0.144558 0.978880
vn 0.003083 -0.207219 0.978290
vn 0.144556 -0.144558 0.978880
vn 0.392433 -0.392432 0.831861
vn 0.002946 -0.684702 0.728817
vn 0.144556 -0.144558 0.978880
vn 0.211022 -0.011595 0.977413
vn 0.680033 -0.011637 0.733089
vn 0.392433 -0.392432 0.831861
vn 0.917375 0.038960 0.396112
vn 0.812529 0.336557 0.475948
vn 0.923691 0.382604 0.020210
vn 0.999410 0.029825 0.017033
vn 0.336559 0.812521 0.475960
vn 0.010151 0.922338 0.386250
vn 0.007501 0.999828 0.016939
vn 0.382605 0.923691 0.020211
vn -0.509337 -0.008056 0.860530
vn -0.238009 -0.238009 0.941649
vn 0.144556 0.144558 0.978880
vn 0.211022 0.011595 0.977413
vn -0.238009 -0.238009 0.941649
vn -0.002220 -0.526568 0.850130
vn 0.003083 0.207219 0.978290
vn 0.144556 0.144558 0.978880
vn -0.010151 0.922338 0.386250
vn -0.336559 0.812521 0.475960
vn -0.382605 0.923691 0.020211
vn -0.007501 0.999828 0.016939
vn -0.812528 0.336557 0.475949
vn -0.917375 0.038960 0.396112
vn -0.999410 0.029825 0.017033
vn -0.923691 0.382604 0.020210
vn 0.002220 -0.526568 0.850130
vn 0.238009 -0.238009 0.941649
vn -0.144556 0.144558 0.978880
vn -0.003083 0.207219 0.978290
vn 0.238009 -0.238009 0.941649
vn 0.509337 -0.008056 0.860530
vn -0.211021 0.011595 0.977413
vn -0.144556 0.144558 0.978880
vn -0.917375 -0.038961 0.396112
vn -0.812525 -0.336558 0.475953
vn -0.923691 -0.382604 0.020210
vn -0.999410 -0.029825 0.017033
vn -0.336559 -0.812521 0.475960
vn -0.010151 -0.922339 0.386249
vn -0.007501 -0.999828 0.016939
vn -0.382605 -0.923691 0.020211
vn 0.509337 0.008056 0.860530
vn 0.238010 0.238008 0.941649
vn -0.144556 -0.144558 0.978880
vn -0.211022 -0.011595 0.977413
vn 0.238010 0.238008 0.941649
vn 0.002220 0.526568 0.850130
vn -0.003083 -0.207219 0.978290
vn -0.144556 -0.144558 0.978880
vn 0.999410 0.029825 0.017033
vn 0.923691 0.382604 0.020210
vn 0.923764 0.382634 0.015886
vn 0.999469 0.030507 0.011434
vn 0.382605 0.923691 0.020211
vn 0.007501 0.999828 0.016939
vn 0.007680 0.999911 0.010878
vn 0.382634 0.923763 0.015886
vn -0.007501 0.999828 0.016939
vn -0.382605 0.923691 0.020211
vn -0.382634 0.923763 0.015886
vn -0.007680 0.999911 0.010878
vn -0.923691 0.382604 0.020210
vn -0.999410 0.029825 0.017033
vn -0.999469 0.030507 0.011434
vn -0.923764 0.382634 0.015886
vn -0.999410 -0.029825 0.017033
vn -0.923691 -0.382604 0.020210
vn -0.923764 -0.382634 0.015886
vn -0.999469 -0.030507 0.011434
vn -0.382605 -0.923691 0.020211
vn -0.007501 -0.999828 0.016939
vn -0.007680 -0.999911 0.010878
vn -0.382635 -0.923763 0.015886
vn 0.007501 -0.999828 0.016939
vn 0.382605 -0.923691 0.020211
vn 0.382635 -0.923763 0.015886
vn 0.007680 -0.999911 0.010878
vn 0.923691 -0.382604 0.020210
vn 0.999410 -0.029825 0.017033
vn 0.999469 -0.030507 0.011434
vn 0.923764 -0.382634 0.015886
vn -0.080981 -0.001169 -0.996715
vn 0.000000 0.000000 -1.000000
vn -0.000312 -0.081147 -0.996702
vn -0.057704 -0.057704 -0.996665
vn 0.000000 0.000000 -1.000000
vn 0.000312 0.081147 -0.996702
vn 0.057704 0.057704 -0.996665
vn 0.080980 0.001169 -0.996715
vn 0.000312 -0.081148 -0.996702
vn 0.000000 0.000000 -1.000000
vn 0.080979 -0.001169 -0.996715
vn 0.057703 -0.057703 -0.996665
vn -0.080981 0.001169 -0.996715
vn 0.000000 0.000000 -1.000000
vn 0.000000 0.000000 -1.000000
vn -0.080981 -0.001169 -0.996715
vn 0.080979 -0.001169 -0.996715
vn 0.000000 0.000000 -1.000000
vn 0.000000 0.000000 -1.000000
vn 0.080980 0.001169 -0.996715
vn -0.000312 -0.081147 -0.996702
vn 0.000000 0.000000 -1.000000
vn 0.000000 0.000000 -1.000000
vn 0.000312 -0.081148 -0.996702
vn 0.000000 0.000000 -1.000000
vn 0.000000 0.000000 -1.000000
vn 0.000000 0.000000 -1.000000
vn 0.000000 0.000000 -1.000000
vn 0.000000 0.000000 -1.000000
vn -0.000312 0.081147 -0.996702
vn 0.000312 0.081147 -0.996702
vn 0.000000 0.000000 -1.000000
s off
g Unit_Base_18:Unit_Base_18 S_U_02
usemtl Unit_Base_18:aiStandardSurface1SG
f 6/1/1 5/2/2 8/3/3 7/4/4
f 5/2/5 4/5/6 9/6/7 8/3/8
f 12/7/9 11/8/10 17/9/11 16/10/12
f 11/11/13 10/12/14 18/13/15 17/14/16
f 21/15/17 20/16/18 26/17/19 25/18/20
f 20/19/21 19/20/22 27/21/23 26/22/24
f 33/23/25 32/24/26 35/25/27 34/26/28
f 32/24/29 31/27/30 36/28/31 35/25/32
f 39/29/33 38/30/34 42/31/35 41/32/36
f 38/30/37 37/33/38 40/34/39 42/31/40
f 48/35/41 47/36/42 53/37/43 52/38/44
f 47/39/45 46/40/46 54/41/47 53/42/48
f 60/43/49 59/44/50 62/45/51 61/46/52
f 59/47/53 58/48/54 63/49/55 62/50/56
f 66/51/57 65/52/58 71/53/59 70/54/60
f 65/52/61 64/55/62 72/56/63 71/53/64
f 78/57/65 77/58/66 80/59/67 79/60/68
f 77/58/69 76/61/70 81/62/71 80/59/72
f 84/63/73 83/64/74 89/65/75 88/66/76
f 83/64/77 82/67/78 90/68/79 89/65/80
f 93/69/81 92/70/82 98/71/83 97/72/84
f 92/70/85 91/73/86 99/74/87 98/71/88
f 102/75/89 101/76/90 107/77/91 106/78/92
f 101/76/93 100/79/94 108/80/95 107/77/96
f 40/34/97 37/33/98 46/40/99 44/81/100
f 37/33/101 49/82/102 54/41/103 46/40/104
f 3/83/105 28/84/106 54/41/107 49/82/108
f 69/85/109 61/46/110 27/21/111 16/10/112
f 25/18/113 63/49/114 52/38/115 30/86/116
f 67/87/117 18/13/118 1/88/119 51/89/120
f 15/90/121 22/91/122 99/74/123 88/66/124
f 24/92/125 34/26/126 108/80/127 97/72/128
f 36/28/129 7/4/130 75/93/131 106/78/132
f 9/6/133 13/94/134 90/68/135 73/95/136
f 87/96/137 94/97/138 114/98/139 109/99/140
f 96/100/141 103/101/142 117/102/143 112/103/144
f 105/104/145 79/60/146 120/105/147 115/106/148
f 81/62/149 85/107/150 111/108/151 118/109/152
f 18/13/153 10/12/154 4/5/155 1/88/156
f 10/12/157 13/94/158 9/6/159 4/5/160
f 15/90/161 12/110/162 19/111/163 22/91/164
f 12/7/165 16/10/166 27/21/167 19/20/168
f 3/83/169 6/1/170 31/27/171 28/84/172
f 6/1/173 7/4/174 36/28/175 31/27/176
f 24/92/177 21/15/178 33/23/179 34/26/180
f 21/15/181 25/18/182 30/86/183 33/23/184
f 43/112/185 48/113/186 58/114/187 56/115/188
f 48/35/189 52/38/190 63/49/191 58/48/192
f 51/89/193 39/116/194 64/117/195 67/87/196
f 39/29/197 41/32/198 72/56/199 64/55/200
f 69/85/201 66/51/202 60/43/203 61/46/204
f 66/51/205 70/54/206 55/118/207 60/43/208
f 90/68/209 82/67/210 76/61/211 73/95/212
f 82/67/213 85/107/214 81/62/215 76/61/216
f 87/96/217 84/63/218 91/73/219 94/97/220
f 84/63/221 88/66/222 99/74/223 91/73/224
f 96/100/225 93/69/226 100/79/227 103/101/228
f 93/69/229 97/72/230 108/80/231 100/79/232
f 105/104/233 102/75/234 78/57/235 79/60/236
f 102/75/237 106/78/238 75/93/239 78/57/240
f 41/32/241 42/31/242 40/34/243 121/119/244
f 3/83/245 2/120/246 5/2/247 6/1/248
f 2/121/249 1/88/250 4/5/251 5/2/252
f 10/12/253 11/11/254 14/122/255 13/94/256
f 11/11/257 12/110/258 15/90/259 14/122/260
f 19/111/261 20/16/262 23/123/263 22/91/264
f 20/16/265 21/15/266 24/92/267 23/123/268
f 30/86/269 29/124/270 32/24/271 33/23/272
f 29/125/273 28/84/274 31/27/275 32/24/276
f 37/33/277 38/30/278 50/126/279 49/82/280
f 38/127/281 39/116/282 51/89/283 50/128/284
f 43/112/285 45/129/286 47/39/287 48/113/288
f 45/129/289 44/81/290 46/40/291 47/39/292
f 1/88/293 2/121/294 50/128/295 51/89/296
f 2/120/297 3/83/298 49/82/299 50/126/300
f 28/84/301 29/125/302 53/42/303 54/41/304
f 29/124/305 30/86/306 52/38/307 53/37/308
f 55/118/309 57/130/310 59/44/311 60/43/312
f 57/130/313 56/115/314 58/114/315 59/44/316
f 25/18/317 26/17/318 62/50/319 63/49/320
f 26/22/321 27/21/322 61/46/323 62/45/324
f 64/117/325 65/131/326 68/132/327 67/87/328
f 65/52/329 66/51/330 69/85/331 68/133/332
f 16/10/333 17/9/334 68/133/335 69/85/336
f 17/14/337 18/13/338 67/87/339 68/132/340
f 7/4/341 8/3/342 74/134/343 75/93/344
f 8/3/345 9/6/346 73/95/347 74/134/348
f 75/93/349 74/134/350 77/58/351 78/57/352
f 74/134/353 73/95/354 76/61/355 77/58/356
f 82/67/357 83/64/358 86/135/359 85/107/360
f 83/64/361 84/63/362 87/96/363 86/135/364
f 13/94/365 14/122/366 89/65/367 90/68/368
f 14/122/369 15/90/370 88/66/371 89/65/372
f 91/73/373 92/70/374 95/136/375 94/97/376
f 92/70/377 93/69/378 96/100/379 95/136/380
f 22/91/381 23/123/382 98/71/383 99/74/384
f 23/123/385 24/92/386 97/72/387 98/71/388
f 100/79/389 101/76/390 104/137/391 103/101/392
f 101/76/393 102/75/394 105/104/395 104/137/396
f 34/26/397 35/25/398 107/77/399 108/80/400
f 35/25/401 36/28/402 106/78/403 107/77/404
f 85/107/405 86/135/406 110/138/407 111/108/408
f 86/135/409 87/96/410 109/99/411 110/138/412
f 94/97/413 95/136/414 113/139/415 114/98/416
f 95/136/417 96/100/418 112/103/419 113/139/420
f 103/101/421 104/137/422 116/140/423 117/102/424
f 104/137/425 105/104/426 115/106/427 116/140/428
f 79/60/429 80/59/430 119/141/431 120/105/432
f 80/59/433 81/62/434 118/109/435 119/141/436
f 72/56/437 122/142/438 70/54/439 71/53/440
f 124/143/441 44/81/442 45/129/443 43/112/444
f 55/118/445 123/144/446 56/115/447 57/130/448
f 41/32/449 121/119/450 122/142/451 72/56/452
f 56/115/453 123/144/454 124/143/455 43/112/456
f 70/54/457 122/142/458 123/144/459 55/118/460
f 124/143/461 123/144/462 122/142/463 121/119/464
f 121/119/465 40/34/466 44/81/467 124/143/468
g default
v -418.292267 258.369476 174.425751
v 418.292114 258.369507 174.425751
v -418.292267 4.475551 174.425751
v 418.292114 4.475541 174.425751
v 465.887238 52.070671 174.425751
v 465.887207 210.774353 174.425751
v -465.887238 52.070671 174.425751
v -465.887238 210.774399 174.425751
v -451.946991 244.429214 174.425751
v 451.947052 244.429260 174.425751
v -451.946991 18.415829 174.425751
v 451.946991 18.415810 174.425751
v -410.859100 221.000626 169.279846
v -411.158936 222.507858 172.918579
v -411.882690 226.146545 174.425751
v 410.859070 221.000626 169.279846
v 411.158905 222.507858 172.918579
v 411.882690 226.146545 174.425751
v -428.518402 203.341293 169.279846
v -430.025543 203.641098 172.918579
v -433.664276 204.364883 174.425751
v -428.518402 59.503777 169.279846
v -430.025543 59.203972 172.918579
v -433.664276 58.480194 174.425751
v -410.859100 41.844429 169.279846
v -411.158936 40.337219 172.918579
v -411.882690 36.698509 174.425751
v 410.859070 41.844429 169.279846
v 411.158905 40.337219 172.918579
v 411.882690 36.698509 174.425751
v 428.518372 203.341293 169.279846
v 430.025604 203.641098 172.918579
v 433.664276 204.364883 174.425751
v 428.518372 59.503777 169.279846
v 430.025604 59.203972 172.918579
v 433.664276 58.480194 174.425751
v -423.346100 215.828308 169.279846
v -424.499664 216.981873 172.918579
v -427.284637 219.766815 174.425751
v 423.346100 215.828308 169.279846
v 424.499664 216.981873 172.918579
v 427.284607 219.766815 174.425751
v -423.346100 47.016724 169.279846
v -424.499664 45.863159 172.918579
v -427.284637 43.078209 174.425751
v 423.346100 47.016724 169.279846
v 424.499664 45.863159 172.918579
v 427.284607 43.078209 174.425751
v -414.139557 189.646149 142.274048
v -413.284180 190.295258 151.811523
v -414.227722 73.181526 142.274231
v -413.284180 72.549797 151.811523
v -395.446960 205.493759 142.298523
v -396.323486 204.705383 151.852417
v 395.430817 205.413666 142.298340
v 396.323456 204.705383 151.852417
v 414.227692 184.480667 142.274231
v 413.284149 185.112396 151.811523
v 414.139496 73.198914 142.274048
v 413.284149 72.549797 151.811523
v -395.430817 57.431404 142.298340
v -396.323486 58.139671 151.852417
v 395.446960 57.351295 142.298523
v 396.323456 58.139671 151.852417
v -408.750397 200.929276 142.373047
v -408.362946 200.523560 151.983948
v 408.747406 200.926270 142.372986
v 408.362946 200.523560 151.983948
v -408.747406 61.918762 142.372986
v -408.362946 62.321503 151.983948
v 408.750488 61.915794 142.373047
v 408.362946 62.321503 151.983948
vt 0.618864 0.999999
vt 0.381137 1.000000
vt 0.381137 1.000000
vt 0.618864 1.000000
vt 0.625000 0.225002
vt 0.625000 0.024997
vt 0.625000 0.024998
vt 0.625000 0.225002
vt 0.618863 0.250000
vt 0.618863 0.250000
vt 0.381136 0.250000
vt 0.381136 0.250000
vt 0.375000 0.225003
vt 0.375000 0.225002
vt 0.375000 0.024998
vt 0.375000 0.024999
vt 0.375000 0.250000
vt 0.375000 0.250000
vt 0.625000 0.250000
vt 0.625000 0.250000
vt 0.375000 1.000000
vt 0.375000 1.000000
vt 0.625000 0.000000
vt 0.625000 0.000000
vt 0.381136 0.287496
vt 0.381136 0.250000
vt 0.375000 0.250000
vt 0.375000 0.287496
vt 0.381136 0.250000
vt 0.375000 0.250000
vt 0.618863 0.250000
vt 0.618863 0.287496
vt 0.618863 0.250000
vt 0.337504 0.225002
vt 0.375000 0.225002
vt 0.375000 0.024998
vt 0.337504 0.024998
vt 0.375000 0.225002
vt 0.375000 0.024998
vt 0.375000 1.000000
vt 0.337504 0.850015
vt 0.375000 1.000000
vt 0.381137 0.962504
vt 0.381137 1.000000
vt 0.618864 1.000000
vt 0.618864 0.962504
vt 0.381137 1.000000
vt 0.618864 1.000000
vt 0.625000 0.000000
vt 0.625000 0.112488
vt 0.625000 0.000000
vt 0.662496 0.225002
vt 0.625000 0.225002
vt 0.625000 0.250000
vt 0.662496 0.250000
vt 0.625000 0.225002
vt 0.625000 0.250000
vt 0.625000 0.024998
vt 0.662496 0.024998
vt 0.625000 0.024998
vt 0.381136 0.449963
vt 0.618864 0.449963
vt 0.618864 0.800038
vt 0.381136 0.800037
vt 0.825261 0.225002
vt 0.825261 0.024998
vt 0.174739 0.024998
vt 0.174739 0.225002
vt 0.375000 0.449002
vt 0.824004 0.250000
vt 0.175996 0.203984
vt 0.625000 0.597005
vt 0.125000 0.225002
vt 0.125000 0.024998
vt 0.125000 0.000000
vt 0.381136 0.500000
vt 0.375000 0.500000
vt 0.618864 0.500000
vt 0.875000 0.225002
vt 0.875000 0.250000
vt 0.875000 0.024998
vt 0.381136 0.750000
vt 0.618864 0.750000
vt 0.625000 0.750000
vn -0.000236 0.038628 0.999254
vn 0.000236 0.038628 0.999254
vn 0.000000 0.000000 1.000000
vn 0.000000 0.000000 1.000000
vn -0.028105 -0.001178 0.999604
vn -0.028105 0.001178 0.999604
vn 0.000000 0.000000 1.000000
vn 0.000000 0.000000 1.000000
vn -0.000236 -0.038628 0.999254
vn 0.000000 0.000000 1.000000
vn 0.000000 0.000000 1.000000
vn 0.000236 -0.038628 0.999254
vn 0.028105 -0.001178 0.999604
vn 0.000000 0.000000 1.000000
vn 0.000000 0.000000 1.000000
vn 0.028105 0.001178 0.999604
vn 0.013350 -0.015638 0.999789
vn 0.000000 0.000000 1.000000
vn 0.000000 0.000000 1.000000
vn 0.028105 -0.001178 0.999604
vn 0.000236 -0.038628 0.999254
vn 0.000000 0.000000 1.000000
vn 0.000000 0.000000 1.000000
vn 0.013350 -0.015638 0.999789
vn -0.013350 -0.015638 0.999789
vn 0.000000 0.000000 1.000000
vn 0.000000 0.000000 1.000000
vn -0.000236 -0.038628 0.999254
vn -0.028105 -0.001178 0.999604
vn 0.000000 0.000000 1.000000
vn 0.000000 0.000000 1.000000
vn -0.013350 -0.015638 0.999789
vn 0.013350 0.015638 0.999789
vn 0.000000 0.000000 1.000000
vn 0.000000 0.000000 1.000000
vn 0.000236 0.038628 0.999254
vn 0.028105 0.001178 0.999604
vn 0.000000 0.000000 1.000000
vn 0.000000 0.000000 1.000000
vn 0.013350 0.015638 0.999789
vn -0.013350 0.015638 0.999789
vn 0.000000 0.000000 1.000000
vn 0.000000 0.000000 1.000000
vn -0.028105 0.001178 0.999604
vn -0.000236 0.038628 0.999254
vn 0.000000 0.000000 1.000000
vn 0.000000 0.000000 1.000000
vn -0.013350 0.015638 0.999789
vn 0.004728 -0.763728 0.645520
vn 0.005308 -0.703021 0.711149
vn 0.471784 -0.458106 0.753365
vn 0.449401 -0.506631 0.735774
vn 0.005308 -0.703021 0.711149
vn 0.000236 -0.038628 0.999254
vn 0.013350 -0.015638 0.999789
vn 0.471784 -0.458106 0.753365
vn 0.000236 -0.038628 0.999254
vn 0.005308 -0.703021 0.711149
vn -0.005308 -0.703021 0.711149
vn -0.000236 -0.038628 0.999254
vn 0.005308 -0.703021 0.711149
vn 0.004728 -0.763728 0.645520
vn -0.004728 -0.763728 0.645520
vn -0.005308 -0.703021 0.711149
vn 0.777311 -0.032079 0.628298
vn 0.693800 -0.024245 0.719759
vn 0.693800 0.024245 0.719759
vn 0.777311 0.032079 0.628298
vn 0.693800 -0.024245 0.719759
vn 0.028105 -0.001178 0.999604
vn 0.028105 0.001178 0.999604
vn 0.693800 0.024245 0.719759
vn 0.777311 0.032079 0.628298
vn 0.693800 0.024245 0.719759
vn 0.471783 0.458105 0.753366
vn 0.449401 0.506631 0.735774
vn 0.693800 0.024245 0.719759
vn 0.028105 0.001178 0.999604
vn 0.013350 0.015638 0.999789
vn 0.471783 0.458105 0.753366
vn 0.004728 0.763729 0.645520
vn 0.005308 0.703021 0.711149
vn -0.005308 0.703021 0.711149
vn -0.004728 0.763729 0.645520
vn 0.005308 0.703021 0.711149
vn 0.000236 0.038628 0.999254
vn -0.000236 0.038628 0.999254
vn -0.005308 0.703021 0.711149
vn -0.004728 0.763729 0.645520
vn -0.005308 0.703021 0.711149
vn -0.471783 0.458105 0.753366
vn -0.449400 0.506631 0.735775
vn -0.005308 0.703021 0.711149
vn -0.000236 0.038628 0.999254
vn -0.013350 0.015638 0.999789
vn -0.471783 0.458105 0.753366
vn -0.777310 -0.032079 0.628300
vn -0.693797 -0.024245 0.719762
vn -0.471783 -0.458106 0.753366
vn -0.449401 -0.506631 0.735775
vn -0.693797 -0.024245 0.719762
vn -0.028105 -0.001178 0.999604
vn -0.013350 -0.015638 0.999789
vn -0.471783 -0.458106 0.753366
vn -0.028105 -0.001178 0.999604
vn -0.693797 -0.024245 0.719762
vn -0.693798 0.024245 0.719762
vn -0.028105 0.001178 0.999604
vn -0.693797 -0.024245 0.719762
vn -0.777310 -0.032079 0.628300
vn -0.777310 0.032079 0.628300
vn -0.693798 0.024245 0.719762
vn 0.028105 -0.001178 0.999604
vn 0.693800 -0.024245 0.719759
vn 0.471784 -0.458106 0.753365
vn 0.013350 -0.015638 0.999789
vn 0.693800 -0.024245 0.719759
vn 0.777311 -0.032079 0.628298
vn 0.449401 -0.506631 0.735774
vn 0.471784 -0.458106 0.753365
vn -0.000236 -0.038628 0.999254
vn -0.005308 -0.703021 0.711149
vn -0.471783 -0.458106 0.753366
vn -0.013350 -0.015638 0.999789
vn -0.005308 -0.703021 0.711149
vn -0.004728 -0.763728 0.645520
vn -0.449401 -0.506631 0.735775
vn -0.471783 -0.458106 0.753366
vn 0.000236 0.038628 0.999254
vn 0.005308 0.703021 0.711149
vn 0.471783 0.458105 0.753366
vn 0.013350 0.015638 0.999789
vn 0.005308 0.703021 0.711149
vn 0.004728 0.763729 0.645520
vn 0.449401 0.506631 0.735774
vn 0.471783 0.458105 0.753366
vn -0.028105 0.001178 0.999604
vn -0.693798 0.024245 0.719762
vn -0.471783 0.458105 0.753366
vn -0.013350 0.015638 0.999789
vn -0.693798 0.024245 0.719762
vn -0.777310 0.032079 0.628300
vn -0.449400 0.506631 0.735775
vn -0.471783 0.458105 0.753366
vn 0.005406 -0.861259 0.508138
vn -0.005420 -0.861243 0.508165
vn -0.004728 -0.763728 0.645520
vn 0.004728 -0.763728 0.645520
vn 0.004728 0.763729 0.645520
vn -0.004728 0.763729 0.645520
vn -0.005406 0.861259 0.508138
vn 0.005420 0.861242 0.508166
vn -0.777310 0.032079 0.628300
vn -0.777310 -0.032079 0.628300
vn -0.862278 -0.029166 0.505595
vn -0.862216 0.029252 0.505696
vn 0.862278 0.029166 0.505595
vn 0.862216 -0.029253 0.505696
vn 0.777311 -0.032079 0.628298
vn 0.777311 0.032079 0.628298
vn 0.777311 -0.032079 0.628298
vn 0.862216 -0.029253 0.505696
vn 0.529306 -0.562896 0.634810
vn 0.449401 -0.506631 0.735774
vn 0.449401 -0.506631 0.735774
vn 0.529306 -0.562896 0.634810
vn 0.005406 -0.861259 0.508138
vn 0.004728 -0.763728 0.645520
vn -0.004728 -0.763728 0.645520
vn -0.005420 -0.861243 0.508165
vn -0.528756 -0.563406 0.634815
vn -0.449401 -0.506631 0.735775
vn -0.449401 -0.506631 0.735775
vn -0.528756 -0.563406 0.634815
vn -0.862278 -0.029166 0.505595
vn -0.777310 -0.032079 0.628300
vn 0.004728 0.763729 0.645520
vn 0.005420 0.861242 0.508166
vn 0.528756 0.563406 0.634816
vn 0.449401 0.506631 0.735774
vn 0.449401 0.506631 0.735774
vn 0.528756 0.563406 0.634816
vn 0.862278 0.029166 0.505595
vn 0.777311 0.032079 0.628298
vn -0.777310 0.032079 0.628300
vn -0.862216 0.029252 0.505696
vn -0.529306 0.562896 0.634810
vn -0.449400 0.506631 0.735775
vn -0.449400 0.506631 0.735775
vn -0.529306 0.562896 0.634810
vn -0.005406 0.861259 0.508138
vn -0.004728 0.763729 0.645520
vn 0.995068 -0.039659 -0.090927
vn 0.862216 -0.029253 0.505696
vn 0.862278 0.029166 0.505595
vn 0.995045 0.039317 -0.091317
vn 0.995045 0.039317 -0.091317
vn 0.862278 0.029166 0.505595
vn 0.528756 0.563406 0.634816
vn 0.639995 0.766366 -0.055581
vn 0.005594 -0.996963 -0.077682
vn 0.005406 -0.861259 0.508138
vn 0.529306 -0.562896 0.634810
vn 0.642346 -0.764368 -0.055971
vn 0.005406 -0.861259 0.508138
vn 0.005594 -0.996963 -0.077682
vn -0.005656 -0.996968 -0.077606
vn -0.005420 -0.861243 0.508165
vn -0.995046 -0.039317 -0.091316
vn -0.862278 -0.029166 0.505595
vn -0.528756 -0.563406 0.634815
vn -0.639995 -0.766366 -0.055580
vn -0.862278 -0.029166 0.505595
vn -0.995046 -0.039317 -0.091316
vn -0.995068 0.039658 -0.090926
vn -0.862216 0.029252 0.505696
vn 0.005656 0.996968 -0.077606
vn 0.005420 0.861242 0.508166
vn -0.005406 0.861259 0.508138
vn -0.005594 0.996963 -0.077682
vn -0.005594 0.996963 -0.077682
vn -0.005406 0.861259 0.508138
vn -0.529306 0.562896 0.634810
vn -0.642346 0.764368 -0.055973
vn 0.862216 -0.029253 0.505696
vn 0.995068 -0.039659 -0.090927
vn 0.642346 -0.764368 -0.055971
vn 0.529306 -0.562896 0.634810
vn -0.005420 -0.861243 0.508165
vn -0.005656 -0.996968 -0.077606
vn -0.639995 -0.766366 -0.055580
vn -0.528756 -0.563406 0.634815
vn 0.005420 0.861242 0.508166
vn 0.005656 0.996968 -0.077606
vn 0.639995 0.766366 -0.055581
vn 0.528756 0.563406 0.634816
vn -0.862216 0.029252 0.505696
vn -0.995068 0.039658 -0.090926
vn -0.642346 0.764368 -0.055973
vn -0.529306 0.562896 0.634810
s off
g S_U_02 Window_Frame_11:Window_Frame_11
usemtl Window_Frame_11:aiStandardSurface1SG
f 154/145/469 151/146/470 127/147/471 128/148/472
f 157/149/473 160/150/474 129/151/475 130/152/476
f 142/153/477 126/154/478 125/155/479 139/156/480
f 145/157/481 132/158/482 131/159/483 148/160/484
f 163/161/485 133/162/486 132/158/487 145/157/488
f 139/156/489 125/155/490 133/162/491 163/161/492
f 166/163/493 134/164/494 126/154/495 142/153/496
f 157/149/497 130/152/498 134/164/499 166/163/500
f 169/165/501 135/166/502 127/147/503 151/146/504
f 148/160/505 131/159/506 135/166/507 169/165/508
f 172/167/509 136/168/510 129/151/511 160/150/512
f 154/145/513 128/148/514 136/168/515 172/167/516
f 137/169/517 138/170/518 162/171/519 161/172/520
f 138/173/521 139/156/522 163/161/523 162/174/524
f 139/156/525 138/173/526 141/175/527 142/153/528
f 138/170/529 137/169/530 140/176/531 141/177/532
f 143/178/533 144/179/534 147/180/535 146/181/536
f 144/182/537 145/157/538 148/160/539 147/183/540
f 146/181/541 147/180/542 168/184/543 167/185/544
f 147/183/545 148/160/546 169/165/547 168/186/548
f 149/187/549 150/188/550 153/189/551 152/190/552
f 150/191/553 151/146/554 154/145/555 153/192/556
f 152/190/557 153/189/558 171/193/559 170/194/560
f 153/192/561 154/145/562 172/167/563 171/195/564
f 155/196/565 156/197/566 165/198/567 164/199/568
f 156/200/569 157/149/570 166/163/571 165/201/572
f 157/149/573 156/200/574 159/202/575 160/150/576
f 156/197/577 155/196/578 158/203/579 159/204/580
f 145/157/581 144/182/582 162/174/583 163/161/584
f 144/179/585 143/178/586 161/172/587 162/171/588
f 142/153/589 141/175/590 165/201/591 166/163/592
f 141/177/593 140/176/594 164/199/595 165/198/596
f 151/146/597 150/191/598 168/186/599 169/165/600
f 150/188/601 149/187/602 167/185/603 168/184/604
f 160/150/605 159/202/606 171/195/607 172/167/608
f 159/204/609 158/203/610 170/194/611 171/193/612
f 178/205/613 180/206/614 140/176/615 137/169/616
f 149/187/617 152/190/618 188/207/619 186/208/620
f 158/203/621 155/196/622 182/209/623 184/210/624
f 176/211/625 174/212/626 143/178/627 146/181/628
f 143/178/629 174/212/630 190/213/631 161/172/632
f 161/172/633 190/213/634 178/205/635 137/169/636
f 140/176/637 180/206/638 192/214/639 164/199/640
f 164/199/641 192/214/642 182/209/643 155/196/644
f 149/187/645 186/208/646 194/215/647 167/185/648
f 167/185/649 194/215/650 176/211/651 146/181/652
f 158/203/653 184/210/654 196/216/655 170/194/656
f 170/194/657 196/216/658 188/207/659 152/190/660
f 173/217/661 174/212/662 176/211/663 175/218/664
f 175/218/665 176/211/666 194/215/667 193/219/668
f 177/220/669 178/205/670 190/213/671 189/221/672
f 178/205/673 177/220/674 179/222/675 180/206/676
f 181/223/677 182/209/678 192/214/679 191/224/680
f 182/209/681 181/223/682 183/225/683 184/210/684
f 185/226/685 186/208/686 188/207/687 187/227/688
f 187/227/689 188/207/690 196/216/691 195/228/692
f 174/212/693 173/217/694 189/221/695 190/213/696
f 180/206/697 179/222/698 191/224/699 192/214/700
f 186/208/701 185/226/702 193/219/703 194/215/704
f 184/210/705 183/225/706 195/228/707 196/216/708
g default
v -431.033264 36.430222 146.610474
v 431.033264 36.430222 146.610474
v -431.033264 226.154709 146.610474
v 431.033264 226.154709 146.610474
vt 0.376649 0.007228
vt 0.376440 0.000000
vt 0.623351 0.007228
vt 0.623560 0.000000
vn -0.001919 -0.008768 0.999960
vn 0.001919 -0.008768 0.999960
vn 0.001919 0.008768 0.999960
vn -0.001919 0.008768 0.999960
s off
g S_U_02 Window_15:Window_15
usemtl Window_15:aiStandardSurface1SG
f 197/229/709 198/230/710 200/231/711 199/232/712
