# This file uses centimeters as units for non-parametric coordinates.

mtllib BlockOut_TF4.mtl
g default
v -2086.342275 3882.492724 2385.411627
v -1337.905888 3882.492724 2385.411627
v -2086.342275 3882.492724 2014.996414
v -1337.905888 3882.492724 2014.996414
v -2024.554993 3653.629490 2385.411627
v -2086.342275 3715.416751 2385.411627
v -2086.342275 3715.416751 2014.996414
v -2024.554993 3653.629490 2014.996414
v -1337.905888 3715.416751 2385.411627
v -1399.693170 3653.629490 2385.411627
v -1399.693170 3653.629490 2014.996414
v -1337.905888 3715.416751 2014.996414
v -2026.355196 3649.283230 2402.978140
v -2026.355196 3649.283230 1997.429924
v -1397.892967 3649.283230 1997.429924
v -1397.892967 3649.283230 2402.978140
v -2101.837030 3724.764714 2402.978140
v -2101.837030 3724.764714 1997.429924
v -1322.411134 3724.764714 2402.978140
v -1322.411134 3724.764714 1997.429924
v -2036.594392 3624.563262 2402.978140
v -2036.594392 3624.563262 1997.429924
v -1387.653772 3624.563262 1997.429924
v -1387.653772 3624.563262 2402.978140
v -2119.316673 3707.285166 2402.978140
v -2119.316673 3707.285166 1997.429924
v -1304.931490 3707.285166 2402.978140
v -1304.931490 3707.285166 1997.429924
v -2036.443319 3636.307091 2406.132932
v -1387.804844 3636.307091 2406.132932
v -1307.472134 3716.640331 2406.132932
v -1307.472134 3716.640331 1994.275131
v -1387.804844 3636.307091 1994.275131
v -2036.443319 3636.307091 1994.275131
v -2116.776029 3716.640331 1994.275131
v -2116.776029 3716.640331 2406.132932
v -2107.168627 3882.492724 2406.237915
v -1317.079537 3882.492724 2406.237915
v -1317.079537 3882.492724 1994.170126
v -2107.168627 3882.492724 1994.170126
v -2068.866401 3934.479347 2367.935658
v -1355.381762 3934.479347 2367.935658
v -1355.381762 3934.479347 2032.472361
v -2068.866401 3934.479347 2032.472361
v -2048.311749 3934.479347 2347.381024
v -1375.936415 3934.479347 2347.381024
v -1375.936415 3934.479347 2053.027018
v -2048.311749 3934.479347 2053.027018
v -2048.311749 3958.330630 2347.381024
v -1375.936415 3958.330630 2347.381024
v -1375.936415 3958.330630 2053.027018
v -2048.311749 3958.330630 2053.027018
vt 0.375000 0.500000
vt 0.375000 0.067493
vt 0.395639 0.000000
vt 0.604361 0.000000
vt 0.375000 0.250000
vt 0.625000 0.500000
vt 0.375000 0.682507
vt 0.125000 0.067493
vt 0.125000 0.250000
vt 0.625000 0.067493
vt 0.875000 0.067493
vt 0.875000 0.250000
vt 0.625000 0.250000
vt 0.395639 1.000000
vt 0.604361 0.750000
vt 0.375000 1.000000
vt 0.395639 0.750000
vt 0.625000 1.000000
vt 0.604361 1.000000
vt 0.625000 0.682507
vt 0.395639 0.750000
vt 0.604361 0.750000
vt 0.604361 1.000000
vt 0.395639 1.000000
vt 0.375000 1.000000
vt 0.375000 0.682507
vt 0.625000 1.000000
vt 0.625000 0.682507
vt 0.395639 0.750000
vt 0.604361 0.750000
vt 0.604361 1.000000
vt 0.395639 1.000000
vt 0.375000 1.000000
vt 0.375000 0.682507
vt 0.625000 1.000000
vt 0.625000 0.682507
vt 0.395639 1.000000
vt 0.604361 1.000000
vt 0.625000 1.000000
vt 0.625000 0.682507
vt 0.604361 0.750000
vt 0.395639 0.750000
vt 0.375000 0.682507
vt 0.375000 1.000000
vt 0.375000 0.250000
vt 0.625000 0.250000
vt 0.625000 0.500000
vt 0.375000 0.500000
vt 0.375000 0.250000
vt 0.625000 0.250000
vt 0.625000 0.500000
vt 0.375000 0.500000
vt 0.375000 0.250000
vt 0.625000 0.250000
vt 0.625000 0.500000
vt 0.375000 0.500000
vt 0.375000 0.250000
vt 0.625000 0.250000
vt 0.625000 0.500000
vt 0.375000 0.500000
vn 0.000000 1.000000 0.000000
vn 0.000000 1.000000 0.000000
vn 0.000000 1.000000 0.000000
vn 0.000000 1.000000 0.000000
vn 0.000000 0.000000 -1.000000
vn 0.000000 0.000000 -1.000000
vn 0.000000 0.000000 -1.000000
vn 0.000000 0.000000 -1.000000
vn 0.000000 0.000000 -1.000000
vn 0.000000 0.000000 -1.000000
vn 0.000000 -1.000000 0.000000
vn 0.000000 -1.000000 0.000000
vn 0.000000 -1.000000 0.000000
vn 0.000000 -1.000000 0.000000
vn 1.000000 0.000000 0.000000
vn 1.000000 0.000000 0.000000
vn 1.000000 0.000000 0.000000
vn 1.000000 0.000000 0.000000
vn -1.000000 0.000000 0.000000
vn -1.000000 0.000000 0.000000
vn -1.000000 0.000000 0.000000
vn -1.000000 0.000000 0.000000
vn 0.000000 0.000000 1.000000
vn 0.000000 0.000000 1.000000
vn 0.000000 0.000000 1.000000
vn 0.000000 0.000000 1.000000
vn 0.000000 0.000000 1.000000
vn 0.000000 0.000000 1.000000
vn -0.707105 -0.707108 0.000000
vn -0.707105 -0.707108 0.000000
vn -0.707105 -0.707108 0.000000
vn -0.707105 -0.707108 0.000000
vn 0.707105 -0.707108 0.000000
vn 0.707105 -0.707108 0.000000
vn 0.707105 -0.707108 0.000000
vn 0.707105 -0.707108 0.000000
vn 0.000000 0.970729 -0.240176
vn 0.000000 0.970729 -0.240176
vn 0.000000 0.970729 -0.240176
vn 0.000000 0.970729 -0.240176
vn 0.000000 0.970729 0.240176
vn 0.000000 0.970729 0.240176
vn 0.000000 0.970729 0.240176
vn 0.000000 0.970729 0.240176
vn 0.686408 0.686410 0.240178
vn 0.555076 0.830431 0.047699
vn 0.557645 0.828512 0.050986
vn 0.686408 0.686410 0.240178
vn 0.555076 0.830431 -0.047699
vn 0.557645 0.828512 -0.050986
vn 0.686408 0.686410 -0.240178
vn 0.686408 0.686410 -0.240178
vn -0.555076 0.830431 0.047699
vn -0.686408 0.686410 0.240178
vn -0.686408 0.686410 0.240178
vn -0.557645 0.828512 0.050986
vn -0.686408 0.686410 -0.240178
vn -0.555076 0.830431 -0.047699
vn -0.557645 0.828512 -0.050986
vn -0.686408 0.686410 -0.240178
vn 0.031781 0.212725 -0.976595
vn -0.031781 0.212725 -0.976595
vn 0.021824 -0.041349 -0.998906
vn -0.021824 -0.041349 -0.998906
vn -0.031782 0.212725 0.976595
vn 0.031782 0.212725 0.976595
vn -0.021824 -0.041349 0.998906
vn 0.021824 -0.041349 0.998906
vn 0.134296 0.134296 0.981799
vn 0.099214 0.099213 0.990108
vn -0.477757 0.878492 0.000000
vn -0.477757 0.878492 0.000000
vn -0.707249 0.706965 0.000000
vn -0.707249 0.706965 0.000000
vn 0.134295 0.134296 -0.981799
vn 0.099213 0.099213 -0.990108
vn -0.134296 0.134296 0.981799
vn -0.099213 0.099213 0.990108
vn -0.134295 0.134296 -0.981799
vn -0.099213 0.099213 -0.990108
vn 0.477757 0.878492 0.000000
vn 0.477757 0.878492 0.000000
vn 0.707249 0.706965 0.000000
vn 0.707249 0.706965 0.000000
vn -0.006914 -0.259347 0.965760
vn 0.006914 -0.259347 0.965760
vn 0.248320 -0.248320 0.936309
vn 0.965045 0.262084 0.000000
vn 0.965045 0.262084 0.000000
vn 0.248320 -0.248320 -0.936309
vn 0.006914 -0.259347 -0.965760
vn -0.006914 -0.259347 -0.965760
vn -0.248320 -0.248320 -0.936309
vn -0.965045 0.262084 0.000000
vn -0.965045 0.262084 0.000000
vn -0.248320 -0.248320 0.936309
vn 0.000000 -1.000000 0.000000
vn 0.000000 -1.000000 0.000000
vn 0.000000 -1.000000 0.000000
vn 0.000000 -1.000000 0.000000
vn 0.000000 -1.000000 -0.000000
vn 0.000000 -1.000000 -0.000000
vn 0.000000 -1.000000 -0.000000
vn 0.000000 -1.000000 -0.000000
vn 0.000000 0.593162 0.805083
vn 0.000000 0.593162 0.805083
vn 0.000000 0.593162 0.805083
vn 0.000000 0.593162 0.805083
vn 0.805083 0.593162 0.000000
vn 0.805083 0.593162 0.000000
vn 0.805083 0.593162 0.000000
vn 0.805083 0.593162 0.000000
vn 0.000000 0.593162 -0.805083
vn 0.000000 0.593162 -0.805083
vn 0.000000 0.593162 -0.805083
vn 0.000000 0.593162 -0.805083
vn -0.805083 0.593162 0.000000
vn -0.805083 0.593162 0.000000
vn -0.805083 0.593162 0.000000
vn -0.805083 0.593162 0.000000
vn 0.000000 1.000000 -0.000000
vn 0.000000 1.000000 -0.000000
vn 0.000000 1.000000 -0.000000
vn 0.000000 1.000000 -0.000000
vn 0.000000 1.000000 0.000000
vn 0.000000 1.000000 0.000000
vn 0.000000 1.000000 0.000000
vn 0.000000 1.000000 0.000000
vn 0.000000 0.000000 1.000000
vn 0.000000 0.000000 1.000000
vn 0.000000 0.000000 1.000000
vn 0.000000 0.000000 1.000000
vn 1.000000 0.000000 0.000000
vn 1.000000 0.000000 0.000000
vn 1.000000 0.000000 0.000000
vn 1.000000 0.000000 0.000000
vn 0.000000 0.000000 -1.000000
vn 0.000000 0.000000 -1.000000
vn 0.000000 0.000000 -1.000000
vn 0.000000 0.000000 -1.000000
vn -1.000000 0.000000 0.000000
vn -1.000000 0.000000 0.000000
vn -1.000000 0.000000 0.000000
vn -1.000000 0.000000 0.000000
s off
g pCube114 Tiff4
usemtl initialShadingGroup
f 49/57/1 50/58/2 51/59/3 52/60/4
f 3/1/5 4/6/6 12/20/7 11/15/8 8/17/9 7/7/10
f 21/32/11 22/29/12 23/30/13 24/31/14
f 9/10/15 12/11/16 4/12/17 2/13/18
f 7/8/19 6/2/20 1/5/21 3/9/22
f 6/2/23 5/3/24 10/4/25 9/10/26 2/13/27 1/5/28
f 21/32/29 25/33/30 26/34/31 22/29/32
f 27/35/33 24/31/34 23/30/35 28/36/36
f 8/17/37 11/15/38 15/22/39 14/21/40
f 10/19/41 5/14/42 13/24/43 16/23/44
s 1
f 5/14/45 6/16/46 17/25/47 13/24/48
f 6/16/46 7/7/49 18/26/50 17/25/47
f 7/7/49 8/17/51 14/21/52 18/26/50
s 2
f 9/18/53 10/19/54 16/23/55 19/27/56
f 11/15/57 12/20/58 20/28/59 15/22/60
f 12/20/58 9/18/53 19/27/56 20/28/59
s 3
f 14/21/61 15/22/62 33/41/63 34/42/64
s 4
f 16/23/65 13/24/66 29/37/67 30/38/68
f 13/24/66 17/25/69 36/44/70 29/37/67
s 5
f 17/25/71 18/26/72 35/43/73 36/44/74
s 3
f 18/26/75 14/21/61 34/42/64 35/43/76
s 4
f 19/27/77 16/23/65 30/38/68 31/39/78
s 3
f 15/22/62 20/28/79 32/40/80 33/41/63
s 6
f 20/28/81 19/27/82 31/39/83 32/40/84
s 4
f 30/38/68 29/37/67 21/32/85 24/31/86
f 31/39/78 30/38/68 24/31/86 27/35/87
s 6
f 32/40/84 31/39/83 27/35/88 28/36/89
s 3
f 33/41/63 32/40/80 28/36/90 23/30/91
f 34/42/64 33/41/63 23/30/91 22/29/92
f 35/43/76 34/42/64 22/29/92 26/34/93
s 5
f 36/44/74 35/43/73 26/34/94 25/33/95
s 4
f 29/37/67 36/44/70 25/33/96 21/32/85
s 7
f 1/5/97 2/13/98 38/46/99 37/45/100
f 2/13/98 4/6/101 39/47/102 38/46/99
f 4/6/101 3/1/103 40/48/104 39/47/102
f 3/1/103 1/5/97 37/45/100 40/48/104
s off
f 37/45/105 38/46/106 42/50/107 41/49/108
f 38/46/109 39/47/110 43/51/111 42/50/112
f 39/47/113 40/48/114 44/52/115 43/51/116
f 40/48/117 37/45/118 41/49/119 44/52/120
s 8
f 41/49/121 42/50/122 46/54/123 45/53/124
f 42/50/122 43/51/125 47/55/126 46/54/123
f 43/51/125 44/52/127 48/56/128 47/55/126
f 44/52/127 41/49/121 45/53/124 48/56/128
s off
f 45/53/129 46/54/130 50/58/131 49/57/132
f 46/54/133 47/55/134 51/59/135 50/58/136
f 47/55/137 48/56/138 52/60/139 51/59/140
f 48/56/141 45/53/142 49/57/143 52/60/144
g default
v -1747.759879 3715.019717 2396.915425
v -1407.147030 3715.019717 2396.915425
v -1747.759879 3715.019717 2375.707830
v -1407.147030 3715.019717 2375.707830
v -1747.759879 3725.827606 2396.915425
v -1747.759879 3725.827606 2375.707830
v -1407.147030 3725.827606 2375.707830
v -1407.147030 3725.827606 2396.915425
v -1577.453455 3715.019717 2396.915425
v -1577.453455 3725.827606 2396.915425
v -1577.453455 3823.098398 2396.915425
v -1577.453455 3823.098398 2375.707830
v -1577.453455 3725.827606 2375.707830
v -1577.453455 3715.019717 2375.707830
v -1492.300232 3725.827606 2396.915425
v -1492.300232 3715.019717 2396.915425
v -1492.300232 3715.019717 2375.707830
v -1492.300232 3725.827606 2375.707830
v -1492.300232 3823.098398 2375.707830
v -1492.300232 3823.098398 2396.915425
v -1662.606667 3715.019717 2396.915425
v -1662.606667 3725.827606 2396.915425
v -1662.606667 3823.098398 2396.915425
v -1662.606667 3823.098398 2375.707830
v -1662.606667 3725.827606 2375.707830
v -1662.606667 3715.019717 2375.707830
v -1671.121999 3715.019717 2396.915425
v -1671.121999 3725.827606 2396.915425
v -1671.121999 3823.098398 2396.915425
v -1671.121999 3823.098398 2375.707830
v -1671.121999 3725.827606 2375.707830
v -1671.121999 3715.019717 2375.707830
v -1568.938102 3715.019717 2396.915425
v -1568.938102 3725.827606 2396.915425
v -1568.938102 3823.098398 2396.915425
v -1568.938102 3823.098398 2375.707830
v -1568.938102 3725.827606 2375.707830
v -1568.938102 3715.019717 2375.707830
v -1483.784920 3725.827606 2396.915425
v -1483.784920 3715.019717 2396.915425
v -1483.784920 3715.019717 2375.707830
v -1483.784920 3725.827606 2375.707830
v -1483.784920 3823.098398 2375.707830
v -1483.784920 3823.098398 2396.915425
v -1747.759879 3800.109912 2396.915425
v -1724.770811 3823.098398 2396.915425
v -1747.759879 3800.109912 2375.707830
v -1724.770811 3823.098398 2375.707830
v -1430.136079 3823.098398 2396.915425
v -1407.147030 3800.109912 2396.915425
v -1430.136079 3823.098398 2375.707830
v -1407.147030 3800.109912 2375.707830
v -1671.121999 3725.827606 2390.459121
v -1747.759879 3725.827606 2390.459121
v -1671.121999 3823.098398 2390.459121
v -1724.770811 3823.098398 2390.459121
v -1747.759879 3800.109912 2390.459121
v -1483.784920 3823.098398 2390.459121
v -1483.784920 3725.827606 2390.459121
v -1407.147030 3725.827606 2390.459121
v -1407.147030 3800.109912 2390.459121
v -1430.136079 3823.098398 2390.459121
v -1662.606667 3725.827606 2390.459121
v -1662.606667 3823.098398 2390.459121
v -1577.453455 3725.827606 2390.459121
v -1577.453455 3823.098398 2390.459121
v -1568.938102 3725.827606 2390.459121
v -1568.938102 3823.098398 2390.459121
v -1492.300232 3725.827606 2390.459121
v -1492.300232 3823.098398 2390.459121
v -1726.308462 3826.811039 2375.707830
v -1726.308462 3826.811039 2396.915425
v -1671.121999 3826.811039 2396.915425
v -1671.121999 3826.811039 2375.707830
v -1751.472383 3711.307282 2375.707830
v -1671.121999 3711.307282 2375.707830
v -1671.121999 3711.307282 2396.915425
v -1751.472383 3711.307282 2396.915425
v -1403.434506 3711.307282 2375.707830
v -1403.434506 3711.307282 2396.915425
v -1403.434506 3725.827606 2375.707830
v -1403.434506 3725.827606 2396.915425
v -1751.472383 3725.827606 2396.915425
v -1751.472383 3725.827606 2375.707830
v -1751.472383 3801.647535 2396.915425
v -1751.472383 3801.647535 2375.707830
v -1403.434506 3801.647535 2375.707830
v -1403.434506 3801.647535 2396.915425
v -1483.784920 3826.811039 2375.707830
v -1483.784920 3826.811039 2396.915425
v -1428.598417 3826.811039 2396.915425
v -1428.598417 3826.811039 2375.707830
v -1483.784920 3711.307282 2396.915425
v -1483.784920 3711.307282 2375.707830
v -1577.453455 3711.307282 2375.707830
v -1577.453455 3711.307282 2396.915425
v -1568.938102 3711.307282 2375.707830
v -1568.938102 3711.307282 2396.915425
v -1577.453455 3826.811039 2396.915425
v -1577.453455 3826.811039 2375.707830
v -1568.938102 3826.811039 2396.915425
v -1568.938102 3826.811039 2375.707830
v -1662.606667 3826.811039 2396.915425
v -1662.606667 3826.811039 2375.707830
v -1662.606667 3711.307282 2375.707830
v -1662.606667 3711.307282 2396.915425
v -1492.300232 3826.811039 2396.915425
v -1492.300232 3826.811039 2375.707830
v -1492.300232 3711.307282 2375.707830
v -1492.300232 3711.307282 2396.915425
vt 0.375000 0.000000
vt 0.625000 0.000000
vt 0.375000 0.750000
vt 0.625000 0.750000
vt 0.375000 1.000000
vt 0.625000 1.000000
vt 0.875000 0.000000
vt 0.125000 0.000000
vt 0.125000 0.025000
vt 0.625000 0.725000
vt 0.625000 0.025000
vt 0.500000 0.000000
vt 0.500000 1.000000
vt 0.500000 0.025000
vt 0.500000 0.250000
vt 0.500000 0.500000
vt 0.500000 0.725000
vt 0.500000 0.750000
vt 0.562500 0.025000
vt 0.562500 0.000000
vt 0.562500 1.000000
vt 0.562500 0.750000
vt 0.562500 0.725000
vt 0.562500 0.500000
vt 0.562500 0.250000
vt 0.437500 0.000000
vt 0.437500 1.000000
vt 0.437500 0.025000
vt 0.437500 0.250000
vt 0.437500 0.500000
vt 0.437500 0.725000
vt 0.437500 0.750000
vt 0.431250 0.000000
vt 0.431250 1.000000
vt 0.431250 0.725000
vt 0.431250 0.750000
vt 0.506250 0.000000
vt 0.506250 1.000000
vt 0.506250 0.025000
vt 0.506250 0.250000
vt 0.506250 0.500000
vt 0.506250 0.725000
vt 0.506250 0.750000
vt 0.568750 0.025000
vt 0.568750 0.000000
vt 0.568750 1.000000
vt 0.568750 0.750000
vt 0.375000 0.025000
vt 0.431250 0.025000
vt 0.431250 0.250000
vt 0.375000 0.725000
vt 0.568750 0.250000
vt 0.568750 0.725000
vt 0.608127 0.500000
vt 0.625000 0.553176
vt 0.375000 0.196824
vt 0.125000 0.196824
vt 0.391873 0.500000
vt 0.431250 0.500000
vt 0.568750 0.500000
vt 0.608127 0.250000
vt 0.875000 0.025000
vt 0.875000 0.196824
vt 0.391873 0.250000
vt 0.375000 0.553176
vt 0.625000 0.196824
vt 0.875000 0.250000
vt 0.375000 0.025000
vt 0.431250 0.025000
vt 0.431250 0.250000
vt 0.391873 0.250000
vt 0.375000 0.196824
vt 0.568750 0.250000
vt 0.568750 0.025000
vt 0.625000 0.025000
vt 0.625000 0.196824
vt 0.608127 0.250000
vt 0.437500 0.250000
vt 0.437500 0.025000
vt 0.500000 0.025000
vt 0.500000 0.250000
vt 0.506250 0.250000
vt 0.506250 0.025000
vt 0.562500 0.025000
vt 0.562500 0.250000
vt 0.391873 0.250000
vt 0.431250 0.250000
vt 0.431250 0.500000
vt 0.391873 0.500000
vt 0.375000 0.750000
vt 0.431250 0.750000
vt 0.431250 1.000000
vt 0.375000 1.000000
vt 0.875000 0.000000
vt 0.875000 0.025000
vt 0.625000 0.025000
vt 0.625000 0.000000
vt 0.375000 0.000000
vt 0.375000 0.025000
vt 0.125000 0.025000
vt 0.125000 0.000000
vt 0.375000 0.196824
vt 0.125000 0.196824
vt 0.875000 0.196824
vt 0.625000 0.196824
vt 0.568750 0.250000
vt 0.608127 0.250000
vt 0.608127 0.500000
vt 0.568750 0.500000
vt 0.568750 0.750000
vt 0.625000 0.750000
vt 0.625000 1.000000
vt 0.568750 1.000000
vt 0.500000 0.750000
vt 0.506250 0.750000
vt 0.506250 1.000000
vt 0.500000 1.000000
vt 0.500000 0.250000
vt 0.506250 0.250000
vt 0.506250 0.500000
vt 0.500000 0.500000
vt 0.437500 0.250000
vt 0.437500 0.500000
vt 0.437500 0.750000
vt 0.437500 1.000000
vt 0.562500 0.250000
vt 0.562500 0.500000
vt 0.562500 0.750000
vt 0.562500 1.000000
vt 0.375000 0.553176
vt 0.875000 0.250000
vn 0.000000 0.000000 1.000000
vn 0.000000 0.000000 1.000000
vn 0.000000 0.000000 1.000000
vn 0.000000 0.000000 1.000000
vn 0.000000 1.000000 0.000000
vn 0.000000 1.000000 0.000000
vn 0.000000 1.000000 0.000000
vn 0.000000 1.000000 0.000000
vn -0.000000 0.000000 -1.000000
vn 0.000000 0.000000 -1.000000
vn 0.000000 0.000000 -1.000000
vn 0.000000 0.000000 -1.000000
vn 0.000000 -1.000000 0.000000
vn 0.000000 -1.000000 0.000000
vn 0.000000 -1.000000 0.000000
vn 0.000000 -1.000000 0.000000
vn 1.000000 0.000000 0.000000
vn 1.000000 0.000000 0.000000
vn 1.000000 0.000000 0.000000
vn 1.000000 0.000000 0.000000
vn -1.000000 0.000000 0.000000
vn -1.000000 0.000000 0.000000
vn -1.000000 0.000000 0.000000
vn -1.000000 0.000000 0.000000
vn -1.000000 0.000000 0.000000
vn -1.000000 0.000000 0.000000
vn 1.000000 0.000000 0.000000
vn 1.000000 0.000000 0.000000
vn 0.000000 0.000000 1.000000
vn 0.000000 0.000000 1.000000
vn 0.000000 0.000000 1.000000
vn 0.000000 0.000000 1.000000
vn 0.000000 0.000000 1.000000
vn 0.000000 0.000000 1.000000
vn 0.000000 0.000000 1.000000
vn 0.000000 0.000000 1.000000
vn -0.000000 0.000000 1.000000
vn -0.000000 0.000000 1.000000
vn -0.000000 0.000000 1.000000
vn -0.000000 0.000000 1.000000
vn -0.000000 0.000000 1.000000
vn -0.000000 0.000000 1.000000
vn 0.000000 1.000000 0.000000
vn 0.000000 1.000000 0.000000
vn 0.000000 1.000000 0.000000
vn 0.000000 1.000000 0.000000
vn 0.000000 0.000000 -1.000000
vn 0.000000 0.000000 -1.000000
vn -0.000000 0.000000 -1.000000
vn 0.000000 0.000000 -1.000000
vn 0.000000 0.000000 -1.000000
vn 0.000000 0.000000 -1.000000
vn 0.000000 0.000000 -1.000000
vn 0.000000 -1.000000 0.000000
vn 0.000000 -1.000000 0.000000
vn 0.000000 -1.000000 0.000000
vn 0.000000 -1.000000 0.000000
vn 0.000000 0.000000 1.000000
vn 0.000000 0.000000 1.000000
vn 0.000000 0.000000 1.000000
vn 0.000000 0.000000 1.000000
vn 0.000000 -1.000000 0.000000
vn 0.000000 -1.000000 0.000000
vn 0.000000 -1.000000 0.000000
vn 0.000000 -1.000000 0.000000
vn 0.000000 0.000000 -1.000000
vn 0.000000 0.000000 -1.000000
vn 0.000000 0.000000 -1.000000
vn 0.000000 0.000000 -1.000000
vn 0.000000 0.000000 -1.000000
vn 0.000000 0.000000 -1.000000
vn 0.000000 1.000000 0.000000
vn 0.000000 1.000000 0.000000
vn 0.000000 1.000000 0.000000
vn 0.000000 1.000000 0.000000
vn 0.000000 0.000000 1.000000
vn 0.000000 0.000000 1.000000
vn 0.000000 0.000000 1.000000
vn 0.000000 0.000000 1.000000
vn 0.000000 0.000000 1.000000
vn 0.000000 0.000000 1.000000
vn 0.000000 0.000000 1.000000
vn 0.000000 0.000000 1.000000
vn 0.000000 1.000000 0.000000
vn 0.000000 1.000000 0.000000
vn 0.000000 0.000000 -1.000000
vn 0.000000 0.000000 -1.000000
vn 0.000000 0.000000 -1.000000
vn 0.000000 -1.000000 0.000000
vn 0.000000 -1.000000 0.000000
vn 0.000000 0.000000 1.000000
vn 0.000000 0.000000 1.000000
vn 0.000000 0.000000 -1.000000
vn 0.000000 0.000000 1.000000
vn 0.000000 0.000000 1.000000
vn 0.000000 0.000000 1.000000
vn 0.000000 0.000000 1.000000
vn 0.000000 0.000000 1.000000
vn 0.000000 0.000000 1.000000
vn 0.000000 1.000000 0.000000
vn 0.000000 1.000000 0.000000
vn 0.000000 0.000000 -1.000000
vn 0.000000 0.000000 -1.000000
vn 0.000000 0.000000 -1.000000
vn 0.000000 -1.000000 0.000000
vn 0.000000 -1.000000 0.000000
vn 0.000000 0.000000 1.000000
vn 0.000000 0.000000 1.000000
vn -0.000000 0.000000 -1.000000
vn 0.000000 0.000000 -1.000000
vn -0.707101 0.707113 0.000000
vn -0.707101 0.707113 0.000000
vn -0.707101 0.707113 0.000000
vn -0.707101 0.707113 0.000000
vn 0.707101 0.707112 0.000000
vn 0.707101 0.707112 0.000000
vn 0.707101 0.707112 0.000000
vn 0.707101 0.707112 0.000000
vn 0.000000 1.000000 0.000000
vn 0.000000 1.000000 0.000000
vn 0.000000 1.000000 0.000000
vn 0.000000 1.000000 0.000000
vn -1.000000 0.000000 0.000000
vn -1.000000 0.000000 0.000000
vn -1.000000 0.000000 0.000000
vn -1.000000 0.000000 0.000000
vn 0.000000 -1.000000 0.000000
vn 0.000000 -1.000000 0.000000
vn 0.000000 -1.000000 0.000000
vn 0.000000 -1.000000 0.000000
vn 0.707098 -0.707116 0.000000
vn 0.707098 -0.707116 0.000000
vn 0.707098 -0.707116 0.000000
vn 0.707098 -0.707116 0.000000
vn 1.000000 0.000000 0.000000
vn 1.000000 0.000000 0.000000
vn 1.000000 0.000000 0.000000
vn 1.000000 0.000000 0.000000
vn 1.000000 0.000000 0.000000
vn 1.000000 0.000000 0.000000
vn 1.000000 0.000000 0.000000
vn 1.000000 0.000000 0.000000
vn 0.000000 1.000000 0.000000
vn 0.000000 1.000000 0.000000
vn 0.000000 1.000000 0.000000
vn 0.000000 1.000000 0.000000
vn -1.000000 0.000000 0.000000
vn -1.000000 0.000000 0.000000
vn -1.000000 0.000000 0.000000
vn -1.000000 0.000000 0.000000
vn -0.707098 -0.707115 0.000000
vn -0.707098 -0.707115 0.000000
vn -0.707098 -0.707115 0.000000
vn -0.707098 -0.707115 0.000000
vn 0.000000 -1.000000 0.000000
vn 0.000000 -1.000000 0.000000
vn 0.000000 -1.000000 0.000000
vn 0.000000 -1.000000 0.000000
vn 1.000000 0.000000 0.000000
vn 1.000000 0.000000 0.000000
vn 1.000000 0.000000 0.000000
vn 1.000000 0.000000 0.000000
vn 0.000000 1.000000 0.000000
vn 0.000000 1.000000 0.000000
vn 0.000000 1.000000 0.000000
vn 0.000000 1.000000 0.000000
vn -1.000000 0.000000 0.000000
vn -1.000000 0.000000 0.000000
vn -1.000000 0.000000 0.000000
vn -1.000000 0.000000 0.000000
vn 0.000000 -1.000000 0.000000
vn 0.000000 -1.000000 0.000000
vn 0.000000 -1.000000 0.000000
vn 0.000000 -1.000000 0.000000
vn 1.000000 0.000000 0.000000
vn 1.000000 0.000000 0.000000
vn 1.000000 0.000000 0.000000
vn 1.000000 0.000000 0.000000
vn 0.000000 1.000000 0.000000
vn 0.000000 1.000000 0.000000
vn 0.000000 1.000000 0.000000
vn 0.000000 1.000000 0.000000
vn -1.000000 0.000000 0.000000
vn -1.000000 0.000000 0.000000
vn -1.000000 0.000000 0.000000
vn -1.000000 0.000000 0.000000
vn 0.000000 -1.000000 0.000000
vn 0.000000 -1.000000 0.000000
vn 0.000000 -1.000000 0.000000
vn 0.000000 -1.000000 0.000000
vn -0.000000 0.000000 1.000000
vn 0.000000 0.000000 1.000000
vn -0.000000 0.000000 1.000000
vn 0.000000 0.000000 -1.000000
vn 0.000000 0.000000 -1.000000
vn 0.000000 0.000000 -1.000000
vn 0.000000 0.000000 -1.000000
vn 0.000000 0.000000 1.000000
vn 0.000000 0.000000 1.000000
vn 0.000000 0.000000 -1.000000
vn 0.000000 0.000000 -1.000000
vn 0.000000 0.000000 1.000000
vn -0.000000 0.000000 1.000000
vn 0.000000 0.000000 1.000000
vn -0.000000 0.000000 -1.000000
vn 0.000000 0.000000 1.000000
vn 0.000000 0.000000 1.000000
vn -0.000000 0.000000 -1.000000
vn 0.000000 0.000000 -1.000000
vn -0.000000 0.000000 1.000000
vn -0.000000 0.000000 1.000000
vn 0.000000 0.000000 1.000000
vn 0.000000 0.000000 1.000000
vn 0.000000 0.000000 1.000000
vn 0.000000 0.000000 -1.000000
vn -0.000000 0.000000 -1.000000
vn 0.000000 0.000000 -1.000000
vn 0.000000 0.000000 1.000000
vn 0.000000 0.000000 -1.000000
vn 0.000000 0.000000 -1.000000
vn 0.000000 0.000000 1.000000
vn 0.000000 0.000000 1.000000
vn 0.000000 0.000000 1.000000
vn 0.000000 0.000000 1.000000
vn 0.000000 0.000000 -1.000000
vn 0.000000 0.000000 -1.000000
vn 0.000000 0.000000 1.000000
vn 0.000000 0.000000 -1.000000
vn 0.000000 0.000000 -1.000000
vn 0.000000 0.000000 1.000000
vn 0.000000 0.000000 1.000000
vn 0.000000 0.000000 -1.000000
vn 0.000000 0.000000 -1.000000
vn 0.000000 0.000000 1.000000
s 1
g Tiff4 pCube115
usemtl initialShadingGroup
f 53/61/145 79/93/146 80/109/147 57/108/148
s 2
f 123/149/149 124/146/150 125/147/151 126/148/152
s 3
f 58/111/153 83/95/154 84/96/155 55/63/156
s 4
f 127/150/157 128/151/158 129/152/159 130/153/160
s 5
f 132/157/161 131/154/162 133/155/163 134/156/164
s 6
f 127/161/165 130/158/166 135/159/167 136/160/168
f 136/160/168 135/159/167 137/162/169 138/163/170
s 5
f 134/156/164 133/155/163 139/164/171 140/165/172
s off
f 106/128/173 105/129/174 107/130/175 108/131/176 109/132/177
s 1
f 91/104/178 92/105/179 54/62/180 60/71/181
s off
f 110/133/182 111/134/183 112/135/184 113/136/185 114/137/186
s 2
f 141/169/187 142/166/188 143/167/189 144/168/190
s 3
f 94/113/191 95/120/192 103/114/193 104/115/194 59/70/195
f 93/107/196 94/113/191 59/70/195 56/64/197
s 4
f 145/173/198 146/170/199 131/171/200 132/172/201
s 1
f 62/74/202 61/72/203 85/97/204 86/99/205
s 4
f 148/177/206 147/174/207 149/175/208 150/176/209
s 3
f 66/78/210 65/77/211 89/102/212 90/103/213
f 65/77/211 64/76/214 88/101/215 89/102/212
s 2
f 152/181/216 151/178/217 153/179/218 154/180/219
s 1
f 63/75/220 62/74/202 86/99/205 87/100/221
f 74/88/222 73/86/223 61/72/203 62/74/202
s off
f 116/138/224 115/139/225 117/140/226 118/141/227
s 2
f 156/183/228 155/182/229 151/178/217 152/181/216
s 3
f 77/91/230 76/90/231 64/76/214 65/77/211
f 78/92/232 77/91/230 65/77/211 66/78/210
s 4
f 158/185/233 157/184/234 147/174/207 148/177/206
s 1
f 80/109/147 79/93/146 73/86/223 74/88/222
f 81/110/235 80/109/147 74/88/222 75/89/236
s 2
f 126/148/152 125/147/151 155/182/229 156/183/228
s 3
f 83/95/154 82/119/237 76/90/231 77/91/230
f 84/96/155 83/95/154 77/91/230 78/92/232
s 4
f 129/152/159 128/151/158 157/184/234 158/185/233
s 1
f 86/99/205 85/97/204 68/80/238 67/79/239
s off
f 120/142/240 119/143/241 121/144/242 122/145/243
s 2
f 154/180/219 153/179/218 159/186/244 160/187/245
s 3
f 89/102/212 88/101/215 71/84/246 70/83/247
f 90/103/213 89/102/212 70/83/247 69/82/248
s 4
f 150/176/209 149/175/208 161/188/249 162/189/250
s 1
f 67/79/239 68/80/238 92/105/179 91/104/178
s 4
f 162/189/250 161/188/249 146/170/199 145/173/198
s 3
f 69/82/248 70/83/247 94/113/191 93/107/196
f 70/83/247 71/84/246 95/120/192 94/113/191
s 2
f 160/187/245 159/186/244 142/166/188 141/169/187
s 1
f 72/85/251 67/79/239 91/104/178 96/112/252
s 3
f 99/125/253 100/118/254 82/119/237 83/95/154 58/111/153
s off
f 137/162/255 124/146/256 123/149/257 138/190/258
f 143/167/259 140/165/260 139/164/261 144/191/262
f 57/108/263 80/109/264 105/129/265 106/128/266
f 80/109/267 81/110/268 107/130/269 105/129/270
f 81/110/271 98/124/272 108/131/273 107/130/274
f 98/124/275 97/116/276 109/132/277 108/131/278
f 97/116/279 57/108/280 106/128/281 109/132/282
f 96/112/283 91/104/284 111/134/285 110/133/286
f 91/104/287 60/71/288 112/135/289 111/134/290
f 60/71/291 102/126/292 113/136/293 112/135/294
f 102/126/295 101/121/296 114/137/297 113/136/298
f 101/121/299 96/112/300 110/133/301 114/137/302
f 75/89/303 74/88/304 115/139/305 116/138/306
f 74/88/307 62/74/308 117/140/309 115/139/310
f 62/74/311 63/75/312 118/141/313 117/140/314
f 63/75/315 75/89/316 116/138/317 118/141/318
f 87/100/319 86/99/320 119/143/321 120/142/322
f 86/99/323 67/79/324 121/144/325 119/143/326
f 67/79/327 72/85/328 122/145/329 121/144/330
f 72/85/331 87/100/332 120/142/333 122/145/334
s 1
f 98/124/335 81/110/235 125/147/336 124/146/337
s 3
f 82/119/237 100/118/254 123/149/338 126/148/339
f 55/63/156 84/96/155 128/151/340 127/150/341
s 1
f 79/94/146 53/65/145 130/153/342 129/152/343
s 3
f 56/67/197 59/122/195 133/155/344 131/154/345
s 1
f 60/71/181 54/62/180 132/157/346 134/156/347
f 53/61/145 57/108/148 135/159/348 130/158/342
s 3
f 58/69/153 55/68/156 127/161/341 136/160/349
s 1
f 57/108/148 97/116/350 137/162/351 135/159/348
s 3
f 99/117/253 58/69/153 136/160/349 138/163/352
f 59/122/195 104/123/194 139/164/353 133/155/344
s 1
f 102/126/354 60/71/181 134/156/347 140/165/355
f 96/112/252 101/121/356 143/167/357 142/166/358
s 3
f 103/114/193 95/120/192 141/169/359 144/168/360
f 93/107/196 56/64/197 131/171/345 146/170/361
s 1
f 54/66/180 92/106/179 145/173/362 132/172/346
s 3
f 66/78/210 90/103/213 149/175/363 147/174/364
s 1
f 85/98/204 61/73/203 148/177/365 150/176/366
f 63/75/220 87/100/221 153/179/367 151/178/368
s 3
f 88/101/215 64/76/214 152/181/369 154/180/370
s 1
f 75/89/236 63/75/220 151/178/368 155/182/371
s 3
f 64/76/214 76/90/231 156/183/372 152/181/369
f 78/92/232 66/78/210 147/174/364 157/184/373
s 1
f 61/73/203 73/87/223 158/185/374 148/177/365
f 81/110/235 75/89/236 155/182/371 125/147/336
s 3
f 76/90/231 82/119/237 126/148/339 156/183/372
f 84/96/155 78/92/232 157/184/373 128/151/340
s 1
f 73/87/223 79/94/146 129/152/343 158/185/374
f 87/100/221 72/85/251 159/186/375 153/179/367
s 3
f 71/84/246 88/101/215 154/180/370 160/187/376
f 90/103/213 69/82/248 161/188/377 149/175/363
s 1
f 68/81/238 85/98/204 150/176/366 162/189/378
s 3
f 69/82/248 93/107/196 146/170/361 161/188/377
s 1
f 92/106/179 68/81/238 162/189/378 145/173/362
f 72/85/251 96/112/252 142/166/358 159/186/375
s 3
f 95/120/192 71/84/246 160/187/376 141/169/359
s 1
f 97/116/350 98/124/335 124/146/337 137/162/351
s 3
f 100/118/254 99/125/253 138/190/352 123/149/338
s 1
f 101/121/356 102/126/354 140/165/355 143/167/357
s 3
f 104/123/194 103/127/193 144/191/360 139/164/353
g default
v -2030.674363 3755.053006 2436.372927
v -1938.636673 3755.053006 2436.372927
v -1846.599027 3755.053006 2436.372927
v -2030.674363 3869.975984 2436.372927
v -1938.636673 3869.975984 2436.372927
v -1846.599027 3869.975984 2436.372927
v -2030.674363 3984.899399 2436.372927
v -1938.636673 3984.899399 2436.372927
v -1846.599027 3984.899399 2436.372927
v -2030.674363 3984.899399 2402.939366
v -1846.599027 3984.899399 2402.939366
v -2030.674363 3984.899399 2369.505806
v -1938.636673 3984.899399 2369.505806
v -1846.599027 3984.899399 2369.505806
v -2030.674363 3869.975984 2369.505806
v -1938.636673 3869.975984 2369.505806
v -1846.599027 3869.975984 2369.505806
v -2030.674363 3755.053006 2369.505806
v -1938.636673 3755.053006 2369.505806
v -1846.599027 3755.053006 2369.505806
v -2030.674363 3755.053006 2402.939366
v -1938.636673 3755.053006 2402.939366
v -1846.599027 3755.053006 2402.939366
v -1846.599027 3869.975984 2402.939366
v -2030.674363 3869.975984 2402.939366
v -2053.215961 3984.899399 2455.388222
v -1938.636673 3984.899399 2455.388222
v -2053.215961 3984.899399 2402.939366
v -1824.057396 3984.899399 2455.388222
v -1824.057396 3984.899399 2402.939366
v -1938.636673 3984.899399 2350.490495
v -2053.215961 3984.899399 2350.490495
v -1824.057396 3984.899399 2350.490495
v -2023.267823 4029.087342 2430.125027
v -1938.636673 4029.087342 2430.125027
v -1938.636673 4029.087342 2402.939366
v -2023.267823 4029.087342 2402.939366
v -1854.005546 4029.087342 2430.125027
v -1854.005546 4029.087342 2402.939366
v -1938.636673 4029.087342 2375.753686
v -2023.267823 4029.087342 2375.753686
v -1854.005546 4029.087342 2375.753686
vt 0.375000 0.000000
vt 0.500000 0.000000
vt 0.625000 0.000000
vt 0.375000 0.125000
vt 0.500000 0.125000
vt 0.625000 0.125000
vt 0.375000 0.250000
vt 0.500000 0.250000
vt 0.625000 0.250000
vt 0.375000 0.375000
vt 0.500000 0.375000
vt 0.625000 0.375000
vt 0.375000 0.500000
vt 0.500000 0.500000
vt 0.625000 0.500000
vt 0.375000 0.625000
vt 0.500000 0.625000
vt 0.625000 0.625000
vt 0.375000 0.750000
vt 0.500000 0.750000
vt 0.625000 0.750000
vt 0.375000 0.875000
vt 0.500000 0.875000
vt 0.625000 0.875000
vt 0.375000 1.000000
vt 0.500000 1.000000
vt 0.625000 1.000000
vt 0.875000 0.000000
vt 0.750000 0.000000
vt 0.875000 0.125000
vt 0.750000 0.125000
vt 0.875000 0.250000
vt 0.750000 0.250000
vt 0.125000 0.000000
vt 0.250000 0.000000
vt 0.125000 0.125000
vt 0.250000 0.125000
vt 0.125000 0.250000
vt 0.250000 0.250000
vt 0.375000 0.250000
vt 0.500000 0.250000
vt 0.375000 0.375000
vt 0.625000 0.250000
vt 0.625000 0.375000
vt 0.500000 0.500000
vt 0.375000 0.500000
vt 0.625000 0.500000
vt 0.375000 0.250000
vt 0.500000 0.250000
vt 0.375000 0.375000
vt 0.625000 0.250000
vt 0.625000 0.375000
vt 0.500000 0.500000
vt 0.375000 0.500000
vt 0.625000 0.500000
vn 0.000000 0.000000 1.000000
vn 0.000000 0.000000 1.000000
vn 0.000000 0.000000 1.000000
vn 0.000000 0.000000 1.000000
vn 0.000000 0.000000 1.000000
vn 0.000000 0.000000 1.000000
vn 0.000000 0.000000 1.000000
vn 0.000000 0.000000 1.000000
vn 0.000000 0.000000 1.000000
vn 0.000000 1.000000 0.000000
vn 0.000000 1.000000 0.000000
vn 0.000000 1.000000 0.000000
vn 0.000000 1.000000 0.000000
vn 0.000000 1.000000 0.000000
vn 0.000000 1.000000 0.000000
vn 0.000000 1.000000 0.000000
vn 0.000000 1.000000 0.000000
vn 0.000000 1.000000 0.000000
vn 0.000000 0.000000 -1.000000
vn 0.000000 0.000000 -1.000000
vn 0.000000 0.000000 -1.000000
vn 0.000000 0.000000 -1.000000
vn 0.000000 0.000000 -1.000000
vn 0.000000 0.000000 -1.000000
vn 0.000000 0.000000 -1.000000
vn 0.000000 0.000000 -1.000000
vn 0.000000 0.000000 -1.000000
vn 0.000000 -1.000000 0.000000
vn 0.000000 -1.000000 0.000000
vn 0.000000 -1.000000 0.000000
vn 0.000000 -1.000000 0.000000
vn 0.000000 -1.000000 0.000000
vn 0.000000 -1.000000 0.000000
vn 0.000000 -1.000000 0.000000
vn 0.000000 -1.000000 0.000000
vn 0.000000 -1.000000 0.000000
vn 1.000000 0.000000 0.000000
vn 1.000000 0.000000 0.000000
vn 1.000000 0.000000 0.000000
vn 1.000000 0.000000 0.000000
vn 1.000000 0.000000 0.000000
vn 1.000000 0.000000 0.000000
vn 1.000000 0.000000 0.000000
vn 1.000000 0.000000 0.000000
vn 1.000000 0.000000 0.000000
vn -1.000000 0.000000 0.000000
vn -1.000000 0.000000 0.000000
vn -1.000000 0.000000 0.000000
vn -1.000000 0.000000 0.000000
vn -1.000000 0.000000 0.000000
vn -1.000000 0.000000 0.000000
vn -1.000000 0.000000 0.000000
vn -1.000000 0.000000 0.000000
vn -1.000000 0.000000 0.000000
vn 0.000000 -1.000000 0.000000
vn 0.000000 -1.000000 0.000000
vn 0.000000 -1.000000 0.000000
vn 0.000000 -1.000000 0.000000
vn 0.000000 -1.000000 0.000000
vn 0.000000 -1.000000 0.000000
vn 0.000000 -1.000000 0.000000
vn 0.000000 -1.000000 0.000000
vn 0.000000 -1.000000 0.000000
vn 0.000000 -1.000000 0.000000
vn 0.000000 -1.000000 -0.000000
vn 0.000000 -1.000000 0.000000
vn 0.000000 -1.000000 0.000000
vn 0.000000 -1.000000 -0.000000
vn 0.000000 -1.000000 -0.000000
vn 0.000000 -1.000000 -0.000000
vn 0.000000 0.496331 0.868134
vn 0.000000 0.496331 0.868134
vn 0.000000 0.496331 0.868134
vn 0.000000 0.496331 0.868134
vn -0.827794 0.561033 0.000000
vn -0.827794 0.561033 0.000000
vn -0.827794 0.561033 0.000000
vn -0.827794 0.561033 0.000000
vn 0.000000 0.496331 0.868134
vn 0.000000 0.496331 0.868134
vn 0.827794 0.561033 0.000000
vn 0.827794 0.561033 0.000000
vn 0.827794 0.561033 0.000000
vn 0.827794 0.561033 0.000000
vn 0.000000 0.496331 -0.868134
vn 0.000000 0.496330 -0.868134
vn 0.000000 0.496330 -0.868134
vn 0.000000 0.496331 -0.868134
vn -0.827794 0.561033 0.000000
vn -0.827794 0.561033 0.000000
vn 0.827794 0.561033 0.000000
vn 0.827794 0.561033 0.000000
vn 0.000000 0.496331 -0.868134
vn 0.000000 0.496331 -0.868134
s 1
g Tiff4 pCube118
usemtl initialShadingGroup
f 163/192/379 164/193/380 167/196/381 166/195/382
f 164/193/380 165/194/383 168/197/384 167/196/381
f 166/195/382 167/196/381 170/199/385 169/198/386
f 167/196/381 168/197/384 171/200/387 170/199/385
s 2
f 196/239/388 197/240/389 198/202/390 199/241/391
f 197/240/389 200/242/392 201/243/393 198/202/390
f 199/241/391 198/202/390 202/244/394 203/245/395
f 198/202/390 201/243/393 204/246/396 202/244/394
s 3
f 174/204/397 175/205/398 178/208/399 177/207/400
f 175/205/398 176/206/401 179/209/402 178/208/399
f 177/207/400 178/208/399 181/211/403 180/210/404
f 178/208/399 179/209/402 182/212/405 181/211/403
s 4
f 180/210/406 181/211/407 184/214/408 183/213/409
f 181/211/407 182/212/410 185/215/411 184/214/408
f 183/213/409 184/214/408 164/217/412 163/216/413
f 184/214/408 185/215/411 165/218/414 164/217/412
s 5
f 185/220/415 182/219/416 179/221/417 186/222/418
f 165/194/419 185/220/415 186/222/418 168/197/420
f 186/222/418 179/221/417 176/223/421 173/224/422
f 168/197/420 186/222/418 173/224/422 171/200/423
s 6
f 180/225/424 183/226/425 187/228/426 177/227/427
f 183/226/425 163/192/428 166/195/429 187/228/426
f 177/227/427 187/228/426 172/230/430 174/229/431
f 187/228/426 166/195/429 169/198/432 172/230/430
s 7
f 169/198/433 170/199/434 189/232/435 188/231/436
f 172/201/437 169/198/433 188/231/436 190/233/438
f 170/199/434 171/200/439 191/234/440 189/232/435
f 171/200/439 173/203/441 192/235/442 191/234/440
f 175/205/443 174/204/444 194/237/445 193/236/446
f 174/204/444 172/201/437 190/233/438 194/237/445
f 173/203/441 176/206/447 195/238/448 192/235/442
f 176/206/447 175/205/443 193/236/446 195/238/448
s 8
f 188/231/449 189/232/450 197/240/451 196/239/452
s 9
f 190/233/453 188/231/454 196/239/455 199/241/456
s 8
f 189/232/450 191/234/457 200/242/458 197/240/451
s 10
f 191/234/459 192/235/460 201/243/461 200/242/462
s 11
f 193/236/463 194/237/464 203/245/465 202/244/466
s 9
f 194/237/467 190/233/453 199/241/456 203/245/468
s 10
f 192/235/460 195/238/469 204/246/470 201/243/461
s 11
f 195/238/471 193/236/463 202/244/466 204/246/472
g default
v -2072.244345 3758.323844 2485.955094
v -2015.918657 3758.323844 2485.955094
v -1959.592970 3758.323844 2485.955094
v -2072.244345 3788.668991 2485.955094
v -2015.918657 3788.668991 2485.955094
v -1959.592970 3788.668991 2485.955094
v -2072.244345 3819.013442 2485.955094
v -2015.918657 3819.013442 2485.955094
v -1959.592970 3819.013442 2485.955094
v -2072.244345 3819.013442 2461.718553
v -2015.918657 3819.013442 2461.718553
v -1959.592970 3819.013442 2461.718553
v -2072.244345 3819.013442 2437.482013
v -2015.918657 3819.013442 2437.482013
v -1959.592970 3819.013442 2437.482013
v -2072.244345 3788.668991 2437.482013
v -2015.918657 3788.668991 2437.482013
v -1959.592970 3788.668991 2437.482013
v -2072.244345 3758.323844 2437.482013
v -2015.918657 3758.323844 2437.482013
v -1959.592970 3758.323844 2437.482013
v -2072.244345 3758.323844 2461.718553
v -2015.918657 3758.323844 2461.718553
v -1959.592970 3758.323844 2461.718553
v -1959.592970 3788.668991 2461.718553
v -2072.244345 3788.668991 2461.718553
v -2057.556277 3765.414526 2485.955106
v -2030.680585 3765.372392 2485.955106
v -2017.205836 3788.625698 2485.955106
v -2070.957221 3788.711357 2485.955106
v -2030.606725 3811.922529 2485.955106
v -2057.482417 3811.964664 2485.955106
v -2057.556277 3765.414526 2491.931355
v -2030.680585 3765.372392 2491.931355
v -2017.205836 3788.625698 2491.931355
v -2070.957221 3788.711357 2491.931355
v -2030.606725 3811.922529 2491.931355
v -2057.482417 3811.964664 2491.931355
vt 0.375000 0.000000
vt 0.500000 0.000000
vt 0.625000 0.000000
vt 0.375000 0.125000
vt 0.500000 0.125000
vt 0.625000 0.125000
vt 0.375000 0.250000
vt 0.500000 0.250000
vt 0.625000 0.250000
vt 0.375000 0.375000
vt 0.500000 0.375000
vt 0.625000 0.375000
vt 0.375000 0.500000
vt 0.500000 0.500000
vt 0.625000 0.500000
vt 0.375000 0.625000
vt 0.500000 0.625000
vt 0.625000 0.625000
vt 0.375000 0.750000
vt 0.500000 0.750000
vt 0.625000 0.750000
vt 0.375000 0.875000
vt 0.500000 0.875000
vt 0.625000 0.875000
vt 0.375000 1.000000
vt 0.500000 1.000000
vt 0.625000 1.000000
vt 0.875000 0.000000
vt 0.750000 0.000000
vt 0.875000 0.125000
vt 0.750000 0.125000
vt 0.875000 0.250000
vt 0.750000 0.250000
vt 0.125000 0.000000
vt 0.250000 0.000000
vt 0.125000 0.125000
vt 0.250000 0.125000
vt 0.125000 0.250000
vt 0.250000 0.250000
vt 0.375000 0.000000
vt 0.500000 0.000000
vt 0.500000 0.125000
vt 0.375000 0.125000
vt 0.500000 0.250000
vt 0.375000 0.250000
vt 0.375000 0.000000
vt 0.500000 0.000000
vt 0.500000 0.125000
vt 0.375000 0.125000
vt 0.500000 0.250000
vt 0.375000 0.250000
vn 0.000000 0.000000 1.000000
vn 0.000000 0.000000 1.000000
vn 0.000000 0.000000 1.000000
vn 0.000000 0.000000 1.000000
vn 0.000000 -0.000000 1.000000
vn 0.000000 0.000000 1.000000
vn 0.000000 0.000000 1.000000
vn 0.000000 0.000000 1.000000
vn 0.000000 0.000000 1.000000
vn 0.000000 0.000000 1.000000
vn 0.000000 0.000000 1.000000
vn 0.000000 0.000000 1.000000
vn 0.000000 1.000000 0.000000
vn 0.000000 1.000000 0.000000
vn 0.000000 1.000000 0.000000
vn 0.000000 1.000000 0.000000
vn 0.000000 1.000000 0.000000
vn 0.000000 1.000000 0.000000
vn 0.000000 1.000000 0.000000
vn 0.000000 1.000000 0.000000
vn 0.000000 1.000000 0.000000
vn 0.000000 0.000000 -1.000000
vn 0.000000 0.000000 -1.000000
vn 0.000000 0.000000 -1.000000
vn 0.000000 0.000000 -1.000000
vn 0.000000 0.000000 -1.000000
vn 0.000000 0.000000 -1.000000
vn 0.000000 0.000000 -1.000000
vn 0.000000 0.000000 -1.000000
vn 0.000000 0.000000 -1.000000
vn 0.000000 -1.000000 0.000000
vn 0.000000 -1.000000 0.000000
vn 0.000000 -1.000000 0.000000
vn 0.000000 -1.000000 0.000000
vn 0.000000 -1.000000 0.000000
vn 0.000000 -1.000000 0.000000
vn 0.000000 -1.000000 0.000000
vn 0.000000 -1.000000 0.000000
vn 0.000000 -1.000000 0.000000
vn 1.000000 0.000000 0.000000
vn 1.000000 0.000000 0.000000
vn 1.000000 0.000000 0.000000
vn 1.000000 0.000000 0.000000
vn 1.000000 0.000000 0.000000
vn 1.000000 0.000000 0.000000
vn 1.000000 0.000000 0.000000
vn 1.000000 0.000000 0.000000
vn 1.000000 0.000000 0.000000
vn -1.000000 0.000000 0.000000
vn -1.000000 0.000000 0.000000
vn -1.000000 0.000000 0.000000
vn -1.000000 0.000000 0.000000
vn -1.000000 0.000000 0.000000
vn -1.000000 0.000000 0.000000
vn -1.000000 0.000000 0.000000
vn -1.000000 0.000000 0.000000
vn -1.000000 0.000000 0.000000
vn -0.000001 -0.000001 1.000000
vn 0.000001 -0.000001 1.000000
vn -0.000001 -0.000001 1.000000
vn 0.000001 -0.000000 1.000000
vn -0.000001 -0.000000 1.000000
vn -0.000001 0.000000 1.000000
vn 0.000001 0.000001 1.000000
vn -0.000001 0.000001 1.000000
vn -0.000001 0.000001 1.000000
vn -0.001568 -0.999999 0.000000
vn -0.001568 -0.999999 0.000000
vn -0.001568 -0.999999 0.000000
vn -0.001568 -0.999999 0.000000
vn 0.865228 -0.501379 0.000000
vn 0.865228 -0.501379 0.000000
vn 0.865228 -0.501379 0.000000
vn 0.865228 -0.501379 0.000000
vn -0.866822 -0.498618 0.000000
vn -0.866822 -0.498618 0.000000
vn -0.866822 -0.498618 0.000000
vn -0.866822 -0.498618 0.000000
vn 0.866822 0.498617 0.000000
vn 0.866822 0.498617 0.000000
vn 0.866822 0.498617 0.000000
vn 0.866822 0.498617 0.000000
vn 0.001568 0.999999 0.000000
vn 0.001568 0.999999 0.000000
vn 0.001568 0.999999 0.000000
vn 0.001568 0.999999 0.000000
vn -0.865227 0.501381 0.000000
vn -0.865227 0.501381 0.000000
vn -0.865227 0.501381 0.000000
vn -0.865227 0.501381 0.000000
s 1
g Tiff4 pCube119
usemtl initialShadingGroup
f 237/292/473 238/293/474 239/294/475 240/295/476
s 2
f 206/248/477 207/249/478 210/252/479 209/251/480
s 1
f 240/295/476 239/294/475 241/296/481 242/297/482
s 2
f 209/251/480 210/252/479 213/255/483 212/254/484
s 3
f 211/253/485 212/254/486 215/257/487 214/256/488
f 212/254/486 213/255/489 216/258/490 215/257/487
f 214/256/488 215/257/487 218/260/491 217/259/492
f 215/257/487 216/258/490 219/261/493 218/260/491
s 4
f 217/259/494 218/260/495 221/263/496 220/262/497
f 218/260/495 219/261/498 222/264/499 221/263/496
f 220/262/497 221/263/496 224/266/500 223/265/501
f 221/263/496 222/264/499 225/267/502 224/266/500
s 5
f 223/265/503 224/266/504 227/269/505 226/268/506
f 224/266/504 225/267/507 228/270/508 227/269/505
f 226/268/506 227/269/505 206/272/509 205/271/510
f 227/269/505 228/270/508 207/273/511 206/272/509
s 6
f 228/275/512 225/274/513 222/276/514 229/277/515
f 207/249/516 228/275/512 229/277/515 210/252/517
f 229/277/515 222/276/514 219/278/518 216/279/519
f 210/252/517 229/277/515 216/279/519 213/255/520
s 7
f 223/280/521 226/281/522 230/283/523 220/282/524
f 226/281/522 205/247/525 208/250/526 230/283/523
f 220/282/524 230/283/523 214/285/527 217/284/528
f 230/283/523 208/250/526 211/253/529 214/285/527
s 2
f 205/247/530 206/248/477 232/287/531 231/286/532
f 206/248/477 209/251/480 233/288/533 232/287/531
f 208/250/534 205/247/530 231/286/532 234/289/535
f 209/251/480 212/254/484 235/290/536 233/288/533
f 212/254/484 211/253/537 236/291/538 235/290/536
f 211/253/537 208/250/534 234/289/535 236/291/538
s off
f 231/286/539 232/287/540 238/293/541 237/292/542
f 232/287/543 233/288/544 239/294/545 238/293/546
f 234/289/547 231/286/548 237/292/549 240/295/550
f 233/288/551 235/290/552 241/296/553 239/294/554
f 235/290/555 236/291/556 242/297/557 241/296/558
f 236/291/559 234/289/560 240/295/561 242/297/562
g default
v -2057.553939 3734.449763 2477.894153
v -1946.706418 3734.449763 2477.894153
v -1835.858898 3734.449763 2477.894153
v -2057.553939 3746.334661 2477.894153
v -1946.706418 3746.334661 2477.894153
v -1835.858898 3746.334661 2477.894153
v -2057.553939 3758.219559 2477.894153
v -1946.706418 3758.219559 2477.894153
v -1835.858898 3758.219559 2477.894153
v -2057.553939 3758.219559 2426.849361
v -1946.706418 3758.219559 2426.849361
v -1835.858898 3758.219559 2426.849361
v -2057.553939 3758.219559 2375.804568
v -1946.706418 3758.219559 2375.804568
v -1835.858898 3758.219559 2375.804568
v -2057.553939 3746.334661 2375.804568
v -1946.706418 3746.334661 2375.804568
v -1835.858898 3746.334661 2375.804568
v -2057.553939 3734.449763 2375.804568
v -1946.706418 3734.449763 2375.804568
v -1835.858898 3734.449763 2375.804568
v -2057.553939 3734.449763 2426.849361
v -1946.706418 3734.449763 2426.849361
v -1835.858898 3734.449763 2426.849361
v -1835.858898 3746.334661 2426.849361
v -2057.553939 3746.334661 2426.849361
vt 0.375000 0.000000
vt 0.500000 0.000000
vt 0.625000 0.000000
vt 0.375000 0.125000
vt 0.500000 0.125000
vt 0.625000 0.125000
vt 0.375000 0.250000
vt 0.500000 0.250000
vt 0.625000 0.250000
vt 0.375000 0.375000
vt 0.500000 0.375000
vt 0.625000 0.375000
vt 0.375000 0.500000
vt 0.500000 0.500000
vt 0.625000 0.500000
vt 0.375000 0.625000
vt 0.500000 0.625000
vt 0.625000 0.625000
vt 0.375000 0.750000
vt 0.500000 0.750000
vt 0.625000 0.750000
vt 0.375000 0.875000
vt 0.500000 0.875000
vt 0.625000 0.875000
vt 0.375000 1.000000
vt 0.500000 1.000000
vt 0.625000 1.000000
vt 0.875000 0.000000
vt 0.750000 0.000000
vt 0.875000 0.125000
vt 0.750000 0.125000
vt 0.875000 0.250000
vt 0.750000 0.250000
vt 0.125000 0.000000
vt 0.250000 0.000000
vt 0.125000 0.125000
vt 0.250000 0.125000
vt 0.125000 0.250000
vt 0.250000 0.250000
vn 0.000000 0.000000 1.000000
vn 0.000000 0.000000 1.000000
vn 0.000000 0.000000 1.000000
vn 0.000000 0.000000 1.000000
vn 0.000000 0.000000 1.000000
vn 0.000000 0.000000 1.000000
vn 0.000000 0.000000 1.000000
vn 0.000000 0.000000 1.000000
vn 0.000000 0.000000 1.000000
vn 0.000000 1.000000 0.000000
vn 0.000000 1.000000 0.000000
vn 0.000000 1.000000 0.000000
vn 0.000000 1.000000 0.000000
vn 0.000000 1.000000 0.000000
vn 0.000000 1.000000 0.000000
vn 0.000000 1.000000 0.000000
vn 0.000000 1.000000 0.000000
vn 0.000000 1.000000 0.000000
vn 0.000000 0.000000 -1.000000
vn 0.000000 0.000000 -1.000000
vn 0.000000 0.000000 -1.000000
vn 0.000000 0.000000 -1.000000
vn 0.000000 0.000000 -1.000000
vn 0.000000 0.000000 -1.000000
vn 0.000000 0.000000 -1.000000
vn 0.000000 0.000000 -1.000000
vn 0.000000 0.000000 -1.000000
vn 0.000000 -1.000000 0.000000
vn 0.000000 -1.000000 0.000000
vn 0.000000 -1.000000 0.000000
vn 0.000000 -1.000000 0.000000
vn 0.000000 -1.000000 0.000000
vn 0.000000 -1.000000 0.000000
vn 0.000000 -1.000000 0.000000
vn 0.000000 -1.000000 0.000000
vn 0.000000 -1.000000 0.000000
vn 1.000000 0.000000 0.000000
vn 1.000000 0.000000 0.000000
vn 1.000000 0.000000 0.000000
vn 1.000000 0.000000 0.000000
vn 1.000000 0.000000 0.000000
vn 1.000000 0.000000 0.000000
vn 1.000000 0.000000 0.000000
vn 1.000000 0.000000 0.000000
vn 1.000000 0.000000 0.000000
vn -1.000000 0.000000 0.000000
vn -1.000000 0.000000 0.000000
vn -1.000000 0.000000 0.000000
vn -1.000000 0.000000 0.000000
vn -1.000000 0.000000 0.000000
vn -1.000000 0.000000 0.000000
vn -1.000000 0.000000 0.000000
vn -1.000000 0.000000 0.000000
vn -1.000000 0.000000 0.000000
s 1
g Tiff4 pCube116
usemtl initialShadingGroup
f 243/298/563 244/299/564 247/302/565 246/301/566
f 244/299/564 245/300/567 248/303/568 247/302/565
f 246/301/566 247/302/565 250/305/569 249/304/570
f 247/302/565 248/303/568 251/306/571 250/305/569
s 2
f 249/304/572 250/305/573 253/308/574 252/307/575
f 250/305/573 251/306/576 254/309/577 253/308/574
f 252/307/575 253/308/574 256/311/578 255/310/579
f 253/308/574 254/309/577 257/312/580 256/311/578
s 3
f 255/310/581 256/311/582 259/314/583 258/313/584
f 256/311/582 257/312/585 260/315/586 259/314/583
f 258/313/584 259/314/583 262/317/587 261/316/588
f 259/314/583 260/315/586 263/318/589 262/317/587
s 4
f 261/316/590 262/317/591 265/320/592 264/319/593
f 262/317/591 263/318/594 266/321/595 265/320/592
f 264/319/593 265/320/592 244/323/596 243/322/597
f 265/320/592 266/321/595 245/324/598 244/323/596
s 5
f 266/326/599 263/325/600 260/327/601 267/328/602
f 245/300/603 266/326/599 267/328/602 248/303/604
f 267/328/602 260/327/601 257/329/605 254/330/606
f 248/303/604 267/328/602 254/330/606 251/306/607
s 6
f 261/331/608 264/332/609 268/334/610 258/333/611
f 264/332/609 243/298/612 246/301/613 268/334/610
f 258/333/611 268/334/610 252/336/614 255/335/615
f 268/334/610 246/301/613 249/304/616 252/336/614
g default
v -2044.404623 3704.795229 2464.515785
v -1946.706418 3704.795229 2464.515785
v -1849.008214 3704.795229 2464.515785
v -2044.404623 3719.399000 2464.515785
v -1946.706418 3719.399000 2464.515785
v -1849.008214 3719.399000 2464.515785
v -2044.404623 3734.002771 2464.515785
v -1946.706418 3734.002771 2464.515785
v -1849.008214 3734.002771 2464.515785
v -2044.404623 3734.002771 2421.060590
v -1946.706418 3734.002771 2421.060590
v -1849.008214 3734.002771 2421.060590
v -2044.404623 3734.002771 2377.605396
v -1946.706418 3734.002771 2377.605396
v -1849.008214 3734.002771 2377.605396
v -2044.404623 3719.399000 2377.605396
v -1946.706418 3719.399000 2377.605396
v -1849.008214 3719.399000 2377.605396
v -2044.404623 3704.795229 2377.605396
v -1946.706418 3704.795229 2377.605396
v -1849.008214 3704.795229 2377.605396
v -2044.404623 3704.795229 2421.060590
v -1946.706418 3704.795229 2421.060590
v -1849.008214 3704.795229 2421.060590
v -1849.008214 3719.399000 2421.060590
v -2044.404623 3719.399000 2421.060590
vt 0.375000 0.000000
vt 0.500000 0.000000
vt 0.625000 0.000000
vt 0.375000 0.125000
vt 0.500000 0.125000
vt 0.625000 0.125000
vt 0.375000 0.250000
vt 0.500000 0.250000
vt 0.625000 0.250000
vt 0.375000 0.375000
vt 0.500000 0.375000
vt 0.625000 0.375000
vt 0.375000 0.500000
vt 0.500000 0.500000
vt 0.625000 0.500000
vt 0.375000 0.625000
vt 0.500000 0.625000
vt 0.625000 0.625000
vt 0.375000 0.750000
vt 0.500000 0.750000
vt 0.625000 0.750000
vt 0.375000 0.875000
vt 0.500000 0.875000
vt 0.625000 0.875000
vt 0.375000 1.000000
vt 0.500000 1.000000
vt 0.625000 1.000000
vt 0.875000 0.000000
vt 0.750000 0.000000
vt 0.875000 0.125000
vt 0.750000 0.125000
vt 0.875000 0.250000
vt 0.750000 0.250000
vt 0.125000 0.000000
vt 0.250000 0.000000
vt 0.125000 0.125000
vt 0.250000 0.125000
vt 0.125000 0.250000
vt 0.250000 0.250000
vn 0.000000 0.000000 1.000000
vn 0.000000 0.000000 1.000000
vn 0.000000 0.000000 1.000000
vn 0.000000 0.000000 1.000000
vn 0.000000 0.000000 1.000000
vn 0.000000 0.000000 1.000000
vn 0.000000 0.000000 1.000000
vn 0.000000 0.000000 1.000000
vn 0.000000 0.000000 1.000000
vn 0.000000 1.000000 0.000000
vn 0.000000 1.000000 0.000000
vn 0.000000 1.000000 0.000000
vn 0.000000 1.000000 0.000000
vn 0.000000 1.000000 0.000000
vn 0.000000 1.000000 0.000000
vn 0.000000 1.000000 0.000000
vn 0.000000 1.000000 0.000000
vn 0.000000 1.000000 0.000000
vn 0.000000 0.000000 -1.000000
vn 0.000000 0.000000 -1.000000
vn 0.000000 0.000000 -1.000000
vn 0.000000 0.000000 -1.000000
vn 0.000000 0.000000 -1.000000
vn 0.000000 0.000000 -1.000000
vn 0.000000 0.000000 -1.000000
vn 0.000000 0.000000 -1.000000
vn 0.000000 0.000000 -1.000000
vn 0.000000 -1.000000 0.000000
vn 0.000000 -1.000000 0.000000
vn 0.000000 -1.000000 0.000000
vn 0.000000 -1.000000 0.000000
vn 0.000000 -1.000000 0.000000
vn 0.000000 -1.000000 0.000000
vn 0.000000 -1.000000 0.000000
vn 0.000000 -1.000000 0.000000
vn 0.000000 -1.000000 0.000000
vn 1.000000 0.000000 0.000000
vn 1.000000 0.000000 0.000000
vn 1.000000 0.000000 0.000000
vn 1.000000 0.000000 0.000000
vn 1.000000 0.000000 0.000000
vn 1.000000 0.000000 0.000000
vn 1.000000 0.000000 0.000000
vn 1.000000 0.000000 0.000000
vn 1.000000 0.000000 0.000000
vn -1.000000 0.000000 0.000000
vn -1.000000 0.000000 0.000000
vn -1.000000 0.000000 0.000000
vn -1.000000 0.000000 0.000000
vn -1.000000 0.000000 0.000000
vn -1.000000 0.000000 0.000000
vn -1.000000 0.000000 0.000000
vn -1.000000 0.000000 0.000000
vn -1.000000 0.000000 0.000000
s 1
g Tiff4 pCube117
usemtl initialShadingGroup
f 269/337/617 270/338/618 273/341/619 272/340/620
f 270/338/618 271/339/621 274/342/622 273/341/619
f 272/340/620 273/341/619 276/344/623 275/343/624
f 273/341/619 274/342/622 277/345/625 276/344/623
s 2
f 275/343/626 276/344/627 279/347/628 278/346/629
f 276/344/627 277/345/630 280/348/631 279/347/628
f 278/346/629 279/347/628 282/350/632 281/349/633
f 279/347/628 280/348/631 283/351/634 282/350/632
s 3
f 281/349/635 282/350/636 285/353/637 284/352/638
f 282/350/636 283/351/639 286/354/640 285/353/637
f 284/352/638 285/353/637 288/356/641 287/355/642
f 285/353/637 286/354/640 289/357/643 288/356/641
s 4
f 287/355/644 288/356/645 291/359/646 290/358/647
f 288/356/645 289/357/648 292/360/649 291/359/646
f 290/358/647 291/359/646 270/362/650 269/361/651
f 291/359/646 292/360/649 271/363/652 270/362/650
s 5
f 292/365/653 289/364/654 286/366/655 293/367/656
f 271/339/657 292/365/653 293/367/656 274/342/658
f 293/367/656 286/366/655 283/368/659 280/369/660
f 274/342/658 293/367/656 280/369/660 277/345/661
s 6
f 287/370/662 290/371/663 294/373/664 284/372/665
f 290/371/663 269/337/666 272/340/667 294/373/664
f 284/372/665 294/373/664 278/375/668 281/374/669
f 294/373/664 272/340/667 275/343/670 278/375/668
