# This file uses centimeters as units for non-parametric coordinates.

mtllib 1block.mtl
g default
v 6771.319871 7.999990 5972.168377
v 6771.319871 7.999990 6115.790813
v 6771.319871 4.130998 6125.131420
v 6771.319871 -5.209576 6129.000438
v 6771.319871 -69.711113 6129.000438
v 6960.052682 7.999990 5972.168377
v 6960.052682 7.999990 6115.790813
v 6960.052682 4.130998 6125.131420
v 6960.052682 -5.209576 6129.000438
v 6960.052682 -69.711113 6129.000438
vt 0.399993 0.999966
vt 0.400004 0.847772
vt 0.400005 0.837058
vt 0.400005 0.826345
vt 0.400010 0.757994
vt 0.599990 0.999980
vt 0.600001 0.847786
vt 0.600001 0.837072
vt 0.600002 0.826359
vt 0.600007 0.758007
vn 0.000000 1.000000 0.000000
vn 0.000000 1.000000 0.000000
vn 0.000000 1.000000 0.000000
vn 0.000000 1.000000 0.000000
vn 0.000000 0.923880 0.382682
vn 0.000000 0.923880 0.382682
vn 0.000000 0.923880 0.382682
vn 0.000000 0.923880 0.382682
vn 0.000000 0.382686 0.923879
vn 0.000000 0.382686 0.923879
vn 0.000000 0.382686 0.923879
vn 0.000000 0.382686 0.923879
vn 0.000000 0.000000 1.000000
vn 0.000000 0.000000 1.000000
vn 0.000000 0.000000 1.000000
vn 0.000000 0.000000 1.000000
s off
g Road_344:road_2_02_low road6 road Street
usemtl Road_344:set5
f 1/1/1 2/2/2 7/7/3 6/6/4
f 2/2/5 3/3/6 8/8/7 7/7/8
f 3/3/9 4/4/10 9/9/11 8/8/12
f 10/10/13 9/9/14 4/4/15 5/5/16
