# This file uses centimeters as units for non-parametric coordinates.

mtllib 1row.mtl
g default
v 6771.319875 7.999990 5028.504421
v 6771.319875 7.999990 5972.168300
v 6960.052663 7.999990 5028.504421
v 6960.052663 7.999990 5972.168300
vt 0.000000 1.000000
vt 0.000000 0.000000
vt 0.200000 1.000000
vt 0.200000 0.000000
vn 0.000000 1.000000 0.000000
vn 0.000000 1.000000 0.000000
vn 0.000000 1.000000 0.000000
vn 0.000000 1.000000 0.000000
s off
g Road_5:Road_5 road5 road Street
usemtl Road_5:set3
f 3/3/1 1/1/2 2/2/3 4/4/4
