# This file uses centimeters as units for non-parametric coordinates.

mtllib 3AprilStoneRoadBossExt.mtl
g default
v -339.694489 3.292791 5992.728516
v 308.781891 3.292791 5992.728516
v -427.357025 3.292791 8473.936523
v 398.807098 3.292791 8474.124023
v -337.565674 3.292791 8228.379883
v 308.781891 3.292791 8228.548828
v -352.407990 3.292791 8359.203125
v 323.748779 3.292791 8359.381836
v -388.136536 3.292791 8473.937500
v 467.514709 3.292791 8473.937500
v 477.379425 -10.420439 8712.983398
v -411.565308 -10.420439 8712.983398
v -956.633240 2.353616 5562.605957
v 956.633301 2.353616 5562.605957
v -0.000180 2.353616 3905.668701
v 0.000066 2.353616 6114.918457
v 956.633179 2.353616 4457.980957
v -956.633362 2.353616 4457.981445
v -0.000038 2.353616 5010.293457
v -1104.624878 2.353616 5010.293945
v -552.312439 2.353616 5966.927246
v 0.000014 2.353616 5562.605957
v -478.316681 2.353616 4734.137695
v -478.316650 2.353616 5286.449707
v 552.312622 2.353616 5966.927246
v 1104.624878 2.353616 5010.293457
v 478.316559 2.353616 4734.137207
v 478.316650 2.353616 5286.449707
v 552.312256 2.353616 4053.660400
v -552.312622 2.353616 4053.660645
v -0.000092 2.353616 4457.980957
v -717.475037 2.353616 4596.059570
v -1066.985840 2.353616 4724.395996
v -791.470764 2.353616 5148.372070
v -478.316650 2.353616 5010.293945
v -754.472900 2.353616 4872.215820
v -1066.985718 2.353616 5296.191895
v -781.087769 2.353616 5791.381348
v -515.314514 2.353616 5626.688477
v -772.971863 2.353616 5456.568848
v -285.897949 2.353616 6077.279297
v 0.000040 2.353616 5838.762207
v -239.158325 2.353616 5424.527832
v -257.657227 2.353616 5732.725098
v -0.000012 2.353616 5286.449707
v -239.158356 2.353616 4872.215332
v -239.158340 2.353616 5148.371582
v 285.898071 2.353616 6077.279297
v 515.314575 2.353616 5626.688477
v 239.158325 2.353616 5424.527832
v 257.657318 2.353616 5732.725098
v 781.087830 2.353616 5791.381348
v 1066.985840 2.353616 5296.191406
v 791.470764 2.353616 5148.371582
v 772.971863 2.353616 5456.568848
v 1066.985718 2.353616 4724.395508
v 717.474854 2.353616 4596.059082
v 478.316589 2.353616 5010.293457
v 754.472778 2.353616 4872.215332
v 239.158264 2.353616 4872.215332
v 239.158295 2.353616 5148.371582
v 781.087708 2.353616 4229.205566
v 276.156097 2.353616 4255.820801
v 239.158234 2.353616 4596.059082
v 496.815460 2.353616 4425.939941
v 285.897766 2.353616 3943.307861
v -285.898132 2.353616 3943.308105
v -276.156342 2.353616 4255.820801
v -0.000146 2.353616 4117.742676
v -781.087952 2.353616 4229.206055
v -239.158386 2.353616 4596.059082
v -496.815704 2.353616 4425.940430
v -0.000064 2.353616 4734.137207
v -339.694489 6.750215 1916.320312
v 308.781891 6.750215 1916.320312
v 308.781891 6.750215 3982.478516
v -339.694489 6.750215 3982.478516
vt 1.205016 4.142248
vt -0.201201 4.142200
vt -0.391147 -2.543602
vt 1.400385 -2.544045
vt -0.196450 -1.881925
vt 1.205151 -1.882332
vt -0.228627 -2.234439
vt 1.237614 -2.234870
vt 1.238782 0.633587
vt -0.170329 0.645320
vt -0.211796 0.196801
vt 1.252143 0.184612
vt -0.675322 0.499336
vt -0.675705 1.177909
vt -1.263558 1.516864
vt -1.354087 0.838240
vt -1.851411 1.855819
vt -2.122200 1.201030
vt -2.214291 0.498468
vt -1.444615 0.159616
vt -0.674940 -0.179235
vt -2.121407 -0.203990
vt -1.398732 -0.597662
vt -1.849879 -0.858471
vt -1.418211 -1.420376
vt -0.855819 -1.851411
vt -0.765379 -1.015323
vt -0.201031 -2.122200
vt -0.132115 -1.275520
vt 0.501532 -2.214291
vt 0.501149 -1.535718
vt 0.500766 -0.857145
vt -0.087087 -0.518190
vt 0.500383 -0.178572
vt -0.087470 0.160383
vt 0.500000 0.500000
vt -0.087853 0.838955
vt 1.088236 -0.517527
vt 1.134119 -1.274806
vt 1.203990 -2.121407
vt 1.858472 -1.849880
vt 1.767089 -1.013895
vt 1.675705 -0.177909
vt 2.420377 -1.418210
vt 2.399970 -0.595518
vt 2.851411 -0.855819
vt 3.122200 -0.201030
vt 3.214291 0.501532
vt 2.444998 0.161811
vt 3.121407 1.203990
vt 2.353703 0.840333
vt 2.849879 1.858472
vt 2.262409 1.518854
vt 1.674940 1.179236
vt 1.675322 0.500664
vt 1.087470 0.839618
vt 1.087853 0.161046
vt 1.087087 1.518191
vt 1.719968 1.936566
vt 2.418211 2.420377
vt 1.855819 2.851411
vt 1.177526 2.354278
vt 0.499234 1.857146
vt 1.201030 3.122200
vt 0.498762 2.693182
vt 0.498468 3.214291
vt -0.203990 3.121407
vt -0.858472 2.849879
vt -0.179619 2.353512
vt -1.420377 2.418210
vt -0.721589 1.935187
vt -0.088236 1.517528
vt 0.499617 1.178573
vt 1.211277 3.837822
vt -0.157787 3.848774
vt -0.206460 -2.235659
vt 1.162604 -2.246610
vn 0.000000 1.000000 0.000000
vn 0.000000 1.000000 0.000000
vn 0.000000 1.000000 0.000000
vn 0.000000 1.000000 0.000000
vn 0.000000 1.000000 -0.000000
vn 0.000000 1.000000 -0.000000
vn 0.000000 1.000000 -0.000000
vn 0.000000 1.000000 -0.000000
vn 0.000000 0.998359 0.057272
vn 0.000000 0.998359 0.057272
vn 0.000000 0.998359 0.057272
vn 0.000000 0.998359 0.057272
vn 0.000000 1.000000 -0.000000
vn 0.000000 1.000000 0.000000
vn 0.000000 1.000000 -0.000000
vn 0.000000 1.000000 -0.000000
vn 0.000000 1.000000 -0.000000
vn 0.000000 1.000000 -0.000000
vn 0.000000 1.000000 -0.000000
vn 0.000000 1.000000 -0.000000
vn 0.000000 1.000000 0.000000
vn 0.000000 1.000000 0.000000
vn 0.000000 1.000000 -0.000000
vn 0.000000 1.000000 0.000000
vn 0.000000 1.000000 -0.000000
vn 0.000000 1.000000 -0.000000
vn 0.000000 1.000000 -0.000000
vn 0.000000 1.000000 -0.000000
vn 0.000000 1.000000 -0.000000
vn 0.000000 1.000000 -0.000000
vn 0.000000 1.000000 -0.000000
vn 0.000000 1.000000 -0.000000
vn 0.000000 1.000000 -0.000000
vn 0.000000 1.000000 -0.000000
vn 0.000000 1.000000 0.000000
vn 0.000000 1.000000 0.000000
vn 0.000000 1.000000 0.000000
vn 0.000000 1.000000 -0.000000
vn 0.000000 1.000000 0.000000
vn 0.000000 1.000000 0.000000
vn 0.000000 1.000000 0.000000
vn 0.000000 1.000000 -0.000000
vn 0.000000 1.000000 -0.000000
vn 0.000000 1.000000 0.000000
vn 0.000000 1.000000 0.000000
vn 0.000000 1.000000 0.000000
vn 0.000000 1.000000 0.000000
vn 0.000000 1.000000 -0.000000
vn 0.000000 1.000000 -0.000000
vn 0.000000 1.000000 -0.000000
vn 0.000000 1.000000 -0.000000
vn 0.000000 1.000000 0.000000
vn 0.000000 1.000000 0.000000
vn 0.000000 1.000000 0.000000
vn 0.000000 1.000000 -0.000000
vn 0.000000 1.000000 0.000000
vn 0.000000 1.000000 -0.000000
vn 0.000000 1.000000 0.000000
vn 0.000000 1.000000 0.000000
vn 0.000000 1.000000 0.000000
vn 0.000000 1.000000 0.000000
vn 0.000000 1.000000 0.000000
vn 0.000000 1.000000 -0.000000
vn 0.000000 1.000000 0.000000
vn 0.000000 1.000000 0.000000
vn 0.000000 1.000000 0.000000
vn 0.000000 1.000000 0.000000
vn 0.000000 1.000000 0.000000
vn 0.000000 1.000000 0.000000
vn 0.000000 1.000000 0.000000
vn 0.000000 1.000000 0.000000
vn 0.000000 1.000000 0.000000
vn 0.000000 1.000000 0.000000
vn 0.000000 1.000000 -0.000000
vn 0.000000 1.000000 -0.000000
vn 0.000000 1.000000 -0.000000
vn 0.000000 1.000000 -0.000000
s 1
g polySurface259
usemtl aiStandardSurface27SG
f 2/1/1 1/2/2 5/5/3 6/6/4
f 6/6/4 5/5/3 7/7/5 8/8/6
f 8/8/6 7/7/5 3/3/7 4/4/8
s off
f 10/9/9 9/10/10 12/11/11 11/12/12
s 2
f 35/13/13 23/14/14 32/15/15 36/16/16
f 32/15/15 18/17/17 33/18/18 36/16/16
f 33/18/18 20/19/19 34/20/20 36/16/16
f 34/20/20 24/21/21 35/13/13 36/16/16
f 34/20/20 20/19/19 37/22/22 40/23/23
f 37/22/22 13/24/24 38/25/25 40/23/23
f 38/25/25 21/26/26 39/27/27 40/23/23
f 39/27/27 24/21/21 34/20/20 40/23/23
f 39/27/27 21/26/26 41/28/28 44/29/29
f 41/28/28 16/30/30 42/31/31 44/29/29
f 42/31/31 22/32/32 43/33/33 44/29/29
f 43/33/33 24/21/21 39/27/27 44/29/29
f 43/33/33 22/32/32 45/34/34 47/35/35
f 45/34/34 19/36/36 46/37/37 47/35/35
f 46/37/37 23/14/14 35/13/13 47/35/35
f 35/13/13 24/21/21 43/33/33 47/35/35
f 50/38/38 22/32/32 42/31/31 51/39/39
f 42/31/31 16/30/30 48/40/40 51/39/39
f 48/40/40 25/41/41 49/42/42 51/39/39
f 49/42/42 28/43/43 50/38/38 51/39/39
f 49/42/42 25/41/41 52/44/44 55/45/45
f 52/44/44 14/46/46 53/47/47 55/45/45
f 53/47/47 26/48/48 54/49/49 55/45/45
f 54/49/49 28/43/43 49/42/42 55/45/45
f 54/49/49 26/48/48 56/50/50 59/51/51
f 56/50/50 17/52/52 57/53/53 59/51/51
f 57/53/53 27/54/54 58/55/55 59/51/51
f 58/55/55 28/43/43 54/49/49 59/51/51
f 58/55/55 27/54/54 60/56/56 61/57/57
f 60/56/56 19/36/36 45/34/34 61/57/57
f 45/34/34 22/32/32 50/38/38 61/57/57
f 50/38/38 28/43/43 58/55/55 61/57/57
f 64/58/58 27/54/54 57/53/53 65/59/59
f 57/53/53 17/52/52 62/60/60 65/59/59
f 62/60/60 29/61/61 63/62/62 65/59/59
f 63/62/62 31/63/63 64/58/58 65/59/59
f 63/62/62 29/61/61 66/64/64 69/65/65
f 66/64/64 15/66/66 67/67/67 69/65/65
f 67/67/67 30/68/68 68/69/69 69/65/65
f 68/69/69 31/63/63 63/62/62 69/65/65
f 68/69/69 30/68/68 70/70/70 72/71/71
f 70/70/70 18/17/17 32/15/15 72/71/71
f 32/15/15 23/14/14 71/72/72 72/71/71
f 71/72/72 31/63/63 68/69/69 72/71/71
f 71/72/72 23/14/14 46/37/37 73/73/73
f 46/37/37 19/36/36 60/56/56 73/73/73
f 60/56/56 27/54/54 64/58/58 73/73/73
f 64/58/58 31/63/63 71/72/72 73/73/73
s off
f 75/74/74 74/75/75 77/76/76 76/77/77
