# This file uses centimeters as units for non-parametric coordinates.

mtllib BossStatuePlatform.mtl
g default
v 281.238068 36.919861 5188.355957
v 284.218872 35.632439 5190.521973
v 287.199341 36.919949 5192.686523
v 208.390045 36.919949 5271.496094
v 206.224762 35.632401 5268.515625
v 204.059494 36.919815 5265.535156
v 109.084755 36.919861 5322.093750
v 107.946548 35.632370 5318.590332
v 106.807556 36.919827 5315.086914
v -0.994854 36.919746 5339.530273
v -0.994854 35.632286 5335.844727
v -0.994854 36.919792 5332.160645
v -111.075996 36.919735 5322.093750
v -109.937393 35.632278 5318.590332
v -108.799919 36.919777 5315.086914
v -210.381302 36.919735 5271.496094
v -208.215256 35.632309 5268.515625
v -206.049973 36.919792 5265.535156
v -289.189789 36.919804 5192.686523
v -286.209320 35.632328 5190.521973
v -283.228882 36.919792 5188.355957
v -339.789032 36.920059 5093.382324
v -336.284821 35.632515 5092.243652
v -332.780975 36.920006 5091.105957
v -357.223938 36.919853 4983.301270
v -353.539490 35.632286 4983.301270
v -349.855774 36.919735 4983.301270
v -339.789032 36.920040 4873.221191
v -336.284821 35.632488 4874.359375
v -332.780975 36.919971 4875.497559
v -289.189789 36.919827 4773.915527
v -286.209320 35.632336 4776.081543
v -283.228882 36.919777 4778.246094
v -210.381302 36.919762 4695.107422
v -208.215256 35.632336 4698.087402
v -206.049973 36.919827 4701.067871
v -111.075996 36.919746 4644.508301
v -109.937393 35.632286 4648.012695
v -108.799919 36.919804 4651.516602
v -0.994854 36.919777 4627.073242
v -0.994854 35.632301 4630.757324
v -0.994854 36.919777 4634.441406
v 109.084755 36.919762 4644.508301
v 107.946548 35.632271 4648.012695
v 106.807556 36.919762 4651.516602
v 208.390045 36.919998 4695.107422
v 206.224762 35.632439 4698.087402
v 204.057938 36.919876 4701.067871
v 287.199341 36.919983 4773.915527
v 284.218872 35.632454 4776.081543
v 281.238068 36.919868 4778.246094
v 337.798187 36.919827 4873.221191
v 334.294800 35.632256 4874.359375
v 330.790161 36.919575 4875.497559
v 355.232361 36.919846 4983.301270
v 351.548676 35.632278 4983.301270
v 347.864624 36.919682 4983.301270
v 337.798187 36.919712 5093.382324
v 334.294373 35.632187 5092.244141
v 330.790161 36.919605 5091.105957
v 360.759827 41.320656 4983.301270
v 343.055023 41.320656 4871.513184
v 291.670776 41.320656 4770.666504
v 211.638351 41.320656 4690.634766
v 110.792664 41.320656 4639.250977
v -0.994854 41.320656 4621.545410
v -112.784668 41.320656 4639.250977
v -213.630371 41.320656 4690.634766
v -293.661591 41.320656 4770.666504
v -345.045105 41.320656 4871.513184
v -362.750641 41.320656 4983.301270
v -345.045105 41.320656 5095.089844
v -293.661591 41.320656 5195.936035
v -213.630371 41.320656 5275.968262
v -112.784668 41.320656 5327.351074
v -0.994854 41.320656 5345.056641
v 110.792664 41.320656 5327.351074
v 211.638351 41.320656 5275.968262
v 291.670776 41.320656 5195.936035
v 343.055023 41.320656 5095.089844
v 276.766235 41.320656 4781.495605
v 325.532898 41.320656 4877.205566
v 342.336761 41.320656 4983.301270
v 200.810013 41.320656 4705.540039
v 105.099625 41.320656 4656.773438
v -0.994854 41.320656 4639.969238
v -107.090485 41.320656 4656.773438
v -202.800888 41.320656 4705.540039
v -278.756622 41.320656 4781.495605
v -327.524109 41.320656 4877.205566
v -344.327606 41.320656 4983.301270
v -327.524109 41.320656 5089.396484
v -278.756622 41.320656 5185.106934
v -202.800888 41.320656 5261.062988
v -107.090485 41.320656 5309.830078
v -0.994854 41.320656 5326.632812
v 105.099625 41.320656 5309.830078
v 200.810013 41.320656 5261.062988
v 276.766235 41.320656 5185.106934
v 325.532898 41.320656 5089.396484
vt 0.683593 0.052717
vt 0.683436 0.053044
vt 0.673564 0.050116
vt 0.673611 0.049756
vt 0.683280 0.053371
vt 0.673516 0.050475
vt 0.699084 0.066565
vt 0.702624 0.076574
vt 0.701978 0.076694
vt 0.698506 0.066879
vt 0.702899 0.087188
vt 0.702246 0.087101
vt 0.699880 0.097366
vt 0.699286 0.097083
vt 0.693863 0.106114
vt 0.693386 0.105661
vt 0.685438 0.112574
vt 0.685124 0.111996
vt 0.675429 0.116115
vt 0.675309 0.115468
vt 0.664815 0.116389
vt 0.664901 0.115737
vt 0.654637 0.113370
vt 0.654920 0.112776
vt 0.645889 0.107354
vt 0.646341 0.106876
vt 0.639428 0.098928
vt 0.640006 0.098614
vt 0.635888 0.088919
vt 0.636534 0.088799
vt 0.635613 0.078306
vt 0.636266 0.078392
vt 0.638632 0.068127
vt 0.639226 0.068410
vt 0.644649 0.059379
vt 0.645126 0.059832
vt 0.653074 0.052919
vt 0.653388 0.053497
vt 0.663083 0.049378
vt 0.663203 0.050025
vt 0.673697 0.049104
vt 0.683876 0.052123
vt 0.692623 0.058139
vt 0.692171 0.058616
vt 0.700875 0.086921
vt 0.700618 0.076946
vt 0.701264 0.076826
vt 0.701527 0.087007
vt 0.697290 0.067538
vt 0.697868 0.067225
vt 0.698038 0.096487
vt 0.698631 0.096770
vt 0.692383 0.104709
vt 0.692860 0.105161
vt 0.684464 0.110780
vt 0.684778 0.111358
vt 0.675057 0.114108
vt 0.675177 0.114754
vt 0.665082 0.114365
vt 0.664996 0.115018
vt 0.655515 0.111528
vt 0.655232 0.112122
vt 0.647294 0.105873
vt 0.646841 0.106350
vt 0.641222 0.097955
vt 0.640644 0.098268
vt 0.637895 0.088547
vt 0.637248 0.088667
vt 0.637637 0.078572
vt 0.636985 0.078486
vt 0.640475 0.069006
vt 0.639881 0.068723
vt 0.646129 0.060784
vt 0.645652 0.060332
vt 0.654048 0.054713
vt 0.653734 0.054135
vt 0.663455 0.051385
vt 0.663335 0.050739
vt 0.673430 0.051128
vt 0.682997 0.053965
vt 0.691218 0.059620
vt 0.691671 0.059143
vt 0.663269 0.050382
vt 0.653561 0.053816
vt 0.645389 0.060082
vt 0.639554 0.068566
vt 0.636625 0.078439
vt 0.636891 0.088733
vt 0.640325 0.098441
vt 0.646591 0.106613
vt 0.655076 0.112449
vt 0.664949 0.115377
vt 0.675243 0.115111
vt 0.684951 0.111677
vt 0.693123 0.105411
vt 0.698958 0.096927
vt 0.701887 0.087054
vt 0.701621 0.076760
vt 0.698186 0.067052
vt 0.691921 0.058880
vn -0.434746 0.843345 -0.315856
vn -0.266923 0.944002 -0.193941
vn -0.193934 0.944001 -0.266929
vn -0.315855 0.843352 -0.434734
vn 0.266865 0.944028 0.193891
vn 0.414883 0.858495 0.301428
vn 0.301437 0.858487 0.414893
vn 0.193900 0.944021 0.266885
vn -0.622877 0.782320 -0.000001
vn -0.592389 0.782322 0.192477
vn -0.511075 0.843343 0.166057
vn -0.537379 0.843341 -0.000000
vn -0.503908 0.782328 0.366115
vn -0.434734 0.843352 0.315854
vn -0.366090 0.782343 0.503902
vn -0.315848 0.843362 0.434720
vn -0.192466 0.782347 0.592360
vn -0.166047 0.843368 0.511038
vn 0.000000 0.782344 0.622847
vn -0.000000 0.843371 0.537332
vn 0.192469 0.782354 0.592350
vn 0.166039 0.843375 0.511027
vn 0.366091 0.782352 0.503888
vn 0.315836 0.843375 0.434703
vn 0.503911 0.782327 0.366113
vn 0.434723 0.843361 0.315845
vn 0.592413 0.782301 0.192489
vn 0.511068 0.843348 0.166054
vn 0.622914 0.782291 0.000000
vn 0.537375 0.843343 0.000000
vn 0.592415 0.782301 -0.192486
vn 0.511070 0.843345 -0.166059
vn 0.503908 0.782326 -0.366117
vn 0.434734 0.843355 -0.315847
vn 0.366099 0.782345 -0.503893
vn 0.315844 0.843364 -0.434718
vn 0.192479 0.782325 -0.592384
vn 0.166046 0.843362 -0.511048
vn 0.000000 0.782305 -0.622896
vn -0.000000 0.843356 -0.537355
vn -0.192476 0.782322 -0.592389
vn -0.166053 0.843356 -0.511055
vn -0.366099 0.782337 -0.503905
vn -0.503910 0.782324 -0.366121
vn -0.592398 0.782316 -0.192475
vn -0.511076 0.843342 -0.166059
vn 0.503909 0.782331 -0.366107
vn 0.592376 0.782333 -0.192474
vn 0.487729 0.858491 -0.158472
vn 0.414888 0.858488 -0.301441
vn 0.622856 0.782337 -0.000000
vn 0.512830 0.858490 0.000001
vn 0.366119 0.782323 -0.503913
vn 0.301428 0.858486 -0.414902
vn 0.192481 0.782323 -0.592386
vn 0.158476 0.858482 -0.487744
vn 0.000001 0.782334 -0.622860
vn 0.000001 0.858479 -0.512849
vn -0.192460 0.782344 -0.592366
vn -0.158490 0.858478 -0.487747
vn -0.366095 0.782352 -0.503885
vn -0.301446 0.858477 -0.414907
vn -0.503888 0.782349 -0.366097
vn -0.414904 0.858476 -0.301452
vn -0.592360 0.782346 -0.192471
vn -0.487749 0.858479 -0.158480
vn -0.622840 0.782349 -0.000000
vn -0.512845 0.858481 -0.000000
vn -0.592351 0.782356 0.192456
vn -0.487735 0.858485 0.158486
vn -0.503884 0.782351 0.366098
vn -0.414894 0.858486 0.301437
vn -0.366101 0.782346 0.503890
vn -0.301446 0.858478 0.414904
vn -0.192458 0.782343 0.592368
vn -0.158491 0.858472 0.487757
vn -0.000001 0.782334 0.622859
vn -0.000001 0.858472 0.512860
vn 0.192473 0.782335 0.592373
vn 0.158476 0.858477 0.487753
vn 0.366099 0.782342 0.503897
vn 0.503892 0.782346 0.366097
vn 0.592368 0.782342 0.192460
vn 0.487725 0.858492 0.158479
vn -0.101947 0.944016 -0.313752
vn 0.101951 0.944013 0.313761
vn -0.000001 0.944031 -0.329858
vn -0.000001 0.944008 0.329924
vn 0.101934 0.944024 -0.313731
vn -0.101948 0.944003 0.313791
vn 0.193907 0.944016 -0.266898
vn -0.193920 0.944009 0.266911
vn 0.266899 0.944013 -0.193918
vn -0.266893 0.944015 0.193917
vn 0.313755 0.944016 -0.101944
vn -0.313768 0.944011 0.101942
vn 0.329895 0.944018 0.000000
vn -0.329916 0.944010 -0.000000
vn 0.313748 0.944018 0.101946
vn -0.313772 0.944010 -0.101948
vn 0.266887 0.944020 0.193899
vn -0.266921 0.944006 -0.193923
vn 0.193894 0.944023 0.266882
vn -0.193926 0.944005 -0.266922
vn 0.101939 0.944023 0.313732
vn -0.101942 0.944009 -0.313775
vn -0.000000 0.944023 0.329880
vn -0.000001 0.944015 -0.329904
vn -0.101951 0.944016 0.313752
vn 0.101942 0.944023 -0.313733
vn -0.193922 0.944008 0.266913
vn 0.193898 0.944027 -0.266863
vn -0.266917 0.944007 0.193925
vn 0.266871 0.944028 -0.193884
vn -0.313797 0.944000 0.101960
vn 0.313710 0.944033 -0.101925
vn -0.329951 0.943998 0.000001
vn 0.329861 0.944030 0.000001
vn -0.313785 0.944004 -0.101957
vn 0.313723 0.944028 0.101930
s 1
g polySurface241 STATUE_FLOOR_grp BossExt_grp
usemtl aiStandardSurface2SG
f 3/1/1 2/2/2 5/3/3 4/4/4
s 2
f 2/2/5 1/5/6 6/6/7 5/3/8
s 1
f 61/7/9 62/8/10 52/9/11 55/10/12
f 62/8/10 63/11/13 49/12/14 52/9/11
f 63/11/13 64/13/15 46/14/16 49/12/14
f 64/13/15 65/15/17 43/16/18 46/14/16
f 65/15/17 66/17/19 40/18/20 43/16/18
f 66/17/19 67/19/21 37/20/22 40/18/20
f 67/19/21 68/21/23 34/22/24 37/20/22
f 68/21/23 69/23/25 31/24/26 34/22/24
f 69/23/25 70/25/27 28/26/28 31/24/26
f 70/25/27 71/27/29 25/28/30 28/26/28
f 71/27/29 72/29/31 22/30/32 25/28/30
f 72/29/31 73/31/33 19/32/34 22/30/32
f 73/31/33 74/33/35 16/34/36 19/32/34
f 74/33/35 75/35/37 13/36/38 16/34/36
f 75/35/37 76/37/39 10/38/40 13/36/38
f 76/37/39 77/39/41 7/40/42 10/38/40
f 77/39/41 78/41/43 4/4/4 7/40/42
f 78/41/43 79/42/44 3/1/1 4/4/4
f 79/42/44 80/43/45 58/44/46 3/1/1
f 80/43/45 61/7/9 55/10/12 58/44/46
s 2
f 81/45/47 82/46/48 54/47/49 51/48/50
f 82/46/48 83/49/51 57/50/52 54/47/49
f 84/51/53 81/45/47 51/48/50 48/52/54
f 85/53/55 84/51/53 48/52/54 45/54/56
f 86/55/57 85/53/55 45/54/56 42/56/58
f 87/57/59 86/55/57 42/56/58 39/58/60
f 88/59/61 87/57/59 39/58/60 36/60/62
f 89/61/63 88/59/61 36/60/62 33/62/64
f 90/63/65 89/61/63 33/62/64 30/64/66
f 91/65/67 90/63/65 30/64/66 27/66/68
f 92/67/69 91/65/67 27/66/68 24/68/70
f 93/69/71 92/67/69 24/68/70 21/70/72
f 94/71/73 93/69/71 21/70/72 18/72/74
f 95/73/75 94/71/73 18/72/74 15/74/76
f 96/75/77 95/73/75 15/74/76 12/76/78
f 97/77/79 96/75/77 12/76/78 9/78/80
f 98/79/81 97/77/79 9/78/80 6/6/7
f 99/80/82 98/79/81 6/6/7 1/5/6
f 100/81/83 99/80/82 1/5/6 60/82/84
f 83/49/51 100/81/83 60/82/84 57/50/52
s 1
f 4/4/4 5/3/3 8/83/85 7/40/42
s 2
f 5/3/8 6/6/7 9/78/80 8/83/86
s 1
f 7/40/42 8/83/85 11/84/87 10/38/40
s 2
f 8/83/86 9/78/80 12/76/78 11/84/88
s 1
f 10/38/40 11/84/87 14/85/89 13/36/38
s 2
f 11/84/88 12/76/78 15/74/76 14/85/90
s 1
f 13/36/38 14/85/89 17/86/91 16/34/36
s 2
f 14/85/90 15/74/76 18/72/74 17/86/92
s 1
f 16/34/36 17/86/91 20/87/93 19/32/34
s 2
f 17/86/92 18/72/74 21/70/72 20/87/94
s 1
f 19/32/34 20/87/93 23/88/95 22/30/32
s 2
f 20/87/94 21/70/72 24/68/70 23/88/96
s 1
f 22/30/32 23/88/95 26/89/97 25/28/30
s 2
f 23/88/96 24/68/70 27/66/68 26/89/98
s 1
f 25/28/30 26/89/97 29/90/99 28/26/28
s 2
f 26/89/98 27/66/68 30/64/66 29/90/100
s 1
f 28/26/28 29/90/99 32/91/101 31/24/26
s 2
f 29/90/100 30/64/66 33/62/64 32/91/102
s 1
f 31/24/26 32/91/101 35/92/103 34/22/24
s 2
f 32/91/102 33/62/64 36/60/62 35/92/104
s 1
f 34/22/24 35/92/103 38/93/105 37/20/22
s 2
f 35/92/104 36/60/62 39/58/60 38/93/106
s 1
f 37/20/22 38/93/105 41/94/107 40/18/20
s 2
f 38/93/106 39/58/60 42/56/58 41/94/108
s 1
f 40/18/20 41/94/107 44/95/109 43/16/18
s 2
f 41/94/108 42/56/58 45/54/56 44/95/110
s 1
f 43/16/18 44/95/109 47/96/111 46/14/16
s 2
f 44/95/110 45/54/56 48/52/54 47/96/112
s 1
f 46/14/16 47/96/111 50/97/113 49/12/14
s 2
f 47/96/112 48/52/54 51/48/50 50/97/114
s 1
f 49/12/14 50/97/113 53/98/115 52/9/11
s 2
f 50/97/114 51/48/50 54/47/49 53/98/116
s 1
f 52/9/11 53/98/115 56/99/117 55/10/12
s 2
f 53/98/116 54/47/49 57/50/52 56/99/118
s 1
f 55/10/12 56/99/117 59/100/119 58/44/46
s 2
f 56/99/118 57/50/52 60/82/84 59/100/120
f 1/5/6 2/2/5 59/100/120 60/82/84
s 1
f 2/2/2 3/1/1 58/44/46 59/100/119
g default
v 383.914001 11.026788 4858.236816
v 326.427979 11.026788 4745.414551
v 236.891846 11.026788 4655.878418
v 124.069588 11.026788 4598.393066
v -0.994854 11.026788 4578.584473
v -126.060043 11.026788 4598.393066
v -238.881546 11.026788 4655.878418
v -328.418396 11.026788 4745.414551
v -385.903687 11.026788 4858.236816
v -405.712006 11.026788 4983.301270
v -385.903687 11.026788 5108.365723
v -328.418396 11.026788 5221.187988
v -238.881546 11.026788 5310.724609
v -126.060043 11.026788 5368.209961
v -0.994854 11.026788 5388.018555
v 124.069588 11.026788 5368.209961
v 236.891846 11.026788 5310.724609
v 326.427979 11.026788 5221.187988
v 383.912842 11.026788 5108.365723
v 403.721100 11.026788 4983.301270
v -0.994854 41.320656 4983.301270
v 343.055023 41.320656 4871.513184
v 291.670776 41.320656 4770.666504
v 211.638351 41.320656 4690.634766
v 110.792664 41.320656 4639.250977
v -0.994854 41.320656 4621.545410
v -112.784668 41.320656 4639.250977
v -213.630371 41.320656 4690.634766
v -293.661591 41.320656 4770.666504
v -345.045105 41.320656 4871.513184
v -362.750641 41.320656 4983.301270
v -345.045105 41.320656 5095.089844
v -293.661591 41.320656 5195.936035
v -213.630371 41.320656 5275.968262
v -112.784668 41.320656 5327.351074
v -0.994854 41.320656 5345.056641
v 110.792664 41.320656 5327.351074
v 211.638351 41.320656 5275.968262
v 291.670776 41.320656 5195.936035
v 343.055023 41.320656 5095.089844
v 360.759827 41.320656 4983.301270
v 325.532898 41.320656 4877.205566
v 276.766235 41.320656 4781.495605
v 200.810013 41.320656 4705.540039
v 105.099625 41.320656 4656.773438
v -0.994854 41.320656 4639.969238
v -107.090485 41.320656 4656.773438
v -202.800888 41.320656 4705.540039
v -278.756622 41.320656 4781.495605
v -327.524109 41.320656 4877.205566
v -344.327606 41.320656 4983.301270
v -327.524109 41.320656 5089.396484
v -278.756622 41.320656 5185.106934
v -202.800888 41.320656 5261.062988
v -107.090485 41.320656 5309.830078
v -0.994854 41.320656 5326.632812
v 105.099625 41.320656 5309.830078
v 200.810013 41.320656 5261.062988
v 276.766235 41.320656 5185.106934
v 325.532898 41.320656 5089.396484
v 342.336761 41.320656 4983.301270
v 383.914001 32.233406 4858.236816
v 381.351196 38.659058 4859.069336
v 375.163696 41.320656 4861.081055
v 326.427979 32.233406 4745.414551
v 324.247620 38.659058 4746.998535
v 318.984558 41.320656 4750.822754
v 236.891846 32.233406 4655.878418
v 235.307846 38.659058 4658.058105
v 231.483658 41.320656 4663.321777
v 124.069588 32.233406 4598.393066
v 123.236282 38.659058 4600.955566
v 121.226547 41.320656 4607.143066
v -0.994854 32.233406 4578.584473
v -0.994854 38.659058 4581.279297
v -0.994854 41.320656 4587.785645
v -126.060043 32.233406 4598.393066
v -125.227119 38.659058 4600.955566
v -123.217003 41.320656 4607.143066
v -238.881546 32.233406 4655.878418
v -237.297546 38.659058 4658.058105
v -233.473755 41.320656 4663.321777
v -328.418396 32.233406 4745.414551
v -326.238434 38.659058 4746.998535
v -320.975006 41.320656 4750.822754
v -385.903687 32.233406 4858.236816
v -383.341248 38.659058 4859.069336
v -377.153381 41.320656 4861.081055
v -405.712006 32.233406 4983.301270
v -403.017517 38.659058 4983.301270
v -396.511627 41.320656 4983.301270
v -385.903687 32.233406 5108.365723
v -383.341248 38.659058 5107.532715
v -377.153381 41.320656 5105.522949
v -328.418396 32.233406 5221.187988
v -326.238434 38.659058 5219.604004
v -320.975006 41.320656 5215.779297
v -238.881546 32.233406 5310.724609
v -237.297546 38.659058 5308.543945
v -233.473755 41.320656 5303.280273
v -126.060043 32.233406 5368.209961
v -125.227119 38.659058 5365.647461
v -123.217003 41.320656 5359.458984
v -0.994854 32.233406 5388.018555
v -0.994854 38.659058 5385.322266
v -0.994854 41.320656 5378.817871
v 124.069588 32.233406 5368.209961
v 123.236282 38.659058 5365.647461
v 121.226547 41.320656 5359.458984
v 236.891846 32.233406 5310.724609
v 235.307846 38.659058 5308.543945
v 231.483658 41.320656 5303.280273
v 326.427979 32.233406 5221.187988
v 324.247620 38.659058 5219.604004
v 318.984558 41.320656 5215.779297
v 383.912842 32.233406 5108.365723
v 381.349670 38.659058 5107.532715
v 375.162994 41.320656 5105.522949
v 403.721100 32.233406 4983.301270
v 401.025909 38.659058 4983.301270
v 394.520782 41.320656 4983.301270
vt 0.229332 0.522737
vt 0.229046 0.497781
vt 0.221892 0.546560
vt 0.207454 0.566918
vt 0.187432 0.581818
vt 0.163786 0.589802
vt 0.138830 0.590088
vt 0.115007 0.582648
vt 0.094649 0.568210
vt 0.079749 0.548188
vt 0.071765 0.524542
vt 0.071479 0.499586
vt 0.078919 0.475763
vt 0.093357 0.455405
vt 0.113379 0.440505
vt 0.137025 0.432521
vt 0.161981 0.432235
vt 0.185804 0.439675
vt 0.206162 0.454113
vt 0.221062 0.474135
vt 0.147842 0.510165
vt 0.209756 0.480063
vt 0.216461 0.499925
vt 0.216700 0.520887
vt 0.210449 0.540898
vt 0.198322 0.557997
vt 0.181504 0.570511
vt 0.161642 0.577217
vt 0.140680 0.577456
vt 0.120670 0.571205
vt 0.103570 0.559078
vt 0.091056 0.542260
vt 0.084351 0.522397
vt 0.084112 0.501435
vt 0.090362 0.481425
vt 0.102489 0.464326
vt 0.119307 0.451812
vt 0.139169 0.445107
vt 0.160131 0.444867
vt 0.180142 0.451117
vt 0.197241 0.463245
vt 0.225455 0.522173
vt 0.225185 0.498442
vt 0.218379 0.544826
vt 0.204650 0.564183
vt 0.185610 0.578350
vt 0.163125 0.585940
vt 0.139394 0.586211
vt 0.116742 0.579135
vt 0.097384 0.565405
vt 0.083217 0.546366
vt 0.075627 0.523881
vt 0.075356 0.500150
vt 0.082432 0.477497
vt 0.096162 0.458140
vt 0.115201 0.443973
vt 0.137687 0.436382
vt 0.161417 0.436112
vt 0.184070 0.443188
vt 0.203427 0.456918
vt 0.217594 0.475957
vt 0.222625 0.498877
vt 0.222887 0.521795
vt 0.216053 0.543673
vt 0.202794 0.562367
vt 0.184406 0.576050
vt 0.162690 0.583381
vt 0.139772 0.583642
vt 0.117895 0.576809
vt 0.099200 0.563549
vt 0.085517 0.545162
vt 0.078186 0.523446
vt 0.077925 0.500528
vt 0.084758 0.478650
vt 0.098017 0.459956
vt 0.116405 0.446273
vt 0.138121 0.438942
vt 0.161039 0.438680
vt 0.182917 0.445514
vt 0.201612 0.458773
vt 0.215294 0.477161
vt 0.223910 0.498658
vt 0.216449 0.476556
vt 0.224176 0.521984
vt 0.217221 0.544251
vt 0.203725 0.563278
vt 0.185011 0.577204
vt 0.162909 0.584666
vt 0.139583 0.584932
vt 0.117316 0.577977
vt 0.098289 0.564481
vt 0.084363 0.545767
vt 0.076901 0.523665
vt 0.076635 0.500339
vt 0.083590 0.478072
vt 0.097086 0.459044
vt 0.115800 0.445119
vt 0.137902 0.437657
vt 0.161229 0.437391
vt 0.183495 0.444346
vt 0.202522 0.457842
vt 0.223752 0.468985
vt 0.207311 0.447543
vt 0.185049 0.432231
vt 0.159145 0.424547
vt 0.132134 0.425245
vt 0.106662 0.434255
vt 0.085220 0.450696
vt 0.069907 0.472958
vt 0.062224 0.498862
vt 0.062922 0.525872
vt 0.071932 0.551345
vt 0.088373 0.572787
vt 0.110635 0.588099
vt 0.136539 0.595782
vt 0.163549 0.595085
vt 0.189022 0.586075
vt 0.210464 0.569634
vt 0.225776 0.547372
vt 0.233460 0.521468
vt 0.232762 0.494458
vn 0.000000 1.000000 -0.000000
vn 0.000000 1.000000 0.000000
vn 0.000000 1.000000 0.000000
vn 0.000000 1.000000 0.000000
vn 0.000000 1.000000 -0.000000
vn 0.000000 1.000000 0.000000
vn 0.000000 1.000000 0.000000
vn 0.000000 1.000000 0.000000
vn 0.000000 1.000000 0.000000
vn 0.000000 1.000000 -0.000000
vn 0.000000 1.000000 -0.000000
vn 0.000000 1.000000 0.000000
vn 0.000000 1.000000 0.000000
vn 0.000000 1.000000 0.000000
vn 0.000000 1.000000 0.000000
vn 0.000000 1.000000 0.000000
vn 0.000000 1.000000 0.000000
vn 0.000000 1.000000 0.000000
vn 0.000000 1.000000 -0.000000
vn 0.000000 1.000000 0.000000
vn 0.000000 1.000000 0.000000
vn 0.951058 0.000000 -0.309014
vn 0.809017 0.000000 -0.587785
vn 0.805439 0.093951 -0.585185
vn 0.946851 0.093955 -0.307646
vn 0.587785 0.000000 -0.809017
vn 0.585186 0.093947 -0.805439
vn 0.309016 0.000000 -0.951057
vn 0.307652 0.093945 -0.946850
vn 0.000000 0.000000 -1.000000
vn 0.000000 0.093946 -0.995577
vn -0.309016 0.000000 -0.951057
vn -0.307650 0.093943 -0.946851
vn -0.587785 0.000000 -0.809017
vn -0.585186 0.093942 -0.805439
vn -0.809017 0.000000 -0.587785
vn -0.805439 0.093942 -0.585186
vn -0.951057 0.000000 -0.309015
vn -0.946851 0.093939 -0.307649
vn -1.000000 0.000000 -0.000000
vn -0.995578 0.093939 0.000000
vn -0.951057 0.000000 0.309016
vn -0.946851 0.093941 0.307650
vn -0.809018 0.000000 0.587784
vn -0.805439 0.093950 0.585185
vn -0.587786 0.000000 0.809017
vn -0.585185 0.093955 0.805438
vn -0.309016 0.000000 0.951057
vn -0.307650 0.093963 0.946849
vn 0.000000 0.000000 1.000000
vn 0.000000 0.093970 0.995575
vn 0.309016 0.000000 0.951057
vn 0.307651 0.093965 0.946848
vn 0.587786 0.000000 0.809017
vn 0.585185 0.093959 0.805438
vn 0.809020 0.000000 0.587781
vn 0.805441 0.093961 0.585181
vn 0.951058 0.000000 0.309014
vn 0.946850 0.093962 0.307647
vn 1.000000 0.000000 0.000005
vn 0.995576 0.093959 0.000005
vn 0.076658 0.996746 -0.024906
vn 0.065208 0.996746 -0.047376
vn 0.000000 1.000000 0.000000
vn 0.000000 1.000000 0.000000
vn 0.047377 0.996746 -0.065208
vn 0.000000 1.000000 0.000000
vn 0.024908 0.996746 -0.076658
vn 0.000000 1.000000 -0.000000
vn 0.000000 0.996746 -0.080603
vn 0.000000 1.000000 -0.000000
vn -0.024908 0.996746 -0.076659
vn 0.000000 1.000000 -0.000000
vn -0.047378 0.996746 -0.065209
vn 0.000000 1.000000 0.000000
vn -0.065209 0.996746 -0.047377
vn 0.000000 1.000000 0.000000
vn -0.076657 0.996746 -0.024906
vn 0.000000 1.000000 0.000000
vn -0.080602 0.996746 -0.000000
vn 0.000000 1.000000 -0.000000
vn -0.076657 0.996746 0.024908
vn 0.000000 1.000000 0.000000
vn -0.065209 0.996746 0.047377
vn 0.000000 1.000000 -0.000000
vn -0.047378 0.996746 0.065209
vn 0.000000 1.000000 0.000000
vn -0.024908 0.996746 0.076658
vn 0.000000 1.000000 0.000000
vn 0.000000 0.996746 0.080604
vn 0.000000 1.000000 0.000000
vn 0.024909 0.996746 0.076657
vn 0.000000 1.000000 -0.000000
vn 0.047377 0.996746 0.065208
vn 0.000000 1.000000 -0.000000
vn 0.065209 0.996746 0.047376
vn 0.000000 1.000000 -0.000000
vn 0.076659 0.996746 0.024908
vn 0.000000 1.000000 -0.000000
vn 0.080604 0.996746 0.000000
vn 0.000000 1.000000 0.000000
vn 0.877047 0.386758 -0.284968
vn 0.922174 0.386775 0.000005
vn 0.360112 0.925542 -0.117014
vn 0.378672 0.925531 0.000002
vn 0.306323 0.925545 -0.222559
vn 0.746064 0.386746 -0.542048
vn 0.222560 0.925543 -0.306328
vn 0.542047 0.386730 -0.746073
vn 0.117002 0.925544 -0.360109
vn 0.284965 0.386724 -0.877063
vn -0.000000 0.925546 -0.378634
vn 0.000000 0.386728 -0.922194
vn -0.117004 0.925545 -0.360108
vn -0.284971 0.386716 -0.877065
vn -0.222558 0.925543 -0.306329
vn -0.542052 0.386712 -0.746079
vn -0.306317 0.925549 -0.222553
vn -0.746077 0.386712 -0.542055
vn -0.360092 0.925550 -0.117008
vn -0.877069 0.386703 -0.284976
vn -0.378634 0.925546 -0.000000
vn -0.922205 0.386701 0.000000
vn -0.360105 0.925546 0.117000
vn -0.877068 0.386710 0.284970
vn -0.306317 0.925547 0.222557
vn -0.746067 0.386740 0.542048
vn -0.222549 0.925549 0.306317
vn -0.542048 0.386761 0.746056
vn -0.117003 0.925544 0.360109
vn -0.284960 0.386788 0.877036
vn -0.000000 0.925536 0.378659
vn 0.000000 0.386817 0.922157
vn 0.117001 0.925544 0.360110
vn 0.284955 0.386795 0.877035
vn 0.222551 0.925550 0.306315
vn 0.542044 0.386777 0.746051
vn 0.306333 0.925540 0.222568
vn 0.746053 0.386784 0.542036
vn 0.360145 0.925528 0.117015
vn 0.877038 0.386785 0.284960
s 1
g STATUE_FLOOR_grp BossExt_grp polySurface242
usemtl aiStandardSurface18SG
f 142/221/121 143/220/122 121/121/123
f 143/220/122 144/219/124 121/121/123
f 144/219/124 145/218/125 121/121/123
f 145/218/125 146/217/126 121/121/123
f 146/217/126 147/216/127 121/121/123
f 147/216/127 148/215/128 121/121/123
f 148/215/128 149/214/129 121/121/123
f 149/214/129 150/213/130 121/121/123
f 150/213/130 151/212/131 121/121/123
f 151/212/131 152/211/132 121/121/123
f 152/211/132 153/210/133 121/121/123
f 153/210/133 154/209/134 121/121/123
f 154/209/134 155/208/135 121/121/123
f 155/208/135 156/207/136 121/121/123
f 156/207/136 157/206/137 121/121/123
f 157/206/137 158/205/138 121/121/123
f 158/205/138 159/204/139 121/121/123
f 159/204/139 160/203/140 121/121/123
f 160/203/140 161/202/141 121/121/123
f 161/202/141 142/221/121 121/121/123
s 2
f 101/102/142 102/101/143 165/142/144 162/143/145
f 102/101/143 103/103/146 168/144/147 165/142/144
f 103/103/146 104/104/148 171/145/149 168/144/147
f 104/104/148 105/105/150 174/146/151 171/145/149
f 105/105/150 106/106/152 177/147/153 174/146/151
f 106/106/152 107/107/154 180/148/155 177/147/153
f 107/107/154 108/108/156 183/149/157 180/148/155
f 108/108/156 109/109/158 186/150/159 183/149/157
f 109/109/158 110/110/160 189/151/161 186/150/159
f 110/110/160 111/111/162 192/152/163 189/151/161
f 111/111/162 112/112/164 195/153/165 192/152/163
f 112/112/164 113/113/166 198/154/167 195/153/165
f 113/113/166 114/114/168 201/155/169 198/154/167
f 114/114/168 115/115/170 204/156/171 201/155/169
f 115/115/170 116/116/172 207/157/173 204/156/171
f 116/116/172 117/117/174 210/158/175 207/157/173
f 117/117/174 118/118/176 213/159/177 210/158/175
f 118/118/176 119/119/178 216/160/179 213/159/177
f 119/119/178 120/120/180 219/161/181 216/160/179
f 120/120/180 101/102/142 162/143/145 219/161/181
s 3
f 164/162/182 167/163/183 123/124/184 122/123/185
f 167/163/183 170/164/186 124/125/187 123/124/184
f 170/164/186 173/165/188 125/126/189 124/125/187
f 173/165/188 176/166/190 126/127/191 125/126/189
f 176/166/190 179/167/192 127/128/193 126/127/191
f 179/167/192 182/168/194 128/129/195 127/128/193
f 182/168/194 185/169/196 129/130/197 128/129/195
f 185/169/196 188/170/198 130/131/199 129/130/197
f 188/170/198 191/171/200 131/132/201 130/131/199
f 191/171/200 194/172/202 132/133/203 131/132/201
f 194/172/202 197/173/204 133/134/205 132/133/203
f 197/173/204 200/174/206 134/135/207 133/134/205
f 200/174/206 203/175/208 135/136/209 134/135/207
f 203/175/208 206/176/210 136/137/211 135/136/209
f 206/176/210 209/177/212 137/138/213 136/137/211
f 209/177/212 212/178/214 138/139/215 137/138/213
f 212/178/214 215/179/216 139/140/217 138/139/215
f 215/179/216 218/180/218 140/141/219 139/140/217
f 218/180/218 221/181/220 141/122/221 140/141/219
f 221/181/220 164/162/182 122/123/185 141/122/221
s 2
f 162/143/145 163/182/222 220/183/223 219/161/181
s 3
f 163/182/224 164/162/182 221/181/220 220/183/225
f 164/162/182 163/182/224 166/184/226 167/163/183
s 2
f 163/182/222 162/143/145 165/142/144 166/184/227
s 3
f 167/163/183 166/184/226 169/185/228 170/164/186
s 2
f 166/184/227 165/142/144 168/144/147 169/185/229
s 3
f 170/164/186 169/185/228 172/186/230 173/165/188
s 2
f 169/185/229 168/144/147 171/145/149 172/186/231
s 3
f 173/165/188 172/186/230 175/187/232 176/166/190
s 2
f 172/186/231 171/145/149 174/146/151 175/187/233
s 3
f 176/166/190 175/187/232 178/188/234 179/167/192
s 2
f 175/187/233 174/146/151 177/147/153 178/188/235
s 3
f 179/167/192 178/188/234 181/189/236 182/168/194
s 2
f 178/188/235 177/147/153 180/148/155 181/189/237
s 3
f 182/168/194 181/189/236 184/190/238 185/169/196
s 2
f 181/189/237 180/148/155 183/149/157 184/190/239
s 3
f 185/169/196 184/190/238 187/191/240 188/170/198
s 2
f 184/190/239 183/149/157 186/150/159 187/191/241
s 3
f 188/170/198 187/191/240 190/192/242 191/171/200
s 2
f 187/191/241 186/150/159 189/151/161 190/192/243
s 3
f 191/171/200 190/192/242 193/193/244 194/172/202
s 2
f 190/192/243 189/151/161 192/152/163 193/193/245
s 3
f 194/172/202 193/193/244 196/194/246 197/173/204
s 2
f 193/193/245 192/152/163 195/153/165 196/194/247
s 3
f 197/173/204 196/194/246 199/195/248 200/174/206
s 2
f 196/194/247 195/153/165 198/154/167 199/195/249
s 3
f 200/174/206 199/195/248 202/196/250 203/175/208
s 2
f 199/195/249 198/154/167 201/155/169 202/196/251
s 3
f 203/175/208 202/196/250 205/197/252 206/176/210
s 2
f 202/196/251 201/155/169 204/156/171 205/197/253
s 3
f 206/176/210 205/197/252 208/198/254 209/177/212
s 2
f 205/197/253 204/156/171 207/157/173 208/198/255
s 3
f 209/177/212 208/198/254 211/199/256 212/178/214
s 2
f 208/198/255 207/157/173 210/158/175 211/199/257
s 3
f 212/178/214 211/199/256 214/200/258 215/179/216
s 2
f 211/199/257 210/158/175 213/159/177 214/200/259
s 3
f 215/179/216 214/200/258 217/201/260 218/180/218
s 2
f 214/200/259 213/159/177 216/160/179 217/201/261
s 3
f 218/180/218 217/201/260 220/183/225 221/181/220
s 2
f 217/201/261 216/160/179 219/161/181 220/183/223
