# This file uses centimeters as units for non-parametric coordinates.

mtllib BossBrick1.mtl
g default
v 211.565044 -9.502115 8197.205834
v 259.095183 -9.143236 8200.304760
v 211.570854 15.919099 8196.366677
v 258.381140 14.574265 8200.538653
v 219.681950 16.704670 8066.787893
v 265.409446 15.611119 8068.552405
v 219.390201 -9.595677 8066.722421
v 267.033573 -9.584925 8069.450554
v 262.197815 15.062705 8141.330158
v 215.189725 16.157838 8137.986036
v 215.570328 -10.056338 8137.893406
v 262.752092 -9.858512 8141.243525
v 260.733130 15.345656 8180.659714
v 212.425670 16.383571 8174.501516
v 212.546296 -10.116400 8174.625486
v 260.549547 -10.529494 8178.053243
v 243.668462 -9.489860 8200.303477
v 243.751345 16.636068 8199.813643
v 245.096670 17.087014 8176.959244
v 247.278376 17.213547 8140.208182
v 252.059649 17.477548 8069.716335
v 253.099670 -10.758871 8068.312723
v 247.448206 -11.747563 8141.304145
v 245.595046 -11.600176 8176.986971
v 217.545742 16.456105 8099.606899
v 248.287395 17.944305 8101.023175
v 264.542348 15.588034 8105.232341
v 264.811493 -9.346821 8101.783251
v 250.157359 -11.175343 8102.103234
v 218.788384 -10.684528 8099.611624
v 227.125733 -9.626113 8199.392223
v 227.272096 16.545272 8198.445803
v 228.768339 16.858434 8175.762476
v 231.235268 16.304485 8139.177930
v 234.059500 17.634576 8099.893810
v 236.522315 16.531149 8066.910008
v 235.968344 -10.522282 8067.194655
v 233.004815 -11.557551 8101.048507
v 230.665281 -12.216000 8140.291788
v 228.421281 -11.977151 8175.746128
v 255.878004 16.676136 8199.498533
v 257.146660 -9.403089 8200.709575
v 258.716991 -11.493661 8177.921366
v 261.225887 -11.055143 8141.294364
v 263.323926 -10.647951 8101.800865
v 263.617671 -10.038818 8068.938677
v 263.328439 16.832845 8069.472332
v 261.914438 17.677643 8103.444834
v 259.794544 17.529506 8141.084375
v 257.615934 17.266870 8177.855086
v 215.025478 -9.771062 8198.158097
v 215.746088 16.760404 8197.500032
v 216.926430 17.211448 8174.936445
v 219.584228 17.282247 8138.218333
v 222.050322 17.314242 8099.647163
v 223.458279 16.956282 8066.533242
v 223.253579 -10.239773 8065.921416
v 221.925079 -11.300289 8099.918668
v 218.802614 -11.301421 8138.432759
v 216.034747 -11.640477 8174.887124
v 259.332754 -7.495905 8200.518770
v 257.065952 -7.704718 8201.166735
v 243.659354 -7.747309 8200.545575
v 227.121872 -7.880862 8199.518825
v 215.048175 -8.064288 8198.752245
v 211.433051 -7.753389 8197.361403
v 212.247373 -8.319883 8174.602498
v 214.800665 -8.399297 8137.830171
v 217.648306 -9.633971 8099.451694
v 219.145249 -7.874644 8066.519737
v 223.300673 -8.444694 8065.458187
v 236.068552 -8.873199 8066.339797
v 253.095967 -9.147006 8067.254676
v 264.414432 -7.323762 8067.591753
v 267.460124 -7.417151 8069.693036
v 265.596327 -7.804477 8101.955261
v 263.256006 -8.264260 8141.256534
v 261.653898 -8.857247 8178.109350
v 219.420177 17.097902 8069.244280
v 223.399127 17.897298 8069.033555
v 236.341254 17.351257 8069.412563
v 251.856959 17.454379 8072.262494
v 263.924539 17.450752 8072.560213
v 266.492611 16.285075 8071.195061
v 267.881582 -7.479400 8072.130757
v 266.995592 -9.765014 8071.927377
v 263.697912 -11.205683 8071.532203
v 252.892935 -11.352397 8070.857751
v 235.745454 -11.672452 8069.647951
v 223.119362 -11.204930 8068.472214
v 219.065501 -9.926893 8069.176618
v 218.185173 -8.016711 8068.984006
v 259.135049 15.038204 8198.467136
v 256.107761 17.240614 8197.072109
v 243.894282 17.339823 8197.211115
v 227.396743 17.515734 8195.987141
v 215.888045 17.229244 8194.941818
v 211.674941 16.066811 8192.963350
v 210.969149 -7.846730 8194.738416
v 211.596405 -9.662471 8194.623027
v 215.112115 -11.448028 8195.504703
v 227.237016 -11.488682 8196.699119
v 243.914509 -11.514614 8197.925849
v 257.684700 -10.969653 8198.167638
v 259.624008 -10.424250 8197.808449
v 260.599436 -7.665522 8198.090612
vt 0.412069 0.002482
vt 0.564101 0.002496
vt 0.412061 0.090393
vt 0.564093 0.090408
vt 0.412020 0.500013
vt 0.564053 0.500028
vt 0.412012 0.587924
vt 0.564044 0.587939
vt 0.411972 0.997544
vt 0.564004 0.997559
vt 0.973721 0.002537
vt 0.973712 0.090448
vt 0.002450 0.002441
vt 0.002441 0.090353
vt 0.564075 0.275639
vt 0.749324 0.090426
vt 0.412042 0.275624
vt 0.226830 0.090375
vt 0.411990 0.812313
vt 0.226838 0.002463
vt 0.564022 0.812328
vt 0.749332 0.002515
vt 0.564086 0.163229
vt 0.636913 0.090415
vt 0.412053 0.163214
vt 0.339240 0.090386
vt 0.411979 0.924723
vt 0.339249 0.002474
vt 0.564011 0.924738
vt 0.636922 0.002504
vt 0.516684 0.002492
vt 0.516587 0.997554
vt 0.516676 0.090404
vt 0.516669 0.163224
vt 0.516658 0.275635
vt 0.516636 0.500023
vt 0.516627 0.587935
vt 0.516605 0.812323
vt 0.516594 0.924733
vt 0.412031 0.396306
vt 0.106148 0.090363
vt 0.516646 0.396316
vt 0.564063 0.396320
vt 0.870005 0.090438
vt 0.564034 0.691646
vt 0.870014 0.002526
vt 0.516617 0.691642
vt 0.412002 0.691632
vt 0.106157 0.002452
vt 0.462574 0.002486
vt 0.462476 0.997549
vt 0.462565 0.090398
vt 0.462558 0.163219
vt 0.462547 0.275629
vt 0.462535 0.396311
vt 0.462525 0.500018
vt 0.462517 0.587929
vt 0.462506 0.691636
vt 0.462495 0.812318
vt 0.462484 0.924728
vt 0.558099 0.090408
vt 0.558108 0.002496
vt 0.558010 0.997558
vt 0.558017 0.924737
vt 0.558028 0.812327
vt 0.558040 0.691646
vt 0.558050 0.587939
vt 0.558059 0.500027
vt 0.558069 0.396320
vt 0.558081 0.275639
vt 0.558092 0.163228
vt 0.423314 0.002483
vt 0.423217 0.997545
vt 0.423306 0.090395
vt 0.423299 0.163215
vt 0.423288 0.275626
vt 0.423276 0.396307
vt 0.423266 0.500014
vt 0.423257 0.587926
vt 0.423247 0.691633
vt 0.423235 0.812314
vt 0.423224 0.924724
vt 0.564101 0.008344
vt 0.558107 0.008343
vt 0.516684 0.008339
vt 0.462573 0.008334
vt 0.423314 0.008330
vt 0.412069 0.008329
vt 0.339248 0.008322
vt 0.226838 0.008311
vt 0.106156 0.008299
vt 0.412012 0.582077
vt 0.002449 0.008289
vt 0.423258 0.582078
vt 0.462517 0.582082
vt 0.516628 0.582087
vt 0.558051 0.582091
vt 0.564045 0.582092
vt 0.973720 0.008384
vt 0.870013 0.008374
vt 0.749332 0.008362
vt 0.636922 0.008351
vt 0.412021 0.492105
vt 0.010349 0.090354
vt 0.423266 0.492106
vt 0.462526 0.492110
vt 0.516636 0.492115
vt 0.558060 0.492119
vt 0.564053 0.492120
vt 0.965804 0.090448
vt 0.965812 0.008383
vt 0.564043 0.595847
vt 0.965813 0.002536
vt 0.558049 0.595847
vt 0.516626 0.595843
vt 0.462516 0.595837
vt 0.423256 0.595833
vt 0.412011 0.595832
vt 0.010358 0.002442
vt 0.010357 0.008290
vt 0.564092 0.098736
vt 0.572420 0.090409
vt 0.558098 0.098735
vt 0.516675 0.098731
vt 0.462565 0.098726
vt 0.423305 0.098722
vt 0.412060 0.098721
vt 0.403733 0.090393
vt 0.403741 0.008328
vt 0.411973 0.989216
vt 0.403742 0.002481
vt 0.423218 0.989217
vt 0.462477 0.989221
vt 0.516588 0.989226
vt 0.558011 0.989230
vt 0.564005 0.989231
vt 0.572429 0.002497
vt 0.572429 0.008345
vn -0.712220 -0.248839 0.656370
vn -0.134792 -0.206115 0.969199
vn -0.131727 0.030514 0.990816
vn -0.720247 0.029615 0.693085
vn -0.708875 0.122291 0.694652
vn -0.130779 0.162600 0.977987
vn -0.055528 0.998361 0.013869
vn -0.226586 0.973962 0.007470
vn -0.166976 0.017972 -0.985797
vn 0.005329 0.007562 -0.999957
vn -0.041625 -0.758007 -0.650916
vn -0.303813 -0.683706 -0.663509
vn -0.418951 -0.907491 0.030662
vn -0.107861 -0.991659 0.070564
vn -0.114194 -0.855901 0.504374
vn -0.341845 -0.889131 0.304283
vn 0.903000 -0.423616 0.071700
vn 0.995016 0.013121 0.098847
vn 0.547591 0.024145 0.836398
vn 0.741934 -0.280623 0.608920
vn -0.999235 -0.000142 -0.039103
vn -0.969066 -0.244208 -0.035675
vn -0.188681 0.981982 -0.010512
vn -0.040390 0.999002 -0.019066
vn 0.001558 0.130252 -0.991480
vn -0.170547 0.115404 -0.978568
vn -0.911579 -0.311675 -0.268109
vn -0.830685 -0.554916 -0.045067
vn -0.998686 -0.004238 -0.051066
vn -0.969395 0.017254 -0.244900
vn -0.083253 -0.995816 -0.037685
vn -0.258158 -0.965149 -0.042909
vn 0.998890 0.016741 0.044032
vn 0.916551 -0.395758 0.057531
vn 0.957827 -0.273466 -0.088223
vn 0.960660 0.032168 -0.275857
vn -0.216016 0.976305 -0.012836
vn -0.033185 0.999409 -0.008917
vn -0.029269 0.999568 0.002693
vn -0.215163 0.976484 -0.013533
vn -0.894003 -0.443753 -0.061985
vn -0.958019 -0.279496 -0.063882
vn -0.997787 -0.008276 -0.065969
vn -0.997406 -0.017420 -0.069836
vn -0.330036 -0.943626 -0.025404
vn -0.115671 -0.993209 -0.012504
vn -0.125567 -0.992078 -0.003876
vn -0.395910 -0.917982 -0.023762
vn 0.898682 -0.436044 0.047289
vn 0.909446 -0.413634 0.042609
vn 0.998679 0.008936 0.050603
vn 0.998791 -0.003237 0.049056
vn -0.018263 0.028764 0.999419
vn -0.000945 -0.201075 0.979575
vn 0.529691 0.844056 0.083651
vn 0.118101 0.992481 0.032161
vn 0.002924 0.163943 0.986465
vn 0.491190 0.084834 0.866912
vn 0.132340 0.991093 0.014823
vn 0.136276 0.990626 0.009419
vn 0.579855 0.813804 0.038607
vn 0.634761 0.771804 0.037363
vn 0.030510 0.218384 -0.975386
vn 0.128665 0.991646 -0.009130
vn 0.514568 0.857366 0.011975
vn 0.250308 0.105398 -0.962412
vn 0.374842 -0.662924 -0.648094
vn 0.141841 -0.762331 -0.631453
vn 0.047560 0.042625 -0.997959
vn 0.251888 -0.011033 -0.967694
vn 0.477175 -0.878783 0.006654
vn 0.100408 -0.994935 -0.004751
vn 0.084849 -0.996367 0.007379
vn 0.112603 -0.993637 -0.002283
vn 0.593535 -0.804467 0.023440
vn 0.482150 -0.875703 0.025999
vn 0.036196 -0.811165 0.583696
vn 0.067057 -0.993513 0.091849
vn 0.364234 -0.925628 0.102698
vn 0.269817 -0.812691 0.516461
vn -0.040714 0.999128 0.009212
vn -0.206363 0.978475 -0.001380
vn 0.612483 0.789271 0.043777
vn 0.123009 0.992351 0.010396
vn 0.917636 -0.393213 0.057682
vn 0.997849 0.012157 0.064416
vn 0.126496 -0.991957 0.004367
vn 0.566004 -0.823849 0.030208
vn -0.267224 -0.963480 -0.017262
vn -0.089897 -0.995908 -0.009298
vn -0.818404 -0.573046 -0.042814
vn -0.997881 -0.034713 -0.055040
vn -0.066290 -0.147552 0.986830
vn -0.048109 -0.147387 0.987908
vn -0.046614 0.029351 0.998482
vn -0.072055 0.029298 0.996970
vn -0.002366 0.999794 0.020151
vn -0.001197 0.999869 0.016129
vn -0.072022 0.136359 0.988038
vn -0.045372 0.137677 0.989437
vn -0.004000 0.999958 0.008298
vn 0.002951 0.999937 -0.010811
vn -0.018568 0.999801 -0.007237
vn -0.025528 0.999645 0.007648
vn -0.007856 0.999918 0.010097
vn -0.015567 0.999866 0.005076
vn 0.084863 0.129703 -0.987915
vn -0.000557 0.999678 -0.025356
vn 0.000796 0.999754 -0.022154
vn 0.066729 0.174978 -0.982309
vn 0.053695 -0.806142 -0.589281
vn 0.035361 -0.787842 -0.614861
vn 0.084170 0.013323 -0.996362
vn 0.071607 0.017977 -0.997271
vn 0.024510 -0.999565 -0.016417
vn 0.001479 -0.999693 -0.024727
vn -0.005620 -0.999967 -0.005929
vn -0.003497 -0.999976 -0.005923
vn 0.029605 -0.999557 -0.002995
vn 0.030676 -0.999517 -0.004884
vn -0.004972 -0.999965 0.006690
vn 0.022768 -0.999714 0.007266
vn -0.042625 -0.810913 0.583612
vn -0.006759 -0.995855 0.090699
vn 0.011283 -0.995685 0.092110
vn -0.018508 -0.800197 0.599451
vn -0.999050 0.016692 -0.040263
vn -0.997748 0.013089 -0.065788
vn -0.997511 0.008707 -0.069969
vn -0.998435 0.013687 -0.054219
vn -0.998556 0.023129 -0.048479
vn -0.969413 0.037142 -0.242610
vn 0.997616 0.048929 0.048658
vn 0.955352 0.057365 -0.289848
vn 0.996928 0.044297 0.064592
vn 0.997877 0.039974 0.051409
vn 0.997895 0.041651 0.049698
vn 0.994767 0.046492 0.090983
s 1
g brick_low3 group122 Brick_geo BossExt_grp
usemtl brick:aiStandardSurface2SG
f 1/1/1 51/72/2 65/87/3 66/88/4
f 3/3/5 52/74/6 97/126/7 98/127/8
f 70/92/9 71/94/10 57/79/11 7/7/12
f 100/130/13 101/132/14 51/73/15 1/9/16
f 105/137/17 106/138/18 61/83/19 2/2/20
f 99/129/21 100/131/22 1/1/1 66/88/4
f 79/103/23 80/105/24 56/78/25 5/5/26
f 7/13/27 91/119/28 92/120/29 70/93/30
f 7/7/12 57/79/11 90/117/31 91/118/32
f 85/111/33 86/113/34 8/11/35 75/99/36
f 14/25/37 53/75/38 54/76/39 10/17/40
f 11/20/41 15/28/42 67/89/43 68/90/44
f 11/19/45 59/81/46 60/82/47 15/27/48
f 16/30/49 12/22/50 77/101/51 78/102/52
f 61/83/19 62/84/53 42/62/54 2/2/20
f 93/121/55 94/123/56 41/61/57 4/4/58
f 49/70/59 50/71/60 13/23/61 9/15/62
f 47/68/63 83/108/64 84/109/65 6/6/66
f 8/8/67 46/67/68 74/97/69 75/98/70
f 86/112/71 87/114/72 46/67/68 8/8/67
f 43/64/73 44/65/74 12/21/75 16/29/76
f 42/63/77 104/135/78 105/136/79 2/10/80
f 10/17/40 54/76/39 55/77/81 25/40/82
f 27/43/83 48/69/84 49/70/59 9/15/62
f 12/22/50 28/46/85 76/100/86 77/101/51
f 44/65/74 45/66/87 28/45/88 12/21/75
f 30/48/89 58/80/90 59/81/46 11/19/45
f 30/49/91 11/20/41 68/90/44 69/91/92
f 31/50/93 17/31/94 63/85/95 64/86/96
f 95/124/97 96/125/98 32/52/99 18/33/100
f 34/54/101 33/53/102 19/34/103 20/35/104
f 35/55/105 34/54/101 20/35/104 26/42/106
f 36/56/107 81/106/108 82/107/109 21/36/110
f 22/37/111 37/57/112 72/95/113 73/96/114
f 88/115/115 89/116/116 37/57/112 22/37/111
f 39/59/117 38/58/118 29/47/119 23/38/120
f 40/60/121 39/59/117 23/38/120 24/39/122
f 31/51/123 102/133/124 103/134/125 17/32/126
f 17/31/94 42/62/54 62/84/53 63/85/95
f 17/32/126 103/134/125 104/135/78 42/63/77
f 24/39/122 23/38/120 44/65/74 43/64/73
f 23/38/120 29/47/119 45/66/87 44/65/74
f 46/67/68 87/114/72 88/115/115 22/37/111
f 73/96/114 74/97/69 46/67/68 22/37/111
f 21/36/110 82/107/109 83/108/64 47/68/63
f 49/70/59 48/69/84 26/42/106 20/35/104
f 20/35/104 19/34/103 50/71/60 49/70/59
f 94/123/56 95/124/97 18/33/100 41/61/57
f 64/86/96 65/87/3 51/72/2 31/50/93
f 96/125/98 97/126/7 52/74/6 32/52/99
f 54/76/39 53/75/38 33/53/102 34/54/101
f 55/77/81 54/76/39 34/54/101 35/55/105
f 56/78/25 80/105/24 81/106/108 36/56/107
f 37/57/112 57/79/11 71/94/10 72/95/113
f 89/116/116 90/117/31 57/79/11 37/57/112
f 59/81/46 58/80/90 38/58/118 39/59/117
f 60/82/47 59/81/46 39/59/117 40/60/121
f 51/73/15 101/132/14 102/133/124 31/51/123
f 41/61/57 62/84/53 61/83/19 4/4/58
f 63/85/95 62/84/53 41/61/57 18/33/100
f 64/86/96 63/85/95 18/33/100 32/52/99
f 52/74/6 65/87/3 64/86/96 32/52/99
f 66/88/4 65/87/3 52/74/6 3/3/5
f 98/128/127 99/129/21 66/88/4 3/3/5
f 68/90/44 67/89/43 14/26/128 10/18/129
f 69/91/92 68/90/44 10/18/129 25/41/130
f 70/93/30 92/120/29 79/104/131 5/14/132
f 56/78/25 71/94/10 70/92/9 5/5/26
f 72/95/113 71/94/10 56/78/25 36/56/107
f 73/96/114 72/95/113 36/56/107 21/36/110
f 47/68/63 74/97/69 73/96/114 21/36/110
f 75/98/70 74/97/69 47/68/63 6/6/66
f 84/110/133 85/111/33 75/99/36 6/12/134
f 77/101/51 76/100/86 27/44/135 9/16/136
f 78/102/52 77/101/51 9/16/136 13/24/137
f 4/4/58 61/83/19 106/138/18 93/122/138
f 25/40/82 55/77/81 80/105/24 79/103/23
f 81/106/108 80/105/24 55/77/81 35/55/105
f 82/107/109 81/106/108 35/55/105 26/42/106
f 83/108/64 82/107/109 26/42/106 48/69/84
f 84/109/65 83/108/64 48/69/84 27/43/83
f 76/100/86 85/111/33 84/110/133 27/44/135
f 28/46/85 86/113/34 85/111/33 76/100/86
f 28/45/88 45/66/87 87/114/72 86/112/71
f 88/115/115 87/114/72 45/66/87 29/47/119
f 38/58/118 89/116/116 88/115/115 29/47/119
f 58/80/90 90/117/31 89/116/116 38/58/118
f 91/118/32 90/117/31 58/80/90 30/48/89
f 92/120/29 91/119/28 30/49/91 69/91/92
f 79/104/131 92/120/29 69/91/92 25/41/130
f 50/71/60 94/123/56 93/121/55 13/23/61
f 19/34/103 95/124/97 94/123/56 50/71/60
f 33/53/102 96/125/98 95/124/97 19/34/103
f 53/75/38 97/126/7 96/125/98 33/53/102
f 98/127/8 97/126/7 53/75/38 14/25/37
f 67/89/43 99/129/21 98/128/127 14/26/128
f 15/28/42 100/131/22 99/129/21 67/89/43
f 15/27/48 60/82/47 101/132/14 100/130/13
f 102/133/124 101/132/14 60/82/47 40/60/121
f 103/134/125 102/133/124 40/60/121 24/39/122
f 104/135/78 103/134/125 24/39/122 43/64/73
f 105/136/79 104/135/78 43/64/73 16/29/76
f 78/102/52 106/138/18 105/137/17 16/30/49
f 93/122/138 106/138/18 78/102/52 13/24/137
