# This file uses centimeters as units for non-parametric coordinates.

mtllib BOSSEXTBORDER.mtl
g default
v 1088.312744 -120.220197 4733.522949
v 982.055054 -120.220197 4460.954102
v 808.871826 -120.220197 4225.174316
v 580.565735 -120.220197 4042.251465
v -769.931152 -120.220197 4191.919922
v -960.082397 -120.220197 4420.227539
v -1088.248901 -120.220197 4688.098633
v -1137.497070 -120.220197 4977.277832
v -1100.421143 -120.220197 5268.061523
v -983.596680 -120.220197 5540.631836
v -803.153748 -120.220197 5776.411133
v 604.733032 -121.166791 5940.907715
v 775.618530 -120.220197 5809.665039
v 958.541443 -120.220197 5581.358398
v 1076.141724 -120.220197 5313.487305
v 1120.404297 -120.220197 5024.305664
v -3268.326660 -127.054044 8260.412109
v -3120.720703 -127.054044 8408.018555
v -3177.207031 -127.054044 8396.782227
v -3225.093750 -127.054044 8364.786133
v -3257.090820 -127.054044 8316.899414
v -377.004517 -127.054044 8364.786133
v -3268.326660 -127.054044 -3489.979492
v -3257.090820 -127.054044 -3546.465820
v -3225.093750 -127.054044 -3594.352539
v -3177.207031 -127.054044 -3626.349609
v -3120.720703 -127.054044 -3637.585449
v -345.609802 -127.054044 1930.595337
v 355.641693 -127.054044 8364.786133
v 3240.916504 -127.054044 8260.412109
v 3229.680664 -127.054044 8316.899414
v 3197.683594 -127.054044 8364.786133
v 3149.796387 -127.054044 8396.782227
v 3093.310303 -127.054044 8408.018555
v 3240.916504 -127.054044 -3489.979492
v 3093.310303 -127.054044 -3637.585449
v 3149.796387 -127.054044 -3626.349609
v 3197.683594 -127.054044 -3594.352539
v 3229.680664 -127.054044 -3546.465820
v 318.241119 -127.054044 1955.250977
v 328.171173 -127.054044 6151.055664
v 338.968811 -126.705434 6103.958496
v 369.203156 -125.729291 6066.276367
v 412.829681 -124.320775 6045.542969
v -440.368713 -123.234998 6042.347656
v -393.154175 -125.865812 6079.425293
v -364.786499 -126.742803 6117.785645
v -354.920074 -127.054044 6169.007812
v -344.915161 -127.054044 3876.605957
v -355.331726 -126.755720 3923.689209
v -385.062012 -125.920102 3961.405518
v -428.184814 -124.713712 3982.246582
v 402.429443 -125.230466 3988.047852
v 358.981506 -126.171583 3966.885010
v 328.951569 -126.822049 3929.063232
v 318.241119 -127.054044 3882.008301
v 921.051270 -123.596860 4494.488281
v 1020.708496 -123.596868 4750.125488
v 378.391968 -125.795545 4053.294434
v 549.256104 -122.847699 4105.649902
v 568.253235 -124.246679 5882.041504
v 389.556030 -126.553716 5980.059082
v 758.625916 -123.596876 4273.354492
v -722.220215 -123.572904 4242.479004
v -901.539917 -123.550603 4457.787109
v -1021.827881 -123.575223 4709.188477
v -1067.735107 -123.598508 4978.738281
v -1033.177979 -123.577192 5249.750977
v -923.553406 -123.553678 5505.520996
v -751.451721 -123.538114 5730.402344
v -406.209778 -126.873762 5993.507812
v 727.438354 -123.596860 5759.418945
v 898.998413 -123.596876 5545.294434
v 1009.293457 -123.596891 5294.062988
v 1050.806519 -123.596891 5022.845215
v -404.245911 -125.511197 4047.540527
v -3322.112793 -130.235662 8343.833008
v -3337.357666 -130.144307 8267.211914
v -3337.357422 -130.144819 -3496.779785
v -3127.519775 -130.144040 8477.049805
v -3204.140137 -130.235746 -3691.371582
v -3127.519531 -130.144468 -3706.616455
v -3274.858887 -130.235502 8414.551758
v -3204.139648 -130.235395 8461.803711
v -327.239136 -130.235418 8414.551758
v -3322.111816 -130.236211 -3573.399902
v -3274.859131 -130.235685 -3644.117676
v -276.576935 -124.008771 1930.569458
v -275.875580 -124.097364 3884.031494
v -285.887024 -130.147596 6161.890625
v 3100.109375 -130.144071 8477.049805
v 3176.729004 -130.235395 8461.803711
v 3309.947266 -130.144132 -3496.778320
v 3309.947266 -130.144819 8267.212891
v 3294.702637 -130.235685 -3573.398926
v 3100.109375 -130.144468 -3706.616455
v 305.876282 -130.235547 8414.551758
v 3247.448975 -130.235532 8414.552734
v 3294.701660 -130.236303 8343.833984
v 3176.729492 -130.235715 -3691.371582
v 3247.448975 -130.235715 -3644.118408
v 249.206299 -124.052808 3889.687012
v 249.208984 -123.991903 1955.250977
v 259.141205 -130.163175 6143.303711
v 324.868103 -128.237424 6011.056152
v 275.138062 -129.765134 6073.339355
v -300.262665 -129.770505 6089.052734
v -346.345764 -128.360151 6026.463867
v -340.067932 -124.785177 4016.154053
v -291.181244 -124.312436 3953.639648
v 265.002838 -124.264966 3959.407715
v 314.176575 -124.817838 4021.726562
v -576.794128 -125.226804 5884.307129
v -616.165955 -122.458257 5939.457520
v 977.133423 -4.438365 4463.659668
v 974.312927 5.526363 4465.209961
v 967.465698 12.556338 4468.974121
v 958.426331 14.767871 4473.942871
v 1082.858643 -4.438369 4734.862305
v 1079.733032 5.526365 4735.629883
v 1072.144897 12.556338 4737.493164
v 1062.127441 14.767867 4739.953125
v 804.818115 -4.438367 4229.061523
v 802.494995 5.526357 4231.289062
v 796.855225 12.556334 4236.696777
v 789.409912 14.767871 4243.835938
v 577.653198 -4.319695 4047.060059
v 576.088318 5.637247 4049.864014
v 572.313599 12.702685 4056.698242
v 567.325684 15.011870 4065.758789
v 406.639374 -4.942394 3989.510254
v 405.925385 5.173071 3992.146484
v 403.269348 12.559931 3999.094971
v 399.391296 15.215678 4008.471680
v -766.096375 -4.441813 4195.973633
v -763.952515 5.525835 4198.382324
v -758.764343 12.559466 4204.256348
v -751.921631 14.774810 4212.021973
v -431.949768 -4.879493 3984.157959
v -430.906525 5.225969 3986.682373
v -427.424805 12.603419 3993.249512
v -422.447968 15.253932 4002.080078
v -955.385620 -4.440783 4423.137207
v -952.680969 5.526683 4424.863281
v -946.111084 12.562609 4429.072266
v -937.436768 14.781317 4434.635742
v -1082.901978 -4.441578 4689.665527
v -1079.831543 5.525545 4690.628906
v -1072.375732 12.558985 4692.987793
v -1062.532471 14.774062 4696.109863
v -1131.882202 -4.439846 4977.395996
v -1128.657837 5.525699 4977.463379
v -1120.828003 12.555934 4977.627441
v -1110.490356 14.767329 4977.843750
v -1095.013062 -4.438745 5266.722168
v -1091.905518 5.526846 5265.887695
v -1084.358887 12.559119 5263.841309
v -1074.395386 14.773623 5261.131836
v -978.765930 -4.437980 5537.926270
v -975.991150 5.528072 5536.313965
v -969.252991 12.562647 5532.380859
v -960.357117 14.780554 5527.181152
v -799.152039 -4.432346 5772.523926
v -796.819519 5.532255 5770.327148
v -791.144531 12.566126 5765.002930
v -783.646973 14.785334 5757.977539
v -598.143372 14.833277 5920.285156
v -604.213440 12.543742 5928.565430
v -608.895447 5.459333 5934.731445
v -610.936646 -4.524476 5937.133789
v 599.407715 -4.427724 5937.768555
v 597.470276 5.531488 5935.239746
v 593.092041 12.593905 5928.867188
v 587.433960 14.886946 5920.339844
v 771.731384 -4.435030 5805.611328
v 769.486450 5.528612 5803.310547
v 764.030884 12.558459 5797.732422
v 756.826416 14.771086 5790.370605
v 953.737671 -4.438368 5578.448730
v 950.984741 5.526361 5576.781250
v 944.301392 12.556334 5572.733398
v 935.478516 14.767867 5567.389648
v 1070.748535 -4.438363 5311.920410
v 1067.657837 5.526374 5311.022461
v 1060.154541 12.556338 5308.842285
v 1050.249146 14.767863 5305.963867
v 1114.789429 -4.438368 5024.187500
v 1111.571655 5.526371 5024.120117
v 1103.759644 12.556338 5023.956055
v 1093.446899 14.767863 5023.739746
v -3273.739014 -4.986095 8260.945312
v -3276.892090 4.989593 8261.255859
v -3284.610840 12.050086 8262.016602
v -3294.827393 14.303530 8263.023438
v -3262.188721 -4.999475 8319.010742
v -3265.160645 4.979248 8320.242188
v -3272.436035 12.034629 8323.255859
v -3282.065674 14.276194 8327.244141
v -3273.737061 -4.993394 -3490.542236
v -3276.889404 4.985536 -3490.871338
v -3284.606689 12.048144 -3491.677734
v -3294.820557 14.301959 -3492.745117
v -3121.253662 -4.986140 8413.429688
v -3121.564209 4.989605 8416.583008
v -3122.324463 12.050128 8424.301758
v -3123.330566 14.303599 8434.518555
v -349.509491 -4.991325 6168.792969
v -346.355530 4.986126 6168.521484
v -338.634308 12.048236 6167.815430
v -328.415527 14.301970 6166.864258
v -3121.253662 -4.986124 -3642.997803
v -3121.564209 4.989568 -3646.150879
v -3122.324463 12.050059 -3653.869873
v -3123.330566 14.303485 -3664.086426
v -3179.318359 -4.999485 -3631.447510
v -3180.549316 4.979236 -3634.419434
v -3183.562988 12.034613 -3641.695068
v -3187.551758 14.276168 -3651.324707
v -3228.995117 -4.999510 8368.687500
v -3231.269775 4.979213 8370.961914
v -3236.838135 12.034636 8376.530273
v -3244.208252 14.276232 8383.900391
v -3179.318359 -4.999470 8401.879883
v -3180.549316 4.979246 8404.851562
v -3183.562988 12.034655 8412.126953
v -3187.551514 14.276255 8421.756836
v -373.103180 -4.999496 8368.687500
v -370.828583 4.979221 8370.961914
v -365.260223 12.034648 8376.530273
v -357.890106 14.276255 8383.900391
v -3262.188721 -4.999555 -3548.577148
v -3265.160645 4.979171 -3549.808350
v -3272.436035 12.034529 -3552.822266
v -3282.065430 14.276026 -3556.811279
v -3228.995361 -4.999470 -3598.254395
v -3231.270020 4.979250 -3600.529053
v -3236.838379 12.034625 -3606.097412
v -3244.208496 14.276179 -3613.467773
v 322.759338 -4.988956 6150.670898
v 319.605713 4.986814 6150.337891
v 311.885468 12.046569 6149.492188
v 301.668152 14.297816 6148.360352
v 3093.843506 -4.986125 8413.429688
v 3094.154053 4.989616 8416.583008
v 3094.914307 12.050139 8424.301758
v 3095.920410 14.303607 8434.518555
v 3151.907715 -4.999448 8401.879883
v 3153.138672 4.979269 8404.851562
v 3156.152344 12.034682 8412.126953
v 3160.140869 14.276290 8421.756836
v 3246.326904 -4.993413 8260.974609
v 3249.479248 4.985508 8261.303711
v 3257.196289 12.048133 8262.110352
v 3267.410156 14.301959 8263.177734
v 3246.328857 -4.986061 -3490.512451
v 3249.481934 4.989628 -3490.822998
v 3257.200684 12.050131 -3491.583252
v 3267.417236 14.303595 -3492.589355
v 3234.778564 -4.999462 -3548.577148
v 3237.750488 4.979259 -3549.808105
v 3245.025879 12.034640 -3552.821777
v 3254.655518 14.276198 -3556.810547
v 3093.843506 -4.986108 -3642.997803
v 3094.154053 4.989584 -3646.150879
v 3094.914307 12.050074 -3653.869873
v 3095.920410 14.303500 -3664.086426
v 351.740021 -4.999490 8368.687500
v 349.465424 4.979225 8370.961914
v 343.897003 12.034644 8376.530273
v 336.526886 14.276236 8383.900391
v 3201.584961 -4.999485 8368.687500
v 3203.859619 4.979232 8370.961914
v 3209.427979 12.034648 8376.530273
v 3216.798096 14.276244 8383.900391
v 3234.778564 -4.999558 8319.010742
v 3237.750488 4.979170 8320.242188
v 3245.025879 12.034522 8323.255859
v 3254.655273 14.276007 8327.245117
v 3151.907715 -4.999458 -3631.447510
v 3153.138672 4.979259 -3634.419434
v 3156.152344 12.034636 -3641.694824
v 3160.141113 14.276190 -3651.324463
v 3201.584961 -4.999462 -3598.254395
v 3203.859619 4.979259 -3600.529053
v 3209.427979 12.034636 -3606.097412
v 3216.798096 14.276190 -3613.467773
v 304.361938 16.102858 1955.308838
v 314.336578 12.950236 1955.307739
v 321.398590 5.232662 1955.304810
v 323.655670 -4.981947 1955.300659
v 323.656433 -4.980654 3882.590576
v 321.400574 5.230264 3882.936768
v 314.342285 12.940970 3883.785889
v 304.373657 16.084468 3884.910400
v 406.422821 -4.763416 6044.277344
v 404.621765 5.240818 6041.775391
v 400.782623 12.382647 6035.152344
v 395.932556 14.751300 6026.180176
v -351.024445 -4.984470 1930.618042
v -348.766876 5.230358 1930.618896
v -341.703735 12.947306 1930.617554
v -331.728149 16.097998 1930.614258
v -350.270172 -4.981499 3877.375732
v -348.006165 5.228264 3877.726562
v -340.935608 12.934916 3878.557861
v -330.953857 16.072512 3879.646729
v 363.200684 -4.902581 6065.721191
v 360.948456 5.104637 6063.531738
v 355.799622 12.234889 6057.642578
v 349.134735 14.576239 6049.633301
v 333.385223 -4.982632 6103.636719
v 330.417450 5.004911 6102.421387
v 323.237122 12.077918 6099.155273
v 313.769867 14.339518 6094.713379
v -359.228210 -4.984056 6117.623047
v -356.213348 5.003246 6116.508789
v -348.899811 12.076514 6113.492676
v -339.248535 14.339148 6109.382324
v -387.227112 -4.868134 6079.067383
v -384.753204 5.117729 6077.158203
v -378.981873 12.226279 6072.000977
v -371.457550 14.555236 6064.975586
v -434.068237 -3.462333 6041.390137
v -431.987244 6.539408 6039.073242
v -427.365234 13.659079 6032.905273
v -421.442200 15.986613 6024.541016
v -389.497498 -4.903122 3962.394775
v -388.074554 5.241764 3964.611328
v -383.447449 12.761054 3970.500977
v -376.857635 15.637175 3978.483643
v -360.417267 -4.955012 3924.377197
v -358.314056 5.232868 3925.595947
v -351.726227 12.885176 3928.811035
v -342.421051 15.948939 3933.159912
v 334.168427 -4.957505 3929.582764
v 332.097717 5.233116 3930.800537
v 325.577179 12.894786 3934.041504
v 316.355652 15.972605 3938.436523
v 363.704285 -4.919011 3967.636475
v 362.331177 5.231880 3969.825195
v 357.793732 12.771140 3975.679199
v 351.309021 15.676463 3983.628174
v 916.128906 -7.798230 4497.193848
v 918.089355 2.422729 4496.116211
v 924.303040 10.169474 4492.700195
v 933.105042 13.366297 4487.861816
v 1034.066528 13.366290 4746.844727
v 1024.312134 10.169463 4749.240234
v 1017.426147 2.422701 4750.931152
v 1015.253601 -7.798256 4751.464844
v 555.797546 13.900775 4093.257324
v 550.895203 10.791007 4102.145996
v 547.432129 3.074991 4108.447266
v 546.348694 -7.151190 4110.450195
v 382.608978 -5.305215 4054.759033
v 384.014954 4.781454 4052.405029
v 387.154694 12.187976 4045.719482
v 391.198029 14.956202 4036.470215
v 563.031982 -7.273896 5879.122559
v 564.079834 2.948114 5881.148926
v 567.841919 10.657668 5887.185059
v 573.302612 13.773192 5895.601562
v 391.465271 13.849215 5996.480469
v 386.912537 10.812102 5987.561035
v 383.868195 3.177297 5981.085938
v 383.149567 -7.005486 5978.793457
v 754.571533 -7.794746 4277.242188
v 756.185974 2.424434 4275.694336
v 761.302979 10.169844 4270.787598
v 768.551453 13.366118 4263.836914
v -731.203430 13.392115 4231.936035
v -724.549072 10.196765 4239.494141
v -719.857117 2.455696 4244.836914
v -718.384216 -7.757675 4246.534180
v -896.842346 -7.752923 4460.697266
v -898.725769 2.466953 4459.479492
v -904.690186 10.208953 4455.645508
v -913.137756 13.399058 4450.222656
v -1016.480103 -7.777212 4710.755859
v -1018.615662 2.443252 4710.066406
v -1025.382080 10.187895 4707.909668
v -1034.966309 13.381636 4704.863770
v -1062.119263 -7.798519 4978.856445
v -1064.362183 2.421669 4978.809570
v -1071.468384 10.168158 4978.660645
v -1081.533447 13.365054 4978.450195
v -1027.769043 -7.775696 5248.411621
v -1029.931030 2.443121 5249.011719
v -1036.780273 10.186614 5250.885254
v -1046.481567 13.380068 5253.529785
v -918.722168 -7.754258 5502.815430
v -920.652649 2.464771 5503.954590
v -926.768677 10.206500 5507.539551
v -935.431702 13.396823 5512.608887
v -747.450012 -7.743805 5726.515137
v -749.088928 2.477417 5728.027832
v -754.263977 10.221202 5732.838867
v -761.588196 13.412299 5739.658203
v -582.567200 13.723654 5898.066406
v -576.739380 10.602107 5889.880371
v -572.711792 2.905542 5883.993164
v -571.565063 -7.301040 5881.983398
v 723.550781 -7.798270 5755.364746
v 725.119263 2.422805 5756.954102
v 730.081848 10.169509 5762.003418
v 737.109009 13.366297 5769.159180
v 894.194092 -7.798251 5542.384277
v 896.107605 2.422710 5543.543457
v 902.172485 10.169467 5547.216797
v 910.763794 13.366290 5552.420410
v 1003.899475 -7.798281 5292.495605
v 1006.047729 2.422681 5293.119629
v 1012.856750 10.169448 5295.098145
v 1022.502014 13.366278 5297.900879
v 1045.190796 -7.798268 5022.727051
v 1047.427368 2.422687 5022.773926
v 1054.516479 10.169448 5022.922852
v 1064.558472 13.366278 5023.133301
v -418.651367 14.839896 4032.343994
v -413.554962 12.040938 4041.035400
v -409.669128 4.621568 4047.288086
v -408.017517 -5.463917 4049.455322
v -3309.054688 12.955588 8338.423828
v -3318.441650 9.788272 8342.312500
v -3325.087646 2.064687 8345.065430
v -3327.211914 -8.145646 8345.945312
v -3342.770508 -8.062572 8267.745117
v -3340.512695 2.148245 8267.539062
v -3333.449951 9.865050 8266.886719
v -3323.474365 13.020056 8265.964844
v -3342.768311 -8.067877 -3497.342529
v -3340.511475 2.145260 -3497.122559
v -3333.451172 9.863963 -3496.428711
v -3323.479248 13.019988 -3495.447021
v -3128.052734 -8.066398 8482.461914
v -3127.830566 2.146602 8480.205078
v -3127.135010 9.865092 8473.144531
v -3126.152832 13.020945 8463.172852
v -3198.730957 12.955535 -3678.313477
v -3202.619141 9.788207 -3687.700439
v -3205.372070 2.064619 -3694.346436
v -3206.251953 -8.145701 -3696.470703
v -3128.052490 -8.067895 -3712.029297
v -3127.830322 2.145652 -3709.772705
v -3127.134766 9.864623 -3702.712158
v -3126.152588 13.020713 -3692.739746
v -3264.864990 12.955680 8404.556641
v -3272.049561 9.788378 8411.741211
v -3277.136230 2.064781 8416.828125
v -3278.761963 -8.145601 8418.454102
v -3198.730225 12.955855 8448.743164
v -3202.618896 9.788214 8458.130859
v -3205.372070 2.063787 8464.778320
v -3206.251953 -8.147632 8466.902344
v -337.233337 12.955733 8404.556641
v -330.048889 9.788443 8411.741211
v -324.962280 2.064855 8416.828125
v -323.336487 -8.145516 8418.454102
v -3327.211182 -8.146160 -3575.512207
v -3325.086914 2.064174 -3574.632080
v -3318.441162 9.787795 -3571.879150
v -3309.054199 12.955180 -3567.990479
v -3278.761963 -8.145829 -3648.020996
v -3277.136230 2.064560 -3646.395264
v -3272.049561 9.788207 -3641.308838
v -3264.864990 12.955554 -3634.124268
v -303.074280 17.362021 1930.603516
v -292.860413 15.102935 1930.599243
v -285.143951 8.040209 1930.595093
v -281.991821 -1.934281 1930.592163
v -281.230316 -2.031253 3884.801270
v -284.378937 7.951129 3884.576660
v -292.095490 15.026259 3883.835693
v -302.313293 17.299258 3882.776611
v -299.762726 13.016921 6163.587891
v -289.791351 9.861609 6162.618652
v -282.732025 2.144317 6161.918945
v -280.475677 -8.067797 6161.675781
v 3098.743164 13.020938 8463.172852
v 3099.725342 9.865081 8473.144531
v 3100.420654 2.146589 8480.205078
v 3100.642822 -8.066415 8482.461914
v 3171.320068 12.955779 8448.746094
v 3175.208496 9.788478 8458.132812
v 3177.961426 2.064872 8464.779297
v 3178.841309 -8.145461 8466.903320
v 3296.054443 13.020640 -3495.530518
v 3306.034912 9.864070 -3496.453125
v 3313.101318 2.143407 -3497.104980
v 3315.360107 -8.072515 -3497.311279
v 3315.358154 -8.067900 8267.776367
v 3313.101318 2.145240 8267.556641
v 3306.041016 9.863944 8266.862305
v 3296.069092 13.019969 8265.880859
v 3281.644775 12.955577 -3567.989746
v 3291.031738 9.788253 -3571.878174
v 3297.677734 2.064661 -3574.631104
v 3299.802002 -8.145669 -3575.510986
v 3100.642578 -8.066808 -3712.029297
v 3100.420410 2.146192 -3709.772705
v 3099.725098 9.864752 -3702.712646
v 3098.742920 13.020678 -3692.740723
v 315.870361 12.955672 8404.556641
v 308.685883 9.788367 8411.741211
v 303.599304 2.064769 8416.828125
v 301.973480 -8.145607 8418.454102
v 3237.454346 12.955695 8404.556641
v 3244.638916 9.788401 8411.741211
v 3249.725586 2.064830 8416.828125
v 3251.351318 -8.145513 8418.454102
v 3281.641846 12.955245 8338.422852
v 3291.029785 9.787516 8342.311523
v 3297.676270 2.063078 8345.065430
v 3299.800781 -8.148359 8345.945312
v 3178.841309 -8.145685 -3696.470947
v 3177.961426 2.064642 -3694.346680
v 3175.208496 9.788233 -3687.700684
v 3171.320312 12.955557 -3678.313721
v 3251.351562 -8.145789 -3648.021484
v 3249.725830 2.064590 -3646.395752
v 3244.639160 9.788214 -3641.309082
v 3237.454590 12.955550 -3634.124512
v 275.713135 17.330603 3888.133789
v 265.494568 15.064158 3889.236816
v 257.774780 7.993853 3890.018555
v 254.621307 -1.986690 3890.269287
v 254.623535 -1.919859 1955.300659
v 257.776154 8.054804 1955.304688
v 265.493713 15.116809 1955.307739
v 275.708344 17.373885 1955.308838
v 253.728607 -8.081282 6142.918945
v 255.984482 2.130788 6143.188965
v 263.042725 9.849326 6143.989746
v 273.012878 13.007044 6145.107422
v 330.935333 13.536387 6026.514160
v 324.532043 10.468230 6018.473145
v 320.113586 2.819631 6012.612305
v 318.863129 -7.361287 6010.500977
v 287.320465 13.069323 6081.872559
v 278.096771 9.920340 6077.425293
v 271.593658 2.211265 6074.184082
v 269.552246 -7.993963 6073.017578
v -312.700378 13.086913 6097.103027
v -303.363708 9.943026 6092.986328
v -296.776337 2.236740 6089.980469
v -294.702393 -7.968148 6088.890137
v -353.909851 13.554125 6040.433594
v -346.803040 10.474875 6033.248047
v -341.865265 2.810924 6028.003906
v -340.419830 -7.383795 6026.105957
v -415.831970 15.135276 5995.621582
v -410.318390 11.966452 5987.193848
v -406.528656 4.038486 5981.353027
v -405.563293 -6.346079 5979.794434
v -358.482910 16.104281 4001.432373
v -351.763031 13.566531 4009.350098
v -346.647186 6.301863 4015.099854
v -344.504120 -3.746154 4017.143799
v -315.869446 16.962157 3945.763184
v -306.375183 14.614401 3950.087646
v -299.200989 7.486437 3953.221924
v -296.266754 -2.514329 3954.327393
v 289.829376 17.034972 3951.178711
v 280.339691 14.704413 3955.584961
v 273.162659 7.588236 3958.786621
v 270.219482 -2.408733 3959.927002
v 332.883759 16.237170 4006.628418
v 326.178741 13.731654 4014.600098
v 321.060944 6.490088 4020.400879
v 318.900116 -3.549492 4022.478027
vt 1.071443 2.692341
vt 1.076593 2.697168
vt 0.948203 2.809494
vt 0.944033 2.803805
vt 1.080492 2.700830
vt 0.951420 2.813733
vt 1.082096 2.702346
vt 0.952824 2.815391
vt 0.311118 0.080656
vt 0.312665 0.080652
vt 0.312583 1.404536
vt 0.311037 1.404306
vt 0.317514 0.080648
vt 0.317429 1.405115
vt 0.324363 0.080648
vt 0.324275 1.405885
vt -0.107558 1.819965
vt -0.101512 1.823290
vt -0.170209 1.999476
vt -0.176909 1.997828
vt -0.097242 1.825642
vt -0.165478 2.000643
vt -0.095894 1.826389
vt -0.163983 2.001016
vt 0.158084 1.560791
vt 0.157339 1.559408
vt 0.269573 1.520924
vt 0.270542 1.522548
vt 0.154958 1.555074
vt 0.267415 1.516327
vt 0.151591 1.548968
vt 0.264638 1.509973
vt 0.139493 2.786805
vt 0.143245 2.781027
vt 0.267502 2.849972
vt 0.264374 2.856096
vt 0.145831 2.776887
vt 0.269595 2.845531
vt 0.146554 2.775502
vt 0.270092 2.843963
vt 1.026690 1.654306
vt 1.027699 1.653133
vt 1.150536 1.800555
vt 1.149245 1.801398
vt 1.030919 1.649457
vt 1.154630 1.797917
vt 1.035489 1.644265
vt 1.160431 1.794190
vt 2.818250 4.403463
vt 2.816788 4.402853
vt 2.827385 4.349608
vt 2.828939 4.349757
vt 2.812222 4.400956
vt 2.822532 4.349154
vt 2.805774 4.398282
vt 2.815681 4.348518
vt 2.681307 4.495657
vt 2.681463 4.497214
vt 2.680828 4.490802
vt 2.680153 4.483951
vt 2.735673 -3.800795
vt 2.735066 -3.799343
vt 2.681811 -3.809941
vt 2.681966 -3.811484
vt 2.733172 -3.794785
vt 2.681331 -3.805097
vt 2.730500 -3.788340
vt 2.680655 -3.798250
vt 0.727073 0.063709
vt 0.729236 0.063705
vt 0.728629 1.405686
vt 0.726469 1.405847
vt 0.734533 0.063703
vt 0.733927 1.405172
vt 0.741548 0.063705
vt 0.740944 1.404444
vt -1.596366 4.496956
vt -1.596215 4.495399
vt -1.595739 4.490545
vt -1.595065 4.483695
vt -1.743338 -3.664283
vt -1.741789 -3.664148
vt -1.742274 4.349346
vt -1.743822 4.349504
vt -1.736938 -3.663705
vt -1.737427 4.348864
vt -1.730085 -3.663074
vt -1.730579 4.348187
vt 0.358449 1.409580
vt 0.356281 1.409401
vt 0.356360 0.080653
vt 0.358528 0.080657
vt 0.350977 1.408859
vt 0.351058 0.080649
vt 0.343958 1.408100
vt 0.344042 0.080648
vt -0.099243 1.824613
vt -0.167698 2.000178
vt 0.273471 1.521627
vt 0.156120 1.557576
vt 0.142998 2.777590
vt 0.265724 2.844916
vt 0.015072 1.675334
vt 0.012319 1.672746
vt 1.029356 1.651602
vt 0.810982 1.517708
vt 0.813539 1.518938
vt 1.152503 1.799481
vt 1.231401 1.973142
vt 1.235105 1.972148
vt 1.262734 2.157274
vt 1.266622 2.157274
vt 1.239132 2.342401
vt 1.242878 2.343402
vt 1.164228 2.517119
vt 1.167578 2.519059
vt 1.046590 2.670747
vt 1.049370 2.673499
vt 0.925788 2.777514
vt 0.929411 2.779193
vt 0.036316 2.690500
vt 0.033677 2.693367
vt -0.080873 2.544220
vt -0.084141 2.546300
vt -0.156207 2.372593
vt -0.159880 2.373752
vt -0.184554 2.187316
vt -0.188380 2.187479
vt 2.814781 4.402098
vt 2.825254 4.349476
vt 2.829423 -3.664029
vt 2.825740 -3.663557
vt 2.681130 4.493583
vt 2.734255 -3.797206
vt 2.681633 -3.807680
vt 2.782324 4.450667
vt 2.784972 4.453261
vt 2.733752 4.483116
vt 2.735170 4.486532
vt 0.772896 4.450545
vt 0.770182 4.453139
vt 2.818741 -3.717715
vt 2.815272 -3.716180
vt 2.785470 -3.767517
vt 2.782822 -3.764750
vt 0.723387 0.063780
vt 0.722824 1.405405
vt 0.729607 2.969828
vt 0.725858 2.969594
vt -1.595966 4.493327
vt -1.648587 4.482852
vt -1.650072 4.486269
vt -1.739587 -3.663831
vt -1.740073 4.349203
vt -1.729115 -3.716452
vt -1.732650 -3.717989
vt -1.595863 -3.811741
vt -1.595463 -3.807937
vt 0.312272 4.450519
vt 0.314920 4.453112
vt -1.697155 4.450397
vt -1.699868 4.452990
vt -1.729606 4.401826
vt -1.733141 4.403191
vt -1.649570 -3.801059
vt -1.648086 -3.797470
vt -1.699371 -3.767786
vt -1.696658 -3.765020
vt 0.362200 1.409267
vt 0.362280 0.080710
vt 0.358970 2.956689
vt 0.355286 2.957040
vt 0.310150 2.866209
vt 0.314241 2.865742
vt 0.344302 2.908988
vt 0.348106 2.908680
vt 0.739483 2.919803
vt 0.735631 2.919605
vt 0.771135 2.876818
vt 0.767032 2.876487
vt 0.812250 2.854186
vt 0.811774 2.844683
vt 0.766906 1.496149
vt 0.769920 1.496743
vt 0.733333 1.453212
vt 0.736793 1.453598
vt 0.351350 1.457151
vt 0.347734 1.457420
vt 0.317574 1.499949
vt 0.314297 1.500379
vt -0.137791 1.803353
vt -0.210413 1.989609
vt -0.214128 1.988770
vt -0.141139 1.801577
vt 0.136587 1.517252
vt 0.134618 1.514031
vt 0.256965 1.476815
vt 0.254041 1.477734
vt 0.121568 2.815777
vt 0.254104 2.888934
vt 0.249736 2.889888
vt 0.117942 2.818015
vt -0.019436 1.642239
vt -0.022188 1.639651
vt 1.189453 1.775603
vt 1.059459 1.619580
vt 1.062125 1.616878
vt 1.192710 1.773686
vt 1.277019 1.958657
vt 1.280722 1.957663
vt 1.310646 2.156270
vt 1.314534 2.156272
vt 1.285313 2.354977
vt 1.289058 2.355978
vt 1.205464 2.541233
vt 1.208812 2.543174
vt 1.084875 2.705097
vt 0.956447 2.817070
vt 0.003222 2.725005
vt 0.000584 2.727870
vt -0.121769 2.568983
vt -0.125038 2.571064
vt -0.202120 2.385928
vt -0.205793 2.387087
vt -0.232355 2.188314
vt -0.236180 2.188477
vt 0.829979 1.474092
vt 0.827426 1.472865
vt 2.770124 4.383596
vt 2.777843 4.344801
vt 2.781528 4.345082
vt 2.773592 4.384960
vt 2.782012 -3.659363
vt 2.778329 -3.658891
vt 2.676463 4.446171
vt 2.676795 4.449801
vt 2.715754 -3.752553
vt 2.676960 -3.760272
vt 2.677293 -3.764075
vt 2.717171 -3.756140
vt 2.748147 4.416484
vt 2.750793 4.419076
vt 2.715258 4.438457
vt 2.716675 4.441871
vt 0.807076 4.416367
vt 0.804363 4.418960
vt 2.774083 -3.699222
vt 2.770614 -3.697686
vt 2.751288 -3.733342
vt 2.748641 -3.730575
vt 0.770799 0.063803
vt 0.770242 1.400310
vt 0.773886 1.400752
vt 0.774485 0.063733
vt 0.773269 2.974483
vt 0.777017 2.974716
vt -1.591294 4.445914
vt -1.591695 4.449544
vt -1.630088 4.438195
vt -1.631572 4.441609
vt -1.692178 -3.659160
vt -1.692664 4.344533
vt -1.696412 4.344833
vt -1.695928 -3.659613
vt -1.684459 -3.697954
vt -1.687994 -3.699491
vt -1.591196 -3.764332
vt -1.590798 -3.760530
vt 0.278095 4.416336
vt 0.280741 4.418928
vt -1.662975 4.416218
vt -1.665687 4.418811
vt -1.684948 4.383328
vt -1.688483 4.384692
vt -1.631075 -3.756402
vt -1.629592 -3.752815
vt -1.665195 -3.733607
vt -1.662482 -3.730840
vt 0.314790 1.403993
vt 0.314870 0.080709
vt 0.311559 2.962008
vt 0.307875 2.962359
vt 0.283787 2.903664
vt 0.279698 2.904130
vt 0.304264 2.929705
vt 0.300461 2.930012
vt 0.779946 2.939340
vt 0.783796 2.939538
vt 0.799177 2.912861
vt 0.803279 2.913192
vt 0.831348 2.886986
vt 0.835707 2.887728
vt 0.800824 1.459145
vt 0.797810 1.458550
vt 0.780853 1.433033
vt 0.777394 1.432647
vt 0.303817 1.436580
vt 0.307432 1.436309
vt 0.283529 1.462713
vt 0.286806 1.462283
vt -0.196181 1.993093
vt -0.124949 1.810403
vt 0.143675 1.530080
vt 0.259012 1.490743
vt 0.261305 2.876492
vt 0.129787 2.803794
vt -0.008860 1.652374
vt 0.005466 1.666112
vt 1.049718 1.630588
vt 1.177120 1.783485
vt 1.263024 1.963069
vt 1.244092 1.969081
vt 1.295949 2.156564
vt 1.276063 2.156980
vt 1.271147 2.351123
vt 1.251977 2.345901
vt 1.192816 2.533839
vt 1.175698 2.523831
vt 1.056294 2.679759
vt 0.933337 2.788545
vt 0.013454 2.714524
vt 0.026998 2.699959
vt -0.109233 2.561376
vt -0.092259 2.551097
vt -0.188046 2.381825
vt -0.168989 2.376290
vt -0.217703 2.187994
vt -0.197862 2.187580
vt 0.820838 1.507173
vt 0.823446 1.486387
vt 2.787239 4.390602
vt 2.796005 4.346497
vt 2.796486 -3.660889
vt 2.816169 -3.662743
vt 2.678216 4.464271
vt 2.722822 -3.769805
vt 2.678715 -3.778572
vt 2.761236 4.429512
vt 2.775422 4.443700
vt 2.722323 4.455508
vt 2.729999 4.474044
vt 0.793909 4.429394
vt 0.779722 4.443580
vt 2.787729 -3.704890
vt 2.806265 -3.712565
vt 2.761731 -3.743804
vt 2.775919 -3.757988
vt 0.761227 0.063714
vt 0.760614 1.402297
vt 0.758776 2.973144
vt 0.739098 2.970893
vt -1.593127 4.464014
vt -1.637232 4.455246
vt -1.644910 4.473784
vt -1.710416 -3.661054
vt -1.710897 4.346330
vt -1.701650 -3.705159
vt -1.720185 -3.712838
vt -1.592627 -3.778829
vt -1.594564 -3.798509
vt 0.291184 4.429364
vt 0.305370 4.443552
vt -1.676142 4.429245
vt -1.690328 4.443432
vt -1.702141 4.390333
vt -1.720675 4.398009
vt -1.636734 -3.770068
vt -1.644410 -3.788603
vt -1.675647 -3.744070
vt -1.689833 -3.758257
vt 0.326039 2.960409
vt 0.345720 2.958177
vt 0.293443 2.892601
vt 0.305944 2.876725
vt 0.317730 2.923564
vt 0.335896 2.914747
vt 0.766219 2.933666
vt 0.747986 2.925232
vt 0.788341 2.903168
vt 0.776291 2.886313
vt 0.822672 2.875399
vt 0.818820 2.855538
vt 0.792136 1.470179
vt 0.779516 1.485939
vt 0.768487 1.439049
vt 0.750251 1.447704
vt 0.316044 1.442646
vt 0.334261 1.451398
vt 0.292036 1.473682
vt 0.304689 1.489480
vt -0.131155 1.806991
vt -0.203061 1.991404
vt -0.135857 1.804411
vt -0.208270 1.990129
vt -0.224785 2.188143
vt -0.230148 2.188261
vt -0.013972 1.647472
vt -0.017843 1.643763
vt 0.140249 1.523860
vt 0.137659 1.519170
vt 0.256350 1.484305
vt 0.254528 1.479539
vt 1.054419 1.625256
vt 0.826866 1.480325
vt 1.057984 1.621228
vt 0.829259 1.475820
vt 0.796663 1.464699
vt 0.799844 1.460660
vt 1.183078 1.779667
vt 1.187593 1.776780
vt 1.269785 1.960927
vt 1.274907 1.959312
vt 1.303050 2.156417
vt 1.308429 2.156310
vt 1.277992 2.352985
vt 1.283176 2.354397
vt 1.198926 2.537411
vt 1.203556 2.540118
vt 0.125901 2.809651
vt 0.257974 2.882656
vt 0.122895 2.814033
vt 0.255339 2.887209
vt 0.008507 2.719582
vt 0.004762 2.723417
vt -0.115293 2.565047
vt -0.119882 2.567832
vt -0.194849 2.383804
vt -0.200000 2.385306
vt 2.788990 4.345806
vt 2.780625 4.387865
vt 2.783691 4.345289
vt 2.775631 4.385799
vt 2.756175 4.424451
vt 2.752353 4.420632
vt 2.789472 -3.660156
vt 2.784174 -3.659597
vt 2.677525 4.457256
vt 2.677006 4.451960
vt 0.798972 4.424334
vt 0.802799 4.420515
vt 0.765794 2.973799
vt 0.771100 2.974289
vt 0.772848 2.936490
vt 0.777871 2.938567
vt 2.678025 -3.771554
vt 2.720082 -3.763190
vt 2.677504 -3.766248
vt 2.718014 -3.758189
vt 2.756670 -3.738739
vt 2.752847 -3.734911
vt 2.719584 4.448897
vt 2.717516 4.443905
vt 2.781116 -3.702149
vt 2.776121 -3.700074
vt 0.286123 4.424303
vt 0.282300 4.420484
vt 0.319023 2.961188
vt 0.313722 2.961773
vt -1.592435 4.456999
vt -1.591910 4.451704
vt -1.634491 4.448635
vt -1.632420 4.443643
vt -1.671080 4.424185
vt -1.667254 4.420366
vt -1.703882 4.345600
vt -1.703400 -3.660361
vt -1.698580 4.345052
vt -1.698097 -3.659833
vt -1.695035 -3.702418
vt -1.690037 -3.700342
vt -1.670585 -3.739006
vt -1.666759 -3.735176
vt -1.591936 -3.771811
vt -1.591412 -3.766504
vt -1.695525 4.387595
vt -1.690527 4.385530
vt -1.633994 -3.763451
vt -1.631922 -3.758451
vt 0.309712 1.439629
vt 0.305236 1.437409
vt 0.288867 2.898103
vt 0.285332 2.902153
vt 0.768079 0.063719
vt 0.767470 1.401552
vt 0.772932 0.063726
vt 0.772329 1.400986
vt 0.311229 2.926616
vt 0.306300 2.928864
vt 0.793509 2.907996
vt 0.797475 2.911543
vt 0.826740 2.881145
vt 0.829916 2.885387
vt 0.774879 1.436065
vt 0.779406 1.433863
vt 0.287584 1.468225
vt 0.284469 1.464210
vt 0.010444 1.670889
vt 0.013960 1.674264
vt 0.031824 2.695047
vt 0.035235 2.691585
vt 0.313380 2.867186
vt 0.310343 2.871206
vt 0.814672 1.517442
vt 0.817338 1.513143
vt 1.237510 1.971174
vt 1.232865 1.972661
vt 1.269150 2.157127
vt 1.264272 2.157234
vt 1.245316 2.344087
vt 1.240614 2.342806
vt 1.169750 2.520351
vt 1.165552 2.517894
vt 1.051266 2.675077
vt 1.047714 2.671778
vt 0.926572 2.778888
vt 0.929335 2.782926
vt -0.086357 2.547526
vt -0.082189 2.545009
vt -0.162364 2.374368
vt -0.157686 2.373015
vt -0.190965 2.187438
vt -0.186093 2.187341
vt 0.771390 1.495332
vt 0.774901 1.491379
vt 2.783852 4.452136
vt 2.780357 4.448637
vt 2.823019 -3.663414
vt 2.827870 -3.663885
vt 2.812713 -3.715233
vt 2.817280 -3.717119
vt 0.771297 4.452015
vt 0.774788 4.448516
vt -1.595237 -3.805354
vt -1.595713 -3.810198
vt 2.734564 4.485065
vt 2.732671 4.480494
vt 0.727404 2.969754
vt 0.732250 2.970229
vt 2.780854 -3.762920
vt 2.784351 -3.766407
vt 0.737053 2.920348
vt 0.741575 2.922406
vt 0.313800 4.451987
vt 0.310305 4.448489
vt 0.352569 2.957412
vt 0.357418 2.956868
vt -1.649470 4.484802
vt -1.647581 4.480232
vt -1.698755 4.451866
vt -1.695264 4.448368
vt -1.731194 -3.717391
vt -1.726631 -3.715506
vt -1.647079 -3.795047
vt -1.648967 -3.799607
vt -1.731683 4.402579
vt -1.727121 4.400682
vt -1.694766 -3.763189
vt -1.698257 -3.766678
vt 0.345710 1.456630
vt 0.340779 1.454426
vt 0.346701 2.909475
vt 0.342232 2.911695
vt 0.768022 2.877783
vt 0.771412 2.881380
vt 0.812434 2.845746
vt 0.815034 2.849752
vt 0.738805 1.452832
vt 0.743731 1.450675
vt 0.312811 1.498946
vt 0.309294 1.494956
vn -0.022700 0.999519 0.021120
vn -0.346252 0.882154 0.319239
vn -0.282152 0.880712 0.380444
vn -0.024961 0.999254 0.029470
vn -0.621768 0.533868 0.573053
vn -0.503260 0.530530 0.682105
vn -0.733415 0.068066 0.676365
vn -0.589321 0.062650 0.805466
vn 0.999715 -0.023874 -0.000000
vn 0.976450 0.215745 -0.000001
vn 0.976395 0.215929 -0.005300
vn 0.999712 -0.023361 -0.005422
vn 0.737683 0.675147 0.000001
vn 0.737683 0.675147 0.000001
vn 0.737425 0.675416 -0.004101
vn 0.737429 0.675412 -0.004036
vn 0.301055 0.953607 0.000005
vn 0.113288 0.993562 0.000013
vn 0.106105 0.994355 -0.000526
vn 0.300807 0.953684 -0.001696
vn -0.095098 0.994094 0.052276
vn -0.457610 0.852828 0.251550
vn -0.507127 0.852826 0.124541
vn -0.105392 0.994094 0.025882
vn -0.773543 0.469920 0.425215
vn -0.857238 0.469919 0.210524
vn -0.876016 -0.026572 0.481550
vn -0.970801 -0.026570 0.238412
vn -0.505450 -0.016925 0.862690
vn -0.448633 0.484026 0.751297
vn -0.311034 0.479782 0.820407
vn -0.349034 0.005779 0.937092
vn -0.372699 0.685707 0.625221
vn -0.179627 0.851877 0.491976
vn -0.147529 0.957125 0.249292
vn -0.046843 0.995764 0.079122
vn -0.024725 0.995986 0.086022
vn -0.056735 0.994588 -0.087044
vn -0.162389 0.954880 -0.248665
vn -0.250367 0.850238 -0.463047
vn -0.047719 0.995103 -0.086565
vn -0.402164 0.678284 -0.614976
vn -0.403240 0.678214 -0.614348
vn -0.418029 0.473127 -0.775501
vn -0.534397 0.218013 -0.816633
vn -0.546254 -0.021774 -0.837336
vn -0.470568 -0.014837 -0.882239
vn 0.639001 -0.011446 0.769121
vn 0.563270 0.484073 0.669626
vn 0.742862 0.469651 0.477058
vn 0.841171 -0.025981 0.540145
vn 0.327049 0.861113 0.389260
vn 0.439958 0.852399 0.282584
vn 0.061991 0.995304 0.074348
vn 0.091325 0.994092 0.058653
vn -0.920255 -0.024640 0.390544
vn -0.821264 0.451490 0.348829
vn -0.890549 0.454887 0.001158
vn -0.999711 -0.024026 0.001300
vn -0.514231 0.829355 0.218489
vn -0.548859 0.835915 0.000706
vn -0.120516 0.991379 0.051410
vn -0.120564 0.992706 0.000153
vn 0.015158 0.404381 0.914465
vn 0.016616 -0.020992 0.999642
vn 0.631374 -0.030287 0.774887
vn 0.558018 0.468185 0.685141
vn 0.009847 0.795487 0.605891
vn 0.354068 0.828102 0.434607
vn 0.002178 0.990014 0.140952
vn 0.094593 0.988718 0.116138
vn -0.390545 -0.024635 -0.920254
vn -0.348762 0.451560 -0.821254
vn -0.002178 0.454353 -0.890819
vn -0.002441 -0.024058 -0.999708
vn -0.218388 0.829411 -0.514183
vn -0.001326 0.835378 -0.549674
vn -0.051398 0.991376 -0.120549
vn -0.000286 0.992696 -0.120644
vn 0.997918 0.064502 -0.000372
vn 0.843277 0.537480 -0.000306
vn 0.847512 0.530741 0.006041
vn 0.997909 0.064228 0.007178
vn 0.461817 0.886975 -0.000147
vn 0.474915 0.880025 0.003452
vn 0.026309 0.999654 0.000016
vn 0.033671 0.999433 0.000424
vn -0.634528 -0.030277 0.772306
vn -0.560888 0.468137 0.682826
vn -0.915006 0.403248 0.012457
vn -0.999687 -0.021088 0.013500
vn -0.355842 0.828078 0.433201
vn -0.607604 0.794199 0.008090
vn -0.095065 0.988720 0.115735
vn -0.142242 0.989830 0.001804
vn 0.999711 -0.024022 -0.001300
vn 0.890539 0.454905 -0.001158
vn 0.890750 0.454493 0.001159
vn 0.999710 -0.024035 0.001300
vn 0.548842 0.835926 -0.000706
vn 0.549537 0.835469 0.000705
vn 0.120588 0.992703 -0.000153
vn 0.120470 0.992717 0.000152
vn -0.997890 0.064456 0.007868
vn -0.847583 0.530621 0.006636
vn -0.843133 0.537705 0.000016
vn -0.997902 0.064741 0.000001
vn -0.475083 0.879933 0.003765
vn -0.461499 0.887141 0.000024
vn -0.033427 0.999441 0.000422
vn -0.025857 0.999666 0.000018
vn -0.875296 -0.048449 0.481154
vn -0.970003 -0.048449 0.238216
vn -0.350395 -0.013878 0.936499
vn -0.504832 -0.038792 0.862346
vn -0.547291 -0.043484 -0.835812
vn -0.470695 -0.036679 -0.881533
vn -0.722504 -0.026552 0.690857
vn -0.722070 -0.048450 0.690121
vn 0.638573 -0.033046 0.768852
vn 0.515436 -0.017190 0.856756
vn 0.516663 0.002997 0.856184
vn 0.840555 -0.047828 0.539611
vn 0.952351 -0.026164 0.303880
vn 0.951632 -0.048086 0.303454
vn 0.999431 -0.026395 0.020984
vn 0.998610 -0.048359 0.020967
vn 0.964174 -0.026192 -0.263973
vn 0.963439 -0.048111 -0.263571
vn 0.862367 -0.026023 -0.505615
vn 0.861743 -0.047869 -0.505081
vn 0.737023 -0.025364 -0.675392
vn 0.736236 -0.047058 -0.675087
vn 0.598130 -0.035988 -0.800591
vn 0.599694 -0.057229 -0.798180
vn -0.712704 -0.026331 -0.700971
vn -0.712057 -0.048168 -0.700467
vn -0.855042 -0.026572 -0.517878
vn -0.854339 -0.048450 -0.517454
vn -0.959944 -0.026572 -0.278931
vn -0.959155 -0.048451 -0.278702
vn -0.999427 -0.026572 -0.020974
vn -0.998606 -0.048450 -0.020957
vn -0.919553 -0.045159 0.390364
vn -0.999018 -0.044293 0.001300
vn -0.999710 -0.024039 -0.001300
vn -0.999018 -0.044293 -0.001300
vn 0.016600 -0.038606 0.999117
vn 0.630842 -0.052911 0.774105
vn -0.390365 -0.045159 -0.919552
vn -0.002441 -0.044307 -0.999015
vn -0.706378 -0.045159 0.706392
vn -0.706886 -0.024613 0.706899
vn -0.390363 -0.045156 0.919553
vn -0.390544 -0.024631 0.920255
vn 0.999707 -0.021052 0.011973
vn 0.999183 -0.038611 0.011942
vn -0.920240 -0.024646 -0.390577
vn -0.919539 -0.045170 -0.390394
vn -0.706891 -0.024617 -0.706894
vn -0.706385 -0.045163 -0.706386
vn 0.999028 0.044071 -0.000372
vn 0.999008 0.043981 0.007044
vn -0.999162 -0.038637 0.013482
vn -0.633959 -0.052895 0.771556
vn 0.390360 -0.045158 0.919554
vn 0.390540 -0.024633 0.920256
vn -0.016651 -0.020992 0.999641
vn -0.016635 -0.038608 0.999116
vn 0.999018 -0.044295 -0.001300
vn 0.999018 -0.044295 0.001300
vn 0.919551 -0.045160 -0.390367
vn 0.920252 -0.024637 -0.390549
vn 0.002441 -0.024058 -0.999708
vn 0.002441 -0.044307 -0.999015
vn 0.706377 -0.045157 0.706394
vn 0.706884 -0.024610 0.706901
vn 0.919540 -0.045165 0.390392
vn 0.920242 -0.024640 0.390574
vn 0.390541 -0.024635 -0.920256
vn 0.390362 -0.045160 -0.919553
vn 0.706891 -0.024616 -0.706894
vn 0.706384 -0.045161 -0.706387
vn -0.998990 0.044252 0.007746
vn -0.999018 0.044315 0.000000
vn -0.633633 -0.035618 -0.772813
vn -0.638497 -0.015219 -0.769474
vn -0.895353 -0.043033 -0.443272
vn -0.897043 -0.022720 -0.441358
vn 0.912783 -0.042860 -0.406189
vn 0.914374 -0.022585 -0.404240
vn 0.684061 -0.052227 -0.727552
vn 0.688955 -0.030655 -0.724156
vn 0.525725 -0.068164 -0.847919
vn 0.526218 -0.047122 -0.849043
vn 0.646658 0.016802 0.762595
vn 0.642352 0.036800 0.765526
vn 0.901500 0.034195 0.431426
vn 0.899001 0.054108 0.434590
vn -0.898820 0.035837 0.436850
vn -0.896305 0.055780 0.439916
vn -0.643987 0.019820 0.764780
vn -0.639722 0.039843 0.767573
vn 0.874211 0.069422 -0.480557
vn 0.968801 0.069421 -0.237921
vn 0.970003 0.048449 -0.238216
vn 0.875296 0.048450 -0.481154
vn 0.507721 0.059810 -0.859443
vn 0.506731 0.039054 -0.861219
vn 0.337001 0.016463 -0.941360
vn 0.334987 0.037551 -0.941474
vn 0.543485 0.065383 0.836869
vn 0.471816 0.059749 0.879670
vn 0.472508 0.038247 0.880496
vn 0.545355 0.044495 0.837024
vn 0.720024 0.069365 -0.690474
vn 0.720917 0.048450 -0.691326
vn -0.839626 0.068818 -0.538788
vn -0.637340 0.053769 -0.768705
vn -0.637397 0.032950 -0.769830
vn -0.840720 0.047827 -0.539354
vn -0.950550 0.069048 -0.302798
vn -0.951775 0.048087 -0.303005
vn -0.997376 0.069304 -0.020932
vn -0.998610 0.048360 -0.020958
vn -0.962329 0.069071 0.262969
vn -0.963563 0.048113 0.263119
vn -0.861125 0.068858 0.503708
vn -0.862253 0.047871 0.504211
vn -0.734016 0.047037 0.677501
vn -0.591730 0.041857 0.805049
vn 0.710481 0.069604 0.700266
vn 0.711214 0.048622 0.701292
vn 0.853279 0.069422 0.516813
vn 0.854338 0.048449 0.517455
vn 0.957966 0.069421 0.278356
vn 0.959155 0.048449 0.278702
vn 0.997368 0.069421 0.020930
vn 0.998606 0.048449 0.020957
vn -0.520607 0.039154 -0.852898
vn -0.519523 0.018626 -0.854254
vn 0.922762 0.045160 -0.382715
vn 0.999018 0.044292 -0.000964
vn 0.997876 0.065142 -0.000964
vn 0.921591 0.067353 -0.382275
vn 0.997874 0.065166 0.000964
vn 0.999018 0.044292 0.000964
vn -0.628418 0.053128 -0.776059
vn -0.011620 0.038476 -0.999192
vn -0.011632 0.056699 -0.998324
vn -0.627181 0.081229 -0.774626
vn 0.382715 0.045161 0.922762
vn 0.001815 0.044303 0.999017
vn 0.001815 0.065159 0.997873
vn 0.382275 0.067352 0.921591
vn 0.706383 0.045159 -0.706388
vn 0.705494 0.067429 -0.705501
vn 0.382715 0.045157 -0.922762
vn 0.382275 0.067348 -0.921591
vn -0.999244 0.038432 -0.005803
vn -0.998383 0.056546 -0.005844
vn 0.921568 0.067363 0.382328
vn 0.922744 0.045170 0.382758
vn 0.705496 0.067431 0.705499
vn 0.706384 0.045161 0.706386
vn -0.999028 -0.044071 0.000372
vn -0.999020 -0.044010 -0.004691
vn -0.999722 -0.023059 -0.004841
vn -0.999721 -0.023610 0.000373
vn 0.631534 0.053115 -0.773527
vn 0.999230 0.038459 -0.007749
vn 0.998363 0.056665 -0.007777
vn 0.630316 0.081203 -0.772080
vn -0.382715 0.045157 -0.922762
vn 0.011645 0.038477 -0.999192
vn 0.011658 0.056701 -0.998323
vn -0.382274 0.067347 -0.921591
vn -0.999018 0.044292 0.000964
vn -0.999018 0.044292 -0.000964
vn -0.997874 0.065166 -0.000964
vn -0.997876 0.065142 0.000964
vn -0.922761 0.045161 0.382717
vn -0.921590 0.067354 0.382277
vn -0.001815 0.065159 0.997873
vn -0.001815 0.044303 0.999017
vn -0.706377 0.045159 -0.706394
vn -0.705488 0.067429 -0.705507
vn -0.922744 0.045169 -0.382758
vn -0.921568 0.067364 -0.382328
vn -0.382271 0.067353 0.921592
vn -0.382711 0.045162 0.922764
vn -0.705495 0.067432 0.705500
vn -0.706383 0.045161 0.706388
vn 0.999006 -0.044272 -0.005283
vn 0.999018 -0.044315 -0.000000
vn 0.628407 0.057694 0.775742
vn 0.624357 0.035340 0.780340
vn 0.900626 0.065347 0.429653
vn 0.900567 0.043169 0.432569
vn -0.919699 0.065214 0.387169
vn -0.919771 0.043073 0.390086
vn -0.709543 0.059085 0.702180
vn -0.709217 0.037731 0.703980
vn -0.533669 0.058471 0.843669
vn -0.533004 0.036363 0.845331
vn -0.632223 0.006222 -0.774762
vn -0.640743 -0.016427 -0.767580
vn -0.905131 -0.012620 -0.424946
vn -0.907768 -0.034661 -0.418038
vn 0.902231 -0.014350 -0.431015
vn 0.904678 -0.036228 -0.424554
vn 0.629705 0.002981 -0.776828
vn 0.637761 -0.019445 -0.769989
vn 0.029500 0.999539 -0.007245
vn 0.026619 0.999539 -0.014632
vn 0.024731 0.998882 -0.040301
vn 0.023039 0.998779 -0.043713
vn 0.018963 0.999117 0.037492
vn 0.019810 0.999345 0.030283
vn 0.024118 0.999449 -0.022787
vn -0.076128 0.994391 0.073427
vn -0.027805 0.999030 -0.034136
vn -0.025586 0.999538 -0.016411
vn -0.029798 0.999511 -0.009478
vn 0.102514 0.994194 0.032706
vn -0.031717 0.999497 -0.000666
vn 0.107063 0.994250 0.002248
vn -0.030149 0.999512 0.008225
vn 0.103777 0.994195 -0.028408
vn -0.026231 0.999538 0.015323
vn 0.093630 0.994093 -0.054892
vn 0.080674 0.993961 -0.074386
vn 0.059791 0.994498 -0.086014
vn 0.022927 0.999488 0.022338
vn -0.076325 0.994224 -0.075457
vn 0.025989 0.999538 0.015738
vn -0.092828 0.994093 -0.056226
vn 0.029171 0.999539 0.008476
vn -0.104213 0.994094 -0.030281
vn 0.030370 0.999539 0.000637
vn -0.108499 0.994094 -0.002277
vn 0.042955 0.996117 0.076852
vn -0.035688 0.998071 -0.050793
vn 0.007079 0.999972 -0.002485
vn 0.018648 0.999826 -0.000013
vn 0.018699 0.999825 0.000013
vn -0.120447 0.992720 -0.000152
vn 0.008562 0.999910 0.010342
vn -0.000189 0.999815 -0.019226
vn 0.002482 0.999972 0.007067
vn 0.000024 0.999825 0.018723
vn 0.004757 0.999977 -0.004759
vn -0.093217 0.991272 0.093219
vn 0.002484 0.999972 -0.007072
vn -0.051399 0.991376 0.120547
vn -0.019193 0.999816 -0.000024
vn 0.141495 0.989938 0.001564
vn 0.007064 0.999972 0.002494
vn -0.120578 0.991371 -0.051420
vn 0.004754 0.999977 0.004757
vn -0.093220 0.991272 -0.093217
vn -0.112866 0.993610 0.000064
vn -0.105858 0.994381 -0.000433
vn -0.008608 0.999910 0.010311
vn 0.018237 0.999834 -0.000060
vn -0.002483 0.999972 -0.007070
vn 0.000190 0.999815 -0.019221
vn -0.002183 0.990014 0.140954
vn 0.051397 0.991377 0.120544
vn -0.018660 0.999826 0.000013
vn -0.018708 0.999825 -0.000013
vn -0.007082 0.999972 0.002484
vn 0.120534 0.991377 -0.051411
vn -0.000024 0.999825 0.018722
vn 0.000286 0.992696 -0.120645
vn -0.004754 0.999977 -0.004759
vn 0.093223 0.991272 0.093216
vn -0.007064 0.999972 -0.002495
vn 0.120581 0.991371 0.051422
vn -0.002482 0.999972 0.007066
vn 0.051397 0.991376 -0.120547
vn -0.004756 0.999977 0.004756
vn 0.093217 0.991273 -0.093218
vn 0.004011 0.999911 0.012751
vn -0.084600 0.992000 -0.093701
vn 0.005335 0.999966 0.006228
vn -0.119546 0.991360 -0.053988
vn -0.006044 0.999964 0.005927
vn 0.121319 0.991401 -0.049043
vn -0.002291 0.999781 0.020780
vn 0.098241 0.991977 -0.079561
vn -0.016744 0.999321 0.032835
vn 0.054866 0.994421 -0.090090
vn -0.050570 0.997919 -0.039995
vn 0.037372 0.996958 0.068400
vn -0.077182 0.996624 -0.028004
vn 0.048020 0.998309 0.032751
vn 0.078204 0.996488 -0.029922
vn -0.046380 0.998425 0.031557
vn 0.052507 0.997688 -0.043148
vn -0.034694 0.997279 0.065049
vn 0.183707 0.977780 -0.100984
vn 0.203583 0.977780 -0.049996
vn 0.833906 0.307357 -0.458402
vn 0.924134 0.307357 -0.226952
vn 0.586129 0.743398 -0.322199
vn 0.586130 0.743398 -0.322197
vn 0.649545 0.743401 -0.159518
vn 0.649545 0.743401 -0.159516
vn 0.209589 0.977780 0.004398
vn 0.951385 0.307356 0.019967
vn 0.668692 0.743407 0.014033
vn 0.668692 0.743407 0.014034
vn 0.342248 0.880497 -0.328012
vn 0.610828 0.532944 -0.585542
vn 0.249905 0.873760 -0.417242
vn 0.438684 0.523612 -0.730333
vn 0.169258 0.878679 -0.446403
vn 0.299518 0.517270 -0.801698
vn -0.141474 0.975197 -0.170225
vn -0.258051 0.873009 -0.413842
vn -0.613804 0.294101 -0.732632
vn -0.506807 0.278239 -0.815923
vn -0.434964 0.735278 -0.519781
vn -0.434828 0.735261 -0.519919
vn -0.364943 0.722459 -0.587256
vn -0.307873 0.882345 -0.355924
vn -0.618956 0.250387 -0.744446
vn -0.461265 0.705572 -0.537962
vn -0.176997 0.977637 -0.113568
vn -0.563533 0.742758 -0.361581
vn -0.563502 0.742758 -0.361629
vn -0.801062 0.306571 -0.514115
vn -0.199845 0.977757 -0.063660
vn -0.637193 0.743517 -0.202897
vn -0.637166 0.743517 -0.202982
vn -0.906729 0.307268 -0.288839
vn -0.209255 0.977851 -0.004395
vn -0.667956 0.744069 -0.014026
vn -0.667956 0.744069 -0.014025
vn -0.951238 0.307810 -0.019972
vn -0.202289 0.977765 0.055277
vn -0.645057 0.743544 0.176190
vn -0.645033 0.743544 0.176280
vn -0.917955 0.307297 0.250852
vn -0.181584 0.977620 0.106243
vn -0.577960 0.742743 0.338075
vn -0.577927 0.742743 0.338133
vn -0.821569 0.306598 0.480648
vn 0.257905 0.881249 0.396087
vn 0.222000 0.883807 0.411826
vn 0.462580 0.532132 0.709123
vn 0.402164 0.534246 0.743536
vn 0.336387 0.881326 0.331826
vn 0.602078 0.533801 0.593767
vn 0.179334 0.977773 0.108625
vn 0.572102 0.743388 0.346516
vn 0.572102 0.743388 0.346516
vn 0.813939 0.307362 0.492982
vn 0.201309 0.977780 0.058495
vn 0.642277 0.743405 0.186626
vn 0.642276 0.743405 0.186627
vn 0.913798 0.307361 0.265523
vn 0.215412 0.976523 -0.000225
vn 0.194319 0.977589 -0.080993
vn 0.953515 0.301345 -0.000939
vn 0.878905 0.306811 -0.365229
vn 0.674984 0.737832 -0.000682
vn 0.674984 0.737832 -0.000682
vn 0.616136 0.744694 -0.256529
vn 0.616134 0.744694 -0.256536
vn 0.148671 0.977646 -0.148676
vn 0.672994 0.306818 -0.673009
vn 0.471846 0.744793 -0.471853
vn 0.471845 0.744793 -0.471854
vn 0.215412 0.976523 0.000223
vn 0.674983 0.737833 0.000678
vn 0.674983 0.737833 0.000686
vn 0.953515 0.301345 0.000942
vn -0.003202 0.969456 -0.245246
vn -0.113816 0.983582 -0.140042
vn -0.011504 0.264817 -0.964230
vn -0.588220 0.354575 -0.726824
vn -0.008972 0.688960 -0.724744
vn -0.008920 0.688982 -0.724724
vn -0.381011 0.795246 -0.471609
vn -0.382031 0.795317 -0.470662
vn -0.498336 0.866977 -0.003503
vn -0.385483 0.908034 0.163943
vn -0.964374 0.264471 -0.006097
vn -0.878195 0.306334 0.367333
vn -0.725247 0.688471 -0.004968
vn -0.613945 0.745028 0.260776
vn 0.000423 0.976538 0.215344
vn 0.080988 0.977590 0.194316
vn 0.001769 0.301430 0.953487
vn 0.365222 0.306795 0.878914
vn 0.001283 0.737944 0.674860
vn 0.001283 0.737944 0.674860
vn 0.256522 0.744702 0.616130
vn 0.256530 0.744702 0.616127
vn 0.148667 0.977648 0.148669
vn 0.673002 0.306810 0.673006
vn 0.471838 0.744806 0.471841
vn 0.471838 0.744806 0.471841
vn 0.080990 0.977589 -0.194321
vn 0.365216 0.306791 -0.878918
vn 0.256523 0.744692 -0.616141
vn 0.256528 0.744692 -0.616138
vn 0.194254 0.977597 0.081054
vn 0.616024 0.744749 0.256639
vn 0.616028 0.744749 0.256628
vn 0.878861 0.306830 0.365320
vn 0.114306 0.983577 -0.139678
vn 0.245340 0.969434 -0.002313
vn 0.383826 0.795231 -0.469347
vn 0.869604 0.493696 -0.007354
vn 0.725026 0.688692 -0.006296
vn 0.383245 0.795192 -0.469887
vn 0.591286 0.354491 -0.724373
vn 0.003209 0.969457 -0.245240
vn -0.080988 0.977590 -0.194318
vn 0.011529 0.264822 -0.964228
vn -0.365216 0.306780 -0.878922
vn 0.008992 0.688968 -0.724736
vn 0.008939 0.688990 -0.724716
vn -0.256525 0.744691 -0.616142
vn -0.256530 0.744691 -0.616140
vn -0.148667 0.977647 -0.148675
vn -0.672992 0.306818 -0.673012
vn -0.471842 0.744793 -0.471857
vn -0.471841 0.744793 -0.471858
vn -0.215413 0.976523 -0.000223
vn -0.215414 0.976523 0.000225
vn -0.953515 0.301346 -0.000942
vn -0.953515 0.301345 0.000939
vn -0.675000 0.737817 -0.000678
vn -0.675000 0.737818 -0.000686
vn -0.675001 0.737817 0.000682
vn -0.675001 0.737817 0.000682
vn -0.194317 0.977590 0.080989
vn -0.878907 0.306812 0.365224
vn -0.616142 0.744689 0.256530
vn -0.616139 0.744689 0.256537
vn -0.148668 0.977648 0.148669
vn -0.672997 0.306825 0.673003
vn -0.471851 0.744790 0.471852
vn -0.471851 0.744790 0.471852
vn -0.000423 0.976538 0.215344
vn -0.001283 0.737944 0.674860
vn -0.001283 0.737944 0.674860
vn -0.001769 0.301430 0.953487
vn -0.194255 0.977597 -0.081055
vn -0.878855 0.306850 -0.365318
vn -0.616035 0.744743 -0.256630
vn -0.616029 0.744743 -0.256644
vn -0.080988 0.977590 0.194315
vn -0.256534 0.744694 0.616134
vn -0.256527 0.744694 0.616137
vn -0.365222 0.306793 0.878914
vn 0.260301 0.958155 -0.119094
vn 0.785130 0.496814 -0.369793
vn 0.654395 0.690146 -0.308975
vn 0.136089 0.975946 0.170318
vn 0.524473 0.558818 0.642378
vn 0.427046 0.739938 0.519735
vn -0.300527 0.953773 0.000128
vn -0.300264 0.953855 -0.001478
vn -0.737271 0.675597 0.000292
vn -0.737271 0.675597 0.000292
vn -0.737004 0.675879 -0.003551
vn -0.736999 0.675884 -0.003624
vn -0.976363 0.216138 0.000380
vn -0.976306 0.216345 -0.004698
vn 0.190620 0.977120 0.094343
vn 0.744213 0.565538 0.355406
vn 0.602699 0.744208 0.287939
vn -0.306915 0.897632 0.316323
vn -0.679850 0.297767 0.670178
vn -0.475604 0.737214 0.479913
vn -0.242740 0.891400 0.382731
vn -0.512643 0.294828 0.806395
vn -0.363407 0.734223 0.573456
vn -0.441210 0.874536 -0.201298
vn -0.882038 0.232261 -0.409955
vn -0.655804 0.692939 -0.299593
vn 0.179802 0.962612 -0.202608
vn 0.549990 0.511528 -0.660189
vn 0.456535 0.701967 -0.546642
vn -0.375690 0.853861 0.360249
vn -0.637337 0.470725 0.610098
vn -0.372322 0.852423 -0.367085
vn -0.629296 0.469234 -0.619520
vn -0.569628 0.460187 -0.680993
vn -0.356490 0.833983 -0.421173
vn 0.455610 0.482967 0.747772
vn 0.265626 0.856759 0.442049
vn 0.495912 0.853840 0.158206
vn 0.840305 0.471204 0.268055
vn 0.519030 0.854686 0.010901
vn 0.881356 0.472091 0.018509
vn 0.502037 0.853858 -0.137423
vn 0.850729 0.471213 -0.232849
vn 0.451075 0.852393 -0.264496
vn 0.761609 0.469608 -0.446565
vn 0.387628 0.850496 -0.355530
vn 0.651771 0.467564 -0.597142
vn 0.579766 0.207516 -0.787914
vn 0.436041 0.673883 -0.596448
vn 0.437600 0.673948 -0.595231
vn 0.175034 0.954190 -0.242661
vn -0.446679 0.852815 -0.270526
vn -0.755029 0.469908 -0.457294
vn -0.501453 0.852828 -0.145707
vn -0.847650 0.469920 -0.246301
vn -0.522080 0.852826 -0.010957
vn -0.882515 0.469919 -0.018520
vn 0.551667 0.503331 0.665073
vn 0.316923 0.859857 0.400256
vn -0.630966 0.451367 0.630991
vn -0.395358 0.829079 0.395374
vn -0.549548 0.835462 -0.000706
vn -0.890756 0.454481 -0.001160
vn -0.514163 0.829414 -0.218423
vn -0.821231 0.451559 -0.348818
vn 0.001326 0.835379 -0.549673
vn 0.002178 0.454354 -0.890818
vn -0.348761 0.451578 0.821245
vn -0.218387 0.829420 0.514168
vn 0.914624 0.404155 0.011039
vn 0.605755 0.795620 0.007111
vn -0.395368 0.829076 -0.395370
vn -0.630982 0.451357 -0.630983
vn 0.816716 0.452661 -0.357872
vn 0.270383 0.955912 -0.114564
vn 0.668253 0.684908 -0.290411
vn -0.015191 0.404388 0.914462
vn 0.348761 0.451582 0.821243
vn -0.009869 0.795490 0.605886
vn 0.218387 0.829419 0.514171
vn 0.630979 0.451377 0.630971
vn 0.395368 0.829082 0.395356
vn 0.821280 0.451493 -0.348789
vn 0.514248 0.829353 -0.218457
vn 0.218387 0.829415 -0.514176
vn 0.348764 0.451567 -0.821250
vn 0.821225 0.451566 0.348823
vn 0.514170 0.829410 0.218422
vn 0.395366 0.829079 -0.395367
vn 0.630978 0.451362 -0.630982
vn -0.765906 0.519737 0.378499
vn -0.440249 0.869564 0.223697
vn -0.875984 0.223481 -0.427443
vn -0.503177 0.829657 -0.241833
vn -0.654250 0.686054 -0.318257
vn 0.631685 0.448764 -0.632127
vn 0.216064 0.955523 -0.200728
vn 0.522379 0.678642 -0.516299
vn 0.518698 0.198520 -0.831590
vn 0.157984 0.954572 -0.252654
vn 0.393038 0.670104 -0.629667
vn 0.392942 0.670101 -0.629731
vn 0.769357 0.517651 0.374335
vn 0.443428 0.868292 0.222351
vn -0.548015 0.506414 0.665751
vn -0.314024 0.861640 0.398705
s 1
g RoadEdges1 ROADEDGES_grp BossExt_grp
usemtl aiStandardSurface32SG
f 166/1/1 165/2/2 168/3/3 167/4/4
f 165/2/2 164/5/5 169/6/6 168/3/3
f 164/5/5 163/7/7 170/8/8 169/6/6
f 290/9/9 289/10/10 292/11/11 291/12/12
f 289/10/13 288/13/14 293/14/15 292/11/16
f 288/13/17 287/15/18 294/16/19 293/14/20
f 346/17/21 345/18/22 348/19/23 347/20/24
f 345/18/22 344/21/25 349/22/26 348/19/23
f 344/21/25 343/23/27 350/24/28 349/22/26
f 354/25/29 353/26/30 356/27/31 355/28/32
f 353/26/30 352/29/33 357/30/34 356/27/31
f 352/29/35 351/31/36 358/32/37 357/30/34
f 362/33/38 361/34/39 364/35/40 363/36/41
f 361/34/42 360/37/43 365/38/44 364/35/40
f 360/37/45 359/39/46 366/40/47 365/38/44
f 374/41/48 373/42/49 376/43/50 375/44/51
f 373/42/49 372/45/52 377/46/53 376/43/50
f 372/45/52 371/47/54 378/48/55 377/46/53
f 426/49/56 425/50/57 428/51/58 427/52/59
f 425/50/57 424/53/60 429/54/61 428/51/58
f 424/53/60 423/55/62 430/56/63 429/54/61
f 436/57/64 435/58/65 458/141/66 457/531/67
f 437/59/68 436/57/64 457/531/67 456/532/69
f 438/60/70 437/59/68 456/532/69 455/343/71
f 442/61/72 441/62/73 444/63/74 443/64/75
f 441/62/73 440/65/76 445/66/77 444/63/74
f 440/65/76 439/67/78 446/68/79 445/66/77
f 470/69/80 469/70/81 472/71/82 471/72/83
f 469/70/81 468/73/84 473/74/85 472/71/82
f 468/73/84 467/75/86 474/76/87 473/74/85
f 506/160/88 505/543/89 532/546/90 531/171/91
f 505/543/89 504/544/92 533/545/93 532/546/90
f 504/544/92 503/362/94 534/372/95 533/545/93
f 490/81/96 489/82/97 492/83/98 491/84/99
f 489/82/97 488/85/100 493/86/101 492/83/98
f 488/85/100 487/87/102 494/88/103 493/86/101
f 526/89/104 525/90/105 528/91/106 527/92/107
f 525/90/105 524/93/108 529/94/109 528/91/106
f 524/93/108 523/95/110 530/96/111 529/94/109
f 343/23/27 57/97/112 58/98/113 350/24/28
f 354/25/29 355/28/32 59/99/114 60/100/115
f 359/39/46 61/101/116 62/102/117 366/40/47
f 367/103/118 63/104/119 57/97/112 343/23/27
f 354/25/29 60/100/115 63/104/119 367/103/118
f 374/41/48 64/105/120 76/106/121 422/107/122
f 375/44/51 65/108/123 64/105/120 374/41/48
f 379/109/124 66/110/125 65/108/123 375/44/51
f 383/111/126 67/112/127 66/110/125 379/109/124
f 387/113/128 68/114/129 67/112/127 383/111/126
f 391/115/130 69/116/131 68/114/129 387/113/128
f 395/117/132 70/118/133 69/116/131 391/115/130
f 395/117/132 402/119/134 113/120/135 70/118/133
f 403/121/136 72/122/137 61/101/116 359/39/46
f 407/123/138 73/124/139 72/122/137 403/121/136
f 411/125/140 74/126/141 73/124/139 407/123/138
f 415/127/142 75/128/143 74/126/141 411/125/140
f 415/127/142 350/24/28 58/98/113 75/128/143
f 77/129/144 426/49/56 427/52/59 78/130/145
f 431/131/146 79/132/147 78/130/145 427/52/59
f 458/141/66 435/58/65 80/133/148 85/140/149
f 81/134/150 442/61/72 443/64/75 82/135/151
f 83/136/152 450/137/153 426/49/56 77/129/144
f 84/138/154 454/139/155 450/137/153 83/136/152
f 84/138/154 80/133/148 435/58/65 454/139/155
f 478/149/156 458/141/66 85/140/149 90/148/157
f 459/142/158 86/143/159 79/132/147 431/131/146
f 463/144/160 87/145/161 86/143/159 459/142/158
f 81/134/150 87/145/161 463/144/160 442/61/72
f 88/146/162 470/69/80 471/72/83 89/147/163
f 104/172/164 97/159/165 506/160/88 531/171/91
f 92/151/166 486/152/167 482/77/168 91/150/169
f 93/153/170 490/81/96 491/84/99 94/154/171
f 95/155/172 498/156/173 490/81/96 93/153/170
f 499/157/174 96/158/175 82/135/151 443/64/75
f 482/77/168 506/160/88 97/159/165 91/150/169
f 98/161/176 510/162/177 486/152/167 92/151/166
f 99/163/178 514/164/179 510/162/177 98/161/176
f 99/163/178 94/154/171 491/84/99 514/164/179
f 515/165/180 100/166/181 96/158/175 499/157/174
f 519/167/182 101/168/183 100/166/181 515/165/180
f 95/155/172 101/168/183 519/167/182 498/156/173
f 102/169/184 526/89/104 527/92/107 103/170/185
f 62/102/117 105/173/186 538/174/187 366/40/47
f 105/173/186 106/175/188 542/176/189 538/174/187
f 106/175/188 104/172/164 531/171/91 542/176/189
f 90/148/157 107/177/190 546/178/191 478/149/156
f 107/177/190 108/179/192 550/180/193 546/178/191
f 108/179/192 71/181/194 554/182/195 550/180/193
f 76/106/121 109/183/196 558/184/197 422/107/122
f 109/183/196 110/185/198 562/186/199 558/184/197
f 110/185/198 89/147/163 471/72/83 562/186/199
f 102/169/184 111/187/200 566/188/201 526/89/104
f 111/187/200 112/189/202 570/190/203 566/188/201
f 112/189/202 59/99/114 355/28/32 570/190/203
f 115/191/204 119/192/205 1/193/206 2/194/207
f 127/195/208 4/196/209 53/197/210 131/198/211
f 171/199/212 295/200/213 44/201/214 12/202/215
f 123/203/216 115/191/204 2/194/207 3/204/217
f 127/195/208 123/203/216 3/204/217 4/196/209
f 143/205/218 135/206/219 5/207/220 6/208/221
f 147/209/222 143/205/218 6/208/221 7/210/223
f 151/211/224 147/209/222 7/210/223 8/212/225
f 155/213/226 151/211/224 8/212/225 9/214/227
f 159/215/228 155/213/226 9/214/227 10/216/229
f 163/7/7 159/215/228 10/216/229 11/217/230
f 163/7/7 11/217/230 114/218/231 170/8/8
f 175/219/232 171/199/212 12/202/215 13/220/233
f 179/221/234 175/219/232 13/220/233 14/222/235
f 183/223/236 179/221/234 14/222/235 15/224/237
f 187/225/238 183/223/236 15/224/237 16/226/239
f 187/225/238 16/226/239 1/193/206 119/192/205
f 139/227/240 52/228/241 5/207/220 135/206/219
f 21/229/242 17/230/243 191/231/244 195/232/245
f 199/233/246 191/231/244 17/230/243 23/234/247
f 22/245/248 18/235/249 203/236/250 227/246/251
f 26/237/252 27/238/253 211/239/254 215/240/255
f 20/241/256 21/229/242 195/232/245 219/242/257
f 19/243/258 20/241/256 219/242/257 223/244/259
f 19/243/258 223/244/259 203/236/250 18/235/249
f 48/256/260 22/245/248 227/246/251 207/255/261
f 231/247/262 199/233/246 23/234/247 24/248/263
f 235/249/264 231/247/262 24/248/263 25/250/265
f 26/237/252 215/240/255 235/249/264 25/250/265
f 28/251/266 49/252/267 303/253/268 299/254/269
f 29/269/270 41/282/271 239/281/272 267/270/273
f 33/259/274 34/257/275 243/258/276 247/260/277
f 35/261/278 30/262/279 251/263/280 255/264/281
f 39/265/282 35/261/278 255/264/281 259/266/283
f 263/267/284 211/239/254 27/238/253 36/268/285
f 34/257/275 29/269/270 267/270/273 243/258/276
f 32/271/286 33/259/274 247/260/277 271/272/287
f 31/273/288 32/271/286 271/272/287 275/274/289
f 31/273/288 275/274/289 251/263/280 30/262/279
f 279/275/290 263/267/284 36/268/285 37/276/291
f 283/277/292 279/275/290 37/276/291 38/278/293
f 39/265/282 259/266/283 283/277/292 38/278/293
f 56/279/294 40/280/295 290/9/9 291/12/12
f 44/201/214 295/200/213 307/283/296 43/284/297
f 43/284/297 307/283/296 311/285/298 42/286/299
f 42/286/299 311/285/298 239/281/272 41/282/271
f 48/256/260 207/255/261 315/287/300 47/288/301
f 47/288/301 315/287/300 319/289/302 46/290/303
f 46/290/303 319/289/302 323/291/304 45/292/305
f 52/228/241 139/227/240 327/293/306 51/294/307
f 51/294/307 327/293/306 331/295/308 50/296/309
f 50/296/309 331/295/308 303/253/268 49/252/267
f 56/279/294 291/12/12 335/297/310 55/298/311
f 55/298/311 335/297/310 339/299/312 54/300/313
f 54/300/313 339/299/312 131/198/211 53/197/210
f 122/301/314 118/302/315 346/17/21 347/20/24
f 130/303/316 134/304/317 358/32/37 351/31/36
f 298/305/318 174/306/319 362/33/38 363/36/41
f 118/302/315 126/307/320 370/308/321 346/17/21
f 126/307/320 130/303/316 351/31/36 370/308/321
f 138/309/322 146/310/323 378/48/55 371/47/54
f 146/310/323 150/311/324 382/312/325 378/48/55
f 150/311/324 154/313/326 386/314/327 382/312/325
f 154/313/326 158/315/328 390/316/329 386/314/327
f 158/315/328 162/317/330 394/318/331 390/316/329
f 162/317/330 166/1/1 398/319/332 394/318/331
f 398/319/332 166/1/1 167/4/4 399/320/333
f 174/306/319 178/321/334 406/322/335 362/33/38
f 178/321/334 182/323/336 410/324/337 406/322/335
f 182/323/336 186/325/338 414/326/339 410/324/337
f 186/325/338 190/327/340 418/328/341 414/326/339
f 190/327/340 122/301/314 347/20/24 418/328/341
f 371/47/54 419/329/342 142/330/343 138/309/322
f 198/331/344 194/332/345 430/56/63 423/55/62
f 194/332/345 202/333/346 434/334/347 430/56/63
f 230/342/348 206/335/349 438/60/70 455/343/71
f 218/336/350 214/337/351 446/68/79 439/67/78
f 222/338/352 198/331/344 423/55/62 447/339/353
f 226/340/354 222/338/352 447/339/353 451/341/355
f 206/335/349 226/340/354 451/341/355 438/60/70
f 210/350/356 230/342/348 455/343/71 475/351/357
f 202/333/346 234/344/358 462/345/359 434/334/347
f 234/344/358 238/346/360 466/347/361 462/345/359
f 238/346/360 218/336/350 439/67/78 466/347/361
f 302/348/362 306/349/363 474/76/87 467/75/86
f 270/361/364 242/371/365 534/372/95 503/362/94
f 250/353/366 246/352/367 479/80/368 483/354/369
f 258/355/370 254/356/371 494/88/103 487/87/102
f 262/357/372 258/355/370 487/87/102 495/358/373
f 214/337/351 266/359/374 502/360/375 446/68/79
f 246/352/367 270/361/364 503/362/94 479/80/368
f 274/363/376 250/353/366 483/354/369 507/364/377
f 278/365/378 274/363/376 507/364/377 511/366/379
f 254/356/371 278/365/378 511/366/379 494/88/103
f 266/359/374 282/367/380 518/368/381 502/360/375
f 282/367/380 286/369/382 522/370/383 518/368/381
f 286/369/382 262/357/372 495/358/373 522/370/383
f 294/16/19 287/15/18 530/96/111 523/95/110
f 310/373/384 298/305/318 363/36/41 535/374/385
f 314/375/386 310/373/384 535/374/385 539/376/387
f 242/371/365 314/375/386 539/376/387 534/372/95
f 318/377/388 210/350/356 475/351/357 543/378/389
f 322/379/390 318/377/388 543/378/389 547/380/391
f 326/381/392 322/379/390 547/380/391 551/382/393
f 330/383/394 142/330/343 419/329/342 555/384/395
f 334/385/396 330/383/394 555/384/395 559/386/397
f 306/349/363 334/385/396 559/386/397 474/76/87
f 338/387/398 294/16/19 523/95/110 563/388/399
f 342/389/400 338/387/398 563/388/399 567/390/401
f 134/304/317 342/389/400 567/390/401 358/32/37
f 399/320/333 167/4/4 326/381/392 551/382/393
f 113/120/135 402/119/134 554/182/195 71/181/194
f 170/8/8 114/218/231 45/292/305 323/291/304
f 117/391/402 118/302/315 122/301/314 121/392/403
f 115/191/204 116/393/404 120/394/405 119/192/205
f 116/393/406 117/391/407 121/392/408 120/394/409
f 121/392/403 122/301/314 190/327/340 189/395/410
f 119/192/205 120/394/405 188/396/411 187/225/238
f 120/394/409 121/392/408 189/395/412 188/396/413
f 118/302/315 117/391/402 125/397/414 126/307/320
f 117/391/407 116/393/406 124/398/415 125/397/414
f 116/393/404 115/191/204 123/203/216 124/398/415
f 126/307/320 125/397/414 129/399/416 130/303/316
f 125/397/414 124/398/415 128/400/417 129/399/416
f 124/398/415 123/203/216 127/195/208 128/400/417
f 130/303/316 129/399/416 133/401/418 134/304/317
f 129/399/416 128/400/417 132/402/419 133/401/418
f 128/400/417 127/195/208 131/198/211 132/402/419
f 137/403/420 138/309/322 142/330/343 141/404/421
f 135/206/219 136/405/422 140/406/423 139/227/240
f 136/405/424 137/403/425 141/404/421 140/406/426
f 141/404/421 142/330/343 330/383/394 329/407/427
f 139/227/240 140/406/423 328/408/428 327/293/306
f 140/406/426 141/404/421 329/407/427 328/408/429
f 138/309/322 137/403/420 145/409/430 146/310/323
f 137/403/425 136/405/424 144/410/431 145/409/432
f 136/405/422 135/206/219 143/205/218 144/410/433
f 146/310/323 145/409/430 149/411/434 150/311/324
f 145/409/432 144/410/431 148/412/435 149/411/436
f 144/410/433 143/205/218 147/209/222 148/412/437
f 150/311/324 149/411/434 153/413/438 154/313/326
f 149/411/436 148/412/435 152/414/439 153/413/440
f 148/412/437 147/209/222 151/211/224 152/414/441
f 154/313/326 153/413/438 157/415/442 158/315/328
f 153/413/440 152/414/439 156/416/443 157/415/444
f 152/414/441 151/211/224 155/213/226 156/416/445
f 158/315/328 157/415/442 161/417/446 162/317/330
f 157/415/444 156/416/443 160/418/447 161/417/448
f 156/416/445 155/213/226 159/215/228 160/418/449
f 162/317/330 161/417/446 165/2/2 166/1/1
f 161/417/448 160/418/447 164/5/5 165/2/2
f 160/418/449 159/215/228 163/7/7 164/5/5
f 173/419/450 174/306/319 298/305/318 297/420/451
f 171/199/212 172/421/452 296/422/453 295/200/213
f 172/421/452 173/419/450 297/420/451 296/422/453
f 174/306/319 173/419/450 177/423/454 178/321/334
f 173/419/450 172/421/452 176/424/455 177/423/454
f 172/421/452 171/199/212 175/219/232 176/424/455
f 178/321/334 177/423/454 181/425/456 182/323/336
f 177/423/454 176/424/455 180/426/457 181/425/458
f 176/424/455 175/219/232 179/221/234 180/426/459
f 182/323/336 181/425/456 185/427/460 186/325/338
f 181/425/458 180/426/457 184/428/461 185/427/462
f 180/426/459 179/221/234 183/223/236 184/428/463
f 186/325/338 185/427/460 189/395/410 190/327/340
f 185/427/462 184/428/461 188/396/413 189/395/412
f 184/428/463 183/223/236 187/225/238 188/396/411
f 193/429/464 194/332/345 198/331/344 197/430/465
f 191/231/244 192/431/466 196/432/467 195/232/245
f 192/431/468 193/429/469 197/430/470 196/432/471
f 197/430/465 198/331/344 222/338/352 221/433/472
f 195/232/245 196/432/467 220/434/473 219/242/257
f 196/432/471 197/430/470 221/433/474 220/434/475
f 194/332/345 193/429/464 201/435/476 202/333/346
f 193/429/469 192/431/468 200/436/477 201/435/478
f 192/431/466 191/231/244 199/233/246 200/436/479
f 205/437/480 206/335/349 230/342/348 229/439/481
f 203/236/250 204/438/482 228/440/483 227/246/251
f 204/438/484 205/437/485 229/439/486 228/440/487
f 209/441/488 210/350/356 318/377/388 317/443/489
f 207/255/261 208/442/490 316/444/491 315/287/300
f 208/442/492 209/441/488 317/443/489 316/444/493
f 213/445/494 214/337/351 218/336/350 217/446/495
f 211/239/254 212/447/496 216/448/497 215/240/255
f 212/447/498 213/445/499 217/446/500 216/448/501
f 217/446/495 218/336/350 238/346/360 237/449/502
f 215/240/255 216/448/497 236/450/503 235/249/264
f 216/448/501 217/446/500 237/449/504 236/450/505
f 221/433/472 222/338/352 226/340/354 225/451/506
f 219/242/257 220/434/473 224/452/507 223/244/259
f 220/434/475 221/433/474 225/451/508 224/452/509
f 206/335/349 205/437/480 225/451/506 226/340/354
f 205/437/485 204/438/484 224/452/509 225/451/508
f 204/438/482 203/236/250 223/244/259 224/452/507
f 229/439/481 230/342/348 210/350/356 209/441/488
f 227/246/251 228/440/483 208/442/490 207/255/261
f 228/440/487 229/439/486 209/441/488 208/442/492
f 202/333/346 201/435/476 233/453/510 234/344/358
f 201/435/478 200/436/477 232/454/511 233/453/512
f 200/436/479 199/233/246 231/247/262 232/454/513
f 234/344/358 233/453/510 237/449/502 238/346/360
f 233/453/512 232/454/511 236/450/505 237/449/504
f 232/454/513 231/247/262 235/249/264 236/450/503
f 269/455/514 241/457/515 242/371/365 270/361/364
f 268/456/516 240/458/517 241/457/518 269/455/519
f 239/281/272 240/458/517 268/456/520 267/270/273
f 245/459/521 246/352/367 250/353/366 249/461/522
f 243/258/276 244/460/523 248/462/524 247/260/277
f 244/460/525 245/459/526 249/461/527 248/462/528
f 249/461/522 250/353/366 274/363/376 273/463/529
f 247/260/277 248/462/524 272/464/530 271/272/287
f 248/462/528 249/461/527 273/463/531 272/464/532
f 253/465/533 254/356/371 258/355/370 257/466/534
f 251/263/280 252/467/535 256/468/536 255/264/281
f 252/467/537 253/465/538 257/466/539 256/468/540
f 257/466/534 258/355/370 262/357/372 261/469/541
f 255/264/281 256/468/536 260/470/542 259/266/283
f 256/468/540 257/466/539 261/469/543 260/470/544
f 261/469/541 262/357/372 286/369/382 285/471/545
f 259/266/283 260/470/542 284/472/546 283/277/292
f 260/470/544 261/469/543 285/471/547 284/472/548
f 214/337/351 213/445/494 265/473/549 266/359/374
f 213/445/499 212/447/498 264/474/550 265/473/551
f 212/447/496 211/239/254 263/267/284 264/474/552
f 269/455/514 270/361/364 246/352/367 245/459/521
f 267/270/273 268/456/520 244/460/523 243/258/276
f 268/456/516 269/455/519 245/459/526 244/460/525
f 273/463/529 274/363/376 278/365/378 277/475/553
f 271/272/287 272/464/530 276/476/554 275/274/289
f 272/464/532 273/463/531 277/475/555 276/476/556
f 254/356/371 253/465/533 277/475/553 278/365/378
f 253/465/538 252/467/537 276/476/556 277/475/555
f 252/467/535 251/263/280 275/274/289 276/476/554
f 266/359/374 265/473/549 281/477/557 282/367/380
f 265/473/551 264/474/550 280/478/558 281/477/559
f 264/474/552 263/267/284 279/275/290 280/478/560
f 282/367/380 281/477/557 285/471/545 286/369/382
f 281/477/559 280/478/558 284/472/548 285/471/547
f 280/478/560 279/275/290 283/277/292 284/472/546
f 293/14/20 294/16/19 338/387/398 337/479/561
f 291/12/12 292/11/11 336/480/562 335/297/310
f 292/11/16 293/14/15 337/479/563 336/480/562
f 297/420/451 298/305/318 310/373/384 309/481/564
f 295/200/213 296/422/453 308/482/565 307/283/296
f 296/422/453 297/420/451 309/481/566 308/482/565
f 302/348/362 301/483/567 305/484/568 306/349/363
f 301/483/569 300/485/570 304/486/571 305/484/572
f 300/485/573 299/254/269 303/253/268 304/486/574
f 309/481/564 310/373/384 314/375/386 313/487/575
f 307/283/296 308/482/565 312/488/576 311/285/298
f 308/482/565 309/481/566 313/487/577 312/488/576
f 242/371/365 241/457/515 313/487/575 314/375/386
f 241/457/518 240/458/517 312/488/576 313/487/577
f 240/458/517 239/281/272 311/285/298 312/488/576
f 317/443/489 318/377/388 322/379/390 321/489/578
f 315/287/300 316/444/491 320/490/579 319/289/302
f 316/444/493 317/443/489 321/489/578 320/490/580
f 321/489/578 322/379/390 326/381/392 325/491/581
f 319/289/302 320/490/579 324/492/582 323/291/304
f 320/490/580 321/489/578 325/491/581 324/492/583
f 167/4/4 168/3/3 325/491/581 326/381/392
f 168/3/3 169/6/6 324/492/583 325/491/581
f 169/6/6 170/8/8 323/291/304 324/492/582
f 329/407/427 330/383/394 334/385/396 333/493/584
f 327/293/306 328/408/428 332/494/585 331/295/308
f 328/408/429 329/407/427 333/493/584 332/494/586
f 306/349/363 305/484/568 333/493/584 334/385/396
f 305/484/572 304/486/571 332/494/586 333/493/584
f 304/486/574 303/253/268 331/295/308 332/494/585
f 337/479/561 338/387/398 342/389/400 341/495/587
f 335/297/310 336/480/562 340/496/588 339/299/312
f 336/480/562 337/479/563 341/495/589 340/496/588
f 134/304/317 133/401/418 341/495/587 342/389/400
f 133/401/418 132/402/419 340/496/588 341/495/589
f 132/402/419 131/198/211 339/299/312 340/496/588
f 345/18/22 346/17/21 370/308/321 369/497/590
f 343/23/27 344/21/25 368/498/591 367/103/118
f 344/21/25 345/18/22 369/497/590 368/498/591
f 361/34/39 362/33/38 406/322/335 405/499/592
f 359/39/46 360/37/45 404/500/593 403/121/136
f 360/37/43 361/34/42 405/499/592 404/500/593
f 365/38/44 366/40/47 538/174/187 537/501/594
f 363/36/41 364/35/40 536/502/595 535/374/385
f 364/35/40 365/38/44 537/501/594 536/502/595
f 351/31/36 352/29/35 369/497/590 370/308/321
f 352/29/33 353/26/30 368/498/591 369/497/590
f 353/26/30 354/25/29 367/103/118 368/498/591
f 373/42/49 374/41/48 422/107/122 421/503/596
f 371/47/54 372/45/52 420/504/597 419/329/342
f 372/45/52 373/42/49 421/503/596 420/504/597
f 377/46/53 378/48/55 382/312/325 381/505/598
f 375/44/51 376/43/50 380/506/599 379/109/124
f 376/43/50 377/46/53 381/505/598 380/506/599
f 381/505/598 382/312/325 386/314/327 385/507/600
f 379/109/124 380/506/599 384/508/601 383/111/126
f 380/506/599 381/505/598 385/507/600 384/508/601
f 385/507/600 386/314/327 390/316/329 389/509/602
f 383/111/126 384/508/601 388/510/603 387/113/128
f 384/508/601 385/507/600 389/509/602 388/510/603
f 389/509/602 390/316/329 394/318/331 393/511/604
f 387/113/128 388/510/603 392/512/605 391/115/130
f 388/510/603 389/509/602 393/511/604 392/512/605
f 393/511/604 394/318/331 398/319/332 397/513/606
f 391/115/130 392/512/605 396/514/607 395/117/132
f 392/512/605 393/511/604 397/513/606 396/514/607
f 395/117/132 396/514/607 401/515/608 402/119/134
f 396/514/607 397/513/606 400/516/609 401/515/610
f 397/513/606 398/319/332 399/320/333 400/516/611
f 405/499/592 406/322/335 410/324/337 409/517/612
f 403/121/136 404/500/593 408/518/613 407/123/138
f 404/500/593 405/499/592 409/517/612 408/518/613
f 409/517/612 410/324/337 414/326/339 413/519/614
f 407/123/138 408/518/613 412/520/615 411/125/140
f 408/518/613 409/517/612 413/519/614 412/520/615
f 413/519/614 414/326/339 418/328/341 417/521/616
f 411/125/140 412/520/615 416/522/617 415/127/142
f 412/520/615 413/519/614 417/521/616 416/522/617
f 347/20/24 348/19/23 417/521/616 418/328/341
f 348/19/23 349/22/26 416/522/617 417/521/616
f 349/22/26 350/24/28 415/127/142 416/522/617
f 421/503/596 422/107/122 558/184/197 557/523/618
f 419/329/342 420/504/597 556/524/619 555/384/395
f 420/504/597 421/503/596 557/523/618 556/524/619
f 425/50/57 426/49/56 450/137/153 449/525/620
f 423/55/62 424/53/60 448/526/621 447/339/353
f 424/53/60 425/50/57 449/525/620 448/526/621
f 429/54/61 430/56/63 434/334/347 433/527/622
f 427/52/59 428/51/58 432/528/623 431/131/146
f 428/51/58 429/54/61 433/527/622 432/528/623
f 433/527/622 434/334/347 462/345/359 461/529/624
f 431/131/146 432/528/623 460/530/625 459/142/158
f 432/528/623 433/527/622 461/529/624 460/530/625
f 445/66/77 446/68/79 502/360/375 501/533/626
f 443/64/75 444/63/74 500/534/627 499/157/174
f 444/63/74 445/66/77 501/533/626 500/534/627
f 449/525/620 450/137/153 454/139/155 453/535/628
f 447/339/353 448/526/621 452/536/629 451/341/355
f 448/526/621 449/525/620 453/535/628 452/536/629
f 435/58/65 436/57/64 453/535/628 454/139/155
f 436/57/64 437/59/68 452/536/629 453/535/628
f 437/59/68 438/60/70 451/341/355 452/536/629
f 457/531/67 458/141/66 478/149/156 477/537/630
f 455/343/71 456/532/69 476/538/631 475/351/357
f 456/532/69 457/531/67 477/537/630 476/538/631
f 461/529/624 462/345/359 466/347/361 465/539/632
f 459/142/158 460/530/625 464/540/633 463/144/160
f 460/530/625 461/529/624 465/539/632 464/540/633
f 439/67/78 440/65/76 465/539/632 466/347/361
f 440/65/76 441/62/73 464/540/633 465/539/632
f 441/62/73 442/61/72 463/144/160 464/540/633
f 477/537/630 478/149/156 546/178/191 545/541/634
f 475/351/357 476/538/631 544/542/635 543/378/389
f 476/538/631 477/537/630 545/541/634 544/542/636
f 481/78/637 482/77/168 486/152/167 485/547/638
f 479/80/368 480/79/639 484/548/640 483/354/369
f 480/79/639 481/78/637 485/547/638 484/548/640
f 485/547/638 486/152/167 510/162/177 509/549/641
f 483/354/369 484/548/640 508/550/642 507/364/377
f 484/548/640 485/547/638 509/549/641 508/550/642
f 489/82/97 490/81/96 498/156/173 497/551/643
f 487/87/102 488/85/100 496/552/644 495/358/373
f 488/85/100 489/82/97 497/551/643 496/552/644
f 501/533/626 502/360/375 518/368/381 517/553/645
f 499/157/174 500/534/627 516/554/646 515/165/180
f 500/534/627 501/533/626 517/553/645 516/554/646
f 505/543/89 506/160/88 482/77/168 481/78/637
f 503/362/94 504/544/92 480/79/639 479/80/368
f 504/544/92 505/543/89 481/78/637 480/79/639
f 509/549/641 510/162/177 514/164/179 513/555/647
f 507/364/377 508/550/642 512/556/648 511/366/379
f 508/550/642 509/549/641 513/555/647 512/556/648
f 491/84/99 492/83/98 513/555/647 514/164/179
f 492/83/98 493/86/101 512/556/648 513/555/647
f 493/86/101 494/88/103 511/366/379 512/556/648
f 517/553/645 518/368/381 522/370/383 521/557/649
f 515/165/180 516/554/646 520/558/650 519/167/182
f 516/554/646 517/553/645 521/557/649 520/558/650
f 495/358/373 496/552/644 521/557/649 522/370/383
f 496/552/644 497/551/643 520/558/650 521/557/649
f 497/551/643 498/156/173 519/167/182 520/558/650
f 525/90/105 526/89/104 566/188/201 565/559/651
f 523/95/110 524/93/108 564/560/652 563/388/399
f 524/93/108 525/90/105 565/559/651 564/560/652
f 537/501/594 538/174/187 542/176/189 541/561/653
f 535/374/385 536/502/595 540/562/654 539/376/387
f 536/502/595 537/501/594 541/561/655 540/562/654
f 531/171/91 532/546/90 541/561/653 542/176/189
f 532/546/90 533/545/93 540/562/654 541/561/655
f 533/545/93 534/372/95 539/376/387 540/562/654
f 545/541/634 546/178/191 550/180/193 549/563/656
f 543/378/389 544/542/635 548/564/657 547/380/391
f 544/542/636 545/541/634 549/563/656 548/564/658
f 549/563/656 550/180/193 554/182/195 553/565/659
f 547/380/391 548/564/657 552/566/660 551/382/393
f 548/564/658 549/563/656 553/565/661 552/566/662
f 402/119/134 401/515/608 553/565/659 554/182/195
f 401/515/610 400/516/609 552/566/662 553/565/661
f 400/516/611 399/320/333 551/382/393 552/566/660
f 557/523/618 558/184/197 562/186/199 561/567/663
f 555/384/395 556/524/619 560/568/664 559/386/397
f 556/524/619 557/523/618 561/567/663 560/568/664
f 471/72/83 472/71/82 561/567/663 562/186/199
f 472/71/82 473/74/85 560/568/664 561/567/663
f 473/74/85 474/76/87 559/386/397 560/568/664
f 565/559/651 566/188/201 570/190/203 569/569/665
f 563/388/399 564/560/652 568/570/666 567/390/401
f 564/560/652 565/559/651 569/569/665 568/570/666
f 355/28/32 356/27/31 569/569/665 570/190/203
f 356/27/31 357/30/34 568/570/666 569/569/665
f 357/30/34 358/32/37 567/390/401 568/570/666
