# This file uses centimeters as units for non-parametric coordinates.

mtllib BossStatueStone.mtl
g default
v 135.680660 293.345665 4935.583592
v 127.443355 288.900902 4895.377049
v 113.359493 330.938194 4907.750096
v 111.732036 328.518547 4941.263768
v 130.918087 313.218376 4937.025975
v 123.827450 305.599113 4962.335545
v 139.283138 279.389915 4950.973729
v 113.713619 317.106560 4897.908787
v 99.317448 341.514244 4905.947850
v 95.495342 342.667534 4936.993748
v 102.187549 322.227409 4963.339451
v 84.646763 343.328636 4947.014256
v 53.131809 331.701652 4960.253514
v 60.148327 315.867698 4973.545506
v 95.976566 305.442375 4977.269139
v 70.350040 303.145714 4979.130467
v 49.978863 302.180504 4979.582127
v 30.244140 317.804832 4964.372654
v 55.090862 335.952354 4934.210057
v 26.079975 316.343101 4940.045506
v 47.710163 322.839653 4890.711033
v 24.007725 295.289390 4887.424901
v 78.573757 332.014671 4888.855565
v 100.654690 293.622581 4875.500096
v 127.545559 255.117805 4891.607518
v 112.383480 271.093803 4872.399510
v 29.828709 252.903236 4876.859471
v 84.237461 280.325737 4873.535252
v 77.035450 235.538856 4871.720799
v 73.967190 310.978905 4881.992283
v 2.801975 213.616752 4913.342381
v -0.803522 230.091896 4914.155858
v 15.239513 245.113029 4891.738865
v 25.434921 228.060234 4883.893651
v -0.251822 256.602241 4916.745213
v 8.740318 271.914024 4904.843846
v 20.847538 287.973869 4968.121678
v 14.549114 292.429680 4945.171971
v 7.556766 266.769981 4948.316990
v 17.407368 266.907524 4971.762791
v 42.176060 266.450462 4989.931248
v 85.983539 284.426811 4984.512303
v 47.997631 218.427162 5000.235447
v 100.157101 227.836433 4998.365818
v 35.106991 224.706672 4998.306736
v 11.129986 231.822532 4946.236424
v 23.927212 229.356453 4975.854100
v 10.888794 195.736961 4917.747654
v 26.318683 197.139442 4971.087010
v 22.233875 193.768593 4960.643162
v 8.313969 192.791694 4925.925877
v 55.439327 195.191917 4985.453221
v 117.875393 217.094856 4988.942967
v 111.960506 300.904625 4976.333104
v 116.767513 285.184776 4977.970799
v 130.947079 231.731361 4982.057225
v 145.286465 234.603966 4961.398045
v 123.510036 227.327019 4872.738865
v 115.901516 226.367348 4869.558690
v 97.263508 195.478004 4876.833592
v 55.964680 194.589577 4880.469822
v 104.880535 191.641945 4888.833592
v 128.452907 206.611610 4902.710545
v 118.316021 196.713051 4948.963475
v 135.188137 208.051201 4940.433690
v 142.868648 224.870064 4961.919041
v 135.020229 227.465294 4979.345311
v 142.258785 228.254539 4969.146580
v 88.549076 195.114479 4979.666600
v 112.830013 193.239174 4949.358006
v 142.394710 228.941322 4949.395115
v 135.372341 264.475151 4928.239842
v 132.014950 290.210991 4919.112889
v 126.078152 313.618614 4918.462986
v 118.709514 330.492332 4921.507908
v 102.593105 342.993553 4917.829197
v 53.365330 332.926445 4913.356053
v 24.505398 311.768577 4915.600193
v 10.154140 286.956627 4923.758885
v 1.483770 262.901039 4932.815526
v 5.148357 231.630302 4931.900975
v 7.186394 200.465538 4917.767674
v 50.268986 201.535301 4879.452733
v 52.025081 241.320762 4873.089451
v 54.097393 283.585624 4878.640721
v 60.304806 313.594871 4884.688572
v 102.171047 190.412544 4893.516697
v 62.427181 194.235969 4984.098729
v 93.575405 190.830955 4880.309666
v 55.038448 190.831810 4883.303807
vt 0.663245 0.155433
vt 0.696773 0.153334
vt 0.700221 0.184117
vt 0.666550 0.183272
vt 0.627396 0.145270
vt 0.620124 0.192037
vt 0.692935 0.208921
vt 0.660544 0.217390
vt 0.699939 0.237631
vt 0.673503 0.248401
vt 0.660112 0.262629
vt 0.624776 0.232841
vt 0.645363 0.308487
vt 0.610826 0.301576
vt 0.590806 0.285008
vt 0.593869 0.241456
vt 0.638585 0.344188
vt 0.594990 0.321763
vt 0.678485 0.354091
vt 0.685723 0.304524
vt 0.719058 0.306400
vt 0.720177 0.357093
vt 0.752378 0.262212
vt 0.757823 0.308933
vt 0.719256 0.240039
vt 0.714058 0.218972
vt 0.737092 0.203147
vt 0.794016 0.209879
vt 0.746400 0.160511
vt 0.765874 0.123417
vt 0.807030 0.174720
vt 0.895444 0.238061
vt 0.877794 0.317352
vt 0.817143 0.302481
vt 0.824911 0.236588
vt 0.778078 0.288526
vt 0.783093 0.263495
vt 0.839489 0.408796
vt 0.726480 0.500617
vt 0.722721 0.473032
vt 0.793781 0.413337
vt 0.717996 0.437965
vt 0.747254 0.406330
vt 0.774684 0.355659
vt 0.831602 0.367637
vt 0.663955 0.390312
vt 0.617117 0.378749
vt 0.705694 0.398896
vt 0.597804 0.399308
vt 0.647515 0.423751
vt 0.681726 0.434546
vt 0.551297 0.349871
vt 0.560282 0.256946
vt 0.485697 0.358875
vt 0.477130 0.217838
vt 0.506169 0.380486
vt 0.545718 0.422648
vt 0.620593 0.471955
vt 0.667084 0.477824
vt 0.716664 0.538711
vt 0.715571 0.552188
vt 0.481422 0.439689
vt 0.683808 0.572818
vt 0.503690 0.470123
vt 0.442440 0.386945
vt 0.473340 0.151667
vt 0.593900 0.212760
vt 0.576431 0.196698
vt 0.520224 0.140279
vt 0.573863 0.104068
vt 0.843011 0.125870
vt 0.824066 0.110931
vt 0.925504 0.089920
vt 0.985028 0.357520
vt 0.947288 0.366926
vt 0.742697 0.041721
vt 0.865040 0.033005
vt 0.596126 0.083586
vt 0.673523 0.114832
vt 0.528801 0.021439
vt 0.600891 0.051503
vt 0.562050 0.091755
vt 0.552156 0.108891
vt 0.526463 0.128260
vt 0.422026 0.254633
vt 0.513639 0.018360
vt 0.845718 0.016526
vt 0.439009 0.382729
vt 0.948096 0.092685
vt 0.991063 0.375858
vn 0.939725 0.236829 -0.246634
vn 0.905237 0.307250 -0.293503
vn 0.886529 0.398208 -0.235578
vn 0.892389 0.442500 -0.088517
vn 0.909932 0.329087 0.252439
vn 0.909932 0.329087 0.252439
vn 0.909932 0.329087 0.252439
vn 0.909932 0.329087 0.252439
vn 0.892389 0.442500 -0.088517
vn 0.886529 0.398208 -0.235578
vn 0.834175 0.537736 -0.122441
vn 0.777677 0.623294 0.081996
vn 0.603158 0.788555 0.119923
vn 0.610140 0.789339 0.068369
vn 0.576855 0.776195 0.254478
vn 0.576855 0.776195 0.254478
vn 0.500284 0.741042 0.447854
vn 0.500284 0.741042 0.447854
vn 0.500284 0.741042 0.447854
vn 0.500284 0.741042 0.447854
vn 0.593676 0.691570 0.411437
vn 0.593676 0.691570 0.411437
vn 0.593676 0.691570 0.411437
vn 0.593676 0.691570 0.411437
vn 0.079274 0.655156 0.751323
vn 0.079274 0.655156 0.751323
vn 0.079274 0.655156 0.751323
vn 0.079274 0.655156 0.751323
vn 0.076183 0.557187 0.826885
vn 0.076183 0.557187 0.826885
vn 0.076183 0.557187 0.826885
vn 0.076183 0.557187 0.826885
vn -0.211868 0.551071 0.807114
vn -0.211868 0.551071 0.807114
vn -0.211868 0.551071 0.807114
vn -0.211868 0.551071 0.807114
vn -0.531549 0.844130 0.070007
vn -0.531549 0.844130 0.070007
vn -0.531549 0.844130 0.070007
vn -0.531549 0.844130 0.070007
vn -0.615948 0.765966 -0.184133
vn -0.624599 0.752045 -0.210486
vn -0.582056 0.807798 -0.093132
vn -0.582056 0.807798 -0.093132
vn -0.245866 0.969261 0.009158
vn -0.245866 0.969261 0.009158
vn -0.245866 0.969261 0.009158
vn -0.245866 0.969261 0.009158
vn -0.196256 0.965870 -0.169050
vn -0.200817 0.961469 -0.187750
vn -0.176265 0.980238 -0.089795
vn -0.176265 0.980238 -0.089795
vn -0.290185 0.941546 -0.171125
vn -0.290185 0.941546 -0.171125
vn -0.290185 0.941546 -0.171125
vn 0.425387 0.499473 -0.754700
vn 0.425387 0.499473 -0.754701
vn 0.425387 0.499473 -0.754701
vn 0.425387 0.499473 -0.754701
vn 0.490873 0.442927 -0.750240
vn 0.490873 0.442927 -0.750240
vn 0.490873 0.442927 -0.750240
vn 0.490873 0.442927 -0.750240
vn 0.721829 0.231231 -0.652300
vn 0.721829 0.231231 -0.652299
vn 0.721829 0.231231 -0.652299
vn 0.721829 0.231231 -0.652300
vn -0.100759 0.094532 -0.990410
vn -0.120464 0.125440 -0.984760
vn -0.129522 0.139677 -0.981690
vn -0.100759 0.094532 -0.990410
vn -0.172930 0.240350 -0.955158
vn -0.178413 0.243746 -0.953287
vn -0.142162 0.221182 -0.964815
vn -0.142162 0.221182 -0.964815
vn -0.052173 0.278535 -0.959008
vn -0.052173 0.278535 -0.959008
vn -0.052173 0.278535 -0.959008
vn -0.052173 0.278535 -0.959008
vn -0.146595 0.354344 -0.923553
vn -0.146595 0.354344 -0.923553
vn -0.146595 0.354344 -0.923553
vn -0.146595 0.354344 -0.923553
vn -0.752457 -0.143745 -0.642765
vn -0.752457 -0.143745 -0.642765
vn -0.752457 -0.143745 -0.642765
vn -0.752457 -0.143745 -0.642765
vn -0.833767 0.068279 -0.547878
vn -0.833767 0.068279 -0.547878
vn -0.833767 0.068279 -0.547878
vn -0.833767 0.068279 -0.547878
vn -0.769229 0.079916 -0.633956
vn -0.769229 0.079916 -0.633956
vn -0.769229 0.079916 -0.633956
vn -0.769229 0.079916 -0.633956
vn -0.895480 0.385449 0.222585
vn -0.895480 0.385449 0.222585
vn -0.895480 0.385449 0.222585
vn -0.895480 0.385449 0.222585
vn -0.887473 0.442880 -0.127475
vn -0.886894 0.438471 -0.145470
vn -0.881782 0.471518 0.011476
vn -0.881782 0.471518 0.011476
vn -0.906526 0.251631 0.338959
vn -0.906526 0.251631 0.338959
vn -0.906526 0.251631 0.338959
vn -0.906526 0.251631 0.338959
vn -0.925297 0.335096 0.177584
vn -0.925297 0.335096 0.177584
vn -0.937609 0.344729 0.045286
vn -0.937997 0.345560 0.027366
vn -0.572902 0.229577 0.786815
vn -0.572902 0.229577 0.786815
vn -0.572902 0.229577 0.786815
vn -0.472940 0.302053 0.827702
vn -0.472940 0.302053 0.827702
vn -0.472940 0.302053 0.827702
vn -0.472940 0.302053 0.827702
vn 0.001206 0.402805 0.915285
vn 0.001206 0.402805 0.915285
vn 0.001206 0.402805 0.915285
vn 0.041444 0.307876 0.950523
vn 0.041444 0.307876 0.950523
vn 0.041444 0.307876 0.950523
vn 0.005723 0.278308 0.960475
vn 0.005723 0.278308 0.960475
vn 0.005723 0.278308 0.960475
vn 0.005723 0.278308 0.960475
vn 0.009280 0.226677 0.973926
vn 0.009280 0.226677 0.973926
vn 0.009280 0.226677 0.973926
vn 0.009280 0.226677 0.973926
vn -0.046869 0.204120 0.977823
vn -0.046869 0.204120 0.977823
vn -0.046869 0.204120 0.977823
vn -0.915283 -0.116731 0.385526
vn -0.915283 -0.116731 0.385526
vn -0.915283 -0.116731 0.385527
vn -0.915283 -0.116731 0.385527
vn -0.915114 -0.117464 0.385705
vn -0.915114 -0.117464 0.385705
vn -0.938961 -0.098373 0.329659
vn -0.945144 -0.092777 0.313203
vn -0.866600 -0.279027 0.413700
vn -0.854581 -0.291171 0.430012
vn -0.829512 -0.314617 0.461440
vn -0.829512 -0.314617 0.461440
vn -0.931507 -0.182510 0.314619
vn -0.931507 -0.182510 0.314619
vn -0.931507 -0.182510 0.314619
vn -0.931507 -0.182510 0.314619
vn -0.709634 0.669858 0.218424
vn -0.709634 0.669858 0.218424
vn -0.709634 0.669858 0.218424
vn -0.709634 0.669858 0.218424
vn -0.898093 -0.128883 0.420498
vn -0.898093 -0.128883 0.420498
vn -0.898093 -0.128883 0.420498
vn -0.737430 0.109876 0.666426
vn -0.737430 0.109876 0.666426
vn -0.737430 0.109876 0.666426
vn -0.737431 0.109876 0.666426
vn -0.390774 -0.580348 0.714487
vn -0.390774 -0.580348 0.714487
vn -0.390774 -0.580348 0.714487
vn -0.390774 -0.580348 0.714487
vn 0.127615 -0.511050 0.850025
vn 0.127615 -0.511050 0.850025
vn 0.127615 -0.511050 0.850025
vn 0.127615 -0.511050 0.850025
vn 0.374835 0.601639 0.705358
vn 0.374835 0.601639 0.705358
vn 0.374835 0.601639 0.705358
vn 0.374835 0.601639 0.705358
vn 0.750624 0.218098 0.623697
vn 0.750624 0.218098 0.623697
vn 0.750624 0.218098 0.623697
vn 0.750624 0.218098 0.623697
vn 0.774109 0.245243 0.583620
vn 0.774108 0.245243 0.583620
vn 0.774108 0.245243 0.583620
vn 0.774109 0.245243 0.583620
vn 0.448008 0.149337 0.881469
vn 0.448008 0.149337 0.881469
vn 0.448008 0.149337 0.881469
vn 0.448008 0.149337 0.881469
vn 0.195036 0.254140 0.947298
vn 0.195036 0.254140 0.947298
vn 0.195036 0.254140 0.947298
vn 0.195036 0.254140 0.947298
vn 0.131575 0.266495 0.954813
vn 0.131575 0.266495 0.954813
vn 0.131575 0.266495 0.954813
vn 0.748376 0.185321 -0.636859
vn 0.748376 0.185321 -0.636859
vn 0.748376 0.185321 -0.636859
vn 0.748376 0.185321 -0.636859
vn -0.034473 0.053325 -0.997982
vn -0.034473 0.053325 -0.997982
vn -0.034473 0.053325 -0.997982
vn -0.034473 0.053325 -0.997982
vn 0.005718 0.139236 -0.990243
vn 0.005718 0.139236 -0.990243
vn 0.005718 0.139236 -0.990243
vn -0.088560 -0.169974 -0.981461
vn -0.088560 -0.169974 -0.981461
vn -0.088560 -0.169974 -0.981461
vn -0.088560 -0.169974 -0.981461
vn -0.561113 -0.507557 -0.653864
vn -0.561113 -0.507557 -0.653864
vn -0.587596 -0.450994 -0.671815
vn -0.580609 -0.466633 -0.667194
vn -0.078392 -0.161967 -0.983677
vn -0.145580 -0.164168 -0.975631
vn -0.219793 -0.165737 -0.961365
vn -0.078392 -0.161967 -0.983677
vn -0.689946 -0.081642 -0.719242
vn -0.689946 -0.081642 -0.719242
vn -0.689946 -0.081642 -0.719242
vn 0.636148 -0.567748 -0.522473
vn 0.636148 -0.567748 -0.522473
vn 0.636148 -0.567748 -0.522473
vn 0.636148 -0.567748 -0.522473
vn 0.393895 -0.429111 -0.812841
vn 0.393895 -0.429111 -0.812841
vn 0.393895 -0.429111 -0.812841
vn 0.969568 0.019163 -0.244072
vn 0.969285 0.014108 -0.245534
vn 0.970907 0.067076 -0.229868
vn 0.970907 0.067076 -0.229868
vn 0.983845 -0.022257 -0.177636
vn 0.983845 -0.022257 -0.177636
vn 0.983845 -0.022257 -0.177636
vn 0.977365 0.039640 -0.207815
vn 0.977382 0.039430 -0.207771
vn 0.977108 0.042587 -0.208436
vn 0.977108 0.042587 -0.208436
vn 0.619279 -0.701910 0.351874
vn 0.619279 -0.701911 0.351874
vn 0.619279 -0.701910 0.351874
vn 0.619279 -0.701910 0.351874
vn 0.622743 -0.682753 0.382150
vn 0.622743 -0.682753 0.382150
vn 0.622743 -0.682753 0.382150
vn 0.622743 -0.682753 0.382150
vn 0.466979 -0.782423 0.412000
vn 0.466979 -0.782424 0.412000
vn 0.466979 -0.782424 0.412000
vn 0.466979 -0.782423 0.412000
vn 0.750488 0.342184 0.565400
vn 0.750488 0.342184 0.565400
vn 0.750488 0.342184 0.565400
vn 0.750488 0.342184 0.565400
vn 0.512846 -0.054946 0.856721
vn 0.512846 -0.054946 0.856721
vn 0.512846 -0.054946 0.856721
vn 0.967974 -0.005012 -0.251002
vn 0.967974 -0.005012 -0.251002
vn 0.969285 0.014108 -0.245534
vn 0.969568 0.019163 -0.244072
vn 0.977491 0.038141 -0.207499
vn 0.977382 0.039430 -0.207771
vn 0.977365 0.039640 -0.207815
vn 0.977491 0.038141 -0.207499
vn 0.886529 0.398208 -0.235578
vn 0.905237 0.307250 -0.293503
vn 0.881401 0.347511 -0.319951
vn 0.868964 0.356750 -0.342973
vn 0.834175 0.537736 -0.122441
vn 0.886529 0.398208 -0.235578
vn 0.868964 0.356750 -0.342973
vn 0.840418 0.375408 -0.390853
vn 0.617154 0.750029 -0.237861
vn 0.617154 0.750029 -0.237861
vn 0.610140 0.789339 0.068369
vn 0.603158 0.788555 0.119923
vn -0.217620 0.941056 -0.258951
vn -0.217620 0.941056 -0.258951
vn -0.200817 0.961469 -0.187750
vn -0.196256 0.965870 -0.169050
vn -0.647380 0.704816 -0.290057
vn -0.624599 0.752045 -0.210486
vn -0.615948 0.765966 -0.184133
vn -0.647380 0.704816 -0.290057
vn -0.878675 0.412461 -0.240430
vn -0.886894 0.438471 -0.145470
vn -0.887473 0.442880 -0.127475
vn -0.878675 0.412461 -0.240430
vn -0.937997 0.345560 0.027366
vn -0.937609 0.344729 0.045286
vn -0.928583 0.348080 -0.128742
vn -0.928583 0.348080 -0.128742
vn -0.945144 -0.092777 0.313203
vn -0.938961 -0.098373 0.329659
vn -0.969515 -0.066530 0.235826
vn -0.969515 -0.066530 0.235826
vn -0.923638 -0.210007 0.320610
vn -0.923638 -0.210007 0.320610
vn -0.854581 -0.291171 0.430012
vn -0.866600 -0.279027 0.413700
vn -0.580609 -0.466633 -0.667194
vn -0.587596 -0.450994 -0.671815
vn -0.593670 -0.436930 -0.675758
vn -0.593670 -0.436930 -0.675758
vn -0.219793 -0.165737 -0.961365
vn -0.145580 -0.164168 -0.975631
vn -0.298859 -0.166367 -0.939683
vn -0.298859 -0.166367 -0.939683
vn -0.129522 0.139677 -0.981690
vn -0.120464 0.125440 -0.984760
vn -0.153977 0.178211 -0.971870
vn -0.153977 0.178211 -0.971870
vn -0.201263 0.257835 -0.944994
vn -0.201263 0.257835 -0.944994
vn -0.178413 0.243746 -0.953287
vn -0.172930 0.240350 -0.955158
vn 0.970485 -0.241156 -0.001707
vn 0.970485 -0.241156 -0.001707
vn 0.970485 -0.241156 -0.001707
vn 0.970485 -0.241156 -0.001707
vn 0.952683 -0.264084 -0.150517
vn 0.952683 -0.264084 -0.150517
vn 0.952683 -0.264084 -0.150517
vn 0.952683 -0.264084 -0.150517
vn 0.549716 -0.833345 -0.057867
vn 0.549716 -0.833345 -0.057867
vn 0.549716 -0.833345 -0.057867
vn 0.549716 -0.833345 -0.057867
vn 0.478721 -0.877068 -0.039731
vn 0.478721 -0.877067 -0.039731
vn 0.478721 -0.877068 -0.039731
vn 0.478721 -0.877068 -0.039731
vn 0.144921 -0.528764 0.836305
vn 0.144921 -0.528764 0.836305
vn 0.144921 -0.528764 0.836305
vn 0.144921 -0.528764 0.836305
vn 0.335853 -0.869266 -0.362739
vn 0.335853 -0.869266 -0.362739
vn 0.335853 -0.869266 -0.362739
vn 0.335853 -0.869266 -0.362739
vn -0.061188 -0.577534 -0.814070
vn -0.061188 -0.577534 -0.814070
vn -0.061188 -0.577534 -0.814070
vn -0.061188 -0.577534 -0.814070
vn -0.509359 -0.653582 -0.559807
vn -0.509359 -0.653582 -0.559807
vn -0.509359 -0.653582 -0.559807
vn -0.509359 -0.653582 -0.559807
vn -0.182895 -0.936714 0.298523
vn -0.182895 -0.936714 0.298523
vn -0.182895 -0.936714 0.298523
vn -0.182895 -0.936714 0.298523
s off
g boss_whole_set:Rock2_LP97 boss_whole_set:boss_statue_geo BossStatue BossExt_grp
usemtl boss_whole_set:Rock2_LP97SG
f 1/1/1 73/2/2 74/3/3 5/4/4
f 7/5/5 1/1/6 5/4/7 6/6/8
f 5/4/9 74/3/10 75/7/11 4/8/12
f 75/7/13 76/9/14 10/10/15 4/8/16
f 12/11/17 11/12/18 4/8/19 10/10/20
f 5/4/21 4/8/22 11/12/23 6/6/24
f 12/11/25 13/13/26 14/14/27 11/12/28
f 16/15/29 15/16/30 11/12/31 14/14/32
f 18/17/33 17/18/34 14/14/35 13/13/36
f 20/19/37 18/17/38 13/13/39 19/20/40
f 77/21/41 78/22/42 20/19/43 19/20/44
f 13/13/45 12/11/46 10/10/47 19/20/48
f 76/9/49 77/21/50 19/20/51 10/10/52
f 23/23/53 21/24/54 9/25/55
f 9/25/56 3/26/57 8/27/58 23/23/59
f 24/28/60 23/23/61 8/27/62 2/29/63
f 2/29/64 25/30/65 26/31/66 24/28/67
f 29/32/68 84/33/69 85/34/70 28/35/71
f 85/34/72 86/36/73 30/37/74 28/35/75
f 28/35/76 30/37/77 23/23/78 24/28/79
f 30/37/80 86/36/81 21/24/82 23/23/83
f 34/38/84 31/39/85 32/40/86 33/41/87
f 32/40/88 35/42/89 36/43/90 33/41/91
f 22/44/92 27/45/93 33/41/94 36/43/95
f 38/46/96 37/47/97 18/17/98 20/19/99
f 78/22/100 79/48/101 38/46/102 20/19/103
f 40/49/104 37/47/105 38/46/106 39/50/107
f 39/50/108 38/46/109 79/48/110 80/51/111
f 37/47/112 40/49/113 41/52/114
f 41/52/115 17/18/116 18/17/117 37/47/118
f 17/18/119 16/15/120 14/14/121
f 16/15/122 42/53/123 15/16/124
f 16/15/125 17/18/126 41/52/127 42/53/128
f 42/53/129 41/52/130 43/54/131 44/55/132
f 41/52/133 45/56/134 43/54/135
f 47/57/136 40/49/137 39/50/138 46/58/139
f 46/58/140 39/50/141 80/51/142 81/59/143
f 81/59/144 82/60/145 48/61/146 46/58/147
f 48/61/148 49/62/149 47/57/150 46/58/151
f 51/63/152 50/64/153 49/62/154 48/61/155
f 47/57/156 49/62/157 45/56/158
f 45/56/159 41/52/160 40/49/161 47/57/162
f 52/65/163 43/54/164 45/56/165 49/62/166
f 44/55/167 43/54/168 52/65/169 53/66/170
f 54/67/171 6/6/172 11/12/173 15/16/174
f 6/6/175 54/67/176 55/68/177 7/5/178
f 55/68/179 56/69/180 57/70/181 7/5/182
f 53/66/183 56/69/184 55/68/185 44/55/186
f 44/55/187 55/68/188 54/67/189 42/53/190
f 42/53/191 54/67/192 15/16/193
f 59/71/194 26/31/195 25/30/196 58/72/197
f 59/71/198 29/32/199 28/35/200 26/31/201
f 24/28/202 26/31/203 28/35/204
f 59/71/205 60/73/206 61/74/207 29/32/208
f 61/74/209 48/61/210 82/60/211 83/75/212
f 61/74/213 83/75/214 84/33/215 29/32/216
f 27/45/217 34/38/218 33/41/219
f 63/76/220 62/77/221 60/73/222 58/72/223
f 60/73/224 59/71/225 58/72/226
f 71/78/227 72/79/228 7/5/229 57/70/230
f 58/72/231 25/30/232 63/76/233
f 72/79/234 73/2/235 1/1/236 7/5/237
f 53/66/238 64/80/239 65/81/240 66/82/241
f 68/83/242 67/84/243 53/66/244 66/82/245
f 64/80/246 53/66/247 69/85/248 70/86/249
f 67/84/250 68/83/251 57/70/252 56/69/253
f 56/69/254 53/66/255 67/84/256
f 63/76/257 25/30/258 72/79/259 71/78/260
f 2/29/261 73/2/262 72/79/263 25/30/264
f 74/3/265 73/2/266 2/29/267 8/27/268
f 75/7/269 74/3/270 8/27/271 3/26/272
f 3/26/273 9/25/274 76/9/275 75/7/276
f 9/25/277 21/24/278 77/21/279 76/9/280
f 22/44/281 78/22/282 77/21/283 21/24/284
f 36/43/285 79/48/286 78/22/287 22/44/288
f 80/51/289 79/48/290 36/43/291 35/42/292
f 81/59/293 80/51/294 35/42/295 32/40/296
f 32/40/297 31/39/298 82/60/299 81/59/300
f 83/75/301 82/60/302 31/39/303 34/38/304
f 84/33/305 83/75/306 34/38/307 27/45/308
f 85/34/309 84/33/310 27/45/311 22/44/312
f 22/44/313 21/24/314 86/36/315 85/34/316
f 66/82/317 71/78/318 57/70/319 68/83/320
f 66/82/321 65/81/322 63/76/323 71/78/324
f 63/76/325 65/81/326 64/80/327 62/77/328
f 70/86/329 87/87/330 62/77/331 64/80/332
f 88/88/333 69/85/334 53/66/335 52/65/336
f 60/73/337 62/77/338 87/87/339 89/89/340
f 61/74/341 60/73/342 89/89/343 90/90/344
f 48/61/345 61/74/346 90/90/347 51/63/348
f 52/65/349 49/62/350 50/64/351 88/88/352
g default
v 16.482254 246.654350 5039.263768
v 9.240387 250.819206 5037.537205
v 0.962953 243.779304 5048.845799
v 10.334144 236.717445 5052.966404
v 2.638904 260.717918 5026.826268
v 20.999439 256.233497 5022.944920
v 15.942264 257.232841 4997.127537
v 19.364616 246.567787 4994.714451
v 29.469200 244.681526 5020.702244
v 35.888546 233.343513 5017.535740
v 20.334087 213.621864 5053.531834
v 38.608806 201.655266 5022.056248
v 40.346912 213.773887 5022.832127
v 30.963840 205.251106 5042.280369
v 32.112205 201.565559 5038.973240
v 39.139751 221.875465 5021.068455
v -10.128697 248.632591 5043.283787
v -5.907782 241.771553 5051.402928
v -12.637829 244.724418 5047.696385
v -0.968598 240.023659 5049.968358
v 7.658932 229.079139 5056.045506
v 13.167492 219.873771 5054.829197
v -22.604921 200.182731 5050.515721
v -5.583927 199.042686 5044.104100
v -10.474210 223.612831 5065.195897
v -15.712573 229.221641 5064.294041
v -21.631134 230.143165 5062.055272
v -23.439005 228.410530 5062.841893
v -17.196201 225.514000 5066.038670
v -13.070748 221.195335 5064.588475
v -43.765679 223.970711 5043.122166
v -36.432526 224.525947 5055.778904
v -27.908955 202.913261 5056.196385
v -19.432387 210.009361 5057.119236
v -36.985783 216.298759 5055.700779
v -42.878555 215.899879 5045.978123
v -33.282894 221.433235 5057.486424
v 25.094524 196.366890 5035.324803
v -48.654644 218.974540 5027.275486
v -41.379109 205.011299 5037.599217
v -37.404049 225.876121 5033.488377
v -47.571163 231.086021 5023.258885
v -3.267618 261.759239 4981.957615
v -28.670262 253.265205 4982.526463
v -49.057194 238.112251 4988.439549
v -51.434525 228.551002 5014.590428
v -52.652783 233.314049 5002.096776
v 12.936680 258.071617 4987.641697
v 13.324344 250.791130 4977.179295
v 5.374689 252.881630 4974.411229
v 27.425144 229.519447 4988.819432
v 14.753979 246.517097 4976.811131
v 29.405819 230.864631 4992.753514
v 35.467438 213.765816 4982.668065
v 43.975010 209.979423 4994.234471
v 46.195606 215.921242 5010.777440
v 43.339863 221.857292 5015.494725
v 43.089710 206.898948 5018.357029
v 46.286159 207.437416 5011.925389
v 44.730495 203.659279 4999.676854
v 36.333359 201.829185 4983.574803
v 24.654430 225.394020 4984.545506
v 24.264980 204.381218 4979.622654
v 13.677704 219.887779 4969.048436
v 13.444416 238.270363 4973.040135
v 0.968271 244.464805 4970.829686
v 4.299484 237.901954 4969.920506
v -31.191937 245.845665 4977.515721
v -41.966396 237.994926 4977.646580
v -53.277298 231.526420 4983.007420
v -45.297115 232.734901 4975.985447
v -53.993172 232.069633 4993.774022
v -50.999397 218.814277 5021.278904
v -51.247311 214.193901 5017.920506
v -56.514488 218.013511 4980.307225
v -49.211598 218.646232 4972.262791
v -0.114803 205.827583 4970.182713
v 13.720615 198.407799 4977.359959
v -16.498850 206.794563 4970.038182
v -15.245511 222.214439 4970.539647
v -12.787431 240.636131 4972.874608
v -27.554960 200.966514 5053.856053
v -41.563908 203.528618 4972.696385
v -36.269592 194.548561 4992.112401
v -38.574879 198.089271 4977.333592
v -36.924984 199.741249 5018.616795
v 30.455189 196.111244 5020.993748
v 22.060787 197.865486 4985.437108
v 31.375595 197.602440 5001.959080
v 29.805652 196.252540 4992.484471
v -16.836843 197.021049 4976.398533
v -3.354698 196.312401 4978.777440
v 7.943851 193.892265 4986.193943
v -31.779270 242.442238 5029.926854
v -2.995791 262.765342 5010.899998
vt 0.789006 0.703139
vt 0.775384 0.717366
vt 0.745126 0.702397
vt 0.758595 0.676938
vt 0.774557 0.750105
vt 0.812968 0.737799
vt 0.867165 0.712113
vt 0.839494 0.724763
vt 0.784440 0.624143
vt 0.846730 0.615190
vt 0.904145 0.650434
vt 0.884582 0.672136
vt 0.833967 0.619611
vt 0.876294 0.688739
vt 0.728310 0.731289
vt 0.718014 0.724310
vt 0.727489 0.705712
vt 0.738006 0.696452
vt 0.747197 0.660526
vt 0.762428 0.639234
vt 0.691232 0.669032
vt 0.627834 0.642948
vt 0.690769 0.587551
vt 0.689578 0.688176
vt 0.679950 0.701125
vt 0.675110 0.700122
vt 0.683417 0.684008
vt 0.682567 0.669683
vt 0.685368 0.783657
vt 0.633754 0.761779
vt 0.646229 0.724792
vt 0.631608 0.717667
vt 0.647108 0.712780
vt 0.652961 0.659275
vt 0.619639 0.753579
vt 0.620590 0.675415
vt 0.844671 0.587979
vt 0.657644 0.823899
vt 0.627210 0.824660
vt 0.582739 0.781575
vt 0.642495 0.788319
vt 0.768852 0.860603
vt 0.778595 0.783551
vt 0.812747 0.831443
vt 0.721009 0.882971
vt 0.690101 0.867426
vt 0.663194 0.848410
vt 0.833518 0.787825
vt 0.836847 0.807439
vt 0.840861 0.839233
vt 0.853673 0.827227
vt 0.860369 0.786352
vt 0.897515 0.779475
vt 0.902198 0.792579
vt 0.862827 0.829100
vt 0.938967 0.790810
vt 0.909203 0.704910
vt 0.938578 0.745934
vt 0.891062 0.701066
vt 0.922045 0.692045
vt 0.907213 0.673103
vt 0.946700 0.724594
vt 0.963226 0.782476
vt 0.957250 0.834250
vt 0.910161 0.809573
vt 0.905652 0.869422
vt 0.874878 0.843897
vt 0.845880 0.859961
vt 0.860087 0.864353
vt 0.772325 0.880153
vt 0.750983 0.896216
vt 0.745207 0.907350
vt 0.719933 0.902123
vt 0.700233 0.884442
vt 0.632993 0.844482
vt 0.625646 0.861008
vt 0.707998 0.928969
vt 0.735161 0.936323
vt 0.953507 0.889035
vt 0.895287 0.922467
vt 0.838217 0.954989
vt 0.833013 0.921542
vt 0.819384 0.878253
vt 0.614612 0.674002
vt 0.742070 0.964897
vt 0.732376 0.978755
vt 0.662564 0.980455
vt 0.588601 0.882460
vt 0.918112 0.627411
vt 0.982862 0.824679
vt 0.975767 0.708140
vt 0.988421 0.761596
vt 0.840189 0.980455
vt 0.904960 0.954545
vt 0.954196 0.930947
vn 0.262043 0.721527 0.640884
vn 0.262043 0.721527 0.640884
vn 0.262043 0.721527 0.640884
vn 0.262043 0.721527 0.640884
vn 0.309824 0.782553 0.540018
vn 0.309824 0.782553 0.540018
vn 0.309824 0.782553 0.540018
vn 0.309824 0.782553 0.540018
vn 0.795463 0.303955 0.524261
vn 0.782646 0.357441 0.509608
vn 0.767547 0.408981 0.493565
vn 0.782214 0.321675 0.533542
vn 0.782214 0.321675 0.533542
vn 0.782214 0.321675 0.533542
vn 0.782214 0.321675 0.533542
vn 0.919578 -0.130088 0.370748
vn 0.919578 -0.130088 0.370748
vn 0.919578 -0.130088 0.370748
vn 0.919578 -0.130088 0.370748
vn 0.831726 0.233588 0.503655
vn 0.831726 0.233588 0.503655
vn 0.831726 0.233588 0.503655
vn 0.775914 0.334879 0.534615
vn 0.775914 0.334879 0.534615
vn 0.775914 0.334879 0.534615
vn 0.775915 0.334879 0.534615
vn 0.092727 0.785781 0.611515
vn 0.092727 0.785781 0.611515
vn 0.092727 0.785781 0.611515
vn 0.092727 0.785781 0.611515
vn -0.001541 0.763404 0.645920
vn -0.001541 0.763404 0.645920
vn -0.001541 0.763404 0.645920
vn -0.001541 0.763404 0.645920
vn 0.315598 0.119002 0.941401
vn 0.315598 0.119002 0.941401
vn 0.315598 0.119002 0.941401
vn -0.128418 0.388423 0.912489
vn -0.128418 0.388423 0.912489
vn -0.128418 0.388423 0.912489
vn -0.128418 0.388423 0.912489
vn 0.381326 0.164758 0.909640
vn 0.381326 0.164758 0.909640
vn 0.381326 0.164758 0.909640
vn 0.381326 0.164758 0.909640
vn 0.393297 -0.552545 0.734855
vn 0.393297 -0.552545 0.734855
vn 0.393297 -0.552545 0.734855
vn 0.393297 -0.552545 0.734855
vn -0.190851 -0.308074 0.932023
vn -0.190851 -0.308074 0.932023
vn -0.190851 -0.308074 0.932023
vn -0.190851 -0.308074 0.932023
vn 0.278390 0.561684 0.779109
vn 0.278390 0.561684 0.779109
vn 0.278390 0.561684 0.779109
vn 0.278390 0.561684 0.779109
vn 0.398205 0.487224 0.777203
vn 0.398206 0.487224 0.777203
vn 0.398205 0.487224 0.777203
vn -0.089880 0.736093 0.670886
vn -0.089880 0.736093 0.670886
vn -0.089880 0.736093 0.670886
vn -0.089880 0.736093 0.670886
vn -0.210255 0.514110 0.831555
vn -0.210255 0.514110 0.831555
vn -0.210255 0.514110 0.831555
vn -0.210255 0.514110 0.831555
vn 0.147502 0.084715 0.985427
vn 0.147502 0.084715 0.985427
vn 0.147502 0.084715 0.985427
vn 0.147502 0.084715 0.985427
vn -0.541268 0.713908 0.444258
vn -0.541268 0.713908 0.444258
vn -0.541268 0.713908 0.444258
vn -0.541268 0.713908 0.444258
vn -0.435629 0.863354 0.254652
vn -0.435629 0.863354 0.254652
vn -0.435629 0.863354 0.254652
vn -0.435629 0.863354 0.254652
vn -0.415445 -0.399120 0.817379
vn -0.415445 -0.399120 0.817379
vn -0.415445 -0.399120 0.817379
vn -0.415445 -0.399120 0.817379
vn -0.128170 -0.098773 0.986821
vn -0.152391 -0.090558 0.984163
vn -0.459328 0.022429 0.887983
vn -0.320156 -0.291704 0.901337
vn -0.320156 -0.291704 0.901337
vn -0.320156 -0.291704 0.901337
vn -0.320156 -0.291704 0.901337
vn -0.860155 0.068512 0.505410
vn -0.860155 0.068512 0.505410
vn -0.860155 0.068512 0.505410
vn -0.860155 0.068512 0.505410
vn -0.152391 -0.090558 0.984163
vn -0.128170 -0.098773 0.986821
vn -0.116627 -0.102656 0.987856
vn -0.116627 -0.102656 0.987856
vn 0.153349 -0.696920 0.700562
vn 0.153349 -0.696920 0.700562
vn 0.153349 -0.696920 0.700562
vn 0.153349 -0.696920 0.700562
vn -0.477355 0.774690 0.414713
vn -0.477355 0.774690 0.414713
vn -0.477355 0.774690 0.414713
vn -0.589243 0.277401 0.758842
vn -0.589243 0.277401 0.758842
vn -0.589243 0.277400 0.758842
vn -0.589243 0.277400 0.758842
vn -0.567697 0.352674 0.743869
vn -0.567697 0.352674 0.743869
vn -0.567697 0.352674 0.743869
vn -0.837292 0.172767 -0.518743
vn -0.837292 0.172767 -0.518743
vn -0.837292 0.172767 -0.518743
vn -0.838072 0.052684 -0.543009
vn -0.838072 0.052684 -0.543010
vn -0.838072 0.052684 -0.543009
vn -0.992733 -0.117808 -0.024560
vn -0.992733 -0.117808 -0.024560
vn -0.992733 -0.117808 -0.024560
vn -0.439262 0.892943 0.098498
vn -0.439262 0.892943 0.098498
vn -0.439262 0.892943 0.098498
vn -0.439262 0.892943 0.098498
vn -0.585524 0.794521 0.160925
vn -0.585524 0.794521 0.160925
vn -0.585524 0.794521 0.160925
vn -0.585524 0.794521 0.160925
vn -0.602290 0.765838 0.225253
vn -0.602290 0.765839 0.225253
vn -0.602290 0.765839 0.225253
vn -0.602290 0.765838 0.225253
vn 0.248224 0.968370 -0.025386
vn 0.248224 0.968370 -0.025386
vn 0.248224 0.968370 -0.025386
vn 0.248224 0.968370 -0.025386
vn 0.365399 0.776443 -0.513440
vn 0.365399 0.776443 -0.513440
vn 0.365399 0.776443 -0.513440
vn 0.365399 0.776443 -0.513440
vn 0.798371 0.537327 -0.271814
vn 0.791415 0.536177 -0.293560
vn 0.688889 0.505399 -0.519618
vn 0.902873 0.360136 -0.234781
vn 0.902873 0.360136 -0.234781
vn 0.902873 0.360136 -0.234781
vn 0.902873 0.360136 -0.234781
vn 0.864291 0.450435 -0.223850
vn 0.864291 0.450435 -0.223850
vn 0.864291 0.450435 -0.223850
vn 0.864291 0.450435 -0.223850
vn -0.430481 0.858170 0.279696
vn -0.430481 0.858170 0.279696
vn -0.430481 0.858170 0.279696
vn -0.430481 0.858170 0.279696
vn 0.260965 0.965342 0.003617
vn 0.260965 0.965342 0.003617
vn 0.260965 0.965342 0.003617
vn 0.260965 0.965342 0.003617
vn 0.840583 0.495703 -0.218402
vn 0.840583 0.495703 -0.218402
vn 0.840583 0.495703 -0.218402
vn 0.840583 0.495703 -0.218402
vn 0.791415 0.536177 -0.293560
vn 0.798371 0.537327 -0.271814
vn 0.799684 0.537519 -0.267544
vn 0.799684 0.537519 -0.267544
vn 0.662538 0.540648 -0.518405
vn 0.662538 0.540648 -0.518405
vn 0.662538 0.540648 -0.518405
vn 0.782765 0.522026 -0.338774
vn 0.782765 0.522026 -0.338774
vn 0.782765 0.522026 -0.338774
vn 0.782765 0.522026 -0.338774
vn 0.755540 0.325931 0.568267
vn 0.755540 0.325931 0.568267
vn 0.755540 0.325931 0.568267
vn 0.755540 0.325931 0.568267
vn 0.784630 0.564021 -0.257365
vn 0.784630 0.564021 -0.257365
vn 0.784630 0.564020 -0.257365
vn 0.784630 0.564021 -0.257365
vn 0.890611 0.070787 0.449223
vn 0.890611 0.070787 0.449223
vn 0.890611 0.070787 0.449223
vn 0.890611 0.070787 0.449223
vn 0.838715 -0.019651 0.544217
vn 0.838715 -0.019651 0.544217
vn 0.838714 -0.019651 0.544217
vn 0.838715 -0.019651 0.544217
vn 0.991554 -0.001069 -0.129688
vn 0.991554 -0.001069 -0.129688
vn 0.991554 -0.001069 -0.129688
vn 0.991554 -0.001069 -0.129688
vn 0.845030 -0.107155 -0.523872
vn 0.845030 -0.107155 -0.523872
vn 0.845030 -0.107155 -0.523872
vn 0.845030 -0.107155 -0.523872
vn 0.164189 0.121706 -0.978892
vn 0.164189 0.121706 -0.978892
vn 0.164189 0.121706 -0.978892
vn 0.164189 0.121706 -0.978892
vn 0.413192 0.506448 -0.756824
vn 0.413192 0.506448 -0.756824
vn 0.413192 0.506448 -0.756824
vn 0.785723 0.133563 -0.603987
vn 0.785723 0.133563 -0.603987
vn 0.785723 0.133563 -0.603987
vn 0.785723 0.133563 -0.603987
vn 0.778505 0.140925 -0.611613
vn 0.778505 0.140925 -0.611613
vn 0.778505 0.140925 -0.611613
vn 0.778505 0.140925 -0.611613
vn 0.366368 0.197057 -0.909364
vn 0.366368 0.197057 -0.909364
vn 0.366368 0.197057 -0.909364
vn 0.366368 0.197057 -0.909364
vn 0.319032 0.324930 -0.890303
vn 0.319032 0.324931 -0.890303
vn 0.319032 0.324931 -0.890303
vn 0.319032 0.324931 -0.890302
vn 0.308524 0.205562 -0.928740
vn 0.308524 0.205562 -0.928740
vn 0.308524 0.205562 -0.928740
vn -0.170216 0.530467 -0.830441
vn -0.170216 0.530467 -0.830441
vn -0.170216 0.530467 -0.830441
vn -0.170216 0.530467 -0.830441
vn -0.238810 0.483389 -0.842202
vn -0.238810 0.483389 -0.842202
vn -0.238810 0.483389 -0.842202
vn -0.579114 0.658044 -0.481254
vn -0.579114 0.658044 -0.481254
vn -0.579114 0.658043 -0.481254
vn -0.579114 0.658043 -0.481254
vn -0.595117 0.656699 -0.463231
vn -0.595117 0.656699 -0.463231
vn -0.595117 0.656699 -0.463231
vn -0.595117 0.656699 -0.463231
vn -0.787658 0.615289 -0.031851
vn -0.787658 0.615289 -0.031851
vn -0.787658 0.615289 -0.031851
vn -0.787658 0.615289 -0.031851
vn -0.915060 0.199029 0.350789
vn -0.915060 0.199029 0.350789
vn -0.915060 0.199029 0.350789
vn -0.915060 0.199029 0.350789
vn -0.909524 -0.209360 0.359073
vn -0.909524 -0.209360 0.359073
vn -0.909524 -0.209360 0.359073
vn -0.909524 -0.209360 0.359073
vn -0.997585 0.003088 0.069392
vn -0.997585 0.003088 0.069392
vn -0.997585 0.003088 0.069392
vn -0.991325 0.032524 0.127348
vn -0.991325 0.032524 0.127348
vn -0.991325 0.032524 0.127348
vn -0.991325 0.032524 0.127348
vn -0.991620 0.083103 0.098914
vn -0.991620 0.083103 0.098914
vn -0.991620 0.083103 0.098914
vn -0.991620 0.083104 0.098914
vn -0.682803 0.328761 -0.652454
vn -0.682803 0.328761 -0.652454
vn -0.682803 0.328761 -0.652454
vn -0.682803 0.328761 -0.652454
vn 0.321749 -0.341106 -0.883246
vn 0.321749 -0.341106 -0.883246
vn 0.321749 -0.341106 -0.883246
vn 0.321749 -0.341106 -0.883246
vn -0.030157 -0.006056 -0.999527
vn -0.030157 -0.006056 -0.999527
vn -0.030157 -0.006056 -0.999527
vn -0.030157 -0.006056 -0.999527
vn -0.088224 0.070690 -0.993589
vn -0.088224 0.070690 -0.993589
vn -0.088224 0.070690 -0.993589
vn -0.088224 0.070690 -0.993589
vn -0.180326 0.126933 -0.975382
vn -0.180326 0.126933 -0.975382
vn -0.180326 0.126933 -0.975382
vn -0.180326 0.126933 -0.975382
vn -0.173947 0.169008 -0.970144
vn -0.173947 0.169008 -0.970144
vn -0.173947 0.169008 -0.970144
vn -0.173947 0.169008 -0.970144
vn -0.066061 0.152731 -0.986057
vn -0.066061 0.152731 -0.986057
vn -0.066061 0.152731 -0.986057
vn -0.066061 0.152731 -0.986057
vn -0.054493 0.331845 -0.941759
vn -0.054493 0.331845 -0.941759
vn -0.054493 0.331845 -0.941759
vn 0.273700 -0.617863 0.737112
vn 0.273700 -0.617863 0.737112
vn 0.273700 -0.617863 0.737112
vn 0.273700 -0.617863 0.737112
vn 0.409521 -0.612017 0.676556
vn 0.409521 -0.612017 0.676556
vn 0.409521 -0.612017 0.676556
vn 0.409521 -0.612017 0.676556
vn -0.725946 -0.502967 0.469070
vn -0.725946 -0.502968 0.469069
vn -0.725946 -0.502967 0.469069
vn -0.725946 -0.502968 0.469069
vn -0.747829 -0.466482 0.472383
vn -0.747829 -0.466482 0.472383
vn -0.747829 -0.466482 0.472383
vn -0.290217 -0.173822 -0.941042
vn -0.290217 -0.173822 -0.941042
vn -0.290217 -0.173822 -0.941042
vn -0.290217 -0.173822 -0.941042
vn -0.746800 -0.657422 -0.100428
vn -0.746800 -0.657422 -0.100428
vn -0.746800 -0.657422 -0.100428
vn -0.746800 -0.657422 -0.100428
vn -0.766911 -0.640354 0.042366
vn -0.766911 -0.640354 0.042366
vn -0.766911 -0.640354 0.042366
vn -0.709910 -0.699598 0.081176
vn -0.709910 -0.699598 0.081176
vn -0.709910 -0.699598 0.081176
vn -0.709910 -0.699598 0.081176
vn 0.523119 -0.827756 0.202895
vn 0.523119 -0.827756 0.202896
vn 0.523119 -0.827756 0.202895
vn 0.523119 -0.827756 0.202895
vn 0.088759 -0.649710 0.754982
vn 0.088759 -0.649710 0.754982
vn 0.088759 -0.649710 0.754982
vn 0.287025 -0.690036 -0.664429
vn 0.287025 -0.690036 -0.664429
vn 0.287025 -0.690036 -0.664429
vn 0.287025 -0.690036 -0.664429
vn 0.420691 -0.905266 0.059270
vn 0.420691 -0.905266 0.059270
vn 0.420691 -0.905266 0.059270
vn 0.391526 -0.881260 -0.264741
vn 0.391526 -0.881260 -0.264741
vn 0.391526 -0.881260 -0.264741
vn 0.391526 -0.881260 -0.264741
vn 0.525714 -0.849107 0.051398
vn 0.525714 -0.849108 0.051398
vn 0.525714 -0.849108 0.051398
vn 0.525714 -0.849108 0.051398
vn 0.656012 -0.751669 0.068126
vn 0.656012 -0.751669 0.068126
vn 0.656012 -0.751669 0.068126
vn 0.656012 -0.751669 0.068126
vn -0.034277 -0.589403 -0.807111
vn -0.034277 -0.589403 -0.807111
vn -0.034277 -0.589403 -0.807111
vn -0.034277 -0.589403 -0.807111
vn 0.031914 -0.616111 -0.787013
vn 0.031914 -0.616111 -0.787013
vn 0.031914 -0.616111 -0.787013
vn 0.031914 -0.616111 -0.787013
vn 0.046107 -0.789646 -0.611828
vn 0.046107 -0.789646 -0.611828
vn 0.046107 -0.789646 -0.611828
vn 0.046107 -0.789646 -0.611828
vn 0.767547 0.408981 0.493565
vn 0.782646 0.357441 0.509608
vn 0.750572 0.457810 0.476499
s off
g boss_whole_set:boss_statue_geo BossStatue BossExt_grp boss_whole_set:Rock1_LP20
usemtl boss_whole_set:Rock1_LP20SG
f 91/91/353 92/92/354 93/93/355 94/94/356
f 95/95/357 92/92/358 91/91/359 96/96/360
f 100/97/361 99/98/362 91/91/363
f 94/94/364 101/99/365 100/97/366 91/91/367
f 105/100/368 102/101/369 103/102/370 104/103/371
f 104/103/372 103/102/373 106/104/374
f 104/103/375 106/104/376 100/97/377 101/99/378
f 95/95/379 107/105/380 93/93/381 92/92/382
f 109/106/383 108/107/384 93/93/385 107/105/386
f 108/107/387 110/108/388 93/93/389
f 110/108/390 111/109/391 94/94/392 93/93/393
f 111/109/394 112/110/395 101/99/396 94/94/397
f 115/111/398 113/112/399 114/113/400 111/109/401
f 101/99/402 112/110/403 111/109/404 114/113/405
f 115/111/406 111/109/407 110/108/408 116/114/409
f 108/107/410 116/114/411 110/108/412
f 109/106/413 117/115/414 116/114/415 108/107/416
f 116/114/417 117/115/418 118/116/419 119/117/420
f 115/111/421 116/114/422 119/117/423 120/118/424
f 109/106/425 184/119/426 121/120/427 117/115/428
f 122/121/429 118/116/430 117/115/431 121/120/432
f 119/117/433 118/116/434 122/121/435 120/118/436
f 125/122/437 127/123/438 122/121/439
f 122/121/440 127/123/441 124/124/442 120/118/443
f 126/125/444 125/122/445 122/121/446 121/120/447
f 127/123/448 125/122/449 123/126/450 124/124/451
f 114/113/452 128/127/453 104/103/454 101/99/455
f 184/119/456 109/106/457 107/105/458
f 132/128/459 129/129/460 130/130/461 131/131/462
f 131/131/463 184/119/464 132/128/465
f 184/119/466 131/131/467 121/120/468
f 131/131/469 130/130/470 121/120/471
f 121/120/472 130/130/473 126/125/474
f 134/132/475 184/119/476 185/133/477 133/134/478
f 134/132/479 135/135/480 132/128/481 184/119/482
f 137/136/483 136/137/484 132/128/485 135/135/486
f 185/133/487 97/138/488 138/139/489 133/134/490
f 140/140/491 133/134/492 138/139/493 139/141/494
f 98/142/495 143/143/496 141/144/497
f 138/139/498 97/138/499 98/142/500 139/141/501
f 141/144/502 142/145/503 139/141/504 98/142/505
f 185/133/506 184/119/507 107/105/508 95/95/509
f 97/138/510 185/133/511 95/95/512 96/96/513
f 99/98/514 98/142/515 97/138/516 96/96/517
f 143/143/518 98/142/519 99/98/520 100/97/521
f 144/146/522 141/144/523 143/143/524
f 146/147/525 145/148/526 144/146/527 143/143/528
f 147/149/529 100/97/530 106/104/531 103/102/532
f 100/97/533 147/149/534 146/147/535 143/143/536
f 149/150/537 146/147/538 147/149/539 148/151/540
f 103/102/541 102/101/542 148/151/543 147/149/544
f 149/150/545 150/152/546 145/148/547 146/147/548
f 150/152/549 151/153/550 144/146/551 145/148/552
f 153/154/553 152/155/554 144/146/555 151/153/556
f 144/146/557 152/155/558 141/144/559
f 153/154/560 154/156/561 155/157/562 152/155/563
f 152/155/564 155/157/565 142/145/566 141/144/567
f 140/140/568 139/141/569 142/145/570 156/158/571
f 155/157/572 157/159/573 156/158/574 142/145/575
f 154/156/576 157/159/577 155/157/578
f 134/132/579 133/134/580 156/158/581 158/160/582
f 133/134/583 140/140/584 156/158/585
f 158/160/586 159/161/587 135/135/588 134/132/589
f 161/162/590 160/163/591 135/135/592 159/161/593
f 137/136/594 135/135/595 160/163/596 162/164/597
f 136/137/598 163/165/599 129/129/600 132/128/601
f 130/130/602 129/129/603 163/165/604 164/166/605
f 164/166/606 163/165/607 136/137/608
f 162/164/609 164/166/610 136/137/611 137/136/612
f 160/163/613 165/167/614 164/166/615 162/164/616
f 165/167/617 160/163/618 161/162/619 166/168/620
f 168/169/621 167/170/622 154/156/623 153/154/624
f 154/156/625 167/170/626 169/171/627 170/172/628
f 154/156/629 170/172/630 171/173/631 157/159/632
f 157/159/633 171/173/634 158/160/635 156/158/636
f 158/160/637 171/173/638 170/172/639 159/161/640
f 169/171/641 166/168/642 161/162/643 170/172/644
f 170/172/645 161/162/646 159/161/647
f 120/118/648 124/124/649 113/112/650 115/111/651
f 113/112/652 124/124/653 123/126/654 172/174/655
f 130/130/656 172/174/657 123/126/658 125/122/659
f 126/125/660 130/130/661 125/122/662
f 169/171/663 173/175/664 165/167/665 166/168/666
f 175/176/667 174/177/668 165/167/669 173/175/670
f 174/177/671 164/166/672 165/167/673
f 130/130/674 164/166/675 174/177/676 176/178/677
f 128/127/678 177/179/679 102/101/680 105/100/681
f 128/127/682 105/100/683 104/103/684
f 151/153/685 178/180/686 168/169/687 153/154/688
f 150/152/689 179/181/690 180/182/691
f 178/180/692 151/153/693 150/152/694 180/182/695
f 177/179/696 179/181/697 150/152/698 149/150/699
f 148/151/700 102/101/701 177/179/702 149/150/703
f 181/183/704 175/176/705 173/175/706 169/171/707
f 169/171/708 167/170/709 182/184/710 181/183/711
f 183/185/712 182/184/713 167/170/714 168/169/715
f 91/91/716 99/98/717 96/96/718
