# This file uses centimeters as units for non-parametric coordinates.

mtllib BossMount1.mtl
g default
v 1951.303198 102.314560 4887.220663
v 1741.371912 70.577378 5220.355409
v 2364.562153 63.249973 5496.990192
v 2543.698876 94.535551 5199.082227
v 2654.203275 39.263869 4855.913807
v 2107.924239 70.595288 4617.363183
v 2812.897484 -115.844449 4991.613875
v 2761.105319 -24.154516 5297.634008
v 2602.998245 -6.934021 5589.761565
v 2023.517952 72.765201 5352.218031
v 2222.317689 112.614762 5030.527600
v 2353.342331 88.333343 4728.447692
v 2192.640038 -5.335554 5750.797749
v 2414.929169 -38.740236 5821.158348
v 1900.146988 -8.442290 5610.118446
v 1632.958565 -27.425133 5438.155117
v 1578.120545 -0.359214 5044.883082
v 1514.994227 -71.154904 5251.959505
v 1753.400304 25.345237 4730.964554
v 1942.552186 -8.957610 4525.153943
v 2069.100583 -58.696700 4476.139884
v 2203.413044 -14.067793 4511.022735
v 2363.421787 6.104328 4567.004695
v 2635.888100 -38.553478 4697.009679
v 2763.915296 -152.547324 4826.305074
v 1959.294942 -137.338408 4469.646158
v 1851.945203 -86.454463 4507.880057
v 1680.378514 -67.259734 4668.982405
v 1557.095896 -101.827212 4947.132406
v 1510.112359 -157.010984 5146.288576
v 2091.912570 -213.172960 5825.772859
v 1880.919068 -219.724465 5692.211248
v 1649.861496 -213.142542 5503.232556
v 2346.217025 -245.831155 5851.153575
v 1564.508755 -236.566629 5343.437112
v 1581.813516 -280.069612 5216.912749
v 2563.084748 -250.526741 5696.393047
v 2705.471736 -284.272620 5412.041279
v 2780.811623 -273.272216 5070.905767
v 2745.885276 -300.326061 4926.209996
vt 0.251986 -0.257763
vt 1.053382 -0.154100
vt 0.919190 0.445879
vt 0.137145 0.355933
vt -0.524653 0.218887
vt -0.391507 -0.342921
vt -0.029557 1.614625
vt -0.657911 1.461681
vt -0.663062 0.909478
vt 0.043204 1.085941
vt 0.728117 1.149016
vt 0.609968 1.675886
vt 1.164286 1.623151
vt 1.361698 1.217102
vt 1.526717 0.589349
vt 1.571497 -0.046470
vt 1.468727 -0.478649
vt 1.032381 -0.655629
vt 0.279665 -0.798978
vt -0.321546 -0.767216
vt -0.731155 -0.351435
vt -0.619670 -0.673663
vt -0.849432 0.029602
vt -0.983139 0.739111
vt -0.977202 1.271120
vt -0.527246 -0.965701
vt -0.249659 -1.012800
vt 0.286461 -1.069735
vt 0.975854 -0.937796
vt 1.464527 -0.753844
vt 1.969944 0.712658
vt 1.846344 1.286612
vt 1.968243 0.010561
vt 1.531809 1.840796
vt 1.876073 -0.432040
vt 1.822601 -0.730241
vt 0.912502 2.147696
vt 0.116091 2.199543
vt -0.671894 1.850822
vt -0.993314 1.697277
vn -0.136749 0.987949 -0.072503
vn -0.235476 0.967184 0.095426
vn -0.078853 0.984072 0.159326
vn 0.019537 0.999732 0.012441
vn 0.135220 0.971399 -0.195191
vn -0.054870 0.957564 -0.282950
vn 0.812377 0.535701 0.230364
vn 0.911505 0.410626 -0.023340
vn 0.414053 0.895735 -0.161922
vn 0.237658 0.969841 0.054102
vn 0.060536 0.979537 0.191942
vn 0.635775 0.619615 0.460290
vn 0.318939 0.597515 0.735699
vn -0.142618 0.815885 0.560349
vn -0.318446 0.793062 0.519274
vn -0.529809 0.703971 0.472999
vn -0.829915 0.521148 0.199112
vn -0.534348 0.839561 -0.098031
vn -0.395119 0.880290 -0.262624
vn -0.239005 0.833883 -0.497510
vn 0.073765 0.828298 -0.555411
vn -0.058657 0.670205 -0.739855
vn 0.228587 0.857072 -0.461710
vn 0.481782 0.770023 -0.418272
vn 0.898818 0.296395 -0.322918
vn -0.180525 0.370412 -0.911156
vn -0.404756 0.639455 -0.653659
vn -0.621379 0.659280 -0.423364
vn -0.797520 0.537675 -0.273620
vn -0.997493 0.053871 -0.045883
vn -0.498234 0.364893 0.786521
vn -0.334079 0.381444 0.861912
vn -0.672396 0.224716 0.705256
vn 0.249220 0.212379 0.944873
vn -0.915913 -0.059995 0.396868
vn -0.938024 -0.321662 0.129015
vn 0.792543 0.044891 0.608162
vn 0.925206 -0.014012 0.379208
vn 0.981470 -0.143580 0.126891
vn 0.941638 -0.271482 -0.199038
s 1
g polySurface213 Mount_grp BossExt_grp
usemtl aiStandardSurface12SG
f 1/1/1 2/2/2 10/3/3 11/4/4
f 1/1/1 11/4/4 12/5/5 6/6/6
f 8/7/7 7/8/8 5/9/9 4/10/10
f 4/10/10 3/11/11 9/12/12 8/7/7
f 11/4/4 10/3/3 3/11/11 4/10/10
f 12/5/5 11/4/4 4/10/10 5/9/9
f 14/13/13 9/12/12 3/11/11 13/14/14
f 15/15/15 13/14/14 3/11/11 10/3/3
f 16/16/16 15/15/15 10/3/3 2/2/2
f 18/17/17 16/16/16 2/2/2 17/18/18
f 19/19/19 17/18/18 2/2/2 1/1/1
f 20/20/20 19/19/19 1/1/1 6/6/6
f 22/21/21 21/22/22 20/20/20 6/6/6
f 23/23/23 22/21/21 6/6/6 12/5/5
f 24/24/24 23/23/23 12/5/5 5/9/9
f 25/25/25 24/24/24 5/9/9 7/8/8
f 21/22/22 26/26/26 27/27/27 20/20/20
f 27/27/27 28/28/28 19/19/19 20/20/20
f 28/28/28 29/29/29 17/18/18 19/19/19
f 29/29/29 30/30/30 18/17/17 17/18/18
f 32/31/31 31/32/32 13/14/14 15/15/15
f 33/33/33 32/31/31 15/15/15 16/16/16
f 31/32/32 34/34/34 14/13/13 13/14/14
f 35/35/35 33/33/33 16/16/16 18/17/17
f 30/30/30 36/36/36 35/35/35 18/17/17
f 34/34/34 37/37/37 9/12/12 14/13/13
f 37/37/37 38/38/38 8/7/7 9/12/12
f 38/38/38 39/39/39 7/8/8 8/7/7
f 40/40/40 25/25/25 7/8/8 39/39/39
