# This file uses centimeters as units for non-parametric coordinates.

mtllib BossExtBorder.mtl
g default
v 1088.312744 -120.220197 4733.522949
v 982.055054 -120.220197 4460.954102
v 808.871826 -120.220197 4225.174316
v 580.565735 -120.220197 4042.251465
v -769.931152 -120.220197 4191.919922
v -960.082397 -120.220197 4420.227539
v -1088.248901 -120.220197 4688.098633
v -1137.497070 -120.220197 4977.277832
v -1100.421143 -120.220197 5268.061523
v -983.596680 -120.220197 5540.631836
v -803.153748 -120.220197 5776.411133
v 604.733032 -121.166791 5940.907715
v 775.618530 -120.220197 5809.665039
v 958.541443 -120.220197 5581.358398
v 1076.141724 -120.220197 5313.487305
v 1120.404297 -120.220197 5024.305664
v -3268.326660 -127.054044 8260.412109
v -3120.720703 -127.054044 8408.018555
v -3177.207031 -127.054044 8396.782227
v -3225.093750 -127.054044 8364.786133
v -3257.090820 -127.054044 8316.899414
v -355.581390 -127.054044 8260.412109
v -366.817230 -127.054044 8316.899414
v -398.814301 -127.054044 8364.786133
v -446.701263 -127.054044 8396.782227
v -503.187469 -127.054044 8408.018555
v -3268.326660 -127.054044 -3489.979492
v -3257.090820 -127.054044 -3546.465820
v -3225.093750 -127.054044 -3594.352539
v -3177.207031 -127.054044 -3626.349609
v -3120.720703 -127.054044 -3637.585449
v -345.609802 -127.054044 1930.595337
v 328.171173 -127.054044 8260.412109
v 475.777252 -127.054044 8408.018555
v 419.291046 -127.054044 8396.782227
v 371.404083 -127.054044 8364.786133
v 339.407013 -127.054044 8316.899414
v 3240.916504 -127.054044 8260.412109
v 3229.680664 -127.054044 8316.899414
v 3197.683594 -127.054044 8364.786133
v 3149.796387 -127.054044 8396.782227
v 3093.310303 -127.054044 8408.018555
v 3240.916504 -127.054044 -3489.979492
v 3093.310303 -127.054044 -3637.585449
v 3149.796387 -127.054044 -3626.349609
v 3197.683594 -127.054044 -3594.352539
v 3229.680664 -127.054044 -3546.465820
v 318.241119 -127.054044 1955.250977
v 328.171173 -127.054044 6151.055664
v 338.968811 -126.705434 6103.958496
v 369.203156 -125.729291 6066.276367
v 412.829681 -124.320775 6045.542969
v -440.368713 -123.234998 6042.347656
v -393.154175 -125.865812 6079.425293
v -364.786499 -126.742803 6117.785645
v -354.920074 -127.054044 6169.007812
v -344.915161 -127.054044 3876.605957
v -355.331726 -126.755720 3923.689209
v -385.062012 -125.920102 3961.405518
v -428.184814 -124.713712 3982.246582
v 402.429443 -125.230466 3988.047852
v 358.981506 -126.171583 3966.885010
v 328.951569 -126.822049 3929.063232
v 318.241119 -127.054044 3882.008301
v 921.051270 -123.596860 4494.488281
v 1020.708496 -123.596868 4750.125488
v 378.391968 -125.795545 4053.294434
v 549.256104 -122.847699 4105.649902
v 568.253235 -124.246679 5882.041504
v 389.556030 -126.553716 5980.059082
v 758.625916 -123.596876 4273.354492
v -722.220215 -123.572904 4242.479004
v -901.539917 -123.550603 4457.787109
v -1021.827881 -123.575223 4709.188477
v -1067.735107 -123.598508 4978.738281
v -1033.177979 -123.577192 5249.750977
v -923.553406 -123.553678 5505.520996
v -751.451721 -123.538114 5730.402344
v -406.209778 -126.873762 5993.507812
v 727.438354 -123.596860 5759.418945
v 898.998413 -123.596876 5545.294434
v 1009.293457 -123.596891 5294.062988
v 1050.806519 -123.596891 5022.845215
v -404.245911 -125.511197 4047.540527
v -3322.112793 -130.235662 8343.833008
v -3337.357666 -130.144307 8267.211914
v -3337.357422 -130.144819 -3496.779785
v -496.388336 -130.144040 8477.049805
v -3127.519775 -130.144040 8477.049805
v -419.768402 -130.235395 8461.803711
v -3204.140137 -130.235746 -3691.371582
v -3127.519531 -130.144468 -3706.616455
v -3274.858887 -130.235502 8414.551758
v -3204.139648 -130.235395 8461.803711
v -349.048889 -130.235418 8414.551758
v -301.796021 -130.236112 8343.833984
v -286.552795 -130.144498 8267.223633
v -3322.111816 -130.236211 -3573.399902
v -3274.859131 -130.235685 -3644.117676
v -276.576935 -124.008771 1930.569458
v -275.875580 -124.097364 3884.031494
v -285.887024 -130.147596 6161.890625
v 274.384888 -130.235669 8343.833008
v 259.140259 -130.144437 8267.211914
v 3100.109375 -130.144071 8477.049805
v 468.978088 -130.144071 8477.049805
v 3176.729004 -130.235395 8461.803711
v 3309.947266 -130.144132 -3496.778320
v 3309.947266 -130.144819 8267.212891
v 3294.702637 -130.235685 -3573.398926
v 3100.109375 -130.144468 -3706.616455
v 321.638672 -130.235547 8414.551758
v 392.358215 -130.235456 8461.803711
v 3247.448975 -130.235532 8414.552734
v 3294.701660 -130.236303 8343.833984
v 3176.729492 -130.235715 -3691.371582
v 3247.448975 -130.235715 -3644.118408
v 249.206299 -124.052808 3889.687012
v 249.208984 -123.991903 1955.250977
v 259.141205 -130.163175 6143.303711
v 324.868103 -128.237424 6011.056152
v 275.138062 -129.765134 6073.339355
v -300.262665 -129.770505 6089.052734
v -346.345764 -128.360151 6026.463867
v -340.067932 -124.785177 4016.154053
v -291.181244 -124.312436 3953.639648
v 265.002838 -124.264966 3959.407715
v 314.176575 -124.817838 4021.726562
v -576.794128 -125.226804 5884.307129
v -616.165955 -122.458257 5939.457520
v 977.133423 -4.438365 4463.659668
v 974.312927 5.526363 4465.209961
v 967.465698 12.556338 4468.974121
v 958.426331 14.767871 4473.942871
v 1082.858643 -4.438369 4734.862305
v 1079.733032 5.526365 4735.629883
v 1072.144897 12.556338 4737.493164
v 1062.127441 14.767867 4739.953125
v 804.818115 -4.438367 4229.061523
v 802.494995 5.526357 4231.289062
v 796.855225 12.556334 4236.696777
v 789.409912 14.767871 4243.835938
v 577.653198 -4.319695 4047.060059
v 576.088318 5.637247 4049.864014
v 572.313599 12.702685 4056.698242
v 567.325684 15.011870 4065.758789
v 406.639374 -4.942394 3989.510254
v 405.925385 5.173071 3992.146484
v 403.269348 12.559931 3999.094971
v 399.391296 15.215678 4008.471680
v -766.096375 -4.441813 4195.973633
v -763.952515 5.525835 4198.382324
v -758.764343 12.559466 4204.256348
v -751.921631 14.774810 4212.021973
v -431.949768 -4.879493 3984.157959
v -430.906525 5.225969 3986.682373
v -427.424805 12.603419 3993.249512
v -422.447968 15.253932 4002.080078
v -955.385620 -4.440783 4423.137207
v -952.680969 5.526683 4424.863281
v -946.111084 12.562609 4429.072266
v -937.436768 14.781317 4434.635742
v -1082.901978 -4.441578 4689.665527
v -1079.831543 5.525545 4690.628906
v -1072.375732 12.558985 4692.987793
v -1062.532471 14.774062 4696.109863
v -1131.882202 -4.439846 4977.395996
v -1128.657837 5.525699 4977.463379
v -1120.828003 12.555934 4977.627441
v -1110.490356 14.767329 4977.843750
v -1095.013062 -4.438745 5266.722168
v -1091.905518 5.526846 5265.887695
v -1084.358887 12.559119 5263.841309
v -1074.395386 14.773623 5261.131836
v -978.765930 -4.437980 5537.926270
v -975.991150 5.528072 5536.313965
v -969.252991 12.562647 5532.380859
v -960.357117 14.780554 5527.181152
v -799.152039 -4.432346 5772.523926
v -796.819519 5.532255 5770.327148
v -791.144531 12.566126 5765.002930
v -783.646973 14.785334 5757.977539
v -598.143372 14.833277 5920.285156
v -604.213440 12.543742 5928.565430
v -608.895447 5.459333 5934.731445
v -610.936646 -4.524476 5937.133789
v 599.407715 -4.427724 5937.768555
v 597.470276 5.531488 5935.239746
v 593.092041 12.593905 5928.867188
v 587.433960 14.886946 5920.339844
v 771.731384 -4.435030 5805.611328
v 769.486450 5.528612 5803.310547
v 764.030884 12.558459 5797.732422
v 756.826416 14.771086 5790.370605
v 953.737671 -4.438368 5578.448730
v 950.984741 5.526361 5576.781250
v 944.301392 12.556334 5572.733398
v 935.478516 14.767867 5567.389648
v 1070.748535 -4.438363 5311.920410
v 1067.657837 5.526374 5311.022461
v 1060.154541 12.556338 5308.842285
v 1050.249146 14.767863 5305.963867
v 1114.789429 -4.438368 5024.187500
v 1111.571655 5.526371 5024.120117
v 1103.759644 12.556338 5023.956055
v 1093.446899 14.767863 5023.739746
v -3273.739014 -4.986095 8260.945312
v -3276.892090 4.989593 8261.255859
v -3284.610840 12.050086 8262.016602
v -3294.827393 14.303530 8263.023438
v -3262.188721 -4.999475 8319.010742
v -3265.160645 4.979248 8320.242188
v -3272.436035 12.034629 8323.255859
v -3282.065674 14.276194 8327.244141
v -3273.737061 -4.993394 -3490.542236
v -3276.889404 4.985536 -3490.871338
v -3284.606689 12.048144 -3491.677734
v -3294.820557 14.301959 -3492.745117
v -3121.253662 -4.986140 8413.429688
v -3121.564209 4.989605 8416.583008
v -3122.324463 12.050128 8424.301758
v -3123.330566 14.303599 8434.518555
v -502.654327 -4.986137 8413.429688
v -502.343781 4.989607 8416.583008
v -501.583527 12.050128 8424.301758
v -500.577301 14.303599 8434.518555
v -444.589874 -4.999468 8401.879883
v -443.358887 4.979246 8404.851562
v -440.345306 12.034659 8412.126953
v -436.356659 14.276267 8421.756836
v -350.170807 -4.986701 8260.974609
v -347.017944 4.989071 8261.288086
v -339.299286 12.049582 8262.051758
v -329.082977 14.303004 8263.061523
v -349.509491 -4.991325 6168.792969
v -346.355530 4.986126 6168.521484
v -338.634308 12.048236 6167.815430
v -328.415527 14.301970 6166.864258
v -3121.253662 -4.986124 -3642.997803
v -3121.564209 4.989568 -3646.150879
v -3122.324463 12.050059 -3653.869873
v -3123.330566 14.303485 -3664.086426
v -3179.318359 -4.999485 -3631.447510
v -3180.549316 4.979236 -3634.419434
v -3183.562988 12.034613 -3641.695068
v -3187.551758 14.276168 -3651.324707
v -3228.995117 -4.999510 8368.687500
v -3231.269775 4.979213 8370.961914
v -3236.838135 12.034636 8376.530273
v -3244.208252 14.276232 8383.900391
v -3179.318359 -4.999470 8401.879883
v -3180.549316 4.979246 8404.851562
v -3183.562988 12.034655 8412.126953
v -3187.551514 14.276255 8421.756836
v -394.912964 -4.999496 8368.687500
v -392.638367 4.979221 8370.961914
v -387.070007 12.034648 8376.530273
v -379.699890 14.276255 8383.900391
v -361.719757 -4.999575 8319.010742
v -358.747894 4.979164 8320.242188
v -351.472565 12.034541 8323.255859
v -341.843201 14.276057 8327.245117
v -3262.188721 -4.999555 -3548.577148
v -3265.160645 4.979171 -3549.808350
v -3272.436035 12.034529 -3552.822266
v -3282.065430 14.276026 -3556.811279
v -3228.995361 -4.999470 -3598.254395
v -3231.270020 4.979250 -3600.529053
v -3236.838379 12.034625 -3606.097412
v -3244.208496 14.276179 -3613.467773
v 322.758911 -4.986100 8260.945312
v 319.605865 4.989597 8261.255859
v 311.886902 12.050082 8262.016602
v 301.670319 14.303504 8263.023438
v 334.309204 -4.999469 8319.010742
v 331.337280 4.979253 8320.242188
v 324.061798 12.034640 8323.255859
v 314.432190 14.276202 8327.244141
v 322.759338 -4.988956 6150.670898
v 319.605713 4.986814 6150.337891
v 311.885468 12.046569 6149.492188
v 301.668152 14.297816 6148.360352
v 475.244019 -4.986129 8413.429688
v 474.933441 4.989616 8416.583008
v 474.173187 12.050139 8424.301758
v 473.166962 14.303607 8434.518555
v 3093.843506 -4.986125 8413.429688
v 3094.154053 4.989616 8416.583008
v 3094.914307 12.050139 8424.301758
v 3095.920410 14.303607 8434.518555
v 3151.907715 -4.999448 8401.879883
v 3153.138672 4.979269 8404.851562
v 3156.152344 12.034682 8412.126953
v 3160.140869 14.276290 8421.756836
v 3246.326904 -4.993413 8260.974609
v 3249.479248 4.985508 8261.303711
v 3257.196289 12.048133 8262.110352
v 3267.410156 14.301959 8263.177734
v 3246.328857 -4.986061 -3490.512451
v 3249.481934 4.989628 -3490.822998
v 3257.200684 12.050131 -3491.583252
v 3267.417236 14.303595 -3492.589355
v 3234.778564 -4.999462 -3548.577148
v 3237.750488 4.979259 -3549.808105
v 3245.025879 12.034640 -3552.821777
v 3254.655518 14.276198 -3556.810547
v 3093.843506 -4.986108 -3642.997803
v 3094.154053 4.989584 -3646.150879
v 3094.914307 12.050074 -3653.869873
v 3095.920410 14.303500 -3664.086426
v 367.502411 -4.999490 8368.687500
v 365.227814 4.979225 8370.961914
v 359.659393 12.034644 8376.530273
v 352.289276 14.276236 8383.900391
v 417.179352 -4.999453 8401.879883
v 415.948334 4.979259 8404.851562
v 412.934753 12.034667 8412.126953
v 408.946106 14.276263 8421.756836
v 3201.584961 -4.999485 8368.687500
v 3203.859619 4.979232 8370.961914
v 3209.427979 12.034648 8376.530273
v 3216.798096 14.276244 8383.900391
v 3234.778564 -4.999558 8319.010742
v 3237.750488 4.979170 8320.242188
v 3245.025879 12.034522 8323.255859
v 3254.655273 14.276007 8327.245117
v 3151.907715 -4.999458 -3631.447510
v 3153.138672 4.979259 -3634.419434
v 3156.152344 12.034636 -3641.694824
v 3160.141113 14.276190 -3651.324463
v 3201.584961 -4.999462 -3598.254395
v 3203.859619 4.979259 -3600.529053
v 3209.427979 12.034636 -3606.097412
v 3216.798096 14.276190 -3613.467773
v 304.361938 16.102858 1955.308838
v 314.336578 12.950236 1955.307739
v 321.398590 5.232662 1955.304810
v 323.655670 -4.981947 1955.300659
v 323.656433 -4.980654 3882.590576
v 321.400574 5.230264 3882.936768
v 314.342285 12.940970 3883.785889
v 304.373657 16.084468 3884.910400
v 406.422821 -4.763416 6044.277344
v 404.621765 5.240818 6041.775391
v 400.782623 12.382647 6035.152344
v 395.932556 14.751300 6026.180176
v -351.024445 -4.984470 1930.618042
v -348.766876 5.230358 1930.618896
v -341.703735 12.947306 1930.617554
v -331.728149 16.097998 1930.614258
v -350.270172 -4.981499 3877.375732
v -348.006165 5.228264 3877.726562
v -340.935608 12.934916 3878.557861
v -330.953857 16.072512 3879.646729
v 363.200684 -4.902581 6065.721191
v 360.948456 5.104637 6063.531738
v 355.799622 12.234889 6057.642578
v 349.134735 14.576239 6049.633301
v 333.385223 -4.982632 6103.636719
v 330.417450 5.004911 6102.421387
v 323.237122 12.077918 6099.155273
v 313.769867 14.339518 6094.713379
v -359.228210 -4.984056 6117.623047
v -356.213348 5.003246 6116.508789
v -348.899811 12.076514 6113.492676
v -339.248535 14.339148 6109.382324
v -387.227112 -4.868134 6079.067383
v -384.753204 5.117729 6077.158203
v -378.981873 12.226279 6072.000977
v -371.457550 14.555236 6064.975586
v -434.068237 -3.462333 6041.390137
v -431.987244 6.539408 6039.073242
v -427.365234 13.659079 6032.905273
v -421.442200 15.986613 6024.541016
v -389.497498 -4.903122 3962.394775
v -388.074554 5.241764 3964.611328
v -383.447449 12.761054 3970.500977
v -376.857635 15.637175 3978.483643
v -360.417267 -4.955012 3924.377197
v -358.314056 5.232868 3925.595947
v -351.726227 12.885176 3928.811035
v -342.421051 15.948939 3933.159912
v 334.168427 -4.957505 3929.582764
v 332.097717 5.233116 3930.800537
v 325.577179 12.894786 3934.041504
v 316.355652 15.972605 3938.436523
v 363.704285 -4.919011 3967.636475
v 362.331177 5.231880 3969.825195
v 357.793732 12.771140 3975.679199
v 351.309021 15.676463 3983.628174
v 916.128906 -7.798230 4497.193848
v 918.089355 2.422729 4496.116211
v 924.303040 10.169474 4492.700195
v 933.105042 13.366297 4487.861816
v 1034.066528 13.366290 4746.844727
v 1024.312134 10.169463 4749.240234
v 1017.426147 2.422701 4750.931152
v 1015.253601 -7.798256 4751.464844
v 555.797546 13.900775 4093.257324
v 550.895203 10.791007 4102.145996
v 547.432129 3.074991 4108.447266
v 546.348694 -7.151190 4110.450195
v 382.608978 -5.305215 4054.759033
v 384.014954 4.781454 4052.405029
v 387.154694 12.187976 4045.719482
v 391.198029 14.956202 4036.470215
v 563.031982 -7.273896 5879.122559
v 564.079834 2.948114 5881.148926
v 567.841919 10.657668 5887.185059
v 573.302612 13.773192 5895.601562
v 391.465271 13.849215 5996.480469
v 386.912537 10.812102 5987.561035
v 383.868195 3.177297 5981.085938
v 383.149567 -7.005486 5978.793457
v 754.571533 -7.794746 4277.242188
v 756.185974 2.424434 4275.694336
v 761.302979 10.169844 4270.787598
v 768.551453 13.366118 4263.836914
v -731.203430 13.392115 4231.936035
v -724.549072 10.196765 4239.494141
v -719.857117 2.455696 4244.836914
v -718.384216 -7.757675 4246.534180
v -896.842346 -7.752923 4460.697266
v -898.725769 2.466953 4459.479492
v -904.690186 10.208953 4455.645508
v -913.137756 13.399058 4450.222656
v -1016.480103 -7.777212 4710.755859
v -1018.615662 2.443252 4710.066406
v -1025.382080 10.187895 4707.909668
v -1034.966309 13.381636 4704.863770
v -1062.119263 -7.798519 4978.856445
v -1064.362183 2.421669 4978.809570
v -1071.468384 10.168158 4978.660645
v -1081.533447 13.365054 4978.450195
v -1027.769043 -7.775696 5248.411621
v -1029.931030 2.443121 5249.011719
v -1036.780273 10.186614 5250.885254
v -1046.481567 13.380068 5253.529785
v -918.722168 -7.754258 5502.815430
v -920.652649 2.464771 5503.954590
v -926.768677 10.206500 5507.539551
v -935.431702 13.396823 5512.608887
v -747.450012 -7.743805 5726.515137
v -749.088928 2.477417 5728.027832
v -754.263977 10.221202 5732.838867
v -761.588196 13.412299 5739.658203
v -582.567200 13.723654 5898.066406
v -576.739380 10.602107 5889.880371
v -572.711792 2.905542 5883.993164
v -571.565063 -7.301040 5881.983398
v 723.550781 -7.798270 5755.364746
v 725.119263 2.422805 5756.954102
v 730.081848 10.169509 5762.003418
v 737.109009 13.366297 5769.159180
v 894.194092 -7.798251 5542.384277
v 896.107605 2.422710 5543.543457
v 902.172485 10.169467 5547.216797
v 910.763794 13.366290 5552.420410
v 1003.899475 -7.798281 5292.495605
v 1006.047729 2.422681 5293.119629
v 1012.856750 10.169448 5295.098145
v 1022.502014 13.366278 5297.900879
v 1045.190796 -7.798268 5022.727051
v 1047.427368 2.422687 5022.773926
v 1054.516479 10.169448 5022.922852
v 1064.558472 13.366278 5023.133301
v -418.651367 14.839896 4032.343994
v -413.554962 12.040938 4041.035400
v -409.669128 4.621568 4047.288086
v -408.017517 -5.463917 4049.455322
v -3309.054688 12.955588 8338.423828
v -3318.441650 9.788272 8342.312500
v -3325.087646 2.064687 8345.065430
v -3327.211914 -8.145646 8345.945312
v -3342.770508 -8.062572 8267.745117
v -3340.512695 2.148245 8267.539062
v -3333.449951 9.865050 8266.886719
v -3323.474365 13.020056 8265.964844
v -3342.768311 -8.067877 -3497.342529
v -3340.511475 2.145260 -3497.122559
v -3333.451172 9.863963 -3496.428711
v -3323.479248 13.019988 -3495.447021
v -497.754913 13.020941 8463.172852
v -496.772736 9.865088 8473.144531
v -496.077362 2.146597 8480.205078
v -495.855103 -8.066405 8482.461914
v -3128.052734 -8.066398 8482.461914
v -3127.830566 2.146602 8480.205078
v -3127.135010 9.865092 8473.144531
v -3126.152832 13.020945 8463.172852
v -425.177429 12.955779 8448.745117
v -421.289215 9.788481 8458.131836
v -418.536316 2.064899 8464.778320
v -417.656403 -8.145403 8466.902344
v -3198.730957 12.955535 -3678.313477
v -3202.619141 9.788207 -3687.700439
v -3205.372070 2.064619 -3694.346436
v -3206.251953 -8.145701 -3696.470703
v -3128.052490 -8.067895 -3712.029297
v -3127.830322 2.145652 -3709.772705
v -3127.134766 9.864623 -3702.712158
v -3126.152588 13.020713 -3692.739746
v -3264.864990 12.955680 8404.556641
v -3272.049561 9.788378 8411.741211
v -3277.136230 2.064781 8416.828125
v -3278.761963 -8.145601 8418.454102
v -3198.730225 12.955855 8448.743164
v -3202.618896 9.788214 8458.130859
v -3205.372070 2.063787 8464.778320
v -3206.251953 -8.147632 8466.902344
v -359.043121 12.955733 8404.556641
v -351.858673 9.788443 8411.741211
v -346.772064 2.064855 8416.828125
v -345.146271 -8.145516 8418.454102
v -314.855988 12.955348 8338.423828
v -305.468140 9.787642 8342.312500
v -298.821503 2.063211 8345.066406
v -296.697083 -8.148231 8345.946289
v -300.430817 13.020232 8265.887695
v -290.458801 9.864150 8266.871094
v -283.398499 2.145218 8267.566406
v -281.141724 -8.068256 8267.787109
v -3327.211182 -8.146160 -3575.512207
v -3325.086914 2.064174 -3574.632080
v -3318.441162 9.787795 -3571.879150
v -3309.054199 12.955180 -3567.990479
v -3278.761963 -8.145829 -3648.020996
v -3277.136230 2.064560 -3646.395264
v -3272.049561 9.788207 -3641.308838
v -3264.864990 12.955554 -3634.124268
v -303.074280 17.362021 1930.603516
v -292.860413 15.102935 1930.599243
v -285.143951 8.040209 1930.595093
v -281.991821 -1.934281 1930.592163
v -281.230316 -2.031253 3884.801270
v -284.378937 7.951129 3884.576660
v -292.095490 15.026259 3883.835693
v -302.313293 17.299258 3882.776611
v -299.762726 13.016921 6163.587891
v -289.791351 9.861609 6162.618652
v -282.732025 2.144317 6161.918945
v -280.475677 -8.067797 6161.675781
v 287.443237 12.955599 8338.422852
v 278.056183 9.788294 8342.311523
v 271.410126 2.064731 8345.064453
v 269.285858 -8.145585 8345.944336
v 253.727661 -8.067819 8267.745117
v 255.984406 2.145719 8267.522461
v 263.044891 9.864672 8266.827148
v 273.017273 13.020754 8265.844727
v 3098.743164 13.020938 8463.172852
v 3099.725342 9.865081 8473.144531
v 3100.420654 2.146589 8480.205078
v 3100.642822 -8.066415 8482.461914
v 468.444763 -8.066412 8482.461914
v 468.666992 2.146589 8480.205078
v 469.362366 9.865084 8473.144531
v 470.344543 13.020941 8463.172852
v 3171.320068 12.955779 8448.746094
v 3175.208496 9.788478 8458.132812
v 3177.961426 2.064872 8464.779297
v 3178.841309 -8.145461 8466.903320
v 3296.054443 13.020640 -3495.530518
v 3306.034912 9.864070 -3496.453125
v 3313.101318 2.143407 -3497.104980
v 3315.360107 -8.072515 -3497.311279
v 3315.358154 -8.067900 8267.776367
v 3313.101318 2.145240 8267.556641
v 3306.041016 9.863944 8266.862305
v 3296.069092 13.019969 8265.880859
v 3281.644775 12.955577 -3567.989746
v 3291.031738 9.788253 -3571.878174
v 3297.677734 2.064661 -3574.631104
v 3299.802002 -8.145669 -3575.510986
v 3100.642578 -8.066808 -3712.029297
v 3100.420410 2.146192 -3709.772705
v 3099.725098 9.864752 -3702.712646
v 3098.742920 13.020678 -3692.740723
v 331.632751 12.955672 8404.556641
v 324.448273 9.788367 8411.741211
v 319.361694 2.064769 8416.828125
v 317.735870 -8.145607 8418.454102
v 397.767792 12.955859 8448.743164
v 393.879150 9.788214 8458.130859
v 391.125977 2.063787 8464.778320
v 390.246002 -8.147632 8466.902344
v 3237.454346 12.955695 8404.556641
v 3244.638916 9.788401 8411.741211
v 3249.725586 2.064830 8416.828125
v 3251.351318 -8.145513 8418.454102
v 3281.641846 12.955245 8338.422852
v 3291.029785 9.787516 8342.311523
v 3297.676270 2.063078 8345.065430
v 3299.800781 -8.148359 8345.945312
v 3178.841309 -8.145685 -3696.470947
v 3177.961426 2.064642 -3694.346680
v 3175.208496 9.788233 -3687.700684
v 3171.320312 12.955557 -3678.313721
v 3251.351562 -8.145789 -3648.021484
v 3249.725830 2.064590 -3646.395752
v 3244.639160 9.788214 -3641.309082
v 3237.454590 12.955550 -3634.124512
v 275.713135 17.330603 3888.133789
v 265.494568 15.064158 3889.236816
v 257.774780 7.993853 3890.018555
v 254.621307 -1.986690 3890.269287
v 254.623535 -1.919859 1955.300659
v 257.776154 8.054804 1955.304688
v 265.493713 15.116809 1955.307739
v 275.708344 17.373885 1955.308838
v 253.728607 -8.081282 6142.918945
v 255.984482 2.130788 6143.188965
v 263.042725 9.849326 6143.989746
v 273.012878 13.007044 6145.107422
v 330.935333 13.536387 6026.514160
v 324.532043 10.468230 6018.473145
v 320.113586 2.819631 6012.612305
v 318.863129 -7.361287 6010.500977
v 287.320465 13.069323 6081.872559
v 278.096771 9.920340 6077.425293
v 271.593658 2.211265 6074.184082
v 269.552246 -7.993963 6073.017578
v -312.700378 13.086913 6097.103027
v -303.363708 9.943026 6092.986328
v -296.776337 2.236740 6089.980469
v -294.702393 -7.968148 6088.890137
v -353.909851 13.554125 6040.433594
v -346.803040 10.474875 6033.248047
v -341.865265 2.810924 6028.003906
v -340.419830 -7.383795 6026.105957
v -415.831970 15.135276 5995.621582
v -410.318390 11.966452 5987.193848
v -406.528656 4.038486 5981.353027
v -405.563293 -6.346079 5979.794434
v -358.482910 16.104281 4001.432373
v -351.763031 13.566531 4009.350098
v -346.647186 6.301863 4015.099854
v -344.504120 -3.746154 4017.143799
v -315.869446 16.962157 3945.763184
v -306.375183 14.614401 3950.087646
v -299.200989 7.486437 3953.221924
v -296.266754 -2.514329 3954.327393
v 289.829376 17.034972 3951.178711
v 280.339691 14.704413 3955.584961
v 273.162659 7.588236 3958.786621
v 270.219482 -2.408733 3959.927002
v 332.883759 16.237170 4006.628418
v 326.178741 13.731654 4014.600098
v 321.060944 6.490088 4020.400879
v 318.900116 -3.549492 4022.478027
vt 1.071443 2.692341
vt 1.076593 2.697168
vt 0.948203 2.809494
vt 0.944033 2.803805
vt 1.080492 2.700830
vt 0.951420 2.813733
vt 1.082096 2.702346
vt 0.952824 2.815391
vt 0.311118 0.080656
vt 0.312665 0.080652
vt 0.312583 1.404536
vt 0.311037 1.404306
vt 0.317514 0.080648
vt 0.317429 1.405115
vt 0.324363 0.080648
vt 0.324275 1.405885
vt -0.107558 1.819965
vt -0.101512 1.823290
vt -0.170209 1.999476
vt -0.176909 1.997828
vt -0.097242 1.825642
vt -0.165478 2.000643
vt -0.095894 1.826389
vt -0.163983 2.001016
vt 0.158084 1.560791
vt 0.157339 1.559408
vt 0.269573 1.520924
vt 0.270542 1.522548
vt 0.154958 1.555074
vt 0.267415 1.516327
vt 0.151591 1.548968
vt 0.264638 1.509973
vt 0.139493 2.786805
vt 0.143245 2.781027
vt 0.267502 2.849972
vt 0.264374 2.856096
vt 0.145831 2.776887
vt 0.269595 2.845531
vt 0.146554 2.775502
vt 0.270092 2.843963
vt 1.026690 1.654306
vt 1.027699 1.653133
vt 1.150536 1.800555
vt 1.149245 1.801398
vt 1.030919 1.649457
vt 1.154630 1.797917
vt 1.035489 1.644265
vt 1.160431 1.794190
vt 2.818250 4.403463
vt 2.816788 4.402853
vt 2.827385 4.349608
vt 2.828939 4.349757
vt 2.812222 4.400956
vt 2.822532 4.349154
vt 2.805774 4.398282
vt 2.815681 4.348518
vt 0.873686 4.497105
vt 0.873836 4.495548
vt 2.681307 4.495657
vt 2.681463 4.497214
vt 0.874312 4.490694
vt 2.680828 4.490802
vt 0.874986 4.483844
vt 2.680153 4.483951
vt 2.735673 -3.800795
vt 2.735066 -3.799343
vt 2.681811 -3.809941
vt 2.681966 -3.811484
vt 2.733172 -3.794785
vt 2.681331 -3.805097
vt 2.730500 -3.788340
vt 2.680655 -3.798250
vt 0.727073 0.063709
vt 0.729236 0.063705
vt 0.728629 1.405686
vt 0.726469 1.405847
vt 0.734533 0.063703
vt 0.733927 1.405172
vt 0.741548 0.063705
vt 0.740944 1.404444
vt 0.348198 4.403316
vt 0.346736 4.402703
vt 0.357334 4.349449
vt 0.358886 4.349608
vt 0.342169 4.400806
vt 0.352482 4.348965
vt 0.335722 4.398132
vt 0.345632 4.348288
vt -1.596366 4.496956
vt -1.596215 4.495399
vt 0.211256 4.495508
vt 0.211410 4.497065
vt -1.595739 4.490545
vt 0.210776 4.490654
vt -1.595065 4.483695
vt 0.210101 4.483802
vt -1.743338 -3.664283
vt -1.741789 -3.664148
vt -1.742274 4.349346
vt -1.743822 4.349504
vt -1.736938 -3.663705
vt -1.737427 4.348864
vt -1.730085 -3.663074
vt -1.730579 4.348187
vt 0.358449 1.409580
vt 0.356281 1.409401
vt 0.356360 0.080653
vt 0.358528 0.080657
vt 0.350977 1.408859
vt 0.351058 0.080649
vt 0.343958 1.408100
vt 0.344042 0.080648
vt -0.099243 1.824613
vt -0.167698 2.000178
vt 0.273471 1.521627
vt 0.156120 1.557576
vt 0.142998 2.777590
vt 0.265724 2.844916
vt 0.015072 1.675334
vt 0.012319 1.672746
vt 1.029356 1.651602
vt 0.810982 1.517708
vt 0.813539 1.518938
vt 1.152503 1.799481
vt 1.231401 1.973142
vt 1.235105 1.972148
vt 1.262734 2.157274
vt 1.266622 2.157274
vt 1.239132 2.342401
vt 1.242878 2.343402
vt 1.164228 2.517119
vt 1.167578 2.519059
vt 1.046590 2.670747
vt 1.049370 2.673499
vt 0.925788 2.777514
vt 0.929411 2.779193
vt 0.036316 2.690500
vt 0.033677 2.693367
vt -0.080873 2.544220
vt -0.084141 2.546300
vt -0.156207 2.372593
vt -0.159880 2.373752
vt -0.184554 2.187316
vt -0.188380 2.187479
vt 2.814781 4.402098
vt 2.825254 4.349476
vt 2.829423 -3.664029
vt 2.825740 -3.663557
vt 0.874086 4.493474
vt 2.681130 4.493583
vt 0.821464 4.483001
vt 0.819980 4.486417
vt 2.734255 -3.797206
vt 2.681633 -3.807680
vt 2.782324 4.450667
vt 2.784972 4.453261
vt 2.733752 4.483116
vt 2.735170 4.486532
vt 0.772896 4.450545
vt 0.770182 4.453139
vt 0.740446 4.401975
vt 0.736911 4.403339
vt 0.729981 4.349359
vt 0.726231 4.349659
vt 2.818741 -3.717715
vt 2.815272 -3.716180
vt 2.785470 -3.767517
vt 2.782822 -3.764750
vt 0.723387 0.063780
vt 0.722824 1.405405
vt 0.729607 2.969828
vt 0.725858 2.969594
vt 0.344729 4.401950
vt 0.355202 4.349328
vt -1.595966 4.493327
vt 0.211078 4.493435
vt -1.648587 4.482852
vt -1.650072 4.486269
vt -1.739587 -3.663831
vt -1.740073 4.349203
vt -1.729115 -3.716452
vt -1.732650 -3.717989
vt -1.595863 -3.811741
vt -1.595463 -3.807937
vt 0.312272 4.450519
vt 0.314920 4.453112
vt 0.263701 4.482967
vt 0.265118 4.486383
vt -1.697155 4.450397
vt -1.699868 4.452990
vt -1.729606 4.401826
vt -1.733141 4.403191
vt -1.649570 -3.801059
vt -1.648086 -3.797470
vt -1.699371 -3.767786
vt -1.696658 -3.765020
vt 0.362200 1.409267
vt 0.362280 0.080710
vt 0.358970 2.956689
vt 0.355286 2.957040
vt 0.310150 2.866209
vt 0.314241 2.865742
vt 0.344302 2.908988
vt 0.348106 2.908680
vt 0.739483 2.919803
vt 0.735631 2.919605
vt 0.771135 2.876818
vt 0.767032 2.876487
vt 0.812250 2.854186
vt 0.811774 2.844683
vt 0.766906 1.496149
vt 0.769920 1.496743
vt 0.733333 1.453212
vt 0.736793 1.453598
vt 0.351350 1.457151
vt 0.347734 1.457420
vt 0.317574 1.499949
vt 0.314297 1.500379
vt -0.137791 1.803353
vt -0.210413 1.989609
vt -0.214128 1.988770
vt -0.141139 1.801577
vt 0.136587 1.517252
vt 0.134618 1.514031
vt 0.256965 1.476815
vt 0.254041 1.477734
vt 0.121568 2.815777
vt 0.254104 2.888934
vt 0.249736 2.889888
vt 0.117942 2.818015
vt -0.019436 1.642239
vt -0.022188 1.639651
vt 1.189453 1.775603
vt 1.059459 1.619580
vt 1.062125 1.616878
vt 1.192710 1.773686
vt 1.277019 1.958657
vt 1.280722 1.957663
vt 1.310646 2.156270
vt 1.314534 2.156272
vt 1.285313 2.354977
vt 1.289058 2.355978
vt 1.205464 2.541233
vt 1.208812 2.543174
vt 1.084875 2.705097
vt 0.956447 2.817070
vt 0.003222 2.725005
vt 0.000584 2.727870
vt -0.121769 2.568983
vt -0.125038 2.571064
vt -0.202120 2.385928
vt -0.205793 2.387087
vt -0.232355 2.188314
vt -0.236180 2.188477
vt 0.829979 1.474092
vt 0.827426 1.472865
vt 2.770124 4.383596
vt 2.777843 4.344801
vt 2.781528 4.345082
vt 2.773592 4.384960
vt 2.782012 -3.659363
vt 2.778329 -3.658891
vt 0.878757 4.446063
vt 2.676463 4.446171
vt 2.676795 4.449801
vt 0.878357 4.449693
vt 0.839964 4.438343
vt 0.838480 4.441758
vt 2.715754 -3.752553
vt 2.676960 -3.760272
vt 2.677293 -3.764075
vt 2.717171 -3.756140
vt 2.748147 4.416484
vt 2.750793 4.419076
vt 2.715258 4.438457
vt 2.716675 4.441871
vt 0.807076 4.416367
vt 0.804363 4.418960
vt 0.785103 4.383476
vt 0.781569 4.384840
vt 0.773640 4.344981
vt 0.777387 4.344682
vt 2.774083 -3.699222
vt 2.770614 -3.697686
vt 2.751288 -3.733342
vt 2.748641 -3.730575
vt 0.770799 0.063803
vt 0.770242 1.400310
vt 0.773886 1.400752
vt 0.774485 0.063733
vt 0.773269 2.974483
vt 0.777017 2.974716
vt 0.300072 4.383448
vt 0.307791 4.344655
vt 0.311476 4.344933
vt 0.303541 4.384812
vt -1.591294 4.445914
vt 0.206410 4.446023
vt 0.206744 4.449652
vt -1.591695 4.449544
vt -1.630088 4.438195
vt -1.631572 4.441609
vt -1.692178 -3.659160
vt -1.692664 4.344533
vt -1.696412 4.344833
vt -1.695928 -3.659613
vt -1.684459 -3.697954
vt -1.687994 -3.699491
vt -1.591196 -3.764332
vt -1.590798 -3.760530
vt 0.278095 4.416336
vt 0.280741 4.418928
vt 0.245205 4.438308
vt 0.246622 4.441722
vt -1.662975 4.416218
vt -1.665687 4.418811
vt -1.684948 4.383328
vt -1.688483 4.384692
vt -1.631075 -3.756402
vt -1.629592 -3.752815
vt -1.665195 -3.733607
vt -1.662482 -3.730840
vt 0.314790 1.403993
vt 0.314870 0.080709
vt 0.311559 2.962008
vt 0.307875 2.962359
vt 0.283787 2.903664
vt 0.279698 2.904130
vt 0.304264 2.929705
vt 0.300461 2.930012
vt 0.779946 2.939340
vt 0.783796 2.939538
vt 0.799177 2.912861
vt 0.803279 2.913192
vt 0.831348 2.886986
vt 0.835707 2.887728
vt 0.800824 1.459145
vt 0.797810 1.458550
vt 0.780853 1.433033
vt 0.777394 1.432647
vt 0.303817 1.436580
vt 0.307432 1.436309
vt 0.283529 1.462713
vt 0.286806 1.462283
vt -0.196181 1.993093
vt -0.124949 1.810403
vt 0.143675 1.530080
vt 0.259012 1.490743
vt 0.261305 2.876492
vt 0.129787 2.803794
vt -0.008860 1.652374
vt 0.005466 1.666112
vt 1.049718 1.630588
vt 1.177120 1.783485
vt 1.263024 1.963069
vt 1.244092 1.969081
vt 1.295949 2.156564
vt 1.276063 2.156980
vt 1.271147 2.351123
vt 1.251977 2.345901
vt 1.192816 2.533839
vt 1.175698 2.523831
vt 1.056294 2.679759
vt 0.933337 2.788545
vt 0.013454 2.714524
vt 0.026998 2.699959
vt -0.109233 2.561376
vt -0.092259 2.551097
vt -0.188046 2.381825
vt -0.168989 2.376290
vt -0.217703 2.187994
vt -0.197862 2.187580
vt 0.820838 1.507173
vt 0.823446 1.486387
vt 2.787239 4.390602
vt 2.796005 4.346497
vt 2.796486 -3.660889
vt 2.816169 -3.662743
vt 0.876925 4.464162
vt 2.678216 4.464271
vt 0.832819 4.455395
vt 0.825141 4.473931
vt 2.722822 -3.769805
vt 2.678715 -3.778572
vt 2.761236 4.429512
vt 2.775422 4.443700
vt 2.722323 4.455508
vt 2.729999 4.474044
vt 0.793909 4.429394
vt 0.779722 4.443580
vt 0.767912 4.390481
vt 0.749377 4.398159
vt 0.759151 4.346400
vt 0.739473 4.348342
vt 2.787729 -3.704890
vt 2.806265 -3.712565
vt 2.761731 -3.743804
vt 2.775919 -3.757988
vt 0.761227 0.063714
vt 0.760614 1.402297
vt 0.758776 2.973144
vt 0.739098 2.970893
vt 0.317186 4.390453
vt 0.325954 4.346347
vt -1.593127 4.464014
vt 0.208163 4.464122
vt -1.637232 4.455246
vt -1.644910 4.473784
vt -1.710416 -3.661054
vt -1.710897 4.346330
vt -1.701650 -3.705159
vt -1.720185 -3.712838
vt -1.592627 -3.778829
vt -1.594564 -3.798509
vt 0.291184 4.429364
vt 0.305370 4.443552
vt 0.252271 4.455360
vt 0.259947 4.473895
vt -1.676142 4.429245
vt -1.690328 4.443432
vt -1.702141 4.390333
vt -1.720675 4.398009
vt -1.636734 -3.770068
vt -1.644410 -3.788603
vt -1.675647 -3.744070
vt -1.689833 -3.758257
vt 0.326039 2.960409
vt 0.345720 2.958177
vt 0.293443 2.892601
vt 0.305944 2.876725
vt 0.317730 2.923564
vt 0.335896 2.914747
vt 0.766219 2.933666
vt 0.747986 2.925232
vt 0.788341 2.903168
vt 0.776291 2.886313
vt 0.822672 2.875399
vt 0.818820 2.855538
vt 0.792136 1.470179
vt 0.779516 1.485939
vt 0.768487 1.439049
vt 0.750251 1.447704
vt 0.316044 1.442646
vt 0.334261 1.451398
vt 0.292036 1.473682
vt 0.304689 1.489480
vt -0.131155 1.806991
vt -0.203061 1.991404
vt -0.135857 1.804411
vt -0.208270 1.990129
vt -0.224785 2.188143
vt -0.230148 2.188261
vt -0.013972 1.647472
vt -0.017843 1.643763
vt 0.140249 1.523860
vt 0.137659 1.519170
vt 0.256350 1.484305
vt 0.254528 1.479539
vt 1.054419 1.625256
vt 0.826866 1.480325
vt 1.057984 1.621228
vt 0.829259 1.475820
vt 0.796663 1.464699
vt 0.799844 1.460660
vt 1.183078 1.779667
vt 1.187593 1.776780
vt 1.269785 1.960927
vt 1.274907 1.959312
vt 1.303050 2.156417
vt 1.308429 2.156310
vt 1.277992 2.352985
vt 1.283176 2.354397
vt 1.198926 2.537411
vt 1.203556 2.540118
vt 0.125901 2.809651
vt 0.257974 2.882656
vt 0.122895 2.814033
vt 0.255339 2.887209
vt 0.008507 2.719582
vt 0.004762 2.723417
vt -0.115293 2.565047
vt -0.119882 2.567832
vt -0.194849 2.383804
vt -0.200000 2.385306
vt 2.788990 4.345806
vt 2.780625 4.387865
vt 2.783691 4.345289
vt 2.775631 4.385799
vt 2.756175 4.424451
vt 2.752353 4.420632
vt 2.789472 -3.660156
vt 2.784174 -3.659597
vt 2.677525 4.457256
vt 0.877617 4.457148
vt 2.677006 4.451960
vt 0.878141 4.451852
vt 0.835560 4.448783
vt 0.837632 4.443792
vt 0.798972 4.424334
vt 0.802799 4.420515
vt 0.766168 4.345708
vt 0.765794 2.973799
vt 0.771472 4.345190
vt 0.771100 2.974289
vt 0.772848 2.936490
vt 0.777871 2.938567
vt 2.678025 -3.771554
vt 2.720082 -3.763190
vt 2.677504 -3.766248
vt 2.718014 -3.758189
vt 2.756670 -3.738739
vt 2.752847 -3.734911
vt 2.719584 4.448897
vt 2.717516 4.443905
vt 0.774526 4.387744
vt 0.779524 4.385679
vt 2.781116 -3.702149
vt 2.776121 -3.700074
vt 0.318938 4.345657
vt 0.310574 4.387715
vt 0.313639 4.345140
vt 0.305578 4.385651
vt 0.286123 4.424303
vt 0.282300 4.420484
vt 0.319023 2.961188
vt 0.313722 2.961773
vt 0.207473 4.457107
vt -1.592435 4.456999
vt 0.206954 4.451811
vt -1.591910 4.451704
vt -1.634491 4.448635
vt -1.632420 4.443643
vt -1.671080 4.424185
vt -1.667254 4.420366
vt -1.703882 4.345600
vt -1.703400 -3.660361
vt -1.698580 4.345052
vt -1.698097 -3.659833
vt -1.695035 -3.702418
vt -1.690037 -3.700342
vt -1.670585 -3.739006
vt -1.666759 -3.735176
vt -1.591936 -3.771811
vt -1.591412 -3.766504
vt 0.249533 4.448748
vt 0.247465 4.443757
vt -1.695525 4.387595
vt -1.690527 4.385530
vt -1.633994 -3.763451
vt -1.631922 -3.758451
vt 0.309712 1.439629
vt 0.305236 1.437409
vt 0.288867 2.898103
vt 0.285332 2.902153
vt 0.768079 0.063719
vt 0.767470 1.401552
vt 0.772932 0.063726
vt 0.772329 1.400986
vt 0.311229 2.926616
vt 0.306300 2.928864
vt 0.793509 2.907996
vt 0.797475 2.911543
vt 0.826740 2.881145
vt 0.829916 2.885387
vt 0.774879 1.436065
vt 0.779406 1.433863
vt 0.287584 1.468225
vt 0.284469 1.464210
vt 0.010444 1.670889
vt 0.013960 1.674264
vt 0.031824 2.695047
vt 0.035235 2.691585
vt 0.313380 2.867186
vt 0.310343 2.871206
vt 0.814672 1.517442
vt 0.817338 1.513143
vt 1.237510 1.971174
vt 1.232865 1.972661
vt 1.269150 2.157127
vt 1.264272 2.157234
vt 1.245316 2.344087
vt 1.240614 2.342806
vt 1.169750 2.520351
vt 1.165552 2.517894
vt 1.051266 2.675077
vt 1.047714 2.671778
vt 0.926572 2.778888
vt 0.929335 2.782926
vt -0.086357 2.547526
vt -0.082189 2.545009
vt -0.162364 2.374368
vt -0.157686 2.373015
vt -0.190965 2.187438
vt -0.186093 2.187341
vt 0.771390 1.495332
vt 0.774901 1.491379
vt 2.783852 4.452136
vt 2.780357 4.448637
vt 2.823019 -3.663414
vt 2.827870 -3.663885
vt 2.812713 -3.715233
vt 2.817280 -3.717119
vt 0.820582 4.484951
vt 0.822471 4.480380
vt 0.771297 4.452015
vt 0.774788 4.448516
vt -1.595237 -3.805354
vt -1.595713 -3.810198
vt 2.734564 4.485065
vt 2.732671 4.480494
vt 0.738367 4.402728
vt 0.742931 4.400831
vt 0.727778 4.349501
vt 0.732625 4.349019
vt 0.727404 2.969754
vt 0.732250 2.970229
vt 2.780854 -3.762920
vt 2.784351 -3.766407
vt 0.737053 2.920348
vt 0.741575 2.922406
vt 0.313800 4.451987
vt 0.310305 4.448489
vt 0.352569 2.957412
vt 0.357418 2.956868
vt -1.649470 4.484802
vt -1.647581 4.480232
vt -1.698755 4.451866
vt -1.695264 4.448368
vt -1.731194 -3.717391
vt -1.726631 -3.715506
vt -1.647079 -3.795047
vt -1.648967 -3.799607
vt 0.264511 4.484917
vt 0.262618 4.480345
vt -1.731683 4.402579
vt -1.727121 4.400682
vt -1.694766 -3.763189
vt -1.698257 -3.766678
vt 0.345710 1.456630
vt 0.340779 1.454426
vt 0.346701 2.909475
vt 0.342232 2.911695
vt 0.768022 2.877783
vt 0.771412 2.881380
vt 0.812434 2.845746
vt 0.815034 2.849752
vt 0.738805 1.452832
vt 0.743731 1.450675
vt 0.312811 1.498946
vt 0.309294 1.494956
vn -0.022700 0.999519 0.021120
vn -0.346252 0.882154 0.319239
vn -0.282152 0.880712 0.380444
vn -0.024961 0.999254 0.029470
vn -0.621768 0.533868 0.573053
vn -0.503260 0.530530 0.682105
vn -0.733415 0.068066 0.676365
vn -0.589321 0.062650 0.805466
vn 0.999715 -0.023874 -0.000000
vn 0.976450 0.215745 -0.000001
vn 0.976395 0.215929 -0.005300
vn 0.999712 -0.023361 -0.005422
vn 0.737683 0.675147 0.000001
vn 0.737683 0.675147 0.000001
vn 0.737425 0.675416 -0.004101
vn 0.737429 0.675412 -0.004036
vn 0.301055 0.953607 0.000005
vn 0.113288 0.993562 0.000013
vn 0.106105 0.994355 -0.000526
vn 0.300807 0.953684 -0.001696
vn -0.095098 0.994094 0.052276
vn -0.457610 0.852828 0.251550
vn -0.507127 0.852826 0.124541
vn -0.105392 0.994094 0.025882
vn -0.773543 0.469920 0.425215
vn -0.857238 0.469919 0.210524
vn -0.876016 -0.026572 0.481550
vn -0.970801 -0.026570 0.238412
vn -0.505450 -0.016925 0.862690
vn -0.448633 0.484026 0.751297
vn -0.311034 0.479782 0.820407
vn -0.349034 0.005779 0.937092
vn -0.372699 0.685707 0.625221
vn -0.179627 0.851877 0.491976
vn -0.147529 0.957125 0.249292
vn -0.046843 0.995764 0.079122
vn -0.024725 0.995986 0.086022
vn -0.056735 0.994588 -0.087044
vn -0.162389 0.954880 -0.248665
vn -0.250367 0.850238 -0.463047
vn -0.047719 0.995103 -0.086565
vn -0.402164 0.678284 -0.614976
vn -0.403240 0.678214 -0.614348
vn -0.418029 0.473127 -0.775501
vn -0.534397 0.218013 -0.816633
vn -0.546254 -0.021774 -0.837336
vn -0.470568 -0.014837 -0.882239
vn 0.639001 -0.011446 0.769121
vn 0.563270 0.484073 0.669626
vn 0.742862 0.469651 0.477058
vn 0.841171 -0.025981 0.540145
vn 0.327049 0.861113 0.389260
vn 0.439958 0.852399 0.282584
vn 0.061991 0.995304 0.074348
vn 0.091325 0.994092 0.058653
vn -0.920255 -0.024640 0.390544
vn -0.821264 0.451490 0.348829
vn -0.890549 0.454887 0.001158
vn -0.999711 -0.024026 0.001300
vn -0.514231 0.829355 0.218489
vn -0.548859 0.835915 0.000706
vn -0.120516 0.991379 0.051410
vn -0.120564 0.992706 0.000153
vn 0.005683 -0.024055 0.999694
vn 0.005070 0.454437 0.890765
vn -0.005070 0.454436 0.890765
vn -0.005683 -0.024055 0.999694
vn 0.003087 0.835394 0.549643
vn -0.003088 0.835394 0.549644
vn 0.000667 0.992687 0.120717
vn -0.000667 0.992687 0.120717
vn -0.390545 -0.024635 -0.920254
vn -0.348762 0.451560 -0.821254
vn -0.002178 0.454353 -0.890819
vn -0.002441 -0.024058 -0.999708
vn -0.218388 0.829411 -0.514183
vn -0.001326 0.835378 -0.549674
vn -0.051398 0.991376 -0.120549
vn -0.000286 0.992696 -0.120644
vn 0.997918 0.064502 -0.000372
vn 0.843277 0.537480 -0.000306
vn 0.847512 0.530741 0.006041
vn 0.997909 0.064228 0.007178
vn 0.461817 0.886975 -0.000147
vn 0.474915 0.880025 0.003452
vn 0.026309 0.999654 0.000016
vn 0.033671 0.999433 0.000424
vn -0.920255 -0.024631 0.390543
vn -0.821247 0.451573 0.348761
vn -0.890783 0.454386 0.006235
vn -0.999686 -0.024066 0.006991
vn -0.514177 0.829415 0.218386
vn -0.549718 0.835342 0.003794
vn -0.120548 0.991376 0.051397
vn -0.120883 0.992667 0.000816
vn 0.005683 -0.024055 0.999694
vn 0.005069 0.454437 0.890764
vn -0.005070 0.454437 0.890765
vn -0.005683 -0.024055 0.999694
vn 0.003087 0.835394 0.549643
vn -0.003088 0.835394 0.549643
vn 0.000667 0.992687 0.120718
vn -0.000667 0.992687 0.120718
vn 0.999711 -0.024022 -0.001300
vn 0.890539 0.454905 -0.001158
vn 0.890750 0.454493 0.001159
vn 0.999710 -0.024035 0.001300
vn 0.548842 0.835926 -0.000706
vn 0.549537 0.835469 0.000705
vn 0.120588 0.992703 -0.000153
vn 0.120470 0.992717 0.000152
vn -0.997890 0.064456 0.007868
vn -0.847583 0.530621 0.006636
vn -0.843133 0.537705 0.000016
vn -0.997902 0.064741 0.000001
vn -0.475083 0.879933 0.003765
vn -0.461499 0.887141 0.000024
vn -0.033427 0.999441 0.000422
vn -0.025857 0.999666 0.000018
vn -0.875296 -0.048449 0.481154
vn -0.970003 -0.048449 0.238216
vn -0.350395 -0.013878 0.936499
vn -0.504832 -0.038792 0.862346
vn -0.547291 -0.043484 -0.835812
vn -0.470695 -0.036679 -0.881533
vn -0.722504 -0.026552 0.690857
vn -0.722070 -0.048450 0.690121
vn 0.638573 -0.033046 0.768852
vn 0.515436 -0.017190 0.856756
vn 0.516663 0.002997 0.856184
vn 0.840555 -0.047828 0.539611
vn 0.952351 -0.026164 0.303880
vn 0.951632 -0.048086 0.303454
vn 0.999431 -0.026395 0.020984
vn 0.998610 -0.048359 0.020967
vn 0.964174 -0.026192 -0.263973
vn 0.963439 -0.048111 -0.263571
vn 0.862367 -0.026023 -0.505615
vn 0.861743 -0.047869 -0.505081
vn 0.737023 -0.025364 -0.675392
vn 0.736236 -0.047058 -0.675087
vn 0.598130 -0.035988 -0.800591
vn 0.599694 -0.057229 -0.798180
vn -0.712704 -0.026331 -0.700971
vn -0.712057 -0.048168 -0.700467
vn -0.855042 -0.026572 -0.517878
vn -0.854339 -0.048450 -0.517454
vn -0.959944 -0.026572 -0.278931
vn -0.959155 -0.048451 -0.278702
vn -0.999427 -0.026572 -0.020974
vn -0.998606 -0.048450 -0.020957
vn -0.919553 -0.045159 0.390364
vn -0.999018 -0.044293 0.001300
vn -0.999710 -0.024039 -0.001300
vn -0.999018 -0.044293 -0.001300
vn 0.005683 -0.044314 0.999002
vn -0.005683 -0.044314 0.999002
vn 0.390361 -0.045155 0.919554
vn 0.390541 -0.024630 0.920256
vn -0.390365 -0.045159 -0.919552
vn -0.002441 -0.044307 -0.999015
vn -0.706378 -0.045159 0.706392
vn -0.706886 -0.024613 0.706899
vn -0.390363 -0.045156 0.919553
vn -0.390544 -0.024631 0.920255
vn 0.706376 -0.045158 0.706395
vn 0.706882 -0.024611 0.706903
vn 0.919533 -0.045167 0.390408
vn 0.920234 -0.024643 0.390591
vn 0.998991 -0.044313 0.007353
vn 0.999684 -0.024050 0.007357
vn -0.920240 -0.024646 -0.390577
vn -0.919539 -0.045170 -0.390394
vn -0.706891 -0.024617 -0.706894
vn -0.706385 -0.045163 -0.706386
vn 0.999028 0.044071 -0.000372
vn 0.999008 0.043981 0.007044
vn 0.998998 -0.044314 -0.006250
vn 0.999690 -0.024118 -0.006236
vn -0.919553 -0.045157 0.390364
vn -0.998993 -0.044323 0.006991
vn 0.005683 -0.044314 0.999002
vn -0.005683 -0.044314 0.999002
vn 0.390360 -0.045158 0.919554
vn 0.390540 -0.024633 0.920256
vn 0.999018 -0.044295 -0.001300
vn 0.999018 -0.044295 0.001300
vn 0.919551 -0.045160 -0.390367
vn 0.920252 -0.024637 -0.390549
vn 0.002441 -0.024058 -0.999708
vn 0.002441 -0.044307 -0.999015
vn -0.706381 -0.045158 0.706390
vn -0.706889 -0.024611 0.706896
vn -0.390363 -0.045156 0.919553
vn -0.390543 -0.024631 0.920255
vn 0.706377 -0.045157 0.706394
vn 0.706884 -0.024610 0.706901
vn 0.919540 -0.045165 0.390392
vn 0.920242 -0.024640 0.390574
vn 0.390541 -0.024635 -0.920256
vn 0.390362 -0.045160 -0.919553
vn 0.706891 -0.024616 -0.706894
vn 0.706384 -0.045161 -0.706387
vn -0.998990 0.044252 0.007746
vn -0.999018 0.044315 0.000000
vn -0.999682 -0.024154 -0.007229
vn -0.998990 -0.044338 -0.007231
vn -0.633633 -0.035618 -0.772813
vn -0.638497 -0.015219 -0.769474
vn -0.895353 -0.043033 -0.443272
vn -0.897043 -0.022720 -0.441358
vn 0.912783 -0.042860 -0.406189
vn 0.914374 -0.022585 -0.404240
vn 0.684061 -0.052227 -0.727552
vn 0.688955 -0.030655 -0.724156
vn 0.525725 -0.068164 -0.847919
vn 0.526218 -0.047122 -0.849043
vn 0.646658 0.016802 0.762595
vn 0.642352 0.036800 0.765526
vn 0.901500 0.034195 0.431426
vn 0.899001 0.054108 0.434590
vn -0.898820 0.035837 0.436850
vn -0.896305 0.055780 0.439916
vn -0.643987 0.019820 0.764780
vn -0.639722 0.039843 0.767573
vn 0.874211 0.069422 -0.480557
vn 0.968801 0.069421 -0.237921
vn 0.970003 0.048449 -0.238216
vn 0.875296 0.048450 -0.481154
vn 0.507721 0.059810 -0.859443
vn 0.506731 0.039054 -0.861219
vn 0.337001 0.016463 -0.941360
vn 0.334987 0.037551 -0.941474
vn 0.543485 0.065383 0.836869
vn 0.471816 0.059749 0.879670
vn 0.472508 0.038247 0.880496
vn 0.545355 0.044495 0.837024
vn 0.720024 0.069365 -0.690474
vn 0.720917 0.048450 -0.691326
vn -0.839626 0.068818 -0.538788
vn -0.637340 0.053769 -0.768705
vn -0.637397 0.032950 -0.769830
vn -0.840720 0.047827 -0.539354
vn -0.950550 0.069048 -0.302798
vn -0.951775 0.048087 -0.303005
vn -0.997376 0.069304 -0.020932
vn -0.998610 0.048360 -0.020958
vn -0.962329 0.069071 0.262969
vn -0.963563 0.048113 0.263119
vn -0.861125 0.068858 0.503708
vn -0.862253 0.047871 0.504211
vn -0.734016 0.047037 0.677501
vn -0.591730 0.041857 0.805049
vn 0.710481 0.069604 0.700266
vn 0.711214 0.048622 0.701292
vn 0.853279 0.069422 0.516813
vn 0.854338 0.048449 0.517455
vn 0.957966 0.069421 0.278356
vn 0.959155 0.048449 0.278702
vn 0.997368 0.069421 0.020930
vn 0.998606 0.048449 0.020957
vn -0.520607 0.039154 -0.852898
vn -0.519523 0.018626 -0.854254
vn 0.922762 0.045160 -0.382715
vn 0.999018 0.044292 -0.000964
vn 0.997876 0.065142 -0.000964
vn 0.921591 0.067353 -0.382275
vn 0.997874 0.065166 0.000964
vn 0.999018 0.044292 0.000964
vn -0.004254 0.044304 -0.999009
vn 0.004254 0.044304 -0.999009
vn 0.004256 0.065176 -0.997865
vn -0.004256 0.065176 -0.997865
vn -0.382715 0.045157 -0.922762
vn -0.382275 0.067348 -0.921591
vn 0.382715 0.045161 0.922762
vn 0.001815 0.044303 0.999017
vn 0.001815 0.065159 0.997873
vn 0.382275 0.067352 0.921591
vn 0.706383 0.045159 -0.706388
vn 0.705494 0.067429 -0.705501
vn 0.382715 0.045157 -0.922762
vn 0.382275 0.067348 -0.921591
vn -0.706379 0.045159 -0.706392
vn -0.705490 0.067428 -0.705505
vn -0.922746 0.045167 -0.382754
vn -0.921573 0.067356 -0.382318
vn -0.997857 0.065188 -0.005606
vn -0.999002 0.044306 -0.005601
vn 0.921568 0.067363 0.382328
vn 0.922744 0.045170 0.382758
vn 0.705496 0.067431 0.705499
vn 0.706384 0.045161 0.706386
vn -0.999028 -0.044071 0.000372
vn -0.999020 -0.044010 -0.004691
vn -0.999722 -0.023059 -0.004841
vn -0.999721 -0.023610 0.000373
vn -0.997870 0.065101 0.004239
vn -0.999009 0.044305 0.004251
vn 0.922762 0.045161 -0.382716
vn 0.999004 0.044316 -0.005252
vn 0.997859 0.065193 -0.005253
vn 0.921590 0.067353 -0.382276
vn -0.004254 0.044304 -0.999009
vn 0.004254 0.044304 -0.999009
vn 0.004256 0.065176 -0.997865
vn -0.004256 0.065176 -0.997865
vn -0.382715 0.045157 -0.922762
vn -0.382274 0.067347 -0.921591
vn -0.999018 0.044292 0.000964
vn -0.999018 0.044292 -0.000964
vn -0.997874 0.065166 -0.000964
vn -0.997876 0.065142 0.000964
vn -0.922761 0.045161 0.382717
vn -0.921590 0.067354 0.382277
vn -0.001815 0.065159 0.997873
vn -0.001815 0.044303 0.999017
vn 0.706380 0.045160 -0.706390
vn 0.705492 0.067430 -0.705502
vn 0.382718 0.045158 -0.922761
vn 0.382278 0.067349 -0.921590
vn -0.706377 0.045159 -0.706394
vn -0.705488 0.067429 -0.705507
vn -0.922744 0.045169 -0.382758
vn -0.921568 0.067364 -0.382328
vn -0.382271 0.067353 0.921592
vn -0.382711 0.045162 0.922764
vn -0.705495 0.067432 0.705500
vn -0.706383 0.045161 0.706388
vn 0.999006 -0.044272 -0.005283
vn 0.999018 -0.044315 -0.000000
vn 0.997860 0.065207 0.004944
vn 0.999005 0.044324 0.004947
vn 0.628407 0.057694 0.775742
vn 0.624357 0.035340 0.780340
vn 0.900626 0.065347 0.429653
vn 0.900567 0.043169 0.432569
vn -0.919699 0.065214 0.387169
vn -0.919771 0.043073 0.390086
vn -0.709543 0.059085 0.702180
vn -0.709217 0.037731 0.703980
vn -0.533669 0.058471 0.843669
vn -0.533004 0.036363 0.845331
vn -0.632223 0.006222 -0.774762
vn -0.640743 -0.016427 -0.767580
vn -0.905131 -0.012620 -0.424946
vn -0.907768 -0.034661 -0.418038
vn 0.902231 -0.014350 -0.431015
vn 0.904678 -0.036228 -0.424554
vn 0.629705 0.002981 -0.776828
vn 0.637761 -0.019445 -0.769989
vn 0.029500 0.999539 -0.007245
vn 0.026619 0.999539 -0.014632
vn 0.024731 0.998882 -0.040301
vn 0.023039 0.998779 -0.043713
vn 0.018963 0.999117 0.037492
vn 0.019810 0.999345 0.030283
vn 0.024118 0.999449 -0.022787
vn -0.076128 0.994391 0.073427
vn -0.027805 0.999030 -0.034136
vn -0.025586 0.999538 -0.016411
vn -0.029798 0.999511 -0.009478
vn 0.102514 0.994194 0.032706
vn -0.031717 0.999497 -0.000666
vn 0.107063 0.994250 0.002248
vn -0.030149 0.999512 0.008225
vn 0.103777 0.994195 -0.028408
vn -0.026231 0.999538 0.015323
vn 0.093630 0.994093 -0.054892
vn 0.080674 0.993961 -0.074386
vn 0.059791 0.994498 -0.086014
vn 0.022927 0.999488 0.022338
vn -0.076325 0.994224 -0.075457
vn 0.025989 0.999538 0.015738
vn -0.092828 0.994093 -0.056226
vn 0.029171 0.999539 0.008476
vn -0.104213 0.994094 -0.030281
vn 0.030370 0.999539 0.000637
vn -0.108499 0.994094 -0.002277
vn 0.042955 0.996117 0.076852
vn -0.035688 0.998071 -0.050793
vn 0.007079 0.999972 -0.002485
vn 0.018648 0.999826 -0.000013
vn 0.018699 0.999825 0.000013
vn -0.120447 0.992720 -0.000152
vn -0.000055 0.999827 -0.018617
vn 0.000055 0.999827 -0.018618
vn -0.002483 0.999972 -0.007071
vn 0.051397 0.991377 0.120544
vn 0.002482 0.999972 0.007067
vn 0.000024 0.999825 0.018723
vn 0.004757 0.999977 -0.004759
vn -0.093217 0.991272 0.093219
vn 0.002484 0.999972 -0.007072
vn -0.051399 0.991376 0.120547
vn -0.004756 0.999977 -0.004760
vn 0.093221 0.991272 0.093216
vn -0.007066 0.999972 -0.002488
vn 0.120550 0.991375 0.051407
vn -0.018541 0.999828 -0.000075
vn 0.120775 0.992680 0.000864
vn 0.007064 0.999972 0.002494
vn -0.120578 0.991371 -0.051420
vn 0.004754 0.999977 0.004757
vn -0.093220 0.991272 -0.093217
vn -0.112866 0.993610 0.000064
vn -0.105858 0.994381 -0.000433
vn -0.018288 0.999833 0.000091
vn 0.121314 0.992614 -0.000659
vn 0.007067 0.999972 -0.002483
vn 0.018434 0.999830 -0.000072
vn -0.000055 0.999827 -0.018617
vn 0.000055 0.999827 -0.018617
vn -0.002483 0.999972 -0.007070
vn 0.051397 0.991377 0.120544
vn -0.018660 0.999826 0.000013
vn -0.018708 0.999825 -0.000013
vn -0.007082 0.999972 0.002484
vn 0.120534 0.991377 -0.051411
vn -0.000024 0.999825 0.018722
vn 0.000286 0.992696 -0.120645
vn 0.004758 0.999977 -0.004759
vn -0.093218 0.991272 0.093220
vn 0.002484 0.999972 -0.007072
vn -0.051399 0.991376 0.120548
vn -0.004754 0.999977 -0.004759
vn 0.093223 0.991272 0.093216
vn -0.007064 0.999972 -0.002495
vn 0.120581 0.991371 0.051422
vn -0.002482 0.999972 0.007066
vn 0.051397 0.991376 -0.120547
vn -0.004756 0.999977 0.004756
vn 0.093217 0.991273 -0.093218
vn 0.017617 0.999845 0.000092
vn -0.121846 0.992549 -0.000776
vn 0.004011 0.999911 0.012751
vn -0.084600 0.992000 -0.093701
vn 0.005335 0.999966 0.006228
vn -0.119546 0.991360 -0.053988
vn -0.006044 0.999964 0.005927
vn 0.121319 0.991401 -0.049043
vn -0.002291 0.999781 0.020780
vn 0.098241 0.991977 -0.079561
vn -0.016744 0.999321 0.032835
vn 0.054866 0.994421 -0.090090
vn -0.050570 0.997919 -0.039995
vn 0.037372 0.996958 0.068400
vn -0.077182 0.996624 -0.028004
vn 0.048020 0.998309 0.032751
vn 0.078204 0.996488 -0.029922
vn -0.046380 0.998425 0.031557
vn 0.052507 0.997688 -0.043148
vn -0.034694 0.997279 0.065049
vn 0.183707 0.977780 -0.100984
vn 0.203583 0.977780 -0.049996
vn 0.833906 0.307357 -0.458402
vn 0.924134 0.307357 -0.226952
vn 0.586129 0.743398 -0.322199
vn 0.586130 0.743398 -0.322197
vn 0.649545 0.743401 -0.159518
vn 0.649545 0.743401 -0.159516
vn 0.209589 0.977780 0.004398
vn 0.951385 0.307356 0.019967
vn 0.668692 0.743407 0.014033
vn 0.668692 0.743407 0.014034
vn 0.342248 0.880497 -0.328012
vn 0.610828 0.532944 -0.585542
vn 0.249905 0.873760 -0.417242
vn 0.438684 0.523612 -0.730333
vn 0.169258 0.878679 -0.446403
vn 0.299518 0.517270 -0.801698
vn -0.141474 0.975197 -0.170225
vn -0.258051 0.873009 -0.413842
vn -0.613804 0.294101 -0.732632
vn -0.506807 0.278239 -0.815923
vn -0.434964 0.735278 -0.519781
vn -0.434828 0.735261 -0.519919
vn -0.364943 0.722459 -0.587256
vn -0.307873 0.882345 -0.355924
vn -0.618956 0.250387 -0.744446
vn -0.461265 0.705572 -0.537962
vn -0.176997 0.977637 -0.113568
vn -0.563533 0.742758 -0.361581
vn -0.563502 0.742758 -0.361629
vn -0.801062 0.306571 -0.514115
vn -0.199845 0.977757 -0.063660
vn -0.637193 0.743517 -0.202897
vn -0.637166 0.743517 -0.202982
vn -0.906729 0.307268 -0.288839
vn -0.209255 0.977851 -0.004395
vn -0.667956 0.744069 -0.014026
vn -0.667956 0.744069 -0.014025
vn -0.951238 0.307810 -0.019972
vn -0.202289 0.977765 0.055277
vn -0.645057 0.743544 0.176190
vn -0.645033 0.743544 0.176280
vn -0.917955 0.307297 0.250852
vn -0.181584 0.977620 0.106243
vn -0.577960 0.742743 0.338075
vn -0.577927 0.742743 0.338133
vn -0.821569 0.306598 0.480648
vn 0.257905 0.881249 0.396087
vn 0.222000 0.883807 0.411826
vn 0.462580 0.532132 0.709123
vn 0.402164 0.534246 0.743536
vn 0.336387 0.881326 0.331826
vn 0.602078 0.533801 0.593767
vn 0.179334 0.977773 0.108625
vn 0.572102 0.743388 0.346516
vn 0.572102 0.743388 0.346516
vn 0.813939 0.307362 0.492982
vn 0.201309 0.977780 0.058495
vn 0.642277 0.743405 0.186626
vn 0.642276 0.743405 0.186627
vn 0.913798 0.307361 0.265523
vn 0.215412 0.976523 -0.000225
vn 0.194319 0.977589 -0.080993
vn 0.953515 0.301345 -0.000939
vn 0.878905 0.306811 -0.365229
vn 0.674984 0.737832 -0.000682
vn 0.674984 0.737832 -0.000682
vn 0.616136 0.744694 -0.256529
vn 0.616134 0.744694 -0.256536
vn 0.148671 0.977646 -0.148676
vn 0.672994 0.306818 -0.673009
vn 0.471846 0.744793 -0.471853
vn 0.471845 0.744793 -0.471854
vn 0.215412 0.976523 0.000223
vn 0.674983 0.737833 0.000678
vn 0.674983 0.737833 0.000686
vn 0.953515 0.301345 0.000942
vn 0.000990 0.976551 -0.215282
vn -0.000990 0.976551 -0.215282
vn 0.004144 0.301515 -0.953453
vn -0.004144 0.301515 -0.953453
vn 0.003005 0.738017 -0.674776
vn 0.003005 0.738017 -0.674776
vn -0.003005 0.738017 -0.674776
vn -0.003005 0.738017 -0.674776
vn -0.080989 0.977590 -0.194318
vn -0.365216 0.306788 -0.878919
vn -0.256522 0.744691 -0.616143
vn -0.256529 0.744691 -0.616140
vn -0.148669 0.977647 -0.148674
vn -0.672997 0.306810 -0.673010
vn -0.471843 0.744794 -0.471853
vn -0.471842 0.744794 -0.471854
vn -0.215251 0.976558 -0.001298
vn -0.448482 0.893790 0.002000
vn -0.953443 0.301524 -0.005453
vn -0.953456 0.301505 0.004050
vn -0.674716 0.738067 -0.003947
vn -0.674716 0.738067 -0.003948
vn -0.674756 0.738035 0.002970
vn -0.385483 0.908034 0.163943
vn -0.878195 0.306334 0.367333
vn -0.613945 0.745028 0.260776
vn 0.000423 0.976538 0.215344
vn 0.080988 0.977590 0.194316
vn 0.001769 0.301430 0.953487
vn 0.365222 0.306795 0.878914
vn 0.001283 0.737944 0.674860
vn 0.001283 0.737944 0.674860
vn 0.256522 0.744702 0.616130
vn 0.256530 0.744702 0.616127
vn 0.148667 0.977648 0.148669
vn 0.673002 0.306810 0.673006
vn 0.471838 0.744806 0.471841
vn 0.471838 0.744806 0.471841
vn 0.080990 0.977589 -0.194321
vn 0.365216 0.306791 -0.878918
vn 0.256523 0.744692 -0.616141
vn 0.256528 0.744692 -0.616138
vn -0.194305 0.977590 -0.081012
vn -0.878877 0.306802 -0.365304
vn -0.616113 0.744694 -0.256584
vn -0.616109 0.744694 -0.256595
vn 0.194254 0.977597 0.081054
vn 0.616024 0.744749 0.256639
vn 0.616028 0.744749 0.256628
vn 0.878861 0.306830 0.365320
vn 0.215154 0.976579 -0.001223
vn 0.194318 0.977589 -0.080992
vn 0.953439 0.301543 -0.005116
vn 0.878910 0.306801 -0.365228
vn 0.674675 0.738105 -0.003709
vn 0.674675 0.738105 -0.003709
vn 0.616131 0.744699 -0.256525
vn 0.616129 0.744699 -0.256532
vn 0.148671 0.977647 -0.148674
vn 0.672997 0.306813 -0.673009
vn 0.471843 0.744796 -0.471850
vn 0.471842 0.744796 -0.471851
vn 0.215164 0.976577 0.001181
vn 0.837576 0.546305 0.004224
vn 0.674676 0.738106 0.003465
vn 0.000990 0.976552 -0.215282
vn -0.000990 0.976551 -0.215282
vn 0.004144 0.301515 -0.953453
vn -0.004144 0.301515 -0.953453
vn 0.003005 0.738017 -0.674776
vn 0.003005 0.738017 -0.674776
vn -0.003005 0.738017 -0.674776
vn -0.003005 0.738017 -0.674776
vn -0.080988 0.977590 -0.194318
vn -0.365216 0.306780 -0.878922
vn -0.256525 0.744691 -0.616142
vn -0.256530 0.744691 -0.616140
vn -0.148667 0.977647 -0.148675
vn -0.672992 0.306818 -0.673012
vn -0.471842 0.744793 -0.471857
vn -0.471841 0.744793 -0.471858
vn -0.215413 0.976523 -0.000223
vn -0.215414 0.976523 0.000225
vn -0.953515 0.301346 -0.000942
vn -0.953515 0.301345 0.000939
vn -0.675000 0.737817 -0.000678
vn -0.675000 0.737818 -0.000686
vn -0.675001 0.737817 0.000682
vn -0.675001 0.737817 0.000682
vn -0.194317 0.977590 0.080989
vn -0.878907 0.306812 0.365224
vn -0.616142 0.744689 0.256530
vn -0.616139 0.744689 0.256537
vn -0.148668 0.977648 0.148669
vn -0.672997 0.306825 0.673003
vn -0.471851 0.744790 0.471852
vn -0.471851 0.744790 0.471852
vn -0.000423 0.976538 0.215344
vn -0.001283 0.737944 0.674860
vn -0.001283 0.737944 0.674860
vn -0.001769 0.301430 0.953487
vn 0.080989 0.977590 -0.194318
vn 0.365217 0.306789 -0.878918
vn 0.256525 0.744691 -0.616141
vn 0.256532 0.744691 -0.616139
vn -0.194255 0.977597 -0.081055
vn -0.878855 0.306850 -0.365318
vn -0.616035 0.744743 -0.256630
vn -0.616029 0.744743 -0.256644
vn -0.080988 0.977590 0.194315
vn -0.256534 0.744694 0.616134
vn -0.256527 0.744694 0.616137
vn -0.365222 0.306793 0.878914
vn 0.260301 0.958155 -0.119094
vn 0.785130 0.496814 -0.369793
vn 0.654395 0.690146 -0.308975
vn 0.136089 0.975946 0.170318
vn 0.524473 0.558818 0.642378
vn 0.427046 0.739938 0.519735
vn -0.300527 0.953773 0.000128
vn -0.300264 0.953855 -0.001478
vn -0.737271 0.675597 0.000292
vn -0.737271 0.675597 0.000292
vn -0.737004 0.675879 -0.003551
vn -0.736999 0.675884 -0.003624
vn -0.976363 0.216138 0.000380
vn -0.976306 0.216345 -0.004698
vn 0.190620 0.977120 0.094343
vn 0.744213 0.565538 0.355406
vn 0.602699 0.744208 0.287939
vn -0.306915 0.897632 0.316323
vn -0.679850 0.297767 0.670178
vn -0.475604 0.737214 0.479913
vn -0.242740 0.891400 0.382731
vn -0.512643 0.294828 0.806395
vn -0.363407 0.734223 0.573456
vn -0.441210 0.874536 -0.201298
vn -0.882038 0.232261 -0.409955
vn -0.655804 0.692939 -0.299593
vn 0.179802 0.962612 -0.202608
vn 0.549990 0.511528 -0.660189
vn 0.456535 0.701967 -0.546642
vn -0.375690 0.853861 0.360249
vn -0.637337 0.470725 0.610098
vn -0.372322 0.852423 -0.367085
vn -0.629296 0.469234 -0.619520
vn -0.569628 0.460187 -0.680993
vn -0.356490 0.833983 -0.421173
vn 0.455610 0.482967 0.747772
vn 0.265626 0.856759 0.442049
vn 0.495912 0.853840 0.158206
vn 0.840305 0.471204 0.268055
vn 0.519030 0.854686 0.010901
vn 0.881356 0.472091 0.018509
vn 0.502037 0.853858 -0.137423
vn 0.850729 0.471213 -0.232849
vn 0.451075 0.852393 -0.264496
vn 0.761609 0.469608 -0.446565
vn 0.387628 0.850496 -0.355530
vn 0.651771 0.467564 -0.597142
vn 0.579766 0.207516 -0.787914
vn 0.436041 0.673883 -0.596448
vn 0.437600 0.673948 -0.595231
vn 0.175034 0.954190 -0.242661
vn -0.446679 0.852815 -0.270526
vn -0.755029 0.469908 -0.457294
vn -0.501453 0.852828 -0.145707
vn -0.847650 0.469920 -0.246301
vn -0.522080 0.852826 -0.010957
vn -0.882515 0.469919 -0.018520
vn 0.551667 0.503331 0.665073
vn 0.316923 0.859857 0.400256
vn -0.630966 0.451367 0.630991
vn -0.395358 0.829079 0.395374
vn -0.549548 0.835462 -0.000706
vn -0.890756 0.454481 -0.001160
vn -0.514163 0.829414 -0.218423
vn -0.821231 0.451559 -0.348818
vn 0.348763 0.451581 0.821242
vn 0.218388 0.829419 0.514170
vn 0.630973 0.451376 0.630978
vn 0.395367 0.829080 0.395361
vn 0.001326 0.835379 -0.549673
vn 0.002178 0.454354 -0.890818
vn -0.348761 0.451578 0.821245
vn -0.218387 0.829420 0.514168
vn 0.821222 0.451565 0.348833
vn 0.514164 0.829412 0.218427
vn 0.890743 0.454460 0.006563
vn 0.549603 0.835416 0.003999
vn 0.890888 0.454191 -0.005431
vn 0.549638 0.835397 -0.003248
vn -0.395368 0.829076 -0.395370
vn -0.630982 0.451357 -0.630983
vn 0.816716 0.452661 -0.357872
vn 0.270383 0.955912 -0.114564
vn 0.668253 0.684908 -0.290411
vn -0.630968 0.451372 0.630985
vn -0.395359 0.829080 0.395371
vn -0.551343 0.834270 -0.003790
vn -0.891349 0.453273 -0.006305
vn 0.348761 0.451582 0.821243
vn 0.218387 0.829419 0.514171
vn 0.630979 0.451377 0.630971
vn 0.395368 0.829082 0.395356
vn 0.821280 0.451493 -0.348789
vn 0.514248 0.829353 -0.218457
vn 0.218387 0.829415 -0.514176
vn 0.348764 0.451567 -0.821250
vn -0.348760 0.451579 0.821245
vn -0.218387 0.829420 0.514169
vn 0.821225 0.451566 0.348823
vn 0.514170 0.829410 0.218422
vn 0.395366 0.829079 -0.395367
vn 0.630978 0.451362 -0.630982
vn -0.765906 0.519737 0.378499
vn -0.440249 0.869564 0.223697
vn -0.875984 0.223481 -0.427443
vn -0.503177 0.829657 -0.241833
vn -0.654250 0.686054 -0.318257
vn 0.631685 0.448764 -0.632127
vn 0.216064 0.955523 -0.200728
vn 0.522379 0.678642 -0.516299
vn 0.518698 0.198520 -0.831590
vn 0.157984 0.954572 -0.252654
vn 0.393038 0.670104 -0.629667
vn 0.392942 0.670101 -0.629731
vn 0.769357 0.517651 0.374335
vn 0.443428 0.868292 0.222351
vn -0.548015 0.506414 0.665751
vn -0.314024 0.861640 0.398705
s 1
g RoadEdges1 ROADEDGES_grp BossExt_grp
usemtl aiStandardSurface32SG
f 182/1/1 181/2/2 184/3/3 183/4/4
f 181/2/2 180/5/5 185/6/6 184/3/3
f 180/5/5 179/7/7 186/8/8 185/6/6
f 338/9/9 337/10/10 340/11/11 339/12/12
f 337/10/13 336/13/14 341/14/15 340/11/16
f 336/13/17 335/15/18 342/16/19 341/14/20
f 394/17/21 393/18/22 396/19/23 395/20/24
f 393/18/22 392/21/25 397/22/26 396/19/23
f 392/21/25 391/23/27 398/24/28 397/22/26
f 402/25/29 401/26/30 404/27/31 403/28/32
f 401/26/30 400/29/33 405/30/34 404/27/31
f 400/29/35 399/31/36 406/32/37 405/30/34
f 410/33/38 409/34/39 412/35/40 411/36/41
f 409/34/42 408/37/43 413/38/44 412/35/40
f 408/37/45 407/39/46 414/40/47 413/38/44
f 422/41/48 421/42/49 424/43/50 423/44/51
f 421/42/49 420/45/52 425/46/53 424/43/50
f 420/45/52 419/47/54 426/48/55 425/46/53
f 474/49/56 473/50/57 476/51/58 475/52/59
f 473/50/57 472/53/60 477/54/61 476/51/58
f 472/53/60 471/55/62 478/56/63 477/54/61
f 486/57/64 485/58/65 488/59/66 487/60/67
f 485/58/65 484/61/68 489/62/69 488/59/66
f 484/61/68 483/63/70 490/64/71 489/62/69
f 498/65/72 497/66/73 500/67/74 499/68/75
f 497/66/73 496/69/76 501/70/77 500/67/74
f 496/69/76 495/71/78 502/72/79 501/70/77
f 534/73/80 533/74/81 536/75/82 535/76/83
f 533/74/81 532/77/84 537/78/85 536/75/82
f 532/77/84 531/79/86 538/80/87 537/78/85
f 546/81/88 545/82/89 548/83/90 547/84/91
f 545/82/89 544/85/92 549/86/93 548/83/90
f 544/85/92 543/87/94 550/88/95 549/86/93
f 554/89/96 553/90/97 556/91/98 555/92/99
f 553/90/97 552/93/100 557/94/101 556/91/98
f 552/93/100 551/95/102 558/96/103 557/94/101
f 566/97/104 565/98/105 568/99/106 567/100/107
f 565/98/105 564/101/108 569/102/109 568/99/106
f 564/101/108 563/103/110 570/104/111 569/102/109
f 606/105/112 605/106/113 608/107/114 607/108/115
f 605/106/113 604/109/116 609/110/117 608/107/114
f 604/109/116 603/111/118 610/112/119 609/110/117
f 391/23/27 65/113/120 66/114/121 398/24/28
f 402/25/29 403/28/32 67/115/122 68/116/123
f 407/39/46 69/117/124 70/118/125 414/40/47
f 415/119/126 71/120/127 65/113/120 391/23/27
f 402/25/29 68/116/123 71/120/127 415/119/126
f 422/41/48 72/121/128 84/122/129 470/123/130
f 423/44/51 73/124/131 72/121/128 422/41/48
f 427/125/132 74/126/133 73/124/131 423/44/51
f 431/127/134 75/128/135 74/126/133 427/125/132
f 435/129/136 76/130/137 75/128/135 431/127/134
f 439/131/138 77/132/139 76/130/137 435/129/136
f 443/133/140 78/134/141 77/132/139 439/131/138
f 443/133/140 450/135/142 129/136/143 78/134/141
f 451/137/144 80/138/145 69/117/124 407/39/46
f 455/139/146 81/140/147 80/138/145 451/137/144
f 459/141/148 82/142/149 81/140/147 455/139/146
f 463/143/150 83/144/151 82/142/149 459/141/148
f 463/143/150 398/24/28 66/114/121 83/144/151
f 85/145/152 474/49/56 475/52/59 86/146/153
f 479/147/154 87/148/155 86/146/153 475/52/59
f 88/149/156 486/57/64 487/60/67 89/150/157
f 90/151/158 494/152/159 486/57/64 88/149/156
f 91/153/160 498/65/72 499/68/75 92/154/161
f 93/155/162 506/156/163 474/49/56 85/145/152
f 94/157/164 510/158/165 506/156/163 93/155/162
f 94/157/164 89/150/157 487/60/67 510/158/165
f 95/159/166 514/160/167 494/152/159 90/151/158
f 96/161/168 518/162/169 514/160/167 95/159/166
f 96/161/168 97/163/170 522/164/171 518/162/169
f 523/165/172 98/166/173 87/148/155 479/147/154
f 527/167/174 99/168/175 98/166/173 523/165/172
f 91/153/160 99/168/175 527/167/174 498/65/72
f 100/169/176 534/73/80 535/76/83 101/170/177
f 97/163/170 102/171/178 542/172/179 522/164/171
f 103/173/180 546/81/88 547/84/91 104/174/181
f 105/175/182 554/89/96 555/92/99 106/176/183
f 107/177/184 562/178/185 554/89/96 105/175/182
f 108/179/186 566/97/104 567/100/107 109/180/187
f 110/181/188 574/182/189 566/97/104 108/179/186
f 575/183/190 111/184/191 92/154/161 499/68/75
f 112/185/192 582/186/193 546/81/88 103/173/180
f 113/187/194 586/188/195 582/186/193 112/185/192
f 113/187/194 106/176/183 555/92/99 586/188/195
f 114/189/196 590/190/197 562/178/185 107/177/184
f 115/191/198 594/192/199 590/190/197 114/189/196
f 115/191/198 109/180/187 567/100/107 594/192/199
f 595/193/200 116/194/201 111/184/191 575/183/190
f 599/195/202 117/196/203 116/194/201 595/193/200
f 110/181/188 117/196/203 599/195/202 574/182/189
f 118/197/204 606/105/112 607/108/115 119/198/205
f 611/199/206 120/200/207 104/174/181 547/84/91
f 70/118/125 121/201/208 618/202/209 414/40/47
f 121/201/208 122/203/210 622/204/211 618/202/209
f 122/203/210 120/200/207 611/199/206 622/204/211
f 102/171/178 123/205/212 626/206/213 542/172/179
f 123/205/212 124/207/214 630/208/215 626/206/213
f 124/207/214 79/209/216 634/210/217 630/208/215
f 84/122/129 125/211/218 638/212/219 470/123/130
f 125/211/218 126/213/220 642/214/221 638/212/219
f 126/213/220 101/170/177 535/76/83 642/214/221
f 118/197/204 127/215/222 646/216/223 606/105/112
f 127/215/222 128/217/224 650/218/225 646/216/223
f 128/217/224 67/115/122 403/28/32 650/218/225
f 131/219/226 135/220/227 1/221/228 2/222/229
f 143/223/230 4/224/231 61/225/232 147/226/233
f 187/227/234 343/228/235 52/229/236 12/230/237
f 139/231/238 131/219/226 2/222/229 3/232/239
f 143/223/230 139/231/238 3/232/239 4/224/231
f 159/233/240 151/234/241 5/235/242 6/236/243
f 163/237/244 159/233/240 6/236/243 7/238/245
f 167/239/246 163/237/244 7/238/245 8/240/247
f 171/241/248 167/239/246 8/240/247 9/242/249
f 175/243/250 171/241/248 9/242/249 10/244/251
f 179/7/7 175/243/250 10/244/251 11/245/252
f 179/7/7 11/245/252 130/246/253 186/8/8
f 191/247/254 187/227/234 12/230/237 13/248/255
f 195/249/256 191/247/254 13/248/255 14/250/257
f 199/251/258 195/249/256 14/250/257 15/252/259
f 203/253/260 199/251/258 15/252/259 16/254/261
f 203/253/260 16/254/261 1/221/228 135/220/227
f 155/255/262 60/256/263 5/235/242 151/234/241
f 21/257/264 17/258/265 207/259/266 211/260/267
f 215/261/268 207/259/266 17/258/265 27/262/269
f 26/263/270 18/264/271 219/265/272 223/266/273
f 25/267/274 26/263/270 223/266/273 227/268/275
f 30/269/276 31/270/277 239/271/278 243/272/279
f 20/273/280 21/257/264 211/260/267 247/274/281
f 19/275/282 20/273/280 247/274/281 251/276/283
f 19/275/282 251/276/283 219/265/272 18/264/271
f 24/277/284 25/267/274 227/268/275 255/278/285
f 23/279/286 24/277/284 255/278/285 259/280/287
f 23/279/286 259/280/287 231/281/288 22/282/289
f 263/283/290 215/261/268 27/262/269 28/284/291
f 267/285/292 263/283/290 28/284/291 29/286/293
f 30/269/276 243/272/279 267/285/292 29/286/293
f 32/287/294 57/288/295 351/289/296 347/290/297
f 22/282/289 231/281/288 235/291/298 56/292/299
f 37/293/300 33/294/301 271/295/302 275/296/303
f 42/297/304 34/298/305 283/299/306 287/300/307
f 41/301/308 42/297/304 287/300/307 291/302/309
f 43/303/310 38/304/311 295/305/312 299/306/313
f 47/307/314 43/303/310 299/306/313 303/308/315
f 307/309/316 239/271/278 31/270/277 44/310/317
f 36/311/318 37/293/300 275/296/303 311/312/319
f 35/313/320 36/311/318 311/312/319 315/314/321
f 35/313/320 315/314/321 283/299/306 34/298/305
f 40/315/322 41/301/308 291/302/309 319/316/323
f 39/317/324 40/315/322 319/316/323 323/318/325
f 39/317/324 323/318/325 295/305/312 38/304/311
f 327/319/326 307/309/316 44/310/317 45/320/327
f 331/321/328 327/319/326 45/320/327 46/322/329
f 47/307/314 303/308/315 331/321/328 46/322/329
f 64/323/330 48/324/331 338/9/9 339/12/12
f 279/325/332 271/295/302 33/294/301 49/326/333
f 52/229/236 343/228/235 355/327/334 51/328/335
f 51/328/335 355/327/334 359/329/336 50/330/337
f 50/330/337 359/329/336 279/325/332 49/326/333
f 56/292/299 235/291/298 363/331/338 55/332/339
f 55/332/339 363/331/338 367/333/340 54/334/341
f 54/334/341 367/333/340 371/335/342 53/336/343
f 60/256/263 155/255/262 375/337/344 59/338/345
f 59/338/345 375/337/344 379/339/346 58/340/347
f 58/340/347 379/339/346 351/289/296 57/288/295
f 64/323/330 339/12/12 383/341/348 63/342/349
f 63/342/349 383/341/348 387/343/350 62/344/351
f 62/344/351 387/343/350 147/226/233 61/225/232
f 138/345/352 134/346/353 394/17/21 395/20/24
f 146/347/354 150/348/355 406/32/37 399/31/36
f 346/349/356 190/350/357 410/33/38 411/36/41
f 134/346/353 142/351/358 418/352/359 394/17/21
f 142/351/358 146/347/354 399/31/36 418/352/359
f 154/353/360 162/354/361 426/48/55 419/47/54
f 162/354/361 166/355/362 430/356/363 426/48/55
f 166/355/362 170/357/364 434/358/365 430/356/363
f 170/357/364 174/359/366 438/360/367 434/358/365
f 174/359/366 178/361/368 442/362/369 438/360/367
f 178/361/368 182/1/1 446/363/370 442/362/369
f 446/363/370 182/1/1 183/4/4 447/364/371
f 190/350/357 194/365/372 454/366/373 410/33/38
f 194/365/372 198/367/374 458/368/375 454/366/373
f 198/367/374 202/369/376 462/370/377 458/368/375
f 202/369/376 206/371/378 466/372/379 462/370/377
f 206/371/378 138/345/352 395/20/24 466/372/379
f 419/47/54 467/373/380 158/374/381 154/353/360
f 214/375/382 210/376/383 478/56/63 471/55/62
f 210/376/383 218/377/384 482/378/385 478/56/63
f 226/379/386 222/380/387 490/64/71 483/63/70
f 230/381/388 226/379/386 483/63/70 491/382/389
f 246/383/390 242/384/391 502/72/79 495/71/78
f 250/385/392 214/375/382 471/55/62 503/386/393
f 254/387/394 250/385/392 503/386/393 507/388/395
f 222/380/387 254/387/394 507/388/395 490/64/71
f 258/389/396 230/381/388 491/382/389 511/390/397
f 262/391/398 258/389/396 511/390/397 515/392/399
f 234/393/400 262/391/398 515/392/399 519/394/401
f 218/377/384 266/395/402 526/396/403 482/378/385
f 266/395/402 270/397/404 530/398/405 526/396/403
f 270/397/404 246/383/390 495/71/78 530/398/405
f 350/399/406 354/400/407 538/80/87 531/79/86
f 238/401/408 234/393/400 519/394/401 539/402/409
f 278/403/410 274/404/411 550/88/95 543/87/94
f 290/405/412 286/406/413 558/96/103 551/95/102
f 294/407/414 290/405/412 551/95/102 559/408/415
f 302/409/416 298/410/417 570/104/111 563/103/110
f 306/411/418 302/409/416 563/103/110 571/412/419
f 242/384/391 310/413/420 578/414/421 502/72/79
f 314/415/422 278/403/410 543/87/94 579/416/423
f 318/417/424 314/415/422 579/416/423 583/418/425
f 286/406/413 318/417/424 583/418/425 558/96/103
f 322/419/426 294/407/414 559/408/415 587/420/427
f 326/421/428 322/419/426 587/420/427 591/422/429
f 298/410/417 326/421/428 591/422/429 570/104/111
f 310/413/420 330/423/430 598/424/431 578/414/421
f 330/423/430 334/425/432 602/426/433 598/424/431
f 334/425/432 306/411/418 571/412/419 602/426/433
f 342/16/19 335/15/18 610/112/119 603/111/118
f 274/404/411 282/427/434 614/428/435 550/88/95
f 358/429/436 346/349/356 411/36/41 615/430/437
f 362/431/438 358/429/436 615/430/437 619/432/439
f 282/427/434 362/431/438 619/432/439 614/428/435
f 366/433/440 238/401/408 539/402/409 623/434/441
f 370/435/442 366/433/440 623/434/441 627/436/443
f 374/437/444 370/435/442 627/436/443 631/438/445
f 378/439/446 158/374/381 467/373/380 635/440/447
f 382/441/448 378/439/446 635/440/447 639/442/449
f 354/400/407 382/441/448 639/442/449 538/80/87
f 386/443/450 342/16/19 603/111/118 643/444/451
f 390/445/452 386/443/450 643/444/451 647/446/453
f 150/348/355 390/445/452 647/446/453 406/32/37
f 447/364/371 183/4/4 374/437/444 631/438/445
f 129/136/143 450/135/142 634/210/217 79/209/216
f 186/8/8 130/246/253 53/336/343 371/335/342
f 133/447/454 134/346/353 138/345/352 137/448/455
f 131/219/226 132/449/456 136/450/457 135/220/227
f 132/449/458 133/447/459 137/448/460 136/450/461
f 137/448/455 138/345/352 206/371/378 205/451/462
f 135/220/227 136/450/457 204/452/463 203/253/260
f 136/450/461 137/448/460 205/451/464 204/452/465
f 134/346/353 133/447/454 141/453/466 142/351/358
f 133/447/459 132/449/458 140/454/467 141/453/466
f 132/449/456 131/219/226 139/231/238 140/454/467
f 142/351/358 141/453/466 145/455/468 146/347/354
f 141/453/466 140/454/467 144/456/469 145/455/468
f 140/454/467 139/231/238 143/223/230 144/456/469
f 146/347/354 145/455/468 149/457/470 150/348/355
f 145/455/468 144/456/469 148/458/471 149/457/470
f 144/456/469 143/223/230 147/226/233 148/458/471
f 153/459/472 154/353/360 158/374/381 157/460/473
f 151/234/241 152/461/474 156/462/475 155/255/262
f 152/461/476 153/459/477 157/460/473 156/462/478
f 157/460/473 158/374/381 378/439/446 377/463/479
f 155/255/262 156/462/475 376/464/480 375/337/344
f 156/462/478 157/460/473 377/463/479 376/464/481
f 154/353/360 153/459/472 161/465/482 162/354/361
f 153/459/477 152/461/476 160/466/483 161/465/484
f 152/461/474 151/234/241 159/233/240 160/466/485
f 162/354/361 161/465/482 165/467/486 166/355/362
f 161/465/484 160/466/483 164/468/487 165/467/488
f 160/466/485 159/233/240 163/237/244 164/468/489
f 166/355/362 165/467/486 169/469/490 170/357/364
f 165/467/488 164/468/487 168/470/491 169/469/492
f 164/468/489 163/237/244 167/239/246 168/470/493
f 170/357/364 169/469/490 173/471/494 174/359/366
f 169/469/492 168/470/491 172/472/495 173/471/496
f 168/470/493 167/239/246 171/241/248 172/472/497
f 174/359/366 173/471/494 177/473/498 178/361/368
f 173/471/496 172/472/495 176/474/499 177/473/500
f 172/472/497 171/241/248 175/243/250 176/474/501
f 178/361/368 177/473/498 181/2/2 182/1/1
f 177/473/500 176/474/499 180/5/5 181/2/2
f 176/474/501 175/243/250 179/7/7 180/5/5
f 189/475/502 190/350/357 346/349/356 345/476/503
f 187/227/234 188/477/504 344/478/505 343/228/235
f 188/477/504 189/475/502 345/476/503 344/478/505
f 190/350/357 189/475/502 193/479/506 194/365/372
f 189/475/502 188/477/504 192/480/507 193/479/506
f 188/477/504 187/227/234 191/247/254 192/480/507
f 194/365/372 193/479/506 197/481/508 198/367/374
f 193/479/506 192/480/507 196/482/509 197/481/510
f 192/480/507 191/247/254 195/249/256 196/482/511
f 198/367/374 197/481/508 201/483/512 202/369/376
f 197/481/510 196/482/509 200/484/513 201/483/514
f 196/482/511 195/249/256 199/251/258 200/484/515
f 202/369/376 201/483/512 205/451/462 206/371/378
f 201/483/514 200/484/513 204/452/465 205/451/464
f 200/484/515 199/251/258 203/253/260 204/452/463
f 209/485/516 210/376/383 214/375/382 213/486/517
f 207/259/266 208/487/518 212/488/519 211/260/267
f 208/487/520 209/485/521 213/486/522 212/488/523
f 213/486/517 214/375/382 250/385/392 249/489/524
f 211/260/267 212/488/519 248/490/525 247/274/281
f 212/488/523 213/486/522 249/489/526 248/490/527
f 210/376/383 209/485/516 217/491/528 218/377/384
f 209/485/521 208/487/520 216/492/529 217/491/530
f 208/487/518 207/259/266 215/261/268 216/492/531
f 221/493/532 222/380/387 226/379/386 225/494/533
f 219/265/272 220/495/534 224/496/535 223/266/273
f 220/495/536 221/493/537 225/494/538 224/496/539
f 225/494/533 226/379/386 230/381/388 229/497/540
f 223/266/273 224/496/535 228/498/541 227/268/275
f 224/496/539 225/494/538 229/497/542 228/498/543
f 229/497/540 230/381/388 258/389/396 257/499/544
f 227/268/275 228/498/541 256/500/545 255/278/285
f 228/498/543 229/497/542 257/499/546 256/500/547
f 233/501/548 234/393/400 238/401/408 237/502/549
f 231/281/288 232/503/550 236/504/551 235/291/298
f 232/503/552 233/501/553 237/502/549 236/504/554
f 237/502/549 238/401/408 366/433/440 365/505/555
f 235/291/298 236/504/551 364/506/556 363/331/338
f 236/504/554 237/502/549 365/505/555 364/506/557
f 241/507/558 242/384/391 246/383/390 245/508/559
f 239/271/278 240/509/560 244/510/561 243/272/279
f 240/509/562 241/507/563 245/508/564 244/510/565
f 245/508/559 246/383/390 270/397/404 269/511/566
f 243/272/279 244/510/561 268/512/567 267/285/292
f 244/510/565 245/508/564 269/511/568 268/512/569
f 249/489/524 250/385/392 254/387/394 253/513/570
f 247/274/281 248/490/525 252/514/571 251/276/283
f 248/490/527 249/489/526 253/513/572 252/514/573
f 222/380/387 221/493/532 253/513/570 254/387/394
f 221/493/537 220/495/536 252/514/573 253/513/572
f 220/495/534 219/265/272 251/276/283 252/514/571
f 257/499/544 258/389/396 262/391/398 261/515/574
f 255/278/285 256/500/545 260/516/575 259/280/287
f 256/500/547 257/499/546 261/515/576 260/516/577
f 234/393/400 233/501/548 261/515/574 262/391/398
f 233/501/553 232/503/552 260/516/577 261/515/576
f 232/503/550 231/281/288 259/280/287 260/516/575
f 218/377/384 217/491/528 265/517/578 266/395/402
f 217/491/530 216/492/529 264/518/579 265/517/580
f 216/492/531 215/261/268 263/283/290 264/518/581
f 266/395/402 265/517/578 269/511/566 270/397/404
f 265/517/580 264/518/579 268/512/569 269/511/568
f 264/518/581 263/283/290 267/285/292 268/512/567
f 273/519/582 274/404/411 278/403/410 277/520/583
f 271/295/302 272/521/584 276/522/585 275/296/303
f 272/521/586 273/519/587 277/520/588 276/522/589
f 277/520/583 278/403/410 314/415/422 313/523/590
f 275/296/303 276/522/585 312/524/591 311/312/319
f 276/522/589 277/520/588 313/523/592 312/524/593
f 274/404/411 273/519/582 281/525/594 282/427/434
f 273/519/587 272/521/586 280/526/595 281/525/596
f 272/521/584 271/295/302 279/325/332 280/526/595
f 285/527/597 286/406/413 290/405/412 289/528/598
f 283/299/306 284/529/599 288/530/600 287/300/307
f 284/529/601 285/527/602 289/528/603 288/530/604
f 289/528/598 290/405/412 294/407/414 293/531/605
f 287/300/307 288/530/600 292/532/606 291/302/309
f 288/530/604 289/528/603 293/531/607 292/532/608
f 293/531/605 294/407/414 322/419/426 321/533/609
f 291/302/309 292/532/606 320/534/610 319/316/323
f 292/532/608 293/531/607 321/533/611 320/534/612
f 297/535/613 298/410/417 302/409/416 301/536/614
f 295/305/312 296/537/615 300/538/616 299/306/313
f 296/537/617 297/535/618 301/536/619 300/538/620
f 301/536/614 302/409/416 306/411/418 305/539/621
f 299/306/313 300/538/616 304/540/622 303/308/315
f 300/538/620 301/536/619 305/539/623 304/540/624
f 305/539/621 306/411/418 334/425/432 333/541/625
f 303/308/315 304/540/622 332/542/626 331/321/328
f 304/540/624 305/539/623 333/541/627 332/542/628
f 242/384/391 241/507/558 309/543/629 310/413/420
f 241/507/563 240/509/562 308/544/630 309/543/631
f 240/509/560 239/271/278 307/309/316 308/544/632
f 313/523/590 314/415/422 318/417/424 317/545/633
f 311/312/319 312/524/591 316/546/634 315/314/321
f 312/524/593 313/523/592 317/545/635 316/546/636
f 286/406/413 285/527/597 317/545/633 318/417/424
f 285/527/602 284/529/601 316/546/636 317/545/635
f 284/529/599 283/299/306 315/314/321 316/546/634
f 321/533/609 322/419/426 326/421/428 325/547/637
f 319/316/323 320/534/610 324/548/638 323/318/325
f 320/534/612 321/533/611 325/547/639 324/548/640
f 298/410/417 297/535/613 325/547/637 326/421/428
f 297/535/618 296/537/617 324/548/640 325/547/639
f 296/537/615 295/305/312 323/318/325 324/548/638
f 310/413/420 309/543/629 329/549/641 330/423/430
f 309/543/631 308/544/630 328/550/642 329/549/643
f 308/544/632 307/309/316 327/319/326 328/550/644
f 330/423/430 329/549/641 333/541/625 334/425/432
f 329/549/643 328/550/642 332/542/628 333/541/627
f 328/550/644 327/319/326 331/321/328 332/542/626
f 341/14/20 342/16/19 386/443/450 385/551/645
f 339/12/12 340/11/11 384/552/646 383/341/348
f 340/11/16 341/14/15 385/551/647 384/552/646
f 345/476/503 346/349/356 358/429/436 357/553/648
f 343/228/235 344/478/505 356/554/649 355/327/334
f 344/478/505 345/476/503 357/553/650 356/554/649
f 350/399/406 349/555/651 353/556/652 354/400/407
f 349/555/653 348/557/654 352/558/655 353/556/656
f 348/557/657 347/290/297 351/289/296 352/558/658
f 357/553/648 358/429/436 362/431/438 361/559/659
f 355/327/334 356/554/649 360/560/660 359/329/336
f 356/554/649 357/553/650 361/559/661 360/560/660
f 282/427/434 281/525/594 361/559/659 362/431/438
f 281/525/596 280/526/595 360/560/660 361/559/661
f 280/526/595 279/325/332 359/329/336 360/560/660
f 365/505/555 366/433/440 370/435/442 369/561/662
f 363/331/338 364/506/556 368/562/663 367/333/340
f 364/506/557 365/505/555 369/561/662 368/562/664
f 369/561/662 370/435/442 374/437/444 373/563/665
f 367/333/340 368/562/663 372/564/666 371/335/342
f 368/562/664 369/561/662 373/563/665 372/564/667
f 183/4/4 184/3/3 373/563/665 374/437/444
f 184/3/3 185/6/6 372/564/667 373/563/665
f 185/6/6 186/8/8 371/335/342 372/564/666
f 377/463/479 378/439/446 382/441/448 381/565/668
f 375/337/344 376/464/480 380/566/669 379/339/346
f 376/464/481 377/463/479 381/565/668 380/566/670
f 354/400/407 353/556/652 381/565/668 382/441/448
f 353/556/656 352/558/655 380/566/670 381/565/668
f 352/558/658 351/289/296 379/339/346 380/566/669
f 385/551/645 386/443/450 390/445/452 389/567/671
f 383/341/348 384/552/646 388/568/672 387/343/350
f 384/552/646 385/551/647 389/567/673 388/568/672
f 150/348/355 149/457/470 389/567/671 390/445/452
f 149/457/470 148/458/471 388/568/672 389/567/673
f 148/458/471 147/226/233 387/343/350 388/568/672
f 393/18/22 394/17/21 418/352/359 417/569/674
f 391/23/27 392/21/25 416/570/675 415/119/126
f 392/21/25 393/18/22 417/569/674 416/570/675
f 409/34/39 410/33/38 454/366/373 453/571/676
f 407/39/46 408/37/45 452/572/677 451/137/144
f 408/37/43 409/34/42 453/571/676 452/572/677
f 413/38/44 414/40/47 618/202/209 617/573/678
f 411/36/41 412/35/40 616/574/679 615/430/437
f 412/35/40 413/38/44 617/573/678 616/574/679
f 399/31/36 400/29/35 417/569/674 418/352/359
f 400/29/33 401/26/30 416/570/675 417/569/674
f 401/26/30 402/25/29 415/119/126 416/570/675
f 421/42/49 422/41/48 470/123/130 469/575/680
f 419/47/54 420/45/52 468/576/681 467/373/380
f 420/45/52 421/42/49 469/575/680 468/576/681
f 425/46/53 426/48/55 430/356/363 429/577/682
f 423/44/51 424/43/50 428/578/683 427/125/132
f 424/43/50 425/46/53 429/577/682 428/578/683
f 429/577/682 430/356/363 434/358/365 433/579/684
f 427/125/132 428/578/683 432/580/685 431/127/134
f 428/578/683 429/577/682 433/579/684 432/580/685
f 433/579/684 434/358/365 438/360/367 437/581/686
f 431/127/134 432/580/685 436/582/687 435/129/136
f 432/580/685 433/579/684 437/581/686 436/582/687
f 437/581/686 438/360/367 442/362/369 441/583/688
f 435/129/136 436/582/687 440/584/689 439/131/138
f 436/582/687 437/581/686 441/583/688 440/584/689
f 441/583/688 442/362/369 446/363/370 445/585/690
f 439/131/138 440/584/689 444/586/691 443/133/140
f 440/584/689 441/583/688 445/585/690 444/586/691
f 443/133/140 444/586/691 449/587/692 450/135/142
f 444/586/691 445/585/690 448/588/693 449/587/694
f 445/585/690 446/363/370 447/364/371 448/588/695
f 453/571/676 454/366/373 458/368/375 457/589/696
f 451/137/144 452/572/677 456/590/697 455/139/146
f 452/572/677 453/571/676 457/589/696 456/590/697
f 457/589/696 458/368/375 462/370/377 461/591/698
f 455/139/146 456/590/697 460/592/699 459/141/148
f 456/590/697 457/589/696 461/591/698 460/592/699
f 461/591/698 462/370/377 466/372/379 465/593/700
f 459/141/148 460/592/699 464/594/701 463/143/150
f 460/592/699 461/591/698 465/593/700 464/594/701
f 395/20/24 396/19/23 465/593/700 466/372/379
f 396/19/23 397/22/26 464/594/701 465/593/700
f 397/22/26 398/24/28 463/143/150 464/594/701
f 469/575/680 470/123/130 638/212/219 637/595/702
f 467/373/380 468/576/681 636/596/703 635/440/447
f 468/576/681 469/575/680 637/595/702 636/596/703
f 473/50/57 474/49/56 506/156/163 505/597/704
f 471/55/62 472/53/60 504/598/705 503/386/393
f 472/53/60 473/50/57 505/597/704 504/598/705
f 477/54/61 478/56/63 482/378/385 481/599/706
f 475/52/59 476/51/58 480/600/707 479/147/154
f 476/51/58 477/54/61 481/599/706 480/600/707
f 481/599/706 482/378/385 526/396/403 525/601/708
f 479/147/154 480/600/707 524/602/709 523/165/172
f 480/600/707 481/599/706 525/601/708 524/602/709
f 485/58/65 486/57/64 494/152/159 493/603/710
f 483/63/70 484/61/68 492/604/711 491/382/389
f 484/61/68 485/58/65 493/603/710 492/604/711
f 493/603/710 494/152/159 514/160/167 513/605/712
f 491/382/389 492/604/711 512/606/713 511/390/397
f 492/604/711 493/603/710 513/605/712 512/606/713
f 501/70/77 502/72/79 578/414/421 577/607/714
f 499/68/75 500/67/74 576/608/715 575/183/190
f 500/67/74 501/70/77 577/607/714 576/608/715
f 505/597/704 506/156/163 510/158/165 509/609/716
f 503/386/393 504/598/705 508/610/717 507/388/395
f 504/598/705 505/597/704 509/609/716 508/610/717
f 487/60/67 488/59/66 509/609/716 510/158/165
f 488/59/66 489/62/69 508/610/717 509/609/716
f 489/62/69 490/64/71 507/388/395 508/610/717
f 513/605/712 514/160/167 518/162/169 517/611/718
f 511/390/397 512/606/713 516/612/719 515/392/399
f 512/606/713 513/605/712 517/611/718 516/612/719
f 517/611/718 518/162/169 522/164/171 521/613/720
f 515/392/399 516/612/719 520/614/721 519/394/401
f 516/612/719 517/611/718 521/613/720 520/614/721
f 521/613/720 522/164/171 542/172/179 541/615/722
f 519/394/401 520/614/721 540/616/723 539/402/409
f 520/614/721 521/613/720 541/615/722 540/616/723
f 525/601/708 526/396/403 530/398/405 529/617/724
f 523/165/172 524/602/709 528/618/725 527/167/174
f 524/602/709 525/601/708 529/617/724 528/618/725
f 495/71/78 496/69/76 529/617/724 530/398/405
f 496/69/76 497/66/73 528/618/725 529/617/724
f 497/66/73 498/65/72 527/167/174 528/618/725
f 541/615/722 542/172/179 626/206/213 625/619/726
f 539/402/409 540/616/723 624/620/727 623/434/441
f 540/616/723 541/615/722 625/619/726 624/620/728
f 545/82/89 546/81/88 582/186/193 581/621/729
f 543/87/94 544/85/92 580/622/730 579/416/423
f 544/85/92 545/82/89 581/621/729 580/622/730
f 549/86/93 550/88/95 614/428/435 613/623/731
f 547/84/91 548/83/90 612/624/732 611/199/206
f 548/83/90 549/86/93 613/623/731 612/624/732
f 553/90/97 554/89/96 562/178/185 561/625/733
f 551/95/102 552/93/100 560/626/734 559/408/415
f 552/93/100 553/90/97 561/625/733 560/626/734
f 561/625/733 562/178/185 590/190/197 589/627/735
f 559/408/415 560/626/734 588/628/736 587/420/427
f 560/626/734 561/625/733 589/627/735 588/628/736
f 565/98/105 566/97/104 574/182/189 573/629/737
f 563/103/110 564/101/108 572/630/738 571/412/419
f 564/101/108 565/98/105 573/629/737 572/630/738
f 577/607/714 578/414/421 598/424/431 597/631/739
f 575/183/190 576/608/715 596/632/740 595/193/200
f 576/608/715 577/607/714 597/631/739 596/632/740
f 581/621/729 582/186/193 586/188/195 585/633/741
f 579/416/423 580/622/730 584/634/742 583/418/425
f 580/622/730 581/621/729 585/633/741 584/634/742
f 555/92/99 556/91/98 585/633/741 586/188/195
f 556/91/98 557/94/101 584/634/742 585/633/741
f 557/94/101 558/96/103 583/418/425 584/634/742
f 589/627/735 590/190/197 594/192/199 593/635/743
f 587/420/427 588/628/736 592/636/744 591/422/429
f 588/628/736 589/627/735 593/635/743 592/636/744
f 567/100/107 568/99/106 593/635/743 594/192/199
f 568/99/106 569/102/109 592/636/744 593/635/743
f 569/102/109 570/104/111 591/422/429 592/636/744
f 597/631/739 598/424/431 602/426/433 601/637/745
f 595/193/200 596/632/740 600/638/746 599/195/202
f 596/632/740 597/631/739 601/637/745 600/638/746
f 571/412/419 572/630/738 601/637/745 602/426/433
f 572/630/738 573/629/737 600/638/746 601/637/745
f 573/629/737 574/182/189 599/195/202 600/638/746
f 605/106/113 606/105/112 646/216/223 645/639/747
f 603/111/118 604/109/116 644/640/748 643/444/451
f 604/109/116 605/106/113 645/639/747 644/640/748
f 617/573/678 618/202/209 622/204/211 621/641/749
f 615/430/437 616/574/679 620/642/750 619/432/439
f 616/574/679 617/573/678 621/641/751 620/642/750
f 611/199/206 612/624/732 621/641/749 622/204/211
f 612/624/732 613/623/731 620/642/750 621/641/751
f 613/623/731 614/428/435 619/432/439 620/642/750
f 625/619/726 626/206/213 630/208/215 629/643/752
f 623/434/441 624/620/727 628/644/753 627/436/443
f 624/620/728 625/619/726 629/643/752 628/644/754
f 629/643/752 630/208/215 634/210/217 633/645/755
f 627/436/443 628/644/753 632/646/756 631/438/445
f 628/644/754 629/643/752 633/645/757 632/646/758
f 450/135/142 449/587/692 633/645/755 634/210/217
f 449/587/694 448/588/693 632/646/758 633/645/757
f 448/588/695 447/364/371 631/438/445 632/646/756
f 637/595/702 638/212/219 642/214/221 641/647/759
f 635/440/447 636/596/703 640/648/760 639/442/449
f 636/596/703 637/595/702 641/647/759 640/648/760
f 535/76/83 536/75/82 641/647/759 642/214/221
f 536/75/82 537/78/85 640/648/760 641/647/759
f 537/78/85 538/80/87 639/442/449 640/648/760
f 645/639/747 646/216/223 650/218/225 649/649/761
f 643/444/451 644/640/748 648/650/762 647/446/453
f 644/640/748 645/639/747 649/649/761 648/650/762
f 403/28/32 404/27/31 649/649/761 650/218/225
f 404/27/31 405/30/34 648/650/762 649/649/761
f 405/30/34 406/32/37 647/446/453 648/650/762
