# This file uses centimeters as units for non-parametric coordinates.

mtllib BossMount2.mtl
g default
v 2055.295680 51.692828 7566.748001
v 2351.155406 28.225931 7712.805846
v 2559.485519 46.221115 6647.129888
v 2214.373133 37.462206 6576.356424
v 2692.598585 26.297003 6688.211464
v 2761.994588 -1.652004 6715.861544
v 2786.837409 -50.717662 6739.624577
v 2111.517272 20.487752 6580.181018
v 2037.803513 -9.822682 6585.433680
v 2010.077616 -61.226457 6592.953824
v 2403.063594 7.051951 7716.698922
v 2461.932315 -32.094805 7712.469442
v 2482.505354 -81.710994 7690.470661
v 2028.866164 40.792901 7545.448016
v 1983.594112 7.167873 7505.365631
v 1966.762551 -41.039314 7481.879018
v 1993.009247 14.490264 7742.961244
v 1973.680782 -16.288302 7812.811945
v 1975.535125 -66.394089 7847.947390
v 2229.674951 6.763931 7849.205336
v 2174.666804 -16.694550 7903.329287
v 2134.845448 -60.744484 7927.457331
v 1938.706620 -12.151034 7718.368648
v 1912.327474 -58.927666 7717.769932
v 2255.290502 -30.318867 7886.153486
v 2258.240989 -79.423343 7898.524508
v 2227.231738 17.414726 6489.201037
v 2246.515380 -12.353831 6414.924918
v 2275.731628 -57.085664 6373.694518
v 2559.939300 23.650756 6533.542855
v 2564.383978 -6.857003 6467.462816
v 2575.109919 -55.018160 6448.057628
v 2640.432439 24.935394 6617.367388
v 2692.774866 -12.166982 6582.909488
v 2700.897944 -63.010662 6590.128519
v 2169.464285 26.359054 6555.667907
v 2138.193328 -5.992876 6488.248536
v 2162.831725 -50.109280 6439.187772
v 2535.258887 59.010506 6855.915219
v 2513.648732 63.861145 7071.229814
v 2175.140870 64.964061 7032.153851
v 2196.597392 55.807703 6812.832006
v 2776.638588 1.186665 6859.295445
v 2761.892724 0.616296 7074.945757
v 2805.331430 -45.548572 6859.622574
v 2793.444437 -44.390367 7075.433505
v 2695.394253 28.342427 7073.912891
v 2709.368149 28.380483 6858.065207
v 1957.858760 -15.849318 6936.100135
v 1977.279085 -14.261625 6719.073363
v 1936.573218 -64.071978 6937.480183
v 1950.707602 -62.911235 6719.787586
v 2040.699888 16.260880 6737.856341
v 2015.099092 17.822895 6957.431367
v 2458.829794 52.370178 7420.818085
v 2499.599704 61.219925 7236.939508
v 2124.784339 62.171159 7323.466907
v 2162.702589 65.580299 7135.401086
v 2048.204252 30.257369 7277.427515
v 2035.534782 21.926389 7063.656969
v 2001.604583 -7.138519 7239.388610
v 1984.124304 -14.077311 7042.661028
v 1991.089174 -57.374590 7234.312031
v 1971.362935 -63.831943 7047.571242
v 2648.295440 -11.593959 7414.328916
v 2721.844717 -3.606179 7239.872685
v 2668.145494 -59.614887 7419.494518
v 2746.952980 -50.126399 7248.342538
v 2584.811532 21.087583 7415.221905
v 2658.331867 26.281531 7233.837705
vt 2.851643 0.209269
vt 2.349991 0.614399
vt 1.893919 -0.437994
vt 2.524115 -0.634277
vt 1.824433 -0.537974
vt 2.354059 0.789125
vt -1.824125 1.116253
vt -1.916137 -0.055340
vt -1.608415 -0.076795
vt -1.426135 1.143987
vt -1.545587 1.413583
vt -1.307165 1.609611
vt -1.672235 -0.241211
vt -1.223035 1.847610
vt -1.675824 1.577119
vt -1.143742 1.922255
vt -1.651321 1.589661
vt 1.693017 -0.714974
vt 2.448625 -0.837471
vt 1.614581 -0.794486
vt 2.452226 -0.945447
vt 2.773135 -0.698790
vt 3.052214 0.019720
vt 2.896694 -0.702545
vt 3.145027 -0.129522
vt 2.976844 0.293180
vt 3.020368 0.289243
vt 2.248269 1.031339
vt 2.328590 0.980515
vt -2.179781 -0.012291
vt -1.902180 -0.374143
vt -2.329248 0.066670
vt -2.078232 -0.312441
vt -2.056201 1.108835
vt -2.125575 1.126284
vt -1.509889 -0.819890
vt -1.542284 -0.707202
vt -1.575176 -0.440728
vt -0.689719 1.103634
vt 0.069205 1.070977
vt 0.044516 1.693705
vt -0.714893 1.701266
vt -0.776228 -0.087471
vt -0.003347 -0.117373
vt -1.008828 -0.659175
vt -0.234157 -0.706056
vt -0.722995 1.927057
vt 0.035878 1.916585
vt 0.032234 2.011569
vt -0.726635 2.011451
vt -0.297557 -0.921258
vt -1.062159 -0.894392
vt -1.053886 -1.003420
vt -0.287962 -1.011569
vt 1.305446 0.942547
vt 0.652886 1.052698
vt 0.360991 -0.140857
vt 1.027607 -0.238417
vt 1.262287 1.370532
vt 0.612291 1.594209
vt 0.134311 -0.613074
vt 0.881243 -0.525229
vt 0.071016 -0.808654
vt 0.757299 -0.707747
vt 0.091380 -0.869064
vt 0.742232 -0.762389
vt 1.247543 1.580850
vt 0.621788 1.806897
vt 1.262572 1.634877
vt 0.647377 1.880411
vn 0.034392 0.963360 0.265999
vn 0.060544 0.989428 0.131782
vn -0.025592 0.995505 0.091186
vn -0.130723 0.974929 0.180069
vn -0.452923 0.890554 -0.042125
vn 0.377500 0.863840 0.333579
vn 0.087518 0.951910 -0.293613
vn -0.018187 0.954507 -0.297633
vn -0.038760 0.993014 -0.111450
vn 0.037102 0.994578 -0.097146
vn 0.334729 0.895581 -0.293071
vn 0.255383 0.962046 -0.096160
vn -0.248127 0.913581 -0.322184
vn 0.687134 0.682475 -0.249149
vn 0.666025 0.527327 -0.527577
vn 0.898960 0.322494 -0.296427
vn 0.791221 0.176329 -0.585557
vn -0.734324 0.672829 -0.089827
vn -0.762668 0.646529 0.018390
vn -0.926549 0.355690 -0.122441
vn -0.903882 0.426155 0.037282
vn -0.378879 0.790523 0.481169
vn -0.117963 0.807214 0.578351
vn -0.499883 0.556229 0.663873
vn -0.218907 0.544083 0.809971
vn 0.525409 0.404885 0.748341
vn 0.570519 0.133336 0.810388
vn 0.761608 0.186968 0.620480
vn 0.643583 0.523350 0.558485
vn -0.024658 0.801803 -0.597079
vn -0.498659 0.642578 -0.581750
vn 0.064411 0.586149 -0.807639
vn -0.543234 0.425285 -0.723899
vn 0.227802 0.765670 -0.601544
vn 0.360187 0.485255 -0.796739
vn -0.774595 0.377775 -0.507236
vn -0.602498 0.689854 -0.401370
vn -0.249129 0.957897 -0.142717
vn 0.053220 0.997815 -0.039164
vn 0.069907 0.997550 -0.002608
vn 0.251247 0.967323 0.034067
vn 0.238679 0.971035 -0.011128
vn -0.071059 0.995990 -0.054351
vn -0.072663 0.997115 -0.021932
vn -0.290337 0.954148 -0.072841
vn -0.325299 0.945194 -0.028074
vn 0.612538 0.790367 -0.010802
vn 0.611300 0.785578 0.095806
vn 0.830787 0.542027 0.126492
vn 0.855801 0.517040 -0.016554
vn -0.713132 0.700951 0.010543
vn -0.666872 0.730166 -0.148791
vn -0.880667 0.437790 -0.181013
vn -0.911135 0.410250 0.039081
vn 0.083548 0.992820 0.085604
vn 0.080042 0.995827 0.043842
vn -0.074908 0.997131 0.010906
vn -0.046213 0.998183 0.038664
vn 0.345747 0.913642 0.213818
vn 0.280346 0.954391 0.102680
vn -0.414496 0.910051 -0.000140
vn -0.438299 0.897682 -0.045407
vn -0.804499 0.584520 0.105444
vn -0.805957 0.591448 -0.024945
vn -0.952181 0.266672 0.149123
vn -0.965084 0.261779 -0.009203
vn 0.658990 0.638023 0.398321
vn 0.622804 0.746457 0.234343
vn 0.813659 0.313489 0.489574
vn 0.818582 0.484090 0.309160
s 1
g polySurface211 Mount_grp BossExt_grp
usemtl aiStandardSurface12SG
f 20/1/1 2/2/2 1/3/3 17/4/4
f 14/5/5 17/4/4 1/3/3
f 20/1/1 11/6/6 2/2/2
f 30/7/7 27/8/8 4/9/9 3/10/10
f 33/11/11 3/10/10 5/12/12
f 27/8/8 36/13/13 4/9/9
f 5/12/12 6/14/14 34/15/15 33/11/11
f 6/14/14 7/16/16 35/17/17 34/15/15
f 14/5/5 15/18/18 23/19/19 17/4/4
f 15/18/18 16/20/20 24/21/21 23/19/19
f 17/4/4 18/22/22 21/23/23 20/1/1
f 18/22/22 19/24/24 22/25/25 21/23/23
f 20/1/1 21/23/23 25/26/26
f 21/23/23 22/25/25 26/27/27 25/26/26
f 19/24/24 18/22/22 23/19/19 24/21/21
f 18/22/22 17/4/4 23/19/19
f 13/28/28 12/29/29 25/26/26 26/27/27
f 12/29/29 11/6/6 20/1/1 25/26/26
f 27/8/8 28/30/30 37/31/31 36/13/13
f 28/30/30 29/32/32 38/33/33 37/31/31
f 29/32/32 28/30/30 31/34/34 32/35/35
f 28/30/30 27/8/8 30/7/7 31/34/34
f 32/35/35 31/34/34 34/15/15 35/17/17
f 31/34/34 30/7/7 33/11/11 34/15/15
f 10/36/36 9/37/37 37/31/31 38/33/33
f 9/37/37 8/38/38 36/13/13 37/31/31
f 33/11/11 30/7/7 3/10/10
f 4/9/9 36/13/13 8/38/38
f 39/39/39 40/40/40 47/41/41 48/42/42
f 40/40/40 39/39/39 42/43/43 41/44/44
f 41/44/44 42/43/43 53/45/45 54/46/46
f 43/47/47 44/48/48 46/49/49 45/50/50
f 44/48/48 43/47/47 48/42/42 47/41/41
f 49/51/51 50/52/52 52/53/53 51/54/54
f 50/52/52 49/51/51 54/46/46 53/45/45
f 42/43/43 39/39/39 3/10/10 4/9/9
f 48/42/42 5/12/12 3/10/10 39/39/39
f 8/38/38 53/45/45 42/43/43 4/9/9
f 7/16/16 6/14/14 43/47/47 45/50/50
f 6/14/14 5/12/12 48/42/42 43/47/47
f 52/53/53 50/52/52 9/37/37 10/36/36
f 50/52/52 53/45/45 8/38/38 9/37/37
f 55/55/55 56/56/56 58/57/57 57/58/58
f 56/56/56 55/55/55 69/59/59 70/60/60
f 57/58/58 58/57/57 60/61/61 59/62/62
f 59/62/62 60/61/61 62/63/63 61/64/64
f 61/64/64 62/63/63 64/65/65 63/66/66
f 65/67/67 66/68/68 70/60/60 69/59/59
f 66/68/68 65/67/67 67/69/69 68/70/70
f 57/58/58 1/3/3 2/2/2 55/55/55
f 11/6/6 69/59/59 55/55/55 2/2/2
f 59/62/62 14/5/5 1/3/3 57/58/58
f 59/62/62 61/64/64 15/18/18 14/5/5
f 61/64/64 63/66/66 16/20/20 15/18/18
f 67/69/69 65/67/67 12/29/29 13/28/28
f 65/67/67 69/59/59 11/6/6 12/29/29
f 56/56/56 40/40/40 41/44/44 58/57/57
f 54/46/46 60/61/61 58/57/57 41/44/44
f 70/60/60 47/41/41 40/40/40 56/56/56
f 54/46/46 49/51/51 62/63/63 60/61/61
f 49/51/51 51/54/54 64/65/65 62/63/63
f 46/49/49 44/48/48 66/68/68 68/70/70
f 44/48/48 47/41/41 70/60/60 66/68/68
