# This file uses centimeters as units for non-parametric coordinates.

mtllib StoneRoadBoss.mtl
g default
v -956.633240 2.353616 5562.605957
v 956.633301 2.353616 5562.605957
v -0.000180 2.353616 3905.668701
v 0.000066 2.353616 6114.918457
v 956.633179 2.353616 4457.980957
v -956.633362 2.353616 4457.981445
v -0.000038 2.353616 5010.293457
v -1104.624878 2.353616 5010.293945
v -552.312439 2.353616 5966.927246
v 0.000014 2.353616 5562.605957
v -478.316681 2.353616 4734.137695
v -478.316650 2.353616 5286.449707
v 552.312622 2.353616 5966.927246
v 1104.624878 2.353616 5010.293457
v 478.316559 2.353616 4734.137207
v 478.316650 2.353616 5286.449707
v 552.312256 2.353616 4053.660400
v -552.312622 2.353616 4053.660645
v -0.000092 2.353616 4457.980957
v -717.475037 2.353616 4596.059570
v -1066.985840 2.353616 4724.395996
v -791.470764 2.353616 5148.372070
v -478.316650 2.353616 5010.293945
v -754.472900 2.353616 4872.215820
v -1066.985718 2.353616 5296.191895
v -781.087769 2.353616 5791.381348
v -515.314514 2.353616 5626.688477
v -772.971863 2.353616 5456.568848
v -285.897949 2.353616 6077.279297
v 0.000040 2.353616 5838.762207
v -239.158325 2.353616 5424.527832
v -257.657227 2.353616 5732.725098
v -0.000012 2.353616 5286.449707
v -239.158356 2.353616 4872.215332
v -239.158340 2.353616 5148.371582
v 285.898071 2.353616 6077.279297
v 515.314575 2.353616 5626.688477
v 239.158325 2.353616 5424.527832
v 257.657318 2.353616 5732.725098
v 781.087830 2.353616 5791.381348
v 1066.985840 2.353616 5296.191406
v 791.470764 2.353616 5148.371582
v 772.971863 2.353616 5456.568848
v 1066.985718 2.353616 4724.395508
v 717.474854 2.353616 4596.059082
v 478.316589 2.353616 5010.293457
v 754.472778 2.353616 4872.215332
v 239.158264 2.353616 4872.215332
v 239.158295 2.353616 5148.371582
v 781.087708 2.353616 4229.205566
v 276.156097 2.353616 4255.820801
v 239.158234 2.353616 4596.059082
v 496.815460 2.353616 4425.939941
v 285.897766 2.353616 3943.307861
v -285.898132 2.353616 3943.308105
v -276.156342 2.353616 4255.820801
v -0.000146 2.353616 4117.742676
v -781.087952 2.353616 4229.206055
v -239.158386 2.353616 4596.059082
v -496.815704 2.353616 4425.940430
v -0.000064 2.353616 4734.137207
vt -0.675322 0.499336
vt -0.675705 1.177909
vt -1.263558 1.516864
vt -1.354087 0.838240
vt -1.851411 1.855819
vt -2.122200 1.201030
vt -2.214291 0.498468
vt -1.444615 0.159616
vt -0.674940 -0.179235
vt -2.121407 -0.203990
vt -1.398732 -0.597662
vt -1.849879 -0.858471
vt -1.418211 -1.420376
vt -0.855819 -1.851411
vt -0.765379 -1.015323
vt -0.201031 -2.122200
vt -0.132115 -1.275520
vt 0.501532 -2.214291
vt 0.501149 -1.535718
vt 0.500766 -0.857145
vt -0.087087 -0.518190
vt 0.500383 -0.178572
vt -0.087470 0.160383
vt 0.500000 0.500000
vt -0.087853 0.838955
vt 1.088236 -0.517527
vt 1.134119 -1.274806
vt 1.203990 -2.121407
vt 1.858472 -1.849880
vt 1.767089 -1.013895
vt 1.675705 -0.177909
vt 2.420377 -1.418210
vt 2.399970 -0.595518
vt 2.851411 -0.855819
vt 3.122200 -0.201030
vt 3.214291 0.501532
vt 2.444998 0.161811
vt 3.121407 1.203990
vt 2.353703 0.840333
vt 2.849879 1.858472
vt 2.262409 1.518854
vt 1.674940 1.179236
vt 1.675322 0.500664
vt 1.087470 0.839618
vt 1.087853 0.161046
vt 1.087087 1.518191
vt 1.719968 1.936566
vt 2.418211 2.420377
vt 1.855819 2.851411
vt 1.177526 2.354278
vt 0.499234 1.857146
vt 1.201030 3.122200
vt 0.498762 2.693182
vt 0.498468 3.214291
vt -0.203990 3.121407
vt -0.858472 2.849879
vt -0.179619 2.353512
vt -1.420377 2.418210
vt -0.721589 1.935187
vt -0.088236 1.517528
vt 0.499617 1.178573
vn 0.000000 1.000000 -0.000000
vn 0.000000 1.000000 -0.000000
vn 0.000000 1.000000 0.000000
vn 0.000000 1.000000 -0.000000
vn 0.000000 1.000000 0.000000
vn 0.000000 1.000000 -0.000000
vn 0.000000 1.000000 -0.000000
vn 0.000000 1.000000 -0.000000
vn 0.000000 1.000000 0.000000
vn 0.000000 1.000000 -0.000000
vn 0.000000 1.000000 -0.000000
vn 0.000000 1.000000 0.000000
vn 0.000000 1.000000 -0.000000
vn 0.000000 1.000000 -0.000000
vn 0.000000 1.000000 -0.000000
vn 0.000000 1.000000 -0.000000
vn 0.000000 1.000000 -0.000000
vn 0.000000 1.000000 -0.000000
vn 0.000000 1.000000 -0.000000
vn 0.000000 1.000000 0.000000
vn 0.000000 1.000000 -0.000000
vn 0.000000 1.000000 -0.000000
vn 0.000000 1.000000 -0.000000
vn 0.000000 1.000000 -0.000000
vn 0.000000 1.000000 -0.000000
vn 0.000000 1.000000 0.000000
vn 0.000000 1.000000 -0.000000
vn 0.000000 1.000000 -0.000000
vn 0.000000 1.000000 -0.000000
vn 0.000000 1.000000 -0.000000
vn 0.000000 1.000000 -0.000000
vn 0.000000 1.000000 -0.000000
vn 0.000000 1.000000 0.000000
vn 0.000000 1.000000 -0.000000
vn 0.000000 1.000000 0.000000
vn 0.000000 1.000000 0.000000
vn 0.000000 1.000000 0.000000
vn 0.000000 1.000000 0.000000
vn 0.000000 1.000000 0.000000
vn 0.000000 1.000000 0.000000
vn 0.000000 1.000000 0.000000
vn 0.000000 1.000000 0.000000
vn 0.000000 1.000000 -0.000000
vn 0.000000 1.000000 -0.000000
vn 0.000000 1.000000 -0.000000
vn 0.000000 1.000000 0.000000
vn 0.000000 1.000000 0.000000
vn 0.000000 1.000000 -0.000000
vn 0.000000 1.000000 -0.000000
vn 0.000000 1.000000 -0.000000
vn 0.000000 1.000000 0.000000
vn 0.000000 1.000000 0.000000
vn 0.000000 1.000000 0.000000
vn 0.000000 1.000000 0.000000
vn 0.000000 1.000000 0.000000
vn 0.000000 1.000000 -0.000000
vn 0.000000 1.000000 0.000000
vn 0.000000 1.000000 0.000000
vn 0.000000 1.000000 0.000000
vn 0.000000 1.000000 0.000000
vn 0.000000 1.000000 0.000000
s 1
g polySurface258 pDisc1 group283 BossExt_grp
usemtl aiStandardSurface27SG
f 23/1/1 11/2/2 20/3/3 24/4/4
f 20/3/3 6/5/5 21/6/6 24/4/4
f 21/6/6 8/7/7 22/8/8 24/4/4
f 22/8/8 12/9/9 23/1/1 24/4/4
f 22/8/8 8/7/7 25/10/10 28/11/11
f 25/10/10 1/12/12 26/13/13 28/11/11
f 26/13/13 9/14/14 27/15/15 28/11/11
f 27/15/15 12/9/9 22/8/8 28/11/11
f 27/15/15 9/14/14 29/16/16 32/17/17
f 29/16/16 4/18/18 30/19/19 32/17/17
f 30/19/19 10/20/20 31/21/21 32/17/17
f 31/21/21 12/9/9 27/15/15 32/17/17
f 31/21/21 10/20/20 33/22/22 35/23/23
f 33/22/22 7/24/24 34/25/25 35/23/23
f 34/25/25 11/2/2 23/1/1 35/23/23
f 23/1/1 12/9/9 31/21/21 35/23/23
f 38/26/26 10/20/20 30/19/19 39/27/27
f 30/19/19 4/18/18 36/28/28 39/27/27
f 36/28/28 13/29/29 37/30/30 39/27/27
f 37/30/30 16/31/31 38/26/26 39/27/27
f 37/30/30 13/29/29 40/32/32 43/33/33
f 40/32/32 2/34/34 41/35/35 43/33/33
f 41/35/35 14/36/36 42/37/37 43/33/33
f 42/37/37 16/31/31 37/30/30 43/33/33
f 42/37/37 14/36/36 44/38/38 47/39/39
f 44/38/38 5/40/40 45/41/41 47/39/39
f 45/41/41 15/42/42 46/43/43 47/39/39
f 46/43/43 16/31/31 42/37/37 47/39/39
f 46/43/43 15/42/42 48/44/44 49/45/45
f 48/44/44 7/24/24 33/22/22 49/45/45
f 33/22/22 10/20/20 38/26/26 49/45/45
f 38/26/26 16/31/31 46/43/43 49/45/45
f 52/46/46 15/42/42 45/41/41 53/47/47
f 45/41/41 5/40/40 50/48/48 53/47/47
f 50/48/48 17/49/49 51/50/50 53/47/47
f 51/50/50 19/51/51 52/46/46 53/47/47
f 51/50/50 17/49/49 54/52/52 57/53/53
f 54/52/52 3/54/54 55/55/55 57/53/53
f 55/55/55 18/56/56 56/57/57 57/53/53
f 56/57/57 19/51/51 51/50/50 57/53/53
f 56/57/57 18/56/56 58/58/58 60/59/59
f 58/58/58 6/5/5 20/3/3 60/59/59
f 20/3/3 11/2/2 59/60/60 60/59/59
f 59/60/60 19/51/51 56/57/57 60/59/59
f 59/60/60 11/2/2 34/25/25 61/61/61
f 34/25/25 7/24/24 48/44/44 61/61/61
f 48/44/44 15/42/42 52/46/46 61/61/61
f 52/46/46 19/51/51 59/60/60 61/61/61
g default
v -339.694489 3.292791 5992.728516
v 308.781891 3.292791 5992.728516
v -337.331818 3.292791 8473.936523
v 308.781891 3.292791 8474.124023
vt 1.001346 3.763623
vt 0.006999 3.763731
vt 0.006701 -1.757674
vt 1.001048 -1.757782
vn 0.000000 1.000000 0.000000
vn 0.000000 1.000000 0.000000
vn 0.000000 1.000000 0.000000
vn 0.000000 1.000000 0.000000
s off
g pDisc1 group283 BossExt_grp polySurface259
usemtl aiStandardSurface27SG
f 63/62/62 62/63/63 64/64/64 65/65/65
g default
v -388.136537 3.292791 8473.937233
v 467.514734 3.292791 8473.937233
v 477.379439 -10.420438 8712.982927
v -411.565308 -10.420438 8712.982927
vt 1.238782 0.633587
vt -0.170329 0.645320
vt 1.252143 0.184612
vt -0.211796 0.196801
vn 0.000000 0.998359 0.057272
vn 0.000000 0.998359 0.057272
vn 0.000000 0.998359 0.057272
vn 0.000000 0.998359 0.057272
s off
g pDisc1 group283 BossExt_grp polySurface260
usemtl aiStandardSurface27SG
f 67/66/66 66/67/67 69/69/68 68/68/69
g default
v -339.694489 6.750215 1916.320312
v 308.781891 6.750215 1916.320312
v 308.781891 6.750215 3982.478516
v -339.694489 6.750215 3982.478516
vt 1.211277 3.837822
vt -0.157787 3.848774
vt 1.162604 -2.246610
vt -0.206460 -2.235659
vn 0.000000 1.000000 0.000000
vn 0.000000 1.000000 0.000000
vn 0.000000 1.000000 0.000000
vn 0.000000 1.000000 0.000000
s off
g pDisc1 group283 BossExt_grp polySurface262
usemtl aiStandardSurface27SG
f 71/70/70 70/71/71 73/73/72 72/72/73
