# This file uses centimeters as units for non-parametric coordinates.

mtllib Zen_TorigateA.mtl
g default
v 683.380060 1230.780610 8157.721849
v -748.739969 1230.780610 8157.721849
v 670.085182 1246.785827 8152.522418
v 676.732649 1245.070651 8153.077353
v 681.598886 1240.385066 8154.600776
v 683.380060 1233.984194 8156.680902
v 670.085237 1244.395317 8147.830205
v 676.732649 1242.936511 8148.890592
v 681.598886 1238.950561 8151.787216
v 683.380005 1233.505805 8155.744227
v 670.085182 1240.672254 8144.106479
v 676.732593 1239.612198 8145.564511
v 681.598886 1236.716458 8149.551567
v 683.380060 1232.760220 8154.996654
v 670.085237 1235.980814 8141.715306
v 676.732649 1235.423780 8143.433133
v 681.598886 1233.901130 8148.116509
v 683.380060 1231.821115 8154.517713
v 670.085182 1230.780610 8140.893506
v 676.732649 1230.780610 8142.696164
v 681.598886 1230.780610 8147.623429
v 683.380060 1230.780610 8154.353353
v 670.085182 1225.580185 8141.715306
v 676.732649 1226.137330 8143.433133
v 681.598886 1227.659979 8148.116509
v 683.380060 1229.739995 8154.517713
v 670.085237 1220.888856 8144.106479
v 676.732649 1221.948801 8145.564511
v 681.598942 1224.844983 8149.551567
v 683.380060 1228.800889 8154.996654
v 670.085182 1217.165793 8147.830205
v 676.732649 1218.624598 8148.890592
v 681.598886 1222.610659 8151.787216
v 683.380060 1228.055305 8155.744227
v 670.085237 1214.775172 8152.522418
v 676.732593 1216.490459 8153.077353
v 681.598886 1221.176044 8154.600776
v 683.380060 1227.576916 8156.680902
v 670.085182 1213.951715 8157.721849
v 676.732649 1215.755146 8157.721849
v 681.598942 1220.681859 8157.721849
v 683.380060 1227.412335 8157.721849
v 670.085237 1214.775172 8162.921280
v 676.732593 1216.490459 8162.366344
v 681.598886 1221.176044 8160.841154
v 683.380060 1227.576916 8158.762795
v 670.085182 1217.165793 8167.613493
v 676.732649 1218.624598 8166.551338
v 681.598886 1222.610659 8163.656482
v 683.380060 1228.055305 8159.703005
v 670.085237 1220.888856 8171.335451
v 676.732649 1221.948801 8169.879186
v 681.598942 1224.844983 8165.892131
v 683.380060 1228.800889 8160.447043
v 670.085182 1225.580185 8173.726624
v 676.732649 1226.137330 8172.012331
v 681.598886 1227.659979 8167.325421
v 683.380060 1229.739995 8160.925985
v 670.085182 1230.780610 8174.550191
v 676.732649 1230.780610 8172.747533
v 681.598886 1230.780610 8167.822035
v 683.380060 1230.780610 8161.090345
v 670.085237 1235.980814 8173.726624
v 676.732649 1235.423780 8172.012331
v 681.598886 1233.901130 8167.325421
v 683.380060 1231.821115 8160.925985
v 670.085182 1240.672254 8171.335451
v 676.732593 1239.612198 8169.879186
v 681.598886 1236.716458 8165.892131
v 683.380060 1232.760220 8160.447043
v 670.085237 1244.395317 8167.613493
v 676.732649 1242.936511 8166.551338
v 681.598886 1238.950561 8163.656482
v 683.380005 1233.505805 8159.703005
v 670.085182 1246.785827 8162.921280
v 676.732649 1245.070651 8162.366344
v 681.598886 1240.385066 8160.841154
v 683.380060 1233.984194 8158.762795
v 670.085182 1247.609394 8157.721849
v 676.732593 1245.805963 8157.721849
v 681.598886 1240.879250 8157.721849
v 683.380005 1234.148775 8157.721849
v -735.445145 1246.785937 8152.522418
v -742.092557 1245.070651 8153.077353
v -746.958739 1240.384955 8154.600776
v -748.739969 1233.984194 8156.680902
v -735.445145 1244.395317 8147.830205
v -742.092612 1242.936511 8148.890592
v -746.958739 1238.950450 8151.787216
v -748.739969 1233.505805 8155.744227
v -735.445145 1240.672254 8144.106479
v -742.092557 1239.612198 8145.564511
v -746.958739 1236.716347 8149.551567
v -748.739969 1232.760220 8154.996654
v -735.445145 1235.980814 8141.715306
v -742.092557 1235.423780 8143.433133
v -746.958739 1233.901130 8148.116509
v -748.739969 1231.821115 8154.517713
v -735.445200 1230.780610 8140.893506
v -742.092612 1230.780610 8142.696164
v -746.958739 1230.780610 8147.623429
v -748.739969 1230.780610 8154.353353
v -735.445145 1225.580295 8141.715306
v -742.092612 1226.137330 8143.433133
v -746.958739 1227.659979 8148.116509
v -748.739969 1229.739995 8154.517713
v -735.445145 1220.888856 8144.106479
v -742.092557 1221.948911 8145.564511
v -746.958739 1224.844873 8149.551567
v -748.739969 1228.800889 8154.996654
v -735.445145 1217.165793 8147.830205
v -742.092557 1218.624598 8148.890592
v -746.958739 1222.610549 8151.787216
v -748.739969 1228.055305 8155.744227
v -735.445145 1214.775282 8152.522418
v -742.092557 1216.490459 8153.077353
v -746.958739 1221.176044 8154.600776
v -748.739969 1227.576916 8156.680902
v -735.445200 1213.951715 8157.721849
v -742.092557 1215.755146 8157.721849
v -746.958739 1220.681859 8157.721849
v -748.739969 1227.412335 8157.721849
v -735.445145 1214.775282 8162.921280
v -742.092557 1216.490459 8162.366344
v -746.958739 1221.176044 8160.841154
v -748.739969 1227.576916 8158.762795
v -735.445145 1217.165793 8167.613493
v -742.092557 1218.624598 8166.551338
v -746.958739 1222.610549 8163.656482
v -748.739969 1228.055305 8159.703005
v -735.445145 1220.888856 8171.335451
v -742.092557 1221.948911 8169.879186
v -746.958739 1224.844873 8165.892131
v -748.739969 1228.800889 8160.447043
v -735.445145 1225.580295 8173.726624
v -742.092612 1226.137330 8172.012331
v -746.958739 1227.659979 8167.325421
v -748.739969 1229.739995 8160.925985
v -735.445200 1230.780610 8174.550191
v -742.092612 1230.780610 8172.747533
v -746.958739 1230.780610 8167.822035
v -748.739969 1230.780610 8161.090345
v -735.445145 1235.980814 8173.726624
v -742.092557 1235.423780 8172.012331
v -746.958739 1233.901130 8167.325421
v -748.739969 1231.821115 8160.925985
v -735.445145 1240.672254 8171.335451
v -742.092557 1239.612198 8169.879186
v -746.958739 1236.716347 8165.892131
v -748.739969 1232.760220 8160.447043
v -735.445145 1244.395317 8167.613493
v -742.092612 1242.936511 8166.551338
v -746.958739 1238.950450 8163.656482
v -748.739969 1233.505805 8159.703005
v -735.445145 1246.785937 8162.921280
v -742.092557 1245.070651 8162.366344
v -746.958739 1240.384955 8160.841154
v -748.739969 1233.984194 8158.762795
v -735.445200 1247.609394 8157.721849
v -742.092557 1245.805963 8157.721849
v -746.958739 1240.879250 8157.721849
v -748.739969 1234.148775 8157.721849
vt 0.493801 0.859482
vt 0.490775 0.859482
vt 0.490745 0.051712
vt 0.493771 0.051712
vt 0.487749 0.859482
vt 0.487719 0.051712
vt 0.484723 0.859482
vt 0.484692 0.051712
vt 0.481697 0.859482
vt 0.481667 0.051712
vt 0.478671 0.859482
vt 0.478641 0.051712
vt 0.475645 0.859482
vt 0.475615 0.051712
vt 0.472619 0.859483
vt 0.472589 0.051712
vt 0.469593 0.859483
vt 0.469563 0.051713
vt 0.527086 0.859481
vt 0.466536 0.051713
vt 0.524060 0.859481
vt 0.524030 0.051711
vt 0.521034 0.859481
vt 0.521004 0.051711
vt 0.518009 0.859481
vt 0.517979 0.051711
vt 0.514982 0.859481
vt 0.514952 0.051711
vt 0.511957 0.859481
vt 0.511926 0.051711
vt 0.508931 0.859481
vt 0.508900 0.051711
vt 0.505904 0.859481
vt 0.505874 0.051711
vt 0.502879 0.859481
vt 0.502849 0.051711
vt 0.499853 0.859482
vt 0.499823 0.051711
vt 0.496827 0.859482
vt 0.496797 0.051712
vt 0.986389 0.517605
vt 0.986872 0.517243
vt 0.987774 0.518951
vt 0.986040 0.518100
vt 0.985862 0.518677
vt 0.985871 0.519281
vt 0.986065 0.519852
vt 0.986428 0.520336
vt 0.986923 0.520684
vt 0.987499 0.520862
vt 0.988103 0.520853
vt 0.988675 0.520658
vt 0.989159 0.520296
vt 0.989507 0.519802
vt 0.989685 0.519225
vt 0.989676 0.518621
vt 0.989481 0.518049
vt 0.989119 0.517566
vt 0.988625 0.517218
vt 0.988048 0.517039
vt 0.987444 0.517048
vt 0.003051 0.392354
vt 0.003208 0.391849
vt 0.004727 0.392595
vt 0.003513 0.391415
vt 0.003937 0.391097
vt 0.004438 0.390926
vt 0.004967 0.390918
vt 0.005474 0.391075
vt 0.005907 0.391381
vt 0.006224 0.391804
vt 0.006395 0.392306
vt 0.006403 0.392835
vt 0.006247 0.393341
vt 0.005942 0.393774
vt 0.005518 0.394092
vt 0.005017 0.394263
vt 0.004487 0.394271
vt 0.003981 0.394114
vt 0.003548 0.393809
vt 0.003230 0.393385
vt 0.003059 0.392884
vt 0.985025 0.513711
vt 0.983541 0.514817
vt 0.983231 0.510148
vt 0.980734 0.511982
vt 0.982470 0.516327
vt 0.978925 0.514499
vt 0.981918 0.518095
vt 0.977982 0.517451
vt 0.981941 0.519946
vt 0.977998 0.520550
vt 0.982533 0.521699
vt 0.978970 0.523493
vt 0.983639 0.523184
vt 0.980805 0.525991
vt 0.985151 0.524254
vt 0.983322 0.527800
vt 0.986917 0.524805
vt 0.986273 0.528742
vt 0.988768 0.524783
vt 0.989373 0.528726
vt 0.990521 0.524191
vt 0.992315 0.527754
vt 0.992006 0.523085
vt 0.994813 0.525919
vt 0.993077 0.521574
vt 0.996622 0.523403
vt 0.993627 0.519807
vt 0.997565 0.520450
vt 0.993606 0.517956
vt 0.997549 0.517351
vt 0.993013 0.516203
vt 0.996576 0.514409
vt 0.991908 0.514718
vt 0.994742 0.511911
vt 0.990396 0.513648
vt 0.992225 0.510102
vt 0.988629 0.513096
vt 0.989273 0.509160
vt 0.986779 0.513118
vt 0.986174 0.509175
vt -0.000406 0.391844
vt -0.000387 0.393468
vt -0.003858 0.391280
vt -0.003844 0.393998
vt 0.000077 0.390295
vt -0.003032 0.388692
vt 0.001015 0.388970
vt -0.001446 0.386485
vt 0.002317 0.388000
vt 0.000744 0.384876
vt 0.003854 0.387481
vt 0.003324 0.384023
vt 0.005477 0.387461
vt 0.006041 0.384009
vt 0.007027 0.387944
vt 0.008630 0.384836
vt 0.008352 0.388883
vt 0.010837 0.386422
vt 0.009321 0.390184
vt 0.012445 0.388611
vt 0.009841 0.391722
vt 0.013299 0.391192
vt 0.009861 0.393344
vt 0.013313 0.393909
vt 0.009377 0.394894
vt 0.012486 0.396497
vt 0.008439 0.396219
vt 0.010900 0.398704
vt 0.007137 0.397188
vt 0.008710 0.400313
vt 0.005600 0.397709
vt 0.006130 0.401166
vt 0.003977 0.397728
vt 0.003413 0.401180
vt 0.002427 0.397245
vt 0.000824 0.400354
vt 0.001103 0.396306
vt -0.001382 0.398768
vt 0.000133 0.395004
vt -0.002991 0.396578
vt -0.006229 0.398177
vt -0.007418 0.394519
vt -0.003968 0.401290
vt -0.000856 0.403551
vt 0.002803 0.404740
vt 0.006651 0.404740
vt 0.010310 0.403551
vt 0.013422 0.401289
vt 0.015683 0.398178
vt 0.016873 0.394518
vt 0.016873 0.390672
vt 0.015684 0.387012
vt 0.013422 0.383899
vt 0.010310 0.381638
vt 0.006651 0.380449
vt 0.002803 0.380449
vt -0.000855 0.381638
vt -0.003968 0.383899
vt -0.006229 0.387012
vt -0.007418 0.390671
vt 0.985581 0.505099
vt 0.989968 0.505099
vt 0.994142 0.506456
vt 0.997690 0.509035
vt 1.000270 0.512585
vt 1.001625 0.516758
vt 1.001625 0.521146
vt 1.000268 0.525320
vt 0.997689 0.528868
vt 0.994138 0.531447
vt 0.989966 0.532803
vt 0.985578 0.532802
vt 0.981405 0.531446
vt 0.977855 0.528866
vt 0.975276 0.525316
vt 0.973921 0.521143
vt 0.973922 0.516756
vt 0.975278 0.512583
vt 0.977857 0.509034
vt 0.981407 0.506455
vt 0.466566 0.859483
vt 0.527056 0.051710
vn 0.001177 0.951055 -0.309020
vn 0.001177 0.809058 -0.587727
vn -0.001177 0.809058 -0.587727
vn -0.001177 0.951055 -0.309019
vn 0.001178 0.587873 -0.808952
vn -0.001178 0.587873 -0.808953
vn 0.001179 0.308931 -0.951084
vn -0.001179 0.308930 -0.951084
vn 0.001179 0.000002 -0.999999
vn -0.001178 0.000001 -0.999999
vn 0.001178 -0.308921 -0.951087
vn -0.001178 -0.308920 -0.951087
vn 0.001178 -0.587880 -0.808947
vn -0.001178 -0.587880 -0.808947
vn 0.001178 -0.809062 -0.587722
vn -0.001177 -0.809062 -0.587722
vn 0.001177 -0.951055 -0.309019
vn -0.001177 -0.951055 -0.309019
vn 0.001178 -0.999999 0.000000
vn -0.001178 -0.999999 -0.000000
vn 0.001177 -0.951055 0.309020
vn -0.001177 -0.951055 0.309019
vn 0.001177 -0.809003 0.587803
vn -0.001177 -0.809003 0.587803
vn 0.001176 -0.587772 0.809026
vn -0.001177 -0.587772 0.809026
vn 0.001176 -0.309079 0.951036
vn -0.001176 -0.309078 0.951036
vn 0.001177 0.000002 0.999999
vn -0.001177 0.000001 0.999999
vn 0.001176 0.309084 0.951034
vn -0.001176 0.309084 0.951034
vn 0.001177 0.587762 0.809033
vn -0.001177 0.587762 0.809033
vn 0.001177 0.809000 0.587808
vn -0.001178 0.809000 0.587808
vn 0.001177 0.951055 0.309020
vn -0.001177 0.951055 0.309019
vn 0.001178 0.999999 -0.000000
vn -0.001178 0.999999 -0.000000
vn 0.972420 0.188697 -0.137086
vn 0.972394 0.221918 -0.072133
vn 1.000000 0.000006 0.000000
vn 0.972393 0.137260 -0.188712
vn 0.972394 0.072095 -0.221929
vn 0.972401 -0.000002 -0.233317
vn 0.972385 -0.072106 -0.221965
vn 0.972394 -0.137268 -0.188701
vn 0.972408 -0.188731 -0.137128
vn 0.972377 -0.221981 -0.072161
vn 0.972392 -0.233355 -0.000001
vn 0.972386 -0.221958 0.072108
vn 0.972393 -0.188786 0.137157
vn 0.972411 -0.137108 0.188729
vn 0.972380 -0.072163 0.221969
vn 0.972404 0.000000 0.233305
vn 0.972387 0.072152 0.221939
vn 0.972408 0.137121 0.188734
vn 0.972392 0.188795 0.137153
vn 0.972393 0.221933 0.072095
vn 0.972387 0.233375 0.000002
vn -0.972385 0.221951 -0.072146
vn -0.972399 0.188768 -0.137142
vn -1.000000 0.000003 0.000000
vn -0.972377 0.137307 -0.188759
vn -0.972390 0.072105 -0.221941
vn -0.972396 0.000002 -0.233337
vn -0.972379 -0.072120 -0.221988
vn -0.972393 -0.137262 -0.188709
vn -0.972417 -0.188699 -0.137108
vn -0.972387 -0.221941 -0.072149
vn -0.972385 -0.233381 0.000005
vn -0.972377 -0.221994 0.072125
vn -0.972374 -0.188851 0.137202
vn -0.972400 -0.137127 0.188771
vn -0.972386 -0.072152 0.221945
vn -0.972402 0.000000 0.233311
vn -0.972387 0.072153 0.221939
vn -0.972411 0.137101 0.188732
vn -0.972389 0.188805 0.137158
vn -0.972387 0.221959 0.072101
vn -0.972383 0.233392 0.000004
vn 0.814750 0.551431 -0.179182
vn 0.814856 0.468956 -0.340718
vn 0.465275 0.841834 -0.273557
vn 0.465353 0.716091 -0.520250
vn 0.966720 0.150462 -0.206914
vn 0.465443 0.520251 -0.716032
vn 0.711547 0.413044 -0.568415
vn 0.966727 0.079040 -0.243294
vn 0.465409 0.273437 -0.841800
vn 0.711320 0.217112 -0.668495
vn 0.966738 -0.000002 -0.255770
vn 0.465282 0.000001 -0.885163
vn 0.711304 0.000003 -0.702884
vn 0.966721 -0.079046 -0.243316
vn 0.465381 -0.273428 -0.841818
vn 0.711442 -0.217068 -0.668380
vn 0.966722 -0.150468 -0.206899
vn 0.465440 -0.520266 -0.716023
vn 0.711525 -0.413070 -0.568423
vn 0.814822 -0.468983 -0.340764
vn 0.465374 -0.716080 -0.520247
vn 0.814743 -0.551437 -0.179197
vn 0.465317 -0.841811 -0.273559
vn 0.966703 -0.255900 -0.000002
vn 0.465378 -0.885112 -0.000000
vn 0.711491 -0.702695 0.000001
vn 0.814719 -0.551472 0.179199
vn 0.465282 -0.841818 0.273596
vn 0.814761 -0.469082 0.340774
vn 0.465293 -0.716122 0.520261
vn 0.966738 -0.150335 0.206924
vn 0.465181 -0.520392 0.716100
vn 0.711471 -0.413132 0.568446
vn 0.966709 -0.079112 0.243342
vn 0.465183 -0.273531 0.841894
vn 0.711429 -0.217182 0.668357
vn 0.966745 -0.000000 0.255743
vn 0.465298 -0.000000 0.885154
vn 0.711480 -0.000002 0.702706
vn 0.966722 0.079095 0.243296
vn 0.465216 0.273533 0.841875
vn 0.711483 0.217158 0.668307
vn 0.966742 0.150330 0.206910
vn 0.465201 0.520377 0.716098
vn 0.711465 0.413143 0.568446
vn 0.814752 0.469097 0.340773
vn 0.465270 0.716131 0.520270
vn 0.814743 0.551444 0.179176
vn 0.465263 0.841830 0.273594
vn 0.966709 0.255878 0.000001
vn 0.465349 0.885127 -0.000002
vn 0.711498 0.702688 0.000001
vn -0.814781 0.551388 -0.179175
vn -0.814729 0.579842 0.000001
vn -0.465305 0.841820 -0.273553
vn -0.465376 0.885113 -0.000002
vn -0.814853 0.468963 -0.340718
vn -0.465341 0.716093 -0.520258
vn -0.966704 0.150507 -0.206955
vn -0.465443 0.520247 -0.716035
vn -0.711525 0.413061 -0.568431
vn -0.966726 0.079046 -0.243295
vn -0.465422 0.273433 -0.841794
vn -0.711352 0.217106 -0.668463
vn -0.966732 0.000002 -0.255791
vn -0.465331 0.000001 -0.885137
vn -0.711312 0.000003 -0.702877
vn -0.966714 -0.079061 -0.243340
vn -0.465424 -0.273432 -0.841793
vn -0.711359 -0.217117 -0.668452
vn -0.966721 -0.150465 -0.206907
vn -0.465436 -0.520264 -0.716027
vn -0.711530 -0.413060 -0.568425
vn -0.814861 -0.468944 -0.340725
vn -0.465362 -0.716086 -0.520249
vn -0.814742 -0.551437 -0.179199
vn -0.465283 -0.841829 -0.273562
vn -0.814729 -0.579842 0.000004
vn -0.465353 -0.885125 -0.000000
vn -0.814741 -0.551442 0.179191
vn -0.465294 -0.841812 0.273595
vn -0.814747 -0.469095 0.340789
vn -0.465329 -0.716105 0.520252
vn -0.966733 -0.150338 0.206945
vn -0.465222 -0.520383 0.716080
vn -0.711476 -0.413146 0.568430
vn -0.966720 -0.079095 0.243302
vn -0.465197 -0.273530 0.841887
vn -0.711465 -0.217169 0.668323
vn -0.966743 -0.000000 0.255750
vn -0.465301 0.000003 0.885152
vn -0.711488 0.000005 0.702698
vn -0.966722 0.079095 0.243296
vn -0.465203 0.273538 0.841881
vn -0.711458 0.217175 0.668328
vn -0.966745 0.150312 0.206907
vn -0.465216 0.520362 0.716099
vn -0.711444 0.413142 0.568472
vn -0.814765 0.469086 0.340758
vn -0.465326 0.716106 0.520254
vn -0.814751 0.551431 0.179179
vn -0.465290 0.841818 0.273585
s 1
g pCylinder303 UV_Torigate_HP TORIGATE_grp BossExt_grp
usemtl aiStandardSurface2SG
f 3/1/1 7/2/2 87/3/3 83/4/4
f 7/2/2 11/5/5 91/6/6 87/3/3
f 11/5/5 15/7/7 95/8/8 91/6/6
f 15/7/7 19/9/9 99/10/10 95/8/8
f 19/9/9 23/11/11 103/12/12 99/10/10
f 23/11/11 27/13/13 107/14/14 103/12/12
f 27/13/13 31/15/15 111/16/16 107/14/14
f 31/15/15 35/17/17 115/18/18 111/16/16
f 35/17/17 39/203/19 119/20/20 115/18/18
f 39/19/19 43/21/21 123/22/22 119/204/20
f 43/21/21 47/23/23 127/24/24 123/22/22
f 47/23/23 51/25/25 131/26/26 127/24/24
f 51/25/25 55/27/27 135/28/28 131/26/26
f 55/27/27 59/29/29 139/30/30 135/28/28
f 59/29/29 63/31/31 143/32/32 139/30/30
f 63/31/31 67/33/33 147/34/34 143/32/32
f 67/33/33 71/35/35 151/36/36 147/34/34
f 71/35/35 75/37/37 155/38/38 151/36/36
f 75/37/37 79/39/39 159/40/40 155/38/38
f 79/39/39 3/1/1 83/4/4 159/40/40
f 10/41/41 6/42/42 1/43/43
f 14/44/44 10/41/41 1/43/43
f 18/45/45 14/44/44 1/43/43
f 22/46/46 18/45/45 1/43/43
f 26/47/47 22/46/46 1/43/43
f 30/48/48 26/47/47 1/43/43
f 34/49/49 30/48/48 1/43/43
f 38/50/50 34/49/49 1/43/43
f 42/51/51 38/50/50 1/43/43
f 46/52/52 42/51/51 1/43/43
f 50/53/53 46/52/52 1/43/43
f 54/54/54 50/53/53 1/43/43
f 58/55/55 54/54/54 1/43/43
f 62/56/56 58/55/55 1/43/43
f 66/57/57 62/56/56 1/43/43
f 70/58/58 66/57/57 1/43/43
f 74/59/59 70/58/58 1/43/43
f 78/60/60 74/59/59 1/43/43
f 82/61/61 78/60/60 1/43/43
f 6/42/42 82/61/61 1/43/43
f 86/62/62 90/63/63 2/64/64
f 90/63/63 94/65/65 2/64/64
f 94/65/65 98/66/66 2/64/64
f 98/66/66 102/67/67 2/64/64
f 102/67/67 106/68/68 2/64/64
f 106/68/68 110/69/69 2/64/64
f 110/69/69 114/70/70 2/64/64
f 114/70/70 118/71/71 2/64/64
f 118/71/71 122/72/72 2/64/64
f 122/72/72 126/73/73 2/64/64
f 126/73/73 130/74/74 2/64/64
f 130/74/74 134/75/75 2/64/64
f 134/75/75 138/76/76 2/64/64
f 138/76/76 142/77/77 2/64/64
f 142/77/77 146/78/78 2/64/64
f 146/78/78 150/79/79 2/64/64
f 150/79/79 154/80/80 2/64/64
f 154/80/80 158/81/81 2/64/64
f 158/81/81 162/82/82 2/64/64
f 162/82/82 86/62/62 2/64/64
f 5/83/83 6/42/42 10/41/41 9/84/84
f 3/202/1 4/85/85 8/86/86 7/201/2
f 4/85/85 5/83/83 9/84/84 8/86/86
f 9/84/84 10/41/41 14/44/44 13/87/87
f 7/201/2 8/86/86 12/88/88 11/200/5
f 8/86/86 9/84/84 13/87/89 12/88/88
f 13/87/87 14/44/44 18/45/45 17/89/90
f 11/200/5 12/88/88 16/90/91 15/199/7
f 12/88/88 13/87/89 17/89/92 16/90/91
f 17/89/90 18/45/45 22/46/46 21/91/93
f 15/199/7 16/90/91 20/92/94 19/198/9
f 16/90/91 17/89/92 21/91/95 20/92/94
f 21/91/93 22/46/46 26/47/47 25/93/96
f 19/198/9 20/92/94 24/94/97 23/197/11
f 20/92/94 21/91/95 25/93/98 24/94/97
f 25/93/96 26/47/47 30/48/48 29/95/99
f 23/197/11 24/94/97 28/96/100 27/196/13
f 24/94/97 25/93/98 29/95/101 28/96/100
f 29/95/99 30/48/48 34/49/49 33/97/102
f 27/196/13 28/96/100 32/98/103 31/195/15
f 28/96/100 29/95/101 33/97/102 32/98/103
f 33/97/102 34/49/49 38/50/50 37/99/104
f 31/195/15 32/98/103 36/100/105 35/194/17
f 32/98/103 33/97/102 37/99/104 36/100/105
f 37/99/104 38/50/50 42/51/51 41/101/106
f 35/194/17 36/100/105 40/102/107 39/193/19
f 36/100/105 37/99/104 41/101/108 40/102/107
f 41/101/106 42/51/51 46/52/52 45/103/109
f 39/193/19 40/102/107 44/104/110 43/192/21
f 40/102/107 41/101/108 45/103/109 44/104/110
f 45/103/109 46/52/52 50/53/53 49/105/111
f 43/192/21 44/104/110 48/106/112 47/191/23
f 44/104/110 45/103/109 49/105/111 48/106/112
f 49/105/111 50/53/53 54/54/54 53/107/113
f 47/191/23 48/106/112 52/108/114 51/190/25
f 48/106/112 49/105/111 53/107/115 52/108/114
f 53/107/113 54/54/54 58/55/55 57/109/116
f 51/190/25 52/108/114 56/110/117 55/189/27
f 52/108/114 53/107/115 57/109/118 56/110/117
f 57/109/116 58/55/55 62/56/56 61/111/119
f 55/189/27 56/110/117 60/112/120 59/188/29
f 56/110/117 57/109/118 61/111/121 60/112/120
f 61/111/119 62/56/56 66/57/57 65/113/122
f 59/188/29 60/112/120 64/114/123 63/187/31
f 60/112/120 61/111/121 65/113/124 64/114/123
f 65/113/122 66/57/57 70/58/58 69/115/125
f 63/187/31 64/114/123 68/116/126 67/186/33
f 64/114/123 65/113/124 69/115/127 68/116/126
f 69/115/125 70/58/58 74/59/59 73/117/128
f 67/186/33 68/116/126 72/118/129 71/185/35
f 68/116/126 69/115/127 73/117/128 72/118/129
f 73/117/128 74/59/59 78/60/60 77/119/130
f 71/185/35 72/118/129 76/120/131 75/184/37
f 72/118/129 73/117/128 77/119/130 76/120/131
f 77/119/130 78/60/60 82/61/61 81/121/132
f 75/184/37 76/120/131 80/122/133 79/183/39
f 76/120/131 77/119/130 81/121/134 80/122/133
f 6/42/42 5/83/83 81/121/132 82/61/61
f 5/83/83 4/85/85 80/122/133 81/121/134
f 4/85/85 3/202/1 79/183/39 80/122/133
f 85/123/135 86/62/62 162/82/82 161/124/136
f 83/182/4 84/125/137 160/126/138 159/164/40
f 84/125/137 85/123/135 161/124/136 160/126/138
f 86/62/62 85/123/135 89/127/139 90/63/63
f 85/123/135 84/125/137 88/128/140 89/127/139
f 84/125/137 83/182/4 87/181/3 88/128/140
f 90/63/63 89/127/139 93/129/141 94/65/65
f 89/127/139 88/128/140 92/130/142 93/129/143
f 88/128/140 87/181/3 91/180/6 92/130/142
f 94/65/65 93/129/141 97/131/144 98/66/66
f 93/129/143 92/130/142 96/132/145 97/131/146
f 92/130/142 91/180/6 95/179/8 96/132/145
f 98/66/66 97/131/144 101/133/147 102/67/67
f 97/131/146 96/132/145 100/134/148 101/133/149
f 96/132/145 95/179/8 99/178/10 100/134/148
f 102/67/67 101/133/147 105/135/150 106/68/68
f 101/133/149 100/134/148 104/136/151 105/135/152
f 100/134/148 99/178/10 103/177/12 104/136/151
f 106/68/68 105/135/150 109/137/153 110/69/69
f 105/135/152 104/136/151 108/138/154 109/137/155
f 104/136/151 103/177/12 107/176/14 108/138/154
f 110/69/69 109/137/153 113/139/156 114/70/70
f 109/137/155 108/138/154 112/140/157 113/139/156
f 108/138/154 107/176/14 111/175/16 112/140/157
f 114/70/70 113/139/156 117/141/158 118/71/71
f 113/139/156 112/140/157 116/142/159 117/141/158
f 112/140/157 111/175/16 115/174/18 116/142/159
f 118/71/71 117/141/158 121/143/160 122/72/72
f 117/141/158 116/142/159 120/144/161 121/143/160
f 116/142/159 115/174/18 119/173/20 120/144/161
f 122/72/72 121/143/160 125/145/162 126/73/73
f 121/143/160 120/144/161 124/146/163 125/145/162
f 120/144/161 119/173/20 123/172/22 124/146/163
f 126/73/73 125/145/162 129/147/164 130/74/74
f 125/145/162 124/146/163 128/148/165 129/147/164
f 124/146/163 123/172/22 127/171/24 128/148/165
f 130/74/74 129/147/164 133/149/166 134/75/75
f 129/147/164 128/148/165 132/150/167 133/149/168
f 128/148/165 127/171/24 131/170/26 132/150/167
f 134/75/75 133/149/166 137/151/169 138/76/76
f 133/149/168 132/150/167 136/152/170 137/151/171
f 132/150/167 131/170/26 135/169/28 136/152/170
f 138/76/76 137/151/169 141/153/172 142/77/77
f 137/151/171 136/152/170 140/154/173 141/153/174
f 136/152/170 135/169/28 139/168/30 140/154/173
f 142/77/77 141/153/172 145/155/175 146/78/78
f 141/153/174 140/154/173 144/156/176 145/155/177
f 140/154/173 139/168/30 143/167/32 144/156/176
f 146/78/78 145/155/175 149/157/178 150/79/79
f 145/155/177 144/156/176 148/158/179 149/157/180
f 144/156/176 143/167/32 147/166/34 148/158/179
f 150/79/79 149/157/178 153/159/181 154/80/80
f 149/157/180 148/158/179 152/160/182 153/159/181
f 148/158/179 147/166/34 151/165/36 152/160/182
f 154/80/80 153/159/181 157/161/183 158/81/81
f 153/159/181 152/160/182 156/162/184 157/161/183
f 152/160/182 151/165/36 155/163/38 156/162/184
f 158/81/81 157/161/183 161/124/136 162/82/82
f 157/161/183 156/162/184 160/126/138 161/124/136
f 156/162/184 155/163/38 159/164/40 160/126/138
g default
v -807.010170 1139.878157 8273.376496
v -809.335455 1140.104925 8263.239196
v -811.744522 1132.170800 8272.552929
v -807.890788 1127.361061 8277.209796
v -805.640117 1132.423747 8281.209222
v -801.389677 1139.685078 8277.575629
v 743.129888 1132.201286 8272.464564
v 740.693649 1140.172746 8263.048327
v 738.386644 1139.909417 8273.323477
v 732.813537 1139.685078 8277.575629
v 737.063977 1132.429822 8281.189782
v 739.314759 1127.361061 8277.209796
v -745.500431 1214.961513 8176.992616
v -739.002412 1215.129960 8180.265677
v -736.854466 1219.315506 8173.878613
v -736.431636 1221.095079 8165.414957
v -743.295323 1219.157884 8166.001704
v -748.190500 1214.793066 8169.099802
v 676.924236 1214.961513 8176.992616
v 679.614306 1214.793066 8169.099802
v 674.662574 1219.171360 8165.916873
v 667.733166 1221.095079 8165.264735
v 668.155885 1219.343231 8173.776109
v 670.426273 1215.129960 8180.265677
v -745.500431 1214.961513 8141.717074
v -748.190500 1214.793066 8149.611655
v -743.238769 1219.171360 8152.794584
v -736.309361 1221.095079 8153.444954
v -736.732135 1219.343231 8144.935348
v -739.002412 1215.129960 8138.445780
v 676.924236 1214.961513 8141.717074
v 670.426273 1215.129960 8138.445780
v 668.278382 1219.315506 8144.831077
v 667.855607 1221.095079 8153.296500
v 674.719239 1219.157884 8152.707985
v 679.614306 1214.793066 8149.611655
v -807.010170 1139.878157 8045.332309
v -801.389677 1139.685078 8041.133177
v -805.795198 1132.543482 8033.425930
v -808.450639 1127.361061 8040.619773
v -811.825763 1132.224040 8045.778556
v -809.335455 1140.104925 8055.469610
v 738.435742 1139.877494 8045.332309
v 740.759426 1140.104925 8055.469610
v 743.169708 1132.170137 8046.158528
v 739.314759 1127.361061 8041.499894
v 737.063977 1132.429822 8037.520791
v 732.813537 1139.685078 8041.133177
v 714.053413 1167.684377 8217.379224
v 711.416031 1167.684377 8225.639639
v 705.048849 1167.684377 8229.061155
v -782.629607 1167.684377 8101.330466
v -779.992005 1167.684377 8093.071818
v -773.624933 1167.684377 8089.648535
v 705.048849 1167.684377 8089.648535
v 711.416031 1167.684377 8093.047075
v 714.053413 1167.684377 8101.247402
v -782.629607 1167.684377 8217.462288
v -779.992005 1167.684377 8225.662614
v -773.624933 1167.684377 8229.061155
v -809.586910 1134.169851 8277.944997
v 740.978076 1134.190175 8277.902582
v -742.404046 1218.436269 8172.834131
v 673.758429 1218.463331 8172.758137
v -742.334623 1218.463331 8145.951552
v 673.827906 1218.436269 8145.877325
v -809.704602 1134.215359 8039.209458
v 741.013698 1134.170955 8040.777063
vt -0.515281 0.711754
vt 0.673479 0.649499
vt -0.577433 0.782163
vt -0.591887 0.779027
vt 0.670117 0.646062
vt -0.677078 0.246484
vt 0.671437 0.649020
vt 0.671753 0.649981
vt 0.671485 0.695720
vt 0.671552 0.697043
vt -0.871291 0.718848
vt 0.671597 0.647957
vt 0.353503 0.649004
vt 1.596173 0.649461
vt 0.357384 0.649031
vt 1.622849 0.638732
vt 0.353686 0.651033
vt 0.361447 0.695942
vt 1.978672 0.637968
vt 0.357385 0.696876
vt -0.617121 0.382367
vt -0.663813 0.900510
vt 1.775312 0.824372
vt 1.790671 0.826884
vt -0.621269 0.356131
vt 1.649614 0.355613
vt -0.673478 0.879966
vt -0.678567 0.891188
vt -0.700801 0.891478
vt -0.706317 0.880255
vt -0.699984 0.903812
vt 1.784367 0.803374
vt 1.770823 0.807037
vt 1.686223 0.707637
vt 1.700711 0.704191
vt 1.705374 0.245940
vt 1.789852 0.814559
vt 1.812082 0.814204
vt 1.646032 0.399509
vt 1.817204 0.802937
vt -0.719817 0.884181
vt -0.806415 0.786990
vt -0.792015 0.783255
vt -0.622066 0.425445
vt -0.677899 0.535165
vt -0.715202 0.901398
vt 1.826720 0.823634
vt 1.838677 0.816243
vt 1.830792 0.806566
vt 1.915306 0.707508
vt 1.705975 0.535498
vt 1.900924 0.704085
vt 0.671321 0.698395
vt 0.361948 0.697905
vt -0.722673 0.625463
vt 1.750723 0.625809
vt 0.351902 0.650842
vt 0.673260 0.696079
vt 0.359834 0.696720
vt -0.659863 0.883337
vt 0.672068 0.648924
vt 0.353200 0.650035
vt -0.666956 0.891194
vt 1.778209 0.814872
vt -0.712388 0.891884
vt 1.823648 0.814300
vt 0.671788 0.697027
vt 0.361320 0.697036
vt 1.996287 0.640533
vt 0.358698 0.699832
vt 0.359478 0.694421
vt 0.673688 0.697572
vt -0.888844 0.721793
vt 0.673174 0.693797
vt 1.605020 0.641334
vt 0.352339 0.653152
vt 0.351491 0.649327
vt -0.488709 0.722088
vt 0.673422 0.651827
vt -0.497640 0.714049
vt 0.359948 0.698285
vt 2.005094 0.648718
vt 1.923404 0.716914
vt 0.357842 0.698184
vt 0.671013 0.698843
vt -0.897471 0.730160
vt 0.670110 0.700972
vt 0.362834 0.696718
vt 0.670289 0.696792
vt -0.814344 0.796562
vt 1.650172 0.425763
vt 1.811649 0.826316
vt 1.646711 0.413456
vt -0.618404 0.412974
vt -0.617721 0.398968
vt -0.727480 0.894032
vt 1.762969 0.816743
vt 1.678099 0.717044
vt 1.645959 0.368078
vt -0.617805 0.368433
vt -0.651797 0.892864
vt 1.645282 0.382080
vt -0.678999 0.903284
vt -0.569148 0.791399
vt 0.358703 0.646078
vt 1.750088 0.155679
vt 0.354734 0.649823
vt 0.357840 0.647723
vt 0.670980 0.647710
vt 0.670520 0.648976
vt 0.673640 0.647936
vt -0.721833 0.156244
vn -0.836481 0.547679 0.018629
vn -0.415538 0.847191 0.331052
vn -0.452300 0.827294 0.333180
vn -0.730083 0.683174 0.015843
vn -0.001511 0.799408 0.600787
vn -0.001531 0.814632 0.579976
vn -0.800989 -0.598678 0.001039
vn -0.800989 -0.598678 0.001039
vn -0.800990 -0.598678 0.001039
vn -0.800990 -0.598678 0.001039
vn -0.948443 0.316436 0.018015
vn -0.837048 0.546823 -0.018313
vn -0.946704 0.321586 -0.018297
vn -0.002090 0.447955 0.894054
vn 0.002109 0.447955 0.894053
vn 0.001510 0.799383 0.600820
vn 0.000006 -0.618733 0.785602
vn 0.000006 -0.618733 0.785602
vn 0.000006 -0.618733 0.785602
vn 0.000006 -0.618733 0.785602
vn 0.837812 0.545640 0.018643
vn 0.949660 0.312763 0.018042
vn 0.949808 0.312337 -0.017594
vn 0.837934 0.545459 -0.018458
vn 0.782811 -0.622259 0.000110
vn 0.782811 -0.622259 0.000110
vn 0.782811 -0.622259 0.000110
vn 0.782811 -0.622259 0.000110
vn -0.002788 0.979364 0.202085
vn -0.000817 0.921722 0.387849
vn 0.000832 0.921521 0.388328
vn 0.002784 0.979360 0.202103
vn -0.001158 0.726057 0.687633
vn 0.001164 0.725991 0.687703
vn -0.797373 0.603290 0.015406
vn -0.491328 0.869741 0.046343
vn -0.489603 0.870638 -0.047738
vn -0.797337 0.603337 -0.015451
vn -0.002784 0.979357 -0.202119
vn 0.797329 0.603347 0.015452
vn 0.515773 0.770551 0.374472
vn 0.453341 0.827026 0.332430
vn 0.730136 0.683118 0.015862
vn 0.001535 0.814633 0.579974
vn 0.489606 0.870636 0.047742
vn 0.491307 0.869752 -0.046348
vn 0.002788 0.979361 -0.202100
vn 0.797365 0.603300 -0.015404
vn -0.515760 0.770555 -0.374482
vn -0.453043 0.827118 -0.332609
vn -0.730122 0.683133 -0.015828
vn -0.001164 0.726000 -0.687694
vn -0.001536 0.814640 -0.579965
vn -0.000832 0.921511 -0.388352
vn 0.000817 0.921711 -0.387875
vn 0.001158 0.726065 -0.687625
vn 0.515237 0.770532 -0.375249
vn 0.452367 0.827263 -0.333166
vn 0.001532 0.814638 -0.579968
vn 0.730098 0.683158 -0.015864
vn 0.001061 -0.736875 -0.676028
vn 0.001061 -0.736875 -0.676028
vn 0.001061 -0.736875 -0.676028
vn 0.001061 -0.736875 -0.676028
vn -0.000582 0.619032 -0.785366
vn -0.001333 0.820514 -0.571625
vn 0.001703 0.818773 -0.574115
vn 0.002922 0.618370 -0.785882
vn 0.000000 -1.000000 -0.000000
vn 0.000000 -1.000000 -0.000000
vn 0.000000 -1.000000 -0.000000
vn 0.000000 -1.000000 -0.000000
vn 0.416384 0.847075 0.330285
vn -0.421009 0.849237 -0.318667
vn 0.415551 0.847169 -0.331093
vn -0.515181 0.770560 0.375266
vn -0.394109 0.630359 0.668824
vn -0.845809 0.499577 0.187163
vn -0.786206 -0.256624 0.562161
vn -0.786206 -0.256624 0.562161
vn -0.786206 -0.256624 0.562161
vn -0.786206 -0.256624 0.562161
vn 0.792091 -0.249412 0.557123
vn 0.792091 -0.249412 0.557123
vn 0.792091 -0.249412 0.557123
vn 0.792091 -0.249412 0.557123
vn 0.845992 0.500007 0.185178
vn 0.397655 0.630601 0.666493
vn -0.381309 0.881618 0.278126
vn 0.376944 0.884150 0.276029
vn -0.376853 0.884182 -0.276049
vn 0.381315 0.881625 -0.278095
vn -0.838736 0.517810 -0.168510
vn -0.386350 0.767179 -0.512026
vn -0.868155 -0.247381 -0.430244
vn -0.868155 -0.247381 -0.430244
vn -0.868155 -0.247381 -0.430244
vn -0.868155 -0.247381 -0.430244
vn 0.394133 0.629609 -0.669516
vn 0.845853 0.499523 -0.187106
vn 0.785760 -0.255816 -0.563152
vn 0.785760 -0.255815 -0.563152
vn 0.785760 -0.255815 -0.563152
vn 0.785760 -0.255816 -0.563152
s 1
g UV_Torigate_HP TORIGATE_grp BossExt_grp pCube523
usemtl aiStandardSurface21SG
f 164/205/185 163/284/186 221/207/187 220/208/188
f 163/284/186 168/282/189 222/308/190 221/207/187
s off
f 166/314/191 165/212/192 203/213/193 202/293/194
s 1
f 165/212/195 164/283/185 204/278/196 203/213/197
f 168/209/189 167/313/198 173/312/199 172/309/200
s off
f 167/313/201 166/211/202 174/219/203 173/312/204
s 1
f 170/280/205 169/221/206 207/222/207 206/275/208
s off
f 169/221/209 174/311/210 208/292/211 207/222/212
s 1
f 178/225/213 177/304/214 185/303/215 184/306/216
f 177/304/214 176/229/217 186/230/218 185/303/215
f 180/231/219 179/232/220 189/233/221 188/234/222
f 179/232/220 178/307/213 190/235/223 189/233/221
f 182/236/224 181/237/225 212/238/226 211/239/227
f 181/237/225 186/301/218 213/302/228 212/238/226
f 184/228/216 183/241/229 197/242/230 196/296/231
f 183/241/229 182/236/224 198/244/232 197/242/230
f 188/234/222 187/245/233 215/246/234 214/247/235
f 187/245/233 192/300/236 216/294/237 215/246/234
f 192/248/236 191/298/238 195/297/239 194/295/240
f 191/298/238 190/299/223 196/243/231 195/297/239
f 194/252/240 193/253/241 218/254/242 217/287/243
f 193/253/241 198/244/232 219/256/244 218/254/242
s off
f 202/214/245 201/289/246 209/288/247 208/224/248
s 1
f 201/289/249 200/291/250 210/274/251 209/288/252
f 168/316/189 172/310/200 213/240/228 222/210/190
f 210/260/251 200/259/250 216/249/237 217/255/243
s off
f 202/214/253 208/224/254 174/219/255 166/211/256
s 1
f 211/239/227 170/220/205 206/223/208 219/256/244
f 204/215/196 164/205/185 220/208/188 214/247/235
f 214/247/235 220/208/188 180/231/219 188/234/222
f 217/255/243 216/249/237 192/248/236 194/295/240
f 182/236/224 211/239/227 219/256/244 198/244/232
f 222/210/190 213/240/228 186/230/218 176/229/217
f 172/218/200 171/279/257 212/238/226 213/302/228
f 171/279/257 170/220/205 211/239/227 212/238/226
f 200/290/250 199/277/258 215/246/234 216/294/237
f 199/277/258 204/215/196 214/247/235 215/246/234
f 206/223/208 205/273/259 218/254/242 219/256/244
f 205/273/259 210/286/251 217/287/243 218/254/242
f 176/305/217 175/264/260 221/207/187 222/308/190
f 175/264/260 180/231/219 220/208/188 221/207/187
f 167/216/198 168/315/189 163/206/186 223/265/261
f 163/206/186 164/283/185 165/212/195 223/265/262
s off
f 165/212/263 166/314/264 167/216/265 223/265/266
f 173/217/267 174/311/268 169/221/269 224/266/270
s 1
f 169/221/206 170/280/205 171/261/257 224/266/271
f 171/261/257 172/281/200 173/217/199 224/266/272
f 179/232/220 180/231/219 175/264/260 225/267/273
f 175/264/260 176/305/217 177/226/214 225/267/273
f 177/226/214 178/307/213 179/232/220 225/267/273
f 185/227/215 186/301/218 181/237/225 226/268/274
f 181/237/225 182/236/224 183/241/229 226/268/274
f 183/241/229 184/228/216 185/227/215 226/268/274
f 191/250/238 192/300/236 187/245/233 227/269/275
f 187/245/233 188/234/222 189/233/221 227/269/275
f 189/233/221 190/235/223 191/250/238 227/269/275
f 197/242/230 198/244/232 193/253/241 228/270/276
f 193/253/241 194/252/240 195/251/239 228/270/276
f 195/251/239 196/296/231 197/242/230 228/270/276
f 203/213/197 204/278/196 199/262/258 229/271/277
f 199/262/258 200/276/250 201/257/249 229/271/278
s off
f 201/257/279 202/293/280 203/213/281 229/271/282
s 1
f 209/258/252 210/285/251 205/263/259 230/272/283
f 205/263/259 206/275/208 207/222/207 230/272/284
s off
f 207/222/285 208/292/286 209/258/287 230/272/288
