# This file uses centimeters as units for non-parametric coordinates.

mtllib Zen_Road.mtl
g default
v -956.633240 3.440779 5562.605957
v 956.633301 3.440779 5562.605957
v -0.000180 3.440779 3905.668701
v 0.000066 3.440779 6114.918457
v 956.633179 3.440779 4457.980957
v -956.633362 3.440779 4457.981445
v -0.000038 3.440779 5010.293457
v -1104.624878 3.440779 5010.293945
v -552.312439 3.440779 5966.927246
v 0.000014 3.440779 5562.605957
v -478.316681 3.440779 4734.137695
v -478.316650 3.440779 5286.449707
v 552.312622 3.440779 5966.927246
v 1104.624878 3.440779 5010.293457
v 478.316559 3.440779 4734.137207
v 478.316650 3.440779 5286.449707
v 552.312256 3.440779 4053.660400
v -552.312622 3.440779 4053.660645
v -0.000092 3.440779 4457.980957
v -717.475037 3.440779 4596.059570
v -1066.985840 3.440779 4724.395996
v -791.470764 3.440779 5148.372070
v -478.316650 3.440779 5010.293945
v -754.472900 3.440779 4872.215820
v -1066.985718 3.440779 5296.191895
v -781.087769 3.440779 5791.381348
v -515.314514 3.440779 5626.688477
v -772.971863 3.440779 5456.568848
v -285.897949 3.440779 6077.279297
v 0.000040 3.440779 5838.762207
v -239.158325 3.440779 5424.527832
v -257.657227 3.440779 5732.725098
v -0.000012 3.440779 5286.449707
v -239.158356 3.440779 4872.215332
v -239.158340 3.440779 5148.371582
v 285.898071 3.440779 6077.279297
v 515.314575 3.440779 5626.688477
v 239.158325 3.440779 5424.527832
v 257.657318 3.440779 5732.725098
v 781.087830 3.440779 5791.381348
v 1066.985840 3.440779 5296.191406
v 791.470764 3.440779 5148.371582
v 772.971863 3.440779 5456.568848
v 1066.985718 3.440779 4724.395508
v 717.474854 3.440779 4596.059082
v 478.316589 3.440779 5010.293457
v 754.472778 3.440779 4872.215332
v 239.158264 3.440779 4872.215332
v 239.158295 3.440779 5148.371582
v 781.087708 3.440779 4229.205566
v 276.156097 3.440779 4255.820801
v 239.158234 3.440779 4596.059082
v 496.815460 3.440779 4425.939941
v 285.897766 3.440779 3943.307861
v -285.898132 3.440779 3943.308105
v -276.156342 3.440779 4255.820801
v -0.000146 3.440779 4117.742676
v -781.087952 3.440779 4229.206055
v -239.158386 3.440779 4596.059082
v -496.815704 3.440779 4425.940430
v -0.000064 3.440779 4734.137207
v -339.694489 4.379953 8402.743164
v 308.781891 4.379953 8402.743164
v -339.694489 4.379953 5992.728516
v 308.781891 4.379953 5992.728516
v -339.694489 4.379953 8230.481445
v 308.781891 4.379953 8230.481445
v -339.694489 4.379953 8040.173828
v 308.781891 4.379953 8040.173828
v 1044.679199 7.837377 8885.041016
v 1044.679199 7.837377 8330.359375
v -1157.679199 7.837377 8885.041016
v -1157.679199 7.837377 8330.359375
v -1155.512695 7.837377 8870.149414
v -1155.512695 7.837377 8345.250977
v -3138.266113 7.837377 8870.149414
v -3138.266113 7.837377 8345.250977
v -339.694489 7.837377 4186.961914
v 308.781891 7.837377 4186.961914
v -339.694489 7.837377 1916.320312
v 308.781891 7.837377 1916.320312
v 3239.603516 7.837377 8870.149414
v 3239.603516 7.837377 8345.250977
v 1037.245117 7.837377 8870.149414
v 1037.245117 7.837377 8345.250977
v 3768.178955 7.837377 6129.888672
v 3243.280518 7.837377 6129.888672
v 3768.178955 7.837377 8332.247070
v 3243.280518 7.837377 8332.247070
v 3768.178955 7.837377 3927.530273
v 3243.280518 7.837377 3927.530273
v 3768.178955 7.837377 6129.888672
v 3243.280518 7.837377 6129.888672
v 3768.178955 7.837377 1725.171875
v 3243.280518 7.837377 1725.171875
v 3768.178955 7.837377 3927.530273
v 3243.280518 7.837377 3927.530273
v 3768.178955 7.837377 -477.186523
v 3243.280518 7.837377 -477.186523
v 3768.178955 7.837377 1725.171875
v 3243.280518 7.837377 1725.171875
v 3768.178955 7.837377 -2679.544922
v 3243.280518 7.837377 -2679.544922
v 3768.178955 7.837377 -477.186523
v 3243.280518 7.837377 -477.186523
v 3768.178955 7.837377 -2679.544922
v 3243.280518 7.837377 -2679.544922
v 3768.178955 7.837378 -3666.553223
v 3243.280518 7.837378 -3666.553223
v 3239.603516 7.837377 -3656.586670
v 3239.603516 7.837377 -4181.485352
v 1037.245117 7.837377 -3656.586670
v 1037.245117 7.837377 -4181.485352
v 1044.679199 7.837377 -3656.586670
v 1044.679199 7.837377 -4181.485352
v -1157.679199 7.837377 -3656.586670
v -1157.679199 7.837377 -4181.485352
v -1155.270508 7.837377 -3656.586914
v -1155.270508 7.837377 -4181.485352
v -3259.020508 7.837377 -3656.586914
v -3259.020508 7.837377 -4181.485352
v -3272.046143 7.837377 -2679.544922
v -3796.944580 7.837377 -2679.544922
v -3796.944580 7.837378 -3562.179688
v -3272.046143 7.837378 -3562.179688
v -3272.046143 7.837377 -2679.544922
v -3796.944580 7.837377 -2679.544922
v -3272.046143 7.837377 -477.186523
v -3796.944580 7.837377 -477.186523
v -3272.046143 7.837377 -477.186523
v -3796.944580 7.837377 -477.186523
v -3272.046143 7.837377 1725.171875
v -3796.944580 7.837377 1725.171875
v -3272.046143 7.837377 1725.171875
v -3796.944580 7.837377 1725.171875
v -3272.046143 7.837377 3927.530273
v -3796.944580 7.837377 3927.530273
v -3272.046143 7.837377 3927.530273
v -3796.944580 7.837377 3927.530273
v -3272.046143 7.837377 6129.888672
v -3796.944580 7.837377 6129.888672
v -3272.046143 7.837377 6118.812500
v -3796.944580 7.837377 6118.812500
v -3272.046143 7.837377 8321.170898
v -3796.944580 7.837377 8321.170898
v -3794.122559 7.837377 8323.643555
v -3138.741211 7.837378 8323.643555
v -3138.741211 7.837378 8848.541992
v -3733.108643 7.837377 8848.541992
v -3733.108643 7.837377 8323.643555
v -3794.122803 7.837377 8788.883789
v -3733.108643 7.837377 8788.883789
v -3138.741211 7.837378 8788.883789
v -3259.091309 7.837377 -4206.991699
v -3259.091309 7.837378 -3551.610352
v -3783.989746 7.837378 -3551.610352
v -3783.989746 7.837377 -4145.978027
v -3259.091309 7.837377 -4145.978027
v -3724.331543 7.837377 -4206.992188
v -3724.331543 7.837377 -4145.978027
v -3724.331543 7.837378 -3551.610352
v 3758.960938 7.837377 -3658.905762
v 3201.093750 7.837378 -3658.905762
v 3201.093750 7.837378 -4183.804199
v 3697.946777 7.837377 -4183.804199
v 3697.946777 7.837377 -3658.905762
v 3758.960938 7.837377 -4124.145996
v 3697.946777 7.837377 -4124.145996
v 3201.093750 7.837378 -4124.145996
v 3217.506836 7.837377 8870.269531
v 3217.506836 7.837378 8328.270508
v 3727.474609 7.837378 8328.270508
v 3727.474609 7.837377 8810.990234
v 3217.506836 7.837377 8810.990234
v 3669.513672 7.837377 8870.269531
v 3669.513672 7.837377 8810.990234
v 3669.513672 7.837378 8328.270508
v 303.345978 4.379953 8402.743164
v 303.345978 4.379953 8230.481445
v 341.737122 4.379953 8402.743164
v 341.737122 4.379953 8230.481445
v -365.479156 4.379953 8402.743164
v -365.479156 4.379953 8230.481445
v -327.088013 4.379953 8402.743164
v -327.088013 4.379953 8230.481445
v -400.903381 -118.283058 9349.078125
v -411.211304 7.602495 8885.400391
v 412.498291 -118.283073 9349.078125
v 422.806152 7.602495 8885.400391
vt -1.573494 -1.038547
vt 2.573494 -1.038546
vt 0.500000 3.577093
vt 0.500000 -2.577093
vt 2.573494 2.038548
vt -1.573494 2.038547
vt 0.500000 0.500000
vt -1.894265 0.500000
vt -0.697132 -2.164841
vt 0.500000 -1.038547
vt -0.536747 1.269273
vt -0.536747 -0.269274
vt 1.697133 -2.164841
vt 2.894265 0.500000
vt 1.536747 1.269274
vt 1.536747 -0.269273
vt 1.697132 3.164841
vt -0.697133 3.164841
vt 0.500000 2.038547
vt -1.055121 1.653910
vt -1.812682 1.296410
vt -1.215506 0.115363
vt -0.536747 0.500000
vt -1.135313 0.884636
vt -1.812682 -0.296411
vt -1.193001 -1.675833
vt -0.616940 -1.217057
vt -1.175410 -0.743165
vt -0.119681 -2.472244
vt 0.500000 -1.807820
vt -0.018374 -0.653910
vt -0.058470 -1.512439
vt 0.500000 -0.269273
vt -0.018374 0.884637
vt -0.018374 0.115363
vt 1.119681 -2.472244
vt 1.616940 -1.217057
vt 1.018374 -0.653910
vt 1.058470 -1.512439
vt 2.193001 -1.675833
vt 2.812683 -0.296410
vt 2.215506 0.115364
vt 2.175410 -0.743165
vt 2.812682 1.296411
vt 2.055120 1.653910
vt 1.536747 0.500000
vt 2.135313 0.884637
vt 1.018373 0.884637
vt 1.018374 0.115364
vt 2.193001 2.675834
vt 1.098566 2.601694
vt 1.018373 1.653910
vt 1.576843 2.127803
vt 1.119681 3.472245
vt -0.119682 3.472244
vt -0.098566 2.601694
vt 0.500000 2.986331
vt -1.193001 2.675833
vt -0.018374 1.653910
vt -0.576844 2.127802
vt 0.500000 1.269273
vt 1.211277 3.837822
vt -0.157787 3.848774
vt -0.203230 -1.831873
vt 1.165834 -1.842825
vt 1.161610 -2.370835
vt -0.207454 -2.359883
vt -0.211277 -2.837822
vt 1.157787 -2.848774
vt 1.211277 3.837822
vt -0.157787 3.848774
vt -0.211277 -2.837822
vt 1.157787 -2.848774
vt 1.206634 3.257408
vt -0.162430 3.268360
vt -0.211277 -2.837822
vt 1.157787 -2.848774
vt 1.211277 3.837822
vt -0.157787 3.848774
vt -0.211277 -2.837822
vt 1.157787 -2.848774
vt 1.211277 3.837822
vt -0.157787 3.848774
vt -0.211277 -2.837822
vt 1.157787 -2.848774
vt 1.211277 3.837822
vt -0.157787 3.848774
vt -0.211277 -2.837822
vt 1.157787 -2.848774
vt 1.211277 3.837822
vt -0.157787 3.848774
vt -0.211277 -2.837822
vt 1.157787 -2.848774
vt 1.211277 3.837822
vt -0.157787 3.848774
vt -0.211277 -2.837822
vt 1.157787 -2.848774
vt 1.211277 3.837822
vt -0.157787 3.848774
vt -0.211277 -2.837822
vt 1.157787 -2.848774
vt 1.211277 3.837822
vt -0.157787 3.848774
vt -0.211277 -2.837822
vt 1.157787 -2.848774
vt 1.211277 3.837822
vt -0.157787 3.848774
vt -0.181759 0.852111
vt 1.187305 0.841159
vt 1.211277 3.837822
vt -0.157787 3.848774
vt -0.211277 -2.837822
vt 1.157787 -2.848774
vt 1.211277 3.837822
vt -0.157787 3.848774
vt -0.211277 -2.837822
vt 1.157787 -2.848774
vt 1.157787 -2.848774
vt 1.209984 3.676220
vt -0.159080 3.687172
vt -0.211277 -2.837822
vt 1.211277 3.837822
vt -0.157787 3.848774
vt -0.179224 1.169001
vt 1.189840 1.158049
vt 1.211277 3.837822
vt -0.157787 3.848774
vt -0.211277 -2.837822
vt 1.157787 -2.848774
vt 1.211277 3.837822
vt -0.157787 3.848774
vt -0.211277 -2.837822
vt 1.157787 -2.848774
vt 1.211277 3.837822
vt -0.157787 3.848774
vt -0.211277 -2.837822
vt 1.157787 -2.848774
vt 1.211277 3.837822
vt -0.157787 3.848774
vt -0.211277 -2.837822
vt 1.157787 -2.848774
vt 1.211277 3.837822
vt -0.157787 3.848774
vt -0.211277 -2.837822
vt 1.157787 -2.848774
vt 1.211277 3.837822
vt -0.002182 3.847529
vt -0.003664 3.662284
vt 1.209795 3.652577
vt -0.018100 1.857721
vt 1.195359 1.848014
vt -0.159269 3.663529
vt -0.173704 1.858966
vt 1.211277 3.837822
vt -0.002182 3.847529
vt -0.003664 3.662284
vt 1.209795 3.652577
vt -0.018100 1.857721
vt 1.195359 1.848014
vt -0.159269 3.663529
vt -0.173704 1.858966
vt 1.211277 3.837822
vt -0.002182 3.847529
vt -0.003664 3.662284
vt 1.209795 3.652577
vt -0.018100 1.857721
vt 1.195359 1.848014
vt -0.159269 3.663529
vt -0.173704 1.858966
vt 1.211277 3.837822
vt -0.002182 3.847529
vt -0.003664 3.662284
vt 1.209795 3.652577
vt -0.018100 1.857721
vt 1.195359 1.848014
vt -0.159269 3.663529
vt -0.173704 1.858966
vt -0.126402 -2.360532
vt -0.207454 -2.359883
vt -0.211277 -2.837822
vt -0.130225 -2.838471
vt -0.126402 -2.360532
vt -0.207454 -2.359883
vt -0.211277 -2.837822
vt -0.130225 -2.838471
vt -0.625562 0.997508
vt -0.597954 -0.497527
vt 1.597553 -0.497842
vt 1.625590 0.997185
vn 0.000000 1.000000 -0.000000
vn 0.000000 1.000000 -0.000000
vn 0.000000 1.000000 0.000000
vn 0.000000 1.000000 -0.000000
vn 0.000000 1.000000 0.000000
vn 0.000000 1.000000 -0.000000
vn 0.000000 1.000000 -0.000000
vn 0.000000 1.000000 -0.000000
vn 0.000000 1.000000 0.000000
vn 0.000000 1.000000 -0.000000
vn 0.000000 1.000000 -0.000000
vn 0.000000 1.000000 0.000000
vn 0.000000 1.000000 -0.000000
vn 0.000000 1.000000 -0.000000
vn 0.000000 1.000000 -0.000000
vn 0.000000 1.000000 -0.000000
vn 0.000000 1.000000 -0.000000
vn 0.000000 1.000000 -0.000000
vn 0.000000 1.000000 -0.000000
vn 0.000000 1.000000 0.000000
vn 0.000000 1.000000 -0.000000
vn 0.000000 1.000000 -0.000000
vn 0.000000 1.000000 -0.000000
vn 0.000000 1.000000 -0.000000
vn 0.000000 1.000000 -0.000000
vn 0.000000 1.000000 0.000000
vn 0.000000 1.000000 -0.000000
vn 0.000000 1.000000 -0.000000
vn 0.000000 1.000000 -0.000000
vn 0.000000 1.000000 -0.000000
vn 0.000000 1.000000 -0.000000
vn 0.000000 1.000000 -0.000000
vn 0.000000 1.000000 0.000000
vn 0.000000 1.000000 -0.000000
vn 0.000000 1.000000 0.000000
vn 0.000000 1.000000 0.000000
vn 0.000000 1.000000 0.000000
vn 0.000000 1.000000 0.000000
vn 0.000000 1.000000 0.000000
vn 0.000000 1.000000 0.000000
vn 0.000000 1.000000 0.000000
vn 0.000000 1.000000 0.000000
vn 0.000000 1.000000 -0.000000
vn 0.000000 1.000000 -0.000000
vn 0.000000 1.000000 -0.000000
vn 0.000000 1.000000 0.000000
vn 0.000000 1.000000 0.000000
vn 0.000000 1.000000 -0.000000
vn 0.000000 1.000000 -0.000000
vn 0.000000 1.000000 -0.000000
vn 0.000000 1.000000 0.000000
vn 0.000000 1.000000 0.000000
vn 0.000000 1.000000 0.000000
vn 0.000000 1.000000 0.000000
vn 0.000000 1.000000 0.000000
vn 0.000000 1.000000 -0.000000
vn 0.000000 1.000000 0.000000
vn 0.000000 1.000000 0.000000
vn 0.000000 1.000000 0.000000
vn 0.000000 1.000000 0.000000
vn 0.000000 1.000000 0.000000
vn 0.000000 1.000000 0.000000
vn 0.000000 1.000000 0.000000
vn 0.000000 1.000000 0.000000
vn 0.000000 1.000000 0.000000
vn 0.000000 1.000000 0.000000
vn 0.000000 1.000000 0.000000
vn 0.000000 1.000000 0.000000
vn 0.000000 1.000000 0.000000
vn 0.000000 1.000000 0.000000
vn 0.000000 1.000000 0.000000
vn 0.000000 1.000000 0.000000
vn 0.000000 1.000000 0.000000
vn 0.000000 1.000000 0.000000
vn 0.000000 1.000000 0.000000
vn 0.000000 1.000000 0.000000
vn 0.000000 1.000000 0.000000
vn 0.000000 1.000000 0.000000
vn 0.000000 1.000000 0.000000
vn 0.000000 1.000000 0.000000
vn 0.000000 1.000000 0.000000
vn 0.000000 1.000000 0.000000
vn 0.000000 1.000000 0.000000
vn 0.000000 1.000000 0.000000
vn 0.000000 1.000000 0.000000
vn 0.000000 1.000000 0.000000
vn 0.000000 1.000000 0.000000
vn 0.000000 1.000000 0.000000
vn 0.000000 1.000000 0.000000
vn 0.000000 1.000000 0.000000
vn 0.000000 1.000000 0.000000
vn 0.000000 1.000000 0.000000
vn 0.000000 1.000000 0.000000
vn 0.000000 1.000000 0.000000
vn 0.000000 1.000000 0.000000
vn 0.000000 1.000000 0.000000
vn 0.000000 1.000000 0.000000
vn 0.000000 1.000000 0.000000
vn 0.000000 1.000000 0.000000
vn 0.000000 1.000000 0.000000
vn 0.000000 1.000000 0.000000
vn 0.000000 1.000000 0.000000
vn 0.000000 1.000000 0.000000
vn 0.000000 1.000000 0.000000
vn 0.000000 1.000000 0.000000
vn 0.000000 1.000000 0.000000
vn 0.000000 1.000000 0.000000
vn 0.000000 1.000000 0.000000
vn 0.000000 1.000000 0.000000
vn 0.000000 1.000000 0.000000
vn 0.000000 1.000000 0.000000
vn 0.000000 1.000000 0.000000
vn 0.000000 1.000000 0.000000
vn 0.000000 1.000000 0.000000
vn 0.000000 1.000000 0.000000
vn 0.000000 1.000000 0.000000
vn 0.000000 1.000000 0.000000
vn 0.000000 1.000000 0.000000
vn 0.000000 1.000000 0.000000
vn 0.000000 1.000000 0.000000
vn 0.000000 1.000000 0.000000
vn 0.000000 1.000000 0.000000
vn 0.000000 1.000000 0.000000
vn 0.000000 1.000000 0.000000
vn 0.000000 1.000000 0.000000
vn 0.000000 1.000000 0.000000
vn 0.000000 1.000000 0.000000
vn 0.000000 1.000000 0.000000
vn 0.000000 1.000000 0.000000
vn 0.000000 1.000000 0.000000
vn 0.000000 1.000000 0.000000
vn 0.000000 1.000000 0.000000
vn 0.000000 1.000000 0.000000
vn 0.000000 1.000000 0.000000
vn 0.000000 1.000000 0.000000
vn 0.000000 1.000000 0.000000
vn 0.000000 1.000000 0.000000
vn 0.000000 1.000000 0.000000
vn 0.000000 1.000000 0.000000
vn 0.000000 1.000000 0.000000
vn 0.000000 1.000000 0.000000
vn 0.000000 1.000000 0.000000
vn 0.000000 1.000000 0.000000
vn 0.000000 1.000000 0.000000
vn 0.000000 1.000000 0.000000
vn 0.000000 1.000000 0.000000
vn 0.000000 1.000000 0.000000
vn -0.000000 1.000000 0.000000
vn -0.000000 1.000000 0.000000
vn -0.000000 1.000000 0.000000
vn -0.000000 1.000000 0.000000
vn -0.000000 1.000000 0.000000
vn -0.000000 1.000000 0.000000
vn 0.000000 1.000000 0.000000
vn 0.000000 1.000000 0.000000
vn 0.000000 1.000000 -0.000000
vn 0.000000 1.000000 -0.000000
vn 0.000000 1.000000 -0.000000
vn 0.000000 1.000000 -0.000000
vn 0.000000 1.000000 -0.000000
vn 0.000000 1.000000 -0.000000
vn 0.000000 1.000000 0.000000
vn 0.000000 1.000000 0.000000
vn 0.000000 1.000000 0.000000
vn 0.000000 1.000000 0.000000
vn 0.000000 1.000000 0.000000
vn 0.000000 1.000000 0.000000
vn 0.000000 1.000000 0.000000
vn 0.000000 1.000000 0.000000
vn 0.000000 1.000000 0.000000
vn 0.000000 1.000000 0.000000
vn 0.000000 1.000000 0.000000
vn 0.000000 1.000000 0.000000
vn 0.000000 1.000000 0.000000
vn 0.000000 1.000000 0.000000
vn 0.000000 1.000000 0.000000
vn 0.000000 1.000000 0.000000
vn 0.000000 1.000000 0.000000
vn 0.000000 1.000000 0.000000
vn 0.000000 1.000000 0.000000
vn 0.000000 1.000000 0.000000
vn 0.000000 1.000000 0.000000
vn 0.000000 1.000000 0.000000
vn 0.000000 1.000000 0.000000
vn 0.000000 1.000000 0.000000
vn 0.000000 0.965065 0.262009
vn 0.000000 0.965065 0.262009
vn 0.000000 0.965065 0.262009
vn 0.000000 0.965065 0.262009
s 1
g pDisc1
usemtl aiStandardSurface27SG
f 23/23/1 11/11/2 20/20/3 24/24/4
f 20/20/3 6/6/5 21/21/6 24/24/4
f 21/21/6 8/8/7 22/22/8 24/24/4
f 22/22/8 12/12/9 23/23/1 24/24/4
f 22/22/8 8/8/7 25/25/10 28/28/11
f 25/25/10 1/1/12 26/26/13 28/28/11
f 26/26/13 9/9/14 27/27/15 28/28/11
f 27/27/15 12/12/9 22/22/8 28/28/11
f 27/27/15 9/9/14 29/29/16 32/32/17
f 29/29/16 4/4/18 30/30/19 32/32/17
f 30/30/19 10/10/20 31/31/21 32/32/17
f 31/31/21 12/12/9 27/27/15 32/32/17
f 31/31/21 10/10/20 33/33/22 35/35/23
f 33/33/22 7/7/24 34/34/25 35/35/23
f 34/34/25 11/11/2 23/23/1 35/35/23
f 23/23/1 12/12/9 31/31/21 35/35/23
f 38/38/26 10/10/20 30/30/19 39/39/27
f 30/30/19 4/4/18 36/36/28 39/39/27
f 36/36/28 13/13/29 37/37/30 39/39/27
f 37/37/30 16/16/31 38/38/26 39/39/27
f 37/37/30 13/13/29 40/40/32 43/43/33
f 40/40/32 2/2/34 41/41/35 43/43/33
f 41/41/35 14/14/36 42/42/37 43/43/33
f 42/42/37 16/16/31 37/37/30 43/43/33
f 42/42/37 14/14/36 44/44/38 47/47/39
f 44/44/38 5/5/40 45/45/41 47/47/39
f 45/45/41 15/15/42 46/46/43 47/47/39
f 46/46/43 16/16/31 42/42/37 47/47/39
f 46/46/43 15/15/42 48/48/44 49/49/45
f 48/48/44 7/7/24 33/33/22 49/49/45
f 33/33/22 10/10/20 38/38/26 49/49/45
f 38/38/26 16/16/31 46/46/43 49/49/45
f 52/52/46 15/15/42 45/45/41 53/53/47
f 45/45/41 5/5/40 50/50/48 53/53/47
f 50/50/48 17/17/49 51/51/50 53/53/47
f 51/51/50 19/19/51 52/52/46 53/53/47
f 51/51/50 17/17/49 54/54/52 57/57/53
f 54/54/52 3/3/54 55/55/55 57/57/53
f 55/55/55 18/18/56 56/56/57 57/57/53
f 56/56/57 19/19/51 51/51/50 57/57/53
f 56/56/57 18/18/56 58/58/58 60/60/59
f 58/58/58 6/6/5 20/20/3 60/60/59
f 20/20/3 11/11/2 59/59/60 60/60/59
f 59/59/60 19/19/51 56/56/57 60/60/59
f 59/59/60 11/11/2 34/34/25 61/61/61
f 34/34/25 7/7/24 48/48/44 61/61/61
f 48/48/44 15/15/42 52/52/46 61/61/61
f 52/52/46 19/19/51 59/59/60 61/61/61
s 2
f 65/62/62 64/63/63 68/64/64 69/65/65
f 67/66/66 66/67/67 62/68/68 63/69/69
f 69/65/65 68/64/64 66/67/67 67/66/66
s off
f 73/70/70 72/71/71 70/72/72 71/73/73
f 77/74/74 76/75/75 74/76/76 75/77/77
f 81/78/78 80/79/79 78/80/80 79/81/81
f 85/82/82 84/83/83 82/84/84 83/85/85
f 89/86/86 88/87/87 86/88/88 87/89/89
f 93/90/90 92/91/91 90/92/92 91/93/93
f 97/94/94 96/95/95 94/96/96 95/97/97
f 101/98/98 100/99/99 98/100/100 99/101/101
f 105/102/102 104/103/103 102/104/104 103/105/105
f 107/106/106 106/107/107 108/108/108 109/109/109
f 113/110/110 112/111/111 110/112/112 111/113/113
f 117/114/114 116/115/115 114/116/116 115/117/117
f 119/118/118 121/119/119 120/120/120 118/121/121
f 123/122/122 122/123/123 125/124/124 124/125/125
f 129/126/126 128/127/127 126/128/128 127/129/129
f 133/130/130 132/131/131 130/132/132 131/133/133
f 137/134/134 136/135/135 134/136/136 135/137/137
f 141/138/138 140/139/139 138/140/140 139/141/141
f 145/142/142 144/143/143 142/144/144 143/145/145
s 3
f 146/146/146 151/147/147 152/148/148 150/149/149
f 150/149/149 152/148/148 153/150/150 147/151/151
f 153/150/150 152/148/148 149/152/152 148/153/153
s 4
f 154/154/154 159/155/155 160/156/156 158/157/157
f 158/157/157 160/156/156 161/158/158 155/159/159
f 161/158/158 160/156/156 157/160/160 156/161/161
s 5
f 162/162/162 167/163/163 168/164/164 166/165/165
f 166/165/165 168/164/164 169/166/166 163/167/167
f 169/166/166 168/164/164 165/168/168 164/169/169
s 6
f 170/170/170 175/171/171 176/172/172 174/173/173
f 174/173/173 176/172/172 177/174/174 171/175/175
f 177/174/174 176/172/172 173/176/176 172/177/177
s off
f 181/178/178 179/179/179 178/180/180 180/181/181
f 185/182/182 183/183/183 182/184/184 184/185/185
f 187/186/186 186/187/187 188/188/188 189/189/189
