# This file uses centimeters as units for non-parametric coordinates.

mtllib DS_01_grunge.mtl
g default
v 3814.512936 1328.131364 -427.853700
v 4695.865697 1328.131364 -427.853700
v 3814.512936 2209.484125 -427.853700
v 4695.865697 2209.484125 -427.853700
v 3814.512936 1768.807745 -427.853700
v 4695.865697 1768.807745 -427.853700
vt 0.000000 0.000000
vt 1.000000 0.000000
vt 0.000000 1.000000
vt 1.000000 1.000000
vt 0.000000 0.500000
vt 1.000000 0.500000
vn -0.000000 0.000000 1.000000
vn -0.000000 0.000000 1.000000
vn -0.000000 0.000000 1.000000
vn -0.000000 0.000000 1.000000
vn -0.000000 0.000000 1.000000
vn -0.000000 0.000000 1.000000
s 1
g TsL01_low3
usemtl aiStandardSurface27SG
f 6/6/1 4/4/2 3/3/3 5/5/4
f 1/1/5 2/2/6 6/6/1 5/5/4
