# This file uses centimeters as units for non-parametric coordinates.

mtllib DS_02_grunge.mtl
g default
v 4769.929687 1328.131364 -427.853700
v 5651.282448 1328.131364 -427.853700
v 4769.929687 2209.484125 -427.853700
v 5651.282448 2209.484125 -427.853700
v 4769.929687 1768.807745 -427.853700
v 5651.282448 1768.807745 -427.853700
vt 0.000000 0.000000
vt 1.000000 0.000000
vt 0.000000 1.000000
vt 1.000000 1.000000
vt 0.000000 0.500000
vt 1.000000 0.500000
vn -0.000000 0.000000 1.000000
vn -0.000000 0.000000 1.000000
vn -0.000000 0.000000 1.000000
vn -0.000000 0.000000 1.000000
vn -0.000000 0.000000 1.000000
vn -0.000000 0.000000 1.000000
s 1
g TsL01_low4
usemtl aiStandardSurface28SG
f 6/6/1 4/4/2 3/3/3 5/5/4
f 1/1/5 2/2/6 6/6/1 5/5/4
