# This file uses centimeters as units for non-parametric coordinates.

mtllib DS_03_grunge.mtl
g default
v 2713.470429 1768.807745 105.587561
v 3362.104368 1768.807745 105.587561
v 2713.470429 1768.807745 -543.046377
v 3362.104368 1768.807745 -543.046377
v 2713.470429 1768.807745 -218.729408
v 3362.104368 1768.807745 -218.729408
vt 0.000000 0.000000
vt 1.000000 0.000000
vt 0.000000 1.000000
vt 1.000000 1.000000
vt 0.000000 0.500000
vt 1.000000 0.500000
vn 0.000000 1.000000 0.000000
vn 0.000000 1.000000 0.000000
vn 0.000000 1.000000 0.000000
vn 0.000000 1.000000 0.000000
vn 0.000000 1.000000 0.000000
vn 0.000000 1.000000 0.000000
s 1
g TsL01_low6
usemtl aiStandardSurface29SG
f 6/6/1 4/4/2 3/3/3 5/5/4
f 1/1/5 2/2/6 6/6/1 5/5/4
