# This file uses centimeters as units for non-parametric coordinates.

mtllib DS_10.mtl
g default
v -50.000000 -0.013679 0.000000
v 0.000000 -0.013679 0.000000
v 50.000000 -0.013679 0.000000
v -50.000000 49.986320 0.000000
v 0.000000 49.986320 0.000000
v 50.000000 49.986320 0.000000
v -50.000000 99.986320 0.000000
v 0.000000 99.986320 0.000000
v 50.000000 99.986320 0.000000
vt 0.000000 0.000000
vt 0.500000 0.000000
vt 1.000000 0.000000
vt 0.000000 0.500000
vt 0.500000 0.500000
vt 1.000000 0.500000
vt 0.000000 1.000000
vt 0.500000 1.000000
vt 1.000000 1.000000
vn 0.000000 -0.000000 1.000000
vn 0.000000 -0.000000 1.000000
vn 0.000000 -0.000000 1.000000
vn 0.000000 -0.000000 1.000000
vn 0.000000 -0.000000 1.000000
vn 0.000000 -0.000000 1.000000
vn 0.000000 0.000000 1.000000
vn 0.000000 0.000000 1.000000
vn 0.000000 0.000000 1.000000
s 1
g decal_vent_low
usemtl aiStandardSurface1SG
f 4/4/1 1/1/2 2/2/3 5/5/4
f 5/5/4 2/2/3 3/3/5 6/6/6
f 8/8/7 7/7/8 4/4/1 5/5/4
f 9/9/9 8/8/7 5/5/4 6/6/6
