# This file uses centimeters as units for non-parametric coordinates.

mtllib groundpaper.mtl
g default
v -1.257410 0.063877 1.257410
v 1.257410 0.063877 1.257410
v -1.257410 0.063877 -1.257410
v 1.257410 0.063877 -1.257410
vt 0.000000 0.000000
vt 1.000000 0.000000
vt 0.000000 1.000000
vt 1.000000 1.000000
vn 0.000000 1.000000 0.000000
vn 0.000000 1.000000 0.000000
vn 0.000000 1.000000 0.000000
vn 0.000000 1.000000 0.000000
s off
g groundpaper
usemtl aiStandardSurface1SG
f 1/1/1 2/2/2 4/4/3 3/3/4
