# This file uses centimeters as units for non-parametric coordinates.

mtllib newspaper.mtl
g default
v -448.143027 233.109181 161.611877
v -596.210743 232.582588 161.611877
v -447.616436 85.041487 161.611877
v -595.684122 84.514896 161.611877
v -447.879716 159.075338 161.611877
v -522.176886 232.845900 161.611877
v -595.947433 158.548746 161.611877
v -521.650263 84.778192 161.611877
v -521.913574 158.812042 161.611877
v -485.028301 195.960611 161.611877
v -559.062159 195.697315 161.611877
v -558.798848 121.663473 161.611877
v -484.764990 121.926769 161.611877
v -522.045230 195.828971 161.611877
v -558.930503 158.680387 161.611877
v -521.781919 121.795113 161.611877
v -484.896646 158.943698 161.611877
v -485.159956 232.977540 161.611877
v -559.193815 232.714244 161.611877
v -596.079088 195.565675 161.611877
v -595.815777 121.531817 161.611877
v -558.667192 84.646544 161.611877
v -484.633365 84.909839 161.611877
v -447.748060 122.058410 161.611877
v -448.011372 196.092267 161.611877
vt 0.075053 -0.002077
vt 0.496016 -0.002077
vt 0.075053 0.418886
vt 0.496016 0.418886
vt 0.285535 0.208405
vt 0.285535 -0.002077
vt 0.496016 0.208405
vt 0.285535 0.418886
vt 0.075053 0.208405
vt 0.180294 0.103164
vt 0.390775 0.103164
vt 0.390775 0.313646
vt 0.180294 0.313646
vt 0.285535 0.103164
vt 0.390775 0.208405
vt 0.285535 0.313646
vt 0.180294 0.208405
vt 0.180294 -0.002077
vt 0.390775 -0.002077
vt 0.496016 0.103164
vt 0.496016 0.313646
vt 0.390775 0.418886
vt 0.180294 0.418886
vt 0.075053 0.313646
vt 0.075053 0.103164
vn 0.000000 0.000000 1.000000
vn 0.000000 0.000000 1.000000
vn 0.000000 0.000000 1.000000
vn 0.000000 0.000000 1.000000
vn 0.000000 0.000000 1.000000
vn 0.000000 0.000000 1.000000
vn 0.000000 0.000000 1.000000
vn 0.000000 0.000000 1.000000
vn 0.000000 0.000000 1.000000
vn 0.000000 0.000000 1.000000
vn 0.000000 0.000000 1.000000
vn 0.000000 0.000000 1.000000
vn 0.000000 0.000000 1.000000
vn 0.000000 0.000000 1.000000
vn 0.000000 0.000000 1.000000
vn 0.000000 0.000000 1.000000
vn 0.000000 0.000000 1.000000
vn 0.000000 0.000000 1.000000
vn 0.000000 0.000000 1.000000
vn 0.000000 0.000000 1.000000
vn 0.000000 0.000000 1.000000
vn 0.000000 0.000000 1.000000
vn 0.000000 0.000000 1.000000
vn 0.000000 0.000000 1.000000
vn 0.000000 0.000000 1.000000
s 1
g D_S_06:news_lp Decals
usemtl D_S_06:aiStandardSurface1SG
f 1/1/1 18/18/2 10/10/3 25/25/4
f 18/18/2 6/6/5 14/14/6 10/10/3
f 10/10/3 14/14/6 9/5/7 17/17/8
f 25/25/4 10/10/3 17/17/8 5/9/9
f 6/6/5 19/19/10 11/11/11 14/14/6
f 19/19/10 2/2/12 20/20/13 11/11/11
f 11/11/11 20/20/13 7/7/14 15/15/15
f 14/14/6 11/11/11 15/15/15 9/5/7
f 9/5/7 15/15/15 12/12/16 16/16/17
f 15/15/15 7/7/14 21/21/18 12/12/16
f 12/12/16 21/21/18 4/4/19 22/22/20
f 16/16/17 12/12/16 22/22/20 8/8/21
f 5/9/9 17/17/8 13/13/22 24/24/23
f 17/17/8 9/5/7 16/16/17 13/13/22
f 13/13/22 16/16/17 8/8/21 23/23/24
f 24/24/23 13/13/22 23/23/24 3/3/25
