# This file uses centimeters as units for non-parametric coordinates.

mtllib newspaper2.mtl
g default
v -222.536194 107.326416 164.301102
v -114.874786 107.326416 164.301102
v -222.536194 214.987793 164.301102
v -114.874786 214.987793 164.301102
v -222.536194 161.157104 164.301102
v -168.705475 107.326416 164.301102
v -114.874786 161.157104 164.301102
v -168.705475 214.987793 164.301102
v -168.705475 161.157104 164.301102
v -195.620819 134.241760 164.301102
v -141.790131 134.241760 164.301102
v -141.790131 188.072449 164.301102
v -195.620819 188.072449 164.301102
v -168.705475 134.241760 164.301102
v -141.790131 161.157104 164.301102
v -168.705475 188.072449 164.301102
v -195.620819 161.157104 164.301102
v -195.620819 107.326416 164.301102
v -141.790131 107.326416 164.301102
v -114.874786 134.241760 164.301102
v -114.874786 188.072449 164.301102
v -141.790131 214.987793 164.301102
v -195.620819 214.987793 164.301102
v -222.536194 188.072449 164.301102
v -222.536194 134.241760 164.301102
vt 0.657105 0.064752
vt 0.801991 0.064752
vt 0.657105 0.209639
vt 0.801991 0.209639
vt 0.729548 0.137196
vt 0.729548 0.064752
vt 0.801991 0.137196
vt 0.729548 0.209639
vt 0.657105 0.137196
vt 0.693326 0.100974
vt 0.765769 0.100974
vt 0.765769 0.173417
vt 0.693326 0.173417
vt 0.729548 0.100974
vt 0.765769 0.137196
vt 0.729548 0.173417
vt 0.693326 0.137196
vt 0.693326 0.064752
vt 0.765769 0.064752
vt 0.801991 0.100974
vt 0.801991 0.173417
vt 0.765769 0.209639
vt 0.693326 0.209639
vt 0.657105 0.173417
vt 0.657105 0.100974
vn 0.000000 0.000000 1.000000
vn 0.000000 0.000000 1.000000
vn 0.000000 0.000000 1.000000
vn 0.000000 0.000000 1.000000
vn 0.000000 0.000000 1.000000
vn 0.000000 0.000000 1.000000
vn 0.000000 0.000000 1.000000
vn 0.000000 0.000000 1.000000
vn 0.000000 0.000000 1.000000
vn 0.000000 0.000000 1.000000
vn 0.000000 0.000000 1.000000
vn 0.000000 0.000000 1.000000
vn 0.000000 0.000000 1.000000
vn 0.000000 0.000000 1.000000
vn 0.000000 0.000000 1.000000
vn 0.000000 0.000000 1.000000
vn 0.000000 0.000000 1.000000
vn 0.000000 0.000000 1.000000
vn 0.000000 0.000000 1.000000
vn 0.000000 0.000000 1.000000
vn 0.000000 0.000000 1.000000
vn 0.000000 0.000000 1.000000
vn 0.000000 0.000000 1.000000
vn 0.000000 0.000000 1.000000
vn 0.000000 0.000000 1.000000
s 1
g D_S_17:news_lp Decals
usemtl D_S_17:aiStandardSurface1SG
f 1/1/1 18/18/2 10/10/3 25/25/4
f 18/18/2 6/6/5 14/14/6 10/10/3
f 10/10/3 14/14/6 9/5/7 17/17/8
f 25/25/4 10/10/3 17/17/8 5/9/9
f 6/6/5 19/19/10 11/11/11 14/14/6
f 19/19/10 2/2/12 20/20/13 11/11/11
f 11/11/11 20/20/13 7/7/14 15/15/15
f 14/14/6 11/11/11 15/15/15 9/5/7
f 9/5/7 15/15/15 12/12/16 16/16/17
f 15/15/15 7/7/14 21/21/18 12/12/16
f 12/12/16 21/21/18 4/4/19 22/22/20
f 16/16/17 12/12/16 22/22/20 8/8/21
f 5/9/9 17/17/8 13/13/22 24/24/23
f 17/17/8 9/5/7 16/16/17 13/13/22
f 13/13/22 16/16/17 8/8/21 23/23/24
f 24/24/23 13/13/22 23/23/24 3/3/25
