# This file uses centimeters as units for non-parametric coordinates.

mtllib newspaper4.mtl
g default
v -355.983276 109.922829 351.314819
v -145.492004 109.922829 351.314819
v -355.983276 320.414093 351.314819
v -145.492004 320.414093 351.314819
v -355.983276 215.168457 351.314819
v -250.737640 109.922829 351.314819
v -145.492004 215.168457 351.314819
v -250.737640 320.414093 351.314819
v -250.737640 215.168457 351.314819
v -303.360443 162.545639 351.314819
v -198.114822 162.545639 351.314819
v -198.114822 267.791260 351.314819
v -303.360443 267.791260 351.314819
v -250.737640 162.545639 351.314819
v -198.114822 215.168457 351.314819
v -250.737640 267.791260 351.314819
v -303.360443 215.168457 351.314819
v -303.360443 109.922829 351.314819
v -198.114822 109.922829 351.314819
v -145.492004 162.545639 351.314819
v -145.492004 267.791260 351.314819
v -198.114822 320.414093 351.314819
v -303.360443 320.414093 351.314819
v -355.983276 267.791260 351.314819
v -355.983276 162.545639 351.314819
vt 0.497399 0.450294
vt 0.963187 0.450294
vt 0.497399 0.916082
vt 0.963187 0.916082
vt 0.730293 0.683188
vt 0.730293 0.450294
vt 0.963187 0.683188
vt 0.730293 0.916082
vt 0.497399 0.683188
vt 0.613846 0.566741
vt 0.846740 0.566741
vt 0.846740 0.799635
vt 0.613846 0.799635
vt 0.730293 0.566741
vt 0.846740 0.683188
vt 0.730293 0.799635
vt 0.613846 0.683188
vt 0.613846 0.450294
vt 0.846740 0.450294
vt 0.963187 0.566741
vt 0.963187 0.799635
vt 0.846740 0.916082
vt 0.613846 0.916082
vt 0.497399 0.799635
vt 0.497399 0.566741
vn 0.000000 0.000000 1.000000
vn 0.000000 0.000000 1.000000
vn 0.000000 0.000000 1.000000
vn 0.000000 0.000000 1.000000
vn 0.000000 0.000000 1.000000
vn 0.000000 0.000000 1.000000
vn 0.000000 0.000000 1.000000
vn 0.000000 0.000000 1.000000
vn 0.000000 0.000000 1.000000
vn 0.000000 0.000000 1.000000
vn 0.000000 0.000000 1.000000
vn 0.000000 0.000000 1.000000
vn 0.000000 0.000000 1.000000
vn 0.000000 0.000000 1.000000
vn 0.000000 0.000000 1.000000
vn 0.000000 0.000000 1.000000
vn 0.000000 0.000000 1.000000
vn 0.000000 0.000000 1.000000
vn 0.000000 0.000000 1.000000
vn 0.000000 0.000000 1.000000
vn 0.000000 0.000000 1.000000
vn 0.000000 0.000000 1.000000
vn 0.000000 0.000000 1.000000
vn 0.000000 0.000000 1.000000
vn 0.000000 0.000000 1.000000
s 1
g D_S_06:news_lp Decals
usemtl D_S_06:aiStandardSurface1SG
f 1/1/1 18/18/2 10/10/3 25/25/4
f 18/18/2 6/6/5 14/14/6 10/10/3
f 10/10/3 14/14/6 9/5/7 17/17/8
f 25/25/4 10/10/3 17/17/8 5/9/9
f 6/6/5 19/19/10 11/11/11 14/14/6
f 19/19/10 2/2/12 20/20/13 11/11/11
f 11/11/11 20/20/13 7/7/14 15/15/15
f 14/14/6 11/11/11 15/15/15 9/5/7
f 9/5/7 15/15/15 12/12/16 16/16/17
f 15/15/15 7/7/14 21/21/18 12/12/16
f 12/12/16 21/21/18 4/4/19 22/22/20
f 16/16/17 12/12/16 22/22/20 8/8/21
f 5/9/9 17/17/8 13/13/22 24/24/23
f 17/17/8 9/5/7 16/16/17 13/13/22
f 13/13/22 16/16/17 8/8/21 23/23/24
f 24/24/23 13/13/22 23/23/24 3/3/25
