# This file uses centimeters as units for non-parametric coordinates.

mtllib newspaper3.mtl
g default
v -197.049805 173.957977 351.813080
v -59.503426 173.957977 351.813080
v -197.049805 311.504333 351.813080
v -59.503426 311.504333 351.813080
v -197.049805 242.731155 351.813080
v -128.276611 173.957977 351.813080
v -59.503426 242.731155 351.813080
v -128.276611 311.504333 351.813080
v -128.276611 242.731155 351.813080
v -162.663208 208.344559 351.813080
v -93.890015 208.344559 351.813080
v -93.890015 277.117737 351.813080
v -162.663208 277.117737 351.813080
v -128.276611 208.344559 351.813080
v -93.890015 242.731155 351.813080
v -128.276611 277.117737 351.813080
v -162.663208 242.731155 351.813080
v -162.663208 173.957977 351.813080
v -93.890015 173.957977 351.813080
v -59.503426 208.344559 351.813080
v -59.503426 277.117737 351.813080
v -93.890015 311.504333 351.813080
v -162.663208 311.504333 351.813080
v -197.049805 277.117737 351.813080
v -197.049805 208.344559 351.813080
vt 0.654969 0.061925
vt 0.795594 0.061925
vt 0.654969 0.202549
vt 0.795594 0.202549
vt 0.725281 0.132237
vt 0.725281 0.061925
vt 0.795594 0.132237
vt 0.725281 0.202549
vt 0.654969 0.132237
vt 0.690125 0.097081
vt 0.760437 0.097081
vt 0.760437 0.167393
vt 0.690125 0.167393
vt 0.725281 0.097081
vt 0.760437 0.132237
vt 0.725281 0.167393
vt 0.690125 0.132237
vt 0.690125 0.061925
vt 0.760437 0.061925
vt 0.795594 0.097081
vt 0.795594 0.167393
vt 0.760437 0.202549
vt 0.690125 0.202549
vt 0.654969 0.167393
vt 0.654969 0.097081
vn 0.000000 0.000000 1.000000
vn 0.000000 0.000000 1.000000
vn 0.000000 0.000000 1.000000
vn 0.000000 0.000000 1.000000
vn 0.000000 0.000000 1.000000
vn 0.000000 0.000000 1.000000
vn 0.000000 0.000000 1.000000
vn 0.000000 0.000000 1.000000
vn 0.000000 0.000000 1.000000
vn 0.000000 0.000000 1.000000
vn 0.000000 0.000000 1.000000
vn 0.000000 0.000000 1.000000
vn 0.000000 0.000000 1.000000
vn 0.000000 0.000000 1.000000
vn 0.000000 0.000000 1.000000
vn 0.000000 0.000000 1.000000
vn 0.000000 0.000000 1.000000
vn 0.000000 0.000000 1.000000
vn 0.000000 0.000000 1.000000
vn 0.000000 0.000000 1.000000
vn 0.000000 0.000000 1.000000
vn 0.000000 0.000000 1.000000
vn 0.000000 0.000000 1.000000
vn 0.000000 0.000000 1.000000
vn 0.000000 0.000000 1.000000
s 1
g D_S_08:news_lp Decals
usemtl D_S_08:aiStandardSurface1SG
f 1/1/1 18/18/2 10/10/3 25/25/4
f 18/18/2 6/6/5 14/14/6 10/10/3
f 10/10/3 14/14/6 9/5/7 17/17/8
f 25/25/4 10/10/3 17/17/8 5/9/9
f 6/6/5 19/19/10 11/11/11 14/14/6
f 19/19/10 2/2/12 20/20/13 11/11/11
f 11/11/11 20/20/13 7/7/14 15/15/15
f 14/14/6 11/11/11 15/15/15 9/5/7
f 9/5/7 15/15/15 12/12/16 16/16/17
f 15/15/15 7/7/14 21/21/18 12/12/16
f 12/12/16 21/21/18 4/4/19 22/22/20
f 16/16/17 12/12/16 22/22/20 8/8/21
f 5/9/9 17/17/8 13/13/22 24/24/23
f 17/17/8 9/5/7 16/16/17 13/13/22
f 13/13/22 16/16/17 8/8/21 23/23/24
f 24/24/23 13/13/22 23/23/24 3/3/25
