# This file uses centimeters as units for non-parametric coordinates.

mtllib numbers.mtl
g default
v -210.303531 187.772488 161.579299
v -57.755241 187.772488 161.579299
v -210.303531 96.886111 161.579299
v -57.755241 96.886111 161.579299
vt 0.365461 0.450256
vt 0.692494 0.450256
vt 0.365461 0.255414
vt 0.692494 0.255414
vn -0.000000 -0.000000 1.000000
vn -0.000000 -0.000000 1.000000
vn -0.000000 -0.000000 1.000000
vn -0.000000 -0.000000 1.000000
s off
g D_S_04:unit_numbers
usemtl D_S_04:aiStandardSurface1SG
f 3/3/1 4/4/2 2/2/3 1/1/4
