# This file uses centimeters as units for non-parametric coordinates.

mtllib Baton.mtl
g default
v 0.951057 2.205724 -0.309017
v 0.809018 2.205724 -0.587786
v 0.587786 2.205724 -0.809017
v 0.309017 2.205724 -0.951057
v 0.000000 2.205724 -1.000000
v -0.309017 2.205724 -0.951057
v -0.587785 2.205724 -0.809017
v -0.809017 2.205724 -0.587785
v -0.951057 2.205724 -0.309017
v -1.000000 2.205724 0.000000
v -0.951057 2.205724 0.309017
v -0.809017 2.205724 0.587785
v -0.587785 2.205724 0.809017
v -0.309017 2.205724 0.951057
v -0.000000 2.205724 1.000000
v 0.309017 2.205724 0.951057
v 0.587785 2.205724 0.809017
v 0.809017 2.205724 0.587785
v 0.951057 2.205724 0.309017
v 1.000000 2.205724 0.000000
v 0.000000 16.381641 0.000000
v 0.154508 2.205724 0.475528
v 0.293893 2.205724 0.404509
v 0.404509 2.205724 0.293893
v 0.475528 2.205724 0.154509
v 0.500000 2.205724 0.000000
v 0.475529 2.205724 -0.154509
v 0.404509 2.205724 -0.293893
v 0.293893 2.205724 -0.404509
v 0.154509 2.205724 -0.475529
v 0.000000 2.205724 -0.500000
v -0.154509 2.205724 -0.475528
v -0.293893 2.205724 -0.404509
v -0.404509 2.205724 -0.293893
v -0.475528 2.205724 -0.154509
v -0.500000 2.205724 0.000000
v -0.475528 2.205724 0.154509
v -0.404509 2.205724 0.293893
v -0.293893 2.205724 0.404509
v -0.154509 2.205724 0.475528
v -0.000000 2.205724 0.500000
v 0.154508 -1.933055 0.475528
v 0.293893 -1.933055 0.404509
v 0.000000 -1.933055 0.000000
v 0.404509 -1.933055 0.293893
v 0.475528 -1.933055 0.154509
v 0.500000 -1.933055 0.000000
v 0.475529 -1.933055 -0.154509
v 0.404509 -1.933055 -0.293893
v 0.293893 -1.933055 -0.404509
v 0.154509 -1.933055 -0.475529
v 0.000000 -1.933055 -0.500000
v -0.154509 -1.933055 -0.475528
v -0.293893 -1.933055 -0.404509
v -0.404509 -1.933055 -0.293893
v -0.475528 -1.933055 -0.154509
v -0.500000 -1.933055 0.000000
v -0.475528 -1.933055 0.154509
v -0.404509 -1.933055 0.293893
v -0.293893 -1.933055 0.404509
v -0.154509 -1.933055 0.475528
v -0.000000 -1.933055 0.500000
v 0.951057 16.184124 -0.309017
v 0.760865 16.381641 -0.247220
v 0.809018 16.184124 -0.587786
v 0.647231 16.381641 -0.470241
v 0.587786 16.184124 -0.809017
v 0.470241 16.381641 -0.647231
v 0.309017 16.184124 -0.951057
v 0.247220 16.381641 -0.760865
v 0.000000 16.184124 -1.000000
v 0.000000 16.381641 -0.800021
v -0.309017 16.184124 -0.951057
v -0.247220 16.381641 -0.760865
v -0.587785 16.184124 -0.809017
v -0.470240 16.381641 -0.647231
v -0.809017 16.184124 -0.587785
v -0.647230 16.381641 -0.470241
v -0.951057 16.184124 -0.309017
v -0.760865 16.381641 -0.247220
v -1.000000 16.184124 0.000000
v -0.800021 16.381641 0.000000
v -0.951057 16.184124 0.309017
v -0.760865 16.381641 0.247220
v -0.809017 16.184124 0.587785
v -0.647230 16.381641 0.470240
v -0.587785 16.184124 0.809017
v -0.470240 16.381641 0.647230
v -0.309017 16.184124 0.951057
v -0.247220 16.381641 0.760865
v -0.000000 16.184124 1.000000
v -0.000000 16.381641 0.800021
v 0.309017 16.184124 0.951057
v 0.247220 16.381641 0.760865
v 0.587785 16.184124 0.809017
v 0.470240 16.381641 0.647230
v 0.809017 16.184124 0.587785
v 0.647230 16.381641 0.470240
v 0.951057 16.184124 0.309017
v 0.760865 16.381641 0.247220
v 1.000000 16.184124 0.000000
v 0.800021 16.381641 -0.000000
vt 0.648603 0.107966
vt 0.626409 0.064408
vt 0.591842 0.029841
vt 0.548284 0.007647
vt 0.500000 -0.000000
vt 0.451716 0.007647
vt 0.408159 0.029841
vt 0.373591 0.064409
vt 0.351397 0.107966
vt 0.343750 0.156250
vt 0.351397 0.204534
vt 0.373591 0.248091
vt 0.408159 0.282659
vt 0.451716 0.304853
vt 0.500000 0.312500
vt 0.548284 0.304853
vt 0.591841 0.282659
vt 0.626409 0.248091
vt 0.648603 0.204534
vt 0.656250 0.156250
vt 0.500000 0.156250
vt 0.524142 0.230551
vt 0.545921 0.219454
vt 0.563204 0.202171
vt 0.574301 0.180392
vt 0.578125 0.156250
vt 0.574301 0.132108
vt 0.563205 0.110329
vt 0.545921 0.093046
vt 0.524142 0.081949
vt 0.500000 0.078125
vt 0.475858 0.081949
vt 0.454079 0.093046
vt 0.436796 0.110329
vt 0.425699 0.132108
vt 0.421875 0.156250
vt 0.425699 0.180392
vt 0.436796 0.202171
vt 0.454079 0.219454
vt 0.475858 0.230551
vt 0.500000 0.234375
vt 0.545921 0.219454
vt 0.524142 0.230551
vt 0.563204 0.202171
vt 0.574301 0.180392
vt 0.578125 0.156250
vt 0.574301 0.132108
vt 0.563205 0.110329
vt 0.545921 0.093046
vt 0.524142 0.081949
vt 0.500000 0.078125
vt 0.475858 0.081949
vt 0.454079 0.093046
vt 0.436796 0.110329
vt 0.425699 0.132108
vt 0.421875 0.156250
vt 0.425699 0.180392
vt 0.436796 0.202171
vt 0.454079 0.219454
vt 0.475858 0.230551
vt 0.500000 0.234375
vt 0.625000 0.682275
vt 0.623750 0.687500
vt 0.613750 0.687500
vt 0.376250 0.687500
vt 0.386250 0.687500
vt 0.388750 0.687500
vt 0.398750 0.687500
vt 0.401250 0.687500
vt 0.411250 0.687500
vt 0.413750 0.687500
vt 0.423750 0.687500
vt 0.426250 0.687500
vt 0.436250 0.687500
vt 0.438750 0.687500
vt 0.448750 0.687500
vt 0.451250 0.687500
vt 0.461250 0.687500
vt 0.463750 0.687500
vt 0.473750 0.687500
vt 0.476250 0.687500
vt 0.486250 0.687500
vt 0.488750 0.687500
vt 0.498750 0.687500
vt 0.501250 0.687500
vt 0.511250 0.687500
vt 0.513750 0.687500
vt 0.523750 0.687500
vt 0.526250 0.687500
vt 0.536250 0.687500
vt 0.538750 0.687500
vt 0.548750 0.687500
vt 0.551250 0.687500
vt 0.561250 0.687500
vt 0.563750 0.687500
vt 0.573750 0.687500
vt 0.576250 0.687500
vt 0.586250 0.687500
vt 0.588750 0.687500
vt 0.598750 0.687500
vt 0.601250 0.687500
vt 0.611250 0.687500
vt 0.375000 0.312500
vt 0.387500 0.312500
vt 0.375000 0.682275
vt 0.400000 0.312500
vt 0.387500 0.682275
vt 0.412500 0.312500
vt 0.400000 0.682275
vt 0.425000 0.312500
vt 0.412500 0.682275
vt 0.437500 0.312500
vt 0.425000 0.682275
vt 0.450000 0.312500
vt 0.437500 0.682275
vt 0.462500 0.312500
vt 0.450000 0.682275
vt 0.475000 0.312500
vt 0.462500 0.682275
vt 0.487500 0.312500
vt 0.475000 0.682275
vt 0.500000 0.312500
vt 0.487500 0.682275
vt 0.512500 0.312500
vt 0.500000 0.682275
vt 0.525000 0.312500
vt 0.512500 0.682275
vt 0.537500 0.312500
vt 0.525000 0.682275
vt 0.550000 0.312500
vt 0.537500 0.682275
vt 0.562500 0.312500
vt 0.550000 0.682275
vt 0.575000 0.312500
vt 0.562500 0.682275
vt 0.587500 0.312500
vt 0.575000 0.682275
vt 0.600000 0.312500
vt 0.587500 0.682275
vt 0.612500 0.312500
vt 0.600000 0.682275
vt 0.625000 0.312500
vt 0.612500 0.682275
vt 0.601130 0.917225
vt 0.573475 0.944880
vt 0.538628 0.962635
vt 0.500000 0.968753
vt 0.461372 0.962635
vt 0.426525 0.944880
vt 0.398870 0.917225
vt 0.381115 0.882378
vt 0.374997 0.843750
vt 0.381115 0.805122
vt 0.398870 0.770275
vt 0.426525 0.742620
vt 0.461372 0.724865
vt 0.500000 0.718747
vt 0.538628 0.724865
vt 0.573475 0.742620
vt 0.601130 0.770275
vt 0.618885 0.805122
vt 0.625003 0.843750
vt 0.618885 0.882378
vt 0.500000 0.843750
vn 0.000000 -1.000000 -0.000000
vn 0.000000 -1.000000 -0.000000
vn 0.000000 -1.000000 -0.000000
vn 0.000000 -1.000000 -0.000000
vn 0.000000 -1.000000 0.000000
vn 0.000000 -1.000000 0.000000
vn 0.000000 -1.000000 0.000000
vn 0.000000 -1.000000 0.000000
vn 0.000000 -1.000000 0.000000
vn 0.000000 -1.000000 0.000000
vn 0.000000 -1.000000 0.000000
vn 0.000000 -1.000000 0.000000
vn 0.000000 -1.000000 -0.000000
vn 0.000000 -1.000000 -0.000000
vn 0.000000 -1.000000 -0.000000
vn 0.000000 -1.000000 -0.000000
vn 0.000000 -1.000000 -0.000001
vn 0.000000 -1.000000 -0.000001
vn 0.000000 -1.000000 -0.000001
vn 0.000000 -1.000000 -0.000001
vn 0.000000 -1.000000 0.000000
vn 0.000000 -1.000000 0.000000
vn 0.000000 -1.000000 0.000000
vn 0.000000 -1.000000 0.000000
vn 0.000000 -1.000000 0.000000
vn 0.000000 -1.000000 0.000000
vn 0.000000 -1.000000 0.000000
vn 0.000000 -1.000000 0.000000
vn 0.000000 -1.000000 0.000000
vn 0.000000 -1.000000 0.000000
vn 0.000000 -1.000000 0.000000
vn 0.000000 -1.000000 0.000000
vn 0.000000 -1.000000 0.000000
vn 0.000000 -1.000000 0.000000
vn 0.000000 -1.000000 0.000000
vn 0.000000 -1.000000 0.000000
vn 0.000000 -1.000000 0.000001
vn 0.000000 -1.000000 0.000001
vn 0.000000 -1.000000 0.000001
vn 0.000000 -1.000000 0.000001
vn 0.000000 -1.000000 0.000000
vn 0.000000 -1.000000 0.000000
vn 0.000000 -1.000000 0.000000
vn 0.000000 -1.000000 0.000000
vn 0.000000 -1.000000 0.000000
vn 0.000000 -1.000000 0.000000
vn 0.000000 -1.000000 0.000000
vn 0.000000 -1.000000 0.000000
vn 0.000000 -1.000000 0.000000
vn 0.000000 -1.000000 0.000000
vn 0.000000 -1.000000 0.000000
vn 0.000000 -1.000000 0.000000
vn 0.000000 -1.000000 0.000000
vn 0.000000 -1.000000 0.000000
vn 0.000000 -1.000000 0.000000
vn 0.000000 -1.000000 0.000000
vn 0.000000 -1.000000 0.000000
vn 0.000000 -1.000000 0.000000
vn 0.000000 -1.000000 0.000000
vn 0.000000 -1.000000 0.000000
vn 0.000000 -1.000000 0.000000
vn 0.453990 0.000000 0.891007
vn 0.453990 0.000000 0.891007
vn 0.453990 0.000000 0.891007
vn 0.453990 0.000000 0.891007
vn 0.707107 0.000000 0.707107
vn 0.707107 0.000000 0.707107
vn 0.707107 0.000000 0.707107
vn 0.707107 0.000000 0.707107
vn 0.891007 0.000000 0.453991
vn 0.891007 0.000000 0.453991
vn 0.891007 0.000000 0.453991
vn 0.891007 0.000000 0.453991
vn 0.987688 0.000000 0.156434
vn 0.987688 0.000000 0.156434
vn 0.987688 0.000000 0.156434
vn 0.987688 0.000000 0.156434
vn 0.987689 0.000000 -0.156432
vn 0.987689 0.000000 -0.156432
vn 0.987689 0.000000 -0.156432
vn 0.987689 0.000000 -0.156432
vn 0.891007 0.000000 -0.453991
vn 0.891007 0.000000 -0.453991
vn 0.891007 0.000000 -0.453991
vn 0.891007 0.000000 -0.453991
vn 0.707107 0.000000 -0.707107
vn 0.707107 0.000000 -0.707107
vn 0.707107 0.000000 -0.707107
vn 0.707107 0.000000 -0.707107
vn 0.453990 0.000000 -0.891007
vn 0.453990 0.000000 -0.891007
vn 0.453990 0.000000 -0.891007
vn 0.453990 0.000000 -0.891007
vn 0.156434 0.000000 -0.987688
vn 0.156434 0.000000 -0.987688
vn 0.156434 0.000000 -0.987688
vn 0.156434 0.000000 -0.987688
vn -0.156434 0.000000 -0.987688
vn -0.156434 0.000000 -0.987688
vn -0.156434 0.000000 -0.987688
vn -0.156434 0.000000 -0.987688
vn -0.453991 0.000000 -0.891006
vn -0.453991 0.000000 -0.891006
vn -0.453991 0.000000 -0.891006
vn -0.453991 0.000000 -0.891006
vn -0.707107 0.000000 -0.707107
vn -0.707107 0.000000 -0.707107
vn -0.707107 0.000000 -0.707107
vn -0.707107 0.000000 -0.707107
vn -0.891007 0.000000 -0.453990
vn -0.891007 0.000000 -0.453990
vn -0.891007 0.000000 -0.453990
vn -0.891007 0.000000 -0.453990
vn -0.987688 0.000000 -0.156434
vn -0.987688 0.000000 -0.156434
vn -0.987688 0.000000 -0.156434
vn -0.987688 0.000000 -0.156434
vn -0.987688 0.000000 0.156434
vn -0.987688 0.000000 0.156434
vn -0.987688 0.000000 0.156434
vn -0.987688 0.000000 0.156434
vn -0.891007 0.000000 0.453991
vn -0.891007 0.000000 0.453991
vn -0.891007 0.000000 0.453991
vn -0.891007 0.000000 0.453991
vn -0.707107 0.000000 0.707107
vn -0.707107 0.000000 0.707107
vn -0.707107 0.000000 0.707107
vn -0.707107 0.000000 0.707107
vn -0.453990 0.000000 0.891007
vn -0.453990 0.000000 0.891007
vn -0.453990 0.000000 0.891007
vn -0.453990 0.000000 0.891007
vn -0.156434 0.000000 0.987688
vn -0.156434 0.000000 0.987688
vn -0.156434 0.000000 0.987688
vn -0.156434 0.000000 0.987688
vn 0.156435 0.000000 0.987688
vn 0.156435 0.000000 0.987688
vn 0.156435 0.000000 0.987688
vn 0.156435 0.000000 0.987688
vn 0.668320 0.711473 -0.217151
vn 0.668320 0.711473 -0.217151
vn 0.702714 0.711473 -0.000000
vn 0.702714 0.711473 -0.000000
vn 0.568507 0.711472 -0.413047
vn 0.568507 0.711472 -0.413047
vn 0.413045 0.711474 -0.568506
vn 0.413045 0.711474 -0.568506
vn 0.217151 0.711475 -0.668318
vn 0.217151 0.711475 -0.668318
vn -0.000000 0.711475 -0.702712
vn -0.000000 0.711475 -0.702712
vn -0.217151 0.711475 -0.668318
vn -0.217151 0.711475 -0.668318
vn -0.413045 0.711474 -0.568505
vn -0.413045 0.711474 -0.568505
vn -0.568507 0.711473 -0.413044
vn -0.568507 0.711473 -0.413044
vn -0.668320 0.711473 -0.217151
vn -0.668320 0.711473 -0.217151
vn -0.702714 0.711473 -0.000000
vn -0.702714 0.711473 -0.000000
vn -0.668320 0.711473 0.217151
vn -0.668320 0.711473 0.217151
vn -0.568507 0.711473 0.413045
vn -0.568507 0.711473 0.413045
vn -0.413045 0.711473 0.568507
vn -0.413045 0.711473 0.568507
vn -0.217151 0.711473 0.668320
vn -0.217151 0.711473 0.668320
vn 0.000000 0.711475 0.702711
vn 0.000000 0.711475 0.702711
vn 0.217151 0.711475 0.668318
vn 0.217151 0.711475 0.668318
vn 0.413045 0.711473 0.568506
vn 0.413045 0.711473 0.568506
vn 0.568507 0.711473 0.413044
vn 0.568507 0.711473 0.413044
vn 0.668320 0.711473 0.217151
vn 0.668320 0.711473 0.217151
vn 0.951057 0.000000 -0.309016
vn 0.809017 0.000000 -0.587785
vn 0.809017 0.000000 -0.587785
vn 0.951057 0.000000 -0.309016
vn 0.587785 0.000000 -0.809017
vn 0.587785 0.000000 -0.809017
vn 0.309017 0.000000 -0.951057
vn 0.309017 0.000000 -0.951057
vn 0.000000 0.000000 -1.000000
vn 0.000000 0.000000 -1.000000
vn -0.309017 0.000000 -0.951056
vn -0.309017 0.000000 -0.951056
vn -0.587786 0.000000 -0.809017
vn -0.587786 0.000000 -0.809017
vn -0.809017 0.000000 -0.587785
vn -0.809017 0.000000 -0.587785
vn -0.951057 0.000000 -0.309017
vn -0.951057 0.000000 -0.309017
vn -1.000000 0.000000 0.000000
vn -1.000000 0.000000 0.000000
vn -0.951057 0.000000 0.309017
vn -0.951057 0.000000 0.309017
vn -0.809017 0.000000 0.587785
vn -0.809017 0.000000 0.587785
vn -0.587785 0.000000 0.809017
vn -0.587785 0.000000 0.809017
vn -0.309017 0.000000 0.951057
vn -0.309017 0.000000 0.951057
vn 0.000000 0.000000 1.000000
vn 0.000000 0.000000 1.000000
vn 0.309017 0.000000 0.951057
vn 0.309017 0.000000 0.951057
vn 0.587785 0.000000 0.809017
vn 0.587785 0.000000 0.809017
vn 0.809017 0.000000 0.587785
vn 0.809017 0.000000 0.587785
vn 0.951057 0.000000 0.309017
vn 0.951057 0.000000 0.309017
vn 1.000000 0.000000 0.000001
vn 1.000000 0.000000 0.000001
vn 0.000000 1.000000 0.000000
vn 0.000000 1.000000 0.000000
vn 0.000000 1.000000 0.000000
vn 0.000000 1.000000 0.000000
vn 0.000000 1.000000 0.000000
vn 0.000000 1.000000 -0.000002
vn 0.000000 1.000000 -0.000002
vn 0.000000 1.000000 0.000000
vn 0.000000 1.000000 0.000000
vn 0.000000 1.000000 0.000000
vn 0.000000 1.000000 0.000000
vn 0.000000 1.000000 0.000000
vn 0.000000 1.000000 0.000000
vn 0.000000 1.000000 0.000000
vn 0.000000 1.000000 0.000000
vn 0.000000 1.000000 0.000002
vn 0.000000 1.000000 0.000004
vn 0.000000 1.000000 0.000002
vn 0.000000 1.000000 0.000000
vn 0.000000 1.000000 0.000000
vn 0.000000 1.000000 0.000000
s 1
g Baton
usemtl initialShadingGroup
f 2/2/1 1/1/2 27/27/3 28/28/4
f 3/3/5 2/2/1 28/28/4 29/29/6
f 4/4/7 3/3/5 29/29/6 30/30/8
f 5/5/9 4/4/7 30/30/8 31/31/10
f 6/6/11 5/5/9 31/31/10 32/32/12
f 7/7/13 6/6/11 32/32/12 33/33/14
f 8/8/15 7/7/13 33/33/14 34/34/16
f 9/9/17 8/8/15 34/34/16 35/35/18
f 10/10/19 9/9/17 35/35/18 36/36/20
f 11/11/21 10/10/19 36/36/20 37/37/22
f 12/12/23 11/11/21 37/37/22 38/38/24
f 13/13/25 12/12/23 38/38/24 39/39/26
f 14/14/27 13/13/25 39/39/26 40/40/28
f 15/15/29 14/14/27 40/40/28 41/41/30
f 16/16/31 15/15/29 41/41/30 22/22/32
f 17/17/33 16/16/31 22/22/32 23/23/34
f 18/18/35 17/17/33 23/23/34 24/24/36
f 19/19/37 18/18/35 24/24/36 25/25/38
f 20/20/39 19/19/37 25/25/38 26/26/40
f 1/1/2 20/20/39 26/26/40 27/27/3
s 2
f 43/42/41 42/43/42 44/21/43
f 45/44/44 43/42/41 44/21/43
f 46/45/45 45/44/44 44/21/43
f 47/46/46 46/45/45 44/21/43
f 48/47/47 47/46/46 44/21/43
f 49/48/48 48/47/47 44/21/43
f 50/49/49 49/48/48 44/21/43
f 51/50/50 50/49/49 44/21/43
f 52/51/51 51/50/50 44/21/43
f 53/52/52 52/51/51 44/21/43
f 54/53/53 53/52/52 44/21/43
f 55/54/54 54/53/53 44/21/43
f 56/55/55 55/54/54 44/21/43
f 57/56/56 56/55/55 44/21/43
f 58/57/57 57/56/56 44/21/43
f 59/58/58 58/57/57 44/21/43
f 60/59/59 59/58/58 44/21/43
f 61/60/60 60/59/59 44/21/43
f 62/61/61 61/60/60 44/21/43
f 42/43/42 62/61/61 44/21/43
s off
f 23/23/62 22/22/63 42/43/64 43/42/65
f 24/24/66 23/23/67 43/42/68 45/44/69
f 25/25/70 24/24/71 45/44/72 46/45/73
f 26/26/74 25/25/75 46/45/76 47/46/77
f 27/27/78 26/26/79 47/46/80 48/47/81
f 28/28/82 27/27/83 48/47/84 49/48/85
f 29/29/86 28/28/87 49/48/88 50/49/89
f 30/30/90 29/29/91 50/49/92 51/50/93
f 31/31/94 30/30/95 51/50/96 52/51/97
f 32/32/98 31/31/99 52/51/100 53/52/101
f 33/33/102 32/32/103 53/52/104 54/53/105
f 34/34/106 33/33/107 54/53/108 55/54/109
f 35/35/110 34/34/111 55/54/112 56/55/113
f 36/36/114 35/35/115 56/55/116 57/56/117
f 37/37/118 36/36/119 57/56/120 58/57/121
f 38/38/122 37/37/123 58/57/124 59/58/125
f 39/39/126 38/38/127 59/58/128 60/59/129
f 40/40/130 39/39/131 60/59/132 61/60/133
f 41/41/134 40/40/135 61/60/136 62/61/137
f 22/22/138 41/41/139 62/61/140 42/43/141
s 3
f 63/62/142 64/63/143 102/64/144 101/143/145
f 64/65/143 63/105/142 65/107/146 66/66/147
f 66/67/147 65/107/146 67/109/148 68/68/149
f 68/69/149 67/109/148 69/111/150 70/70/151
f 70/71/151 69/111/150 71/113/152 72/72/153
f 72/73/153 71/113/152 73/115/154 74/74/155
f 74/75/155 73/115/154 75/117/156 76/76/157
f 76/77/157 75/117/156 77/119/158 78/78/159
f 78/79/159 77/119/158 79/121/160 80/80/161
f 80/81/161 79/121/160 81/123/162 82/82/163
f 82/83/163 81/123/162 83/125/164 84/84/165
f 84/85/165 83/125/164 85/127/166 86/86/167
f 86/87/167 85/127/166 87/129/168 88/88/169
f 88/89/169 87/129/168 89/131/170 90/90/171
f 90/91/171 89/131/170 91/133/172 92/92/173
f 92/93/173 91/133/172 93/135/174 94/94/175
f 94/95/175 93/135/174 95/137/176 96/96/177
f 96/97/177 95/137/176 97/139/178 98/98/179
f 98/99/179 97/139/178 99/141/180 100/100/181
f 100/101/181 99/141/180 101/143/145 102/102/144
s 4
f 1/103/182 2/104/183 65/107/184 63/105/185
f 2/104/183 3/106/186 67/109/187 65/107/184
f 3/106/186 4/108/188 69/111/189 67/109/187
f 4/108/188 5/110/190 71/113/191 69/111/189
f 5/110/190 6/112/192 73/115/193 71/113/191
f 6/112/192 7/114/194 75/117/195 73/115/193
f 7/114/194 8/116/196 77/119/197 75/117/195
f 8/116/196 9/118/198 79/121/199 77/119/197
f 9/118/198 10/120/200 81/123/201 79/121/199
f 10/120/200 11/122/202 83/125/203 81/123/201
f 11/122/202 12/124/204 85/127/205 83/125/203
f 12/124/204 13/126/206 87/129/207 85/127/205
f 13/126/206 14/128/208 89/131/209 87/129/207
f 14/128/208 15/130/210 91/133/211 89/131/209
f 15/130/210 16/132/212 93/135/213 91/133/211
f 16/132/212 17/134/214 95/137/215 93/135/213
f 17/134/214 18/136/216 97/139/217 95/137/215
f 18/136/216 19/138/218 99/141/219 97/139/217
f 19/138/218 20/140/220 101/143/221 99/141/219
f 20/140/220 1/142/182 63/62/185 101/143/221
s 5
f 64/163/222 66/144/223 21/164/224
f 66/144/223 68/145/225 21/164/224
f 68/145/225 70/146/226 21/164/224
f 70/146/226 72/147/227 21/164/224
f 72/147/227 74/148/228 21/164/224
f 74/148/228 76/149/229 21/164/224
f 76/149/229 78/150/230 21/164/224
f 78/150/230 80/151/231 21/164/224
f 80/151/231 82/152/232 21/164/224
f 82/152/232 84/153/233 21/164/224
f 84/153/233 86/154/234 21/164/224
f 86/154/234 88/155/235 21/164/224
f 88/155/235 90/156/236 21/164/224
f 90/156/236 92/157/237 21/164/224
f 92/157/237 94/158/238 21/164/224
f 94/158/238 96/159/239 21/164/224
f 96/159/239 98/160/240 21/164/224
f 98/160/240 100/161/241 21/164/224
f 100/161/241 102/162/242 21/164/224
f 102/162/242 64/163/222 21/164/224
