# This file uses centimeters as units for non-parametric coordinates.

mtllib boss_room.mtl
g default
v 245.496650 1864.895717 -159.427390
v 184.215457 1864.895717 -227.487088
v 104.901878 1864.895717 -273.278776
v 15.319846 1864.895717 -292.319995
v -75.761812 1864.895717 -282.746930
v -159.427373 1864.895717 -245.496619
v -227.487049 1864.895717 -184.215377
v -273.278683 1864.895717 -104.901867
v -292.319938 1864.895717 -15.319834
v -282.746863 1864.895717 75.761794
v -245.496575 1864.895717 159.427334
v -184.215353 1864.895717 227.487006
v -104.901854 1864.895717 273.278661
v -15.319847 1864.895717 292.319887
v 75.761776 1864.895717 282.746831
v 159.427295 1864.895717 245.496531
v 227.486968 1864.895717 184.215345
v 273.278623 1864.895717 104.901846
v 292.319866 1864.895717 15.319835
v 282.746795 1864.895717 -75.761775
v 245.496650 1897.240246 -159.427390
v 184.215457 1897.240246 -227.487088
v 104.901878 1897.240246 -273.278776
v 15.319846 1897.240246 -292.319995
v -75.761812 1897.240246 -282.746930
v -159.427373 1897.240246 -245.496619
v -227.487049 1897.240246 -184.215377
v -273.278683 1897.240246 -104.901867
v -292.319938 1897.240246 -15.319834
v -282.746863 1897.240246 75.761794
v -245.496575 1897.240246 159.427334
v -184.215353 1897.240246 227.487006
v -104.901854 1897.240246 273.278661
v -15.319847 1897.240246 292.319887
v 75.761776 1897.240246 282.746831
v 159.427295 1897.240246 245.496531
v 227.486968 1897.240246 184.215345
v 273.278623 1897.240246 104.901846
v 292.319866 1897.240246 15.319835
v 282.746795 1897.240246 -75.761775
v 215.809672 1897.240246 -140.148470
v 161.938975 1897.240246 -199.977959
v 0.000000 1897.240246 0.000000
v 92.216510 1897.240246 -240.232229
v 13.467275 1897.240246 -256.970886
v -66.600228 1897.240246 -248.555434
v -140.148437 1897.240246 -215.809681
v -199.977908 1897.240246 -161.938917
v -240.232153 1897.240246 -92.216494
v -256.970810 1897.240246 -13.467259
v -248.555384 1897.240246 66.600214
v -215.809620 1897.240246 140.148393
v -161.938909 1897.240246 199.977869
v -92.216474 1897.240246 240.232093
v -13.467272 1897.240246 256.970759
v 66.600187 1897.240246 248.555319
v 140.148354 1897.240246 215.809576
v 199.977822 1897.240246 161.938867
v 240.232076 1897.240246 92.216479
v 256.970740 1897.240246 13.467269
v 248.555291 1897.240246 -66.600224
v 245.496522 1987.383312 -159.427871
v 184.215263 1987.383312 -227.487813
v 161.938781 1987.383312 -199.978684
v 215.809541 1987.383312 -140.148959
v 104.901814 2004.454294 -273.279012
v 92.216447 2004.454294 -240.232465
v 15.319895 2059.199541 -292.319809
v 13.467329 2059.199541 -256.970684
v -75.761821 2102.726585 -282.746964
v -66.600241 2102.726585 -248.555485
v -159.427359 2124.966702 -245.496568
v -140.148419 2124.966702 -215.809613
v -227.487098 2131.312279 -184.215563
v -199.977953 2131.312279 -161.939085
v -273.278746 2124.966702 -104.902103
v -240.232216 2124.966702 -92.216730
v -292.319938 2102.726585 -15.319834
v -256.970810 2102.726585 -13.467259
v -282.746798 2059.199541 75.762037
v -248.555318 2059.199541 66.600458
v -245.496446 2004.454294 159.427814
v -215.809491 2004.454294 140.148874
v -184.215163 1987.383312 227.487714
v -161.938715 1987.383312 199.978594
v -104.901597 1987.383312 273.279622
v -92.216217 1987.383312 240.233054
v 210.861882 1818.279910 -136.935156
v 158.226240 1818.279910 -195.393093
v 90.102266 1818.279910 -234.724473
v 13.158523 1818.279910 -251.079308
v -65.073298 1818.279910 -242.856854
v -136.935282 1818.279910 -210.861848
v -195.393018 1818.279910 -158.226098
v -234.724401 1818.279910 -90.102268
v -251.079301 1818.279910 -13.158498
v -242.856757 1818.279910 65.073461
v -210.861852 1818.279910 136.935067
v -158.226174 1818.279910 195.393003
v -90.102252 1818.279910 234.724325
v -13.158525 1818.279910 251.079200
v 65.073262 1818.279910 242.856756
v 136.935205 1818.279910 210.861760
v 195.392968 1818.279910 158.226111
v 234.724320 1818.279910 90.102235
v 251.079214 1818.279910 13.158512
v 242.856662 1818.279910 -65.073476
v 171.279249 1789.145108 -111.229953
v 128.524321 1789.145108 -158.714177
v 73.188433 1789.145108 -190.662402
v 10.688430 1789.145108 -203.947145
v -52.857870 1789.145108 -197.268195
v -111.230005 1789.145108 -171.279272
v -158.714166 1789.145108 -128.524180
v -190.662340 1789.145108 -73.188404
v -203.947122 1789.145108 -10.688409
v -197.268108 1789.145108 52.857992
v -171.279247 1789.145108 111.229826
v -128.524218 1789.145108 158.714158
v -73.188450 1789.145108 190.662172
v -10.688436 1789.145108 203.947003
v 52.857834 1789.145108 197.268096
v 111.229947 1789.145108 171.279142
v 158.714124 1789.145108 128.524191
v 190.662225 1789.145108 73.188309
v 203.947036 1789.145108 10.688427
v 197.268019 1789.145108 -52.858052
v 131.696620 1771.664227 -85.524738
v 98.822352 1771.664227 -122.035346
v 56.274597 1771.664227 -146.600340
v 8.218350 1771.664227 -156.814968
v -40.642443 1771.664227 -151.679517
v -85.524722 1771.664227 -131.696678
v -122.035313 1771.664227 -98.822262
v -146.600282 1771.664227 -56.274550
v -156.814944 1771.664227 -8.218325
v -151.679458 1771.664227 40.642526
v -131.696627 1771.664227 85.524577
v -98.822310 1771.664227 122.035236
v -56.274626 1771.664227 146.600167
v -8.218292 1771.664227 156.814845
v 40.642408 1771.664227 151.679436
v 85.524690 1771.664227 131.696525
v 122.035266 1771.664227 98.822256
v 146.600181 1771.664227 56.274477
v 156.814870 1771.664227 8.218317
v 151.679358 1771.664227 -40.642629
v 92.113982 1760.010182 -59.819520
v 69.120381 1760.010182 -85.356524
v -0.000047 1760.010182 -0.000176
v 39.360757 1760.010182 -102.538276
v 5.748265 1760.010182 -109.682808
v -28.427029 1760.010182 -106.090862
v -59.819439 1760.010182 -92.114067
v -85.356458 1760.010182 -69.120354
v -102.538223 1760.010182 -39.360695
v -109.682765 1760.010182 -5.748238
v -106.090808 1760.010182 28.427063
v -92.114027 1760.010182 59.819320
v -69.120352 1760.010182 85.356399
v -39.360786 1760.010182 102.538103
v -5.748174 1760.010182 109.682694
v 28.426977 1760.010182 106.090759
v 59.819439 1760.010182 92.113932
v 85.356409 1760.010182 69.120340
v 102.538150 1760.010182 39.360724
v 109.682696 1760.010182 5.748216
v 106.090698 1760.010182 -28.427205
vt 0.648603 0.107966
vt 0.626409 0.064408
vt 0.591842 0.029841
vt 0.548284 0.007647
vt 0.500000 -0.000000
vt 0.451716 0.007647
vt 0.408159 0.029841
vt 0.373591 0.064409
vt 0.351397 0.107966
vt 0.343750 0.156250
vt 0.351397 0.204534
vt 0.373591 0.248091
vt 0.408159 0.282659
vt 0.451716 0.304853
vt 0.500000 0.312500
vt 0.548284 0.304853
vt 0.591841 0.282659
vt 0.626409 0.248091
vt 0.648603 0.204534
vt 0.656250 0.156250
vt 0.375000 0.312500
vt 0.387500 0.312500
vt 0.400000 0.312500
vt 0.412500 0.312500
vt 0.425000 0.312500
vt 0.437500 0.312500
vt 0.450000 0.312500
vt 0.462500 0.312500
vt 0.475000 0.312500
vt 0.487500 0.312500
vt 0.500000 0.312500
vt 0.512500 0.312500
vt 0.525000 0.312500
vt 0.537500 0.312500
vt 0.550000 0.312500
vt 0.562500 0.312500
vt 0.575000 0.312500
vt 0.587500 0.312500
vt 0.600000 0.312500
vt 0.612500 0.312500
vt 0.625000 0.312500
vt 0.375000 0.687500
vt 0.387500 0.687500
vt 0.400000 0.687500
vt 0.412500 0.687500
vt 0.425000 0.687500
vt 0.437500 0.687500
vt 0.450000 0.687500
vt 0.462500 0.687500
vt 0.475000 0.687500
vt 0.487500 0.687500
vt 0.500000 0.687500
vt 0.512500 0.687500
vt 0.525000 0.687500
vt 0.537500 0.687500
vt 0.550000 0.687500
vt 0.562500 0.687500
vt 0.575000 0.687500
vt 0.587500 0.687500
vt 0.600000 0.687500
vt 0.612500 0.687500
vt 0.625000 0.687500
vt 0.648603 0.795466
vt 0.626409 0.751908
vt 0.591842 0.717341
vt 0.548284 0.695147
vt 0.500000 0.687500
vt 0.451716 0.695147
vt 0.408159 0.717341
vt 0.373591 0.751909
vt 0.351397 0.795466
vt 0.343750 0.843750
vt 0.351397 0.892034
vt 0.373591 0.935591
vt 0.408159 0.970159
vt 0.451716 0.992353
vt 0.500000 1.000000
vt 0.548284 0.992353
vt 0.591841 0.970159
vt 0.626409 0.935591
vt 0.648603 0.892034
vt 0.656250 0.843750
vt 0.500000 0.156250
vt 0.500000 0.843750
vt 0.648603 0.892034
vt 0.626409 0.935591
vt 0.591841 0.970159
vt 0.548284 0.992353
vt 0.500000 1.000000
vt 0.451716 0.992353
vt 0.408159 0.970159
vt 0.373591 0.935591
vt 0.351397 0.892034
vt 0.343750 0.843750
vt 0.351397 0.795466
vt 0.373591 0.751909
vt 0.408159 0.717341
vt 0.451716 0.695147
vt 0.500000 0.687500
vt 0.548284 0.695147
vt 0.591842 0.717341
vt 0.626409 0.751908
vt 0.648603 0.795466
vt 0.656250 0.843750
vt 0.648603 0.892034
vt 0.626409 0.935591
vt 0.626409 0.935591
vt 0.648603 0.892034
vt 0.591841 0.970159
vt 0.591841 0.970159
vt 0.548284 0.992353
vt 0.548284 0.992353
vt 0.500000 1.000000
vt 0.500000 1.000000
vt 0.451716 0.992353
vt 0.451716 0.992353
vt 0.408159 0.970159
vt 0.408159 0.970159
vt 0.373591 0.935591
vt 0.373591 0.935591
vt 0.351397 0.892034
vt 0.351397 0.892034
vt 0.343750 0.843750
vt 0.343750 0.843750
vt 0.351397 0.795466
vt 0.351397 0.795466
vt 0.373591 0.751909
vt 0.373591 0.751909
vt 0.408159 0.717341
vt 0.408159 0.717341
vt 0.626409 0.064408
vt 0.648603 0.107966
vt 0.591842 0.029841
vt 0.548284 0.007647
vt 0.500000 -0.000000
vt 0.451716 0.007647
vt 0.408159 0.029841
vt 0.373591 0.064409
vt 0.351397 0.107966
vt 0.343750 0.156250
vt 0.351397 0.204534
vt 0.373591 0.248091
vt 0.408159 0.282659
vt 0.451716 0.304853
vt 0.500000 0.312500
vt 0.548284 0.304853
vt 0.591841 0.282659
vt 0.626409 0.248091
vt 0.648603 0.204534
vt 0.656250 0.156250
vt 0.626409 0.064408
vt 0.648603 0.107966
vt 0.591842 0.029841
vt 0.548284 0.007647
vt 0.500000 -0.000000
vt 0.451716 0.007647
vt 0.408159 0.029841
vt 0.373591 0.064409
vt 0.351397 0.107966
vt 0.343750 0.156250
vt 0.351397 0.204534
vt 0.373591 0.248091
vt 0.408159 0.282659
vt 0.451716 0.304853
vt 0.500000 0.312500
vt 0.548284 0.304853
vt 0.591841 0.282659
vt 0.626409 0.248091
vt 0.648603 0.204534
vt 0.656250 0.156250
vt 0.626409 0.064408
vt 0.648603 0.107966
vt 0.591842 0.029841
vt 0.548284 0.007647
vt 0.500000 -0.000000
vt 0.451716 0.007647
vt 0.408159 0.029841
vt 0.373591 0.064409
vt 0.351397 0.107966
vt 0.343750 0.156250
vt 0.351397 0.204534
vt 0.373591 0.248091
vt 0.408159 0.282659
vt 0.451716 0.304853
vt 0.500000 0.312500
vt 0.548284 0.304853
vt 0.591841 0.282659
vt 0.626409 0.248091
vt 0.648603 0.204534
vt 0.656250 0.156250
vt 0.626409 0.064408
vt 0.648603 0.107966
vt 0.591842 0.029841
vt 0.548284 0.007647
vt 0.500000 -0.000000
vt 0.451716 0.007647
vt 0.408159 0.029841
vt 0.373591 0.064409
vt 0.351397 0.107966
vt 0.343750 0.156250
vt 0.351397 0.204534
vt 0.373591 0.248091
vt 0.408159 0.282659
vt 0.451716 0.304853
vt 0.500000 0.312500
vt 0.548284 0.304853
vt 0.591841 0.282659
vt 0.626409 0.248091
vt 0.648603 0.204534
vt 0.656250 0.156250
vn 0.838671 0.000000 -0.544638
vn 0.629320 0.000000 -0.777146
vn 0.625167 -0.000003 -0.780491
vn 0.785118 -0.000002 -0.619346
vn 0.358368 0.000000 -0.933580
vn 0.340484 -0.000001 -0.940250
vn 0.052336 0.000000 -0.998630
vn 0.032037 0.000000 -0.999487
vn -0.258819 0.000000 -0.965926
vn -0.269620 0.000000 -0.962967
vn -0.544639 0.000000 -0.838670
vn -0.548340 -0.000000 -0.836255
vn -0.777146 0.000000 -0.629320
vn -0.777146 -0.000000 -0.629321
vn -0.933581 0.000000 -0.358368
vn -0.931988 -0.000000 -0.362490
vn -0.998630 0.000000 -0.052336
vn -0.997981 -0.000000 -0.063516
vn -0.965926 0.000000 0.258819
vn -0.970984 -0.000000 0.239142
vn -0.838671 0.000000 0.544639
vn -0.848912 -0.000001 0.528534
vn -0.629320 0.000000 0.777146
vn -0.633456 -0.000004 0.773779
vn -0.358368 0.000000 0.933580
vn -0.442577 -0.000004 0.896730
vn -0.052336 0.000000 0.998630
vn -0.052336 0.000000 0.998630
vn 0.258819 0.000000 0.965926
vn 0.258819 0.000000 0.965926
vn 0.544639 0.000000 0.838671
vn 0.544639 0.000000 0.838671
vn 0.777146 0.000000 0.629320
vn 0.777146 0.000000 0.629320
vn 0.933580 0.000000 0.358368
vn 0.933580 0.000000 0.358368
vn 0.998630 0.000000 0.052336
vn 0.998630 0.000000 0.052336
vn 0.965926 0.000000 -0.258818
vn 0.965926 0.000000 -0.258818
vn 0.083540 -0.991150 -0.103164
vn 0.111331 -0.991150 -0.072299
vn 0.000000 -1.000000 0.000000
vn 0.047572 -0.991150 -0.123930
vn 0.006947 -0.991150 -0.132565
vn -0.034357 -0.991150 -0.128224
vn -0.072299 -0.991150 -0.111331
vn -0.103164 -0.991150 -0.083540
vn -0.123930 -0.991150 -0.047572
vn -0.132565 -0.991150 -0.006947
vn -0.128224 -0.991150 0.034357
vn -0.111331 -0.991150 0.072299
vn -0.083540 -0.991150 0.103163
vn -0.047572 -0.991150 0.123930
vn -0.006948 -0.991150 0.132565
vn 0.034357 -0.991150 0.128223
vn 0.072299 -0.991150 0.111331
vn 0.103164 -0.991150 0.083540
vn 0.123930 -0.991150 0.047572
vn 0.132565 -0.991150 0.006947
vn 0.128223 -0.991150 -0.034357
vn 0.000000 1.000000 0.000000
vn 0.000000 1.000000 0.000000
vn 0.000000 1.000000 0.000000
vn 0.000000 1.000000 0.000000
vn 0.000000 1.000000 0.000000
vn 0.000000 1.000000 0.000000
vn 0.000000 1.000000 0.000000
vn 0.000000 1.000000 0.000000
vn 0.000000 1.000000 0.000000
vn 0.000000 1.000000 0.000000
vn 0.000000 1.000000 0.000000
vn 0.000000 1.000000 0.000000
vn 0.000000 1.000000 0.000000
vn 0.000000 1.000000 0.000000
vn 0.000000 1.000000 0.000000
vn -0.000000 1.000000 -0.000000
vn -0.000000 1.000000 -0.000000
vn 0.000000 1.000000 0.000000
vn 0.000000 1.000000 0.000000
vn 0.000000 1.000000 0.000000
vn 0.000000 1.000000 0.000000
vn 0.000000 1.000000 0.000000
vn 0.088728 0.994738 0.051227
vn 0.082503 0.995452 0.047633
vn 0.000000 1.000000 0.000000
vn 0.368677 0.923377 0.107020
vn 0.365420 0.924685 0.106894
vn 0.490151 0.870948 0.034673
vn 0.490067 0.871002 0.034498
vn 0.346330 0.935209 -0.073752
vn 0.345222 0.935597 -0.074028
vn 0.145356 0.986397 -0.076762
vn 0.141944 0.986973 -0.075731
vn 0.008965 0.999933 0.007260
vn 0.008965 0.999933 0.007260
vn -0.044864 0.986397 0.158139
vn -0.044565 0.986974 0.154587
vn -0.000134 0.935209 0.354095
vn -0.000634 0.935597 0.353069
vn 0.135823 0.870948 0.472230
vn 0.135635 0.871002 0.472184
vn 0.181332 0.923377 0.338368
vn 0.180532 0.924685 0.335209
vn 0.068555 0.994738 0.076138
vn 0.063745 0.995452 0.070797
vn 0.000000 1.000000 0.000000
vn 0.000000 1.000000 0.000000
vn 0.000000 1.000000 0.000000
vn 0.000000 1.000000 0.000000
vn -0.000000 1.000000 -0.000000
vn -0.000000 1.000000 -0.000000
vn 0.000000 1.000000 0.000000
vn 0.000000 1.000000 0.000000
vn 0.000000 1.000000 0.000000
vn 0.000000 1.000000 0.000000
vn 0.000000 1.000000 0.000000
vn 0.587798 -0.000003 -0.809008
vn 0.743145 -0.000003 -0.669130
vn -0.623740 0.000003 0.781632
vn -0.743145 0.000003 0.669130
vn -0.743145 0.000003 0.669130
vn -0.587139 0.000003 0.809486
vn 0.544638 0.000005 0.838671
vn 0.544638 0.000005 0.838671
vn 0.544638 0.000005 0.838671
vn 0.544638 0.000005 0.838671
vn 0.227510 -0.000000 -0.973776
vn -0.335504 0.000002 0.942039
vn -0.225317 0.000000 0.974285
vn -0.097810 0.000000 -0.995205
vn -0.027911 -0.000000 0.999610
vn 0.098631 -0.000000 0.995124
vn -0.397515 0.000000 -0.917596
vn 0.271362 -0.000000 0.962477
vn 0.398664 -0.000000 0.917097
vn -0.650875 -0.000000 -0.759185
vn 0.548874 0.000000 0.835905
vn 0.653271 0.000000 0.757124
vn -0.777146 -0.000000 -0.629321
vn 0.777146 0.000000 0.629321
vn 0.777146 0.000000 0.629321
vn -0.877919 -0.000001 -0.478809
vn 0.931756 0.000000 0.363086
vn 0.876401 0.000001 0.481582
vn -0.980192 -0.000000 -0.198048
vn 0.997864 0.000000 0.065322
vn 0.979943 0.000000 0.199276
vn -0.993793 -0.000000 0.111241
vn 0.971963 0.000000 -0.235133
vn 0.993885 -0.000000 -0.110422
vn -0.905193 -0.000001 0.425000
vn 0.851697 0.000001 -0.524035
vn 0.906148 0.000001 -0.422961
vn -0.669119 -0.000004 0.743156
vn 0.634869 0.000005 -0.772620
vn 0.669723 0.000004 -0.742611
vn -0.500001 -0.000007 0.866025
vn 0.933581 -0.000007 0.358368
vn 0.933581 -0.000007 0.358368
vn 0.933581 -0.000007 0.358368
vn 0.933581 -0.000007 0.358368
vn 0.500000 0.000007 -0.866025
vn 0.500000 0.000007 -0.866025
vn 0.471057 -0.663116 -0.581706
vn 0.627759 -0.663116 -0.407671
vn 0.554200 -0.750555 -0.359901
vn 0.415860 -0.750555 -0.513544
vn 0.268244 -0.663116 -0.698801
vn 0.236812 -0.750555 -0.616917
vn 0.039174 -0.663116 -0.747491
vn 0.034584 -0.750555 -0.659902
vn -0.193730 -0.663116 -0.723012
vn -0.171029 -0.750555 -0.638291
vn -0.407672 -0.663116 -0.627759
vn -0.359902 -0.750555 -0.554200
vn -0.581707 -0.663116 -0.471057
vn -0.513544 -0.750555 -0.415860
vn -0.698801 -0.663116 -0.268244
vn -0.616917 -0.750555 -0.236812
vn -0.747491 -0.663116 -0.039174
vn -0.659902 -0.750555 -0.034584
vn -0.723012 -0.663116 0.193730
vn -0.638292 -0.750555 0.171030
vn -0.627759 -0.663116 0.407672
vn -0.554200 -0.750555 0.359902
vn -0.471057 -0.663116 0.581707
vn -0.415860 -0.750555 0.513544
vn -0.268244 -0.663116 0.698800
vn -0.236812 -0.750555 0.616917
vn -0.039174 -0.663116 0.747491
vn -0.034584 -0.750555 0.659902
vn 0.193730 -0.663116 0.723012
vn 0.171030 -0.750555 0.638291
vn 0.407672 -0.663116 0.627759
vn 0.359902 -0.750555 0.554200
vn 0.581707 -0.663116 0.471057
vn 0.513544 -0.750555 0.415860
vn 0.698801 -0.663116 0.268244
vn 0.616917 -0.750555 0.236812
vn 0.747491 -0.663116 0.039174
vn 0.659902 -0.750555 0.034584
vn 0.723012 -0.663116 -0.193730
vn 0.638292 -0.750555 -0.171029
vn 0.380761 -0.890999 -0.247269
vn 0.285715 -0.890999 -0.352828
vn 0.162701 -0.890999 -0.423851
vn 0.023761 -0.890999 -0.453383
vn -0.117505 -0.890999 -0.438536
vn -0.247270 -0.890999 -0.380761
vn -0.352829 -0.890999 -0.285715
vn -0.423851 -0.890999 -0.162701
vn -0.453383 -0.890999 -0.023761
vn -0.438536 -0.890999 0.117505
vn -0.380761 -0.890999 0.247269
vn -0.285715 -0.890999 0.352829
vn -0.162701 -0.890999 0.423851
vn -0.023761 -0.890999 0.453383
vn 0.117505 -0.890999 0.438536
vn 0.247269 -0.890999 0.380761
vn 0.352829 -0.890999 0.285715
vn 0.423851 -0.890999 0.162701
vn 0.453383 -0.890999 0.023761
vn 0.438536 -0.890999 -0.117505
vn 0.254903 -0.952692 -0.165536
vn 0.191274 -0.952692 -0.236204
vn 0.108921 -0.952692 -0.283750
vn 0.015907 -0.952692 -0.303521
vn -0.078665 -0.952692 -0.293581
vn -0.165536 -0.952692 -0.254903
vn -0.236204 -0.952692 -0.191274
vn -0.283750 -0.952692 -0.108921
vn -0.303521 -0.952692 -0.015907
vn -0.293581 -0.952692 0.078665
vn -0.254903 -0.952692 0.165536
vn -0.191274 -0.952692 0.236204
vn -0.108921 -0.952692 0.283750
vn -0.015907 -0.952692 0.303521
vn 0.078665 -0.952692 0.293581
vn 0.165536 -0.952692 0.254903
vn 0.236204 -0.952692 0.191274
vn 0.283750 -0.952692 0.108922
vn 0.303521 -0.952692 0.015907
vn 0.293581 -0.952692 -0.078664
s 1
g pCylinder4 boss_arena
usemtl initialShadingGroup
f 1/21/1 2/22/2 22/43/3 21/42/4
f 2/22/2 3/23/5 23/44/6 22/43/3
f 3/23/5 4/24/7 24/45/8 23/44/6
f 4/24/7 5/25/9 25/46/10 24/45/8
f 5/25/9 6/26/11 26/47/12 25/46/10
f 6/26/11 7/27/13 27/48/14 26/47/12
f 7/27/13 8/28/15 28/49/16 27/48/14
f 8/28/15 9/29/17 29/50/18 28/49/16
f 9/29/17 10/30/19 30/51/20 29/50/18
f 10/30/19 11/31/21 31/52/22 30/51/20
f 11/31/21 12/32/23 32/53/24 31/52/22
f 12/32/23 13/33/25 33/54/26 32/53/24
f 13/33/25 14/34/27 34/55/28 33/54/26
f 14/34/27 15/35/29 35/56/30 34/55/28
f 15/35/29 16/36/31 36/57/32 35/56/30
f 16/36/31 17/37/33 37/58/34 36/57/32
f 17/37/33 18/38/35 38/59/36 37/58/34
f 18/38/35 19/39/37 39/60/38 38/59/36
f 19/39/37 20/40/39 40/61/40 39/60/38
f 20/40/39 1/41/1 21/62/4 40/61/40
s 2
f 149/191/41 148/192/42 150/83/43
f 151/193/44 149/191/41 150/83/43
f 152/194/45 151/193/44 150/83/43
f 153/195/46 152/194/45 150/83/43
f 154/196/47 153/195/46 150/83/43
f 155/197/48 154/196/47 150/83/43
f 156/198/49 155/197/48 150/83/43
f 157/199/50 156/198/49 150/83/43
f 158/200/51 157/199/50 150/83/43
f 159/201/52 158/200/51 150/83/43
f 160/202/53 159/201/52 150/83/43
f 161/203/54 160/202/53 150/83/43
f 162/204/55 161/203/54 150/83/43
f 163/205/56 162/204/55 150/83/43
f 164/206/57 163/205/56 150/83/43
f 165/207/58 164/206/57 150/83/43
f 166/208/59 165/207/58 150/83/43
f 167/209/60 166/208/59 150/83/43
f 168/210/61 167/209/60 150/83/43
f 148/192/42 168/210/61 150/83/43
s 3
f 41/85/62 42/86/63 43/84/64
f 42/86/63 44/87/65 43/84/64
f 44/87/65 45/88/66 43/84/64
f 45/88/66 46/89/67 43/84/64
f 46/89/67 47/90/68 43/84/64
f 47/90/68 48/91/69 43/84/64
f 48/91/69 49/92/70 43/84/64
f 49/92/70 50/93/71 43/84/64
f 50/93/71 51/94/72 43/84/64
f 51/94/72 52/95/73 43/84/64
f 52/95/73 53/96/74 43/84/64
f 53/96/74 54/97/75 43/84/64
f 54/97/75 55/98/76 43/84/64
f 55/98/76 56/99/77 43/84/64
f 56/99/77 57/100/78 43/84/64
f 57/100/78 58/101/79 43/84/64
f 58/101/79 59/102/80 43/84/64
f 59/102/80 60/103/81 43/84/64
f 60/103/81 61/104/82 43/84/64
f 61/104/82 41/85/62 43/84/64
s 4
f 62/105/83 63/106/84 64/107/85 65/108/86
f 63/106/84 66/109/87 67/110/88 64/107/85
f 66/109/87 68/111/89 69/112/90 67/110/88
f 68/111/89 70/113/91 71/114/92 69/112/90
f 70/113/91 72/115/93 73/116/94 71/114/92
f 72/115/93 74/117/95 75/118/96 73/116/94
f 74/117/95 76/119/97 77/120/98 75/118/96
f 76/119/97 78/121/99 79/122/100 77/120/98
f 78/121/99 80/123/101 81/124/102 79/122/100
f 80/123/101 82/125/103 83/126/104 81/124/102
f 82/125/103 84/127/105 85/128/106 83/126/104
f 84/127/105 86/129/107 87/130/108 85/128/106
s 3
f 33/69/109 34/68/110 55/98/76 54/97/75
f 34/68/110 35/67/111 56/99/77 55/98/76
f 35/67/111 36/66/112 57/100/78 56/99/77
f 36/66/112 37/65/113 58/101/79 57/100/78
f 37/65/113 38/64/114 59/102/80 58/101/79
f 38/64/114 39/63/115 60/103/81 59/102/80
f 39/63/115 40/82/116 61/104/82 60/103/81
f 40/82/116 21/81/117 41/85/62 61/104/82
s 1
f 21/81/4 22/80/3 63/106/118 62/105/119
s 5
f 42/86/120 41/85/121 65/108/122 64/107/123
s off
f 41/85/124 21/81/125 62/105/126 65/108/127
s 1
f 22/80/3 23/79/6 66/109/128 63/106/118
s 5
f 44/87/129 42/86/120 64/107/123 67/110/130
s 1
f 23/79/6 24/78/8 68/111/131 66/109/128
s 5
f 45/88/132 44/87/129 67/110/130 69/112/133
s 1
f 24/78/8 25/77/10 70/113/134 68/111/131
s 5
f 46/89/135 45/88/132 69/112/133 71/114/136
s 1
f 25/77/10 26/76/12 72/115/137 70/113/134
s 5
f 47/90/138 46/89/135 71/114/136 73/116/139
s 1
f 26/76/12 27/75/14 74/117/140 72/115/137
s 5
f 48/91/141 47/90/138 73/116/139 75/118/142
s 1
f 27/75/14 28/74/16 76/119/143 74/117/140
s 5
f 49/92/144 48/91/141 75/118/142 77/120/145
s 1
f 28/74/16 29/73/18 78/121/146 76/119/143
s 5
f 50/93/147 49/92/144 77/120/145 79/122/148
s 1
f 29/73/18 30/72/20 80/123/149 78/121/146
s 5
f 51/94/150 50/93/147 79/122/148 81/124/151
s 1
f 30/72/20 31/71/22 82/125/152 80/123/149
s 5
f 52/95/153 51/94/150 81/124/151 83/126/154
s 1
f 31/71/22 32/70/24 84/127/155 82/125/152
s 5
f 53/96/156 52/95/153 83/126/154 85/128/157
s 1
f 32/70/24 33/69/26 86/129/158 84/127/155
s off
f 33/69/159 54/97/160 87/130/161 86/129/162
s 5
f 54/97/163 53/96/156 85/128/157 87/130/164
s 2
f 2/2/165 1/1/166 88/132/167 89/131/168
f 3/3/169 2/2/165 89/131/168 90/133/170
f 4/4/171 3/3/169 90/133/170 91/134/172
f 5/5/173 4/4/171 91/134/172 92/135/174
f 6/6/175 5/5/173 92/135/174 93/136/176
f 7/7/177 6/6/175 93/136/176 94/137/178
f 8/8/179 7/7/177 94/137/178 95/138/180
f 9/9/181 8/8/179 95/138/180 96/139/182
f 10/10/183 9/9/181 96/139/182 97/140/184
f 11/11/185 10/10/183 97/140/184 98/141/186
f 12/12/187 11/11/185 98/141/186 99/142/188
f 13/13/189 12/12/187 99/142/188 100/143/190
f 14/14/191 13/13/189 100/143/190 101/144/192
f 15/15/193 14/14/191 101/144/192 102/145/194
f 16/16/195 15/15/193 102/145/194 103/146/196
f 17/17/197 16/16/195 103/146/196 104/147/198
f 18/18/199 17/17/197 104/147/198 105/148/200
f 19/19/201 18/18/199 105/148/200 106/149/202
f 20/20/203 19/19/201 106/149/202 107/150/204
f 1/1/166 20/20/203 107/150/204 88/132/167
f 89/131/168 88/132/167 108/152/205 109/151/206
f 90/133/170 89/131/168 109/151/206 110/153/207
f 91/134/172 90/133/170 110/153/207 111/154/208
f 92/135/174 91/134/172 111/154/208 112/155/209
f 93/136/176 92/135/174 112/155/209 113/156/210
f 94/137/178 93/136/176 113/156/210 114/157/211
f 95/138/180 94/137/178 114/157/211 115/158/212
f 96/139/182 95/138/180 115/158/212 116/159/213
f 97/140/184 96/139/182 116/159/213 117/160/214
f 98/141/186 97/140/184 117/160/214 118/161/215
f 99/142/188 98/141/186 118/161/215 119/162/216
f 100/143/190 99/142/188 119/162/216 120/163/217
f 101/144/192 100/143/190 120/163/217 121/164/218
f 102/145/194 101/144/192 121/164/218 122/165/219
f 103/146/196 102/145/194 122/165/219 123/166/220
f 104/147/198 103/146/196 123/166/220 124/167/221
f 105/148/200 104/147/198 124/167/221 125/168/222
f 106/149/202 105/148/200 125/168/222 126/169/223
f 107/150/204 106/149/202 126/169/223 127/170/224
f 88/132/167 107/150/204 127/170/224 108/152/205
f 109/151/206 108/152/205 128/172/225 129/171/226
f 110/153/207 109/151/206 129/171/226 130/173/227
f 111/154/208 110/153/207 130/173/227 131/174/228
f 112/155/209 111/154/208 131/174/228 132/175/229
f 113/156/210 112/155/209 132/175/229 133/176/230
f 114/157/211 113/156/210 133/176/230 134/177/231
f 115/158/212 114/157/211 134/177/231 135/178/232
f 116/159/213 115/158/212 135/178/232 136/179/233
f 117/160/214 116/159/213 136/179/233 137/180/234
f 118/161/215 117/160/214 137/180/234 138/181/235
f 119/162/216 118/161/215 138/181/235 139/182/236
f 120/163/217 119/162/216 139/182/236 140/183/237
f 121/164/218 120/163/217 140/183/237 141/184/238
f 122/165/219 121/164/218 141/184/238 142/185/239
f 123/166/220 122/165/219 142/185/239 143/186/240
f 124/167/221 123/166/220 143/186/240 144/187/241
f 125/168/222 124/167/221 144/187/241 145/188/242
f 126/169/223 125/168/222 145/188/242 146/189/243
f 127/170/224 126/169/223 146/189/243 147/190/244
f 108/152/205 127/170/224 147/190/244 128/172/225
f 129/171/226 128/172/225 148/192/42 149/191/41
f 130/173/227 129/171/226 149/191/41 151/193/44
f 131/174/228 130/173/227 151/193/44 152/194/45
f 132/175/229 131/174/228 152/194/45 153/195/46
f 133/176/230 132/175/229 153/195/46 154/196/47
f 134/177/231 133/176/230 154/196/47 155/197/48
f 135/178/232 134/177/231 155/197/48 156/198/49
f 136/179/233 135/178/232 156/198/49 157/199/50
f 137/180/234 136/179/233 157/199/50 158/200/51
f 138/181/235 137/180/234 158/200/51 159/201/52
f 139/182/236 138/181/235 159/201/52 160/202/53
f 140/183/237 139/182/236 160/202/53 161/203/54
f 141/184/238 140/183/237 161/203/54 162/204/55
f 142/185/239 141/184/238 162/204/55 163/205/56
f 143/186/240 142/185/239 163/205/56 164/206/57
f 144/187/241 143/186/240 164/206/57 165/207/58
f 145/188/242 144/187/241 165/207/58 166/208/59
f 146/189/243 145/188/242 166/208/59 167/209/60
f 147/190/244 146/189/243 167/209/60 168/210/61
f 128/172/225 147/190/244 168/210/61 148/192/42
g default
v 423.905912 58.269723 -137.735374
v 360.595914 58.269723 -261.988247
v 261.988247 58.269723 -360.595888
v 137.735360 58.269723 -423.905859
v 0.000000 58.269723 -445.720975
v -137.735360 58.269723 -423.905832
v -261.988193 58.269723 -360.595808
v -360.595782 58.269723 -261.988167
v -423.905753 58.269723 -137.735321
v -445.720869 58.269723 0.000000
v -423.905753 58.269723 137.735321
v -360.595755 58.269723 261.988140
v -261.988140 58.269723 360.595728
v -137.735321 58.269723 423.905699
v -0.000013 58.269723 445.720816
v 137.735281 58.269723 423.905673
v 261.988087 58.269723 360.595702
v 360.595675 58.269723 261.988114
v 423.905646 58.269723 137.735294
v 445.720763 58.269723 0.000000
v 423.905912 90.614251 -137.735374
v 360.595914 90.614251 -261.988247
v 261.988247 90.614251 -360.595888
v 137.735360 90.614251 -423.905859
v 0.000000 90.614251 -445.720975
v -137.735360 90.614251 -423.905832
v -261.988193 90.614251 -360.595808
v -360.595782 90.614251 -261.988167
v -423.905753 90.614251 -137.735321
v -445.720869 90.614251 0.000000
v -423.905753 90.614251 137.735321
v -360.595755 90.614251 261.988140
v -261.988140 90.614251 360.595728
v -137.735321 90.614251 423.905699
v -0.000013 90.614251 445.720816
v 137.735281 90.614251 423.905673
v 261.988087 90.614251 360.595702
v 360.595675 90.614251 261.988114
v 423.905646 90.614251 137.735294
v 445.720763 90.614251 0.000000
v 0.000000 58.269723 0.000000
v 0.000000 90.614251 0.000000
vt 0.648603 0.107966
vt 0.626409 0.064408
vt 0.591842 0.029841
vt 0.548284 0.007647
vt 0.500000 -0.000000
vt 0.451716 0.007647
vt 0.408159 0.029841
vt 0.373591 0.064409
vt 0.351397 0.107966
vt 0.343750 0.156250
vt 0.351397 0.204534
vt 0.373591 0.248091
vt 0.408159 0.282659
vt 0.451716 0.304853
vt 0.500000 0.312500
vt 0.548284 0.304853
vt 0.591841 0.282659
vt 0.626409 0.248091
vt 0.648603 0.204534
vt 0.656250 0.156250
vt 0.375000 0.312500
vt 0.387500 0.312500
vt 0.400000 0.312500
vt 0.412500 0.312500
vt 0.425000 0.312500
vt 0.437500 0.312500
vt 0.450000 0.312500
vt 0.462500 0.312500
vt 0.475000 0.312500
vt 0.487500 0.312500
vt 0.500000 0.312500
vt 0.512500 0.312500
vt 0.525000 0.312500
vt 0.537500 0.312500
vt 0.550000 0.312500
vt 0.562500 0.312500
vt 0.575000 0.312500
vt 0.587500 0.312500
vt 0.600000 0.312500
vt 0.612500 0.312500
vt 0.625000 0.312500
vt 0.375000 0.687500
vt 0.387500 0.687500
vt 0.400000 0.687500
vt 0.412500 0.687500
vt 0.425000 0.687500
vt 0.437500 0.687500
vt 0.450000 0.687500
vt 0.462500 0.687500
vt 0.475000 0.687500
vt 0.487500 0.687500
vt 0.500000 0.687500
vt 0.512500 0.687500
vt 0.525000 0.687500
vt 0.537500 0.687500
vt 0.550000 0.687500
vt 0.562500 0.687500
vt 0.575000 0.687500
vt 0.587500 0.687500
vt 0.600000 0.687500
vt 0.612500 0.687500
vt 0.625000 0.687500
vt 0.648603 0.795466
vt 0.626409 0.751908
vt 0.591842 0.717341
vt 0.548284 0.695147
vt 0.500000 0.687500
vt 0.451716 0.695147
vt 0.408159 0.717341
vt 0.373591 0.751909
vt 0.351397 0.795466
vt 0.343750 0.843750
vt 0.351397 0.892034
vt 0.373591 0.935591
vt 0.408159 0.970159
vt 0.451716 0.992353
vt 0.500000 1.000000
vt 0.548284 0.992353
vt 0.591841 0.970159
vt 0.626409 0.935591
vt 0.648603 0.892034
vt 0.656250 0.843750
vt 0.500000 0.156250
vt 0.500000 0.843750
vn 0.951057 0.000000 -0.309016
vn 0.809017 0.000000 -0.587785
vn 0.809017 0.000000 -0.587785
vn 0.951057 0.000000 -0.309016
vn 0.587785 0.000000 -0.809017
vn 0.587785 0.000000 -0.809017
vn 0.309017 0.000000 -0.951057
vn 0.309017 0.000000 -0.951057
vn -0.000000 0.000000 -1.000000
vn -0.000000 0.000000 -1.000000
vn -0.309017 0.000000 -0.951056
vn -0.309017 0.000000 -0.951056
vn -0.587785 0.000000 -0.809017
vn -0.587785 0.000000 -0.809017
vn -0.809017 0.000000 -0.587785
vn -0.809017 0.000000 -0.587785
vn -0.951056 0.000000 -0.309017
vn -0.951056 0.000000 -0.309017
vn -1.000000 0.000000 0.000000
vn -1.000000 0.000000 0.000000
vn -0.951056 0.000000 0.309017
vn -0.951056 0.000000 0.309017
vn -0.809017 0.000000 0.587785
vn -0.809017 0.000000 0.587785
vn -0.587785 0.000000 0.809017
vn -0.587785 0.000000 0.809017
vn -0.309017 0.000000 0.951057
vn -0.309017 0.000000 0.951057
vn 0.000000 0.000000 1.000000
vn 0.000000 0.000000 1.000000
vn 0.309017 0.000000 0.951056
vn 0.309017 0.000000 0.951056
vn 0.587785 0.000000 0.809017
vn 0.587785 0.000000 0.809017
vn 0.809017 0.000000 0.587785
vn 0.809017 0.000000 0.587785
vn 0.951056 0.000000 0.309017
vn 0.951056 0.000000 0.309017
vn 1.000000 0.000000 0.000001
vn 1.000000 0.000000 0.000001
vn 0.000000 -1.000000 0.000000
vn 0.000000 -1.000000 0.000000
vn 0.000000 -1.000000 0.000000
vn 0.000000 -1.000000 0.000000
vn 0.000000 -1.000000 0.000000
vn 0.000000 -1.000000 0.000000
vn 0.000000 -1.000000 0.000000
vn 0.000000 -1.000000 0.000000
vn 0.000000 -1.000000 0.000000
vn 0.000000 -1.000000 0.000000
vn 0.000000 -1.000000 0.000000
vn 0.000000 -1.000000 0.000000
vn 0.000000 -1.000000 0.000000
vn 0.000000 -1.000000 0.000000
vn 0.000000 -1.000000 0.000000
vn 0.000000 -1.000000 0.000000
vn 0.000000 -1.000000 0.000000
vn 0.000000 -1.000000 0.000000
vn 0.000000 -1.000000 0.000000
vn 0.000000 -1.000000 0.000000
vn 0.000000 -1.000000 0.000000
vn 0.000000 1.000000 0.000000
vn 0.000000 1.000000 0.000000
vn 0.000000 1.000000 0.000000
vn 0.000000 1.000000 0.000000
vn 0.000000 1.000000 0.000000
vn 0.000000 1.000000 0.000000
vn 0.000000 1.000000 0.000000
vn 0.000000 1.000000 0.000000
vn 0.000000 1.000000 0.000000
vn 0.000000 1.000000 0.000000
vn 0.000000 1.000000 0.000000
vn 0.000000 1.000000 0.000000
vn 0.000000 1.000000 0.000000
vn 0.000000 1.000000 0.000000
vn 0.000000 1.000000 0.000000
vn 0.000000 1.000000 0.000000
vn 0.000000 1.000000 0.000000
vn 0.000000 1.000000 0.000000
vn 0.000000 1.000000 0.000000
vn 0.000000 1.000000 0.000000
vn 0.000000 1.000000 0.000000
s 1
g boss_arena pCylinder3 group2
usemtl initialShadingGroup
f 169/231/245 170/232/246 190/253/247 189/252/248
f 170/232/246 171/233/249 191/254/250 190/253/247
f 171/233/249 172/234/251 192/255/252 191/254/250
f 172/234/251 173/235/253 193/256/254 192/255/252
f 173/235/253 174/236/255 194/257/256 193/256/254
f 174/236/255 175/237/257 195/258/258 194/257/256
f 175/237/257 176/238/259 196/259/260 195/258/258
f 176/238/259 177/239/261 197/260/262 196/259/260
f 177/239/261 178/240/263 198/261/264 197/260/262
f 178/240/263 179/241/265 199/262/266 198/261/264
f 179/241/265 180/242/267 200/263/268 199/262/266
f 180/242/267 181/243/269 201/264/270 200/263/268
f 181/243/269 182/244/271 202/265/272 201/264/270
f 182/244/271 183/245/273 203/266/274 202/265/272
f 183/245/273 184/246/275 204/267/276 203/266/274
f 184/246/275 185/247/277 205/268/278 204/267/276
f 185/247/277 186/248/279 206/269/280 205/268/278
f 186/248/279 187/249/281 207/270/282 206/269/280
f 187/249/281 188/250/283 208/271/284 207/270/282
f 188/250/283 169/251/245 189/272/248 208/271/284
s 2
f 170/212/285 169/211/286 209/293/287
f 171/213/288 170/212/285 209/293/287
f 172/214/289 171/213/288 209/293/287
f 173/215/290 172/214/289 209/293/287
f 174/216/291 173/215/290 209/293/287
f 175/217/292 174/216/291 209/293/287
f 176/218/293 175/217/292 209/293/287
f 177/219/294 176/218/293 209/293/287
f 178/220/295 177/219/294 209/293/287
f 179/221/296 178/220/295 209/293/287
f 180/222/297 179/221/296 209/293/287
f 181/223/298 180/222/297 209/293/287
f 182/224/299 181/223/298 209/293/287
f 183/225/300 182/224/299 209/293/287
f 184/226/301 183/225/300 209/293/287
f 185/227/302 184/226/301 209/293/287
f 186/228/303 185/227/302 209/293/287
f 187/229/304 186/228/303 209/293/287
f 188/230/305 187/229/304 209/293/287
f 169/211/286 188/230/305 209/293/287
s 3
f 189/291/306 190/290/307 210/294/308
f 190/290/307 191/289/309 210/294/308
f 191/289/309 192/288/310 210/294/308
f 192/288/310 193/287/311 210/294/308
f 193/287/311 194/286/312 210/294/308
f 194/286/312 195/285/313 210/294/308
f 195/285/313 196/284/314 210/294/308
f 196/284/314 197/283/315 210/294/308
f 197/283/315 198/282/316 210/294/308
f 198/282/316 199/281/317 210/294/308
f 199/281/317 200/280/318 210/294/308
f 200/280/318 201/279/319 210/294/308
f 201/279/319 202/278/320 210/294/308
f 202/278/320 203/277/321 210/294/308
f 203/277/321 204/276/322 210/294/308
f 204/276/322 205/275/323 210/294/308
f 205/275/323 206/274/324 210/294/308
f 206/274/324 207/273/325 210/294/308
f 207/273/325 208/292/326 210/294/308
f 208/292/326 189/291/306 210/294/308
g default
v 3186.189404 -58.269725 -1035.255645
v 2710.334651 -58.269725 -1969.173234
v 1969.173234 -58.269725 -2710.334451
v 1035.255545 -58.269725 -3186.189005
v 0.000000 -58.269725 -3350.157212
v -1035.255545 -58.269725 -3186.188805
v -1969.172834 -58.269725 -2710.333852
v -2710.333652 -58.269725 -1969.172635
v -3186.188206 -58.269725 -1035.255246
v -3350.156414 -58.269725 0.000000
v -3186.188206 -58.269725 1035.255246
v -2710.333453 -58.269725 1969.172435
v -1969.172435 -58.269725 2710.333253
v -1035.255246 -58.269725 3186.187807
v -0.000100 -58.269725 3350.156014
v 1035.254946 -58.269725 3186.187607
v 1969.172035 -58.269725 2710.333053
v 2710.332854 -58.269725 1969.172235
v 3186.187408 -58.269725 1035.255046
v 3350.155615 -58.269725 0.000000
v 3186.189404 58.269725 -1035.255645
v 2710.334651 58.269725 -1969.173234
v 1969.173234 58.269725 -2710.334451
v 1035.255545 58.269725 -3186.189005
v 0.000000 58.269725 -3350.157212
v -1035.255545 58.269725 -3186.188805
v -1969.172834 58.269725 -2710.333852
v -2710.333652 58.269725 -1969.172635
v -3186.188206 58.269725 -1035.255246
v -3350.156414 58.269725 0.000000
v -3186.188206 58.269725 1035.255246
v -2710.333453 58.269725 1969.172435
v -1969.172435 58.269725 2710.333253
v -1035.255246 58.269725 3186.187807
v -0.000100 58.269725 3350.156014
v 1035.254946 58.269725 3186.187607
v 1969.172035 58.269725 2710.333053
v 2710.332854 58.269725 1969.172235
v 3186.187408 58.269725 1035.255046
v 3350.155615 58.269725 0.000000
v 0.000000 -58.269725 0.000000
v 0.000000 58.269725 0.000000
vt 0.648603 0.107966
vt 0.626409 0.064408
vt 0.591842 0.029841
vt 0.548284 0.007647
vt 0.500000 -0.000000
vt 0.451716 0.007647
vt 0.408159 0.029841
vt 0.373591 0.064409
vt 0.351397 0.107966
vt 0.343750 0.156250
vt 0.351397 0.204534
vt 0.373591 0.248091
vt 0.408159 0.282659
vt 0.451716 0.304853
vt 0.500000 0.312500
vt 0.548284 0.304853
vt 0.591841 0.282659
vt 0.626409 0.248091
vt 0.648603 0.204534
vt 0.656250 0.156250
vt 0.375000 0.312500
vt 0.387500 0.312500
vt 0.400000 0.312500
vt 0.412500 0.312500
vt 0.425000 0.312500
vt 0.437500 0.312500
vt 0.450000 0.312500
vt 0.462500 0.312500
vt 0.475000 0.312500
vt 0.487500 0.312500
vt 0.500000 0.312500
vt 0.512500 0.312500
vt 0.525000 0.312500
vt 0.537500 0.312500
vt 0.550000 0.312500
vt 0.562500 0.312500
vt 0.575000 0.312500
vt 0.587500 0.312500
vt 0.600000 0.312500
vt 0.612500 0.312500
vt 0.625000 0.312500
vt 0.375000 0.687500
vt 0.387500 0.687500
vt 0.400000 0.687500
vt 0.412500 0.687500
vt 0.425000 0.687500
vt 0.437500 0.687500
vt 0.450000 0.687500
vt 0.462500 0.687500
vt 0.475000 0.687500
vt 0.487500 0.687500
vt 0.500000 0.687500
vt 0.512500 0.687500
vt 0.525000 0.687500
vt 0.537500 0.687500
vt 0.550000 0.687500
vt 0.562500 0.687500
vt 0.575000 0.687500
vt 0.587500 0.687500
vt 0.600000 0.687500
vt 0.612500 0.687500
vt 0.625000 0.687500
vt 0.648603 0.795466
vt 0.626409 0.751908
vt 0.591842 0.717341
vt 0.548284 0.695147
vt 0.500000 0.687500
vt 0.451716 0.695147
vt 0.408159 0.717341
vt 0.373591 0.751909
vt 0.351397 0.795466
vt 0.343750 0.843750
vt 0.351397 0.892034
vt 0.373591 0.935591
vt 0.408159 0.970159
vt 0.451716 0.992353
vt 0.500000 1.000000
vt 0.548284 0.992353
vt 0.591841 0.970159
vt 0.626409 0.935591
vt 0.648603 0.892034
vt 0.656250 0.843750
vt 0.500000 0.156250
vt 0.500000 0.843750
vn 0.951057 0.000000 -0.309016
vn 0.809017 0.000000 -0.587785
vn 0.809017 0.000000 -0.587785
vn 0.951057 0.000000 -0.309016
vn 0.587785 0.000000 -0.809017
vn 0.587785 0.000000 -0.809017
vn 0.309017 0.000000 -0.951057
vn 0.309017 0.000000 -0.951057
vn -0.000000 0.000000 -1.000000
vn -0.000000 0.000000 -1.000000
vn -0.309017 0.000000 -0.951056
vn -0.309017 0.000000 -0.951056
vn -0.587785 0.000000 -0.809017
vn -0.587785 0.000000 -0.809017
vn -0.809017 0.000000 -0.587785
vn -0.809017 0.000000 -0.587785
vn -0.951057 0.000000 -0.309017
vn -0.951057 0.000000 -0.309017
vn -1.000000 0.000000 0.000000
vn -1.000000 0.000000 0.000000
vn -0.951056 0.000000 0.309017
vn -0.951056 0.000000 0.309017
vn -0.809017 0.000000 0.587785
vn -0.809017 0.000000 0.587785
vn -0.587785 0.000000 0.809017
vn -0.587785 0.000000 0.809017
vn -0.309017 0.000000 0.951057
vn -0.309017 0.000000 0.951057
vn 0.000000 0.000000 1.000000
vn 0.000000 0.000000 1.000000
vn 0.309017 0.000000 0.951056
vn 0.309017 0.000000 0.951056
vn 0.587785 0.000000 0.809017
vn 0.587785 0.000000 0.809017
vn 0.809017 0.000000 0.587785
vn 0.809017 0.000000 0.587785
vn 0.951057 0.000000 0.309017
vn 0.951057 0.000000 0.309017
vn 1.000000 0.000000 0.000001
vn 1.000000 0.000000 0.000001
vn 0.000000 -1.000000 0.000000
vn 0.000000 -1.000000 0.000000
vn 0.000000 -1.000000 0.000000
vn 0.000000 -1.000000 0.000000
vn 0.000000 -1.000000 0.000000
vn 0.000000 -1.000000 0.000000
vn 0.000000 -1.000000 0.000000
vn 0.000000 -1.000000 0.000000
vn 0.000000 -1.000000 0.000000
vn 0.000000 -1.000000 0.000000
vn 0.000000 -1.000000 0.000000
vn 0.000000 -1.000000 0.000000
vn 0.000000 -1.000000 0.000000
vn 0.000000 -1.000000 0.000000
vn 0.000000 -1.000000 0.000000
vn 0.000000 -1.000000 0.000000
vn 0.000000 -1.000000 0.000000
vn 0.000000 -1.000000 0.000000
vn 0.000000 -1.000000 0.000000
vn 0.000000 -1.000000 0.000000
vn 0.000000 -1.000000 0.000000
vn 0.000000 1.000000 0.000000
vn 0.000000 1.000000 0.000000
vn 0.000000 1.000000 0.000000
vn 0.000000 1.000000 0.000000
vn 0.000000 1.000000 0.000000
vn 0.000000 1.000000 0.000000
vn 0.000000 1.000000 0.000000
vn 0.000000 1.000000 0.000000
vn 0.000000 1.000000 0.000000
vn 0.000000 1.000000 0.000000
vn 0.000000 1.000000 0.000000
vn 0.000000 1.000000 0.000000
vn 0.000000 1.000000 0.000000
vn 0.000000 1.000000 0.000000
vn 0.000000 1.000000 0.000000
vn 0.000000 1.000000 0.000000
vn 0.000000 1.000000 0.000000
vn 0.000000 1.000000 0.000000
vn 0.000000 1.000000 0.000000
vn 0.000000 1.000000 0.000000
vn 0.000000 1.000000 0.000000
s 1
g boss_arena group2 pCylinder2
usemtl initialShadingGroup
f 211/315/327 212/316/328 232/337/329 231/336/330
f 212/316/328 213/317/331 233/338/332 232/337/329
f 213/317/331 214/318/333 234/339/334 233/338/332
f 214/318/333 215/319/335 235/340/336 234/339/334
f 215/319/335 216/320/337 236/341/338 235/340/336
f 216/320/337 217/321/339 237/342/340 236/341/338
f 217/321/339 218/322/341 238/343/342 237/342/340
f 218/322/341 219/323/343 239/344/344 238/343/342
f 219/323/343 220/324/345 240/345/346 239/344/344
f 220/324/345 221/325/347 241/346/348 240/345/346
f 221/325/347 222/326/349 242/347/350 241/346/348
f 222/326/349 223/327/351 243/348/352 242/347/350
f 223/327/351 224/328/353 244/349/354 243/348/352
f 224/328/353 225/329/355 245/350/356 244/349/354
f 225/329/355 226/330/357 246/351/358 245/350/356
f 226/330/357 227/331/359 247/352/360 246/351/358
f 227/331/359 228/332/361 248/353/362 247/352/360
f 228/332/361 229/333/363 249/354/364 248/353/362
f 229/333/363 230/334/365 250/355/366 249/354/364
f 230/334/365 211/335/327 231/356/330 250/355/366
s 2
f 212/296/367 211/295/368 251/377/369
f 213/297/370 212/296/367 251/377/369
f 214/298/371 213/297/370 251/377/369
f 215/299/372 214/298/371 251/377/369
f 216/300/373 215/299/372 251/377/369
f 217/301/374 216/300/373 251/377/369
f 218/302/375 217/301/374 251/377/369
f 219/303/376 218/302/375 251/377/369
f 220/304/377 219/303/376 251/377/369
f 221/305/378 220/304/377 251/377/369
f 222/306/379 221/305/378 251/377/369
f 223/307/380 222/306/379 251/377/369
f 224/308/381 223/307/380 251/377/369
f 225/309/382 224/308/381 251/377/369
f 226/310/383 225/309/382 251/377/369
f 227/311/384 226/310/383 251/377/369
f 228/312/385 227/311/384 251/377/369
f 229/313/386 228/312/385 251/377/369
f 230/314/387 229/313/386 251/377/369
f 211/295/368 230/314/387 251/377/369
s 3
f 231/375/388 232/374/389 252/378/390
f 232/374/389 233/373/391 252/378/390
f 233/373/391 234/372/392 252/378/390
f 234/372/392 235/371/393 252/378/390
f 235/371/393 236/370/394 252/378/390
f 236/370/394 237/369/395 252/378/390
f 237/369/395 238/368/396 252/378/390
f 238/368/396 239/367/397 252/378/390
f 239/367/397 240/366/398 252/378/390
f 240/366/398 241/365/399 252/378/390
f 241/365/399 242/364/400 252/378/390
f 242/364/400 243/363/401 252/378/390
f 243/363/401 244/362/402 252/378/390
f 244/362/402 245/361/403 252/378/390
f 245/361/403 246/360/404 252/378/390
f 246/360/404 247/359/405 252/378/390
f 247/359/405 248/358/406 252/378/390
f 248/358/406 249/357/407 252/378/390
f 249/357/407 250/376/408 252/378/390
f 250/376/408 231/375/388 252/378/390
g default
v 3195.721482 0.000067 -1038.352805
v 2718.443121 0.000067 -1975.064381
v 1975.064381 0.000067 -2718.442920
v 1038.352705 0.000067 -3195.721081
v 0.000000 0.000067 -3360.179830
v -1038.352705 0.000067 -3195.720881
v -1975.063981 0.000067 -2718.442319
v -2718.442119 0.000067 -1975.063780
v -3195.720280 0.000067 -1038.352404
v -3360.179029 0.000067 0.000000
v -3195.720280 0.000067 1038.352404
v -2718.441919 0.000067 1975.063580
v -1975.063580 0.000067 2718.441719
v -1038.352404 0.000067 3195.719880
v -0.000100 0.000067 3360.178628
v 3195.721482 3462.742877 -1038.352805
v 2718.443121 3462.742877 -1975.064381
v 1975.064381 3462.742877 -2718.442920
v 1038.352705 3462.742877 -3195.721081
v 0.000000 3462.742877 -3360.179830
v -1038.352705 3462.742877 -3195.720881
v -1975.063981 3462.742877 -2718.442319
v -2718.442119 3462.742877 -1975.063780
v -3195.720280 3462.742877 -1038.352404
v -3360.179029 3462.742877 -0.000000
v -3195.720280 3462.742877 1038.352404
v -2718.441919 3462.742877 1975.063580
v -1975.063580 3462.742877 2718.441719
v -1038.352404 3462.742877 3195.719880
v -0.000100 3462.742877 3360.178628
vt 0.375000 0.312500
vt 0.387500 0.312500
vt 0.400000 0.312500
vt 0.412500 0.312500
vt 0.425000 0.312500
vt 0.437500 0.312500
vt 0.450000 0.312500
vt 0.462500 0.312500
vt 0.475000 0.312500
vt 0.487500 0.312500
vt 0.500000 0.312500
vt 0.512500 0.312500
vt 0.525000 0.312500
vt 0.537500 0.312500
vt 0.550000 0.312500
vt 0.375000 0.687500
vt 0.387500 0.687500
vt 0.400000 0.687500
vt 0.412500 0.687500
vt 0.425000 0.687500
vt 0.437500 0.687500
vt 0.450000 0.687500
vt 0.462500 0.687500
vt 0.475000 0.687500
vt 0.487500 0.687500
vt 0.500000 0.687500
vt 0.512500 0.687500
vt 0.525000 0.687500
vt 0.537500 0.687500
vt 0.550000 0.687500
vn -0.891006 0.000000 0.453991
vn -0.891006 0.000000 0.453991
vn -0.809017 0.000000 0.587785
vn -0.809017 0.000000 0.587785
vn -0.587785 0.000000 0.809017
vn -0.587785 0.000000 0.809017
vn -0.309017 0.000000 0.951057
vn -0.309017 0.000000 0.951057
vn 0.000000 0.000000 1.000000
vn 0.000000 0.000000 1.000000
vn 0.309017 0.000000 0.951056
vn 0.309017 0.000000 0.951056
vn 0.587786 0.000000 0.809017
vn 0.587786 0.000000 0.809017
vn 0.809017 0.000000 0.587785
vn 0.809017 0.000000 0.587785
vn 0.951057 0.000000 0.309017
vn 0.951057 0.000000 0.309017
vn 1.000000 0.000000 0.000000
vn 1.000000 0.000000 0.000000
vn 0.951056 0.000000 -0.309017
vn 0.951056 0.000000 -0.309017
vn 0.809017 0.000000 -0.587785
vn 0.809017 0.000000 -0.587785
vn 0.587785 0.000000 -0.809017
vn 0.587785 0.000000 -0.809017
vn 0.309017 0.000000 -0.951057
vn 0.309017 0.000000 -0.951057
vn 0.156434 0.000000 -0.987688
vn 0.156434 0.000000 -0.987688
s 1
g boss_arena group2 pCylinder1
usemtl initialShadingGroup
f 253/379/409 268/394/410 269/395/411 254/380/412
f 254/380/412 269/395/411 270/396/413 255/381/414
f 255/381/414 270/396/413 271/397/415 256/382/416
f 256/382/416 271/397/415 272/398/417 257/383/418
f 257/383/418 272/398/417 273/399/419 258/384/420
f 258/384/420 273/399/419 274/400/421 259/385/422
f 259/385/422 274/400/421 275/401/423 260/386/424
f 260/386/424 275/401/423 276/402/425 261/387/426
f 261/387/426 276/402/425 277/403/427 262/388/428
f 262/388/428 277/403/427 278/404/429 263/389/430
f 263/389/430 278/404/429 279/405/431 264/390/432
f 264/390/432 279/405/431 280/406/433 265/391/434
f 265/391/434 280/406/433 281/407/435 266/392/436
f 266/392/436 281/407/435 282/408/437 267/393/438
