# This file uses centimeters as units for non-parametric coordinates.

mtllib TestingTransparent.mtl
g default
v -4.381545 -4.051996 3.601824
v -4.051996 -4.381545 3.601824
v -3.601824 -4.502168 3.601824
v -3.601824 -4.381545 4.051996
v -3.601824 -4.051996 4.381545
v -3.601824 -3.601824 4.502168
v -4.051996 -3.601824 4.381545
v -4.381545 -3.601824 4.051996
v -4.502168 -3.601824 3.601824
v 4.051996 -4.381545 3.601824
v 4.381545 -4.051996 3.601824
v 4.502168 -3.601824 3.601824
v 4.381545 -3.601824 4.051996
v 4.051996 -3.601824 4.381545
v 3.601824 -3.601824 4.502168
v 3.601824 -4.051996 4.381545
v 3.601824 -4.381545 4.051996
v 3.601824 -4.502168 3.601824
v -4.051996 4.381545 3.601824
v -4.381545 4.051996 3.601824
v -4.502168 3.601824 3.601824
v -4.381545 3.601824 4.051996
v -4.051996 3.601824 4.381545
v -3.601824 3.601824 4.502168
v -3.601824 4.051996 4.381545
v -3.601824 4.381545 4.051996
v -3.601824 4.502168 3.601824
v 4.381545 4.051996 3.601824
v 4.051996 4.381545 3.601824
v 3.601824 4.502168 3.601824
v 3.601824 4.381545 4.051996
v 3.601824 4.051996 4.381545
v 3.601824 3.601824 4.502168
v 4.051996 3.601824 4.381545
v 4.381545 3.601824 4.051996
v 4.502168 3.601824 3.601824
v -4.051996 3.601824 -4.381545
v -4.381545 3.601824 -4.051996
v -4.502168 3.601824 -3.601824
v -4.381545 4.051996 -3.601824
v -4.051996 4.381545 -3.601824
v -3.601824 4.502168 -3.601824
v -3.601824 4.381545 -4.051996
v -3.601824 4.051996 -4.381545
v -3.601824 3.601824 -4.502168
v 4.381545 3.601824 -4.051996
v 4.051996 3.601824 -4.381545
v 3.601824 3.601824 -4.502168
v 3.601824 4.051996 -4.381545
v 3.601824 4.381545 -4.051996
v 3.601824 4.502168 -3.601824
v 4.051996 4.381545 -3.601824
v 4.381545 4.051996 -3.601824
v 4.502168 3.601824 -3.601824
v -4.051996 -4.381545 -3.601824
v -4.381545 -4.051996 -3.601824
v -4.502168 -3.601824 -3.601824
v -4.381545 -3.601824 -4.051996
v -4.051996 -3.601824 -4.381545
v -3.601824 -3.601824 -4.502168
v -3.601824 -4.051996 -4.381545
v -3.601824 -4.381545 -4.051996
v -3.601824 -4.502168 -3.601824
v 4.381545 -4.051996 -3.601824
v 4.051996 -4.381545 -3.601824
v 3.601824 -4.502168 -3.601824
v 3.601824 -4.381545 -4.051996
v 3.601824 -4.051996 -4.381545
v 3.601824 -3.601824 -4.502168
v 4.051996 -3.601824 -4.381545
v 4.381545 -3.601824 -4.051996
v 4.502168 -3.601824 -3.601824
v -4.313839 -3.990849 3.990849
v -3.990849 -4.313839 3.990849
v -3.990849 -3.990849 4.313839
v 3.990849 -4.313839 3.990849
v 4.313839 -3.990849 3.990849
v 3.990849 -3.990849 4.313839
v -3.990849 4.313839 3.990849
v -4.313839 3.990849 3.990849
v -3.990849 3.990849 4.313839
v 4.313839 3.990849 3.990849
v 3.990849 4.313839 3.990849
v 3.990849 3.990849 4.313839
v -3.990849 3.990849 -4.313839
v -4.313839 3.990849 -3.990849
v -3.990849 4.313839 -3.990849
v 4.313839 3.990849 -3.990849
v 3.990849 3.990849 -4.313839
v 3.990849 4.313839 -3.990849
v -3.990849 -4.313839 -3.990849
v -4.313839 -3.990849 -3.990849
v -3.990849 -3.990849 -4.313839
v 4.313839 -3.990849 -3.990849
v 3.990849 -4.313839 -3.990849
v 3.990849 -3.990849 -4.313839
vt 0.399998 0.975003
vt 0.399998 0.024998
vt 0.600003 0.975003
vt 0.649997 0.024998
vt 0.399998 0.225002
vt 0.600003 0.225003
vt 0.649997 0.225002
vt 0.149998 0.024998
vt 0.399998 0.475002
vt 0.600003 0.475002
vt 0.850002 0.225003
vt 0.850003 0.024998
vt 0.600003 0.774997
vt 0.399998 0.725003
vt 0.600003 0.725003
vt 0.600003 0.024998
vt 0.399998 0.274998
vt 0.600003 0.274998
vt 0.399998 0.524997
vt 0.600003 0.524997
vt 0.399998 0.774997
vt 0.350002 0.024998
vt 0.350003 0.225003
vt 0.149998 0.225002
vt 0.451270 0.750000
vt 0.353811 -0.000000
vt 0.427747 0.854672
vt 0.391607 -0.000000
vt 0.463869 0.750000
vt 0.395737 0.038547
vt 0.383235 0.057802
vt 0.366614 0.039488
vt 0.572253 0.854672
vt 0.646189 -0.000000
vt 0.548730 0.750000
vt 0.633386 0.023784
vt 0.616765 0.024214
vt 0.604263 0.012399
vt 0.536131 0.750000
vt 0.608393 0.000000
vt 0.387584 0.268756
vt 0.362518 0.250000
vt 0.375000 0.262482
vt 0.367571 0.226406
vt 0.384038 0.226068
vt 0.400041 0.241598
vt 0.400080 0.258164
vt 0.625000 0.262482
vt 0.637482 0.250000
vt 0.612416 0.268755
vt 0.599920 0.258161
vt 0.599959 0.241593
vt 0.615962 0.225869
vt 0.632429 0.226254
vt 0.387599 0.518778
vt 0.125000 0.237518
vt 0.375000 0.512482
vt 0.375000 0.487518
vt 0.137482 0.250000
vt 0.387599 0.481222
vt 0.400141 0.491745
vt 0.400141 0.508255
vt 0.625000 0.512482
vt 0.875000 0.237518
vt 0.612401 0.518778
vt 0.599859 0.508255
vt 0.599859 0.491745
vt 0.612401 0.481222
vt 0.862518 0.250000
vt 0.625000 0.487518
vt 0.389664 0.762344
vt 0.137025 -0.000000
vt 0.379008 0.750000
vt 0.375000 0.737518
vt 0.125000 0.012482
vt 0.387608 0.731194
vt 0.400177 0.741631
vt 0.400199 0.758073
vt 0.620992 0.750000
vt 0.862975 -0.000000
vt 0.610336 0.762344
vt 0.599801 0.758073
vt 0.599823 0.741631
vt 0.612392 0.731194
vt 0.875000 0.012482
vt 0.625000 0.737518
vt 0.365836 0.000000
vt 0.455279 0.750000
vt 0.379582 0.000000
vt 0.459861 0.750000
vt 0.382807 0.421581
vt 0.620418 0.000000
vt 0.540139 0.750000
vt 0.634164 -0.000000
vt 0.544721 0.750000
vt 0.617193 0.009913
vt 0.389327 0.256875
vt 0.375000 0.250000
vt 0.388446 0.241159
vt 0.625000 0.250000
vt 0.610673 0.256861
vt 0.611554 0.241096
vt 0.389565 0.507221
vt 0.375000 0.500000
vt 0.125000 0.250000
vt 0.389565 0.492779
vt 0.625000 0.500000
vt 0.875000 0.250000
vt 0.610435 0.507221
vt 0.610435 0.492779
vt 0.390214 0.755197
vt 0.375000 0.750000
vt 0.125000 0.000000
vt 0.389704 0.742347
vt 0.625000 0.750000
vt 0.875000 0.000000
vt 0.609786 0.755197
vt 0.610296 0.742347
vn -0.015531 -0.999759 0.015531
vn -0.499791 -0.866064 0.011923
vn -0.499791 -0.866064 -0.011923
vn -0.015531 -0.999759 -0.015531
vn -0.866064 -0.499790 0.011923
vn -0.866064 -0.499790 -0.011923
vn -0.999759 -0.015531 0.015531
vn -0.999759 -0.015531 -0.015531
vn -0.015531 -0.015531 0.999759
vn -0.011923 -0.499790 0.866064
vn 0.011923 -0.499790 0.866064
vn 0.015531 -0.015531 0.999759
vn -0.011923 -0.866064 0.499791
vn 0.011923 -0.866064 0.499791
vn 0.015531 -0.999759 0.015531
vn -0.866064 -0.011923 0.499790
vn -0.866064 0.011923 0.499790
vn -0.999759 0.015531 0.015531
vn -0.499791 -0.011923 0.866064
vn -0.499791 0.011923 0.866064
vn -0.015531 0.015531 0.999759
vn 0.999759 -0.015531 0.015531
vn 0.866064 -0.499790 0.011923
vn 0.866064 -0.499790 -0.011923
vn 0.999759 -0.015531 -0.015531
vn 0.499791 -0.866064 0.011923
vn 0.499791 -0.866064 -0.011923
vn 0.015531 -0.999759 -0.015531
vn 0.499791 -0.011923 0.866064
vn 0.499791 0.011923 0.866064
vn 0.015531 0.015531 0.999759
vn 0.866064 -0.011923 0.499790
vn 0.866064 0.011923 0.499790
vn 0.999759 0.015531 0.015531
vn -0.866064 0.499790 0.011923
vn -0.866064 0.499790 -0.011923
vn -0.999759 0.015531 -0.015531
vn -0.499791 0.866064 0.011923
vn -0.499791 0.866064 -0.011923
vn -0.015531 0.999759 0.015531
vn -0.015531 0.999759 -0.015531
vn -0.011923 0.866064 0.499791
vn 0.011923 0.866064 0.499791
vn 0.015531 0.999759 0.015531
vn -0.011923 0.499790 0.866064
vn 0.011923 0.499790 0.866064
vn 0.499791 0.866064 0.011923
vn 0.499791 0.866064 -0.011923
vn 0.015531 0.999759 -0.015531
vn 0.866064 0.499790 0.011923
vn 0.866064 0.499790 -0.011923
vn 0.999759 0.015531 -0.015531
vn -0.866064 0.011923 -0.499790
vn -0.866064 -0.011923 -0.499790
vn -0.499791 0.011923 -0.866064
vn -0.499791 -0.011923 -0.866064
vn -0.015531 0.015531 -0.999759
vn -0.015531 -0.015531 -0.999759
vn -0.011923 0.499790 -0.866064
vn 0.011923 0.499790 -0.866064
vn 0.015531 0.015531 -0.999759
vn -0.011923 0.866064 -0.499791
vn 0.011923 0.866064 -0.499791
vn 0.499791 0.011923 -0.866064
vn 0.499791 -0.011923 -0.866064
vn 0.015531 -0.015531 -0.999759
vn 0.866064 0.011923 -0.499790
vn 0.866064 -0.011923 -0.499790
vn -0.011923 -0.866064 -0.499791
vn 0.011923 -0.866064 -0.499791
vn -0.011923 -0.499790 -0.866064
vn 0.011923 -0.499790 -0.866064
vn -0.809119 -0.415528 0.415528
vn -0.415528 -0.809119 0.415528
vn -0.415528 -0.415528 0.809119
vn 0.415528 -0.809119 0.415528
vn 0.809119 -0.415528 0.415528
vn 0.415528 -0.415528 0.809119
vn -0.415528 0.809119 0.415528
vn -0.809119 0.415528 0.415528
vn -0.415528 0.415528 0.809119
vn 0.809119 0.415528 0.415528
vn 0.415528 0.809119 0.415528
vn 0.415528 0.415528 0.809119
vn -0.415528 0.415528 -0.809119
vn -0.809119 0.415528 -0.415528
vn -0.415528 0.809119 -0.415528
vn 0.809119 0.415528 -0.415528
vn 0.415528 0.415528 -0.809119
vn 0.415528 0.809119 -0.415528
vn -0.415528 -0.809119 -0.415528
vn -0.809119 -0.415528 -0.415528
vn -0.415528 -0.415528 -0.809119
vn 0.809119 -0.415528 -0.415528
vn 0.415528 -0.809119 -0.415528
vn 0.415528 -0.415528 -0.809119
s 1
g pCube1
usemtl initialShadingGroup
f 3/1/1 2/27/2 55/71/3 63/21/4
f 2/27/2 1/25/5 56/73/6 55/71/3
f 1/26/5 9/22/7 57/8/8 56/72/6
f 6/2/9 5/30/10 16/38/11 15/16/12
f 5/30/10 4/28/13 17/40/14 16/38/11
f 4/29/13 3/1/1 18/3/15 17/39/14
f 9/22/7 8/32/16 22/44/17 21/23/18
f 8/32/16 7/31/19 23/45/20 22/44/17
f 7/31/19 6/2/9 24/5/21 23/45/20
f 12/4/22 11/34/23 64/80/24 72/12/25
f 11/35/23 10/33/26 65/81/27 64/79/24
f 10/33/26 18/3/15 66/13/28 65/81/27
f 15/16/12 14/37/29 34/53/30 33/6/31
f 14/37/29 13/36/32 35/54/33 34/53/30
f 13/36/32 12/4/22 36/7/34 35/54/33
f 21/23/18 20/42/35 40/59/36 39/24/37
f 20/43/35 19/41/38 41/60/39 40/58/36
f 19/41/38 27/17/40 42/9/41 41/60/39
f 27/17/40 26/47/42 31/51/43 30/18/44
f 26/47/42 25/46/45 32/52/46 31/51/43
f 25/46/45 24/5/21 33/6/31 32/52/46
f 30/18/44 29/50/47 52/68/48 51/10/49
f 29/50/47 28/48/50 53/70/51 52/68/48
f 28/49/50 36/7/34 54/11/52 53/69/51
f 39/24/37 38/56/53 58/75/54 57/8/8
f 38/57/53 37/55/55 59/76/56 58/74/54
f 37/55/55 45/19/57 60/14/58 59/76/56
f 45/19/57 44/62/59 49/66/60 48/20/61
f 44/62/59 43/61/62 50/67/63 49/66/60
f 43/61/62 42/9/41 51/10/49 50/67/63
f 48/20/61 47/65/64 70/84/65 69/15/66
f 47/65/64 46/63/67 71/86/68 70/84/65
f 46/64/67 54/11/52 72/12/25 71/85/68
f 63/21/4 62/78/69 67/82/70 66/13/28
f 62/78/69 61/77/71 68/83/72 67/82/70
f 61/77/71 60/14/58 69/15/66 68/83/72
f 6/2/9 15/16/12 33/6/31 24/5/21
f 27/17/40 30/18/44 51/10/49 42/9/41
f 45/19/57 48/20/61 69/15/66 60/14/58
f 63/21/4 66/13/28 18/3/15 3/1/1
f 12/4/22 72/12/25 54/11/52 36/7/34
f 57/8/8 9/22/7 21/23/18 39/24/37
f 8/32/16 9/22/7 1/26/5 73/87/73
f 73/88/73 1/25/5 2/27/2 74/90/74
f 2/27/2 3/1/1 4/29/13 74/90/74
f 74/89/74 4/28/13 5/30/10 75/91/75
f 5/30/10 6/2/9 7/31/19 75/91/75
f 75/91/75 7/31/19 8/32/16 73/87/73
f 73/87/73 74/89/74 75/91/75
f 17/39/14 18/3/15 10/33/26 76/93/76
f 76/93/76 10/33/26 11/35/23 77/95/77
f 11/34/23 12/4/22 13/36/32 77/94/77
f 77/94/77 13/36/32 14/37/29 78/96/78
f 14/37/29 15/16/12 16/38/11 78/96/78
f 78/96/78 16/38/11 17/40/14 76/92/76
f 76/92/76 77/94/77 78/96/78
f 26/47/42 27/17/40 19/41/38 79/97/79
f 79/97/79 19/41/38 20/43/35 80/98/80
f 20/42/35 21/23/18 22/44/17 80/98/80
f 80/98/80 22/44/17 23/45/20 81/99/81
f 23/45/20 24/5/21 25/46/45 81/99/81
f 81/99/81 25/46/45 26/47/42 79/97/79
f 79/97/79 80/98/80 81/99/81
f 35/54/33 36/7/34 28/49/50 82/100/82
f 82/100/82 28/48/50 29/50/47 83/101/83
f 29/50/47 30/18/44 31/51/43 83/101/83
f 83/101/83 31/51/43 32/52/46 84/102/84
f 32/52/46 33/6/31 34/53/30 84/102/84
f 84/102/84 34/53/30 35/54/33 82/100/82
f 82/100/82 83/101/83 84/102/84
f 44/62/59 45/19/57 37/55/55 85/103/85
f 85/103/85 37/55/55 38/57/53 86/104/86
f 38/56/53 39/24/37 40/59/36 86/105/86
f 86/104/86 40/58/36 41/60/39 87/106/87
f 41/60/39 42/9/41 43/61/62 87/106/87
f 87/106/87 43/61/62 44/62/59 85/103/85
f 85/103/85 86/104/86 87/106/87
f 53/69/51 54/11/52 46/64/67 88/108/88
f 88/107/88 46/63/67 47/65/64 89/109/89
f 47/65/64 48/20/61 49/66/60 89/109/89
f 89/109/89 49/66/60 50/67/63 90/110/90
f 50/67/63 51/10/49 52/68/48 90/110/90
f 90/110/90 52/68/48 53/70/51 88/107/88
f 88/107/88 89/109/89 90/110/90
f 62/78/69 63/21/4 55/71/3 91/111/91
f 91/111/91 55/71/3 56/73/6 92/112/92
f 56/72/6 57/8/8 58/75/54 92/113/92
f 92/112/92 58/74/54 59/76/56 93/114/93
f 59/76/56 60/14/58 61/77/71 93/114/93
f 93/114/93 61/77/71 62/78/69 91/111/91
f 91/111/91 92/112/92 93/114/93
f 71/85/68 72/12/25 64/80/24 94/116/94
f 94/115/94 64/79/24 65/81/27 95/117/95
f 65/81/27 66/13/28 67/82/70 95/117/95
f 95/117/95 67/82/70 68/83/72 96/118/96
f 68/83/72 69/15/66 70/84/65 96/118/96
f 96/118/96 70/84/65 71/86/68 94/115/94
f 94/115/94 95/117/95 96/118/96
