# This file uses centimeters as units for non-parametric coordinates.

v -1888.664015 -0.000038 2658.166255
v -1888.664015 -0.000023 2501.334224
v -2045.496077 -0.000023 2501.334224
v -1573.664045 -0.000023 2501.334224
v -1573.664045 -0.000038 2658.166255
v -1906.152327 -0.000030 2593.432857
v -1937.200972 -0.000025 2550.132564
v -1980.440107 -0.000022 2518.998897
v -2031.351728 -0.000022 2503.284785
v -1890.538282 -0.000036 2644.375239
v -1888.664015 -0.000015 2186.334285
v -2045.496077 -0.000015 2186.334285
v -1573.664045 -0.000015 2186.334285
v -1888.664015 -0.000038 1714.502315
v -1888.664015 -0.000023 1871.334346
v -2045.496077 -0.000023 1871.334346
v -1573.664045 -0.000023 1871.334346
v -1573.664045 -0.000038 1714.502315
v -1906.152327 -0.000030 1779.235713
v -1937.200972 -0.000025 1822.536006
v -1980.440107 -0.000022 1853.669673
v -2031.351728 -0.000022 1869.383784
v -1890.538282 -0.000036 1728.293330
v -1258.664076 -0.000038 2658.166255
v -1258.664076 -0.000023 2501.334224
v -1101.832014 -0.000023 2501.334224
v -1241.175764 -0.000030 2593.432857
v -1210.127119 -0.000025 2550.132564
v -1166.887983 -0.000022 2518.998897
v -1115.976362 -0.000022 2503.284785
v -1256.789808 -0.000036 2644.375239
v -1258.664076 -0.000015 2186.334285
v -1101.832014 -0.000015 2186.334285
v -1258.664076 -0.000038 1714.502315
v -1258.664076 -0.000023 1871.334346
v -1101.832014 -0.000023 1871.334346
v -1241.175764 -0.000030 1779.235713
v -1210.127119 -0.000025 1822.536006
v -1166.887983 -0.000022 1853.669673
v -1115.976362 -0.000022 1869.383784
v -1256.789808 -0.000036 1728.293330
vt 0.375000 0.375000
vt 0.500000 0.375000
vt 0.531250 0.375000
vt 0.531250 0.250000
vt 0.381401 0.368599
vt 0.500000 0.250000
vt 0.493744 0.256256
vt 0.465622 0.284378
vt 0.437500 0.312500
vt 0.409451 0.340549
vt 0.500000 0.437500
vt 0.375000 0.437500
vt 0.531250 0.437500
vt 0.375000 0.375000
vt 0.500000 0.375000
vt 0.500000 0.437500
vt 0.375000 0.437500
vt 0.531250 0.375000
vt 0.531250 0.437500
vt 0.500000 0.250000
vt 0.531250 0.250000
vt 0.465622 0.284378
vt 0.493744 0.256256
vt 0.381401 0.368599
vt 0.409451 0.340549
vt 0.437500 0.312500
vt 0.375000 0.375000
vt 0.500000 0.375000
vt 0.500000 0.437500
vt 0.375000 0.437500
vt 0.531250 0.375000
vt 0.531250 0.437500
vt 0.500000 0.250000
vt 0.531250 0.250000
vt 0.465622 0.284378
vt 0.493744 0.256256
vt 0.381401 0.368599
vt 0.409451 0.340549
vt 0.437500 0.312500
vt 0.375000 0.375000
vt 0.375000 0.437500
vt 0.500000 0.437500
vt 0.500000 0.375000
vt 0.531250 0.437500
vt 0.531250 0.375000
vt 0.500000 0.250000
vt 0.531250 0.250000
vt 0.465622 0.284378
vt 0.437500 0.312500
vt 0.409451 0.340549
vt 0.381401 0.368599
vt 0.493744 0.256256
f 3/1 2/2 11/11 12/12
f 2/2 4/3 13/13 11/11
f 1/6 5/4 4/3 2/2
f 6/8 10/7 1/6 2/2 3/1 9/5 8/10 7/9
f 16/14 12/17 11/16 15/15
f 15/15 11/16 13/19 17/18
f 14/20 15/15 17/18 18/21
f 19/22 20/26 21/25 22/24 16/14 15/15 14/20 23/23
f 26/27 33/30 32/29 25/28
f 25/28 32/29 13/32 4/31
f 24/33 25/28 4/31 5/34
f 27/35 28/39 29/38 30/37 26/27 25/28 24/33 31/36
f 36/40 35/43 32/42 33/41
f 35/43 17/45 13/44 32/42
f 34/46 18/47 17/45 35/43
f 37/48 41/52 34/46 35/43 36/40 40/51 39/50 38/49
