# This file uses centimeters as units for non-parametric coordinates.

mtllib ZebraLine.mtl
g default
v 6714.442348 -8.315000 5204.679054
v 5883.408348 -8.315000 5204.679054
v 6714.442348 -8.315000 6035.713054
v 5883.408348 -8.315000 6035.713054
vt 0.000000 0.000000
vt 1.000000 0.000000
vt 0.000000 1.000000
vt 1.000000 1.000000
vn 0.000000 1.000000 0.000000
vn 0.000000 1.000000 0.000000
vn 0.000000 1.000000 0.000000
vn 0.000000 1.000000 0.000000
s off
g D_S_18:Road_Zebra DS_09 DS Street
usemtl D_S_18:aiStandardSurface5SG
f 4/4/1 3/3/2 1/1/3 2/2/4
g default
v 6714.442348 -8.315000 5204.679054
v 5883.408348 -8.315000 5204.679054
v 6714.442348 -8.315000 6035.713054
v 5883.408348 -8.315000 6035.713054
vt 0.000000 0.000000
vt 1.000000 0.000000
vt 0.000000 1.000000
vt 1.000000 1.000000
vn 0.000000 1.000000 0.000000
vn 0.000000 1.000000 0.000000
vn 0.000000 1.000000 0.000000
vn 0.000000 1.000000 0.000000
s off
g D_S_18:Road_Zebra DS_09 DS Street
f 8/8/5 7/7/6 5/5/7 6/6/8
