# This file uses centimeters as units for non-parametric coordinates.

v -129.177368 -1.044387 180.400085
v 129.177368 -1.044387 180.400085
v -129.177368 234.300613 0.000880
v 129.177368 234.300613 0.000880
v -129.177368 234.300613 -0.000878
v 129.177368 234.300613 -0.000878
v -129.177368 -1.044370 -180.400085
v 129.177368 -1.044387 -180.400085
vt 0.375000 0.000000
vt 0.625000 0.000000
vt 0.625000 0.250000
vt 0.375000 0.250000
vt 0.625000 0.500000
vt 0.375000 0.500000
vt 0.625000 0.750000
vt 0.375000 0.750000
vt 0.625000 1.000000
vt 0.375000 1.000000
vt 0.875000 0.000000
vt 0.875000 0.250000
vt 0.125000 0.000000
vt 0.125000 0.250000
f 4/3 3/4 1/1 2/2
f 6/5 5/6 3/4 4/3
f 8/7 7/8 5/6 6/5
f 1/10 7/8 8/7 2/9
f 2/2 8/11 6/12 4/3
f 7/13 1/1 3/4 5/14
v 167.984573 250.705978 0.000003
v 159.433823 266.308533 -5.069534
v 165.480057 264.023804 -4.327250
v 167.984573 258.508362 -2.535221
v 159.433823 263.978271 -9.642830
v 165.480057 262.034729 -8.230869
v 167.984573 257.343140 -4.822097
v 159.433823 260.348816 -13.272218
v 165.480057 258.936951 -11.328849
v 167.984573 255.528000 -6.637142
v 159.433823 255.775589 -15.602427
v 165.480057 255.033127 -13.317859
v 167.984573 253.241043 -7.802415
v 159.433823 250.705978 -16.405361
v 165.480057 250.705978 -14.003223
v 167.984573 250.705978 -8.203946
v 159.433823 245.636368 -15.602427
v 165.480057 246.378860 -13.317858
v 167.984573 248.170944 -7.802415
v 159.433823 241.063187 -13.272215
v 165.480057 242.475021 -11.328849
v 167.984573 245.883957 -6.637140
v 159.433823 237.433701 -9.642827
v 165.480057 239.377243 -8.230865
v 167.984573 244.068832 -4.822093
v 159.433823 235.103409 -5.069532
v 165.480057 237.388138 -4.327249
v 167.984573 242.903580 -2.535218
v 159.433823 234.300613 0.000003
v 165.480057 236.702744 0.000003
v 167.984573 242.502060 0.000003
v 159.433823 235.103409 5.069538
v 165.480057 237.388138 4.327254
v 167.984573 242.903580 2.535223
v 159.433823 237.433701 9.642830
v 165.480057 239.377243 8.230870
v 167.984573 244.068832 4.822096
v 159.433823 241.063187 13.272216
v 165.480057 242.475021 11.328847
v 167.984573 245.883957 6.637143
v 159.433823 245.636368 15.602427
v 165.480057 246.378860 13.317855
v 167.984573 248.170944 7.802416
v 159.433823 250.705978 16.405361
v 165.480057 250.705978 14.003222
v 167.984573 250.705978 8.203944
v 159.433823 255.775589 15.602426
v 165.480057 255.033127 13.317853
v 167.984573 253.241043 7.802415
v 159.433823 260.348816 13.272214
v 165.480057 258.936951 11.328846
v 167.984573 255.528000 6.637141
v 159.433823 263.978271 9.642829
v 165.480057 262.034729 8.230869
v 167.984573 257.343140 4.822095
v 159.433823 266.308533 5.069537
v 165.480057 264.023804 4.327253
v 167.984573 258.508362 2.535222
v 159.433823 267.111328 0.000003
v 165.480057 264.709229 0.000002
v 167.984573 258.909912 0.000002
v -167.984573 250.705978 0.000003
v -159.433823 266.308533 -5.069534
v -165.480057 264.023804 -4.327250
v -167.984573 258.508362 -2.535221
v -159.433823 263.978271 -9.642830
v -165.480057 262.034729 -8.230869
v -167.984573 257.343140 -4.822097
v -159.433823 260.348816 -13.272218
v -165.480057 258.936951 -11.328849
v -167.984573 255.528000 -6.637142
v -159.433823 255.775589 -15.602427
v -165.480057 255.033127 -13.317859
v -167.984573 253.241043 -7.802415
v -159.433823 250.705978 -16.405361
v -165.480057 250.705978 -14.003223
v -167.984573 250.705978 -8.203946
v -159.433823 245.636368 -15.602427
v -165.480057 246.378860 -13.317858
v -167.984573 248.170944 -7.802415
v -159.433823 241.063187 -13.272215
v -165.480057 242.475021 -11.328849
v -167.984573 245.883957 -6.637140
v -159.433823 237.433701 -9.642827
v -165.480057 239.377243 -8.230865
v -167.984573 244.068832 -4.822093
v -159.433823 235.103409 -5.069532
v -165.480057 237.388138 -4.327249
v -167.984573 242.903580 -2.535218
v -159.433823 234.300613 0.000003
v -165.480057 236.702744 0.000003
v -167.984573 242.502060 0.000003
v -159.433823 235.103409 5.069538
v -165.480057 237.388138 4.327254
v -167.984573 242.903580 2.535223
v -159.433823 237.433701 9.642830
v -165.480057 239.377243 8.230870
v -167.984573 244.068832 4.822096
v -159.433823 241.063187 13.272216
v -165.480057 242.475021 11.328847
v -167.984573 245.883957 6.637143
v -159.433823 245.636368 15.602427
v -165.480057 246.378860 13.317855
v -167.984573 248.170944 7.802416
v -159.433823 250.705978 16.405361
v -165.480057 250.705978 14.003222
v -167.984573 250.705978 8.203944
v -159.433823 255.775589 15.602426
v -165.480057 255.033127 13.317853
v -167.984573 253.241043 7.802415
v -159.433823 260.348816 13.272214
v -165.480057 258.936951 11.328846
v -167.984573 255.528000 6.637141
v -159.433823 263.978271 9.642829
v -165.480057 262.034729 8.230869
v -167.984573 257.343140 4.822095
v -159.433823 266.308533 5.069537
v -165.480057 264.023804 4.327253
v -167.984573 258.508362 2.535222
v -159.433823 267.111328 0.000003
v -165.480057 264.709229 0.000002
v -167.984573 258.909912 0.000002
vt 0.574313 0.867896
vt 0.563214 0.889677
vt 0.500000 0.843750
vt 0.545927 0.906964
vt 0.524146 0.918064
vt 0.500000 0.921887
vt 0.475854 0.918064
vt 0.454073 0.906964
vt 0.436786 0.889677
vt 0.425687 0.867896
vt 0.421863 0.843750
vt 0.425687 0.819604
vt 0.436786 0.797823
vt 0.454073 0.780536
vt 0.475854 0.769436
vt 0.500000 0.765613
vt 0.524146 0.769436
vt 0.545927 0.780536
vt 0.563214 0.797823
vt 0.574313 0.819604
vt 0.578137 0.843750
vt 0.625000 0.683774
vt 0.625000 0.687500
vt 0.612500 0.687500
vt 0.612500 0.683774
vt 0.648603 0.892034
vt 0.656250 0.843750
vt 0.626409 0.935591
vt 0.375000 0.687500
vt 0.375000 0.683770
vt 0.387500 0.683774
vt 0.387500 0.687500
vt 0.591841 0.970159
vt 0.400000 0.683774
vt 0.400000 0.687500
vt 0.548284 0.992353
vt 0.412500 0.683774
vt 0.412500 0.687500
vt 0.500000 1.000000
vt 0.425000 0.683774
vt 0.425000 0.687500
vt 0.451716 0.992353
vt 0.437500 0.683774
vt 0.437500 0.687500
vt 0.408159 0.970159
vt 0.450000 0.683774
vt 0.450000 0.687500
vt 0.373591 0.935591
vt 0.462500 0.683774
vt 0.462500 0.687500
vt 0.351397 0.892034
vt 0.475000 0.683774
vt 0.475000 0.687500
vt 0.343750 0.843750
vt 0.487500 0.683774
vt 0.487500 0.687500
vt 0.351397 0.795466
vt 0.500000 0.683774
vt 0.500000 0.687500
vt 0.373591 0.751909
vt 0.512500 0.683774
vt 0.512500 0.687500
vt 0.408159 0.717341
vt 0.525000 0.683774
vt 0.525000 0.687500
vt 0.451716 0.695147
vt 0.537500 0.683774
vt 0.537500 0.687500
vt 0.500000 0.687500
vt 0.550000 0.683774
vt 0.550000 0.687500
vt 0.548284 0.695147
vt 0.562500 0.683774
vt 0.562500 0.687500
vt 0.591842 0.717341
vt 0.575000 0.683774
vt 0.575000 0.687500
vt 0.626409 0.751908
vt 0.587500 0.683774
vt 0.587500 0.687500
vt 0.648603 0.795466
vt 0.600000 0.683774
vt 0.600000 0.687500
vt 0.574313 0.867896
vt 0.563214 0.889677
vt 0.500000 0.843750
vt 0.545927 0.906964
vt 0.524146 0.918064
vt 0.500000 0.921887
vt 0.475854 0.918064
vt 0.454073 0.906964
vt 0.436786 0.889677
vt 0.425687 0.867896
vt 0.421863 0.843750
vt 0.425687 0.819604
vt 0.436786 0.797823
vt 0.454073 0.780536
vt 0.475854 0.769436
vt 0.500000 0.765613
vt 0.524146 0.769436
vt 0.545927 0.780536
vt 0.563214 0.797823
vt 0.574313 0.819604
vt 0.578137 0.843750
vt 0.625000 0.683774
vt 0.625000 0.687500
vt 0.612500 0.687500
vt 0.612500 0.683774
vt 0.648603 0.892034
vt 0.656250 0.843750
vt 0.626409 0.935591
vt 0.375000 0.687500
vt 0.375000 0.683770
vt 0.387500 0.683774
vt 0.387500 0.687500
vt 0.591841 0.970159
vt 0.400000 0.683774
vt 0.400000 0.687500
vt 0.548284 0.992353
vt 0.412500 0.683774
vt 0.412500 0.687500
vt 0.500000 1.000000
vt 0.425000 0.683774
vt 0.425000 0.687500
vt 0.451716 0.992353
vt 0.437500 0.683774
vt 0.437500 0.687500
vt 0.408159 0.970159
vt 0.450000 0.683774
vt 0.450000 0.687500
vt 0.373591 0.935591
vt 0.462500 0.683774
vt 0.462500 0.687500
vt 0.351397 0.892034
vt 0.475000 0.683774
vt 0.475000 0.687500
vt 0.343750 0.843750
vt 0.487500 0.683774
vt 0.487500 0.687500
vt 0.351397 0.795466
vt 0.500000 0.683774
vt 0.500000 0.687500
vt 0.373591 0.751909
vt 0.512500 0.683774
vt 0.512500 0.687500
vt 0.408159 0.717341
vt 0.525000 0.683774
vt 0.525000 0.687500
vt 0.451716 0.695147
vt 0.537500 0.683774
vt 0.537500 0.687500
vt 0.500000 0.687500
vt 0.550000 0.683774
vt 0.550000 0.687500
vt 0.548284 0.695147
vt 0.562500 0.683774
vt 0.562500 0.687500
vt 0.591842 0.717341
vt 0.575000 0.683774
vt 0.575000 0.687500
vt 0.626409 0.751908
vt 0.587500 0.683774
vt 0.587500 0.687500
vt 0.648603 0.795466
vt 0.600000 0.683774
vt 0.600000 0.687500
f 12/15 9/17 15/16
f 15/16 9/17 18/18
f 18/18 9/17 21/19
f 21/19 9/17 24/20
f 24/20 9/17 27/21
f 27/21 9/17 30/22
f 30/22 9/17 33/23
f 33/23 9/17 36/24
f 36/24 9/17 39/25
f 39/25 9/17 42/26
f 42/26 9/17 45/27
f 45/27 9/17 48/28
f 48/28 9/17 51/29
f 51/29 9/17 54/30
f 54/30 9/17 57/31
f 57/31 9/17 60/32
f 60/32 9/17 63/33
f 63/33 9/17 66/34
f 66/34 9/17 69/35
f 69/35 9/17 12/15
f 10/36 67/39 68/38 11/37
f 11/40 68/41 69/35 12/15
f 12/15 15/16 14/42 11/40
f 11/43 14/46 13/45 10/44
f 15/16 18/18 17/47 14/42
f 14/46 17/49 16/48 13/45
f 18/18 21/19 20/50 17/47
f 17/49 20/52 19/51 16/48
f 21/19 24/20 23/53 20/50
f 20/52 23/55 22/54 19/51
f 24/20 27/21 26/56 23/53
f 23/55 26/58 25/57 22/54
f 27/21 30/22 29/59 26/56
f 26/58 29/61 28/60 25/57
f 30/22 33/23 32/62 29/59
f 29/61 32/64 31/63 28/60
f 33/23 36/24 35/65 32/62
f 32/64 35/67 34/66 31/63
f 36/24 39/25 38/68 35/65
f 35/67 38/70 37/69 34/66
f 39/25 42/26 41/71 38/68
f 38/70 41/73 40/72 37/69
f 42/26 45/27 44/74 41/71
f 41/73 44/76 43/75 40/72
f 45/27 48/28 47/77 44/74
f 44/76 47/79 46/78 43/75
f 48/28 51/29 50/80 47/77
f 47/79 50/82 49/81 46/78
f 51/29 54/30 53/83 50/80
f 50/82 53/85 52/84 49/81
f 54/30 57/31 56/86 53/83
f 53/85 56/88 55/87 52/84
f 57/31 60/32 59/89 56/86
f 56/88 59/91 58/90 55/87
f 60/32 63/33 62/92 59/89
f 59/91 62/94 61/93 58/90
f 63/33 66/34 65/95 62/92
f 62/94 65/97 64/96 61/93
f 66/34 69/35 68/41 65/95
f 65/97 68/38 67/39 64/96
f 73/98 76/99 70/100
f 76/99 79/101 70/100
f 79/101 82/102 70/100
f 82/102 85/103 70/100
f 85/103 88/104 70/100
f 88/104 91/105 70/100
f 91/105 94/106 70/100
f 94/106 97/107 70/100
f 97/107 100/108 70/100
f 100/108 103/109 70/100
f 103/109 106/110 70/100
f 106/110 109/111 70/100
f 109/111 112/112 70/100
f 112/112 115/113 70/100
f 115/113 118/114 70/100
f 118/114 121/115 70/100
f 121/115 124/116 70/100
f 124/116 127/117 70/100
f 127/117 130/118 70/100
f 130/118 73/98 70/100
f 71/119 72/120 129/121 128/122
f 72/123 73/98 130/118 129/124
f 73/98 72/123 75/125 76/99
f 72/126 71/127 74/128 75/129
f 76/99 75/125 78/130 79/101
f 75/129 74/128 77/131 78/132
f 79/101 78/130 81/133 82/102
f 78/132 77/131 80/134 81/135
f 82/102 81/133 84/136 85/103
f 81/135 80/134 83/137 84/138
f 85/103 84/136 87/139 88/104
f 84/138 83/137 86/140 87/141
f 88/104 87/139 90/142 91/105
f 87/141 86/140 89/143 90/144
f 91/105 90/142 93/145 94/106
f 90/144 89/143 92/146 93/147
f 94/106 93/145 96/148 97/107
f 93/147 92/146 95/149 96/150
f 97/107 96/148 99/151 100/108
f 96/150 95/149 98/152 99/153
f 100/108 99/151 102/154 103/109
f 99/153 98/152 101/155 102/156
f 103/109 102/154 105/157 106/110
f 102/156 101/155 104/158 105/159
f 106/110 105/157 108/160 109/111
f 105/159 104/158 107/161 108/162
f 109/111 108/160 111/163 112/112
f 108/162 107/161 110/164 111/165
f 112/112 111/163 114/166 115/113
f 111/165 110/164 113/167 114/168
f 115/113 114/166 117/169 118/114
f 114/168 113/167 116/170 117/171
f 118/114 117/169 120/172 121/115
f 117/171 116/170 119/173 120/174
f 121/115 120/172 123/175 124/116
f 120/174 119/173 122/176 123/177
f 124/116 123/175 126/178 127/117
f 123/177 122/176 125/179 126/180
f 127/117 126/178 129/124 130/118
f 126/180 125/179 128/122 129/121
f 13/45 74/128 71/127 10/44
f 71/119 128/122 67/39 10/36
f 67/39 128/122 125/179 64/96
f 64/96 125/179 122/176 61/93
f 61/93 122/176 119/173 58/90
f 58/90 119/173 116/170 55/87
f 55/87 116/170 113/167 52/84
f 52/84 113/167 110/164 49/81
f 49/81 110/164 107/161 46/78
f 46/78 107/161 104/158 43/75
f 43/75 104/158 101/155 40/72
f 40/72 101/155 98/152 37/69
f 37/69 98/152 95/149 34/66
f 34/66 95/149 92/146 31/63
f 31/63 92/146 89/143 28/60
f 28/60 89/143 86/140 25/57
f 25/57 86/140 83/137 22/54
f 22/54 83/137 80/134 19/51
f 19/51 80/134 77/131 16/48
f 16/48 77/131 74/128 13/45
v 82.916626 -30.395044 201.724625
v 155.292343 6.455648 190.350876
v 89.366577 -9.907465 213.931625
v 80.393234 7.325928 200.806778
v 0.000000 -30.395044 201.724625
v 82.916656 234.300613 0.000000
v 155.292343 210.972534 34.461452
v 82.916656 35.509586 150.313004
v 155.292343 43.798927 161.911469
v 82.733826 215.380829 40.772976
v 84.687363 49.158447 168.948456
v 154.316818 243.223145 9.899541
v 154.316818 240.195755 5.924119
v 146.095383 232.896713 1.606003
v 155.292343 207.944885 30.486235
v 84.687347 -25.147198 213.194351
v 84.687363 -27.350870 211.911163
v 89.366577 -25.332897 214.560898
v 87.011597 -23.129557 215.844025
v 88.391022 -26.759880 212.687180
v 82.704971 -16.321098 207.697418
v 85.059937 -15.357049 208.190292
v 86.036057 -13.776275 209.945618
v 84.687363 -28.359537 210.585892
v 155.292343 3.428160 186.375839
v 146.520126 0.000000 178.576187
v 87.011597 -21.216301 218.356277
v 89.366577 -21.992321 218.947296
v 91.073883 -19.466291 219.982239
v 152.183273 11.223951 196.611679
v 155.292343 9.797436 194.738556
v 86.036057 -12.453298 211.682907
v 87.011597 -10.871897 213.439056
v 154.316818 246.564270 14.286130
v 155.292343 47.140701 166.299164
v 152.183273 48.567223 168.172287
v 82.733841 247.990067 16.162191
v 77.844131 1.956875 197.963943
v 77.097290 -0.063955 196.542801
v 75.294846 -2.088987 196.858917
v 57.405655 3.805884 192.368851
v 57.874176 6.271519 191.718811
v 58.068298 8.473766 193.000519
v 58.068298 9.797436 194.738556
v 58.261871 12.000004 196.020996
v 58.730377 14.464869 195.369934
v 77.844131 3.279764 199.701004
v 78.590210 5.301399 201.122818
v 7.292580 14.464869 195.369934
v 7.292580 12.000004 196.020996
v 7.292580 9.797436 194.738556
v 7.292580 247.991104 16.159657
v 7.292580 8.473766 193.000519
v 7.292580 6.270618 191.717896
v 7.292580 3.805884 192.368851
v 7.292580 -25.147198 213.194351
v 7.292580 -27.350870 211.911163
v 32.187664 9.797436 194.738556
v 32.187664 12.000004 196.020996
v 32.187664 14.464869 195.369934
v 46.773388 14.464869 195.369934
v 46.773388 12.000004 196.020996
v 46.773388 9.797436 194.738556
v 46.773388 8.473766 193.000519
v 46.773388 6.270618 191.717896
v 46.773388 3.805884 192.368851
v 32.187664 3.805884 192.368851
v 32.187664 6.270618 191.717896
v 32.187664 8.473766 193.000519
v 32.187664 -27.350870 211.911163
v 32.187664 -25.147198 213.194351
v 46.773388 -25.147198 213.194351
v 46.773388 -27.350870 211.911163
v 0.000000 -28.359537 210.585892
v 32.187664 -28.359537 210.585892
v 46.773388 -28.359537 210.585892
v 146.520126 36.604973 150.698730
v 155.292343 40.771515 157.936386
v 155.292343 214.313385 38.847954
v 152.183273 215.740356 40.721676
v 86.036057 -24.556702 213.970108
v 89.191772 -19.385746 219.388565
v 151.749924 247.931305 16.304039
v 54.313187 217.698303 40.457287
v 52.594933 216.331207 41.497482
v 54.034859 214.879150 42.068230
v 54.950653 213.400085 41.725105
v 55.555603 214.343674 40.904274
v 57.024094 214.713974 40.528976
v 56.016785 216.221680 40.983818
v 53.098587 217.297623 40.761475
v 54.313187 47.792095 169.989365
v 55.753120 48.668926 168.788391
v 56.782417 48.699951 167.293930
v 55.531174 49.136436 166.873993
v 55.012856 50.254753 165.912750
v 54.088799 50.226372 167.538391
v 52.594933 49.158382 168.948502
v 53.098587 48.192375 169.684509
v 7.292580 217.698303 40.457287
v 5.791386 216.293808 40.989578
v 4.822411 214.857803 40.615265
v 6.073845 214.337051 40.924316
v 6.592161 213.113785 41.747631
v 7.516218 214.687729 42.151691
v 9.009896 216.331207 41.497482
v 8.507181 217.297623 40.761475
v 68.898911 217.698303 40.457287
v 67.397156 216.293808 40.989578
v 66.428932 214.857803 40.615265
v 67.680367 214.337051 40.924316
v 68.198677 213.113785 41.747631
v 69.122742 214.687729 42.151691
v 70.586288 216.331207 41.497482
v 70.113510 217.297623 40.761475
v 68.898911 47.792095 169.989365
v 70.616417 49.158382 168.948502
v 69.176674 50.094383 167.699615
v 68.260696 50.156933 166.183701
v 67.655746 49.114723 166.875198
v 66.187439 48.655037 167.131989
v 67.194748 48.692448 168.706284
v 70.113510 48.192375 169.684509
v 7.292580 47.792095 169.989365
v 9.009896 49.158382 168.948502
v 7.569968 50.094383 167.699615
v 6.654930 50.157269 166.183456
v 6.049414 49.114723 166.875198
v 4.580920 48.655037 167.131989
v 5.588232 48.692516 168.706223
v 8.507181 48.192375 169.684509
v 66.609344 49.258434 163.143967
v 65.180130 49.085407 162.716034
v 65.335175 48.218788 163.920090
v 65.703331 48.177486 165.411499
v 66.999680 48.603767 165.077271
v 67.535851 49.635025 164.301163
v 56.611778 49.224335 163.154602
v 55.675499 49.635025 164.301163
v 56.246246 48.615211 165.184845
v 57.624725 48.222389 165.573456
v 58.007545 48.223320 164.023651
v 58.030472 49.085407 162.716034
v 65.301910 211.749023 39.258820
v 65.180130 210.342163 39.769592
v 66.599571 210.728256 40.020256
v 67.535851 211.724838 40.721550
v 66.999489 212.755402 39.936382
v 65.703331 213.182251 39.611301
v 56.602005 210.709167 40.050755
v 58.030472 210.342163 39.769592
v 57.875427 211.733582 39.254616
v 57.507271 213.182251 39.611301
v 56.211861 212.755402 39.936382
v 55.675499 211.724777 40.721603
v 5.002825 49.258434 163.143967
v 3.574360 49.085407 162.716034
v 3.729590 48.218788 163.920090
v 4.097748 48.177486 165.411499
v 5.393910 48.603767 165.077271
v 5.930079 49.635025 164.301163
v 3.696139 211.749023 39.258820
v 3.574360 210.342163 39.769592
v 4.993805 210.728256 40.020256
v 5.930079 211.724777 40.721603
v 5.393158 212.755402 39.936382
v 4.097748 213.182251 39.611301
v 54.606361 215.838364 41.306404
v 54.568771 49.116650 168.418671
v 7.017262 215.827423 41.318863
v 68.623215 215.827423 41.318863
v 68.604424 49.105579 168.422302
v 6.998656 49.105640 168.422256
v 66.440392 48.482544 163.974792
v 56.827332 48.466717 164.056168
v 66.427429 211.733307 39.517418
v 56.771896 211.722046 39.525043
v 4.833876 48.482544 163.974792
v 4.820908 211.733307 39.517418
v 152.018967 -8.914554 195.776718
v 143.474655 -18.793936 203.300308
v 130.891708 -25.397800 208.329987
v 116.110947 -27.759789 210.129135
v 116.118454 -24.736298 214.106873
v 130.896591 -22.372602 212.307068
v 143.477646 -15.767220 207.276245
v 152.019333 -5.886830 199.750946
v 116.113388 -21.395424 218.493668
v 130.893417 -19.032059 216.694107
v 143.475998 -12.427093 211.664230
v 152.019150 -2.547887 204.140167
v 143.495163 -11.446469 187.489532
v 135.200058 -21.136927 195.016418
v 122.875656 -27.623932 200.032257
v 108.365524 -29.936132 201.787201
v 114.458908 -19.404675 219.527145
v 128.952072 -17.100410 217.765396
v 141.262436 -10.547899 212.850220
v 149.547653 -0.727349 205.516891
v 89.366409 -28.338207 210.569641
v -82.916626 -30.395044 201.724625
v -155.292343 6.455648 190.350876
v -89.366577 -9.907465 213.931625
v -80.393234 7.325928 200.806778
v -82.916656 234.300613 0.000000
v -155.292343 210.972534 34.461452
v -82.916656 35.509586 150.313004
v -155.292343 43.798927 161.911469
v -82.733826 215.380829 40.772976
v -84.687363 49.158447 168.948456
v -154.316818 243.223145 9.899541
v -154.316818 240.195755 5.924119
v -146.095383 232.896713 1.606003
v -155.292343 207.944885 30.486235
v -84.687347 -25.147198 213.194351
v -84.687363 -27.350870 211.911163
v -89.366577 -25.332897 214.560898
v -87.011597 -23.129557 215.844025
v -88.391022 -26.759880 212.687180
v -82.704971 -16.321098 207.697418
v -85.059937 -15.357049 208.190292
v -86.036057 -13.776275 209.945618
v -84.687363 -28.359537 210.585892
v -155.292343 3.428160 186.375839
v -146.520126 0.000000 178.576187
v -87.011597 -21.216301 218.356277
v -89.366577 -21.992321 218.947296
v -91.073883 -19.466291 219.982239
v -152.183273 11.223951 196.611679
v -155.292343 9.797436 194.738556
v -86.036057 -12.453298 211.682907
v -87.011597 -10.871897 213.439056
v -154.316818 246.564270 14.286130
v -155.292343 47.140701 166.299164
v -152.183273 48.567223 168.172287
v -82.733841 247.990067 16.162191
v -77.844131 1.956875 197.963943
v -77.097290 -0.063955 196.542801
v -75.294846 -2.088987 196.858917
v -57.405655 3.805884 192.368851
v -57.874176 6.271519 191.718811
v -58.068298 8.473766 193.000519
v -58.068298 9.797436 194.738556
v -58.261871 12.000004 196.020996
v -58.730377 14.464869 195.369934
v -77.844131 3.279764 199.701004
v -78.590210 5.301399 201.122818
v -7.292580 14.464869 195.369934
v -7.292580 12.000004 196.020996
v -7.292580 9.797436 194.738556
v -7.292580 247.991104 16.159657
v -7.292580 8.473766 193.000519
v -7.292580 6.270618 191.717896
v -7.292580 3.805884 192.368851
v -7.292580 -25.147198 213.194351
v -7.292580 -27.350870 211.911163
v -32.187664 9.797436 194.738556
v -32.187664 12.000004 196.020996
v -32.187664 14.464869 195.369934
v -46.773388 14.464869 195.369934
v -46.773388 12.000004 196.020996
v -46.773388 9.797436 194.738556
v -46.773388 8.473766 193.000519
v -46.773388 6.270618 191.717896
v -46.773388 3.805884 192.368851
v -32.187664 3.805884 192.368851
v -32.187664 6.270618 191.717896
v -32.187664 8.473766 193.000519
v -32.187664 -27.350870 211.911163
v -32.187664 -25.147198 213.194351
v -46.773388 -25.147198 213.194351
v -46.773388 -27.350870 211.911163
v -32.187664 -28.359537 210.585892
v -46.773388 -28.359537 210.585892
v -146.520126 36.604973 150.698730
v -155.292343 40.771515 157.936386
v -155.292343 214.313385 38.847954
v -152.183273 215.740356 40.721676
v -86.036057 -24.556702 213.970108
v -89.191772 -19.385746 219.388565
v -151.749924 247.931305 16.304039
v -54.313187 217.698303 40.457287
v -52.594933 216.331207 41.497482
v -54.034859 214.879150 42.068230
v -54.950653 213.400085 41.725105
v -55.555603 214.343674 40.904274
v -57.024094 214.713974 40.528976
v -56.016785 216.221680 40.983818
v -53.098587 217.297623 40.761475
v -54.313187 47.792095 169.989365
v -55.753120 48.668926 168.788391
v -56.782417 48.699951 167.293930
v -55.531174 49.136436 166.873993
v -55.012856 50.254753 165.912750
v -54.088799 50.226372 167.538391
v -52.594933 49.158382 168.948502
v -53.098587 48.192375 169.684509
v -7.292580 217.698303 40.457287
v -5.791386 216.293808 40.989578
v -4.822411 214.857803 40.615265
v -6.073845 214.337051 40.924316
v -6.592161 213.113785 41.747631
v -7.516218 214.687729 42.151691
v -9.009896 216.331207 41.497482
v -8.507181 217.297623 40.761475
v -68.898911 217.698303 40.457287
v -67.397156 216.293808 40.989578
v -66.428932 214.857803 40.615265
v -67.680367 214.337051 40.924316
v -68.198677 213.113785 41.747631
v -69.122742 214.687729 42.151691
v -70.586288 216.331207 41.497482
v -70.113510 217.297623 40.761475
v -68.898911 47.792095 169.989365
v -70.616417 49.158382 168.948502
v -69.176674 50.094383 167.699615
v -68.260696 50.156933 166.183701
v -67.655746 49.114723 166.875198
v -66.187439 48.655037 167.131989
v -67.194748 48.692448 168.706284
v -70.113510 48.192375 169.684509
v -7.292580 47.792095 169.989365
v -9.009896 49.158382 168.948502
v -7.569968 50.094383 167.699615
v -6.654930 50.157269 166.183456
v -6.049414 49.114723 166.875198
v -4.580920 48.655037 167.131989
v -5.588232 48.692516 168.706223
v -8.507181 48.192375 169.684509
v -66.609344 49.258434 163.143967
v -65.180130 49.085407 162.716034
v -65.335175 48.218788 163.920090
v -65.703331 48.177486 165.411499
v -66.999680 48.603767 165.077271
v -67.535851 49.635025 164.301163
v -56.611778 49.224335 163.154602
v -55.675499 49.635025 164.301163
v -56.246246 48.615211 165.184845
v -57.624725 48.222389 165.573456
v -58.007545 48.223320 164.023651
v -58.030472 49.085407 162.716034
v -65.301910 211.749023 39.258820
v -65.180130 210.342163 39.769592
v -66.599571 210.728256 40.020256
v -67.535851 211.724838 40.721550
v -66.999489 212.755402 39.936382
v -65.703331 213.182251 39.611301
v -56.602005 210.709167 40.050755
v -58.030472 210.342163 39.769592
v -57.875427 211.733582 39.254616
v -57.507271 213.182251 39.611301
v -56.211861 212.755402 39.936382
v -55.675499 211.724777 40.721603
v -5.002825 49.258434 163.143967
v -3.574360 49.085407 162.716034
v -3.729590 48.218788 163.920090
v -4.097748 48.177486 165.411499
v -5.393910 48.603767 165.077271
v -5.930079 49.635025 164.301163
v -3.696139 211.749023 39.258820
v -3.574360 210.342163 39.769592
v -4.993805 210.728256 40.020256
v -5.930079 211.724777 40.721603
v -5.393158 212.755402 39.936382
v -4.097748 213.182251 39.611301
v -54.606361 215.838364 41.306404
v -54.568771 49.116650 168.418671
v -7.017262 215.827423 41.318863
v -68.623215 215.827423 41.318863
v -68.604424 49.105579 168.422302
v -6.998656 49.105640 168.422256
v -66.440392 48.482544 163.974792
v -56.827332 48.466717 164.056168
v -66.427429 211.733307 39.517418
v -56.771896 211.722046 39.525043
v -4.833876 48.482544 163.974792
v -4.820908 211.733307 39.517418
v -152.018967 -8.914554 195.776718
v -143.474655 -18.793936 203.300308
v -130.891708 -25.397800 208.329987
v -116.110947 -27.759789 210.129135
v -116.118454 -24.736298 214.106873
v -130.896591 -22.372602 212.307068
v -143.477646 -15.767220 207.276245
v -152.019333 -5.886830 199.750946
v -116.113388 -21.395424 218.493668
v -130.893417 -19.032059 216.694107
v -143.475998 -12.427093 211.664230
v -152.019150 -2.547887 204.140167
v -143.495163 -11.446469 187.489532
v -135.200058 -21.136927 195.016418
v -122.875656 -27.623932 200.032257
v -108.365524 -29.936132 201.787201
v -114.458908 -19.404675 219.527145
v -128.952072 -17.100410 217.765396
v -141.262436 -10.547899 212.850220
v -149.547653 -0.727349 205.516891
v -89.366409 -28.338207 210.569641
vt 0.566160 0.999848
vt 0.562494 0.922777
vt 0.567006 0.749680
vt 0.562494 0.463108
vt 0.562494 0.327219
vt 0.529865 0.327220
vt 0.529864 0.463108
vt 0.524825 0.327220
vt 0.502537 0.327220
vt 0.502535 0.463109
vt 0.524824 0.463108
vt 0.625000 0.500000
vt 0.625000 0.463108
vt 0.625000 0.463108
vt 0.624231 0.498893
vt 0.625563 0.750507
vt 0.875000 0.069452
vt 0.874537 -0.005208
vt 0.838109 0.099983
vt 0.562854 0.252090
vt 0.562494 0.260653
vt 0.562494 0.260653
vt 0.563126 0.251436
vt 0.563723 0.249998
vt 0.563723 0.249998
vt 0.562494 0.260653
vt 0.562494 0.249998
vt 0.561829 0.222774
vt 0.561554 0.260064
vt 0.562494 0.260653
vt 0.562494 0.249998
vt 0.567514 0.273374
vt 0.563758 0.250622
vt 0.625000 0.463108
vt 0.625000 0.500000
vt 0.561517 0.282431
vt 0.554921 0.283859
vt 0.554718 0.285507
vt 0.562494 0.285507
vt 0.554718 0.285507
vt 0.562494 0.285507
vt 0.502054 0.288467
vt 0.502054 0.285507
vt 0.502053 0.285507
vt 0.501976 0.282548
vt 0.502052 0.285507
vt 0.502052 0.285507
vt 0.501145 0.249999
vt 0.501870 0.149986
vt 0.525308 0.288467
vt 0.529388 0.288467
vt 0.529388 0.285507
vt 0.525308 0.285507
vt 0.529387 0.285507
vt 0.525308 0.285507
vt 0.529345 0.282547
vt 0.525261 0.282547
vt 0.525307 0.285507
vt 0.529386 0.285507
vt 0.525308 0.285507
vt 0.529387 0.285507
vt 0.524749 0.249999
vt 0.528891 0.249999
vt 0.529288 0.150014
vt 0.525195 0.150029
vt 0.503161 0.000009
vt 0.525418 0.100023
vt 0.529486 0.099994
vt 0.660506 0.250009
vt 0.702221 0.249999
vt 0.702221 0.099996
vt 0.660523 0.091217
vt 0.625024 0.285473
vt 0.624996 0.285541
vt 0.625000 0.327219
vt 0.625000 0.327219
vt 0.554718 0.285507
vt 0.562494 0.285507
vt 0.513735 0.499947
vt 0.502052 0.464635
vt 0.525307 0.464635
vt 0.545957 0.499946
vt 0.529387 0.464635
vt 0.502236 0.099989
vt 0.502394 0.464188
vt 0.529724 0.464188
vt 0.562494 0.150010
vt 0.562494 0.099990
vt 0.838109 0.250000
vt 0.502053 0.325694
vt 0.525308 0.325693
vt 0.529388 0.325693
vt 0.554902 0.288466
vt 0.875000 0.250000
vt 0.625000 0.922779
vt 0.702221 0.000000
vt 0.562494 0.285507
vt 0.563363 0.294670
vt 0.625646 0.284019
vt 0.625000 0.327219
vt 0.554718 0.285507
vt 0.561719 0.243820
vt 0.563539 -0.000709
vt 0.660505 0.000004
vt 0.625000 0.964496
vt 0.563363 0.179293
vt 0.524966 0.326140
vt 0.501602 0.463132
vt 0.501554 0.463109
vt 0.501301 0.327220
vt 0.501546 0.327268
vt 0.525307 0.461480
vt 0.525308 0.329055
vt 0.525273 0.328514
vt 0.525237 0.461977
vt 0.526082 0.463108
vt 0.526013 0.463108
vt 0.525740 0.462572
vt 0.525782 0.462459
vt 0.525307 0.461480
vt 0.528924 0.463132
vt 0.525827 0.463062
vt 0.528874 0.463108
vt 0.525820 0.327220
vt 0.528612 0.327220
vt 0.528865 0.327267
vt 0.525769 0.327193
vt 0.525308 0.328892
vt 0.525653 0.327807
vt 0.525644 0.327882
vt 0.525871 0.327220
vt 0.502052 0.461273
vt 0.502052 0.461437
vt 0.501740 0.462484
vt 0.501727 0.462449
vt 0.501554 0.463109
vt 0.502123 0.328351
vt 0.502088 0.461817
vt 0.502053 0.328848
vt 0.529387 0.461273
vt 0.529387 0.461436
vt 0.529065 0.462484
vt 0.529052 0.462449
vt 0.528874 0.463109
vt 0.529457 0.328351
vt 0.529422 0.461817
vt 0.529387 0.328848
vt 0.528681 0.327220
vt 0.528956 0.327760
vt 0.528913 0.327869
vt 0.529387 0.328848
vt 0.501368 0.327220
vt 0.501634 0.327760
vt 0.501593 0.327869
vt 0.502053 0.328848
vt 0.528725 0.328796
vt 0.528725 0.461541
vt 0.529170 0.462596
vt 0.529188 0.327695
vt 0.525474 0.327615
vt 0.529176 0.327722
vt 0.525970 0.328796
vt 0.525510 0.462629
vt 0.525556 0.327810
vt 0.525969 0.461541
vt 0.525522 0.462601
vt 0.529185 0.462630
vt 0.501410 0.328796
vt 0.501409 0.461541
vt 0.501842 0.462597
vt 0.501859 0.327695
vt 0.501848 0.327723
vt 0.501856 0.462630
vt 0.525307 0.463108
vt 0.524966 0.464188
vt 0.525308 0.327220
vt 0.502052 0.463109
vt 0.529387 0.463108
vt 0.529387 0.327220
vt 0.529725 0.326140
vt 0.502053 0.327220
vt 0.502395 0.326141
vt 0.529387 0.327220
vt 0.525308 0.327220
vt 0.529387 0.463108
vt 0.525307 0.463108
vt 0.502053 0.327220
vt 0.502052 0.463109
vt 0.611077 0.099989
vt 0.610818 0.249998
vt 0.616750 0.249882
vt 0.617040 0.099872
vt 0.625000 0.249998
vt 0.625336 0.099984
vt 0.641261 0.249998
vt 0.641429 0.099692
vt 0.564222 0.099990
vt 0.610674 0.000009
vt 0.610680 0.250144
vt 0.610260 0.250797
vt 0.625000 0.983595
vt 0.625000 1.000000
vt 0.617339 0.248796
vt 0.616543 0.000005
vt 0.625000 0.000000
vt 0.641406 0.000004
vt 0.625000 0.266260
vt 0.624615 0.266806
vt 0.624278 0.251037
vt 0.616128 0.250890
vt 0.625001 0.266909
vt 0.625000 0.249998
vt 0.610676 1.000000
vt 0.616544 1.000000
vt 0.503165 1.000000
vt 0.566160 0.999848
vt 0.562494 0.922777
vt 0.567006 0.749680
vt 0.562494 0.463108
vt 0.562494 0.327219
vt 0.529865 0.327220
vt 0.529864 0.463108
vt 0.524825 0.327220
vt 0.502537 0.327220
vt 0.502535 0.463109
vt 0.524824 0.463108
vt 0.625000 0.500000
vt 0.625000 0.463108
vt 0.625000 0.463108
vt 0.624231 0.498893
vt 0.875000 0.069452
vt 0.874537 -0.005208
vt 0.838109 0.099983
vt 0.562854 0.252090
vt 0.562494 0.260653
vt 0.562494 0.260653
vt 0.563126 0.251436
vt 0.563723 0.249998
vt 0.563723 0.249998
vt 0.562494 0.260653
vt 0.562494 0.249998
vt 0.561829 0.222774
vt 0.561554 0.260064
vt 0.562494 0.260653
vt 0.562494 0.249998
vt 0.567514 0.273374
vt 0.563758 0.250622
vt 0.625000 0.463108
vt 0.625000 0.500000
vt 0.561517 0.282431
vt 0.554921 0.283859
vt 0.554718 0.285507
vt 0.562494 0.285507
vt 0.554718 0.285507
vt 0.562494 0.285507
vt 0.525308 0.288467
vt 0.529388 0.288467
vt 0.529388 0.285507
vt 0.525308 0.285507
vt 0.529387 0.285507
vt 0.525308 0.285507
vt 0.529345 0.282547
vt 0.525261 0.282547
vt 0.525307 0.285507
vt 0.529386 0.285507
vt 0.525308 0.285507
vt 0.529387 0.285507
vt 0.524749 0.249999
vt 0.528891 0.249999
vt 0.529288 0.150014
vt 0.525195 0.150029
vt 0.525418 0.100023
vt 0.529486 0.099994
vt 0.503161 0.000009
vt 0.660506 0.250009
vt 0.702221 0.249999
vt 0.702221 0.099996
vt 0.660523 0.091217
vt 0.625024 0.285473
vt 0.624996 0.285541
vt 0.625000 0.327219
vt 0.625000 0.327219
vt 0.554718 0.285507
vt 0.562494 0.285507
vt 0.525307 0.464635
vt 0.513735 0.499947
vt 0.545957 0.499946
vt 0.529387 0.464635
vt 0.501870 0.149986
vt 0.502236 0.099989
vt 0.502053 0.285507
vt 0.502052 0.285507
vt 0.502394 0.464188
vt 0.502052 0.464635
vt 0.529724 0.464188
vt 0.562494 0.150010
vt 0.562494 0.099990
vt 0.838109 0.250000
vt 0.525308 0.325693
vt 0.529388 0.325693
vt 0.529725 0.326140
vt 0.554902 0.288466
vt 0.875000 0.250000
vt 0.625563 0.750507
vt 0.625000 0.922779
vt 0.702221 0.000000
vt 0.562494 0.285507
vt 0.563363 0.294670
vt 0.625646 0.284019
vt 0.625000 0.327219
vt 0.554718 0.285507
vt 0.502054 0.288467
vt 0.502054 0.285507
vt 0.502052 0.285507
vt 0.501976 0.282548
vt 0.501145 0.249999
vt 0.561719 0.243820
vt 0.563539 -0.000709
vt 0.660505 0.000004
vt 0.625000 0.964496
vt 0.563363 0.179293
vt 0.524966 0.326140
vt 0.525307 0.461480
vt 0.525308 0.329055
vt 0.525273 0.328514
vt 0.525237 0.461977
vt 0.526082 0.463108
vt 0.526013 0.463108
vt 0.525740 0.462572
vt 0.525782 0.462459
vt 0.525307 0.461480
vt 0.528924 0.463132
vt 0.525827 0.463062
vt 0.528874 0.463108
vt 0.525820 0.327220
vt 0.528612 0.327220
vt 0.528865 0.327267
vt 0.525769 0.327193
vt 0.525308 0.328892
vt 0.525653 0.327807
vt 0.525644 0.327882
vt 0.525871 0.327220
vt 0.502052 0.461273
vt 0.502052 0.461437
vt 0.501740 0.462484
vt 0.501727 0.462449
vt 0.501554 0.463109
vt 0.501554 0.463109
vt 0.502123 0.328351
vt 0.502088 0.461817
vt 0.502053 0.328848
vt 0.529387 0.461273
vt 0.529387 0.461436
vt 0.529065 0.462484
vt 0.529052 0.462449
vt 0.528874 0.463109
vt 0.529457 0.328351
vt 0.529422 0.461817
vt 0.529387 0.328848
vt 0.528681 0.327220
vt 0.528956 0.327760
vt 0.528913 0.327869
vt 0.529387 0.328848
vt 0.501301 0.327220
vt 0.501368 0.327220
vt 0.501634 0.327760
vt 0.501593 0.327869
vt 0.502053 0.328848
vt 0.528725 0.328796
vt 0.528725 0.461541
vt 0.529170 0.462596
vt 0.529188 0.327695
vt 0.525474 0.327615
vt 0.529176 0.327722
vt 0.525970 0.328796
vt 0.525510 0.462629
vt 0.525556 0.327810
vt 0.525969 0.461541
vt 0.525522 0.462601
vt 0.529185 0.462630
vt 0.501410 0.328796
vt 0.501409 0.461541
vt 0.501842 0.462597
vt 0.501859 0.327695
vt 0.525307 0.463108
vt 0.524966 0.464188
vt 0.525308 0.327220
vt 0.502052 0.463109
vt 0.501602 0.463132
vt 0.529387 0.463108
vt 0.529387 0.327220
vt 0.501546 0.327268
vt 0.502053 0.327220
vt 0.502395 0.326141
vt 0.502053 0.325694
vt 0.529387 0.327220
vt 0.525308 0.327220
vt 0.529387 0.463108
vt 0.525307 0.463108
vt 0.502053 0.327220
vt 0.501848 0.327723
vt 0.502052 0.463109
vt 0.501856 0.462630
vt 0.611077 0.099989
vt 0.610818 0.249998
vt 0.616750 0.249882
vt 0.617040 0.099872
vt 0.625000 0.249998
vt 0.625336 0.099984
vt 0.641261 0.249998
vt 0.641429 0.099692
vt 0.564222 0.099990
vt 0.610674 0.000009
vt 0.610680 0.250144
vt 0.610260 0.250797
vt 0.625000 0.983595
vt 0.625000 1.000000
vt 0.617339 0.248796
vt 0.616543 0.000005
vt 0.625000 0.000000
vt 0.641406 0.000004
vt 0.625000 0.266260
vt 0.624615 0.266806
vt 0.624278 0.251037
vt 0.616128 0.250890
vt 0.625001 0.266909
vt 0.625000 0.249998
vt 0.610676 1.000000
vt 0.616544 1.000000
f 337/397 135/395 331/396
f 335/398 136/183 138/182 337/397
f 140/184 244/187 247/186 141/185
f 228/188 215/191 236/190 255/189
f 142/192 164/195 209/194 137/193
f 143/197 145/199 144/198
f 149/200 157/203 162/202 153/201
f 149/200 148/205 158/204 157/203
f 152/206 151/209 146/208 211/207
f 149/200 153/201 152/206 211/207
f 163/210 162/202 157/203 212/211
f 133/212 163/210 212/211 159/213
f 210/214 209/194 164/195 213/215
f 170/216 169/219 172/218 171/217
f 169/219 168/221 173/220 172/218
f 190/230 189/233 192/232 191/231
f 189/233 188/235 193/234 192/232
f 196/236 195/239 198/238 197/237
f 195/239 194/241 199/240 198/238
f 201/242 202/243 196/236 197/237
f 201/242 200/245 203/244 202/243
f 205/247 135/246 206/248
f 132/249 155/252 208/251 139/250
f 132/253 139/256 165/255 161/254
f 173/220 168/221 177/258 174/257
f 168/221 153/201 162/202 177/258
f 214/261 238/263 167/262 182/259
f 193/234 188/235 199/240 194/241
f 205/247 206/248 203/244 200/245
f 193/234 194/241 173/220 174/257
f 181/224 183/227 199/240 188/235
f 182/259 230/260 237/265 236/190
f 140/184 167/262 245/266
f 205/247 200/245 187/229 204/264
f 147/267 203/244 206/248 154/268
f 139/250 208/251 145/199 137/269
f 165/255 139/256 137/193 209/194
f 190/230 191/231 246/272 222/271
f 253/360 246/272 191/231 176/273
f 143/197 142/274 137/269 145/199
f 144/196 207/275 138/182 136/183
f 144/198 145/199 208/251 207/276
f 162/202 163/210 178/277 177/258
f 163/210 133/212 134/278 178/277
f 160/279 166/280 141/185 134/278
f 160/279 161/254 165/255 166/280
f 167/262 140/184 210/214 213/215
f 151/209 152/206 169/219 170/216
f 152/206 153/201 168/221 169/219
f 176/273 175/281 178/277 134/278
f 175/281 174/257 177/258 178/277
f 179/222 180/223 189/233 190/230
f 180/223 181/224 188/235 189/233
f 174/257 175/281 192/232 193/234
f 175/281 176/273 191/231 192/232
f 171/217 172/218 195/239 196/236
f 172/218 173/220 194/241 195/239
f 183/227 184/226 198/238 199/240
f 184/226 185/225 197/237 198/238
f 186/228 201/242 197/237 185/225
f 186/228 187/229 200/245 201/242
f 147/267 146/208 202/243 203/244
f 171/217 146/208 151/282 170/216
f 204/264 135/246 205/247
f 131/283 154/268 206/248 135/246
f 155/252 156/284 207/276 208/251
f 207/275 156/285 131/181 138/182
f 166/280 210/214 140/184 141/185
f 166/280 165/255 209/194 210/214
f 146/208 147/267 150/286 211/207
f 150/286 148/205 149/200 211/207
f 157/203 158/204 159/213 212/211
f 222/271 229/287 228/188 190/230
f 217/292 216/295 227/294 226/293
f 216/295 215/191 228/188 227/294
f 219/296 218/299 284/298 283/297
f 218/299 217/292 285/300 284/298
f 214/261 220/302 239/301 238/263
f 220/302 219/296 240/303 239/301
f 224/304 223/307 252/306 251/305
f 223/307 222/271 246/272 252/306
f 226/293 225/310 270/309 269/308
f 225/310 224/304 271/311 270/309
f 234/312 233/315 296/314 295/313
f 233/315 232/289 297/316 296/314
f 236/190 235/318 256/317 255/189
f 235/318 234/312 257/319 256/317
f 242/320 241/323 278/322 277/321
f 241/323 240/303 279/324 278/322
f 244/187 243/326 248/325 247/186
f 243/326 242/320 249/327 248/325
f 251/305 250/330 266/329 265/328
f 250/330 249/327 267/331 266/329
f 259/290 258/334 290/333 289/332
f 258/334 257/319 291/335 290/333
f 263/336 262/339 276/338 275/337
f 262/339 267/331 277/321 276/338
f 265/328 264/341 272/340 271/311
f 264/341 263/336 273/342 272/340
f 269/308 268/344 280/343 285/300
f 268/344 273/342 281/345 280/343
f 275/337 274/347 282/346 281/345
f 274/347 279/324 283/297 282/346
f 287/348 286/351 294/350 293/349
f 286/351 291/335 295/313 294/350
f 273/342 263/336 275/337 281/345
f 285/300 217/292 226/293 269/308
f 279/324 240/303 219/296 283/297
f 271/311 224/304 251/305 265/328
f 291/335 257/319 234/312 295/313
f 267/331 249/327 242/320 277/321
f 220/302 214/261 221/355 298/354
f 221/355 215/191 216/295 298/354
f 216/295 217/292 218/299 298/354
f 218/299 219/296 220/302 298/354
f 229/287 222/271 223/307 299/356
f 223/307 224/304 225/310 299/356
f 225/310 226/293 227/294 299/356
f 227/294 228/188 229/287 299/356
f 237/265 230/260 231/288 300/357
f 231/288 232/289 233/315 300/357
f 233/315 234/312 235/318 300/357
f 235/318 236/190 237/265 300/357
f 245/266 238/263 239/301 301/358
f 239/301 240/303 241/323 301/358
f 241/323 242/320 243/326 301/358
f 243/326 244/187 245/266 301/358
f 252/306 246/272 253/360 302/359
f 253/360 247/186 248/325 302/359
f 248/325 249/327 250/330 302/359
f 250/330 251/305 252/306 302/359
f 260/291 254/270 261/362 303/361
f 261/362 255/189 256/317 303/361
f 256/317 257/319 258/334 303/361
f 258/334 259/290 260/291 303/361
f 266/329 267/331 262/339 304/363
f 262/339 263/336 264/341 304/363
f 264/341 265/328 266/329 304/363
f 272/340 273/342 268/344 305/364
f 268/344 269/308 270/309 305/364
f 270/309 271/311 272/340 305/364
f 278/322 279/324 274/347 306/365
f 274/347 275/337 276/338 306/365
f 276/338 277/321 278/322 306/365
f 284/298 285/300 280/343 307/366
f 280/343 281/345 282/346 307/366
f 282/346 283/297 284/298 307/366
f 290/333 291/335 286/351 308/367
f 286/351 287/348 288/352 308/367
f 288/352 289/332 290/333 308/367
f 296/314 297/316 292/353 309/368
f 292/353 293/349 294/350 309/368
f 294/350 295/313 296/314 309/368
f 182/259 215/191 221/355 214/261
f 182/259 236/190 215/191
f 179/222 255/189 261/362 254/270
f 190/230 228/188 255/189 179/222
f 313/369 312/372 315/371 314/370
f 312/372 311/374 316/373 315/371
f 311/374 310/376 317/375 316/373
f 310/376 155/252 132/249 317/375
f 313/369 314/370 148/205 330/377
f 313/369 330/377 131/283 325/378
f 159/213 158/204 318/380 326/379
f 314/370 318/380 158/204 148/205
f 322/381 323/382 156/285
f 327/383 133/212 159/213 326/379
f 312/372 313/369 325/378 324/384
f 311/374 312/372 324/384 323/385
f 155/252 310/376 322/386 156/284
f 310/376 311/374 323/385 322/386
f 317/387 132/253 161/254 321/388
f 316/373 317/387 321/388 320/389
f 314/370 315/371 319/390 318/380
f 315/371 316/373 320/389 319/390
f 321/388 161/254 160/279 329/391
f 320/389 321/388 329/391 328/392
f 318/380 319/390 327/383 326/379
f 319/390 320/389 328/392 327/383
f 156/285 325/393 131/181
f 156/285 323/382 324/394
f 202/243 146/208 171/217 196/236
f 330/377 148/205 150/286 154/268
f 131/283 330/377 154/268
f 154/268 150/286 147/267
f 141/185 176/273 134/278
f 160/279 134/278 133/212
f 133/212 328/392 329/391 160/279
f 328/392 133/212 327/383
f 156/285 324/394 325/393
f 230/260 182/259 381/466 428/474
f 231/288 230/260 428/474 429/569
f 232/289 231/288 429/569 430/528
f 297/316 232/289 430/528 495/527
f 292/353 297/316 495/527 490/583
f 293/349 292/353 490/583 491/562
f 287/348 293/349 491/562 485/561
f 288/352 287/348 485/561 486/581
f 289/332 288/352 486/581 487/545
f 259/290 289/332 487/545 457/544
f 260/291 259/290 457/544 458/572
f 254/270 260/291 458/572 452/575
f 179/222 254/270 452/575 378/492
f 180/223 179/222 378/492 379/493
f 181/224 180/223 379/493 380/471
f 183/227 181/224 380/471 382/472
f 184/226 183/227 382/472 383/494
f 185/225 184/226 383/494 384/495
f 186/228 185/225 384/495 385/496
f 187/229 186/228 385/496 386/469
f 247/186 253/360 141/185
f 253/360 176/273 141/185
f 167/262 238/263 245/266
f 244/187 140/184 245/266
f 339/399 340/400 445/401 442/402
f 426/403 453/404 434/405 413/406
f 341/407 336/408 407/409 363/410
f 342/411 343/412 344/413
f 348/414 352/415 361/416 356/417
f 348/414 356/417 357/418 347/419
f 351/420 409/421 345/422 350/423
f 348/414 409/421 351/420 352/415
f 362/424 410/425 356/417 361/416
f 333/426 358/427 410/425 362/424
f 408/428 411/429 363/410 407/409
f 369/430 370/431 371/432 368/433
f 368/433 371/432 372/434 367/435
f 389/436 390/437 391/438 388/439
f 388/439 391/438 392/440 387/441
f 395/442 396/443 397/444 394/445
f 394/445 397/444 398/446 393/447
f 400/448 396/443 395/442 401/449
f 400/448 401/449 402/450 399/451
f 403/452 404/453 135/454
f 332/455 338/456 406/457 354/458
f 332/459 360/460 364/461 338/462
f 372/434 373/463 376/464 367/435
f 367/435 376/464 361/416 352/415
f 412/465 381/466 366/467 436/468
f 392/440 393/447 398/446 387/441
f 187/229 386/469 204/264
f 403/452 399/451 402/450 404/453
f 392/440 373/463 372/434 393/447
f 380/471 387/441 398/446 382/472
f 381/466 434/405 435/473 428/474
f 339/399 443/475 366/467
f 403/452 204/470 386/469 399/451
f 346/476 353/477 404/453 402/450
f 338/456 336/478 344/413 406/457
f 364/461 407/409 336/408 338/462
f 389/436 420/479 444/480 390/437
f 451/481 375/482 390/437 444/480
f 342/411 344/413 336/478 341/483
f 343/484 335/398 337/397 405/485
f 343/412 405/486 406/457 344/413
f 361/416 376/464 377/487 362/424
f 362/424 377/487 334/488 333/426
f 359/489 334/488 340/400 365/490
f 359/489 365/490 364/461 360/460
f 366/467 411/429 408/428 339/399
f 350/423 369/430 368/433 351/420
f 351/420 368/433 367/435 352/415
f 375/482 334/488 377/487 374/491
f 374/491 377/487 376/464 373/463
f 378/492 389/436 388/439 379/493
f 379/493 388/439 387/441 380/471
f 373/463 392/440 391/438 374/491
f 374/491 391/438 390/437 375/482
f 370/431 395/442 394/445 371/432
f 371/432 394/445 393/447 372/434
f 382/472 398/446 397/444 383/494
f 383/494 397/444 396/443 384/495
f 385/496 384/495 396/443 400/448
f 385/496 400/448 399/451 386/469
f 346/476 402/450 401/449 345/422
f 370/431 369/430 350/497 345/422
f 204/470 403/452 135/454
f 331/498 135/454 404/453 353/477
f 354/458 406/457 405/486 355/499
f 405/485 337/397 331/396 355/500
f 365/490 340/400 339/399 408/428
f 365/490 408/428 407/409 364/461
f 345/422 409/421 349/501 346/476
f 349/501 409/421 348/414 347/419
f 356/417 410/425 358/427 357/418
f 420/479 389/436 426/403 427/502
f 415/503 424/504 425/505 414/506
f 414/506 425/505 426/403 413/406
f 417/507 481/508 482/509 416/510
f 416/510 482/509 483/511 415/503
f 412/465 436/468 437/512 418/513
f 418/513 437/512 438/514 417/507
f 422/515 449/516 450/517 421/518
f 421/518 450/517 444/480 420/479
f 424/504 467/519 468/520 423/521
f 423/521 468/520 469/522 422/515
f 432/523 493/524 494/525 431/526
f 431/526 494/525 495/527 430/528
f 434/405 453/404 454/529 433/530
f 433/530 454/529 455/531 432/523
f 440/532 475/533 476/534 439/535
f 439/535 476/534 477/536 438/514
f 442/402 445/401 446/537 441/538
f 441/538 446/537 447/539 440/532
f 449/516 463/540 464/541 448/542
f 448/542 464/541 465/543 447/539
f 457/544 487/545 488/546 456/547
f 456/547 488/546 489/548 455/531
f 461/549 473/550 474/551 460/552
f 460/552 474/551 475/533 465/543
f 463/540 469/522 470/553 462/554
f 462/554 470/553 471/555 461/549
f 467/519 483/511 478/556 466/557
f 466/557 478/556 479/558 471/555
f 473/550 479/558 480/559 472/560
f 472/560 480/559 481/508 477/536
f 485/561 491/562 492/563 484/564
f 484/564 492/563 493/524 489/548
f 471/555 479/558 473/550 461/549
f 483/511 467/519 424/504 415/503
f 477/536 481/508 417/507 438/514
f 469/522 463/540 449/516 422/515
f 489/548 493/524 432/523 455/531
f 465/543 475/533 440/532 447/539
f 418/513 496/565 419/566 412/465
f 419/566 496/565 414/506 413/406
f 414/506 496/565 416/510 415/503
f 416/510 496/565 418/513 417/507
f 427/502 497/567 421/518 420/479
f 421/518 497/567 423/521 422/515
f 423/521 497/567 425/505 424/504
f 425/505 497/567 427/502 426/403
f 435/473 498/568 429/569 428/474
f 429/569 498/568 431/526 430/528
f 431/526 498/568 433/530 432/523
f 433/530 498/568 435/473 434/405
f 443/475 499/570 437/512 436/468
f 437/512 499/570 439/535 438/514
f 439/535 499/570 441/538 440/532
f 441/538 499/570 443/475 442/402
f 450/517 500/571 451/481 444/480
f 451/481 500/571 446/537 445/401
f 446/537 500/571 448/542 447/539
f 448/542 500/571 450/517 449/516
f 458/572 501/573 459/574 452/575
f 459/574 501/573 454/529 453/404
f 454/529 501/573 456/547 455/531
f 456/547 501/573 458/572 457/544
f 464/541 502/576 460/552 465/543
f 460/552 502/576 462/554 461/549
f 462/554 502/576 464/541 463/540
f 470/553 503/577 466/557 471/555
f 466/557 503/577 468/520 467/519
f 468/520 503/577 470/553 469/522
f 476/534 504/578 472/560 477/536
f 472/560 504/578 474/551 473/550
f 474/551 504/578 476/534 475/533
f 482/509 505/579 478/556 483/511
f 478/556 505/579 480/559 479/558
f 480/559 505/579 482/509 481/508
f 488/546 506/580 484/564 489/548
f 484/564 506/580 486/581 485/561
f 486/581 506/580 488/546 487/545
f 494/525 507/582 490/583 495/527
f 490/583 507/582 492/563 491/562
f 492/563 507/582 494/525 493/524
f 381/466 412/465 419/566 413/406
f 381/466 413/406 434/405
f 378/492 452/575 459/574 453/404
f 389/436 378/492 453/404 426/403
f 511/584 512/585 513/586 510/587
f 510/587 513/586 514/588 509/589
f 509/589 514/588 515/590 508/591
f 508/591 515/590 332/455 354/458
f 511/584 528/592 347/419 512/585
f 511/584 523/593 331/498 528/592
f 358/427 524/594 516/595 357/418
f 512/585 347/419 357/418 516/595
f 520/596 355/500 521/597
f 525/598 524/594 358/427 333/426
f 510/587 522/599 523/593 511/584
f 509/589 521/600 522/599 510/587
f 354/458 355/499 520/601 508/591
f 508/591 520/601 521/600 509/589
f 515/602 519/603 360/460 332/459
f 514/588 518/604 519/603 515/602
f 512/585 516/595 517/605 513/586
f 513/586 517/605 518/604 514/588
f 519/603 527/606 359/489 360/460
f 518/604 526/607 527/606 519/603
f 516/595 524/594 525/598 517/605
f 517/605 525/598 526/607 518/604
f 355/500 331/396 523/608
f 355/500 522/609 521/597
f 401/449 395/442 370/431 345/422
f 528/592 353/477 349/501 347/419
f 331/498 353/477 528/592
f 353/477 346/476 349/501
f 340/400 334/488 375/482
f 359/489 333/426 334/488
f 333/426 359/489 527/606 526/607
f 526/607 525/598 333/426
f 355/500 523/608 522/609
f 445/401 340/400 451/481
f 451/481 340/400 375/482
f 366/467 443/475 436/468
f 442/402 443/475 339/399
f 135/395 138/182 131/181
f 138/182 135/395 337/397
v 82.916626 -30.395044 -201.724609
v 155.292343 6.455648 -190.350876
v 89.366577 -9.907465 -213.931625
v 80.393234 7.325928 -200.806778
v 0.000000 -30.395044 -201.724609
v 82.916656 234.300613 0.000000
v 155.292343 210.972534 -34.461452
v 82.916656 35.509586 -150.312988
v 155.292343 43.798927 -161.911469
v 82.733826 215.380829 -40.772980
v 84.687363 49.158447 -168.948456
v 154.316818 243.223145 -9.899541
v 154.316818 240.195755 -5.924119
v 146.095383 232.896713 -1.606003
v 155.292343 207.944885 -30.486237
v 84.687347 -25.147198 -213.194351
v 84.687363 -27.350870 -211.911163
v 89.366577 -25.332897 -214.560883
v 87.011597 -23.129557 -215.844025
v 88.391022 -26.759880 -212.687180
v 82.704971 -16.321098 -207.697418
v 85.059937 -15.357049 -208.190308
v 86.036057 -13.776275 -209.945602
v 84.687363 -28.359537 -210.585892
v 155.292343 3.428160 -186.375854
v 146.520126 0.000000 -178.576172
v 87.011597 -21.216301 -218.356293
v 89.366577 -21.992321 -218.947296
v 91.073883 -19.466291 -219.982254
v 152.183273 11.223951 -196.611679
v 155.292343 9.797436 -194.738556
v 86.036057 -12.453298 -211.682922
v 87.011597 -10.871897 -213.439056
v 154.316818 246.564270 -14.286129
v 155.292343 47.140701 -166.299164
v 152.183273 48.567223 -168.172287
v 82.733841 247.990067 -16.162189
v 77.844131 1.956875 -197.963943
v 77.097290 -0.063955 -196.542786
v 75.294846 -2.088987 -196.858917
v 57.405655 3.805884 -192.368866
v 57.874176 6.271519 -191.718796
v 58.068298 8.473766 -193.000519
v 58.068298 9.797436 -194.738556
v 58.261871 12.000004 -196.020996
v 58.730377 14.464869 -195.369919
v 77.844131 3.279764 -199.700989
v 78.590210 5.301399 -201.122833
v 7.292580 14.464869 -195.369919
v 7.292580 12.000004 -196.020996
v 7.292580 9.797436 -194.738556
v 7.292580 247.991104 -16.159658
v 7.292580 8.473766 -193.000519
v 7.292580 6.270618 -191.717896
v 7.292580 3.805884 -192.368866
v 7.292580 -25.147198 -213.194351
v 7.292580 -27.350870 -211.911163
v 32.187664 9.797436 -194.738556
v 32.187664 12.000004 -196.020996
v 32.187664 14.464869 -195.369919
v 46.773388 14.464869 -195.369919
v 46.773388 12.000004 -196.020996
v 46.773388 9.797436 -194.738556
v 46.773388 8.473766 -193.000519
v 46.773388 6.270618 -191.717896
v 46.773388 3.805884 -192.368866
v 32.187664 3.805884 -192.368866
v 32.187664 6.270618 -191.717896
v 32.187664 8.473766 -193.000519
v 32.187664 -27.350870 -211.911163
v 32.187664 -25.147198 -213.194351
v 46.773388 -25.147198 -213.194351
v 46.773388 -27.350870 -211.911163
v 0.000000 -28.359537 -210.585892
v 32.187664 -28.359537 -210.585892
v 46.773388 -28.359537 -210.585892
v 146.520126 36.604973 -150.698730
v 155.292343 40.771515 -157.936401
v 155.292343 214.313385 -38.847950
v 152.183273 215.740356 -40.721676
v 86.036057 -24.556702 -213.970093
v 89.191772 -19.385746 -219.388580
v 151.749924 247.931305 -16.304039
v 54.313187 217.698303 -40.457283
v 52.594933 216.331207 -41.497482
v 54.034859 214.879150 -42.068230
v 54.950653 213.400085 -41.725109
v 55.555603 214.343674 -40.904274
v 57.024094 214.713974 -40.528976
v 56.016785 216.221680 -40.983818
v 53.098587 217.297623 -40.761475
v 54.313187 47.792095 -169.989365
v 55.753120 48.668926 -168.788391
v 56.782417 48.699951 -167.293945
v 55.531174 49.136436 -166.873993
v 55.012856 50.254753 -165.912750
v 54.088799 50.226372 -167.538406
v 52.594933 49.158382 -168.948502
v 53.098587 48.192375 -169.684509
v 7.292580 217.698303 -40.457283
v 5.791386 216.293808 -40.989574
v 4.822411 214.857803 -40.615265
v 6.073845 214.337051 -40.924316
v 6.592161 213.113785 -41.747631
v 7.516218 214.687729 -42.151695
v 9.009896 216.331207 -41.497482
v 8.507181 217.297623 -40.761475
v 68.898911 217.698303 -40.457283
v 67.397156 216.293808 -40.989574
v 66.428932 214.857803 -40.615265
v 67.680367 214.337051 -40.924316
v 68.198677 213.113785 -41.747631
v 69.122742 214.687729 -42.151695
v 70.586288 216.331207 -41.497482
v 70.113510 217.297623 -40.761475
v 68.898911 47.792095 -169.989365
v 70.616417 49.158382 -168.948502
v 69.176674 50.094383 -167.699615
v 68.260696 50.156933 -166.183701
v 67.655746 49.114723 -166.875214
v 66.187439 48.655037 -167.131989
v 67.194748 48.692448 -168.706268
v 70.113510 48.192375 -169.684509
v 7.292580 47.792095 -169.989365
v 9.009896 49.158382 -168.948502
v 7.569968 50.094383 -167.699615
v 6.654930 50.157269 -166.183441
v 6.049414 49.114723 -166.875214
v 4.580920 48.655037 -167.131989
v 5.588232 48.692516 -168.706207
v 8.507181 48.192375 -169.684509
v 66.609344 49.258434 -163.143967
v 65.180130 49.085407 -162.716034
v 65.335175 48.218788 -163.920105
v 65.703331 48.177486 -165.411484
v 66.999680 48.603767 -165.077255
v 67.535851 49.635025 -164.301147
v 56.611778 49.224335 -163.154617
v 55.675499 49.635025 -164.301147
v 56.246246 48.615211 -165.184860
v 57.624725 48.222389 -165.573456
v 58.007545 48.223320 -164.023666
v 58.030472 49.085407 -162.716034
v 65.301910 211.749023 -39.258812
v 65.180130 210.342163 -39.769585
v 66.599571 210.728256 -40.020256
v 67.535851 211.724838 -40.721546
v 66.999489 212.755402 -39.936382
v 65.703331 213.182251 -39.611301
v 56.602005 210.709167 -40.050758
v 58.030472 210.342163 -39.769585
v 57.875427 211.733582 -39.254616
v 57.507271 213.182251 -39.611301
v 56.211861 212.755402 -39.936382
v 55.675499 211.724777 -40.721603
v 5.002825 49.258434 -163.143967
v 3.574360 49.085407 -162.716034
v 3.729590 48.218788 -163.920105
v 4.097748 48.177486 -165.411484
v 5.393910 48.603767 -165.077255
v 5.930079 49.635025 -164.301147
v 3.696139 211.749023 -39.258812
v 3.574360 210.342163 -39.769585
v 4.993805 210.728256 -40.020256
v 5.930079 211.724777 -40.721603
v 5.393158 212.755402 -39.936382
v 4.097748 213.182251 -39.611301
v 54.606361 215.838364 -41.306404
v 54.568771 49.116650 -168.418655
v 7.017262 215.827423 -41.318863
v 68.623215 215.827423 -41.318863
v 68.604424 49.105579 -168.422302
v 6.998656 49.105640 -168.422256
v 66.440392 48.482544 -163.974808
v 56.827332 48.466717 -164.056168
v 66.427429 211.733307 -39.517422
v 56.771896 211.722046 -39.525043
v 4.833876 48.482544 -163.974808
v 4.820908 211.733307 -39.517422
v 152.018967 -8.914554 -195.776718
v 143.474655 -18.793936 -203.300308
v 130.891708 -25.397800 -208.329971
v 116.110947 -27.759789 -210.129120
v 116.118454 -24.736298 -214.106857
v 130.896591 -22.372602 -212.307068
v 143.477646 -15.767220 -207.276260
v 152.019333 -5.886830 -199.750931
v 116.113388 -21.395424 -218.493668
v 130.893417 -19.032059 -216.694092
v 143.475998 -12.427093 -211.664246
v 152.019150 -2.547887 -204.140167
v 143.495163 -11.446469 -187.489548
v 135.200058 -21.136927 -195.016434
v 122.875656 -27.623932 -200.032257
v 108.365524 -29.936132 -201.787201
v 114.458908 -19.404675 -219.527130
v 128.952072 -17.100410 -217.765381
v 141.262436 -10.547899 -212.850220
v 149.547653 -0.727349 -205.516891
v 89.366409 -28.338207 -210.569641
v -82.916626 -30.395044 -201.724609
v -155.292343 6.455648 -190.350876
v -89.366577 -9.907465 -213.931625
v -80.393234 7.325928 -200.806778
v -82.916656 234.300613 0.000000
v -155.292343 210.972534 -34.461452
v -82.916656 35.509586 -150.312988
v -155.292343 43.798927 -161.911469
v -82.733826 215.380829 -40.772980
v -84.687363 49.158447 -168.948456
v -154.316818 243.223145 -9.899541
v -154.316818 240.195755 -5.924119
v -146.095383 232.896713 -1.606003
v -155.292343 207.944885 -30.486237
v -84.687347 -25.147198 -213.194351
v -84.687363 -27.350870 -211.911163
v -89.366577 -25.332897 -214.560883
v -87.011597 -23.129557 -215.844025
v -88.391022 -26.759880 -212.687180
v -82.704971 -16.321098 -207.697418
v -85.059937 -15.357049 -208.190308
v -86.036057 -13.776275 -209.945602
v -84.687363 -28.359537 -210.585892
v -155.292343 3.428160 -186.375854
v -146.520126 0.000000 -178.576172
v -87.011597 -21.216301 -218.356293
v -89.366577 -21.992321 -218.947296
v -91.073883 -19.466291 -219.982254
v -152.183273 11.223951 -196.611679
v -155.292343 9.797436 -194.738556
v -86.036057 -12.453298 -211.682922
v -87.011597 -10.871897 -213.439056
v -154.316818 246.564270 -14.286129
v -155.292343 47.140701 -166.299164
v -152.183273 48.567223 -168.172287
v -82.733841 247.990067 -16.162189
v -77.844131 1.956875 -197.963943
v -77.097290 -0.063955 -196.542786
v -75.294846 -2.088987 -196.858917
v -57.405655 3.805884 -192.368866
v -57.874176 6.271519 -191.718796
v -58.068298 8.473766 -193.000519
v -58.068298 9.797436 -194.738556
v -58.261871 12.000004 -196.020996
v -58.730377 14.464869 -195.369919
v -77.844131 3.279764 -199.700989
v -78.590210 5.301399 -201.122833
v -7.292580 14.464869 -195.369919
v -7.292580 12.000004 -196.020996
v -7.292580 9.797436 -194.738556
v -7.292580 247.991104 -16.159658
v -7.292580 8.473766 -193.000519
v -7.292580 6.270618 -191.717896
v -7.292580 3.805884 -192.368866
v -7.292580 -25.147198 -213.194351
v -7.292580 -27.350870 -211.911163
v -32.187664 9.797436 -194.738556
v -32.187664 12.000004 -196.020996
v -32.187664 14.464869 -195.369919
v -46.773388 14.464869 -195.369919
v -46.773388 12.000004 -196.020996
v -46.773388 9.797436 -194.738556
v -46.773388 8.473766 -193.000519
v -46.773388 6.270618 -191.717896
v -46.773388 3.805884 -192.368866
v -32.187664 3.805884 -192.368866
v -32.187664 6.270618 -191.717896
v -32.187664 8.473766 -193.000519
v -32.187664 -27.350870 -211.911163
v -32.187664 -25.147198 -213.194351
v -46.773388 -25.147198 -213.194351
v -46.773388 -27.350870 -211.911163
v -32.187664 -28.359537 -210.585892
v -46.773388 -28.359537 -210.585892
v -146.520126 36.604973 -150.698730
v -155.292343 40.771515 -157.936401
v -155.292343 214.313385 -38.847950
v -152.183273 215.740356 -40.721676
v -86.036057 -24.556702 -213.970093
v -89.191772 -19.385746 -219.388580
v -151.749924 247.931305 -16.304039
v -54.313187 217.698303 -40.457283
v -52.594933 216.331207 -41.497482
v -54.034859 214.879150 -42.068230
v -54.950653 213.400085 -41.725109
v -55.555603 214.343674 -40.904274
v -57.024094 214.713974 -40.528976
v -56.016785 216.221680 -40.983818
v -53.098587 217.297623 -40.761475
v -54.313187 47.792095 -169.989365
v -55.753120 48.668926 -168.788391
v -56.782417 48.699951 -167.293945
v -55.531174 49.136436 -166.873993
v -55.012856 50.254753 -165.912750
v -54.088799 50.226372 -167.538406
v -52.594933 49.158382 -168.948502
v -53.098587 48.192375 -169.684509
v -7.292580 217.698303 -40.457283
v -5.791386 216.293808 -40.989574
v -4.822411 214.857803 -40.615265
v -6.073845 214.337051 -40.924316
v -6.592161 213.113785 -41.747631
v -7.516218 214.687729 -42.151695
v -9.009896 216.331207 -41.497482
v -8.507181 217.297623 -40.761475
v -68.898911 217.698303 -40.457283
v -67.397156 216.293808 -40.989574
v -66.428932 214.857803 -40.615265
v -67.680367 214.337051 -40.924316
v -68.198677 213.113785 -41.747631
v -69.122742 214.687729 -42.151695
v -70.586288 216.331207 -41.497482
v -70.113510 217.297623 -40.761475
v -68.898911 47.792095 -169.989365
v -70.616417 49.158382 -168.948502
v -69.176674 50.094383 -167.699615
v -68.260696 50.156933 -166.183701
v -67.655746 49.114723 -166.875214
v -66.187439 48.655037 -167.131989
v -67.194748 48.692448 -168.706268
v -70.113510 48.192375 -169.684509
v -7.292580 47.792095 -169.989365
v -9.009896 49.158382 -168.948502
v -7.569968 50.094383 -167.699615
v -6.654930 50.157269 -166.183441
v -6.049414 49.114723 -166.875214
v -4.580920 48.655037 -167.131989
v -5.588232 48.692516 -168.706207
v -8.507181 48.192375 -169.684509
v -66.609344 49.258434 -163.143967
v -65.180130 49.085407 -162.716034
v -65.335175 48.218788 -163.920105
v -65.703331 48.177486 -165.411484
v -66.999680 48.603767 -165.077255
v -67.535851 49.635025 -164.301147
v -56.611778 49.224335 -163.154617
v -55.675499 49.635025 -164.301147
v -56.246246 48.615211 -165.184860
v -57.624725 48.222389 -165.573456
v -58.007545 48.223320 -164.023666
v -58.030472 49.085407 -162.716034
v -65.301910 211.749023 -39.258812
v -65.180130 210.342163 -39.769585
v -66.599571 210.728256 -40.020256
v -67.535851 211.724838 -40.721546
v -66.999489 212.755402 -39.936382
v -65.703331 213.182251 -39.611301
v -56.602005 210.709167 -40.050758
v -58.030472 210.342163 -39.769585
v -57.875427 211.733582 -39.254616
v -57.507271 213.182251 -39.611301
v -56.211861 212.755402 -39.936382
v -55.675499 211.724777 -40.721603
v -5.002825 49.258434 -163.143967
v -3.574360 49.085407 -162.716034
v -3.729590 48.218788 -163.920105
v -4.097748 48.177486 -165.411484
v -5.393910 48.603767 -165.077255
v -5.930079 49.635025 -164.301147
v -3.696139 211.749023 -39.258812
v -3.574360 210.342163 -39.769585
v -4.993805 210.728256 -40.020256
v -5.930079 211.724777 -40.721603
v -5.393158 212.755402 -39.936382
v -4.097748 213.182251 -39.611301
v -54.606361 215.838364 -41.306404
v -54.568771 49.116650 -168.418655
v -7.017262 215.827423 -41.318863
v -68.623215 215.827423 -41.318863
v -68.604424 49.105579 -168.422302
v -6.998656 49.105640 -168.422256
v -66.440392 48.482544 -163.974808
v -56.827332 48.466717 -164.056168
v -66.427429 211.733307 -39.517422
v -56.771896 211.722046 -39.525043
v -4.833876 48.482544 -163.974808
v -4.820908 211.733307 -39.517422
v -152.018967 -8.914554 -195.776718
v -143.474655 -18.793936 -203.300308
v -130.891708 -25.397800 -208.329971
v -116.110947 -27.759789 -210.129120
v -116.118454 -24.736298 -214.106857
v -130.896591 -22.372602 -212.307068
v -143.477646 -15.767220 -207.276260
v -152.019333 -5.886830 -199.750931
v -116.113388 -21.395424 -218.493668
v -130.893417 -19.032059 -216.694092
v -143.475998 -12.427093 -211.664246
v -152.019150 -2.547887 -204.140167
v -143.495163 -11.446469 -187.489548
v -135.200058 -21.136927 -195.016434
v -122.875656 -27.623932 -200.032257
v -108.365524 -29.936132 -201.787201
v -114.458908 -19.404675 -219.527130
v -128.952072 -17.100410 -217.765381
v -141.262436 -10.547899 -212.850220
v -149.547653 -0.727349 -205.516891
v -89.366409 -28.338207 -210.569641
vt 0.566160 0.999848
vt 0.562494 0.922777
vt 0.567006 0.749680
vt 0.562494 0.463108
vt 0.562494 0.327219
vt 0.529865 0.327220
vt 0.529864 0.463108
vt 0.524825 0.327220
vt 0.502537 0.327220
vt 0.502535 0.463109
vt 0.524824 0.463108
vt 0.625000 0.500000
vt 0.625000 0.463108
vt 0.625000 0.463108
vt 0.624231 0.498893
vt 0.625563 0.750507
vt 0.875000 0.069452
vt 0.874537 -0.005208
vt 0.838109 0.099983
vt 0.562854 0.252090
vt 0.562494 0.260653
vt 0.562494 0.260653
vt 0.563126 0.251436
vt 0.563723 0.249998
vt 0.563723 0.249998
vt 0.562494 0.260653
vt 0.562494 0.249998
vt 0.561829 0.222774
vt 0.561554 0.260064
vt 0.562494 0.260653
vt 0.562494 0.249998
vt 0.567514 0.273374
vt 0.563758 0.250622
vt 0.625000 0.463108
vt 0.625000 0.500000
vt 0.561517 0.282431
vt 0.554921 0.283859
vt 0.554718 0.285507
vt 0.562494 0.285507
vt 0.554718 0.285507
vt 0.562494 0.285507
vt 0.502054 0.288467
vt 0.502054 0.285507
vt 0.502053 0.285507
vt 0.501976 0.282548
vt 0.502052 0.285507
vt 0.502052 0.285507
vt 0.501145 0.249999
vt 0.501870 0.149986
vt 0.525308 0.288467
vt 0.529388 0.288467
vt 0.529388 0.285507
vt 0.525308 0.285507
vt 0.529387 0.285507
vt 0.525308 0.285507
vt 0.529345 0.282547
vt 0.525261 0.282547
vt 0.525307 0.285507
vt 0.529386 0.285507
vt 0.525308 0.285507
vt 0.529387 0.285507
vt 0.524749 0.249999
vt 0.528891 0.249999
vt 0.529288 0.150014
vt 0.525195 0.150029
vt 0.503161 0.000009
vt 0.525418 0.100023
vt 0.529486 0.099994
vt 0.660506 0.250009
vt 0.702221 0.249999
vt 0.702221 0.099996
vt 0.660523 0.091217
vt 0.625024 0.285473
vt 0.624996 0.285541
vt 0.625000 0.327219
vt 0.625000 0.327219
vt 0.554718 0.285507
vt 0.562494 0.285507
vt 0.513735 0.499947
vt 0.502052 0.464635
vt 0.525307 0.464635
vt 0.545957 0.499946
vt 0.529387 0.464635
vt 0.502236 0.099989
vt 0.502394 0.464188
vt 0.529724 0.464188
vt 0.562494 0.150010
vt 0.562494 0.099990
vt 0.838109 0.250000
vt 0.502053 0.325694
vt 0.525308 0.325693
vt 0.529388 0.325693
vt 0.554902 0.288466
vt 0.875000 0.250000
vt 0.625000 0.922779
vt 0.702221 0.000000
vt 0.562494 0.285507
vt 0.563363 0.294670
vt 0.625646 0.284019
vt 0.625000 0.327219
vt 0.554718 0.285507
vt 0.561719 0.243820
vt 0.563539 -0.000709
vt 0.660505 0.000004
vt 0.625000 0.964496
vt 0.563363 0.179293
vt 0.524966 0.326140
vt 0.501602 0.463132
vt 0.501554 0.463109
vt 0.501301 0.327220
vt 0.501546 0.327268
vt 0.525307 0.461480
vt 0.525308 0.329055
vt 0.525273 0.328514
vt 0.525237 0.461977
vt 0.526082 0.463108
vt 0.526013 0.463108
vt 0.525740 0.462572
vt 0.525782 0.462459
vt 0.525307 0.461480
vt 0.528924 0.463132
vt 0.525827 0.463062
vt 0.528874 0.463108
vt 0.525820 0.327220
vt 0.528612 0.327220
vt 0.528865 0.327267
vt 0.525769 0.327193
vt 0.525308 0.328892
vt 0.525653 0.327807
vt 0.525644 0.327882
vt 0.525871 0.327220
vt 0.502052 0.461273
vt 0.502052 0.461437
vt 0.501740 0.462484
vt 0.501727 0.462449
vt 0.501554 0.463109
vt 0.502123 0.328351
vt 0.502088 0.461817
vt 0.502053 0.328848
vt 0.529387 0.461273
vt 0.529387 0.461436
vt 0.529065 0.462484
vt 0.529052 0.462449
vt 0.528874 0.463109
vt 0.529457 0.328351
vt 0.529422 0.461817
vt 0.529387 0.328848
vt 0.528681 0.327220
vt 0.528956 0.327760
vt 0.528913 0.327869
vt 0.529387 0.328848
vt 0.501368 0.327220
vt 0.501634 0.327760
vt 0.501593 0.327869
vt 0.502053 0.328848
vt 0.528725 0.328796
vt 0.528725 0.461541
vt 0.529170 0.462596
vt 0.529188 0.327695
vt 0.525474 0.327615
vt 0.529176 0.327722
vt 0.525970 0.328796
vt 0.525510 0.462629
vt 0.525556 0.327810
vt 0.525969 0.461541
vt 0.525522 0.462601
vt 0.529185 0.462630
vt 0.501410 0.328796
vt 0.501409 0.461541
vt 0.501842 0.462597
vt 0.501859 0.327695
vt 0.501848 0.327723
vt 0.501856 0.462630
vt 0.525307 0.463108
vt 0.524966 0.464188
vt 0.525308 0.327220
vt 0.502052 0.463109
vt 0.529387 0.463108
vt 0.529387 0.327220
vt 0.529725 0.326140
vt 0.502053 0.327220
vt 0.502395 0.326141
vt 0.529387 0.327220
vt 0.525308 0.327220
vt 0.529387 0.463108
vt 0.525307 0.463108
vt 0.502053 0.327220
vt 0.502052 0.463109
vt 0.611077 0.099989
vt 0.610818 0.249998
vt 0.616750 0.249882
vt 0.617040 0.099872
vt 0.625000 0.249998
vt 0.625336 0.099984
vt 0.641261 0.249998
vt 0.641429 0.099692
vt 0.564222 0.099990
vt 0.610674 0.000009
vt 0.610680 0.250144
vt 0.610260 0.250797
vt 0.625000 0.983595
vt 0.625000 1.000000
vt 0.617339 0.248796
vt 0.616543 0.000005
vt 0.625000 0.000000
vt 0.641406 0.000004
vt 0.625000 0.266260
vt 0.624615 0.266806
vt 0.624278 0.251037
vt 0.616128 0.250890
vt 0.625001 0.266909
vt 0.625000 0.249998
vt 0.610676 1.000000
vt 0.616544 1.000000
vt 0.503165 1.000000
vt 0.566160 0.999848
vt 0.562494 0.922777
vt 0.567006 0.749680
vt 0.562494 0.463108
vt 0.562494 0.327219
vt 0.529865 0.327220
vt 0.529864 0.463108
vt 0.524825 0.327220
vt 0.502537 0.327220
vt 0.502535 0.463109
vt 0.524824 0.463108
vt 0.625000 0.500000
vt 0.625000 0.463108
vt 0.625000 0.463108
vt 0.624231 0.498893
vt 0.875000 0.069452
vt 0.874537 -0.005208
vt 0.838109 0.099983
vt 0.562854 0.252090
vt 0.562494 0.260653
vt 0.562494 0.260653
vt 0.563126 0.251436
vt 0.563723 0.249998
vt 0.563723 0.249998
vt 0.562494 0.260653
vt 0.562494 0.249998
vt 0.561829 0.222774
vt 0.561554 0.260064
vt 0.562494 0.260653
vt 0.562494 0.249998
vt 0.567514 0.273374
vt 0.563758 0.250622
vt 0.625000 0.463108
vt 0.625000 0.500000
vt 0.561517 0.282431
vt 0.554921 0.283859
vt 0.554718 0.285507
vt 0.562494 0.285507
vt 0.554718 0.285507
vt 0.562494 0.285507
vt 0.525308 0.288467
vt 0.529388 0.288467
vt 0.529388 0.285507
vt 0.525308 0.285507
vt 0.529387 0.285507
vt 0.525308 0.285507
vt 0.529345 0.282547
vt 0.525261 0.282547
vt 0.525307 0.285507
vt 0.529386 0.285507
vt 0.525308 0.285507
vt 0.529387 0.285507
vt 0.524749 0.249999
vt 0.528891 0.249999
vt 0.529288 0.150014
vt 0.525195 0.150029
vt 0.525418 0.100023
vt 0.529486 0.099994
vt 0.503161 0.000009
vt 0.660506 0.250009
vt 0.702221 0.249999
vt 0.702221 0.099996
vt 0.660523 0.091217
vt 0.625024 0.285473
vt 0.624996 0.285541
vt 0.625000 0.327219
vt 0.625000 0.327219
vt 0.554718 0.285507
vt 0.562494 0.285507
vt 0.525307 0.464635
vt 0.513735 0.499947
vt 0.545957 0.499946
vt 0.529387 0.464635
vt 0.501870 0.149986
vt 0.502236 0.099989
vt 0.502053 0.285507
vt 0.502052 0.285507
vt 0.502394 0.464188
vt 0.502052 0.464635
vt 0.529724 0.464188
vt 0.562494 0.150010
vt 0.562494 0.099990
vt 0.838109 0.250000
vt 0.525308 0.325693
vt 0.529388 0.325693
vt 0.529725 0.326140
vt 0.554902 0.288466
vt 0.875000 0.250000
vt 0.625563 0.750507
vt 0.625000 0.922779
vt 0.702221 0.000000
vt 0.562494 0.285507
vt 0.563363 0.294670
vt 0.625646 0.284019
vt 0.625000 0.327219
vt 0.554718 0.285507
vt 0.502054 0.288467
vt 0.502054 0.285507
vt 0.502052 0.285507
vt 0.501976 0.282548
vt 0.501145 0.249999
vt 0.561719 0.243820
vt 0.563539 -0.000709
vt 0.660505 0.000004
vt 0.625000 0.964496
vt 0.563363 0.179293
vt 0.524966 0.326140
vt 0.525307 0.461480
vt 0.525308 0.329055
vt 0.525273 0.328514
vt 0.525237 0.461977
vt 0.526082 0.463108
vt 0.526013 0.463108
vt 0.525740 0.462572
vt 0.525782 0.462459
vt 0.525307 0.461480
vt 0.528924 0.463132
vt 0.525827 0.463062
vt 0.528874 0.463108
vt 0.525820 0.327220
vt 0.528612 0.327220
vt 0.528865 0.327267
vt 0.525769 0.327193
vt 0.525308 0.328892
vt 0.525653 0.327807
vt 0.525644 0.327882
vt 0.525871 0.327220
vt 0.502052 0.461273
vt 0.502052 0.461437
vt 0.501740 0.462484
vt 0.501727 0.462449
vt 0.501554 0.463109
vt 0.501554 0.463109
vt 0.502123 0.328351
vt 0.502088 0.461817
vt 0.502053 0.328848
vt 0.529387 0.461273
vt 0.529387 0.461436
vt 0.529065 0.462484
vt 0.529052 0.462449
vt 0.528874 0.463109
vt 0.529457 0.328351
vt 0.529422 0.461817
vt 0.529387 0.328848
vt 0.528681 0.327220
vt 0.528956 0.327760
vt 0.528913 0.327869
vt 0.529387 0.328848
vt 0.501301 0.327220
vt 0.501368 0.327220
vt 0.501634 0.327760
vt 0.501593 0.327869
vt 0.502053 0.328848
vt 0.528725 0.328796
vt 0.528725 0.461541
vt 0.529170 0.462596
vt 0.529188 0.327695
vt 0.525474 0.327615
vt 0.529176 0.327722
vt 0.525970 0.328796
vt 0.525510 0.462629
vt 0.525556 0.327810
vt 0.525969 0.461541
vt 0.525522 0.462601
vt 0.529185 0.462630
vt 0.501410 0.328796
vt 0.501409 0.461541
vt 0.501842 0.462597
vt 0.501859 0.327695
vt 0.525307 0.463108
vt 0.524966 0.464188
vt 0.525308 0.327220
vt 0.502052 0.463109
vt 0.501602 0.463132
vt 0.529387 0.463108
vt 0.529387 0.327220
vt 0.501546 0.327268
vt 0.502053 0.327220
vt 0.502395 0.326141
vt 0.502053 0.325694
vt 0.529387 0.327220
vt 0.525308 0.327220
vt 0.529387 0.463108
vt 0.525307 0.463108
vt 0.502053 0.327220
vt 0.501848 0.327723
vt 0.502052 0.463109
vt 0.501856 0.462630
vt 0.611077 0.099989
vt 0.610818 0.249998
vt 0.616750 0.249882
vt 0.617040 0.099872
vt 0.625000 0.249998
vt 0.625336 0.099984
vt 0.641261 0.249998
vt 0.641429 0.099692
vt 0.564222 0.099990
vt 0.610674 0.000009
vt 0.610680 0.250144
vt 0.610260 0.250797
vt 0.625000 0.983595
vt 0.625000 1.000000
vt 0.617339 0.248796
vt 0.616543 0.000005
vt 0.625000 0.000000
vt 0.641406 0.000004
vt 0.625000 0.266260
vt 0.624615 0.266806
vt 0.624278 0.251037
vt 0.616128 0.250890
vt 0.625001 0.266909
vt 0.625000 0.249998
vt 0.610676 1.000000
vt 0.616544 1.000000
f 735/826 729/825 533/824
f 733/827 735/826 536/611 534/612
f 538/613 539/614 645/615 642/616
f 626/617 653/618 634/619 613/620
f 540/621 535/622 607/623 562/624
f 541/626 542/627 543/628
f 547/629 551/630 560/631 555/632
f 547/629 555/632 556/633 546/634
f 550/635 609/636 544/637 549/638
f 547/629 609/636 550/635 551/630
f 561/639 610/640 555/632 560/631
f 531/641 557/642 610/640 561/639
f 608/643 611/644 562/624 607/623
f 568/645 569/646 570/647 567/648
f 567/648 570/647 571/649 566/650
f 588/659 589/660 590/661 587/662
f 587/662 590/661 591/663 586/664
f 594/665 595/666 596/667 593/668
f 593/668 596/667 597/669 592/670
f 599/671 595/666 594/665 600/672
f 599/671 600/672 601/673 598/674
f 603/676 604/677 533/675
f 530/678 537/679 606/680 553/681
f 530/682 559/683 563/684 537/685
f 571/649 572/686 575/687 566/650
f 566/650 575/687 560/631 551/630
f 612/690 580/688 565/691 636/692
f 591/663 592/670 597/669 586/664
f 603/676 598/674 601/673 604/677
f 591/663 572/686 571/649 592/670
f 579/653 586/664 597/669 581/656
f 580/688 634/619 635/694 628/689
f 538/613 643/695 565/691
f 603/676 602/693 585/658 598/674
f 545/696 552/697 604/677 601/673
f 537/679 535/698 543/628 606/680
f 563/684 607/623 535/622 537/685
f 588/659 620/700 644/701 589/660
f 651/789 574/702 589/660 644/701
f 541/626 543/628 535/698 540/703
f 542/625 534/612 536/611 605/704
f 542/627 605/705 606/680 543/628
f 560/631 575/687 576/706 561/639
f 561/639 576/706 532/707 531/641
f 558/708 532/707 539/614 564/709
f 558/708 564/709 563/684 559/683
f 565/691 611/644 608/643 538/613
f 549/638 568/645 567/648 550/635
f 550/635 567/648 566/650 551/630
f 574/702 532/707 576/706 573/710
f 573/710 576/706 575/687 572/686
f 577/651 588/659 587/662 578/652
f 578/652 587/662 586/664 579/653
f 572/686 591/663 590/661 573/710
f 573/710 590/661 589/660 574/702
f 569/646 594/665 593/668 570/647
f 570/647 593/668 592/670 571/649
f 581/656 597/669 596/667 582/655
f 582/655 596/667 595/666 583/654
f 584/657 583/654 595/666 599/671
f 584/657 599/671 598/674 585/658
f 545/696 601/673 600/672 544/637
f 569/646 568/645 549/711 544/637
f 602/693 603/676 533/675
f 529/712 533/675 604/677 552/697
f 553/681 606/680 605/705 554/713
f 605/704 536/611 529/610 554/714
f 564/709 539/614 538/613 608/643
f 564/709 608/643 607/623 563/684
f 544/637 609/636 548/715 545/696
f 548/715 609/636 547/629 546/634
f 555/632 610/640 557/642 556/633
f 620/700 588/659 626/617 627/716
f 615/721 624/722 625/723 614/724
f 614/724 625/723 626/617 613/620
f 617/725 681/726 682/727 616/728
f 616/728 682/727 683/729 615/721
f 612/690 636/692 637/730 618/731
f 618/731 637/730 638/732 617/725
f 622/733 649/734 650/735 621/736
f 621/736 650/735 644/701 620/700
f 624/722 667/737 668/738 623/739
f 623/739 668/738 669/740 622/733
f 632/741 693/742 694/743 631/744
f 631/744 694/743 695/745 630/718
f 634/619 653/618 654/746 633/747
f 633/747 654/746 655/748 632/741
f 640/749 675/750 676/751 639/752
f 639/752 676/751 677/753 638/732
f 642/616 645/615 646/754 641/755
f 641/755 646/754 647/756 640/749
f 649/734 663/757 664/758 648/759
f 648/759 664/758 665/760 647/756
f 657/719 687/761 688/762 656/763
f 656/763 688/762 689/764 655/748
f 661/765 673/766 674/767 660/768
f 660/768 674/767 675/750 665/760
f 663/757 669/740 670/769 662/770
f 662/770 670/769 671/771 661/765
f 667/737 683/729 678/772 666/773
f 666/773 678/772 679/774 671/771
f 673/766 679/774 680/775 672/776
f 672/776 680/775 681/726 677/753
f 685/777 691/778 692/779 684/780
f 684/780 692/779 693/742 689/764
f 671/771 679/774 673/766 661/765
f 683/729 667/737 624/722 615/721
f 677/753 681/726 617/725 638/732
f 669/740 663/757 649/734 622/733
f 689/764 693/742 632/741 655/748
f 665/760 675/750 640/749 647/756
f 618/731 696/783 619/784 612/690
f 619/784 696/783 614/724 613/620
f 614/724 696/783 616/728 615/721
f 616/728 696/783 618/731 617/725
f 627/716 697/785 621/736 620/700
f 621/736 697/785 623/739 622/733
f 623/739 697/785 625/723 624/722
f 625/723 697/785 627/716 626/617
f 635/694 698/786 629/717 628/689
f 629/717 698/786 631/744 630/718
f 631/744 698/786 633/747 632/741
f 633/747 698/786 635/694 634/619
f 643/695 699/787 637/730 636/692
f 637/730 699/787 639/752 638/732
f 639/752 699/787 641/755 640/749
f 641/755 699/787 643/695 642/616
f 650/735 700/788 651/789 644/701
f 651/789 700/788 646/754 645/615
f 646/754 700/788 648/759 647/756
f 648/759 700/788 650/735 649/734
f 658/720 701/790 659/791 652/699
f 659/791 701/790 654/746 653/618
f 654/746 701/790 656/763 655/748
f 656/763 701/790 658/720 657/719
f 664/758 702/792 660/768 665/760
f 660/768 702/792 662/770 661/765
f 662/770 702/792 664/758 663/757
f 670/769 703/793 666/773 671/771
f 666/773 703/793 668/738 667/737
f 668/738 703/793 670/769 669/740
f 676/751 704/794 672/776 677/753
f 672/776 704/794 674/767 673/766
f 674/767 704/794 676/751 675/750
f 682/727 705/795 678/772 683/729
f 678/772 705/795 680/775 679/774
f 680/775 705/795 682/727 681/726
f 688/762 706/796 684/780 689/764
f 684/780 706/796 686/781 685/777
f 686/781 706/796 688/762 687/761
f 694/743 707/797 690/782 695/745
f 690/782 707/797 692/779 691/778
f 692/779 707/797 694/743 693/742
f 580/688 612/690 619/784 613/620
f 580/688 613/620 634/619
f 577/651 652/699 659/791 653/618
f 588/659 577/651 653/618 626/617
f 711/798 712/799 713/800 710/801
f 710/801 713/800 714/802 709/803
f 709/803 714/802 715/804 708/805
f 708/805 715/804 530/678 553/681
f 711/798 728/806 546/634 712/799
f 711/798 723/807 529/712 728/806
f 557/642 724/808 716/809 556/633
f 712/799 546/634 556/633 716/809
f 720/810 554/714 721/811
f 725/812 724/808 557/642 531/641
f 710/801 722/813 723/807 711/798
f 709/803 721/814 722/813 710/801
f 553/681 554/713 720/815 708/805
f 708/805 720/815 721/814 709/803
f 715/816 719/817 559/683 530/682
f 714/802 718/818 719/817 715/816
f 712/799 716/809 717/819 713/800
f 713/800 717/819 718/818 714/802
f 719/817 727/820 558/708 559/683
f 718/818 726/821 727/820 719/817
f 716/809 724/808 725/812 717/819
f 717/819 725/812 726/821 718/818
f 554/714 529/610 723/822
f 554/714 722/823 721/811
f 600/672 594/665 569/646 544/637
f 728/806 552/697 548/715 546/634
f 529/712 552/697 728/806
f 552/697 545/696 548/715
f 539/614 532/707 574/702
f 558/708 531/641 532/707
f 531/641 558/708 727/820 726/821
f 726/821 725/812 531/641
f 554/714 723/822 722/823
f 628/689 826/903 779/895 580/688
f 629/717 827/998 826/903 628/689
f 630/718 828/957 827/998 629/717
f 695/745 893/956 828/957 630/718
f 690/782 888/1012 893/956 695/745
f 691/778 889/991 888/1012 690/782
f 685/777 883/990 889/991 691/778
f 686/781 884/1010 883/990 685/777
f 687/761 885/974 884/1010 686/781
f 657/719 855/973 885/974 687/761
f 658/720 856/1001 855/973 657/719
f 652/699 850/1004 856/1001 658/720
f 577/651 776/921 850/1004 652/699
f 578/652 777/922 776/921 577/651
f 579/653 778/900 777/922 578/652
f 581/656 780/901 778/900 579/653
f 582/655 781/923 780/901 581/656
f 583/654 782/924 781/923 582/655
f 584/657 783/925 782/924 583/654
f 585/658 784/898 783/925 584/657
f 645/615 539/614 651/789
f 651/789 539/614 574/702
f 565/691 643/695 636/692
f 642/616 643/695 538/613
f 737/828 840/831 843/830 738/829
f 824/832 811/835 832/834 851/833
f 739/836 761/839 805/838 734/837
f 740/840 742/842 741/841
f 746/843 754/846 759/845 750/844
f 746/843 745/848 755/847 754/846
f 749/849 748/852 743/851 807/850
f 746/843 750/844 749/849 807/850
f 760/853 759/845 754/846 808/854
f 731/855 760/853 808/854 756/856
f 806/857 805/838 761/839 809/858
f 767/859 766/862 769/861 768/860
f 766/862 765/864 770/863 769/861
f 787/865 786/868 789/867 788/866
f 786/868 785/870 790/869 789/867
f 793/871 792/874 795/873 794/872
f 792/874 791/876 796/875 795/873
f 798/877 799/878 793/871 794/872
f 798/877 797/880 800/879 799/878
f 801/881 533/883 802/882
f 730/884 752/887 804/886 736/885
f 730/888 736/891 762/890 758/889
f 770/863 765/864 774/893 771/892
f 765/864 750/844 759/845 774/893
f 810/894 834/897 764/896 779/895
f 790/869 785/870 796/875 791/876
f 585/658 602/693 784/898
f 801/881 802/882 800/879 797/880
f 790/869 791/876 770/863 771/892
f 778/900 780/901 796/875 785/870
f 779/895 826/903 833/902 832/834
f 737/828 764/896 841/904
f 801/881 797/880 784/898 602/899
f 744/905 800/879 802/882 751/906
f 736/885 804/886 742/842 734/907
f 762/890 736/891 734/837 805/838
f 787/865 788/866 842/909 818/908
f 849/910 842/909 788/866 773/911
f 740/840 739/912 734/907 742/842
f 741/913 803/914 735/826 733/827
f 741/841 742/842 804/886 803/915
f 759/845 760/853 775/916 774/893
f 760/853 731/855 732/917 775/916
f 757/918 763/919 738/829 732/917
f 757/918 758/889 762/890 763/919
f 764/896 737/828 806/857 809/858
f 748/852 749/849 766/862 767/859
f 749/849 750/844 765/864 766/862
f 773/911 772/920 775/916 732/917
f 772/920 771/892 774/893 775/916
f 776/921 777/922 786/868 787/865
f 777/922 778/900 785/870 786/868
f 771/892 772/920 789/867 790/869
f 772/920 773/911 788/866 789/867
f 768/860 769/861 792/874 793/871
f 769/861 770/863 791/876 792/874
f 780/901 781/923 795/873 796/875
f 781/923 782/924 794/872 795/873
f 783/925 798/877 794/872 782/924
f 783/925 784/898 797/880 798/877
f 744/905 743/851 799/878 800/879
f 768/860 743/851 748/926 767/859
f 602/899 533/883 801/881
f 729/927 751/906 802/882 533/883
f 752/887 753/928 803/915 804/886
f 803/914 753/929 729/825 735/826
f 763/919 806/857 737/828 738/829
f 763/919 762/890 805/838 806/857
f 743/851 744/905 747/930 807/850
f 747/930 745/848 746/843 807/850
f 754/846 755/847 756/856 808/854
f 818/908 825/931 824/832 787/865
f 813/932 812/935 823/934 822/933
f 812/935 811/835 824/832 823/934
f 815/936 814/939 880/938 879/937
f 814/939 813/932 881/940 880/938
f 810/894 816/942 835/941 834/897
f 816/942 815/936 836/943 835/941
f 820/944 819/947 848/946 847/945
f 819/947 818/908 842/909 848/946
f 822/933 821/950 866/949 865/948
f 821/950 820/944 867/951 866/949
f 830/952 829/955 892/954 891/953
f 829/955 828/957 893/956 892/954
f 832/834 831/959 852/958 851/833
f 831/959 830/952 853/960 852/958
f 838/961 837/964 874/963 873/962
f 837/964 836/943 875/965 874/963
f 840/831 839/967 844/966 843/830
f 839/967 838/961 845/968 844/966
f 847/945 846/971 862/970 861/969
f 846/971 845/968 863/972 862/970
f 855/973 854/976 886/975 885/974
f 854/976 853/960 887/977 886/975
f 859/978 858/981 872/980 871/979
f 858/981 863/972 873/962 872/980
f 861/969 860/983 868/982 867/951
f 860/983 859/978 869/984 868/982
f 865/948 864/986 876/985 881/940
f 864/986 869/984 877/987 876/985
f 871/979 870/989 878/988 877/987
f 870/989 875/965 879/937 878/988
f 883/990 882/993 890/992 889/991
f 882/993 887/977 891/953 890/992
f 869/984 859/978 871/979 877/987
f 881/940 813/932 822/933 865/948
f 875/965 836/943 815/936 879/937
f 867/951 820/944 847/945 861/969
f 887/977 853/960 830/952 891/953
f 863/972 845/968 838/961 873/962
f 816/942 810/894 817/995 894/994
f 817/995 811/835 812/935 894/994
f 812/935 813/932 814/939 894/994
f 814/939 815/936 816/942 894/994
f 825/931 818/908 819/947 895/996
f 819/947 820/944 821/950 895/996
f 821/950 822/933 823/934 895/996
f 823/934 824/832 825/931 895/996
f 833/902 826/903 827/998 896/997
f 827/998 828/957 829/955 896/997
f 829/955 830/952 831/959 896/997
f 831/959 832/834 833/902 896/997
f 841/904 834/897 835/941 897/999
f 835/941 836/943 837/964 897/999
f 837/964 838/961 839/967 897/999
f 839/967 840/831 841/904 897/999
f 848/946 842/909 849/910 898/1000
f 849/910 843/830 844/966 898/1000
f 844/966 845/968 846/971 898/1000
f 846/971 847/945 848/946 898/1000
f 856/1001 850/1004 857/1003 899/1002
f 857/1003 851/833 852/958 899/1002
f 852/958 853/960 854/976 899/1002
f 854/976 855/973 856/1001 899/1002
f 862/970 863/972 858/981 900/1005
f 858/981 859/978 860/983 900/1005
f 860/983 861/969 862/970 900/1005
f 868/982 869/984 864/986 901/1006
f 864/986 865/948 866/949 901/1006
f 866/949 867/951 868/982 901/1006
f 874/963 875/965 870/989 902/1007
f 870/989 871/979 872/980 902/1007
f 872/980 873/962 874/963 902/1007
f 880/938 881/940 876/985 903/1008
f 876/985 877/987 878/988 903/1008
f 878/988 879/937 880/938 903/1008
f 886/975 887/977 882/993 904/1009
f 882/993 883/990 884/1010 904/1009
f 884/1010 885/974 886/975 904/1009
f 892/954 893/956 888/1012 905/1011
f 888/1012 889/991 890/992 905/1011
f 890/992 891/953 892/954 905/1011
f 779/895 811/835 817/995 810/894
f 779/895 832/834 811/835
f 776/921 851/833 857/1003 850/1004
f 787/865 824/832 851/833 776/921
f 909/1013 908/1016 911/1015 910/1014
f 908/1016 907/1018 912/1017 911/1015
f 907/1018 906/1020 913/1019 912/1017
f 906/1020 752/887 730/884 913/1019
f 909/1013 910/1014 745/848 926/1021
f 909/1013 926/1021 729/927 921/1022
f 756/856 755/847 914/1024 922/1023
f 910/1014 914/1024 755/847 745/848
f 918/1025 919/1026 753/929
f 923/1027 731/855 756/856 922/1023
f 908/1016 909/1013 921/1022 920/1028
f 907/1018 908/1016 920/1028 919/1029
f 752/887 906/1020 918/1030 753/928
f 906/1020 907/1018 919/1029 918/1030
f 913/1031 730/888 758/889 917/1032
f 912/1017 913/1031 917/1032 916/1033
f 910/1014 911/1015 915/1034 914/1024
f 911/1015 912/1017 916/1033 915/1034
f 917/1032 758/889 757/918 925/1035
f 916/1033 917/1032 925/1035 924/1036
f 914/1024 915/1034 923/1027 922/1023
f 915/1034 916/1033 924/1036 923/1027
f 753/929 921/1037 729/825
f 753/929 919/1026 920/1038
f 799/878 743/851 768/860 793/871
f 926/1021 745/848 747/930 751/906
f 729/927 926/1021 751/906
f 751/906 747/930 744/905
f 738/829 773/911 732/917
f 757/918 732/917 731/855
f 731/855 924/1036 925/1035 757/918
f 924/1036 731/855 923/1027
f 753/929 920/1038 921/1037
f 843/830 849/910 738/829
f 849/910 773/911 738/829
f 764/896 834/897 841/904
f 840/831 737/828 841/904
f 533/824 529/610 536/611
f 536/611 735/826 533/824
