# This file uses centimeters as units for non-parametric coordinates.

v -425.538696 0.000001 180.022217
v 425.538696 0.000001 180.022217
v -425.538696 229.012665 0.000004
v 425.538696 229.012665 0.000004
v -425.538696 229.012665 0.000004
v 425.538696 229.012665 0.000004
v -425.538696 0.000018 -180.777954
v 425.538696 0.000001 -180.777954
vt 0.375000 0.000000
vt 0.625000 0.000000
vt 0.625000 0.250000
vt 0.375000 0.250000
vt 0.625000 0.500000
vt 0.375000 0.500000
vt 0.625000 0.750000
vt 0.375000 0.750000
vt 0.625000 1.000000
vt 0.375000 1.000000
vt 0.875000 0.000000
vt 0.875000 0.250000
vt 0.125000 0.000000
vt 0.125000 0.250000
f 4/3 3/4 1/1 2/2
f 6/5 5/6 3/4 4/3
f 8/7 7/8 5/6 6/5
f 1/10 7/8 8/7 2/9
f 2/2 8/11 6/12 4/3
f 7/13 1/1 3/4 5/14
v -480.921265 245.418030 0.000007
v -472.820801 261.020599 -5.069530
v -478.548767 258.735870 -4.327246
v -480.921265 253.220428 -2.535217
v -472.820801 258.690308 -9.642826
v -478.548767 256.746796 -8.230865
v -480.921265 252.055176 -4.822093
v -472.820801 255.060852 -13.272214
v -478.548767 253.648987 -11.328845
v -480.921265 250.240051 -6.637138
v -472.820801 250.487640 -15.602424
v -478.548767 249.745178 -13.317855
v -480.921265 247.953094 -7.802411
v -472.820801 245.418030 -16.405357
v -478.548767 245.418030 -14.003220
v -480.921265 245.418030 -8.203942
v -472.820801 240.348419 -15.602424
v -478.548767 241.090912 -13.317854
v -480.921265 242.882996 -7.802411
v -472.820801 235.775238 -13.272211
v -478.548767 237.187073 -11.328845
v -480.921265 240.596008 -6.637136
v -472.820801 232.145752 -9.642823
v -478.548767 234.089294 -8.230862
v -480.921265 238.780884 -4.822089
v -472.820801 229.815460 -5.069528
v -478.548767 232.100189 -4.327245
v -480.921265 237.615631 -2.535214
v -472.820801 229.012665 0.000007
v -478.548767 231.414795 0.000007
v -480.921265 237.214111 0.000007
v -472.820801 229.815460 5.069542
v -478.548767 232.100189 4.327258
v -480.921265 237.615631 2.535227
v -472.820801 232.145752 9.642834
v -478.548767 234.089294 8.230874
v -480.921265 238.780884 4.822100
v -472.820801 235.775238 13.272220
v -478.548767 237.187073 11.328851
v -480.921265 240.596008 6.637147
v -472.820801 240.348419 15.602431
v -478.548767 241.090912 13.317859
v -480.921265 242.882996 7.802420
v -472.820801 245.418030 16.405367
v -478.548767 245.418030 14.003225
v -480.921265 245.418030 8.203948
v -472.820801 250.487640 15.602429
v -478.548767 249.745178 13.317857
v -480.921265 247.953094 7.802419
v -472.820801 255.060852 13.272218
v -478.548767 253.648987 11.328850
v -480.921265 250.240051 6.637145
v -472.820801 258.690308 9.642833
v -478.548767 256.746796 8.230873
v -480.921265 252.055176 4.822099
v -472.820801 261.020599 5.069541
v -478.548767 258.735870 4.327257
v -480.921265 253.220428 2.535226
v -472.820801 261.823395 0.000007
v -478.548767 259.421265 0.000006
v -480.921265 253.621979 0.000006
v 480.921265 245.418030 0.000007
v 472.820801 261.020599 -5.069530
v 478.548767 258.735870 -4.327246
v 480.921265 253.220428 -2.535217
v 472.820801 258.690308 -9.642826
v 478.548767 256.746796 -8.230865
v 480.921265 252.055176 -4.822093
v 472.820801 255.060852 -13.272214
v 478.548767 253.648987 -11.328845
v 480.921265 250.240051 -6.637138
v 472.820801 250.487640 -15.602424
v 478.548767 249.745178 -13.317855
v 480.921265 247.953094 -7.802411
v 472.820801 245.418030 -16.405357
v 478.548767 245.418030 -14.003220
v 480.921265 245.418030 -8.203942
v 472.820801 240.348419 -15.602424
v 478.548767 241.090912 -13.317854
v 480.921265 242.882996 -7.802411
v 472.820801 235.775238 -13.272211
v 478.548767 237.187073 -11.328845
v 480.921265 240.596008 -6.637136
v 472.820801 232.145752 -9.642823
v 478.548767 234.089294 -8.230862
v 480.921265 238.780884 -4.822089
v 472.820801 229.815460 -5.069528
v 478.548767 232.100189 -4.327245
v 480.921265 237.615631 -2.535214
v 472.820801 229.012665 0.000007
v 478.548767 231.414795 0.000007
v 480.921265 237.214111 0.000007
v 472.820801 229.815460 5.069542
v 478.548767 232.100189 4.327258
v 480.921265 237.615631 2.535227
v 472.820801 232.145752 9.642834
v 478.548767 234.089294 8.230874
v 480.921265 238.780884 4.822100
v 472.820801 235.775238 13.272220
v 478.548767 237.187073 11.328851
v 480.921265 240.596008 6.637147
v 472.820801 240.348419 15.602431
v 478.548767 241.090912 13.317859
v 480.921265 242.882996 7.802420
v 472.820801 245.418030 16.405367
v 478.548767 245.418030 14.003225
v 480.921265 245.418030 8.203948
v 472.820801 250.487640 15.602429
v 478.548767 249.745178 13.317857
v 480.921265 247.953094 7.802419
v 472.820801 255.060852 13.272218
v 478.548767 253.648987 11.328850
v 480.921265 250.240051 6.637145
v 472.820801 258.690308 9.642833
v 478.548767 256.746796 8.230873
v 480.921265 252.055176 4.822099
v 472.820801 261.020599 5.069541
v 478.548767 258.735870 4.327257
v 480.921265 253.220428 2.535226
v 472.820801 261.823395 0.000007
v 478.548767 259.421265 0.000006
v 480.921265 253.621979 0.000006
vt 0.387500 0.683774
vt 0.375000 0.683770
vt 0.400000 0.683774
vt 0.412500 0.683774
vt 0.425000 0.683774
vt 0.437500 0.683774
vt 0.450000 0.683774
vt 0.462500 0.683774
vt 0.475000 0.683774
vt 0.487500 0.683774
vt 0.500000 0.683774
vt 0.512500 0.683774
vt 0.525000 0.683774
vt 0.537500 0.683774
vt 0.550000 0.683774
vt 0.562500 0.683774
vt 0.575000 0.683774
vt 0.587500 0.683774
vt 0.600000 0.683774
vt 0.612500 0.683774
vt 0.625000 0.683774
vt 0.574313 0.867896
vt 0.563214 0.889677
vt 0.500000 0.843750
vt 0.545927 0.906964
vt 0.524146 0.918064
vt 0.500000 0.921887
vt 0.475854 0.918064
vt 0.454073 0.906964
vt 0.436786 0.889677
vt 0.425687 0.867896
vt 0.421863 0.843750
vt 0.425687 0.819604
vt 0.436786 0.797823
vt 0.454073 0.780536
vt 0.475854 0.769436
vt 0.500000 0.765613
vt 0.524146 0.769436
vt 0.545927 0.780536
vt 0.563214 0.797823
vt 0.574313 0.819604
vt 0.578137 0.843750
vt 0.625000 0.687500
vt 0.612500 0.687500
vt 0.648603 0.892034
vt 0.656250 0.843750
vt 0.626409 0.935591
vt 0.375000 0.687500
vt 0.387500 0.687500
vt 0.591841 0.970159
vt 0.400000 0.687500
vt 0.548284 0.992353
vt 0.412500 0.687500
vt 0.500000 1.000000
vt 0.425000 0.687500
vt 0.451716 0.992353
vt 0.437500 0.687500
vt 0.408159 0.970159
vt 0.450000 0.687500
vt 0.373591 0.935591
vt 0.462500 0.687500
vt 0.351397 0.892034
vt 0.475000 0.687500
vt 0.343750 0.843750
vt 0.487500 0.687500
vt 0.351397 0.795466
vt 0.500000 0.687500
vt 0.373591 0.751909
vt 0.512500 0.687500
vt 0.408159 0.717341
vt 0.525000 0.687500
vt 0.451716 0.695147
vt 0.537500 0.687500
vt 0.500000 0.687500
vt 0.550000 0.687500
vt 0.548284 0.695147
vt 0.562500 0.687500
vt 0.591842 0.717341
vt 0.575000 0.687500
vt 0.626409 0.751908
vt 0.587500 0.687500
vt 0.648603 0.795466
vt 0.600000 0.687500
vt 0.574313 0.867896
vt 0.563214 0.889677
vt 0.500000 0.843750
vt 0.545927 0.906964
vt 0.524146 0.918064
vt 0.500000 0.921887
vt 0.475854 0.918064
vt 0.454073 0.906964
vt 0.436786 0.889677
vt 0.425687 0.867896
vt 0.421863 0.843750
vt 0.425687 0.819604
vt 0.436786 0.797823
vt 0.454073 0.780536
vt 0.475854 0.769436
vt 0.500000 0.765613
vt 0.524146 0.769436
vt 0.545927 0.780536
vt 0.563214 0.797823
vt 0.574313 0.819604
vt 0.578137 0.843750
vt 0.625000 0.683774
vt 0.625000 0.687500
vt 0.612500 0.687500
vt 0.612500 0.683774
vt 0.648603 0.892034
vt 0.656250 0.843750
vt 0.626409 0.935591
vt 0.375000 0.687500
vt 0.375000 0.683770
vt 0.387500 0.683774
vt 0.387500 0.687500
vt 0.591841 0.970159
vt 0.400000 0.683774
vt 0.400000 0.687500
vt 0.548284 0.992353
vt 0.412500 0.683774
vt 0.412500 0.687500
vt 0.500000 1.000000
vt 0.425000 0.683774
vt 0.425000 0.687500
vt 0.451716 0.992353
vt 0.437500 0.683774
vt 0.437500 0.687500
vt 0.408159 0.970159
vt 0.450000 0.683774
vt 0.450000 0.687500
vt 0.373591 0.935591
vt 0.462500 0.683774
vt 0.462500 0.687500
vt 0.351397 0.892034
vt 0.475000 0.683774
vt 0.475000 0.687500
vt 0.343750 0.843750
vt 0.487500 0.683774
vt 0.487500 0.687500
vt 0.351397 0.795466
vt 0.500000 0.683774
vt 0.500000 0.687500
vt 0.373591 0.751909
vt 0.512500 0.683774
vt 0.512500 0.687500
vt 0.408159 0.717341
vt 0.525000 0.683774
vt 0.525000 0.687500
vt 0.451716 0.695147
vt 0.537500 0.683774
vt 0.537500 0.687500
vt 0.500000 0.687500
vt 0.550000 0.683774
vt 0.550000 0.687500
vt 0.548284 0.695147
vt 0.562500 0.683774
vt 0.562500 0.687500
vt 0.591842 0.717341
vt 0.575000 0.683774
vt 0.575000 0.687500
vt 0.626409 0.751908
vt 0.587500 0.683774
vt 0.587500 0.687500
vt 0.648603 0.795466
vt 0.600000 0.683774
vt 0.600000 0.687500
f 12/36 15/37 9/38
f 15/37 18/39 9/38
f 18/39 21/40 9/38
f 21/40 24/41 9/38
f 24/41 27/42 9/38
f 27/42 30/43 9/38
f 30/43 33/44 9/38
f 33/44 36/45 9/38
f 36/45 39/46 9/38
f 39/46 42/47 9/38
f 42/47 45/48 9/38
f 45/48 48/49 9/38
f 48/49 51/50 9/38
f 51/50 54/51 9/38
f 54/51 57/52 9/38
f 57/52 60/53 9/38
f 60/53 63/54 9/38
f 63/54 66/55 9/38
f 66/55 69/56 9/38
f 69/56 12/36 9/38
f 10/35 11/57 68/58 67/34
f 11/59 12/36 69/56 68/60
f 12/36 11/59 14/61 15/37
f 11/62 10/16 13/15 14/63
f 15/37 14/61 17/64 18/39
f 14/63 13/15 16/17 17/65
f 18/39 17/64 20/66 21/40
f 17/65 16/17 19/18 20/67
f 21/40 20/66 23/68 24/41
f 20/67 19/18 22/19 23/69
f 24/41 23/68 26/70 27/42
f 23/69 22/19 25/20 26/71
f 27/42 26/70 29/72 30/43
f 26/71 25/20 28/21 29/73
f 30/43 29/72 32/74 33/44
f 29/73 28/21 31/22 32/75
f 33/44 32/74 35/76 36/45
f 32/75 31/22 34/23 35/77
f 36/45 35/76 38/78 39/46
f 35/77 34/23 37/24 38/79
f 39/46 38/78 41/80 42/47
f 38/79 37/24 40/25 41/81
f 42/47 41/80 44/82 45/48
f 41/81 40/25 43/26 44/83
f 45/48 44/82 47/84 48/49
f 44/83 43/26 46/27 47/85
f 48/49 47/84 50/86 51/50
f 47/85 46/27 49/28 50/87
f 51/50 50/86 53/88 54/51
f 50/87 49/28 52/29 53/89
f 54/51 53/88 56/90 57/52
f 53/89 52/29 55/30 56/91
f 57/52 56/90 59/92 60/53
f 56/91 55/30 58/31 59/93
f 60/53 59/92 62/94 63/54
f 59/93 58/31 61/32 62/95
f 63/54 62/94 65/96 66/55
f 62/95 61/32 64/33 65/97
f 66/55 65/96 68/60 69/56
f 65/97 64/33 67/34 68/58
f 73/98 70/100 76/99
f 76/99 70/100 79/101
f 79/101 70/100 82/102
f 82/102 70/100 85/103
f 85/103 70/100 88/104
f 88/104 70/100 91/105
f 91/105 70/100 94/106
f 94/106 70/100 97/107
f 97/107 70/100 100/108
f 100/108 70/100 103/109
f 103/109 70/100 106/110
f 106/110 70/100 109/111
f 109/111 70/100 112/112
f 112/112 70/100 115/113
f 115/113 70/100 118/114
f 118/114 70/100 121/115
f 121/115 70/100 124/116
f 124/116 70/100 127/117
f 127/117 70/100 130/118
f 130/118 70/100 73/98
f 71/119 128/122 129/121 72/120
f 72/123 129/124 130/118 73/98
f 73/98 76/99 75/125 72/123
f 72/126 75/129 74/128 71/127
f 76/99 79/101 78/130 75/125
f 75/129 78/132 77/131 74/128
f 79/101 82/102 81/133 78/130
f 78/132 81/135 80/134 77/131
f 82/102 85/103 84/136 81/133
f 81/135 84/138 83/137 80/134
f 85/103 88/104 87/139 84/136
f 84/138 87/141 86/140 83/137
f 88/104 91/105 90/142 87/139
f 87/141 90/144 89/143 86/140
f 91/105 94/106 93/145 90/142
f 90/144 93/147 92/146 89/143
f 94/106 97/107 96/148 93/145
f 93/147 96/150 95/149 92/146
f 97/107 100/108 99/151 96/148
f 96/150 99/153 98/152 95/149
f 100/108 103/109 102/154 99/151
f 99/153 102/156 101/155 98/152
f 103/109 106/110 105/157 102/154
f 102/156 105/159 104/158 101/155
f 106/110 109/111 108/160 105/157
f 105/159 108/162 107/161 104/158
f 109/111 112/112 111/163 108/160
f 108/162 111/165 110/164 107/161
f 112/112 115/113 114/166 111/163
f 111/165 114/168 113/167 110/164
f 115/113 118/114 117/169 114/166
f 114/168 117/171 116/170 113/167
f 118/114 121/115 120/172 117/169
f 117/171 120/174 119/173 116/170
f 121/115 124/116 123/175 120/172
f 120/174 123/177 122/176 119/173
f 124/116 127/117 126/178 123/175
f 123/177 126/180 125/179 122/176
f 127/117 130/118 129/124 126/178
f 126/180 129/121 128/122 125/179
f 10/16 71/127 74/128 13/15
f 74/128 77/131 16/17 13/15
f 77/131 80/134 19/18 16/17
f 80/134 83/137 22/19 19/18
f 83/137 86/140 25/20 22/19
f 86/140 89/143 28/21 25/20
f 89/143 92/146 31/22 28/21
f 92/146 95/149 34/23 31/22
f 95/149 98/152 37/24 34/23
f 98/152 101/155 40/25 37/24
f 101/155 104/158 43/26 40/25
f 104/158 107/161 46/27 43/26
f 107/161 110/164 49/28 46/27
f 110/164 113/167 52/29 49/28
f 113/167 116/170 55/30 52/29
f 116/170 119/173 58/31 55/30
f 119/173 122/176 61/32 58/31
f 122/176 125/179 64/33 61/32
f 125/179 128/122 67/34 64/33
f 128/122 71/119 10/35 67/34
v -301.605225 -32.122093 206.313477
v -474.080811 4.524481 194.298325
v -308.055176 -11.424601 218.161057
v -299.081818 5.577110 204.737442
v 0.000000 -32.122093 206.313477
v -294.781647 229.012665 0.000000
v -467.767212 206.289566 34.863335
v -301.605225 32.875240 153.759491
v -474.080811 41.365738 165.211517
v -294.598816 210.807343 41.096962
v -303.375946 46.847252 172.153900
v -466.281677 238.106613 9.742313
v -466.281677 235.010300 5.820333
v -458.060242 227.637009 1.630260
v -467.767212 203.193008 30.941563
v -303.375916 -26.674877 217.689865
v -303.375946 -28.900606 216.445343
v -308.055176 -26.836697 219.059448
v -305.700195 -24.611300 220.303925
v -307.079590 -28.296165 217.210922
v -301.393555 -17.946053 212.039734
v -303.748535 -16.973549 212.515717
v -304.724640 -15.362380 214.243179
v -303.375946 -29.932253 215.137863
v -474.080811 1.428083 190.376740
v -465.308594 -2.135681 182.638092
v -305.700195 -22.654488 222.782410
v -308.055176 -23.420078 223.386871
v -309.762451 -20.876371 224.377579
v -470.971741 9.401327 200.474960
v -474.080811 7.942333 198.627014
v -304.724640 -14.009290 215.957123
v -305.700195 -12.397478 217.685394
v -466.281677 241.523788 14.069923
v -474.080811 44.783577 169.540222
v -470.971741 46.242577 171.388168
v -293.728943 242.981094 15.923368
v -296.532715 0.159260 201.988754
v -295.785889 -1.886061 200.603088
v -293.983429 -3.905272 200.954498
v -276.094238 1.910338 196.362244
v -276.562744 4.364254 195.669266
v -276.756897 6.588535 196.912354
v -276.756897 7.942333 198.627014
v -276.950439 10.166950 199.870819
v -277.418945 12.620081 199.176834
v -296.532715 1.512262 203.702454
v -297.278809 3.558403 205.088776
v -7.292580 12.620081 199.176834
v -7.292580 10.166950 199.870819
v -7.292580 7.942333 198.627014
v -7.292580 242.983093 15.918264
v -7.292580 6.588535 196.912354
v -7.292580 4.363338 195.668365
v -7.292580 1.910338 196.362244
v -7.292580 -26.674877 217.689865
v -7.292580 -28.900606 216.445343
v -164.241852 7.942333 198.627014
v -164.241852 10.166950 199.870819
v -164.241852 12.620081 199.176834
v -178.827576 12.620081 199.176834
v -178.827576 10.166950 199.870819
v -178.827576 7.942333 198.627014
v -164.241852 242.983093 15.918264
v -177.905121 242.983093 15.918264
v -178.827576 6.588535 196.912354
v -178.827576 4.363338 195.668365
v -178.827576 1.910338 196.362244
v -164.241852 1.910338 196.362244
v -164.241852 4.363338 195.668365
v -164.241852 6.588535 196.912354
v -164.241852 -28.900606 216.445343
v -164.241852 -26.674877 217.689865
v -178.827576 -26.674877 217.689865
v -178.827576 -28.900606 216.445343
v 0.000000 -29.932253 215.137863
v -164.241852 -29.932253 215.137863
v -178.827576 -29.932253 215.137863
v -465.308594 33.977188 154.126038
v -474.080811 38.269409 161.289886
v -467.767212 209.706467 39.190861
v -464.658142 211.165924 41.039394
v -304.724640 -26.070930 218.455200
v -307.880371 -20.806202 223.782593
v -463.714783 242.925827 16.063667
v -164.241852 213.118958 40.740875
v -162.523590 211.770218 41.804771
v -163.963531 210.328354 42.400772
v -164.879318 208.843521 42.083515
v -165.484268 209.772644 41.246338
v -166.952759 210.136337 40.864639
v -165.945450 211.651749 41.293098
v -163.027252 212.723648 41.052010
v -164.241852 45.499279 173.218491
v -165.681793 46.355015 172.002411
v -166.711090 46.359955 170.507629
v -165.459839 46.789040 170.080139
v -164.941528 47.890411 169.099518
v -164.017456 47.890404 170.725418
v -162.523590 46.847187 172.153946
v -163.027252 45.894173 172.906708
v -7.292580 213.118958 40.740875
v -5.791386 211.723969 41.297596
v -4.822411 210.281647 40.948402
v -6.073845 209.766373 41.266495
v -6.592161 208.557663 42.111034
v -7.516218 210.138412 42.487564
v -9.009896 211.770218 41.804771
v -8.507181 212.723648 41.052010
v -178.827576 213.118958 40.740875
v -177.325821 211.723969 41.297596
v -176.357605 210.281647 40.948402
v -177.609039 209.766373 41.266495
v -178.127350 208.557663 42.111034
v -179.051407 210.138412 42.487564
v -180.137863 210.807343 41.096962
v -180.042175 212.723648 41.052010
v -178.827576 45.499279 173.218491
v -180.545074 46.847187 172.153946
v -179.105347 47.761253 170.888916
v -178.189362 47.797337 169.372147
v -177.584412 46.767357 170.081726
v -176.116104 46.312218 170.346497
v -177.123413 46.377102 171.919891
v -180.042175 45.894173 172.906708
v -7.292580 45.499279 173.218491
v -9.009896 46.847187 172.153946
v -7.569968 47.761253 170.888916
v -6.654930 47.797665 169.371887
v -6.049414 46.767357 170.081726
v -4.580920 46.312218 170.346497
v -5.588232 46.377163 171.919830
v -8.507181 45.894173 172.906708
v -176.538010 46.845921 166.348557
v -175.108795 46.665455 165.923706
v -175.263840 45.819984 167.142700
v -175.631989 45.804714 168.634598
v -176.928345 46.225098 168.292984
v -177.464508 47.242653 167.498993
v -166.540436 46.812012 166.359787
v -165.604156 47.242653 167.498993
v -166.174911 46.238419 168.400345
v -167.553391 45.852440 168.795746
v -167.936218 45.826317 167.246170
v -167.959137 46.665455 165.923706
v -175.230576 207.149673 39.646416
v -175.108795 205.751938 40.181664
v -176.528229 206.142349 40.425552
v -177.464508 207.151016 41.109348
v -176.928162 208.167709 40.306316
v -175.631989 208.588821 39.973835
v -166.530670 206.123795 40.456383
v -167.959137 205.751938 40.181664
v -167.804092 207.134155 39.642487
v -167.435944 208.588821 39.973835
v -166.140533 208.167709 40.306316
v -165.604156 207.150955 41.109406
v -5.002825 46.845921 166.348557
v -3.574360 46.665455 165.923706
v -3.729590 45.819984 167.142700
v -4.097748 45.804714 168.634598
v -5.393910 46.225098 168.292984
v -5.930079 47.242653 167.498993
v -3.696139 207.149673 39.646416
v -3.574360 205.751938 40.181664
v -4.993805 206.142349 40.425552
v -5.930079 207.150955 41.109406
v -5.393158 208.167709 40.306316
v -4.097748 208.588821 39.973835
v -164.535034 211.274124 41.622322
v -164.497437 46.796215 171.624924
v -7.017262 211.263412 41.634972
v -178.551880 211.263412 41.634972
v -178.533081 46.785213 171.628754
v -6.998656 46.785275 171.628708
v -176.369049 46.084648 167.192795
v -166.755997 46.070248 167.274429
v -176.356094 207.138474 39.905254
v -166.700562 207.127335 39.913074
v -4.833876 46.084648 167.192795
v -4.820908 207.138474 39.905254
v -470.807434 -10.748683 199.991592
v -462.263123 -20.495260 207.686447
v -449.680176 -27.010334 212.830612
v -434.899414 -29.340569 214.670715
v -434.906921 -26.248116 218.595078
v -449.685059 -23.916189 216.754303
v -462.266113 -17.399612 211.608963
v -470.807800 -7.652066 203.912369
v -434.901855 -22.831192 222.922897
v -449.681885 -20.499588 221.082367
v -462.264465 -13.983413 215.937988
v -470.807617 -4.237027 208.242645
v -462.283630 -13.424848 191.749863
v -453.988525 -22.982462 199.444717
v -441.664124 -29.380943 204.572998
v -427.153992 -31.662161 206.368042
v -433.247375 -20.822704 223.921478
v -447.740540 -18.549538 222.119781
v -460.050903 -12.083811 217.091003
v -468.336121 -2.392739 209.587387
v -308.054993 -29.911205 215.121246
v 0.000000 32.875240 153.759491
v 0.000000 229.012665 0.000000
v 301.605225 -32.122093 206.313477
v 474.080811 4.524481 194.298325
v 308.055176 -11.424601 218.161057
v 299.081818 5.577110 204.737442
v 294.781647 229.012665 0.000000
v 467.767212 206.289566 34.863335
v 301.605225 32.875240 153.759491
v 474.080811 41.365738 165.211517
v 294.598816 210.807343 41.096962
v 303.375946 46.847252 172.153900
v 466.281677 238.106613 9.742313
v 466.281677 235.010300 5.820333
v 458.060242 227.637009 1.630260
v 467.767212 203.193008 30.941563
v 303.375916 -26.674877 217.689865
v 303.375946 -28.900606 216.445343
v 308.055176 -26.836697 219.059448
v 305.700195 -24.611300 220.303925
v 307.079590 -28.296165 217.210922
v 301.393555 -17.946053 212.039734
v 303.748535 -16.973549 212.515717
v 304.724640 -15.362380 214.243179
v 303.375946 -29.932253 215.137863
v 474.080811 1.428083 190.376740
v 465.308594 -2.135681 182.638092
v 305.700195 -22.654488 222.782410
v 308.055176 -23.420078 223.386871
v 309.762451 -20.876371 224.377579
v 470.971741 9.401327 200.474960
v 474.080811 7.942333 198.627014
v 304.724640 -14.009290 215.957123
v 305.700195 -12.397478 217.685394
v 466.281677 241.523788 14.069923
v 474.080811 44.783577 169.540222
v 470.971741 46.242577 171.388168
v 293.728943 242.981094 15.923368
v 296.532715 0.159260 201.988754
v 295.785889 -1.886061 200.603088
v 293.983429 -3.905272 200.954498
v 276.094238 1.910338 196.362244
v 276.562744 4.364254 195.669266
v 276.756897 6.588535 196.912354
v 276.756897 7.942333 198.627014
v 276.950439 10.166950 199.870819
v 277.418945 12.620081 199.176834
v 296.532715 1.512262 203.702454
v 297.278809 3.558403 205.088776
v 7.292580 12.620081 199.176834
v 7.292580 10.166950 199.870819
v 7.292580 7.942333 198.627014
v 7.292580 242.983093 15.918264
v 7.292580 6.588535 196.912354
v 7.292580 4.363338 195.668365
v 7.292580 1.910338 196.362244
v 7.292580 -26.674877 217.689865
v 7.292580 -28.900606 216.445343
v 164.241852 7.942333 198.627014
v 164.241852 10.166950 199.870819
v 164.241852 12.620081 199.176834
v 178.827576 12.620081 199.176834
v 178.827576 10.166950 199.870819
v 178.827576 7.942333 198.627014
v 164.241852 242.983093 15.918264
v 177.905121 242.983093 15.918264
v 178.827576 6.588535 196.912354
v 178.827576 4.363338 195.668365
v 178.827576 1.910338 196.362244
v 164.241852 1.910338 196.362244
v 164.241852 4.363338 195.668365
v 164.241852 6.588535 196.912354
v 164.241852 -28.900606 216.445343
v 164.241852 -26.674877 217.689865
v 178.827576 -26.674877 217.689865
v 178.827576 -28.900606 216.445343
v 164.241852 -29.932253 215.137863
v 178.827576 -29.932253 215.137863
v 465.308594 33.977188 154.126038
v 474.080811 38.269409 161.289886
v 467.767212 209.706467 39.190861
v 464.658142 211.165924 41.039394
v 304.724640 -26.070930 218.455200
v 307.880371 -20.806202 223.782593
v 463.714783 242.925827 16.063667
v 164.241852 213.118958 40.740875
v 162.523590 211.770218 41.804771
v 163.963531 210.328354 42.400772
v 164.879318 208.843521 42.083515
v 165.484268 209.772644 41.246338
v 166.952759 210.136337 40.864639
v 165.945450 211.651749 41.293098
v 163.027252 212.723648 41.052010
v 164.241852 45.499279 173.218491
v 165.681793 46.355015 172.002411
v 166.711090 46.359955 170.507629
v 165.459839 46.789040 170.080139
v 164.941528 47.890411 169.099518
v 164.017456 47.890404 170.725418
v 162.523590 46.847187 172.153946
v 163.027252 45.894173 172.906708
v 7.292580 213.118958 40.740875
v 5.791386 211.723969 41.297596
v 4.822411 210.281647 40.948402
v 6.073845 209.766373 41.266495
v 6.592161 208.557663 42.111034
v 7.516218 210.138412 42.487564
v 9.009896 211.770218 41.804771
v 8.507181 212.723648 41.052010
v 178.827576 213.118958 40.740875
v 177.325821 211.723969 41.297596
v 176.357605 210.281647 40.948402
v 177.609039 209.766373 41.266495
v 178.127350 208.557663 42.111034
v 179.051407 210.138412 42.487564
v 180.137863 210.807343 41.096962
v 180.042175 212.723648 41.052010
v 178.827576 45.499279 173.218491
v 180.545074 46.847187 172.153946
v 179.105347 47.761253 170.888916
v 178.189362 47.797337 169.372147
v 177.584412 46.767357 170.081726
v 176.116104 46.312218 170.346497
v 177.123413 46.377102 171.919891
v 180.042175 45.894173 172.906708
v 7.292580 45.499279 173.218491
v 9.009896 46.847187 172.153946
v 7.569968 47.761253 170.888916
v 6.654930 47.797665 169.371887
v 6.049414 46.767357 170.081726
v 4.580920 46.312218 170.346497
v 5.588232 46.377163 171.919830
v 8.507181 45.894173 172.906708
v 176.538010 46.845921 166.348557
v 175.108795 46.665455 165.923706
v 175.263840 45.819984 167.142700
v 175.631989 45.804714 168.634598
v 176.928345 46.225098 168.292984
v 177.464508 47.242653 167.498993
v 166.540436 46.812012 166.359787
v 165.604156 47.242653 167.498993
v 166.174911 46.238419 168.400345
v 167.553391 45.852440 168.795746
v 167.936218 45.826317 167.246170
v 167.959137 46.665455 165.923706
v 175.230576 207.149673 39.646416
v 175.108795 205.751938 40.181664
v 176.528229 206.142349 40.425552
v 177.464508 207.151016 41.109348
v 176.928162 208.167709 40.306316
v 175.631989 208.588821 39.973835
v 166.530670 206.123795 40.456383
v 167.959137 205.751938 40.181664
v 167.804092 207.134155 39.642487
v 167.435944 208.588821 39.973835
v 166.140533 208.167709 40.306316
v 165.604156 207.150955 41.109406
v 5.002825 46.845921 166.348557
v 3.574360 46.665455 165.923706
v 3.729590 45.819984 167.142700
v 4.097748 45.804714 168.634598
v 5.393910 46.225098 168.292984
v 5.930079 47.242653 167.498993
v 3.696139 207.149673 39.646416
v 3.574360 205.751938 40.181664
v 4.993805 206.142349 40.425552
v 5.930079 207.150955 41.109406
v 5.393158 208.167709 40.306316
v 4.097748 208.588821 39.973835
v 164.535034 211.274124 41.622322
v 164.497437 46.796215 171.624924
v 7.017262 211.263412 41.634972
v 178.551880 211.263412 41.634972
v 178.533081 46.785213 171.628754
v 6.998656 46.785275 171.628708
v 176.369049 46.084648 167.192795
v 166.755997 46.070248 167.274429
v 176.356094 207.138474 39.905254
v 166.700562 207.127335 39.913074
v 4.833876 46.084648 167.192795
v 4.820908 207.138474 39.905254
v 470.807434 -10.748683 199.991592
v 462.263123 -20.495260 207.686447
v 449.680176 -27.010334 212.830612
v 434.899414 -29.340569 214.670715
v 434.906921 -26.248116 218.595078
v 449.685059 -23.916189 216.754303
v 462.266113 -17.399612 211.608963
v 470.807800 -7.652066 203.912369
v 434.901855 -22.831192 222.922897
v 449.681885 -20.499588 221.082367
v 462.264465 -13.983413 215.937988
v 470.807617 -4.237027 208.242645
v 462.283630 -13.424848 191.749863
v 453.988525 -22.982462 199.444717
v 441.664124 -29.380943 204.572998
v 427.153992 -31.662161 206.368042
v 433.247375 -20.822704 223.921478
v 447.740540 -18.549538 222.119781
v 460.050903 -12.083811 217.091003
v 468.336121 -2.392739 209.587387
v 308.054993 -29.911205 215.121246
vt 0.503165 1.000000
vt 0.566160 0.999848
vt 0.562494 0.922777
vt 0.567006 0.749680
vt 0.562494 0.463108
vt 0.562494 0.327219
vt 0.529865 0.327220
vt 0.529864 0.463108
vt 0.524825 0.327220
vt 0.502537 0.327220
vt 0.502535 0.463109
vt 0.524824 0.463108
vt 0.625000 0.500000
vt 0.625000 0.463108
vt 0.625000 0.463108
vt 0.624231 0.498893
vt 0.625563 0.750507
vt 0.875000 0.069452
vt 0.874537 -0.005208
vt 0.838109 0.099983
vt 0.562854 0.252090
vt 0.562494 0.260653
vt 0.562494 0.260653
vt 0.563126 0.251436
vt 0.563723 0.249998
vt 0.563723 0.249998
vt 0.562494 0.260653
vt 0.562494 0.249998
vt 0.561829 0.222774
vt 0.561554 0.260064
vt 0.562494 0.260653
vt 0.562494 0.249998
vt 0.567514 0.273374
vt 0.563758 0.250622
vt 0.625000 0.463108
vt 0.625000 0.500000
vt 0.561517 0.282431
vt 0.554921 0.283859
vt 0.554718 0.285507
vt 0.562494 0.285507
vt 0.554718 0.285507
vt 0.562494 0.285507
vt 0.502054 0.288467
vt 0.502054 0.285507
vt 0.502053 0.285507
vt 0.501976 0.282548
vt 0.502052 0.285507
vt 0.502052 0.285507
vt 0.501145 0.249999
vt 0.501870 0.149986
vt 0.525308 0.288467
vt 0.529388 0.288467
vt 0.529388 0.285507
vt 0.525308 0.285507
vt 0.529387 0.285507
vt 0.525308 0.285507
vt 0.529345 0.282547
vt 0.525261 0.282547
vt 0.525307 0.285507
vt 0.529386 0.285507
vt 0.525308 0.285507
vt 0.529387 0.285507
vt 0.524749 0.249999
vt 0.528891 0.249999
vt 0.529288 0.150014
vt 0.525195 0.150029
vt 0.503161 0.000009
vt 0.525418 0.100023
vt 0.529486 0.099994
vt 0.660506 0.250009
vt 0.702221 0.249999
vt 0.702221 0.099996
vt 0.660523 0.091217
vt 0.625024 0.285473
vt 0.624996 0.285541
vt 0.625000 0.327219
vt 0.625000 0.327219
vt 0.554718 0.285507
vt 0.562494 0.285507
vt 0.502111 0.499988
vt 0.502052 0.464635
vt 0.525307 0.464635
vt 0.525358 0.499907
vt 0.529421 0.499891
vt 0.529387 0.464635
vt 0.502236 0.099989
vt 0.502394 0.464188
vt 0.529724 0.464188
vt 0.562494 0.150010
vt 0.562494 0.099990
vt 0.838109 0.250000
vt 0.502053 0.325694
vt 0.525308 0.325693
vt 0.529388 0.325693
vt 0.554902 0.288466
vt 0.875000 0.250000
vt 0.625000 0.922779
vt 0.702221 0.000000
vt 0.562494 0.285507
vt 0.563363 0.294670
vt 0.625646 0.284019
vt 0.625000 0.327219
vt 0.562494 0.500000
vt 0.554718 0.285507
vt 0.561719 0.243820
vt 0.563539 -0.000709
vt 0.660505 0.000004
vt 0.625000 0.964496
vt 0.563363 0.179293
vt 0.524966 0.326140
vt 0.501602 0.463132
vt 0.501554 0.463109
vt 0.501301 0.327220
vt 0.501546 0.327268
vt 0.525307 0.461480
vt 0.525308 0.329055
vt 0.525273 0.328514
vt 0.525237 0.461977
vt 0.526082 0.463108
vt 0.526013 0.463108
vt 0.525740 0.462572
vt 0.525782 0.462459
vt 0.525307 0.461480
vt 0.528924 0.463132
vt 0.525827 0.463062
vt 0.528874 0.463108
vt 0.525820 0.327220
vt 0.528612 0.327220
vt 0.528865 0.327267
vt 0.525769 0.327193
vt 0.525308 0.328892
vt 0.525653 0.327807
vt 0.525644 0.327882
vt 0.525871 0.327220
vt 0.502052 0.461273
vt 0.502052 0.461437
vt 0.501740 0.462484
vt 0.501727 0.462449
vt 0.501554 0.463109
vt 0.502123 0.328351
vt 0.502088 0.461817
vt 0.502053 0.328848
vt 0.529387 0.461273
vt 0.529387 0.461436
vt 0.529065 0.462484
vt 0.529052 0.462449
vt 0.528874 0.463109
vt 0.529457 0.328351
vt 0.529422 0.461817
vt 0.529387 0.328848
vt 0.528681 0.327220
vt 0.528956 0.327760
vt 0.528913 0.327869
vt 0.529387 0.328848
vt 0.501368 0.327220
vt 0.501634 0.327760
vt 0.501593 0.327869
vt 0.502053 0.328848
vt 0.528725 0.328796
vt 0.528725 0.461541
vt 0.529170 0.462596
vt 0.529188 0.327695
vt 0.525474 0.327615
vt 0.529176 0.327722
vt 0.525970 0.328796
vt 0.525510 0.462629
vt 0.525556 0.327810
vt 0.525969 0.461541
vt 0.525522 0.462601
vt 0.529185 0.462630
vt 0.501410 0.328796
vt 0.501409 0.461541
vt 0.501842 0.462597
vt 0.501859 0.327695
vt 0.501848 0.327723
vt 0.501856 0.462630
vt 0.525307 0.463108
vt 0.524966 0.464188
vt 0.525308 0.327220
vt 0.502052 0.463109
vt 0.529387 0.463108
vt 0.529387 0.327220
vt 0.529725 0.326140
vt 0.502053 0.327220
vt 0.502395 0.326141
vt 0.529387 0.327220
vt 0.525308 0.327220
vt 0.529387 0.463108
vt 0.525307 0.463108
vt 0.502053 0.327220
vt 0.502052 0.463109
vt 0.611077 0.099989
vt 0.610818 0.249998
vt 0.616750 0.249882
vt 0.617040 0.099872
vt 0.625000 0.249998
vt 0.625336 0.099984
vt 0.641261 0.249998
vt 0.641429 0.099692
vt 0.564222 0.099990
vt 0.610674 0.000009
vt 0.610680 0.250144
vt 0.610260 0.250797
vt 0.625000 0.983595
vt 0.625000 1.000000
vt 0.617339 0.248796
vt 0.616543 0.000005
vt 0.625000 0.000000
vt 0.641406 0.000004
vt 0.625000 0.266260
vt 0.624615 0.266806
vt 0.624278 0.251037
vt 0.616128 0.250890
vt 0.625001 0.266909
vt 0.625000 0.249998
vt 0.610676 1.000000
vt 0.616544 1.000000
vt 0.562494 0.922777
vt 0.567006 0.749680
vt 0.562494 0.463108
vt 0.562494 0.327219
vt 0.529865 0.327220
vt 0.529864 0.463108
vt 0.524825 0.327220
vt 0.502537 0.327220
vt 0.502535 0.463109
vt 0.524824 0.463108
vt 0.625000 0.500000
vt 0.625000 0.463108
vt 0.625000 0.463108
vt 0.624231 0.498893
vt 0.875000 0.069452
vt 0.874537 -0.005208
vt 0.838109 0.099983
vt 0.562854 0.252090
vt 0.562494 0.260653
vt 0.562494 0.260653
vt 0.563126 0.251436
vt 0.563723 0.249998
vt 0.563723 0.249998
vt 0.562494 0.260653
vt 0.562494 0.249998
vt 0.561829 0.222774
vt 0.561554 0.260064
vt 0.562494 0.260653
vt 0.562494 0.249998
vt 0.567514 0.273374
vt 0.563758 0.250622
vt 0.625000 0.463108
vt 0.625000 0.500000
vt 0.561517 0.282431
vt 0.554921 0.283859
vt 0.554718 0.285507
vt 0.562494 0.285507
vt 0.554718 0.285507
vt 0.562494 0.285507
vt 0.525308 0.288467
vt 0.529388 0.288467
vt 0.529388 0.285507
vt 0.525308 0.285507
vt 0.529387 0.285507
vt 0.525308 0.285507
vt 0.529345 0.282547
vt 0.525261 0.282547
vt 0.525307 0.285507
vt 0.529386 0.285507
vt 0.525308 0.285507
vt 0.529387 0.285507
vt 0.524749 0.249999
vt 0.528891 0.249999
vt 0.529288 0.150014
vt 0.525195 0.150029
vt 0.525418 0.100023
vt 0.529486 0.099994
vt 0.503161 0.000009
vt 0.660506 0.250009
vt 0.702221 0.249999
vt 0.702221 0.099996
vt 0.660523 0.091217
vt 0.625024 0.285473
vt 0.624996 0.285541
vt 0.625000 0.327219
vt 0.625000 0.327219
vt 0.554718 0.285507
vt 0.562494 0.285507
vt 0.525307 0.464635
vt 0.525358 0.499907
vt 0.529421 0.499891
vt 0.529387 0.464635
vt 0.502053 0.285507
vt 0.502052 0.285507
vt 0.502111 0.499988
vt 0.502394 0.464188
vt 0.502052 0.464635
vt 0.529724 0.464188
vt 0.562494 0.500000
vt 0.502236 0.099989
vt 0.501870 0.149986
vt 0.562494 0.150010
vt 0.562494 0.099990
vt 0.838109 0.250000
vt 0.525308 0.325693
vt 0.529388 0.325693
vt 0.554902 0.288466
vt 0.875000 0.250000
vt 0.625563 0.750507
vt 0.567006 0.749680
vt 0.562494 0.922777
vt 0.625000 0.922779
vt 0.702221 0.000000
vt 0.562494 0.285507
vt 0.563363 0.294670
vt 0.625646 0.284019
vt 0.625000 0.327219
vt 0.554718 0.285507
vt 0.502054 0.288467
vt 0.502054 0.285507
vt 0.502052 0.285507
vt 0.501976 0.282548
vt 0.501145 0.249999
vt 0.561719 0.243820
vt 0.563539 -0.000709
vt 0.660505 0.000004
vt 0.566160 0.999848
vt 0.625000 0.964496
vt 0.563363 0.179293
vt 0.524966 0.326140
vt 0.525307 0.461480
vt 0.525308 0.329055
vt 0.525273 0.328514
vt 0.525237 0.461977
vt 0.526082 0.463108
vt 0.526013 0.463108
vt 0.525740 0.462572
vt 0.525782 0.462459
vt 0.525307 0.461480
vt 0.528924 0.463132
vt 0.525827 0.463062
vt 0.528874 0.463108
vt 0.525820 0.327220
vt 0.528612 0.327220
vt 0.528865 0.327267
vt 0.525769 0.327193
vt 0.525308 0.328892
vt 0.525653 0.327807
vt 0.525644 0.327882
vt 0.525871 0.327220
vt 0.502052 0.461273
vt 0.502052 0.461437
vt 0.501740 0.462484
vt 0.501727 0.462449
vt 0.501554 0.463109
vt 0.501554 0.463109
vt 0.502123 0.328351
vt 0.502088 0.461817
vt 0.502053 0.328848
vt 0.529387 0.461273
vt 0.529387 0.461436
vt 0.529065 0.462484
vt 0.529052 0.462449
vt 0.528874 0.463109
vt 0.529457 0.328351
vt 0.529422 0.461817
vt 0.529387 0.328848
vt 0.528681 0.327220
vt 0.528956 0.327760
vt 0.528913 0.327869
vt 0.529387 0.328848
vt 0.501301 0.327220
vt 0.501368 0.327220
vt 0.501634 0.327760
vt 0.501593 0.327869
vt 0.502053 0.328848
vt 0.528725 0.328796
vt 0.528725 0.461541
vt 0.529170 0.462596
vt 0.529188 0.327695
vt 0.525474 0.327615
vt 0.529176 0.327722
vt 0.525970 0.328796
vt 0.525510 0.462629
vt 0.525556 0.327810
vt 0.525969 0.461541
vt 0.525522 0.462601
vt 0.529185 0.462630
vt 0.501410 0.328796
vt 0.501409 0.461541
vt 0.501842 0.462597
vt 0.501859 0.327695
vt 0.525307 0.463108
vt 0.524966 0.464188
vt 0.525308 0.327220
vt 0.502052 0.463109
vt 0.501602 0.463132
vt 0.529387 0.463108
vt 0.529387 0.327220
vt 0.529725 0.326140
vt 0.501546 0.327268
vt 0.502053 0.327220
vt 0.502395 0.326141
vt 0.502053 0.325694
vt 0.529387 0.327220
vt 0.525308 0.327220
vt 0.529387 0.463108
vt 0.525307 0.463108
vt 0.502053 0.327220
vt 0.501848 0.327723
vt 0.502052 0.463109
vt 0.501856 0.462630
vt 0.611077 0.099989
vt 0.610818 0.249998
vt 0.616750 0.249882
vt 0.617040 0.099872
vt 0.625000 0.249998
vt 0.625336 0.099984
vt 0.641261 0.249998
vt 0.641429 0.099692
vt 0.564222 0.099990
vt 0.610674 0.000009
vt 0.610680 0.250144
vt 0.610260 0.250797
vt 0.625000 0.983595
vt 0.625000 1.000000
vt 0.617339 0.248796
vt 0.616543 0.000005
vt 0.625000 0.000000
vt 0.641406 0.000004
vt 0.625000 0.266260
vt 0.624615 0.266806
vt 0.624278 0.251037
vt 0.616128 0.250890
vt 0.625001 0.266909
vt 0.625000 0.249998
vt 0.610676 1.000000
vt 0.616544 1.000000
vt 0.503165 1.000000
vt 0.562494 0.922777
vt 0.567006 0.749680
f 140/185 141/186 249/187 246/188
f 230/189 257/190 238/191 217/192
f 142/193 137/194 211/195 164/196
f 143/198 144/199 145/200
f 149/201 153/202 162/203 157/204
f 149/201 157/204 158/205 148/206
f 152/207 213/208 146/209 151/210
f 149/201 213/208 152/207 153/202
f 163/211 214/212 157/204 162/203
f 133/213 159/214 214/212 163/211
f 212/215 215/216 164/196 211/195
f 170/217 171/218 172/219 169/220
f 169/220 172/219 173/221 168/222
f 190/231 191/232 192/233 189/234
f 189/234 192/233 193/235 188/236
f 198/237 199/238 200/239 197/240
f 197/240 200/239 201/241 196/242
f 203/243 199/238 198/237 204/244
f 203/243 204/244 205/245 202/246
f 207/248 208/249 135/247
f 132/250 139/251 210/252 155/253
f 132/254 161/255 165/256 139/257
f 173/221 174/258 177/259 168/222
f 168/222 177/259 162/203 153/202
f 216/262 194/263 195/264 240/265
f 193/235 196/242 201/241 188/236
f 207/248 202/246 205/245 208/249
f 193/235 174/258 173/221 196/242
f 181/225 188/236 201/241 183/228
f 182/260 238/191 239/267 232/261
f 246/188 247/268 167/283 140/185
f 207/248 206/266 187/230 202/246
f 147/269 154/270 208/249 205/245
f 139/251 137/271 145/200 210/252
f 165/256 211/195 137/194 139/257
f 190/231 224/273 248/274 191/232
f 141/186 176/275 191/232 249/187
f 143/198 145/200 137/271 142/276
f 144/197 136/184 138/183 209/277
f 144/199 209/278 210/252 145/200
f 162/203 177/259 178/279 163/211
f 163/211 178/279 134/280 133/213
f 160/281 134/280 141/186 166/282
f 160/281 166/282 165/256 161/255
f 167/283 215/216 212/215 140/185
f 151/210 170/217 169/220 152/207
f 152/207 169/220 168/222 153/202
f 176/275 134/280 178/279 175/284
f 175/284 178/279 177/259 174/258
f 179/223 190/231 189/234 180/224
f 180/224 189/234 188/236 181/225
f 174/258 193/235 192/233 175/284
f 175/284 192/233 191/232 176/275
f 171/218 198/237 197/240 172/219
f 172/219 197/240 196/242 173/221
f 183/228 201/241 200/239 184/227
f 184/227 200/239 199/238 185/226
f 186/229 185/226 199/238 203/243
f 186/229 203/243 202/246 187/230
f 147/269 205/245 204/244 146/209
f 171/218 170/217 151/285 146/209
f 206/266 207/248 135/247
f 131/286 135/247 208/249 154/270
f 155/253 210/252 209/278 156/287
f 209/277 138/183 131/182 156/288
f 166/282 141/186 140/185 212/215
f 166/282 212/215 211/195 165/256
f 146/209 213/208 150/289 147/269
f 150/289 213/208 149/201 148/206
f 157/204 214/212 159/214 158/205
f 224/273 190/231 230/189 231/290
f 219/295 228/296 229/297 218/298
f 218/298 229/297 230/189 217/192
f 221/299 285/300 286/301 220/302
f 220/302 286/301 287/303 219/295
f 216/262 240/265 241/304 222/305
f 222/305 241/304 242/306 221/299
f 226/307 253/308 254/309 225/310
f 225/310 254/309 248/274 224/273
f 228/296 271/311 272/312 227/313
f 227/313 272/312 273/314 226/307
f 236/315 297/316 298/317 235/318
f 235/318 298/317 299/319 234/292
f 238/191 257/190 258/320 237/321
f 237/321 258/320 259/322 236/315
f 244/323 279/324 280/325 243/326
f 243/326 280/325 281/327 242/306
f 246/188 249/187 250/328 245/329
f 245/329 250/328 251/330 244/323
f 253/308 267/331 268/332 252/333
f 252/333 268/332 269/334 251/330
f 261/293 291/335 292/336 260/337
f 260/337 292/336 293/338 259/322
f 265/339 277/340 278/341 264/342
f 264/342 278/341 279/324 269/334
f 267/331 273/314 274/343 266/344
f 266/344 274/343 275/345 265/339
f 271/311 287/303 282/346 270/347
f 270/347 282/346 283/348 275/345
f 277/340 283/348 284/349 276/350
f 276/350 284/349 285/300 281/327
f 289/351 295/352 296/353 288/354
f 288/354 296/353 297/316 293/338
f 275/345 283/348 277/340 265/339
f 287/303 271/311 228/296 219/295
f 281/327 285/300 221/299 242/306
f 273/314 267/331 253/308 226/307
f 293/338 297/316 236/315 259/322
f 269/334 279/324 244/323 251/330
f 222/305 300/357 223/358 216/262
f 223/358 300/357 218/298 217/192
f 218/298 300/357 220/302 219/295
f 220/302 300/357 222/305 221/299
f 231/290 301/359 225/310 224/273
f 225/310 301/359 227/313 226/307
f 227/313 301/359 229/297 228/296
f 229/297 301/359 231/290 230/189
f 239/267 302/360 233/291 232/261
f 233/291 302/360 235/318 234/292
f 235/318 302/360 237/321 236/315
f 237/321 302/360 239/267 238/191
f 247/268 303/361 241/304 240/265
f 241/304 303/361 243/326 242/306
f 243/326 303/361 245/329 244/323
f 245/329 303/361 247/268 246/188
f 254/309 304/362 255/363 248/274
f 255/363 304/362 250/328 249/187
f 250/328 304/362 252/333 251/330
f 252/333 304/362 254/309 253/308
f 262/294 305/364 263/365 256/272
f 263/365 305/364 258/320 257/190
f 258/320 305/364 260/337 259/322
f 260/337 305/364 262/294 261/293
f 268/332 306/366 264/342 269/334
f 264/342 306/366 266/344 265/339
f 266/344 306/366 268/332 267/331
f 274/343 307/367 270/347 275/345
f 270/347 307/367 272/312 271/311
f 272/312 307/367 274/343 273/314
f 280/325 308/368 276/350 281/327
f 276/350 308/368 278/341 277/340
f 278/341 308/368 280/325 279/324
f 286/301 309/369 282/346 287/303
f 282/346 309/369 284/349 283/348
f 284/349 309/369 286/301 285/300
f 292/336 310/370 288/354 293/338
f 288/354 310/370 290/355 289/351
f 290/355 310/370 292/336 291/335
f 298/317 311/371 294/356 299/319
f 294/356 311/371 296/353 295/352
f 296/353 311/371 298/317 297/316
f 194/263 216/262 223/358 217/192
f 182/260 194/263 217/192 238/191
f 179/223 256/272 263/365 257/190
f 191/232 248/274 255/363 249/187
f 190/231 179/223 257/190 230/189
f 315/372 316/373 317/374 314/375
f 314/375 317/374 318/376 313/377
f 313/377 318/376 319/378 312/379
f 312/379 319/378 132/250 155/253
f 315/372 332/380 148/206 316/373
f 315/372 327/381 131/286 332/380
f 159/214 328/382 320/383 158/205
f 316/373 148/206 158/205 320/383
f 324/384 156/288 325/385
f 329/386 328/382 159/214 133/213
f 314/375 326/387 327/381 315/372
f 313/377 325/388 326/387 314/375
f 155/253 156/287 324/389 312/379
f 312/379 324/389 325/388 313/377
f 319/390 323/391 161/255 132/254
f 318/376 322/392 323/391 319/390
f 316/373 320/383 321/393 317/374
f 317/374 321/393 322/392 318/376
f 323/391 331/394 160/281 161/255
f 322/392 330/395 331/394 323/391
f 320/383 328/382 329/386 321/393
f 321/393 329/386 330/395 322/392
f 156/288 131/182 327/396
f 156/288 326/397 325/385
f 204/244 198/237 171/218 146/209
f 332/380 154/270 150/289 148/206
f 131/286 154/270 332/380
f 154/270 147/269 150/289
f 141/186 134/280 176/275
f 160/281 133/213 134/280
f 133/213 160/281 331/394 330/395
f 330/395 329/386 133/213
f 156/288 327/396 326/397
f 167/283 247/268 240/265 195/264
f 138/183 333/398 135/181 131/182
f 136/184 334/399 333/398 138/183
f 343/400 448/403 451/402 344/401
f 432/404 419/407 440/406 459/405
f 345/408 367/411 413/410 340/409
f 346/412 348/414 347/413
f 352/415 360/418 365/417 356/416
f 352/415 351/420 361/419 360/418
f 355/421 354/424 349/423 415/422
f 352/415 356/416 355/421 415/422
f 366/425 365/417 360/418 416/426
f 337/427 366/425 416/426 362/428
f 414/429 413/410 367/411 417/430
f 373/431 372/434 375/433 374/432
f 372/434 371/436 376/435 375/433
f 393/437 392/440 395/439 394/438
f 392/440 391/442 396/441 395/439
f 401/443 400/446 403/445 402/444
f 400/446 399/448 404/447 403/445
f 406/449 407/450 401/443 402/444
f 406/449 405/452 408/451 407/450
f 409/453 135/455 410/454
f 336/456 358/459 412/458 342/457
f 336/460 342/463 368/462 364/461
f 376/435 371/436 380/465 377/464
f 371/436 356/416 365/417 380/465
f 418/466 442/469 398/468 397/467
f 396/441 391/442 404/447 399/448
f 409/453 410/454 408/451 405/452
f 396/441 399/448 376/435 377/464
f 384/470 386/471 404/447 391/442
f 385/472 434/474 441/473 440/406
f 448/403 343/400 370/476 449/475
f 409/453 405/452 390/478 206/477
f 350/479 408/451 410/454 357/480
f 342/457 412/458 348/414 340/481
f 368/462 342/463 340/409 413/410
f 393/437 394/438 450/483 426/482
f 344/401 451/402 394/438 379/484
f 346/412 345/485 340/481 348/414
f 347/486 411/489 341/488 339/487
f 347/413 348/414 412/458 411/490
f 365/417 366/425 381/491 380/465
f 366/425 337/427 338/492 381/491
f 363/493 369/494 344/401 338/492
f 363/493 364/461 368/462 369/494
f 370/476 343/400 414/429 417/430
f 354/424 355/421 372/434 373/431
f 355/421 356/416 371/436 372/434
f 379/484 378/495 381/491 338/492
f 378/495 377/464 380/465 381/491
f 382/496 383/497 392/440 393/437
f 383/497 384/470 391/442 392/440
f 377/464 378/495 395/439 396/441
f 378/495 379/484 394/438 395/439
f 374/432 375/433 400/446 401/443
f 375/433 376/435 399/448 400/446
f 386/471 387/498 403/445 404/447
f 387/498 388/499 402/444 403/445
f 389/500 406/449 402/444 388/499
f 389/500 390/478 405/452 406/449
f 350/479 349/423 407/450 408/451
f 374/432 349/423 354/501 373/431
f 206/477 135/455 409/453
f 335/502 357/480 410/454 135/455
f 358/459 359/503 411/490 412/458
f 411/489 359/505 335/504 341/488
f 369/494 414/429 343/400 344/401
f 369/494 368/462 413/410 414/429
f 349/423 350/479 353/506 415/422
f 353/506 351/420 352/415 415/422
f 360/418 361/419 362/428 416/426
f 426/482 433/507 432/404 393/437
f 421/508 420/511 431/510 430/509
f 420/511 419/407 432/404 431/510
f 423/512 422/515 488/514 487/513
f 422/515 421/508 489/516 488/514
f 418/466 424/518 443/517 442/469
f 424/518 423/512 444/519 443/517
f 428/520 427/523 456/522 455/521
f 427/523 426/482 450/483 456/522
f 430/509 429/526 474/525 473/524
f 429/526 428/520 475/527 474/525
f 438/528 437/531 500/530 499/529
f 437/531 436/533 501/532 500/530
f 440/406 439/535 460/534 459/405
f 439/535 438/528 461/536 460/534
f 446/537 445/540 482/539 481/538
f 445/540 444/519 483/541 482/539
f 448/403 447/543 452/542 451/402
f 447/543 446/537 453/544 452/542
f 455/521 454/547 470/546 469/545
f 454/547 453/544 471/548 470/546
f 463/549 462/552 494/551 493/550
f 462/552 461/536 495/553 494/551
f 467/554 466/557 480/556 479/555
f 466/557 471/548 481/538 480/556
f 469/545 468/559 476/558 475/527
f 468/559 467/554 477/560 476/558
f 473/524 472/562 484/561 489/516
f 472/562 477/560 485/563 484/561
f 479/555 478/565 486/564 485/563
f 478/565 483/541 487/513 486/564
f 491/566 490/569 498/568 497/567
f 490/569 495/553 499/529 498/568
f 477/560 467/554 479/555 485/563
f 489/516 421/508 430/509 473/524
f 483/541 444/519 423/512 487/513
f 475/527 428/520 455/521 469/545
f 495/553 461/536 438/528 499/529
f 471/548 453/544 446/537 481/538
f 424/518 418/466 425/571 502/570
f 425/571 419/407 420/511 502/570
f 420/511 421/508 422/515 502/570
f 422/515 423/512 424/518 502/570
f 433/507 426/482 427/523 503/572
f 427/523 428/520 429/526 503/572
f 429/526 430/509 431/510 503/572
f 431/510 432/404 433/507 503/572
f 441/473 434/474 435/574 504/573
f 435/574 436/533 437/531 504/573
f 437/531 438/528 439/535 504/573
f 439/535 440/406 441/473 504/573
f 449/475 442/469 443/517 505/575
f 443/517 444/519 445/540 505/575
f 445/540 446/537 447/543 505/575
f 447/543 448/403 449/475 505/575
f 456/522 450/483 457/577 506/576
f 457/577 451/402 452/542 506/576
f 452/542 453/544 454/547 506/576
f 454/547 455/521 456/522 506/576
f 464/578 458/581 465/580 507/579
f 465/580 459/405 460/534 507/579
f 460/534 461/536 462/552 507/579
f 462/552 463/549 464/578 507/579
f 470/546 471/548 466/557 508/582
f 466/557 467/554 468/559 508/582
f 468/559 469/545 470/546 508/582
f 476/558 477/560 472/562 509/583
f 472/562 473/524 474/525 509/583
f 474/525 475/527 476/558 509/583
f 482/539 483/541 478/565 510/584
f 478/565 479/555 480/556 510/584
f 480/556 481/538 482/539 510/584
f 488/514 489/516 484/561 511/585
f 484/561 485/563 486/564 511/585
f 486/564 487/513 488/514 511/585
f 494/551 495/553 490/569 512/586
f 490/569 491/566 492/587 512/586
f 492/587 493/550 494/551 512/586
f 500/530 501/532 496/589 513/588
f 496/589 497/567 498/568 513/588
f 498/568 499/529 500/530 513/588
f 397/467 419/407 425/571 418/466
f 385/472 440/406 419/407 397/467
f 382/496 459/405 465/580 458/581
f 394/438 451/402 457/577 450/483
f 393/437 432/404 459/405 382/496
f 517/590 516/593 519/592 518/591
f 516/593 515/595 520/594 519/592
f 515/595 514/597 521/596 520/594
f 514/597 358/459 336/456 521/596
f 517/590 518/591 351/420 534/598
f 517/590 534/598 335/502 529/599
f 362/428 361/419 522/601 530/600
f 518/591 522/601 361/419 351/420
f 526/602 527/603 359/505
f 531/604 337/427 362/428 530/600
f 516/593 517/590 529/599 528/605
f 515/595 516/593 528/605 527/606
f 358/459 514/597 526/607 359/503
f 514/597 515/595 527/606 526/607
f 521/608 336/460 364/461 525/609
f 520/594 521/608 525/609 524/610
f 518/591 519/592 523/611 522/601
f 519/592 520/594 524/610 523/611
f 525/609 364/461 363/493 533/612
f 524/610 525/609 533/612 532/613
f 522/601 523/611 531/604 530/600
f 523/611 524/610 532/613 531/604
f 359/505 529/614 335/504
f 359/505 527/603 528/615
f 407/450 349/423 374/432 401/443
f 534/598 351/420 353/506 357/480
f 335/502 534/598 357/480
f 357/480 353/506 350/479
f 344/401 379/484 338/492
f 363/493 338/492 337/427
f 337/427 532/613 533/612 363/493
f 532/613 337/427 531/604
f 359/505 528/615 529/614
f 341/488 335/504 135/616 333/617
f 370/476 398/468 442/469 449/475
f 232/261 434/474 385/472 182/260
f 233/291 435/574 434/474 232/261
f 234/292 436/533 435/574 233/291
f 299/319 501/532 436/533 234/292
f 294/356 496/589 501/532 299/319
f 295/352 497/567 496/589 294/356
f 289/351 491/566 497/567 295/352
f 290/355 492/587 491/566 289/351
f 291/335 493/550 492/587 290/355
f 261/293 463/549 493/550 291/335
f 262/294 464/578 463/549 261/293
f 256/272 458/581 464/578 262/294
f 179/223 382/496 458/581 256/272
f 180/224 383/497 382/496 179/223
f 181/225 384/470 383/497 180/224
f 183/228 386/471 384/470 181/225
f 184/227 387/498 386/471 183/228
f 185/226 388/499 387/498 184/227
f 186/229 389/500 388/499 185/226
f 187/230 390/478 389/500 186/229
f 339/487 341/488 333/617 334/618
f 206/477 390/478 187/230
v -301.605225 -33.497749 -206.313477
v -474.080811 3.148825 -194.298325
v -308.055176 -12.800257 -218.161057
v -299.081818 4.201454 -204.737442
v 0.000000 -33.497749 -206.313477
v -294.781647 227.637009 0.000000
v -467.767212 204.913910 -34.863338
v -301.605225 31.499584 -153.759491
v -474.080811 39.990082 -165.211517
v -294.598816 209.431686 -41.096962
v -303.375946 45.471596 -172.153900
v -466.281677 236.730957 -9.742321
v -466.281677 233.634644 -5.820338
v -458.060242 226.261353 -1.630254
v -467.767212 201.817352 -30.941574
v -303.375916 -28.050533 -217.689865
v -303.375946 -30.276262 -216.445343
v -308.055176 -28.212353 -219.059448
v -305.700195 -25.986956 -220.303925
v -307.079590 -29.671822 -217.210922
v -301.393555 -19.321709 -212.039734
v -303.748535 -18.349205 -212.515717
v -304.724640 -16.738037 -214.243179
v -303.375946 -31.307909 -215.137863
v -474.080811 0.052427 -190.376740
v -465.308594 -3.511337 -182.638092
v -305.700195 -24.030144 -222.782410
v -308.055176 -24.795734 -223.386871
v -309.762451 -22.252028 -224.377579
v -470.971741 8.025671 -200.474960
v -474.080811 6.566677 -198.627014
v -304.724640 -15.384946 -215.957123
v -305.700195 -13.773134 -217.685394
v -466.281677 240.148132 -14.069923
v -474.080811 43.407921 -169.540222
v -470.971741 44.866920 -171.388168
v -293.728943 241.605438 -15.923373
v -296.532715 -1.216396 -201.988754
v -295.785889 -3.261717 -200.603088
v -293.983429 -5.280928 -200.954498
v -276.094238 0.534682 -196.362244
v -276.562744 2.988598 -195.669266
v -276.756897 5.212879 -196.912354
v -276.756897 6.566677 -198.627014
v -276.950439 8.791294 -199.870819
v -277.418945 11.244425 -199.176834
v -296.532715 0.136606 -203.702454
v -297.278809 2.182747 -205.088776
v -7.292580 11.244425 -199.176834
v -7.292580 8.791294 -199.870819
v -7.292580 6.566677 -198.627014
v -7.292580 241.607437 -15.918268
v -7.292580 5.212879 -196.912354
v -7.292580 2.987682 -195.668365
v -7.292580 0.534682 -196.362244
v -7.292580 -28.050533 -217.689865
v -7.292580 -30.276262 -216.445343
v -164.241852 6.566677 -198.627014
v -164.241852 8.791294 -199.870819
v -164.241852 11.244425 -199.176834
v -178.827576 11.244425 -199.176834
v -178.827576 8.791294 -199.870819
v -178.827576 6.566677 -198.627014
v -164.241852 241.607437 -15.918268
v -177.905121 241.607437 -15.918268
v -178.827576 5.212879 -196.912354
v -178.827576 2.987682 -195.668365
v -178.827576 0.534682 -196.362244
v -164.241852 0.534682 -196.362244
v -164.241852 2.987682 -195.668365
v -164.241852 5.212879 -196.912354
v -164.241852 -30.276262 -216.445343
v -164.241852 -28.050533 -217.689865
v -178.827576 -28.050533 -217.689865
v -178.827576 -30.276262 -216.445343
v 0.000000 -31.307909 -215.137863
v -164.241852 -31.307909 -215.137863
v -178.827576 -31.307909 -215.137863
v -465.308594 32.601532 -154.126038
v -474.080811 36.893753 -161.289886
v -467.767212 208.330811 -39.190868
v -464.658142 209.790268 -41.039387
v -304.724640 -27.446587 -218.455200
v -307.880371 -22.181858 -223.782593
v -463.714783 241.550171 -16.063667
v -164.241852 211.743301 -40.740875
v -162.523590 210.394562 -41.804771
v -163.963531 208.952698 -42.400772
v -164.879318 207.467865 -42.083523
v -165.484268 208.396988 -41.246338
v -166.952759 208.760681 -40.864639
v -165.945450 210.276093 -41.293098
v -163.027252 211.347992 -41.052010
v -164.241852 44.123623 -173.218491
v -165.681793 44.979359 -172.002411
v -166.711090 44.984299 -170.507629
v -165.459839 45.413383 -170.080139
v -164.941528 46.514755 -169.099518
v -164.017456 46.514748 -170.725418
v -162.523590 45.471531 -172.153946
v -163.027252 44.518517 -172.906708
v -7.292580 211.743301 -40.740875
v -5.791386 210.348312 -41.297604
v -4.822411 208.905991 -40.948402
v -6.073845 208.390717 -41.266495
v -6.592161 207.182007 -42.111027
v -7.516218 208.762756 -42.487564
v -9.009896 210.394562 -41.804771
v -8.507181 211.347992 -41.052010
v -178.827576 211.743301 -40.740875
v -177.325821 210.348312 -41.297604
v -176.357605 208.905991 -40.948402
v -177.609039 208.390717 -41.266495
v -178.127350 207.182007 -42.111027
v -179.051407 208.762756 -42.487564
v -180.137863 209.431686 -41.096962
v -180.042175 211.347992 -41.052010
v -178.827576 44.123623 -173.218491
v -180.545074 45.471531 -172.153946
v -179.105347 46.385597 -170.888916
v -178.189362 46.421680 -169.372147
v -177.584412 45.391701 -170.081726
v -176.116104 44.936562 -170.346497
v -177.123413 45.001446 -171.919891
v -180.042175 44.518517 -172.906708
v -7.292580 44.123623 -173.218491
v -9.009896 45.471531 -172.153946
v -7.569968 46.385597 -170.888916
v -6.654930 46.422009 -169.371887
v -6.049414 45.391701 -170.081726
v -4.580920 44.936562 -170.346497
v -5.588232 45.001507 -171.919830
v -8.507181 44.518517 -172.906708
v -176.538010 45.470264 -166.348557
v -175.108795 45.289799 -165.923706
v -175.263840 44.444328 -167.142700
v -175.631989 44.429058 -168.634598
v -176.928345 44.849442 -168.292984
v -177.464508 45.866997 -167.498993
v -166.540436 45.436356 -166.359787
v -165.604156 45.866997 -167.498993
v -166.174911 44.862762 -168.400345
v -167.553391 44.476784 -168.795746
v -167.936218 44.450661 -167.246170
v -167.959137 45.289799 -165.923706
v -175.230576 205.774017 -39.646416
v -175.108795 204.376282 -40.181664
v -176.528229 204.766693 -40.425552
v -177.464508 205.775360 -41.109356
v -176.928162 206.792053 -40.306309
v -175.631989 207.213165 -39.973843
v -166.530670 204.748138 -40.456383
v -167.959137 204.376282 -40.181664
v -167.804092 205.758499 -39.642487
v -167.435944 207.213165 -39.973843
v -166.140533 206.792053 -40.306309
v -165.604156 205.775299 -41.109406
v -5.002825 45.470264 -166.348557
v -3.574360 45.289799 -165.923706
v -3.729590 44.444328 -167.142700
v -4.097748 44.429058 -168.634598
v -5.393910 44.849442 -168.292984
v -5.930079 45.866997 -167.498993
v -3.696139 205.774017 -39.646416
v -3.574360 204.376282 -40.181664
v -4.993805 204.766693 -40.425552
v -5.930079 205.775299 -41.109406
v -5.393158 206.792053 -40.306309
v -4.097748 207.213165 -39.973843
v -164.535034 209.898468 -41.622322
v -164.497437 45.420559 -171.624924
v -7.017262 209.887756 -41.634972
v -178.551880 209.887756 -41.634972
v -178.533081 45.409557 -171.628754
v -6.998656 45.409618 -171.628708
v -176.369049 44.708992 -167.192795
v -166.755997 44.694592 -167.274429
v -176.356094 205.762817 -39.905247
v -166.700562 205.751678 -39.913082
v -4.833876 44.708992 -167.192795
v -4.820908 205.762817 -39.905247
v -470.807434 -12.124339 -199.991592
v -462.263123 -21.870916 -207.686447
v -449.680176 -28.385990 -212.830612
v -434.899414 -30.716225 -214.670715
v -434.906921 -27.623772 -218.595078
v -449.685059 -25.291845 -216.754303
v -462.266113 -18.775269 -211.608963
v -470.807800 -9.027722 -203.912369
v -434.901855 -24.206848 -222.922897
v -449.681885 -21.875244 -221.082367
v -462.264465 -15.359069 -215.937988
v -470.807617 -5.612683 -208.242645
v -462.283630 -14.800504 -191.749863
v -453.988525 -24.358118 -199.444717
v -441.664124 -30.756599 -204.572998
v -427.153992 -33.037819 -206.368042
v -433.247375 -22.198360 -223.921478
v -447.740540 -19.925194 -222.119781
v -460.050903 -13.459467 -217.091003
v -468.336121 -3.768395 -209.587387
v -308.054993 -31.286861 -215.121246
v 0.000000 31.499584 -153.759491
v 0.000000 227.637009 0.000000
v 301.605225 -33.497749 -206.313477
v 474.080811 3.148825 -194.298325
v 308.055176 -12.800257 -218.161057
v 299.081818 4.201454 -204.737442
v 294.781647 227.637009 0.000000
v 467.767212 204.913910 -34.863338
v 301.605225 31.499584 -153.759491
v 474.080811 39.990082 -165.211517
v 294.598816 209.431686 -41.096962
v 303.375946 45.471596 -172.153900
v 466.281677 236.730957 -9.742321
v 466.281677 233.634644 -5.820338
v 458.060242 226.261353 -1.630254
v 467.767212 201.817352 -30.941574
v 303.375916 -28.050533 -217.689865
v 303.375946 -30.276262 -216.445343
v 308.055176 -28.212353 -219.059448
v 305.700195 -25.986956 -220.303925
v 307.079590 -29.671822 -217.210922
v 301.393555 -19.321709 -212.039734
v 303.748535 -18.349205 -212.515717
v 304.724640 -16.738037 -214.243179
v 303.375946 -31.307909 -215.137863
v 474.080811 0.052427 -190.376740
v 465.308594 -3.511337 -182.638092
v 305.700195 -24.030144 -222.782410
v 308.055176 -24.795734 -223.386871
v 309.762451 -22.252028 -224.377579
v 470.971741 8.025671 -200.474960
v 474.080811 6.566677 -198.627014
v 304.724640 -15.384946 -215.957123
v 305.700195 -13.773134 -217.685394
v 466.281677 240.148132 -14.069923
v 474.080811 43.407921 -169.540222
v 470.971741 44.866920 -171.388168
v 293.728943 241.605438 -15.923373
v 296.532715 -1.216396 -201.988754
v 295.785889 -3.261717 -200.603088
v 293.983429 -5.280928 -200.954498
v 276.094238 0.534682 -196.362244
v 276.562744 2.988598 -195.669266
v 276.756897 5.212879 -196.912354
v 276.756897 6.566677 -198.627014
v 276.950439 8.791294 -199.870819
v 277.418945 11.244425 -199.176834
v 296.532715 0.136606 -203.702454
v 297.278809 2.182747 -205.088776
v 7.292580 11.244425 -199.176834
v 7.292580 8.791294 -199.870819
v 7.292580 6.566677 -198.627014
v 7.292580 241.607437 -15.918268
v 7.292580 5.212879 -196.912354
v 7.292580 2.987682 -195.668365
v 7.292580 0.534682 -196.362244
v 7.292580 -28.050533 -217.689865
v 7.292580 -30.276262 -216.445343
v 164.241852 6.566677 -198.627014
v 164.241852 8.791294 -199.870819
v 164.241852 11.244425 -199.176834
v 178.827576 11.244425 -199.176834
v 178.827576 8.791294 -199.870819
v 178.827576 6.566677 -198.627014
v 164.241852 241.607437 -15.918268
v 177.905121 241.607437 -15.918268
v 178.827576 5.212879 -196.912354
v 178.827576 2.987682 -195.668365
v 178.827576 0.534682 -196.362244
v 164.241852 0.534682 -196.362244
v 164.241852 2.987682 -195.668365
v 164.241852 5.212879 -196.912354
v 164.241852 -30.276262 -216.445343
v 164.241852 -28.050533 -217.689865
v 178.827576 -28.050533 -217.689865
v 178.827576 -30.276262 -216.445343
v 164.241852 -31.307909 -215.137863
v 178.827576 -31.307909 -215.137863
v 465.308594 32.601532 -154.126038
v 474.080811 36.893753 -161.289886
v 467.767212 208.330811 -39.190868
v 464.658142 209.790268 -41.039387
v 304.724640 -27.446587 -218.455200
v 307.880371 -22.181858 -223.782593
v 463.714783 241.550171 -16.063667
v 164.241852 211.743301 -40.740875
v 162.523590 210.394562 -41.804771
v 163.963531 208.952698 -42.400772
v 164.879318 207.467865 -42.083523
v 165.484268 208.396988 -41.246338
v 166.952759 208.760681 -40.864639
v 165.945450 210.276093 -41.293098
v 163.027252 211.347992 -41.052010
v 164.241852 44.123623 -173.218491
v 165.681793 44.979359 -172.002411
v 166.711090 44.984299 -170.507629
v 165.459839 45.413383 -170.080139
v 164.941528 46.514755 -169.099518
v 164.017456 46.514748 -170.725418
v 162.523590 45.471531 -172.153946
v 163.027252 44.518517 -172.906708
v 7.292580 211.743301 -40.740875
v 5.791386 210.348312 -41.297604
v 4.822411 208.905991 -40.948402
v 6.073845 208.390717 -41.266495
v 6.592161 207.182007 -42.111027
v 7.516218 208.762756 -42.487564
v 9.009896 210.394562 -41.804771
v 8.507181 211.347992 -41.052010
v 178.827576 211.743301 -40.740875
v 177.325821 210.348312 -41.297604
v 176.357605 208.905991 -40.948402
v 177.609039 208.390717 -41.266495
v 178.127350 207.182007 -42.111027
v 179.051407 208.762756 -42.487564
v 180.137863 209.431686 -41.096962
v 180.042175 211.347992 -41.052010
v 178.827576 44.123623 -173.218491
v 180.545074 45.471531 -172.153946
v 179.105347 46.385597 -170.888916
v 178.189362 46.421680 -169.372147
v 177.584412 45.391701 -170.081726
v 176.116104 44.936562 -170.346497
v 177.123413 45.001446 -171.919891
v 180.042175 44.518517 -172.906708
v 7.292580 44.123623 -173.218491
v 9.009896 45.471531 -172.153946
v 7.569968 46.385597 -170.888916
v 6.654930 46.422009 -169.371887
v 6.049414 45.391701 -170.081726
v 4.580920 44.936562 -170.346497
v 5.588232 45.001507 -171.919830
v 8.507181 44.518517 -172.906708
v 176.538010 45.470264 -166.348557
v 175.108795 45.289799 -165.923706
v 175.263840 44.444328 -167.142700
v 175.631989 44.429058 -168.634598
v 176.928345 44.849442 -168.292984
v 177.464508 45.866997 -167.498993
v 166.540436 45.436356 -166.359787
v 165.604156 45.866997 -167.498993
v 166.174911 44.862762 -168.400345
v 167.553391 44.476784 -168.795746
v 167.936218 44.450661 -167.246170
v 167.959137 45.289799 -165.923706
v 175.230576 205.774017 -39.646416
v 175.108795 204.376282 -40.181664
v 176.528229 204.766693 -40.425552
v 177.464508 205.775360 -41.109356
v 176.928162 206.792053 -40.306309
v 175.631989 207.213165 -39.973843
v 166.530670 204.748138 -40.456383
v 167.959137 204.376282 -40.181664
v 167.804092 205.758499 -39.642487
v 167.435944 207.213165 -39.973843
v 166.140533 206.792053 -40.306309
v 165.604156 205.775299 -41.109406
v 5.002825 45.470264 -166.348557
v 3.574360 45.289799 -165.923706
v 3.729590 44.444328 -167.142700
v 4.097748 44.429058 -168.634598
v 5.393910 44.849442 -168.292984
v 5.930079 45.866997 -167.498993
v 3.696139 205.774017 -39.646416
v 3.574360 204.376282 -40.181664
v 4.993805 204.766693 -40.425552
v 5.930079 205.775299 -41.109406
v 5.393158 206.792053 -40.306309
v 4.097748 207.213165 -39.973843
v 164.535034 209.898468 -41.622322
v 164.497437 45.420559 -171.624924
v 7.017262 209.887756 -41.634972
v 178.551880 209.887756 -41.634972
v 178.533081 45.409557 -171.628754
v 6.998656 45.409618 -171.628708
v 176.369049 44.708992 -167.192795
v 166.755997 44.694592 -167.274429
v 176.356094 205.762817 -39.905247
v 166.700562 205.751678 -39.913082
v 4.833876 44.708992 -167.192795
v 4.820908 205.762817 -39.905247
v 470.807434 -12.124339 -199.991592
v 462.263123 -21.870916 -207.686447
v 449.680176 -28.385990 -212.830612
v 434.899414 -30.716225 -214.670715
v 434.906921 -27.623772 -218.595078
v 449.685059 -25.291845 -216.754303
v 462.266113 -18.775269 -211.608963
v 470.807800 -9.027722 -203.912369
v 434.901855 -24.206848 -222.922897
v 449.681885 -21.875244 -221.082367
v 462.264465 -15.359069 -215.937988
v 470.807617 -5.612683 -208.242645
v 462.283630 -14.800504 -191.749863
v 453.988525 -24.358118 -199.444717
v 441.664124 -30.756599 -204.572998
v 427.153992 -33.037819 -206.368042
v 433.247375 -22.198360 -223.921478
v 447.740540 -19.925194 -222.119781
v 460.050903 -13.459467 -217.091003
v 468.336121 -3.768395 -209.587387
v 308.054993 -31.286861 -215.121246
vt 0.503165 1.000000
vt 0.566160 0.999848
vt 0.562494 0.922777
vt 0.567006 0.749680
vt 0.562494 0.463108
vt 0.562494 0.327219
vt 0.529865 0.327220
vt 0.529864 0.463108
vt 0.524825 0.327220
vt 0.502537 0.327220
vt 0.502535 0.463109
vt 0.524824 0.463108
vt 0.625000 0.500000
vt 0.625000 0.463108
vt 0.625000 0.463108
vt 0.624231 0.498893
vt 0.625563 0.750507
vt 0.875000 0.069452
vt 0.874537 -0.005208
vt 0.838109 0.099983
vt 0.562854 0.252090
vt 0.562494 0.260653
vt 0.562494 0.260653
vt 0.563126 0.251436
vt 0.563723 0.249998
vt 0.563723 0.249998
vt 0.562494 0.260653
vt 0.562494 0.249998
vt 0.561829 0.222774
vt 0.561554 0.260064
vt 0.562494 0.260653
vt 0.562494 0.249998
vt 0.567514 0.273374
vt 0.563758 0.250622
vt 0.625000 0.463108
vt 0.625000 0.500000
vt 0.561517 0.282431
vt 0.554921 0.283859
vt 0.554718 0.285507
vt 0.562494 0.285507
vt 0.554718 0.285507
vt 0.562494 0.285507
vt 0.502054 0.288467
vt 0.502054 0.285507
vt 0.502053 0.285507
vt 0.501976 0.282548
vt 0.502052 0.285507
vt 0.502052 0.285507
vt 0.501145 0.249999
vt 0.501870 0.149986
vt 0.525308 0.288467
vt 0.529388 0.288467
vt 0.529388 0.285507
vt 0.525308 0.285507
vt 0.529387 0.285507
vt 0.525308 0.285507
vt 0.529345 0.282547
vt 0.525261 0.282547
vt 0.525307 0.285507
vt 0.529386 0.285507
vt 0.525308 0.285507
vt 0.529387 0.285507
vt 0.524749 0.249999
vt 0.528891 0.249999
vt 0.529288 0.150014
vt 0.525195 0.150029
vt 0.503161 0.000009
vt 0.525418 0.100023
vt 0.529486 0.099994
vt 0.660506 0.250009
vt 0.702221 0.249999
vt 0.702221 0.099996
vt 0.660523 0.091217
vt 0.625024 0.285473
vt 0.624996 0.285541
vt 0.625000 0.327219
vt 0.625000 0.327219
vt 0.554718 0.285507
vt 0.562494 0.285507
vt 0.502111 0.499988
vt 0.502052 0.464635
vt 0.525307 0.464635
vt 0.525358 0.499907
vt 0.529421 0.499891
vt 0.529387 0.464635
vt 0.502236 0.099989
vt 0.502394 0.464188
vt 0.529724 0.464188
vt 0.562494 0.150010
vt 0.562494 0.099990
vt 0.838109 0.250000
vt 0.502053 0.325694
vt 0.525308 0.325693
vt 0.529388 0.325693
vt 0.554902 0.288466
vt 0.875000 0.250000
vt 0.625000 0.922779
vt 0.702221 0.000000
vt 0.562494 0.285507
vt 0.563363 0.294670
vt 0.625646 0.284019
vt 0.625000 0.327219
vt 0.562494 0.500000
vt 0.554718 0.285507
vt 0.561719 0.243820
vt 0.563539 -0.000709
vt 0.660505 0.000004
vt 0.625000 0.964496
vt 0.563363 0.179293
vt 0.524966 0.326140
vt 0.501602 0.463132
vt 0.501554 0.463109
vt 0.501301 0.327220
vt 0.501546 0.327268
vt 0.525307 0.461480
vt 0.525308 0.329055
vt 0.525273 0.328514
vt 0.525237 0.461977
vt 0.526082 0.463108
vt 0.526013 0.463108
vt 0.525740 0.462572
vt 0.525782 0.462459
vt 0.525307 0.461480
vt 0.528924 0.463132
vt 0.525827 0.463062
vt 0.528874 0.463108
vt 0.525820 0.327220
vt 0.528612 0.327220
vt 0.528865 0.327267
vt 0.525769 0.327193
vt 0.525308 0.328892
vt 0.525653 0.327807
vt 0.525644 0.327882
vt 0.525871 0.327220
vt 0.502052 0.461273
vt 0.502052 0.461437
vt 0.501740 0.462484
vt 0.501727 0.462449
vt 0.501554 0.463109
vt 0.502123 0.328351
vt 0.502088 0.461817
vt 0.502053 0.328848
vt 0.529387 0.461273
vt 0.529387 0.461436
vt 0.529065 0.462484
vt 0.529052 0.462449
vt 0.528874 0.463109
vt 0.529457 0.328351
vt 0.529422 0.461817
vt 0.529387 0.328848
vt 0.528681 0.327220
vt 0.528956 0.327760
vt 0.528913 0.327869
vt 0.529387 0.328848
vt 0.501368 0.327220
vt 0.501634 0.327760
vt 0.501593 0.327869
vt 0.502053 0.328848
vt 0.528725 0.328796
vt 0.528725 0.461541
vt 0.529170 0.462596
vt 0.529188 0.327695
vt 0.525474 0.327615
vt 0.529176 0.327722
vt 0.525970 0.328796
vt 0.525510 0.462629
vt 0.525556 0.327810
vt 0.525969 0.461541
vt 0.525522 0.462601
vt 0.529185 0.462630
vt 0.501410 0.328796
vt 0.501409 0.461541
vt 0.501842 0.462597
vt 0.501859 0.327695
vt 0.501848 0.327723
vt 0.501856 0.462630
vt 0.525307 0.463108
vt 0.524966 0.464188
vt 0.525308 0.327220
vt 0.502052 0.463109
vt 0.529387 0.463108
vt 0.529387 0.327220
vt 0.529725 0.326140
vt 0.502053 0.327220
vt 0.502395 0.326141
vt 0.529387 0.327220
vt 0.525308 0.327220
vt 0.529387 0.463108
vt 0.525307 0.463108
vt 0.502053 0.327220
vt 0.502052 0.463109
vt 0.611077 0.099989
vt 0.610818 0.249998
vt 0.616750 0.249882
vt 0.617040 0.099872
vt 0.625000 0.249998
vt 0.625336 0.099984
vt 0.641261 0.249998
vt 0.641429 0.099692
vt 0.564222 0.099990
vt 0.610674 0.000009
vt 0.610680 0.250144
vt 0.610260 0.250797
vt 0.625000 0.983595
vt 0.625000 1.000000
vt 0.617339 0.248796
vt 0.616543 0.000005
vt 0.625000 0.000000
vt 0.641406 0.000004
vt 0.625000 0.266260
vt 0.624615 0.266806
vt 0.624278 0.251037
vt 0.616128 0.250890
vt 0.625001 0.266909
vt 0.625000 0.249998
vt 0.610676 1.000000
vt 0.616544 1.000000
vt 0.562494 0.922777
vt 0.567006 0.749680
vt 0.562494 0.463108
vt 0.562494 0.327219
vt 0.529865 0.327220
vt 0.529864 0.463108
vt 0.524825 0.327220
vt 0.502537 0.327220
vt 0.502535 0.463109
vt 0.524824 0.463108
vt 0.625000 0.500000
vt 0.625000 0.463108
vt 0.625000 0.463108
vt 0.624231 0.498893
vt 0.875000 0.069452
vt 0.874537 -0.005208
vt 0.838109 0.099983
vt 0.562854 0.252090
vt 0.562494 0.260653
vt 0.562494 0.260653
vt 0.563126 0.251436
vt 0.563723 0.249998
vt 0.563723 0.249998
vt 0.562494 0.260653
vt 0.562494 0.249998
vt 0.561829 0.222774
vt 0.561554 0.260064
vt 0.562494 0.260653
vt 0.562494 0.249998
vt 0.567514 0.273374
vt 0.563758 0.250622
vt 0.625000 0.463108
vt 0.625000 0.500000
vt 0.561517 0.282431
vt 0.554921 0.283859
vt 0.554718 0.285507
vt 0.562494 0.285507
vt 0.554718 0.285507
vt 0.562494 0.285507
vt 0.525308 0.288467
vt 0.529388 0.288467
vt 0.529388 0.285507
vt 0.525308 0.285507
vt 0.529387 0.285507
vt 0.525308 0.285507
vt 0.529345 0.282547
vt 0.525261 0.282547
vt 0.525307 0.285507
vt 0.529386 0.285507
vt 0.525308 0.285507
vt 0.529387 0.285507
vt 0.524749 0.249999
vt 0.528891 0.249999
vt 0.529288 0.150014
vt 0.525195 0.150029
vt 0.525418 0.100023
vt 0.529486 0.099994
vt 0.503161 0.000009
vt 0.660506 0.250009
vt 0.702221 0.249999
vt 0.702221 0.099996
vt 0.660523 0.091217
vt 0.625024 0.285473
vt 0.624996 0.285541
vt 0.625000 0.327219
vt 0.625000 0.327219
vt 0.554718 0.285507
vt 0.562494 0.285507
vt 0.525307 0.464635
vt 0.525358 0.499907
vt 0.529421 0.499891
vt 0.529387 0.464635
vt 0.502053 0.285507
vt 0.502052 0.285507
vt 0.502111 0.499988
vt 0.502394 0.464188
vt 0.502052 0.464635
vt 0.529724 0.464188
vt 0.562494 0.500000
vt 0.502236 0.099989
vt 0.501870 0.149986
vt 0.562494 0.150010
vt 0.562494 0.099990
vt 0.838109 0.250000
vt 0.525308 0.325693
vt 0.529388 0.325693
vt 0.554902 0.288466
vt 0.875000 0.250000
vt 0.625563 0.750507
vt 0.567006 0.749680
vt 0.562494 0.922777
vt 0.625000 0.922779
vt 0.702221 0.000000
vt 0.562494 0.285507
vt 0.563363 0.294670
vt 0.625646 0.284019
vt 0.625000 0.327219
vt 0.554718 0.285507
vt 0.502054 0.288467
vt 0.502054 0.285507
vt 0.502052 0.285507
vt 0.501976 0.282548
vt 0.501145 0.249999
vt 0.561719 0.243820
vt 0.563539 -0.000709
vt 0.660505 0.000004
vt 0.566160 0.999848
vt 0.625000 0.964496
vt 0.563363 0.179293
vt 0.524966 0.326140
vt 0.525307 0.461480
vt 0.525308 0.329055
vt 0.525273 0.328514
vt 0.525237 0.461977
vt 0.526082 0.463108
vt 0.526013 0.463108
vt 0.525740 0.462572
vt 0.525782 0.462459
vt 0.525307 0.461480
vt 0.528924 0.463132
vt 0.525827 0.463062
vt 0.528874 0.463108
vt 0.525820 0.327220
vt 0.528612 0.327220
vt 0.528865 0.327267
vt 0.525769 0.327193
vt 0.525308 0.328892
vt 0.525653 0.327807
vt 0.525644 0.327882
vt 0.525871 0.327220
vt 0.502052 0.461273
vt 0.502052 0.461437
vt 0.501740 0.462484
vt 0.501727 0.462449
vt 0.501554 0.463109
vt 0.501554 0.463109
vt 0.502123 0.328351
vt 0.502088 0.461817
vt 0.502053 0.328848
vt 0.529387 0.461273
vt 0.529387 0.461436
vt 0.529065 0.462484
vt 0.529052 0.462449
vt 0.528874 0.463109
vt 0.529457 0.328351
vt 0.529422 0.461817
vt 0.529387 0.328848
vt 0.528681 0.327220
vt 0.528956 0.327760
vt 0.528913 0.327869
vt 0.529387 0.328848
vt 0.501301 0.327220
vt 0.501368 0.327220
vt 0.501634 0.327760
vt 0.501593 0.327869
vt 0.502053 0.328848
vt 0.528725 0.328796
vt 0.528725 0.461541
vt 0.529170 0.462596
vt 0.529188 0.327695
vt 0.525474 0.327615
vt 0.529176 0.327722
vt 0.525970 0.328796
vt 0.525510 0.462629
vt 0.525556 0.327810
vt 0.525969 0.461541
vt 0.525522 0.462601
vt 0.529185 0.462630
vt 0.501410 0.328796
vt 0.501409 0.461541
vt 0.501842 0.462597
vt 0.501859 0.327695
vt 0.525307 0.463108
vt 0.524966 0.464188
vt 0.525308 0.327220
vt 0.502052 0.463109
vt 0.501602 0.463132
vt 0.529387 0.463108
vt 0.529387 0.327220
vt 0.529725 0.326140
vt 0.501546 0.327268
vt 0.502053 0.327220
vt 0.502395 0.326141
vt 0.502053 0.325694
vt 0.529387 0.327220
vt 0.525308 0.327220
vt 0.529387 0.463108
vt 0.525307 0.463108
vt 0.502053 0.327220
vt 0.501848 0.327723
vt 0.502052 0.463109
vt 0.501856 0.462630
vt 0.611077 0.099989
vt 0.610818 0.249998
vt 0.616750 0.249882
vt 0.617040 0.099872
vt 0.625000 0.249998
vt 0.625336 0.099984
vt 0.641261 0.249998
vt 0.641429 0.099692
vt 0.564222 0.099990
vt 0.610674 0.000009
vt 0.610680 0.250144
vt 0.610260 0.250797
vt 0.625000 0.983595
vt 0.625000 1.000000
vt 0.617339 0.248796
vt 0.616543 0.000005
vt 0.625000 0.000000
vt 0.641406 0.000004
vt 0.625000 0.266260
vt 0.624615 0.266806
vt 0.624278 0.251037
vt 0.616128 0.250890
vt 0.625001 0.266909
vt 0.625000 0.249998
vt 0.610676 1.000000
vt 0.616544 1.000000
vt 0.503165 1.000000
vt 0.562494 0.922777
vt 0.567006 0.749680
f 544/623 650/626 653/625 545/624
f 634/627 621/630 642/629 661/628
f 546/631 568/634 615/633 541/632
f 547/636 549/638 548/637
f 553/639 561/642 566/641 557/640
f 553/639 552/644 562/643 561/642
f 556/645 555/648 550/647 617/646
f 553/639 557/640 556/645 617/646
f 567/649 566/641 561/642 618/650
f 537/651 567/649 618/650 563/652
f 616/653 615/633 568/634 619/654
f 574/655 573/658 576/657 575/656
f 573/658 572/660 577/659 576/657
f 594/669 593/672 596/671 595/670
f 593/672 592/674 597/673 596/671
f 602/675 601/678 604/677 603/676
f 601/678 600/680 605/679 604/677
f 607/681 608/682 602/675 603/676
f 607/681 606/684 609/683 608/682
f 611/686 539/685 612/687
f 536/688 559/691 614/690 543/689
f 536/692 543/695 569/694 565/693
f 577/659 572/660 581/697 578/696
f 572/660 557/640 566/641 581/697
f 620/700 644/703 599/702 598/701
f 597/673 592/674 605/679 600/680
f 611/686 612/687 609/683 606/684
f 597/673 600/680 577/659 578/696
f 585/663 587/666 605/679 592/674
f 586/698 636/699 643/705 642/629
f 650/626 544/623 571/721 651/706
f 611/686 606/684 591/668 610/704
f 551/707 609/683 612/687 558/708
f 543/689 614/690 549/638 541/709
f 569/694 543/695 541/632 615/633
f 594/669 595/670 652/712 628/711
f 545/624 653/625 595/670 580/713
f 547/636 546/714 541/709 549/638
f 548/635 613/715 542/621 540/622
f 548/637 549/638 614/690 613/716
f 566/641 567/649 582/717 581/697
f 567/649 537/651 538/718 582/717
f 564/719 570/720 545/624 538/718
f 564/719 565/693 569/694 570/720
f 571/721 544/623 616/653 619/654
f 555/648 556/645 573/658 574/655
f 556/645 557/640 572/660 573/658
f 580/713 579/722 582/717 538/718
f 579/722 578/696 581/697 582/717
f 583/661 584/662 593/672 594/669
f 584/662 585/663 592/674 593/672
f 578/696 579/722 596/671 597/673
f 579/722 580/713 595/670 596/671
f 575/656 576/657 601/678 602/675
f 576/657 577/659 600/680 601/678
f 587/666 588/665 604/677 605/679
f 588/665 589/664 603/676 604/677
f 590/667 607/681 603/676 589/664
f 590/667 591/668 606/684 607/681
f 551/707 550/647 608/682 609/683
f 575/656 550/647 555/723 574/655
f 610/704 539/685 611/686
f 535/724 558/708 612/687 539/685
f 559/691 560/725 613/716 614/690
f 613/715 560/726 535/620 542/621
f 570/720 616/653 544/623 545/624
f 570/720 569/694 615/633 616/653
f 550/647 551/707 554/727 617/646
f 554/727 552/644 553/639 617/646
f 561/642 562/643 563/652 618/650
f 628/711 635/728 634/627 594/669
f 623/733 622/736 633/735 632/734
f 622/736 621/630 634/627 633/735
f 625/737 624/740 690/739 689/738
f 624/740 623/733 691/741 690/739
f 620/700 626/743 645/742 644/703
f 626/743 625/737 646/744 645/742
f 630/745 629/748 658/747 657/746
f 629/748 628/711 652/712 658/747
f 632/734 631/751 676/750 675/749
f 631/751 630/745 677/752 676/750
f 640/753 639/756 702/755 701/754
f 639/756 638/730 703/757 702/755
f 642/629 641/759 662/758 661/628
f 641/759 640/753 663/760 662/758
f 648/761 647/764 684/763 683/762
f 647/764 646/744 685/765 684/763
f 650/626 649/767 654/766 653/625
f 649/767 648/761 655/768 654/766
f 657/746 656/771 672/770 671/769
f 656/771 655/768 673/772 672/770
f 665/731 664/775 696/774 695/773
f 664/775 663/760 697/776 696/774
f 669/777 668/780 682/779 681/778
f 668/780 673/772 683/762 682/779
f 671/769 670/782 678/781 677/752
f 670/782 669/777 679/783 678/781
f 675/749 674/785 686/784 691/741
f 674/785 679/783 687/786 686/784
f 681/778 680/788 688/787 687/786
f 680/788 685/765 689/738 688/787
f 693/789 692/792 700/791 699/790
f 692/792 697/776 701/754 700/791
f 679/783 669/777 681/778 687/786
f 691/741 623/733 632/734 675/749
f 685/765 646/744 625/737 689/738
f 677/752 630/745 657/746 671/769
f 697/776 663/760 640/753 701/754
f 673/772 655/768 648/761 683/762
f 626/743 620/700 627/796 704/795
f 627/796 621/630 622/736 704/795
f 622/736 623/733 624/740 704/795
f 624/740 625/737 626/743 704/795
f 635/728 628/711 629/748 705/797
f 629/748 630/745 631/751 705/797
f 631/751 632/734 633/735 705/797
f 633/735 634/627 635/728 705/797
f 643/705 636/699 637/729 706/798
f 637/729 638/730 639/756 706/798
f 639/756 640/753 641/759 706/798
f 641/759 642/629 643/705 706/798
f 651/706 644/703 645/742 707/799
f 645/742 646/744 647/764 707/799
f 647/764 648/761 649/767 707/799
f 649/767 650/626 651/706 707/799
f 658/747 652/712 659/801 708/800
f 659/801 653/625 654/766 708/800
f 654/766 655/768 656/771 708/800
f 656/771 657/746 658/747 708/800
f 666/732 660/710 667/803 709/802
f 667/803 661/628 662/758 709/802
f 662/758 663/760 664/775 709/802
f 664/775 665/731 666/732 709/802
f 672/770 673/772 668/780 710/804
f 668/780 669/777 670/782 710/804
f 670/782 671/769 672/770 710/804
f 678/781 679/783 674/785 711/805
f 674/785 675/749 676/750 711/805
f 676/750 677/752 678/781 711/805
f 684/763 685/765 680/788 712/806
f 680/788 681/778 682/779 712/806
f 682/779 683/762 684/763 712/806
f 690/739 691/741 686/784 713/807
f 686/784 687/786 688/787 713/807
f 688/787 689/738 690/739 713/807
f 696/774 697/776 692/792 714/808
f 692/792 693/789 694/793 714/808
f 694/793 695/773 696/774 714/808
f 702/755 703/757 698/794 715/809
f 698/794 699/790 700/791 715/809
f 700/791 701/754 702/755 715/809
f 598/701 621/630 627/796 620/700
f 586/698 642/629 621/630 598/701
f 583/661 661/628 667/803 660/710
f 595/670 653/625 659/801 652/712
f 594/669 634/627 661/628 583/661
f 719/810 718/813 721/812 720/811
f 718/813 717/815 722/814 721/812
f 717/815 716/817 723/816 722/814
f 716/817 559/691 536/688 723/816
f 719/810 720/811 552/644 736/818
f 719/810 736/818 535/724 731/819
f 563/652 562/643 724/821 732/820
f 720/811 724/821 562/643 552/644
f 728/822 729/823 560/726
f 733/824 537/651 563/652 732/820
f 718/813 719/810 731/819 730/825
f 717/815 718/813 730/825 729/826
f 559/691 716/817 728/827 560/725
f 716/817 717/815 729/826 728/827
f 723/828 536/692 565/693 727/829
f 722/814 723/828 727/829 726/830
f 720/811 721/812 725/831 724/821
f 721/812 722/814 726/830 725/831
f 727/829 565/693 564/719 735/832
f 726/830 727/829 735/832 734/833
f 724/821 725/831 733/824 732/820
f 725/831 726/830 734/833 733/824
f 560/726 731/834 535/620
f 560/726 729/823 730/835
f 608/682 550/647 575/656 602/675
f 736/818 552/644 554/727 558/708
f 535/724 736/818 558/708
f 558/708 554/727 551/707
f 545/624 580/713 538/718
f 564/719 538/718 537/651
f 537/651 734/833 735/832 564/719
f 734/833 537/651 733/824
f 560/726 730/835 731/834
f 571/721 599/702 644/703 651/706
f 542/621 535/620 539/619 737/836
f 540/622 542/621 737/836 738/837
f 747/838 748/839 855/840 852/841
f 836/842 863/843 844/844 823/845
f 749/846 744/847 817/848 771/849
f 750/850 751/851 752/852
f 756/853 760/854 769/855 764/856
f 756/853 764/856 765/857 755/858
f 759/859 819/860 753/861 758/862
f 756/853 819/860 759/859 760/854
f 770/863 820/864 764/856 769/855
f 741/865 766/866 820/864 770/863
f 818/867 821/868 771/849 817/848
f 777/869 778/870 779/871 776/872
f 776/872 779/871 780/873 775/874
f 797/875 798/876 799/877 796/878
f 796/878 799/877 800/879 795/880
f 805/881 806/882 807/883 804/884
f 804/884 807/883 808/885 803/886
f 810/887 806/882 805/881 811/888
f 810/887 811/888 812/889 809/890
f 813/891 814/892 539/893
f 740/894 746/895 816/896 762/897
f 740/898 768/899 772/900 746/901
f 780/873 781/902 784/903 775/874
f 775/874 784/903 769/855 760/854
f 822/904 801/905 802/906 846/907
f 800/879 803/886 808/885 795/880
f 813/891 809/890 812/889 814/892
f 800/879 781/902 780/873 803/886
f 788/908 795/880 808/885 790/909
f 789/910 844/844 845/911 838/912
f 852/841 853/913 774/914 747/838
f 813/891 610/915 794/916 809/890
f 754/917 761/918 814/892 812/889
f 746/895 744/919 752/852 816/896
f 772/900 817/848 744/847 746/901
f 797/875 830/920 854/921 798/876
f 748/839 783/922 798/876 855/840
f 750/850 752/852 744/919 749/923
f 751/924 743/925 745/926 815/927
f 751/851 815/928 816/896 752/852
f 769/855 784/903 785/929 770/863
f 770/863 785/929 742/930 741/865
f 767/931 742/930 748/839 773/932
f 767/931 773/932 772/900 768/899
f 774/914 821/868 818/867 747/838
f 758/862 777/869 776/872 759/859
f 759/859 776/872 775/874 760/854
f 783/922 742/930 785/929 782/933
f 782/933 785/929 784/903 781/902
f 786/934 797/875 796/878 787/935
f 787/935 796/878 795/880 788/908
f 781/902 800/879 799/877 782/933
f 782/933 799/877 798/876 783/922
f 778/870 805/881 804/884 779/871
f 779/871 804/884 803/886 780/873
f 790/909 808/885 807/883 791/936
f 791/936 807/883 806/882 792/937
f 793/938 792/937 806/882 810/887
f 793/938 810/887 809/890 794/916
f 754/917 812/889 811/888 753/861
f 778/870 777/869 758/939 753/861
f 610/915 813/891 539/893
f 739/940 539/893 814/892 761/918
f 762/897 816/896 815/928 763/941
f 815/927 745/926 739/942 763/943
f 773/932 748/839 747/838 818/867
f 773/932 818/867 817/848 772/900
f 753/861 819/860 757/944 754/917
f 757/944 819/860 756/853 755/858
f 764/856 820/864 766/866 765/857
f 830/920 797/875 836/842 837/945
f 825/946 834/947 835/948 824/949
f 824/949 835/948 836/842 823/845
f 827/950 891/951 892/952 826/953
f 826/953 892/952 893/954 825/946
f 822/904 846/907 847/955 828/956
f 828/956 847/955 848/957 827/950
f 832/958 859/959 860/960 831/961
f 831/961 860/960 854/921 830/920
f 834/947 877/962 878/963 833/964
f 833/964 878/963 879/965 832/958
f 842/966 903/967 904/968 841/969
f 841/969 904/968 905/970 840/971
f 844/844 863/843 864/972 843/973
f 843/973 864/972 865/974 842/966
f 850/975 885/976 886/977 849/978
f 849/978 886/977 887/979 848/957
f 852/841 855/840 856/980 851/981
f 851/981 856/980 857/982 850/975
f 859/959 873/983 874/984 858/985
f 858/985 874/984 875/986 857/982
f 867/987 897/988 898/989 866/990
f 866/990 898/989 899/991 865/974
f 871/992 883/993 884/994 870/995
f 870/995 884/994 885/976 875/986
f 873/983 879/965 880/996 872/997
f 872/997 880/996 881/998 871/992
f 877/962 893/954 888/999 876/1000
f 876/1000 888/999 889/1001 881/998
f 883/993 889/1001 890/1002 882/1003
f 882/1003 890/1002 891/951 887/979
f 895/1004 901/1005 902/1006 894/1007
f 894/1007 902/1006 903/967 899/991
f 881/998 889/1001 883/993 871/992
f 893/954 877/962 834/947 825/946
f 887/979 891/951 827/950 848/957
f 879/965 873/983 859/959 832/958
f 899/991 903/967 842/966 865/974
f 875/986 885/976 850/975 857/982
f 828/956 906/1008 829/1009 822/904
f 829/1009 906/1008 824/949 823/845
f 824/949 906/1008 826/953 825/946
f 826/953 906/1008 828/956 827/950
f 837/945 907/1010 831/961 830/920
f 831/961 907/1010 833/964 832/958
f 833/964 907/1010 835/948 834/947
f 835/948 907/1010 837/945 836/842
f 845/911 908/1011 839/1012 838/912
f 839/1012 908/1011 841/969 840/971
f 841/969 908/1011 843/973 842/966
f 843/973 908/1011 845/911 844/844
f 853/913 909/1013 847/955 846/907
f 847/955 909/1013 849/978 848/957
f 849/978 909/1013 851/981 850/975
f 851/981 909/1013 853/913 852/841
f 860/960 910/1014 861/1015 854/921
f 861/1015 910/1014 856/980 855/840
f 856/980 910/1014 858/985 857/982
f 858/985 910/1014 860/960 859/959
f 868/1016 911/1017 869/1018 862/1019
f 869/1018 911/1017 864/972 863/843
f 864/972 911/1017 866/990 865/974
f 866/990 911/1017 868/1016 867/987
f 874/984 912/1020 870/995 875/986
f 870/995 912/1020 872/997 871/992
f 872/997 912/1020 874/984 873/983
f 880/996 913/1021 876/1000 881/998
f 876/1000 913/1021 878/963 877/962
f 878/963 913/1021 880/996 879/965
f 886/977 914/1022 882/1003 887/979
f 882/1003 914/1022 884/994 883/993
f 884/994 914/1022 886/977 885/976
f 892/952 915/1023 888/999 893/954
f 888/999 915/1023 890/1002 889/1001
f 890/1002 915/1023 892/952 891/951
f 898/989 916/1024 894/1007 899/991
f 894/1007 916/1024 896/1025 895/1004
f 896/1025 916/1024 898/989 897/988
f 904/968 917/1026 900/1027 905/970
f 900/1027 917/1026 902/1006 901/1005
f 902/1006 917/1026 904/968 903/967
f 801/905 822/904 829/1009 823/845
f 789/910 801/905 823/845 844/844
f 786/934 862/1019 869/1018 863/843
f 798/876 854/921 861/1015 855/840
f 797/875 786/934 863/843 836/842
f 921/1028 922/1029 923/1030 920/1031
f 920/1031 923/1030 924/1032 919/1033
f 919/1033 924/1032 925/1034 918/1035
f 918/1035 925/1034 740/894 762/897
f 921/1028 938/1036 755/858 922/1029
f 921/1028 933/1037 739/940 938/1036
f 766/866 934/1038 926/1039 765/857
f 922/1029 755/858 765/857 926/1039
f 930/1040 763/943 931/1041
f 935/1042 934/1038 766/866 741/865
f 920/1031 932/1043 933/1037 921/1028
f 919/1033 931/1044 932/1043 920/1031
f 762/897 763/941 930/1045 918/1035
f 918/1035 930/1045 931/1044 919/1033
f 925/1046 929/1047 768/899 740/898
f 924/1032 928/1048 929/1047 925/1046
f 922/1029 926/1039 927/1049 923/1030
f 923/1030 927/1049 928/1048 924/1032
f 929/1047 937/1050 767/931 768/899
f 928/1048 936/1051 937/1050 929/1047
f 926/1039 934/1038 935/1042 927/1049
f 927/1049 935/1042 936/1051 928/1048
f 763/943 739/942 933/1052
f 763/943 932/1053 931/1041
f 811/888 805/881 778/870 753/861
f 938/1036 761/918 757/944 755/858
f 739/940 761/918 938/1036
f 761/918 754/917 757/944
f 748/839 742/930 783/922
f 767/931 741/865 742/930
f 741/865 767/931 937/1050 936/1051
f 936/1051 935/1042 741/865
f 763/943 933/1052 932/1053
f 745/926 737/1055 539/1054 739/942
f 774/914 853/913 846/907 802/906
f 636/699 586/698 789/910 838/912
f 637/729 636/699 838/912 839/1012
f 638/730 637/729 839/1012 840/971
f 703/757 638/730 840/971 905/970
f 698/794 703/757 905/970 900/1027
f 699/790 698/794 900/1027 901/1005
f 693/789 699/790 901/1005 895/1004
f 694/793 693/789 895/1004 896/1025
f 695/773 694/793 896/1025 897/988
f 665/731 695/773 897/988 867/987
f 666/732 665/731 867/987 868/1016
f 660/710 666/732 868/1016 862/1019
f 583/661 660/710 862/1019 786/934
f 584/662 583/661 786/934 787/935
f 585/663 584/662 787/935 788/908
f 587/666 585/663 788/908 790/909
f 588/665 587/666 790/909 791/936
f 589/664 588/665 791/936 792/937
f 590/667 589/664 792/937 793/938
f 591/668 590/667 793/938 794/916
f 743/925 738/1056 737/1055 745/926
f 610/915 591/668 794/916
