# This file uses centimeters as units for non-parametric coordinates.

mtllib S_S04_06.mtl
g default
v -106.841560 290.176208 30.720123
v -110.986946 286.030853 30.720123
v -112.504242 280.368195 30.720123
v -101.178886 291.693542 30.720123
v -112.504242 280.368195 -30.720127
v -110.986946 286.030853 -30.720127
v -106.841560 290.176208 -30.720127
v -101.178886 291.693542 -30.720127
v 110.986946 286.030853 30.720123
v 106.841560 290.176208 30.720123
v 101.178886 291.693542 30.720123
v 112.504242 280.368195 30.720123
v 112.504242 280.368195 -30.720127
v 101.178886 291.693542 -30.720127
v 106.841560 290.176208 -30.720127
v 110.986946 286.030853 -30.720127
v -110.986946 -286.030853 30.720123
v -106.841560 -290.176208 30.720123
v -101.178886 -291.693542 30.720123
v -112.504242 -280.368195 30.720123
v -106.841560 -290.176208 -30.720127
v -110.986946 -286.030853 -30.720127
v -112.504242 -280.368195 -30.720127
v -101.178886 -291.693542 -30.720127
v 106.841560 -290.176208 30.720123
v 110.986946 -286.030853 30.720123
v 112.504242 -280.368195 30.720123
v 101.178886 -291.693542 30.720123
v 110.986946 -286.030853 -30.720127
v 106.841560 -290.176208 -30.720127
v 101.178886 -291.693542 -30.720127
v 112.504242 -280.368195 -30.720127
v 109.276970 288.466248 30.720123
v 109.276970 288.466248 -30.720127
v 109.276970 -288.466248 30.720123
v 109.276970 -288.466248 -30.720127
v -109.276970 288.466248 30.720123
v -109.276970 288.466248 -30.720127
v -109.276970 -288.466248 30.720123
v -109.276970 -288.466248 -30.720127
vt 0.628102 0.379617
vt 0.751721 0.379617
vt 0.628102 0.023232
vt 0.751721 0.023232
vt 0.758640 0.030150
vt 0.753564 0.552763
vt 0.758640 0.372699
vt 0.621184 0.030150
vt 0.753715 0.552657
vt 0.754065 0.552563
vt 0.766574 0.552563
vt 0.766924 0.552657
vt 0.767075 0.552763
vt 0.767180 0.552913
vt 0.621184 0.372699
vt 0.767274 0.553263
vt 0.622111 0.376158
vt 0.767274 0.587927
vt 0.623156 0.377646
vt 0.767180 0.588277
vt 0.767075 0.588428
vt 0.624643 0.378690
vt 0.755180 0.378690
vt 0.766924 0.588534
vt 0.756668 0.377646
vt 0.766574 0.588627
vt 0.757713 0.376158
vt 0.624643 0.024158
vt 0.754065 0.588627
vt 0.753715 0.588534
vt 0.623156 0.025203
vt 0.753564 0.588428
vt 0.622111 0.026691
vt 0.753458 0.588277
vt 0.753365 0.587927
vt 0.757713 0.026691
vt 0.753365 0.553263
vt 0.756668 0.025203
vt 0.753458 0.552913
vt 0.755180 0.024158
vt 0.016313 0.801391
vt 0.016313 0.767342
vt 0.327059 0.767343
vt 0.327059 0.801392
vt 0.013064 0.801391
vt 0.013064 0.767342
vt 0.330308 0.801392
vt 0.330308 0.767343
vt 0.011415 0.801391
vt 0.011415 0.767342
vt 0.331957 0.767343
vt 0.331957 0.801392
vt 0.009766 0.801391
vt 0.009766 0.767342
vt 0.333606 0.801392
vt 0.333606 0.767343
vt 0.769539 0.767344
vt 0.769539 0.801392
vt 0.458793 0.801392
vt 0.458793 0.767344
vt 0.772788 0.801392
vt 0.772788 0.767344
vt 0.455544 0.801392
vt 0.455544 0.767344
vt 0.774437 0.767344
vt 0.774437 0.801392
vt 0.453895 0.801392
vt 0.453895 0.767344
vt 0.776086 0.801392
vt 0.776086 0.767344
vt 0.452246 0.801392
vt 0.452246 0.767344
vt 0.448997 0.767344
vt 0.448997 0.801392
vt 0.336855 0.801392
vt 0.336855 0.767343
vt 0.779335 0.801392
vt 0.779335 0.767344
vt 0.891477 0.767344
vt 0.891477 0.801392
vt 0.894726 0.801392
vt 0.894726 0.767344
vn -0.007294 0.999973 0.000000
vn -0.007294 0.999973 0.000000
vn 0.007294 0.999973 0.000000
vn 0.007294 0.999973 0.000000
vn -0.007294 -0.999973 0.000000
vn -0.007294 -0.999973 0.000000
vn 0.007294 -0.999973 0.000000
vn 0.007294 -0.999973 0.000000
vn 0.999996 -0.002679 0.000000
vn 0.999996 -0.002679 0.000000
vn 0.999996 0.002679 0.000000
vn 0.999996 0.002679 0.000000
vn -0.999996 -0.002679 0.000000
vn -0.999996 -0.002679 0.000000
vn -0.999996 0.002679 0.000000
vn -0.999996 0.002679 0.000000
vn -0.999996 0.002679 0.000000
vn -0.965926 0.258818 0.000000
vn -0.965926 0.258818 0.000000
vn -0.999996 0.002679 0.000000
vn -0.818411 0.574634 0.000000
vn -0.707105 0.707108 0.000000
vn -0.707105 0.707108 0.000000
vn -0.818411 0.574634 0.000000
vn -0.370208 0.928949 0.000000
vn -0.007294 0.999973 0.000000
vn -0.007294 0.999973 0.000000
vn -0.370208 0.928949 0.000000
vn 0.007294 0.999973 0.000000
vn 0.370208 0.928949 0.000000
vn 0.370208 0.928949 0.000000
vn 0.007294 0.999973 0.000000
vn 0.370208 0.928949 0.000000
vn 0.707105 0.707108 0.000000
vn 0.707105 0.707108 0.000000
vn 0.370208 0.928949 0.000000
vn 0.965926 0.258818 0.000000
vn 0.999996 0.002679 0.000000
vn 0.999996 0.002679 0.000000
vn 0.965926 0.258818 0.000000
vn -0.007294 -0.999973 0.000000
vn -0.370208 -0.928949 0.000000
vn -0.370208 -0.928949 0.000000
vn -0.007294 -0.999973 0.000000
vn -0.370208 -0.928949 0.000000
vn -0.707105 -0.707108 0.000000
vn -0.707105 -0.707108 0.000000
vn -0.370208 -0.928949 0.000000
vn -0.965926 -0.258818 0.000000
vn -0.999996 -0.002679 0.000000
vn -0.999996 -0.002679 0.000000
vn -0.965926 -0.258818 0.000000
vn 0.999996 -0.002679 0.000000
vn 0.965926 -0.258818 0.000000
vn 0.965926 -0.258818 0.000000
vn 0.999996 -0.002679 0.000000
vn 0.818411 -0.574634 0.000000
vn 0.707105 -0.707108 0.000000
vn 0.707105 -0.707108 0.000000
vn 0.818411 -0.574634 0.000000
vn 0.370208 -0.928949 0.000000
vn 0.007294 -0.999973 0.000000
vn 0.007294 -0.999973 0.000000
vn 0.370208 -0.928949 0.000000
vn 0.707105 0.707108 0.000000
vn 0.707105 0.707108 0.000000
vn 0.818411 0.574634 0.000000
vn 0.818411 0.574634 0.000000
vn 0.707105 -0.707108 0.000000
vn 0.707105 -0.707108 0.000000
vn 0.370208 -0.928949 0.000000
vn 0.370208 -0.928949 0.000000
vn -0.707105 0.707108 0.000000
vn -0.707105 0.707108 0.000000
vn -0.370208 0.928949 0.000000
vn -0.370208 0.928949 0.000000
vn -0.707105 -0.707108 0.000000
vn -0.707105 -0.707108 0.000000
vn -0.818411 -0.574634 0.000000
vn -0.818411 -0.574634 0.000000
vn -0.000000 0.000000 1.000000
vn 0.000000 0.000000 1.000000
vn 0.000000 0.000000 1.000000
vn 0.000000 0.000000 1.000000
vn 0.000000 0.000000 -1.000000
vn 0.000000 0.000000 -1.000000
vn 0.000000 0.000000 -1.000000
vn 0.000000 0.000000 -1.000000
vn 0.000000 0.000000 -1.000000
vn 0.000000 0.000000 -1.000000
vn 0.000000 0.000000 -1.000000
vn 0.000000 0.000000 -1.000000
vn 0.000000 0.000000 -1.000000
vn 0.000000 0.000000 -1.000000
vn 0.000000 0.000000 -1.000000
vn 0.000000 0.000000 -1.000000
vn 0.000000 0.000000 -1.000000
vn 0.000000 0.000000 -1.000000
vn 0.000000 0.000000 -1.000000
vn 0.000000 0.000000 -1.000000
vn 0.000000 0.000000 -1.000000
vn 0.000000 0.000000 -1.000000
vn 0.000000 0.000000 -1.000000
vn 0.000000 0.000000 -1.000000
vn 0.000000 -0.000000 1.000000
vn 0.000000 0.000000 1.000000
vn 0.000000 0.000000 1.000000
vn -0.000000 0.000000 1.000000
vn 0.000000 0.000000 1.000000
vn 0.000000 0.000000 1.000000
vn 0.000000 0.000000 1.000000
vn 0.000000 0.000000 1.000000
vn 0.000000 0.000000 1.000000
vn 0.000000 0.000000 1.000000
vn 0.000000 0.000000 1.000000
vn 0.000000 0.000000 1.000000
vn 0.000000 0.000000 1.000000
vn 0.000000 0.000000 1.000000
vn 0.000000 0.000000 1.000000
vn 0.000000 0.000000 1.000000
vn 0.000000 -0.000000 1.000000
vn 0.000000 -0.000000 1.000000
vn 0.000000 -0.000000 1.000000
vn 0.000000 -0.000000 1.000000
vn 0.000000 -0.000000 1.000000
vn 0.000000 -0.000000 1.000000
vn 0.000000 0.000000 1.000000
vn 0.000000 -0.000000 1.000000
vn 0.000000 -0.000000 1.000000
vn 0.000000 -0.000000 1.000000
vn 0.000000 -0.000000 1.000000
vn 0.000000 -0.000000 1.000000
vn 0.000000 -0.000000 1.000000
vn 0.000000 -0.000000 1.000000
vn 0.000000 -0.000000 1.000000
vn 0.000000 -0.000000 1.000000
s off
g S_S04_06
usemtl SS02_lowSG
f 8/73/1 4/74/2 11/75/3 14/76/4
f 19/77/5 24/78/6 31/79/7 28/80/8
f 27/41/9 32/42/10 13/43/11 12/44/12
f 23/57/13 20/58/14 3/59/15 5/60/16
f 3/59/17 2/63/18 6/64/19 5/60/20
f 2/63/21 37/67/22 38/68/23 6/64/24
f 1/71/25 4/74/26 8/73/27 7/72/28
f 11/75/29 10/55/30 15/56/31 14/76/32
f 10/55/33 33/52/34 34/51/35 15/56/36
f 9/47/37 12/44/38 13/43/39 16/48/40
f 19/77/41 18/69/42 21/70/43 24/78/44
f 18/69/45 39/66/46 40/65/47 21/70/48
f 17/61/49 20/58/50 23/57/51 22/62/52
f 27/41/53 26/45/54 29/46/55 32/42/56
f 26/45/57 35/49/58 36/50/59 29/46/60
f 25/81/61 28/80/62 31/79/63 30/82/64
f 34/51/65 33/52/66 9/47/67 16/48/68
f 36/50/69 35/49/70 25/53/71 30/54/72
f 38/68/73 37/67/74 1/71/75 7/72/76
f 40/65/77 39/66/78 17/61/79 22/62/80
f 3/15/81 12/7/82 9/27/83 2/17/84
f 32/37/85 29/39/86 36/6/87 30/9/88 31/10/89 24/11/90 21/12/91 40/13/92 22/14/93 23/16/94 5/18/95 6/20/96 38/21/97 7/24/98 8/26/99 14/29/100 15/30/101 34/32/102 16/34/103 13/35/104
f 20/8/105 27/5/106 12/7/107 3/15/108
f 1/22/109 10/23/110 11/2/111 4/1/112
f 2/17/113 9/27/114 33/25/115 37/19/116
f 37/19/117 33/25/118 10/23/119 1/22/120
f 18/28/121 25/40/122 35/38/123 39/31/124
f 17/33/125 26/36/126 27/5/127 20/8/128
f 39/31/129 35/38/130 26/36/131 17/33/132
f 28/4/133 25/40/134 18/28/135 19/3/136
