# This file uses centimeters as units for non-parametric coordinates.

mtllib S_S03_02.mtl
g default
v 249.000000 -128.000626 11.250113
v 240.600739 -135.000000 11.250113
v 243.815002 -134.467209 11.250113
v 246.539917 -132.949936 11.250113
v 248.360657 -130.679169 11.250113
v 167.399246 -135.000000 11.250113
v 164.184998 -134.467209 11.250113
v 161.460083 -132.949936 11.250113
v 159.639343 -130.679169 11.250113
v 159.000000 -128.000626 11.250113
v 240.600739 135.000000 11.250113
v 249.000000 128.000626 11.250113
v 248.360657 130.679169 11.250113
v 246.539917 132.949936 11.250113
v 243.815002 134.467209 11.250113
v 159.000000 128.000626 11.250113
v 159.639343 130.679169 11.250113
v 161.460083 132.949936 11.250113
v 164.184998 134.467209 11.250113
v 167.399246 135.000000 11.250113
v 167.399246 135.000000 -11.250113
v 159.000000 128.000626 -11.250113
v 159.639343 130.679169 -11.250113
v 161.460083 132.949936 -11.250113
v 164.184998 134.467209 -11.250113
v 249.000000 128.000626 -11.250113
v 240.600739 135.000000 -11.250113
v 243.815002 134.467209 -11.250113
v 246.539917 132.949936 -11.250113
v 248.360657 130.679169 -11.250113
v 240.600739 -135.000000 -11.250113
v 249.000000 -128.000626 -11.250113
v 248.360657 -130.679169 -11.250113
v 246.539917 -132.949936 -11.250113
v 243.815002 -134.467209 -11.250113
v 159.000000 -128.000626 -11.250113
v 159.639343 -130.679169 -11.250113
v 161.460083 -132.949936 -11.250113
v 164.184998 -134.467209 -11.250113
v 167.399246 -135.000000 -11.250113
v 345.000000 -128.000626 11.250113
v 336.600739 -135.000000 11.250113
v 339.815002 -134.467209 11.250113
v 342.539917 -132.949936 11.250113
v 344.360626 -130.679169 11.250113
v 263.399231 -135.000000 11.250113
v 260.184998 -134.467209 11.250113
v 257.460083 -132.949936 11.250113
v 255.639359 -130.679169 11.250113
v 255.000000 -128.000626 11.250113
v 336.600739 135.000000 11.250113
v 345.000000 128.000626 11.250113
v 344.360626 130.679169 11.250113
v 342.539917 132.949936 11.250113
v 339.815002 134.467209 11.250113
v 255.000000 128.000626 11.250113
v 255.639359 130.679169 11.250113
v 257.460083 132.949936 11.250113
v 260.184998 134.467209 11.250113
v 263.399231 135.000000 11.250113
v 263.399231 135.000000 -11.250113
v 255.000000 128.000626 -11.250113
v 255.639359 130.679169 -11.250113
v 257.460083 132.949936 -11.250113
v 260.184998 134.467209 -11.250113
v 345.000000 128.000626 -11.250113
v 336.600739 135.000000 -11.250113
v 339.815002 134.467209 -11.250113
v 342.539917 132.949936 -11.250113
v 344.360626 130.679169 -11.250113
v 336.600739 -135.000000 -11.250113
v 345.000000 -128.000626 -11.250113
v 344.360626 -130.679169 -11.250113
v 342.539917 -132.949936 -11.250113
v 339.815002 -134.467209 -11.250113
v 255.000000 -128.000626 -11.250113
v 255.639359 -130.679169 -11.250113
v 257.460083 -132.949936 -11.250113
v 260.184998 -134.467209 -11.250113
v 263.399231 -135.000000 -11.250113
v 441.000000 -128.000626 11.250113
v 432.600739 -135.000000 11.250113
v 435.815002 -134.467209 11.250113
v 438.539886 -132.949936 11.250113
v 440.360657 -130.679169 11.250113
v 359.399261 -135.000000 11.250113
v 356.184998 -134.467209 11.250113
v 353.460083 -132.949936 11.250113
v 351.639374 -130.679169 11.250113
v 351.000000 -128.000626 11.250113
v 432.600739 135.000000 11.250113
v 441.000000 128.000626 11.250113
v 440.360657 130.679169 11.250113
v 438.539886 132.949936 11.250113
v 435.815002 134.467209 11.250113
v 351.000000 128.000626 11.250113
v 351.639374 130.679169 11.250113
v 353.460083 132.949936 11.250113
v 356.184998 134.467209 11.250113
v 359.399261 135.000000 11.250113
v 359.399261 135.000000 -11.250113
v 351.000000 128.000626 -11.250113
v 351.639374 130.679169 -11.250113
v 353.460083 132.949936 -11.250113
v 356.184998 134.467209 -11.250113
v 441.000000 128.000626 -11.250113
v 432.600739 135.000000 -11.250113
v 435.815002 134.467209 -11.250113
v 438.539886 132.949936 -11.250113
v 440.360657 130.679169 -11.250113
v 432.600739 -135.000000 -11.250113
v 441.000000 -128.000626 -11.250113
v 440.360657 -130.679169 -11.250113
v 438.539886 -132.949936 -11.250113
v 435.815002 -134.467209 -11.250113
v 351.000000 -128.000626 -11.250113
v 351.639374 -130.679169 -11.250113
v 353.460083 -132.949936 -11.250113
v 356.184998 -134.467209 -11.250113
v 359.399261 -135.000000 -11.250113
v -351.000000 -128.000626 11.250113
v -359.399261 -135.000000 11.250113
v -356.184998 -134.467209 11.250113
v -353.460083 -132.949936 11.250113
v -351.639374 -130.679169 11.250113
v -432.600739 -135.000000 11.250113
v -435.815002 -134.467209 11.250113
v -438.539886 -132.949936 11.250113
v -440.360657 -130.679169 11.250113
v -441.000000 -128.000626 11.250113
v -359.399261 135.000000 11.250113
v -351.000000 128.000626 11.250113
v -351.639374 130.679169 11.250113
v -353.460083 132.949936 11.250113
v -356.184998 134.467209 11.250113
v -441.000000 128.000626 11.250113
v -440.360657 130.679169 11.250113
v -438.539886 132.949936 11.250113
v -435.815002 134.467209 11.250113
v -432.600739 135.000000 11.250113
v -432.600739 135.000000 -11.250113
v -441.000000 128.000626 -11.250113
v -440.360657 130.679169 -11.250113
v -438.539886 132.949936 -11.250113
v -435.815002 134.467209 -11.250113
v -351.000000 128.000626 -11.250113
v -359.399261 135.000000 -11.250113
v -356.184998 134.467209 -11.250113
v -353.460083 132.949936 -11.250113
v -351.639374 130.679169 -11.250113
v -359.399261 -135.000000 -11.250113
v -351.000000 -128.000626 -11.250113
v -351.639374 -130.679169 -11.250113
v -353.460083 -132.949936 -11.250113
v -356.184998 -134.467209 -11.250113
v -441.000000 -128.000626 -11.250113
v -440.360657 -130.679169 -11.250113
v -438.539886 -132.949936 -11.250113
v -435.815002 -134.467209 -11.250113
v -432.600739 -135.000000 -11.250113
v -255.000000 -128.000626 11.250113
v -263.399231 -135.000000 11.250113
v -260.184998 -134.467209 11.250113
v -257.460083 -132.949936 11.250113
v -255.639359 -130.679169 11.250113
v -336.600739 -135.000000 11.250113
v -339.815002 -134.467209 11.250113
v -342.539917 -132.949936 11.250113
v -344.360626 -130.679169 11.250113
v -345.000000 -128.000626 11.250113
v -263.399231 135.000000 11.250113
v -255.000000 128.000626 11.250113
v -255.639359 130.679169 11.250113
v -257.460083 132.949936 11.250113
v -260.184998 134.467209 11.250113
v -345.000000 128.000626 11.250113
v -344.360626 130.679169 11.250113
v -342.539917 132.949936 11.250113
v -339.815002 134.467209 11.250113
v -336.600739 135.000000 11.250113
v -336.600739 135.000000 -11.250113
v -345.000000 128.000626 -11.250113
v -344.360626 130.679169 -11.250113
v -342.539917 132.949936 -11.250113
v -339.815002 134.467209 -11.250113
v -255.000000 128.000626 -11.250113
v -263.399231 135.000000 -11.250113
v -260.184998 134.467209 -11.250113
v -257.460083 132.949936 -11.250113
v -255.639359 130.679169 -11.250113
v -263.399231 -135.000000 -11.250113
v -255.000000 -128.000626 -11.250113
v -255.639359 -130.679169 -11.250113
v -257.460083 -132.949936 -11.250113
v -260.184998 -134.467209 -11.250113
v -345.000000 -128.000626 -11.250113
v -344.360626 -130.679169 -11.250113
v -342.539917 -132.949936 -11.250113
v -339.815002 -134.467209 -11.250113
v -336.600739 -135.000000 -11.250113
v -159.000000 -128.000626 11.250113
v -167.399246 -135.000000 11.250113
v -164.184998 -134.467209 11.250113
v -161.460083 -132.949936 11.250113
v -159.639343 -130.679169 11.250113
v -240.600739 -135.000000 11.250113
v -243.815002 -134.467209 11.250113
v -246.539917 -132.949936 11.250113
v -248.360657 -130.679169 11.250113
v -249.000000 -128.000626 11.250113
v -167.399246 135.000000 11.250113
v -159.000000 128.000626 11.250113
v -159.639343 130.679169 11.250113
v -161.460083 132.949936 11.250113
v -164.184998 134.467209 11.250113
v -249.000000 128.000626 11.250113
v -248.360657 130.679169 11.250113
v -246.539917 132.949936 11.250113
v -243.815002 134.467209 11.250113
v -240.600739 135.000000 11.250113
v -240.600739 135.000000 -11.250113
v -249.000000 128.000626 -11.250113
v -248.360657 130.679169 -11.250113
v -246.539917 132.949936 -11.250113
v -243.815002 134.467209 -11.250113
v -159.000000 128.000626 -11.250113
v -167.399246 135.000000 -11.250113
v -164.184998 134.467209 -11.250113
v -161.460083 132.949936 -11.250113
v -159.639343 130.679169 -11.250113
v -167.399246 -135.000000 -11.250113
v -159.000000 -128.000626 -11.250113
v -159.639343 -130.679169 -11.250113
v -161.460083 -132.949936 -11.250113
v -164.184998 -134.467209 -11.250113
v -249.000000 -128.000626 -11.250113
v -248.360657 -130.679169 -11.250113
v -246.539917 -132.949936 -11.250113
v -243.815002 -134.467209 -11.250113
v -240.600739 -135.000000 -11.250113
v -51.000000 -128.000626 11.250113
v -59.399254 -135.000000 11.250113
v -56.184998 -134.467209 11.250113
v -53.460087 -132.949936 11.250113
v -51.639355 -130.679169 11.250113
v -132.600754 -135.000000 11.250113
v -135.815002 -134.467209 11.250113
v -138.539917 -132.949936 11.250113
v -140.360657 -130.679169 11.250113
v -141.000000 -128.000626 11.250113
v -59.399254 135.000000 11.250113
v -51.000000 128.000626 11.250113
v -51.639355 130.679169 11.250113
v -53.460087 132.949936 11.250113
v -56.184998 134.467209 11.250113
v -141.000000 128.000626 11.250113
v -140.360657 130.679169 11.250113
v -138.539917 132.949936 11.250113
v -135.815002 134.467209 11.250113
v -132.600754 135.000000 11.250113
v -132.600754 135.000000 -11.250113
v -141.000000 128.000626 -11.250113
v -140.360657 130.679169 -11.250113
v -138.539917 132.949936 -11.250113
v -135.815002 134.467209 -11.250113
v -51.000000 128.000626 -11.250113
v -59.399254 135.000000 -11.250113
v -56.184998 134.467209 -11.250113
v -53.460087 132.949936 -11.250113
v -51.639355 130.679169 -11.250113
v -59.399254 -135.000000 -11.250113
v -51.000000 -128.000626 -11.250113
v -51.639355 -130.679169 -11.250113
v -53.460087 -132.949936 -11.250113
v -56.184998 -134.467209 -11.250113
v -141.000000 -128.000626 -11.250113
v -140.360657 -130.679169 -11.250113
v -138.539917 -132.949936 -11.250113
v -135.815002 -134.467209 -11.250113
v -132.600754 -135.000000 -11.250113
v 45.000000 -128.000626 11.250113
v 36.600750 -135.000000 11.250113
v 39.815002 -134.467209 11.250113
v 42.539913 -132.949936 11.250113
v 44.360645 -130.679169 11.250113
v -36.600750 -135.000000 11.250113
v -39.815002 -134.467209 11.250113
v -42.539913 -132.949936 11.250113
v -44.360645 -130.679169 11.250113
v -45.000000 -128.000626 11.250113
v 36.600750 135.000000 11.250113
v 45.000000 128.000626 11.250113
v 44.360645 130.679169 11.250113
v 42.539913 132.949936 11.250113
v 39.815002 134.467209 11.250113
v -45.000000 128.000626 11.250113
v -44.360645 130.679169 11.250113
v -42.539913 132.949936 11.250113
v -39.815002 134.467209 11.250113
v -36.600750 135.000000 11.250113
v -36.600750 135.000000 -11.250113
v -45.000000 128.000626 -11.250113
v -44.360645 130.679169 -11.250113
v -42.539913 132.949936 -11.250113
v -39.815002 134.467209 -11.250113
v 45.000000 128.000626 -11.250113
v 36.600750 135.000000 -11.250113
v 39.815002 134.467209 -11.250113
v 42.539913 132.949936 -11.250113
v 44.360645 130.679169 -11.250113
v 36.600750 -135.000000 -11.250113
v 45.000000 -128.000626 -11.250113
v 44.360645 -130.679169 -11.250113
v 42.539913 -132.949936 -11.250113
v 39.815002 -134.467209 -11.250113
v -45.000000 -128.000626 -11.250113
v -44.360645 -130.679169 -11.250113
v -42.539913 -132.949936 -11.250113
v -39.815002 -134.467209 -11.250113
v -36.600750 -135.000000 -11.250113
v 141.000000 -128.000626 11.250113
v 132.600754 -135.000000 11.250113
v 135.815002 -134.467209 11.250113
v 138.539917 -132.949936 11.250113
v 140.360657 -130.679169 11.250113
v 59.399254 -135.000000 11.250113
v 56.184998 -134.467209 11.250113
v 53.460087 -132.949936 11.250113
v 51.639355 -130.679169 11.250113
v 51.000000 -128.000626 11.250113
v 132.600754 135.000000 11.250113
v 141.000000 128.000626 11.250113
v 140.360657 130.679169 11.250113
v 138.539917 132.949936 11.250113
v 135.815002 134.467209 11.250113
v 51.000000 128.000626 11.250113
v 51.639355 130.679169 11.250113
v 53.460087 132.949936 11.250113
v 56.184998 134.467209 11.250113
v 59.399254 135.000000 11.250113
v 59.399254 135.000000 -11.250113
v 51.000000 128.000626 -11.250113
v 51.639355 130.679169 -11.250113
v 53.460087 132.949936 -11.250113
v 56.184998 134.467209 -11.250113
v 141.000000 128.000626 -11.250113
v 132.600754 135.000000 -11.250113
v 135.815002 134.467209 -11.250113
v 138.539917 132.949936 -11.250113
v 140.360657 130.679169 -11.250113
v 132.600754 -135.000000 -11.250113
v 141.000000 -128.000626 -11.250113
v 140.360657 -130.679169 -11.250113
v 138.539917 -132.949936 -11.250113
v 135.815002 -134.467209 -11.250113
v 51.000000 -128.000626 -11.250113
v 51.639355 -130.679169 -11.250113
v 53.460087 -132.949936 -11.250113
v 56.184998 -134.467209 -11.250113
v 59.399254 -135.000000 -11.250113
vt 0.927632 0.624823
vt 0.928160 0.626111
vt 0.588830 0.890239
vt 0.589455 0.889718
vt 0.589452 0.909794
vt 0.588828 0.909274
vt 0.594898 0.889719
vt 0.926631 0.623694
vt 0.595520 0.909274
vt 0.925165 0.622900
vt 0.923296 0.622619
vt 0.878402 0.624373
vt 0.877844 0.625699
vt 0.879410 0.623206
vt 0.880860 0.622399
vt 0.882687 0.622125
vt 0.925846 0.768687
vt 0.924017 0.768959
vt 0.927299 0.767881
vt 0.928311 0.766715
vt 0.928870 0.765379
vt 0.881542 0.768149
vt 0.883409 0.768433
vt 0.880079 0.767354
vt 0.879082 0.766225
vt 0.595522 0.890239
vt 0.594895 0.909795
vt 0.878556 0.764947
vt 0.929300 0.778833
vt 0.877489 0.779635
vt 0.877374 0.612266
vt 0.929192 0.611404
vt 0.939188 0.619047
vt 0.939178 0.771798
vt 0.867517 0.619307
vt 0.867512 0.771982
vt 0.869776 0.773889
vt 0.872177 0.775800
vt 0.874772 0.777727
vt 0.932072 0.777119
vt 0.934648 0.775344
vt 0.936990 0.773571
vt 0.588878 0.890040
vt 0.589014 0.889871
vt 0.589217 0.889758
vt 0.595137 0.889759
vt 0.595339 0.889872
vt 0.595475 0.890041
vt 0.595473 0.909474
vt 0.595337 0.909642
vt 0.595135 0.909755
vt 0.588875 0.909473
vt 0.589010 0.909642
vt 0.936919 0.617141
vt 0.589214 0.909754
vt 0.934514 0.615232
vt 0.931914 0.613308
vt 0.874608 0.613983
vt 0.872037 0.615759
vt 0.869700 0.617533
vt 0.733621 0.605058
vt 0.774412 0.605574
vt 0.779661 0.615462
vt 0.727710 0.616258
vt 0.727669 0.448870
vt 0.779456 0.448021
vt 0.773555 0.459234
vt 0.732975 0.458730
vt 0.778421 0.462725
vt 0.789443 0.455661
vt 0.789475 0.608353
vt 0.779142 0.601975
vt 0.717813 0.455904
vt 0.728132 0.462302
vt 0.728845 0.601567
vt 0.717780 0.608561
vt 0.778614 0.603318
vt 0.729338 0.602854
vt 0.521974 0.966104
vt 0.522020 0.965905
vt 0.528618 0.965905
vt 0.528665 0.966105
vt 0.720028 0.610476
vt 0.730300 0.603988
vt 0.722416 0.612397
vt 0.731728 0.604784
vt 0.725002 0.614337
vt 0.776215 0.605294
vt 0.782425 0.613721
vt 0.777636 0.604488
vt 0.784986 0.611924
vt 0.787309 0.610135
vt 0.777891 0.461438
vt 0.787176 0.453757
vt 0.776890 0.460309
vt 0.784773 0.451849
vt 0.775424 0.459515
vt 0.782175 0.449925
vt 0.731149 0.459004
vt 0.724904 0.450585
vt 0.729699 0.459810
vt 0.722334 0.452359
vt 0.728691 0.460976
vt 0.719996 0.454132
vt 0.528665 0.985138
vt 0.521973 0.985138
vt 0.528279 0.965624
vt 0.522359 0.965624
vt 0.522597 0.965584
vt 0.528041 0.965584
vt 0.522156 0.965736
vt 0.528481 0.965736
vt 0.522021 0.985338
vt 0.528617 0.985338
vt 0.528481 0.985507
vt 0.522156 0.985507
vt 0.522358 0.985619
vt 0.528279 0.985619
vt 0.528040 0.985659
vt 0.522597 0.985659
vt 0.733586 0.159979
vt 0.774375 0.160472
vt 0.779638 0.170356
vt 0.727695 0.171183
vt 0.727672 0.003779
vt 0.779457 0.002930
vt 0.773557 0.014143
vt 0.732977 0.013640
vt 0.778422 0.017634
vt 0.789444 0.010570
vt 0.789476 0.163269
vt 0.779148 0.156885
vt 0.717815 0.010813
vt 0.728134 0.017212
vt 0.728848 0.156472
vt 0.717780 0.163462
vt 0.778623 0.158230
vt 0.729344 0.157758
vt 0.601730 0.970677
vt 0.601777 0.970478
vt 0.608374 0.970478
vt 0.608421 0.970677
vt 0.720024 0.165379
vt 0.730309 0.158891
vt 0.722406 0.167305
vt 0.731739 0.159686
vt 0.724986 0.169253
vt 0.776230 0.160206
vt 0.782410 0.168626
vt 0.777648 0.159400
vt 0.784977 0.166837
vt 0.787306 0.165050
vt 0.777893 0.016346
vt 0.787177 0.008666
vt 0.776892 0.015218
vt 0.784774 0.006758
vt 0.775426 0.014424
vt 0.782177 0.004834
vt 0.731152 0.013913
vt 0.724906 0.005495
vt 0.729701 0.014720
vt 0.722336 0.007268
vt 0.728693 0.015886
vt 0.719998 0.009041
vt 0.608421 0.989712
vt 0.601730 0.989712
vt 0.608036 0.970196
vt 0.602115 0.970196
vt 0.602354 0.970156
vt 0.607797 0.970156
vt 0.601912 0.970309
vt 0.608240 0.970309
vt 0.601776 0.989911
vt 0.608373 0.989912
vt 0.608238 0.990081
vt 0.601911 0.990080
vt 0.602114 0.990193
vt 0.608036 0.990193
vt 0.607797 0.990233
vt 0.602353 0.990233
vt 0.646740 0.434177
vt 0.687338 0.434730
vt 0.692598 0.444612
vt 0.640798 0.445372
vt 0.640617 0.278078
vt 0.692534 0.277090
vt 0.686716 0.288351
vt 0.646028 0.287898
vt 0.691503 0.291874
vt 0.702519 0.284800
vt 0.702489 0.437593
vt 0.692195 0.431153
vt 0.630854 0.285122
vt 0.641202 0.291483
vt 0.641888 0.430689
vt 0.630838 0.437713
vt 0.691634 0.432488
vt 0.642413 0.431967
vt 0.553058 0.943353
vt 0.553104 0.943154
vt 0.559701 0.943155
vt 0.559749 0.943354
vt 0.633099 0.439620
vt 0.643410 0.433097
vt 0.635496 0.441532
vt 0.644872 0.433892
vt 0.638086 0.443461
vt 0.689167 0.434459
vt 0.695372 0.442902
vt 0.690621 0.433654
vt 0.697952 0.441133
vt 0.700298 0.439363
vt 0.690993 0.290574
vt 0.700326 0.282819
vt 0.690013 0.289437
vt 0.697978 0.280819
vt 0.688566 0.288641
vt 0.695315 0.278943
vt 0.644202 0.288175
vt 0.637877 0.279806
vt 0.642757 0.288984
vt 0.635331 0.281585
vt 0.641756 0.290153
vt 0.633017 0.283357
vt 0.559747 0.962388
vt 0.553055 0.962387
vt 0.559363 0.942873
vt 0.553443 0.942872
vt 0.553682 0.942833
vt 0.559124 0.942834
vt 0.553240 0.942985
vt 0.559566 0.942986
vt 0.553103 0.962586
vt 0.559699 0.962587
vt 0.559564 0.962756
vt 0.553239 0.962755
vt 0.553440 0.962867
vt 0.559361 0.962868
vt 0.559121 0.962908
vt 0.553680 0.962907
vt 0.057498 0.831371
vt 0.098105 0.831888
vt 0.103376 0.841763
vt 0.051565 0.842571
vt 0.051435 0.675201
vt 0.103253 0.674334
vt 0.097345 0.685547
vt 0.056737 0.685063
vt 0.102211 0.689037
vt 0.113242 0.681978
vt 0.113263 0.834729
vt 0.102956 0.828306
vt 0.041570 0.682242
vt 0.051895 0.688638
vt 0.052643 0.827887
vt 0.041597 0.834918
vt 0.102397 0.829642
vt 0.053169 0.829165
vt 0.529598 0.966103
vt 0.529646 0.965904
vt 0.536241 0.965904
vt 0.536289 0.966104
vt 0.043860 0.836824
vt 0.054167 0.830294
vt 0.046258 0.838735
vt 0.055630 0.831088
vt 0.048851 0.840662
vt 0.099933 0.831615
vt 0.106150 0.840050
vt 0.101387 0.830809
vt 0.108729 0.838276
vt 0.111074 0.836502
vt 0.101682 0.687749
vt 0.110975 0.680072
vt 0.100681 0.686621
vt 0.108571 0.678164
vt 0.099215 0.685828
vt 0.105973 0.676239
vt 0.054911 0.685337
vt 0.048667 0.676918
vt 0.053461 0.686145
vt 0.046095 0.678693
vt 0.052453 0.687312
vt 0.043756 0.680468
vt 0.536289 0.985138
vt 0.529597 0.985138
vt 0.535903 0.965623
vt 0.529983 0.965623
vt 0.530223 0.965583
vt 0.535665 0.965583
vt 0.529780 0.965736
vt 0.536106 0.965736
vt 0.529645 0.985337
vt 0.536241 0.985337
vt 0.536106 0.985506
vt 0.529779 0.985506
vt 0.529983 0.985619
vt 0.535903 0.985619
vt 0.535665 0.985659
vt 0.530222 0.985659
vt 0.806122 0.768095
vt 0.846733 0.768623
vt 0.852017 0.778496
vt 0.800196 0.779298
vt 0.800105 0.611930
vt 0.851923 0.611059
vt 0.846033 0.622276
vt 0.805424 0.621787
vt 0.850895 0.625768
vt 0.861923 0.618708
vt 0.861896 0.771464
vt 0.851589 0.765044
vt 0.790254 0.618971
vt 0.800582 0.625361
vt 0.801282 0.764605
vt 0.790231 0.771625
vt 0.851029 0.766380
vt 0.801803 0.765885
vt 0.594106 0.951785
vt 0.594155 0.951585
vt 0.600752 0.951585
vt 0.600799 0.951784
vt 0.792490 0.773536
vt 0.802797 0.767016
vt 0.794886 0.775452
vt 0.804253 0.767811
vt 0.797480 0.777385
vt 0.848563 0.768352
vt 0.854789 0.776782
vt 0.850018 0.767546
vt 0.857366 0.775009
vt 0.859709 0.773236
vt 0.850366 0.624480
vt 0.859664 0.616788
vt 0.849367 0.623351
vt 0.857253 0.614882
vt 0.847901 0.622558
vt 0.854649 0.612960
vt 0.803597 0.622061
vt 0.797341 0.613648
vt 0.802147 0.622868
vt 0.794772 0.615424
vt 0.801140 0.624035
vt 0.792436 0.617198
vt 0.600799 0.970818
vt 0.594108 0.970818
vt 0.600412 0.951303
vt 0.594493 0.951303
vt 0.594731 0.951264
vt 0.600174 0.951264
vt 0.594290 0.951416
vt 0.600616 0.951416
vt 0.594156 0.971017
vt 0.600752 0.971017
vt 0.600617 0.971186
vt 0.594291 0.971186
vt 0.594494 0.971299
vt 0.600414 0.971298
vt 0.600175 0.971338
vt 0.594733 0.971338
vt 0.873753 0.597375
vt 0.914355 0.597910
vt 0.919630 0.607785
vt 0.867819 0.608573
vt 0.867733 0.441201
vt 0.919552 0.440354
vt 0.913641 0.451564
vt 0.873039 0.451062
vt 0.918507 0.455056
vt 0.929538 0.448002
vt 0.929518 0.600745
vt 0.919207 0.594331
vt 0.857868 0.448248
vt 0.868196 0.454635
vt 0.868899 0.593889
vt 0.857852 0.600915
vt 0.918648 0.595667
vt 0.869425 0.595167
vt 0.586482 0.923772
vt 0.586530 0.923573
vt 0.593127 0.923571
vt 0.593175 0.923771
vt 0.860114 0.602822
vt 0.870422 0.596296
vt 0.862512 0.604734
vt 0.871885 0.597091
vt 0.865105 0.606663
vt 0.916183 0.597638
vt 0.922404 0.606070
vt 0.917637 0.596833
vt 0.924984 0.604295
vt 0.927329 0.602520
vt 0.917978 0.453768
vt 0.927272 0.446095
vt 0.916977 0.452639
vt 0.924869 0.444185
vt 0.915511 0.451846
vt 0.922271 0.442260
vt 0.871213 0.451336
vt 0.864965 0.442919
vt 0.869762 0.452142
vt 0.862392 0.444696
vt 0.868754 0.453309
vt 0.860052 0.446472
vt 0.593178 0.942804
vt 0.586486 0.942805
vt 0.592788 0.923290
vt 0.586869 0.923291
vt 0.587108 0.923251
vt 0.592549 0.923250
vt 0.586666 0.923404
vt 0.592992 0.923403
vt 0.586534 0.943004
vt 0.593130 0.943004
vt 0.592994 0.943172
vt 0.586669 0.943173
vt 0.586871 0.943286
vt 0.592792 0.943285
vt 0.592553 0.943325
vt 0.587110 0.943326
vt 0.888251 0.939567
vt 0.928855 0.940110
vt 0.934111 0.949995
vt 0.882301 0.950758
vt 0.882189 0.783422
vt 0.934019 0.782525
vt 0.928124 0.793746
vt 0.887515 0.793274
vt 0.932988 0.797240
vt 0.944016 0.790180
vt 0.944008 0.942954
vt 0.933705 0.936530
vt 0.872342 0.790467
vt 0.882673 0.796852
vt 0.883401 0.936080
vt 0.872349 0.943101
vt 0.933147 0.937866
vt 0.883925 0.937359
vt 0.589415 0.868228
vt 0.589462 0.868029
vt 0.596059 0.868029
vt 0.596106 0.868228
vt 0.874608 0.945008
vt 0.884922 0.938488
vt 0.877003 0.946919
vt 0.886384 0.939283
vt 0.879591 0.948847
vt 0.930682 0.939838
vt 0.936894 0.948290
vt 0.932136 0.939032
vt 0.939483 0.946524
vt 0.941825 0.944739
vt 0.932458 0.795951
vt 0.941749 0.788271
vt 0.931456 0.794822
vt 0.939345 0.786360
vt 0.929990 0.794028
vt 0.936744 0.784432
vt 0.885688 0.793549
vt 0.879425 0.785141
vt 0.884238 0.794357
vt 0.876857 0.786918
vt 0.883231 0.795525
vt 0.874522 0.788693
vt 0.596108 0.887263
vt 0.589416 0.887263
vt 0.595721 0.867747
vt 0.589800 0.867748
vt 0.590039 0.867708
vt 0.595481 0.867707
vt 0.589597 0.867860
vt 0.595923 0.867860
vt 0.589463 0.887462
vt 0.596059 0.887462
vt 0.595924 0.887630
vt 0.589599 0.887631
vt 0.589801 0.887744
vt 0.595722 0.887743
vt 0.595484 0.887783
vt 0.590041 0.887783
vt 0.018771 0.489578
vt 0.059561 0.490089
vt 0.064811 0.499977
vt 0.012860 0.500778
vt 0.012803 0.333390
vt 0.064590 0.332536
vt 0.058690 0.343749
vt 0.018110 0.343250
vt 0.063556 0.347241
vt 0.074578 0.340175
vt 0.074624 0.492867
vt 0.064291 0.486490
vt 0.002947 0.340425
vt 0.013267 0.346822
vt 0.013994 0.486088
vt 0.002930 0.493082
vt 0.063763 0.487833
vt 0.014487 0.487374
vt 0.594108 0.931270
vt 0.594155 0.931071
vt 0.600752 0.931071
vt 0.600800 0.931270
vt 0.005178 0.494997
vt 0.015450 0.488508
vt 0.007565 0.496918
vt 0.016877 0.489304
vt 0.010152 0.498857
vt 0.061364 0.489810
vt 0.067575 0.498236
vt 0.062785 0.489003
vt 0.070136 0.496439
vt 0.072458 0.494649
vt 0.063027 0.345953
vt 0.072311 0.338271
vt 0.062025 0.344824
vt 0.069907 0.336363
vt 0.060559 0.344031
vt 0.067309 0.334440
vt 0.016284 0.343523
vt 0.010038 0.335106
vt 0.014834 0.344330
vt 0.007468 0.336880
vt 0.013826 0.345496
vt 0.005131 0.338653
vt 0.600798 0.950304
vt 0.594106 0.950303
vt 0.600414 0.930789
vt 0.594494 0.930789
vt 0.594731 0.930749
vt 0.600174 0.930750
vt 0.594291 0.930902
vt 0.600617 0.930902
vt 0.594155 0.950503
vt 0.600751 0.950503
vt 0.600615 0.950672
vt 0.594290 0.950671
vt 0.594492 0.950784
vt 0.600413 0.950784
vt 0.600174 0.950824
vt 0.594731 0.950824
vn -0.006972 0.999976 0.000000
vn 0.006972 0.999976 0.000000
vn 0.006972 0.999976 0.000000
vn -0.006972 0.999976 0.000000
vn -0.006972 -0.999976 0.000000
vn 0.006972 -0.999976 0.000000
vn 0.006972 -0.999976 0.000000
vn -0.006972 -0.999976 0.000000
vn 0.999997 -0.002472 0.000000
vn 0.999997 -0.002472 0.000000
vn 0.999997 0.002472 0.000000
vn 0.999997 0.002472 0.000000
vn -0.999997 -0.002472 0.000000
vn -0.999997 -0.002472 0.000000
vn -0.999997 0.002472 0.000000
vn -0.999997 0.002472 0.000000
vn 0.000000 0.000000 1.000000
vn 0.000000 0.000000 1.000000
vn 0.000000 0.000000 1.000000
vn 0.000000 0.000000 1.000000
vn 0.000000 0.000000 -1.000000
vn 0.000000 0.000000 -1.000000
vn 0.000000 0.000000 -1.000000
vn 0.000000 0.000000 -1.000000
vn -0.895480 0.445102 0.000000
vn -0.895480 0.445102 0.000000
vn -0.640184 0.768222 0.000000
vn -0.640184 0.768222 0.000000
vn -0.326286 0.945271 0.000000
vn -0.326286 0.945271 0.000000
vn 0.326285 0.945271 0.000000
vn 0.326285 0.945271 0.000000
vn 0.640184 0.768222 0.000000
vn 0.640184 0.768222 0.000000
vn 0.895479 0.445104 0.000000
vn 0.895479 0.445104 0.000000
vn 0.895479 -0.445104 0.000000
vn 0.895479 -0.445104 0.000000
vn 0.640184 -0.768222 0.000000
vn 0.640184 -0.768222 0.000000
vn 0.326285 -0.945271 0.000000
vn 0.326285 -0.945271 0.000000
vn -0.326286 -0.945271 0.000000
vn -0.326286 -0.945271 0.000000
vn -0.640184 -0.768222 0.000000
vn -0.640184 -0.768222 0.000000
vn -0.895480 -0.445102 0.000000
vn -0.895480 -0.445102 0.000000
vn 0.000000 0.000000 -1.000000
vn 0.000000 0.000000 -1.000000
vn 0.000000 0.000000 -1.000000
vn 0.000000 0.000000 -1.000000
vn 0.000000 0.000000 -1.000000
vn 0.000000 0.000000 -1.000000
vn 0.000000 0.000000 -1.000000
vn 0.000000 0.000000 -1.000000
vn 0.000000 0.000000 -1.000000
vn 0.000000 0.000000 -1.000000
vn 0.000000 0.000000 -1.000000
vn 0.000000 0.000000 -1.000000
vn 0.000000 0.000000 -1.000000
vn 0.000000 0.000000 -1.000000
vn 0.000000 0.000000 -1.000000
vn 0.000000 0.000000 -1.000000
vn 0.000000 0.000000 1.000000
vn 0.000000 0.000000 1.000000
vn 0.000000 0.000000 1.000000
vn 0.000000 0.000000 1.000000
vn 0.000000 0.000000 1.000000
vn 0.000000 0.000000 1.000000
vn 0.000000 0.000000 1.000000
vn 0.000000 0.000000 1.000000
vn 0.000000 0.000000 1.000000
vn 0.000000 0.000000 1.000000
vn 0.000000 0.000000 1.000000
vn 0.000000 0.000000 1.000000
vn 0.000000 0.000000 1.000000
vn 0.000000 0.000000 1.000000
vn 0.000000 0.000000 1.000000
vn 0.000000 0.000000 1.000000
vn -0.006972 0.999976 0.000000
vn 0.006972 0.999976 0.000000
vn 0.006972 0.999976 0.000000
vn -0.006972 0.999976 0.000000
vn -0.006972 -0.999976 0.000000
vn 0.006972 -0.999976 0.000000
vn 0.006972 -0.999976 0.000000
vn -0.006972 -0.999976 0.000000
vn 0.999997 -0.002472 0.000000
vn 0.999997 -0.002472 0.000000
vn 0.999997 0.002472 0.000000
vn 0.999997 0.002472 0.000000
vn -0.999997 -0.002472 0.000000
vn -0.999997 -0.002472 0.000000
vn -0.999997 0.002472 0.000000
vn -0.999997 0.002472 0.000000
vn 0.000000 0.000000 1.000000
vn 0.000000 0.000000 1.000000
vn 0.000000 0.000000 1.000000
vn 0.000000 0.000000 1.000000
vn 0.000000 0.000000 -1.000000
vn 0.000000 0.000000 -1.000000
vn 0.000000 0.000000 -1.000000
vn 0.000000 0.000000 -1.000000
vn -0.895481 0.445101 0.000000
vn -0.895481 0.445101 0.000000
vn -0.640184 0.768222 0.000000
vn -0.640184 0.768222 0.000000
vn -0.326287 0.945271 0.000000
vn -0.326287 0.945271 0.000000
vn 0.326285 0.945271 0.000000
vn 0.326285 0.945271 0.000000
vn 0.640187 0.768219 0.000000
vn 0.640187 0.768219 0.000000
vn 0.895479 0.445104 0.000000
vn 0.895479 0.445104 0.000000
vn 0.895479 -0.445104 0.000000
vn 0.895479 -0.445104 0.000000
vn 0.640187 -0.768219 0.000000
vn 0.640187 -0.768219 0.000000
vn 0.326285 -0.945271 0.000000
vn 0.326285 -0.945271 0.000000
vn -0.326287 -0.945271 0.000000
vn -0.326287 -0.945271 0.000000
vn -0.640184 -0.768222 0.000000
vn -0.640184 -0.768222 0.000000
vn -0.895481 -0.445101 0.000000
vn -0.895481 -0.445101 0.000000
vn 0.000000 0.000000 -1.000000
vn 0.000000 0.000000 -1.000000
vn 0.000000 0.000000 -1.000000
vn 0.000000 0.000000 -1.000000
vn 0.000000 0.000000 -1.000000
vn 0.000000 0.000000 -1.000000
vn 0.000000 0.000000 -1.000000
vn 0.000000 0.000000 -1.000000
vn 0.000000 0.000000 -1.000000
vn 0.000000 0.000000 -1.000000
vn 0.000000 0.000000 -1.000000
vn 0.000000 0.000000 -1.000000
vn 0.000000 0.000000 -1.000000
vn 0.000000 0.000000 -1.000000
vn 0.000000 0.000000 -1.000000
vn 0.000000 0.000000 -1.000000
vn 0.000000 0.000000 1.000000
vn 0.000000 0.000000 1.000000
vn 0.000000 0.000000 1.000000
vn 0.000000 0.000000 1.000000
vn 0.000000 0.000000 1.000000
vn 0.000000 0.000000 1.000000
vn 0.000000 0.000000 1.000000
vn 0.000000 0.000000 1.000000
vn 0.000000 0.000000 1.000000
vn 0.000000 0.000000 1.000000
vn 0.000000 0.000000 1.000000
vn 0.000000 0.000000 1.000000
vn 0.000000 0.000000 1.000000
vn 0.000000 0.000000 1.000000
vn 0.000000 0.000000 1.000000
vn 0.000000 0.000000 1.000000
vn -0.006972 0.999976 0.000000
vn 0.006972 0.999976 0.000000
vn 0.006972 0.999976 0.000000
vn -0.006972 0.999976 0.000000
vn -0.006972 -0.999976 0.000000
vn 0.006972 -0.999976 0.000000
vn 0.006972 -0.999976 0.000000
vn -0.006972 -0.999976 0.000000
vn 0.999997 -0.002472 0.000000
vn 0.999997 -0.002472 0.000000
vn 0.999997 0.002472 0.000000
vn 0.999997 0.002472 0.000000
vn -0.999997 -0.002472 0.000000
vn -0.999997 -0.002472 0.000000
vn -0.999997 0.002472 0.000000
vn -0.999997 0.002472 0.000000
vn 0.000000 0.000000 1.000000
vn 0.000000 0.000000 1.000000
vn 0.000000 0.000000 1.000000
vn 0.000000 0.000000 1.000000
vn 0.000000 0.000000 -1.000000
vn 0.000000 0.000000 -1.000000
vn 0.000000 0.000000 -1.000000
vn 0.000000 0.000000 -1.000000
vn -0.895479 0.445104 0.000000
vn -0.895479 0.445104 0.000000
vn -0.640185 0.768220 0.000000
vn -0.640185 0.768220 0.000000
vn -0.326285 0.945271 0.000000
vn -0.326285 0.945271 0.000000
vn 0.326288 0.945271 0.000000
vn 0.326288 0.945271 0.000000
vn 0.640184 0.768222 0.000000
vn 0.640184 0.768222 0.000000
vn 0.895476 0.445110 0.000000
vn 0.895476 0.445110 0.000000
vn 0.895476 -0.445110 0.000000
vn 0.895476 -0.445110 0.000000
vn 0.640184 -0.768222 0.000000
vn 0.640184 -0.768222 0.000000
vn 0.326288 -0.945271 0.000000
vn 0.326288 -0.945271 0.000000
vn -0.326285 -0.945271 0.000000
vn -0.326285 -0.945271 0.000000
vn -0.640185 -0.768220 0.000000
vn -0.640185 -0.768220 0.000000
vn -0.895479 -0.445104 0.000000
vn -0.895479 -0.445104 0.000000
vn 0.000000 0.000000 -1.000000
vn 0.000000 0.000000 -1.000000
vn 0.000000 0.000000 -1.000000
vn 0.000000 0.000000 -1.000000
vn 0.000000 0.000000 -1.000000
vn 0.000000 0.000000 -1.000000
vn 0.000000 0.000000 -1.000000
vn 0.000000 0.000000 -1.000000
vn 0.000000 0.000000 -1.000000
vn 0.000000 0.000000 -1.000000
vn 0.000000 0.000000 -1.000000
vn 0.000000 0.000000 -1.000000
vn 0.000000 0.000000 -1.000000
vn 0.000000 0.000000 -1.000000
vn 0.000000 0.000000 -1.000000
vn 0.000000 0.000000 -1.000000
vn 0.000000 0.000000 1.000000
vn 0.000000 0.000000 1.000000
vn 0.000000 0.000000 1.000000
vn 0.000000 0.000000 1.000000
vn 0.000000 0.000000 1.000000
vn 0.000000 0.000000 1.000000
vn 0.000000 0.000000 1.000000
vn 0.000000 0.000000 1.000000
vn 0.000000 0.000000 1.000000
vn 0.000000 0.000000 1.000000
vn 0.000000 0.000000 1.000000
vn 0.000000 0.000000 1.000000
vn 0.000000 0.000000 1.000000
vn 0.000000 0.000000 1.000000
vn 0.000000 0.000000 1.000000
vn 0.000000 0.000000 1.000000
vn -0.006972 0.999976 0.000000
vn 0.006972 0.999976 0.000000
vn 0.006972 0.999976 0.000000
vn -0.006972 0.999976 0.000000
vn -0.006972 -0.999976 0.000000
vn 0.006972 -0.999976 0.000000
vn 0.006972 -0.999976 0.000000
vn -0.006972 -0.999976 0.000000
vn 0.999997 -0.002472 0.000000
vn 0.999997 -0.002472 0.000000
vn 0.999997 0.002472 0.000000
vn 0.999997 0.002472 0.000000
vn -0.999997 -0.002472 0.000000
vn -0.999997 -0.002472 0.000000
vn -0.999997 0.002472 0.000000
vn -0.999997 0.002472 0.000000
vn 0.000000 0.000000 1.000000
vn 0.000000 0.000000 1.000000
vn 0.000000 0.000000 1.000000
vn 0.000000 0.000000 1.000000
vn 0.000000 0.000000 -1.000000
vn 0.000000 0.000000 -1.000000
vn 0.000000 0.000000 -1.000000
vn 0.000000 0.000000 -1.000000
vn -0.895476 0.445110 0.000000
vn -0.895476 0.445110 0.000000
vn -0.640184 0.768222 0.000000
vn -0.640184 0.768222 0.000000
vn -0.326288 0.945271 0.000000
vn -0.326288 0.945271 0.000000
vn 0.326285 0.945271 0.000000
vn 0.326285 0.945271 0.000000
vn 0.640185 0.768220 0.000000
vn 0.640185 0.768220 0.000000
vn 0.895479 0.445104 0.000000
vn 0.895479 0.445104 0.000000
vn 0.895479 -0.445104 0.000000
vn 0.895479 -0.445104 0.000000
vn 0.640185 -0.768220 0.000000
vn 0.640185 -0.768220 0.000000
vn 0.326285 -0.945271 0.000000
vn 0.326285 -0.945271 0.000000
vn -0.326288 -0.945271 0.000000
vn -0.326288 -0.945271 0.000000
vn -0.640184 -0.768222 0.000000
vn -0.640184 -0.768222 0.000000
vn -0.895476 -0.445110 0.000000
vn -0.895476 -0.445110 0.000000
vn 0.000000 0.000000 -1.000000
vn 0.000000 0.000000 -1.000000
vn 0.000000 0.000000 -1.000000
vn 0.000000 0.000000 -1.000000
vn 0.000000 0.000000 -1.000000
vn 0.000000 0.000000 -1.000000
vn 0.000000 0.000000 -1.000000
vn 0.000000 0.000000 -1.000000
vn 0.000000 0.000000 -1.000000
vn 0.000000 0.000000 -1.000000
vn 0.000000 0.000000 -1.000000
vn 0.000000 0.000000 -1.000000
vn 0.000000 0.000000 -1.000000
vn 0.000000 0.000000 -1.000000
vn 0.000000 0.000000 -1.000000
vn 0.000000 0.000000 -1.000000
vn 0.000000 0.000000 1.000000
vn 0.000000 0.000000 1.000000
vn 0.000000 0.000000 1.000000
vn 0.000000 0.000000 1.000000
vn 0.000000 0.000000 1.000000
vn 0.000000 0.000000 1.000000
vn 0.000000 0.000000 1.000000
vn 0.000000 0.000000 1.000000
vn 0.000000 0.000000 1.000000
vn 0.000000 0.000000 1.000000
vn 0.000000 0.000000 1.000000
vn 0.000000 0.000000 1.000000
vn 0.000000 0.000000 1.000000
vn 0.000000 0.000000 1.000000
vn 0.000000 0.000000 1.000000
vn 0.000000 0.000000 1.000000
vn -0.006972 0.999976 0.000000
vn 0.006972 0.999976 0.000000
vn 0.006972 0.999976 0.000000
vn -0.006972 0.999976 0.000000
vn -0.006972 -0.999976 0.000000
vn 0.006972 -0.999976 0.000000
vn 0.006972 -0.999976 0.000000
vn -0.006972 -0.999976 0.000000
vn 0.999997 -0.002472 0.000000
vn 0.999997 -0.002472 0.000000
vn 0.999997 0.002472 0.000000
vn 0.999997 0.002472 0.000000
vn -0.999997 -0.002472 0.000000
vn -0.999997 -0.002472 0.000000
vn -0.999997 0.002472 0.000000
vn -0.999997 0.002472 0.000000
vn 0.000000 0.000000 1.000000
vn 0.000000 0.000000 1.000000
vn 0.000000 0.000000 1.000000
vn 0.000000 0.000000 1.000000
vn 0.000000 0.000000 -1.000000
vn 0.000000 0.000000 -1.000000
vn 0.000000 0.000000 -1.000000
vn 0.000000 0.000000 -1.000000
vn -0.895479 0.445104 0.000000
vn -0.895479 0.445104 0.000000
vn -0.640187 0.768219 0.000000
vn -0.640187 0.768219 0.000000
vn -0.326285 0.945271 0.000000
vn -0.326285 0.945271 0.000000
vn 0.326287 0.945271 0.000000
vn 0.326287 0.945271 0.000000
vn 0.640184 0.768222 0.000000
vn 0.640184 0.768222 0.000000
vn 0.895481 0.445101 0.000000
vn 0.895481 0.445101 0.000000
vn 0.895481 -0.445101 0.000000
vn 0.895481 -0.445101 0.000000
vn 0.640184 -0.768222 0.000000
vn 0.640184 -0.768222 0.000000
vn 0.326287 -0.945271 0.000000
vn 0.326287 -0.945271 0.000000
vn -0.326285 -0.945271 0.000000
vn -0.326285 -0.945271 0.000000
vn -0.640187 -0.768219 0.000000
vn -0.640187 -0.768219 0.000000
vn -0.895479 -0.445104 0.000000
vn -0.895479 -0.445104 0.000000
vn 0.000000 0.000000 -1.000000
vn 0.000000 0.000000 -1.000000
vn 0.000000 0.000000 -1.000000
vn 0.000000 0.000000 -1.000000
vn 0.000000 0.000000 -1.000000
vn 0.000000 0.000000 -1.000000
vn 0.000000 0.000000 -1.000000
vn 0.000000 0.000000 -1.000000
vn 0.000000 0.000000 -1.000000
vn 0.000000 0.000000 -1.000000
vn 0.000000 0.000000 -1.000000
vn 0.000000 0.000000 -1.000000
vn 0.000000 0.000000 -1.000000
vn 0.000000 0.000000 -1.000000
vn 0.000000 0.000000 -1.000000
vn 0.000000 0.000000 -1.000000
vn 0.000000 0.000000 1.000000
vn 0.000000 0.000000 1.000000
vn 0.000000 0.000000 1.000000
vn 0.000000 0.000000 1.000000
vn 0.000000 0.000000 1.000000
vn 0.000000 0.000000 1.000000
vn 0.000000 0.000000 1.000000
vn 0.000000 0.000000 1.000000
vn 0.000000 0.000000 1.000000
vn 0.000000 0.000000 1.000000
vn 0.000000 0.000000 1.000000
vn 0.000000 0.000000 1.000000
vn 0.000000 0.000000 1.000000
vn 0.000000 0.000000 1.000000
vn 0.000000 0.000000 1.000000
vn 0.000000 0.000000 1.000000
vn -0.006972 0.999976 0.000000
vn 0.006972 0.999976 0.000000
vn 0.006972 0.999976 0.000000
vn -0.006972 0.999976 0.000000
vn -0.006972 -0.999976 0.000000
vn 0.006972 -0.999976 0.000000
vn 0.006972 -0.999976 0.000000
vn -0.006972 -0.999976 0.000000
vn 0.999997 -0.002472 0.000000
vn 0.999997 -0.002472 0.000000
vn 0.999997 0.002472 0.000000
vn 0.999997 0.002472 0.000000
vn -0.999997 -0.002472 0.000000
vn -0.999997 -0.002472 0.000000
vn -0.999997 0.002472 0.000000
vn -0.999997 0.002472 0.000000
vn 0.000000 0.000000 1.000000
vn 0.000000 0.000000 1.000000
vn 0.000000 0.000000 1.000000
vn 0.000000 0.000000 1.000000
vn 0.000000 0.000000 -1.000000
vn 0.000000 0.000000 -1.000000
vn 0.000000 0.000000 -1.000000
vn 0.000000 0.000000 -1.000000
vn -0.895479 0.445104 0.000000
vn -0.895479 0.445104 0.000000
vn -0.640184 0.768222 0.000000
vn -0.640184 0.768222 0.000000
vn -0.326285 0.945271 0.000000
vn -0.326285 0.945271 0.000000
vn 0.326286 0.945271 0.000000
vn 0.326286 0.945271 0.000000
vn 0.640184 0.768222 0.000000
vn 0.640184 0.768222 0.000000
vn 0.895480 0.445102 0.000000
vn 0.895480 0.445102 0.000000
vn 0.895480 -0.445102 0.000000
vn 0.895480 -0.445102 0.000000
vn 0.640184 -0.768222 0.000000
vn 0.640184 -0.768222 0.000000
vn 0.326286 -0.945271 0.000000
vn 0.326286 -0.945271 0.000000
vn -0.326285 -0.945271 0.000000
vn -0.326285 -0.945271 0.000000
vn -0.640184 -0.768222 0.000000
vn -0.640184 -0.768222 0.000000
vn -0.895479 -0.445104 0.000000
vn -0.895479 -0.445104 0.000000
vn 0.000000 0.000000 -1.000000
vn 0.000000 0.000000 -1.000000
vn 0.000000 0.000000 -1.000000
vn 0.000000 0.000000 -1.000000
vn 0.000000 0.000000 -1.000000
vn 0.000000 0.000000 -1.000000
vn 0.000000 0.000000 -1.000000
vn 0.000000 0.000000 -1.000000
vn 0.000000 0.000000 -1.000000
vn 0.000000 0.000000 -1.000000
vn 0.000000 0.000000 -1.000000
vn 0.000000 0.000000 -1.000000
vn 0.000000 0.000000 -1.000000
vn 0.000000 0.000000 -1.000000
vn 0.000000 0.000000 -1.000000
vn 0.000000 0.000000 -1.000000
vn 0.000000 0.000000 1.000000
vn 0.000000 0.000000 1.000000
vn 0.000000 0.000000 1.000000
vn 0.000000 0.000000 1.000000
vn 0.000000 0.000000 1.000000
vn 0.000000 0.000000 1.000000
vn 0.000000 0.000000 1.000000
vn 0.000000 0.000000 1.000000
vn 0.000000 0.000000 1.000000
vn 0.000000 0.000000 1.000000
vn 0.000000 0.000000 1.000000
vn 0.000000 0.000000 1.000000
vn 0.000000 0.000000 1.000000
vn 0.000000 0.000000 1.000000
vn 0.000000 0.000000 1.000000
vn 0.000000 0.000000 1.000000
vn -0.006972 0.999976 0.000000
vn 0.006972 0.999976 0.000000
vn 0.006972 0.999976 0.000000
vn -0.006972 0.999976 0.000000
vn -0.006972 -0.999976 0.000000
vn 0.006972 -0.999976 0.000000
vn 0.006972 -0.999976 0.000000
vn -0.006972 -0.999976 0.000000
vn 0.999997 -0.002472 0.000000
vn 0.999997 -0.002472 0.000000
vn 0.999997 0.002472 0.000000
vn 0.999997 0.002472 0.000000
vn -0.999997 -0.002472 0.000000
vn -0.999997 -0.002472 0.000000
vn -0.999997 0.002472 0.000000
vn -0.999997 0.002472 0.000000
vn 0.000000 0.000000 1.000000
vn 0.000000 0.000000 1.000000
vn 0.000000 0.000000 1.000000
vn 0.000000 0.000000 1.000000
vn 0.000000 0.000000 -1.000000
vn 0.000000 0.000000 -1.000000
vn 0.000000 0.000000 -1.000000
vn 0.000000 0.000000 -1.000000
vn -0.895479 0.445104 0.000000
vn -0.895479 0.445104 0.000000
vn -0.640184 0.768222 0.000000
vn -0.640184 0.768222 0.000000
vn -0.326286 0.945271 0.000000
vn -0.326286 0.945271 0.000000
vn 0.326286 0.945271 0.000000
vn 0.326286 0.945271 0.000000
vn 0.640185 0.768221 0.000000
vn 0.640185 0.768221 0.000000
vn 0.895479 0.445104 0.000000
vn 0.895479 0.445104 0.000000
vn 0.895479 -0.445104 0.000000
vn 0.895479 -0.445104 0.000000
vn 0.640185 -0.768221 0.000000
vn 0.640185 -0.768221 0.000000
vn 0.326286 -0.945271 0.000000
vn 0.326286 -0.945271 0.000000
vn -0.326286 -0.945271 0.000000
vn -0.326286 -0.945271 0.000000
vn -0.640184 -0.768222 0.000000
vn -0.640184 -0.768222 0.000000
vn -0.895479 -0.445104 0.000000
vn -0.895479 -0.445104 0.000000
vn 0.000000 0.000000 -1.000000
vn 0.000000 0.000000 -1.000000
vn 0.000000 0.000000 -1.000000
vn 0.000000 0.000000 -1.000000
vn 0.000000 0.000000 -1.000000
vn 0.000000 0.000000 -1.000000
vn 0.000000 0.000000 -1.000000
vn 0.000000 0.000000 -1.000000
vn 0.000000 0.000000 -1.000000
vn 0.000000 0.000000 -1.000000
vn 0.000000 0.000000 -1.000000
vn 0.000000 0.000000 -1.000000
vn 0.000000 0.000000 -1.000000
vn 0.000000 0.000000 -1.000000
vn 0.000000 0.000000 -1.000000
vn 0.000000 0.000000 -1.000000
vn 0.000000 0.000000 1.000000
vn 0.000000 0.000000 1.000000
vn 0.000000 0.000000 1.000000
vn 0.000000 0.000000 1.000000
vn 0.000000 0.000000 1.000000
vn 0.000000 0.000000 1.000000
vn 0.000000 0.000000 1.000000
vn 0.000000 0.000000 1.000000
vn 0.000000 0.000000 1.000000
vn 0.000000 0.000000 1.000000
vn 0.000000 0.000000 1.000000
vn 0.000000 0.000000 1.000000
vn 0.000000 0.000000 1.000000
vn 0.000000 0.000000 1.000000
vn 0.000000 0.000000 1.000000
vn 0.000000 0.000000 1.000000
vn -0.006972 0.999976 0.000000
vn 0.006972 0.999976 0.000000
vn 0.006972 0.999976 0.000000
vn -0.006972 0.999976 0.000000
vn -0.006972 -0.999976 0.000000
vn 0.006972 -0.999976 0.000000
vn 0.006972 -0.999976 0.000000
vn -0.006972 -0.999976 0.000000
vn 0.999997 -0.002472 0.000000
vn 0.999997 -0.002472 0.000000
vn 0.999997 0.002472 0.000000
vn 0.999997 0.002472 0.000000
vn -0.999997 -0.002472 0.000000
vn -0.999997 -0.002472 0.000000
vn -0.999997 0.002472 0.000000
vn -0.999997 0.002472 0.000000
vn 0.000000 0.000000 1.000000
vn 0.000000 0.000000 1.000000
vn 0.000000 0.000000 1.000000
vn 0.000000 0.000000 1.000000
vn 0.000000 0.000000 -1.000000
vn 0.000000 0.000000 -1.000000
vn 0.000000 0.000000 -1.000000
vn 0.000000 0.000000 -1.000000
vn -0.895479 0.445104 0.000000
vn -0.895479 0.445104 0.000000
vn -0.640185 0.768221 0.000000
vn -0.640185 0.768221 0.000000
vn -0.326286 0.945271 0.000000
vn -0.326286 0.945271 0.000000
vn 0.326286 0.945271 0.000000
vn 0.326286 0.945271 0.000000
vn 0.640185 0.768221 0.000000
vn 0.640185 0.768221 0.000000
vn 0.895479 0.445104 0.000000
vn 0.895479 0.445104 0.000000
vn 0.895479 -0.445104 0.000000
vn 0.895479 -0.445104 0.000000
vn 0.640185 -0.768221 0.000000
vn 0.640185 -0.768221 0.000000
vn 0.326286 -0.945271 0.000000
vn 0.326286 -0.945271 0.000000
vn -0.326286 -0.945271 0.000000
vn -0.326286 -0.945271 0.000000
vn -0.640185 -0.768221 0.000000
vn -0.640185 -0.768221 0.000000
vn -0.895479 -0.445104 0.000000
vn -0.895479 -0.445104 0.000000
vn 0.000000 0.000000 -1.000000
vn 0.000000 0.000000 -1.000000
vn 0.000000 0.000000 -1.000000
vn 0.000000 0.000000 -1.000000
vn 0.000000 0.000000 -1.000000
vn 0.000000 0.000000 -1.000000
vn 0.000000 0.000000 -1.000000
vn 0.000000 0.000000 -1.000000
vn 0.000000 0.000000 -1.000000
vn 0.000000 0.000000 -1.000000
vn 0.000000 0.000000 -1.000000
vn 0.000000 0.000000 -1.000000
vn 0.000000 0.000000 -1.000000
vn 0.000000 0.000000 -1.000000
vn 0.000000 0.000000 -1.000000
vn 0.000000 0.000000 -1.000000
vn 0.000000 0.000000 1.000000
vn 0.000000 0.000000 1.000000
vn 0.000000 0.000000 1.000000
vn 0.000000 0.000000 1.000000
vn 0.000000 0.000000 1.000000
vn 0.000000 0.000000 1.000000
vn 0.000000 0.000000 1.000000
vn 0.000000 0.000000 1.000000
vn 0.000000 0.000000 1.000000
vn 0.000000 0.000000 1.000000
vn 0.000000 0.000000 1.000000
vn 0.000000 0.000000 1.000000
vn 0.000000 0.000000 1.000000
vn 0.000000 0.000000 1.000000
vn 0.000000 0.000000 1.000000
vn 0.000000 0.000000 1.000000
vn -0.006972 0.999976 0.000000
vn 0.006972 0.999976 0.000000
vn 0.006972 0.999976 0.000000
vn -0.006972 0.999976 0.000000
vn -0.006972 -0.999976 0.000000
vn 0.006972 -0.999976 0.000000
vn 0.006972 -0.999976 0.000000
vn -0.006972 -0.999976 0.000000
vn 0.999997 -0.002472 0.000000
vn 0.999997 -0.002472 0.000000
vn 0.999997 0.002472 0.000000
vn 0.999997 0.002472 0.000000
vn -0.999997 -0.002472 0.000000
vn -0.999997 -0.002472 0.000000
vn -0.999997 0.002472 0.000000
vn -0.999997 0.002472 0.000000
vn 0.000000 0.000000 1.000000
vn 0.000000 0.000000 1.000000
vn 0.000000 0.000000 1.000000
vn 0.000000 0.000000 1.000000
vn 0.000000 0.000000 -1.000000
vn 0.000000 0.000000 -1.000000
vn 0.000000 0.000000 -1.000000
vn 0.000000 0.000000 -1.000000
vn -0.895479 0.445104 0.000000
vn -0.895479 0.445104 0.000000
vn -0.640185 0.768221 0.000000
vn -0.640185 0.768221 0.000000
vn -0.326286 0.945271 0.000000
vn -0.326286 0.945271 0.000000
vn 0.326286 0.945271 0.000000
vn 0.326286 0.945271 0.000000
vn 0.640184 0.768222 0.000000
vn 0.640184 0.768222 0.000000
vn 0.895479 0.445104 0.000000
vn 0.895479 0.445104 0.000000
vn 0.895479 -0.445104 0.000000
vn 0.895479 -0.445104 0.000000
vn 0.640184 -0.768222 0.000000
vn 0.640184 -0.768222 0.000000
vn 0.326286 -0.945271 0.000000
vn 0.326286 -0.945271 0.000000
vn -0.326286 -0.945271 0.000000
vn -0.326286 -0.945271 0.000000
vn -0.640185 -0.768221 0.000000
vn -0.640185 -0.768221 0.000000
vn -0.895479 -0.445104 0.000000
vn -0.895479 -0.445104 0.000000
vn 0.000000 0.000000 -1.000000
vn 0.000000 0.000000 -1.000000
vn 0.000000 0.000000 -1.000000
vn 0.000000 0.000000 -1.000000
vn 0.000000 0.000000 -1.000000
vn 0.000000 0.000000 -1.000000
vn 0.000000 0.000000 -1.000000
vn 0.000000 0.000000 -1.000000
vn 0.000000 0.000000 -1.000000
vn 0.000000 0.000000 -1.000000
vn 0.000000 0.000000 -1.000000
vn 0.000000 0.000000 -1.000000
vn 0.000000 0.000000 -1.000000
vn 0.000000 0.000000 -1.000000
vn 0.000000 0.000000 -1.000000
vn 0.000000 0.000000 -1.000000
vn 0.000000 0.000000 1.000000
vn 0.000000 0.000000 1.000000
vn 0.000000 0.000000 1.000000
vn 0.000000 0.000000 1.000000
vn 0.000000 0.000000 1.000000
vn 0.000000 0.000000 1.000000
vn 0.000000 0.000000 1.000000
vn 0.000000 0.000000 1.000000
vn 0.000000 0.000000 1.000000
vn 0.000000 0.000000 1.000000
vn 0.000000 0.000000 1.000000
vn 0.000000 0.000000 1.000000
vn 0.000000 0.000000 1.000000
vn 0.000000 0.000000 1.000000
vn 0.000000 0.000000 1.000000
vn 0.000000 0.000000 1.000000
s 1
g S_S03_02
usemtl set2
f 20/23/1 11/18/2 27/29/3 21/30/4
f 40/31/5 31/32/6 2/11/7 6/16/8
f 1/2/9 32/33/10 26/34/11 12/21/12
f 36/35/13 10/13/14 16/28/15 22/36/16
s 5
f 16/28/17 12/21/18 13/20/19 17/25/20
s 6
f 22/3/21 23/43/22 30/48/23 26/26/24
s 1
f 16/28/15 17/25/25 23/37/26 22/36/16
f 17/25/25 18/24/27 24/38/28 23/37/26
f 18/24/27 19/22/29 25/39/30 24/38/28
f 19/22/29 20/23/1 21/30/4 25/39/30
f 11/18/2 15/17/31 28/40/32 27/29/3
f 15/17/31 14/19/33 29/41/34 28/40/32
f 14/19/33 13/20/35 30/42/36 29/41/34
f 13/20/35 12/21/12 26/34/11 30/42/36
f 1/2/9 5/1/37 33/54/38 32/33/10
f 5/1/37 4/8/39 34/56/40 33/54/38
f 4/8/39 3/10/41 35/57/42 34/56/40
f 3/10/41 2/11/7 31/32/6 35/57/42
f 6/16/8 7/15/43 39/58/44 40/31/5
f 7/15/43 8/14/45 38/59/46 39/58/44
f 8/14/45 9/12/47 37/60/48 38/59/46
f 9/12/47 10/13/14 36/35/13 37/60/48
s 6
f 22/3/21 26/26/24 32/9/49 36/6/50
f 28/46/51 25/45/52 21/4/53 27/7/54
f 30/48/23 23/43/22 24/44/55 29/47/56
f 29/47/56 24/44/55 25/45/52 28/46/51
f 37/52/57 33/49/58 34/50/59 38/53/60
f 36/6/50 32/9/49 33/49/58 37/52/57
f 39/55/61 35/51/62 31/27/63 40/5/64
f 38/53/60 34/50/59 35/51/62 39/55/61
s 5
f 10/13/65 1/2/66 12/21/18 16/28/17
f 18/24/67 14/19/68 15/17/69 19/22/70
f 17/25/20 13/20/19 14/19/68 18/24/67
f 19/22/70 15/17/69 11/18/71 20/23/72
f 5/1/73 9/12/74 8/14/75 4/8/76
f 10/13/65 9/12/74 5/1/73 1/2/66
f 3/10/77 7/15/78 6/16/79 2/11/80
f 4/8/76 8/14/75 7/15/78 3/10/77
s 8
f 60/61/81 51/62/82 67/63/83 61/64/84
f 80/65/85 71/66/86 42/67/87 46/68/88
f 41/69/89 72/70/90 66/71/91 52/72/92
f 76/73/93 50/74/94 56/75/95 62/76/96
s 12
f 56/75/97 52/72/98 53/77/99 57/78/100
s 13
f 62/79/101 63/80/102 70/81/103 66/82/104
s 8
f 56/75/95 57/78/105 63/83/106 62/76/96
f 57/78/105 58/84/107 64/85/108 63/83/106
f 58/84/107 59/86/109 65/87/110 64/85/108
f 59/86/109 60/61/81 61/64/84 65/87/110
f 51/62/82 55/88/111 68/89/112 67/63/83
f 55/88/111 54/90/113 69/91/114 68/89/112
f 54/90/113 53/77/115 70/92/116 69/91/114
f 53/77/115 52/72/92 66/71/91 70/92/116
f 41/69/89 45/93/117 73/94/118 72/70/90
f 45/93/117 44/95/119 74/96/120 73/94/118
f 44/95/119 43/97/121 75/98/122 74/96/120
f 43/97/121 42/67/87 71/66/86 75/98/122
f 46/68/88 47/99/123 79/100/124 80/65/85
f 47/99/123 48/101/125 78/102/126 79/100/124
f 48/101/125 49/103/127 77/104/128 78/102/126
f 49/103/127 50/74/94 76/73/93 77/104/128
s 13
f 62/79/101 66/82/104 72/105/129 76/106/130
f 68/107/131 65/108/132 61/109/133 67/110/134
f 70/81/103 63/80/102 64/111/135 69/112/136
f 69/112/136 64/111/135 65/108/132 68/107/131
f 77/113/137 73/114/138 74/115/139 78/116/140
f 76/106/130 72/105/129 73/114/138 77/113/137
f 79/117/141 75/118/142 71/119/143 80/120/144
f 78/116/140 74/115/139 75/118/142 79/117/141
s 12
f 50/74/145 41/69/146 52/72/98 56/75/97
f 58/84/147 54/90/148 55/88/149 59/86/150
f 57/78/100 53/77/99 54/90/148 58/84/147
f 59/86/150 55/88/149 51/62/151 60/61/152
f 45/93/153 49/103/154 48/101/155 44/95/156
f 50/74/145 49/103/154 45/93/153 41/69/146
f 43/97/157 47/99/158 46/68/159 42/67/160
f 44/95/156 48/101/155 47/99/158 43/97/157
s 15
f 100/121/161 91/122/162 107/123/163 101/124/164
f 120/125/165 111/126/166 82/127/167 86/128/168
f 81/129/169 112/130/170 106/131/171 92/132/172
f 116/133/173 90/134/174 96/135/175 102/136/176
s 19
f 96/135/177 92/132/178 93/137/179 97/138/180
s 20
f 102/139/181 103/140/182 110/141/183 106/142/184
s 15
f 96/135/175 97/138/185 103/143/186 102/136/176
f 97/138/185 98/144/187 104/145/188 103/143/186
f 98/144/187 99/146/189 105/147/190 104/145/188
f 99/146/189 100/121/161 101/124/164 105/147/190
f 91/122/162 95/148/191 108/149/192 107/123/163
f 95/148/191 94/150/193 109/151/194 108/149/192
f 94/150/193 93/137/195 110/152/196 109/151/194
f 93/137/195 92/132/172 106/131/171 110/152/196
f 81/129/169 85/153/197 113/154/198 112/130/170
f 85/153/197 84/155/199 114/156/200 113/154/198
f 84/155/199 83/157/201 115/158/202 114/156/200
f 83/157/201 82/127/167 111/126/166 115/158/202
f 86/128/168 87/159/203 119/160/204 120/125/165
f 87/159/203 88/161/205 118/162/206 119/160/204
f 88/161/205 89/163/207 117/164/208 118/162/206
f 89/163/207 90/134/174 116/133/173 117/164/208
s 20
f 102/139/181 106/142/184 112/165/209 116/166/210
f 108/167/211 105/168/212 101/169/213 107/170/214
f 110/141/183 103/140/182 104/171/215 109/172/216
f 109/172/216 104/171/215 105/168/212 108/167/211
f 117/173/217 113/174/218 114/175/219 118/176/220
f 116/166/210 112/165/209 113/174/218 117/173/217
f 119/177/221 115/178/222 111/179/223 120/180/224
f 118/176/220 114/175/219 115/178/222 119/177/221
s 19
f 90/134/225 81/129/226 92/132/178 96/135/177
f 98/144/227 94/150/228 95/148/229 99/146/230
f 97/138/180 93/137/179 94/150/228 98/144/227
f 99/146/230 95/148/229 91/122/231 100/121/232
f 85/153/233 89/163/234 88/161/235 84/155/236
f 90/134/225 89/163/234 85/153/233 81/129/226
f 83/157/237 87/159/238 86/128/239 82/127/240
f 84/155/236 88/161/235 87/159/238 83/157/237
s 22
f 140/181/241 131/182/242 147/183/243 141/184/244
f 160/185/245 151/186/246 122/187/247 126/188/248
f 121/189/249 152/190/250 146/191/251 132/192/252
f 156/193/253 130/194/254 136/195/255 142/196/256
s 26
f 136/195/257 132/192/258 133/197/259 137/198/260
s 27
f 142/199/261 143/200/262 150/201/263 146/202/264
s 22
f 136/195/255 137/198/265 143/203/266 142/196/256
f 137/198/265 138/204/267 144/205/268 143/203/266
f 138/204/267 139/206/269 145/207/270 144/205/268
f 139/206/269 140/181/241 141/184/244 145/207/270
f 131/182/242 135/208/271 148/209/272 147/183/243
f 135/208/271 134/210/273 149/211/274 148/209/272
f 134/210/273 133/197/275 150/212/276 149/211/274
f 133/197/275 132/192/252 146/191/251 150/212/276
f 121/189/249 125/213/277 153/214/278 152/190/250
f 125/213/277 124/215/279 154/216/280 153/214/278
f 124/215/279 123/217/281 155/218/282 154/216/280
f 123/217/281 122/187/247 151/186/246 155/218/282
f 126/188/248 127/219/283 159/220/284 160/185/245
f 127/219/283 128/221/285 158/222/286 159/220/284
f 128/221/285 129/223/287 157/224/288 158/222/286
f 129/223/287 130/194/254 156/193/253 157/224/288
s 27
f 142/199/261 146/202/264 152/225/289 156/226/290
f 148/227/291 145/228/292 141/229/293 147/230/294
f 150/201/263 143/200/262 144/231/295 149/232/296
f 149/232/296 144/231/295 145/228/292 148/227/291
f 157/233/297 153/234/298 154/235/299 158/236/300
f 156/226/290 152/225/289 153/234/298 157/233/297
f 159/237/301 155/238/302 151/239/303 160/240/304
f 158/236/300 154/235/299 155/238/302 159/237/301
s 26
f 130/194/305 121/189/306 132/192/258 136/195/257
f 138/204/307 134/210/308 135/208/309 139/206/310
f 137/198/260 133/197/259 134/210/308 138/204/307
f 139/206/310 135/208/309 131/182/311 140/181/312
f 125/213/313 129/223/314 128/221/315 124/215/316
f 130/194/305 129/223/314 125/213/313 121/189/306
f 123/217/317 127/219/318 126/188/319 122/187/320
f 124/215/316 128/221/315 127/219/318 123/217/317
s 29
f 180/241/321 171/242/322 187/243/323 181/244/324
f 200/245/325 191/246/326 162/247/327 166/248/328
f 161/249/329 192/250/330 186/251/331 172/252/332
f 196/253/333 170/254/334 176/255/335 182/256/336
s 33
f 176/255/337 172/252/338 173/257/339 177/258/340
s 34
f 182/259/341 183/260/342 190/261/343 186/262/344
s 29
f 176/255/335 177/258/345 183/263/346 182/256/336
f 177/258/345 178/264/347 184/265/348 183/263/346
f 178/264/347 179/266/349 185/267/350 184/265/348
f 179/266/349 180/241/321 181/244/324 185/267/350
f 171/242/322 175/268/351 188/269/352 187/243/323
f 175/268/351 174/270/353 189/271/354 188/269/352
f 174/270/353 173/257/355 190/272/356 189/271/354
f 173/257/355 172/252/332 186/251/331 190/272/356
f 161/249/329 165/273/357 193/274/358 192/250/330
f 165/273/357 164/275/359 194/276/360 193/274/358
f 164/275/359 163/277/361 195/278/362 194/276/360
f 163/277/361 162/247/327 191/246/326 195/278/362
f 166/248/328 167/279/363 199/280/364 200/245/325
f 167/279/363 168/281/365 198/282/366 199/280/364
f 168/281/365 169/283/367 197/284/368 198/282/366
f 169/283/367 170/254/334 196/253/333 197/284/368
s 34
f 182/259/341 186/262/344 192/285/369 196/286/370
f 188/287/371 185/288/372 181/289/373 187/290/374
f 190/261/343 183/260/342 184/291/375 189/292/376
f 189/292/376 184/291/375 185/288/372 188/287/371
f 197/293/377 193/294/378 194/295/379 198/296/380
f 196/286/370 192/285/369 193/294/378 197/293/377
f 199/297/381 195/298/382 191/299/383 200/300/384
f 198/296/380 194/295/379 195/298/382 199/297/381
s 33
f 170/254/385 161/249/386 172/252/338 176/255/337
f 178/264/387 174/270/388 175/268/389 179/266/390
f 177/258/340 173/257/339 174/270/388 178/264/387
f 179/266/390 175/268/389 171/242/391 180/241/392
f 165/273/393 169/283/394 168/281/395 164/275/396
f 170/254/385 169/283/394 165/273/393 161/249/386
f 163/277/397 167/279/398 166/248/399 162/247/400
f 164/275/396 168/281/395 167/279/398 163/277/397
s 36
f 220/301/401 211/302/402 227/303/403 221/304/404
f 240/305/405 231/306/406 202/307/407 206/308/408
f 201/309/409 232/310/410 226/311/411 212/312/412
f 236/313/413 210/314/414 216/315/415 222/316/416
s 40
f 216/315/417 212/312/418 213/317/419 217/318/420
s 41
f 222/319/421 223/320/422 230/321/423 226/322/424
s 36
f 216/315/415 217/318/425 223/323/426 222/316/416
f 217/318/425 218/324/427 224/325/428 223/323/426
f 218/324/427 219/326/429 225/327/430 224/325/428
f 219/326/429 220/301/401 221/304/404 225/327/430
f 211/302/402 215/328/431 228/329/432 227/303/403
f 215/328/431 214/330/433 229/331/434 228/329/432
f 214/330/433 213/317/435 230/332/436 229/331/434
f 213/317/435 212/312/412 226/311/411 230/332/436
f 201/309/409 205/333/437 233/334/438 232/310/410
f 205/333/437 204/335/439 234/336/440 233/334/438
f 204/335/439 203/337/441 235/338/442 234/336/440
f 203/337/441 202/307/407 231/306/406 235/338/442
f 206/308/408 207/339/443 239/340/444 240/305/405
f 207/339/443 208/341/445 238/342/446 239/340/444
f 208/341/445 209/343/447 237/344/448 238/342/446
f 209/343/447 210/314/414 236/313/413 237/344/448
s 41
f 222/319/421 226/322/424 232/345/449 236/346/450
f 228/347/451 225/348/452 221/349/453 227/350/454
f 230/321/423 223/320/422 224/351/455 229/352/456
f 229/352/456 224/351/455 225/348/452 228/347/451
f 237/353/457 233/354/458 234/355/459 238/356/460
f 236/346/450 232/345/449 233/354/458 237/353/457
f 239/357/461 235/358/462 231/359/463 240/360/464
f 238/356/460 234/355/459 235/358/462 239/357/461
s 40
f 210/314/465 201/309/466 212/312/418 216/315/417
f 218/324/467 214/330/468 215/328/469 219/326/470
f 217/318/420 213/317/419 214/330/468 218/324/467
f 219/326/470 215/328/469 211/302/471 220/301/472
f 205/333/473 209/343/474 208/341/475 204/335/476
f 210/314/465 209/343/474 205/333/473 201/309/466
f 203/337/477 207/339/478 206/308/479 202/307/480
f 204/335/476 208/341/475 207/339/478 203/337/477
s 43
f 260/361/481 251/362/482 267/363/483 261/364/484
f 280/365/485 271/366/486 242/367/487 246/368/488
f 241/369/489 272/370/490 266/371/491 252/372/492
f 276/373/493 250/374/494 256/375/495 262/376/496
s 47
f 256/375/497 252/372/498 253/377/499 257/378/500
s 48
f 262/379/501 263/380/502 270/381/503 266/382/504
s 43
f 256/375/495 257/378/505 263/383/506 262/376/496
f 257/378/505 258/384/507 264/385/508 263/383/506
f 258/384/507 259/386/509 265/387/510 264/385/508
f 259/386/509 260/361/481 261/364/484 265/387/510
f 251/362/482 255/388/511 268/389/512 267/363/483
f 255/388/511 254/390/513 269/391/514 268/389/512
f 254/390/513 253/377/515 270/392/516 269/391/514
f 253/377/515 252/372/492 266/371/491 270/392/516
f 241/369/489 245/393/517 273/394/518 272/370/490
f 245/393/517 244/395/519 274/396/520 273/394/518
f 244/395/519 243/397/521 275/398/522 274/396/520
f 243/397/521 242/367/487 271/366/486 275/398/522
f 246/368/488 247/399/523 279/400/524 280/365/485
f 247/399/523 248/401/525 278/402/526 279/400/524
f 248/401/525 249/403/527 277/404/528 278/402/526
f 249/403/527 250/374/494 276/373/493 277/404/528
s 48
f 262/379/501 266/382/504 272/405/529 276/406/530
f 268/407/531 265/408/532 261/409/533 267/410/534
f 270/381/503 263/380/502 264/411/535 269/412/536
f 269/412/536 264/411/535 265/408/532 268/407/531
f 277/413/537 273/414/538 274/415/539 278/416/540
f 276/406/530 272/405/529 273/414/538 277/413/537
f 279/417/541 275/418/542 271/419/543 280/420/544
f 278/416/540 274/415/539 275/418/542 279/417/541
s 47
f 250/374/545 241/369/546 252/372/498 256/375/497
f 258/384/547 254/390/548 255/388/549 259/386/550
f 257/378/500 253/377/499 254/390/548 258/384/547
f 259/386/550 255/388/549 251/362/551 260/361/552
f 245/393/553 249/403/554 248/401/555 244/395/556
f 250/374/545 249/403/554 245/393/553 241/369/546
f 243/397/557 247/399/558 246/368/559 242/367/560
f 244/395/556 248/401/555 247/399/558 243/397/557
s 50
f 300/421/561 291/422/562 307/423/563 301/424/564
f 320/425/565 311/426/566 282/427/567 286/428/568
f 281/429/569 312/430/570 306/431/571 292/432/572
f 316/433/573 290/434/574 296/435/575 302/436/576
s 54
f 296/435/577 292/432/578 293/437/579 297/438/580
s 55
f 302/439/581 303/440/582 310/441/583 306/442/584
s 50
f 296/435/575 297/438/585 303/443/586 302/436/576
f 297/438/585 298/444/587 304/445/588 303/443/586
f 298/444/587 299/446/589 305/447/590 304/445/588
f 299/446/589 300/421/561 301/424/564 305/447/590
f 291/422/562 295/448/591 308/449/592 307/423/563
f 295/448/591 294/450/593 309/451/594 308/449/592
f 294/450/593 293/437/595 310/452/596 309/451/594
f 293/437/595 292/432/572 306/431/571 310/452/596
f 281/429/569 285/453/597 313/454/598 312/430/570
f 285/453/597 284/455/599 314/456/600 313/454/598
f 284/455/599 283/457/601 315/458/602 314/456/600
f 283/457/601 282/427/567 311/426/566 315/458/602
f 286/428/568 287/459/603 319/460/604 320/425/565
f 287/459/603 288/461/605 318/462/606 319/460/604
f 288/461/605 289/463/607 317/464/608 318/462/606
f 289/463/607 290/434/574 316/433/573 317/464/608
s 55
f 302/439/581 306/442/584 312/465/609 316/466/610
f 308/467/611 305/468/612 301/469/613 307/470/614
f 310/441/583 303/440/582 304/471/615 309/472/616
f 309/472/616 304/471/615 305/468/612 308/467/611
f 317/473/617 313/474/618 314/475/619 318/476/620
f 316/466/610 312/465/609 313/474/618 317/473/617
f 319/477/621 315/478/622 311/479/623 320/480/624
f 318/476/620 314/475/619 315/478/622 319/477/621
s 54
f 290/434/625 281/429/626 292/432/578 296/435/577
f 298/444/627 294/450/628 295/448/629 299/446/630
f 297/438/580 293/437/579 294/450/628 298/444/627
f 299/446/630 295/448/629 291/422/631 300/421/632
f 285/453/633 289/463/634 288/461/635 284/455/636
f 290/434/625 289/463/634 285/453/633 281/429/626
f 283/457/637 287/459/638 286/428/639 282/427/640
f 284/455/636 288/461/635 287/459/638 283/457/637
s 57
f 340/481/641 331/482/642 347/483/643 341/484/644
f 360/485/645 351/486/646 322/487/647 326/488/648
f 321/489/649 352/490/650 346/491/651 332/492/652
f 356/493/653 330/494/654 336/495/655 342/496/656
s 61
f 336/495/657 332/492/658 333/497/659 337/498/660
s 62
f 342/499/661 343/500/662 350/501/663 346/502/664
s 57
f 336/495/655 337/498/665 343/503/666 342/496/656
f 337/498/665 338/504/667 344/505/668 343/503/666
f 338/504/667 339/506/669 345/507/670 344/505/668
f 339/506/669 340/481/641 341/484/644 345/507/670
f 331/482/642 335/508/671 348/509/672 347/483/643
f 335/508/671 334/510/673 349/511/674 348/509/672
f 334/510/673 333/497/675 350/512/676 349/511/674
f 333/497/675 332/492/652 346/491/651 350/512/676
f 321/489/649 325/513/677 353/514/678 352/490/650
f 325/513/677 324/515/679 354/516/680 353/514/678
f 324/515/679 323/517/681 355/518/682 354/516/680
f 323/517/681 322/487/647 351/486/646 355/518/682
f 326/488/648 327/519/683 359/520/684 360/485/645
f 327/519/683 328/521/685 358/522/686 359/520/684
f 328/521/685 329/523/687 357/524/688 358/522/686
f 329/523/687 330/494/654 356/493/653 357/524/688
s 62
f 342/499/661 346/502/664 352/525/689 356/526/690
f 348/527/691 345/528/692 341/529/693 347/530/694
f 350/501/663 343/500/662 344/531/695 349/532/696
f 349/532/696 344/531/695 345/528/692 348/527/691
f 357/533/697 353/534/698 354/535/699 358/536/700
f 356/526/690 352/525/689 353/534/698 357/533/697
f 359/537/701 355/538/702 351/539/703 360/540/704
f 358/536/700 354/535/699 355/538/702 359/537/701
s 61
f 330/494/705 321/489/706 332/492/658 336/495/657
f 338/504/707 334/510/708 335/508/709 339/506/710
f 337/498/660 333/497/659 334/510/708 338/504/707
f 339/506/710 335/508/709 331/482/711 340/481/712
f 325/513/713 329/523/714 328/521/715 324/515/716
f 330/494/705 329/523/714 325/513/713 321/489/706
f 323/517/717 327/519/718 326/488/719 322/487/720
f 324/515/716 328/521/715 327/519/718 323/517/717
