# This file uses centimeters as units for non-parametric coordinates.

mtllib S_S04_08.mtl
g default
v -106.841560 290.176208 30.720123
v -110.986946 286.030853 30.720123
v -112.504242 280.368195 30.720123
v -101.178886 291.693542 30.720123
v -112.504242 280.368195 -30.720127
v -110.986946 286.030853 -30.720127
v -106.841560 290.176208 -30.720127
v -101.178886 291.693542 -30.720127
v 110.986946 286.030853 30.720123
v 106.841560 290.176208 30.720123
v 101.178886 291.693542 30.720123
v 112.504242 280.368195 30.720123
v 112.504242 280.368195 -30.720127
v 101.178886 291.693542 -30.720127
v 106.841560 290.176208 -30.720127
v 110.986946 286.030853 -30.720127
v -110.986946 -286.030853 30.720123
v -106.841560 -290.176208 30.720123
v -101.178886 -291.693542 30.720123
v -112.504242 -280.368195 30.720123
v -106.841560 -290.176208 -30.720127
v -110.986946 -286.030853 -30.720127
v -112.504242 -280.368195 -30.720127
v -101.178886 -291.693542 -30.720127
v 106.841560 -290.176208 30.720123
v 110.986946 -286.030853 30.720123
v 112.504242 -280.368195 30.720123
v 101.178886 -291.693542 30.720123
v 110.986946 -286.030853 -30.720127
v 106.841560 -290.176208 -30.720127
v 101.178886 -291.693542 -30.720127
v 112.504242 -280.368195 -30.720127
v 109.276970 288.466248 30.720123
v 109.276970 288.466248 -30.720127
v 109.276970 -288.466248 30.720123
v 109.276970 -288.466248 -30.720127
v -109.276970 288.466248 30.720123
v -109.276970 288.466248 -30.720127
v -109.276970 -288.466248 30.720123
v -109.276970 -288.466248 -30.720127
vt 0.180975 0.379150
vt 0.304593 0.379150
vt 0.180975 0.022765
vt 0.304593 0.022765
vt 0.311512 0.029683
vt 0.753564 0.552763
vt 0.311512 0.372232
vt 0.174056 0.029683
vt 0.753715 0.552657
vt 0.754065 0.552563
vt 0.766574 0.552563
vt 0.766924 0.552657
vt 0.767075 0.552763
vt 0.767180 0.552913
vt 0.174056 0.372232
vt 0.767274 0.553263
vt 0.174983 0.375691
vt 0.767274 0.587927
vt 0.176028 0.377179
vt 0.767180 0.588277
vt 0.767075 0.588428
vt 0.177515 0.378223
vt 0.308052 0.378223
vt 0.766924 0.588534
vt 0.309540 0.377179
vt 0.766574 0.588627
vt 0.310585 0.375691
vt 0.177515 0.023692
vt 0.754065 0.588627
vt 0.753715 0.588534
vt 0.176028 0.024736
vt 0.753564 0.588428
vt 0.174983 0.026224
vt 0.753458 0.588277
vt 0.753365 0.587927
vt 0.310585 0.026224
vt 0.753365 0.553263
vt 0.309540 0.024736
vt 0.753458 0.552913
vt 0.308052 0.023692
vt 0.016313 0.893731
vt 0.016313 0.859682
vt 0.327059 0.859683
vt 0.327059 0.893732
vt 0.013064 0.893731
vt 0.013064 0.859682
vt 0.330308 0.893732
vt 0.330308 0.859683
vt 0.011415 0.893731
vt 0.011415 0.859682
vt 0.331957 0.859683
vt 0.331957 0.893732
vt 0.009766 0.893731
vt 0.009766 0.859682
vt 0.333606 0.893732
vt 0.333606 0.859683
vt 0.769539 0.859684
vt 0.769539 0.893732
vt 0.458793 0.893732
vt 0.458793 0.859684
vt 0.772788 0.893732
vt 0.772788 0.859684
vt 0.455544 0.893732
vt 0.455544 0.859684
vt 0.774437 0.859684
vt 0.774437 0.893732
vt 0.453895 0.893732
vt 0.453895 0.859684
vt 0.776086 0.893732
vt 0.776086 0.859684
vt 0.452246 0.893732
vt 0.452246 0.859684
vt 0.448997 0.859684
vt 0.448997 0.893732
vt 0.336855 0.893732
vt 0.336855 0.859683
vt 0.779335 0.893732
vt 0.779335 0.859684
vt 0.891477 0.859684
vt 0.891477 0.893732
vt 0.894726 0.893732
vt 0.894726 0.859684
vn -0.007294 0.999973 0.000000
vn -0.007294 0.999973 0.000000
vn 0.007294 0.999973 0.000000
vn 0.007294 0.999973 0.000000
vn -0.007294 -0.999973 0.000000
vn -0.007294 -0.999973 0.000000
vn 0.007294 -0.999973 0.000000
vn 0.007294 -0.999973 0.000000
vn 0.999996 -0.002679 0.000000
vn 0.999996 -0.002679 0.000000
vn 0.999996 0.002679 0.000000
vn 0.999996 0.002679 0.000000
vn -0.999996 -0.002679 0.000000
vn -0.999996 -0.002679 0.000000
vn -0.999996 0.002679 0.000000
vn -0.999996 0.002679 0.000000
vn -0.999996 0.002679 0.000000
vn -0.965926 0.258818 0.000000
vn -0.965926 0.258818 0.000000
vn -0.999996 0.002679 0.000000
vn -0.818411 0.574634 0.000000
vn -0.707105 0.707108 0.000000
vn -0.707105 0.707108 0.000000
vn -0.818411 0.574634 0.000000
vn -0.370208 0.928949 0.000000
vn -0.007294 0.999973 0.000000
vn -0.007294 0.999973 0.000000
vn -0.370208 0.928949 0.000000
vn 0.007294 0.999973 0.000000
vn 0.370208 0.928949 0.000000
vn 0.370208 0.928949 0.000000
vn 0.007294 0.999973 0.000000
vn 0.370208 0.928949 0.000000
vn 0.707105 0.707108 0.000000
vn 0.707105 0.707108 0.000000
vn 0.370208 0.928949 0.000000
vn 0.965926 0.258818 0.000000
vn 0.999996 0.002679 0.000000
vn 0.999996 0.002679 0.000000
vn 0.965926 0.258818 0.000000
vn -0.007294 -0.999973 0.000000
vn -0.370208 -0.928949 0.000000
vn -0.370208 -0.928949 0.000000
vn -0.007294 -0.999973 0.000000
vn -0.370208 -0.928949 0.000000
vn -0.707105 -0.707108 0.000000
vn -0.707105 -0.707108 0.000000
vn -0.370208 -0.928949 0.000000
vn -0.965926 -0.258818 0.000000
vn -0.999996 -0.002679 0.000000
vn -0.999996 -0.002679 0.000000
vn -0.965926 -0.258818 0.000000
vn 0.999996 -0.002679 0.000000
vn 0.965926 -0.258818 0.000000
vn 0.965926 -0.258818 0.000000
vn 0.999996 -0.002679 0.000000
vn 0.818411 -0.574634 0.000000
vn 0.707105 -0.707108 0.000000
vn 0.707105 -0.707108 0.000000
vn 0.818411 -0.574634 0.000000
vn 0.370208 -0.928949 0.000000
vn 0.007294 -0.999973 0.000000
vn 0.007294 -0.999973 0.000000
vn 0.370208 -0.928949 0.000000
vn 0.707105 0.707108 0.000000
vn 0.707105 0.707108 0.000000
vn 0.818411 0.574634 0.000000
vn 0.818411 0.574634 0.000000
vn 0.707105 -0.707108 0.000000
vn 0.707105 -0.707108 0.000000
vn 0.370208 -0.928949 0.000000
vn 0.370208 -0.928949 0.000000
vn -0.707105 0.707108 0.000000
vn -0.707105 0.707108 0.000000
vn -0.370208 0.928949 0.000000
vn -0.370208 0.928949 0.000000
vn -0.707105 -0.707108 0.000000
vn -0.707105 -0.707108 0.000000
vn -0.818411 -0.574634 0.000000
vn -0.818411 -0.574634 0.000000
vn 0.000000 0.000000 1.000000
vn 0.000000 0.000000 1.000000
vn 0.000000 0.000000 1.000000
vn 0.000000 0.000000 1.000000
vn 0.000000 0.000000 -1.000000
vn 0.000000 0.000000 -1.000000
vn 0.000000 0.000000 -1.000000
vn 0.000000 0.000000 -1.000000
vn 0.000000 0.000000 -1.000000
vn 0.000000 0.000000 -1.000000
vn 0.000000 0.000000 -1.000000
vn 0.000000 0.000000 -1.000000
vn 0.000000 0.000000 -1.000000
vn 0.000000 0.000000 -1.000000
vn 0.000000 0.000000 -1.000000
vn 0.000000 0.000000 -1.000000
vn 0.000000 0.000000 -1.000000
vn 0.000000 0.000000 -1.000000
vn 0.000000 0.000000 -1.000000
vn 0.000000 0.000000 -1.000000
vn 0.000000 0.000000 -1.000000
vn 0.000000 0.000000 -1.000000
vn 0.000000 0.000000 -1.000000
vn 0.000000 0.000000 -1.000000
vn 0.000000 -0.000000 1.000000
vn 0.000000 0.000000 1.000000
vn 0.000000 0.000000 1.000000
vn -0.000000 0.000000 1.000000
vn 0.000000 0.000000 1.000000
vn 0.000000 0.000000 1.000000
vn 0.000000 0.000000 1.000000
vn 0.000000 0.000000 1.000000
vn 0.000000 0.000000 1.000000
vn 0.000000 0.000000 1.000000
vn 0.000000 0.000000 1.000000
vn 0.000000 0.000000 1.000000
vn -0.000000 0.000000 1.000000
vn 0.000000 0.000000 1.000000
vn 0.000000 0.000000 1.000000
vn 0.000000 0.000000 1.000000
vn 0.000000 -0.000000 1.000000
vn 0.000000 -0.000000 1.000000
vn 0.000000 0.000000 1.000000
vn 0.000000 -0.000000 1.000000
vn 0.000000 -0.000000 1.000000
vn 0.000000 -0.000000 1.000000
vn 0.000000 -0.000000 1.000000
vn 0.000000 -0.000000 1.000000
vn 0.000000 -0.000000 1.000000
vn 0.000000 -0.000000 1.000000
vn 0.000000 -0.000000 1.000000
vn 0.000000 -0.000000 1.000000
vn 0.000000 -0.000000 1.000000
vn 0.000000 -0.000000 1.000000
vn 0.000000 -0.000000 1.000000
vn 0.000000 -0.000000 1.000000
s off
g S_S04_08
usemtl SS02_lowSG
f 8/73/1 4/74/2 11/75/3 14/76/4
f 19/77/5 24/78/6 31/79/7 28/80/8
f 27/41/9 32/42/10 13/43/11 12/44/12
f 23/57/13 20/58/14 3/59/15 5/60/16
f 3/59/17 2/63/18 6/64/19 5/60/20
f 2/63/21 37/67/22 38/68/23 6/64/24
f 1/71/25 4/74/26 8/73/27 7/72/28
f 11/75/29 10/55/30 15/56/31 14/76/32
f 10/55/33 33/52/34 34/51/35 15/56/36
f 9/47/37 12/44/38 13/43/39 16/48/40
f 19/77/41 18/69/42 21/70/43 24/78/44
f 18/69/45 39/66/46 40/65/47 21/70/48
f 17/61/49 20/58/50 23/57/51 22/62/52
f 27/41/53 26/45/54 29/46/55 32/42/56
f 26/45/57 35/49/58 36/50/59 29/46/60
f 25/81/61 28/80/62 31/79/63 30/82/64
f 34/51/65 33/52/66 9/47/67 16/48/68
f 36/50/69 35/49/70 25/53/71 30/54/72
f 38/68/73 37/67/74 1/71/75 7/72/76
f 40/65/77 39/66/78 17/61/79 22/62/80
f 1/22/81 10/23/82 11/2/83 4/1/84
f 32/37/85 29/39/86 36/6/87 30/9/88 31/10/89 24/11/90 21/12/91 40/13/92 22/14/93 23/16/94 5/18/95 6/20/96 38/21/97 7/24/98 8/26/99 14/29/100 15/30/101 34/32/102 16/34/103 13/35/104
f 20/8/105 27/5/106 12/7/107 3/15/108
f 37/19/109 33/25/110 10/23/111 1/22/112
f 2/17/113 9/27/114 33/25/115 37/19/116
f 3/15/117 12/7/118 9/27/119 2/17/120
f 17/33/121 26/36/122 27/5/123 20/8/124
f 28/4/125 25/40/126 18/28/127 19/3/128
f 18/28/129 25/40/130 35/38/131 39/31/132
f 39/31/133 35/38/134 26/36/135 17/33/136
