# This file uses centimeters as units for non-parametric coordinates.

mtllib S_S01_05.mtl
g default
v -131.482391 147.716614 12.206909
v -141.214111 141.214081 12.206909
v -147.716644 131.482361 12.206909
v -150.000031 120.002998 12.206909
v -120.003029 150.000000 12.206909
v -150.000031 120.002998 -12.206909
v -147.716644 131.482361 -12.206909
v -141.214111 141.214081 -12.206909
v -131.482391 147.716614 -12.206909
v -120.003029 150.000000 -12.206909
v 147.716614 131.482361 12.206909
v 141.214081 141.214081 12.206909
v 131.482361 147.716614 12.206909
v 120.002998 150.000000 12.206909
v 150.000000 120.002998 12.206909
v 150.000000 120.002998 -12.206909
v 120.002998 150.000000 -12.206909
v 131.482361 147.716614 -12.206909
v 141.214081 141.214081 -12.206909
v 147.716614 131.482361 -12.206909
v -147.716644 -131.482361 12.206909
v -141.214111 -141.214081 12.206909
v -131.482391 -147.716614 12.206909
v -120.003029 -150.000000 12.206909
v -150.000031 -120.002998 12.206909
v -131.482391 -147.716614 -12.206909
v -141.214111 -141.214081 -12.206909
v -147.716644 -131.482361 -12.206909
v -150.000031 -120.002998 -12.206909
v -120.003029 -150.000000 -12.206909
v 131.482361 -147.716614 12.206909
v 141.214081 -141.214081 12.206909
v 147.716614 -131.482361 12.206909
v 150.000000 -120.002998 12.206909
v 120.002998 -150.000000 12.206909
v 147.716614 -131.482361 -12.206909
v 141.214081 -141.214081 -12.206909
v 131.482361 -147.716614 -12.206909
v 120.002998 -150.000000 -12.206909
v 150.000000 -120.002998 -12.206909
vt 0.923471 0.964805
vt 0.652357 0.918803
vt 0.969732 0.693790
vt 0.698617 0.647787
vt 0.674644 0.915879
vt 0.699399 0.964982
vt 0.920690 0.942501
vt 0.969720 0.918040
vt 0.701398 0.670091
vt 0.652368 0.694551
vt 0.947445 0.696714
vt 0.922690 0.647610
vt 0.947862 0.915432
vt 0.701852 0.943085
vt 0.674227 0.697159
vt 0.920236 0.669506
vt 0.456088 0.964901
vt 0.456088 0.947448
vt 0.458269 0.945267
vt 0.475720 0.945265
vt 0.477903 0.947446
vt 0.477904 0.964899
vt 0.475723 0.967081
vt 0.458271 0.967082
vt 0.691460 0.940950
vt 0.682573 0.935775
vt 0.676739 0.926191
vt 0.655813 0.930858
vt 0.476556 0.945431
vt 0.676715 0.958893
vt 0.477264 0.945904
vt 0.659718 0.941360
vt 0.687596 0.962326
vt 0.477737 0.946612
vt 0.945793 0.925804
vt 0.940000 0.935211
vt 0.931061 0.940394
vt 0.935313 0.961585
vt 0.477739 0.965733
vt 0.963256 0.941064
vt 0.477266 0.966442
vt 0.945759 0.957866
vt 0.966995 0.930031
vt 0.476557 0.966914
vt 0.676294 0.686788
vt 0.682088 0.677381
vt 0.691026 0.672198
vt 0.686775 0.651007
vt 0.456254 0.946613
vt 0.658833 0.671528
vt 0.456727 0.945906
vt 0.676329 0.654725
vt 0.655094 0.682561
vt 0.457434 0.945433
vt 0.930628 0.671642
vt 0.939516 0.676817
vt 0.945350 0.686401
vt 0.966276 0.681735
vt 0.457436 0.966916
vt 0.945374 0.653699
vt 0.456728 0.966443
vt 0.962371 0.671232
vt 0.934493 0.650266
vt 0.456255 0.965735
vn -0.009079 0.999959 0.000000
vn -0.009079 0.999959 0.000000
vn 0.009079 0.999959 0.000000
vn 0.009079 0.999959 0.000000
vn -0.009079 -0.999959 0.000000
vn -0.009079 -0.999959 0.000000
vn 0.009079 -0.999959 0.000000
vn 0.009079 -0.999959 0.000000
vn 0.999959 -0.009079 0.000000
vn 0.999959 -0.009079 0.000000
vn 0.999959 0.009079 0.000000
vn 0.999959 0.009079 0.000000
vn -0.999959 -0.009079 0.000000
vn -0.999959 -0.009079 0.000000
vn -0.999959 0.009079 0.000000
vn -0.999959 0.009079 0.000000
vn -0.999959 0.009079 0.000000
vn -0.923880 0.382683 0.000000
vn -0.923880 0.382683 0.000000
vn -0.999959 0.009079 0.000000
vn -0.923880 0.382683 0.000000
vn -0.707107 0.707107 0.000000
vn -0.707107 0.707107 0.000000
vn -0.923880 0.382683 0.000000
vn -0.707107 0.707107 0.000000
vn -0.382684 0.923880 0.000000
vn -0.382684 0.923880 0.000000
vn -0.707107 0.707107 0.000000
vn -0.382684 0.923880 0.000000
vn -0.009079 0.999959 0.000000
vn -0.009079 0.999959 0.000000
vn -0.382684 0.923880 0.000000
vn 0.009079 0.999959 0.000000
vn 0.382684 0.923880 0.000000
vn 0.382684 0.923880 0.000000
vn 0.009079 0.999959 0.000000
vn 0.382684 0.923880 0.000000
vn 0.707107 0.707107 0.000000
vn 0.707107 0.707107 0.000000
vn 0.382684 0.923880 0.000000
vn 0.707107 0.707107 0.000000
vn 0.923880 0.382683 0.000000
vn 0.923880 0.382683 0.000000
vn 0.707107 0.707107 0.000000
vn 0.923880 0.382683 0.000000
vn 0.999959 0.009079 0.000000
vn 0.999959 0.009079 0.000000
vn 0.923880 0.382683 0.000000
vn -0.009079 -0.999959 0.000000
vn -0.382684 -0.923880 0.000000
vn -0.382684 -0.923880 0.000000
vn -0.009079 -0.999959 0.000000
vn -0.382684 -0.923880 0.000000
vn -0.707107 -0.707107 0.000000
vn -0.707107 -0.707107 0.000000
vn -0.382684 -0.923880 0.000000
vn -0.707107 -0.707107 0.000000
vn -0.923880 -0.382683 0.000000
vn -0.923880 -0.382683 0.000000
vn -0.707107 -0.707107 0.000000
vn -0.923880 -0.382683 0.000000
vn -0.999959 -0.009079 0.000000
vn -0.999959 -0.009079 0.000000
vn -0.923880 -0.382683 0.000000
vn 0.999959 -0.009079 0.000000
vn 0.923880 -0.382683 0.000000
vn 0.923880 -0.382683 0.000000
vn 0.999959 -0.009079 0.000000
vn 0.923880 -0.382683 0.000000
vn 0.707107 -0.707107 0.000000
vn 0.707107 -0.707107 0.000000
vn 0.923880 -0.382683 0.000000
vn 0.707107 -0.707107 0.000000
vn 0.382684 -0.923880 0.000000
vn 0.382684 -0.923880 0.000000
vn 0.707107 -0.707107 0.000000
vn 0.382684 -0.923880 0.000000
vn 0.009079 -0.999959 0.000000
vn 0.009079 -0.999959 0.000000
vn 0.382684 -0.923880 0.000000
vn -0.000000 0.000000 -1.000000
vn -0.000000 0.000000 -1.000000
vn 0.000000 0.000000 -1.000000
vn 0.000000 0.000000 -1.000000
vn 0.000000 0.000000 1.000000
vn 0.000000 0.000000 1.000000
vn 0.000000 0.000000 1.000000
vn 0.000000 0.000000 1.000000
vn -0.000000 0.000000 1.000000
vn 0.000000 0.000000 1.000000
vn 0.000000 0.000000 1.000000
vn -0.000000 0.000000 1.000000
vn 0.000000 0.000000 1.000000
vn 0.000000 0.000000 1.000000
vn -0.000000 0.000000 1.000000
vn -0.000000 0.000000 1.000000
vn 0.000000 0.000000 -1.000000
vn 0.000000 0.000000 -1.000000
vn 0.000000 0.000000 -1.000000
vn 0.000000 0.000000 -1.000000
vn 0.000000 0.000000 -1.000000
vn 0.000000 0.000000 -1.000000
vn 0.000000 0.000000 -1.000000
vn 0.000000 0.000000 -1.000000
vn -0.000000 0.000000 1.000000
vn -0.000000 0.000000 1.000000
vn 0.000000 0.000000 1.000000
vn 0.000000 0.000000 1.000000
vn -0.000000 0.000000 1.000000
vn -0.000000 0.000000 1.000000
vn -0.000000 0.000000 1.000000
vn -0.000000 0.000000 1.000000
vn 0.000000 0.000000 1.000000
vn 0.000000 0.000000 1.000000
vn -0.000000 0.000000 1.000000
vn -0.000000 0.000000 1.000000
vn -0.000000 0.000000 1.000000
vn -0.000000 0.000000 1.000000
vn 0.000000 0.000000 1.000000
vn 0.000000 0.000000 1.000000
vn -0.000000 0.000000 1.000000
vn -0.000000 0.000000 1.000000
vn 0.000000 0.000000 1.000000
vn 0.000000 0.000000 1.000000
vn 0.000000 0.000000 1.000000
vn 0.000000 0.000000 1.000000
vn -0.000000 0.000000 1.000000
vn -0.000000 0.000000 1.000000
vn 0.000000 0.000000 -1.000000
vn 0.000000 0.000000 -1.000000
vn -0.000000 0.000000 -1.000000
vn -0.000000 0.000000 -1.000000
vn 0.000000 0.000000 -1.000000
vn 0.000000 0.000000 -1.000000
vn 0.000000 0.000000 -1.000000
vn 0.000000 0.000000 -1.000000
vn -0.000000 0.000000 -1.000000
vn -0.000000 0.000000 -1.000000
vn 0.000000 0.000000 -1.000000
vn 0.000000 0.000000 -1.000000
vn 0.000000 0.000000 -1.000000
vn 0.000000 0.000000 -1.000000
vn -0.000000 0.000000 -1.000000
vn -0.000000 0.000000 -1.000000
vn -0.000000 0.000000 -1.000000
vn -0.000000 0.000000 -1.000000
vn 0.000000 0.000000 -1.000000
vn 0.000000 0.000000 -1.000000
vn -0.000000 0.000000 -1.000000
vn -0.000000 0.000000 -1.000000
vn -0.000000 0.000000 -1.000000
vn -0.000000 0.000000 -1.000000
s off
g S_S01_05
usemtl set1
f 10/6/1 5/14/2 14/7/3 17/1/4
f 24/9/5 30/4/6 39/12/7 35/16/8
f 34/11/9 40/3/10 16/8/11 15/13/12
f 29/10/13 25/15/14 4/5/15 6/2/16
f 4/5/17 3/27/18 7/28/19 6/2/20
f 3/27/21 2/26/22 8/32/23 7/28/24
f 2/26/25 1/25/26 9/33/27 8/30/28
f 1/25/29 5/14/30 10/6/31 9/33/32
f 14/7/33 13/37/34 18/38/35 17/1/36
f 13/37/37 12/36/38 19/42/39 18/38/40
f 12/36/41 11/35/42 20/43/43 19/40/44
f 11/35/45 15/13/46 16/8/47 20/43/48
f 24/9/49 23/47/50 26/48/51 30/4/52
f 23/47/53 22/46/54 27/52/55 26/48/56
f 22/46/57 21/45/58 28/53/59 27/50/60
f 21/45/61 25/15/62 29/10/63 28/53/64
f 34/11/65 33/57/66 36/58/67 40/3/68
f 33/57/69 32/56/70 37/62/71 36/58/72
f 32/56/73 31/55/74 38/63/75 37/60/76
f 31/55/77 35/16/78 39/12/79 38/63/80
f 26/49/81 9/34/82 10/21/83 30/18/84
f 13/37/85 31/55/86 32/56/87 12/36/88
f 14/7/89 5/14/90 24/9/91 35/16/92
f 24/9/93 5/14/94 1/25/95 23/47/96
f 17/22/97 18/39/98 38/64/99 39/17/100
f 17/22/101 39/17/102 30/18/103 10/21/104
f 22/46/105 2/26/106 3/27/107 21/45/108
f 23/47/109 1/25/110 2/26/111 22/46/112
f 21/45/113 3/27/114 4/5/115 25/15/116
f 14/7/117 35/16/118 31/55/119 13/37/120
f 11/35/121 33/57/122 34/11/123 15/13/124
f 12/36/125 32/56/126 33/57/127 11/35/128
f 37/61/129 19/41/130 20/44/131 36/59/132
f 38/64/133 18/39/134 19/41/135 37/61/136
f 36/59/137 20/44/138 16/23/139 40/24/140
f 7/29/141 28/54/142 29/19/143 6/20/144
f 8/31/145 27/51/146 28/54/147 7/29/148
f 8/31/149 9/34/150 26/49/151 27/51/152
