# This file uses centimeters as units for non-parametric coordinates.

mtllib S_S03_03.mtl
g default
v 124.500000 -128.000610 11.250113
v 120.300377 -135.000031 11.250113
v 121.907501 -134.467194 11.250113
v 123.269951 -132.949951 11.250113
v 124.180336 -130.679153 11.250113
v 83.699623 -135.000031 11.250113
v 82.092499 -134.467194 11.250113
v 80.730049 -132.949951 11.250113
v 79.819672 -130.679153 11.250113
v 79.500000 -128.000610 11.250113
v 120.300377 135.000031 11.250113
v 124.500000 128.000610 11.250113
v 124.180336 130.679153 11.250113
v 123.269951 132.949951 11.250113
v 121.907501 134.467194 11.250113
v 79.500000 128.000610 11.250113
v 79.819672 130.679153 11.250113
v 80.730049 132.949951 11.250113
v 82.092499 134.467194 11.250113
v 83.699623 135.000031 11.250113
v 83.699623 135.000031 -11.250113
v 79.500000 128.000610 -11.250113
v 79.819672 130.679153 -11.250113
v 80.730049 132.949951 -11.250113
v 82.092499 134.467194 -11.250113
v 124.500000 128.000610 -11.250113
v 120.300377 135.000031 -11.250113
v 121.907501 134.467194 -11.250113
v 123.269951 132.949951 -11.250113
v 124.180336 130.679153 -11.250113
v 120.300377 -135.000031 -11.250113
v 124.500000 -128.000610 -11.250113
v 124.180336 -130.679153 -11.250113
v 123.269951 -132.949951 -11.250113
v 121.907501 -134.467194 -11.250113
v 79.500000 -128.000610 -11.250113
v 79.819672 -130.679153 -11.250113
v 80.730049 -132.949951 -11.250113
v 82.092499 -134.467194 -11.250113
v 83.699623 -135.000031 -11.250113
v 172.500000 -128.000610 11.250113
v 168.300354 -135.000031 11.250113
v 169.907486 -134.467194 11.250113
v 171.269943 -132.949951 11.250113
v 172.180313 -130.679153 11.250113
v 131.699631 -135.000031 11.250113
v 130.092499 -134.467194 11.250113
v 128.730057 -132.949951 11.250113
v 127.819679 -130.679153 11.250113
v 127.500000 -128.000610 11.250113
v 168.300354 135.000031 11.250113
v 172.500000 128.000610 11.250113
v 172.180313 130.679153 11.250113
v 171.269943 132.949951 11.250113
v 169.907486 134.467194 11.250113
v 127.500000 128.000610 11.250113
v 127.819679 130.679153 11.250113
v 128.730057 132.949951 11.250113
v 130.092499 134.467194 11.250113
v 131.699631 135.000031 11.250113
v 131.699631 135.000031 -11.250113
v 127.500000 128.000610 -11.250113
v 127.819679 130.679153 -11.250113
v 128.730057 132.949951 -11.250113
v 130.092499 134.467194 -11.250113
v 172.500000 128.000610 -11.250113
v 168.300354 135.000031 -11.250113
v 169.907486 134.467194 -11.250113
v 171.269943 132.949951 -11.250113
v 172.180313 130.679153 -11.250113
v 168.300354 -135.000031 -11.250113
v 172.500000 -128.000610 -11.250113
v 172.180313 -130.679153 -11.250113
v 171.269943 -132.949951 -11.250113
v 169.907486 -134.467194 -11.250113
v 127.500000 -128.000610 -11.250113
v 127.819679 -130.679153 -11.250113
v 128.730057 -132.949951 -11.250113
v 130.092499 -134.467194 -11.250113
v 131.699631 -135.000031 -11.250113
v 220.500000 -128.000610 11.250113
v 216.300369 -135.000031 11.250113
v 217.907501 -134.467194 11.250113
v 219.269943 -132.949951 11.250113
v 220.180344 -130.679153 11.250113
v 179.699646 -135.000031 11.250113
v 178.092499 -134.467194 11.250113
v 176.730042 -132.949951 11.250113
v 175.819687 -130.679153 11.250113
v 175.500000 -128.000610 11.250113
v 216.300369 135.000031 11.250113
v 220.500000 128.000610 11.250113
v 220.180344 130.679153 11.250113
v 219.269943 132.949951 11.250113
v 217.907501 134.467194 11.250113
v 175.500000 128.000610 11.250113
v 175.819687 130.679153 11.250113
v 176.730042 132.949951 11.250113
v 178.092499 134.467194 11.250113
v 179.699646 135.000031 11.250113
v 179.699646 135.000031 -11.250113
v 175.500000 128.000610 -11.250113
v 175.819687 130.679153 -11.250113
v 176.730042 132.949951 -11.250113
v 178.092499 134.467194 -11.250113
v 220.500000 128.000610 -11.250113
v 216.300369 135.000031 -11.250113
v 217.907501 134.467194 -11.250113
v 219.269943 132.949951 -11.250113
v 220.180344 130.679153 -11.250113
v 216.300369 -135.000031 -11.250113
v 220.500000 -128.000610 -11.250113
v 220.180344 -130.679153 -11.250113
v 219.269943 -132.949951 -11.250113
v 217.907501 -134.467194 -11.250113
v 175.500000 -128.000610 -11.250113
v 175.819687 -130.679153 -11.250113
v 176.730042 -132.949951 -11.250113
v 178.092499 -134.467194 -11.250113
v 179.699646 -135.000031 -11.250113
v -175.500000 -128.000610 11.250113
v -179.699646 -135.000031 11.250113
v -178.092499 -134.467194 11.250113
v -176.730042 -132.949951 11.250113
v -175.819687 -130.679153 11.250113
v -216.300369 -135.000031 11.250113
v -217.907501 -134.467194 11.250113
v -219.269943 -132.949951 11.250113
v -220.180344 -130.679153 11.250113
v -220.500000 -128.000610 11.250113
v -179.699646 135.000031 11.250113
v -175.500000 128.000610 11.250113
v -175.819687 130.679153 11.250113
v -176.730042 132.949951 11.250113
v -178.092499 134.467194 11.250113
v -220.500000 128.000610 11.250113
v -220.180344 130.679153 11.250113
v -219.269943 132.949951 11.250113
v -217.907501 134.467194 11.250113
v -216.300369 135.000031 11.250113
v -216.300369 135.000031 -11.250113
v -220.500000 128.000610 -11.250113
v -220.180344 130.679153 -11.250113
v -219.269943 132.949951 -11.250113
v -217.907501 134.467194 -11.250113
v -175.500000 128.000610 -11.250113
v -179.699646 135.000031 -11.250113
v -178.092499 134.467194 -11.250113
v -176.730042 132.949951 -11.250113
v -175.819687 130.679153 -11.250113
v -179.699646 -135.000031 -11.250113
v -175.500000 -128.000610 -11.250113
v -175.819687 -130.679153 -11.250113
v -176.730042 -132.949951 -11.250113
v -178.092499 -134.467194 -11.250113
v -220.500000 -128.000610 -11.250113
v -220.180344 -130.679153 -11.250113
v -219.269943 -132.949951 -11.250113
v -217.907501 -134.467194 -11.250113
v -216.300369 -135.000031 -11.250113
v -127.500000 -128.000610 11.250113
v -131.699631 -135.000031 11.250113
v -130.092499 -134.467194 11.250113
v -128.730057 -132.949951 11.250113
v -127.819679 -130.679153 11.250113
v -168.300354 -135.000031 11.250113
v -169.907486 -134.467194 11.250113
v -171.269943 -132.949951 11.250113
v -172.180313 -130.679153 11.250113
v -172.500000 -128.000610 11.250113
v -131.699631 135.000031 11.250113
v -127.500000 128.000610 11.250113
v -127.819679 130.679153 11.250113
v -128.730057 132.949951 11.250113
v -130.092499 134.467194 11.250113
v -172.500000 128.000610 11.250113
v -172.180313 130.679153 11.250113
v -171.269943 132.949951 11.250113
v -169.907486 134.467194 11.250113
v -168.300354 135.000031 11.250113
v -168.300354 135.000031 -11.250113
v -172.500000 128.000610 -11.250113
v -172.180313 130.679153 -11.250113
v -171.269943 132.949951 -11.250113
v -169.907486 134.467194 -11.250113
v -127.500000 128.000610 -11.250113
v -131.699631 135.000031 -11.250113
v -130.092499 134.467194 -11.250113
v -128.730057 132.949951 -11.250113
v -127.819679 130.679153 -11.250113
v -131.699631 -135.000031 -11.250113
v -127.500000 -128.000610 -11.250113
v -127.819679 -130.679153 -11.250113
v -128.730057 -132.949951 -11.250113
v -130.092499 -134.467194 -11.250113
v -172.500000 -128.000610 -11.250113
v -172.180313 -130.679153 -11.250113
v -171.269943 -132.949951 -11.250113
v -169.907486 -134.467194 -11.250113
v -168.300354 -135.000031 -11.250113
v -79.500000 -128.000610 11.250113
v -83.699623 -135.000031 11.250113
v -82.092499 -134.467194 11.250113
v -80.730049 -132.949951 11.250113
v -79.819672 -130.679153 11.250113
v -120.300377 -135.000031 11.250113
v -121.907501 -134.467194 11.250113
v -123.269951 -132.949951 11.250113
v -124.180336 -130.679153 11.250113
v -124.500000 -128.000610 11.250113
v -83.699623 135.000031 11.250113
v -79.500000 128.000610 11.250113
v -79.819672 130.679153 11.250113
v -80.730049 132.949951 11.250113
v -82.092499 134.467194 11.250113
v -124.500000 128.000610 11.250113
v -124.180336 130.679153 11.250113
v -123.269951 132.949951 11.250113
v -121.907501 134.467194 11.250113
v -120.300377 135.000031 11.250113
v -120.300377 135.000031 -11.250113
v -124.500000 128.000610 -11.250113
v -124.180336 130.679153 -11.250113
v -123.269951 132.949951 -11.250113
v -121.907501 134.467194 -11.250113
v -79.500000 128.000610 -11.250113
v -83.699623 135.000031 -11.250113
v -82.092499 134.467194 -11.250113
v -80.730049 132.949951 -11.250113
v -79.819672 130.679153 -11.250113
v -83.699623 -135.000031 -11.250113
v -79.500000 -128.000610 -11.250113
v -79.819672 -130.679153 -11.250113
v -80.730049 -132.949951 -11.250113
v -82.092499 -134.467194 -11.250113
v -124.500000 -128.000610 -11.250113
v -124.180336 -130.679153 -11.250113
v -123.269951 -132.949951 -11.250113
v -121.907501 -134.467194 -11.250113
v -120.300377 -135.000031 -11.250113
v -25.500000 -128.000610 11.250113
v -29.699627 -135.000031 11.250113
v -28.092499 -134.467194 11.250113
v -26.730042 -132.949951 11.250113
v -25.819675 -130.679153 11.250113
v -66.300369 -135.000031 11.250113
v -67.907501 -134.467194 11.250113
v -69.269958 -132.949951 11.250113
v -70.180328 -130.679153 11.250113
v -70.499992 -128.000610 11.250113
v -29.699627 135.000031 11.250113
v -25.500000 128.000610 11.250113
v -25.819675 130.679153 11.250113
v -26.730042 132.949951 11.250113
v -28.092499 134.467194 11.250113
v -70.499992 128.000610 11.250113
v -70.180328 130.679153 11.250113
v -69.269958 132.949951 11.250113
v -67.907501 134.467194 11.250113
v -66.300369 135.000031 11.250113
v -66.300369 135.000031 -11.250113
v -70.499992 128.000610 -11.250113
v -70.180328 130.679153 -11.250113
v -69.269958 132.949951 -11.250113
v -67.907501 134.467194 -11.250113
v -25.500000 128.000610 -11.250113
v -29.699627 135.000031 -11.250113
v -28.092499 134.467194 -11.250113
v -26.730042 132.949951 -11.250113
v -25.819675 130.679153 -11.250113
v -29.699627 -135.000031 -11.250113
v -25.500000 -128.000610 -11.250113
v -25.819675 -130.679153 -11.250113
v -26.730042 -132.949951 -11.250113
v -28.092499 -134.467194 -11.250113
v -70.499992 -128.000610 -11.250113
v -70.180328 -130.679153 -11.250113
v -69.269958 -132.949951 -11.250113
v -67.907501 -134.467194 -11.250113
v -66.300369 -135.000031 -11.250113
v 22.500000 -128.000610 11.250113
v 18.300373 -135.000031 11.250113
v 19.907501 -134.467194 11.250113
v 21.269957 -132.949951 11.250113
v 22.180325 -130.679153 11.250113
v -18.300373 -135.000031 11.250113
v -19.907501 -134.467194 11.250113
v -21.269957 -132.949951 11.250113
v -22.180325 -130.679153 11.250113
v -22.500000 -128.000610 11.250113
v 18.300373 135.000031 11.250113
v 22.500000 128.000610 11.250113
v 22.180325 130.679153 11.250113
v 21.269957 132.949951 11.250113
v 19.907501 134.467194 11.250113
v -22.500000 128.000610 11.250113
v -22.180325 130.679153 11.250113
v -21.269957 132.949951 11.250113
v -19.907501 134.467194 11.250113
v -18.300373 135.000031 11.250113
v -18.300373 135.000031 -11.250113
v -22.500000 128.000610 -11.250113
v -22.180325 130.679153 -11.250113
v -21.269957 132.949951 -11.250113
v -19.907501 134.467194 -11.250113
v 22.500000 128.000610 -11.250113
v 18.300373 135.000031 -11.250113
v 19.907501 134.467194 -11.250113
v 21.269957 132.949951 -11.250113
v 22.180325 130.679153 -11.250113
v 18.300373 -135.000031 -11.250113
v 22.500000 -128.000610 -11.250113
v 22.180325 -130.679153 -11.250113
v 21.269957 -132.949951 -11.250113
v 19.907501 -134.467194 -11.250113
v -22.500000 -128.000610 -11.250113
v -22.180325 -130.679153 -11.250113
v -21.269957 -132.949951 -11.250113
v -19.907501 -134.467194 -11.250113
v -18.300373 -135.000031 -11.250113
v 70.499992 -128.000610 11.250113
v 66.300369 -135.000031 11.250113
v 67.907501 -134.467194 11.250113
v 69.269958 -132.949951 11.250113
v 70.180328 -130.679153 11.250113
v 29.699627 -135.000031 11.250113
v 28.092499 -134.467194 11.250113
v 26.730042 -132.949951 11.250113
v 25.819675 -130.679153 11.250113
v 25.500000 -128.000610 11.250113
v 66.300369 135.000031 11.250113
v 70.499992 128.000610 11.250113
v 70.180328 130.679153 11.250113
v 69.269958 132.949951 11.250113
v 67.907501 134.467194 11.250113
v 25.500000 128.000610 11.250113
v 25.819675 130.679153 11.250113
v 26.730042 132.949951 11.250113
v 28.092499 134.467194 11.250113
v 29.699627 135.000031 11.250113
v 29.699627 135.000031 -11.250113
v 25.500000 128.000610 -11.250113
v 25.819675 130.679153 -11.250113
v 26.730042 132.949951 -11.250113
v 28.092499 134.467194 -11.250113
v 70.499992 128.000610 -11.250113
v 66.300369 135.000031 -11.250113
v 67.907501 134.467194 -11.250113
v 69.269958 132.949951 -11.250113
v 70.180328 130.679153 -11.250113
v 66.300369 -135.000031 -11.250113
v 70.499992 -128.000610 -11.250113
v 70.180328 -130.679153 -11.250113
v 69.269958 -132.949951 -11.250113
v 67.907501 -134.467194 -11.250113
v 25.500000 -128.000610 -11.250113
v 25.819675 -130.679153 -11.250113
v 26.730042 -132.949951 -11.250113
v 28.092499 -134.467194 -11.250113
v 29.699627 -135.000031 -11.250113
vt 0.434542 0.812410
vt 0.435063 0.813559
vt 0.597625 0.972298
vt 0.597937 0.971778
vt 0.597940 0.991853
vt 0.597625 0.991332
vt 0.600658 0.971778
vt 0.433842 0.811441
vt 0.600973 0.991332
vt 0.433049 0.810759
vt 0.432133 0.810484
vt 0.410192 0.811741
vt 0.409650 0.813017
vt 0.410886 0.810625
vt 0.411654 0.809850
vt 0.412538 0.809569
vt 0.433807 0.956270
vt 0.432920 0.956549
vt 0.434577 0.955496
vt 0.435271 0.954382
vt 0.435815 0.953085
vt 0.412404 0.955332
vt 0.413319 0.955608
vt 0.411613 0.954648
vt 0.410915 0.953677
vt 0.600970 0.972298
vt 0.600661 0.991852
vt 0.410400 0.952550
vt 0.438724 0.964701
vt 0.406539 0.965646
vt 0.406714 0.801427
vt 0.438899 0.800438
vt 0.446454 0.806568
vt 0.446430 0.959367
vt 0.399020 0.806757
vt 0.398995 0.959517
vt 0.401246 0.961476
vt 0.403312 0.963179
vt 0.405067 0.964547
vt 0.440263 0.963769
vt 0.442068 0.962592
vt 0.444167 0.961101
vt 0.597648 0.972099
vt 0.597716 0.971931
vt 0.597818 0.971818
vt 0.600778 0.971817
vt 0.600878 0.971930
vt 0.600946 0.972099
vt 0.600950 0.991531
vt 0.600881 0.991700
vt 0.600780 0.991812
vt 0.597651 0.991531
vt 0.597719 0.991700
vt 0.444201 0.804608
vt 0.597819 0.991813
vt 0.442131 0.802904
vt 0.440375 0.801537
vt 0.405176 0.802359
vt 0.403376 0.803535
vt 0.401280 0.805025
vt 0.963921 0.326292
vt 0.983617 0.327226
vt 0.989401 0.335393
vt 0.957148 0.336328
vt 0.957317 0.172096
vt 0.989491 0.171104
vt 0.982726 0.181152
vt 0.963139 0.180238
vt 0.985657 0.184225
vt 0.997043 0.177230
vt 0.997064 0.330003
vt 0.986437 0.323745
vt 0.949624 0.177424
vt 0.960252 0.183685
vt 0.961033 0.323224
vt 0.949623 0.330172
vt 0.985910 0.325047
vt 0.961530 0.324360
vt 0.590001 0.971967
vt 0.590025 0.971767
vt 0.593322 0.971767
vt 0.593347 0.971966
vt 0.951867 0.332136
vt 0.962207 0.325338
vt 0.953928 0.333845
vt 0.962976 0.326026
vt 0.955680 0.335220
vt 0.984484 0.326942
vt 0.990933 0.334444
vt 0.985235 0.326165
vt 0.992728 0.333250
vt 0.994814 0.331746
vt 0.985136 0.183078
vt 0.994790 0.175272
vt 0.984435 0.182108
vt 0.992721 0.173569
vt 0.983642 0.181426
vt 0.990965 0.172202
vt 0.962254 0.180518
vt 0.955780 0.173027
vt 0.961486 0.181294
vt 0.953979 0.174203
vt 0.960794 0.182410
vt 0.951884 0.175692
vt 0.593349 0.990999
vt 0.590003 0.991000
vt 0.593153 0.971486
vt 0.590194 0.971486
vt 0.590314 0.971446
vt 0.593034 0.971446
vt 0.590092 0.971598
vt 0.593255 0.971598
vt 0.590027 0.991199
vt 0.593325 0.991199
vt 0.593258 0.991368
vt 0.590095 0.991368
vt 0.590196 0.991481
vt 0.593156 0.991480
vt 0.593037 0.991520
vt 0.590316 0.991520
vt 0.360129 0.955660
vt 0.379827 0.956575
vt 0.385629 0.964738
vt 0.353384 0.965702
vt 0.353556 0.801454
vt 0.385731 0.800462
vt 0.378964 0.810510
vt 0.359379 0.809597
vt 0.381896 0.813584
vt 0.393282 0.806589
vt 0.393312 0.959363
vt 0.382688 0.953103
vt 0.345864 0.806782
vt 0.356491 0.813043
vt 0.357281 0.952583
vt 0.345870 0.959530
vt 0.382164 0.954407
vt 0.357780 0.953716
vt 0.537221 0.972213
vt 0.537245 0.972014
vt 0.540543 0.972013
vt 0.540567 0.972213
vt 0.348109 0.961496
vt 0.358460 0.954692
vt 0.350167 0.963210
vt 0.359231 0.955379
vt 0.351915 0.964590
vt 0.380745 0.956306
vt 0.387166 0.963794
vt 0.381492 0.955527
vt 0.388966 0.962605
vt 0.391058 0.961104
vt 0.381375 0.812436
vt 0.391029 0.804630
vt 0.380675 0.811467
vt 0.388961 0.802927
vt 0.379881 0.810785
vt 0.387205 0.801561
vt 0.358494 0.809877
vt 0.352020 0.802385
vt 0.357726 0.810653
vt 0.350219 0.803561
vt 0.357033 0.811768
vt 0.348124 0.805050
vt 0.540568 0.991249
vt 0.537223 0.991250
vt 0.540374 0.971732
vt 0.537414 0.971732
vt 0.537534 0.971692
vt 0.540254 0.971692
vt 0.537312 0.971845
vt 0.540475 0.971845
vt 0.537246 0.991449
vt 0.540545 0.991448
vt 0.540477 0.991617
vt 0.537314 0.991617
vt 0.537415 0.991730
vt 0.540376 0.991730
vt 0.540256 0.991770
vt 0.537535 0.991770
vt 0.133192 0.874475
vt 0.152792 0.875417
vt 0.158588 0.883572
vt 0.126407 0.884512
vt 0.126505 0.720311
vt 0.158739 0.719263
vt 0.152003 0.729337
vt 0.132376 0.728439
vt 0.154897 0.732429
vt 0.166280 0.725430
vt 0.166299 0.878241
vt 0.155687 0.871953
vt 0.118851 0.725656
vt 0.129492 0.731895
vt 0.130273 0.871417
vt 0.118869 0.878383
vt 0.155143 0.873250
vt 0.130788 0.872545
vt 0.517868 0.966105
vt 0.517892 0.965906
vt 0.521190 0.965905
vt 0.521214 0.966104
vt 0.121118 0.880342
vt 0.131487 0.873515
vt 0.123182 0.882045
vt 0.132277 0.874199
vt 0.124935 0.883412
vt 0.153678 0.875139
vt 0.160129 0.882641
vt 0.154449 0.874364
vt 0.161934 0.881465
vt 0.164034 0.879974
vt 0.154384 0.731275
vt 0.164056 0.723441
vt 0.153693 0.730300
vt 0.162010 0.721703
vt 0.152910 0.729616
vt 0.160232 0.720348
vt 0.131491 0.728721
vt 0.124978 0.721251
vt 0.130725 0.729499
vt 0.123187 0.722433
vt 0.130033 0.730617
vt 0.121101 0.723925
vt 0.521218 0.985137
vt 0.517871 0.985137
vt 0.521021 0.965624
vt 0.518062 0.965624
vt 0.518181 0.965584
vt 0.520902 0.965584
vt 0.517960 0.965737
vt 0.521122 0.965736
vt 0.517896 0.985337
vt 0.521193 0.985336
vt 0.521126 0.985505
vt 0.517963 0.985505
vt 0.518065 0.985618
vt 0.521025 0.985618
vt 0.520905 0.985657
vt 0.518184 0.985658
vt 0.959118 0.666692
vt 0.978720 0.667633
vt 0.984516 0.675786
vt 0.952332 0.676729
vt 0.952512 0.512510
vt 0.984698 0.511523
vt 0.977924 0.521568
vt 0.958330 0.520653
vt 0.980855 0.524642
vt 0.992247 0.517653
vt 0.992228 0.670453
vt 0.981613 0.664169
vt 0.944813 0.517840
vt 0.955443 0.524101
vt 0.956198 0.663635
vt 0.944793 0.670600
vt 0.981070 0.665465
vt 0.956714 0.664762
vt 0.541326 0.972329
vt 0.541350 0.972129
vt 0.544648 0.972130
vt 0.544673 0.972329
vt 0.947042 0.672558
vt 0.957412 0.665733
vt 0.949106 0.674262
vt 0.958203 0.666416
vt 0.950860 0.675629
vt 0.979605 0.667354
vt 0.986057 0.674855
vt 0.980376 0.666580
vt 0.987862 0.673678
vt 0.989963 0.672187
vt 0.980334 0.523494
vt 0.989995 0.515694
vt 0.979634 0.522525
vt 0.987927 0.513990
vt 0.978840 0.521843
vt 0.986172 0.512623
vt 0.957445 0.520934
vt 0.950974 0.513441
vt 0.956677 0.521710
vt 0.949171 0.514617
vt 0.955985 0.522826
vt 0.947074 0.516107
vt 0.544672 0.991363
vt 0.541326 0.991363
vt 0.544479 0.971848
vt 0.541520 0.971848
vt 0.541639 0.971808
vt 0.544361 0.971808
vt 0.541417 0.971961
vt 0.544581 0.971961
vt 0.541350 0.991562
vt 0.544648 0.991562
vt 0.544581 0.991731
vt 0.541418 0.991731
vt 0.541519 0.991843
vt 0.544479 0.991844
vt 0.544359 0.991883
vt 0.541639 0.991883
vt 0.094533 0.489124
vt 0.114136 0.490064
vt 0.119938 0.498216
vt 0.087750 0.499160
vt 0.087931 0.334943
vt 0.120117 0.333947
vt 0.113354 0.343996
vt 0.093759 0.343084
vt 0.116283 0.347070
vt 0.127674 0.340080
vt 0.127646 0.492883
vt 0.117031 0.486600
vt 0.080240 0.340274
vt 0.090872 0.346531
vt 0.091617 0.486064
vt 0.080211 0.493024
vt 0.116487 0.487897
vt 0.092131 0.487192
vt 0.585896 0.972316
vt 0.585920 0.972116
vt 0.589218 0.972116
vt 0.589242 0.972316
vt 0.082459 0.494985
vt 0.092828 0.488163
vt 0.084524 0.496690
vt 0.093617 0.488847
vt 0.086277 0.498059
vt 0.115022 0.489785
vt 0.121478 0.497285
vt 0.115793 0.489011
vt 0.123282 0.496107
vt 0.125381 0.494616
vt 0.115762 0.345922
vt 0.125424 0.338116
vt 0.115063 0.344952
vt 0.123353 0.336412
vt 0.114270 0.344270
vt 0.121594 0.335046
vt 0.092874 0.343364
vt 0.086395 0.335875
vt 0.092106 0.344140
vt 0.084595 0.337052
vt 0.091414 0.345256
vt 0.082500 0.338542
vt 0.589243 0.991349
vt 0.585897 0.991349
vt 0.589049 0.971834
vt 0.586089 0.971835
vt 0.586208 0.971795
vt 0.588929 0.971795
vt 0.585988 0.971948
vt 0.589150 0.971947
vt 0.585921 0.991548
vt 0.589218 0.991548
vt 0.589152 0.991717
vt 0.585988 0.991717
vt 0.586090 0.991830
vt 0.589050 0.991830
vt 0.588930 0.991869
vt 0.586209 0.991870
vt 0.949457 0.498813
vt 0.969056 0.499757
vt 0.974857 0.507908
vt 0.942672 0.508849
vt 0.942850 0.344629
vt 0.975037 0.343643
vt 0.968265 0.353688
vt 0.948672 0.352771
vt 0.971195 0.356762
vt 0.982587 0.349775
vt 0.982568 0.502572
vt 0.971951 0.496293
vt 0.935153 0.349962
vt 0.945785 0.356217
vt 0.946537 0.495756
vt 0.935133 0.502719
vt 0.971407 0.497590
vt 0.947053 0.496883
vt 0.604076 0.868229
vt 0.604099 0.868030
vt 0.607398 0.868029
vt 0.607422 0.868227
vt 0.937382 0.504678
vt 0.947751 0.497853
vt 0.939446 0.506382
vt 0.948542 0.498537
vt 0.941200 0.507749
vt 0.969942 0.499478
vt 0.976398 0.506976
vt 0.970713 0.498704
vt 0.978203 0.505798
vt 0.980303 0.504306
vt 0.970675 0.355614
vt 0.980335 0.347815
vt 0.969974 0.354645
vt 0.978267 0.346110
vt 0.969181 0.353962
vt 0.976511 0.344743
vt 0.947788 0.353051
vt 0.941312 0.345560
vt 0.947019 0.353826
vt 0.939510 0.346737
vt 0.946327 0.354942
vt 0.937414 0.348228
vt 0.607432 0.887261
vt 0.604086 0.887263
vt 0.607229 0.867747
vt 0.604269 0.867748
vt 0.604388 0.867709
vt 0.607109 0.867707
vt 0.604168 0.867861
vt 0.607330 0.867860
vt 0.604110 0.887462
vt 0.607409 0.887461
vt 0.607341 0.887629
vt 0.604177 0.887631
vt 0.604278 0.887744
vt 0.607240 0.887742
vt 0.607120 0.887782
vt 0.604399 0.887784
vt 0.963949 0.158106
vt 0.983551 0.159052
vt 0.989343 0.167209
vt 0.957155 0.168138
vt 0.957326 0.003932
vt 0.989516 0.002930
vt 0.982750 0.012978
vt 0.963155 0.012071
vt 0.985680 0.016053
vt 0.997070 0.009063
vt 0.997057 0.161871
vt 0.986443 0.155587
vt 0.949636 0.009265
vt 0.960268 0.015520
vt 0.961031 0.155048
vt 0.949623 0.162008
vt 0.985900 0.156884
vt 0.961546 0.156175
vt 0.548950 0.943513
vt 0.548974 0.943315
vt 0.552272 0.943314
vt 0.552295 0.943513
vt 0.951870 0.163966
vt 0.962244 0.157146
vt 0.953933 0.165670
vt 0.963034 0.157829
vt 0.955685 0.167038
vt 0.984436 0.158773
vt 0.990886 0.166280
vt 0.985206 0.157999
vt 0.992695 0.165105
vt 0.994794 0.163610
vt 0.985159 0.014905
vt 0.994817 0.007103
vt 0.984458 0.013936
vt 0.992748 0.005398
vt 0.983666 0.013253
vt 0.990991 0.004030
vt 0.962270 0.012352
vt 0.955790 0.004864
vt 0.961502 0.013128
vt 0.953989 0.006042
vt 0.960810 0.014244
vt 0.951895 0.007532
vt 0.552300 0.962547
vt 0.548954 0.962548
vt 0.552103 0.943032
vt 0.549142 0.943033
vt 0.549262 0.942993
vt 0.551983 0.942993
vt 0.549041 0.943146
vt 0.552205 0.943145
vt 0.548978 0.962746
vt 0.552276 0.962746
vt 0.552208 0.962915
vt 0.549045 0.962915
vt 0.549146 0.963028
vt 0.552107 0.963027
vt 0.551988 0.963067
vt 0.549266 0.963068
vt 0.307032 0.955671
vt 0.326728 0.956609
vt 0.332511 0.964779
vt 0.300257 0.965706
vt 0.300462 0.801474
vt 0.332636 0.800489
vt 0.325869 0.810535
vt 0.306282 0.809617
vt 0.328800 0.813610
vt 0.340187 0.806617
vt 0.340175 0.959389
vt 0.329550 0.953129
vt 0.292769 0.806800
vt 0.303395 0.813063
vt 0.304145 0.952603
vt 0.292734 0.959548
vt 0.329023 0.954431
vt 0.304642 0.953739
vt 0.489132 0.972086
vt 0.489157 0.971886
vt 0.492454 0.971886
vt 0.492478 0.972086
vt 0.294977 0.961512
vt 0.305319 0.954717
vt 0.297038 0.963223
vt 0.306088 0.955405
vt 0.298789 0.964598
vt 0.327595 0.956326
vt 0.334043 0.963829
vt 0.328346 0.955550
vt 0.335838 0.962636
vt 0.337925 0.961132
vt 0.328279 0.812462
vt 0.337935 0.804658
vt 0.327578 0.811493
vt 0.335867 0.802955
vt 0.326786 0.810810
vt 0.334111 0.801588
vt 0.305398 0.809898
vt 0.298925 0.802405
vt 0.304629 0.810673
vt 0.297124 0.803581
vt 0.303937 0.811789
vt 0.295029 0.805069
vt 0.492480 0.991120
vt 0.489134 0.991121
vt 0.492286 0.971605
vt 0.489325 0.971605
vt 0.489444 0.971565
vt 0.492166 0.971565
vt 0.489224 0.971718
vt 0.492387 0.971717
vt 0.489159 0.991320
vt 0.492456 0.991320
vt 0.492389 0.991489
vt 0.489225 0.991489
vt 0.489327 0.991602
vt 0.492288 0.991601
vt 0.492169 0.991641
vt 0.489447 0.991641
vn -0.013944 0.999903 0.000000
vn 0.013944 0.999903 0.000000
vn 0.013944 0.999903 0.000000
vn -0.013944 0.999903 0.000000
vn -0.013944 -0.999903 0.000000
vn 0.013944 -0.999903 0.000000
vn 0.013944 -0.999903 0.000000
vn -0.013944 -0.999903 0.000000
vn 0.999999 -0.001236 0.000000
vn 0.999999 -0.001236 0.000000
vn 0.999999 0.001236 0.000000
vn 0.999999 0.001236 0.000000
vn -0.999999 -0.001236 0.000000
vn -0.999999 -0.001236 0.000000
vn -0.999999 0.001236 0.000000
vn -0.999999 0.001236 0.000000
vn 0.000000 0.000000 1.000000
vn 0.000000 0.000000 1.000000
vn 0.000000 0.000000 1.000000
vn 0.000000 0.000000 1.000000
vn 0.000000 0.000000 -1.000000
vn 0.000000 0.000000 -1.000000
vn 0.000000 0.000000 -1.000000
vn 0.000000 0.000000 -1.000000
vn -0.970478 0.241191 0.000000
vn -0.970478 0.241191 0.000000
vn -0.857493 0.514497 0.000000
vn -0.857493 0.514497 0.000000
vn -0.568127 0.822941 0.000000
vn -0.568127 0.822941 0.000000
vn 0.568128 0.822940 0.000000
vn 0.568128 0.822940 0.000000
vn 0.857493 0.514497 0.000000
vn 0.857493 0.514497 0.000000
vn 0.970478 0.241192 0.000000
vn 0.970478 0.241192 0.000000
vn 0.970478 -0.241192 0.000000
vn 0.970478 -0.241192 0.000000
vn 0.857493 -0.514497 0.000000
vn 0.857493 -0.514497 0.000000
vn 0.568128 -0.822940 0.000000
vn 0.568128 -0.822940 0.000000
vn -0.568127 -0.822941 0.000000
vn -0.568127 -0.822941 0.000000
vn -0.857493 -0.514497 0.000000
vn -0.857493 -0.514497 0.000000
vn -0.970478 -0.241191 0.000000
vn -0.970478 -0.241191 0.000000
vn 0.000000 0.000000 -1.000000
vn 0.000000 0.000000 -1.000000
vn 0.000000 0.000000 -1.000000
vn 0.000000 0.000000 -1.000000
vn 0.000000 0.000000 -1.000000
vn 0.000000 0.000000 -1.000000
vn 0.000000 0.000000 -1.000000
vn 0.000000 0.000000 -1.000000
vn 0.000000 0.000000 -1.000000
vn 0.000000 0.000000 -1.000000
vn 0.000000 0.000000 -1.000000
vn 0.000000 0.000000 -1.000000
vn 0.000000 0.000000 -1.000000
vn 0.000000 0.000000 -1.000000
vn 0.000000 0.000000 -1.000000
vn 0.000000 0.000000 -1.000000
vn 0.000000 0.000000 1.000000
vn 0.000000 0.000000 1.000000
vn 0.000000 0.000000 1.000000
vn 0.000000 0.000000 1.000000
vn 0.000000 0.000000 1.000000
vn 0.000000 0.000000 1.000000
vn 0.000000 0.000000 1.000000
vn 0.000000 0.000000 1.000000
vn 0.000000 0.000000 1.000000
vn 0.000000 0.000000 1.000000
vn 0.000000 0.000000 1.000000
vn 0.000000 0.000000 1.000000
vn 0.000000 0.000000 1.000000
vn 0.000000 0.000000 1.000000
vn 0.000000 0.000000 1.000000
vn 0.000000 0.000000 1.000000
vn -0.013944 0.999903 0.000000
vn 0.013944 0.999903 0.000000
vn 0.013944 0.999903 0.000000
vn -0.013944 0.999903 0.000000
vn -0.013944 -0.999903 0.000000
vn 0.013944 -0.999903 0.000000
vn 0.013944 -0.999903 0.000000
vn -0.013944 -0.999903 0.000000
vn 0.999999 -0.001236 0.000000
vn 0.999999 -0.001236 0.000000
vn 0.999999 0.001236 0.000000
vn 0.999999 0.001236 0.000000
vn -0.999999 -0.001236 0.000000
vn -0.999999 -0.001236 0.000000
vn -0.999999 0.001236 0.000000
vn -0.999999 0.001236 0.000000
vn 0.000000 0.000000 1.000000
vn 0.000000 0.000000 1.000000
vn 0.000000 0.000000 1.000000
vn 0.000000 0.000000 1.000000
vn 0.000000 0.000000 -1.000000
vn 0.000000 0.000000 -1.000000
vn 0.000000 0.000000 -1.000000
vn 0.000000 0.000000 -1.000000
vn -0.970478 0.241192 0.000000
vn -0.970478 0.241192 0.000000
vn -0.857493 0.514497 0.000000
vn -0.857493 0.514497 0.000000
vn -0.568128 0.822940 0.000000
vn -0.568128 0.822940 0.000000
vn 0.568125 0.822942 0.000000
vn 0.568125 0.822942 0.000000
vn 0.857494 0.514495 0.000000
vn 0.857494 0.514495 0.000000
vn 0.970478 0.241192 0.000000
vn 0.970478 0.241192 0.000000
vn 0.970478 -0.241192 0.000000
vn 0.970478 -0.241192 0.000000
vn 0.857494 -0.514495 0.000000
vn 0.857494 -0.514495 0.000000
vn 0.568125 -0.822942 0.000000
vn 0.568125 -0.822942 0.000000
vn -0.568128 -0.822940 0.000000
vn -0.568128 -0.822940 0.000000
vn -0.857493 -0.514497 0.000000
vn -0.857493 -0.514497 0.000000
vn -0.970478 -0.241192 0.000000
vn -0.970478 -0.241192 0.000000
vn 0.000000 0.000000 -1.000000
vn 0.000000 0.000000 -1.000000
vn 0.000000 0.000000 -1.000000
vn 0.000000 0.000000 -1.000000
vn 0.000000 0.000000 -1.000000
vn 0.000000 0.000000 -1.000000
vn 0.000000 0.000000 -1.000000
vn 0.000000 0.000000 -1.000000
vn 0.000000 0.000000 -1.000000
vn 0.000000 0.000000 -1.000000
vn 0.000000 0.000000 -1.000000
vn 0.000000 0.000000 -1.000000
vn 0.000000 0.000000 -1.000000
vn 0.000000 0.000000 -1.000000
vn 0.000000 0.000000 -1.000000
vn 0.000000 0.000000 -1.000000
vn 0.000000 0.000000 1.000000
vn 0.000000 0.000000 1.000000
vn 0.000000 0.000000 1.000000
vn 0.000000 0.000000 1.000000
vn 0.000000 0.000000 1.000000
vn 0.000000 0.000000 1.000000
vn 0.000000 0.000000 1.000000
vn 0.000000 0.000000 1.000000
vn 0.000000 0.000000 1.000000
vn 0.000000 0.000000 1.000000
vn 0.000000 0.000000 1.000000
vn 0.000000 0.000000 1.000000
vn 0.000000 0.000000 1.000000
vn 0.000000 0.000000 1.000000
vn 0.000000 0.000000 1.000000
vn 0.000000 0.000000 1.000000
vn -0.013944 0.999903 0.000000
vn 0.013944 0.999903 0.000000
vn 0.013944 0.999903 0.000000
vn -0.013944 0.999903 0.000000
vn -0.013944 -0.999903 0.000000
vn 0.013944 -0.999903 0.000000
vn 0.013944 -0.999903 0.000000
vn -0.013944 -0.999903 0.000000
vn 0.999999 -0.001236 0.000000
vn 0.999999 -0.001236 0.000000
vn 0.999999 0.001236 0.000000
vn 0.999999 0.001236 0.000000
vn -0.999999 -0.001236 0.000000
vn -0.999999 -0.001236 0.000000
vn -0.999999 0.001236 0.000000
vn -0.999999 0.001236 0.000000
vn 0.000000 0.000000 1.000000
vn 0.000000 0.000000 1.000000
vn 0.000000 0.000000 1.000000
vn 0.000000 0.000000 1.000000
vn 0.000000 0.000000 -1.000000
vn 0.000000 0.000000 -1.000000
vn 0.000000 0.000000 -1.000000
vn 0.000000 0.000000 -1.000000
vn -0.970478 0.241190 0.000000
vn -0.970478 0.241190 0.000000
vn -0.857494 0.514495 0.000000
vn -0.857494 0.514495 0.000000
vn -0.568124 0.822943 0.000000
vn -0.568124 0.822943 0.000000
vn 0.568128 0.822940 0.000000
vn 0.568128 0.822940 0.000000
vn 0.857490 0.514500 0.000000
vn 0.857490 0.514500 0.000000
vn 0.970477 0.241194 0.000000
vn 0.970477 0.241194 0.000000
vn 0.970477 -0.241194 0.000000
vn 0.970477 -0.241194 0.000000
vn 0.857490 -0.514500 0.000000
vn 0.857490 -0.514500 0.000000
vn 0.568128 -0.822940 0.000000
vn 0.568128 -0.822940 0.000000
vn -0.568124 -0.822943 0.000000
vn -0.568124 -0.822943 0.000000
vn -0.857494 -0.514495 0.000000
vn -0.857494 -0.514495 0.000000
vn -0.970478 -0.241190 0.000000
vn -0.970478 -0.241190 0.000000
vn 0.000000 0.000000 -1.000000
vn 0.000000 0.000000 -1.000000
vn 0.000000 0.000000 -1.000000
vn 0.000000 0.000000 -1.000000
vn 0.000000 0.000000 -1.000000
vn 0.000000 0.000000 -1.000000
vn 0.000000 0.000000 -1.000000
vn 0.000000 0.000000 -1.000000
vn 0.000000 0.000000 -1.000000
vn 0.000000 0.000000 -1.000000
vn 0.000000 0.000000 -1.000000
vn 0.000000 0.000000 -1.000000
vn 0.000000 0.000000 -1.000000
vn 0.000000 0.000000 -1.000000
vn 0.000000 0.000000 -1.000000
vn 0.000000 0.000000 -1.000000
vn 0.000000 0.000000 1.000000
vn 0.000000 0.000000 1.000000
vn 0.000000 0.000000 1.000000
vn 0.000000 0.000000 1.000000
vn 0.000000 0.000000 1.000000
vn 0.000000 0.000000 1.000000
vn 0.000000 0.000000 1.000000
vn 0.000000 0.000000 1.000000
vn 0.000000 0.000000 1.000000
vn 0.000000 0.000000 1.000000
vn 0.000000 0.000000 1.000000
vn 0.000000 0.000000 1.000000
vn 0.000000 0.000000 1.000000
vn 0.000000 0.000000 1.000000
vn 0.000000 0.000000 1.000000
vn 0.000000 0.000000 1.000000
vn -0.013944 0.999903 0.000000
vn 0.013944 0.999903 0.000000
vn 0.013944 0.999903 0.000000
vn -0.013944 0.999903 0.000000
vn -0.013944 -0.999903 0.000000
vn 0.013944 -0.999903 0.000000
vn 0.013944 -0.999903 0.000000
vn -0.013944 -0.999903 0.000000
vn 0.999999 -0.001236 0.000000
vn 0.999999 -0.001236 0.000000
vn 0.999999 0.001236 0.000000
vn 0.999999 0.001236 0.000000
vn -0.999999 -0.001236 0.000000
vn -0.999999 -0.001236 0.000000
vn -0.999999 0.001236 0.000000
vn -0.999999 0.001236 0.000000
vn 0.000000 0.000000 1.000000
vn 0.000000 0.000000 1.000000
vn 0.000000 0.000000 1.000000
vn 0.000000 0.000000 1.000000
vn 0.000000 0.000000 -1.000000
vn 0.000000 0.000000 -1.000000
vn 0.000000 0.000000 -1.000000
vn 0.000000 0.000000 -1.000000
vn -0.970477 0.241194 0.000000
vn -0.970477 0.241194 0.000000
vn -0.857490 0.514500 0.000000
vn -0.857490 0.514500 0.000000
vn -0.568128 0.822940 0.000000
vn -0.568128 0.822940 0.000000
vn 0.568124 0.822943 0.000000
vn 0.568124 0.822943 0.000000
vn 0.857494 0.514495 0.000000
vn 0.857494 0.514495 0.000000
vn 0.970478 0.241190 0.000000
vn 0.970478 0.241190 0.000000
vn 0.970478 -0.241190 0.000000
vn 0.970478 -0.241190 0.000000
vn 0.857494 -0.514495 0.000000
vn 0.857494 -0.514495 0.000000
vn 0.568124 -0.822943 0.000000
vn 0.568124 -0.822943 0.000000
vn -0.568128 -0.822940 0.000000
vn -0.568128 -0.822940 0.000000
vn -0.857490 -0.514500 0.000000
vn -0.857490 -0.514500 0.000000
vn -0.970477 -0.241194 0.000000
vn -0.970477 -0.241194 0.000000
vn 0.000000 0.000000 -1.000000
vn 0.000000 0.000000 -1.000000
vn 0.000000 0.000000 -1.000000
vn 0.000000 0.000000 -1.000000
vn 0.000000 0.000000 -1.000000
vn 0.000000 0.000000 -1.000000
vn 0.000000 0.000000 -1.000000
vn 0.000000 0.000000 -1.000000
vn 0.000000 0.000000 -1.000000
vn 0.000000 0.000000 -1.000000
vn 0.000000 0.000000 -1.000000
vn 0.000000 0.000000 -1.000000
vn 0.000000 0.000000 -1.000000
vn 0.000000 0.000000 -1.000000
vn 0.000000 0.000000 -1.000000
vn 0.000000 0.000000 -1.000000
vn 0.000000 0.000000 1.000000
vn 0.000000 0.000000 1.000000
vn 0.000000 0.000000 1.000000
vn 0.000000 0.000000 1.000000
vn 0.000000 0.000000 1.000000
vn 0.000000 0.000000 1.000000
vn 0.000000 0.000000 1.000000
vn 0.000000 0.000000 1.000000
vn 0.000000 0.000000 1.000000
vn 0.000000 0.000000 1.000000
vn 0.000000 0.000000 1.000000
vn 0.000000 0.000000 1.000000
vn 0.000000 0.000000 1.000000
vn 0.000000 0.000000 1.000000
vn 0.000000 0.000000 1.000000
vn 0.000000 0.000000 1.000000
vn -0.013944 0.999903 0.000000
vn 0.013944 0.999903 0.000000
vn 0.013944 0.999903 0.000000
vn -0.013944 0.999903 0.000000
vn -0.013944 -0.999903 0.000000
vn 0.013944 -0.999903 0.000000
vn 0.013944 -0.999903 0.000000
vn -0.013944 -0.999903 0.000000
vn 0.999999 -0.001236 0.000000
vn 0.999999 -0.001236 0.000000
vn 0.999999 0.001236 0.000000
vn 0.999999 0.001236 0.000000
vn -0.999999 -0.001236 0.000000
vn -0.999999 -0.001236 0.000000
vn -0.999999 0.001236 0.000000
vn -0.999999 0.001236 0.000000
vn 0.000000 0.000000 1.000000
vn 0.000000 0.000000 1.000000
vn 0.000000 0.000000 1.000000
vn 0.000000 0.000000 1.000000
vn 0.000000 0.000000 -1.000000
vn 0.000000 0.000000 -1.000000
vn 0.000000 0.000000 -1.000000
vn 0.000000 0.000000 -1.000000
vn -0.970478 0.241192 0.000000
vn -0.970478 0.241192 0.000000
vn -0.857494 0.514495 0.000000
vn -0.857494 0.514495 0.000000
vn -0.568125 0.822942 0.000000
vn -0.568125 0.822942 0.000000
vn 0.568128 0.822940 0.000000
vn 0.568128 0.822940 0.000000
vn 0.857493 0.514497 0.000000
vn 0.857493 0.514497 0.000000
vn 0.970478 0.241192 0.000000
vn 0.970478 0.241192 0.000000
vn 0.970478 -0.241192 0.000000
vn 0.970478 -0.241192 0.000000
vn 0.857493 -0.514497 0.000000
vn 0.857493 -0.514497 0.000000
vn 0.568128 -0.822940 0.000000
vn 0.568128 -0.822940 0.000000
vn -0.568125 -0.822942 0.000000
vn -0.568125 -0.822942 0.000000
vn -0.857494 -0.514495 0.000000
vn -0.857494 -0.514495 0.000000
vn -0.970478 -0.241192 0.000000
vn -0.970478 -0.241192 0.000000
vn 0.000000 0.000000 -1.000000
vn 0.000000 0.000000 -1.000000
vn 0.000000 0.000000 -1.000000
vn 0.000000 0.000000 -1.000000
vn 0.000000 0.000000 -1.000000
vn 0.000000 0.000000 -1.000000
vn 0.000000 0.000000 -1.000000
vn 0.000000 0.000000 -1.000000
vn 0.000000 0.000000 -1.000000
vn 0.000000 0.000000 -1.000000
vn 0.000000 0.000000 -1.000000
vn 0.000000 0.000000 -1.000000
vn 0.000000 0.000000 -1.000000
vn 0.000000 0.000000 -1.000000
vn 0.000000 0.000000 -1.000000
vn 0.000000 0.000000 -1.000000
vn 0.000000 0.000000 1.000000
vn 0.000000 0.000000 1.000000
vn 0.000000 0.000000 1.000000
vn 0.000000 0.000000 1.000000
vn 0.000000 0.000000 1.000000
vn 0.000000 0.000000 1.000000
vn 0.000000 0.000000 1.000000
vn 0.000000 0.000000 1.000000
vn 0.000000 0.000000 1.000000
vn 0.000000 0.000000 1.000000
vn 0.000000 0.000000 1.000000
vn 0.000000 0.000000 1.000000
vn 0.000000 0.000000 1.000000
vn 0.000000 0.000000 1.000000
vn 0.000000 0.000000 1.000000
vn 0.000000 0.000000 1.000000
vn -0.013944 0.999903 0.000000
vn 0.013944 0.999903 0.000000
vn 0.013944 0.999903 0.000000
vn -0.013944 0.999903 0.000000
vn -0.013944 -0.999903 0.000000
vn 0.013944 -0.999903 0.000000
vn 0.013944 -0.999903 0.000000
vn -0.013944 -0.999903 0.000000
vn 0.999999 -0.001236 0.000000
vn 0.999999 -0.001236 0.000000
vn 0.999999 0.001236 0.000000
vn 0.999999 0.001236 0.000000
vn -0.999999 -0.001236 0.000000
vn -0.999999 -0.001236 0.000000
vn -0.999999 0.001236 0.000000
vn -0.999999 0.001236 0.000000
vn 0.000000 0.000000 1.000000
vn 0.000000 0.000000 1.000000
vn 0.000000 0.000000 1.000000
vn 0.000000 0.000000 1.000000
vn 0.000000 0.000000 -1.000000
vn 0.000000 0.000000 -1.000000
vn 0.000000 0.000000 -1.000000
vn 0.000000 0.000000 -1.000000
vn -0.970478 0.241192 0.000000
vn -0.970478 0.241192 0.000000
vn -0.857493 0.514497 0.000000
vn -0.857493 0.514497 0.000000
vn -0.568128 0.822940 0.000000
vn -0.568128 0.822940 0.000000
vn 0.568127 0.822941 0.000000
vn 0.568127 0.822941 0.000000
vn 0.857493 0.514497 0.000000
vn 0.857493 0.514497 0.000000
vn 0.970478 0.241191 0.000000
vn 0.970478 0.241191 0.000000
vn 0.970478 -0.241191 0.000000
vn 0.970478 -0.241191 0.000000
vn 0.857493 -0.514497 0.000000
vn 0.857493 -0.514497 0.000000
vn 0.568127 -0.822941 0.000000
vn 0.568127 -0.822941 0.000000
vn -0.568128 -0.822940 0.000000
vn -0.568128 -0.822940 0.000000
vn -0.857493 -0.514497 0.000000
vn -0.857493 -0.514497 0.000000
vn -0.970478 -0.241192 0.000000
vn -0.970478 -0.241192 0.000000
vn 0.000000 0.000000 -1.000000
vn 0.000000 0.000000 -1.000000
vn 0.000000 0.000000 -1.000000
vn 0.000000 0.000000 -1.000000
vn 0.000000 0.000000 -1.000000
vn 0.000000 0.000000 -1.000000
vn 0.000000 0.000000 -1.000000
vn 0.000000 0.000000 -1.000000
vn 0.000000 0.000000 -1.000000
vn 0.000000 0.000000 -1.000000
vn 0.000000 0.000000 -1.000000
vn 0.000000 0.000000 -1.000000
vn 0.000000 0.000000 -1.000000
vn 0.000000 0.000000 -1.000000
vn 0.000000 0.000000 -1.000000
vn 0.000000 0.000000 -1.000000
vn 0.000000 0.000000 1.000000
vn 0.000000 0.000000 1.000000
vn 0.000000 0.000000 1.000000
vn 0.000000 0.000000 1.000000
vn 0.000000 0.000000 1.000000
vn 0.000000 0.000000 1.000000
vn 0.000000 0.000000 1.000000
vn 0.000000 0.000000 1.000000
vn 0.000000 0.000000 1.000000
vn 0.000000 0.000000 1.000000
vn 0.000000 0.000000 1.000000
vn 0.000000 0.000000 1.000000
vn 0.000000 0.000000 1.000000
vn 0.000000 0.000000 1.000000
vn 0.000000 0.000000 1.000000
vn 0.000000 0.000000 1.000000
vn -0.013944 0.999903 0.000000
vn 0.013944 0.999903 0.000000
vn 0.013944 0.999903 0.000000
vn -0.013944 0.999903 0.000000
vn -0.013944 -0.999903 0.000000
vn 0.013944 -0.999903 0.000000
vn 0.013944 -0.999903 0.000000
vn -0.013944 -0.999903 0.000000
vn 0.999999 -0.001236 0.000000
vn 0.999999 -0.001236 0.000000
vn 0.999999 0.001236 0.000000
vn 0.999999 0.001236 0.000000
vn -0.999999 -0.001236 0.000000
vn -0.999999 -0.001236 0.000000
vn -0.999999 0.001236 0.000000
vn -0.999999 0.001236 0.000000
vn 0.000000 0.000000 1.000000
vn 0.000000 0.000000 1.000000
vn 0.000000 0.000000 1.000000
vn 0.000000 0.000000 1.000000
vn 0.000000 0.000000 -1.000000
vn 0.000000 0.000000 -1.000000
vn 0.000000 0.000000 -1.000000
vn 0.000000 0.000000 -1.000000
vn -0.970478 0.241189 0.000000
vn -0.970478 0.241189 0.000000
vn -0.857493 0.514497 0.000000
vn -0.857493 0.514497 0.000000
vn -0.568125 0.822942 0.000000
vn -0.568125 0.822942 0.000000
vn 0.568125 0.822942 0.000000
vn 0.568125 0.822942 0.000000
vn 0.857493 0.514496 0.000000
vn 0.857493 0.514496 0.000000
vn 0.970478 0.241189 0.000000
vn 0.970478 0.241189 0.000000
vn 0.970478 -0.241189 0.000000
vn 0.970478 -0.241189 0.000000
vn 0.857493 -0.514496 0.000000
vn 0.857493 -0.514496 0.000000
vn 0.568125 -0.822942 0.000000
vn 0.568125 -0.822942 0.000000
vn -0.568125 -0.822942 0.000000
vn -0.568125 -0.822942 0.000000
vn -0.857493 -0.514497 0.000000
vn -0.857493 -0.514497 0.000000
vn -0.970478 -0.241189 0.000000
vn -0.970478 -0.241189 0.000000
vn 0.000000 0.000000 -1.000000
vn 0.000000 0.000000 -1.000000
vn 0.000000 0.000000 -1.000000
vn 0.000000 0.000000 -1.000000
vn 0.000000 0.000000 -1.000000
vn 0.000000 0.000000 -1.000000
vn 0.000000 0.000000 -1.000000
vn 0.000000 0.000000 -1.000000
vn 0.000000 0.000000 -1.000000
vn 0.000000 0.000000 -1.000000
vn 0.000000 0.000000 -1.000000
vn 0.000000 0.000000 -1.000000
vn 0.000000 0.000000 -1.000000
vn 0.000000 0.000000 -1.000000
vn 0.000000 0.000000 -1.000000
vn 0.000000 0.000000 -1.000000
vn 0.000000 0.000000 1.000000
vn 0.000000 0.000000 1.000000
vn 0.000000 0.000000 1.000000
vn 0.000000 0.000000 1.000000
vn 0.000000 0.000000 1.000000
vn 0.000000 0.000000 1.000000
vn 0.000000 0.000000 1.000000
vn 0.000000 0.000000 1.000000
vn 0.000000 0.000000 1.000000
vn 0.000000 0.000000 1.000000
vn 0.000000 0.000000 1.000000
vn 0.000000 0.000000 1.000000
vn 0.000000 0.000000 1.000000
vn 0.000000 0.000000 1.000000
vn 0.000000 0.000000 1.000000
vn 0.000000 0.000000 1.000000
vn -0.013944 0.999903 0.000000
vn 0.013944 0.999903 0.000000
vn 0.013944 0.999903 0.000000
vn -0.013944 0.999903 0.000000
vn -0.013944 -0.999903 0.000000
vn 0.013944 -0.999903 0.000000
vn 0.013944 -0.999903 0.000000
vn -0.013944 -0.999903 0.000000
vn 0.999999 -0.001236 0.000000
vn 0.999999 -0.001236 0.000000
vn 0.999999 0.001236 0.000000
vn 0.999999 0.001236 0.000000
vn -0.999999 -0.001236 0.000000
vn -0.999999 -0.001236 0.000000
vn -0.999999 0.001236 0.000000
vn -0.999999 0.001236 0.000000
vn 0.000000 0.000000 1.000000
vn 0.000000 0.000000 1.000000
vn 0.000000 0.000000 1.000000
vn 0.000000 0.000000 1.000000
vn 0.000000 0.000000 -1.000000
vn 0.000000 0.000000 -1.000000
vn 0.000000 0.000000 -1.000000
vn 0.000000 0.000000 -1.000000
vn -0.970478 0.241190 0.000000
vn -0.970478 0.241190 0.000000
vn -0.857493 0.514496 0.000000
vn -0.857493 0.514496 0.000000
vn -0.568126 0.822942 0.000000
vn -0.568126 0.822942 0.000000
vn 0.568126 0.822942 0.000000
vn 0.568126 0.822942 0.000000
vn 0.857493 0.514496 0.000000
vn 0.857493 0.514496 0.000000
vn 0.970478 0.241190 0.000000
vn 0.970478 0.241190 0.000000
vn 0.970478 -0.241190 0.000000
vn 0.970478 -0.241190 0.000000
vn 0.857493 -0.514496 0.000000
vn 0.857493 -0.514496 0.000000
vn 0.568126 -0.822942 0.000000
vn 0.568126 -0.822942 0.000000
vn -0.568126 -0.822942 0.000000
vn -0.568126 -0.822942 0.000000
vn -0.857493 -0.514496 0.000000
vn -0.857493 -0.514496 0.000000
vn -0.970478 -0.241190 0.000000
vn -0.970478 -0.241190 0.000000
vn 0.000000 0.000000 -1.000000
vn 0.000000 0.000000 -1.000000
vn 0.000000 0.000000 -1.000000
vn 0.000000 0.000000 -1.000000
vn 0.000000 0.000000 -1.000000
vn 0.000000 0.000000 -1.000000
vn 0.000000 0.000000 -1.000000
vn 0.000000 0.000000 -1.000000
vn 0.000000 0.000000 -1.000000
vn 0.000000 0.000000 -1.000000
vn 0.000000 0.000000 -1.000000
vn 0.000000 0.000000 -1.000000
vn 0.000000 0.000000 -1.000000
vn 0.000000 0.000000 -1.000000
vn 0.000000 0.000000 -1.000000
vn 0.000000 0.000000 -1.000000
vn 0.000000 0.000000 1.000000
vn 0.000000 0.000000 1.000000
vn 0.000000 0.000000 1.000000
vn 0.000000 0.000000 1.000000
vn 0.000000 0.000000 1.000000
vn 0.000000 0.000000 1.000000
vn 0.000000 0.000000 1.000000
vn 0.000000 0.000000 1.000000
vn 0.000000 0.000000 1.000000
vn 0.000000 0.000000 1.000000
vn 0.000000 0.000000 1.000000
vn 0.000000 0.000000 1.000000
vn 0.000000 0.000000 1.000000
vn 0.000000 0.000000 1.000000
vn 0.000000 0.000000 1.000000
vn 0.000000 0.000000 1.000000
vn -0.013944 0.999903 0.000000
vn 0.013944 0.999903 0.000000
vn 0.013944 0.999903 0.000000
vn -0.013944 0.999903 0.000000
vn -0.013944 -0.999903 0.000000
vn 0.013944 -0.999903 0.000000
vn 0.013944 -0.999903 0.000000
vn -0.013944 -0.999903 0.000000
vn 0.999999 -0.001236 0.000000
vn 0.999999 -0.001236 0.000000
vn 0.999999 0.001236 0.000000
vn 0.999999 0.001236 0.000000
vn -0.999999 -0.001236 0.000000
vn -0.999999 -0.001236 0.000000
vn -0.999999 0.001236 0.000000
vn -0.999999 0.001236 0.000000
vn 0.000000 0.000000 1.000000
vn 0.000000 0.000000 1.000000
vn 0.000000 0.000000 1.000000
vn 0.000000 0.000000 1.000000
vn 0.000000 0.000000 -1.000000
vn 0.000000 0.000000 -1.000000
vn 0.000000 0.000000 -1.000000
vn 0.000000 0.000000 -1.000000
vn -0.970478 0.241189 0.000000
vn -0.970478 0.241189 0.000000
vn -0.857493 0.514496 0.000000
vn -0.857493 0.514496 0.000000
vn -0.568125 0.822942 0.000000
vn -0.568125 0.822942 0.000000
vn 0.568125 0.822942 0.000000
vn 0.568125 0.822942 0.000000
vn 0.857493 0.514497 0.000000
vn 0.857493 0.514497 0.000000
vn 0.970478 0.241189 0.000000
vn 0.970478 0.241189 0.000000
vn 0.970478 -0.241189 0.000000
vn 0.970478 -0.241189 0.000000
vn 0.857493 -0.514497 0.000000
vn 0.857493 -0.514497 0.000000
vn 0.568125 -0.822942 0.000000
vn 0.568125 -0.822942 0.000000
vn -0.568125 -0.822942 0.000000
vn -0.568125 -0.822942 0.000000
vn -0.857493 -0.514496 0.000000
vn -0.857493 -0.514496 0.000000
vn -0.970478 -0.241189 0.000000
vn -0.970478 -0.241189 0.000000
vn 0.000000 0.000000 -1.000000
vn 0.000000 0.000000 -1.000000
vn 0.000000 0.000000 -1.000000
vn 0.000000 0.000000 -1.000000
vn 0.000000 0.000000 -1.000000
vn 0.000000 0.000000 -1.000000
vn 0.000000 0.000000 -1.000000
vn 0.000000 0.000000 -1.000000
vn 0.000000 0.000000 -1.000000
vn 0.000000 0.000000 -1.000000
vn 0.000000 0.000000 -1.000000
vn 0.000000 0.000000 -1.000000
vn 0.000000 0.000000 -1.000000
vn 0.000000 0.000000 -1.000000
vn 0.000000 0.000000 -1.000000
vn 0.000000 0.000000 -1.000000
vn 0.000000 0.000000 1.000000
vn 0.000000 0.000000 1.000000
vn 0.000000 0.000000 1.000000
vn 0.000000 0.000000 1.000000
vn 0.000000 0.000000 1.000000
vn 0.000000 0.000000 1.000000
vn 0.000000 0.000000 1.000000
vn 0.000000 0.000000 1.000000
vn 0.000000 0.000000 1.000000
vn 0.000000 0.000000 1.000000
vn 0.000000 0.000000 1.000000
vn 0.000000 0.000000 1.000000
vn 0.000000 0.000000 1.000000
vn 0.000000 0.000000 1.000000
vn 0.000000 0.000000 1.000000
vn 0.000000 0.000000 1.000000
s 1
g S_S03_03
usemtl set2
f 20/23/1 11/18/2 27/29/3 21/30/4
f 40/31/5 31/32/6 2/11/7 6/16/8
f 1/2/9 32/33/10 26/34/11 12/21/12
f 36/35/13 10/13/14 16/28/15 22/36/16
s 5
f 16/28/17 12/21/18 13/20/19 17/25/20
s 6
f 22/3/21 23/43/22 30/48/23 26/26/24
s 1
f 16/28/15 17/25/25 23/37/26 22/36/16
f 17/25/25 18/24/27 24/38/28 23/37/26
f 18/24/27 19/22/29 25/39/30 24/38/28
f 19/22/29 20/23/1 21/30/4 25/39/30
f 11/18/2 15/17/31 28/40/32 27/29/3
f 15/17/31 14/19/33 29/41/34 28/40/32
f 14/19/33 13/20/35 30/42/36 29/41/34
f 13/20/35 12/21/12 26/34/11 30/42/36
f 1/2/9 5/1/37 33/54/38 32/33/10
f 5/1/37 4/8/39 34/56/40 33/54/38
f 4/8/39 3/10/41 35/57/42 34/56/40
f 3/10/41 2/11/7 31/32/6 35/57/42
f 6/16/8 7/15/43 39/58/44 40/31/5
f 7/15/43 8/14/45 38/59/46 39/58/44
f 8/14/45 9/12/47 37/60/48 38/59/46
f 9/12/47 10/13/14 36/35/13 37/60/48
s 6
f 22/3/21 26/26/24 32/9/49 36/6/50
f 28/46/51 25/45/52 21/4/53 27/7/54
f 30/48/23 23/43/22 24/44/55 29/47/56
f 29/47/56 24/44/55 25/45/52 28/46/51
f 37/52/57 33/49/58 34/50/59 38/53/60
f 36/6/50 32/9/49 33/49/58 37/52/57
f 39/55/61 35/51/62 31/27/63 40/5/64
f 38/53/60 34/50/59 35/51/62 39/55/61
s 5
f 10/13/65 1/2/66 12/21/18 16/28/17
f 18/24/67 14/19/68 15/17/69 19/22/70
f 17/25/20 13/20/19 14/19/68 18/24/67
f 19/22/70 15/17/69 11/18/71 20/23/72
f 5/1/73 9/12/74 8/14/75 4/8/76
f 10/13/65 9/12/74 5/1/73 1/2/66
f 3/10/77 7/15/78 6/16/79 2/11/80
f 4/8/76 8/14/75 7/15/78 3/10/77
s 8
f 60/61/81 51/62/82 67/63/83 61/64/84
f 80/65/85 71/66/86 42/67/87 46/68/88
f 41/69/89 72/70/90 66/71/91 52/72/92
f 76/73/93 50/74/94 56/75/95 62/76/96
s 12
f 56/75/97 52/72/98 53/77/99 57/78/100
s 13
f 62/79/101 63/80/102 70/81/103 66/82/104
s 8
f 56/75/95 57/78/105 63/83/106 62/76/96
f 57/78/105 58/84/107 64/85/108 63/83/106
f 58/84/107 59/86/109 65/87/110 64/85/108
f 59/86/109 60/61/81 61/64/84 65/87/110
f 51/62/82 55/88/111 68/89/112 67/63/83
f 55/88/111 54/90/113 69/91/114 68/89/112
f 54/90/113 53/77/115 70/92/116 69/91/114
f 53/77/115 52/72/92 66/71/91 70/92/116
f 41/69/89 45/93/117 73/94/118 72/70/90
f 45/93/117 44/95/119 74/96/120 73/94/118
f 44/95/119 43/97/121 75/98/122 74/96/120
f 43/97/121 42/67/87 71/66/86 75/98/122
f 46/68/88 47/99/123 79/100/124 80/65/85
f 47/99/123 48/101/125 78/102/126 79/100/124
f 48/101/125 49/103/127 77/104/128 78/102/126
f 49/103/127 50/74/94 76/73/93 77/104/128
s 13
f 62/79/101 66/82/104 72/105/129 76/106/130
f 68/107/131 65/108/132 61/109/133 67/110/134
f 70/81/103 63/80/102 64/111/135 69/112/136
f 69/112/136 64/111/135 65/108/132 68/107/131
f 77/113/137 73/114/138 74/115/139 78/116/140
f 76/106/130 72/105/129 73/114/138 77/113/137
f 79/117/141 75/118/142 71/119/143 80/120/144
f 78/116/140 74/115/139 75/118/142 79/117/141
s 12
f 50/74/145 41/69/146 52/72/98 56/75/97
f 58/84/147 54/90/148 55/88/149 59/86/150
f 57/78/100 53/77/99 54/90/148 58/84/147
f 59/86/150 55/88/149 51/62/151 60/61/152
f 45/93/153 49/103/154 48/101/155 44/95/156
f 50/74/145 49/103/154 45/93/153 41/69/146
f 43/97/157 47/99/158 46/68/159 42/67/160
f 44/95/156 48/101/155 47/99/158 43/97/157
s 15
f 100/121/161 91/122/162 107/123/163 101/124/164
f 120/125/165 111/126/166 82/127/167 86/128/168
f 81/129/169 112/130/170 106/131/171 92/132/172
f 116/133/173 90/134/174 96/135/175 102/136/176
s 19
f 96/135/177 92/132/178 93/137/179 97/138/180
s 20
f 102/139/181 103/140/182 110/141/183 106/142/184
s 15
f 96/135/175 97/138/185 103/143/186 102/136/176
f 97/138/185 98/144/187 104/145/188 103/143/186
f 98/144/187 99/146/189 105/147/190 104/145/188
f 99/146/189 100/121/161 101/124/164 105/147/190
f 91/122/162 95/148/191 108/149/192 107/123/163
f 95/148/191 94/150/193 109/151/194 108/149/192
f 94/150/193 93/137/195 110/152/196 109/151/194
f 93/137/195 92/132/172 106/131/171 110/152/196
f 81/129/169 85/153/197 113/154/198 112/130/170
f 85/153/197 84/155/199 114/156/200 113/154/198
f 84/155/199 83/157/201 115/158/202 114/156/200
f 83/157/201 82/127/167 111/126/166 115/158/202
f 86/128/168 87/159/203 119/160/204 120/125/165
f 87/159/203 88/161/205 118/162/206 119/160/204
f 88/161/205 89/163/207 117/164/208 118/162/206
f 89/163/207 90/134/174 116/133/173 117/164/208
s 20
f 102/139/181 106/142/184 112/165/209 116/166/210
f 108/167/211 105/168/212 101/169/213 107/170/214
f 110/141/183 103/140/182 104/171/215 109/172/216
f 109/172/216 104/171/215 105/168/212 108/167/211
f 117/173/217 113/174/218 114/175/219 118/176/220
f 116/166/210 112/165/209 113/174/218 117/173/217
f 119/177/221 115/178/222 111/179/223 120/180/224
f 118/176/220 114/175/219 115/178/222 119/177/221
s 19
f 90/134/225 81/129/226 92/132/178 96/135/177
f 98/144/227 94/150/228 95/148/229 99/146/230
f 97/138/180 93/137/179 94/150/228 98/144/227
f 99/146/230 95/148/229 91/122/231 100/121/232
f 85/153/233 89/163/234 88/161/235 84/155/236
f 90/134/225 89/163/234 85/153/233 81/129/226
f 83/157/237 87/159/238 86/128/239 82/127/240
f 84/155/236 88/161/235 87/159/238 83/157/237
s 22
f 140/181/241 131/182/242 147/183/243 141/184/244
f 160/185/245 151/186/246 122/187/247 126/188/248
f 121/189/249 152/190/250 146/191/251 132/192/252
f 156/193/253 130/194/254 136/195/255 142/196/256
s 26
f 136/195/257 132/192/258 133/197/259 137/198/260
s 27
f 142/199/261 143/200/262 150/201/263 146/202/264
s 22
f 136/195/255 137/198/265 143/203/266 142/196/256
f 137/198/265 138/204/267 144/205/268 143/203/266
f 138/204/267 139/206/269 145/207/270 144/205/268
f 139/206/269 140/181/241 141/184/244 145/207/270
f 131/182/242 135/208/271 148/209/272 147/183/243
f 135/208/271 134/210/273 149/211/274 148/209/272
f 134/210/273 133/197/275 150/212/276 149/211/274
f 133/197/275 132/192/252 146/191/251 150/212/276
f 121/189/249 125/213/277 153/214/278 152/190/250
f 125/213/277 124/215/279 154/216/280 153/214/278
f 124/215/279 123/217/281 155/218/282 154/216/280
f 123/217/281 122/187/247 151/186/246 155/218/282
f 126/188/248 127/219/283 159/220/284 160/185/245
f 127/219/283 128/221/285 158/222/286 159/220/284
f 128/221/285 129/223/287 157/224/288 158/222/286
f 129/223/287 130/194/254 156/193/253 157/224/288
s 27
f 142/199/261 146/202/264 152/225/289 156/226/290
f 148/227/291 145/228/292 141/229/293 147/230/294
f 150/201/263 143/200/262 144/231/295 149/232/296
f 149/232/296 144/231/295 145/228/292 148/227/291
f 157/233/297 153/234/298 154/235/299 158/236/300
f 156/226/290 152/225/289 153/234/298 157/233/297
f 159/237/301 155/238/302 151/239/303 160/240/304
f 158/236/300 154/235/299 155/238/302 159/237/301
s 26
f 130/194/305 121/189/306 132/192/258 136/195/257
f 138/204/307 134/210/308 135/208/309 139/206/310
f 137/198/260 133/197/259 134/210/308 138/204/307
f 139/206/310 135/208/309 131/182/311 140/181/312
f 125/213/313 129/223/314 128/221/315 124/215/316
f 130/194/305 129/223/314 125/213/313 121/189/306
f 123/217/317 127/219/318 126/188/319 122/187/320
f 124/215/316 128/221/315 127/219/318 123/217/317
s 29
f 180/241/321 171/242/322 187/243/323 181/244/324
f 200/245/325 191/246/326 162/247/327 166/248/328
f 161/249/329 192/250/330 186/251/331 172/252/332
f 196/253/333 170/254/334 176/255/335 182/256/336
s 33
f 176/255/337 172/252/338 173/257/339 177/258/340
s 34
f 182/259/341 183/260/342 190/261/343 186/262/344
s 29
f 176/255/335 177/258/345 183/263/346 182/256/336
f 177/258/345 178/264/347 184/265/348 183/263/346
f 178/264/347 179/266/349 185/267/350 184/265/348
f 179/266/349 180/241/321 181/244/324 185/267/350
f 171/242/322 175/268/351 188/269/352 187/243/323
f 175/268/351 174/270/353 189/271/354 188/269/352
f 174/270/353 173/257/355 190/272/356 189/271/354
f 173/257/355 172/252/332 186/251/331 190/272/356
f 161/249/329 165/273/357 193/274/358 192/250/330
f 165/273/357 164/275/359 194/276/360 193/274/358
f 164/275/359 163/277/361 195/278/362 194/276/360
f 163/277/361 162/247/327 191/246/326 195/278/362
f 166/248/328 167/279/363 199/280/364 200/245/325
f 167/279/363 168/281/365 198/282/366 199/280/364
f 168/281/365 169/283/367 197/284/368 198/282/366
f 169/283/367 170/254/334 196/253/333 197/284/368
s 34
f 182/259/341 186/262/344 192/285/369 196/286/370
f 188/287/371 185/288/372 181/289/373 187/290/374
f 190/261/343 183/260/342 184/291/375 189/292/376
f 189/292/376 184/291/375 185/288/372 188/287/371
f 197/293/377 193/294/378 194/295/379 198/296/380
f 196/286/370 192/285/369 193/294/378 197/293/377
f 199/297/381 195/298/382 191/299/383 200/300/384
f 198/296/380 194/295/379 195/298/382 199/297/381
s 33
f 170/254/385 161/249/386 172/252/338 176/255/337
f 178/264/387 174/270/388 175/268/389 179/266/390
f 177/258/340 173/257/339 174/270/388 178/264/387
f 179/266/390 175/268/389 171/242/391 180/241/392
f 165/273/393 169/283/394 168/281/395 164/275/396
f 170/254/385 169/283/394 165/273/393 161/249/386
f 163/277/397 167/279/398 166/248/399 162/247/400
f 164/275/396 168/281/395 167/279/398 163/277/397
s 36
f 220/301/401 211/302/402 227/303/403 221/304/404
f 240/305/405 231/306/406 202/307/407 206/308/408
f 201/309/409 232/310/410 226/311/411 212/312/412
f 236/313/413 210/314/414 216/315/415 222/316/416
s 40
f 216/315/417 212/312/418 213/317/419 217/318/420
s 41
f 222/319/421 223/320/422 230/321/423 226/322/424
s 36
f 216/315/415 217/318/425 223/323/426 222/316/416
f 217/318/425 218/324/427 224/325/428 223/323/426
f 218/324/427 219/326/429 225/327/430 224/325/428
f 219/326/429 220/301/401 221/304/404 225/327/430
f 211/302/402 215/328/431 228/329/432 227/303/403
f 215/328/431 214/330/433 229/331/434 228/329/432
f 214/330/433 213/317/435 230/332/436 229/331/434
f 213/317/435 212/312/412 226/311/411 230/332/436
f 201/309/409 205/333/437 233/334/438 232/310/410
f 205/333/437 204/335/439 234/336/440 233/334/438
f 204/335/439 203/337/441 235/338/442 234/336/440
f 203/337/441 202/307/407 231/306/406 235/338/442
f 206/308/408 207/339/443 239/340/444 240/305/405
f 207/339/443 208/341/445 238/342/446 239/340/444
f 208/341/445 209/343/447 237/344/448 238/342/446
f 209/343/447 210/314/414 236/313/413 237/344/448
s 41
f 222/319/421 226/322/424 232/345/449 236/346/450
f 228/347/451 225/348/452 221/349/453 227/350/454
f 230/321/423 223/320/422 224/351/455 229/352/456
f 229/352/456 224/351/455 225/348/452 228/347/451
f 237/353/457 233/354/458 234/355/459 238/356/460
f 236/346/450 232/345/449 233/354/458 237/353/457
f 239/357/461 235/358/462 231/359/463 240/360/464
f 238/356/460 234/355/459 235/358/462 239/357/461
s 40
f 210/314/465 201/309/466 212/312/418 216/315/417
f 218/324/467 214/330/468 215/328/469 219/326/470
f 217/318/420 213/317/419 214/330/468 218/324/467
f 219/326/470 215/328/469 211/302/471 220/301/472
f 205/333/473 209/343/474 208/341/475 204/335/476
f 210/314/465 209/343/474 205/333/473 201/309/466
f 203/337/477 207/339/478 206/308/479 202/307/480
f 204/335/476 208/341/475 207/339/478 203/337/477
s 43
f 260/361/481 251/362/482 267/363/483 261/364/484
f 280/365/485 271/366/486 242/367/487 246/368/488
f 241/369/489 272/370/490 266/371/491 252/372/492
f 276/373/493 250/374/494 256/375/495 262/376/496
s 47
f 256/375/497 252/372/498 253/377/499 257/378/500
s 48
f 262/379/501 263/380/502 270/381/503 266/382/504
s 43
f 256/375/495 257/378/505 263/383/506 262/376/496
f 257/378/505 258/384/507 264/385/508 263/383/506
f 258/384/507 259/386/509 265/387/510 264/385/508
f 259/386/509 260/361/481 261/364/484 265/387/510
f 251/362/482 255/388/511 268/389/512 267/363/483
f 255/388/511 254/390/513 269/391/514 268/389/512
f 254/390/513 253/377/515 270/392/516 269/391/514
f 253/377/515 252/372/492 266/371/491 270/392/516
f 241/369/489 245/393/517 273/394/518 272/370/490
f 245/393/517 244/395/519 274/396/520 273/394/518
f 244/395/519 243/397/521 275/398/522 274/396/520
f 243/397/521 242/367/487 271/366/486 275/398/522
f 246/368/488 247/399/523 279/400/524 280/365/485
f 247/399/523 248/401/525 278/402/526 279/400/524
f 248/401/525 249/403/527 277/404/528 278/402/526
f 249/403/527 250/374/494 276/373/493 277/404/528
s 48
f 262/379/501 266/382/504 272/405/529 276/406/530
f 268/407/531 265/408/532 261/409/533 267/410/534
f 270/381/503 263/380/502 264/411/535 269/412/536
f 269/412/536 264/411/535 265/408/532 268/407/531
f 277/413/537 273/414/538 274/415/539 278/416/540
f 276/406/530 272/405/529 273/414/538 277/413/537
f 279/417/541 275/418/542 271/419/543 280/420/544
f 278/416/540 274/415/539 275/418/542 279/417/541
s 47
f 250/374/545 241/369/546 252/372/498 256/375/497
f 258/384/547 254/390/548 255/388/549 259/386/550
f 257/378/500 253/377/499 254/390/548 258/384/547
f 259/386/550 255/388/549 251/362/551 260/361/552
f 245/393/553 249/403/554 248/401/555 244/395/556
f 250/374/545 249/403/554 245/393/553 241/369/546
f 243/397/557 247/399/558 246/368/559 242/367/560
f 244/395/556 248/401/555 247/399/558 243/397/557
s 50
f 300/421/561 291/422/562 307/423/563 301/424/564
f 320/425/565 311/426/566 282/427/567 286/428/568
f 281/429/569 312/430/570 306/431/571 292/432/572
f 316/433/573 290/434/574 296/435/575 302/436/576
s 54
f 296/435/577 292/432/578 293/437/579 297/438/580
s 55
f 302/439/581 303/440/582 310/441/583 306/442/584
s 50
f 296/435/575 297/438/585 303/443/586 302/436/576
f 297/438/585 298/444/587 304/445/588 303/443/586
f 298/444/587 299/446/589 305/447/590 304/445/588
f 299/446/589 300/421/561 301/424/564 305/447/590
f 291/422/562 295/448/591 308/449/592 307/423/563
f 295/448/591 294/450/593 309/451/594 308/449/592
f 294/450/593 293/437/595 310/452/596 309/451/594
f 293/437/595 292/432/572 306/431/571 310/452/596
f 281/429/569 285/453/597 313/454/598 312/430/570
f 285/453/597 284/455/599 314/456/600 313/454/598
f 284/455/599 283/457/601 315/458/602 314/456/600
f 283/457/601 282/427/567 311/426/566 315/458/602
f 286/428/568 287/459/603 319/460/604 320/425/565
f 287/459/603 288/461/605 318/462/606 319/460/604
f 288/461/605 289/463/607 317/464/608 318/462/606
f 289/463/607 290/434/574 316/433/573 317/464/608
s 55
f 302/439/581 306/442/584 312/465/609 316/466/610
f 308/467/611 305/468/612 301/469/613 307/470/614
f 310/441/583 303/440/582 304/471/615 309/472/616
f 309/472/616 304/471/615 305/468/612 308/467/611
f 317/473/617 313/474/618 314/475/619 318/476/620
f 316/466/610 312/465/609 313/474/618 317/473/617
f 319/477/621 315/478/622 311/479/623 320/480/624
f 318/476/620 314/475/619 315/478/622 319/477/621
s 54
f 290/434/625 281/429/626 292/432/578 296/435/577
f 298/444/627 294/450/628 295/448/629 299/446/630
f 297/438/580 293/437/579 294/450/628 298/444/627
f 299/446/630 295/448/629 291/422/631 300/421/632
f 285/453/633 289/463/634 288/461/635 284/455/636
f 290/434/625 289/463/634 285/453/633 281/429/626
f 283/457/637 287/459/638 286/428/639 282/427/640
f 284/455/636 288/461/635 287/459/638 283/457/637
s 57
f 340/481/641 331/482/642 347/483/643 341/484/644
f 360/485/645 351/486/646 322/487/647 326/488/648
f 321/489/649 352/490/650 346/491/651 332/492/652
f 356/493/653 330/494/654 336/495/655 342/496/656
s 61
f 336/495/657 332/492/658 333/497/659 337/498/660
s 62
f 342/499/661 343/500/662 350/501/663 346/502/664
s 57
f 336/495/655 337/498/665 343/503/666 342/496/656
f 337/498/665 338/504/667 344/505/668 343/503/666
f 338/504/667 339/506/669 345/507/670 344/505/668
f 339/506/669 340/481/641 341/484/644 345/507/670
f 331/482/642 335/508/671 348/509/672 347/483/643
f 335/508/671 334/510/673 349/511/674 348/509/672
f 334/510/673 333/497/675 350/512/676 349/511/674
f 333/497/675 332/492/652 346/491/651 350/512/676
f 321/489/649 325/513/677 353/514/678 352/490/650
f 325/513/677 324/515/679 354/516/680 353/514/678
f 324/515/679 323/517/681 355/518/682 354/516/680
f 323/517/681 322/487/647 351/486/646 355/518/682
f 326/488/648 327/519/683 359/520/684 360/485/645
f 327/519/683 328/521/685 358/522/686 359/520/684
f 328/521/685 329/523/687 357/524/688 358/522/686
f 329/523/687 330/494/654 356/493/653 357/524/688
s 62
f 342/499/661 346/502/664 352/525/689 356/526/690
f 348/527/691 345/528/692 341/529/693 347/530/694
f 350/501/663 343/500/662 344/531/695 349/532/696
f 349/532/696 344/531/695 345/528/692 348/527/691
f 357/533/697 353/534/698 354/535/699 358/536/700
f 356/526/690 352/525/689 353/534/698 357/533/697
f 359/537/701 355/538/702 351/539/703 360/540/704
f 358/536/700 354/535/699 355/538/702 359/537/701
s 61
f 330/494/705 321/489/706 332/492/658 336/495/657
f 338/504/707 334/510/708 335/508/709 339/506/710
f 337/498/660 333/497/659 334/510/708 338/504/707
f 339/506/710 335/508/709 331/482/711 340/481/712
f 325/513/713 329/523/714 328/521/715 324/515/716
f 330/494/705 329/523/714 325/513/713 321/489/706
f 323/517/717 327/519/718 326/488/719 322/487/720
f 324/515/716 328/521/715 327/519/718 323/517/717
