# This file uses centimeters as units for non-parametric coordinates.

mtllib S_S05_01.mtl
g default
v 473.992981 176.064514 39.675491
v 465.285522 189.096130 39.675491
v 452.254089 197.803528 39.675491
v 436.882355 200.861023 39.675491
v 477.050568 160.692810 39.675491
v 477.050568 160.692810 -39.675491
v 436.882355 200.861023 -39.675491
v 452.254089 197.803528 -39.675491
v 465.285522 189.096130 -39.675491
v 473.992981 176.064514 -39.675491
v -452.253906 197.803528 39.675491
v -465.285522 189.096130 39.675491
v -473.992767 176.064514 39.675491
v -477.050446 160.692810 39.675491
v -436.882233 200.861023 39.675491
v -477.050446 160.692810 -39.675491
v -473.992767 176.064514 -39.675491
v -465.285522 189.096130 -39.675491
v -452.253906 197.803528 -39.675491
v -436.882233 200.861023 -39.675491
v 452.254089 -197.803345 39.675491
v 465.285522 -189.095947 39.675491
v 473.992981 -176.064514 39.675491
v 477.050568 -160.692810 39.675491
v 436.882355 -200.861023 39.675491
v 473.992981 -176.064514 -39.675491
v 465.285522 -189.095947 -39.675491
v 452.254089 -197.803345 -39.675491
v 436.882355 -200.861023 -39.675491
v 477.050568 -160.692810 -39.675491
v -473.992767 -176.064514 39.675491
v -465.285522 -189.095947 39.675491
v -452.253906 -197.803345 39.675491
v -436.882233 -200.861023 39.675491
v -477.050446 -160.692810 39.675491
v -452.253906 -197.803345 -39.675491
v -465.285522 -189.095947 -39.675491
v -473.992767 -176.064514 -39.675491
v -477.050446 -160.692810 -39.675491
v -436.882233 -200.861023 -39.675491
vt 0.871412 0.119704
vt 0.893530 0.119705
vt 0.893517 0.363263
vt 0.871398 0.363262
vt 0.893496 0.731356
vt 0.871377 0.731355
vt 0.871391 0.487797
vt 0.893510 0.487798
vt 0.893511 0.470323
vt 0.871392 0.470322
vt 0.871397 0.380737
vt 0.893516 0.380738
vt 0.871418 0.012644
vt 0.893537 0.012645
vt 0.893531 0.102230
vt 0.871413 0.102229
vt 0.581839 0.205583
vt 0.801415 0.205583
vt 0.801415 0.279546
vt 0.581839 0.279546
vt 0.800712 0.283083
vt 0.582543 0.283084
vt 0.798708 0.286083
vt 0.584547 0.286083
vt 0.893516 0.367632
vt 0.871398 0.367631
vt 0.893516 0.372001
vt 0.871397 0.371999
vt 0.587546 0.288087
vt 0.893516 0.376369
vt 0.795708 0.288086
vt 0.871397 0.376368
vt 0.893531 0.106599
vt 0.792171 0.288790
vt 0.871412 0.106597
vt 0.893531 0.110967
vt 0.871412 0.110966
vt 0.893531 0.115336
vt 0.591084 0.288790
vt 0.871412 0.115335
vt 0.795708 0.197042
vt 0.893511 0.474692
vt 0.871392 0.474690
vt 0.587546 0.197042
vt 0.893510 0.479061
vt 0.871392 0.479059
vt 0.893510 0.483429
vt 0.871391 0.483428
vt 0.591084 0.196338
vt 0.893496 0.735725
vt 0.792171 0.196338
vt 0.871377 0.735724
vt 0.893496 0.740094
vt 0.582543 0.202045
vt 0.871418 0.003906
vt 0.893537 0.008276
vt 0.871418 0.008275
vt 0.536423 0.003906
vt 0.800712 0.202045
vt 0.292864 0.003907
vt 0.584547 0.199046
vt 0.540708 0.004759
vt 0.288580 0.004759
vt 0.798708 0.199046
vt 0.282520 0.108973
vt 0.546767 0.108973
vt 0.544340 0.112605
vt 0.284947 0.112606
vt 0.281668 0.015103
vt 0.547620 0.015103
vt 0.547620 0.104688
vt 0.281668 0.104688
vt 0.540708 0.115032
vt 0.288580 0.115033
vt 0.536423 0.115885
vt 0.292865 0.115885
vt 0.282520 0.010819
vt 0.546767 0.010818
vt 0.284947 0.007186
vt 0.544340 0.007186
vt 0.893537 0.003908
vt 0.871377 0.740092
vn -0.003439 0.999994 0.000000
vn -0.003439 0.999994 0.000000
vn 0.003439 0.999994 0.000000
vn 0.003439 0.999994 0.000000
vn -0.003439 -0.999994 0.000000
vn -0.003439 -0.999994 0.000000
vn 0.003439 -0.999994 0.000000
vn 0.003439 -0.999994 0.000000
vn 0.999959 -0.009079 0.000000
vn 0.999959 -0.009079 0.000000
vn 0.999959 0.009079 0.000000
vn 0.999959 0.009079 0.000000
vn -0.999959 -0.009079 0.000000
vn -0.999959 -0.009079 0.000000
vn -0.999959 0.009079 0.000000
vn -0.999959 0.009079 0.000000
vn 0.003439 0.999994 0.000000
vn 0.382682 0.923880 0.000000
vn 0.382682 0.923880 0.000000
vn 0.003439 0.999994 0.000000
vn 0.382682 0.923880 0.000000
vn 0.707109 0.707104 0.000000
vn 0.707109 0.707104 0.000000
vn 0.382682 0.923880 0.000000
vn 0.707109 0.707104 0.000000
vn 0.923880 0.382682 0.000000
vn 0.923880 0.382682 0.000000
vn 0.707109 0.707104 0.000000
vn 0.923880 0.382682 0.000000
vn 0.999959 0.009079 0.000000
vn 0.999959 0.009079 0.000000
vn 0.923880 0.382682 0.000000
vn -0.999959 0.009079 0.000000
vn -0.923881 0.382680 0.000000
vn -0.923881 0.382680 0.000000
vn -0.999959 0.009079 0.000000
vn -0.923881 0.382680 0.000000
vn -0.707109 0.707104 0.000000
vn -0.707109 0.707104 0.000000
vn -0.923881 0.382680 0.000000
vn -0.707109 0.707104 0.000000
vn -0.382681 0.923881 0.000000
vn -0.382681 0.923881 0.000000
vn -0.707109 0.707104 0.000000
vn -0.382681 0.923881 0.000000
vn -0.003439 0.999994 0.000000
vn -0.003439 0.999994 0.000000
vn -0.382681 0.923881 0.000000
vn 0.999959 -0.009079 0.000000
vn 0.923879 -0.382684 0.000000
vn 0.923879 -0.382684 0.000000
vn 0.999959 -0.009079 0.000000
vn 0.923879 -0.382684 0.000000
vn 0.707107 -0.707107 0.000000
vn 0.707107 -0.707107 0.000000
vn 0.923879 -0.382684 0.000000
vn 0.707107 -0.707107 0.000000
vn 0.382687 -0.923878 0.000000
vn 0.382687 -0.923878 0.000000
vn 0.707107 -0.707107 0.000000
vn 0.382687 -0.923878 0.000000
vn 0.003439 -0.999994 0.000000
vn 0.003439 -0.999994 0.000000
vn 0.382687 -0.923878 0.000000
vn -0.003439 -0.999994 0.000000
vn -0.382686 -0.923879 0.000000
vn -0.382686 -0.923879 0.000000
vn -0.003439 -0.999994 0.000000
vn -0.382686 -0.923879 0.000000
vn -0.707107 -0.707107 0.000000
vn -0.707107 -0.707107 0.000000
vn -0.382686 -0.923879 0.000000
vn -0.707107 -0.707107 0.000000
vn -0.923880 -0.382682 0.000000
vn -0.923880 -0.382682 0.000000
vn -0.707107 -0.707107 0.000000
vn -0.923880 -0.382682 0.000000
vn -0.999959 -0.009079 0.000000
vn -0.999959 -0.009079 0.000000
vn -0.923880 -0.382682 0.000000
vn 0.000000 0.000000 1.000000
vn 0.000000 0.000000 1.000000
vn 0.000000 0.000000 1.000000
vn 0.000000 0.000000 1.000000
vn 0.000000 0.000000 -1.000000
vn 0.000000 0.000000 -1.000000
vn 0.000000 0.000000 -1.000000
vn 0.000000 0.000000 -1.000000
vn 0.000000 0.000000 1.000000
vn 0.000000 0.000000 1.000000
vn 0.000000 0.000000 1.000000
vn 0.000000 0.000000 1.000000
vn 0.000000 0.000000 1.000000
vn 0.000000 0.000000 1.000000
vn 0.000000 0.000000 1.000000
vn 0.000000 0.000000 1.000000
vn 0.000000 0.000000 1.000000
vn 0.000000 0.000000 1.000000
vn 0.000000 0.000000 1.000000
vn 0.000000 0.000000 1.000000
vn 0.000000 0.000000 1.000000
vn 0.000000 0.000000 1.000000
vn 0.000000 0.000000 1.000000
vn 0.000000 0.000000 1.000000
vn 0.000000 0.000000 1.000000
vn 0.000000 0.000000 1.000000
vn 0.000000 0.000000 1.000000
vn 0.000000 0.000000 1.000000
vn 0.000000 0.000000 1.000000
vn 0.000000 0.000000 1.000000
vn 0.000000 0.000000 1.000000
vn 0.000000 0.000000 1.000000
vn 0.000000 0.000000 1.000000
vn 0.000000 0.000000 1.000000
vn 0.000000 0.000000 1.000000
vn 0.000000 0.000000 1.000000
vn 0.000000 0.000000 1.000000
vn 0.000000 0.000000 1.000000
vn 0.000000 0.000000 1.000000
vn 0.000000 0.000000 1.000000
vn 0.000000 0.000000 -1.000000
vn 0.000000 0.000000 -1.000000
vn 0.000000 0.000000 -1.000000
vn 0.000000 0.000000 -1.000000
vn 0.000000 0.000000 -1.000000
vn 0.000000 0.000000 -1.000000
vn 0.000000 0.000000 -1.000000
vn 0.000000 0.000000 -1.000000
vn 0.000000 0.000000 -1.000000
vn 0.000000 0.000000 -1.000000
vn 0.000000 0.000000 -1.000000
vn 0.000000 0.000000 -1.000000
vn 0.000000 0.000000 -1.000000
vn 0.000000 0.000000 -1.000000
vn 0.000000 0.000000 -1.000000
vn 0.000000 0.000000 -1.000000
vn 0.000000 0.000000 -1.000000
vn 0.000000 0.000000 -1.000000
vn 0.000000 0.000000 -1.000000
vn 0.000000 0.000000 -1.000000
vn 0.000000 0.000000 -1.000000
vn 0.000000 0.000000 -1.000000
vn 0.000000 0.000000 -1.000000
vn 0.000000 0.000000 -1.000000
vn 0.000000 0.000000 -1.000000
vn 0.000000 0.000000 -1.000000
vn 0.000000 0.000000 -1.000000
vn 0.000000 0.000000 -1.000000
vn 0.000000 0.000000 -1.000000
vn 0.000000 0.000000 -1.000000
vn 0.000000 0.000000 -1.000000
vn 0.000000 0.000000 -1.000000
s off
g SS34_low
usemtl aiStandardSurface1SG
f 20/1/1 15/2/2 4/3/3 7/4/4
f 34/5/5 40/6/6 29/7/7 25/8/8
f 24/9/9 30/10/10 6/11/11 5/12/12
f 39/13/13 35/14/14 14/15/15 16/16/16
f 4/3/17 3/25/18 8/26/19 7/4/20
f 3/25/21 2/27/22 9/28/23 8/26/24
f 2/27/25 1/30/26 10/32/27 9/28/28
f 1/30/29 5/12/30 6/11/31 10/32/32
f 14/15/33 13/33/34 17/35/35 16/16/36
f 13/33/37 12/36/38 18/37/39 17/35/40
f 12/36/41 11/38/42 19/40/43 18/37/44
f 11/38/45 15/2/46 20/1/47 19/40/48
f 24/9/49 23/42/50 26/43/51 30/10/52
f 23/42/53 22/45/54 27/46/55 26/43/56
f 22/45/57 21/47/58 28/48/59 27/46/60
f 21/47/61 25/8/62 29/7/63 28/48/64
f 34/5/65 33/50/66 36/52/67 40/6/68
f 33/50/69 32/53/70 37/82/71 36/52/72
f 32/81/73 31/56/74 38/57/75 37/55/76
f 31/56/77 35/14/78 39/13/79 38/57/80
f 13/65/81 1/66/82 2/67/83 12/68/84
f 30/17/85 39/18/86 16/19/87 6/20/88
f 35/69/89 24/70/90 5/71/91 14/72/92
f 14/72/93 5/71/94 1/66/95 13/65/96
f 12/68/97 2/67/98 3/73/99 11/74/100
f 11/74/101 3/73/102 4/75/103 15/76/104
f 31/77/105 23/78/106 24/70/107 35/69/108
f 31/77/109 32/79/110 22/80/111 23/78/112
f 22/80/113 32/79/114 33/63/115 21/62/116
f 21/62/117 33/63/118 34/60/119 25/58/120
f 6/20/121 16/19/122 17/21/123 10/22/124
f 10/22/125 17/21/126 18/23/127 9/24/128
f 8/29/129 19/31/130 20/34/131 7/39/132
f 9/24/133 18/23/134 19/31/135 8/29/136
f 36/41/137 28/44/138 29/49/139 40/51/140
f 26/54/141 38/59/142 39/18/143 30/17/144
f 27/61/145 37/64/146 38/59/147 26/54/148
f 36/41/149 37/64/150 27/61/151 28/44/152
