# This file uses centimeters as units for non-parametric coordinates.

mtllib S_S05_09.mtl
g default
v 179.201157 66.564224 15.000000
v 175.909164 71.490982 15.000000
v 170.982407 74.782974 15.000000
v 165.170853 75.938980 15.000000
v 180.357132 60.752701 15.000000
v 180.357132 60.752701 -15.000000
v 165.170853 75.938980 -15.000000
v 170.982407 74.782974 -15.000000
v 175.909164 71.490982 -15.000000
v 179.201157 66.564224 -15.000000
v -170.982376 74.782974 15.000000
v -175.909195 71.490982 15.000000
v -179.201126 66.564224 15.000000
v -180.357132 60.752701 15.000000
v -165.170853 75.938980 15.000000
v -180.357132 60.752701 -15.000000
v -179.201126 66.564224 -15.000000
v -175.909195 71.490982 -15.000000
v -170.982376 74.782974 -15.000000
v -165.170853 75.938980 -15.000000
v 170.982407 -74.783005 15.000000
v 175.909164 -71.491043 15.000000
v 179.201157 -66.564255 15.000000
v 180.357132 -60.752701 15.000000
v 165.170853 -75.938980 15.000000
v 179.201157 -66.564255 -15.000000
v 175.909164 -71.491043 -15.000000
v 170.982407 -74.783005 -15.000000
v 165.170853 -75.938980 -15.000000
v 180.357132 -60.752701 -15.000000
v -179.201126 -66.564255 15.000000
v -175.909195 -71.491043 15.000000
v -170.982376 -74.783005 15.000000
v -165.170853 -75.938980 15.000000
v -180.357132 -60.752701 15.000000
v -170.982376 -74.783005 -15.000000
v -175.909195 -71.491043 -15.000000
v -179.201126 -66.564255 -15.000000
v -180.357132 -60.752701 -15.000000
v -165.170853 -75.938980 -15.000000
vt 0.973969 0.119704
vt 0.996087 0.119705
vt 0.996074 0.363263
vt 0.973955 0.363262
vt 0.996054 0.731357
vt 0.973935 0.731356
vt 0.973949 0.487797
vt 0.996067 0.487798
vt 0.996068 0.470323
vt 0.973950 0.470322
vt 0.973954 0.380737
vt 0.996073 0.380738
vt 0.973974 0.012644
vt 0.996093 0.012645
vt 0.996088 0.102230
vt 0.973970 0.102229
vt 0.581839 0.205583
vt 0.801415 0.205583
vt 0.801415 0.279546
vt 0.581839 0.279546
vt 0.800711 0.283083
vt 0.582543 0.283083
vt 0.798707 0.286083
vt 0.584547 0.286083
vt 0.996074 0.367632
vt 0.973955 0.367631
vt 0.996074 0.372001
vt 0.973955 0.372000
vt 0.587546 0.288086
vt 0.996074 0.376370
vt 0.795708 0.288086
vt 0.973955 0.376368
vt 0.996088 0.106599
vt 0.792171 0.288790
vt 0.973969 0.106597
vt 0.996088 0.110967
vt 0.973969 0.110966
vt 0.996088 0.115336
vt 0.591084 0.288790
vt 0.973969 0.115335
vt 0.795708 0.197042
vt 0.996068 0.474692
vt 0.973949 0.474691
vt 0.587546 0.197042
vt 0.996068 0.479061
vt 0.973949 0.479060
vt 0.996068 0.483429
vt 0.973949 0.483428
vt 0.591084 0.196338
vt 0.996054 0.735725
vt 0.792171 0.196338
vt 0.973935 0.735724
vt 0.996054 0.740094
vt 0.582543 0.202045
vt 0.973975 0.003906
vt 0.996094 0.008276
vt 0.973975 0.008275
vt 0.536423 0.486008
vt 0.800711 0.202045
vt 0.292865 0.486008
vt 0.584547 0.199046
vt 0.540708 0.486860
vt 0.288580 0.486860
vt 0.798707 0.199046
vt 0.282520 0.591075
vt 0.546767 0.591074
vt 0.544340 0.594707
vt 0.284947 0.594707
vt 0.281668 0.497205
vt 0.547620 0.497205
vt 0.547620 0.586790
vt 0.281668 0.586790
vt 0.540708 0.597134
vt 0.288580 0.597134
vt 0.536423 0.597986
vt 0.292865 0.597987
vt 0.282520 0.492920
vt 0.546767 0.492920
vt 0.284947 0.489288
vt 0.544340 0.489287
vt 0.996094 0.003907
vt 0.973935 0.740093
vn -0.003439 0.999994 0.000000
vn -0.003439 0.999994 0.000000
vn 0.003439 0.999994 0.000000
vn 0.003439 0.999994 0.000000
vn -0.003439 -0.999994 0.000000
vn -0.003439 -0.999994 0.000000
vn 0.003439 -0.999994 0.000000
vn 0.003439 -0.999994 0.000000
vn 0.999959 -0.009079 0.000000
vn 0.999959 -0.009079 0.000000
vn 0.999959 0.009079 0.000000
vn 0.999959 0.009079 0.000000
vn -0.999959 -0.009079 0.000000
vn -0.999959 -0.009079 0.000000
vn -0.999959 0.009079 0.000000
vn -0.999959 0.009079 0.000000
vn 0.003439 0.999994 0.000000
vn 0.382687 0.923878 0.000000
vn 0.382687 0.923878 0.000000
vn 0.003439 0.999994 0.000000
vn 0.382687 0.923878 0.000000
vn 0.707107 0.707107 0.000000
vn 0.707107 0.707107 0.000000
vn 0.382687 0.923878 0.000000
vn 0.707107 0.707107 0.000000
vn 0.923879 0.382684 0.000000
vn 0.923879 0.382684 0.000000
vn 0.707107 0.707107 0.000000
vn 0.923879 0.382684 0.000000
vn 0.999959 0.009079 0.000000
vn 0.999959 0.009079 0.000000
vn 0.923879 0.382684 0.000000
vn -0.999959 0.009079 0.000000
vn -0.923880 0.382682 0.000000
vn -0.923880 0.382682 0.000000
vn -0.999959 0.009079 0.000000
vn -0.923880 0.382682 0.000000
vn -0.707107 0.707107 0.000000
vn -0.707107 0.707107 0.000000
vn -0.923880 0.382682 0.000000
vn -0.707107 0.707107 0.000000
vn -0.382686 0.923879 0.000000
vn -0.382686 0.923879 0.000000
vn -0.707107 0.707107 0.000000
vn -0.382686 0.923879 0.000000
vn -0.003439 0.999994 0.000000
vn -0.003439 0.999994 0.000000
vn -0.382686 0.923879 0.000000
vn 0.999959 -0.009079 0.000000
vn 0.923880 -0.382682 0.000000
vn 0.923880 -0.382682 0.000000
vn 0.999959 -0.009079 0.000000
vn 0.923880 -0.382682 0.000000
vn 0.707107 -0.707107 0.000000
vn 0.707107 -0.707107 0.000000
vn 0.923880 -0.382682 0.000000
vn 0.707107 -0.707107 0.000000
vn 0.382682 -0.923880 0.000000
vn 0.382682 -0.923880 0.000000
vn 0.707107 -0.707107 0.000000
vn 0.382682 -0.923880 0.000000
vn 0.003439 -0.999994 0.000000
vn 0.003439 -0.999994 0.000000
vn 0.382682 -0.923880 0.000000
vn -0.003439 -0.999994 0.000000
vn -0.382681 -0.923880 0.000000
vn -0.382681 -0.923880 0.000000
vn -0.003439 -0.999994 0.000000
vn -0.382681 -0.923880 0.000000
vn -0.707107 -0.707107 0.000000
vn -0.707107 -0.707107 0.000000
vn -0.382681 -0.923880 0.000000
vn -0.707107 -0.707107 0.000000
vn -0.923881 -0.382680 0.000000
vn -0.923881 -0.382680 0.000000
vn -0.707107 -0.707107 0.000000
vn -0.923881 -0.382680 0.000000
vn -0.999959 -0.009079 0.000000
vn -0.999959 -0.009079 0.000000
vn -0.923881 -0.382680 0.000000
vn 0.000000 0.000000 1.000000
vn 0.000000 0.000000 1.000000
vn 0.000000 0.000000 1.000000
vn 0.000000 0.000000 1.000000
vn 0.000000 0.000000 -1.000000
vn 0.000000 0.000000 -1.000000
vn 0.000000 0.000000 -1.000000
vn 0.000000 0.000000 -1.000000
vn 0.000000 0.000000 1.000000
vn 0.000000 0.000000 1.000000
vn 0.000000 0.000000 1.000000
vn 0.000000 0.000000 1.000000
vn 0.000000 0.000000 1.000000
vn 0.000000 0.000000 1.000000
vn 0.000000 0.000000 1.000000
vn 0.000000 0.000000 1.000000
vn 0.000000 0.000000 1.000000
vn 0.000000 0.000000 1.000000
vn 0.000000 0.000000 1.000000
vn 0.000000 0.000000 1.000000
vn 0.000000 0.000000 1.000000
vn 0.000000 0.000000 1.000000
vn 0.000000 0.000000 1.000000
vn 0.000000 0.000000 1.000000
vn 0.000000 0.000000 1.000000
vn 0.000000 0.000000 1.000000
vn 0.000000 0.000000 1.000000
vn 0.000000 0.000000 1.000000
vn 0.000000 0.000000 1.000000
vn 0.000000 0.000000 1.000000
vn 0.000000 0.000000 1.000000
vn 0.000000 0.000000 1.000000
vn 0.000000 0.000000 1.000000
vn 0.000000 0.000000 1.000000
vn 0.000000 0.000000 1.000000
vn 0.000000 0.000000 1.000000
vn 0.000000 0.000000 1.000000
vn 0.000000 0.000000 1.000000
vn 0.000000 0.000000 1.000000
vn 0.000000 0.000000 1.000000
vn 0.000000 0.000000 -1.000000
vn 0.000000 0.000000 -1.000000
vn 0.000000 0.000000 -1.000000
vn 0.000000 0.000000 -1.000000
vn 0.000000 0.000000 -1.000000
vn 0.000000 0.000000 -1.000000
vn 0.000000 0.000000 -1.000000
vn 0.000000 0.000000 -1.000000
vn 0.000000 0.000000 -1.000000
vn 0.000000 0.000000 -1.000000
vn 0.000000 0.000000 -1.000000
vn 0.000000 0.000000 -1.000000
vn 0.000000 0.000000 -1.000000
vn 0.000000 0.000000 -1.000000
vn 0.000000 0.000000 -1.000000
vn 0.000000 0.000000 -1.000000
vn 0.000000 0.000000 -1.000000
vn 0.000000 0.000000 -1.000000
vn 0.000000 0.000000 -1.000000
vn 0.000000 0.000000 -1.000000
vn 0.000000 0.000000 -1.000000
vn 0.000000 0.000000 -1.000000
vn 0.000000 0.000000 -1.000000
vn 0.000000 0.000000 -1.000000
vn 0.000000 0.000000 -1.000000
vn 0.000000 0.000000 -1.000000
vn 0.000000 0.000000 -1.000000
vn 0.000000 0.000000 -1.000000
vn 0.000000 0.000000 -1.000000
vn 0.000000 0.000000 -1.000000
vn 0.000000 0.000000 -1.000000
vn 0.000000 0.000000 -1.000000
s off
g SS42_low
usemtl set1
f 20/1/1 15/2/2 4/3/3 7/4/4
f 34/5/5 40/6/6 29/7/7 25/8/8
f 24/9/9 30/10/10 6/11/11 5/12/12
f 39/13/13 35/14/14 14/15/15 16/16/16
f 4/3/17 3/25/18 8/26/19 7/4/20
f 3/25/21 2/27/22 9/28/23 8/26/24
f 2/27/25 1/30/26 10/32/27 9/28/28
f 1/30/29 5/12/30 6/11/31 10/32/32
f 14/15/33 13/33/34 17/35/35 16/16/36
f 13/33/37 12/36/38 18/37/39 17/35/40
f 12/36/41 11/38/42 19/40/43 18/37/44
f 11/38/45 15/2/46 20/1/47 19/40/48
f 24/9/49 23/42/50 26/43/51 30/10/52
f 23/42/53 22/45/54 27/46/55 26/43/56
f 22/45/57 21/47/58 28/48/59 27/46/60
f 21/47/61 25/8/62 29/7/63 28/48/64
f 34/5/65 33/50/66 36/52/67 40/6/68
f 33/50/69 32/53/70 37/82/71 36/52/72
f 32/81/73 31/56/74 38/57/75 37/55/76
f 31/56/77 35/14/78 39/13/79 38/57/80
f 13/65/81 1/66/82 2/67/83 12/68/84
f 30/17/85 39/18/86 16/19/87 6/20/88
f 35/69/89 24/70/90 5/71/91 14/72/92
f 14/72/93 5/71/94 1/66/95 13/65/96
f 12/68/97 2/67/98 3/73/99 11/74/100
f 11/74/101 3/73/102 4/75/103 15/76/104
f 31/77/105 23/78/106 24/70/107 35/69/108
f 31/77/109 32/79/110 22/80/111 23/78/112
f 22/80/113 32/79/114 33/63/115 21/62/116
f 21/62/117 33/63/118 34/60/119 25/58/120
f 6/20/121 16/19/122 17/21/123 10/22/124
f 10/22/125 17/21/126 18/23/127 9/24/128
f 8/29/129 19/31/130 20/34/131 7/39/132
f 9/24/133 18/23/134 19/31/135 8/29/136
f 36/41/137 28/44/138 29/49/139 40/51/140
f 26/54/141 38/59/142 39/18/143 30/17/144
f 27/61/145 37/64/146 38/59/147 26/54/148
f 36/41/149 37/64/150 27/61/151 28/44/152
