# This file uses centimeters as units for non-parametric coordinates.

mtllib S_S03_04.mtl
g default
v -135.352722 59.707230 10.953260
v -139.286316 57.078873 10.953260
v -141.914642 53.145309 10.953260
v -142.837585 48.505325 10.953260
v -130.712769 60.630142 10.953260
v -142.837585 48.505325 -10.953260
v -141.914642 53.145309 -10.953260
v -139.286316 57.078873 -10.953260
v -135.352722 59.707230 -10.953260
v -130.712769 60.630142 -10.953260
v 141.914642 53.145309 10.953260
v 139.286316 57.078873 10.953260
v 135.352661 59.707230 10.953260
v 130.712769 60.630142 10.953260
v 142.837585 48.505325 10.953260
v 142.837585 48.505325 -10.953260
v 130.712769 60.630142 -10.953260
v 135.352661 59.707230 -10.953260
v 139.286316 57.078873 -10.953260
v 141.914642 53.145309 -10.953260
v -141.914642 -53.145294 10.953260
v -139.286316 -57.078873 10.953260
v -135.352722 -59.707199 10.953260
v -130.712769 -60.630142 10.953260
v -142.837585 -48.505325 10.953260
v -135.352722 -59.707199 -10.953260
v -139.286316 -57.078873 -10.953260
v -141.914642 -53.145294 -10.953260
v -142.837585 -48.505325 -10.953260
v -130.712769 -60.630142 -10.953260
v 135.352661 -59.707199 10.953260
v 139.286316 -57.078873 10.953260
v 141.914642 -53.145294 10.953260
v 142.837585 -48.505325 10.953260
v 130.712769 -60.630142 10.953260
v 141.914642 -53.145294 -10.953260
v 139.286316 -57.078873 -10.953260
v 135.352661 -59.707199 -10.953260
v 130.712769 -60.630142 -10.953260
v 142.837585 -48.505325 -10.953260
vt 0.086566 0.168988
vt 0.093258 0.155165
vt 0.279249 0.154425
vt 0.286415 0.168972
vt 0.093250 0.067919
vt 0.086079 0.053375
vt 0.285948 0.053359
vt 0.279255 0.067180
vt 0.287234 0.076668
vt 0.301888 0.070068
vt 0.300651 0.151271
vt 0.287395 0.145230
vt 0.071847 0.071094
vt 0.085112 0.077118
vt 0.085272 0.145674
vt 0.070627 0.152293
vt 0.085882 0.149127
vt 0.074100 0.156944
vt 0.087662 0.151906
vt 0.077898 0.161268
vt 0.090257 0.153943
vt 0.082060 0.165251
vt 0.282272 0.153314
vt 0.290664 0.164871
vt 0.284927 0.151379
vt 0.294465 0.160572
vt 0.286761 0.148682
vt 0.297776 0.156010
vt 0.090226 0.069030
vt 0.081828 0.057479
vt 0.087581 0.070969
vt 0.078029 0.061782
vt 0.085747 0.073666
vt 0.074720 0.066349
vt 0.286623 0.073218
vt 0.298426 0.065406
vt 0.284843 0.070440
vt 0.294624 0.061077
vt 0.282256 0.068402
vt 0.290457 0.057094
vt 0.615772 0.977427
vt 0.615770 0.986294
vt 0.615431 0.986226
vt 0.615433 0.977495
vt 0.635515 0.977690
vt 0.635513 0.986038
vt 0.635226 0.986230
vt 0.635227 0.977498
vt 0.634886 0.986297
vt 0.634888 0.977430
vt 0.635706 0.985750
vt 0.635707 0.977978
vt 0.635774 0.978317
vt 0.635773 0.985411
vt 0.615145 0.977687
vt 0.615144 0.986034
vt 0.614951 0.985747
vt 0.614953 0.977974
vt 0.614884 0.985407
vt 0.614885 0.978314
vn -0.003469 0.999994 0.000000
vn -0.003469 0.999994 0.000000
vn 0.003469 0.999994 0.000000
vn 0.003469 0.999994 0.000000
vn -0.003469 -0.999994 0.000000
vn -0.003469 -0.999994 0.000000
vn 0.003469 -0.999994 0.000000
vn 0.003469 -0.999994 0.000000
vn 0.999959 -0.009079 0.000000
vn 0.999959 -0.009079 0.000000
vn 0.999959 0.009079 0.000000
vn 0.999959 0.009079 0.000000
vn -0.999959 -0.009079 0.000000
vn -0.999959 -0.009079 0.000000
vn -0.999959 0.009079 0.000000
vn -0.999959 0.009079 0.000000
vn -0.999959 0.009079 0.000000
vn -0.923880 0.382682 0.000000
vn -0.923880 0.382682 0.000000
vn -0.999959 0.009079 0.000000
vn -0.923880 0.382682 0.000000
vn -0.707107 0.707107 0.000000
vn -0.707107 0.707107 0.000000
vn -0.923880 0.382682 0.000000
vn -0.707107 0.707107 0.000000
vn -0.382682 0.923880 0.000000
vn -0.382682 0.923880 0.000000
vn -0.707107 0.707107 0.000000
vn -0.382682 0.923880 0.000000
vn -0.003469 0.999994 0.000000
vn -0.003469 0.999994 0.000000
vn -0.382682 0.923880 0.000000
vn 0.003469 0.999994 0.000000
vn 0.382683 0.923880 0.000000
vn 0.382683 0.923880 0.000000
vn 0.003469 0.999994 0.000000
vn 0.382683 0.923880 0.000000
vn 0.707104 0.707110 0.000000
vn 0.707104 0.707110 0.000000
vn 0.382683 0.923880 0.000000
vn 0.707104 0.707110 0.000000
vn 0.923879 0.382684 0.000000
vn 0.923879 0.382684 0.000000
vn 0.707104 0.707110 0.000000
vn 0.923879 0.382684 0.000000
vn 0.999959 0.009079 0.000000
vn 0.999959 0.009079 0.000000
vn 0.923879 0.382684 0.000000
vn -0.003469 -0.999994 0.000000
vn -0.382682 -0.923880 0.000000
vn -0.382682 -0.923880 0.000000
vn -0.003469 -0.999994 0.000000
vn -0.382682 -0.923880 0.000000
vn -0.707106 -0.707107 0.000000
vn -0.707106 -0.707107 0.000000
vn -0.382682 -0.923880 0.000000
vn -0.707106 -0.707107 0.000000
vn -0.923880 -0.382682 0.000000
vn -0.923880 -0.382682 0.000000
vn -0.707106 -0.707107 0.000000
vn -0.923880 -0.382682 0.000000
vn -0.999959 -0.009079 0.000000
vn -0.999959 -0.009079 0.000000
vn -0.923880 -0.382682 0.000000
vn 0.999959 -0.009079 0.000000
vn 0.923879 -0.382684 0.000000
vn 0.923879 -0.382684 0.000000
vn 0.999959 -0.009079 0.000000
vn 0.923879 -0.382684 0.000000
vn 0.707103 -0.707110 0.000000
vn 0.707103 -0.707110 0.000000
vn 0.923879 -0.382684 0.000000
vn 0.707103 -0.707110 0.000000
vn 0.382683 -0.923880 0.000000
vn 0.382683 -0.923880 0.000000
vn 0.707103 -0.707110 0.000000
vn 0.382683 -0.923880 0.000000
vn 0.003469 -0.999994 0.000000
vn 0.003469 -0.999994 0.000000
vn 0.382683 -0.923880 0.000000
vn 0.000000 0.000000 1.000000
vn 0.000000 0.000000 1.000000
vn 0.000000 0.000000 1.000000
vn 0.000000 0.000000 1.000000
vn 0.000000 0.000000 -1.000000
vn 0.000000 0.000000 -1.000000
vn 0.000000 0.000000 -1.000000
vn 0.000000 0.000000 -1.000000
vn 0.000000 0.000000 1.000000
vn 0.000000 0.000000 1.000000
vn 0.000000 0.000000 1.000000
vn 0.000000 0.000000 1.000000
vn 0.000000 0.000000 1.000000
vn 0.000000 0.000000 1.000000
vn 0.000000 0.000000 1.000000
vn 0.000000 0.000000 1.000000
vn 0.000000 0.000000 1.000000
vn 0.000000 0.000000 1.000000
vn 0.000000 0.000000 1.000000
vn 0.000000 0.000000 1.000000
vn 0.000000 0.000000 1.000000
vn 0.000000 0.000000 1.000000
vn 0.000000 0.000000 1.000000
vn 0.000000 0.000000 1.000000
vn 0.000000 0.000000 1.000000
vn 0.000000 0.000000 1.000000
vn 0.000000 0.000000 1.000000
vn 0.000000 0.000000 1.000000
vn 0.000000 0.000000 1.000000
vn 0.000000 0.000000 1.000000
vn 0.000000 0.000000 1.000000
vn 0.000000 0.000000 1.000000
vn 0.000000 0.000000 1.000000
vn 0.000000 0.000000 1.000000
vn 0.000000 0.000000 1.000000
vn 0.000000 0.000000 1.000000
vn 0.000000 0.000000 1.000000
vn 0.000000 0.000000 1.000000
vn 0.000000 0.000000 1.000000
vn 0.000000 0.000000 1.000000
vn 0.000000 0.000000 -1.000000
vn 0.000000 0.000000 -1.000000
vn 0.000000 0.000000 -1.000000
vn 0.000000 0.000000 -1.000000
vn 0.000000 0.000000 -1.000000
vn 0.000000 0.000000 -1.000000
vn 0.000000 0.000000 -1.000000
vn 0.000000 0.000000 -1.000000
vn 0.000000 0.000000 -1.000000
vn 0.000000 0.000000 -1.000000
vn 0.000000 0.000000 -1.000000
vn 0.000000 0.000000 -1.000000
vn 0.000000 0.000000 -1.000000
vn 0.000000 0.000000 -1.000000
vn 0.000000 0.000000 -1.000000
vn 0.000000 0.000000 -1.000000
vn 0.000000 0.000000 -1.000000
vn 0.000000 0.000000 -1.000000
vn 0.000000 0.000000 -1.000000
vn 0.000000 0.000000 -1.000000
vn 0.000000 0.000000 -1.000000
vn 0.000000 0.000000 -1.000000
vn 0.000000 0.000000 -1.000000
vn 0.000000 0.000000 -1.000000
vn 0.000000 0.000000 -1.000000
vn 0.000000 0.000000 -1.000000
vn 0.000000 0.000000 -1.000000
vn 0.000000 0.000000 -1.000000
vn 0.000000 0.000000 -1.000000
vn 0.000000 0.000000 -1.000000
vn -0.000001 0.000000 -1.000000
vn -0.000001 0.000000 -1.000000
s off
g S_S03_04
usemtl set3
f 10/1/1 5/2/2 14/3/3 17/4/4
f 24/5/5 30/6/6 39/7/7 35/8/8
f 34/9/9 40/10/10 16/11/11 15/12/12
f 29/13/13 25/14/14 4/15/15 6/16/16
f 4/15/17 3/17/18 7/18/19 6/16/20
f 3/17/21 2/19/22 8/20/23 7/18/24
f 2/19/25 1/21/26 9/22/27 8/20/28
f 1/21/29 5/2/30 10/1/31 9/22/32
f 14/3/33 13/23/34 18/24/35 17/4/36
f 13/23/37 12/25/38 19/26/39 18/24/40
f 12/25/41 11/27/42 20/28/43 19/26/44
f 11/27/45 15/12/46 16/11/47 20/28/48
f 24/5/49 23/29/50 26/30/51 30/6/52
f 23/29/53 22/31/54 27/32/55 26/30/56
f 22/31/57 21/33/58 28/34/59 27/32/60
f 21/33/61 25/14/62 29/13/63 28/34/64
f 34/9/65 33/35/66 36/36/67 40/10/68
f 33/35/69 32/37/70 37/38/71 36/36/72
f 32/37/73 31/39/74 38/40/75 37/38/76
f 31/39/77 35/8/78 39/7/79 38/40/80
f 31/39/81 13/23/82 14/3/83 35/8/84
f 10/41/85 30/42/86 26/43/87 9/44/88
f 23/29/89 1/21/90 2/19/91 22/31/92
f 24/5/93 5/2/94 1/21/95 23/29/96
f 21/33/97 3/17/98 4/15/99 25/14/100
f 22/31/101 2/19/102 3/17/103 21/33/104
f 35/8/105 14/3/106 5/2/107 24/5/108
f 12/25/109 32/37/110 33/35/111 11/27/112
f 31/39/113 32/37/114 12/25/115 13/23/116
f 11/27/117 33/35/118 34/9/119 15/12/120
f 19/45/121 37/46/122 38/47/123 18/48/124
f 18/48/125 38/47/126 39/49/127 17/50/128
f 36/51/129 20/52/130 16/53/131 40/54/132
f 36/51/133 37/46/134 19/45/135 20/52/136
f 17/50/137 39/49/138 30/42/139 10/41/140
f 8/55/141 27/56/142 28/57/143 7/58/144
f 9/44/145 26/43/146 27/56/147 8/55/148
f 7/58/149 28/57/150 29/59/151 6/60/152
