# This file uses centimeters as units for non-parametric coordinates.

mtllib S_S01_06.mtl
g default
v -131.482391 147.716614 12.206909
v -141.214111 141.214081 12.206909
v -147.716644 131.482361 12.206909
v -150.000031 120.002998 12.206909
v -120.003029 150.000000 12.206909
v -150.000031 120.002998 -12.206909
v -147.716644 131.482361 -12.206909
v -141.214111 141.214081 -12.206909
v -131.482391 147.716614 -12.206909
v -120.003029 150.000000 -12.206909
v 147.716614 131.482361 12.206909
v 141.214081 141.214081 12.206909
v 131.482361 147.716614 12.206909
v 120.002998 150.000000 12.206909
v 150.000000 120.002998 12.206909
v 150.000000 120.002998 -12.206909
v 120.002998 150.000000 -12.206909
v 131.482361 147.716614 -12.206909
v 141.214081 141.214081 -12.206909
v 147.716614 131.482361 -12.206909
v -147.716644 -131.482361 12.206909
v -141.214111 -141.214081 12.206909
v -131.482391 -147.716614 12.206909
v -120.003029 -150.000000 12.206909
v -150.000031 -120.002998 12.206909
v -131.482391 -147.716614 -12.206909
v -141.214111 -141.214081 -12.206909
v -147.716644 -131.482361 -12.206909
v -150.000031 -120.002998 -12.206909
v -120.003029 -150.000000 -12.206909
v 131.482361 -147.716614 12.206909
v 141.214081 -141.214081 12.206909
v 147.716614 -131.482361 12.206909
v 150.000000 -120.002998 12.206909
v 120.002998 -150.000000 12.206909
v 147.716614 -131.482361 -12.206909
v 141.214081 -141.214081 -12.206909
v 131.482361 -147.716614 -12.206909
v 120.002998 -150.000000 -12.206909
v 150.000000 -120.002998 -12.206909
vt 0.299099 0.984198
vt 0.027985 0.938197
vt 0.345361 0.713182
vt 0.074245 0.667180
vt 0.050273 0.935272
vt 0.075027 0.984375
vt 0.296318 0.961894
vt 0.345348 0.937434
vt 0.077027 0.689484
vt 0.027996 0.713944
vt 0.323073 0.716107
vt 0.298319 0.667003
vt 0.323490 0.934826
vt 0.077481 0.962478
vt 0.049855 0.716552
vt 0.295865 0.688900
vt 0.429666 0.966790
vt 0.429665 0.949337
vt 0.431846 0.947156
vt 0.449298 0.947155
vt 0.451480 0.949335
vt 0.451481 0.966788
vt 0.449300 0.968969
vt 0.431849 0.968971
vt 0.067089 0.960343
vt 0.058202 0.955169
vt 0.052366 0.945584
vt 0.031441 0.950251
vt 0.450133 0.947320
vt 0.052344 0.978286
vt 0.450841 0.947793
vt 0.035347 0.960754
vt 0.063225 0.981719
vt 0.451314 0.948501
vt 0.321422 0.945197
vt 0.315629 0.954604
vt 0.306690 0.959787
vt 0.310942 0.980978
vt 0.451315 0.967623
vt 0.338884 0.960458
vt 0.450842 0.968331
vt 0.321388 0.977260
vt 0.342623 0.949424
vt 0.450135 0.968804
vt 0.051923 0.706181
vt 0.057716 0.696774
vt 0.066655 0.691591
vt 0.062404 0.670400
vt 0.429831 0.948503
vt 0.034462 0.690921
vt 0.430304 0.947796
vt 0.051958 0.674118
vt 0.030723 0.701954
vt 0.431012 0.947322
vt 0.306257 0.691035
vt 0.315144 0.696210
vt 0.320979 0.705794
vt 0.341905 0.701129
vt 0.431013 0.968805
vt 0.321003 0.673092
vt 0.430305 0.968332
vt 0.338000 0.690625
vt 0.310121 0.669659
vt 0.429832 0.967625
vn -0.009079 0.999959 0.000000
vn -0.009079 0.999959 0.000000
vn 0.009079 0.999959 0.000000
vn 0.009079 0.999959 0.000000
vn -0.009079 -0.999959 0.000000
vn -0.009079 -0.999959 0.000000
vn 0.009079 -0.999959 0.000000
vn 0.009079 -0.999959 0.000000
vn 0.999959 -0.009079 0.000000
vn 0.999959 -0.009079 0.000000
vn 0.999959 0.009079 0.000000
vn 0.999959 0.009079 0.000000
vn -0.999959 -0.009079 0.000000
vn -0.999959 -0.009079 0.000000
vn -0.999959 0.009079 0.000000
vn -0.999959 0.009079 0.000000
vn -0.999959 0.009079 0.000000
vn -0.923880 0.382683 0.000000
vn -0.923880 0.382683 0.000000
vn -0.999959 0.009079 0.000000
vn -0.923880 0.382683 0.000000
vn -0.707107 0.707107 0.000000
vn -0.707107 0.707107 0.000000
vn -0.923880 0.382683 0.000000
vn -0.707107 0.707107 0.000000
vn -0.382684 0.923880 0.000000
vn -0.382684 0.923880 0.000000
vn -0.707107 0.707107 0.000000
vn -0.382684 0.923880 0.000000
vn -0.009079 0.999959 0.000000
vn -0.009079 0.999959 0.000000
vn -0.382684 0.923880 0.000000
vn 0.009079 0.999959 0.000000
vn 0.382684 0.923880 0.000000
vn 0.382684 0.923880 0.000000
vn 0.009079 0.999959 0.000000
vn 0.382684 0.923880 0.000000
vn 0.707107 0.707107 0.000000
vn 0.707107 0.707107 0.000000
vn 0.382684 0.923880 0.000000
vn 0.707107 0.707107 0.000000
vn 0.923880 0.382683 0.000000
vn 0.923880 0.382683 0.000000
vn 0.707107 0.707107 0.000000
vn 0.923880 0.382683 0.000000
vn 0.999959 0.009079 0.000000
vn 0.999959 0.009079 0.000000
vn 0.923880 0.382683 0.000000
vn -0.009079 -0.999959 0.000000
vn -0.382684 -0.923880 0.000000
vn -0.382684 -0.923880 0.000000
vn -0.009079 -0.999959 0.000000
vn -0.382684 -0.923880 0.000000
vn -0.707107 -0.707107 0.000000
vn -0.707107 -0.707107 0.000000
vn -0.382684 -0.923880 0.000000
vn -0.707107 -0.707107 0.000000
vn -0.923880 -0.382683 0.000000
vn -0.923880 -0.382683 0.000000
vn -0.707107 -0.707107 0.000000
vn -0.923880 -0.382683 0.000000
vn -0.999959 -0.009079 0.000000
vn -0.999959 -0.009079 0.000000
vn -0.923880 -0.382683 0.000000
vn 0.999959 -0.009079 0.000000
vn 0.923880 -0.382683 0.000000
vn 0.923880 -0.382683 0.000000
vn 0.999959 -0.009079 0.000000
vn 0.923880 -0.382683 0.000000
vn 0.707107 -0.707107 0.000000
vn 0.707107 -0.707107 0.000000
vn 0.923880 -0.382683 0.000000
vn 0.707107 -0.707107 0.000000
vn 0.382684 -0.923880 0.000000
vn 0.382684 -0.923880 0.000000
vn 0.707107 -0.707107 0.000000
vn 0.382684 -0.923880 0.000000
vn 0.009079 -0.999959 0.000000
vn 0.009079 -0.999959 0.000000
vn 0.382684 -0.923880 0.000000
vn -0.000000 0.000000 -1.000000
vn -0.000000 0.000000 -1.000000
vn 0.000000 0.000000 -1.000000
vn 0.000000 0.000000 -1.000000
vn 0.000000 0.000000 1.000000
vn 0.000000 0.000000 1.000000
vn 0.000000 0.000000 1.000000
vn 0.000000 0.000000 1.000000
vn -0.000000 0.000000 1.000000
vn 0.000000 0.000000 1.000000
vn 0.000000 0.000000 1.000000
vn -0.000000 0.000000 1.000000
vn 0.000000 0.000000 1.000000
vn 0.000000 0.000000 1.000000
vn -0.000000 0.000000 1.000000
vn -0.000000 0.000000 1.000000
vn 0.000000 0.000000 -1.000000
vn 0.000000 0.000000 -1.000000
vn 0.000000 0.000000 -1.000000
vn 0.000000 0.000000 -1.000000
vn 0.000000 0.000000 -1.000000
vn 0.000000 0.000000 -1.000000
vn 0.000000 0.000000 -1.000000
vn 0.000000 0.000000 -1.000000
vn -0.000000 0.000000 1.000000
vn -0.000000 0.000000 1.000000
vn 0.000000 0.000000 1.000000
vn 0.000000 0.000000 1.000000
vn -0.000000 0.000000 1.000000
vn -0.000000 0.000000 1.000000
vn -0.000000 0.000000 1.000000
vn -0.000000 0.000000 1.000000
vn 0.000000 0.000000 1.000000
vn 0.000000 0.000000 1.000000
vn -0.000000 0.000000 1.000000
vn -0.000000 0.000000 1.000000
vn -0.000000 0.000000 1.000000
vn -0.000000 0.000000 1.000000
vn 0.000000 0.000000 1.000000
vn 0.000000 0.000000 1.000000
vn -0.000000 0.000000 1.000000
vn -0.000000 0.000000 1.000000
vn 0.000000 0.000000 1.000000
vn 0.000000 0.000000 1.000000
vn 0.000000 0.000000 1.000000
vn 0.000000 0.000000 1.000000
vn -0.000000 0.000000 1.000000
vn -0.000000 0.000000 1.000000
vn 0.000000 0.000000 -1.000000
vn 0.000000 0.000000 -1.000000
vn -0.000000 0.000000 -1.000000
vn -0.000000 0.000000 -1.000000
vn 0.000000 0.000000 -1.000000
vn 0.000000 0.000000 -1.000000
vn 0.000000 0.000000 -1.000000
vn 0.000000 0.000000 -1.000000
vn -0.000000 0.000000 -1.000000
vn -0.000000 0.000000 -1.000000
vn 0.000000 0.000000 -1.000000
vn 0.000000 0.000000 -1.000000
vn 0.000000 0.000000 -1.000000
vn 0.000000 0.000000 -1.000000
vn -0.000000 0.000000 -1.000000
vn -0.000000 0.000000 -1.000000
vn -0.000000 0.000000 -1.000000
vn -0.000000 0.000000 -1.000000
vn 0.000000 0.000000 -1.000000
vn 0.000000 0.000000 -1.000000
vn -0.000000 0.000000 -1.000000
vn -0.000000 0.000000 -1.000000
vn -0.000000 0.000000 -1.000000
vn -0.000000 0.000000 -1.000000
s off
g S_S01_06
usemtl set1
f 10/6/1 5/14/2 14/7/3 17/1/4
f 24/9/5 30/4/6 39/12/7 35/16/8
f 34/11/9 40/3/10 16/8/11 15/13/12
f 29/10/13 25/15/14 4/5/15 6/2/16
f 4/5/17 3/27/18 7/28/19 6/2/20
f 3/27/21 2/26/22 8/32/23 7/28/24
f 2/26/25 1/25/26 9/33/27 8/30/28
f 1/25/29 5/14/30 10/6/31 9/33/32
f 14/7/33 13/37/34 18/38/35 17/1/36
f 13/37/37 12/36/38 19/42/39 18/38/40
f 12/36/41 11/35/42 20/43/43 19/40/44
f 11/35/45 15/13/46 16/8/47 20/43/48
f 24/9/49 23/47/50 26/48/51 30/4/52
f 23/47/53 22/46/54 27/52/55 26/48/56
f 22/46/57 21/45/58 28/53/59 27/50/60
f 21/45/61 25/15/62 29/10/63 28/53/64
f 34/11/65 33/57/66 36/58/67 40/3/68
f 33/57/69 32/56/70 37/62/71 36/58/72
f 32/56/73 31/55/74 38/63/75 37/60/76
f 31/55/77 35/16/78 39/12/79 38/63/80
f 26/49/81 9/34/82 10/21/83 30/18/84
f 13/37/85 31/55/86 32/56/87 12/36/88
f 14/7/89 5/14/90 24/9/91 35/16/92
f 24/9/93 5/14/94 1/25/95 23/47/96
f 17/22/97 18/39/98 38/64/99 39/17/100
f 17/22/101 39/17/102 30/18/103 10/21/104
f 22/46/105 2/26/106 3/27/107 21/45/108
f 23/47/109 1/25/110 2/26/111 22/46/112
f 21/45/113 3/27/114 4/5/115 25/15/116
f 14/7/117 35/16/118 31/55/119 13/37/120
f 11/35/121 33/57/122 34/11/123 15/13/124
f 12/36/125 32/56/126 33/57/127 11/35/128
f 37/61/129 19/41/130 20/44/131 36/59/132
f 38/64/133 18/39/134 19/41/135 37/61/136
f 36/59/137 20/44/138 16/23/139 40/24/140
f 7/29/141 28/54/142 29/19/143 6/20/144
f 8/31/145 27/51/146 28/54/147 7/29/148
f 8/31/149 9/34/150 26/49/151 27/51/152
