# This file uses centimeters as units for non-parametric coordinates.

mtllib S_S02_04.mtl
g default
v -466.417236 -78.210968 35.151184
v -469.529480 -78.230072 32.102692
v -428.106384 -78.167816 32.175385
v -431.185364 -78.157257 35.174530
v -430.387085 -40.384125 36.419281
v -426.036377 -41.005646 32.119720
v -471.398926 -39.933197 32.119720
v -467.028809 -40.348480 36.419281
v -469.537109 -78.229034 -32.113708
v -466.447754 -78.220306 -35.158722
v -467.028809 -40.348480 -36.419281
v -471.398926 -39.933197 -32.119690
v -430.387085 -40.384125 -36.419281
v -426.036377 -41.005646 -32.119690
v -428.106384 -78.167816 -32.174713
v -431.185364 -78.157257 -35.174530
v 458.308289 -78.138031 -27.819275
v 462.671570 -78.138031 -23.519684
v 462.671570 -41.004303 -23.519684
v 458.308289 -41.004303 -27.819275
v 458.308289 -78.138031 27.819275
v 462.671570 -78.138031 23.519714
v 462.671570 -41.004303 23.519714
v 458.308289 -41.004303 27.819275
v -364.238281 78.228760 -32.119690
v -363.468994 73.929199 -36.419281
v -311.207275 76.263672 -36.419281
v -305.718872 78.228760 -30.665039
v -363.468994 73.929199 36.419281
v -364.238281 78.228760 32.119720
v -305.718872 78.228760 30.665070
v -311.207275 76.263672 36.419281
v -397.387146 61.765015 36.419281
v -399.577881 65.554810 32.119720
v -399.577881 65.554810 -32.119690
v -397.387146 61.765015 -36.419281
v 467.035706 69.855774 -36.419281
v 471.398926 69.855774 -32.119690
v 467.035706 65.556213 -32.119690
v 471.398926 69.855774 32.119720
v 467.035706 69.855774 36.419281
v 467.035706 65.556213 32.119720
v 467.035706 78.230103 -32.119690
v 471.398926 73.930542 -32.119690
v 467.035706 73.930542 -36.419281
v 467.035706 73.930542 36.419281
v 471.398926 73.930542 32.119720
v 467.035706 78.230103 32.119720
v -419.420654 -0.777496 36.419281
v -415.406006 -2.612579 32.119720
v -393.999451 35.658325 36.419281
v -390.874207 32.548401 32.119720
v -459.326904 -4.273895 36.419281
v -463.431030 -2.612579 32.119720
v -440.450195 32.548401 32.119720
v -437.153564 29.651672 36.419281
v -463.431030 -2.612579 -32.119690
v -459.326904 -4.273895 -36.419281
v -437.153564 29.651672 -36.419281
v -440.450195 32.548401 -32.119690
v -419.420654 -0.777496 -36.419281
v -415.406006 -2.612579 -32.119690
v -393.999451 35.658325 -36.419281
v -390.874207 32.548401 -32.119690
v 462.671570 -2.611237 -23.519684
v 458.308289 -2.611237 -27.819275
v 462.671570 32.549744 -23.519684
v 458.308289 32.549744 -27.819275
v 462.671570 -2.611237 23.519714
v 458.308289 -2.611237 27.819275
v 462.671570 32.549744 23.519714
v 458.308289 32.549744 27.819275
v -342.448242 69.854431 36.419281
v -341.116455 65.554871 32.119720
v -342.448242 69.854431 -36.419281
v -341.116455 65.554871 -32.119690
v 467.034790 65.556213 -32.118835
v 463.949463 64.296875 -26.038330
v 460.864197 64.296875 -29.078583
v 467.034790 65.556213 32.118866
v 460.864197 64.296875 29.078613
v 463.949463 64.296875 26.038330
v -340.726379 64.295532 -29.078583
v -341.116455 65.554871 -32.118835
v -389.958923 31.637512 -29.078583
v -390.874207 32.548401 -32.118835
v -414.230164 -3.150055 -29.078583
v -415.406006 -2.612579 -32.118835
v -424.762085 -41.187653 -29.078583
v -426.036377 -41.005646 -32.118835
v -424.762085 -41.187653 29.078613
v -426.036377 -41.005646 32.118866
v -414.230164 -3.150055 29.078613
v -415.406006 -2.612579 32.118866
v -389.958923 31.637512 29.078613
v -390.874207 32.548401 32.118866
v -340.726379 64.295532 29.078613
v -341.116455 65.554871 32.118866
v -426.837341 -78.137421 -27.813843
v -426.837341 -78.137421 27.813843
vt 0.005107 0.155364
vt 0.025767 0.149475
vt 0.485613 0.880534
vt 0.007207 0.175185
vt 0.489975 0.883170
vt 0.010184 0.173745
vt 0.028525 0.148904
vt 0.029337 0.170211
vt 0.491453 0.880893
vt 0.491082 0.880629
vt 0.490341 0.883348
vt 0.493481 0.884549
vt 0.493914 0.884665
vt 0.561435 0.884276
vt 0.561711 0.881341
vt 0.561262 0.881467
vt 0.561998 0.884187
vt 0.032344 0.169003
vt 0.514457 0.148343
vt 0.065357 0.235806
vt 0.565781 0.883258
vt 0.499486 0.873101
vt 0.503269 0.872805
vt 0.499371 0.872685
vt 0.097880 0.237526
vt 0.066470 0.232623
vt 0.095084 0.234216
vt 0.503651 0.872334
vt 0.561331 0.872923
vt 0.500983 0.873313
vt 0.561394 0.873309
vt 0.501130 0.873773
vt 0.561515 0.872840
vt 0.561540 0.872550
vt 0.561349 0.872663
vt 0.518752 0.231215
vt 0.518710 0.233430
vt 0.521790 0.231166
vt 0.521742 0.233708
vt 0.564117 0.871488
vt 0.012716 0.193022
vt 0.563564 0.870240
vt 0.024840 0.210357
vt 0.015711 0.191504
vt 0.027501 0.208348
vt 0.514453 0.208777
vt 0.563143 0.869413
vt 0.561396 0.872277
vt 0.562443 0.868177
vt 0.492611 0.878531
vt 0.517806 0.208690
vt 0.494371 0.876326
vt 0.492281 0.878247
vt 0.515814 0.226118
vt 0.494071 0.876016
vt 0.079860 0.225650
vt 0.519089 0.227915
vt 0.079504 0.227424
vt 0.561432 0.873408
vt 0.564034 0.871937
vt 0.561391 0.873311
vt 0.564117 0.871488
vt 0.048028 0.225404
vt 0.078396 0.230711
vt 0.036292 0.191493
vt 0.494535 0.881905
vt 0.050243 0.211386
vt 0.494759 0.882014
vt 0.514440 0.168597
vt 0.494119 0.881703
vt 0.565204 0.880634
vt 0.497697 0.868483
vt 0.503183 0.867707
vt 0.487067 0.877966
vt 0.496934 0.873754
vt 0.494515 0.869891
vt 0.497150 0.874118
vt 0.514543 0.189563
vt 0.032344 0.169002
vt 0.039023 0.189815
vt 0.052536 0.209050
vt 0.052536 0.209050
vt 0.488649 0.875379
vt 0.039022 0.189815
vt 0.079496 0.227433
vt 0.519093 0.227922
vt 0.490907 0.872679
vt 0.495234 0.878766
vt 0.497218 0.876041
vt 0.564980 0.877688
vt 0.561551 0.878428
vt 0.561427 0.875786
vt 0.564666 0.874751
vt 0.560951 0.875922
vt 0.517720 0.168380
vt 0.045930 0.227993
vt 0.518948 0.236725
vt 0.561101 0.878566
vt 0.494535 0.881905
vt 0.497470 0.876358
vt 0.495560 0.879021
vt 0.495560 0.879022
vt 0.497470 0.876358
vt 0.517868 0.189345
vt 0.033957 0.168350
vt 0.040495 0.188982
vt 0.501130 0.873774
vt 0.053836 0.207870
vt 0.002930 0.156427
vt 0.517827 0.148703
vt 0.560965 0.873555
vt 0.501178 0.874024
vt 0.497601 0.876531
vt 0.495730 0.879160
vt 0.518169 0.225846
vt 0.494386 0.884786
vt 0.031529 0.148312
vn -0.093189 -0.034542 0.995049
vn 0.089762 -0.034916 0.995351
vn 0.085476 -0.028605 0.995929
vn -0.106612 -0.005617 0.994285
vn -0.995160 0.080876 0.055824
vn -0.997269 -0.048637 0.055586
vn -0.997281 -0.048594 -0.055396
vn -0.995167 0.080886 -0.055686
vn 0.822238 -0.047663 0.567145
vn 0.922663 -0.147368 0.356337
vn 0.688305 -0.122595 0.714987
vn -0.106498 -0.005543 -0.994298
vn -0.093000 -0.034382 -0.995072
vn 0.089811 -0.034823 -0.995350
vn 0.085505 -0.028565 -0.995928
vn 0.822240 -0.047667 -0.567142
vn 0.688321 -0.122596 -0.714971
vn 0.922656 -0.147373 -0.356352
vn 0.005558 -0.017005 -0.999840
vn 0.005946 -0.008500 -0.999946
vn 0.996408 0.000000 -0.084684
vn 0.996408 0.000000 -0.084684
vn 0.996408 0.000000 0.084684
vn 0.996408 0.000000 0.084684
vn -0.000349 0.256010 -0.966674
vn -0.058341 0.431988 -0.899990
vn -0.136549 0.989464 -0.048111
vn 0.000057 0.998032 -0.062708
vn 0.000057 0.998032 0.062708
vn -0.136549 0.989464 0.048111
vn -0.058341 0.431986 0.899992
vn -0.000349 0.256008 0.966675
vn 0.021869 -0.555238 -0.831404
vn 0.002811 -0.413052 -0.910703
vn 0.054973 -0.732828 -0.678190
vn 0.027318 -0.702664 -0.710997
vn 0.890140 0.454099 -0.038011
vn 0.890140 -0.454099 -0.038011
vn 0.003543 0.506542 -0.862208
vn 0.054973 -0.732825 0.678192
vn 0.890140 -0.454099 0.038011
vn 0.003543 0.506540 0.862209
vn 0.002811 -0.413050 0.910704
vn 0.890140 0.454099 0.038011
vn 0.005424 0.998913 -0.046306
vn 0.005424 0.998913 0.046306
vn -0.728595 0.682423 0.058717
vn -0.918124 0.391965 0.058406
vn -0.115494 0.049409 0.992079
vn -0.107399 0.100855 0.989087
vn -0.107400 0.100856 -0.989087
vn -0.115495 0.049409 -0.992079
vn -0.918124 0.391966 -0.058406
vn -0.728595 0.682423 -0.058717
vn 0.005684 -0.010170 0.999932
vn 0.996913 -0.022423 0.075246
vn 0.973748 -0.217145 0.068286
vn 0.005094 -0.170062 0.985420
vn 0.973748 -0.217145 -0.068286
vn 0.996913 -0.022423 -0.075246
vn 0.027247 -0.933478 -0.357599
vn 0.027247 -0.933477 0.357601
vn 0.003153 -0.082282 0.996604
vn 0.005494 -0.008805 0.999946
vn 0.035554 -0.921715 0.386236
vn 0.005285 -0.010150 -0.999935
vn 0.005015 -0.017329 -0.999837
vn -0.078348 0.130802 0.988308
vn 0.021868 -0.555235 0.831406
vn -0.513308 0.856219 -0.058343
vn -0.513308 0.856219 0.058343
vn -0.078349 0.130803 -0.988308
vn 0.087171 -0.041595 0.995325
vn 0.080739 -0.087759 0.992864
vn 0.087171 -0.041595 -0.995325
vn 0.080739 -0.087760 -0.992864
vn 0.996408 0.000000 0.084684
vn 0.996408 0.000000 -0.084684
vn 0.005684 -0.010170 -0.999932
vn 0.005494 -0.008804 -0.999946
vn 0.003153 -0.082282 -0.996604
vn 0.005094 -0.170061 -0.985420
vn 0.006387 -0.000343 -0.999980
vn 0.005450 -0.002214 -0.999983
vn 0.005558 -0.017005 0.999840
vn 0.005946 -0.008500 0.999946
vn 0.005285 -0.010150 0.999935
vn 0.005015 -0.017329 0.999837
vn 0.006387 -0.000343 0.999980
vn 0.005450 -0.002214 0.999983
vn 0.830526 -0.396481 0.391190
vn 0.622866 -0.677894 0.390511
vn 0.471778 -0.515266 0.715490
vn 0.629328 -0.301605 0.716226
vn 0.622866 -0.677894 -0.390511
vn 0.830526 -0.396481 -0.391190
vn 0.629331 -0.301606 -0.716224
vn 0.471780 -0.515268 -0.715488
vn 0.027317 -0.702662 0.711000
vn 0.035554 -0.921715 -0.386236
s 1
g S_S02_04
usemtl UVSigns:SS17:S_B04_01:S_U_05:Wall_Sculptures_02:aiStandardSurface3SG
f 1/1/1 4/2/2 5/8/3 8/6/4
f 1/1/1 8/6/4 7/4/5 2/109/6
f 9/5/7 2/3/6 7/74/5 12/10/8
f 3/7/9 92/79/10 6/18/11
f 3/7/9 6/18/11 5/8/3 4/2/2
f 9/5/7 12/10/8 11/9/12 10/11/13
f 16/12/14 10/11/13 11/9/12 13/70/15
f 15/13/16 14/99/17 90/66/18
f 17/14/19 20/16/20 19/15/21 18/17/22
f 22/21/23 18/17/22 19/15/21 23/71/24
f 27/23/25 26/22/26 25/24/27 28/28/28
f 31/25/29 30/20/30 29/26/31 32/27/32
f 75/30/33 37/29/34 39/31/35 76/32/36
f 44/34/37 38/33/38 37/29/34 45/35/39
f 42/40/40 39/31/35 38/33/38 40/42/41
f 46/37/42 41/36/43 40/38/41 47/39/44
f 47/47/44 44/34/37 43/48/45 48/49/46
f 55/43/47 54/41/48 53/44/49 56/45/50
f 59/52/51 58/50/52 57/53/53 60/55/54
f 72/46/55 71/51/56 82/115/57 81/54/58
f 78/59/59 82/60/57 71/93/56 67/92/60
f 78/59/59 77/61/61 80/62/62 82/60/57
f 72/46/55 81/54/58 97/56/63 95/108/64
f 81/54/58 80/57/62 98/58/65 97/56/63
f 15/13/16 90/66/18 89/68/66 99/116/67
f 89/68/66 20/16/20 17/14/19 99/116/67
f 28/28/28 25/24/27 30/72/30 31/73/29
f 33/63/68 73/64/69 32/27/32 29/26/31
f 25/24/27 35/75/70 34/76/71 30/72/30
f 75/30/33 36/77/72 26/22/26 27/23/25
f 40/42/41 38/33/38 44/34/37 47/47/44
f 53/44/49 49/65/73 51/67/74 56/45/50
f 60/55/54 57/53/53 54/83/48 55/87/47
f 61/88/75 58/50/52 59/52/51 63/89/76
f 69/90/77 65/91/78 67/92/60 71/93/56
f 56/45/50 51/67/74 73/64/69 33/63/68
f 35/75/70 60/55/54 55/87/47 34/76/71
f 63/89/76 59/52/51 36/77/72 75/30/33
f 57/53/53 12/10/8 7/74/5 54/83/48
f 13/70/15 11/9/12 58/50/52 61/88/75
f 23/71/24 19/15/21 65/91/78 69/90/77
f 8/6/4 5/8/3 49/65/73 53/44/49
f 43/48/45 28/28/28 31/73/29 48/49/46
f 37/29/34 75/30/33 27/23/25 45/35/39
f 68/94/79 85/113/80 83/112/81 79/111/82
f 68/94/79 66/98/83 87/114/84 85/113/80
f 66/98/83 20/16/20 89/68/66 87/114/84
f 21/19/85 24/69/86 91/105/87 100/117/88
f 24/69/86 70/78/89 93/106/90 91/105/87
f 70/78/89 72/46/55 95/108/64 93/106/90
f 32/27/32 73/64/69 41/36/43 46/37/42
f 80/62/62 77/61/61 39/31/35 42/40/40
f 94/80/91 96/81/92 52/82/93 50/84/94
f 86/100/95 88/101/96 62/102/97 64/103/98
f 96/81/92 98/58/65 74/85/99 52/82/93
f 84/107/100 86/100/95 64/103/98 76/32/36
f 88/101/96 90/66/18 14/99/17 62/102/97
f 92/79/10 94/80/91 50/84/94 6/18/11
f 77/61/61 84/107/100 76/32/36 39/31/35
f 98/58/65 80/57/62 42/86/40 74/85/99
f 49/65/73 5/8/3 6/18/11 50/84/94
f 16/12/14 13/70/15 14/99/17 15/13/16
f 65/91/78 19/15/21 20/16/20 66/98/83
f 22/110/23 23/95/24 24/69/86 21/19/85
f 35/75/70 25/24/27 26/22/26 36/77/72
f 45/35/39 27/23/25 28/28/28 43/48/45
f 33/63/68 29/26/31 30/20/30 34/96/71
f 48/97/46 31/25/29 32/27/32 46/37/42
f 51/67/74 49/65/73 50/84/94 52/82/93
f 73/64/69 51/67/74 52/82/93 74/85/99
f 54/41/48 7/4/5 8/6/4 53/44/49
f 55/43/47 56/45/50 33/63/68 34/96/71
f 58/50/52 11/9/12 12/10/8 57/53/53
f 59/52/51 60/55/54 35/75/70 36/77/72
f 62/102/97 14/99/17 13/70/15 61/88/75
f 64/103/98 62/102/97 61/88/75 63/89/76
f 67/92/60 65/91/78 66/98/83 68/94/79
f 78/59/59 67/92/60 68/94/79 79/111/82
f 70/78/89 24/69/86 23/95/24 69/104/77
f 72/46/55 70/78/89 69/104/77 71/51/56
f 73/64/69 74/85/99 42/86/40 41/36/43
f 75/30/33 76/32/36 64/103/98 63/89/76
f 77/61/61 79/111/82 83/112/81 84/107/100
f 84/107/100 83/112/81 85/113/80 86/100/95
f 86/100/95 85/113/80 87/114/84 88/101/96
f 88/101/96 87/114/84 89/68/66 90/66/18
f 91/105/87 92/79/10 3/7/9 100/117/88
f 92/79/10 91/105/87 93/106/90 94/80/91
f 94/80/91 93/106/90 95/108/64 96/81/92
f 96/81/92 95/108/64 97/56/63 98/58/65
f 39/31/35 37/29/34 38/33/38
f 42/86/40 40/38/41 41/36/43
f 44/34/37 45/35/39 43/48/45
f 47/39/44 48/97/46 46/37/42
f 79/111/82 77/61/61 78/59/59
f 82/115/57 80/57/62 81/54/58
