# This file uses centimeters as units for non-parametric coordinates.

mtllib S_S01_02.mtl
g default
v -131.482391 147.716614 12.206909
v -141.214111 141.214081 12.206909
v -147.716644 131.482361 12.206909
v -150.000031 120.002998 12.206909
v -120.003029 150.000000 12.206909
v -150.000031 120.002998 -12.206909
v -147.716644 131.482361 -12.206909
v -141.214111 141.214081 -12.206909
v -131.482391 147.716614 -12.206909
v -120.003029 150.000000 -12.206909
v 147.716614 131.482361 12.206909
v 141.214081 141.214081 12.206909
v 131.482361 147.716614 12.206909
v 120.002998 150.000000 12.206909
v 150.000000 120.002998 12.206909
v 150.000000 120.002998 -12.206909
v 120.002998 150.000000 -12.206909
v 131.482361 147.716614 -12.206909
v 141.214081 141.214081 -12.206909
v 147.716614 131.482361 -12.206909
v -147.716644 -131.482361 12.206909
v -141.214111 -141.214081 12.206909
v -131.482391 -147.716614 12.206909
v -120.003029 -150.000000 12.206909
v -150.000031 -120.002998 12.206909
v -131.482391 -147.716614 -12.206909
v -141.214111 -141.214081 -12.206909
v -147.716644 -131.482361 -12.206909
v -150.000031 -120.002998 -12.206909
v -120.003029 -150.000000 -12.206909
v 131.482361 -147.716614 12.206909
v 141.214081 -141.214081 12.206909
v 147.716614 -131.482361 12.206909
v 150.000000 -120.002998 12.206909
v 120.002998 -150.000000 12.206909
v 147.716614 -131.482361 -12.206909
v 141.214081 -141.214081 -12.206909
v 131.482361 -147.716614 -12.206909
v 120.002998 -150.000000 -12.206909
v 150.000000 -120.002998 -12.206909
vt 0.614699 0.658544
vt 0.343585 0.612543
vt 0.660960 0.387529
vt 0.389845 0.341527
vt 0.365872 0.609619
vt 0.390627 0.658721
vt 0.611918 0.636240
vt 0.660949 0.611780
vt 0.392626 0.363831
vt 0.343596 0.388291
vt 0.638673 0.390454
vt 0.613919 0.341349
vt 0.639090 0.609173
vt 0.393081 0.636825
vt 0.365455 0.390899
vt 0.611465 0.363246
vt 0.481947 0.965565
vt 0.481946 0.948112
vt 0.484126 0.945930
vt 0.501579 0.945929
vt 0.503761 0.948110
vt 0.503762 0.965562
vt 0.501581 0.967745
vt 0.484128 0.967746
vt 0.382689 0.634690
vt 0.373801 0.629515
vt 0.367966 0.619931
vt 0.347041 0.624598
vt 0.502414 0.946094
vt 0.367944 0.652633
vt 0.503122 0.946568
vt 0.350947 0.635100
vt 0.378824 0.656066
vt 0.503595 0.947275
vt 0.637022 0.619544
vt 0.631228 0.628951
vt 0.622290 0.634133
vt 0.626541 0.655325
vt 0.503597 0.966397
vt 0.654484 0.634804
vt 0.503124 0.967106
vt 0.636987 0.651606
vt 0.658223 0.623770
vt 0.502415 0.967578
vt 0.367523 0.380528
vt 0.373317 0.371121
vt 0.382254 0.365938
vt 0.378003 0.344747
vt 0.482111 0.947277
vt 0.350061 0.365268
vt 0.482584 0.946570
vt 0.367557 0.348465
vt 0.346322 0.376301
vt 0.483292 0.946096
vt 0.621857 0.365382
vt 0.630744 0.370557
vt 0.636579 0.380141
vt 0.657504 0.375476
vt 0.483294 0.967580
vt 0.636602 0.347439
vt 0.482586 0.967107
vt 0.653600 0.364972
vt 0.625721 0.344006
vt 0.482113 0.966399
vn -0.009079 0.999959 0.000000
vn -0.009079 0.999959 0.000000
vn 0.009079 0.999959 0.000000
vn 0.009079 0.999959 0.000000
vn -0.009079 -0.999959 0.000000
vn -0.009079 -0.999959 0.000000
vn 0.009079 -0.999959 0.000000
vn 0.009079 -0.999959 0.000000
vn 0.999959 -0.009079 0.000000
vn 0.999959 -0.009079 0.000000
vn 0.999959 0.009079 0.000000
vn 0.999959 0.009079 0.000000
vn -0.999959 -0.009079 0.000000
vn -0.999959 -0.009079 0.000000
vn -0.999959 0.009079 0.000000
vn -0.999959 0.009079 0.000000
vn -0.999959 0.009079 0.000000
vn -0.923880 0.382683 0.000000
vn -0.923880 0.382683 0.000000
vn -0.999959 0.009079 0.000000
vn -0.923880 0.382683 0.000000
vn -0.707107 0.707107 0.000000
vn -0.707107 0.707107 0.000000
vn -0.923880 0.382683 0.000000
vn -0.707107 0.707107 0.000000
vn -0.382684 0.923880 0.000000
vn -0.382684 0.923880 0.000000
vn -0.707107 0.707107 0.000000
vn -0.382684 0.923880 0.000000
vn -0.009079 0.999959 0.000000
vn -0.009079 0.999959 0.000000
vn -0.382684 0.923880 0.000000
vn 0.009079 0.999959 0.000000
vn 0.382684 0.923880 0.000000
vn 0.382684 0.923880 0.000000
vn 0.009079 0.999959 0.000000
vn 0.382684 0.923880 0.000000
vn 0.707107 0.707107 0.000000
vn 0.707107 0.707107 0.000000
vn 0.382684 0.923880 0.000000
vn 0.707107 0.707107 0.000000
vn 0.923880 0.382683 0.000000
vn 0.923880 0.382683 0.000000
vn 0.707107 0.707107 0.000000
vn 0.923880 0.382683 0.000000
vn 0.999959 0.009079 0.000000
vn 0.999959 0.009079 0.000000
vn 0.923880 0.382683 0.000000
vn -0.009079 -0.999959 0.000000
vn -0.382684 -0.923880 0.000000
vn -0.382684 -0.923880 0.000000
vn -0.009079 -0.999959 0.000000
vn -0.382684 -0.923880 0.000000
vn -0.707107 -0.707107 0.000000
vn -0.707107 -0.707107 0.000000
vn -0.382684 -0.923880 0.000000
vn -0.707107 -0.707107 0.000000
vn -0.923880 -0.382683 0.000000
vn -0.923880 -0.382683 0.000000
vn -0.707107 -0.707107 0.000000
vn -0.923880 -0.382683 0.000000
vn -0.999959 -0.009079 0.000000
vn -0.999959 -0.009079 0.000000
vn -0.923880 -0.382683 0.000000
vn 0.999959 -0.009079 0.000000
vn 0.923880 -0.382683 0.000000
vn 0.923880 -0.382683 0.000000
vn 0.999959 -0.009079 0.000000
vn 0.923880 -0.382683 0.000000
vn 0.707107 -0.707107 0.000000
vn 0.707107 -0.707107 0.000000
vn 0.923880 -0.382683 0.000000
vn 0.707107 -0.707107 0.000000
vn 0.382684 -0.923880 0.000000
vn 0.382684 -0.923880 0.000000
vn 0.707107 -0.707107 0.000000
vn 0.382684 -0.923880 0.000000
vn 0.009079 -0.999959 0.000000
vn 0.009079 -0.999959 0.000000
vn 0.382684 -0.923880 0.000000
vn -0.000000 0.000000 -1.000000
vn -0.000000 0.000000 -1.000000
vn 0.000000 0.000000 -1.000000
vn 0.000000 0.000000 -1.000000
vn 0.000000 0.000000 1.000000
vn 0.000000 0.000000 1.000000
vn 0.000000 0.000000 1.000000
vn 0.000000 0.000000 1.000000
vn -0.000000 0.000000 1.000000
vn 0.000000 0.000000 1.000000
vn 0.000000 0.000000 1.000000
vn -0.000000 0.000000 1.000000
vn 0.000000 0.000000 1.000000
vn 0.000000 0.000000 1.000000
vn -0.000000 0.000000 1.000000
vn -0.000000 0.000000 1.000000
vn 0.000000 0.000000 -1.000000
vn 0.000000 0.000000 -1.000000
vn 0.000000 0.000000 -1.000000
vn 0.000000 0.000000 -1.000000
vn 0.000000 0.000000 -1.000000
vn 0.000000 0.000000 -1.000000
vn 0.000000 0.000000 -1.000000
vn 0.000000 0.000000 -1.000000
vn -0.000000 0.000000 1.000000
vn -0.000000 0.000000 1.000000
vn 0.000000 0.000000 1.000000
vn 0.000000 0.000000 1.000000
vn -0.000000 0.000000 1.000000
vn -0.000000 0.000000 1.000000
vn -0.000000 0.000000 1.000000
vn -0.000000 0.000000 1.000000
vn 0.000000 0.000000 1.000000
vn 0.000000 0.000000 1.000000
vn -0.000000 0.000000 1.000000
vn -0.000000 0.000000 1.000000
vn -0.000000 0.000000 1.000000
vn -0.000000 0.000000 1.000000
vn 0.000000 0.000000 1.000000
vn 0.000000 0.000000 1.000000
vn -0.000000 0.000000 1.000000
vn -0.000000 0.000000 1.000000
vn 0.000000 0.000000 1.000000
vn 0.000000 0.000000 1.000000
vn 0.000000 0.000000 1.000000
vn 0.000000 0.000000 1.000000
vn -0.000000 0.000000 1.000000
vn -0.000000 0.000000 1.000000
vn 0.000000 0.000000 -1.000000
vn 0.000000 0.000000 -1.000000
vn -0.000000 0.000000 -1.000000
vn -0.000000 0.000000 -1.000000
vn 0.000000 0.000000 -1.000000
vn 0.000000 0.000000 -1.000000
vn 0.000000 0.000000 -1.000000
vn 0.000000 0.000000 -1.000000
vn -0.000000 0.000000 -1.000000
vn -0.000000 0.000000 -1.000000
vn 0.000000 0.000000 -1.000000
vn 0.000000 0.000000 -1.000000
vn 0.000000 0.000000 -1.000000
vn 0.000000 0.000000 -1.000000
vn -0.000000 0.000000 -1.000000
vn -0.000000 0.000000 -1.000000
vn -0.000000 0.000000 -1.000000
vn -0.000000 0.000000 -1.000000
vn 0.000000 0.000000 -1.000000
vn 0.000000 0.000000 -1.000000
vn -0.000000 0.000000 -1.000000
vn -0.000000 0.000000 -1.000000
vn -0.000000 0.000000 -1.000000
vn -0.000000 0.000000 -1.000000
s off
g S_S01_02
usemtl set1
f 10/6/1 5/14/2 14/7/3 17/1/4
f 24/9/5 30/4/6 39/12/7 35/16/8
f 34/11/9 40/3/10 16/8/11 15/13/12
f 29/10/13 25/15/14 4/5/15 6/2/16
f 4/5/17 3/27/18 7/28/19 6/2/20
f 3/27/21 2/26/22 8/32/23 7/28/24
f 2/26/25 1/25/26 9/33/27 8/30/28
f 1/25/29 5/14/30 10/6/31 9/33/32
f 14/7/33 13/37/34 18/38/35 17/1/36
f 13/37/37 12/36/38 19/42/39 18/38/40
f 12/36/41 11/35/42 20/43/43 19/40/44
f 11/35/45 15/13/46 16/8/47 20/43/48
f 24/9/49 23/47/50 26/48/51 30/4/52
f 23/47/53 22/46/54 27/52/55 26/48/56
f 22/46/57 21/45/58 28/53/59 27/50/60
f 21/45/61 25/15/62 29/10/63 28/53/64
f 34/11/65 33/57/66 36/58/67 40/3/68
f 33/57/69 32/56/70 37/62/71 36/58/72
f 32/56/73 31/55/74 38/63/75 37/60/76
f 31/55/77 35/16/78 39/12/79 38/63/80
f 26/49/81 9/34/82 10/21/83 30/18/84
f 13/37/85 31/55/86 32/56/87 12/36/88
f 14/7/89 5/14/90 24/9/91 35/16/92
f 24/9/93 5/14/94 1/25/95 23/47/96
f 17/22/97 18/39/98 38/64/99 39/17/100
f 17/22/101 39/17/102 30/18/103 10/21/104
f 22/46/105 2/26/106 3/27/107 21/45/108
f 23/47/109 1/25/110 2/26/111 22/46/112
f 21/45/113 3/27/114 4/5/115 25/15/116
f 14/7/117 35/16/118 31/55/119 13/37/120
f 11/35/121 33/57/122 34/11/123 15/13/124
f 12/36/125 32/56/126 33/57/127 11/35/128
f 37/61/129 19/41/130 20/44/131 36/59/132
f 38/64/133 18/39/134 19/41/135 37/61/136
f 36/59/137 20/44/138 16/23/139 40/24/140
f 7/29/141 28/54/142 29/19/143 6/20/144
f 8/31/145 27/51/146 28/54/147 7/29/148
f 8/31/149 9/34/150 26/49/151 27/51/152
