# This file uses centimeters as units for non-parametric coordinates.

mtllib S_S05_12.mtl
g default
v 212.910706 79.085632 17.821651
v 208.999451 84.939148 17.821651
v 203.145935 88.850403 17.821651
v 196.241150 90.223877 17.821651
v 214.284119 72.180908 17.821651
v 214.284119 72.180908 -17.821651
v 196.241150 90.223877 -17.821651
v 203.145935 88.850403 -17.821651
v 208.999451 84.939148 -17.821651
v 212.910706 79.085632 -17.821651
v -203.145874 88.850403 17.821651
v -208.999451 84.939148 17.821651
v -212.910645 79.085632 17.821651
v -214.284119 72.180908 17.821651
v -196.241150 90.223877 17.821651
v -214.284119 72.180908 -17.821651
v -212.910645 79.085632 -17.821651
v -208.999451 84.939148 -17.821651
v -203.145874 88.850403 -17.821651
v -196.241150 90.223877 -17.821651
v 203.145935 -88.850433 17.821651
v 208.999451 -84.939240 17.821651
v 212.910706 -79.085663 17.821651
v 214.284119 -72.180908 17.821651
v 196.241150 -90.223877 17.821651
v 212.910706 -79.085663 -17.821651
v 208.999451 -84.939240 -17.821651
v 203.145935 -88.850433 -17.821651
v 196.241150 -90.223877 -17.821651
v 214.284119 -72.180908 -17.821651
v -212.910645 -79.085663 17.821651
v -208.999451 -84.939240 17.821651
v -203.145874 -88.850433 17.821651
v -196.241150 -90.223877 17.821651
v -214.284119 -72.180908 17.821651
v -203.145874 -88.850433 -17.821651
v -208.999451 -84.939240 -17.821651
v -212.910645 -79.085663 -17.821651
v -214.284119 -72.180908 -17.821651
v -196.241150 -90.223877 -17.821651
vt 0.624298 0.727129
vt 0.624295 0.749248
vt 0.380737 0.749219
vt 0.380740 0.727100
vt 0.012644 0.749175
vt 0.012646 0.727056
vt 0.256205 0.727085
vt 0.256202 0.749204
vt 0.273677 0.749206
vt 0.273680 0.727087
vt 0.363265 0.727098
vt 0.363262 0.749217
vt 0.731358 0.727142
vt 0.731355 0.749261
vt 0.641770 0.749250
vt 0.641773 0.727131
vt 0.581840 0.205583
vt 0.801415 0.205583
vt 0.801415 0.279546
vt 0.581840 0.279546
vt 0.800711 0.283083
vt 0.582543 0.283084
vt 0.798707 0.286083
vt 0.584547 0.286083
vt 0.376368 0.749218
vt 0.376371 0.727099
vt 0.372000 0.749218
vt 0.372002 0.727099
vt 0.587546 0.288086
vt 0.367631 0.749217
vt 0.795708 0.288086
vt 0.367633 0.727099
vt 0.637402 0.749249
vt 0.792171 0.288790
vt 0.637404 0.727131
vt 0.633033 0.749249
vt 0.633036 0.727130
vt 0.628664 0.749248
vt 0.591084 0.288790
vt 0.628667 0.727130
vt 0.795708 0.197042
vt 0.269308 0.749206
vt 0.269311 0.727087
vt 0.587546 0.197042
vt 0.264940 0.749205
vt 0.264942 0.727086
vt 0.260571 0.749205
vt 0.260574 0.727086
vt 0.591084 0.196338
vt 0.008275 0.749175
vt 0.792171 0.196338
vt 0.008278 0.727056
vt 0.003906 0.749174
vt 0.582543 0.202045
vt 0.740095 0.727143
vt 0.735724 0.749261
vt 0.735727 0.727142
vt 0.814184 0.003906
vt 0.800711 0.202045
vt 0.570626 0.003906
vt 0.584547 0.199046
vt 0.818469 0.004759
vt 0.566341 0.004759
vt 0.798707 0.199046
vt 0.560282 0.108973
vt 0.824529 0.108973
vt 0.822102 0.112605
vt 0.562709 0.112605
vt 0.559429 0.015103
vt 0.825381 0.015103
vt 0.825381 0.104688
vt 0.559429 0.104688
vt 0.818469 0.115032
vt 0.566341 0.115032
vt 0.814184 0.115885
vt 0.570626 0.115885
vt 0.560282 0.010818
vt 0.824529 0.010818
vt 0.562709 0.007186
vt 0.822102 0.007186
vt 0.740093 0.749262
vt 0.003909 0.727055
vn -0.003439 0.999994 0.000000
vn -0.003439 0.999994 0.000000
vn 0.003439 0.999994 0.000000
vn 0.003439 0.999994 0.000000
vn -0.003439 -0.999994 0.000000
vn -0.003439 -0.999994 0.000000
vn 0.003439 -0.999994 0.000000
vn 0.003439 -0.999994 0.000000
vn 0.999959 -0.009079 0.000000
vn 0.999959 -0.009079 0.000000
vn 0.999959 0.009079 0.000000
vn 0.999959 0.009079 0.000000
vn -0.999959 -0.009080 0.000000
vn -0.999959 -0.009080 0.000000
vn -0.999959 0.009080 0.000000
vn -0.999959 0.009080 0.000000
vn 0.003439 0.999994 0.000000
vn 0.382686 0.923879 0.000000
vn 0.382686 0.923879 0.000000
vn 0.003439 0.999994 0.000000
vn 0.382686 0.923879 0.000000
vn 0.707107 0.707107 0.000000
vn 0.707107 0.707107 0.000000
vn 0.382686 0.923879 0.000000
vn 0.707107 0.707107 0.000000
vn 0.923880 0.382682 0.000000
vn 0.923880 0.382682 0.000000
vn 0.707107 0.707107 0.000000
vn 0.923880 0.382682 0.000000
vn 0.999959 0.009079 0.000000
vn 0.999959 0.009079 0.000000
vn 0.923880 0.382682 0.000000
vn -0.999959 0.009080 0.000000
vn -0.923879 0.382684 0.000000
vn -0.923879 0.382684 0.000000
vn -0.999959 0.009080 0.000000
vn -0.923879 0.382684 0.000000
vn -0.707107 0.707107 0.000000
vn -0.707107 0.707107 0.000000
vn -0.923879 0.382684 0.000000
vn -0.707107 0.707107 0.000000
vn -0.382686 0.923879 0.000000
vn -0.382686 0.923879 0.000000
vn -0.707107 0.707107 0.000000
vn -0.382686 0.923879 0.000000
vn -0.003439 0.999994 0.000000
vn -0.003439 0.999994 0.000000
vn -0.382686 0.923879 0.000000
vn 0.999959 -0.009079 0.000000
vn 0.923881 -0.382680 0.000000
vn 0.923881 -0.382680 0.000000
vn 0.999959 -0.009079 0.000000
vn 0.923881 -0.382680 0.000000
vn 0.707107 -0.707107 0.000000
vn 0.707107 -0.707107 0.000000
vn 0.923881 -0.382680 0.000000
vn 0.707107 -0.707107 0.000000
vn 0.382681 -0.923881 0.000000
vn 0.382681 -0.923881 0.000000
vn 0.707107 -0.707107 0.000000
vn 0.382681 -0.923881 0.000000
vn 0.003439 -0.999994 0.000000
vn 0.003439 -0.999994 0.000000
vn 0.382681 -0.923881 0.000000
vn -0.003439 -0.999994 0.000000
vn -0.382681 -0.923881 0.000000
vn -0.382681 -0.923881 0.000000
vn -0.003439 -0.999994 0.000000
vn -0.382681 -0.923881 0.000000
vn -0.707107 -0.707107 0.000000
vn -0.707107 -0.707107 0.000000
vn -0.382681 -0.923881 0.000000
vn -0.707107 -0.707107 0.000000
vn -0.923880 -0.382682 0.000000
vn -0.923880 -0.382682 0.000000
vn -0.707107 -0.707107 0.000000
vn -0.923880 -0.382682 0.000000
vn -0.999959 -0.009080 0.000000
vn -0.999959 -0.009080 0.000000
vn -0.923880 -0.382682 0.000000
vn 0.000000 0.000000 1.000000
vn 0.000000 0.000000 1.000000
vn 0.000000 0.000000 1.000000
vn 0.000000 0.000000 1.000000
vn 0.000000 0.000000 -1.000000
vn 0.000000 0.000000 -1.000000
vn 0.000000 0.000000 -1.000000
vn 0.000000 0.000000 -1.000000
vn 0.000000 0.000000 1.000000
vn 0.000000 0.000000 1.000000
vn 0.000000 0.000000 1.000000
vn 0.000000 0.000000 1.000000
vn 0.000000 0.000000 1.000000
vn 0.000000 0.000000 1.000000
vn 0.000000 0.000000 1.000000
vn 0.000000 0.000000 1.000000
vn 0.000000 0.000000 1.000000
vn 0.000000 0.000000 1.000000
vn 0.000000 0.000000 1.000000
vn 0.000000 0.000000 1.000000
vn 0.000000 0.000000 1.000000
vn 0.000000 0.000000 1.000000
vn 0.000000 0.000000 1.000000
vn 0.000000 0.000000 1.000000
vn 0.000000 0.000000 1.000000
vn 0.000000 0.000000 1.000000
vn 0.000000 0.000000 1.000000
vn 0.000000 0.000000 1.000000
vn 0.000000 0.000000 1.000000
vn 0.000000 0.000000 1.000000
vn 0.000000 0.000000 1.000000
vn 0.000000 0.000000 1.000000
vn 0.000000 0.000000 1.000000
vn 0.000000 0.000000 1.000000
vn 0.000000 0.000000 1.000000
vn 0.000000 0.000000 1.000000
vn 0.000000 0.000000 1.000000
vn 0.000000 0.000000 1.000000
vn 0.000000 0.000000 1.000000
vn 0.000000 0.000000 1.000000
vn 0.000000 0.000000 -1.000000
vn 0.000000 0.000000 -1.000000
vn 0.000000 0.000000 -1.000000
vn 0.000000 0.000000 -1.000000
vn 0.000000 0.000000 -1.000000
vn 0.000000 0.000000 -1.000000
vn 0.000000 0.000000 -1.000000
vn 0.000000 0.000000 -1.000000
vn 0.000000 0.000000 -1.000000
vn 0.000000 0.000000 -1.000000
vn 0.000000 0.000000 -1.000000
vn 0.000000 0.000000 -1.000000
vn 0.000000 0.000000 -1.000000
vn 0.000000 0.000000 -1.000000
vn 0.000000 0.000000 -1.000000
vn 0.000000 0.000000 -1.000000
vn 0.000000 0.000000 -1.000000
vn 0.000000 0.000000 -1.000000
vn 0.000000 0.000000 -1.000000
vn 0.000000 0.000000 -1.000000
vn 0.000000 0.000000 -1.000000
vn 0.000000 0.000000 -1.000000
vn 0.000000 0.000000 -1.000000
vn 0.000000 0.000000 -1.000000
vn 0.000000 0.000000 -1.000000
vn 0.000000 0.000000 -1.000000
vn 0.000000 0.000000 -1.000000
vn 0.000000 0.000000 -1.000000
vn 0.000000 0.000000 -1.000000
vn 0.000000 0.000000 -1.000000
vn 0.000000 0.000000 -1.000000
vn 0.000000 0.000000 -1.000000
s off
g SS45_low
usemtl set1
f 20/1/1 15/2/2 4/3/3 7/4/4
f 34/5/5 40/6/6 29/7/7 25/8/8
f 24/9/9 30/10/10 6/11/11 5/12/12
f 39/13/13 35/14/14 14/15/15 16/16/16
f 4/3/17 3/25/18 8/26/19 7/4/20
f 3/25/21 2/27/22 9/28/23 8/26/24
f 2/27/25 1/30/26 10/32/27 9/28/28
f 1/30/29 5/12/30 6/11/31 10/32/32
f 14/15/33 13/33/34 17/35/35 16/16/36
f 13/33/37 12/36/38 18/37/39 17/35/40
f 12/36/41 11/38/42 19/40/43 18/37/44
f 11/38/45 15/2/46 20/1/47 19/40/48
f 24/9/49 23/42/50 26/43/51 30/10/52
f 23/42/53 22/45/54 27/46/55 26/43/56
f 22/45/57 21/47/58 28/48/59 27/46/60
f 21/47/61 25/8/62 29/7/63 28/48/64
f 34/5/65 33/50/66 36/52/67 40/6/68
f 33/50/69 32/53/70 37/82/71 36/52/72
f 32/81/73 31/56/74 38/57/75 37/55/76
f 31/56/77 35/14/78 39/13/79 38/57/80
f 13/65/81 1/66/82 2/67/83 12/68/84
f 30/17/85 39/18/86 16/19/87 6/20/88
f 35/69/89 24/70/90 5/71/91 14/72/92
f 14/72/93 5/71/94 1/66/95 13/65/96
f 12/68/97 2/67/98 3/73/99 11/74/100
f 11/74/101 3/73/102 4/75/103 15/76/104
f 31/77/105 23/78/106 24/70/107 35/69/108
f 31/77/109 32/79/110 22/80/111 23/78/112
f 22/80/113 32/79/114 33/63/115 21/62/116
f 21/62/117 33/63/118 34/60/119 25/58/120
f 6/20/121 16/19/122 17/21/123 10/22/124
f 10/22/125 17/21/126 18/23/127 9/24/128
f 8/29/129 19/31/130 20/34/131 7/39/132
f 9/24/133 18/23/134 19/31/135 8/29/136
f 36/41/137 28/44/138 29/49/139 40/51/140
f 26/54/141 38/59/142 39/18/143 30/17/144
f 27/61/145 37/64/146 38/59/147 26/54/148
f 36/41/149 37/64/150 27/61/151 28/44/152
