# This file uses centimeters as units for non-parametric coordinates.

mtllib S_S05_04.mtl
g default
v 179.201111 66.564209 15.000000
v 175.909119 71.491028 15.000000
v 170.982361 74.783020 15.000000
v 165.170837 75.938965 15.000000
v 180.357117 60.752686 15.000000
v 180.357117 60.752686 -15.000000
v 165.170837 75.938965 -15.000000
v 170.982361 74.783020 -15.000000
v 175.909119 71.491028 -15.000000
v 179.201111 66.564209 -15.000000
v -170.982422 74.783020 15.000000
v -175.909241 71.491028 15.000000
v -179.201172 66.564209 15.000000
v -180.357178 60.752686 15.000000
v -165.170898 75.938965 15.000000
v -180.357178 60.752686 -15.000000
v -179.201172 66.564209 -15.000000
v -175.909241 71.491028 -15.000000
v -170.982422 74.783020 -15.000000
v -165.170898 75.938965 -15.000000
v 170.982361 -74.782959 15.000000
v 175.909119 -71.490967 15.000000
v 179.201111 -66.564209 15.000000
v 180.357117 -60.752686 15.000000
v 165.170837 -75.938965 15.000000
v 179.201111 -66.564209 -15.000000
v 175.909119 -71.490967 -15.000000
v 170.982361 -74.782959 -15.000000
v 165.170837 -75.938965 -15.000000
v 180.357117 -60.752686 -15.000000
v -179.201172 -66.564209 15.000000
v -175.909241 -71.490967 15.000000
v -170.982422 -74.782959 15.000000
v -165.170898 -75.938965 15.000000
v -180.357178 -60.752686 15.000000
v -170.982422 -74.782959 -15.000000
v -175.909241 -71.490967 -15.000000
v -179.201172 -66.564209 -15.000000
v -180.357178 -60.752686 -15.000000
v -165.170898 -75.938965 -15.000000
vt 0.752493 0.880475
vt 0.752495 0.902594
vt 0.508937 0.902621
vt 0.508935 0.880502
vt 0.140844 0.902662
vt 0.140841 0.880543
vt 0.384400 0.880516
vt 0.384402 0.902635
vt 0.401877 0.902633
vt 0.401875 0.880514
vt 0.491460 0.880504
vt 0.491462 0.902623
vt 0.859553 0.880463
vt 0.859555 0.902582
vt 0.769970 0.902592
vt 0.769968 0.880473
vt 0.581840 0.205583
vt 0.801415 0.205583
vt 0.801415 0.279546
vt 0.581840 0.279546
vt 0.800711 0.283083
vt 0.582543 0.283084
vt 0.798707 0.286083
vt 0.584547 0.286083
vt 0.504568 0.902622
vt 0.504566 0.880503
vt 0.500200 0.902622
vt 0.500197 0.880503
vt 0.587546 0.288086
vt 0.495831 0.902622
vt 0.795708 0.288086
vt 0.495828 0.880504
vt 0.765602 0.902592
vt 0.792171 0.288790
vt 0.765599 0.880474
vt 0.761233 0.902593
vt 0.761230 0.880474
vt 0.756864 0.902593
vt 0.591084 0.288790
vt 0.756862 0.880475
vt 0.795708 0.197042
vt 0.397508 0.902633
vt 0.397506 0.880515
vt 0.587546 0.197042
vt 0.393140 0.902634
vt 0.393137 0.880515
vt 0.388771 0.902634
vt 0.388768 0.880516
vt 0.591084 0.196338
vt 0.136475 0.902663
vt 0.792171 0.196338
vt 0.136473 0.880544
vt 0.132106 0.902663
vt 0.582543 0.202045
vt 0.868290 0.880462
vt 0.863924 0.902581
vt 0.863922 0.880463
vt 0.280028 0.606533
vt 0.800711 0.202045
vt 0.036469 0.606533
vt 0.584547 0.199046
vt 0.284312 0.607385
vt 0.032184 0.607385
vt 0.798707 0.199046
vt 0.026125 0.711599
vt 0.290372 0.711599
vt 0.287945 0.715232
vt 0.028552 0.715232
vt 0.025273 0.617730
vt 0.291224 0.617730
vt 0.291224 0.707315
vt 0.025273 0.707315
vt 0.284312 0.717659
vt 0.032184 0.717659
vt 0.280028 0.718511
vt 0.036469 0.718511
vt 0.026125 0.613445
vt 0.290372 0.613445
vt 0.028552 0.609812
vt 0.287945 0.609812
vt 0.868293 0.902581
vt 0.132104 0.880544
vn -0.003439 0.999994 0.000000
vn -0.003439 0.999994 0.000000
vn 0.003439 0.999994 0.000000
vn 0.003439 0.999994 0.000000
vn -0.003439 -0.999994 0.000000
vn -0.003439 -0.999994 0.000000
vn 0.003439 -0.999994 0.000000
vn 0.003439 -0.999994 0.000000
vn 0.999959 -0.009079 0.000000
vn 0.999959 -0.009079 0.000000
vn 0.999959 0.009079 0.000000
vn 0.999959 0.009079 0.000000
vn -0.999959 -0.009080 0.000000
vn -0.999959 -0.009080 0.000000
vn -0.999959 0.009080 0.000000
vn -0.999959 0.009080 0.000000
vn 0.003439 0.999994 0.000000
vn 0.382683 0.923880 0.000000
vn 0.382683 0.923880 0.000000
vn 0.003439 0.999994 0.000000
vn 0.382683 0.923880 0.000000
vn 0.707109 0.707104 0.000000
vn 0.707109 0.707104 0.000000
vn 0.382683 0.923880 0.000000
vn 0.707109 0.707104 0.000000
vn 0.923879 0.382685 0.000000
vn 0.923879 0.382685 0.000000
vn 0.707109 0.707104 0.000000
vn 0.923879 0.382685 0.000000
vn 0.999959 0.009079 0.000000
vn 0.999959 0.009079 0.000000
vn 0.923879 0.382685 0.000000
vn -0.999959 0.009080 0.000000
vn -0.923880 0.382682 0.000000
vn -0.923880 0.382682 0.000000
vn -0.999959 0.009080 0.000000
vn -0.923880 0.382682 0.000000
vn -0.707109 0.707104 0.000000
vn -0.707109 0.707104 0.000000
vn -0.923880 0.382682 0.000000
vn -0.707109 0.707104 0.000000
vn -0.382681 0.923881 0.000000
vn -0.382681 0.923881 0.000000
vn -0.707109 0.707104 0.000000
vn -0.382681 0.923881 0.000000
vn -0.003439 0.999994 0.000000
vn -0.003439 0.999994 0.000000
vn -0.382681 0.923881 0.000000
vn 0.999959 -0.009079 0.000000
vn 0.923878 -0.382686 0.000000
vn 0.923878 -0.382686 0.000000
vn 0.999959 -0.009079 0.000000
vn 0.923878 -0.382686 0.000000
vn 0.707107 -0.707107 0.000000
vn 0.707107 -0.707107 0.000000
vn 0.923878 -0.382686 0.000000
vn 0.707107 -0.707107 0.000000
vn 0.382688 -0.923878 0.000000
vn 0.382688 -0.923878 0.000000
vn 0.707107 -0.707107 0.000000
vn 0.382688 -0.923878 0.000000
vn 0.003439 -0.999994 0.000000
vn 0.003439 -0.999994 0.000000
vn 0.382688 -0.923878 0.000000
vn -0.003439 -0.999994 0.000000
vn -0.382686 -0.923879 0.000000
vn -0.382686 -0.923879 0.000000
vn -0.003439 -0.999994 0.000000
vn -0.382686 -0.923879 0.000000
vn -0.707107 -0.707107 0.000000
vn -0.707107 -0.707107 0.000000
vn -0.382686 -0.923879 0.000000
vn -0.707107 -0.707107 0.000000
vn -0.923879 -0.382684 0.000000
vn -0.923879 -0.382684 0.000000
vn -0.707107 -0.707107 0.000000
vn -0.923879 -0.382684 0.000000
vn -0.999959 -0.009080 0.000000
vn -0.999959 -0.009080 0.000000
vn -0.923879 -0.382684 0.000000
vn 0.000000 0.000000 1.000000
vn 0.000000 0.000000 1.000000
vn 0.000000 0.000000 1.000000
vn 0.000000 0.000000 1.000000
vn 0.000000 0.000000 -1.000000
vn 0.000000 0.000000 -1.000000
vn 0.000000 0.000000 -1.000000
vn 0.000000 0.000000 -1.000000
vn 0.000000 0.000000 1.000000
vn 0.000000 0.000000 1.000000
vn 0.000000 0.000000 1.000000
vn 0.000000 0.000000 1.000000
vn 0.000000 0.000000 1.000000
vn 0.000000 0.000000 1.000000
vn 0.000000 0.000000 1.000000
vn 0.000000 0.000000 1.000000
vn 0.000000 0.000000 1.000000
vn 0.000000 0.000000 1.000000
vn 0.000000 0.000000 1.000000
vn 0.000000 0.000000 1.000000
vn 0.000000 0.000000 1.000000
vn 0.000000 0.000000 1.000000
vn 0.000000 0.000000 1.000000
vn 0.000000 0.000000 1.000000
vn 0.000000 0.000000 1.000000
vn 0.000000 0.000000 1.000000
vn 0.000000 0.000000 1.000000
vn 0.000000 0.000000 1.000000
vn 0.000000 0.000000 1.000000
vn 0.000000 0.000000 1.000000
vn 0.000000 0.000000 1.000000
vn 0.000000 0.000000 1.000000
vn 0.000000 0.000000 1.000000
vn 0.000000 0.000000 1.000000
vn 0.000000 0.000000 1.000000
vn 0.000000 0.000000 1.000000
vn 0.000000 0.000000 1.000000
vn 0.000000 0.000000 1.000000
vn 0.000000 0.000000 1.000000
vn 0.000000 0.000000 1.000000
vn 0.000000 0.000000 -1.000000
vn 0.000000 0.000000 -1.000000
vn 0.000000 0.000000 -1.000000
vn 0.000000 0.000000 -1.000000
vn 0.000000 0.000000 -1.000000
vn 0.000000 0.000000 -1.000000
vn 0.000000 0.000000 -1.000000
vn 0.000000 0.000000 -1.000000
vn 0.000000 0.000000 -1.000000
vn 0.000000 0.000000 -1.000000
vn 0.000000 0.000000 -1.000000
vn 0.000000 0.000000 -1.000000
vn 0.000000 0.000000 -1.000000
vn 0.000000 0.000000 -1.000000
vn 0.000000 0.000000 -1.000000
vn 0.000000 0.000000 -1.000000
vn 0.000000 0.000000 -1.000000
vn 0.000000 0.000000 -1.000000
vn 0.000000 0.000000 -1.000000
vn 0.000000 0.000000 -1.000000
vn 0.000000 0.000000 -1.000000
vn 0.000000 0.000000 -1.000000
vn 0.000000 0.000000 -1.000000
vn 0.000000 0.000000 -1.000000
vn 0.000000 0.000000 -1.000000
vn 0.000000 0.000000 -1.000000
vn 0.000000 0.000000 -1.000000
vn 0.000000 0.000000 -1.000000
vn 0.000000 0.000000 -1.000000
vn 0.000000 0.000000 -1.000000
vn 0.000000 0.000000 -1.000000
vn 0.000000 0.000000 -1.000000
s off
g SS37_low
usemtl set1
f 20/1/1 15/2/2 4/3/3 7/4/4
f 34/5/5 40/6/6 29/7/7 25/8/8
f 24/9/9 30/10/10 6/11/11 5/12/12
f 39/13/13 35/14/14 14/15/15 16/16/16
f 4/3/17 3/25/18 8/26/19 7/4/20
f 3/25/21 2/27/22 9/28/23 8/26/24
f 2/27/25 1/30/26 10/32/27 9/28/28
f 1/30/29 5/12/30 6/11/31 10/32/32
f 14/15/33 13/33/34 17/35/35 16/16/36
f 13/33/37 12/36/38 18/37/39 17/35/40
f 12/36/41 11/38/42 19/40/43 18/37/44
f 11/38/45 15/2/46 20/1/47 19/40/48
f 24/9/49 23/42/50 26/43/51 30/10/52
f 23/42/53 22/45/54 27/46/55 26/43/56
f 22/45/57 21/47/58 28/48/59 27/46/60
f 21/47/61 25/8/62 29/7/63 28/48/64
f 34/5/65 33/50/66 36/52/67 40/6/68
f 33/50/69 32/53/70 37/82/71 36/52/72
f 32/81/73 31/56/74 38/57/75 37/55/76
f 31/56/77 35/14/78 39/13/79 38/57/80
f 13/65/81 1/66/82 2/67/83 12/68/84
f 30/17/85 39/18/86 16/19/87 6/20/88
f 35/69/89 24/70/90 5/71/91 14/72/92
f 14/72/93 5/71/94 1/66/95 13/65/96
f 12/68/97 2/67/98 3/73/99 11/74/100
f 11/74/101 3/73/102 4/75/103 15/76/104
f 31/77/105 23/78/106 24/70/107 35/69/108
f 31/77/109 32/79/110 22/80/111 23/78/112
f 22/80/113 32/79/114 33/63/115 21/62/116
f 21/62/117 33/63/118 34/60/119 25/58/120
f 6/20/121 16/19/122 17/21/123 10/22/124
f 10/22/125 17/21/126 18/23/127 9/24/128
f 8/29/129 19/31/130 20/34/131 7/39/132
f 9/24/133 18/23/134 19/31/135 8/29/136
f 36/41/137 28/44/138 29/49/139 40/51/140
f 26/54/141 38/59/142 39/18/143 30/17/144
f 27/61/145 37/64/146 38/59/147 26/54/148
f 36/41/149 37/64/150 27/61/151 28/44/152
