# This file uses centimeters as units for non-parametric coordinates.

mtllib S_S03_01.mtl
g default
v 249.000000 -128.000626 11.250113
v 240.600739 -135.000000 11.250113
v 243.815002 -134.467209 11.250113
v 246.539917 -132.949936 11.250113
v 248.360657 -130.679169 11.250113
v 167.399246 -135.000000 11.250113
v 164.184998 -134.467209 11.250113
v 161.460083 -132.949936 11.250113
v 159.639343 -130.679169 11.250113
v 159.000000 -128.000626 11.250113
v 240.600739 135.000000 11.250113
v 249.000000 128.000626 11.250113
v 248.360657 130.679169 11.250113
v 246.539917 132.949936 11.250113
v 243.815002 134.467209 11.250113
v 159.000000 128.000626 11.250113
v 159.639343 130.679169 11.250113
v 161.460083 132.949936 11.250113
v 164.184998 134.467209 11.250113
v 167.399246 135.000000 11.250113
v 167.399246 135.000000 -11.250113
v 159.000000 128.000626 -11.250113
v 159.639343 130.679169 -11.250113
v 161.460083 132.949936 -11.250113
v 164.184998 134.467209 -11.250113
v 249.000000 128.000626 -11.250113
v 240.600739 135.000000 -11.250113
v 243.815002 134.467209 -11.250113
v 246.539917 132.949936 -11.250113
v 248.360657 130.679169 -11.250113
v 240.600739 -135.000000 -11.250113
v 249.000000 -128.000626 -11.250113
v 248.360657 -130.679169 -11.250113
v 246.539917 -132.949936 -11.250113
v 243.815002 -134.467209 -11.250113
v 159.000000 -128.000626 -11.250113
v 159.639343 -130.679169 -11.250113
v 161.460083 -132.949936 -11.250113
v 164.184998 -134.467209 -11.250113
v 167.399246 -135.000000 -11.250113
v 345.000000 -128.000626 11.250113
v 336.600739 -135.000000 11.250113
v 339.815002 -134.467209 11.250113
v 342.539917 -132.949936 11.250113
v 344.360626 -130.679169 11.250113
v 263.399231 -135.000000 11.250113
v 260.184998 -134.467209 11.250113
v 257.460083 -132.949936 11.250113
v 255.639359 -130.679169 11.250113
v 255.000000 -128.000626 11.250113
v 336.600739 135.000000 11.250113
v 345.000000 128.000626 11.250113
v 344.360626 130.679169 11.250113
v 342.539917 132.949936 11.250113
v 339.815002 134.467209 11.250113
v 255.000000 128.000626 11.250113
v 255.639359 130.679169 11.250113
v 257.460083 132.949936 11.250113
v 260.184998 134.467209 11.250113
v 263.399231 135.000000 11.250113
v 263.399231 135.000000 -11.250113
v 255.000000 128.000626 -11.250113
v 255.639359 130.679169 -11.250113
v 257.460083 132.949936 -11.250113
v 260.184998 134.467209 -11.250113
v 345.000000 128.000626 -11.250113
v 336.600739 135.000000 -11.250113
v 339.815002 134.467209 -11.250113
v 342.539917 132.949936 -11.250113
v 344.360626 130.679169 -11.250113
v 336.600739 -135.000000 -11.250113
v 345.000000 -128.000626 -11.250113
v 344.360626 -130.679169 -11.250113
v 342.539917 -132.949936 -11.250113
v 339.815002 -134.467209 -11.250113
v 255.000000 -128.000626 -11.250113
v 255.639359 -130.679169 -11.250113
v 257.460083 -132.949936 -11.250113
v 260.184998 -134.467209 -11.250113
v 263.399231 -135.000000 -11.250113
v 441.000000 -128.000626 11.250113
v 432.600739 -135.000000 11.250113
v 435.815002 -134.467209 11.250113
v 438.539886 -132.949936 11.250113
v 440.360657 -130.679169 11.250113
v 359.399261 -135.000000 11.250113
v 356.184998 -134.467209 11.250113
v 353.460083 -132.949936 11.250113
v 351.639374 -130.679169 11.250113
v 351.000000 -128.000626 11.250113
v 432.600739 135.000000 11.250113
v 441.000000 128.000626 11.250113
v 440.360657 130.679169 11.250113
v 438.539886 132.949936 11.250113
v 435.815002 134.467209 11.250113
v 351.000000 128.000626 11.250113
v 351.639374 130.679169 11.250113
v 353.460083 132.949936 11.250113
v 356.184998 134.467209 11.250113
v 359.399261 135.000000 11.250113
v 359.399261 135.000000 -11.250113
v 351.000000 128.000626 -11.250113
v 351.639374 130.679169 -11.250113
v 353.460083 132.949936 -11.250113
v 356.184998 134.467209 -11.250113
v 441.000000 128.000626 -11.250113
v 432.600739 135.000000 -11.250113
v 435.815002 134.467209 -11.250113
v 438.539886 132.949936 -11.250113
v 440.360657 130.679169 -11.250113
v 432.600739 -135.000000 -11.250113
v 441.000000 -128.000626 -11.250113
v 440.360657 -130.679169 -11.250113
v 438.539886 -132.949936 -11.250113
v 435.815002 -134.467209 -11.250113
v 351.000000 -128.000626 -11.250113
v 351.639374 -130.679169 -11.250113
v 353.460083 -132.949936 -11.250113
v 356.184998 -134.467209 -11.250113
v 359.399261 -135.000000 -11.250113
v -351.000000 -128.000626 11.250113
v -359.399261 -135.000000 11.250113
v -356.184998 -134.467209 11.250113
v -353.460083 -132.949936 11.250113
v -351.639374 -130.679169 11.250113
v -432.600739 -135.000000 11.250113
v -435.815002 -134.467209 11.250113
v -438.539886 -132.949936 11.250113
v -440.360657 -130.679169 11.250113
v -441.000000 -128.000626 11.250113
v -359.399261 135.000000 11.250113
v -351.000000 128.000626 11.250113
v -351.639374 130.679169 11.250113
v -353.460083 132.949936 11.250113
v -356.184998 134.467209 11.250113
v -441.000000 128.000626 11.250113
v -440.360657 130.679169 11.250113
v -438.539886 132.949936 11.250113
v -435.815002 134.467209 11.250113
v -432.600739 135.000000 11.250113
v -432.600739 135.000000 -11.250113
v -441.000000 128.000626 -11.250113
v -440.360657 130.679169 -11.250113
v -438.539886 132.949936 -11.250113
v -435.815002 134.467209 -11.250113
v -351.000000 128.000626 -11.250113
v -359.399261 135.000000 -11.250113
v -356.184998 134.467209 -11.250113
v -353.460083 132.949936 -11.250113
v -351.639374 130.679169 -11.250113
v -359.399261 -135.000000 -11.250113
v -351.000000 -128.000626 -11.250113
v -351.639374 -130.679169 -11.250113
v -353.460083 -132.949936 -11.250113
v -356.184998 -134.467209 -11.250113
v -441.000000 -128.000626 -11.250113
v -440.360657 -130.679169 -11.250113
v -438.539886 -132.949936 -11.250113
v -435.815002 -134.467209 -11.250113
v -432.600739 -135.000000 -11.250113
v -255.000000 -128.000626 11.250113
v -263.399231 -135.000000 11.250113
v -260.184998 -134.467209 11.250113
v -257.460083 -132.949936 11.250113
v -255.639359 -130.679169 11.250113
v -336.600739 -135.000000 11.250113
v -339.815002 -134.467209 11.250113
v -342.539917 -132.949936 11.250113
v -344.360626 -130.679169 11.250113
v -345.000000 -128.000626 11.250113
v -263.399231 135.000000 11.250113
v -255.000000 128.000626 11.250113
v -255.639359 130.679169 11.250113
v -257.460083 132.949936 11.250113
v -260.184998 134.467209 11.250113
v -345.000000 128.000626 11.250113
v -344.360626 130.679169 11.250113
v -342.539917 132.949936 11.250113
v -339.815002 134.467209 11.250113
v -336.600739 135.000000 11.250113
v -336.600739 135.000000 -11.250113
v -345.000000 128.000626 -11.250113
v -344.360626 130.679169 -11.250113
v -342.539917 132.949936 -11.250113
v -339.815002 134.467209 -11.250113
v -255.000000 128.000626 -11.250113
v -263.399231 135.000000 -11.250113
v -260.184998 134.467209 -11.250113
v -257.460083 132.949936 -11.250113
v -255.639359 130.679169 -11.250113
v -263.399231 -135.000000 -11.250113
v -255.000000 -128.000626 -11.250113
v -255.639359 -130.679169 -11.250113
v -257.460083 -132.949936 -11.250113
v -260.184998 -134.467209 -11.250113
v -345.000000 -128.000626 -11.250113
v -344.360626 -130.679169 -11.250113
v -342.539917 -132.949936 -11.250113
v -339.815002 -134.467209 -11.250113
v -336.600739 -135.000000 -11.250113
v -159.000000 -128.000626 11.250113
v -167.399246 -135.000000 11.250113
v -164.184998 -134.467209 11.250113
v -161.460083 -132.949936 11.250113
v -159.639343 -130.679169 11.250113
v -240.600739 -135.000000 11.250113
v -243.815002 -134.467209 11.250113
v -246.539917 -132.949936 11.250113
v -248.360657 -130.679169 11.250113
v -249.000000 -128.000626 11.250113
v -167.399246 135.000000 11.250113
v -159.000000 128.000626 11.250113
v -159.639343 130.679169 11.250113
v -161.460083 132.949936 11.250113
v -164.184998 134.467209 11.250113
v -249.000000 128.000626 11.250113
v -248.360657 130.679169 11.250113
v -246.539917 132.949936 11.250113
v -243.815002 134.467209 11.250113
v -240.600739 135.000000 11.250113
v -240.600739 135.000000 -11.250113
v -249.000000 128.000626 -11.250113
v -248.360657 130.679169 -11.250113
v -246.539917 132.949936 -11.250113
v -243.815002 134.467209 -11.250113
v -159.000000 128.000626 -11.250113
v -167.399246 135.000000 -11.250113
v -164.184998 134.467209 -11.250113
v -161.460083 132.949936 -11.250113
v -159.639343 130.679169 -11.250113
v -167.399246 -135.000000 -11.250113
v -159.000000 -128.000626 -11.250113
v -159.639343 -130.679169 -11.250113
v -161.460083 -132.949936 -11.250113
v -164.184998 -134.467209 -11.250113
v -249.000000 -128.000626 -11.250113
v -248.360657 -130.679169 -11.250113
v -246.539917 -132.949936 -11.250113
v -243.815002 -134.467209 -11.250113
v -240.600739 -135.000000 -11.250113
v -51.000000 -128.000626 11.250113
v -59.399254 -135.000000 11.250113
v -56.184998 -134.467209 11.250113
v -53.460087 -132.949936 11.250113
v -51.639355 -130.679169 11.250113
v -132.600754 -135.000000 11.250113
v -135.815002 -134.467209 11.250113
v -138.539917 -132.949936 11.250113
v -140.360657 -130.679169 11.250113
v -141.000000 -128.000626 11.250113
v -59.399254 135.000000 11.250113
v -51.000000 128.000626 11.250113
v -51.639355 130.679169 11.250113
v -53.460087 132.949936 11.250113
v -56.184998 134.467209 11.250113
v -141.000000 128.000626 11.250113
v -140.360657 130.679169 11.250113
v -138.539917 132.949936 11.250113
v -135.815002 134.467209 11.250113
v -132.600754 135.000000 11.250113
v -132.600754 135.000000 -11.250113
v -141.000000 128.000626 -11.250113
v -140.360657 130.679169 -11.250113
v -138.539917 132.949936 -11.250113
v -135.815002 134.467209 -11.250113
v -51.000000 128.000626 -11.250113
v -59.399254 135.000000 -11.250113
v -56.184998 134.467209 -11.250113
v -53.460087 132.949936 -11.250113
v -51.639355 130.679169 -11.250113
v -59.399254 -135.000000 -11.250113
v -51.000000 -128.000626 -11.250113
v -51.639355 -130.679169 -11.250113
v -53.460087 -132.949936 -11.250113
v -56.184998 -134.467209 -11.250113
v -141.000000 -128.000626 -11.250113
v -140.360657 -130.679169 -11.250113
v -138.539917 -132.949936 -11.250113
v -135.815002 -134.467209 -11.250113
v -132.600754 -135.000000 -11.250113
v 45.000000 -128.000626 11.250113
v 36.600750 -135.000000 11.250113
v 39.815002 -134.467209 11.250113
v 42.539913 -132.949936 11.250113
v 44.360645 -130.679169 11.250113
v -36.600750 -135.000000 11.250113
v -39.815002 -134.467209 11.250113
v -42.539913 -132.949936 11.250113
v -44.360645 -130.679169 11.250113
v -45.000000 -128.000626 11.250113
v 36.600750 135.000000 11.250113
v 45.000000 128.000626 11.250113
v 44.360645 130.679169 11.250113
v 42.539913 132.949936 11.250113
v 39.815002 134.467209 11.250113
v -45.000000 128.000626 11.250113
v -44.360645 130.679169 11.250113
v -42.539913 132.949936 11.250113
v -39.815002 134.467209 11.250113
v -36.600750 135.000000 11.250113
v -36.600750 135.000000 -11.250113
v -45.000000 128.000626 -11.250113
v -44.360645 130.679169 -11.250113
v -42.539913 132.949936 -11.250113
v -39.815002 134.467209 -11.250113
v 45.000000 128.000626 -11.250113
v 36.600750 135.000000 -11.250113
v 39.815002 134.467209 -11.250113
v 42.539913 132.949936 -11.250113
v 44.360645 130.679169 -11.250113
v 36.600750 -135.000000 -11.250113
v 45.000000 -128.000626 -11.250113
v 44.360645 -130.679169 -11.250113
v 42.539913 -132.949936 -11.250113
v 39.815002 -134.467209 -11.250113
v -45.000000 -128.000626 -11.250113
v -44.360645 -130.679169 -11.250113
v -42.539913 -132.949936 -11.250113
v -39.815002 -134.467209 -11.250113
v -36.600750 -135.000000 -11.250113
v 141.000000 -128.000626 11.250113
v 132.600754 -135.000000 11.250113
v 135.815002 -134.467209 11.250113
v 138.539917 -132.949936 11.250113
v 140.360657 -130.679169 11.250113
v 59.399254 -135.000000 11.250113
v 56.184998 -134.467209 11.250113
v 53.460087 -132.949936 11.250113
v 51.639355 -130.679169 11.250113
v 51.000000 -128.000626 11.250113
v 132.600754 135.000000 11.250113
v 141.000000 128.000626 11.250113
v 140.360657 130.679169 11.250113
v 138.539917 132.949936 11.250113
v 135.815002 134.467209 11.250113
v 51.000000 128.000626 11.250113
v 51.639355 130.679169 11.250113
v 53.460087 132.949936 11.250113
v 56.184998 134.467209 11.250113
v 59.399254 135.000000 11.250113
v 59.399254 135.000000 -11.250113
v 51.000000 128.000626 -11.250113
v 51.639355 130.679169 -11.250113
v 53.460087 132.949936 -11.250113
v 56.184998 134.467209 -11.250113
v 141.000000 128.000626 -11.250113
v 132.600754 135.000000 -11.250113
v 135.815002 134.467209 -11.250113
v 138.539917 132.949936 -11.250113
v 140.360657 130.679169 -11.250113
v 132.600754 -135.000000 -11.250113
v 141.000000 -128.000626 -11.250113
v 140.360657 -130.679169 -11.250113
v 138.539917 -132.949936 -11.250113
v 135.815002 -134.467209 -11.250113
v 51.000000 -128.000626 -11.250113
v 51.639355 -130.679169 -11.250113
v 53.460087 -132.949936 -11.250113
v 56.184998 -134.467209 -11.250113
v 59.399254 -135.000000 -11.250113
vt 0.932462 0.016349
vt 0.932990 0.017637
vt 0.485617 0.931053
vt 0.486241 0.930533
vt 0.486238 0.950608
vt 0.485613 0.950088
vt 0.491684 0.930534
vt 0.931461 0.015220
vt 0.492306 0.950089
vt 0.929995 0.014426
vt 0.928126 0.014145
vt 0.883232 0.015899
vt 0.882674 0.017225
vt 0.884240 0.014732
vt 0.885690 0.013925
vt 0.887517 0.013651
vt 0.930676 0.160213
vt 0.928847 0.160485
vt 0.932129 0.159407
vt 0.933140 0.158241
vt 0.933700 0.156905
vt 0.886372 0.159674
vt 0.888239 0.159958
vt 0.884909 0.158880
vt 0.883911 0.157751
vt 0.492308 0.931054
vt 0.491681 0.950609
vt 0.883386 0.156472
vt 0.934130 0.170358
vt 0.882319 0.171161
vt 0.882204 0.003791
vt 0.934022 0.002930
vt 0.944018 0.010573
vt 0.944008 0.163324
vt 0.872347 0.010832
vt 0.872342 0.163508
vt 0.874606 0.165415
vt 0.877008 0.167326
vt 0.879602 0.169253
vt 0.936901 0.168644
vt 0.939478 0.166870
vt 0.941821 0.165097
vt 0.485664 0.930854
vt 0.485799 0.930685
vt 0.486003 0.930573
vt 0.491922 0.930573
vt 0.492125 0.930686
vt 0.492261 0.930855
vt 0.492257 0.950288
vt 0.492122 0.950457
vt 0.491920 0.950570
vt 0.485662 0.950287
vt 0.485797 0.950456
vt 0.941750 0.008667
vt 0.486000 0.950569
vt 0.939344 0.006758
vt 0.936744 0.004834
vt 0.879438 0.005509
vt 0.876868 0.007285
vt 0.874530 0.009059
vt 0.057412 0.660162
vt 0.098202 0.660678
vt 0.103452 0.670566
vt 0.051500 0.671362
vt 0.051460 0.503974
vt 0.103247 0.503124
vt 0.097346 0.514337
vt 0.056765 0.513834
vt 0.102212 0.517829
vt 0.113234 0.510765
vt 0.113265 0.663457
vt 0.102933 0.657079
vt 0.041603 0.511008
vt 0.051923 0.517406
vt 0.052635 0.656671
vt 0.041570 0.663665
vt 0.102404 0.658422
vt 0.053128 0.657958
vt 0.601730 0.909132
vt 0.601777 0.908933
vt 0.608374 0.908933
vt 0.608422 0.909132
vt 0.043818 0.665580
vt 0.054091 0.659092
vt 0.046206 0.667501
vt 0.055518 0.659888
vt 0.048793 0.669440
vt 0.100006 0.660398
vt 0.106215 0.668825
vt 0.101427 0.659592
vt 0.108776 0.667028
vt 0.111099 0.665238
vt 0.101682 0.516541
vt 0.110967 0.508860
vt 0.100681 0.515413
vt 0.108563 0.506952
vt 0.099215 0.514619
vt 0.105966 0.505028
vt 0.054940 0.514107
vt 0.048694 0.505689
vt 0.053489 0.514914
vt 0.046124 0.507463
vt 0.052482 0.516080
vt 0.043786 0.509236
vt 0.608422 0.928166
vt 0.601730 0.928166
vt 0.608036 0.908651
vt 0.602116 0.908651
vt 0.602355 0.908611
vt 0.607798 0.908612
vt 0.601913 0.908764
vt 0.608239 0.908764
vt 0.601778 0.928365
vt 0.608374 0.928365
vt 0.608239 0.928534
vt 0.601913 0.928534
vt 0.602115 0.928646
vt 0.608036 0.928646
vt 0.607797 0.928686
vt 0.602355 0.928686
vt 0.723925 0.434020
vt 0.764715 0.434514
vt 0.769978 0.444397
vt 0.718034 0.445224
vt 0.718011 0.277821
vt 0.769797 0.276971
vt 0.763896 0.288184
vt 0.723317 0.287681
vt 0.768762 0.291676
vt 0.779784 0.284612
vt 0.779816 0.437310
vt 0.769488 0.430926
vt 0.708155 0.284854
vt 0.718474 0.291253
vt 0.719188 0.430513
vt 0.708120 0.437503
vt 0.768962 0.432271
vt 0.719683 0.431799
vt 0.601730 0.929646
vt 0.601778 0.929447
vt 0.608375 0.929448
vt 0.608422 0.929647
vt 0.710363 0.439420
vt 0.720649 0.432932
vt 0.712746 0.441347
vt 0.722078 0.433728
vt 0.715326 0.443294
vt 0.766570 0.434247
vt 0.772749 0.442668
vt 0.767987 0.433441
vt 0.775317 0.440878
vt 0.777646 0.439091
vt 0.768232 0.290388
vt 0.777517 0.282707
vt 0.767231 0.289259
vt 0.775114 0.280799
vt 0.765765 0.288465
vt 0.772516 0.278875
vt 0.721491 0.287955
vt 0.715246 0.279536
vt 0.720041 0.288761
vt 0.712676 0.281310
vt 0.719033 0.289927
vt 0.710338 0.283082
vt 0.608421 0.948681
vt 0.601730 0.948681
vt 0.608036 0.929166
vt 0.602116 0.929166
vt 0.602355 0.929126
vt 0.607798 0.929126
vt 0.601913 0.929278
vt 0.608240 0.929279
vt 0.601777 0.948880
vt 0.608374 0.948881
vt 0.608239 0.949049
vt 0.601913 0.949049
vt 0.602115 0.949162
vt 0.608036 0.949162
vt 0.607797 0.949202
vt 0.602355 0.949202
vt 0.569459 0.434094
vt 0.610057 0.434647
vt 0.615317 0.444530
vt 0.563517 0.445289
vt 0.563336 0.277995
vt 0.615253 0.277007
vt 0.609435 0.288269
vt 0.568747 0.287815
vt 0.614222 0.291791
vt 0.625238 0.284717
vt 0.625208 0.437510
vt 0.614914 0.431070
vt 0.553573 0.285040
vt 0.563921 0.291400
vt 0.564607 0.430606
vt 0.553557 0.437630
vt 0.614353 0.432406
vt 0.565132 0.431885
vt 0.540156 0.943586
vt 0.540203 0.943387
vt 0.546799 0.943388
vt 0.546847 0.943587
vt 0.555818 0.439538
vt 0.566129 0.433014
vt 0.558215 0.441450
vt 0.567591 0.433810
vt 0.560805 0.443379
vt 0.611885 0.434376
vt 0.618092 0.442820
vt 0.613340 0.433571
vt 0.620671 0.441050
vt 0.623017 0.439280
vt 0.613713 0.290491
vt 0.623045 0.282736
vt 0.612733 0.289354
vt 0.620697 0.280736
vt 0.611286 0.288558
vt 0.618034 0.278860
vt 0.566921 0.288092
vt 0.560596 0.279723
vt 0.565476 0.288901
vt 0.558050 0.281503
vt 0.564475 0.290070
vt 0.555736 0.283274
vt 0.546845 0.962621
vt 0.540153 0.962620
vt 0.546462 0.943106
vt 0.540542 0.943105
vt 0.540780 0.943066
vt 0.546223 0.943067
vt 0.540338 0.943218
vt 0.546664 0.943219
vt 0.540201 0.962820
vt 0.546797 0.962821
vt 0.546661 0.962990
vt 0.540337 0.962988
vt 0.540538 0.963101
vt 0.546459 0.963102
vt 0.546220 0.963142
vt 0.540778 0.963141
vt 0.810988 0.159966
vt 0.851596 0.160483
vt 0.856866 0.170358
vt 0.805055 0.171166
vt 0.804925 0.003797
vt 0.856744 0.002930
vt 0.850835 0.014142
vt 0.810227 0.013658
vt 0.855702 0.017632
vt 0.866732 0.010573
vt 0.866753 0.163324
vt 0.856447 0.156901
vt 0.795061 0.010838
vt 0.805386 0.017234
vt 0.806133 0.156482
vt 0.795087 0.163513
vt 0.855888 0.158238
vt 0.806660 0.157760
vt 0.601730 0.950162
vt 0.601778 0.949963
vt 0.608374 0.949963
vt 0.608422 0.950162
vt 0.797350 0.165420
vt 0.807657 0.158889
vt 0.799749 0.167330
vt 0.809120 0.159683
vt 0.802342 0.169258
vt 0.853423 0.160210
vt 0.859641 0.168645
vt 0.854877 0.159404
vt 0.862219 0.166871
vt 0.864564 0.165098
vt 0.855173 0.016344
vt 0.864465 0.008668
vt 0.854171 0.015216
vt 0.862061 0.006759
vt 0.852705 0.014423
vt 0.859463 0.004834
vt 0.808401 0.013933
vt 0.802158 0.005513
vt 0.806951 0.014740
vt 0.799585 0.007289
vt 0.805943 0.015907
vt 0.797246 0.009063
vt 0.608422 0.969196
vt 0.601730 0.969196
vt 0.608036 0.949681
vt 0.602116 0.949682
vt 0.602355 0.949642
vt 0.607797 0.949642
vt 0.601913 0.949794
vt 0.608239 0.949795
vt 0.601778 0.969395
vt 0.608374 0.969395
vt 0.608239 0.969564
vt 0.601913 0.969564
vt 0.602116 0.969677
vt 0.608036 0.969677
vt 0.607797 0.969717
vt 0.602355 0.969717
vt 0.728841 0.776340
vt 0.769452 0.776869
vt 0.774736 0.786742
vt 0.722915 0.787543
vt 0.722823 0.620176
vt 0.774642 0.619304
vt 0.768751 0.630521
vt 0.728143 0.630032
vt 0.773613 0.634014
vt 0.784642 0.626953
vt 0.784615 0.779709
vt 0.774308 0.773289
vt 0.712973 0.627217
vt 0.723301 0.633607
vt 0.724001 0.772850
vt 0.712950 0.779870
vt 0.773748 0.774625
vt 0.724522 0.774131
vt 0.594106 0.910755
vt 0.594154 0.910556
vt 0.600750 0.910556
vt 0.600798 0.910755
vt 0.715209 0.781781
vt 0.725515 0.775261
vt 0.717605 0.783697
vt 0.726973 0.776057
vt 0.720199 0.785631
vt 0.771282 0.776597
vt 0.777508 0.785028
vt 0.772736 0.775792
vt 0.780085 0.783254
vt 0.782428 0.781481
vt 0.773085 0.632725
vt 0.782382 0.625034
vt 0.772085 0.631597
vt 0.779972 0.623127
vt 0.770620 0.630803
vt 0.777368 0.621206
vt 0.726316 0.630306
vt 0.720059 0.621894
vt 0.724866 0.631113
vt 0.717491 0.623670
vt 0.723859 0.632280
vt 0.715155 0.625444
vt 0.600800 0.929789
vt 0.594108 0.929789
vt 0.600413 0.910274
vt 0.594491 0.910275
vt 0.594730 0.910235
vt 0.600173 0.910234
vt 0.594289 0.910387
vt 0.600615 0.910387
vt 0.594155 0.929988
vt 0.600752 0.929988
vt 0.600617 0.930157
vt 0.594290 0.930157
vt 0.594494 0.930270
vt 0.600414 0.930269
vt 0.600175 0.930309
vt 0.594732 0.930310
vt 0.187883 0.876228
vt 0.228485 0.876762
vt 0.233760 0.886638
vt 0.181949 0.887426
vt 0.181864 0.720054
vt 0.233682 0.719206
vt 0.227772 0.730417
vt 0.187170 0.729915
vt 0.232637 0.733909
vt 0.243669 0.726855
vt 0.243648 0.879597
vt 0.233338 0.873184
vt 0.171998 0.727101
vt 0.182326 0.733488
vt 0.183030 0.872741
vt 0.171982 0.879767
vt 0.232778 0.874519
vt 0.183556 0.874020
vt 0.586482 0.944286
vt 0.586530 0.944087
vt 0.593127 0.944086
vt 0.593175 0.944285
vt 0.174244 0.881675
vt 0.184553 0.875149
vt 0.176643 0.883587
vt 0.186016 0.875944
vt 0.179235 0.885516
vt 0.230314 0.876491
vt 0.236535 0.884923
vt 0.231767 0.875685
vt 0.239114 0.883148
vt 0.241459 0.881372
vt 0.232109 0.732621
vt 0.241403 0.724948
vt 0.231108 0.731492
vt 0.238999 0.723038
vt 0.229642 0.730699
vt 0.236402 0.721112
vt 0.185343 0.730188
vt 0.179096 0.721771
vt 0.183893 0.730995
vt 0.176522 0.723549
vt 0.182885 0.732161
vt 0.174183 0.725325
vt 0.593177 0.963319
vt 0.586486 0.963320
vt 0.592788 0.943804
vt 0.586868 0.943805
vt 0.587107 0.943766
vt 0.592549 0.943765
vt 0.586666 0.943918
vt 0.592991 0.943917
vt 0.586533 0.963519
vt 0.593130 0.963518
vt 0.592994 0.963687
vt 0.586668 0.963689
vt 0.586871 0.963801
vt 0.592792 0.963800
vt 0.592552 0.963840
vt 0.587110 0.963841
vt 0.888251 0.331168
vt 0.928855 0.331710
vt 0.934111 0.341595
vt 0.882300 0.342358
vt 0.882188 0.175022
vt 0.934019 0.174126
vt 0.928124 0.185346
vt 0.887515 0.184875
vt 0.932988 0.188840
vt 0.944016 0.181780
vt 0.944009 0.334554
vt 0.933706 0.328130
vt 0.872342 0.182067
vt 0.882672 0.188452
vt 0.883400 0.327680
vt 0.872349 0.334701
vt 0.933147 0.329467
vt 0.883926 0.328959
vt 0.485613 0.951570
vt 0.485661 0.951371
vt 0.492257 0.951370
vt 0.492305 0.951570
vt 0.874608 0.336608
vt 0.884922 0.330088
vt 0.877003 0.338519
vt 0.886384 0.330883
vt 0.879591 0.340448
vt 0.930682 0.331438
vt 0.936894 0.339890
vt 0.932136 0.330633
vt 0.939483 0.338124
vt 0.941825 0.336339
vt 0.932458 0.187551
vt 0.941750 0.179872
vt 0.931456 0.186422
vt 0.939345 0.177960
vt 0.929990 0.185628
vt 0.936744 0.176033
vt 0.885688 0.185150
vt 0.879425 0.176741
vt 0.884238 0.185958
vt 0.876857 0.178518
vt 0.883231 0.187125
vt 0.874523 0.180293
vt 0.492307 0.970605
vt 0.485616 0.970605
vt 0.491920 0.951089
vt 0.485999 0.951089
vt 0.486238 0.951050
vt 0.491681 0.951049
vt 0.485796 0.951202
vt 0.492122 0.951202
vt 0.485663 0.970804
vt 0.492260 0.970804
vt 0.492124 0.970972
vt 0.485798 0.970973
vt 0.486000 0.971086
vt 0.491922 0.971086
vt 0.491682 0.971125
vt 0.486240 0.971125
vt 0.801242 0.434334
vt 0.842032 0.434846
vt 0.847283 0.444734
vt 0.795332 0.445534
vt 0.795274 0.278146
vt 0.847062 0.277292
vt 0.841161 0.288505
vt 0.800581 0.288006
vt 0.846028 0.291997
vt 0.857049 0.284931
vt 0.857095 0.437623
vt 0.846762 0.431246
vt 0.785419 0.285181
vt 0.795739 0.291578
vt 0.796465 0.430844
vt 0.785401 0.437838
vt 0.846235 0.432590
vt 0.796958 0.432131
vt 0.596453 0.888615
vt 0.596501 0.888416
vt 0.603097 0.888417
vt 0.603144 0.888616
vt 0.787649 0.439753
vt 0.797921 0.433264
vt 0.790037 0.441675
vt 0.799348 0.434060
vt 0.792624 0.443613
vt 0.843836 0.434566
vt 0.850046 0.442992
vt 0.845257 0.433760
vt 0.852607 0.441195
vt 0.854930 0.439405
vt 0.845498 0.290709
vt 0.854782 0.283027
vt 0.844497 0.289580
vt 0.852379 0.281119
vt 0.843031 0.288787
vt 0.849780 0.279196
vt 0.798755 0.288280
vt 0.792509 0.279862
vt 0.797305 0.289086
vt 0.789939 0.281636
vt 0.796297 0.290252
vt 0.787602 0.283409
vt 0.603144 0.907651
vt 0.596452 0.907651
vt 0.602759 0.888135
vt 0.596838 0.888135
vt 0.597077 0.888095
vt 0.602521 0.888095
vt 0.596635 0.888247
vt 0.602962 0.888248
vt 0.596499 0.907850
vt 0.603097 0.907850
vt 0.602961 0.908019
vt 0.596635 0.908019
vt 0.596837 0.908132
vt 0.602759 0.908132
vt 0.602519 0.908171
vt 0.597077 0.908171
vn -0.006972 0.999976 0.000000
vn 0.006972 0.999976 0.000000
vn 0.006972 0.999976 0.000000
vn -0.006972 0.999976 0.000000
vn -0.006972 -0.999976 0.000000
vn 0.006972 -0.999976 0.000000
vn 0.006972 -0.999976 0.000000
vn -0.006972 -0.999976 0.000000
vn 0.999997 -0.002472 0.000000
vn 0.999997 -0.002472 0.000000
vn 0.999997 0.002472 0.000000
vn 0.999997 0.002472 0.000000
vn -0.999997 -0.002472 0.000000
vn -0.999997 -0.002472 0.000000
vn -0.999997 0.002472 0.000000
vn -0.999997 0.002472 0.000000
vn 0.000000 0.000000 1.000000
vn 0.000000 0.000000 1.000000
vn 0.000000 0.000000 1.000000
vn 0.000000 0.000000 1.000000
vn 0.000000 0.000000 -1.000000
vn 0.000000 0.000000 -1.000000
vn 0.000000 0.000000 -1.000000
vn 0.000000 0.000000 -1.000000
vn -0.895480 0.445102 0.000000
vn -0.895480 0.445102 0.000000
vn -0.640184 0.768222 0.000000
vn -0.640184 0.768222 0.000000
vn -0.326286 0.945271 0.000000
vn -0.326286 0.945271 0.000000
vn 0.326285 0.945271 0.000000
vn 0.326285 0.945271 0.000000
vn 0.640184 0.768222 0.000000
vn 0.640184 0.768222 0.000000
vn 0.895479 0.445104 0.000000
vn 0.895479 0.445104 0.000000
vn 0.895479 -0.445104 0.000000
vn 0.895479 -0.445104 0.000000
vn 0.640184 -0.768222 0.000000
vn 0.640184 -0.768222 0.000000
vn 0.326285 -0.945271 0.000000
vn 0.326285 -0.945271 0.000000
vn -0.326286 -0.945271 0.000000
vn -0.326286 -0.945271 0.000000
vn -0.640184 -0.768222 0.000000
vn -0.640184 -0.768222 0.000000
vn -0.895480 -0.445102 0.000000
vn -0.895480 -0.445102 0.000000
vn 0.000000 0.000000 -1.000000
vn 0.000000 0.000000 -1.000000
vn 0.000000 0.000000 -1.000000
vn 0.000000 0.000000 -1.000000
vn 0.000000 0.000000 -1.000000
vn 0.000000 0.000000 -1.000000
vn 0.000000 0.000000 -1.000000
vn 0.000000 0.000000 -1.000000
vn 0.000000 0.000000 -1.000000
vn 0.000000 0.000000 -1.000000
vn 0.000000 0.000000 -1.000000
vn 0.000000 0.000000 -1.000000
vn 0.000000 0.000000 -1.000000
vn 0.000000 0.000000 -1.000000
vn 0.000000 0.000000 -1.000000
vn 0.000000 0.000000 -1.000000
vn 0.000000 0.000000 1.000000
vn 0.000000 0.000000 1.000000
vn 0.000000 0.000000 1.000000
vn 0.000000 0.000000 1.000000
vn 0.000000 0.000000 1.000000
vn 0.000000 0.000000 1.000000
vn 0.000000 0.000000 1.000000
vn 0.000000 0.000000 1.000000
vn 0.000000 0.000000 1.000000
vn 0.000000 0.000000 1.000000
vn 0.000000 0.000000 1.000000
vn 0.000000 0.000000 1.000000
vn 0.000000 0.000000 1.000000
vn 0.000000 0.000000 1.000000
vn 0.000000 0.000000 1.000000
vn 0.000000 0.000000 1.000000
vn -0.006972 0.999976 0.000000
vn 0.006972 0.999976 0.000000
vn 0.006972 0.999976 0.000000
vn -0.006972 0.999976 0.000000
vn -0.006972 -0.999976 0.000000
vn 0.006972 -0.999976 0.000000
vn 0.006972 -0.999976 0.000000
vn -0.006972 -0.999976 0.000000
vn 0.999997 -0.002472 0.000000
vn 0.999997 -0.002472 0.000000
vn 0.999997 0.002472 0.000000
vn 0.999997 0.002472 0.000000
vn -0.999997 -0.002472 0.000000
vn -0.999997 -0.002472 0.000000
vn -0.999997 0.002472 0.000000
vn -0.999997 0.002472 0.000000
vn 0.000000 0.000000 1.000000
vn 0.000000 0.000000 1.000000
vn 0.000000 0.000000 1.000000
vn 0.000000 0.000000 1.000000
vn 0.000000 0.000000 -1.000000
vn 0.000000 0.000000 -1.000000
vn 0.000000 0.000000 -1.000000
vn 0.000000 0.000000 -1.000000
vn -0.895481 0.445101 0.000000
vn -0.895481 0.445101 0.000000
vn -0.640184 0.768222 0.000000
vn -0.640184 0.768222 0.000000
vn -0.326287 0.945271 0.000000
vn -0.326287 0.945271 0.000000
vn 0.326285 0.945271 0.000000
vn 0.326285 0.945271 0.000000
vn 0.640187 0.768219 0.000000
vn 0.640187 0.768219 0.000000
vn 0.895479 0.445104 0.000000
vn 0.895479 0.445104 0.000000
vn 0.895479 -0.445104 0.000000
vn 0.895479 -0.445104 0.000000
vn 0.640187 -0.768219 0.000000
vn 0.640187 -0.768219 0.000000
vn 0.326285 -0.945271 0.000000
vn 0.326285 -0.945271 0.000000
vn -0.326287 -0.945271 0.000000
vn -0.326287 -0.945271 0.000000
vn -0.640184 -0.768222 0.000000
vn -0.640184 -0.768222 0.000000
vn -0.895481 -0.445101 0.000000
vn -0.895481 -0.445101 0.000000
vn 0.000000 0.000000 -1.000000
vn 0.000000 0.000000 -1.000000
vn 0.000000 0.000000 -1.000000
vn 0.000000 0.000000 -1.000000
vn 0.000000 0.000000 -1.000000
vn 0.000000 0.000000 -1.000000
vn 0.000000 0.000000 -1.000000
vn 0.000000 0.000000 -1.000000
vn 0.000000 0.000000 -1.000000
vn 0.000000 0.000000 -1.000000
vn 0.000000 0.000000 -1.000000
vn 0.000000 0.000000 -1.000000
vn 0.000000 0.000000 -1.000000
vn 0.000000 0.000000 -1.000000
vn 0.000000 0.000000 -1.000000
vn 0.000000 0.000000 -1.000000
vn 0.000000 0.000000 1.000000
vn 0.000000 0.000000 1.000000
vn 0.000000 0.000000 1.000000
vn 0.000000 0.000000 1.000000
vn 0.000000 0.000000 1.000000
vn 0.000000 0.000000 1.000000
vn 0.000000 0.000000 1.000000
vn 0.000000 0.000000 1.000000
vn 0.000000 0.000000 1.000000
vn 0.000000 0.000000 1.000000
vn 0.000000 0.000000 1.000000
vn 0.000000 0.000000 1.000000
vn 0.000000 0.000000 1.000000
vn 0.000000 0.000000 1.000000
vn 0.000000 0.000000 1.000000
vn 0.000000 0.000000 1.000000
vn -0.006972 0.999976 0.000000
vn 0.006972 0.999976 0.000000
vn 0.006972 0.999976 0.000000
vn -0.006972 0.999976 0.000000
vn -0.006972 -0.999976 0.000000
vn 0.006972 -0.999976 0.000000
vn 0.006972 -0.999976 0.000000
vn -0.006972 -0.999976 0.000000
vn 0.999997 -0.002472 0.000000
vn 0.999997 -0.002472 0.000000
vn 0.999997 0.002472 0.000000
vn 0.999997 0.002472 0.000000
vn -0.999997 -0.002472 0.000000
vn -0.999997 -0.002472 0.000000
vn -0.999997 0.002472 0.000000
vn -0.999997 0.002472 0.000000
vn 0.000000 0.000000 1.000000
vn 0.000000 0.000000 1.000000
vn 0.000000 0.000000 1.000000
vn 0.000000 0.000000 1.000000
vn 0.000000 0.000000 -1.000000
vn 0.000000 0.000000 -1.000000
vn 0.000000 0.000000 -1.000000
vn 0.000000 0.000000 -1.000000
vn -0.895479 0.445104 0.000000
vn -0.895479 0.445104 0.000000
vn -0.640185 0.768220 0.000000
vn -0.640185 0.768220 0.000000
vn -0.326285 0.945271 0.000000
vn -0.326285 0.945271 0.000000
vn 0.326288 0.945271 0.000000
vn 0.326288 0.945271 0.000000
vn 0.640184 0.768222 0.000000
vn 0.640184 0.768222 0.000000
vn 0.895476 0.445110 0.000000
vn 0.895476 0.445110 0.000000
vn 0.895476 -0.445110 0.000000
vn 0.895476 -0.445110 0.000000
vn 0.640184 -0.768222 0.000000
vn 0.640184 -0.768222 0.000000
vn 0.326288 -0.945271 0.000000
vn 0.326288 -0.945271 0.000000
vn -0.326285 -0.945271 0.000000
vn -0.326285 -0.945271 0.000000
vn -0.640185 -0.768220 0.000000
vn -0.640185 -0.768220 0.000000
vn -0.895479 -0.445104 0.000000
vn -0.895479 -0.445104 0.000000
vn 0.000000 0.000000 -1.000000
vn 0.000000 0.000000 -1.000000
vn 0.000000 0.000000 -1.000000
vn 0.000000 0.000000 -1.000000
vn 0.000000 0.000000 -1.000000
vn 0.000000 0.000000 -1.000000
vn 0.000000 0.000000 -1.000000
vn 0.000000 0.000000 -1.000000
vn 0.000000 0.000000 -1.000000
vn 0.000000 0.000000 -1.000000
vn 0.000000 0.000000 -1.000000
vn 0.000000 0.000000 -1.000000
vn 0.000000 0.000000 -1.000000
vn 0.000000 0.000000 -1.000000
vn 0.000000 0.000000 -1.000000
vn 0.000000 0.000000 -1.000000
vn 0.000000 0.000000 1.000000
vn 0.000000 0.000000 1.000000
vn 0.000000 0.000000 1.000000
vn 0.000000 0.000000 1.000000
vn 0.000000 0.000000 1.000000
vn 0.000000 0.000000 1.000000
vn 0.000000 0.000000 1.000000
vn 0.000000 0.000000 1.000000
vn 0.000000 0.000000 1.000000
vn 0.000000 0.000000 1.000000
vn 0.000000 0.000000 1.000000
vn 0.000000 0.000000 1.000000
vn 0.000000 0.000000 1.000000
vn 0.000000 0.000000 1.000000
vn 0.000000 0.000000 1.000000
vn 0.000000 0.000000 1.000000
vn -0.006972 0.999976 0.000000
vn 0.006972 0.999976 0.000000
vn 0.006972 0.999976 0.000000
vn -0.006972 0.999976 0.000000
vn -0.006972 -0.999976 0.000000
vn 0.006972 -0.999976 0.000000
vn 0.006972 -0.999976 0.000000
vn -0.006972 -0.999976 0.000000
vn 0.999997 -0.002472 0.000000
vn 0.999997 -0.002472 0.000000
vn 0.999997 0.002472 0.000000
vn 0.999997 0.002472 0.000000
vn -0.999997 -0.002472 0.000000
vn -0.999997 -0.002472 0.000000
vn -0.999997 0.002472 0.000000
vn -0.999997 0.002472 0.000000
vn 0.000000 0.000000 1.000000
vn 0.000000 0.000000 1.000000
vn 0.000000 0.000000 1.000000
vn 0.000000 0.000000 1.000000
vn 0.000000 0.000000 -1.000000
vn 0.000000 0.000000 -1.000000
vn 0.000000 0.000000 -1.000000
vn 0.000000 0.000000 -1.000000
vn -0.895476 0.445110 0.000000
vn -0.895476 0.445110 0.000000
vn -0.640184 0.768222 0.000000
vn -0.640184 0.768222 0.000000
vn -0.326288 0.945271 0.000000
vn -0.326288 0.945271 0.000000
vn 0.326285 0.945271 0.000000
vn 0.326285 0.945271 0.000000
vn 0.640185 0.768220 0.000000
vn 0.640185 0.768220 0.000000
vn 0.895479 0.445104 0.000000
vn 0.895479 0.445104 0.000000
vn 0.895479 -0.445104 0.000000
vn 0.895479 -0.445104 0.000000
vn 0.640185 -0.768220 0.000000
vn 0.640185 -0.768220 0.000000
vn 0.326285 -0.945271 0.000000
vn 0.326285 -0.945271 0.000000
vn -0.326288 -0.945271 0.000000
vn -0.326288 -0.945271 0.000000
vn -0.640184 -0.768222 0.000000
vn -0.640184 -0.768222 0.000000
vn -0.895476 -0.445110 0.000000
vn -0.895476 -0.445110 0.000000
vn 0.000000 0.000000 -1.000000
vn 0.000000 0.000000 -1.000000
vn 0.000000 0.000000 -1.000000
vn 0.000000 0.000000 -1.000000
vn 0.000000 0.000000 -1.000000
vn 0.000000 0.000000 -1.000000
vn 0.000000 0.000000 -1.000000
vn 0.000000 0.000000 -1.000000
vn 0.000000 0.000000 -1.000000
vn 0.000000 0.000000 -1.000000
vn 0.000000 0.000000 -1.000000
vn 0.000000 0.000000 -1.000000
vn 0.000000 0.000000 -1.000000
vn 0.000000 0.000000 -1.000000
vn 0.000000 0.000000 -1.000000
vn 0.000000 0.000000 -1.000000
vn 0.000000 0.000000 1.000000
vn 0.000000 0.000000 1.000000
vn 0.000000 0.000000 1.000000
vn 0.000000 0.000000 1.000000
vn 0.000000 0.000000 1.000000
vn 0.000000 0.000000 1.000000
vn 0.000000 0.000000 1.000000
vn 0.000000 0.000000 1.000000
vn 0.000000 0.000000 1.000000
vn 0.000000 0.000000 1.000000
vn 0.000000 0.000000 1.000000
vn 0.000000 0.000000 1.000000
vn 0.000000 0.000000 1.000000
vn 0.000000 0.000000 1.000000
vn 0.000000 0.000000 1.000000
vn 0.000000 0.000000 1.000000
vn -0.006972 0.999976 0.000000
vn 0.006972 0.999976 0.000000
vn 0.006972 0.999976 0.000000
vn -0.006972 0.999976 0.000000
vn -0.006972 -0.999976 0.000000
vn 0.006972 -0.999976 0.000000
vn 0.006972 -0.999976 0.000000
vn -0.006972 -0.999976 0.000000
vn 0.999997 -0.002472 0.000000
vn 0.999997 -0.002472 0.000000
vn 0.999997 0.002472 0.000000
vn 0.999997 0.002472 0.000000
vn -0.999997 -0.002472 0.000000
vn -0.999997 -0.002472 0.000000
vn -0.999997 0.002472 0.000000
vn -0.999997 0.002472 0.000000
vn 0.000000 0.000000 1.000000
vn 0.000000 0.000000 1.000000
vn 0.000000 0.000000 1.000000
vn 0.000000 0.000000 1.000000
vn 0.000000 0.000000 -1.000000
vn 0.000000 0.000000 -1.000000
vn 0.000000 0.000000 -1.000000
vn 0.000000 0.000000 -1.000000
vn -0.895479 0.445104 0.000000
vn -0.895479 0.445104 0.000000
vn -0.640187 0.768219 0.000000
vn -0.640187 0.768219 0.000000
vn -0.326285 0.945271 0.000000
vn -0.326285 0.945271 0.000000
vn 0.326287 0.945271 0.000000
vn 0.326287 0.945271 0.000000
vn 0.640184 0.768222 0.000000
vn 0.640184 0.768222 0.000000
vn 0.895481 0.445101 0.000000
vn 0.895481 0.445101 0.000000
vn 0.895481 -0.445101 0.000000
vn 0.895481 -0.445101 0.000000
vn 0.640184 -0.768222 0.000000
vn 0.640184 -0.768222 0.000000
vn 0.326287 -0.945271 0.000000
vn 0.326287 -0.945271 0.000000
vn -0.326285 -0.945271 0.000000
vn -0.326285 -0.945271 0.000000
vn -0.640187 -0.768219 0.000000
vn -0.640187 -0.768219 0.000000
vn -0.895479 -0.445104 0.000000
vn -0.895479 -0.445104 0.000000
vn 0.000000 0.000000 -1.000000
vn 0.000000 0.000000 -1.000000
vn 0.000000 0.000000 -1.000000
vn 0.000000 0.000000 -1.000000
vn 0.000000 0.000000 -1.000000
vn 0.000000 0.000000 -1.000000
vn 0.000000 0.000000 -1.000000
vn 0.000000 0.000000 -1.000000
vn 0.000000 0.000000 -1.000000
vn 0.000000 0.000000 -1.000000
vn 0.000000 0.000000 -1.000000
vn 0.000000 0.000000 -1.000000
vn 0.000000 0.000000 -1.000000
vn 0.000000 0.000000 -1.000000
vn 0.000000 0.000000 -1.000000
vn 0.000000 0.000000 -1.000000
vn 0.000000 0.000000 1.000000
vn 0.000000 0.000000 1.000000
vn 0.000000 0.000000 1.000000
vn 0.000000 0.000000 1.000000
vn 0.000000 0.000000 1.000000
vn 0.000000 0.000000 1.000000
vn 0.000000 0.000000 1.000000
vn 0.000000 0.000000 1.000000
vn 0.000000 0.000000 1.000000
vn 0.000000 0.000000 1.000000
vn 0.000000 0.000000 1.000000
vn 0.000000 0.000000 1.000000
vn 0.000000 0.000000 1.000000
vn 0.000000 0.000000 1.000000
vn 0.000000 0.000000 1.000000
vn 0.000000 0.000000 1.000000
vn -0.006972 0.999976 0.000000
vn 0.006972 0.999976 0.000000
vn 0.006972 0.999976 0.000000
vn -0.006972 0.999976 0.000000
vn -0.006972 -0.999976 0.000000
vn 0.006972 -0.999976 0.000000
vn 0.006972 -0.999976 0.000000
vn -0.006972 -0.999976 0.000000
vn 0.999997 -0.002472 0.000000
vn 0.999997 -0.002472 0.000000
vn 0.999997 0.002472 0.000000
vn 0.999997 0.002472 0.000000
vn -0.999997 -0.002472 0.000000
vn -0.999997 -0.002472 0.000000
vn -0.999997 0.002472 0.000000
vn -0.999997 0.002472 0.000000
vn 0.000000 0.000000 1.000000
vn 0.000000 0.000000 1.000000
vn 0.000000 0.000000 1.000000
vn 0.000000 0.000000 1.000000
vn 0.000000 0.000000 -1.000000
vn 0.000000 0.000000 -1.000000
vn 0.000000 0.000000 -1.000000
vn 0.000000 0.000000 -1.000000
vn -0.895479 0.445104 0.000000
vn -0.895479 0.445104 0.000000
vn -0.640184 0.768222 0.000000
vn -0.640184 0.768222 0.000000
vn -0.326285 0.945271 0.000000
vn -0.326285 0.945271 0.000000
vn 0.326286 0.945271 0.000000
vn 0.326286 0.945271 0.000000
vn 0.640184 0.768222 0.000000
vn 0.640184 0.768222 0.000000
vn 0.895480 0.445102 0.000000
vn 0.895480 0.445102 0.000000
vn 0.895480 -0.445102 0.000000
vn 0.895480 -0.445102 0.000000
vn 0.640184 -0.768222 0.000000
vn 0.640184 -0.768222 0.000000
vn 0.326286 -0.945271 0.000000
vn 0.326286 -0.945271 0.000000
vn -0.326285 -0.945271 0.000000
vn -0.326285 -0.945271 0.000000
vn -0.640184 -0.768222 0.000000
vn -0.640184 -0.768222 0.000000
vn -0.895479 -0.445104 0.000000
vn -0.895479 -0.445104 0.000000
vn 0.000000 0.000000 -1.000000
vn 0.000000 0.000000 -1.000000
vn 0.000000 0.000000 -1.000000
vn 0.000000 0.000000 -1.000000
vn 0.000000 0.000000 -1.000000
vn 0.000000 0.000000 -1.000000
vn 0.000000 0.000000 -1.000000
vn 0.000000 0.000000 -1.000000
vn 0.000000 0.000000 -1.000000
vn 0.000000 0.000000 -1.000000
vn 0.000000 0.000000 -1.000000
vn 0.000000 0.000000 -1.000000
vn 0.000000 0.000000 -1.000000
vn 0.000000 0.000000 -1.000000
vn 0.000000 0.000000 -1.000000
vn 0.000000 0.000000 -1.000000
vn 0.000000 0.000000 1.000000
vn 0.000000 0.000000 1.000000
vn 0.000000 0.000000 1.000000
vn 0.000000 0.000000 1.000000
vn 0.000000 0.000000 1.000000
vn 0.000000 0.000000 1.000000
vn 0.000000 0.000000 1.000000
vn 0.000000 0.000000 1.000000
vn 0.000000 0.000000 1.000000
vn 0.000000 0.000000 1.000000
vn 0.000000 0.000000 1.000000
vn 0.000000 0.000000 1.000000
vn 0.000000 0.000000 1.000000
vn 0.000000 0.000000 1.000000
vn 0.000000 0.000000 1.000000
vn 0.000000 0.000000 1.000000
vn -0.006972 0.999976 0.000000
vn 0.006972 0.999976 0.000000
vn 0.006972 0.999976 0.000000
vn -0.006972 0.999976 0.000000
vn -0.006972 -0.999976 0.000000
vn 0.006972 -0.999976 0.000000
vn 0.006972 -0.999976 0.000000
vn -0.006972 -0.999976 0.000000
vn 0.999997 -0.002472 0.000000
vn 0.999997 -0.002472 0.000000
vn 0.999997 0.002472 0.000000
vn 0.999997 0.002472 0.000000
vn -0.999997 -0.002472 0.000000
vn -0.999997 -0.002472 0.000000
vn -0.999997 0.002472 0.000000
vn -0.999997 0.002472 0.000000
vn 0.000000 0.000000 1.000000
vn 0.000000 0.000000 1.000000
vn 0.000000 0.000000 1.000000
vn 0.000000 0.000000 1.000000
vn 0.000000 0.000000 -1.000000
vn 0.000000 0.000000 -1.000000
vn 0.000000 0.000000 -1.000000
vn 0.000000 0.000000 -1.000000
vn -0.895479 0.445104 0.000000
vn -0.895479 0.445104 0.000000
vn -0.640184 0.768222 0.000000
vn -0.640184 0.768222 0.000000
vn -0.326286 0.945271 0.000000
vn -0.326286 0.945271 0.000000
vn 0.326286 0.945271 0.000000
vn 0.326286 0.945271 0.000000
vn 0.640185 0.768221 0.000000
vn 0.640185 0.768221 0.000000
vn 0.895479 0.445104 0.000000
vn 0.895479 0.445104 0.000000
vn 0.895479 -0.445104 0.000000
vn 0.895479 -0.445104 0.000000
vn 0.640185 -0.768221 0.000000
vn 0.640185 -0.768221 0.000000
vn 0.326286 -0.945271 0.000000
vn 0.326286 -0.945271 0.000000
vn -0.326286 -0.945271 0.000000
vn -0.326286 -0.945271 0.000000
vn -0.640184 -0.768222 0.000000
vn -0.640184 -0.768222 0.000000
vn -0.895479 -0.445104 0.000000
vn -0.895479 -0.445104 0.000000
vn 0.000000 0.000000 -1.000000
vn 0.000000 0.000000 -1.000000
vn 0.000000 0.000000 -1.000000
vn 0.000000 0.000000 -1.000000
vn 0.000000 0.000000 -1.000000
vn 0.000000 0.000000 -1.000000
vn 0.000000 0.000000 -1.000000
vn 0.000000 0.000000 -1.000000
vn 0.000000 0.000000 -1.000000
vn 0.000000 0.000000 -1.000000
vn 0.000000 0.000000 -1.000000
vn 0.000000 0.000000 -1.000000
vn 0.000000 0.000000 -1.000000
vn 0.000000 0.000000 -1.000000
vn 0.000000 0.000000 -1.000000
vn 0.000000 0.000000 -1.000000
vn 0.000000 0.000000 1.000000
vn 0.000000 0.000000 1.000000
vn 0.000000 0.000000 1.000000
vn 0.000000 0.000000 1.000000
vn 0.000000 0.000000 1.000000
vn 0.000000 0.000000 1.000000
vn 0.000000 0.000000 1.000000
vn 0.000000 0.000000 1.000000
vn 0.000000 0.000000 1.000000
vn 0.000000 0.000000 1.000000
vn 0.000000 0.000000 1.000000
vn 0.000000 0.000000 1.000000
vn 0.000000 0.000000 1.000000
vn 0.000000 0.000000 1.000000
vn 0.000000 0.000000 1.000000
vn 0.000000 0.000000 1.000000
vn -0.006972 0.999976 0.000000
vn 0.006972 0.999976 0.000000
vn 0.006972 0.999976 0.000000
vn -0.006972 0.999976 0.000000
vn -0.006972 -0.999976 0.000000
vn 0.006972 -0.999976 0.000000
vn 0.006972 -0.999976 0.000000
vn -0.006972 -0.999976 0.000000
vn 0.999997 -0.002472 0.000000
vn 0.999997 -0.002472 0.000000
vn 0.999997 0.002472 0.000000
vn 0.999997 0.002472 0.000000
vn -0.999997 -0.002472 0.000000
vn -0.999997 -0.002472 0.000000
vn -0.999997 0.002472 0.000000
vn -0.999997 0.002472 0.000000
vn 0.000000 0.000000 1.000000
vn 0.000000 0.000000 1.000000
vn 0.000000 0.000000 1.000000
vn 0.000000 0.000000 1.000000
vn 0.000000 0.000000 -1.000000
vn 0.000000 0.000000 -1.000000
vn 0.000000 0.000000 -1.000000
vn 0.000000 0.000000 -1.000000
vn -0.895479 0.445104 0.000000
vn -0.895479 0.445104 0.000000
vn -0.640185 0.768221 0.000000
vn -0.640185 0.768221 0.000000
vn -0.326286 0.945271 0.000000
vn -0.326286 0.945271 0.000000
vn 0.326286 0.945271 0.000000
vn 0.326286 0.945271 0.000000
vn 0.640185 0.768221 0.000000
vn 0.640185 0.768221 0.000000
vn 0.895479 0.445104 0.000000
vn 0.895479 0.445104 0.000000
vn 0.895479 -0.445104 0.000000
vn 0.895479 -0.445104 0.000000
vn 0.640185 -0.768221 0.000000
vn 0.640185 -0.768221 0.000000
vn 0.326286 -0.945271 0.000000
vn 0.326286 -0.945271 0.000000
vn -0.326286 -0.945271 0.000000
vn -0.326286 -0.945271 0.000000
vn -0.640185 -0.768221 0.000000
vn -0.640185 -0.768221 0.000000
vn -0.895479 -0.445104 0.000000
vn -0.895479 -0.445104 0.000000
vn 0.000000 0.000000 -1.000000
vn 0.000000 0.000000 -1.000000
vn 0.000000 0.000000 -1.000000
vn 0.000000 0.000000 -1.000000
vn 0.000000 0.000000 -1.000000
vn 0.000000 0.000000 -1.000000
vn 0.000000 0.000000 -1.000000
vn 0.000000 0.000000 -1.000000
vn 0.000000 0.000000 -1.000000
vn 0.000000 0.000000 -1.000000
vn 0.000000 0.000000 -1.000000
vn 0.000000 0.000000 -1.000000
vn 0.000000 0.000000 -1.000000
vn 0.000000 0.000000 -1.000000
vn 0.000000 0.000000 -1.000000
vn 0.000000 0.000000 -1.000000
vn 0.000000 0.000000 1.000000
vn 0.000000 0.000000 1.000000
vn 0.000000 0.000000 1.000000
vn 0.000000 0.000000 1.000000
vn 0.000000 0.000000 1.000000
vn 0.000000 0.000000 1.000000
vn 0.000000 0.000000 1.000000
vn 0.000000 0.000000 1.000000
vn 0.000000 0.000000 1.000000
vn 0.000000 0.000000 1.000000
vn 0.000000 0.000000 1.000000
vn 0.000000 0.000000 1.000000
vn 0.000000 0.000000 1.000000
vn 0.000000 0.000000 1.000000
vn 0.000000 0.000000 1.000000
vn 0.000000 0.000000 1.000000
vn -0.006972 0.999976 0.000000
vn 0.006972 0.999976 0.000000
vn 0.006972 0.999976 0.000000
vn -0.006972 0.999976 0.000000
vn -0.006972 -0.999976 0.000000
vn 0.006972 -0.999976 0.000000
vn 0.006972 -0.999976 0.000000
vn -0.006972 -0.999976 0.000000
vn 0.999997 -0.002472 0.000000
vn 0.999997 -0.002472 0.000000
vn 0.999997 0.002472 0.000000
vn 0.999997 0.002472 0.000000
vn -0.999997 -0.002472 0.000000
vn -0.999997 -0.002472 0.000000
vn -0.999997 0.002472 0.000000
vn -0.999997 0.002472 0.000000
vn 0.000000 0.000000 1.000000
vn 0.000000 0.000000 1.000000
vn 0.000000 0.000000 1.000000
vn 0.000000 0.000000 1.000000
vn 0.000000 0.000000 -1.000000
vn 0.000000 0.000000 -1.000000
vn 0.000000 0.000000 -1.000000
vn 0.000000 0.000000 -1.000000
vn -0.895479 0.445104 0.000000
vn -0.895479 0.445104 0.000000
vn -0.640185 0.768221 0.000000
vn -0.640185 0.768221 0.000000
vn -0.326286 0.945271 0.000000
vn -0.326286 0.945271 0.000000
vn 0.326286 0.945271 0.000000
vn 0.326286 0.945271 0.000000
vn 0.640184 0.768222 0.000000
vn 0.640184 0.768222 0.000000
vn 0.895479 0.445104 0.000000
vn 0.895479 0.445104 0.000000
vn 0.895479 -0.445104 0.000000
vn 0.895479 -0.445104 0.000000
vn 0.640184 -0.768222 0.000000
vn 0.640184 -0.768222 0.000000
vn 0.326286 -0.945271 0.000000
vn 0.326286 -0.945271 0.000000
vn -0.326286 -0.945271 0.000000
vn -0.326286 -0.945271 0.000000
vn -0.640185 -0.768221 0.000000
vn -0.640185 -0.768221 0.000000
vn -0.895479 -0.445104 0.000000
vn -0.895479 -0.445104 0.000000
vn 0.000000 0.000000 -1.000000
vn 0.000000 0.000000 -1.000000
vn 0.000000 0.000000 -1.000000
vn 0.000000 0.000000 -1.000000
vn 0.000000 0.000000 -1.000000
vn 0.000000 0.000000 -1.000000
vn 0.000000 0.000000 -1.000000
vn 0.000000 0.000000 -1.000000
vn 0.000000 0.000000 -1.000000
vn 0.000000 0.000000 -1.000000
vn 0.000000 0.000000 -1.000000
vn 0.000000 0.000000 -1.000000
vn 0.000000 0.000000 -1.000000
vn 0.000000 0.000000 -1.000000
vn 0.000000 0.000000 -1.000000
vn 0.000000 0.000000 -1.000000
vn 0.000000 0.000000 1.000000
vn 0.000000 0.000000 1.000000
vn 0.000000 0.000000 1.000000
vn 0.000000 0.000000 1.000000
vn 0.000000 0.000000 1.000000
vn 0.000000 0.000000 1.000000
vn 0.000000 0.000000 1.000000
vn 0.000000 0.000000 1.000000
vn 0.000000 0.000000 1.000000
vn 0.000000 0.000000 1.000000
vn 0.000000 0.000000 1.000000
vn 0.000000 0.000000 1.000000
vn 0.000000 0.000000 1.000000
vn 0.000000 0.000000 1.000000
vn 0.000000 0.000000 1.000000
vn 0.000000 0.000000 1.000000
s 1
g S_S03_01
usemtl set2
f 20/23/1 11/18/2 27/29/3 21/30/4
f 40/31/5 31/32/6 2/11/7 6/16/8
f 1/2/9 32/33/10 26/34/11 12/21/12
f 36/35/13 10/13/14 16/28/15 22/36/16
s 5
f 16/28/17 12/21/18 13/20/19 17/25/20
s 6
f 22/3/21 23/43/22 30/48/23 26/26/24
s 1
f 16/28/15 17/25/25 23/37/26 22/36/16
f 17/25/25 18/24/27 24/38/28 23/37/26
f 18/24/27 19/22/29 25/39/30 24/38/28
f 19/22/29 20/23/1 21/30/4 25/39/30
f 11/18/2 15/17/31 28/40/32 27/29/3
f 15/17/31 14/19/33 29/41/34 28/40/32
f 14/19/33 13/20/35 30/42/36 29/41/34
f 13/20/35 12/21/12 26/34/11 30/42/36
f 1/2/9 5/1/37 33/54/38 32/33/10
f 5/1/37 4/8/39 34/56/40 33/54/38
f 4/8/39 3/10/41 35/57/42 34/56/40
f 3/10/41 2/11/7 31/32/6 35/57/42
f 6/16/8 7/15/43 39/58/44 40/31/5
f 7/15/43 8/14/45 38/59/46 39/58/44
f 8/14/45 9/12/47 37/60/48 38/59/46
f 9/12/47 10/13/14 36/35/13 37/60/48
s 6
f 22/3/21 26/26/24 32/9/49 36/6/50
f 28/46/51 25/45/52 21/4/53 27/7/54
f 30/48/23 23/43/22 24/44/55 29/47/56
f 29/47/56 24/44/55 25/45/52 28/46/51
f 37/52/57 33/49/58 34/50/59 38/53/60
f 36/6/50 32/9/49 33/49/58 37/52/57
f 39/55/61 35/51/62 31/27/63 40/5/64
f 38/53/60 34/50/59 35/51/62 39/55/61
s 5
f 10/13/65 1/2/66 12/21/18 16/28/17
f 18/24/67 14/19/68 15/17/69 19/22/70
f 17/25/20 13/20/19 14/19/68 18/24/67
f 19/22/70 15/17/69 11/18/71 20/23/72
f 5/1/73 9/12/74 8/14/75 4/8/76
f 10/13/65 9/12/74 5/1/73 1/2/66
f 3/10/77 7/15/78 6/16/79 2/11/80
f 4/8/76 8/14/75 7/15/78 3/10/77
s 8
f 60/61/81 51/62/82 67/63/83 61/64/84
f 80/65/85 71/66/86 42/67/87 46/68/88
f 41/69/89 72/70/90 66/71/91 52/72/92
f 76/73/93 50/74/94 56/75/95 62/76/96
s 12
f 56/75/97 52/72/98 53/77/99 57/78/100
s 13
f 62/79/101 63/80/102 70/81/103 66/82/104
s 8
f 56/75/95 57/78/105 63/83/106 62/76/96
f 57/78/105 58/84/107 64/85/108 63/83/106
f 58/84/107 59/86/109 65/87/110 64/85/108
f 59/86/109 60/61/81 61/64/84 65/87/110
f 51/62/82 55/88/111 68/89/112 67/63/83
f 55/88/111 54/90/113 69/91/114 68/89/112
f 54/90/113 53/77/115 70/92/116 69/91/114
f 53/77/115 52/72/92 66/71/91 70/92/116
f 41/69/89 45/93/117 73/94/118 72/70/90
f 45/93/117 44/95/119 74/96/120 73/94/118
f 44/95/119 43/97/121 75/98/122 74/96/120
f 43/97/121 42/67/87 71/66/86 75/98/122
f 46/68/88 47/99/123 79/100/124 80/65/85
f 47/99/123 48/101/125 78/102/126 79/100/124
f 48/101/125 49/103/127 77/104/128 78/102/126
f 49/103/127 50/74/94 76/73/93 77/104/128
s 13
f 62/79/101 66/82/104 72/105/129 76/106/130
f 68/107/131 65/108/132 61/109/133 67/110/134
f 70/81/103 63/80/102 64/111/135 69/112/136
f 69/112/136 64/111/135 65/108/132 68/107/131
f 77/113/137 73/114/138 74/115/139 78/116/140
f 76/106/130 72/105/129 73/114/138 77/113/137
f 79/117/141 75/118/142 71/119/143 80/120/144
f 78/116/140 74/115/139 75/118/142 79/117/141
s 12
f 50/74/145 41/69/146 52/72/98 56/75/97
f 58/84/147 54/90/148 55/88/149 59/86/150
f 57/78/100 53/77/99 54/90/148 58/84/147
f 59/86/150 55/88/149 51/62/151 60/61/152
f 45/93/153 49/103/154 48/101/155 44/95/156
f 50/74/145 49/103/154 45/93/153 41/69/146
f 43/97/157 47/99/158 46/68/159 42/67/160
f 44/95/156 48/101/155 47/99/158 43/97/157
s 15
f 100/121/161 91/122/162 107/123/163 101/124/164
f 120/125/165 111/126/166 82/127/167 86/128/168
f 81/129/169 112/130/170 106/131/171 92/132/172
f 116/133/173 90/134/174 96/135/175 102/136/176
s 19
f 96/135/177 92/132/178 93/137/179 97/138/180
s 20
f 102/139/181 103/140/182 110/141/183 106/142/184
s 15
f 96/135/175 97/138/185 103/143/186 102/136/176
f 97/138/185 98/144/187 104/145/188 103/143/186
f 98/144/187 99/146/189 105/147/190 104/145/188
f 99/146/189 100/121/161 101/124/164 105/147/190
f 91/122/162 95/148/191 108/149/192 107/123/163
f 95/148/191 94/150/193 109/151/194 108/149/192
f 94/150/193 93/137/195 110/152/196 109/151/194
f 93/137/195 92/132/172 106/131/171 110/152/196
f 81/129/169 85/153/197 113/154/198 112/130/170
f 85/153/197 84/155/199 114/156/200 113/154/198
f 84/155/199 83/157/201 115/158/202 114/156/200
f 83/157/201 82/127/167 111/126/166 115/158/202
f 86/128/168 87/159/203 119/160/204 120/125/165
f 87/159/203 88/161/205 118/162/206 119/160/204
f 88/161/205 89/163/207 117/164/208 118/162/206
f 89/163/207 90/134/174 116/133/173 117/164/208
s 20
f 102/139/181 106/142/184 112/165/209 116/166/210
f 108/167/211 105/168/212 101/169/213 107/170/214
f 110/141/183 103/140/182 104/171/215 109/172/216
f 109/172/216 104/171/215 105/168/212 108/167/211
f 117/173/217 113/174/218 114/175/219 118/176/220
f 116/166/210 112/165/209 113/174/218 117/173/217
f 119/177/221 115/178/222 111/179/223 120/180/224
f 118/176/220 114/175/219 115/178/222 119/177/221
s 19
f 90/134/225 81/129/226 92/132/178 96/135/177
f 98/144/227 94/150/228 95/148/229 99/146/230
f 97/138/180 93/137/179 94/150/228 98/144/227
f 99/146/230 95/148/229 91/122/231 100/121/232
f 85/153/233 89/163/234 88/161/235 84/155/236
f 90/134/225 89/163/234 85/153/233 81/129/226
f 83/157/237 87/159/238 86/128/239 82/127/240
f 84/155/236 88/161/235 87/159/238 83/157/237
s 22
f 140/181/241 131/182/242 147/183/243 141/184/244
f 160/185/245 151/186/246 122/187/247 126/188/248
f 121/189/249 152/190/250 146/191/251 132/192/252
f 156/193/253 130/194/254 136/195/255 142/196/256
s 26
f 136/195/257 132/192/258 133/197/259 137/198/260
s 27
f 142/199/261 143/200/262 150/201/263 146/202/264
s 22
f 136/195/255 137/198/265 143/203/266 142/196/256
f 137/198/265 138/204/267 144/205/268 143/203/266
f 138/204/267 139/206/269 145/207/270 144/205/268
f 139/206/269 140/181/241 141/184/244 145/207/270
f 131/182/242 135/208/271 148/209/272 147/183/243
f 135/208/271 134/210/273 149/211/274 148/209/272
f 134/210/273 133/197/275 150/212/276 149/211/274
f 133/197/275 132/192/252 146/191/251 150/212/276
f 121/189/249 125/213/277 153/214/278 152/190/250
f 125/213/277 124/215/279 154/216/280 153/214/278
f 124/215/279 123/217/281 155/218/282 154/216/280
f 123/217/281 122/187/247 151/186/246 155/218/282
f 126/188/248 127/219/283 159/220/284 160/185/245
f 127/219/283 128/221/285 158/222/286 159/220/284
f 128/221/285 129/223/287 157/224/288 158/222/286
f 129/223/287 130/194/254 156/193/253 157/224/288
s 27
f 142/199/261 146/202/264 152/225/289 156/226/290
f 148/227/291 145/228/292 141/229/293 147/230/294
f 150/201/263 143/200/262 144/231/295 149/232/296
f 149/232/296 144/231/295 145/228/292 148/227/291
f 157/233/297 153/234/298 154/235/299 158/236/300
f 156/226/290 152/225/289 153/234/298 157/233/297
f 159/237/301 155/238/302 151/239/303 160/240/304
f 158/236/300 154/235/299 155/238/302 159/237/301
s 26
f 130/194/305 121/189/306 132/192/258 136/195/257
f 138/204/307 134/210/308 135/208/309 139/206/310
f 137/198/260 133/197/259 134/210/308 138/204/307
f 139/206/310 135/208/309 131/182/311 140/181/312
f 125/213/313 129/223/314 128/221/315 124/215/316
f 130/194/305 129/223/314 125/213/313 121/189/306
f 123/217/317 127/219/318 126/188/319 122/187/320
f 124/215/316 128/221/315 127/219/318 123/217/317
s 29
f 180/241/321 171/242/322 187/243/323 181/244/324
f 200/245/325 191/246/326 162/247/327 166/248/328
f 161/249/329 192/250/330 186/251/331 172/252/332
f 196/253/333 170/254/334 176/255/335 182/256/336
s 33
f 176/255/337 172/252/338 173/257/339 177/258/340
s 34
f 182/259/341 183/260/342 190/261/343 186/262/344
s 29
f 176/255/335 177/258/345 183/263/346 182/256/336
f 177/258/345 178/264/347 184/265/348 183/263/346
f 178/264/347 179/266/349 185/267/350 184/265/348
f 179/266/349 180/241/321 181/244/324 185/267/350
f 171/242/322 175/268/351 188/269/352 187/243/323
f 175/268/351 174/270/353 189/271/354 188/269/352
f 174/270/353 173/257/355 190/272/356 189/271/354
f 173/257/355 172/252/332 186/251/331 190/272/356
f 161/249/329 165/273/357 193/274/358 192/250/330
f 165/273/357 164/275/359 194/276/360 193/274/358
f 164/275/359 163/277/361 195/278/362 194/276/360
f 163/277/361 162/247/327 191/246/326 195/278/362
f 166/248/328 167/279/363 199/280/364 200/245/325
f 167/279/363 168/281/365 198/282/366 199/280/364
f 168/281/365 169/283/367 197/284/368 198/282/366
f 169/283/367 170/254/334 196/253/333 197/284/368
s 34
f 182/259/341 186/262/344 192/285/369 196/286/370
f 188/287/371 185/288/372 181/289/373 187/290/374
f 190/261/343 183/260/342 184/291/375 189/292/376
f 189/292/376 184/291/375 185/288/372 188/287/371
f 197/293/377 193/294/378 194/295/379 198/296/380
f 196/286/370 192/285/369 193/294/378 197/293/377
f 199/297/381 195/298/382 191/299/383 200/300/384
f 198/296/380 194/295/379 195/298/382 199/297/381
s 33
f 170/254/385 161/249/386 172/252/338 176/255/337
f 178/264/387 174/270/388 175/268/389 179/266/390
f 177/258/340 173/257/339 174/270/388 178/264/387
f 179/266/390 175/268/389 171/242/391 180/241/392
f 165/273/393 169/283/394 168/281/395 164/275/396
f 170/254/385 169/283/394 165/273/393 161/249/386
f 163/277/397 167/279/398 166/248/399 162/247/400
f 164/275/396 168/281/395 167/279/398 163/277/397
s 36
f 220/301/401 211/302/402 227/303/403 221/304/404
f 240/305/405 231/306/406 202/307/407 206/308/408
f 201/309/409 232/310/410 226/311/411 212/312/412
f 236/313/413 210/314/414 216/315/415 222/316/416
s 40
f 216/315/417 212/312/418 213/317/419 217/318/420
s 41
f 222/319/421 223/320/422 230/321/423 226/322/424
s 36
f 216/315/415 217/318/425 223/323/426 222/316/416
f 217/318/425 218/324/427 224/325/428 223/323/426
f 218/324/427 219/326/429 225/327/430 224/325/428
f 219/326/429 220/301/401 221/304/404 225/327/430
f 211/302/402 215/328/431 228/329/432 227/303/403
f 215/328/431 214/330/433 229/331/434 228/329/432
f 214/330/433 213/317/435 230/332/436 229/331/434
f 213/317/435 212/312/412 226/311/411 230/332/436
f 201/309/409 205/333/437 233/334/438 232/310/410
f 205/333/437 204/335/439 234/336/440 233/334/438
f 204/335/439 203/337/441 235/338/442 234/336/440
f 203/337/441 202/307/407 231/306/406 235/338/442
f 206/308/408 207/339/443 239/340/444 240/305/405
f 207/339/443 208/341/445 238/342/446 239/340/444
f 208/341/445 209/343/447 237/344/448 238/342/446
f 209/343/447 210/314/414 236/313/413 237/344/448
s 41
f 222/319/421 226/322/424 232/345/449 236/346/450
f 228/347/451 225/348/452 221/349/453 227/350/454
f 230/321/423 223/320/422 224/351/455 229/352/456
f 229/352/456 224/351/455 225/348/452 228/347/451
f 237/353/457 233/354/458 234/355/459 238/356/460
f 236/346/450 232/345/449 233/354/458 237/353/457
f 239/357/461 235/358/462 231/359/463 240/360/464
f 238/356/460 234/355/459 235/358/462 239/357/461
s 40
f 210/314/465 201/309/466 212/312/418 216/315/417
f 218/324/467 214/330/468 215/328/469 219/326/470
f 217/318/420 213/317/419 214/330/468 218/324/467
f 219/326/470 215/328/469 211/302/471 220/301/472
f 205/333/473 209/343/474 208/341/475 204/335/476
f 210/314/465 209/343/474 205/333/473 201/309/466
f 203/337/477 207/339/478 206/308/479 202/307/480
f 204/335/476 208/341/475 207/339/478 203/337/477
s 43
f 260/361/481 251/362/482 267/363/483 261/364/484
f 280/365/485 271/366/486 242/367/487 246/368/488
f 241/369/489 272/370/490 266/371/491 252/372/492
f 276/373/493 250/374/494 256/375/495 262/376/496
s 47
f 256/375/497 252/372/498 253/377/499 257/378/500
s 48
f 262/379/501 263/380/502 270/381/503 266/382/504
s 43
f 256/375/495 257/378/505 263/383/506 262/376/496
f 257/378/505 258/384/507 264/385/508 263/383/506
f 258/384/507 259/386/509 265/387/510 264/385/508
f 259/386/509 260/361/481 261/364/484 265/387/510
f 251/362/482 255/388/511 268/389/512 267/363/483
f 255/388/511 254/390/513 269/391/514 268/389/512
f 254/390/513 253/377/515 270/392/516 269/391/514
f 253/377/515 252/372/492 266/371/491 270/392/516
f 241/369/489 245/393/517 273/394/518 272/370/490
f 245/393/517 244/395/519 274/396/520 273/394/518
f 244/395/519 243/397/521 275/398/522 274/396/520
f 243/397/521 242/367/487 271/366/486 275/398/522
f 246/368/488 247/399/523 279/400/524 280/365/485
f 247/399/523 248/401/525 278/402/526 279/400/524
f 248/401/525 249/403/527 277/404/528 278/402/526
f 249/403/527 250/374/494 276/373/493 277/404/528
s 48
f 262/379/501 266/382/504 272/405/529 276/406/530
f 268/407/531 265/408/532 261/409/533 267/410/534
f 270/381/503 263/380/502 264/411/535 269/412/536
f 269/412/536 264/411/535 265/408/532 268/407/531
f 277/413/537 273/414/538 274/415/539 278/416/540
f 276/406/530 272/405/529 273/414/538 277/413/537
f 279/417/541 275/418/542 271/419/543 280/420/544
f 278/416/540 274/415/539 275/418/542 279/417/541
s 47
f 250/374/545 241/369/546 252/372/498 256/375/497
f 258/384/547 254/390/548 255/388/549 259/386/550
f 257/378/500 253/377/499 254/390/548 258/384/547
f 259/386/550 255/388/549 251/362/551 260/361/552
f 245/393/553 249/403/554 248/401/555 244/395/556
f 250/374/545 249/403/554 245/393/553 241/369/546
f 243/397/557 247/399/558 246/368/559 242/367/560
f 244/395/556 248/401/555 247/399/558 243/397/557
s 50
f 300/421/561 291/422/562 307/423/563 301/424/564
f 320/425/565 311/426/566 282/427/567 286/428/568
f 281/429/569 312/430/570 306/431/571 292/432/572
f 316/433/573 290/434/574 296/435/575 302/436/576
s 54
f 296/435/577 292/432/578 293/437/579 297/438/580
s 55
f 302/439/581 303/440/582 310/441/583 306/442/584
s 50
f 296/435/575 297/438/585 303/443/586 302/436/576
f 297/438/585 298/444/587 304/445/588 303/443/586
f 298/444/587 299/446/589 305/447/590 304/445/588
f 299/446/589 300/421/561 301/424/564 305/447/590
f 291/422/562 295/448/591 308/449/592 307/423/563
f 295/448/591 294/450/593 309/451/594 308/449/592
f 294/450/593 293/437/595 310/452/596 309/451/594
f 293/437/595 292/432/572 306/431/571 310/452/596
f 281/429/569 285/453/597 313/454/598 312/430/570
f 285/453/597 284/455/599 314/456/600 313/454/598
f 284/455/599 283/457/601 315/458/602 314/456/600
f 283/457/601 282/427/567 311/426/566 315/458/602
f 286/428/568 287/459/603 319/460/604 320/425/565
f 287/459/603 288/461/605 318/462/606 319/460/604
f 288/461/605 289/463/607 317/464/608 318/462/606
f 289/463/607 290/434/574 316/433/573 317/464/608
s 55
f 302/439/581 306/442/584 312/465/609 316/466/610
f 308/467/611 305/468/612 301/469/613 307/470/614
f 310/441/583 303/440/582 304/471/615 309/472/616
f 309/472/616 304/471/615 305/468/612 308/467/611
f 317/473/617 313/474/618 314/475/619 318/476/620
f 316/466/610 312/465/609 313/474/618 317/473/617
f 319/477/621 315/478/622 311/479/623 320/480/624
f 318/476/620 314/475/619 315/478/622 319/477/621
s 54
f 290/434/625 281/429/626 292/432/578 296/435/577
f 298/444/627 294/450/628 295/448/629 299/446/630
f 297/438/580 293/437/579 294/450/628 298/444/627
f 299/446/630 295/448/629 291/422/631 300/421/632
f 285/453/633 289/463/634 288/461/635 284/455/636
f 290/434/625 289/463/634 285/453/633 281/429/626
f 283/457/637 287/459/638 286/428/639 282/427/640
f 284/455/636 288/461/635 287/459/638 283/457/637
s 57
f 340/481/641 331/482/642 347/483/643 341/484/644
f 360/485/645 351/486/646 322/487/647 326/488/648
f 321/489/649 352/490/650 346/491/651 332/492/652
f 356/493/653 330/494/654 336/495/655 342/496/656
s 61
f 336/495/657 332/492/658 333/497/659 337/498/660
s 62
f 342/499/661 343/500/662 350/501/663 346/502/664
s 57
f 336/495/655 337/498/665 343/503/666 342/496/656
f 337/498/665 338/504/667 344/505/668 343/503/666
f 338/504/667 339/506/669 345/507/670 344/505/668
f 339/506/669 340/481/641 341/484/644 345/507/670
f 331/482/642 335/508/671 348/509/672 347/483/643
f 335/508/671 334/510/673 349/511/674 348/509/672
f 334/510/673 333/497/675 350/512/676 349/511/674
f 333/497/675 332/492/652 346/491/651 350/512/676
f 321/489/649 325/513/677 353/514/678 352/490/650
f 325/513/677 324/515/679 354/516/680 353/514/678
f 324/515/679 323/517/681 355/518/682 354/516/680
f 323/517/681 322/487/647 351/486/646 355/518/682
f 326/488/648 327/519/683 359/520/684 360/485/645
f 327/519/683 328/521/685 358/522/686 359/520/684
f 328/521/685 329/523/687 357/524/688 358/522/686
f 329/523/687 330/494/654 356/493/653 357/524/688
s 62
f 342/499/661 346/502/664 352/525/689 356/526/690
f 348/527/691 345/528/692 341/529/693 347/530/694
f 350/501/663 343/500/662 344/531/695 349/532/696
f 349/532/696 344/531/695 345/528/692 348/527/691
f 357/533/697 353/534/698 354/535/699 358/536/700
f 356/526/690 352/525/689 353/534/698 357/533/697
f 359/537/701 355/538/702 351/539/703 360/540/704
f 358/536/700 354/535/699 355/538/702 359/537/701
s 61
f 330/494/705 321/489/706 332/492/658 336/495/657
f 338/504/707 334/510/708 335/508/709 339/506/710
f 337/498/660 333/497/659 334/510/708 338/504/707
f 339/506/710 335/508/709 331/482/711 340/481/712
f 325/513/713 329/523/714 328/521/715 324/515/716
f 330/494/705 329/523/714 325/513/713 321/489/706
f 323/517/717 327/519/718 326/488/719 322/487/720
f 324/515/716 328/521/715 327/519/718 323/517/717
