# This file uses centimeters as units for non-parametric coordinates.

mtllib S_S05_07.mtl
g default
v 179.201172 66.564209 15.000000
v 175.909180 71.490967 15.000000
v 170.982422 74.782959 15.000000
v 165.170837 75.938965 15.000000
v 180.357117 60.752686 15.000000
v 180.357117 60.752686 -15.000000
v 165.170837 75.938965 -15.000000
v 170.982422 74.782959 -15.000000
v 175.909180 71.490967 -15.000000
v 179.201172 66.564209 -15.000000
v -170.982361 74.782959 15.000000
v -175.909180 71.490967 15.000000
v -179.201111 66.564209 15.000000
v -180.357117 60.752686 15.000000
v -165.170837 75.938965 15.000000
v -180.357117 60.752686 -15.000000
v -179.201111 66.564209 -15.000000
v -175.909180 71.490967 -15.000000
v -170.982361 74.782959 -15.000000
v -165.170837 75.938965 -15.000000
v 170.982422 -74.783020 15.000000
v 175.909180 -71.491089 15.000000
v 179.201172 -66.564270 15.000000
v 180.357117 -60.752686 15.000000
v 165.170837 -75.938965 15.000000
v 179.201172 -66.564270 -15.000000
v 175.909180 -71.491089 -15.000000
v 170.982422 -74.783020 -15.000000
v 165.170837 -75.938965 -15.000000
v 180.357117 -60.752686 -15.000000
v -179.201111 -66.564270 15.000000
v -175.909180 -71.491089 15.000000
v -170.982361 -74.783020 15.000000
v -165.170837 -75.938965 15.000000
v -180.357117 -60.752686 15.000000
v -170.982361 -74.783020 -15.000000
v -175.909180 -71.491089 -15.000000
v -179.201111 -66.564270 -15.000000
v -180.357117 -60.752686 -15.000000
v -165.170837 -75.938965 -15.000000
vt 0.624298 0.819130
vt 0.624296 0.841249
vt 0.380737 0.841220
vt 0.380740 0.819102
vt 0.012644 0.841178
vt 0.012646 0.819059
vt 0.256205 0.819087
vt 0.256202 0.841206
vt 0.273677 0.841208
vt 0.273680 0.819089
vt 0.363265 0.819100
vt 0.363262 0.841218
vt 0.731358 0.819142
vt 0.731356 0.841261
vt 0.641771 0.841251
vt 0.641773 0.819132
vt 0.581840 0.205583
vt 0.801415 0.205583
vt 0.801415 0.279546
vt 0.581840 0.279546
vt 0.800711 0.283083
vt 0.582543 0.283084
vt 0.798707 0.286083
vt 0.584547 0.286083
vt 0.376368 0.841220
vt 0.376371 0.819101
vt 0.372000 0.841219
vt 0.372002 0.819101
vt 0.587546 0.288087
vt 0.367631 0.841219
vt 0.795708 0.288086
vt 0.367633 0.819100
vt 0.637402 0.841250
vt 0.792171 0.288790
vt 0.637404 0.819131
vt 0.633033 0.841250
vt 0.633036 0.819131
vt 0.628664 0.841249
vt 0.591084 0.288790
vt 0.628667 0.819130
vt 0.795708 0.197042
vt 0.269308 0.841208
vt 0.269311 0.819089
vt 0.587546 0.197042
vt 0.264940 0.841207
vt 0.264942 0.819088
vt 0.260571 0.841207
vt 0.260574 0.819088
vt 0.591084 0.196338
vt 0.008275 0.841177
vt 0.792171 0.196338
vt 0.008278 0.819059
vt 0.003906 0.841177
vt 0.582543 0.202045
vt 0.740096 0.819143
vt 0.735724 0.841261
vt 0.735727 0.819143
vt 0.258661 0.124432
vt 0.800711 0.202045
vt 0.015103 0.124433
vt 0.584547 0.199046
vt 0.262946 0.125284
vt 0.010818 0.125285
vt 0.798707 0.199046
vt 0.004759 0.229500
vt 0.269006 0.229499
vt 0.266579 0.233131
vt 0.007186 0.233132
vt 0.003906 0.135630
vt 0.269858 0.135629
vt 0.269858 0.225214
vt 0.003907 0.225215
vt 0.262947 0.235558
vt 0.010819 0.235559
vt 0.258662 0.236411
vt 0.015103 0.236411
vt 0.004759 0.131345
vt 0.269006 0.131344
vt 0.007186 0.127713
vt 0.266579 0.127712
vt 0.740093 0.841262
vt 0.003909 0.819058
vn -0.003439 0.999994 0.000000
vn -0.003439 0.999994 0.000000
vn 0.003439 0.999994 0.000000
vn 0.003439 0.999994 0.000000
vn -0.003439 -0.999994 0.000000
vn -0.003439 -0.999994 0.000000
vn 0.003439 -0.999994 0.000000
vn 0.003439 -0.999994 0.000000
vn 0.999959 -0.009079 0.000000
vn 0.999959 -0.009079 0.000000
vn 0.999959 0.009079 0.000000
vn 0.999959 0.009079 0.000000
vn -0.999959 -0.009079 0.000000
vn -0.999959 -0.009079 0.000000
vn -0.999959 0.009079 0.000000
vn -0.999959 0.009079 0.000000
vn 0.003439 0.999994 0.000000
vn 0.382686 0.923879 0.000000
vn 0.382686 0.923879 0.000000
vn 0.003439 0.999994 0.000000
vn 0.382686 0.923879 0.000000
vn 0.707107 0.707107 0.000000
vn 0.707107 0.707107 0.000000
vn 0.382686 0.923879 0.000000
vn 0.707107 0.707107 0.000000
vn 0.923879 0.382684 0.000000
vn 0.923879 0.382684 0.000000
vn 0.707107 0.707107 0.000000
vn 0.923879 0.382684 0.000000
vn 0.999959 0.009079 0.000000
vn 0.999959 0.009079 0.000000
vn 0.923879 0.382684 0.000000
vn -0.999959 0.009079 0.000000
vn -0.923880 0.382683 0.000000
vn -0.923880 0.382683 0.000000
vn -0.999959 0.009079 0.000000
vn -0.923880 0.382683 0.000000
vn -0.707107 0.707107 0.000000
vn -0.707107 0.707107 0.000000
vn -0.923880 0.382683 0.000000
vn -0.707107 0.707107 0.000000
vn -0.382686 0.923879 0.000000
vn -0.382686 0.923879 0.000000
vn -0.707107 0.707107 0.000000
vn -0.382686 0.923879 0.000000
vn -0.003439 0.999994 0.000000
vn -0.003439 0.999994 0.000000
vn -0.382686 0.923879 0.000000
vn 0.999959 -0.009079 0.000000
vn 0.923881 -0.382680 0.000000
vn 0.923881 -0.382680 0.000000
vn 0.999959 -0.009079 0.000000
vn 0.923881 -0.382680 0.000000
vn 0.707107 -0.707107 0.000000
vn 0.707107 -0.707107 0.000000
vn 0.923881 -0.382680 0.000000
vn 0.707107 -0.707107 0.000000
vn 0.382677 -0.923882 0.000000
vn 0.382677 -0.923882 0.000000
vn 0.707107 -0.707107 0.000000
vn 0.382677 -0.923882 0.000000
vn 0.003439 -0.999994 0.000000
vn 0.003439 -0.999994 0.000000
vn 0.382677 -0.923882 0.000000
vn -0.003439 -0.999994 0.000000
vn -0.382677 -0.923882 0.000000
vn -0.382677 -0.923882 0.000000
vn -0.003439 -0.999994 0.000000
vn -0.382677 -0.923882 0.000000
vn -0.707107 -0.707107 0.000000
vn -0.707107 -0.707107 0.000000
vn -0.382677 -0.923882 0.000000
vn -0.707107 -0.707107 0.000000
vn -0.923881 -0.382679 0.000000
vn -0.923881 -0.382679 0.000000
vn -0.707107 -0.707107 0.000000
vn -0.923881 -0.382679 0.000000
vn -0.999959 -0.009079 0.000000
vn -0.999959 -0.009079 0.000000
vn -0.923881 -0.382679 0.000000
vn 0.000000 0.000000 1.000000
vn 0.000000 0.000000 1.000000
vn 0.000000 0.000000 1.000000
vn 0.000000 0.000000 1.000000
vn 0.000000 0.000000 -1.000000
vn 0.000000 0.000000 -1.000000
vn 0.000000 0.000000 -1.000000
vn 0.000000 0.000000 -1.000000
vn 0.000000 0.000000 1.000000
vn 0.000000 0.000000 1.000000
vn 0.000000 0.000000 1.000000
vn 0.000000 0.000000 1.000000
vn 0.000000 0.000000 1.000000
vn 0.000000 0.000000 1.000000
vn 0.000000 0.000000 1.000000
vn 0.000000 0.000000 1.000000
vn 0.000000 0.000000 1.000000
vn 0.000000 0.000000 1.000000
vn 0.000000 0.000000 1.000000
vn 0.000000 0.000000 1.000000
vn 0.000000 0.000000 1.000000
vn 0.000000 0.000000 1.000000
vn 0.000000 0.000000 1.000000
vn 0.000000 0.000000 1.000000
vn 0.000000 0.000000 1.000000
vn 0.000000 0.000000 1.000000
vn 0.000000 0.000000 1.000000
vn 0.000000 0.000000 1.000000
vn 0.000000 0.000000 1.000000
vn 0.000000 0.000000 1.000000
vn 0.000000 0.000000 1.000000
vn 0.000000 0.000000 1.000000
vn 0.000000 0.000000 1.000000
vn 0.000000 0.000000 1.000000
vn 0.000000 0.000000 1.000000
vn 0.000000 0.000000 1.000000
vn 0.000000 0.000000 1.000000
vn 0.000000 0.000000 1.000000
vn 0.000000 0.000000 1.000000
vn 0.000000 0.000000 1.000000
vn 0.000000 0.000000 -1.000000
vn 0.000000 0.000000 -1.000000
vn 0.000000 0.000000 -1.000000
vn 0.000000 0.000000 -1.000000
vn 0.000000 0.000000 -1.000000
vn 0.000000 0.000000 -1.000000
vn 0.000000 0.000000 -1.000000
vn 0.000000 0.000000 -1.000000
vn 0.000000 0.000000 -1.000000
vn 0.000000 0.000000 -1.000000
vn 0.000000 0.000000 -1.000000
vn 0.000000 0.000000 -1.000000
vn 0.000000 0.000000 -1.000000
vn 0.000000 0.000000 -1.000000
vn 0.000000 0.000000 -1.000000
vn 0.000000 0.000000 -1.000000
vn 0.000000 0.000000 -1.000000
vn 0.000000 0.000000 -1.000000
vn 0.000000 0.000000 -1.000000
vn 0.000000 0.000000 -1.000000
vn 0.000000 0.000000 -1.000000
vn 0.000000 0.000000 -1.000000
vn 0.000000 0.000000 -1.000000
vn 0.000000 0.000000 -1.000000
vn 0.000000 0.000000 -1.000000
vn 0.000000 0.000000 -1.000000
vn 0.000000 0.000000 -1.000000
vn 0.000000 0.000000 -1.000000
vn 0.000000 0.000000 -1.000000
vn 0.000000 0.000000 -1.000000
vn 0.000000 0.000000 -1.000000
vn 0.000000 0.000000 -1.000000
s off
g SS40_low
usemtl set1
f 20/1/1 15/2/2 4/3/3 7/4/4
f 34/5/5 40/6/6 29/7/7 25/8/8
f 24/9/9 30/10/10 6/11/11 5/12/12
f 39/13/13 35/14/14 14/15/15 16/16/16
f 4/3/17 3/25/18 8/26/19 7/4/20
f 3/25/21 2/27/22 9/28/23 8/26/24
f 2/27/25 1/30/26 10/32/27 9/28/28
f 1/30/29 5/12/30 6/11/31 10/32/32
f 14/15/33 13/33/34 17/35/35 16/16/36
f 13/33/37 12/36/38 18/37/39 17/35/40
f 12/36/41 11/38/42 19/40/43 18/37/44
f 11/38/45 15/2/46 20/1/47 19/40/48
f 24/9/49 23/42/50 26/43/51 30/10/52
f 23/42/53 22/45/54 27/46/55 26/43/56
f 22/45/57 21/47/58 28/48/59 27/46/60
f 21/47/61 25/8/62 29/7/63 28/48/64
f 34/5/65 33/50/66 36/52/67 40/6/68
f 33/50/69 32/53/70 37/82/71 36/52/72
f 32/81/73 31/56/74 38/57/75 37/55/76
f 31/56/77 35/14/78 39/13/79 38/57/80
f 13/65/81 1/66/82 2/67/83 12/68/84
f 30/17/85 39/18/86 16/19/87 6/20/88
f 35/69/89 24/70/90 5/71/91 14/72/92
f 14/72/93 5/71/94 1/66/95 13/65/96
f 12/68/97 2/67/98 3/73/99 11/74/100
f 11/74/101 3/73/102 4/75/103 15/76/104
f 31/77/105 23/78/106 24/70/107 35/69/108
f 31/77/109 32/79/110 22/80/111 23/78/112
f 22/80/113 32/79/114 33/63/115 21/62/116
f 21/62/117 33/63/118 34/60/119 25/58/120
f 6/20/121 16/19/122 17/21/123 10/22/124
f 10/22/125 17/21/126 18/23/127 9/24/128
f 8/29/129 19/31/130 20/34/131 7/39/132
f 9/24/133 18/23/134 19/31/135 8/29/136
f 36/41/137 28/44/138 29/49/139 40/51/140
f 26/54/141 38/59/142 39/18/143 30/17/144
f 27/61/145 37/64/146 38/59/147 26/54/148
f 36/41/149 37/64/150 27/61/151 28/44/152
