# This file uses centimeters as units for non-parametric coordinates.

mtllib SB12_Sign.mtl
g default
v 708.623925 523.193140 75.884121
v 708.623925 522.697040 74.910471
v 708.623922 521.924349 74.137779
v 708.623922 520.950707 73.641679
v 708.623925 519.871408 73.470736
v 708.623925 518.792109 73.641680
v 708.623925 517.818455 74.137779
v 708.623922 517.045765 74.910472
v 708.623925 516.549665 75.884121
v 708.623925 516.378720 76.963420
v 708.623925 516.549665 78.042718
v 708.623922 517.045765 79.016367
v 708.623925 517.818455 79.789059
v 708.623925 518.792109 80.285158
v 708.623925 519.871408 80.456102
v 708.623922 520.950707 80.285158
v 708.623922 521.924349 79.789059
v 708.623922 522.697040 79.016367
v 708.623925 523.193140 78.042718
v 708.623925 523.364085 76.963420
v 654.058364 523.193146 75.884121
v 654.058364 522.697045 74.910471
v 654.058364 521.924355 74.137779
v 654.058364 520.950701 73.641679
v 654.058364 519.871402 73.470736
v 654.058364 518.792104 73.641680
v 654.058364 517.818455 74.137779
v 654.058364 517.045765 74.910472
v 654.058370 516.549665 75.884121
v 654.058364 516.378720 76.963420
v 654.058370 516.549665 78.042718
v 654.058364 517.045765 79.016367
v 654.058364 517.818455 79.789059
v 654.058364 518.792104 80.285158
v 654.058364 519.871402 80.456102
v 654.058364 520.950701 80.285158
v 654.058364 521.924349 79.789059
v 654.058364 522.697045 79.016367
v 654.058364 523.193140 78.042718
v 654.058364 523.364085 76.963420
vt 0.021573 0.776638
vt 0.022923 0.776638
vt 0.024272 0.776638
vt 0.025622 0.776638
vt 0.026971 0.776638
vt 0.028321 0.776638
vt 0.029670 0.776638
vt 0.031020 0.776639
vt 0.032369 0.776639
vt 0.033718 0.776639
vt 0.035068 0.776639
vt 0.036417 0.776639
vt 0.037767 0.776639
vt 0.039116 0.776639
vt 0.040466 0.776639
vt 0.041815 0.776639
vt 0.043165 0.776640
vt 0.044514 0.776640
vt 0.045864 0.776640
vt 0.047213 0.776640
vt 0.048562 0.776640
vt 0.021568 0.844021
vt 0.022918 0.844022
vt 0.024267 0.844022
vt 0.025616 0.844022
vt 0.026966 0.844022
vt 0.028315 0.844022
vt 0.029665 0.844022
vt 0.031014 0.844022
vt 0.032364 0.844022
vt 0.033713 0.844022
vt 0.035062 0.844023
vt 0.036412 0.844023
vt 0.037761 0.844023
vt 0.039111 0.844023
vt 0.040460 0.844023
vt 0.041810 0.844023
vt 0.043159 0.844023
vt 0.044509 0.844023
vt 0.045858 0.844023
vt 0.047208 0.844024
vt 0.048557 0.844024
vn 0.000000 0.951057 -0.309017
vn 0.000000 0.809016 -0.587787
vn 0.000000 0.809016 -0.587787
vn 0.000000 0.951057 -0.309017
vn 0.000000 0.587786 -0.809016
vn 0.000000 0.587786 -0.809016
vn -0.000000 0.309018 -0.951056
vn -0.000000 0.309018 -0.951056
vn 0.000000 -0.000000 -1.000000
vn 0.000000 -0.000000 -1.000000
vn 0.000000 -0.309017 -0.951057
vn 0.000000 -0.309017 -0.951057
vn 0.000000 -0.587785 -0.809017
vn 0.000000 -0.587785 -0.809017
vn 0.000000 -0.809016 -0.587787
vn 0.000000 -0.809016 -0.587787
vn 0.000000 -0.951057 -0.309017
vn 0.000000 -0.951057 -0.309017
vn 0.000000 -1.000000 0.000000
vn 0.000000 -1.000000 0.000000
vn 0.000000 -0.951056 0.309017
vn 0.000000 -0.951056 0.309017
vn 0.000000 -0.809016 0.587787
vn 0.000000 -0.809016 0.587787
vn 0.000000 -0.587785 0.809017
vn 0.000000 -0.587785 0.809017
vn 0.000000 -0.309016 0.951057
vn 0.000000 -0.309016 0.951057
vn -0.000000 -0.000000 1.000000
vn -0.000000 -0.000000 1.000000
vn -0.000000 0.309018 0.951056
vn -0.000000 0.309018 0.951056
vn 0.000000 0.587787 0.809016
vn 0.000000 0.587787 0.809016
vn 0.000000 0.809016 0.587787
vn 0.000000 0.809016 0.587787
vn 0.000000 0.951056 0.309019
vn 0.000000 0.951056 0.309019
vn 0.000000 1.000000 0.000000
vn 0.000000 1.000000 0.000000
s 1
g S_SB_06:S_SB_06_BossCircle_Pipe_Horizontal_low S_SB_06:Side_Circle Signs S_B12_01
usemtl S_SB_06:set1
f 1/1/1 2/2/2 22/23/3 21/22/4
f 2/2/2 3/3/5 23/24/6 22/23/3
f 3/3/5 4/4/7 24/25/8 23/24/6
f 4/4/7 5/5/9 25/26/10 24/25/8
f 5/5/9 6/6/11 26/27/12 25/26/10
f 6/6/11 7/7/13 27/28/14 26/27/12
f 7/7/13 8/8/15 28/29/16 27/28/14
f 8/8/15 9/9/17 29/30/18 28/29/16
f 9/9/17 10/10/19 30/31/20 29/30/18
f 10/10/19 11/11/21 31/32/22 30/31/20
f 11/11/21 12/12/23 32/33/24 31/32/22
f 12/12/23 13/13/25 33/34/26 32/33/24
f 13/13/25 14/14/27 34/35/28 33/34/26
f 14/14/27 15/15/29 35/36/30 34/35/28
f 15/15/29 16/16/31 36/37/32 35/36/30
f 16/16/31 17/17/33 37/38/34 36/37/32
f 17/17/33 18/18/35 38/39/36 37/38/34
f 18/18/35 19/19/37 39/40/38 38/39/36
f 19/19/37 20/20/39 40/41/40 39/40/38
f 20/20/39 1/21/1 21/42/4 40/41/40
g default
v 772.741898 530.980618 61.742804
v 767.625706 541.021661 61.742803
v 759.657138 548.990269 61.742804
v 749.616056 554.106385 61.742803
v 738.485507 555.869405 61.742803
v 727.354925 554.106385 61.742803
v 717.313859 548.990269 61.742804
v 709.345275 541.021661 61.742803
v 704.229098 530.980618 61.742804
v 702.466189 519.850037 61.742804
v 704.229098 508.719451 61.742804
v 709.345275 498.678437 61.742804
v 717.313893 490.709834 61.742804
v 727.354942 485.593646 61.742804
v 738.485507 483.830731 61.742804
v 749.616056 485.593646 61.742804
v 759.657138 490.709834 61.742804
v 767.625706 498.678437 61.742804
v 772.741898 508.719451 61.742804
v 774.504807 519.850037 61.742804
v 772.741898 530.980618 92.184139
v 767.625706 541.021673 92.184139
v 759.657138 548.990269 92.184139
v 749.616056 554.106396 92.184139
v 738.485507 555.869405 92.184139
v 727.354925 554.106396 92.184139
v 717.313859 548.990269 92.184139
v 709.345275 541.021673 92.184139
v 704.229098 530.980618 92.184139
v 702.466189 519.850037 92.184139
v 704.229098 508.719451 92.184139
v 709.345275 498.678437 92.184137
v 717.313893 490.709834 92.184139
v 727.354942 485.593643 92.184139
v 738.485507 483.830731 92.184139
v 749.616056 485.593643 92.184139
v 759.657138 490.709834 92.184139
v 767.625706 498.678437 92.184137
v 772.741898 508.719451 92.184139
v 774.504807 519.850037 92.184139
v 767.806150 529.376919 89.588119
v 763.427090 537.971186 89.588119
v 756.606627 544.791652 89.588121
v 748.012394 549.170675 89.588121
v 738.485507 550.679569 89.588119
v 728.958621 549.170675 89.588121
v 720.364371 544.791652 89.588121
v 713.543889 537.971186 89.588119
v 709.164863 529.376848 89.588121
v 707.655977 519.850031 89.588121
v 709.164863 510.323179 89.588119
v 713.543889 501.728876 89.588119
v 720.364371 494.908445 89.588121
v 728.958621 490.529353 89.588119
v 738.485507 489.020534 89.588119
v 748.012325 490.529353 89.588119
v 756.606627 494.908445 89.588121
v 763.427090 501.728876 89.588119
v 767.806083 510.323179 89.588119
v 769.314972 519.850031 89.588121
v 766.795142 529.048389 86.079198
v 762.567053 537.346351 86.079198
v 755.981788 543.931654 86.079198
v 747.683830 548.159670 86.079198
v 738.485507 549.616549 86.079198
v 729.287133 548.159670 86.079198
v 720.989158 543.931654 86.079198
v 714.403893 537.346351 86.079198
v 710.175871 529.048389 86.079198
v 708.719027 519.850037 86.079198
v 710.175871 510.651714 86.079198
v 714.403893 502.353717 86.079198
v 720.989158 495.768421 86.079198
v 729.287133 491.540434 86.079198
v 738.485507 490.083520 86.079198
v 747.683830 491.540434 86.079198
v 755.981788 495.768421 86.079198
v 762.567053 502.353717 86.079198
v 766.795072 510.651714 86.079198
v 768.251954 519.850037 86.079198
vt 0.218804 0.204599
vt 0.218806 0.190683
vt 0.256399 0.190689
vt 0.256396 0.204606
vt 0.218809 0.176766
vt 0.256401 0.176773
vt 0.218811 0.162849
vt 0.256404 0.162856
vt 0.218814 0.148933
vt 0.256406 0.148939
vt 0.218816 0.135016
vt 0.256409 0.135023
vt 0.218819 0.121099
vt 0.256411 0.121106
vt 0.218821 0.107183
vt 0.256414 0.107190
vt 0.218824 0.093266
vt 0.256416 0.093273
vt 0.218826 0.079350
vt 0.256419 0.079356
vt 0.218829 0.065433
vt 0.256421 0.065440
vt 0.218831 0.051516
vt 0.256424 0.051523
vt 0.218834 0.037600
vt 0.256426 0.037606
vt 0.218836 0.023683
vt 0.256428 0.023690
vt 0.218839 0.009767
vt 0.256382 0.288106
vt 0.218792 0.274182
vt 0.256384 0.274189
vt 0.218794 0.260266
vt 0.256387 0.260272
vt 0.218797 0.246349
vt 0.256389 0.246356
vt 0.218799 0.232432
vt 0.256391 0.232439
vt 0.218802 0.218516
vt 0.256394 0.218523
vt 0.462642 0.410748
vt 0.464262 0.413926
vt 0.460120 0.408226
vt 0.456942 0.406607
vt 0.453420 0.406049
vt 0.449897 0.406607
vt 0.446719 0.408226
vt 0.444197 0.410748
vt 0.442577 0.413926
vt 0.442019 0.417449
vt 0.442577 0.420972
vt 0.444197 0.424150
vt 0.446719 0.426672
vt 0.449897 0.428291
vt 0.453420 0.428849
vt 0.456942 0.428291
vt 0.460120 0.426672
vt 0.462642 0.424150
vt 0.464262 0.420972
vt 0.464820 0.417449
vt 0.426603 0.234922
vt 0.411541 0.239818
vt 0.072280 0.564233
vt 0.072280 0.577456
vt 0.410276 0.231840
vt 0.067149 0.577456
vt 0.422930 0.227724
vt 0.067149 0.564233
vt 0.395704 0.239818
vt 0.072280 0.590674
vt 0.396970 0.231840
vt 0.067149 0.590674
vt 0.380643 0.234921
vt 0.072280 0.603895
vt 0.384316 0.227724
vt 0.067149 0.603895
vt 0.367830 0.225608
vt 0.072280 0.617142
vt 0.373551 0.219895
vt 0.067149 0.617142
vt 0.358522 0.212787
vt 0.072280 0.630438
vt 0.365730 0.209120
vt 0.067149 0.630438
vt 0.353628 0.197717
vt 0.072280 0.643759
vt 0.361619 0.196453
vt 0.067149 0.643759
vt 0.353628 0.181870
vt 0.072280 0.657083
vt 0.361619 0.183134
vt 0.067149 0.657083
vt 0.358522 0.166800
vt 0.072280 0.670403
vt 0.365730 0.170467
vt 0.067149 0.670403
vt 0.367830 0.153980
vt 0.072280 0.683717
vt 0.373551 0.159692
vt 0.067149 0.683717
vt 0.072280 0.697024
vt 0.067149 0.697024
vt 0.072280 0.710324
vt 0.067149 0.710324
vt 0.072280 0.723618
vt 0.067149 0.723618
vt 0.072280 0.736906
vt 0.067149 0.736906
vt 0.072280 0.484743
vt 0.067149 0.484743
vt 0.072280 0.498019
vt 0.067149 0.498019
vt 0.072280 0.511278
vt 0.067149 0.511278
vt 0.072280 0.524527
vt 0.067149 0.524527
vt 0.072280 0.537769
vt 0.067149 0.537769
vt 0.072280 0.551004
vt 0.067149 0.551004
vt 0.218789 0.288099
vt 0.256431 0.009773
vt 0.380643 0.144665
vt 0.384316 0.151863
vt 0.395704 0.139769
vt 0.396970 0.147747
vt 0.411541 0.139769
vt 0.410276 0.147747
vt 0.426603 0.144666
vt 0.422930 0.151863
vt 0.439415 0.153980
vt 0.433694 0.159692
vt 0.448724 0.166800
vt 0.441515 0.170467
vt 0.453618 0.181870
vt 0.445627 0.183134
vt 0.453618 0.197717
vt 0.445627 0.196453
vt 0.448724 0.212788
vt 0.441515 0.209120
vt 0.439415 0.225607
vt 0.433694 0.219895
vt 0.072280 0.750197
vt 0.067149 0.750197
vn 0.951056 0.309018 -0.000000
vn 0.809017 0.587785 -0.000000
vn 0.809017 0.587785 -0.000000
vn 0.951056 0.309018 -0.000000
vn 0.587784 0.809018 0.000000
vn 0.587784 0.809018 0.000000
vn 0.309019 0.951056 0.000000
vn 0.309019 0.951056 0.000000
vn -0.000000 1.000000 0.000000
vn -0.000000 1.000000 0.000000
vn -0.309019 0.951056 0.000000
vn -0.309019 0.951056 0.000000
vn -0.587784 0.809018 0.000000
vn -0.587784 0.809018 0.000000
vn -0.809017 0.587785 -0.000000
vn -0.809017 0.587785 -0.000000
vn -0.951056 0.309017 -0.000000
vn -0.951056 0.309017 -0.000000
vn -1.000000 0.000000 0.000000
vn -1.000000 0.000000 0.000000
vn -0.951056 -0.309017 0.000000
vn -0.951056 -0.309017 0.000000
vn -0.809016 -0.587786 0.000000
vn -0.809016 -0.587786 0.000000
vn -0.587785 -0.809017 -0.000000
vn -0.587785 -0.809017 -0.000000
vn -0.309018 -0.951056 -0.000000
vn -0.309018 -0.951056 -0.000000
vn -0.000000 -1.000000 -0.000000
vn -0.000000 -1.000000 -0.000000
vn 0.309018 -0.951056 -0.000000
vn 0.309018 -0.951056 -0.000000
vn 0.587786 -0.809017 -0.000000
vn 0.587786 -0.809017 -0.000000
vn 0.809017 -0.587785 0.000000
vn 0.809017 -0.587785 0.000000
vn 0.951056 -0.309018 0.000000
vn 0.951056 -0.309018 0.000000
vn 1.000000 0.000000 0.000000
vn 1.000000 0.000000 0.000000
vn 0.000000 -0.000000 -1.000000
vn 0.000000 -0.000000 -1.000000
vn 0.000000 -0.000000 -1.000000
vn 0.000000 -0.000000 -1.000000
vn 0.000000 -0.000000 -1.000000
vn 0.000000 -0.000000 -1.000000
vn 0.000000 -0.000000 -1.000000
vn 0.000000 -0.000000 -1.000000
vn 0.000000 -0.000000 -1.000000
vn 0.000000 -0.000000 -1.000000
vn 0.000000 -0.000000 -1.000000
vn 0.000000 -0.000000 -1.000000
vn 0.000000 -0.000000 -1.000000
vn 0.000000 -0.000000 -1.000000
vn 0.000000 -0.000000 -1.000000
vn 0.000000 -0.000000 -1.000000
vn 0.000000 -0.000000 -1.000000
vn 0.000000 -0.000000 -1.000000
vn 0.000000 -0.000000 -1.000000
vn 0.000000 -0.000000 -1.000000
vn -0.425473 -0.138244 0.894349
vn -0.361929 -0.262958 0.894349
vn -0.361929 -0.262958 0.894349
vn -0.425473 -0.138244 0.894349
vn -0.262958 -0.361930 0.894349
vn -0.262957 -0.361930 0.894349
vn -0.138245 -0.425475 0.894349
vn -0.138246 -0.425474 0.894349
vn 0.000000 -0.447369 0.894349
vn 0.000000 -0.447369 0.894349
vn 0.138245 -0.425474 0.894349
vn 0.138246 -0.425474 0.894349
vn 0.262957 -0.361929 0.894349
vn 0.262957 -0.361930 0.894349
vn 0.361929 -0.262957 0.894350
vn 0.361929 -0.262956 0.894350
vn 0.425473 -0.138245 0.894350
vn 0.425473 -0.138244 0.894349
vn 0.447369 -0.000000 0.894349
vn 0.447369 -0.000000 0.894349
vn 0.425474 0.138245 0.894349
vn 0.425474 0.138245 0.894349
vn 0.361930 0.262958 0.894349
vn 0.361930 0.262959 0.894349
vn 0.262959 0.361931 0.894348
vn 0.262959 0.361931 0.894348
vn 0.138245 0.425476 0.894348
vn 0.138246 0.425475 0.894348
vn -0.000000 0.447371 0.894348
vn -0.000000 0.447371 0.894348
vn -0.138246 0.425475 0.894349
vn -0.138245 0.425475 0.894349
vn -0.262958 0.361930 0.894349
vn -0.262958 0.361930 0.894349
vn -0.361930 0.262957 0.894349
vn -0.361929 0.262957 0.894349
vn -0.425472 0.138244 0.894350
vn -0.425472 0.138244 0.894350
vn -0.447367 0.000001 0.894350
vn -0.447367 0.000001 0.894350
vn -0.910204 -0.295743 0.289940
vn -0.774265 -0.562538 0.289940
vn -0.774264 -0.562539 0.289940
vn -0.910204 -0.295742 0.289940
vn -0.562539 -0.774265 0.289938
vn -0.562538 -0.774265 0.289938
vn -0.295745 -0.910204 0.289938
vn -0.295742 -0.910205 0.289938
vn -0.000000 -0.957046 0.289937
vn -0.000000 -0.957046 0.289937
vn 0.295744 -0.910205 0.289935
vn 0.295743 -0.910205 0.289935
vn 0.562538 -0.774268 0.289931
vn 0.562540 -0.774267 0.289931
vn 0.774268 -0.562538 0.289933
vn 0.774268 -0.562537 0.289933
vn 0.910205 -0.295742 0.289938
vn 0.910204 -0.295743 0.289938
vn 0.957045 0.000000 0.289941
vn 0.957045 -0.000000 0.289941
vn 0.910203 0.295743 0.289941
vn 0.910204 0.295741 0.289941
vn 0.774267 0.562538 0.289936
vn 0.774267 0.562537 0.289936
vn 0.562538 0.774267 0.289935
vn 0.562539 0.774266 0.289935
vn 0.295742 0.910204 0.289941
vn 0.295743 0.910203 0.289941
vn 0.000000 0.957044 0.289943
vn 0.000000 0.957044 0.289943
vn -0.295743 0.910203 0.289943
vn -0.295744 0.910203 0.289943
vn -0.562538 0.774265 0.289940
vn -0.562537 0.774266 0.289940
vn -0.774266 0.562535 0.289941
vn -0.774266 0.562536 0.289941
vn -0.910203 0.295743 0.289941
vn -0.910204 0.295741 0.289941
vn -0.957046 0.000004 0.289937
vn -0.957046 0.000003 0.289937
s 1
g S_SB_06:Side_Circle Signs S_B12_01 S_SB_06:S_SB_06_BossCircle_Cover_01_low
usemtl S_SB_06:set1
f 41/43/41 42/44/42 62/45/43 61/46/44
f 42/44/42 43/47/45 63/48/46 62/45/43
f 43/47/45 44/49/47 64/50/48 63/48/46
f 44/49/47 45/51/49 65/52/50 64/50/48
f 45/51/49 46/53/51 66/54/52 65/52/50
f 46/53/51 47/55/53 67/56/54 66/54/52
f 47/55/53 48/57/55 68/58/56 67/56/54
f 48/57/55 49/59/57 69/60/58 68/58/56
f 49/59/57 50/61/59 70/62/60 69/60/58
f 50/61/59 51/63/61 71/64/62 70/62/60
f 51/63/61 52/65/63 72/66/64 71/64/62
f 52/65/63 53/67/65 73/68/66 72/66/64
f 53/67/65 54/69/67 74/70/68 73/68/66
f 54/69/67 55/71/69 75/164/70 74/70/68
f 55/163/69 56/73/71 76/74/72 75/72/70
f 56/73/71 57/75/73 77/76/74 76/74/72
f 57/75/73 58/77/75 78/78/76 77/76/74
f 58/77/75 59/79/77 79/80/78 78/78/76
f 59/79/77 60/81/79 80/82/80 79/80/78
f 60/81/79 41/43/41 61/46/44 80/82/80
s off
f 59/101/81 58/100/82 57/99/83 56/98/84 55/97/85 54/96/86 53/95/87 52/94/88 51/93/89 50/92/90 49/91/91 48/90/92 47/89/93 46/88/94 45/87/95 44/86/96 43/85/97 42/83/98 41/84/99 60/102/100
s 2
f 61/103/101 62/104/102 82/107/103 81/109/104
f 62/104/102 63/111/105 83/113/106 82/107/103
f 63/111/105 64/115/107 84/117/108 83/113/106
f 64/115/107 65/119/109 85/121/110 84/117/108
f 65/119/109 66/123/111 86/125/112 85/121/110
f 66/123/111 67/127/113 87/129/114 86/125/112
f 67/127/113 68/131/115 88/133/116 87/129/114
f 68/131/115 69/135/117 89/137/118 88/133/116
f 69/135/117 70/139/119 90/141/120 89/137/118
f 70/139/119 71/165/121 91/166/122 90/141/120
f 71/165/121 72/167/123 92/168/124 91/166/122
f 72/167/123 73/169/125 93/170/126 92/168/124
f 73/169/125 74/171/127 94/172/128 93/170/126
f 74/171/127 75/173/129 95/174/130 94/172/128
f 75/173/129 76/175/131 96/176/132 95/174/130
f 76/175/131 77/177/133 97/178/134 96/176/132
f 77/177/133 78/179/135 98/180/136 97/178/134
f 78/179/135 79/181/137 99/182/138 98/180/136
f 79/181/137 80/183/139 100/184/140 99/182/138
f 80/183/139 61/103/101 81/109/104 100/184/140
s 3
f 81/105/141 82/106/142 102/108/143 101/110/144
f 82/106/142 83/112/145 103/114/146 102/108/143
f 83/112/145 84/116/147 104/118/148 103/114/146
f 84/116/147 85/120/149 105/122/150 104/118/148
f 85/120/149 86/124/151 106/126/152 105/122/150
f 86/124/151 87/128/153 107/130/154 106/126/152
f 87/128/153 88/132/155 108/134/156 107/130/154
f 88/132/155 89/136/157 109/138/158 108/134/156
f 89/136/157 90/140/159 110/142/160 109/138/158
f 90/140/159 91/143/161 111/144/162 110/142/160
f 91/143/161 92/145/163 112/146/164 111/144/162
f 92/145/163 93/147/165 113/148/166 112/146/164
f 93/147/165 94/149/167 114/150/168 113/148/166
f 94/149/167 95/185/169 115/186/170 114/150/168
f 95/151/169 96/153/171 116/154/172 115/152/170
f 96/153/171 97/155/173 117/156/174 116/154/172
f 97/155/173 98/157/175 118/158/176 117/156/174
f 98/157/175 99/159/177 119/160/178 118/158/176
f 99/159/177 100/161/179 120/162/180 119/160/178
f 100/161/179 81/105/141 101/110/144 120/162/180
g default
v 738.485456 519.871408 86.079191
v 768.304534 529.560212 86.079191
v 763.851064 538.300587 86.079191
v 756.914674 545.237012 86.079191
v 748.174279 549.690456 86.079191
v 738.485456 551.225042 86.079191
v 728.796651 549.690456 86.079191
v 720.056272 545.237012 86.079191
v 713.119850 538.300587 86.079191
v 708.666395 529.560195 86.079191
v 707.131855 519.871408 86.079191
v 708.666395 510.182598 86.079191
v 713.119850 501.442212 86.079191
v 720.056272 494.505804 86.079192
v 728.796669 490.052349 86.079191
v 738.485456 488.517797 86.079191
v 748.174244 490.052349 86.079191
v 756.914639 494.505804 86.079192
v 763.851043 501.442212 86.079191
v 768.304464 510.182598 86.079191
v 769.839059 519.871408 86.079191
vt 0.422687 0.077183
vt 0.416525 0.089275
vt 0.381431 0.063778
vt 0.406929 0.098872
vt 0.394836 0.105033
vt 0.381431 0.107157
vt 0.368027 0.105033
vt 0.355934 0.098872
vt 0.346337 0.089275
vt 0.340176 0.077183
vt 0.338053 0.063778
vt 0.340176 0.050373
vt 0.346337 0.038280
vt 0.355934 0.028684
vt 0.368027 0.022522
vt 0.381431 0.020399
vt 0.394836 0.022522
vt 0.406929 0.028684
vt 0.416525 0.038280
vt 0.422687 0.050373
vt 0.424810 0.063778
vn 0.000000 0.000000 1.000000
vn -0.000000 0.000000 1.000000
vn 0.000000 0.000000 1.000000
vn -0.000000 0.000000 1.000000
vn 0.000000 -0.000000 1.000000
vn 0.000000 0.000000 1.000000
vn -0.000000 -0.000000 1.000000
vn -0.000000 0.000000 1.000000
vn 0.000000 0.000000 1.000000
vn 0.000000 0.000000 1.000000
vn 0.000000 0.000000 1.000000
vn 0.000000 0.000000 1.000000
vn -0.000000 0.000000 1.000000
vn 0.000000 0.000000 1.000000
vn 0.000000 -0.000000 1.000000
vn 0.000000 0.000000 1.000000
vn -0.000000 -0.000000 1.000000
vn -0.000000 -0.000000 1.000000
vn 0.000000 0.000000 1.000000
vn 0.000000 0.000000 1.000000
vn 0.000000 0.000000 1.000000
s 1
g S_SB_06:Side_Circle Signs S_B12_01 S_SB_06:S_SB_06_BossCircle_Inner_01_low
usemtl S_SB_06:set1
f 122/187/181 123/188/182 121/189/183
f 123/188/182 124/190/184 121/189/183
f 124/190/184 125/191/185 121/189/183
f 125/191/185 126/192/186 121/189/183
f 126/192/186 127/193/187 121/189/183
f 127/193/187 128/194/188 121/189/183
f 128/194/188 129/195/189 121/189/183
f 129/195/189 130/196/190 121/189/183
f 130/196/190 131/197/191 121/189/183
f 131/197/191 132/198/192 121/189/183
f 132/198/192 133/199/193 121/189/183
f 133/199/193 134/200/194 121/189/183
f 134/200/194 135/201/195 121/189/183
f 135/201/195 136/202/196 121/189/183
f 136/202/196 137/203/197 121/189/183
f 137/203/197 138/204/198 121/189/183
f 138/204/198 139/205/199 121/189/183
f 139/205/199 140/206/200 121/189/183
f 140/206/200 141/207/201 121/189/183
f 141/207/201 122/187/181 121/189/183
g default
v 772.741880 451.127082 61.742767
v 767.625674 461.168125 61.742767
v 759.657104 469.136763 61.742767
v 749.616021 474.252901 61.742767
v 738.485456 476.015822 61.742767
v 727.354873 474.252901 61.742767
v 717.313824 469.136763 61.742767
v 709.345222 461.168118 61.742767
v 704.229048 451.127082 61.742767
v 702.466136 439.996508 61.742767
v 704.229048 428.865916 61.742767
v 709.345222 418.824889 61.742767
v 717.313842 410.856269 61.742767
v 727.354890 405.740104 61.742767
v 738.485456 403.977198 61.742767
v 749.616021 405.740107 61.742767
v 759.657071 410.856275 61.742767
v 767.625674 418.824889 61.742767
v 772.741863 428.865933 61.742767
v 774.504757 439.996508 61.742767
v 772.741880 451.127082 92.184072
v 767.625674 461.168125 92.184072
v 759.657104 469.136763 92.184072
v 749.616021 474.252901 92.184072
v 738.485456 476.015822 92.184072
v 727.354873 474.252901 92.184072
v 717.313824 469.136763 92.184072
v 709.345222 461.168118 92.184073
v 704.229048 451.127082 92.184072
v 702.466136 439.996508 92.184072
v 704.229048 428.865916 92.184072
v 709.345222 418.824889 92.184072
v 717.313842 410.856269 92.184072
v 727.354890 405.740104 92.184072
v 738.485456 403.977198 92.184072
v 749.616021 405.740107 92.184072
v 759.657071 410.856275 92.184072
v 767.625674 418.824889 92.184072
v 772.741863 428.865933 92.184072
v 774.504757 439.996508 92.184072
v 767.806097 449.523364 89.588052
v 763.427066 458.117645 89.588052
v 756.606624 464.938114 89.588052
v 748.012327 469.317115 89.588050
v 738.485456 470.826054 89.588050
v 728.958603 469.317115 89.588050
v 720.364322 464.938114 89.588052
v 713.543845 458.117636 89.588052
v 709.164831 449.523342 89.588052
v 707.655939 439.996507 89.588052
v 709.164831 430.469654 89.588050
v 713.543845 421.875367 89.588050
v 720.364322 415.054898 89.588052
v 728.958621 410.675884 89.588052
v 738.485456 409.166984 89.588050
v 748.012292 410.675887 89.588052
v 756.606590 415.054898 89.588052
v 763.427049 421.875367 89.588050
v 767.806027 430.469654 89.588050
v 769.314972 439.996512 89.588052
v 766.795089 449.194869 86.079191
v 762.567053 457.492808 86.079191
v 755.981788 464.078100 86.079191
v 747.683830 468.306113 86.079191
v 738.485456 469.763019 86.079191
v 729.287099 468.306113 86.079191
v 720.989158 464.078100 86.079191
v 714.403858 457.492799 86.079191
v 710.175839 449.194848 86.079191
v 708.718975 439.996508 86.079191
v 710.175839 430.798151 86.079191
v 714.403858 422.500202 86.079191
v 720.989158 415.914911 86.079191
v 729.287116 411.686892 86.079191
v 738.485456 410.230022 86.079191
v 747.683796 411.686895 86.079191
v 755.981752 415.914911 86.079191
v 762.567036 422.500202 86.079191
v 766.795022 430.798151 86.079191
v 768.251939 439.996512 86.079191
vt 0.084692 0.873202
vt 0.084694 0.859286
vt 0.122287 0.859292
vt 0.122284 0.873209
vt 0.084697 0.845369
vt 0.122289 0.845376
vt 0.084699 0.831452
vt 0.122292 0.831459
vt 0.084702 0.817536
vt 0.122294 0.817542
vt 0.084704 0.803619
vt 0.122296 0.803626
vt 0.084707 0.789703
vt 0.122299 0.789709
vt 0.084709 0.775786
vt 0.122301 0.775793
vt 0.084712 0.761869
vt 0.122304 0.761876
vt 0.084714 0.747953
vt 0.122306 0.747959
vt 0.084716 0.734036
vt 0.122309 0.734043
vt 0.084719 0.720119
vt 0.122311 0.720126
vt 0.084721 0.706203
vt 0.122314 0.706209
vt 0.084724 0.692286
vt 0.122316 0.692293
vt 0.084726 0.678370
vt 0.122269 0.956709
vt 0.084679 0.942785
vt 0.122272 0.942792
vt 0.084682 0.928869
vt 0.122274 0.928875
vt 0.084684 0.914952
vt 0.122277 0.914959
vt 0.084687 0.901036
vt 0.122279 0.901042
vt 0.084689 0.887119
vt 0.122282 0.887126
vt 0.462642 0.410748
vt 0.464262 0.413926
vt 0.460120 0.408226
vt 0.456942 0.406607
vt 0.453419 0.406049
vt 0.449897 0.406607
vt 0.446719 0.408226
vt 0.444197 0.410748
vt 0.442577 0.413926
vt 0.442019 0.417449
vt 0.442577 0.420972
vt 0.444197 0.424150
vt 0.446719 0.426672
vt 0.449897 0.428291
vt 0.453419 0.428849
vt 0.456942 0.428291
vt 0.460120 0.426672
vt 0.462642 0.424150
vt 0.464262 0.420972
vt 0.464820 0.417449
vt 0.426603 0.234921
vt 0.411541 0.239818
vt 0.201696 0.810001
vt 0.201696 0.821662
vt 0.410276 0.231839
vt 0.197171 0.821662
vt 0.422930 0.227724
vt 0.197171 0.810001
vt 0.395704 0.239818
vt 0.201696 0.833319
vt 0.396970 0.231839
vt 0.197171 0.833319
vt 0.380643 0.234921
vt 0.201696 0.844978
vt 0.384316 0.227724
vt 0.197171 0.844978
vt 0.367830 0.225608
vt 0.201696 0.856658
vt 0.373551 0.219895
vt 0.197171 0.856658
vt 0.358522 0.212787
vt 0.201696 0.868386
vt 0.365730 0.209120
vt 0.197171 0.868386
vt 0.353628 0.197717
vt 0.201696 0.880135
vt 0.361619 0.196453
vt 0.197171 0.880135
vt 0.353628 0.181870
vt 0.201696 0.891886
vt 0.361619 0.183134
vt 0.197171 0.891886
vt 0.358522 0.166800
vt 0.201696 0.903633
vt 0.365730 0.170467
vt 0.197171 0.903633
vt 0.367830 0.153980
vt 0.201696 0.915375
vt 0.373551 0.159692
vt 0.197171 0.915375
vt 0.201696 0.927110
vt 0.197171 0.927110
vt 0.201696 0.938840
vt 0.197171 0.938840
vt 0.201696 0.950563
vt 0.197171 0.950563
vt 0.201696 0.962281
vt 0.197171 0.962281
vt 0.201696 0.739897
vt 0.197171 0.739897
vt 0.201696 0.751608
vt 0.197171 0.751608
vt 0.201696 0.763300
vt 0.197171 0.763300
vt 0.201696 0.774984
vt 0.197171 0.774984
vt 0.201696 0.786663
vt 0.197171 0.786663
vt 0.201696 0.798335
vt 0.197171 0.798335
vt 0.084677 0.956702
vt 0.122319 0.678376
vt 0.380643 0.144665
vt 0.384316 0.151863
vt 0.395704 0.139769
vt 0.396970 0.147747
vt 0.411541 0.139769
vt 0.410276 0.147747
vt 0.426603 0.144665
vt 0.422930 0.151863
vt 0.439415 0.153980
vt 0.433694 0.159692
vt 0.448724 0.166800
vt 0.441515 0.170467
vt 0.453618 0.181870
vt 0.445627 0.183134
vt 0.453618 0.197717
vt 0.445627 0.196453
vt 0.448724 0.212788
vt 0.441515 0.209120
vt 0.439415 0.225607
vt 0.433694 0.219895
vt 0.201696 0.974006
vt 0.197171 0.974006
vn 0.951056 0.309017 0.000000
vn 0.809017 0.587785 0.000000
vn 0.809017 0.587785 0.000000
vn 0.951056 0.309017 0.000000
vn 0.587785 0.809017 0.000000
vn 0.587785 0.809017 0.000000
vn 0.309016 0.951057 0.000000
vn 0.309016 0.951057 0.000000
vn -0.000000 1.000000 0.000000
vn -0.000000 1.000000 0.000000
vn -0.309016 0.951057 0.000000
vn -0.309016 0.951057 0.000000
vn -0.587786 0.809017 0.000000
vn -0.587785 0.809017 0.000000
vn -0.809017 0.587785 0.000000
vn -0.809017 0.587785 0.000000
vn -0.951056 0.309018 0.000000
vn -0.951056 0.309018 0.000000
vn -1.000000 0.000000 0.000000
vn -1.000000 0.000000 0.000000
vn -0.951056 -0.309017 0.000000
vn -0.951056 -0.309017 0.000000
vn -0.809017 -0.587786 0.000000
vn -0.809017 -0.587786 0.000000
vn -0.587785 -0.809017 0.000000
vn -0.587785 -0.809017 0.000000
vn -0.309017 -0.951057 0.000000
vn -0.309017 -0.951057 0.000000
vn 0.000000 -1.000000 0.000000
vn 0.000000 -1.000000 0.000000
vn 0.309017 -0.951056 0.000000
vn 0.309017 -0.951056 0.000000
vn 0.587785 -0.809017 0.000000
vn 0.587785 -0.809017 0.000000
vn 0.809017 -0.587786 0.000000
vn 0.809017 -0.587786 0.000000
vn 0.951056 -0.309017 0.000000
vn 0.951056 -0.309017 0.000000
vn 1.000000 -0.000001 0.000000
vn 1.000000 -0.000001 0.000000
vn 0.000000 0.000000 -1.000000
vn 0.000000 0.000000 -1.000000
vn 0.000000 0.000000 -1.000000
vn 0.000000 0.000000 -1.000000
vn 0.000000 0.000000 -1.000000
vn 0.000000 0.000000 -1.000000
vn 0.000000 0.000000 -1.000000
vn 0.000000 0.000000 -1.000000
vn 0.000000 0.000000 -1.000000
vn 0.000000 0.000000 -1.000000
vn 0.000000 0.000000 -1.000000
vn 0.000000 0.000000 -1.000000
vn 0.000000 0.000000 -1.000000
vn 0.000000 0.000000 -1.000000
vn 0.000000 0.000000 -1.000000
vn 0.000000 0.000000 -1.000000
vn 0.000000 0.000000 -1.000000
vn 0.000000 0.000000 -1.000000
vn 0.000000 0.000000 -1.000000
vn 0.000000 0.000000 -1.000000
vn -0.425473 -0.138244 0.894349
vn -0.361929 -0.262957 0.894349
vn -0.361930 -0.262957 0.894349
vn -0.425473 -0.138245 0.894350
vn -0.262957 -0.361929 0.894350
vn -0.262957 -0.361929 0.894350
vn -0.138244 -0.425474 0.894349
vn -0.138245 -0.425474 0.894349
vn 0.000000 -0.447370 0.894349
vn 0.000000 -0.447370 0.894349
vn 0.138245 -0.425473 0.894350
vn 0.138245 -0.425473 0.894350
vn 0.262956 -0.361928 0.894350
vn 0.262956 -0.361928 0.894350
vn 0.361929 -0.262957 0.894350
vn 0.361929 -0.262956 0.894350
vn 0.425473 -0.138245 0.894350
vn 0.425473 -0.138244 0.894350
vn 0.447368 -0.000000 0.894350
vn 0.447368 -0.000000 0.894350
vn 0.425473 0.138244 0.894350
vn 0.425473 0.138244 0.894350
vn 0.361929 0.262957 0.894349
vn 0.361929 0.262957 0.894349
vn 0.262957 0.361929 0.894349
vn 0.262957 0.361929 0.894349
vn 0.138245 0.425473 0.894349
vn 0.138245 0.425473 0.894349
vn -0.000000 0.447369 0.894349
vn -0.000000 0.447369 0.894349
vn -0.138245 0.425473 0.894349
vn -0.138245 0.425473 0.894349
vn -0.262957 0.361929 0.894349
vn -0.262957 0.361929 0.894349
vn -0.361929 0.262956 0.894350
vn -0.361929 0.262956 0.894350
vn -0.425472 0.138244 0.894350
vn -0.425472 0.138244 0.894350
vn -0.447368 0.000001 0.894350
vn -0.447368 0.000001 0.894350
vn -0.910203 -0.295743 0.289944
vn -0.774265 -0.562536 0.289943
vn -0.774265 -0.562536 0.289943
vn -0.910203 -0.295743 0.289944
vn -0.562537 -0.774265 0.289943
vn -0.562537 -0.774265 0.289943
vn -0.295744 -0.910203 0.289943
vn -0.295744 -0.910203 0.289943
vn -0.000000 -0.957044 0.289943
vn -0.000000 -0.957044 0.289943
vn 0.295744 -0.910203 0.289943
vn 0.295744 -0.910203 0.289943
vn 0.562536 -0.774265 0.289943
vn 0.562536 -0.774265 0.289943
vn 0.774265 -0.562536 0.289944
vn 0.774265 -0.562536 0.289944
vn 0.910203 -0.295743 0.289944
vn 0.910203 -0.295743 0.289944
vn 0.957044 0.000000 0.289944
vn 0.957044 -0.000000 0.289944
vn 0.910203 0.295742 0.289944
vn 0.910203 0.295742 0.289944
vn 0.774264 0.562537 0.289944
vn 0.774264 0.562537 0.289944
vn 0.562536 0.774265 0.289943
vn 0.562536 0.774265 0.289943
vn 0.295743 0.910203 0.289944
vn 0.295743 0.910203 0.289944
vn -0.000000 0.957043 0.289944
vn -0.000000 0.957043 0.289944
vn -0.295743 0.910203 0.289944
vn -0.295743 0.910203 0.289944
vn -0.562536 0.774265 0.289944
vn -0.562536 0.774265 0.289944
vn -0.774266 0.562535 0.289944
vn -0.774266 0.562535 0.289944
vn -0.910203 0.295743 0.289943
vn -0.910203 0.295743 0.289943
vn -0.957044 0.000004 0.289943
vn -0.957044 0.000004 0.289943
s 1
g S_SB_06:Side_Circle Signs S_B12_01 S_SB_06:S_SB_06_BossCircle_Cover_02_low
usemtl S_SB_06:set1
f 142/212/202 143/214/203 163/215/204 162/213/205
f 143/214/203 144/216/206 164/217/207 163/215/204
f 144/216/206 145/218/208 165/219/209 164/217/207
f 145/218/208 146/220/210 166/221/211 165/219/209
f 146/220/210 147/222/212 167/223/213 166/221/211
f 147/222/212 148/224/214 168/225/215 167/223/213
f 148/224/214 149/226/216 169/227/217 168/225/215
f 149/226/216 150/228/218 170/229/219 169/227/217
f 150/228/218 151/230/220 171/231/221 170/229/219
f 151/230/220 152/232/222 172/233/223 171/231/221
f 152/232/222 153/234/224 173/235/225 172/233/223
f 153/234/224 154/236/226 174/329/227 173/235/225
f 154/328/226 155/238/228 175/239/229 174/237/227
f 155/238/228 156/240/230 176/241/231 175/239/229
f 156/240/230 157/242/232 177/243/233 176/241/231
f 157/242/232 158/244/234 178/245/235 177/243/233
f 158/244/234 159/246/236 179/247/237 178/245/235
f 159/246/236 160/208/238 180/211/239 179/247/237
f 160/208/238 161/209/240 181/210/241 180/211/239
f 161/209/240 142/212/202 162/213/205 181/210/241
s off
f 160/249/242 159/267/243 158/266/244 157/265/245 156/264/246 155/263/247 154/262/248 153/261/249 152/260/250 151/259/251 150/258/252 149/257/253 148/256/254 147/255/255 146/254/256 145/253/257 144/252/258 143/251/259 142/250/260 161/248/261
s 2
f 162/276/262 163/280/263 183/282/264 182/278/265
f 163/280/263 164/284/266 184/286/267 183/282/264
f 164/284/266 165/288/268 185/290/269 184/286/267
f 165/288/268 166/292/270 186/294/271 185/290/269
f 166/292/270 167/296/272 187/298/273 186/294/271
f 167/296/272 168/300/274 188/302/275 187/298/273
f 168/300/274 169/304/276 189/306/277 188/302/275
f 169/304/276 170/330/278 190/331/279 189/306/277
f 170/330/278 171/332/280 191/333/281 190/331/279
f 171/332/280 172/334/282 192/335/283 191/333/281
f 172/334/282 173/336/284 193/337/285 192/335/283
f 173/336/284 174/338/286 194/339/287 193/337/285
f 174/338/286 175/340/288 195/341/289 194/339/287
f 175/340/288 176/342/290 196/343/291 195/341/289
f 176/342/290 177/344/292 197/345/293 196/343/291
f 177/344/292 178/346/294 198/347/295 197/345/293
f 178/346/294 179/348/296 199/349/297 198/347/295
f 179/348/296 180/268/298 200/274/299 199/349/297
f 180/268/298 181/269/300 201/272/301 200/274/299
f 181/269/300 162/276/262 182/278/265 201/272/301
s 3
f 182/277/302 183/281/303 203/283/304 202/279/305
f 183/281/303 184/285/306 204/287/307 203/283/304
f 184/285/306 185/289/308 205/291/309 204/287/307
f 185/289/308 186/293/310 206/295/311 205/291/309
f 186/293/310 187/297/312 207/299/313 206/295/311
f 187/297/312 188/301/314 208/303/315 207/299/313
f 188/301/314 189/305/316 209/307/317 208/303/315
f 189/305/316 190/308/318 210/309/319 209/307/317
f 190/308/318 191/310/320 211/311/321 210/309/319
f 191/310/320 192/312/322 212/313/323 211/311/321
f 192/312/322 193/314/324 213/315/325 212/313/323
f 193/314/324 194/350/326 214/351/327 213/315/325
f 194/316/326 195/318/328 215/319/329 214/317/327
f 195/318/328 196/320/330 216/321/331 215/319/329
f 196/320/330 197/322/332 217/323/333 216/321/331
f 197/322/332 198/324/334 218/325/335 217/323/333
f 198/324/334 199/326/336 219/327/337 218/325/335
f 199/326/336 200/270/338 220/275/339 219/327/337
f 200/270/338 201/271/340 221/273/341 220/275/339
f 201/271/340 182/277/302 202/279/305 221/273/341
g default
v 741.807208 392.311921 75.884121
v 741.311109 392.311921 74.910471
v 740.538416 392.311921 74.137779
v 739.564766 392.311921 73.641679
v 738.485468 392.311921 73.470736
v 737.406169 392.311921 73.641680
v 736.432520 392.311921 74.137779
v 735.659828 392.311921 74.910472
v 735.163729 392.311921 75.884121
v 734.992785 392.311921 76.963420
v 735.163729 392.311921 78.042718
v 735.659828 392.311921 79.016367
v 736.432520 392.311921 79.789059
v 737.406169 392.311921 80.285158
v 738.485467 392.311921 80.456102
v 739.564766 392.311921 80.285158
v 740.538415 392.311921 79.789059
v 741.311107 392.311921 79.016367
v 741.807206 392.311921 78.042718
v 741.978150 392.311921 76.963420
v 741.807208 487.723812 75.884121
v 741.311109 487.723812 74.910471
v 740.538416 487.723812 74.137779
v 739.564766 487.723812 73.641679
v 738.485468 487.723812 73.470736
v 737.406169 487.723812 73.641680
v 736.432520 487.723812 74.137779
v 735.659828 487.723812 74.910472
v 735.163729 487.723812 75.884121
v 734.992785 487.723812 76.963420
v 735.163729 487.723812 78.042718
v 735.659828 487.723812 79.016367
v 736.432520 487.723812 79.789059
v 737.406169 487.723812 80.285158
v 738.485467 487.723812 80.456102
v 739.564766 487.723812 80.285158
v 740.538415 487.723812 79.789059
v 741.311107 487.723812 79.016367
v 741.807206 487.723812 78.042718
v 741.978150 487.723812 76.963420
vt 0.021366 0.865620
vt 0.022716 0.865620
vt 0.024065 0.865620
vt 0.025415 0.865620
vt 0.026764 0.865620
vt 0.028114 0.865620
vt 0.029463 0.865620
vt 0.030813 0.865620
vt 0.032162 0.865620
vt 0.033511 0.865620
vt 0.034861 0.865620
vt 0.036210 0.865620
vt 0.037560 0.865620
vt 0.038909 0.865620
vt 0.040259 0.865620
vt 0.041608 0.865620
vt 0.042958 0.865620
vt 0.044307 0.865621
vt 0.045657 0.865620
vt 0.047006 0.865621
vt 0.048355 0.865621
vt 0.021364 0.983445
vt 0.022714 0.983445
vt 0.024063 0.983445
vt 0.025413 0.983445
vt 0.026762 0.983445
vt 0.028112 0.983445
vt 0.029461 0.983445
vt 0.030810 0.983446
vt 0.032160 0.983446
vt 0.033509 0.983446
vt 0.034859 0.983446
vt 0.036208 0.983446
vt 0.037558 0.983446
vt 0.038907 0.983446
vt 0.040257 0.983446
vt 0.041606 0.983446
vt 0.042955 0.983446
vt 0.044305 0.983446
vt 0.045654 0.983446
vt 0.047004 0.983446
vt 0.048353 0.983446
vn 0.951057 0.000000 -0.309016
vn 0.809017 0.000000 -0.587785
vn 0.809017 0.000000 -0.587785
vn 0.951057 0.000000 -0.309016
vn 0.587785 0.000000 -0.809017
vn 0.587785 0.000000 -0.809017
vn 0.309017 0.000000 -0.951057
vn 0.309017 0.000000 -0.951057
vn -0.000000 0.000000 -1.000000
vn -0.000000 0.000000 -1.000000
vn -0.309017 0.000000 -0.951056
vn -0.309017 0.000000 -0.951056
vn -0.587785 0.000000 -0.809017
vn -0.587785 0.000000 -0.809017
vn -0.809017 0.000000 -0.587785
vn -0.809017 0.000000 -0.587785
vn -0.951057 0.000000 -0.309017
vn -0.951057 0.000000 -0.309017
vn -1.000000 0.000000 0.000000
vn -1.000000 0.000000 0.000000
vn -0.951057 0.000000 0.309017
vn -0.951057 0.000000 0.309017
vn -0.809017 0.000000 0.587785
vn -0.809017 0.000000 0.587785
vn -0.587785 0.000000 0.809017
vn -0.587785 0.000000 0.809017
vn -0.309017 0.000000 0.951057
vn -0.309017 0.000000 0.951057
vn 0.000000 0.000000 1.000000
vn 0.000000 0.000000 1.000000
vn 0.309017 0.000000 0.951057
vn 0.309017 0.000000 0.951057
vn 0.587785 0.000000 0.809017
vn 0.587785 0.000000 0.809017
vn 0.809017 0.000000 0.587785
vn 0.809017 0.000000 0.587785
vn 0.951057 0.000000 0.309017
vn 0.951057 0.000000 0.309017
vn 1.000000 0.000000 0.000001
vn 1.000000 0.000000 0.000001
s 1
g S_SB_06:Side_Circle Signs S_B12_01 S_SB_06:S_SB_06_BossCircle_Pipe_Vertical_low
usemtl S_SB_06:set1
f 222/352/342 223/353/343 243/374/344 242/373/345
f 223/353/343 224/354/346 244/375/347 243/374/344
f 224/354/346 225/355/348 245/376/349 244/375/347
f 225/355/348 226/356/350 246/377/351 245/376/349
f 226/356/350 227/357/352 247/378/353 246/377/351
f 227/357/352 228/358/354 248/379/355 247/378/353
f 228/358/354 229/359/356 249/380/357 248/379/355
f 229/359/356 230/360/358 250/381/359 249/380/357
f 230/360/358 231/361/360 251/382/361 250/381/359
f 231/361/360 232/362/362 252/383/363 251/382/361
f 232/362/362 233/363/364 253/384/365 252/383/363
f 233/363/364 234/364/366 254/385/367 253/384/365
f 234/364/366 235/365/368 255/386/369 254/385/367
f 235/365/368 236/366/370 256/387/371 255/386/369
f 236/366/370 237/367/372 257/388/373 256/387/371
f 237/367/372 238/368/374 258/389/375 257/388/373
f 238/368/374 239/369/376 259/390/377 258/389/375
f 239/369/376 240/370/378 260/391/379 259/390/377
f 240/370/378 241/371/380 261/392/381 260/391/379
f 241/371/380 222/372/342 242/393/345 261/392/381
g default
v 738.485456 440.017866 86.079191
v 768.304534 449.706675 86.079191
v 763.851064 458.447053 86.079191
v 756.914674 465.383467 86.079191
v 748.174279 469.836914 86.079191
v 738.485456 471.371501 86.079191
v 728.796651 469.836914 86.079191
v 720.056272 465.383467 86.079191
v 713.119850 458.447044 86.079191
v 708.666395 449.706653 86.079191
v 707.131855 440.017866 86.079191
v 708.666395 430.329062 86.079191
v 713.119850 421.588673 86.079191
v 720.056272 414.652263 86.079192
v 728.796669 410.198807 86.079191
v 738.485456 408.664259 86.079191
v 748.174244 410.198813 86.079191
v 756.914639 414.652263 86.079192
v 763.851043 421.588673 86.079191
v 768.304464 430.329062 86.079191
v 769.839059 440.017871 86.079191
vt 0.422687 0.077183
vt 0.416525 0.089275
vt 0.381431 0.063778
vt 0.406929 0.098872
vt 0.394836 0.105034
vt 0.381431 0.107157
vt 0.368027 0.105034
vt 0.355934 0.098872
vt 0.346337 0.089275
vt 0.340176 0.077183
vt 0.338053 0.063778
vt 0.340176 0.050373
vt 0.346337 0.038280
vt 0.355934 0.028684
vt 0.368027 0.022522
vt 0.381431 0.020399
vt 0.394836 0.022522
vt 0.406929 0.028684
vt 0.416525 0.038280
vt 0.422687 0.050373
vt 0.424810 0.063778
vn 0.000000 0.000000 1.000000
vn -0.000000 0.000000 1.000000
vn 0.000000 0.000000 1.000000
vn -0.000000 0.000000 1.000000
vn 0.000000 -0.000000 1.000000
vn 0.000000 0.000000 1.000000
vn -0.000000 -0.000000 1.000000
vn -0.000000 0.000000 1.000000
vn 0.000000 0.000000 1.000000
vn 0.000000 0.000000 1.000000
vn 0.000000 0.000000 1.000000
vn 0.000000 0.000000 1.000000
vn -0.000000 0.000000 1.000000
vn 0.000000 0.000000 1.000000
vn 0.000000 -0.000000 1.000000
vn 0.000000 0.000000 1.000000
vn -0.000000 -0.000000 1.000000
vn -0.000000 -0.000000 1.000000
vn 0.000000 0.000000 1.000000
vn 0.000000 0.000000 1.000000
vn 0.000000 0.000000 1.000000
s 1
g S_SB_06:Side_Circle Signs S_B12_01 S_SB_06:S_SB_06_BossCircle_Inner_02_low
usemtl S_SB_06:set1
f 263/394/382 264/395/383 262/396/384
f 264/395/383 265/397/385 262/396/384
f 265/397/385 266/398/386 262/396/384
f 266/398/386 267/399/387 262/396/384
f 267/399/387 268/400/388 262/396/384
f 268/400/388 269/401/389 262/396/384
f 269/401/389 270/402/390 262/396/384
f 270/402/390 271/403/391 262/396/384
f 271/403/391 272/404/392 262/396/384
f 272/404/392 273/405/393 262/396/384
f 273/405/393 274/406/394 262/396/384
f 274/406/394 275/407/395 262/396/384
f 275/407/395 276/408/396 262/396/384
f 276/408/396 277/409/397 262/396/384
f 277/409/397 278/410/398 262/396/384
f 278/410/398 279/411/399 262/396/384
f 279/411/399 280/412/400 262/396/384
f 280/412/400 281/413/401 262/396/384
f 281/413/401 282/414/402 262/396/384
f 282/414/402 263/394/382 262/396/384
g default
v 738.485456 360.167933 86.079191
v 768.304534 369.856737 86.079191
v 763.851064 378.597117 86.079191
v 756.914674 385.533531 86.079191
v 748.174279 389.986974 86.079191
v 738.485456 391.521564 86.079191
v 728.796651 389.986974 86.079191
v 720.056272 385.533531 86.079191
v 713.119850 378.597111 86.079191
v 708.666395 369.856719 86.079191
v 707.131855 360.167933 86.079191
v 708.666395 350.479123 86.079191
v 713.119850 341.738736 86.079191
v 720.056272 334.802323 86.079192
v 728.796669 330.348868 86.079191
v 738.485456 328.814316 86.079191
v 748.174244 330.348879 86.079191
v 756.914639 334.802323 86.079192
v 763.851043 341.738736 86.079191
v 768.304464 350.479123 86.079191
v 769.839059 360.167933 86.079191
vt 0.422687 0.077183
vt 0.416526 0.089275
vt 0.381431 0.063778
vt 0.406929 0.098872
vt 0.394836 0.105033
vt 0.381431 0.107157
vt 0.368027 0.105033
vt 0.355934 0.098872
vt 0.346337 0.089275
vt 0.340176 0.077183
vt 0.338053 0.063778
vt 0.340176 0.050373
vt 0.346337 0.038280
vt 0.355934 0.028684
vt 0.368027 0.022522
vt 0.381431 0.020399
vt 0.394836 0.022522
vt 0.406929 0.028684
vt 0.416526 0.038280
vt 0.422687 0.050373
vt 0.424810 0.063778
vn 0.000000 0.000000 1.000000
vn -0.000000 0.000000 1.000000
vn -0.000000 0.000000 1.000000
vn -0.000000 0.000000 1.000000
vn 0.000000 -0.000000 1.000000
vn 0.000000 0.000000 1.000000
vn -0.000000 -0.000000 1.000000
vn -0.000000 0.000000 1.000000
vn 0.000000 0.000000 1.000000
vn 0.000000 0.000000 1.000000
vn 0.000000 0.000000 1.000000
vn 0.000000 0.000000 1.000000
vn -0.000000 0.000000 1.000000
vn 0.000000 0.000000 1.000000
vn 0.000000 -0.000000 1.000000
vn 0.000000 0.000000 1.000000
vn -0.000000 -0.000000 1.000000
vn -0.000000 -0.000000 1.000000
vn 0.000000 0.000000 1.000000
vn 0.000000 0.000000 1.000000
vn 0.000000 0.000000 1.000000
s 1
g S_SB_06:Side_Circle Signs S_B12_01 S_SB_06:S_SB_06_BossCircle_Inner_03_low
usemtl S_SB_06:set1
f 284/415/403 285/416/404 283/417/405
f 285/416/404 286/418/406 283/417/405
f 286/418/406 287/419/407 283/417/405
f 287/419/407 288/420/408 283/417/405
f 288/420/408 289/421/409 283/417/405
f 289/421/409 290/422/410 283/417/405
f 290/422/410 291/423/411 283/417/405
f 291/423/411 292/424/412 283/417/405
f 292/424/412 293/425/413 283/417/405
f 293/425/413 294/426/414 283/417/405
f 294/426/414 295/427/415 283/417/405
f 295/427/415 296/428/416 283/417/405
f 296/428/416 297/429/417 283/417/405
f 297/429/417 298/430/418 283/417/405
f 298/430/418 299/431/419 283/417/405
f 299/431/419 300/432/420 283/417/405
f 300/432/420 301/433/421 283/417/405
f 301/433/421 302/434/422 283/417/405
f 302/434/422 303/435/423 283/417/405
f 303/435/423 284/415/403 283/417/405
g default
v 772.741880 371.277142 61.742767
v 767.625674 381.318185 61.742767
v 759.657104 389.286823 61.742767
v 749.616021 394.402964 61.742767
v 738.485456 396.165885 61.742767
v 727.354873 394.402964 61.742767
v 717.313824 389.286823 61.742767
v 709.345222 381.318180 61.742767
v 704.229048 371.277142 61.742767
v 702.466136 360.146567 61.742767
v 704.229048 349.015975 61.742767
v 709.345222 338.974955 61.742767
v 717.313842 331.006335 61.742767
v 727.354890 325.890162 61.742767
v 738.485456 324.127258 61.742767
v 749.616021 325.890162 61.742767
v 759.657071 331.006335 61.742767
v 767.625674 338.974955 61.742767
v 772.741863 349.015993 61.742767
v 774.504757 360.146567 61.742767
v 772.741880 371.277148 92.184072
v 767.625674 381.318191 92.184072
v 759.657104 389.286829 92.184072
v 749.616021 394.402964 92.184072
v 738.485456 396.165885 92.184072
v 727.354873 394.402964 92.184072
v 717.313824 389.286829 92.184072
v 709.345222 381.318185 92.184073
v 704.229048 371.277148 92.184072
v 702.466136 360.146573 92.184072
v 704.229048 349.015981 92.184072
v 709.345222 338.974955 92.184072
v 717.313842 331.006335 92.184072
v 727.354890 325.890173 92.184072
v 738.485456 324.127258 92.184072
v 749.616021 325.890173 92.184072
v 759.657071 331.006335 92.184072
v 767.625674 338.974955 92.184072
v 772.741863 349.015999 92.184072
v 774.504757 360.146573 92.184072
v 767.806097 369.673425 89.588052
v 763.427066 378.267705 89.588052
v 756.606624 385.088177 89.588052
v 748.012327 389.467181 89.588050
v 738.485456 390.976117 89.588050
v 728.958603 389.467181 89.588050
v 720.364322 385.088177 89.588052
v 713.543845 378.267699 89.588052
v 709.164831 369.673402 89.588052
v 707.655939 360.146567 89.588052
v 709.164831 350.619715 89.588050
v 713.543845 342.025430 89.588050
v 720.364322 335.204964 89.588052
v 728.958621 330.825953 89.588052
v 738.485456 329.317047 89.588050
v 748.012292 330.825953 89.588052
v 756.606590 335.204964 89.588052
v 763.427049 342.025430 89.588050
v 767.806027 350.619715 89.588050
v 769.314972 360.146573 89.588052
v 766.795089 369.344931 86.079191
v 762.567053 377.642876 86.079191
v 755.981788 384.228166 86.079191
v 747.683830 388.456176 86.079191
v 738.485456 389.913085 86.079191
v 729.287099 388.456176 86.079191
v 720.989158 384.228166 86.079191
v 714.403858 377.642864 86.079191
v 710.175839 369.344914 86.079191
v 708.718975 360.146573 86.079191
v 710.175839 350.948215 86.079191
v 714.403858 342.650265 86.079191
v 720.989158 336.064974 86.079191
v 729.287116 331.836958 86.079191
v 738.485456 330.380079 86.079191
v 747.683796 331.836958 86.079191
v 755.981752 336.064974 86.079191
v 762.567036 342.650265 86.079191
v 766.795022 350.948215 86.079191
v 768.251939 360.146573 86.079191
vt 0.013771 0.679247
vt 0.013773 0.665330
vt 0.051366 0.665337
vt 0.051363 0.679254
vt 0.013776 0.651414
vt 0.051368 0.651421
vt 0.013778 0.637497
vt 0.051371 0.637504
vt 0.013781 0.623581
vt 0.051373 0.623587
vt 0.013783 0.609664
vt 0.051376 0.609671
vt 0.013786 0.595747
vt 0.051378 0.595754
vt 0.013788 0.581831
vt 0.051381 0.581837
vt 0.013791 0.567914
vt 0.051383 0.567921
vt 0.013793 0.553998
vt 0.051385 0.554004
vt 0.013796 0.540081
vt 0.051388 0.540088
vt 0.013798 0.526164
vt 0.051390 0.526171
vt 0.013801 0.512248
vt 0.051393 0.512254
vt 0.013803 0.498331
vt 0.051395 0.498338
vt 0.013805 0.484415
vt 0.051348 0.762753
vt 0.013759 0.748830
vt 0.051351 0.748837
vt 0.013761 0.734914
vt 0.051353 0.734920
vt 0.013763 0.720997
vt 0.051356 0.721004
vt 0.013766 0.707080
vt 0.051358 0.707087
vt 0.013768 0.693164
vt 0.051361 0.693170
vt 0.462642 0.410748
vt 0.464262 0.413926
vt 0.460120 0.408226
vt 0.456942 0.406607
vt 0.453419 0.406049
vt 0.449897 0.406607
vt 0.446719 0.408226
vt 0.444197 0.410748
vt 0.442577 0.413926
vt 0.442019 0.417449
vt 0.442577 0.420972
vt 0.444197 0.424150
vt 0.446719 0.426672
vt 0.449897 0.428291
vt 0.453419 0.428849
vt 0.456942 0.428291
vt 0.460120 0.426672
vt 0.462642 0.424150
vt 0.464262 0.420972
vt 0.464820 0.417449
vt 0.426603 0.234922
vt 0.411541 0.239818
vt 0.243890 0.727281
vt 0.243890 0.740503
vt 0.410276 0.231840
vt 0.238759 0.740503
vt 0.422930 0.227724
vt 0.238759 0.727281
vt 0.395704 0.239818
vt 0.243890 0.753720
vt 0.396970 0.231840
vt 0.238759 0.753720
vt 0.380643 0.234922
vt 0.243890 0.766940
vt 0.384316 0.227724
vt 0.238759 0.766940
vt 0.367830 0.225607
vt 0.243890 0.780184
vt 0.373551 0.219895
vt 0.238759 0.780184
vt 0.358522 0.212787
vt 0.243890 0.793482
vt 0.365730 0.209120
vt 0.238759 0.793482
vt 0.353628 0.197717
vt 0.243890 0.806803
vt 0.361619 0.196453
vt 0.238759 0.806803
vt 0.353628 0.181870
vt 0.243890 0.820127
vt 0.361619 0.183134
vt 0.238759 0.820127
vt 0.358522 0.166800
vt 0.243890 0.833446
vt 0.365730 0.170467
vt 0.238759 0.833446
vt 0.367830 0.153980
vt 0.243890 0.846759
vt 0.373551 0.159692
vt 0.238759 0.846759
vt 0.243890 0.860066
vt 0.238759 0.860066
vt 0.243890 0.873366
vt 0.238759 0.873366
vt 0.243890 0.886659
vt 0.238759 0.886659
vt 0.243890 0.899945
vt 0.238759 0.899945
vt 0.243890 0.647792
vt 0.238759 0.647792
vt 0.243890 0.661071
vt 0.238759 0.661071
vt 0.243890 0.674328
vt 0.238759 0.674328
vt 0.243890 0.687576
vt 0.238759 0.687576
vt 0.243890 0.700818
vt 0.238759 0.700818
vt 0.243890 0.714053
vt 0.238759 0.714053
vt 0.013756 0.762747
vt 0.051398 0.484421
vt 0.380643 0.144665
vt 0.384316 0.151863
vt 0.395704 0.139769
vt 0.396970 0.147748
vt 0.411541 0.139769
vt 0.410276 0.147747
vt 0.426603 0.144665
vt 0.422930 0.151863
vt 0.439415 0.153980
vt 0.433694 0.159692
vt 0.448724 0.166800
vt 0.441515 0.170467
vt 0.453618 0.181870
vt 0.445627 0.183134
vt 0.453618 0.197717
vt 0.445627 0.196453
vt 0.448724 0.212788
vt 0.441515 0.209120
vt 0.439415 0.225607
vt 0.433694 0.219895
vt 0.243890 0.913240
vt 0.238759 0.913240
vn 0.951056 0.309017 -0.000000
vn 0.809017 0.587785 -0.000000
vn 0.809017 0.587785 -0.000000
vn 0.951056 0.309017 -0.000000
vn 0.587785 0.809017 -0.000000
vn 0.587785 0.809017 -0.000000
vn 0.309016 0.951057 -0.000000
vn 0.309016 0.951057 -0.000000
vn -0.000000 1.000000 0.000000
vn -0.000000 1.000000 0.000000
vn -0.309016 0.951057 -0.000000
vn -0.309016 0.951057 -0.000000
vn -0.587785 0.809017 -0.000000
vn -0.587785 0.809017 -0.000000
vn -0.809017 0.587785 -0.000000
vn -0.809017 0.587785 -0.000000
vn -0.951056 0.309018 -0.000000
vn -0.951056 0.309018 -0.000000
vn -1.000000 -0.000000 -0.000000
vn -1.000000 0.000000 -0.000000
vn -0.951056 -0.309018 0.000000
vn -0.951056 -0.309017 0.000000
vn -0.809017 -0.587786 0.000000
vn -0.809017 -0.587786 0.000000
vn -0.587785 -0.809017 0.000000
vn -0.587785 -0.809017 0.000000
vn -0.309017 -0.951056 0.000000
vn -0.309017 -0.951056 0.000000
vn 0.000000 -1.000000 0.000000
vn 0.000000 -1.000000 0.000000
vn 0.309017 -0.951056 0.000000
vn 0.309017 -0.951056 0.000000
vn 0.587786 -0.809017 0.000000
vn 0.587786 -0.809017 0.000000
vn 0.809017 -0.587785 0.000000
vn 0.809017 -0.587785 0.000000
vn 0.951056 -0.309017 0.000000
vn 0.951056 -0.309017 0.000000
vn 1.000000 -0.000001 0.000000
vn 1.000000 -0.000001 0.000000
vn 0.000000 0.000000 -1.000000
vn 0.000000 0.000000 -1.000000
vn 0.000000 0.000000 -1.000000
vn 0.000000 0.000000 -1.000000
vn 0.000000 0.000000 -1.000000
vn 0.000000 0.000000 -1.000000
vn 0.000000 0.000000 -1.000000
vn 0.000000 0.000000 -1.000000
vn 0.000000 0.000000 -1.000000
vn 0.000000 0.000000 -1.000000
vn 0.000000 0.000000 -1.000000
vn 0.000000 0.000000 -1.000000
vn 0.000000 0.000000 -1.000000
vn 0.000000 0.000000 -1.000000
vn 0.000000 0.000000 -1.000000
vn 0.000000 0.000000 -1.000000
vn 0.000000 0.000000 -1.000000
vn 0.000000 0.000000 -1.000000
vn 0.000000 0.000000 -1.000000
vn 0.000000 0.000000 -1.000000
vn -0.425473 -0.138244 0.894349
vn -0.361929 -0.262957 0.894350
vn -0.361929 -0.262957 0.894350
vn -0.425473 -0.138245 0.894349
vn -0.262956 -0.361929 0.894350
vn -0.262957 -0.361928 0.894350
vn -0.138244 -0.425474 0.894349
vn -0.138245 -0.425474 0.894349
vn 0.000000 -0.447370 0.894349
vn 0.000000 -0.447370 0.894349
vn 0.138245 -0.425473 0.894350
vn 0.138245 -0.425473 0.894350
vn 0.262956 -0.361928 0.894350
vn 0.262956 -0.361928 0.894350
vn 0.361929 -0.262957 0.894350
vn 0.361929 -0.262957 0.894350
vn 0.425473 -0.138245 0.894350
vn 0.425473 -0.138244 0.894350
vn 0.447368 -0.000000 0.894350
vn 0.447368 -0.000000 0.894350
vn 0.425473 0.138244 0.894350
vn 0.425473 0.138244 0.894350
vn 0.361929 0.262957 0.894349
vn 0.361929 0.262957 0.894349
vn 0.262956 0.361929 0.894350
vn 0.262956 0.361929 0.894350
vn 0.138244 0.425473 0.894350
vn 0.138244 0.425473 0.894350
vn -0.000000 0.447369 0.894349
vn -0.000000 0.447369 0.894349
vn -0.138245 0.425473 0.894349
vn -0.138245 0.425473 0.894349
vn -0.262957 0.361929 0.894350
vn -0.262957 0.361929 0.894349
vn -0.361929 0.262956 0.894350
vn -0.361929 0.262956 0.894350
vn -0.425472 0.138244 0.894350
vn -0.425472 0.138244 0.894350
vn -0.447368 0.000001 0.894350
vn -0.447368 0.000001 0.894350
vn -0.910203 -0.295742 0.289943
vn -0.774265 -0.562536 0.289942
vn -0.774265 -0.562536 0.289942
vn -0.910203 -0.295743 0.289943
vn -0.562537 -0.774265 0.289943
vn -0.562537 -0.774265 0.289943
vn -0.295744 -0.910202 0.289944
vn -0.295744 -0.910202 0.289944
vn -0.000000 -0.957043 0.289945
vn -0.000000 -0.957043 0.289945
vn 0.295744 -0.910202 0.289943
vn 0.295744 -0.910202 0.289943
vn 0.562536 -0.774265 0.289943
vn 0.562536 -0.774265 0.289943
vn 0.774265 -0.562536 0.289944
vn 0.774265 -0.562536 0.289944
vn 0.910203 -0.295742 0.289943
vn 0.910203 -0.295743 0.289943
vn 0.957044 0.000000 0.289944
vn 0.957044 -0.000000 0.289944
vn 0.910202 0.295742 0.289945
vn 0.910203 0.295742 0.289945
vn 0.774264 0.562536 0.289944
vn 0.774264 0.562536 0.289944
vn 0.562536 0.774265 0.289943
vn 0.562536 0.774265 0.289943
vn 0.295743 0.910203 0.289943
vn 0.295743 0.910203 0.289943
vn 0.000000 0.957044 0.289943
vn -0.000000 0.957044 0.289943
vn -0.295743 0.910203 0.289942
vn -0.295743 0.910203 0.289942
vn -0.562536 0.774265 0.289942
vn -0.562536 0.774265 0.289942
vn -0.774266 0.562535 0.289943
vn -0.774266 0.562535 0.289943
vn -0.910203 0.295743 0.289943
vn -0.910203 0.295743 0.289943
vn -0.957044 0.000004 0.289943
vn -0.957044 0.000004 0.289943
s 1
g S_SB_06:Side_Circle Signs S_B12_01 S_SB_06:S_SB_06_BossCircle_Cover_03_low
usemtl S_SB_06:set1
f 304/440/424 305/442/425 325/443/426 324/441/427
f 305/442/425 306/444/428 326/445/429 325/443/426
f 306/444/428 307/446/430 327/447/431 326/445/429
f 307/446/430 308/448/432 328/449/433 327/447/431
f 308/448/432 309/450/434 329/451/435 328/449/433
f 309/450/434 310/452/436 330/453/437 329/451/435
f 310/452/436 311/454/438 331/455/439 330/453/437
f 311/454/438 312/456/440 332/457/441 331/455/439
f 312/456/440 313/458/442 333/459/443 332/457/441
f 313/458/442 314/460/444 334/461/445 333/459/443
f 314/460/444 315/462/446 335/463/447 334/461/445
f 315/462/446 316/464/448 336/557/449 335/463/447
f 316/556/448 317/466/450 337/467/451 336/465/449
f 317/466/450 318/468/452 338/469/453 337/467/451
f 318/468/452 319/470/454 339/471/455 338/469/453
f 319/470/454 320/472/456 340/473/457 339/471/455
f 320/472/456 321/474/458 341/475/459 340/473/457
f 321/474/458 322/436/460 342/439/461 341/475/459
f 322/436/460 323/437/462 343/438/463 342/439/461
f 323/437/462 304/440/424 324/441/427 343/438/463
s off
f 322/477/464 321/495/465 320/494/466 319/493/467 318/492/468 317/491/469 316/490/470 315/489/471 314/488/472 313/487/473 312/486/474 311/485/475 310/484/476 309/483/477 308/482/478 307/481/479 306/480/480 305/479/481 304/478/482 323/476/483
s 2
f 324/504/484 325/508/485 345/510/486 344/506/487
f 325/508/485 326/512/488 346/514/489 345/510/486
f 326/512/488 327/516/490 347/518/491 346/514/489
f 327/516/490 328/520/492 348/522/493 347/518/491
f 328/520/492 329/524/494 349/526/495 348/522/493
f 329/524/494 330/528/496 350/530/497 349/526/495
f 330/528/496 331/532/498 351/534/499 350/530/497
f 331/532/498 332/558/500 352/559/501 351/534/499
f 332/558/500 333/560/502 353/561/503 352/559/501
f 333/560/502 334/562/504 354/563/505 353/561/503
f 334/562/504 335/564/506 355/565/507 354/563/505
f 335/564/506 336/566/508 356/567/509 355/565/507
f 336/566/508 337/568/510 357/569/511 356/567/509
f 337/568/510 338/570/512 358/571/513 357/569/511
f 338/570/512 339/572/514 359/573/515 358/571/513
f 339/572/514 340/574/516 360/575/517 359/573/515
f 340/574/516 341/576/518 361/577/519 360/575/517
f 341/576/518 342/496/520 362/502/521 361/577/519
f 342/496/520 343/497/522 363/500/523 362/502/521
f 343/497/522 324/504/484 344/506/487 363/500/523
s 3
f 344/505/524 345/509/525 365/511/526 364/507/527
f 345/509/525 346/513/528 366/515/529 365/511/526
f 346/513/528 347/517/530 367/519/531 366/515/529
f 347/517/530 348/521/532 368/523/533 367/519/531
f 348/521/532 349/525/534 369/527/535 368/523/533
f 349/525/534 350/529/536 370/531/537 369/527/535
f 350/529/536 351/533/538 371/535/539 370/531/537
f 351/533/538 352/536/540 372/537/541 371/535/539
f 352/536/540 353/538/542 373/539/543 372/537/541
f 353/538/542 354/540/544 374/541/545 373/539/543
f 354/540/544 355/542/546 375/543/547 374/541/545
f 355/542/546 356/578/548 376/579/549 375/543/547
f 356/544/548 357/546/550 377/547/551 376/545/549
f 357/546/550 358/548/552 378/549/553 377/547/551
f 358/548/552 359/550/554 379/551/555 378/549/553
f 359/550/554 360/552/556 380/553/557 379/551/555
f 360/552/556 361/554/558 381/555/559 380/553/557
f 361/554/558 362/498/560 382/503/561 381/555/559
f 362/498/560 363/499/562 383/501/563 382/503/561
f 363/499/562 344/505/524 364/507/527 383/501/563
