# This file uses centimeters as units for non-parametric coordinates.

mtllib SB12_SignVertical.mtl
g default
v -546.854802 239.806267 180.618341
v -549.243417 240.795650 180.618341
v -545.865402 237.417664 180.618341
v -545.865402 237.417664 160.428402
v -549.243417 240.795650 160.428402
v -546.854802 239.806267 160.428402
v -612.442795 239.806267 180.618341
v -613.432183 237.417664 180.618341
v -610.054183 240.795650 180.618341
v -613.432183 237.417664 160.428402
v -612.442795 239.806267 160.428402
v -610.054183 240.795650 160.428402
v -546.854802 4.199915 180.618341
v -545.865402 6.588498 180.618341
v -549.243417 3.210484 180.618341
v -546.854802 4.199915 160.428402
v -549.243417 3.210484 160.428402
v -545.865402 6.588498 160.428402
v -612.442795 4.199915 180.618341
v -610.054183 3.210484 180.618341
v -613.432183 6.588498 180.618341
v -612.442795 4.199915 160.428402
v -613.432183 6.588498 160.428402
v -610.054183 3.210484 160.428402
vt 0.130181 0.914667
vt 0.130042 0.360990
vt 0.130067 0.460274
vt 0.130156 0.815385
vt 0.973973 0.684457
vt 0.129972 0.013663
vt 0.844572 0.677668
vt 0.130158 0.823165
vt 0.980707 0.212311
vt 0.130044 0.368771
vt 0.851306 0.205523
vt 0.130069 0.468054
vt 0.144249 0.368768
vt 0.980782 0.677646
vt 0.144364 0.823162
vt 0.844497 0.212334
vt 0.308385 0.023149
vt 0.308385 0.115171
vt 0.307031 0.116518
vt 0.282658 0.116518
vt 0.281304 0.115171
vt 0.281304 0.023149
vt 0.282658 0.021802
vt 0.307031 0.021802
vt 0.978788 0.682462
vt 0.129971 0.009773
vt 0.281304 0.116518
vt 0.130182 0.918558
vt 0.846568 0.682483
vt 0.130157 0.819275
vt 0.308385 0.116518
vt 0.978711 0.207497
vt 0.130043 0.364881
vt 0.281304 0.021802
vt 0.846491 0.207518
vt 0.130068 0.464164
vt 0.308385 0.021802
vt 0.144273 0.464160
vt 0.144274 0.468051
vt 0.144272 0.460270
vt 0.144248 0.364878
vt 0.973896 0.205503
vt 0.144247 0.360987
vt 0.144363 0.819271
vt 0.851383 0.684477
vt 0.144361 0.815381
vt 0.144387 0.918554
vt 0.144176 0.009770
vt 0.144177 0.013660
vt 0.144386 0.914664
vn -0.015653 0.999878 0.000000
vn -0.015653 0.999878 0.000000
vn 0.015653 0.999878 0.000000
vn 0.015653 0.999878 0.000000
vn -0.015654 -0.999878 0.000000
vn -0.015654 -0.999878 0.000000
vn 0.015654 -0.999878 0.000000
vn 0.015654 -0.999878 0.000000
vn 0.999991 -0.004242 0.000000
vn 0.999991 -0.004242 0.000000
vn 0.999991 0.004242 0.000000
vn 0.999991 0.004242 0.000000
vn -0.999991 -0.004242 0.000000
vn -0.999991 -0.004242 0.000000
vn -0.999991 0.004242 0.000000
vn -0.999991 0.004242 0.000000
vn 0.382679 0.923881 0.000000
vn 0.382679 0.923881 0.000000
vn 0.923878 0.382686 0.000000
vn 0.923878 0.382686 0.000000
vn -0.923880 0.382683 0.000000
vn -0.923880 0.382683 0.000000
vn -0.382679 0.923881 0.000000
vn -0.382679 0.923881 0.000000
vn 0.923877 -0.382689 0.000000
vn 0.923877 -0.382689 0.000000
vn 0.382695 -0.923875 0.000000
vn 0.382695 -0.923875 0.000000
vn -0.382695 -0.923875 0.000000
vn -0.382695 -0.923875 0.000000
vn -0.923879 -0.382685 0.000000
vn -0.923879 -0.382685 0.000000
vn 0.000000 0.000000 1.000000
vn 0.000000 0.000000 1.000000
vn 0.000000 0.000000 1.000000
vn 0.000000 0.000000 1.000000
vn 0.000000 0.000000 -1.000000
vn 0.000000 0.000000 -1.000000
vn 0.000000 0.000000 -1.000000
vn 0.000000 0.000000 -1.000000
vn 0.000000 0.000000 -1.000000
vn 0.000000 0.000000 -1.000000
vn 0.000000 0.000000 -1.000000
vn 0.000000 0.000000 -1.000000
vn 0.000000 0.000000 -1.000000
vn 0.000000 0.000000 -1.000000
vn 0.000000 0.000000 -1.000000
vn 0.000000 0.000000 -1.000000
vn 0.000000 0.000000 1.000000
vn 0.000000 0.000000 1.000000
vn 0.000000 0.000000 1.000000
vn 0.000000 0.000000 1.000000
vn 0.000000 0.000000 1.000000
vn 0.000000 0.000000 1.000000
vn 0.000000 0.000000 1.000000
vn 0.000000 0.000000 1.000000
s 1
g S_SB_03:SS03_low S_SB_03:Arms_Crossed Signs S_B12_01
usemtl S_SB_03:set1
f 12/8/1 9/15/2 2/50/3 5/1/4
s 2
f 20/40/5 24/3/6 17/10/7 15/13/8
s 3
f 14/43/9 18/2/10 4/6/11 3/49/12
s 4
f 23/12/13 21/39/14 8/46/15 10/4/16
s 1
f 2/50/3 1/47/17 6/28/18 5/1/4
s 3
f 1/48/19 3/49/12 4/6/11 6/26/20
s 4
f 8/46/15 7/44/21 11/30/22 10/4/16
s 1
f 7/44/23 9/15/2 12/8/1 11/30/24
s 3
f 14/43/9 13/41/25 16/33/26 18/2/10
s 2
f 13/41/27 15/13/8 17/10/7 16/33/28
f 20/40/5 19/38/29 22/36/30 24/3/6
s 4
f 19/38/31 21/39/14 23/12/13 22/36/32
s 5
f 7/29/33 1/25/34 2/5/35 9/45/36
s off
f 22/37/37 23/17/38 10/18/39 11/31/40 12/19/41 5/20/42 6/27/43 4/21/44 18/22/45 16/34/46 17/23/47 24/24/48
s 5
f 21/16/49 14/9/50 3/14/51 8/7/52
f 8/7/52 3/14/51 1/25/34 7/29/33
f 19/35/53 13/32/54 14/9/50 21/16/49
f 19/35/53 20/11/55 15/42/56 13/32/54
